<?xml version="1.0" encoding="utf-8"?>
<!-- Generator: Adobe Illustrator 26.3.1, SVG Export Plug-In . SVG Version: 6.00 Build 0)  -->
<svg version="1.1" id="affiliation" xmlns="http://www.w3.org/2000/svg" xmlns:xlink="http://www.w3.org/1999/xlink" x="0px"
	 y="0px" viewBox="0 0 256 256" style="enable-background:new 0 0 256 256;" xml:space="preserve">
<style type="text/css">
	.st0{display:none;fill:#FFFFFF;}
	.st1{fill:#FFFFFF;}
	.st2{fill:#231F20;}
</style>
<rect id="black" width="256" height="256"/>
<circle id="background_x5F_circle" class="st0" cx="128" cy="128" r="128"/>
<path id="background_x5F_rectangle" class="st1" d="M206.9,256H49.1C22.1,256,0,233.9,0,206.9V49.1C0,22.1,22.1,0,49.1,0h157.9
	c27,0,49.1,22.1,49.1,49.1v157.9C256,233.9,233.9,256,206.9,256z"/>
<g id="logo_00000029004921855638880850000003084163963237851569_">
	<g>
		<path class="st2" d="M204,99c-15.4-2.5-42.9-3.5-52.3,10.9c-7.3,11.1,6.4,26.4,18.9,41.2c10,11.8,20.9,23.1,16.5,29.7
			c-3.6,5.4-26.9,5.4-34.9,5.8c-9.7,0.5-23.8,0.6-26.2,1.9c-2.5,1.3-3.4,4.9,4.8,6.4c12.9,2.3,25.9,3.5,39,3.6
			c17.4,0,35.6-2.9,39.6-16.3c3.2-10.8-7.9-22.4-17.5-34.1c-10.6-12.9-21.4-22-20.5-31.1c0.7-7.1,14.6-7.5,37.6-7.9
			c4.8,0,14.3-0.3,12.5-4.1C219.9,101.5,212.7,100.4,204,99z"/>
		<path class="st2" d="M115.4,47.9c16.5,0,32.3,3,36,7.4c5.9,6.8-4.2,23.5-35.5,46.4c-6,4.4-10.6,8.5-11.5,10.4
			c-0.5,0.8-0.3,2,0.6,2.5c0.2,0.2,0.5,0.3,0.8,0.3c1.7,0.2,5.8-0.7,12.7-4c27.8-13.5,59.7-40.9,53.4-59.8
			c-3.8-11.5-24.4-14.8-41.9-14.2C112.6,37.6,97,41.8,98,45C99.2,48.9,111,47.9,115.4,47.9z"/>
		<path class="st2" d="M133.1,131.1c-9.9-6.8-27.4-9-41.9-8.3c-12.9,0.7-35.1,4.8-34.2,8.9c0.8,4.4,14.8,3.1,21.2,3.1
			c14.1,0,36.6,0.8,40.1,10c7.6,19.6-44.1,54.9-55.1,51.5c-5-1.5,10.1-27.1,15.6-36.3c3.3-5.5,8.2-14.1,4-14.8
			c-4.7-0.7-10,7.5-13.3,12.2c-9.7,13-18.4,26.7-26.2,40.9c-2.3,4.4-10.1,17.7-7.4,19.4c2.7,1.7,14.3-0.7,29.3-6.6
			c47.3-18.7,68.5-43.1,74.2-63.2C141,141.3,138.5,134.6,133.1,131.1z"/>
	</g>
</g>
</svg>
