<?xml version="1.0" encoding="utf-8"?>
<!-- Generator: Adobe Illustrator 26.3.1, SVG Export Plug-In . SVG Version: 6.00 Build 0)  -->
<svg version="1.1" id="affiliation" xmlns="http://www.w3.org/2000/svg" xmlns:xlink="http://www.w3.org/1999/xlink" x="0px"
	 y="0px" viewBox="0 0 256 256" style="enable-background:new 0 0 256 256;" xml:space="preserve">
<style type="text/css">
	.st0{display:none;fill:#FFFFFF;}
	.st1{fill:#FFFFFF;}
	.st2{fill:#D9E2F0;}
	.st3{fill:#C8E4E2;}
	.st4{fill:#9BD3D0;}
	.st5{fill:#CDDBEE;}
	.st6{fill:#91CFCE;}
	.st7{fill:#D0E1F0;}
	.st8{fill:#90C6CA;}
	.st9{fill:#BFD3EA;}
	.st10{fill:#9CBFE2;}
	.st11{fill:#B6CEE7;}
	.st12{fill:#8FBAE0;}
	.st13{fill:#B9D0E9;}
	.st14{fill:#8BB7DF;}
	.st15{fill:#98BDE0;}
	.st16{fill:#98BBE0;}
	.st17{fill:#A6D7D5;}
	.st18{fill:#CDE7E3;}
	.st19{fill:#A4C2E3;}
	.st20{fill:#80AFDC;}
	.st21{fill:#6BA3D6;}
	.st22{fill:#79A8D8;}
	.st23{fill:#BFD3E7;}
	.st24{fill:#A5C3E1;}
	.st25{fill:#8CB7DD;}
	.st26{fill:#82B0DA;}
	.st27{fill:#519AD0;}
	.st28{fill:#1386C6;}
	.st29{fill:#1181C0;}
	.st30{fill:#81BFC5;}
	.st31{fill:#64B7BC;}
	.st32{fill:#42A5B2;}
	.st33{fill:#2E9AB3;}
	.st34{fill:#0888B6;}
	.st35{fill:#1881C1;}
	.st36{fill:#6CC0BD;}
	.st37{fill:#81C4C5;}
	.st38{fill:#B2CBE4;}
	.st39{fill:#9CC0E1;}
	.st40{fill:#7AA9D6;}
	.st41{fill:#619ED1;}
	.st42{fill:#0D4F90;fill-opacity:0.2;}
	.st43{fill:#114D8F;fill-opacity:0.2;}
	.st44{fill:#76A1CC;}
	.st45{fill:#6A91C2;}
	.st46{fill:#4981B3;}
	.st47{fill:#406EA7;}
	.st48{fill:#055293;}
	.st49{fill:#1C4787;}
	.st50{fill:#1F4686;}
	.st51{fill:#114D8F;}
	.st52{fill:#0492A0;}
	.st53{fill:#018188;}
	.st54{fill:#067581;}
	.st55{fill:#056B80;}
	.st56{fill:#005782;}
	.st57{fill:#204580;}
	.st58{fill:#1A4888;}
	.st59{fill:#029DA2;}
	.st60{fill:#0598A6;}
	.st61{fill:#3A98BF;}
	.st62{fill:#467EB3;}
	.st63{fill:#2A5F9D;}
	.st64{fill:#19498A;}
</style>
<rect id="black" width="256" height="256"/>
<circle id="background_x5F_circle" class="st0" cx="128" cy="128" r="128"/>
<path id="background_x5F_rectangle" class="st1" d="M206.9,256H49.1C22.1,256,0,233.9,0,206.9V49.1C0,22.1,22.1,0,49.1,0h157.9
	c27,0,49.1,22.1,49.1,49.1v157.9C256,233.9,233.9,256,206.9,256z"/>
<g id="logo_00000029004921855638880850000003084163963237851569_">
	<g>
		<g>
			<g>
				<g>
					<path class="st2" d="M27.4,113.6c7.2,0,10.8-6,14.4-6s6.6,6,14.4,6s14.4-6,14.4-14.4s-6.6-14.4-14.4-14.4s-10.8,6-14.4,6
						s-6.6-6-14.4-6S13,90.9,13,99.2S20.2,113.6,27.4,113.6z"/>
					<path class="st3" d="M27.4,142.4c7.2,0,10.8-6,14.4-6s6.6,6,14.4,6s14.4-6,14.4-14.4s-6.6-14.4-14.4-14.4s-10.8,6-14.4,6
						s-6.6-6-14.4-6S13,119.6,13,128S20.2,142.4,27.4,142.4z"/>
					<path class="st4" d="M27.4,171.1c7.2,0,10.8-6,14.4-6s6.6,6,14.4,6s14.4-6,14.4-14.4s-6.6-14.4-14.4-14.4s-10.8,6-14.4,6
						s-6.6-6-14.4-6s-14.4,6-14.4,14.4S20.2,171.1,27.4,171.1z"/>
					<path class="st5" d="M56.1,113.6c7.2,0,10.8-6,14.4-6s6.6,6,14.4,6s14.4-6,14.4-14.4s-6.6-14.4-14.4-14.4s-10.8,6-14.4,6
						s-6.6-6-14.4-6s-14.4,6-14.4,14.4S48.9,113.6,56.1,113.6z"/>
					<path class="st6" d="M56.1,142.4c7.2,0,10.8-6,14.4-6s6.6,6,14.4,6s14.4-6,14.4-14.4s-6.6-14.4-14.4-14.4s-10.8,6-14.4,6
						s-6.6-6-14.4-6s-14.4,6-14.4,14.4S48.9,142.4,56.1,142.4z"/>
					<path class="st7" d="M56.1,171.1c7.2,0,10.8-6,14.4-6s6.6,6,14.4,6s14.4-6,14.4-14.4s-6.6-14.4-14.4-14.4s-10.8,6-14.4,6
						s-6.6-6-14.4-6s-14.4,6-14.4,14.4S48.9,171.1,56.1,171.1z"/>
					<path class="st5" d="M84.9,113.6c7.2,0,10.8-6,14.4-6s6.6,6,14.4,6s14.4-6,14.4-14.4s-6.6-14.4-14.4-14.4s-10.8,6-14.4,6
						s-6.6-6-14.4-6s-14.4,6-14.4,14.4S77.7,113.6,84.9,113.6z"/>
					<path class="st8" d="M84.9,142.4c7.2,0,10.8-6,14.4-6s6.6,6,14.4,6s14.4-6,14.4-14.4s-6.6-14.4-14.4-14.4s-10.8,6-14.4,6
						s-6.6-6-14.4-6s-14.4,6-14.4,14.4S77.7,142.4,84.9,142.4z"/>
					<path class="st7" d="M84.9,171.1c7.2,0,10.8-6,14.4-6s6.6,6,14.4,6s14.4-6,14.4-14.4s-6.6-14.4-14.4-14.4s-10.8,6-14.4,6
						s-6.6-6-14.4-6s-14.4,6-14.4,14.4S77.7,171.1,84.9,171.1z"/>
					<path class="st9" d="M113.6,113.6c7.2,0,10.8-6,14.4-6s6.6,6,14.4,6s14.4-6,14.4-14.4s-6.6-14.4-14.4-14.4s-10.8,6-14.4,6
						s-6.6-6-14.4-6s-14.4,6-14.4,14.4S106.4,113.6,113.6,113.6z"/>
					<path class="st10" d="M113.6,142.4c7.2,0,10.8-6,14.4-6s6.6,6,14.4,6s14.4-6,14.4-14.4s-6.6-14.4-14.4-14.4s-10.8,6-14.4,6
						s-6.6-6-14.4-6s-14.4,6-14.4,14.4S106.4,142.4,113.6,142.4z"/>
					<path class="st5" d="M113.6,171.1c7.2,0,10.8-6,14.4-6s6.6,6,14.4,6s14.4-6,14.4-14.4s-6.6-14.4-14.4-14.4s-10.8,6-14.4,6
						s-6.6-6-14.4-6s-14.4,6-14.4,14.4S106.4,171.1,113.6,171.1z"/>
					<path class="st11" d="M142.4,113.6c7.2,0,10.8-6,14.4-6s6.6,6,14.4,6s14.4-6,14.4-14.4s-6.6-14.4-14.4-14.4s-10.8,6-14.4,6
						s-6.6-6-14.4-6s-14.4,6-14.4,14.4S135.2,113.6,142.4,113.6z"/>
					<path class="st12" d="M142.4,142.4c7.2,0,10.8-6,14.4-6s6.6,6,14.4,6s14.4-6,14.4-14.4s-6.6-14.4-14.4-14.4s-10.8,6-14.4,6
						s-6.6-6-14.4-6s-14.4,6-14.4,14.4S135.2,142.4,142.4,142.4z"/>
					<path class="st13" d="M142.4,171.1c7.2,0,10.8-6,14.4-6s6.6,6,14.4,6s14.4-6,14.4-14.4s-6.6-14.4-14.4-14.4s-10.8,6-14.4,6
						s-6.6-6-14.4-6s-14.4,6-14.4,14.4S135.2,171.1,142.4,171.1z"/>
					<path class="st14" d="M171.1,113.6c7.2,0,10.8-6,14.4-6s6.6,6,14.4,6s14.4-6,14.4-14.4s-6.6-14.4-14.4-14.4s-10.8,6-14.4,6
						s-6.6-6-14.4-6s-14.4,6-14.4,14.4S163.9,113.6,171.1,113.6z M171.1,142.4c7.2,0,10.8-6,14.4-6s6.6,6,14.4,6s14.4-6,14.4-14.4
						s-6.6-14.4-14.4-14.4s-10.8,6-14.4,6s-6.6-6-14.4-6s-14.4,6-14.4,14.4S163.9,142.4,171.1,142.4z"/>
					<path class="st15" d="M171.1,171.1c7.2,0,10.8-6,14.4-6s6.6,6,14.4,6s14.4-6,14.4-14.4s-6.6-14.4-14.4-14.4s-10.8,6-14.4,6
						s-6.6-6-14.4-6s-14.4,6-14.4,14.4S163.9,171.1,171.1,171.1z"/>
					<path class="st14" d="M199.9,113.6c7.2,0,10.8-6,14.4-6s6.6,6,14.4,6s14.4-6,14.4-14.4s-6.6-14.4-14.4-14.4s-10.8,6-14.4,6
						s-6.6-6-14.4-6s-14.4,6-14.4,14.4S192.7,113.6,199.9,113.6z M199.9,142.4c7.2,0,10.8-6,14.4-6s6.6,6,14.4,6s14.4-6,14.4-14.4
						s-6.6-14.4-14.4-14.4s-10.8,6-14.4,6s-6.6-6-14.4-6s-14.4,6-14.4,14.4S192.7,142.4,199.9,142.4z"/>
					<path class="st16" d="M199.9,171.1c7.2,0,10.8-6,14.4-6s6.6,6,14.4,6s14.4-6,14.4-14.4s-6.6-14.4-14.4-14.4s-10.8,6-14.4,6
						s-6.6-6-14.4-6s-14.4,6-14.4,14.4S192.7,171.1,199.9,171.1z"/>
				</g>
				<g>
					<path class="st2" d="M13,99.2c0,7.2,6,10.8,6,14.4s-6,6.6-6,14.4s6,14.4,14.4,14.4s14.4-6.6,14.4-14.4s-6-10.8-6-14.4
						s6-6.6,6-14.4s-6-14.4-14.4-14.4S13,92.1,13,99.2z"/>
					<path class="st17" d="M13,128c0,7.2,6,10.8,6,14.4s-6,6.6-6,14.4s6,14.4,14.4,14.4s14.4-6.6,14.4-14.4s-6-10.8-6-14.4
						s6-6.6,6-14.4s-6-14.4-14.4-14.4S13,120.8,13,128z"/>
					<path class="st2" d="M41.8,99.2c0,7.2,6,10.8,6,14.4s-6,6.6-6,14.4s6,14.4,14.4,14.4s14.4-6.6,14.4-14.4s-6-10.8-6-14.4
						s6-6.6,6-14.4s-6-14.4-14.4-14.4S41.8,92.1,41.8,99.2z"/>
					<path class="st18" d="M41.8,128c0,7.2,6,10.8,6,14.4s-6,6.6-6,14.4s6,14.4,14.4,14.4s14.4-6.6,14.4-14.4s-6-10.8-6-14.4
						s6-6.6,6-14.4s-6-14.4-14.4-14.4S41.8,120.8,41.8,128z"/>
					<path class="st5" d="M70.5,99.2c0,7.2,6,10.8,6,14.4s-6,6.6-6,14.4s6,14.4,14.4,14.4s14.4-6.6,14.4-14.4s-6-10.8-6-14.4
						s6-6.6,6-14.4s-6-14.4-14.4-14.4S70.5,92.1,70.5,99.2z"/>
					<path class="st5" d="M70.5,128c0,7.2,6,10.8,6,14.4s-6,6.6-6,14.4s6,14.4,14.4,14.4s14.4-6.6,14.4-14.4s-6-10.8-6-14.4
						s6-6.6,6-14.4s-6-14.4-14.4-14.4S70.5,120.8,70.5,128z"/>
					<path class="st9" d="M99.2,99.2c0,7.2,6,10.8,6,14.4s-6,6.6-6,14.4s6,14.4,14.4,14.4S128,135.8,128,128s-6-10.8-6-14.4
						s6-6.6,6-14.4s-6-14.4-14.4-14.4S99.2,92.1,99.2,99.2z"/>
					<path class="st9" d="M99.2,128c0,7.2,6,10.8,6,14.4s-6,6.6-6,14.4s6,14.4,14.4,14.4s14.4-6.6,14.4-14.4s-6-10.8-6-14.4
						s6-6.6,6-14.4s-6-14.4-14.4-14.4S99.2,120.8,99.2,128z"/>
					<path class="st19" d="M128,99.2c0,7.2,6,10.8,6,14.4s-6,6.6-6,14.4s6,14.4,14.4,14.4s14.4-6.6,14.4-14.4s-6-10.8-6-14.4
						s6-6.6,6-14.4s-6-14.4-14.4-14.4S128,92.1,128,99.2z"/>
					<path class="st9" d="M128,128c0,7.2,6,10.8,6,14.4s-6,6.6-6,14.4s6,14.4,14.4,14.4s14.4-6.6,14.4-14.4s-6-10.8-6-14.4
						s6-6.6,6-14.4s-6-14.4-14.4-14.4S128,120.8,128,128z"/>
					<path class="st20" d="M156.8,99.2c0,7.2,6,10.8,6,14.4s-6,6.6-6,14.4s6,14.4,14.4,14.4s14.4-6.6,14.4-14.4s-6-10.8-6-14.4
						s6-6.6,6-14.4s-6-14.4-14.4-14.4S156.8,92.1,156.8,99.2z"/>
					<path class="st19" d="M156.8,128c0,7.2,6,10.8,6,14.4s-6,6.6-6,14.4s6,14.4,14.4,14.4s14.4-6.6,14.4-14.4s-6-10.8-6-14.4
						s6-6.6,6-14.4s-6-14.4-14.4-14.4S156.8,120.8,156.8,128z"/>
					<path class="st20" d="M185.5,99.2c0,7.2,6,10.8,6,14.4s-6,6.6-6,14.4s6,14.4,14.4,14.4s14.4-6.6,14.4-14.4s-6-10.8-6-14.4
						s6-6.6,6-14.4s-6-14.4-14.4-14.4S185.5,92.1,185.5,99.2z"/>
					<path class="st14" d="M185.5,128c0,7.2,6,10.8,6,14.4s-6,6.6-6,14.4s6,14.4,14.4,14.4s14.4-6.6,14.4-14.4s-6-10.8-6-14.4
						s6-6.6,6-14.4s-6-14.4-14.4-14.4S185.5,120.8,185.5,128z"/>
					<path class="st21" d="M214.2,99.2c0,7.2,6,10.8,6,14.4s-6,6.6-6,14.4s6,14.4,14.4,14.4S243,135.8,243,128s-6-10.8-6-14.4
						s6-6.6,6-14.4s-6-14.4-14.4-14.4S214.2,92.1,214.2,99.2z"/>
					<path class="st22" d="M214.2,128c0,7.2,6,10.8,6,14.4s-6,6.6-6,14.4s6,14.4,14.4,14.4s14.4-6.6,14.4-14.4s-6-10.8-6-14.4
						s6-6.6,6-14.4s-6-14.4-14.4-14.4S214.2,120.8,214.2,128z"/>
				</g>
				<g>
					<path class="st23" d="M27.4,113.6c-7.9,0-14.4-6.4-14.4-14.4s6.4-14.4,14.4-14.4s14.4,6.4,14.4,14.4S35.3,113.6,27.4,113.6z
						 M27.4,104.9c3.1,0,5.7-2.5,5.7-5.7s-2.5-5.7-5.7-5.7s-5.7,2.5-5.7,5.7S24.2,104.9,27.4,104.9z"/>
					<path class="st24" d="M56.1,113.6c-7.9,0-14.4-6.4-14.4-14.4s6.4-14.4,14.4-14.4s14.4,6.4,14.4,14.4S64.1,113.6,56.1,113.6z
						 M56.1,104.9c3.1,0,5.7-2.5,5.7-5.7s-2.5-5.7-5.7-5.7s-5.7,2.5-5.7,5.7S53,104.9,56.1,104.9z"/>
					<path class="st25" d="M84.9,113.6c-7.9,0-14.4-6.4-14.4-14.4s6.4-14.4,14.4-14.4s14.4,6.4,14.4,14.4S92.8,113.6,84.9,113.6z
						 M84.9,104.9c3.1,0,5.7-2.5,5.7-5.7s-2.5-5.7-5.7-5.7s-5.7,2.5-5.7,5.7S81.7,104.9,84.9,104.9z"/>
					<path class="st26" d="M113.6,113.6c-7.9,0-14.4-6.4-14.4-14.4s6.4-14.4,14.4-14.4S128,91.3,128,99.2S121.6,113.6,113.6,113.6z
						 M113.6,104.9c3.1,0,5.7-2.5,5.7-5.7s-2.5-5.7-5.7-5.7s-5.7,2.5-5.7,5.7S110.5,104.9,113.6,104.9z"/>
					<path class="st27" d="M142.4,113.6c-7.9,0-14.4-6.4-14.4-14.4s6.4-14.4,14.4-14.4s14.4,6.4,14.4,14.4S150.3,113.6,142.4,113.6z
						 M142.4,104.9c3.1,0,5.7-2.5,5.7-5.7s-2.5-5.7-5.7-5.7s-5.7,2.5-5.7,5.7S139.2,104.9,142.4,104.9z"/>
					<path class="st28" d="M171.1,113.6c-7.9,0-14.4-6.4-14.4-14.4s6.4-14.4,14.4-14.4s14.4,6.4,14.4,14.4S179.1,113.6,171.1,113.6z
						 M171.1,104.9c3.1,0,5.7-2.5,5.7-5.7s-2.5-5.7-5.7-5.7s-5.7,2.5-5.7,5.7S168,104.9,171.1,104.9z"/>
					<path class="st29" d="M199.9,113.6c-7.9,0-14.4-6.4-14.4-14.4s6.4-14.4,14.4-14.4s14.4,6.4,14.4,14.4S207.8,113.6,199.9,113.6z
						 M199.9,104.9c3.1,0,5.7-2.5,5.7-5.7s-2.5-5.7-5.7-5.7s-5.7,2.5-5.7,5.7S196.7,104.9,199.9,104.9z"/>
					<path class="st28" d="M228.6,113.6c-7.9,0-14.4-6.4-14.4-14.4s6.4-14.4,14.4-14.4S243,91.3,243,99.2S236.6,113.6,228.6,113.6z
						 M228.6,104.9c3.1,0,5.7-2.5,5.7-5.7s-2.5-5.7-5.7-5.7s-5.7,2.5-5.7,5.7S225.5,104.9,228.6,104.9z"/>
					<path class="st30" d="M27.4,142.4c-7.9,0-14.4-6.4-14.4-14.4s6.4-14.4,14.4-14.4s14.4,6.4,14.4,14.4S35.3,142.4,27.4,142.4z
						 M27.4,133.7c3.1,0,5.7-2.5,5.7-5.7c0-3.1-2.5-5.7-5.7-5.7s-5.7,2.5-5.7,5.7C21.7,131.1,24.2,133.7,27.4,133.7z"/>
					<path class="st31" d="M56.1,142.4c-7.9,0-14.4-6.4-14.4-14.4s6.4-14.4,14.4-14.4s14.4,6.4,14.4,14.4S64.1,142.4,56.1,142.4z
						 M56.1,133.7c3.1,0,5.7-2.5,5.7-5.7c0-3.1-2.5-5.7-5.7-5.7s-5.7,2.5-5.7,5.7C50.4,131.1,53,133.7,56.1,133.7z"/>
					<path class="st32" d="M84.9,142.4c-7.9,0-14.4-6.4-14.4-14.4s6.4-14.4,14.4-14.4s14.4,6.4,14.4,14.4S92.8,142.4,84.9,142.4z
						 M84.9,133.7c3.1,0,5.7-2.5,5.7-5.7c0-3.1-2.5-5.7-5.7-5.7s-5.7,2.5-5.7,5.7C79.2,131.1,81.7,133.7,84.9,133.7z"/>
					<path class="st33" d="M113.6,142.4c-7.9,0-14.4-6.4-14.4-14.4s6.4-14.4,14.4-14.4S128,120.1,128,128S121.6,142.4,113.6,142.4z
						 M113.6,133.7c3.1,0,5.7-2.5,5.7-5.7c0-3.1-2.5-5.7-5.7-5.7s-5.7,2.5-5.7,5.7C107.9,131.1,110.5,133.7,113.6,133.7z"/>
					<path class="st34" d="M142.4,142.4c-7.9,0-14.4-6.4-14.4-14.4s6.4-14.4,14.4-14.4s14.4,6.4,14.4,14.4S150.3,142.4,142.4,142.4z
						 M142.4,133.7c3.1,0,5.7-2.5,5.7-5.7c0-3.1-2.5-5.7-5.7-5.7s-5.7,2.5-5.7,5.7C136.7,131.1,139.2,133.7,142.4,133.7z"/>
					<path class="st35" d="M171.1,142.4c-7.9,0-14.4-6.4-14.4-14.4s6.4-14.4,14.4-14.4s14.4,6.4,14.4,14.4S179.1,142.4,171.1,142.4z
						 M171.1,133.7c3.1,0,5.7-2.5,5.7-5.7c0-3.1-2.5-5.7-5.7-5.7s-5.7,2.5-5.7,5.7C165.4,131.1,168,133.7,171.1,133.7z M199.9,142.4
						c-7.9,0-14.4-6.4-14.4-14.4s6.4-14.4,14.4-14.4s14.4,6.4,14.4,14.4S207.8,142.4,199.9,142.4z M199.9,133.7
						c3.1,0,5.7-2.5,5.7-5.7c0-3.1-2.5-5.7-5.7-5.7s-5.7,2.5-5.7,5.7C194.2,131.1,196.7,133.7,199.9,133.7z M228.6,142.4
						c-7.9,0-14.4-6.4-14.4-14.4s6.4-14.4,14.4-14.4S243,120.1,243,128S236.6,142.4,228.6,142.4z M228.6,133.7
						c3.1,0,5.7-2.5,5.7-5.7c0-3.1-2.5-5.7-5.7-5.7s-5.7,2.5-5.7,5.7C222.9,131.1,225.5,133.7,228.6,133.7z"/>
					<path class="st36" d="M27.4,171.1c-7.9,0-14.4-6.4-14.4-14.4s6.4-14.4,14.4-14.4s14.4,6.4,14.4,14.4S35.3,171.1,27.4,171.1z
						 M27.4,162.4c3.1,0,5.7-2.5,5.7-5.7s-2.5-5.7-5.7-5.7s-5.7,2.5-5.7,5.7S24.2,162.4,27.4,162.4z"/>
					<path class="st37" d="M56.1,171.1c-7.9,0-14.4-6.4-14.4-14.4s6.4-14.4,14.4-14.4s14.4,6.4,14.4,14.4S64.1,171.1,56.1,171.1z
						 M56.1,162.4c3.1,0,5.7-2.5,5.7-5.7s-2.5-5.7-5.7-5.7s-5.7,2.5-5.7,5.7S53,162.4,56.1,162.4z"/>
					<path class="st38" d="M84.9,171.1c-7.9,0-14.4-6.4-14.4-14.4s6.4-14.4,14.4-14.4s14.4,6.4,14.4,14.4S92.8,171.1,84.9,171.1z
						 M84.9,162.4c3.1,0,5.7-2.5,5.7-5.7s-2.5-5.7-5.7-5.7s-5.7,2.5-5.7,5.7S81.7,162.4,84.9,162.4z"/>
					<path class="st39" d="M113.6,171.1c-7.9,0-14.4-6.4-14.4-14.4s6.4-14.4,14.4-14.4s14.4,6.4,14.4,14.4S121.6,171.1,113.6,171.1z
						 M113.6,162.4c3.1,0,5.7-2.5,5.7-5.7s-2.5-5.7-5.7-5.7s-5.7,2.5-5.7,5.7S110.5,162.4,113.6,162.4z"/>
					<path class="st40" d="M142.4,171.1c-7.9,0-14.4-6.4-14.4-14.4s6.4-14.4,14.4-14.4s14.4,6.4,14.4,14.4S150.3,171.1,142.4,171.1z
						 M142.4,162.4c3.1,0,5.7-2.5,5.7-5.7s-2.5-5.7-5.7-5.7s-5.7,2.5-5.7,5.7S139.2,162.4,142.4,162.4z"/>
					<path class="st41" d="M171.1,171.1c-7.9,0-14.4-6.4-14.4-14.4s6.4-14.4,14.4-14.4s14.4,6.4,14.4,14.4S179.1,171.1,171.1,171.1z
						 M171.1,162.4c3.1,0,5.7-2.5,5.7-5.7s-2.5-5.7-5.7-5.7s-5.7,2.5-5.7,5.7S168,162.4,171.1,162.4z"/>
					<path class="st28" d="M199.9,171.1c-7.9,0-14.4-6.4-14.4-14.4s6.4-14.4,14.4-14.4s14.4,6.4,14.4,14.4S207.8,171.1,199.9,171.1z
						 M199.9,162.4c3.1,0,5.7-2.5,5.7-5.7s-2.5-5.7-5.7-5.7s-5.7,2.5-5.7,5.7S196.7,162.4,199.9,162.4z M228.6,171.1
						c-7.9,0-14.4-6.4-14.4-14.4s6.4-14.4,14.4-14.4s14.4,6.4,14.4,14.4S236.6,171.1,228.6,171.1z M228.6,162.4
						c3.1,0,5.7-2.5,5.7-5.7s-2.5-5.7-5.7-5.7s-5.7,2.5-5.7,5.7S225.5,162.4,228.6,162.4z"/>
				</g>
				<g transform="translate(7.25 7.25)">
					<path class="st42" d="M20.1,126.4c3.3,0,5.7-2.7,5.7-5.7c0-3-4.5-11.4-4.4-15c0-3.5,4.4-10.7,4.4-13.8s-2.4-5.7-5.7-5.7
						c-3.3,0-5.7,2.6-5.7,5.7s4.5,10.2,4.4,13.8c0,3.5-4.4,12-4.4,15C14.4,123.7,16.8,126.4,20.1,126.4z"/>
					<path class="st42" d="M20.1,155.2c3.3,0,5.7-2.7,5.7-5.7c0-3-4.5-11.4-4.4-15c0-3.5,4.4-10.7,4.4-13.8s-2.4-5.7-5.7-5.7
						c-3.3,0-5.7,2.6-5.7,5.7s4.5,10.2,4.4,13.8c0,3.5-4.4,12-4.4,15C14.4,152.5,16.8,155.2,20.1,155.2z M48.9,126.4
						c3.3,0,5.7-2.7,5.7-5.7s-4.5-11.4-4.4-15c0-3.5,4.4-10.7,4.4-13.8s-2.4-5.7-5.7-5.7c-3.3,0-5.7,2.6-5.7,5.7s4.5,10.2,4.4,13.8
						c0,3.5-4.4,12-4.4,15C43.2,123.7,45.6,126.4,48.9,126.4z"/>
					<path class="st42" d="M48.9,155.2c3.3,0,5.7-2.7,5.7-5.7c0-3-4.5-11.4-4.4-15c0-3.5,4.4-10.7,4.4-13.8s-2.4-5.7-5.7-5.7
						c-3.3,0-5.7,2.6-5.7,5.7s4.5,10.2,4.4,13.8c0,3.5-4.4,12-4.4,15C43.2,152.5,45.6,155.2,48.9,155.2z M77.6,126.4
						c3.3,0,5.7-2.7,5.7-5.7s-4.5-11.4-4.4-15c0-3.5,4.4-10.7,4.4-13.8s-2.4-5.7-5.7-5.7c-3.3,0-5.7,2.6-5.7,5.7s4.5,10.2,4.4,13.8
						c0,3.5-4.4,12-4.4,15C71.9,123.7,74.3,126.4,77.6,126.4z"/>
					<path class="st42" d="M77.6,155.2c3.3,0,5.7-2.7,5.7-5.7c0-3-4.5-11.4-4.4-15c0-3.5,4.4-10.7,4.4-13.8s-2.4-5.7-5.7-5.7
						c-3.3,0-5.7,2.6-5.7,5.7s4.5,10.2,4.4,13.8c0,3.5-4.4,12-4.4,15C71.9,152.5,74.3,155.2,77.6,155.2z M106.4,126.4
						c3.3,0,5.7-2.7,5.7-5.7s-4.5-11.4-4.4-15c0-3.5,4.4-10.7,4.4-13.8s-2.4-5.7-5.7-5.7c-3.3,0-5.7,2.6-5.7,5.7s4.5,10.2,4.4,13.8
						c0,3.5-4.4,12-4.4,15C100.7,123.7,103.1,126.4,106.4,126.4z"/>
					<path class="st42" d="M106.4,155.2c3.3,0,5.7-2.7,5.7-5.7c0-3-4.5-11.4-4.4-15c0-3.5,4.4-10.7,4.4-13.8s-2.4-5.7-5.7-5.7
						c-3.3,0-5.7,2.6-5.7,5.7s4.5,10.2,4.4,13.8c0,3.5-4.4,12-4.4,15C100.7,152.5,103.1,155.2,106.4,155.2z M135.1,126.4
						c3.3,0,5.7-2.7,5.7-5.7s-4.5-11.4-4.4-15c0-3.5,4.4-10.7,4.4-13.8s-2.4-5.7-5.7-5.7c-3.3,0-5.7,2.6-5.7,5.7s4.5,10.2,4.4,13.8
						c0,3.5-4.4,12-4.4,15C129.4,123.7,131.8,126.4,135.1,126.4z"/>
					<path class="st42" d="M135.1,155.2c3.3,0,5.7-2.7,5.7-5.7c0-3-4.5-11.4-4.4-15c0-3.5,4.4-10.7,4.4-13.8s-2.4-5.7-5.7-5.7
						c-3.3,0-5.7,2.6-5.7,5.7s4.5,10.2,4.4,13.8c0,3.5-4.4,12-4.4,15C129.4,152.5,131.8,155.2,135.1,155.2z M163.9,126.4
						c3.3,0,5.7-2.7,5.7-5.7c0-3-4.5-11.4-4.4-15c0-3.5,4.4-10.7,4.4-13.8s-2.4-5.7-5.7-5.7c-3.3,0-5.7,2.6-5.7,5.7
						s4.5,10.2,4.4,13.8c0,3.5-4.4,12-4.4,15C158.2,123.7,160.6,126.4,163.9,126.4z"/>
					<path class="st42" d="M163.9,155.2c3.3,0,5.7-2.7,5.7-5.7c0-3-4.5-11.4-4.4-15c0-3.5,4.4-10.7,4.4-13.8s-2.4-5.7-5.7-5.7
						c-3.3,0-5.7,2.6-5.7,5.7s4.5,10.2,4.4,13.8c0,3.5-4.4,12-4.4,15C158.2,152.5,160.6,155.2,163.9,155.2z M192.6,126.4
						c3.3,0,5.7-2.7,5.7-5.7c0-3-4.5-11.4-4.4-15c0-3.5,4.4-10.7,4.4-13.8s-2.4-5.7-5.7-5.7c-3.3,0-5.7,2.6-5.7,5.7
						s4.5,10.2,4.4,13.8c0,3.5-4.4,12-4.4,15C186.9,123.7,189.3,126.4,192.6,126.4z"/>
					<path class="st42" d="M192.6,155.2c3.3,0,5.7-2.7,5.7-5.7c0-3-4.5-11.4-4.4-15c0-3.5,4.4-10.7,4.4-13.8s-2.4-5.7-5.7-5.7
						c-3.3,0-5.7,2.6-5.7,5.7s4.5,10.2,4.4,13.8c0,3.5-4.4,12-4.4,15C186.9,152.5,189.3,155.2,192.6,155.2z M221.4,126.4
						c3.3,0,5.7-2.7,5.7-5.7c0-3-4.5-11.4-4.4-15c0-3.5,4.4-10.7,4.4-13.8s-2.4-5.7-5.7-5.7c-3.3,0-5.7,2.6-5.7,5.7
						s4.5,10.2,4.4,13.8c0,3.5-4.4,12-4.4,15C215.7,123.7,218.1,126.4,221.4,126.4z"/>
					<path class="st42" d="M221.4,155.2c3.3,0,5.7-2.7,5.7-5.7c0-3-4.5-11.4-4.4-15c0-3.5,4.4-10.7,4.4-13.8s-2.4-5.7-5.7-5.7
						c-3.3,0-5.7,2.6-5.7,5.7s4.5,10.2,4.4,13.8c0,3.5-4.4,12-4.4,15C215.7,152.5,218.1,155.2,221.4,155.2z"/>
				</g>
				<g transform="translate(7.25 7.25)">
					<path class="st43" d="M14.4,92c0,3.3,2.7,5.7,5.7,5.7c3,0,11.4-4.5,15-4.4c3.5,0,10.7,4.4,13.8,4.4c3.1,0,5.7-2.4,5.7-5.7
						c0-3.3-2.6-5.7-5.7-5.7s-10.2,4.5-13.8,4.4c-3.5,0-12-4.4-15-4.4C17.2,86.3,14.4,88.7,14.4,92z"/>
					<path class="st43" d="M43.2,92c0,3.3,2.7,5.7,5.7,5.7s11.4-4.5,15-4.4c3.5,0,10.7,4.4,13.8,4.4c3.1,0,5.7-2.4,5.7-5.7
						c0-3.3-2.6-5.7-5.7-5.7s-10.2,4.5-13.8,4.4c-3.5,0-12-4.4-15-4.4C45.9,86.3,43.2,88.7,43.2,92z"/>
					<path class="st43" d="M71.9,92c0,3.3,2.7,5.7,5.7,5.7s11.4-4.5,15-4.4c3.5,0,10.7,4.4,13.8,4.4c3.1,0,5.7-2.4,5.7-5.7
						c0-3.3-2.6-5.7-5.7-5.7s-10.2,4.5-13.8,4.4c-3.5,0-12-4.4-15-4.4C74.7,86.3,71.9,88.7,71.9,92z"/>
					<path class="st43" d="M100.7,92c0,3.3,2.7,5.7,5.7,5.7s11.4-4.5,15-4.4c3.5,0,10.7,4.4,13.8,4.4s5.7-2.4,5.7-5.7
						c0-3.3-2.6-5.7-5.7-5.7s-10.2,4.5-13.8,4.4c-3.5,0-12-4.4-15-4.4C103.4,86.3,100.7,88.7,100.7,92z"/>
					<path class="st43" d="M129.4,92c0,3.3,2.7,5.7,5.7,5.7c3,0,11.4-4.5,15-4.4c3.5,0,10.7,4.4,13.8,4.4s5.7-2.4,5.7-5.7
						c0-3.3-2.6-5.7-5.7-5.7s-10.2,4.5-13.8,4.4c-3.5,0-12-4.4-15-4.4C132.2,86.3,129.4,88.7,129.4,92z"/>
					<path class="st43" d="M158.2,92c0,3.3,2.7,5.7,5.7,5.7c3,0,11.4-4.5,15-4.4c3.5,0,10.7,4.4,13.8,4.4s5.7-2.4,5.7-5.7
						c0-3.3-2.6-5.7-5.7-5.7s-10.2,4.5-13.8,4.4c-3.5,0-12-4.4-15-4.4C160.9,86.3,158.2,88.7,158.2,92z"/>
					<path class="st43" d="M186.9,92c0,3.3,2.7,5.7,5.7,5.7c3,0,11.4-4.5,15-4.4c3.5,0,10.7,4.4,13.8,4.4s5.7-2.4,5.7-5.7
						c0-3.3-2.6-5.7-5.7-5.7s-10.2,4.5-13.8,4.4c-3.5,0-12-4.4-15-4.4C189.7,86.3,186.9,88.7,186.9,92z"/>
					<path class="st43" d="M14.4,120.8c0,3.3,2.7,5.7,5.7,5.7c3,0,11.4-4.5,15-4.4s10.7,4.4,13.8,4.4s5.7-2.4,5.7-5.7
						c0-3.3-2.6-5.7-5.7-5.7s-10.2,4.5-13.8,4.4c-3.5,0-12-4.4-15-4.4C17.2,115,14.4,117.4,14.4,120.8z"/>
					<path class="st43" d="M43.2,120.8c0,3.3,2.7,5.7,5.7,5.7s11.4-4.5,15-4.4c3.5,0,10.7,4.4,13.8,4.4s5.7-2.4,5.7-5.7
						c0-3.3-2.6-5.7-5.7-5.7s-10.2,4.5-13.8,4.4c-3.5,0-12-4.4-15-4.4C45.9,115,43.2,117.4,43.2,120.8z"/>
					<path class="st43" d="M71.9,120.8c0,3.3,2.7,5.7,5.7,5.7s11.4-4.5,15-4.4c3.5,0,10.7,4.4,13.8,4.4s5.7-2.4,5.7-5.7
						c0-3.3-2.6-5.7-5.7-5.7s-10.2,4.5-13.8,4.4c-3.5,0-12-4.4-15-4.4C74.7,115,71.9,117.4,71.9,120.8z"/>
					<path class="st43" d="M100.7,120.8c0,3.3,2.7,5.7,5.7,5.7s11.4-4.5,15-4.4c3.5,0,10.7,4.4,13.8,4.4s5.7-2.4,5.7-5.7
						c0-3.3-2.6-5.7-5.7-5.7s-10.2,4.5-13.8,4.4c-3.5,0-12-4.4-15-4.4C103.4,115,100.7,117.4,100.7,120.8z"/>
					<path class="st43" d="M129.4,120.8c0,3.3,2.7,5.7,5.7,5.7c3,0,11.4-4.5,15-4.4c3.5,0,10.7,4.4,13.8,4.4s5.7-2.4,5.7-5.7
						c0-3.3-2.6-5.7-5.7-5.7s-10.2,4.5-13.8,4.4c-3.5,0-12-4.4-15-4.4C132.2,115,129.4,117.4,129.4,120.8z"/>
					<path class="st43" d="M158.2,120.8c0,3.3,2.7,5.7,5.7,5.7c3,0,11.4-4.5,15-4.4c3.5,0,10.7,4.4,13.8,4.4s5.7-2.4,5.7-5.7
						c0-3.3-2.6-5.7-5.7-5.7s-10.2,4.5-13.8,4.4c-3.5,0-12-4.4-15-4.4C160.9,115,158.2,117.4,158.2,120.8z"/>
					<path class="st43" d="M186.9,120.8c0,3.3,2.7,5.7,5.7,5.7c3,0,11.4-4.5,15-4.4c3.5,0,10.7,4.4,13.8,4.4s5.7-2.4,5.7-5.7
						c0-3.3-2.6-5.7-5.7-5.7s-10.2,4.5-13.8,4.4c-3.5,0-12-4.4-15-4.4C189.7,115,186.9,117.4,186.9,120.8z"/>
					<path class="st43" d="M14.4,149.5c0,3.3,2.7,5.7,5.7,5.7c3,0,11.4-4.5,15-4.4c3.5,0,10.7,4.4,13.8,4.4s5.7-2.4,5.7-5.7
						c0-3.3-2.6-5.7-5.7-5.7s-10.2,4.5-13.8,4.4c-3.5,0-12-4.4-15-4.4C17.2,143.8,14.4,146.2,14.4,149.5z"/>
					<path class="st43" d="M43.2,149.5c0,3.3,2.7,5.7,5.7,5.7c3,0,11.4-4.5,15-4.4c3.5,0,10.7,4.4,13.8,4.4s5.7-2.4,5.7-5.7
						c0-3.3-2.6-5.7-5.7-5.7s-10.2,4.5-13.8,4.4c-3.5,0-12-4.4-15-4.4C45.9,143.8,43.2,146.2,43.2,149.5z"/>
					<path class="st43" d="M71.9,149.5c0,3.3,2.7,5.7,5.7,5.7c3,0,11.4-4.5,15-4.4c3.5,0,10.7,4.4,13.8,4.4s5.7-2.4,5.7-5.7
						c0-3.3-2.6-5.7-5.7-5.7s-10.2,4.5-13.8,4.4c-3.5,0-12-4.4-15-4.4C74.7,143.8,71.9,146.2,71.9,149.5z"/>
					<path class="st43" d="M100.7,149.5c0,3.3,2.7,5.7,5.7,5.7c3,0,11.4-4.5,15-4.4c3.5,0,10.7,4.4,13.8,4.4s5.7-2.4,5.7-5.7
						c0-3.3-2.6-5.7-5.7-5.7s-10.2,4.5-13.8,4.4c-3.5,0-12-4.4-15-4.4C103.4,143.8,100.7,146.2,100.7,149.5z"/>
					<path class="st43" d="M129.4,149.5c0,3.3,2.7,5.7,5.7,5.7c3,0,11.4-4.5,15-4.4c3.5,0,10.7,4.4,13.8,4.4s5.7-2.4,5.7-5.7
						c0-3.3-2.6-5.7-5.7-5.7s-10.2,4.5-13.8,4.4c-3.5,0-12-4.4-15-4.4C132.2,143.8,129.4,146.2,129.4,149.5z"/>
					<path class="st43" d="M158.2,149.5c0,3.3,2.7,5.7,5.7,5.7c3,0,11.4-4.5,15-4.4c3.5,0,10.7,4.4,13.8,4.4s5.7-2.4,5.7-5.7
						c0-3.3-2.6-5.7-5.7-5.7s-10.2,4.5-13.8,4.4c-3.5,0-12-4.4-15-4.4C160.9,143.8,158.2,146.2,158.2,149.5z"/>
					<path class="st43" d="M186.9,149.5c0,3.3,2.7,5.7,5.7,5.7c3,0,11.4-4.5,15-4.4c3.5,0,10.7,4.4,13.8,4.4s5.7-2.4,5.7-5.7
						c0-3.3-2.6-5.7-5.7-5.7s-10.2,4.5-13.8,4.4c-3.5,0-12-4.4-15-4.4C189.7,143.8,186.9,146.2,186.9,149.5z"/>
				</g>
				<g transform="translate(7.25 7.25)">
					<circle class="st44" cx="20.1" cy="92" r="5.7"/>
					<circle class="st45" cx="48.9" cy="92" r="5.7"/>
					<circle class="st46" cx="77.6" cy="92" r="5.7"/>
					<circle class="st47" cx="106.4" cy="92" r="5.7"/>
					<circle class="st48" cx="135.1" cy="92" r="5.7"/>
					<circle class="st49" cx="163.9" cy="92" r="5.7"/>
					<circle class="st50" cx="192.6" cy="92" r="5.7"/>
					<circle class="st51" cx="221.4" cy="92" r="5.7"/>
					<circle class="st52" cx="20.1" cy="120.8" r="5.7"/>
					<circle class="st53" cx="48.9" cy="120.8" r="5.7"/>
					<circle class="st54" cx="77.6" cy="120.8" r="5.7"/>
					<circle class="st55" cx="106.4" cy="120.8" r="5.7"/>
					<circle class="st56" cx="135.1" cy="120.8" r="5.7"/>
					<circle class="st57" cx="163.9" cy="120.8" r="5.7"/>
					<circle class="st50" cx="192.6" cy="120.8" r="5.7"/>
					<circle class="st58" cx="221.4" cy="120.8" r="5.7"/>
					<circle class="st59" cx="20.1" cy="149.5" r="5.7"/>
					<circle class="st60" cx="48.9" cy="149.5" r="5.7"/>
					<circle class="st61" cx="77.6" cy="149.5" r="5.7"/>
					<circle class="st62" cx="106.4" cy="149.5" r="5.7"/>
					<circle class="st63" cx="135.1" cy="149.5" r="5.7"/>
					<circle class="st49" cx="163.9" cy="149.5" r="5.7"/>
					<circle class="st50" cx="192.6" cy="149.5" r="5.7"/>
					<circle class="st64" cx="221.4" cy="149.5" r="5.7"/>
				</g>
			</g>
		</g>
	</g>
</g>
</svg>
