<?xml version="1.0" encoding="utf-8"?>
<!-- Generator: Adobe Illustrator 26.3.1, SVG Export Plug-In . SVG Version: 6.00 Build 0)  -->
<svg version="1.1" id="affiliation" xmlns="http://www.w3.org/2000/svg" xmlns:xlink="http://www.w3.org/1999/xlink" x="0px"
	 y="0px" viewBox="0 0 256 256" style="enable-background:new 0 0 256 256;" xml:space="preserve">
<style type="text/css">
	.st0{display:none;fill:#FFFFFF;}
	.st1{fill:#FFFFFF;}
	.st2{fill-rule:evenodd;clip-rule:evenodd;fill:#FFFFFF;}
	.st3{fill-rule:evenodd;clip-rule:evenodd;fill:#FF6600;}
</style>
<rect id="black" width="256" height="256"/>
<circle id="background_x5F_circle" class="st0" cx="128" cy="128" r="128"/>
<path id="background_x5F_rectangle" class="st1" d="M206.9,256H49.1C22.1,256,0,233.9,0,206.9V49.1C0,22.1,22.1,0,49.1,0H207
	c27,0,49.1,22.1,49.1,49.1V207C256,233.9,233.9,256,206.9,256z"/>
<g id="logo_00000029004921855638880850000003084163963237851569_">
	<g>
		<path id="path21" class="st2" d="M189.5,198.5c2.6-0.4,5.4-0.3,7.5-2.3c8.8,1.4,17.8-0.8,24.8-5.7c3.7-2.9,7-6.4,9.6-10.1
			c2.3-3.3,4.2-6.4,5.4-10c0.9-2.3,1.6-4.6,2.1-7.1c2.5-11.5,1.2-24.3-2.5-35.2c-0.7-2-1.5-4-2.3-5.9c-4.7-9.6-11-20-20.8-26.1
			c-5.5-3.4-10.6-8.7-13.7-14.2c-1.7-1.5-3.3-3.5-5.5-3.9c0.6,1,1.3,1.9,1.4,3.1l-0.1,0.2c-2.3,0.1-4.1-1.2-5.7-2.6l1.8-1.6
			c-0.7-0.3-1.4-0.5-2.2-0.6c-6.7-0.8-12.2,2.3-18.1,3.8l-0.1,0.3c3.6,1.6,4.4,5.6,6.5,8.3c0.5-0.6,1.4-0.2,2.2-0.2
			c1.1,0.1,2.1,0.8,3.1,0.6c0-0.9-0.5-1.6-0.6-2.4c0.6-0.3,1.4,0,2.1,0c1.9,1.1,5-0.2,6.2,2.4c-2.2,0.1-4.2,0.6-6.3,1.1
			c0.1,0.8,1,1.5,0.9,2.3c-1.8-0.7-3.6-1.2-5.6-1.4l-0.1,0.3c2.5,2.9,5.9,4.6,9.4,5.7c5,1.2,9.4-1.2,14.2-0.4
			c11.9,5.4,22,17.8,26.4,29.6c0.2,0.6,0.4,1.1,0.6,1.7c3.7,10.7,4.4,24,0.7,35.2c-2,4.7-4.1,9.1-7.6,12.9c-1.3,1.6-2.8,3.1-4.3,4.3
			c-5,3.9-11.1,5.6-17.4,3.8c-0.4-0.3-1.2-0.3-1.1-1c0.2-0.9,0.4-1.9,0.6-2.8c1-5.4,1.5-11,1.2-16.7c0-0.2,0-0.5,0-0.7
			c-0.4-8.2-2-15.6-5-22.7c-1.9-4.1-4.2-8.5-7.1-12.5c-3.5-4.8-7.7-8.9-13.3-10.9c-3.4-0.9-7.5-1.1-10.1,1.7
			c-1.8,1.6-2.6,3.7-2.3,6.1c-2.8,1.8-6,2.8-9.5,3.1c-0.9,0.1-1.7,0.4-2.6,0.4c-0.8,0-1.7,0-2.5-0.1c-4.2-0.5-8.4-2.8-11.7-5.4
			c-0.1-1.7-0.2-3.3-0.2-5.2c-1.8-1-3.4-2.8-3.5-4.9l0.2-0.2c1.1,0.3,2,0.9,2.9,1.4c-0.4-2.6-0.9-5.1-2.2-7.4
			c-1.2-0.5-2.4-0.9-3.5-1.5c-1.3-0.9-2.1-2.4-2.3-3.8c1.2,1.1,3.2,0.7,4.1,1.9c-1.6-4.6-1.6-9.9-4.1-14.1c-1.3-3.1-4.7-4.5-7-6.8
			c-0.9-1.1-1.3-2.6-2.9-2.8c-1.3-0.3-1.4-1.8-1.7-2.8c0.8,0.1,1.5,0.7,2.2,0.8c-1.9-5.1-3.6-10.7-8.8-14l-0.9,0.6
			c-2,0.3-4.2,0.4-6.2,0.5c0.9-1.3,2.5-1.9,3.7-2.5c-1.5-1.1-2.7-1.3-4.5-1.6c-1.1,1.1-3,1.6-4.3,1.9l-0.2-0.1
			c0-1.2-0.3-2.6,1.5-2.9c-1.7-0.8-4.6-0.5-6.3,0c-0.5,1.3-1.9,2.4-1.8,4c-1,1.1-1.8,2.5-2.8,3.2c0-2.5,1.1-4.9,1.5-7
			c-1.5,0.6-3,1.4-4.5,2c-2.3-1.4-4.8-2.7-7.3-3.7c-0.2-0.1-0.7-0.2-0.6,0.2c2.2,1.6,1.3,4.5,1.5,6.7l-1.4-1.1
			c-0.7-1.7-2.6-2.9-2.9-4.8c-2.3,0.4-3.7,1-5.8,1.9l-0.3,0.2c1.6,0,2.9,1.2,3.6,2.4c-2.3,0.1-4.4-0.8-6.8-1
			c-0.2-0.2-0.4-0.5-0.8-0.5c-1.2,0.4-2.2,1.3-3.2,2c-2.3,2.3-4.6,4.7-5.7,7.7c0.8,0.1,1.7,0.1,2.3,0.6c-1.3,0.8-2.3,2.1-3.6,2.8
			c-0.4,1.7-0.4,3.7-0.5,5.6c-1,1.5-2.2,2.7-2.9,4.4c-2.1,6.6-2.6,14-2.3,21.5c-0.7,0.6-1.5,1-2.2,1.5l0.1,6.7h0.2
			c0.3-1.4,2-2.2,3-3.2h0.3c-0.2,1.5-0.4,3-0.4,4.6l-1.9,1.6c-1.9,1.7-0.3,4.2-0.5,6.4c0.1,0.6,0.2,1.4,0.6,1.5
			c0.2-0.8,1-1.4,1.4-2.2c0.8-0.2,1.6-0.9,2.3-1c-0.4,1.7-1,3.3-1.7,4.9c-0.3,0.2-0.7,0.5-1,0.8c-0.3,0.4-0.6,0.8-0.7,1.2
			c1.5,7.8,3.8,15.6,6.5,22.9c-1.8,3.1-2.8,6.7-4.4,9.9c-0.2,0.4-0.4,0.9-0.6,1.4c-1.5,3.8-2,8.1-3.9,11.8c-0.8-0.5-1.6-0.9-2.4-1.3
			c-3.6-1.2-7.7-0.4-10.3,2.3c-2.3-0.4-4.7,0-6.5,1.2c-1.3,1-2.3,2.2-2.9,3.5c-0.4,1-0.6,2-0.5,3.1c-1.5,1-2.3,2.6-2.8,4.2
			c-0.7,3.6,0.6,7.3,2.6,10L189.5,198.5L189.5,198.5z"/>
		<path id="path23" class="st2" d="M167.6,124.2c0,0.9-0.7,1.8-0.1,2.5c0.8-0.9,2.1-0.9,3.2-1.3c2.9-0.3,5.8,0.7,8.5,1.3
			c-0.7-1.1-1.2-2.3-1.9-3.3c-1.5-0.4-3.8,0.7-4.1-1.6c-0.9-0.8-2.4-0.2-3.3-0.2C168.9,122.4,168.1,123.2,167.6,124.2L167.6,124.2z"
			/>
		<path id="path25" class="st2" d="M66.5,95.6C66.4,95.6,66.4,95.6,66.5,95.6C66.4,95.6,66.4,95.6,66.5,95.6L66.5,95.6z"/>
		<path id="path27" class="st2" d="M78.5,125l2-1.9c0.2,0,0.3,0,0.4,0.2l-0.2,3.7c1,0.9,2.2,1.2,3.4,1.3c0.1-1,0.9-1.7,1.3-2.5
			c0.4-0.7,0.1-1.7,0.9-2.2l0.2,0.2c0.2,1.1,0.2,2.3,0.7,3.3c0.1,0.5,0.2,1.2,0.2,1.7c1.5,0.1,2.8-0.3,3.9-0.9
			c-0.1-1.3,0.4-2.3,0.6-3.4c0.3-0.4-0.4-1.1,0.5-1.1c0.5,1,1.3,2,1.8,3.1c1.9-1.9,2.7-4.5,3.2-7.1c-0.6-0.8-1.4-0.8-2.1-1.3
			c-5.6-1.8-12.8-2.2-18.3,0.6C76.6,120.8,77.1,123.2,78.5,125z"/>
		<path id="path29" class="st2" d="M25.9,187.1c-0.2,2.6,0,4.9,0.2,7.4c0.5,0.8,1.5,1.8,2.4,1.9l0.2-1.7c0.4-2.4-0.9-4.8,0.5-6.8
			c0.9,0.3,1.8,0.8,2.6,1.2c0.4-2.2-0.2-4.7-2.3-6C29.5,183,25.9,187.1,25.9,187.1z"/>
		<path id="path31" class="st2" d="M34.1,183.5c-1.3,3.9-2.3,8.6-0.7,12.7c0.9-0.6,1.8-1.2,2.6-2c-0.2-3.1-0.6-6.4,1.3-9
			c1.6,0.5,2.7,2.1,3.3,3.6c1.1-1.4,1.5-3.3,1-5.2c0.1-1.4-1.6-1.1-2.4-1.7c0.3-1.2,0.2-2.6,1.5-3.3l-4,0.4
			C35.8,180.4,34.6,181.8,34.1,183.5z"/>
		<path id="path33" class="st2" d="M42.2,194.9c0.2,0.3,0,0.8,0.3,0.9c0.5-2.8,2.7-4.6,4-7c0.6-0.8,0.6-2,1.5-2.6
			c1.3,0,2.2,0.9,3.5,1c0.4,0.3-0.2,0.6-0.2,0.9c-0.3,2.3-1.1,4.1-1,6.4h0.2c1.8-1.8,2.9-3.9,4.2-6l0.2-1.9c0.3-2.3-2.2-3.7-3.7-4.6
			l1.4-1.8l-2-0.7c-2.3,0.2-4.4,1.2-6,3C42.7,186.2,42.4,190.4,42.2,194.9L42.2,194.9z"/>
		<path id="path35" class="st2" d="M51.1,175.3c0.8,0.2,1.5-0.4,2.2-0.1c3,1.1,6.2,2.3,8.5,4.8l2.7,6.9l1.4-4.3l-0.9-2.3
			c-0.8-1.7-2.8-1.5-4.3-1.6c-0.6-0.7,0-1.4,0.2-2c0.7-2.3-2.2-2.2-3.3-3.2c0.1-1.4-1.7-0.9-2.6-1.1l-0.3-0.4
			c-0.2-0.3-0.7-0.3-1-0.1c-0.1-0.1-0.2-0.2-0.1-0.3l-0.7,0.2C51.9,172.8,51.2,173.9,51.1,175.3L51.1,175.3z"/>
		<path id="path37" class="st2" d="M53.1,167.7c0.1,0.4,0.4,0.9,0.7,1.1c1.5-0.4,2.9-1.4,4.6-0.8c2.2,1.9,4.5,4,7.2,5.1l1-0.2
			c0.6,0.2,1.3,0.2,1.7,0.9c0.4,0.9-0.6,1.4-0.9,2.1c1.5,1.1,0.9,3,1.8,4.4l2.4-3.2c-0.6-1.4,0-3.8-2.2-3.9
			c-0.7-0.4-1.2-1.1-1.2-1.9c-1.4-1.3-3.2-1.8-4.6-3.2c-1.2-0.9-1.8-2.4-3.3-2.7c-1-0.6-2.1-0.9-3.3-1.1
			C54.7,164,54.5,166.7,53.1,167.7z"/>
		<path id="path39" class="st2" d="M56.2,161.2l0.4,0.6c1.7-0.1,3.1-0.8,4.8-0.8c1.1,0.7,2.5,0.6,3.6,1.2c0.9,1.2,1.9,2.6,3.2,3.4
			c2.7,0.4,4.2,3.3,5.1,5.4v-1c0.4-1.4,0-3.1-0.6-4.4c-0.7-0.7-1.6-1.1-2.3-1.7c-0.1-0.4,0-0.6,0.1-1c-1-1.1-2.5-1.7-3.8-2.5
			c-1.8-2.5-5.1-1.9-7.8-2.5L56.2,161.2L56.2,161.2z"/>
		<path id="path41" class="st2" d="M56.2,136.9c0.3,1,0.7,2.3,0.8,3.4c0.9-2,2.8-3,4.4-4.7c-0.9-0.6-2.1-0.9-3.1-1.1v-0.1
			C57.6,135.2,56.4,135.9,56.2,136.9z"/>
		<path id="path43" class="st2" d="M62.2,147.8l1.5-1.5c1.5-1.5,2.7-3.3,2.9-5.2c-1.1-0.6-2.4-0.2-3.5,0.2
			C62.8,143.4,62.2,145.5,62.2,147.8L62.2,147.8z"/>
		<path id="path45" class="st2" d="M63.3,152.5c2.3,0.1,4.5,0.6,6.4-0.7l1.8-6c-0.6,0-1.2-0.3-1.8-0.1
			C68.5,148.4,66.1,151.1,63.3,152.5z"/>
		<path id="path47" class="st2" d="M64,131.4c1.5,2.2,4,4.6,6.5,5.3c-0.3-2.8-2.7-4.7-3.9-7.1l-0.1-0.8c-1-0.9-2.1-1.6-3.1-2.1
			C63.2,128.4,63.7,129.9,64,131.4L64,131.4z"/>
		<path id="path49" class="st2" d="M72,152.7c1.8,0.3,3.6,0,5.3-0.5c2.4-0.6,3.6-3.1,4.4-5.2h-2.9l-3.2,3.1
			C74.4,150.8,73.2,151.8,72,152.7L72,152.7z"/>
		<path id="path51" class="st2" d="M71.7,128.4c0.5,2.6,1.6,4.9,3.1,7.1l0.4-4.9C75.1,130.6,71.7,128.4,71.7,128.4z"/>
		<path id="path53" class="st2" d="M82.5,141.2c0.2-1.7-0.5-3.6-0.7-5.3c-1-0.7-2.4-0.6-3.4-1.3C78.5,137.3,80.5,139.5,82.5,141.2z"
			/>
		<path id="path55" class="st2" d="M79.5,158c2.1-0.7,4.1-1.4,6-2.5c1.2-1.7,3.1-3.3,3.3-5.4c-1.5,0.4-2.8-0.1-4.3,0.6
			c-0.9,1.6-1.4,3.3-3,4.4C81.3,156.4,80.1,157.1,79.5,158z"/>
		<path id="path57" class="st2" d="M82.7,162.1l2.5,3.2c1.3,0.4,3,0.3,4.1-0.5l-0.9-2.9C86.7,162.6,84.6,162.4,82.7,162.1z"/>
		<path id="path59" class="st2" d="M86.9,138.7l1,4.4c2.3-1.9,2.8-4.6,2.7-7.5C89.2,137,88.5,137.9,86.9,138.7L86.9,138.7z"/>
		<path id="path61" class="st2" d="M93.4,146.4c0,0.6,0.2,1.2,0.6,1.7c2.6,0.9,2.8,4.1,5.2,5.3c1.6,0.7,3.3-0.2,4.7-0.8
			c-1-1.2-2.2-2-3.2-3.2c-0.7-0.3-1.4-0.7-1.4-1.6L93.4,146.4L93.4,146.4z"/>
		<path id="path63" class="st2" d="M95.5,162c1.1,1.3,2.6,1.9,4.2,2.3c-0.3-0.4,0.2,0,0.2-0.2l-2-4.4c-1,0-2,0.2-2.9,0.2
			C95.1,160.6,95.2,161.3,95.5,162L95.5,162z"/>
		<path id="path65" class="st2" d="M99,141.6c-0.9-2.1-1.3-4.8-1.6-7.1c-1,1.2-2,1.9-2.9,3.2C94,140.1,97.5,140.7,99,141.6z"/>
		<path id="path67" class="st2" d="M103,139.4c1.2,1.6,3.8,1,5.3,0.6c-0.7-1.2-2.9-1.9-3.3-3.2c-0.2-2.3-0.7-4.5-1.4-6.6
			C102.4,133,101,136.3,103,139.4z"/>
		<path id="path69" class="st2" d="M105.1,146.4c3.3,2.4,6.6,5.2,11.2,4.2c0.3-0.2,0.9-0.2,1-0.6c-1.4-0.9-2.8-1.5-4.2-2.3l-1.6-2.3
			h-0.7C108.9,145.9,107,146.1,105.1,146.4L105.1,146.4z"/>
		<path id="path71" class="st2" d="M105.2,173.2h0.2c2-1.6,4.3-2.1,6.7-2.8c0.6,0.2,0.2,0.9,0.8,1.2c1.4-0.6,3.1-0.5,4.6-1
			c1.8,0.1,3.2,0.1,4.6,0.9c1.1,1.5,3.2,1.3,4.7,2.3l-0.2-2.3c-3.1-3.6-7.9-3.9-12.3-3.8l-0.1-0.5c-1.1,0-2.2,0.2-3.2,0.7
			c-1.4,0.1-2.8,0.8-4.1,1.2C106.1,170.4,105.6,171.9,105.2,173.2z"/>
		<path id="path73" class="st2" d="M107.8,132.6c1.3,1.7,3.2,3,5.4,2.5c-1.1-1.1-2.4-2.3-2.5-3.8c0.3-2.9-2.9-3.2-4.5-4.7
			C106.7,128.6,106.7,130.8,107.8,132.6z"/>
		<path id="path75" class="st2" d="M107.5,179h0.4c1.8-1.1,4.3-0.3,6-1.4c1-0.5,1,0.8,1.7,1.2c1.6,1,1.8,4,4.1,3.3
			c2.7,1.4,2.1,4.8,2.2,7.2l2.5-1.6c-0.2-1.3,0.5-2.9-0.3-4c-0.6-1.4-2.3-1.6-3.2-2.7c1-1.7-1.3-2.5-1.7-3.7l0.1-0.2l3.5,0.5
			c1.2,0.7,1.6,2.1,2,3.3c2.7,0.5,3.4,3.6,4.4,5.6c0.6-1.4,0.8-2.8,1.4-4.1c0-1.1-1.4-1.1-2.2-1.6c-0.2-1.7-1-3.3-2.4-4.3
			c-3-0.8-5.7-2.4-9.1-2.4l-2.8,0.9c-1.5,0.4-3.1-0.1-4.3,1C108,175.9,107.9,177.8,107.5,179L107.5,179z"/>
		<path id="path77" class="st2" d="M109.2,165.4l0.6,0.3c1.4-0.6,2.7-1.4,4.1-1.9c2.2-0.6,3.9,1.9,5.8,0.3c0.7-0.5,1.3,0.2,1.8,0.6
			c0.8,1.5,2.6,1.4,4,1.8c-0.7-1.9-1.6-4.5-4-4.8c-1-0.4-2.1-0.4-3-1c-2.5-2.8-4.2,2.3-7,1.1C110.7,162.9,109.5,164,109.2,165.4z"/>
		<path id="path79" class="st2" d="M109.9,181.5c1.1,0.9,2.1,2.4,3.8,2.2c2.1,1,1.2,3.7,2.3,5.1l1.2-1.1l-0.1-0.1l0.2-0.2l0.1,0.1
			c0.3-1-0.1-2.7-0.7-3.9c-0.8-0.5-1.7,0-2.4-0.5c-0.1-1.1-0.8-1.6-1.5-2.2c-0.5-0.4-1.2,0.1-1.8,0.1L109.9,181.5L109.9,181.5z"/>
		<path id="path81" class="st2" d="M114,141.2c1.1,1.8,3.2,2.9,4.9,4.2c1.4,0.6,3.2,0.8,4.7,0.5c-1.4-1.2-2.7-2.5-3.9-3.9
			c-0.5-0.7-0.6-1.5-1.2-2.1C116.9,140.2,115.2,140.2,114,141.2L114,141.2z"/>
		<path id="path83" class="st2" d="M115.8,129.4c1.5,1.9,3.9,1.1,6,1.2v-0.2l-3.3-2.8C117.6,127.9,116.6,128.7,115.8,129.4
			L115.8,129.4z"/>
		<path id="path85" class="st2" d="M54.9,98.2l1.9,6c0-3.4,1.5-6.2,1.2-9.6l1.4-2.1l-3,0.9C55.6,94.9,55,96.4,54.9,98.2z"/>
		<path id="path87" class="st2" d="M56.2,87.9l2.6-1.5v-3.9c-1.1,0.7-1.7,1.8-2.5,2.7L56.2,87.9z"/>
		<path id="path89" class="st2" d="M109.9,93.9c-0.6,0.8-1.6,1-2.4,1.2c1.4-2.5,2.1-6.1,1-9c0.7-0.3,1.5-0.4,2.2-0.8l-0.1-0.1
			l1.8-1.6c2.4-1.7,1.5-4.8,2.4-7.1c-1.2-1.9-1.6-4.1-3.3-5.7l0.1-0.1c-1.4-1.7-3.8-1.5-5.7-2.4c-2.4-0.8-4.3,0.9-6.1,2
			c-0.8,0.1-0.3,1.1-1.1,1.1c-0.5,1.2-1,2.5-1.4,3.9c-3.3-0.5-6.8-0.1-9.4,1.8c-1.4-1-3.1-1.2-4.7-1.7c-1.2-0.2-2.5,0.2-3.4-0.5
			c-1.3-1.4-1.5-4-3.7-4.4c-0.8-0.3-0.9-1.1-0.9-1.8c-1.4-0.2-2.7-0.9-4.1-1.2c-2.1-1-3.8,0.6-5.4,1.6c-0.7,0.3-1.5,0.4-2.1,0.8
			c-1.2,1.8-2.3,3.7-3.1,5.8c0.2,1.7,1,3.2,1.8,4.6c0.8,2.2,3.1,3.8,5.2,4.7c-1,3.3-1,7.2,0,10.5c0,0-0.1,0-0.1,0
			c0,0-0.1,0.1-0.1,0.1c-0.3,0-0.7,0.1-0.9-0.1h0c0.5,3.2,2,5.9,4.4,8.3c0.9,0.3,0.7,1.3,1,2c0.2,0.3,0.3,0.9,0.2,1.2
			c-5.2-0.2-9.8,1.1-13.9,3.5c-1.1,0.5-0.6,2-0.7,3c2.9-1.9,6.1-3.3,9.5-4c1.5-0.1,3.2-0.5,4.6-0.1l0.2,2.8c-3.9,2-8.2,3.2-11.6,6.6
			c0.1,1-0.1,2.2,0.2,3.1l3-2.5c2.9-2.2,6-4.1,9.3-5.3c0.9,1.1,1.8,2.2,3,2.8c2-1.3,4.2-2.2,6.5-2.8c1.2-0.7,3.2-0.1,4-1.5l0.6-3
			c-0.1-0.1-0.2-0.2-0.3-0.2c-1.6-0.9-2.6-2.4-2.4-4.3c-0.5,0.3-1.1,0.4-1.8,0.5c-0.5-0.1-1-0.3-1.3-0.8c0-0.7-0.4-1.7,0.3-2.1
			c2.2-1.3,4.9-1.4,7.6-1.2c2,0.3,4.9,0.2,5.6,2.5c-0.1,0.7,0,1.5-0.7,1.9c-0.7,0.4-1.6,0-2.2-0.3c-0.5,1.6-1.4,3.4-3.2,4l0.2,1.9
			c0.2,0.9,0.3,2.3,1.7,2c3.1,0.8,5.9,2.4,8.7,4.1c0.9-0.9,1.7-2,2.3-2.9c4.9,1.6,9.1,5.3,13.2,8.7l0.2-2.8
			c-3.8-3.4-8.1-5.8-12.5-7.7c0.2-0.9,0.4-1.8,0.4-2.7c5.3,0.3,10.3,1.9,14.6,4.5l-0.1-2.4c-4.6-2.4-9.6-4.1-15-4.1
			c-0.2-0.3-0.3-0.7-0.2-1c2.6-0.4,4.5-3.2,5.2-5.6c1.4-1.6,3.3-3.2,2.8-5.5c0.1-0.2,0.1-0.4,0.2-0.6
			C109.9,95.1,110.1,94.5,109.9,93.9z"/>
		<path id="path91" class="st2" d="M114.5,102.4l2.7-0.9l0.3-1.5c0.8-2.2-0.9-3.9-1.7-5.6L114.5,102.4L114.5,102.4z"/>
		<path id="path93" class="st2" d="M121.3,112.9c1.3,1.4,2.5,3.7,4.8,3c-0.2-1-0.7-1.7-1-2.6c-0.6-0.7-0.8-2.7-2-2
			c-0.9-0.6-1.1-1.6-1.7-2.4C121.2,110.1,121.3,111.7,121.3,112.9z"/>
		<path id="path95" class="st2" d="M121.8,122.6c0.5,0.7,0.6,1.6,1.1,2.2c0.9,0.6,2.2,0.5,3.3,0.4c1-0.2,1.6,0.9,2.5,0.2
			c-1.2-0.7-1.8-2-2.9-3C124.5,121.4,123.1,122.3,121.8,122.6z"/>
		<path id="path97" class="st2" d="M123.5,137.9c2.3,1.4,5.2,2.7,8.2,2.2c0.3-0.2,0.9-0.1,1-0.5c-1.9-0.7-3.9-2.5-5.8-2.9
			c-1.1-1.7-2.5,0.4-3.9,0.3C123,137.4,123.4,137.7,123.5,137.9z"/>
		<path id="path99" class="st2" d="M130.4,167.1l0.5,1.1c0.5,3.4,2.7,6.6,1.5,10.4c1,0.7,1.3,1.8,1.9,2.8h0.2
			c0.8-2.9,0.2-5.8-0.2-8.7C134.6,170,132,168.5,130.4,167.1z"/>
		<path id="path101" class="st2" d="M131,133.3c1.7,1.3,4.5,1.5,6.5,0.8c-1.3-0.7-2.6-1.5-3.7-2.4L131,133.3z"/>
		<path id="path103" class="st2" d="M139.1,143.4c-0.2,1.4,0.8,2.5,1.8,3.2c0.4-0.8,1-1.5,1-2.4c-0.3-1.4-1.1-2.7-2.4-3.7
			C139.3,141.5,139,142.4,139.1,143.4z"/>
		<path id="path105" class="st2" d="M139.2,158.5c-0.2,1.6,1.5,1.8,2.2,2.6c0.6,0.7-0.4,1.2-0.4,1.9c1.3,1.6,2,3.5,2,5.6
			c0.5-2,1.3-3.9,1.5-6c-0.1-1.5-2.4-1.2-2.1-2.8c0.7-1.7-0.1-3.3-0.6-4.8c-0.1-0.2-0.4-0.7-0.7-0.6
			C140.6,155.9,139.1,156.9,139.2,158.5z"/>
		<path id="path107" class="st2" d="M143.8,150.6l1.7,3.3c0.8-0.1,1.3-0.8,1.8-1.3c0.5-1.4-0.8-2.3-1.1-3.4c-0.3-0.8,0-1.9-0.6-2.5
			c-0.4-0.3-0.9-0.7-1.4-0.6L143.8,150.6L143.8,150.6z"/>
		<path id="path109" class="st2" d="M146,141.8c1.4,0.8,2.9,2,3.6,3.5c1.2,3.4,3,6.4,4.4,9.7c0.5,2.3,0.9,4.3,1.5,6.6
			c0.2,0.6,0.1,1.7,1,1.6c0.3-2.5,0.8-4.9,0.8-7.5c-0.8-1.1-1.9-1.6-2.9-2.2v-0.2c0.1-0.6,0.6-1.2,1.3-1.1c0.3-0.3,1.2-0.7,0.8-1.3
			c-1.7-1.7-1.6-4.7-4.4-5.2c-1-0.4-1.2-1.4-1.3-2.3C149.5,142.2,147.6,141.9,146,141.8z"/>
		<path id="path111" class="st2" d="M147.6,159.8c1.7,1.5,1.1,3.8,1,5.9c-0.3,1.3,1.3,0.5,1.8,1.2c1,1.5,0.4,3.7,0.1,5.4
			c0.9-1.4,1.9-2.6,2.6-4c0-0.6,0.7-0.8,0.7-1.5c0.3-1-0.8-0.5-1.3-0.6c-0.4-0.1-0.8-0.4-0.7-0.9c0.9-1.7,0.1-3.6-0.3-5.3
			c-0.4-1.4,0.2-3.2-0.5-4.4C149.9,157,146.8,157.3,147.6,159.8L147.6,159.8z"/>
		<path id="path113" class="st2" d="M150.7,136.3c2.9,3,5.1,6,8.3,8.8c0.1-1.3-0.1-2.5-0.2-3.7c-0.5-0.9-1.3-1.6-2.1-2.2
			C154.4,139,153.1,135.8,150.7,136.3z"/>
		<path id="path115" class="st2" d="M158.4,152c0.1,0.3,0.2,0.6,0.3,0.9c1.3,2.1,2.5,4.3,3.4,6.6c-0.3-2.4,1.4-5.5-0.8-7.4
			c-0.3-0.8-1.3-0.5-1.9-0.5L158.4,152z"/>
		<path id="path117" class="st2" d="M166.3,176.2c0.9,0.4,2.1-0.3,3-0.9c0.8-0.2,1.5,0.3,2.2,0.7c0.3,0.5,0,1,0.1,1.5
			c2,0.6,3.9,1.3,5.7,2.4l0.6-0.6c0.1-1.4-1-2.4-2-3.2c-0.7-0.4-1.7-0.2-2.2-0.8c0.3-0.5,0.3-1.3,0.3-1.9c-1.1,0-1.8-0.3-2.7-0.9
			c-0.6-0.2-1.1-0.6-1.5,0C168,173.7,167.9,175.4,166.3,176.2L166.3,176.2z"/>
		<path id="path119" class="st2" d="M168.6,134.6c0.8-0.2,1.7-0.5,2.4-1.1c2.2-2,5.4-0.7,8-0.7c-0.5-0.9-1.2-1.8-1.8-2.5
			c-0.9-0.4-1.8-0.8-2.8-0.8c-2.3-1.3-3.8,0.9-5.5,2C168.4,132.4,168.2,133.7,168.6,134.6z"/>
		<path id="path121" class="st2" d="M168.7,141.4c0-0.1,0-0.2,0.1-0.2c0.3,0.3,0,0.9,0.5,1c0.9-0.4,1.7-1,2.4-1.6
			c2.2,0,3.5-2.1,5.7-2.1c3.6,0.7,7.3,1.4,10.4,3.2c-0.2-2.1-2.1-4.1-4-5.1c-1.1-0.4-1.9,0.2-2.7,0.8c-2.2,1.4-1.1-2-2.6-2.1
			c-2,0.6-4.1,1.3-6.4,1.1c-1.3,0.5-2.3,1.7-3.7,1.6C168.5,139.1,168.3,140.4,168.7,141.4L168.7,141.4z"/>
		<path id="path123" class="st2" d="M170.2,148.8c0.7,0.7,1.8,0.6,2.8,0.7l2.9-1.1c0-0.5-0.9-0.7-0.7-1.3c0.8-0.9,1.9-0.3,2.9-0.6
			c1.4-0.2,2.8-1.6,4.2-0.6c0,0.2,0.1,0.4-0.1,0.6c-0.4,1,0.3,1.7,1.1,2c1.6,0.3,3.1,1.8,4.8,1.1c-0.2-1.4-0.5-2.6-0.9-3.9
			c-1.4-0.2-2.3-1.4-3.6-1.8c-0.6,0.5-1.3,0.9-2,0.9c-2.5-0.6-5.6-2.2-8.2-0.6c-0.9,1.1-2.6,0.8-3.8,1.3
			C169.8,146.7,169.9,147.7,170.2,148.8z"/>
		<path id="path125" class="st2" d="M171.3,168.4c-0.2,0.6-0.8,1.5,0.3,1.8c2.1,0.1,4.8-1,6.5,0.6c0.6,0.4,0.3,1.3,0.3,1.9l2.8,2.3
			c0.3-1.4,0.8-2.6,0.8-4.1c-0.2-1.1-0.8-2.1-1.7-2.8c-1.8,0-2.9-2.1-4.8-1.9c-1-0.2-1.9,0.7-2.9,0.7
			C172,167.4,171.7,167.9,171.3,168.4L171.3,168.4z"/>
		<path id="path127" class="st2" d="M172.1,152.8c0.4,0.9,0.9,2.3,1.8,2.4c2-0.9,4.8-1.4,7-0.5c0.7,0.1,0.7,1,0.6,1.5
			c1.1,0.7,2.5,1.2,3.7,1.9l-0.3-2c-0.1-2.2-2.8-2.4-2.9-4.5c-2.2-0.7-4.7-1-7-0.4c-0.8,0.7-1.9,0.6-2.8,0.8
			C171.9,152.4,172.1,152.6,172.1,152.8z"/>
		<path id="path129" class="st2" d="M172.7,163.6c1.3-0.4,2.1-1.8,3.5-1.9c2.1,0,4,0.9,5.3,2.7c0.8,0.5,0.6,1.9,1.7,1.9
			c-0.3-1.6,0.2-3.1,0.2-4.8c-1.4-2.3-4.8-0.5-6.1-3.2l-2.4,0.2c-1.8,0.4-1.3,2.5-1.5,3.9C173,162.7,172.6,163,172.7,163.6
			L172.7,163.6z"/>
		<path id="path131" class="st2" d="M184.8,178c1,2,3.3,3.6,3.5,6c0.5-0.6,0.9-1.4,1.3-2c0-0.7-0.8-0.7-1.1-1.2
			c-0.3-0.9,0.2-1.6,0.3-2.4c-0.4-1.2-1.5-2.4-2.6-3.1C186.2,175.2,184.8,178,184.8,178z"/>
		<path id="path133" class="st2" d="M188.9,172.8l2.4,3.2c1-1.6,1-4,0.6-6c-0.2-0.4-0.7-1-1.3-0.7
			C189.7,170.3,189.6,171.7,188.9,172.8L188.9,172.8z"/>
		<path id="path135" class="st2" d="M179.2,82.3c0.9,0.4,1.7,0.8,2.7,0.9c0.7-0.4,1.6-0.6,2.5-0.4c1.2,0.8,2.7-0.2,4.1-0.1
			c-1.3-1.2-2.7-1.9-4.1-2.6C182.5,80.5,181,81.8,179.2,82.3z"/>
		<path id="path137" class="st2" d="M192.1,85.4c1.7,0.2,3,1.7,4.2,3c1.5,0.2,2.6,1.3,3.5,2.4l-0.6-1.8c-0.4-1.8-1.5-3.1-2.6-4.5
			C195.1,84.6,193.5,84.8,192.1,85.4z"/>
		<path id="path139" class="st3" d="M68.6,70.9l1,0.1c2.6,1.3,6.8,1.9,7,5.7c-2.6,1-5.1,2.4-7.2,4.5c-1.6-1.6-4.8-0.7-5.3-3.6
			C64.5,75,65.5,71.6,68.6,70.9L68.6,70.9z"/>
		<path id="path141" class="st3" d="M71.1,87.7c3-0.3,5.9,0.2,9-0.1c0.8,0.3,1.6,1,1.9,1.8c-0.1,3.6-1.2,7-1.4,10.6
			c-1.4,0.6-2.7,1.7-3,3.2c-1.2,0.4-2.3,1.1-3.5,1.6c-0.5-1.1-0.4-2.8,0.5-3.7c1.3-1.8,4.6-1.4,4.4-4.3c0.9-1.4,0-3.2,0.1-4.6
			c-0.3-1.1-0.7,0.4-1.2,0.3c-1.1,0.2-2.2,0.3-3.1-0.2c-0.7-0.7-1.6-1.3-1.8-2.3c-0.9-0.5-2-1.2-2.5-2.2L71.1,87.7z"/>
		<path id="path143" class="st3" d="M74.8,109.2c1.4,0.2,2.9-0.4,4.1,0.3c-0.3,0.5-1,0.7-1.5,0.8l-2.2,1
			C74.3,111.1,74.8,109.8,74.8,109.2z"/>
		<path id="path145" class="st3" d="M80.5,81.6c1.4-0.5,2.9-1.4,4.5-1c-1.1,1.1-2,2.5-2.8,3.8l-4.5-0.1
			C78.2,83.2,79.4,82.2,80.5,81.6z"/>
		<path id="path147" class="st3" d="M93.8,80.5c1.9-0.3,1.8,2.1,3.5,2.2c0.3,0.4,0.7,0.8,0.6,1.3c-1,0.4-2.4,0.2-3.6,0.5
			c-1.5-0.8-0.5-3.4-2.9-3.2c-0.1-0.2-0.4-0.6-0.1-0.7C92.1,80.3,93,80.4,93.8,80.5L93.8,80.5z"/>
		<path id="path149" class="st3" d="M92.6,89.4c0.8-1.2,2.1-1.3,3.3-1.5l8.6,0.2c0.4,0.3-0.3,0.6-0.3,1c-0.5,0.5-1.3,0.6-1.8,1.1
			c-1.1,0-1,1.3-1.8,1.9c-1.2,1.2-3,0.7-4.4,0.5c-0.5-0.4-1.1-0.9-1.3-1.4l-0.4,0.4c0.5,1.9,0.4,3.9,0.7,5.8l2.1,1.4
			c0,3,3.6,2.2,5.2,3.9c-0.4,1.1-1.1,2-1.9,2.9c-1.3-1.2-2.7-2-4.2-2.5c-0.1-1.8-2.1-2.8-3.2-3.7c-0.3-3.2-0.4-6.5-0.9-9.7
			L92.6,89.4z"/>
		<path id="path151" class="st3" d="M95.7,109.8h4l-0.5,2.1l-4-1.7C95.1,109.8,95.5,109.7,95.7,109.8L95.7,109.8z"/>
		<path id="path153" class="st3" d="M102.9,72.3l2.9-0.9c1.7,0.8,3.3,1.8,4.8,2.9c1.2,2.3,1,5.3,0.5,7.8c-0.9,1-2.8,0-3.6,1.6h-0.1
			c-1.1-3.1-4.2-5.9-7.1-7.3C100.8,74.8,101.3,73.3,102.9,72.3L102.9,72.3z"/>
		<path id="path155" class="st2" d="M171.9,198.3h17.7c2.6-0.4,5.4-0.3,7.5-2.3c8.8,1.4,17.8-0.8,24.8-5.7c3.7-3,7-6.4,9.6-10.1
			c2.3-3.3,4.2-6.4,5.4-10.1c0.9-2.3,1.6-4.6,2.1-7.1c2.5-11.5,1.2-24.3-2.5-35.2c-0.7-2-1.5-4-2.3-5.8c-4.7-9.6-11-20-20.8-26.1
			c-5.5-3.4-10.6-8.7-13.7-14.2c-1.7-1.5-3.3-3.5-5.5-3.9c0.6,1,1.3,1.9,1.4,3.1l-0.1,0.2c-2.3,0.1-4.1-1.2-5.7-2.6l1.8-1.6
			c-0.7-0.3-1.4-0.5-2.2-0.6c-6.7-0.8-12.2,2.3-18.1,3.8l-0.1,0.3c3.6,1.6,4.4,5.6,6.5,8.3c0.5-0.6,1.4-0.2,2.2-0.2
			c1.1,0.1,2.1,0.8,3.1,0.6c0-0.9-0.5-1.6-0.6-2.4c0.6-0.3,1.4,0,2.1,0c1.9,1.1,5-0.2,6.2,2.4c-2.2,0.1-4.2,0.6-6.3,1.1
			c0.1,0.8,1,1.5,0.9,2.3c-1.8-0.7-3.6-1.2-5.6-1.4l-0.1,0.3c2.5,2.9,5.9,4.6,9.4,5.7c5,1.2,9.4-1.2,14.2-0.4
			c11.9,5.4,22,17.8,26.4,29.6c0.2,0.6,0.4,1.1,0.6,1.7c3.7,10.7,4.4,24,0.7,35.2c-2,4.7-4.1,9.1-7.6,12.9c-1.3,1.6-2.8,3-4.3,4.3
			c-5,3.9-11.1,5.6-17.4,3.8c-0.4-0.3-1.2-0.3-1.1-1c0.2-0.9,0.4-1.9,0.6-2.8c1.1-5.4,1.5-11,1.3-16.7c0-0.2,0-0.5,0-0.7
			c-0.3-8.2-2-15.6-5-22.7c-1.9-4.1-4.2-8.5-7.1-12.5c-3.5-4.8-7.7-8.9-13.3-10.9c-3.4-0.9-7.5-1.1-10.1,1.8
			c-1.8,1.6-2.6,3.7-2.3,6.1c-2.8,1.8-6,2.8-9.5,3.1c-0.9,0.1-1.7,0.4-2.6,0.4c-0.8,0-1.7,0-2.5-0.1c-4.2-0.5-8.4-2.8-11.7-5.4
			c-0.1-1.7-0.2-3.3-0.2-5.2c-1.8-1-3.4-2.8-3.5-4.9l0.2-0.2c1.1,0.3,2,0.9,2.9,1.4c-0.4-2.6-0.9-5.1-2.2-7.4
			c-1.2-0.5-2.4-0.9-3.5-1.5c-1.3-0.9-2.1-2.4-2.3-3.8c1.2,1.1,3.2,0.7,4.1,1.9c-1.6-4.6-1.6-9.9-4.1-14.1c-1.3-3.1-4.7-4.5-7-6.8
			c-0.9-1.1-1.3-2.6-2.9-2.8c-1.3-0.3-1.4-1.8-1.7-2.8c0.8,0.1,1.5,0.7,2.2,0.8c-1.9-5.1-3.6-10.7-8.8-14l-0.9,0.6
			c-2,0.3-4.2,0.4-6.2,0.5c0.9-1.3,2.5-1.9,3.7-2.5c-1.5-1.1-2.7-1.4-4.5-1.7c-1.1,1.1-3,1.6-4.3,1.9L99,62c0-1.2-0.3-2.6,1.5-2.9
			c-1.7-0.8-4.6-0.5-6.3,0c-0.5,1.3-1.9,2.4-1.8,4c-1,1.1-1.7,2.5-2.8,3.2c0-2.5,1.1-4.9,1.5-7c-1.5,0.6-3,1.3-4.5,2
			c-2.4-1.4-4.8-2.7-7.3-3.7c-0.2-0.1-0.7-0.2-0.6,0.2c2.2,1.6,1.3,4.5,1.5,6.7l-1.4-1.1c-0.7-1.7-2.6-2.9-2.9-4.8
			c-2.3,0.4-3.7,1-5.8,1.9l-0.3,0.2c1.6,0,2.9,1.2,3.6,2.4c-2.3,0.1-4.4-0.8-6.7-1c-0.2-0.2-0.4-0.5-0.8-0.5
			c-1.2,0.4-2.1,1.3-3.2,2.1c-2.3,2.2-4.6,4.7-5.7,7.7c0.8,0.1,1.7,0.1,2.3,0.6c-1.3,0.8-2.3,2-3.6,2.8c-0.4,1.7-0.4,3.7-0.5,5.6
			c-1,1.5-2.2,2.7-2.9,4.4c-2.1,6.6-2.6,14-2.3,21.6c-0.7,0.6-1.5,1-2.2,1.5l0.1,6.7h0.2c0.3-1.4,2-2.2,3-3.2h0.3
			c-0.2,1.5-0.4,3-0.4,4.6l-1.9,1.6c-1.9,1.7-0.3,4.2-0.5,6.3c0.1,0.6,0.2,1.4,0.6,1.5c0.2-0.8,1-1.4,1.4-2.1c0.8-0.2,1.6-0.9,2.3-1
			c-0.4,1.6-1,3.3-1.7,4.9c-0.3,0.2-0.7,0.5-1,0.8c-0.3,0.4-0.6,0.8-0.7,1.2c1.5,7.8,3.8,15.6,6.5,22.9c-1.8,3.1-2.9,6.7-4.4,9.9
			c-0.2,0.4-0.4,0.9-0.6,1.4c-1.5,3.8-2,8.1-3.9,11.8c-0.8-0.5-1.6-0.9-2.4-1.3c-3.6-1.2-7.7-0.4-10.3,2.3c-2.3-0.4-4.7,0-6.5,1.2
			c-1.3,1-2.3,2.2-2.9,3.5c-0.4,1-0.6,2-0.5,3.1c-1.5,1-2.3,2.6-2.8,4.2c-0.7,3.6,0.6,7.3,2.6,10L171.9,198.3L171.9,198.3z"/>
		<path id="path157" class="st3" d="M236.4,127.9c-0.7-2-1.5-4-2.3-5.8c-4.7-9.6-11-20-20.8-26.1c-5.5-3.4-10.6-8.7-13.7-14.2
			c-1.7-1.5-3.3-3.5-5.5-3.9c0.6,1,1.3,1.9,1.4,3.1l-0.1,0.2c-2.3,0.1-4.1-1.2-5.7-2.6l1.8-1.6c-0.7-0.3-1.4-0.5-2.2-0.6
			c-6.7-0.8-12.2,2.3-18.1,3.8l-0.1,0.3c3.6,1.6,4.4,5.6,6.5,8.3c0.5-0.6,1.4-0.2,2.2-0.2c1.1,0.1,2.1,0.8,3.1,0.6
			c0-0.9-0.5-1.6-0.6-2.4c0.6-0.3,1.4,0,2.1,0c1.9,1.1,5-0.2,6.2,2.4c-2.2,0.1-4.2,0.6-6.3,1.1c0.1,0.8,1,1.5,0.9,2.3
			c-1.8-0.7-3.6-1.2-5.6-1.4l-0.1,0.3c2.5,2.9,5.9,4.6,9.4,5.7c5,1.2,9.4-1.2,14.2-0.4c11.9,5.4,22,17.8,26.4,29.6
			c0.2,0.6,0.4,1.1,0.6,1.7c3.7,10.7,4.4,24,0.7,35.2c-2,4.7-4.1,9.1-7.6,12.9c-1.3,1.6-2.8,3-4.3,4.3c-5,3.9-11.1,5.6-17.4,3.8
			c-0.4-0.3-1.2-0.3-1.1-1c0.2-0.9,0.4-1.9,0.6-2.8c1.1-5.4,1.5-11,1.3-16.7c0-0.2,0-0.5,0-0.7c-0.3-8.2-2-15.6-5-22.7
			c-1.9-4.1-4.2-8.5-7.1-12.5c-3.5-4.8-7.7-8.9-13.3-10.9c-3.4-0.9-7.5-1.1-10.1,1.8c-1.8,1.6-2.6,3.7-2.3,6.1
			c-2.8,1.8-6,2.8-9.5,3.1c-0.9,0.1-1.7,0.4-2.6,0.4c-0.8,0-1.7,0-2.5-0.1c-4.2-0.5-8.4-2.8-11.7-5.4c-0.1-1.7-0.2-3.3-0.2-5.2
			c-1.8-1-3.4-2.8-3.5-4.9l0.2-0.2c1.1,0.3,2,0.9,2.9,1.4c-0.4-2.6-0.9-5.1-2.2-7.4c-1.2-0.5-2.4-0.9-3.5-1.5
			c-1.3-0.9-2.1-2.4-2.3-3.8c1.2,1.1,3.2,0.7,4.1,1.9c-1.6-4.6-1.6-9.9-4.1-14.1c-1.3-3.1-4.7-4.5-7-6.8c-0.9-1.1-1.3-2.6-2.9-2.8
			c-1.3-0.3-1.4-1.8-1.7-2.8c0.8,0.1,1.5,0.7,2.2,0.8c-1.9-5.1-3.6-10.7-8.8-14l-0.9,0.6c-2,0.3-4.2,0.4-6.2,0.5
			c0.9-1.3,2.5-1.9,3.7-2.5c-1.5-1.1-2.7-1.4-4.5-1.7c-1.1,1.1-3,1.6-4.3,1.9L99,62c0-1.2-0.3-2.6,1.5-2.9c-1.7-0.8-4.6-0.5-6.3,0
			c-0.5,1.3-1.9,2.4-1.8,4c-1,1.1-1.7,2.5-2.8,3.2c0-2.5,1.1-4.9,1.5-7c-1.5,0.6-3,1.3-4.5,2c-2.4-1.4-4.8-2.7-7.3-3.7
			c-0.2-0.1-0.7-0.2-0.6,0.2c2.2,1.6,1.3,4.5,1.5,6.7l-1.4-1.1c-0.7-1.7-2.6-2.9-2.9-4.8c-2.3,0.4-3.7,1-5.8,1.9l-0.3,0.2
			c1.6,0,2.9,1.2,3.6,2.4c-2.3,0.1-4.4-0.8-6.7-1c-0.2-0.2-0.4-0.5-0.8-0.5c-1.2,0.4-2.1,1.3-3.2,2.1c-2.3,2.2-4.6,4.7-5.7,7.7
			c0.8,0.1,1.7,0.1,2.3,0.6c-1.3,0.8-2.3,2-3.6,2.8c-0.4,1.7-0.4,3.7-0.5,5.6c-1,1.5-2.2,2.7-2.9,4.4c-2.1,6.6-2.6,14-2.3,21.6
			c-0.7,0.6-1.5,1-2.2,1.5l0.1,6.7h0.2c0.3-1.4,2-2.2,3-3.2h0.3c-0.2,1.5-0.4,3-0.4,4.6l-1.9,1.6c-1.9,1.7-0.3,4.2-0.5,6.3
			c0.1,0.6,0.2,1.4,0.6,1.5c0.2-0.8,1-1.4,1.4-2.1c0.8-0.2,1.6-0.9,2.3-1c-0.4,1.6-1,3.3-1.7,4.9c-0.3,0.2-0.7,0.5-1,0.8
			c-0.3,0.4-0.6,0.8-0.7,1.2c1.5,7.8,3.8,15.6,6.5,22.9c-1.8,3.1-2.9,6.7-4.4,9.9c-0.2,0.4-0.4,0.9-0.6,1.4c-1.5,3.8-2,8.1-3.9,11.8
			c-0.8-0.5-1.6-0.9-2.4-1.3c-3.6-1.2-7.7-0.4-10.3,2.3c-2.3-0.4-4.7,0-6.5,1.2c-1.3,1-2.3,2.2-2.9,3.5c-0.4,1-0.6,2-0.5,3.1
			c-1.5,1-2.3,2.6-2.8,4.2c-0.7,3.6,0.6,7.3,2.6,10h58.5c-0.9-1-1.7-2.4-2.3-3.7c-1.3-1.9-0.4-4.6-0.5-6.7c1.2-2.4,2.4-4.8,3.8-7.2
			c0.3-0.5,0.6-0.9,0.8-1.4l2.7-1c1.4,0,2.6-1,4-0.7c1.8,1.8,1.8-1.8,3.6-2c4.1-0.5,8.2-0.1,10.5,3.3c0,0.5,0.7,0.5,0.6,0.9
			c-0.5,0.2-1-0.2-1.6-0.2c-2.5-0.6-5.5-2.2-7.9-0.8c-0.1,0.6-0.2,1.2-0.3,1.8c-0.1,0.6-0.2,1.3-0.3,1.8c1.6,0.5,3,1.6,4.2,2.9
			c0.8-1.6,2.6-2.3,4.1-2.9c1.4,0.3,2.8,0.3,4,1.2c2.1,1.9,1.1,5.2,0.9,7.6c1.9,1.1,4,1.7,5.9,2.7c-0.9,0.8-2.1,1.1-3.2,1.5
			l-3.2-0.6c-0.4-0.3-1-0.3-1.1-0.7c-1.1,1.1-2.3,2.6-3,4.1h45.3c-0.6-1.4-1.3-2.4-2.1-3.7c-0.9-2-0.6-4.7-0.7-6.8l4.2-6.4
			c2.3,0,4.9-0.9,7.4-0.5c0.1-0.1,0.2-0.1,0.4-0.2c1-0.7,1.4-2.4,2.9-2.2c2.8-0.8,4.9,0.5,7,1.8c-0.1,0.2-0.1,0.3-0.2,0.4
			c-0.9,1.4-2.5-0.2-3.7,0.3c-0.5,0.5,0.2,1.2,0.3,1.8c0.4,0.6-0.4,0.5-0.7,0.6c-0.7,0.1-1.5-0.1-2-0.6c-0.1-0.2,0-0.4-0.3-0.4
			c-0.6,1-1.5,1.9-1.7,3c0.8,0.7,1.8,1.5,2.2,2.4c0.8,1.1-0.6,1.9-0.9,2.9c-0.1,0.2-0.4,0.2-0.5,0c-0.7-0.4-1.3-1.4-2.1-1.1
			c-0.7,2.9,0.2,5.9-0.2,8.8c1.3,0.3,2.8-0.1,4.2,0l0.6-6.2c0.6-4,3-7.4,5.8-10.5c3-2.1,5,2,7.2,3.4c0.4,0.1,0.2,0.5,0.4,0.7
			c0,0.7-0.7,0.9-1.2,1.1c-1.4,0.5-2.4-1-3.3-1.9c-0.8,0.9-1.2,2.1-2.2,2.8l0.3,0.1c1.1,1.1,2.2,2.3,2.4,3.7c-0.1,1.3-0.8,2.6-2,3.3
			c-0.9-1.5-1.6-3.2-2.2-4.8c0,0.1,0,0.1-0.1,0.2c-1.8,0.5-2.3,2.5-2.6,4.2c0.1,1.6-1.1,2.3-0.8,3.9h23.6c2.6-0.4,5.4-0.3,7.5-2.3
			c8.8,1.4,17.8-0.8,24.8-5.7c3.7-3,7-6.4,9.6-10.1c2.3-3.3,4.2-6.4,5.4-10.1c0.9-2.3,1.6-4.6,2.1-7.1
			C241.5,151.6,240.2,138.8,236.4,127.9z"/>
		<path id="path159" class="st3" d="M84.6,189.3c1.3-0.8,3.4-1,3.7-2.9c-0.5-0.4-1-0.9-1.6-1l-1.4,0.4c0.1-0.8,0.5-1.7,0.8-2.5
			l4.4-1.4c-0.6,2-0.8,4.5-1,6.7c0.4,3.4,0.9,7,2.6,9.8h-4.7C86.8,195.2,83.6,192.9,84.6,189.3L84.6,189.3z"/>
		<path id="path161" class="st3" d="M94.7,185.3H95l3.2,2.9l0.5-0.1c-0.3,3.4-0.4,6.7-0.5,10.2h-3.4C94,195,92.9,191.6,93,188
			C93.6,187.1,94,186,94.7,185.3L94.7,185.3z"/>
		<path id="path163" class="st3" d="M101.8,188.5c0.6-0.8,0.9-2.2,2.2-2.4c0.9,0,1.7,0.2,2.4,0.8c1.2,1.5,0,3.3-0.4,4.8
			c-0.5,2.2-1.3,4.5-2,6.6h-3.3L101.8,188.5L101.8,188.5z"/>
		<path id="path165" class="st3" d="M152,187.5c0.7,0.9,1,2.2,2.1,3c1-1.3,1.2-3.4,0.7-5.1l-1-1c1.2-0.3,2.5-0.4,3.7-0.6
			c-0.5,1.8-1.5,3.3-1.4,5.4c0,3,0.5,6,0.8,9.1h-3.6c-1.3-2.9-2.6-5.7-2.5-9.1C151.2,188.6,151.5,187.9,152,187.5L152,187.5z"/>
		<path id="path167" class="st2" d="M167.7,124c0,0.9-0.7,1.8-0.1,2.5c0.8-0.9,2.1-0.9,3.2-1.3c2.9-0.3,5.8,0.7,8.5,1.3
			c-0.7-1.1-1.2-2.3-1.9-3.3c-1.5-0.4-3.8,0.7-4.1-1.6c-0.9-0.8-2.4-0.2-3.3-0.2C168.9,122.2,168.2,123,167.7,124L167.7,124z"/>
		<path id="path169" class="st2" d="M66.5,95.4C66.5,95.4,66.5,95.4,66.5,95.4C66.5,95.4,66.5,95.4,66.5,95.4L66.5,95.4z"/>
		<path id="path171" class="st2" d="M78.5,124.8l2-1.9c0.2,0,0.3,0,0.4,0.2l-0.2,3.7c1,0.9,2.1,1.2,3.4,1.3c0.1-1,0.9-1.7,1.3-2.5
			c0.4-0.7,0.1-1.7,0.9-2.2l0.2,0.2c0.2,1.1,0.2,2.3,0.7,3.3c0.1,0.5,0.2,1.2,0.2,1.7c1.5,0.1,2.8-0.3,3.9-0.9
			c-0.1-1.3,0.4-2.3,0.6-3.4c0.3-0.4-0.4-1.1,0.5-1.1c0.5,1,1.3,2,1.8,3.1c1.9-1.9,2.7-4.5,3.2-7.1c-0.6-0.8-1.4-0.8-2.1-1.3
			c-5.6-1.8-12.8-2.2-18.3,0.6C76.6,120.5,77.1,123,78.5,124.8z"/>
		<path id="path173" class="st2" d="M25.9,186.8c-0.2,2.5,0,4.9,0.2,7.4c0.5,0.8,1.5,1.8,2.5,1.8l0.2-1.7c0.4-2.3-0.9-4.8,0.5-6.8
			c0.9,0.3,1.9,0.8,2.6,1.2c0.4-2.2-0.2-4.7-2.3-6.1C29.6,182.7,25.9,186.8,25.9,186.8z"/>
		<path id="path175" class="st2" d="M34.1,183.3c-1.3,3.9-2.2,8.6-0.7,12.7c0.9-0.6,1.8-1.2,2.6-2c-0.2-3.1-0.6-6.4,1.3-9
			c1.6,0.5,2.7,2.1,3.3,3.6c1.1-1.4,1.5-3.3,1-5.2c0.1-1.5-1.6-1.1-2.4-1.7c0.3-1.2,0.2-2.6,1.5-3.3l-4,0.4
			C35.8,180.2,34.7,181.6,34.1,183.3z"/>
		<path id="path177" class="st2" d="M42.3,194.7c0.2,0.3,0,0.8,0.3,0.9c0.5-2.8,2.7-4.6,4-7c0.6-0.8,0.6-2,1.5-2.6
			c1.3,0,2.2,0.9,3.5,1c0.4,0.3-0.2,0.6-0.2,0.9c-0.3,2.3-1.1,4.1-1,6.4h0.2c1.8-1.9,2.9-3.9,4.2-6l0.2-1.9c0.3-2.3-2.1-3.7-3.7-4.6
			l1.4-1.8l-2-0.7c-2.3,0.2-4.4,1.2-6,3C42.8,186,42.4,190.2,42.3,194.7L42.3,194.7z"/>
		<path id="path179" class="st2" d="M51.2,175.1c0.8,0.2,1.5-0.4,2.2-0.1c3,1.1,6.2,2.3,8.5,4.8l2.7,6.9l1.4-4.3l-0.9-2.3
			c-0.8-1.7-2.8-1.5-4.3-1.6c-0.6-0.7,0-1.4,0.2-2c0.7-2.3-2.2-2.2-3.3-3.2c0.1-1.4-1.7-0.9-2.6-1.1l-0.3-0.4
			c-0.2-0.3-0.7-0.3-1-0.1c-0.1-0.1-0.2-0.2-0.1-0.3l-0.7,0.2C51.9,172.5,51.2,173.7,51.2,175.1L51.2,175.1z"/>
		<path id="path181" class="st2" d="M53.1,167.5c0.1,0.4,0.4,0.9,0.7,1.1c1.5-0.4,2.9-1.4,4.6-0.8c2.2,1.9,4.5,4,7.2,5.1l1-0.2
			c0.6,0.2,1.3,0.2,1.6,0.9c0.4,0.9-0.6,1.4-0.9,2.1c1.5,1.1,0.9,3,1.8,4.4l2.4-3.2c-0.6-1.4,0-3.8-2.1-3.9
			c-0.7-0.4-1.2-1.1-1.2-1.9c-1.4-1.3-3.2-1.9-4.6-3.2c-1.2-0.9-1.9-2.3-3.3-2.7c-1-0.6-2.2-0.9-3.3-1.1
			C54.8,163.8,54.6,166.4,53.1,167.5z"/>
		<path id="path183" class="st2" d="M56.3,160.9l0.4,0.6c1.7-0.1,3.1-0.8,4.8-0.8c1.1,0.7,2.5,0.6,3.6,1.2c0.9,1.2,1.9,2.6,3.2,3.4
			c2.7,0.4,4.2,3.3,5.1,5.4v-1c0.4-1.4,0-3.1-0.6-4.4c-0.7-0.7-1.6-1.1-2.3-1.7c-0.1-0.4,0-0.6,0.1-1c-1-1.1-2.5-1.7-3.8-2.6
			c-1.8-2.5-5.1-1.8-7.8-2.5L56.3,160.9L56.3,160.9z"/>
		<path id="path185" class="st2" d="M56.2,136.7c0.3,1,0.7,2.3,0.9,3.4c0.9-2,2.8-3,4.4-4.7c-0.9-0.6-2.1-0.9-3.1-1.1v-0.1
			C57.6,135,56.5,135.7,56.2,136.7z"/>
		<path id="path187" class="st2" d="M62.2,147.6l1.5-1.5c1.5-1.5,2.7-3.3,2.9-5.2c-1.1-0.6-2.4-0.2-3.5,0.2
			C62.8,143.1,62.3,145.2,62.2,147.6L62.2,147.6z"/>
		<path id="path189" class="st2" d="M63.3,152.2c2.3,0.1,4.5,0.6,6.4-0.7l1.9-5.9c-0.6,0-1.2-0.3-1.8-0.1
			C68.6,148.2,66.1,150.9,63.3,152.2z"/>
		<path id="path191" class="st2" d="M64,131.1c1.5,2.2,4,4.6,6.5,5.3c-0.3-2.8-2.7-4.7-3.9-7.1l-0.1-0.8c-1-0.9-2.1-1.6-3.1-2
			C63.3,128.1,63.7,129.6,64,131.1L64,131.1z"/>
		<path id="path193" class="st2" d="M72.1,152.5c1.8,0.3,3.6,0,5.3-0.5c2.3-0.6,3.6-3.1,4.4-5.2h-2.9l-3.2,3.1
			C74.4,150.6,73.2,151.6,72.1,152.5L72.1,152.5z"/>
		<path id="path195" class="st2" d="M71.7,128.1c0.5,2.6,1.6,4.9,3.1,7.1l0.4-4.9C75.2,130.3,71.7,128.1,71.7,128.1z"/>
		<path id="path197" class="st2" d="M82.6,141c0.2-1.7-0.5-3.6-0.7-5.3c-1-0.7-2.4-0.6-3.4-1.3C78.5,137.1,80.6,139.3,82.6,141z"/>
		<path id="path199" class="st2" d="M79.6,157.8c2.1-0.7,4.1-1.4,6-2.4c1.2-1.8,3.1-3.3,3.3-5.4c-1.5,0.4-2.8-0.1-4.3,0.6
			c-0.9,1.6-1.4,3.3-3,4.4C81.3,156.1,80.1,156.9,79.6,157.8z"/>
		<path id="path201" class="st2" d="M82.8,161.8l2.5,3.2c1.3,0.4,3,0.3,4.1-0.5l-0.9-2.9C86.8,162.3,84.7,162.2,82.8,161.8z"/>
		<path id="path203" class="st2" d="M86.9,138.4l1,4.4c2.3-1.9,2.8-4.6,2.7-7.5C89.3,136.8,88.5,137.7,86.9,138.4L86.9,138.4z"/>
		<path id="path205" class="st2" d="M93.5,146.1c0,0.6,0.2,1.2,0.6,1.7c2.6,0.9,2.8,4.1,5.2,5.3c1.5,0.7,3.3-0.2,4.7-0.8
			c-1-1.2-2.2-1.9-3.2-3.2c-0.7-0.3-1.4-0.7-1.4-1.6L93.5,146.1L93.5,146.1z"/>
		<path id="path207" class="st2" d="M95.5,161.8c1.1,1.3,2.6,1.9,4.2,2.3c-0.3-0.4,0.2,0,0.2-0.2l-2-4.4c-1,0-2,0.2-2.9,0.2
			C95.1,160.4,95.3,161.1,95.5,161.8z"/>
		<path id="path209" class="st2" d="M99,141.4c-0.9-2.1-1.3-4.8-1.6-7.1c-1,1.2-2,2-2.9,3.2C94.1,139.9,97.6,140.5,99,141.4z"/>
		<path id="path211" class="st2" d="M103.1,139.1c1.2,1.6,3.8,1,5.3,0.6c-0.7-1.2-2.9-1.9-3.3-3.2c-0.2-2.3-0.7-4.5-1.4-6.6
			C102.4,132.8,101,136.1,103.1,139.1z"/>
		<path id="path213" class="st2" d="M105.1,146.1c3.3,2.4,6.6,5.2,11.2,4.2c0.3-0.2,0.9-0.2,1-0.6c-1.4-0.9-2.8-1.5-4.2-2.3
			l-1.6-2.3h-0.7C109,145.7,107.1,145.9,105.1,146.1L105.1,146.1z"/>
		<path id="path215" class="st2" d="M105.2,173h0.2c2-1.6,4.3-2.1,6.7-2.8c0.6,0.2,0.2,0.9,0.8,1.2c1.4-0.6,3.1-0.5,4.6-1
			c1.8,0.1,3.2,0.1,4.6,0.9c1.1,1.5,3.2,1.3,4.7,2.3l-0.2-2.3c-3.1-3.6-7.9-3.9-12.3-3.8l-0.1-0.5c-1.1,0-2.2,0.2-3.2,0.7
			c-1.4,0.1-2.8,0.8-4.1,1.2C106.2,170.1,105.7,171.7,105.2,173z"/>
		<path id="path217" class="st2" d="M107.9,132.3c1.3,1.7,3.2,3,5.4,2.6c-1.1-1.1-2.4-2.3-2.5-3.8c0.3-2.9-2.9-3.2-4.5-4.7
			C106.8,128.4,106.7,130.6,107.9,132.3z"/>
		<path id="path219" class="st2" d="M107.5,178.8h0.4c1.8-1.1,4.3-0.3,6-1.4c1-0.5,1,0.8,1.7,1.2c1.6,1,1.8,4,4.1,3.3
			c2.7,1.4,2.1,4.8,2.2,7.2l2.5-1.6c-0.2-1.3,0.5-2.8-0.3-4c-0.6-1.4-2.4-1.6-3.2-2.7c1-1.7-1.3-2.5-1.7-3.7l0.1-0.2l3.5,0.5
			c1.2,0.7,1.6,2,2,3.3c2.7,0.5,3.4,3.6,4.4,5.5c0.6-1.4,0.8-2.8,1.4-4.1c0-1.1-1.4-1.1-2.2-1.6c-0.2-1.7-1-3.3-2.4-4.3
			c-3-0.8-5.7-2.4-9.1-2.4l-2.8,0.9c-1.5,0.4-3.1-0.1-4.3,1C108.1,175.7,108,177.6,107.5,178.8z"/>
		<path id="path221" class="st2" d="M109.3,165.2l0.6,0.3c1.4-0.6,2.7-1.4,4.1-1.9c2.2-0.6,3.9,1.9,5.8,0.3c0.7-0.5,1.3,0.2,1.8,0.6
			c0.8,1.5,2.7,1.4,4,1.7c-0.7-1.9-1.6-4.5-4-4.8c-1-0.4-2.1-0.4-3-1c-2.5-2.8-4.2,2.3-7,1.1C110.7,162.7,109.5,163.7,109.3,165.2z"
			/>
		<path id="path223" class="st2" d="M109.9,181.3c1.1,0.9,2.2,2.4,3.8,2.2c2,1,1.2,3.7,2.3,5.1l1.2-1.1l-0.1-0.1l0.2-0.2l0.1,0.1
			c0.3-1-0.1-2.7-0.7-3.9c-0.8-0.5-1.6,0-2.4-0.5c-0.1-1.1-0.8-1.6-1.5-2.2c-0.5-0.4-1.2,0.1-1.8,0.1
			C110.9,180.9,109.9,181.3,109.9,181.3z"/>
		<path id="path225" class="st2" d="M114,141c1.1,1.8,3.2,2.9,4.9,4.2c1.4,0.6,3.2,0.8,4.7,0.5c-1.4-1.2-2.7-2.5-3.9-3.9
			c-0.5-0.7-0.6-1.5-1.2-2.1C117,140,115.2,140,114,141L114,141z"/>
		<path id="path227" class="st2" d="M115.9,129.2c1.5,1.9,3.9,1.1,6,1.2v-0.2l-3.3-2.8C117.7,127.6,116.7,128.5,115.9,129.2z"/>
		<path id="path229" class="st2" d="M54.9,98l1.9,6c0-3.4,1.5-6.2,1.2-9.6l1.4-2.1l-3,0.9C55.7,94.6,55,96.2,54.9,98z"/>
		<path id="path231" class="st2" d="M56.2,87.7l2.6-1.5v-3.9c-1.1,0.7-1.7,1.8-2.5,2.7L56.2,87.7z"/>
		<path id="path233" class="st2" d="M109.9,93.7c-0.6,0.8-1.6,1-2.4,1.2c1.4-2.5,2.1-6.1,1-9c0.7-0.3,1.5-0.4,2.2-0.8l-0.1-0.1
			l1.8-1.6c2.4-1.7,1.5-4.8,2.4-7.1c-1.2-1.8-1.6-4.1-3.3-5.7l0.1-0.1c-1.4-1.7-3.8-1.5-5.7-2.4c-2.5-0.8-4.3,0.9-6.1,2
			c-0.8,0.1-0.3,1.1-1.1,1.1c-0.5,1.2-1,2.5-1.4,3.9c-3.3-0.5-6.8-0.1-9.4,1.8c-1.4-1-3.1-1.2-4.7-1.7c-1.2-0.2-2.5,0.2-3.4-0.5
			c-1.3-1.4-1.5-4-3.7-4.4c-0.8-0.3-0.9-1.1-0.9-1.8c-1.4-0.2-2.7-0.9-4.1-1.2c-2.1-1-3.8,0.6-5.4,1.6c-0.7,0.3-1.5,0.4-2.2,0.8
			c-1.2,1.9-2.3,3.7-3.1,5.8c0.2,1.7,1,3.2,1.8,4.6c0.8,2.1,3.1,3.8,5.2,4.7c-1,3.3-1,7.2,0,10.5c0,0-0.1,0-0.1,0
			c0,0-0.1,0.1-0.1,0.1c-0.3,0-0.7,0.1-0.9-0.1h0c0.5,3.2,2,5.9,4.4,8.3c0.9,0.3,0.7,1.3,1,2c0.2,0.3,0.3,0.9,0.2,1.2
			c-5.2-0.2-9.8,1.1-13.9,3.5c-1.1,0.5-0.6,2-0.7,3c2.9-1.9,6.1-3.3,9.5-4c1.5-0.1,3.2-0.5,4.6-0.1l0.2,2.9
			c-3.9,2.1-8.2,3.2-11.6,6.6c0.1,1-0.1,2.2,0.2,3.1l3-2.4c2.9-2.2,6-4.1,9.3-5.3c0.9,1.1,1.8,2.2,3,2.8c2-1.3,4.2-2.3,6.5-2.8
			c1.2-0.7,3.2-0.1,4-1.5l0.6-3c-0.1-0.1-0.2-0.2-0.3-0.2c-1.6-0.9-2.6-2.4-2.4-4.3c-0.5,0.3-1.1,0.4-1.8,0.5
			c-0.5-0.1-1-0.3-1.3-0.8c0-0.7-0.4-1.6,0.3-2.1c2.1-1.3,4.9-1.4,7.6-1.2c2,0.3,4.9,0.2,5.6,2.5c-0.1,0.7,0,1.5-0.7,1.9
			c-0.7,0.4-1.6,0-2.2-0.3c-0.5,1.6-1.4,3.4-3.2,4l0.2,1.9c0.2,0.9,0.3,2.3,1.7,2c3.1,0.8,5.9,2.4,8.7,4.1c0.9-0.9,1.7-2,2.3-2.9
			c4.9,1.7,9.1,5.3,13.2,8.7l0.2-2.8c-3.8-3.4-8.1-5.8-12.5-7.7c0.2-0.9,0.4-1.8,0.4-2.7c5.3,0.3,10.3,1.9,14.6,4.5l-0.1-2.4
			c-4.6-2.4-9.6-4.1-15-4.1c-0.2-0.3-0.3-0.7-0.2-1c2.6-0.4,4.5-3.2,5.2-5.6c1.4-1.6,3.3-3.2,2.9-5.5c0.1-0.2,0.1-0.4,0.2-0.6
			C110,94.8,110.1,94.2,109.9,93.7L109.9,93.7z"/>
		<path id="path235" class="st2" d="M114.5,102.2l2.7-0.9l0.3-1.5c0.8-2.2-0.9-3.9-1.7-5.6L114.5,102.2z"/>
		<path id="path237" class="st2" d="M121.4,112.7c1.3,1.4,2.5,3.7,4.8,3c-0.2-1-0.7-1.8-1-2.6c-0.6-0.7-0.8-2.7-2-2
			c-0.9-0.6-1.1-1.6-1.7-2.4C121.2,109.9,121.4,111.4,121.4,112.7L121.4,112.7z"/>
		<path id="path239" class="st2" d="M121.8,122.3c0.5,0.7,0.6,1.6,1.1,2.2c0.9,0.6,2.2,0.5,3.3,0.4c1-0.2,1.6,0.9,2.5,0.2
			c-1.2-0.7-1.8-2-2.9-3C124.6,121.2,123.2,122,121.8,122.3z"/>
		<path id="path241" class="st2" d="M123.6,137.7c2.3,1.4,5.2,2.7,8.2,2.2c0.3-0.2,0.9-0.1,1-0.5c-1.9-0.7-3.9-2.5-5.8-2.9
			c-1.1-1.7-2.5,0.4-3.9,0.3C123,137.2,123.4,137.4,123.6,137.7z"/>
		<path id="path243" class="st2" d="M130.5,166.9l0.5,1.1c0.5,3.4,2.7,6.6,1.5,10.4c1,0.7,1.3,1.9,1.9,2.8h0.2
			c0.8-2.9,0.2-5.8-0.2-8.7C134.7,169.8,132,168.3,130.5,166.9L130.5,166.9z"/>
		<path id="path245" class="st2" d="M131,133.1c1.7,1.3,4.5,1.5,6.5,0.8c-1.3-0.7-2.6-1.5-3.7-2.4L131,133.1z"/>
		<path id="path247" class="st2" d="M139.2,143.2c-0.2,1.4,0.8,2.5,1.8,3.2c0.4-0.8,1-1.5,1-2.4c-0.3-1.4-1.1-2.7-2.4-3.7
			C139.4,141.2,139.1,142.1,139.2,143.2L139.2,143.2z"/>
		<path id="path249" class="st2" d="M139.3,158.3c-0.2,1.6,1.5,1.8,2.2,2.6c0.6,0.7-0.4,1.2-0.4,1.9c1.3,1.6,2,3.5,2,5.6
			c0.5-2,1.3-3.9,1.5-6c-0.1-1.5-2.4-1.2-2.1-2.8c0.7-1.7-0.1-3.3-0.6-4.8c-0.1-0.2-0.4-0.7-0.7-0.6
			C140.7,155.7,139.2,156.6,139.3,158.3z"/>
		<path id="path251" class="st2" d="M143.8,150.4l1.7,3.3c0.8-0.1,1.3-0.8,1.8-1.4c0.5-1.4-0.8-2.3-1.1-3.4c-0.3-0.8,0-1.8-0.6-2.5
			c-0.4-0.3-0.9-0.7-1.4-0.6L143.8,150.4L143.8,150.4z"/>
		<path id="path253" class="st2" d="M146,141.6c1.4,0.8,2.9,2,3.6,3.5c1.2,3.4,3,6.4,4.4,9.7c0.5,2.3,0.9,4.3,1.5,6.6
			c0.2,0.6,0.1,1.8,1,1.7c0.3-2.5,0.8-4.9,0.8-7.5c-0.8-1.1-1.9-1.6-2.9-2.2V153c0.1-0.6,0.6-1.2,1.3-1.1c0.3-0.3,1.2-0.7,0.8-1.3
			c-1.7-1.7-1.6-4.7-4.4-5.2c-1-0.4-1.2-1.4-1.3-2.3C149.6,142,147.7,141.6,146,141.6L146,141.6z"/>
		<path id="path255" class="st2" d="M147.6,159.5c1.7,1.6,1.1,3.8,1,5.9c-0.3,1.3,1.3,0.5,1.8,1.2c1,1.5,0.4,3.7,0.1,5.4
			c0.9-1.4,1.9-2.5,2.6-4c0-0.6,0.7-0.8,0.7-1.5c0.3-1-0.8-0.5-1.3-0.6c-0.4-0.1-0.8-0.4-0.7-0.9c0.9-1.7,0.1-3.6-0.3-5.3
			c-0.4-1.4,0.2-3.2-0.5-4.4C150,156.7,146.8,157.1,147.6,159.5z"/>
		<path id="path257" class="st2" d="M150.7,136.1c2.9,3,5.1,6,8.3,8.8c0.1-1.3-0.1-2.5-0.2-3.7c-0.5-0.9-1.3-1.6-2.1-2.2
			C154.4,138.7,153.2,135.6,150.7,136.1L150.7,136.1z"/>
		<path id="path259" class="st2" d="M158.4,151.8c0.1,0.3,0.2,0.6,0.3,0.9c1.3,2.1,2.5,4.3,3.4,6.6c-0.3-2.4,1.4-5.5-0.8-7.4
			c-0.3-0.8-1.3-0.5-1.9-0.5L158.4,151.8L158.4,151.8z"/>
		<path id="path261" class="st2" d="M166.4,176c0.9,0.4,2.1-0.3,3-0.9c0.8-0.2,1.5,0.3,2.2,0.7c0.3,0.5,0,1,0.1,1.5
			c2,0.6,3.9,1.3,5.7,2.4l0.6-0.6c0.1-1.4-1-2.4-2.1-3.2c-0.7-0.4-1.7-0.2-2.2-0.8c0.3-0.5,0.3-1.3,0.3-1.9c-1.1,0-1.8-0.3-2.7-0.9
			c-0.6-0.2-1.1-0.6-1.5,0C168,173.5,167.9,175.2,166.4,176L166.4,176z"/>
		<path id="path263" class="st2" d="M168.7,134.4c0.8-0.2,1.7-0.5,2.4-1.1c2.2-2,5.4-0.7,8-0.7c-0.5-0.9-1.2-1.8-1.8-2.5
			c-0.9-0.4-1.8-0.8-2.8-0.8c-2.3-1.3-3.8,0.9-5.5,2C168.4,132.1,168.2,133.5,168.7,134.4L168.7,134.4z"/>
		<path id="path265" class="st2" d="M168.7,141.2c0-0.1,0-0.2,0.1-0.2c0.3,0.3,0,0.9,0.5,1c0.9-0.4,1.7-1,2.4-1.6
			c2.2,0,3.5-2.2,5.7-2.2c3.6,0.7,7.3,1.4,10.4,3.2c-0.2-2.1-2.1-4.1-4-5.1c-1.1-0.4-1.9,0.2-2.6,0.8c-2.2,1.4-1.1-2-2.6-2.1
			c-2,0.6-4.1,1.3-6.4,1.1c-1.3,0.5-2.3,1.7-3.7,1.6C168.5,138.9,168.4,140.2,168.7,141.2z"/>
		<path id="path267" class="st2" d="M170.3,148.5c0.7,0.7,1.8,0.6,2.8,0.7l2.9-1.1c0-0.5-0.9-0.7-0.7-1.3c0.8-0.9,1.9-0.3,2.9-0.6
			c1.4-0.2,2.8-1.6,4.2-0.6c0,0.2,0.1,0.4-0.1,0.6c-0.4,1,0.3,1.7,1.1,2c1.6,0.3,3.1,1.8,4.8,1.1c-0.2-1.4-0.5-2.6-0.9-3.9
			c-1.4-0.2-2.3-1.4-3.6-1.8c-0.6,0.5-1.3,0.9-2,0.9c-2.5-0.6-5.6-2.2-8.2-0.6c-0.9,1.1-2.6,0.8-3.8,1.3
			C169.8,146.4,170,147.5,170.3,148.5z"/>
		<path id="path269" class="st2" d="M171.4,168.2c-0.2,0.6-0.8,1.5,0.3,1.8c2.1,0.1,4.8-1,6.5,0.6c0.6,0.4,0.3,1.3,0.3,1.9l2.8,2.3
			c0.3-1.4,0.8-2.6,0.8-4.1c-0.2-1.1-0.8-2.1-1.7-2.8c-1.8,0-2.9-2.1-4.8-1.9c-1-0.2-1.9,0.7-2.9,0.7
			C172,167.1,171.8,167.7,171.4,168.2L171.4,168.2z"/>
		<path id="path271" class="st2" d="M172.2,152.6c0.4,0.9,0.9,2.3,1.8,2.4c2-0.9,4.8-1.4,7-0.5c0.7,0.1,0.7,1,0.6,1.5
			c1.1,0.7,2.5,1.2,3.7,1.9l-0.3-2c-0.1-2.1-2.8-2.3-2.9-4.5c-2.2-0.7-4.7-1-7-0.4c-0.8,0.7-1.9,0.6-2.8,0.8
			C172,152.2,172.1,152.4,172.2,152.6L172.2,152.6z"/>
		<path id="path273" class="st2" d="M172.7,163.3c1.3-0.4,2.1-1.8,3.5-1.9c2.1,0,4,0.9,5.3,2.7c0.8,0.5,0.6,1.9,1.7,1.9
			c-0.3-1.6,0.2-3.1,0.2-4.8c-1.4-2.3-4.8-0.5-6.1-3.2l-2.4,0.2c-1.8,0.4-1.3,2.5-1.5,3.9C173.1,162.5,172.7,162.8,172.7,163.3
			L172.7,163.3z"/>
		<path id="path275" class="st2" d="M184.9,177.8c1,2,3.3,3.6,3.5,5.9c0.5-0.6,0.9-1.4,1.3-2c0-0.7-0.8-0.7-1.1-1.2
			c-0.3-0.9,0.2-1.6,0.3-2.4c-0.4-1.2-1.5-2.4-2.6-3.1L184.9,177.8L184.9,177.8z"/>
		<path id="path277" class="st2" d="M188.9,172.6l2.4,3.2c1-1.6,1-4,0.6-6c-0.2-0.4-0.7-1-1.3-0.7
			C189.8,170.1,189.7,171.5,188.9,172.6z"/>
		<path id="path279" class="st2" d="M179.2,82.1c0.9,0.4,1.7,0.8,2.7,0.9c0.7-0.4,1.6-0.6,2.4-0.4c1.2,0.8,2.7-0.2,4.1-0.1
			c-1.3-1.2-2.7-1.9-4.1-2.6C182.5,80.2,181.1,81.6,179.2,82.1z"/>
		<path id="path281" class="st2" d="M192.2,85.2c1.8,0.2,3,1.7,4.2,3c1.5,0.2,2.6,1.3,3.5,2.4l-0.6-1.7c-0.4-1.8-1.5-3.1-2.6-4.5
			C195.1,84.4,193.6,84.5,192.2,85.2z"/>
		<path id="path283" class="st3" d="M68.7,70.7l1,0.1c2.6,1.3,6.7,1.9,7,5.7c-2.6,1-5.1,2.4-7.2,4.5c-1.6-1.6-4.8-0.7-5.3-3.6
			C64.6,74.7,65.5,71.4,68.7,70.7z"/>
		<path id="path285" class="st3" d="M71.2,87.4c3-0.3,5.9,0.2,9-0.1c0.8,0.3,1.5,1,1.9,1.7c-0.1,3.6-1.2,7-1.4,10.6
			c-1.4,0.6-2.7,1.7-3,3.2c-1.2,0.4-2.3,1.1-3.5,1.6c-0.5-1.1-0.4-2.8,0.5-3.7c1.3-1.8,4.6-1.4,4.4-4.3c0.9-1.4,0-3.2,0.1-4.6
			c-0.3-1.1-0.7,0.4-1.2,0.3c-1.1,0.2-2.1,0.3-3.1-0.2c-0.7-0.7-1.5-1.3-1.8-2.3c-0.9-0.5-2-1.2-2.5-2.1L71.2,87.4L71.2,87.4z"/>
		<path id="path287" class="st3" d="M74.8,109c1.4,0.2,2.9-0.4,4.1,0.3c-0.3,0.5-1,0.7-1.5,0.8l-2.2,1
			C74.4,110.9,74.8,109.5,74.8,109z"/>
		<path id="path289" class="st3" d="M80.6,81.4c1.4-0.5,2.9-1.4,4.5-1c-1.1,1.1-1.9,2.5-2.8,3.8l-4.5-0.1C78.2,83,79.5,82,80.6,81.4
			z"/>
		<path id="path291" class="st3" d="M93.9,80.3c1.9-0.3,1.8,2.1,3.5,2.2c0.3,0.4,0.7,0.8,0.6,1.4c-1,0.4-2.5,0.2-3.6,0.5
			c-1.5-0.8-0.5-3.4-2.9-3.2c-0.1-0.2-0.4-0.6-0.1-0.7C92.1,80.1,93.1,80.2,93.9,80.3z"/>
		<path id="path293" class="st3" d="M92.7,89.1c0.8-1.2,2.1-1.3,3.3-1.5l8.6,0.2c0.4,0.3-0.3,0.6-0.3,1c-0.5,0.5-1.3,0.6-1.8,1.1
			c-1.1,0-1,1.4-1.8,1.9c-1.2,1.2-3,0.7-4.4,0.5c-0.5-0.4-1.1-0.9-1.3-1.4l-0.4,0.4c0.5,1.9,0.4,3.9,0.7,5.8l2.1,1.4
			c0,3,3.6,2.2,5.2,3.9c-0.4,1.1-1.1,2-1.9,2.9c-1.3-1.2-2.7-2-4.2-2.5c-0.1-1.8-2.1-2.8-3.2-3.7c-0.3-3.2-0.4-6.5-0.9-9.7
			L92.7,89.1z"/>
		<path id="path295" class="st3" d="M95.8,109.5h4l-0.5,2.1l-4-1.7C95.2,109.6,95.5,109.5,95.8,109.5L95.8,109.5z"/>
		<path id="path297" class="st3" d="M102.9,72.1l2.9-0.9c1.7,0.8,3.3,1.8,4.8,2.9c1.2,2.2,1,5.3,0.5,7.8c-0.9,1-2.8,0-3.6,1.6h-0.1
			c-1.1-3.1-4.2-5.9-7.1-7.3C100.8,74.6,101.3,73,102.9,72.1L102.9,72.1z"/>
	</g>
</g>
</svg>
