<?xml version="1.0" encoding="utf-8"?>
<!-- Generator: Adobe Illustrator 26.3.1, SVG Export Plug-In . SVG Version: 6.00 Build 0)  -->
<svg version="1.1" id="affiliation" xmlns="http://www.w3.org/2000/svg" xmlns:xlink="http://www.w3.org/1999/xlink" x="0px"
	 y="0px" viewBox="0 0 256 256" style="enable-background:new 0 0 256 256;" xml:space="preserve">
<style type="text/css">
	.st0{display:none;fill:#FFFFFF;}
	.st1{fill:#FFFFFF;}
	.st2{fill:#0000A4;}
</style>
<rect id="black" width="256" height="256"/>
<circle id="background_x5F_circle" class="st0" cx="128" cy="128" r="128"/>
<path id="background_x5F_rectangle" class="st1" d="M206.9,256H49.1C22.1,256,0,233.9,0,206.9V49.1C0,22.1,22.1,0,49.1,0h157.9
	c27,0,49.1,22.1,49.1,49.1v157.9C256,233.9,233.9,256,206.9,256z"/>
<g id="logo_00000029004921855638880850000003084163963237851569_">
	<g>
		<g>
			<path class="st2" d="M19.4,111.9h10.4v8.6c2-0.8,4.2-1.1,6.4-1.1c8.2,0,14.1,6,14.1,14.2c0,6.2-4.2,13.5-13.9,13.5h-17V111.9z
				 M29.9,138.1c1.4,0.3,2.9,0.4,3.9,0.4c3.7,0,6.2-2,6.2-5.2c0-3.1-2.4-5.2-5.9-5.2c-1.3,0-2.8,0.2-4.2,0.6V138.1z"/>
			<path class="st2" d="M67.8,119.4c11.5,0,15.9,7.5,15.9,14.1c0,7.2-5.1,14.1-15.8,14.1c-11.5,0-16-7.4-16-14.1
				C51.9,126.5,56.7,119.4,67.8,119.4z M67.8,138.8c3.2,0,5.5-2.2,5.5-5.3c0-3.1-2.2-5.3-5.5-5.3c-3.2,0-5.5,2.2-5.5,5.3
				C62.3,136.6,64.6,138.8,67.8,138.8z"/>
			<path class="st2" d="M85.8,111.9h10.4v35.2H85.8V111.9z"/>
			<path class="st2" d="M109.8,141.3c0,3.5-2.7,6.3-6.1,6.3c-3.4,0-6.2-2.8-6.2-6.3c0-3.5,2.8-6.3,6.2-6.3
				C107.1,135,109.8,137.8,109.8,141.3z"/>
			<path class="st2" d="M133.3,145.9c-3.5,1.3-5.6,1.7-8.4,1.7c-8.9,0-15-5.7-15-13.9c0-6.8,4.5-14.2,14.7-14.2
				c2.8,0,5.8,0.5,8.5,1.4v9c-2.3-1.1-4.4-1.6-6.6-1.6c-3.7,0-6.2,2.2-6.2,5.3c0,3.1,2.7,5.2,6.5,5.2c2,0,3.7-0.5,6.5-1.7V145.9z"/>
			<path class="st2" d="M150.6,119.4c11.5,0,15.9,7.5,15.9,14.1c0,7.2-5.1,14.1-15.8,14.1c-11.5,0-16-7.4-16-14.1
				C134.7,126.5,139.5,119.4,150.6,119.4z M150.6,138.8c3.2,0,5.5-2.2,5.5-5.3c0-3.1-2.2-5.3-5.5-5.3c-3.2,0-5.5,2.2-5.5,5.3
				C145.1,136.6,147.4,138.8,150.6,138.8z"/>
			<path class="st2" d="M168.8,119.9h10.4v3.6c2.5-2.8,5.5-4.1,8.8-4.1c3.7,0,6.2,1.4,8.2,4.9c2.7-3.1,6.1-4.9,9.7-4.9
				c6.1,0,8.8,4.9,8.8,10.3v17.4h-10.4v-15.6c0-2-1.2-3.3-2.9-3.3c-1.5,0-3.3,1-4.3,2.8v16.1h-10.5v-15.4c0-2-1.2-3.5-3.1-3.5
				c-1.3,0-3.1,1-4.2,2.8v16.1h-10.4V119.9z"/>
		</g>
		<g>
			<path class="st2" d="M226.8,95.4c8.1,0,14.8,6.7,14.8,14.9c0,8.2-6.6,14.9-14.8,14.9c-8.1,0-14.8-6.7-14.8-14.9
				C212,102.1,218.7,95.4,226.8,95.4 M226.8,94.4c-8.7,0-15.8,7.2-15.8,15.9c0,8.8,7.1,15.9,15.8,15.9c8.7,0,15.8-7.2,15.8-15.9
				C242.6,101.5,235.5,94.4,226.8,94.4L226.8,94.4z"/>
			<g>
				<g>
					<path class="st2" d="M219.5,111.8c-2,0-4.2-1.4-4.2-3.7c0-4.3,5.5-8.3,7.4-9.2c0.3-0.1,0.8,0.4,0.9,0.8c0.1,0.3,0.1,0.4,0,0.4
						l0,0c-3.4,1.8-7.2,5.3-7.2,8.6c0,1.4,0.7,2,2.6,2c2.2,0,7.3-3.1,7.3-5.3c0-0.8-0.6-1.2-1.8-1.2c-3,0-4.6,2-5.1,3.6
						c0,0.1-0.2,0.2-0.4,0.1c-0.2,0-0.5-0.2-0.5-0.4c0.2-1.5,1.8-4.7,5.2-4.7c1.5,0,3.4,1.4,3.4,3
						C227.2,108.8,222.9,111.8,219.5,111.8z M223.5,100L223.5,100L223.5,100L223.5,100L223.5,100z"/>
				</g>
				<g>
					<path class="st2" d="M224.4,122.3c-1.7,0-4.6-0.8-4.6-3.6c0-2.2,1.9-4.8,5.4-7.5l0.1-0.1c0.2-0.2,0.8,0.2,1.1,0.5
						c0.2,0.3,0.1,0.4,0.1,0.5l0,0c-1.7,1.4-5.6,4.7-5.6,7.3c0,1,0.8,1.7,2.2,1.7c1.7,0,3.9-0.5,6.1-1.4c0.3-0.1,0.6,0.3,0.8,0.6
						c0.1,0.3,0.1,0.5,0,0.6C227.9,121.8,226.3,122.3,224.4,122.3z"/>
				</g>
				<g>
					<path class="st2" d="M231.8,111.9c-3.7,0-3.8-2.7-3.8-2.9c0-0.6,0.4-1.1,0.6-1.3c0.2-0.2,0.5-0.1,0.6,0
						c0.3,0.1,0.5,0.2,0.6,0.4c0,0.1,0,0.1-0.1,0.2c-0.5,0.4-0.8,0.8-0.8,1.4c0,0.5,0.6,1.1,1.6,1.1c4,0,6.6-3.5,6.6-5.3
						c0-1.7-1.2-2-2.2-2c-3.5,0-6.1,3.4-6.2,3.5l0,0c-0.1,0.1-0.1,0.1-0.2,0.1c-0.3,0-0.7-0.5-0.8-0.8c-0.1-0.2-0.1-0.3,0-0.4
						c0.3-0.4,1.1-1.3,2.2-2.1c1.4-1.1,2.8-1.6,4.1-1.6c2.8,0,4.1,2.1,4.1,4C238.1,109.3,235.2,111.9,231.8,111.9z"/>
				</g>
			</g>
		</g>
	</g>
</g>
</svg>
