<?xml version="1.0" encoding="utf-8"?>
<!-- Generator: Adobe Illustrator 26.3.1, SVG Export Plug-In . SVG Version: 6.00 Build 0)  -->
<svg version="1.1" id="affiliation" xmlns="http://www.w3.org/2000/svg" xmlns:xlink="http://www.w3.org/1999/xlink" x="0px"
	 y="0px" viewBox="0 0 256 256" style="enable-background:new 0 0 256 256;" xml:space="preserve">
<style type="text/css">
	.st0{display:none;fill:#FFFFFF;}
	.st1{fill:#FFFFFF;}
	.st2{fill:#002E67;}
	.st3{fill:#F67D2A;}
</style>
<rect id="black" width="256" height="256"/>
<path id="background" class="st1" d="M206.9,256H49.1C22.1,256,0,233.9,0,206.9V49.1C0,22.1,22.1,0,49.1,0h157.9
	c27,0,49.1,22.1,49.1,49.1v157.9C256,233.9,233.9,256,206.9,256z"/>
<g id="logo_00000029004921855638880850000003084163963237851569_">
	<g>
		<path class="st2" d="M39.6,104c-7,0-13.5,2.6-18.3,7.4c-5.1,5.1-8.1,12.3-8.1,19.7c0,11.8,7.7,19.5,19.3,19.5
			c7,0,13.5-2.6,18.3-7.4c5.1-5.1,8.1-12.3,8.1-19.5C58.9,112.1,51,104,39.6,104z M31,113.3c2.3-2.1,4.6-3.2,7.4-3.2
			c6.3,0,9.3,4.4,9.3,13.5c0,7.2-2.6,14.2-6.7,18.3c-2.1,2.1-4.6,3.2-7.4,3.2c-6,0-9.3-4.6-9.3-13C24.3,124.4,27.1,117.2,31,113.3z"
			/>
		<path class="st2" d="M76.3,141.3c0-0.5,0.2-1.2,0.2-1.9l3-13.5h-0.9h-9.3l-3,13.5c-1.4,6.7-1.4,6.7-6.5,7.2h-0.9l-0.7,3.9h23
			l0.7-3.9h-0.9C76,146.2,75.3,146.2,76.3,141.3z"/>
		<path class="st2" d="M108.7,148.3c-2.6-0.2-5.1-2.3-6-3.7c-0.9-1.4-2.3-3.9-3.7-7.4c-1.2-2.6-2.3-6-3-8.1
			c5.6-1.9,9.7-5.8,10.4-10.7c0-0.7,0.2-1.2,0.2-1.9c0-7.4-5.3-11.4-15.5-11.4H73.9H73l-0.5,2.1l-0.7,4.9l16.5,0.2
			c4.6,0.2,7.4,0.7,7.4,4.2c0,3.9-2.3,7.7-5.6,8.6c0,0-2.1,0.7-3.9,0.7h-1.9l-0.7,5.8h0.9c1.4,0,1.9,0.2,2.3,2.1l0.5,1.6
			c0.9,3,2.1,6.3,3.2,8.6c2.3,4.6,5.3,7.9,12.8,8.1h6.3l0.2-3.9L108.7,148.3z"/>
		<path class="st2" d="M194.4,105.1l0.2-0.9h-0.9H192l-0.5,0.5c-1.2,1.2-1.4,1.4-2.6,1.4h-65.4c-1.6,0-1.9,0-2.3-1.2l-0.2-0.7h-2.6
			l-2.1,7.9l-1.6,6.5h0.9h3l0.2-0.7c1.2-2.6,1.9-3.5,2.6-4.4c0,0,0.2-0.5,0.5-0.5c0.9-0.5,4.6-0.5,8.4-0.2
			c-0.2,1.6-4.9,26.9-4.9,26.9c-1.4,6.7-1.4,6.7-6.5,7H118l-0.7,3.9h23l0.7-3.9h-0.9c-4.9-0.2-5.6-0.5-4.9-5.1
			c0-0.5,0.2-1.2,0.2-1.9c0,0,5.1-25.5,5.3-27.4c1.9,0,45.2,0,45.5,0c0.2,0,0.5,0.2,0.5,0.2c0.9,0.2,1.6,0.5,1.4,5.3l0.2,0.9
			l4.2-0.5l0.5-2.8C193.4,111.6,193.9,107.5,194.4,105.1z"/>
		<path class="st3" d="M186.5,137.2l-0.5,0.7c-1.4,2.8-2.8,4.9-4.4,6.3l0,0c-0.7,0.7-2.6,1.6-6.7,1.6c-2.8,0-4.2-0.2-4.6-0.9
			c-0.5-0.7-0.5-1.6-0.2-3.9c0-0.2,0-0.2,0-0.5c0,0,1.4-7.7,2.1-10.4c1.2,0,3.7,0,3.7,0c4.9,0,4.9,0,4.6,4.6v0.9h4.2l2.1-10.7h-0.9
			h-22.5l-2.8,14.8c-1.4,6.7-1.6,6.7-5.8,7h-0.9l-0.9,3.9H186l0.2-0.7c1.2-2.8,3.9-10.2,4.2-11.1l0.2-0.9L186.5,137.2z"/>
		<path class="st2" d="M238.9,137.4l-3-0.9l-0.5,0.7c-4.6,7.2-8.4,10-13.5,10c-8.6,0-10.4-8.4-10.4-15.5c0-6.7,2.3-12.8,6.5-16.9
			c3-3,7-4.6,11.1-4.6c5.8,0,8.4,2.8,8.8,9v0.7l4.2-0.2v-0.9c0.2-3.2,0.5-7.2,0.7-10.7v-0.7l-0.5-0.2c-1.6-0.5-6-1.9-12.1-1.9
			c-8.6,0-16.7,3.2-22.3,8.6c-5.1,5.1-7.9,11.6-7.9,18.8c0,11.8,7.9,19.3,20.6,19.3c5.1,0,9.3-1.2,11.6-1.6l1.4-0.2l0.2-0.5
			c1.2-1.9,2.3-4.9,3.5-7.4l2.1-4.4L238.9,137.4z"/>
	</g>
</g>
</svg>
