<?xml version="1.0" encoding="utf-8"?>
<!-- Generator: Adobe Illustrator 26.3.1, SVG Export Plug-In . SVG Version: 6.00 Build 0)  -->
<svg version="1.1" id="affiliation" xmlns="http://www.w3.org/2000/svg" xmlns:xlink="http://www.w3.org/1999/xlink" x="0px"
	 y="0px" viewBox="0 0 256 256" style="enable-background:new 0 0 256 256;" xml:space="preserve">
<style type="text/css">
	.st0{display:none;fill:#FFFFFF;}
	.st1{fill:#FFFFFF;}
	.st2{fill:#5D6063;}
	.st3{fill:#FE963A;}
</style>
<rect id="black" width="256" height="256"/>
<path id="background" class="st1" d="M206.9,256H49.1C22.1,256,0,233.9,0,206.9V49.1C0,22.1,22.1,0,49.1,0h157.9
	c27,0,49.1,22.1,49.1,49.1v157.9C256,233.9,233.9,256,206.9,256z"/>
<g id="logo_00000029004921855638880850000003084163963237851569_">
	<g>
		<path class="st2" d="M225.6,95.4c-9.4,13-18.7,25.9-28.1,38.8c-4.9,6.7-6.4,6.8-11.2,0.1c-7.7-10.5-15.2-21.2-23-31.7
			c-1.5-2-2.4-6-5.4-4.8c-2.8,1.1-1.4,4.8-1.4,7.4c-0.1,22.2,0,44.3-0.1,66.5c0,3,1.2,7.5-3.6,7.4c-4.6-0.1-3.6-4.5-3.6-7.5
			c0-28.3,0-56.7,0-85c0-2.8-1.1-6.4,2.6-7.7c3.8-1.4,5.1,2.2,6.7,4.4c9.6,13.1,19.3,26.2,28.4,39.6c3.7,5.4,5.6,6.5,9.8,0.2
			c9.2-13.7,19.1-26.9,28.8-40.2c1.5-2.1,2.7-5.2,6.2-4.1c3.4,1.1,2.7,4.3,2.7,6.9c0,28.8,0,57.6,0,86.5c0,2.9,0.7,6.9-3.4,6.9
			c-4.7,0-3.7-4.4-3.7-7.4c-0.1-22.9,0-45.8,0-68.7c0-2.4,0-4.8,0-7.1C226.7,95.8,226.2,95.6,225.6,95.4z"/>
		<path class="st3" d="M119.1,128.3c-0.1,28.4-21.6,51.1-48.5,51.1c-27.3,0-49.1-22.8-49.1-51.4c0-28.6,21.7-51.5,49-51.6
			C97.5,76.4,119.1,99.5,119.1,128.3z M71.3,84.3c-22.9-0.6-41.9,18.3-42.4,42.2c-0.6,24.7,17.5,45,40.7,45.7
			c22.1,0.6,41.4-19,42.1-42.8C112.3,104.9,94.4,84.9,71.3,84.3z"/>
	</g>
</g>
</svg>
