<?xml version="1.0" encoding="utf-8"?>
<!-- Generator: Adobe Illustrator 26.3.1, SVG Export Plug-In . SVG Version: 6.00 Build 0)  -->
<svg version="1.1" id="affiliation" xmlns="http://www.w3.org/2000/svg" xmlns:xlink="http://www.w3.org/1999/xlink" x="0px"
	 y="0px" viewBox="0 0 256 256" style="enable-background:new 0 0 256 256;" xml:space="preserve">
<style type="text/css">
	.st0{display:none;fill:#FFFFFF;}
	.st1{fill:#FFFFFF;}
	.st2{fill:#E40613;}
</style>
<rect id="black" width="256" height="256"/>
<path id="background" class="st1" d="M206.9,256H49.1C22.1,256,0,233.9,0,206.9V49.1C0,22.1,22.1,0,49.1,0h157.9
	c27,0,49.1,22.1,49.1,49.1v157.9C256,233.9,233.9,256,206.9,256z"/>
<g id="logo_00000029004921855638880850000003084163963237851569_">
	<g>
		<path class="st1" d="M36,36h184v184H36V36z"/>
		<path class="st2" d="M36,36h184v184H36V36z M174.6,185.4c5.2-0.9,10.2-3,14.1-6.6c0.8-1.9-1.4-3.5-2-5.2c-1.4-2.2-2.8-4.5-4.8-6.2
			c-2.4,0-4,2.2-6.3,2.6c-5.2,1.8-11.9,1-15.5-3.5c-4.3-5.2-3.6-14,2-18.1c4.1-2.9,9.6-3.1,14.2-1.4c1.8,0.6,4.1,3,5.5,0.6
			c2.4-3.1,4.8-6.4,6-10.1c-1-1.8-3.2-2.5-4.9-3.5c-10.9-5.3-25.2-3.5-33.9,5.2c-5,5.1-7.4,12.3-7.2,19.4
			c-0.2,8.2,3.5,16.5,10.1,21.5c5.7,4.4,13.2,6.1,20.3,5.6C173,185.5,173.8,185.5,174.6,185.4L174.6,185.4z M81.8,184.4
			c1.6-1.6,0.7-4.1,1-6.1c0.1-6.3,0.1-12.5,0.2-18.8c5,8.1,9.8,16.4,15,24.4c1.7,1.3,4.1,0.5,6.1,0.7c2.4,0,4.8,0.2,7.2-0.2
			c2.2-1.2,1-4.1,1.4-6.1c0.1-14.2,0.1-28.5-0.1-42.7c0.8-2.5-1.8-4.2-4-3.5c-3.3,0-6.6-0.2-9.9,0.3c-2,1.2-0.7,4.1-1.2,6
			c-0.1,6.7-0.1,13.4-0.2,20.2c-4.8-8.5-9.9-16.9-14.8-25.4c-1.5-1.5-3.8-0.8-5.7-1c-2.6,0-5.2-0.1-7.8,0.3
			c-2.2,1.2-0.8,4.2-1.3,6.2c-0.1,15,0,30-0.1,44.9c1.5,1.8,4.1,1.1,6.2,1.2C76.5,184.7,79.2,184.8,81.8,184.4L81.8,184.4z
			 M134.8,184.4c1.4-1.6,0.5-4,0.8-5.9c0.1-10.5,0.2-21,0-31.5c-0.3-1.6,0.6-4.8-1.8-5c-3.7-0.3-7.4,0-11.1-0.1
			c-2.6-0.1-2.1,3.1-2.2,4.9c-0.3,11.1-0.2,22.1,0,33.2c-0.1,1.9-0.1,5.2,2.8,4.7c3.7,0.1,7.4,0.2,11.1-0.2l0.2-0.1L134.8,184.4
			L134.8,184.4z M131.4,134.9c4.1-1.8,5.6-7.4,3-11c-1.5-2.4-4.3-3.9-7.1-3.6c-4.1,0.2-7.6,4.2-7,8.3c0.1,4.4,4.7,7.9,8.9,7
			C130,135.5,130.8,135.3,131.4,134.9L131.4,134.9z M175.3,124.6c4.9-1.1,9.8-3.1,13.5-6.6c0.2-2.1-1.6-3.7-2.4-5.5
			c-1.3-2.1-2.6-4.2-4.5-5.9c-2-0.1-3.4,1.7-5.2,2.2c-5,2.1-11.4,1.9-15.5-2c-4-3.6-4.9-9.9-2.7-14.7c2.1-4.5,7-7.2,11.9-7
			c3.3,0,6.6,1.1,9.4,2.7c2.3,0.1,3-2.7,4.4-4.1c1.4-2.1,2.8-4.2,3.6-6.6c-0.6-2.5-3.6-2.9-5.5-4.1c-4-1.9-8.5-2.7-12.9-2.6
			c-8.9-0.1-18.1,4-23.1,11.5c-4.3,6.3-5.3,14.5-3.9,21.9c1.4,7.5,6.3,14.4,13.1,17.9C161.5,124.9,168.6,125.7,175.3,124.6
			L175.3,124.6z M81.6,123.6c2.1-1.4,0.7-4.2,1.3-6.2c0.2-1.7,3-0.3,4.3-0.8c7.1-0.2,14.7-1.6,20.3-6.3c4.3-3.8,6.8-9.6,6.6-15.4
			c0.1-4.2-0.3-8.5-2.3-12.2c-2.8-5.5-8.5-8.8-14.3-10.2c-4.8-1.3-9.8-1.3-14.7-1.2c-4.6,0-9.2,0-13.9,0.3c-2,1.3-0.8,4-1.2,6
			c-0.1,15.1,0,30.2-0.1,45.2c1.4,1.6,3.7,1,5.6,1.2C76,124,78.8,124,81.6,123.6L81.6,123.6z M83.2,101.9c-0.5-3.2-0.1-6.4-0.2-9.5
			c0-2.3,0-4.5,0-6.8c4.3,0.1,9.2-0.5,13,2.1c2.1,1.5,3,4.1,2.8,6.6c0.1,3.4-2.6,6.3-5.9,7c-3.1,0.8-6.3,0.7-9.5,0.7L83.2,101.9
			L83.2,101.9z M135,113.7c0.9-1.8,0.4-3.9,0.7-5.8c0.2-10.6,0.2-21.2,0-31.8c-0.1-1.8,0.4-5.1-2.4-4.7c-3.8-0.2-7.5,0-11.3,0
			c-2,0.7-1.3,3.4-1.5,5c-0.2,11.4-0.2,22.7,0,34.1c0.2,1.4-0.1,3.5,1.8,3.7c1.9,0.1,3.8,0,5.7,0c2.2,0,4.5,0.1,6.7-0.3L135,113.7
			L135,113.7z"/>
	</g>
</g>
</svg>
