<?xml version="1.0" encoding="utf-8"?>
<!-- Generator: Adobe Illustrator 26.5.0, SVG Export Plug-In . SVG Version: 6.00 Build 0)  -->
<svg version="1.1" id="affiliation" xmlns="http://www.w3.org/2000/svg" xmlns:xlink="http://www.w3.org/1999/xlink" x="0px"
	 y="0px" viewBox="0 0 256 256" style="enable-background:new 0 0 256 256;" xml:space="preserve">
<style type="text/css">
	.st0{fill:#FFFFFF;}
	.st1{fill:#303030;}
	.st2{fill-rule:evenodd;clip-rule:evenodd;fill:#E92126;}
</style>
<rect id="black" width="256" height="256"/>
<path id="background" class="st0" d="M206.9,256H49.1C22.1,256,0,233.9,0,206.9V49.1C0,22.1,22.1,0,49.1,0H207
	c27,0,49.1,22.1,49.1,49.1V207C256,233.9,233.9,256,206.9,256z"/>
<g id="logo_00000029004921855638880850000003084163963237851569_">
	<g>
		
			<rect x="79.2" y="27" transform="matrix(-1.836970e-16 1 -1 -1.836970e-16 256 2.842171e-14)" class="st1" width="97.6" height="201.9"/>
		<path class="st0" d="M55.4,107v4h7v3.4h-7v6.8h-4.3v-17.7h13v3.5H55.4z M91.8,117.7v3.5H80.2v-17.7h4.3v14.2H91.8z M109.1,118.7
			c-1.3-1.8-1.9-4.1-1.9-6.3c0-4.7,2.5-9,7.9-9c2.5,0,4.4,0.8,5.8,2.7c1.3,1.7,1.9,4.3,1.9,6.3c0,2.1-0.5,4.5-1.7,6.1
			c-1.4,2.1-3.6,3-6.1,3C112.6,121.5,110.6,120.6,109.1,118.7 M112.2,108.7c-0.4,1-0.5,2.6-0.5,3.6c0,2.2,0.4,5.7,3.4,5.7
			c1.4,0,2.2-0.6,2.7-2.1c0.4-0.9,0.5-2.5,0.5-3.6c0-1.3-0.1-2.8-0.6-4c-0.5-1.2-1.3-1.7-2.6-1.7
			C113.5,106.6,112.8,107.4,112.2,108.7 M160,121.2h-4.3l-3-11.6l0,0l-2.8,11.6h-4.1l-4.8-17.7h4.4l2.8,11.9l0,0l3-11.9h3.9
			l3.1,11.9l0,0l0.1-0.8l2.7-11.1h3.5L160,121.2z M57.2,152.6h-1.9v-12.8h-4.2v-1.6h10.3v1.6h-4.2V152.6z M82.9,152.6l-2.7-6.2h-4.1
			v6.2h-1.9v-14.4h5.6c1.3,0,2.4,0.1,3.4,0.8c0.9,0.7,1.6,1.9,1.6,3.2c0,1.7-1.1,3.3-2.7,3.7l2.9,6.6h-2
			C82.9,152.5,82.9,152.6,82.9,152.6z M79.5,144.9c0.9,0,1.8-0.1,2.5-0.8c0.5-0.5,0.7-1.2,0.7-1.9c0-0.8-0.3-1.6-1.1-2
			c-0.6-0.4-1.3-0.4-2.1-0.4H76v5.2L79.5,144.9L79.5,144.9z M109.1,152.6h-1.9l-1.5-4.2h-5.5l-1.4,4.2h-1.6l4.8-14.4h2.1
			L109.1,152.6L109.1,152.6z M103,140.1l-2.3,6.9h4.5C105.2,147,103,140.1,103,140.1z M123,138.2h4.7c2.1,0,3.7,0.4,5.2,2
			c1.3,1.5,1.8,3.3,1.8,5.2c0,1.8-0.5,3.5-1.6,4.9c-1.2,1.6-2.7,2.3-4.7,2.3h-5.3v-14.4H123L123,138.2z M127.6,151
			c1.7,0,3.1-0.4,4.1-1.8c0.7-1.1,1.1-2.5,1.1-3.9c0-1.5-0.4-3.1-1.4-4.2c-1.1-1.3-2.2-1.5-3.8-1.5h-2.7V151H127.6L127.6,151z
			 M158.5,152.6h-9.6v-14.4h9.4v1.6h-7.6v4.5h6v1.5h-6v5.3h7.8V152.6z M180.7,152.6l-2.7-6.2h-4.1v6.2h-1.9v-14.4h5.6
			c1.3,0,2.4,0.1,3.4,0.8c0.9,0.7,1.6,1.9,1.6,3.2c0,1.7-1.1,3.3-2.7,3.7l2.9,6.6h-2C180.7,152.5,180.7,152.6,180.7,152.6z
			 M177.3,144.9c0.9,0,1.8-0.1,2.5-0.8c0.5-0.5,0.7-1.2,0.7-1.9c0-0.8-0.3-1.6-1.1-2c-0.6-0.4-1.3-0.4-2.1-0.4h-3.7v5.2L177.3,144.9
			L177.3,144.9z M194.9,148.3c0.6,2,2.3,2.9,4.4,2.9c0.8,0,2-0.2,2.6-0.7c0.5-0.4,0.9-1.2,0.9-1.9c0-1.5-1.3-2-2.5-2.3l-2.4-0.6
			c-0.9-0.2-1.9-0.4-2.7-1.2c-0.7-0.6-1.2-1.7-1.2-2.6c0-2.7,2.4-4,5.1-4c2.5,0,4.5,1.2,5.3,3.5l-1.7,0.4c-0.3-1.6-2.1-2.5-3.7-2.5
			c-1.4,0-3.2,0.7-3.2,2.3c0,1.6,1.3,2,2.7,2.3l2.2,0.5c0.9,0.2,2,0.5,2.7,1.2c0.9,0.7,1.4,1.7,1.4,2.8c0,1.3-0.6,2.5-1.7,3.3
			c-1.1,0.8-2.5,1.1-3.9,1.1c-3.1,0-5.1-1.3-6-4.1L194.9,148.3L194.9,148.3z"/>
		<path class="st2" d="M204.9,121.4h-18.1v-18.1h18.1V121.4z"/>
	</g>
</g>
</svg>
