<?xml version="1.0" encoding="utf-8"?>
<!-- Generator: Adobe Illustrator 26.3.1, SVG Export Plug-In . SVG Version: 6.00 Build 0)  -->
<svg version="1.1" id="affiliation" xmlns="http://www.w3.org/2000/svg" xmlns:xlink="http://www.w3.org/1999/xlink" x="0px"
	 y="0px" viewBox="0 0 256 256" style="enable-background:new 0 0 256 256;" xml:space="preserve">
<style type="text/css">
	.st0{display:none;fill:#FFFFFF;}
	.st1{fill:#FFFFFF;}
	.st2{fill:#23255E;}
</style>
<rect id="black" width="256" height="256"/>
<path id="background" class="st1" d="M206.9,256H49.1C22.1,256,0,233.9,0,206.9V49.1C0,22.1,22.1,0,49.1,0h157.9
	c27,0,49.1,22.1,49.1,49.1v157.9C256,233.9,233.9,256,206.9,256z"/>
<g id="logo_00000029004921855638880850000003084163963237851569_">
	<path class="st2" d="M30.9,100C46.3,88.8,61.6,77.7,77,66.5c12.7-9.3,25.5-18.3,38.1-27.5c6.5-4.8,14.3-5,21.7-5.7
		c1.8-0.1,4,1.2,5.7,2.4c26.7,19.1,53.4,38.5,80,57.6c3.7,2.6,3.4,5.5,2.3,9.1c-7.8,24.1-15.6,48.2-23.4,72.4
		c-1.6,4.8-3.2,9.5-4.6,14.3c-0.9,2.7-2.4,3.4-5.2,2.9c-36.9-7.3-74-14.5-110.9-21.8c-1.2-0.2-2.4-0.9-3.7-2.2
		c11.9-2.8,23.9-5.6,35.8-8.4c0-0.5-0.1-1-0.1-1.3c-1.5-0.5-2.9-1.1-4.5-1.5c-18.4-4.8-28.1-21.2-26.4-40.9
		c1.3-15.4,7.6-28,20.7-36.3c15.1-9.6,31.6-10.8,48-3.8c22.3,9.5,28.6,39.7,13.4,61.3c-9.6,13.8-23.8,19.9-39.2,23.8
		c-5,1.2-10.1,2.2-15.1,3.3c-1.1,0.2-2.1,0.6-3.2,2.1c6.5,1.6,13,3.3,19.6,4.8c16.7,3.9,33.4,7.8,50.1,11.8c3.7,0.9,5.7,0,6.9-3.7
		c8.2-25.3,16.3-50.6,24.6-75.8c1.2-3.5-0.7-5.4-3.2-7.2c-20.1-14.4-40.1-28.8-60.1-43.1c-4.8-3.4-9.5-6.7-14-10.1
		c-2.7-2.1-5.1-2.1-7.9,0C99.4,59.7,76.2,76.5,53,93.2c-3.3,2.3-3.8,4.9-2.7,8.7c8.3,29.7,16.3,59.5,24.7,89.1
		c0.6,1.9,2.6,4.4,4.5,5c23.5,6.7,47,13.2,70.7,19.5c1.9,0.5,4.3,0.5,6.2-0.1c2.9-0.9,4.5-2.7,3.2-6.2c-0.6-1.6-0.5-3.9,0.4-5.2
		c0.4-0.7,3.8-0.9,4.5,0c1.1,1.2,1.8,4,1.2,5.2c-1.6,2.9-3.7,6.1-6.3,7.8c-9.6,6.2-20.3,6.1-30.8,3.4c-22.4-5.7-44.6-12.1-66.8-18.4
		c-1.7-0.5-3.4-3.3-4-5.4c-8.3-29.4-16.3-58.8-24.4-88.2c-0.5-1.6-1.2-3-1.9-4.5V100 M97.4,122.4c0,1.9-0.1,4,0,6
		c1.1,11.2,4.6,21.2,16.1,25.5s21.4,0.6,29.2-8.2c13.6-15.5,16.7-33.6,11.3-52.9c-3.9-13.9-15.7-19.7-29.6-16.7
		c-9,1.9-15,7.7-19.5,15.4C99.4,100.9,97.4,111.5,97.4,122.4"/>
</g>
</svg>
