<?xml version="1.0" encoding="utf-8"?>
<!-- Generator: Adobe Illustrator 26.5.0, SVG Export Plug-In . SVG Version: 6.00 Build 0)  -->
<svg version="1.1" id="affiliation" xmlns="http://www.w3.org/2000/svg" xmlns:xlink="http://www.w3.org/1999/xlink" x="0px"
	 y="0px" viewBox="0 0 256 256" style="enable-background:new 0 0 256 256;" xml:space="preserve">
<style type="text/css">
	.st0{fill:#FFFFFF;}
</style>
<rect id="black" width="256" height="256"/>
<path id="background" class="st0" d="M206.9,256H49.1C22.1,256,0,233.9,0,206.9V49.1C0,22.1,22.1,0,49.1,0H207
	c27,0,49.1,22.1,49.1,49.1V207C256,233.9,233.9,256,206.9,256z"/>
<g id="logo_00000029004921855638880850000003084163963237851569_">
	<g>
		<path d="M170.2,145.3l10.2,5.5c0.6,0.3,1.4,0.1,1.7-0.5c2.9-6.9,4.4-14.3,4.5-21.8c0.3-32.3-25.8-58.8-58.1-59H128
			c-32,0-58.3,26-58.5,58c-0.3,32.3,25.8,58.8,58.1,59l0.5,0c15.3,0,29.3-6,39.7-15.6c0.5-0.5,0.6-1.2,0.1-1.8l-8.7-7.8
			c-0.5-0.5-1.3-0.4-1.7,0.1l0,0c-8.1,7.2-18.6,11.2-29.4,11.2h-0.4c-24.6-0.2-44.4-20.4-44.2-44.9c0.2-24.4,20.2-44.2,44.5-44.2
			h0.4c24.6,0.2,44.4,20.4,44.2,44.9c0,5.2-1,10.4-2.9,15.3C169.4,144.3,169.6,145,170.2,145.3"/>
		<path d="M186.9,44.8c-0.6-0.4-1.3-0.3-1.7,0.3l-6.5,9.5c-0.4,0.6-0.3,1.3,0.2,1.7c22.4,16,37.1,42.2,37.1,71.7
			c0,48.5-39.5,88-88,88s-88-39.5-88-88c0-48.5,39.5-88,88-88c10.3,0,20.4,1.8,30.1,5.3c0.6,0.2,1.3-0.1,1.6-0.7l4.1-10.8
			c0.2-0.6-0.1-1.3-0.7-1.5C151.9,28.1,140,26,128,26C71.8,26,26,71.7,26,128c0,56.2,45.8,102,102,102c56.2,0,102-45.7,102-102
			C230,93.7,213,63.3,186.9,44.8"/>
		<path d="M58.7,168.5c14,23.9,39.9,39.9,69.5,39.8c44.3-0.1,80.2-36.2,80-80.5c-0.1-44.3-36.2-80.2-80.5-80.1
			c-44.3,0.1-80.2,36.2-80,80.5c0,5.3,0.6,10.6,1.6,15.7c0.2,0.7,0.8,1,1.5,0.8L62,142c0.7-0.1,1.1-0.8,0.9-1.5c0,0,0,0,0,0h0
			c-0.8-4.1-1.2-8.2-1.2-12.4c-0.1-36.5,29.5-66.4,66.1-66.5c36.6-0.1,66.4,29.6,66.5,66.1c0.1,36.5-29.5,66.4-66.1,66.5
			c-24.2,0.1-45.5-12.9-57.1-32.3c-0.3-0.6-1-0.8-1.7-0.5l-10.2,5.4C58.6,167.1,58.4,167.9,58.7,168.5"/>
	</g>
</g>
</svg>
