<?xml version="1.0" encoding="utf-8"?>
<!-- Generator: Adobe Illustrator 26.5.0, SVG Export Plug-In . SVG Version: 6.00 Build 0)  -->
<svg version="1.1" id="affiliation" xmlns="http://www.w3.org/2000/svg" xmlns:xlink="http://www.w3.org/1999/xlink" x="0px"
	 y="0px" viewBox="0 0 256 256" style="enable-background:new 0 0 256 256;" xml:space="preserve">
<style type="text/css">
	.st0{fill:#FFFFFF;}
	.st1{fill:#1F65AB;}
</style>
<rect id="black" width="256" height="256"/>
<path id="background" class="st0" d="M206.9,256H49.1C22.1,256,0,233.9,0,206.9V49.1C0,22.1,22.1,0,49.1,0H207
	c27,0,49.1,22.1,49.1,49.1V207C256,233.9,233.9,256,206.9,256z"/>
<g id="logo_00000029004921855638880850000003084163963237851569_">
	<path class="st1" d="M175.5,73.2H128H80.5l-49-33.7l17.5,87c0.9,4.2,2.6,8.2,5.1,11.7l59.9,83.1c6.9,9.5,21,9.5,27.9,0l30.2-42
		L158,153.7c-1.9,0.4-3.8,0.7-5.8,0.7c-13.7,0-24.8-11.1-24.8-24.8c0-13.7,11.1-24.8,24.8-24.8c13.7,0,24.8,11.1,24.8,24.8
		c0,7.4-3.3,14.1-8.5,18.6l11.3,20.6l22-30.6c2.5-3.5,4.3-7.5,5.1-11.7l17.5-87L175.5,73.2z"/>
</g>
</svg>
