<?xml version="1.0" encoding="utf-8"?>
<!-- Generator: Adobe Illustrator 26.5.0, SVG Export Plug-In . SVG Version: 6.00 Build 0)  -->
<svg version="1.1" id="affiliation" xmlns="http://www.w3.org/2000/svg" xmlns:xlink="http://www.w3.org/1999/xlink" x="0px"
	 y="0px" viewBox="0 0 256 256" style="enable-background:new 0 0 256 256;" xml:space="preserve">
<style type="text/css">
	.st0{fill:#FFFFFF;}
	.st1{fill:#232527;}
	.st2{fill:#CF0A2C;}
</style>
<rect id="black" width="256" height="256"/>
<path id="background" class="st0" d="M206.9,256H49.1C22.1,256,0,233.9,0,206.9V49.1C0,22.1,22.1,0,49.1,0H207
	c27,0,49.1,22.1,49.1,49.1V207C256,233.9,233.9,256,206.9,256z"/>
<g id="logo_00000029004921855638880850000003084163963237851569_">
	<g id="g11533" transform="translate(-21.07066,138.86342)">
		<path id="path4250" class="st1" d="M111.9,54.7V73c0,5.2-2.6,8-7.3,8c-4.7,0-7.3-2.9-7.3-8.2V54.7h-6.5V73c0,9,5,14.2,13.7,14.2
			c8.8,0,13.8-5.3,13.8-14.4V54.7L111.9,54.7z M135.8,54.7l-14.1,32h6.6l2.7-6.2l0.2-0.5h14.6l2.9,6.7h6.8l-14-31.8l-0.1-0.2
			L135.8,54.7z M174.3,54.7l-7.3,22l-7.1-22h-6.9l11.1,32h5.4l7.3-21l7.3,21h5.4l11.1-32H194l-7.1,22l-7.3-22H174.3z M237.9,54.7
			v31.9h6.4V54.7H237.9z M54.2,54.7v32h6.5v-13h14.7v13h6.5v-32h-6.5v12.9H60.7V54.7H54.2z M206,54.7v31.9h24.2v-5.8h-17.8v-7.9
			h11.8V67h-11.8v-6.5h17.1v-5.8L206,54.7z M138.5,62.7l4.6,10.7h0l0.3,0.7h-9.8l0.3-0.7h0L138.5,62.7z"/>
		<path id="path4252" class="st2" d="M135-108.9c-2.6,0.2-9.5,1.8-9.5,1.8h0c-15.7,4.1-19.4,18.3-19.4,18.3
			c-0.8,2.4-1.1,4.8-1.2,7.2v3.1c0.2,4.9,1.3,8.5,1.3,8.5c5.2,23.2,31,61.4,36.5,69.4c0.4,0.4,0.7,0.2,0.7,0.2
			c0.6-0.2,0.6-0.7,0.6-0.7l0,0C152.5-86.3,135-108.9,135-108.9L135-108.9z M163.2-108.9c0,0-17.6,22.6-9,107.9h0
			c0.1,0.5,0.5,0.7,0.5,0.7c0.6,0.2,0.9-0.3,0.9-0.3l0,0c5.7-8.2,31.3-46.2,36.5-69.3c0,0,2.8-11.2,0.1-18.8c0,0-3.9-14.5-19.6-18.3
			C172.5-107,168-108.2,163.2-108.9L163.2-108.9z M82.2-83.3c0,0-14.9,14.2-15.7,29.2h0v2.3c0,0.2,0,0.3,0,0.5
			c0.6,12.1,9.8,19.3,9.8,19.3C91-17.6,126.6,0.5,134.9,4.6c0.1,0,0.5,0.2,0.8-0.1c0,0,0.1-0.1,0.2-0.3V3.8c0,0,0,0,0-0.1h0
			C113.2-45.8,82.2-83.3,82.2-83.3L82.2-83.3z M215.9-83.3c0,0-30.9,37.4-53.5,86.8l0,0c0,0-0.3,0.6,0.2,0.9c0,0,0.1,0.1,0.3,0.1
			h0.3c0.1,0,0.1,0,0.2-0.1v0c8.5-4.2,43.8-22.2,58.4-36.4c0,0,9.3-7.4,9.7-19.4C232.6-67.9,215.9-83.3,215.9-83.3L215.9-83.3z
			 M243.7-34.2c0,0-50.4,27-76.4,44.6l0,0l0,0c0,0-0.5,0.3-0.3,0.9c0,0,0.2,0.4,0.6,0.4v0c9.3,0,44.6,0.1,45.5-0.1
			c0,0,4.6-0.2,10.2-2.3c0,0,12.6-4,19.1-18.2c0,0,3-6,3-14.3v-0.4C245.4-26.9,245-30.4,243.7-34.2L243.7-34.2z M54.4-34
			C49.8-19.8,56-8.4,56-8.4C62.4,5.2,74.7,9.3,74.7,9.3c5.7,2.3,11.3,2.5,11.3,2.5c0.9,0.2,35.2,0,44.4,0c0.4,0,0.6-0.4,0.6-0.4
			c0,0,0.1-0.1,0.1-0.1v-0.4c-0.1-0.2-0.3-0.4-0.3-0.4l0,0C104.8-7.1,54.4-34,54.4-34L54.4-34z M129.4,16.1l-59.2,2.1
			c6.4,11.5,17.2,20.4,28.5,17.6c7.8-1.9,25.4-14.2,31.2-18.4l0,0c0.5-0.4,0.3-0.7,0.3-0.7C130,16.1,129.4,16.1,129.4,16.1
			L129.4,16.1z M168.6,16.2L168.6,16.2c0,0-0.5,0.1-0.7,0.5c0,0-0.1,0.5,0.2,0.8l0,0c5.7,4.1,22.9,16.1,31.1,18.4
			c0,0,1.3,0.4,3.4,0.5h1.3c5.5-0.2,15.2-3,24-18.1L168.6,16.2z"/>
	</g>
</g>
</svg>
