<?xml version="1.0" encoding="utf-8"?>
<!-- Generator: Adobe Illustrator 26.5.0, SVG Export Plug-In . SVG Version: 6.00 Build 0)  -->
<svg version="1.1" id="affiliation" xmlns="http://www.w3.org/2000/svg" xmlns:xlink="http://www.w3.org/1999/xlink" x="0px"
	 y="0px" viewBox="0 0 256 256" style="enable-background:new 0 0 256 256;" xml:space="preserve">
<style type="text/css">
	.st0{fill:#FFFFFF;}
	.st1{filter:url(#Adobe_OpacityMaskFilter);}
	.st2{fill-rule:evenodd;clip-rule:evenodd;fill:#FFFFFF;}
	.st3{mask:url(#mask-2_00000143605285244250113110000013074950466052063126_);fill-rule:evenodd;clip-rule:evenodd;fill:#0F2147;}
</style>
<rect id="black" width="256" height="256"/>
<path id="background" class="st0" d="M206.9,256H49.1C22.1,256,0,233.9,0,206.9V49.1C0,22.1,22.1,0,49.1,0H207
	c27,0,49.1,22.1,49.1,49.1V207C256,233.9,233.9,256,206.9,256z"/>
<g id="logo_00000029004921855638880850000003084163963237851569_">
	<defs>
		<filter id="Adobe_OpacityMaskFilter" filterUnits="userSpaceOnUse" x="16.5" y="112.3" width="223" height="31.4">
			<feColorMatrix  type="matrix" values="1 0 0 0 0  0 1 0 0 0  0 0 1 0 0  0 0 0 1 0"/>
		</filter>
	</defs>
	
		<mask maskUnits="userSpaceOnUse" x="16.5" y="112.3" width="223" height="31.4" id="mask-2_00000143605285244250113110000013074950466052063126_">
		<g class="st1">
			<polygon id="path-1_00000132778410095895516480000000272855913632415384_" class="st2" points="16.5,112.3 239.5,112.3 
				239.5,143.7 16.5,143.7 			"/>
		</g>
	</mask>
	<path id="Fill-3" class="st3" d="M16.5,137.6H21v-11.2c0-3.1,1.8-4.9,4.5-4.9c2.7,0,4.3,1.8,4.3,4.8v11.3h4.6v-12.7
		c0-4.6-2.6-7.6-7.1-7.6c-3.1,0-4.9,1.6-6.2,3.5v-3h-4.6V137.6z M48.2,138c3.6,0,6.2-1.5,8.1-3.7l-2.7-2.4c-1.6,1.5-3.2,2.4-5.4,2.4
		c-2.9,0-5.2-1.8-5.7-5h14.6c0-0.5,0.1-0.9,0.1-1.3c0-5.7-3.2-10.7-9.5-10.7c-5.7,0-9.7,4.7-9.7,10.3v0.1
		C38,133.9,42.4,138,48.2,138z M42.5,126.3c0.4-3.1,2.4-5.2,5.2-5.2c3,0,4.7,2.3,5,5.2H42.5z M67.4,137.9c1.7,0,3-0.4,4.1-1v-3.7
		c-0.9,0.5-1.8,0.7-2.8,0.7c-1.5,0-2.4-0.7-2.4-2.5v-9.7h5.3v-3.9h-5.3v-5.5h-4.6v5.5h-2.5v3.9h2.5v10.5
		C61.6,136.5,64,137.9,67.4,137.9z M83.8,138c3.9,0,6.2-1.5,8.1-3.7l-2.7-2.7c-1.4,1.5-3,2.4-5.2,2.4c-3.5,0-5.9-2.8-5.9-6.4v-0.1
		c0-3.5,2.4-6.3,5.8-6.3c2.3,0,3.7,1,5.1,2.5l2.9-3c-1.9-2-4.2-3.4-7.9-3.4c-6,0-10.3,4.7-10.3,10.4v0.1
		C73.5,133.4,77.9,138,83.8,138z M104.1,138c6.1,0,10.6-4.7,10.6-10.3v-0.1c0-5.7-4.5-10.3-10.6-10.3c-6.1,0-10.6,4.7-10.6,10.4v0.1
		C93.6,133.4,98.1,138,104.1,138z M104.2,134.1c-3.5,0-6.1-2.9-6.1-6.4v-0.1c0-3.5,2.3-6.3,6-6.3c3.6,0,6.1,2.9,6.1,6.4v0.1
		C110.2,131.2,107.9,134.1,104.2,134.1z M118.6,137.6h4.6v-11.2c0-3,1.7-4.9,4.2-4.9c2.5,0,4,1.7,4,4.8v11.3h4.6v-11.2
		c0-3.2,1.8-4.9,4.3-4.9c2.6,0,4,1.7,4,4.8v11.3h4.6v-12.7c0-4.9-2.6-7.6-7-7.6c-3,0-5.1,1.4-6.7,3.5c-1.1-2.1-3.1-3.5-5.9-3.5
		c-3,0-4.8,1.7-6.1,3.4v-3h-4.6V137.6z M153.7,143.6h4.6v-9.1c1.4,1.8,3.5,3.5,6.8,3.5c4.7,0,9.2-3.7,9.2-10.3v-0.1
		c0-6.6-4.6-10.3-9.2-10.3c-3.2,0-5.3,1.7-6.8,3.7v-3.3h-4.6V143.6z M164,134.1c-3.1,0-5.8-2.6-5.8-6.4v-0.1c0-3.8,2.7-6.4,5.8-6.4
		c3.1,0,5.7,2.5,5.7,6.4v0.1C169.6,131.6,167.1,134.1,164,134.1z M183.8,138c3,0,5.1-1.3,6.5-2.9v2.5h4.4v-11.8
		c0-2.6-0.7-4.7-2.1-6.1c-1.4-1.4-3.6-2.2-6.6-2.2c-3.2,0-5.3,0.6-7.5,1.6l1.2,3.6c1.8-0.8,3.5-1.2,5.7-1.2c3.2,0,4.9,1.5,4.9,4.3
		v0.5c-1.5-0.5-3.1-0.8-5.3-0.8c-4.9,0-8.2,2.1-8.2,6.4v0.1C176.8,135.9,180.1,138,183.8,138z M185.1,134.7c-2.2,0-3.9-1.1-3.9-3
		v-0.1c0-2.1,1.7-3.3,4.7-3.3c1.8,0,3.3,0.3,4.5,0.8v1.4C190.4,133,188.1,134.7,185.1,134.7z M199.5,137.6h4.6v-11.2
		c0-3.1,1.8-4.9,4.5-4.9c2.7,0,4.3,1.8,4.3,4.8v11.3h4.6v-12.7c0-4.6-2.6-7.6-7.1-7.6c-3.1,0-4.9,1.6-6.2,3.5v-3h-4.6V137.6z
		 M229.6,132.5l-5.6-14.7h-4.9l8.3,19.9c-0.8,1.7-1.5,2.3-2.8,2.3c-0.9,0-1.8-0.3-2.7-0.8l-1.5,3.4c1.4,0.8,2.8,1.2,4.7,1.2
		c3.2,0,5-1.5,6.5-5.6l7.9-20.4h-4.7L229.6,132.5z"/>
</g>
</svg>
