<?xml version="1.0" encoding="utf-8"?>
<!-- Generator: Adobe Illustrator 26.5.0, SVG Export Plug-In . SVG Version: 6.00 Build 0)  -->
<svg version="1.1" id="affiliation" xmlns="http://www.w3.org/2000/svg" xmlns:xlink="http://www.w3.org/1999/xlink" x="0px"
	 y="0px" viewBox="0 0 256 256" style="enable-background:new 0 0 256 256;" xml:space="preserve">
<style type="text/css">
	.st0{fill:#FFFFFF;}
</style>
<rect id="black" width="256" height="256"/>
<path id="background" class="st0" d="M206.9,256H49.1C22.1,256,0,233.9,0,206.9V49.1C0,22.1,22.1,0,49.1,0H207
	c27,0,49.1,22.1,49.1,49.1V207C256,233.9,233.9,256,206.9,256z"/>
<g id="logo_00000029004921855638880850000003084163963237851569_">
	<g>
		<path d="M42,42h172v172H42V42z"/>
		<g>
			<path class="st0" d="M60.6,181.8h64.5v10.8H60.6V181.8z"/>
			<path class="st0" d="M58,86.4l4.8-4.6c0.9,1.4,2.5,2.4,4.3,2.5c1.8,0,3.1-1.3,3.1-3.8V63.4h7.3v17.2c0.3,2.7-0.7,5.4-2.5,7.4
				c-2,1.8-4.7,2.9-7.3,2.7C63.9,91.1,60.2,89.4,58,86.4z"/>
			<path class="st0" d="M80.7,63.5h21.5v6.3H88V74h12.9v5.7H88.2V84h14.3v6.3H80.7C80.7,90.3,80.7,63.5,80.7,63.5z"/>
			<path class="st0" d="M112.9,70.1h-8.1v-6.5h23.5v6.5h-8.1v20.3h-7.4C112.9,90.3,112.9,70.1,112.9,70.1z"/>
			<path class="st0" d="M61,101h12.8c2.6-0.3,5.3,0.7,7.3,2.4c1.2,1.2,1.7,2.7,1.7,4.3c0.1,2.6-1.6,5.1-4.2,6
				c3.1,0.5,5.4,3.3,5.4,6.5c0,4.6-3.8,7.4-10.2,7.4H61V101z M75.4,109.4c0-1.4-1.3-2.3-3.4-2.3h-3.7v4.7h3.5
				C74.1,111.7,75.4,110.9,75.4,109.4L75.4,109.4z M72.7,116.9h-4.4v4.9h4.6c2.3,0,3.5-0.9,3.5-2.5C76.4,118,75.2,116.9,72.7,116.9
				L72.7,116.9z"/>
			<path class="st0" d="M86.4,101h11.7c3.1-0.3,6.2,0.8,8.6,2.9c1.7,1.6,2.6,3.9,2.5,6.3c0.1,3.7-2.1,7-5.5,8.2l6.4,9.4h-8.6
				l-5.4-8.1h-2.5v8.1h-7.2L86.4,101L86.4,101z M97.9,113.9c2.5,0,4-1.3,4-3.2c0-2.2-1.4-3.2-4-3.2h-4.2v6.4L97.9,113.9z"/>
			<path class="st0" d="M119.7,100.8h7.2l11.5,27.1h-8.1l-2-4.8h-10.4l-2,4.8h-7.8L119.7,100.8z M126.2,117.2l-2.9-7.6l-3.1,7.6
				H126.2z"/>
			<path class="st0" d="M139.3,100.9h7.4v26.8h-7.4V100.9z"/>
			<path class="st0" d="M149.6,100.9h7l9.6,14.3v-14.3h7.3v26.8H167l-10-14.7v14.7h-7.3V100.9z"/>
			<path class="st0" d="M174.9,123.7l4.2-4.9c2.4,2.1,5.5,3.2,8.6,3.2c2.1,0,3.1-0.7,3.1-1.8c0-1.2-0.9-1.7-4.6-2.6
				c-5.7-1.3-10-2.9-10-8.3c0-5.1,3.9-8.6,10.4-8.6c4-0.1,7.9,1.2,11,3.5l-3.7,5.3c-2.2-1.6-4.8-2.5-7.6-2.6c-1.8,0-2.7,0.7-2.7,1.7
				c0,1.3,0.9,1.7,4.7,2.6c6.2,1.4,9.9,3.3,9.9,8.3c0,5.5-4.3,8.6-10.9,8.6C182.8,128.1,178.4,126.6,174.9,123.7z"/>
		</g>
	</g>
</g>
</svg>
