<?xml version="1.0" encoding="utf-8"?>
<!-- Generator: Adobe Illustrator 26.5.0, SVG Export Plug-In . SVG Version: 6.00 Build 0)  -->
<svg version="1.1" id="affiliation" xmlns="http://www.w3.org/2000/svg" xmlns:xlink="http://www.w3.org/1999/xlink" x="0px"
	 y="0px" viewBox="0 0 256 256" style="enable-background:new 0 0 256 256;" xml:space="preserve">
<style type="text/css">
	.st0{fill:#FFFFFF;}
</style>
	<defs
   id="defs3">
    <linearGradient
   id="a"
   x1=".850001"
   x2="62.62"
   y1="62.72"
   y2="1.81"
   gradientUnits="userSpaceOnUse">
      <stop
   stop-color="#FF9419"
   id="stop1" />
		<stop
   offset=".43"
   stop-color="#FF021D"
   id="stop2" />
		<stop
   offset=".99"
   stop-color="#E600FF"
   id="stop3" />
    </linearGradient>
  </defs>
<rect
   id="black"
   width="256"
   height="256" />
<path
   id="background"
   class="st0"
   d="M206.9,256H49.1C22.1,256,0,233.9,0,206.9V49.1C0,22.1,22.1,0,49.1,0H207  c27,0,49.1,22.1,49.1,49.1V207C256,233.9,233.9,256,206.9,256z" />
	<g
   id="g5"
   transform="matrix(3.1610905,0,0,3.2800496,24.743495,22.2057)">
	<path
   fill="url(#a)"
   d="M 20.34,3.66 3.66,20.34 C 1.32,22.68 0,25.86 0,29.18 V 59 c 0,2.76 2.24,5 5,5 h 29.82 c 3.32,0 6.49,-1.32 8.84,-3.66 L 60.34,43.66 C 62.68,41.32 64,38.14 64,34.82 V 5 C 64,2.24 61.76,0 59,0 H 29.18 c -3.32,0 -6.49,1.32 -8.84,3.66 z"
   id="path3"
   style="fill:url(#a)" />
	<path
   fill="#000000"
   d="M 48,16 H 8 v 40 h 40 z"
   id="path4" />
	<path
   fill="#ffffff"
   d="M 30,47 H 13 v 4 h 17 z"
   id="path5" />
	</g>
</svg>
