<?xml version="1.0" encoding="utf-8"?>
<!-- Generator: Adobe Illustrator 26.5.0, SVG Export Plug-In . SVG Version: 6.00 Build 0)  -->
<svg version="1.1" id="affiliation" xmlns="http://www.w3.org/2000/svg" xmlns:xlink="http://www.w3.org/1999/xlink" x="0px"
	 y="0px" viewBox="0 0 256 256" style="enable-background:new 0 0 256 256;" xml:space="preserve">
<style type="text/css">
	.st0{fill:#FFFFFF;}
</style>
<rect id="black" width="256" height="256"/>
<path id="background" class="st0" d="M206.9,256H49.1C22.1,256,0,233.9,0,206.9V49.1C0,22.1,22.1,0,49.1,0H207
	c27,0,49.1,22.1,49.1,49.1V207C256,233.9,233.9,256,206.9,256z"/>
<g id="logo_00000029004921855638880850000003084163963237851569_">
	<g>
		<path d="M53,53h150v150H53V53z"/>
		<g>
			<path class="st0" d="M69.3,174.9h56.2v9.4H69.3L69.3,174.9z"/>
			<path class="st0" d="M67,91.8l4.2-4c0.8,1.3,2.2,2.1,3.7,2.2c1.6,0,2.7-1.1,2.7-3.3V71.7h6.4v15c0.2,2.4-0.6,4.7-2.2,6.5
				c-1.7,1.6-4.1,2.5-6.4,2.4C72.1,95.8,68.9,94.4,67,91.8z"/>
			<path class="st0" d="M86.8,71.8h18.8v5.5H93.1v3.6h11.2v5h-11v3.7h12.5v5.5h-19V71.8z"/>
			<path class="st0" d="M114.8,77.5h-7v-5.7h20.5v5.7h-7v17.7h-6.5V77.5z"/>
			<path class="st0" d="M69.6,104.5h11.1c2.3-0.2,4.6,0.6,6.4,2.1c1,1,1.5,2.4,1.5,3.8c0.1,2.3-1.4,4.4-3.6,5.2
				c2.7,0.5,4.7,2.9,4.7,5.7c0,4-3.3,6.5-8.9,6.5H69.6V104.5z M82.1,111.7c0-1.3-1.1-2-3-2h-3.2v4.1H79
				C81,113.8,82.1,113.1,82.1,111.7L82.1,111.7z M79.8,118.3h-3.9v4.3h4c2,0,3.1-0.8,3.1-2.2C83,119.2,82,118.3,79.8,118.3
				L79.8,118.3z"/>
			<path class="st0" d="M91.8,104.5H102c2.7-0.2,5.4,0.7,7.5,2.5c1.5,1.4,2.3,3.4,2.2,5.5c0.1,3.2-1.8,6.1-4.8,7.2l5.6,8.2H105
				l-4.7-7.1h-2.2v7.1h-6.4V104.5z M101.8,115.7c2.2,0,3.5-1.1,3.5-2.8c0-1.9-1.3-2.8-3.5-2.8h-3.6v5.6L101.8,115.7z"/>
			<path class="st0" d="M120.7,104.2h6.2l10,23.6h-7l-1.7-4.2h-9.1l-1.7,4.2h-6.8L120.7,104.2z M126.4,118.6l-2.5-6.6l-2.7,6.6
				H126.4z"/>
			<path class="st0" d="M137.9,104.4h6.5v23.4h-6.5V104.4z"/>
			<path class="st0" d="M146.9,104.4h6.1l8.4,12.5v-12.5h6.4v23.4h-5.7l-8.8-12.8v12.8h-6.4V104.4z"/>
			<path class="st0" d="M168.9,124.2l3.6-4.3c2.1,1.8,4.8,2.8,7.5,2.8c1.8,0,2.7-0.6,2.7-1.6c0-1-0.8-1.5-4-2.3
				c-5-1.1-8.8-2.5-8.8-7.3c0-4.4,3.4-7.5,9.1-7.5c3.5-0.1,6.9,1,9.6,3.1l-3.2,4.6c-1.9-1.4-4.2-2.2-6.6-2.3c-1.6,0-2.4,0.6-2.4,1.5
				c0,1.1,0.8,1.5,4.1,2.3c5.4,1.2,8.6,2.9,8.6,7.3c0,4.8-3.8,7.5-9.5,7.5C175.8,128.1,172,126.8,168.9,124.2z"/>
		</g>
	</g>
</g>
</svg>
