<?xml version="1.0" encoding="utf-8"?>
<!-- Generator: Adobe Illustrator 26.5.0, SVG Export Plug-In . SVG Version: 6.00 Build 0)  -->
<svg version="1.1" id="affiliation" xmlns="http://www.w3.org/2000/svg" xmlns:xlink="http://www.w3.org/1999/xlink" x="0px"
	 y="0px" viewBox="0 0 256 256" style="enable-background:new 0 0 256 256;" xml:space="preserve">
<style type="text/css">
	.st0{fill:#FFFFFF;}
	.st1{fill:#4C83C3;}
	.st2{fill:#FDBA12;}
	.st3{fill:#B22C1B;}
</style>
<rect id="black" width="256" height="256"/>
<path id="background" class="st0" d="M206.9,256H49.1C22.1,256,0,233.9,0,206.9V49.1C0,22.1,22.1,0,49.1,0H207
	c27,0,49.1,22.1,49.1,49.1V207C256,233.9,233.9,256,206.9,256z"/>
<g id="logo_00000029004921855638880850000003084163963237851569_">
	<g>
		<path class="st1" d="M59.2,169.1c-0.6-0.1-1.3-0.1-1.9,0.1c-0.6,0.2-1.2,0.4-1.7,0.8c-0.5,0.4-0.9,0.9-1.1,1.5
			c-0.3,0.6-0.4,1.2-0.4,1.8c0,0.6,0.1,1.2,0.4,1.8c0.3,0.6,0.7,1.1,1.1,1.5c0.5,0.4,1,0.7,1.7,0.8c0.6,0.2,1.2,0.2,1.9,0.1
			c0.6,0.1,1.3,0.1,1.9-0.1c0.6-0.2,1.2-0.4,1.7-0.8c0.5-0.4,0.9-0.9,1.1-1.5c0.3-0.6,0.4-1.2,0.4-1.8c0-0.6-0.1-1.2-0.4-1.8
			c-0.3-0.6-0.7-1.1-1.1-1.5c-0.5-0.4-1-0.7-1.7-0.8C60.5,169,59.8,169,59.2,169.1z M59.2,175.9c-1.9,0-3.4-1.2-3.4-2.6
			c0-1.4,1.5-2.6,3.4-2.6c1.9,0,3.4,1.2,3.4,2.6C62.7,174.7,61.1,175.9,59.2,175.9z"/>
		<path class="st1" d="M52.3,176.5c-0.2-1-0.7-1.9-1.6-2.5c-0.8-0.6-1.9-0.8-2.9-0.7c-1,0-2,0.5-2.7,1.2c-0.7,0.7-1.1,1.7-1,2.8
			c0.1,0.5,0.3,0.9,0.6,1.3c0.3,0.4,0.6,0.8,1,1s0.9,0.4,1.4,0.5c0.5,0.1,1,0.1,1.5,0C50.9,179.9,52.5,178.4,52.3,176.5z
			 M48.4,178.7c-1.3,0.1-2.6-0.3-2.8-1.5c0.1-0.6,0.3-1.2,0.8-1.6c0.4-0.4,1-0.7,1.6-0.8c0.6-0.1,1.2,0.1,1.7,0.4
			c0.5,0.3,0.9,0.8,1.1,1.4C50.9,177.9,49.7,178.6,48.4,178.7z"/>
		<path class="st1" d="M37.6,176.5c-2.2,0-3.6,1-3.6,2.7s1.4,2.7,3.6,2.7c2.2,0,3.6-1,3.6-2.7C41.2,177.5,39.8,176.5,37.6,176.5z
			 M37.6,180.5c-1,0-2.2-0.2-2.2-1.3c0-1.1,1.2-1.3,2.2-1.3c1,0,2.2,0.2,2.2,1.3C39.8,180.3,38.6,180.5,37.6,180.5z"/>
		<path class="st1" d="M28.1,177.9c-2.4,0-2.6,1.5-2.6,2.2c0,0.7,0.3,2.2,2.6,2.2c1.8,0,2.9-0.8,2.9-2.2
			C31.1,178.8,29.9,177.9,28.1,177.9z M28.1,180.9c-1.3,0-1.3-0.6-1.3-0.9c0-0.3,0-0.9,1.3-0.9c0.2,0,1.6,0,1.6,0.9
			C29.8,180.9,28.3,180.9,28.1,180.9z"/>
		<path class="st1" d="M90.2,146c-0.2-1.6-0.9-3.1-1.8-4.4c-0.9-1.3-2.2-2.4-3.6-3.1c0,0-0.1-0.1-0.1-0.1l0,0l-0.2-0.1v2.4
			c0.1,0,0.2,0.1,0.3,0.2c0.9,0.6,1.6,1.3,2.2,2.1c0.6,0.9,1,1.8,1.2,2.8c0,1.3-0.3,2.5-0.9,3.6c-0.6,1.1-1.4,2.1-2.4,2.8
			c0,0-0.1,0.1-0.1,0.1l-0.2,0.2l-0.2,0.1l0.2,0.1l0.3,0.1l0,0c0,0,3.5,1.5,1.9,6.7c-0.9,2.5-2.6,4.6-4.8,6c-2.2,1.4-4.8,2.2-7.4,2
			h-0.1c-4.9-0.1-9.7-1.6-13.9-4.2l-0.2-0.1l-0.2,0.2c-2.2,2.2-5.1,3.6-8.2,3.9c-0.1,0-3.9,0.3-6.4-4.7l-0.1-0.3l-0.3,0.1
			c0,0-2.9,1-4.4-0.5c-0.1-0.1-0.2-0.2-0.3-0.3h-0.4v0h-1.5v0h-0.3l0,0.1l0,0.1c0,0,0,0.1,0.1,0.1c0.3,0.8,1.7,3.2,6.1,2.7
			c0.8,1.3,1.9,2.4,3.2,3.3c1.3,0.8,2.8,1.3,4.3,1.4h0c3.2-0.1,6.3-1.3,8.7-3.5c4.1,2.2,8.6,3.5,13.3,3.8c0.5,0,1,0,1.5-0.1
			c2.7-0.1,5.4-0.9,7.6-2.4c2.3-1.5,4.1-3.6,5.2-6.1c0.7-1.3,0.9-2.9,0.7-4.3c-0.2-1.5-0.8-2.9-1.7-4.1c0.9-0.8,1.6-1.8,2.1-3
			C90,148.4,90.2,147.2,90.2,146z"/>
		<path class="st1" d="M84.3,140.8l-0.3-0.1c-3.4-3.1-7.6-4.9-12.2-5.3c-0.7,0-1.3,0.1-1.9,0.2c-1.4,0.3-2.7,0.8-3.8,1.6
			c-1.2,0.8-2.2,1.8-2.9,2.9l-0.7,1.2l-0.2-1.4c-0.6-3.7-2.4-3.9-2.4-3.9c-0.1,0-0.3,0-0.4,0c-2,0-4.7,2.7-4.7,2.7l-0.6,0.6
			l-0.2-0.9c-1.4-5.3-5-5.4-5.1-5.4c-2.5,0-4.9,0.9-6.7,2.6c-0.7,0.9-1,2-0.9,3.1c0.1,1.1,0.6,2.1,1.4,2.9L43,142l-0.7,0.3
			c-6.8,2.9-6.4,5.4-6.4,5.5c0.2,1.8,4.2,3.6,6.6,4.3l0.7,0.2l-0.4,0.6c-3.9,5.3-2.7,7.9-2.4,8.4l0.1,0.2h35.7
			c2.2,0,4.3-0.9,5.8-2.4c1.5-1.5,2.4-3.6,2.4-5.8V140.8z"/>
		<path class="st1" d="M76.2,114.4h-43c-2.2,0-4.2,0.9-5.8,2.4c-1.5,1.5-2.4,3.6-2.4,5.8v30.8c0,2.2,0.9,4.2,2.4,5.8
			c1.5,1.5,3.6,2.4,5.8,2.4H38l0-0.1c-0.3-1.3-0.3-2.7,0-4.1c0.3-1.4,0.8-2.6,1.6-3.8c-3.8-1.6-5.8-3.5-5.9-5.6
			c-0.1-3.3,4.2-6,5.8-6.8c-0.4-0.8-0.7-1.7-0.7-2.6c-0.1-0.9,0.1-1.8,0.4-2.6c0.9-1.9,2.5-3.4,4.5-4.1c1.4-0.7,3-1.1,4.6-1.1
			c1,0,1.9,0.2,2.8,0.5c1.8,0.8,3.3,2.2,4.2,4c1.2-0.9,2.7-1.5,4.3-1.5c0.5,0,0.9,0.1,1.4,0.2c1.2,0.4,2.1,1.3,2.7,2.4
			c2.2-2,5.1-3.1,8.1-3.1c4.6,0.3,9,2,12.7,4.8l0,0v-15.4c0-2.2-0.9-4.2-2.4-5.8C80.4,115.2,78.3,114.4,76.2,114.4z"/>
		<path class="st2" d="M158.7,99.4l-13.5,6.8l0.9,1.7l13.5-6.8L158.7,99.4z"/>
		<path class="st2" d="M152.6,89.8l-12.1,10.8l1.3,1.4l12.1-10.8L152.6,89.8z"/>
		<path class="st2" d="M140.9,82l-6.4,14.8l1.8,0.8l6.4-14.8L140.9,82z"/>
		<path class="st2" d="M129,79h-1.9v16.6h1.9V79z"/>
		<path class="st2" d="M115.2,82l-1.8,0.8l6.3,14.5l0.1,0.3l1.8-0.8l-6.3-14.5L115.2,82z"/>
		<path class="st2" d="M102.3,91.3l12.1,10.8l1.3-1.4l-12.1-10.8L102.3,91.3z"/>
		<path class="st2" d="M97.4,99.4l-0.9,1.7l13.5,6.7l0.9-1.7L97.4,99.4z"/>
		<path class="st2" d="M149.6,114.4h-2.9l0,0.3c0,2.4-0.5,4.8-1.5,7.1c-0.9,2.2-2.3,4.3-4.1,6c-1.4,1.5-3.2,2.6-5.1,3.3l-1.4,9.5
			h-13.4l-1.2-9.4c-10.1-3.9-10.4-14.4-10.6-16.5l0-0.2h-2.9c-2.2,0-4.3,0.9-5.8,2.4c-1.5,1.5-2.4,3.6-2.4,5.8v30.9
			c0,2,0.7,3.9,2,5.4c1.3,1.5,3.1,2.5,5,2.7h45.3c1.9-0.3,3.7-1.3,5-2.7c1.3-1.5,2-3.4,2-5.3v-30.9c0-2.2-0.9-4.3-2.4-5.8
			C153.8,115.2,151.8,114.4,149.6,114.4z M121.4,142.7h13.3v2h-13.3V142.7z M121.4,146.5h13.3v2h-13.3V146.5z M130.6,156h-5.2v-2
			h5.2V156z M134.7,152.2h-13.3v-2h13.3V152.2z"/>
		<path class="st2" d="M121.2,124l7.6-3.1l-6.5-2l4.6-4.2l0.3-0.3H112v0.3c0.1,1.9,0.4,11.2,9.8,14.8l0.2,0.1l1.1,8.8h4v-10.3
			l2.1-1.7L121.2,124z"/>
		<path class="st2" d="M130,114.4l-0.3,0.3l-3.4,3.3l8.8,2.5l-7.8,3.2l6.2,1.7l-4.3,3.5v9.4h3.6l1.2-8.8l0.2-0.1
			c2.9-1.2,5.4-3.2,7.2-5.8c1.8-2.6,2.8-5.7,2.8-8.8v-0.3H130z"/>
		<path class="st3" d="M222.9,114.4h-16.4c7.2,5.4,11.3,11,12.1,16.6c0.3,2.4,0,4.9-0.7,7.2c-0.7,2.3-1.9,4.5-3.5,6.3l-0.1,0.2
			c-6.3,8-19.1,14-24.3,16.3c-0.6,0.2-1.2,0.4-1.8,0.5h34.7c2.2,0,4.2-0.9,5.8-2.4c1.5-1.5,2.4-3.6,2.4-5.8v-30.8
			c0-2.2-0.9-4.2-2.4-5.8C227.1,115.2,225,114.4,222.9,114.4z"/>
		<path class="st3" d="M202.8,114.7l-0.4-0.3H180c-2.2,0-4.2,0.9-5.8,2.4c-1.5,1.5-2.4,3.6-2.4,5.8v30.8c0,2.2,0.9,4.2,2.4,5.8
			c1.5,1.5,3.6,2.4,5.8,2.4h0.1l0.9-0.3c20.9-6.9,34.3-17.4,35-27.4C216.7,123.8,204.2,115.6,202.8,114.7z"/>
		<path class="st3" d="M220.5,76c0.2-1.3,0.3-2.6,0.3-3.9c0.1-2.9-0.6-5.9-2-8.4c-1.4-2.6-3.4-4.8-5.9-6.4
			c-3.5-2.2-7.6-3.5-11.8-3.5c-4.2-0.1-8.3,1-11.9,3.2c-2.6,1.7-4.7,4.1-6.1,6.8c-1.4,2.8-2.1,5.9-1.9,9c0,1.5,0.1,3,0.4,4.6
			c1.1,7.4,5.1,14,11,18.5c-3.1-0.8-7.2-1.3-9,1.6c-0.2,0.3-0.4,0.6-0.5,0.9c-0.1,0.3-0.1,0.7-0.1,1c0.1,0.3,0.2,0.7,0.4,1
			c0.2,0.3,0.4,0.5,0.7,0.7c2.3,1.6,7.8,1.2,11.1-0.7l-2.3,5.3h15.3l-3.1-6.1c3.7,1.6,8,3,10.3,1.5c0.5-0.3,0.9-0.7,1.1-1.2
			s0.4-1,0.4-1.6c0.1-0.6,0-1.2-0.3-1.7c-0.2-0.5-0.6-1-1.1-1.4c-1.8-0.9-3.8-1.1-5.7-0.6c0.3-0.2,0.5-0.4,0.8-0.7
			C216.2,89.2,219.5,82.9,220.5,76z M185.5,99.4c-0.2-0.2-0.5-0.4-0.1-1.1c1.3-2.2,5.8-1.3,9.4,0.1c-1.4,0.8-2.9,1.4-4.6,1.5
			C188.6,100.2,187,100,185.5,99.4z M214.8,96.7c0.2,0.2,0.4,0.4,0.5,0.6c0.1,0.3,0.1,0.5,0.1,0.8c0,0.2,0,0.5-0.1,0.7
			s-0.3,0.4-0.5,0.5c-0.9,0.5-3.1,0.6-8.8-1.8C209.4,96.5,213.4,95.7,214.8,96.7z M203.5,96.4c-0.2,0.1-0.4,0.2-0.5,0.2l-0.7,0.2
			L202,97l0,0l-1.1,0.5l1.7,0.8l2.7,5.4h-9.3l2.7-6.2l-1-0.6c-3.7-2-7-4.8-9.4-8.3c-2.5-3.5-4.1-7.4-4.8-11.6
			c-0.2-1.4-0.3-2.8-0.3-4.2c-0.2-2.8,0.4-5.6,1.7-8c1.3-2.5,3.1-4.6,5.5-6.1c3.3-1.9,7-2.9,10.8-2.9c3.8,0.1,7.5,1.2,10.7,3.2
			c2.2,1.4,4,3.4,5.3,5.7c1.2,2.3,1.8,4.9,1.8,7.5c0,1.2-0.1,2.4-0.3,3.6c-0.6,4.4-2.3,8.7-4.9,12.3
			C211.1,91.6,207.6,94.5,203.5,96.4z"/>
		<path class="st3" d="M205.7,114l-0.1-0.1c0,0,0,0-0.1,0c-1.5-0.9-2.7-2.1-3.7-3.5c-1-1.4-1.6-3-1.9-4.7h-2.1
			c0.3,3.2,1.9,6.1,4.3,8.2c0.1,0,0.1,0.1,0.2,0.1c0.1,0.1,0.2,0.1,0.2,0.2h3.1l0.3,0L205.7,114z"/>
	</g>
</g>
</svg>
