<?xml version="1.0" encoding="UTF-8" standalone="no"?>
<svg
   version="1.1"
   id="affiliation"
   x="0px"
   y="0px"
   viewBox="0 0 256 256"
   style="enable-background:new 0 0 256 256;"
   xml:space="preserve"
   sodipodi:docname="C-25.svg"
   inkscape:version="1.4 (86a8ad7, 2024-10-11)"
   xmlns:inkscape="http://www.inkscape.org/namespaces/inkscape"
   xmlns:sodipodi="http://sodipodi.sourceforge.net/DTD/sodipodi-0.dtd"
   xmlns="http://www.w3.org/2000/svg"
   xmlns:svg="http://www.w3.org/2000/svg"><defs
   id="defs12" /><sodipodi:namedview
   id="namedview12"
   pagecolor="#ffffff"
   bordercolor="#000000"
   borderopacity="0.25"
   inkscape:showpageshadow="2"
   inkscape:pageopacity="0.0"
   inkscape:pagecheckerboard="0"
   inkscape:deskcolor="#d1d1d1"
   inkscape:zoom="3.1523438"
   inkscape:cx="128"
   inkscape:cy="128"
   inkscape:window-width="1920"
   inkscape:window-height="1009"
   inkscape:window-x="1912"
   inkscape:window-y="-8"
   inkscape:window-maximized="1"
   inkscape:current-layer="g12" />
<style
   type="text/css"
   id="style1">
	.st0{fill:#FFFFFF;}
    .st1{fill:#C8003E;stroke:#C8003E;stroke-width:4;stroke-miterlimit:10;}
</style>
    <rect
   id="black"
   width="256"
   height="256" />
    <path
   id="background"
   class="st0"
   d="M206.9,256H49.1C22.1,256,0,233.9,0,206.9V49.1C0,22.1,22.1,0,49.1,0H207  c27,0,49.1,22.1,49.1,49.1V207C256,233.9,233.9,256,206.9,256z" />
    <g
   id="g12">
    <g
   id="g4"
   transform="matrix(0.65192492,0,0,0.65192492,-38.454211,52.567339)">
	<path
   class="st1"
   d="m 133.1,30.8 v 85 c 0,10.1 -0.7,17.7 -2.1,22.7 -1.4,5.7 -3.8,10.5 -7.2,14.4 -6.6,7.8 -15.4,11.6 -26.4,11.6 -8.3,0 -16,-2.2 -23.2,-6.5 l 9.7,-16.9 c 4.8,3.2 9.3,4.8 13.5,4.8 5.9,0 10,-2.2 12.2,-6.7 2.4,-4.5 3.6,-12.3 3.6,-23.5 v -85 h 19.9 z"
   id="path1" />
        <path
   class="st1"
   d="m 164.2,57.3 v 47.5 c 0,13.7 5.4,20.6 16.2,20.6 10.8,0 16.2,-6.9 16.2,-20.6 V 57.3 h 19.1 v 48 c 0,6.6 -0.8,12.4 -2.5,17.2 -1.6,4.3 -4.3,8.2 -8.2,11.6 -6.5,5.6 -14.7,8.4 -24.7,8.4 -9.9,0 -18.1,-2.8 -24.6,-8.4 -4,-3.5 -6.8,-7.3 -8.4,-11.6 -1.6,-3.9 -2.4,-9.6 -2.4,-17.2 v -48 z"
   id="path2" />
        <path
   class="st1"
   d="m 226.5,57.3 h 19.1 V 65 c 3.7,-3.9 6.8,-6.5 9.4,-7.8 2.8,-1.4 6.3,-2.1 10.5,-2.1 9.4,0 16.8,4.1 22.2,12.2 6,-8.2 14.1,-12.2 24.4,-12.2 18.7,0 28,11.3 28,33.9 v 51.2 h -19.2 v -46 c 0,-7.9 -1,-13.6 -2.9,-16.8 -2,-3.3 -5.2,-5 -9.8,-5 -5.3,0 -9.1,2 -11.5,6 -2.4,4 -3.6,10.3 -3.6,19.1 v 42.8 H 273.9 V 94.4 c 0,-14.7 -4.3,-22.1 -12.8,-22.1 -5.4,0 -9.3,2 -11.8,6 -2.5,4 -3.7,10.4 -3.7,19.1 v 42.8 h -19.1 z"
   id="path3" />
        <path
   class="st1"
   d="M 369.6,185.2 H 350.5 V 57.3 h 19.1 v 9 c 7.5,-7.5 16.1,-11.3 25.7,-11.3 11.4,0 20.8,4.2 28.1,12.6 7.5,8.3 11.2,18.9 11.2,31.6 0,12.4 -3.7,22.8 -11.1,31 -7.4,8.2 -16.7,12.3 -27.9,12.3 -9.7,0 -18.4,-3.9 -26,-11.6 z m 45.5,-85.9 c 0,-7.9 -2.2,-14.4 -6.5,-19.4 -4.4,-5 -9.9,-7.6 -16.5,-7.6 -7,0 -12.7,2.4 -17.1,7.3 -4.4,4.9 -6.5,11.3 -6.5,19.2 0,7.8 2.2,14.2 6.5,19.2 4.3,4.9 10,7.4 17,7.4 6.6,0 12.1,-2.5 16.4,-7.5 4.4,-4.9 6.7,-11.2 6.7,-18.6 z"
   id="path4" />
</g>
    <g
   id="g11"
   transform="matrix(0.65192492,0,0,0.65192492,-38.454211,52.567339)">
	<path
   d="m 166.5,181.9 h -7.2 v -21.5 h -5.8 v -6 h 19 v 6 h -6 z"
   id="path5" />
        <path
   d="m 198.5,181.9 h -8.9 l -6.8,-10.6 v 10.6 h -7.2 v -27.6 h 11.1 c 1.6,0 2.9,0.2 4,0.6 1.1,0.4 2,1 2.8,1.9 0.7,0.8 1.3,1.7 1.7,2.8 0.4,1 0.6,2.2 0.6,3.3 0,1.2 -0.2,2.4 -0.7,3.5 -0.4,1.1 -1.1,2 -1.9,2.6 -0.5,0.4 -1,0.7 -1.5,1 -0.5,0.2 -1.2,0.5 -2,0.7 z m -14.4,-15.2 c 1.4,0 2.4,-0.2 3,-0.7 0.4,-0.3 0.7,-0.7 1,-1.2 0.3,-0.5 0.4,-1 0.4,-1.5 0,-0.5 -0.1,-1 -0.4,-1.5 -0.3,-0.5 -0.6,-0.9 -1,-1.2 -0.7,-0.5 -1.7,-0.7 -3,-0.7 h -1.3 v 6.9 h 1.3 z"
   id="path6" />
        <path
   d="m 209.7,177.1 -1.9,4.8 h -7.6 l 10.6,-27.6 h 7.8 l 10.4,27.6 h -7.7 l -1.8,-4.8 z m 5.1,-14.3 -3,8.8 h 6 z"
   id="path7" />
        <path
   d="m 232.2,154.3 h 10.6 c 1.8,0 3.6,0.4 5.2,1.1 1.6,0.7 3.1,1.7 4.3,3 1.2,1.3 2.2,2.7 3,4.4 0.7,1.7 1.1,3.4 1.1,5.3 0,1.9 -0.4,3.6 -1.1,5.3 -0.7,1.7 -1.7,3.2 -3,4.4 -1.2,1.3 -2.7,2.3 -4.3,3 -1.6,0.7 -3.4,1.1 -5.2,1.1 h -10.6 z m 8.9,21.5 c 1.3,0 2.5,-0.2 3.4,-0.6 0.9,-0.4 1.7,-1 2.5,-1.8 0.6,-0.7 1.1,-1.5 1.5,-2.5 0.3,-0.9 0.5,-1.9 0.5,-3 0,-1 -0.2,-2 -0.5,-2.9 -0.3,-0.9 -0.8,-1.8 -1.5,-2.5 -0.7,-0.8 -1.5,-1.4 -2.5,-1.8 -0.9,-0.4 -2.1,-0.6 -3.4,-0.6 h -1.6 v 15.5 h 1.6 z"
   id="path8" />
        <path
   d="M 268.2,181.9 H 261 v -27.6 h 7.2 z"
   id="path9" />
        <path
   d="m 273.9,154.3 h 7.2 l 13.2,16.9 v -16.9 h 7.2 v 27.6 h -7.2 L 281.1,165 v 16.9 h -7.2 z"
   id="path10" />
        <path
   d="m 335.3,166.6 c 0,2 -0.2,3.7 -0.4,4.9 -0.2,1.3 -0.6,2.5 -1.1,3.6 -1.2,2.5 -2.8,4.5 -5,5.8 -2.2,1.3 -4.7,2 -7.7,2 -2.2,0 -4.2,-0.4 -6,-1.1 -1.8,-0.7 -3.4,-1.7 -4.7,-3 -1.3,-1.3 -2.3,-2.8 -3,-4.6 -0.7,-1.8 -1.1,-3.8 -1.1,-6 0,-2.2 0.4,-4.2 1.1,-6 0.7,-1.8 1.8,-3.4 3.1,-4.7 1.3,-1.3 2.9,-2.3 4.7,-3 1.8,-0.7 3.9,-1.1 6.1,-1.1 3,0 5.4,0.6 7.4,1.9 2,1.3 3.7,3.2 5,5.9 L 327,164 c -1.2,-2.9 -3.2,-4.4 -5.9,-4.4 -1,0 -2,0.2 -2.8,0.7 -0.9,0.4 -1.6,1 -2.3,1.8 -0.6,0.8 -1.2,1.7 -1.5,2.7 -0.3,1 -0.5,2.2 -0.5,3.5 0,1.3 0.2,2.5 0.6,3.7 0.4,1.2 1,2.2 1.8,3 1.2,1.3 2.8,2 4.9,2 2.1,0 3.6,-0.7 4.7,-2 0.3,-0.4 0.5,-0.8 0.6,-1.2 0.1,-0.4 0.3,-0.9 0.4,-1.6 h -6 v -5.6 z"
   id="path11" />
</g>
    </g>
</svg>
