<svg
   version="1.1"
   id="svg1"
   width="745.76019"
   height="479.88071"
   viewBox="0 0 745.7602 479.88069"
   sodipodi:docname="harvest.svg"
   inkscape:version="1.3.2 (091e20ef0f, 2023-11-25)"
   xmlns:inkscape="http://www.inkscape.org/namespaces/inkscape"
   xmlns:sodipodi="http://sodipodi.sourceforge.net/DTD/sodipodi-0.dtd"
   xmlns="http://www.w3.org/2000/svg"
   xmlns:svg="http://www.w3.org/2000/svg">
  <defs
     id="defs1" />
  <sodipodi:namedview
     id="namedview1"
     pagecolor="#ffffff"
     bordercolor="#000000"
     borderopacity="0.25"
     inkscape:showpageshadow="2"
     inkscape:pageopacity="0.0"
     inkscape:pagecheckerboard="0"
     inkscape:deskcolor="#d1d1d1"
     inkscape:zoom="0.28941694"
     inkscape:cx="1278.4324"
     inkscape:cy="720.41395"
     inkscape:window-width="2516"
     inkscape:window-height="1352"
     inkscape:window-x="0"
     inkscape:window-y="0"
     inkscape:window-maximized="1"
     inkscape:current-layer="layer1"
     inkscape:export-bgcolor="#ffffff00" />
  <g
     inkscape:groupmode="layer"
     id="layer1"
     inkscape:label="Image 1"
     transform="translate(-907.67998,-480.11925)">
    <path
       style="fill:#000000"
       d="m 1522.56,933.43997 v -26.56 h 3.2 3.2 v 3.68 c 0,2.024 0.1174,3.68 0.2608,3.68 0.1434,0 0.4869,-0.47441 0.7634,-1.05424 0.2765,-0.57982 1.2524,-1.8745 2.1687,-2.87706 6.8161,-7.45784 19.4947,-5.03833 24.2527,4.62822 1.7721,3.60033 2.3889,6.54131 2.4042,11.46308 0.015,4.9706 -0.4823,7.46511 -2.221,11.13377 -5.244,11.06477 -19.7389,12.89853 -25.9274,3.2801 -0.6717,-1.04405 -1.3505,-1.90629 -1.5084,-1.91608 -0.1672,-0.0104 -0.2169,4.39325 -0.119,10.5422 l 0.168,10.56 h -3.321 -3.321 z m 22.207,7.23016 c 4.4017,-2.15352 7.028,-7.34849 7.0525,-13.95016 0.02,-5.28725 -1.3777,-9.46131 -4.1078,-12.27037 -2.3086,-2.37531 -3.6726,-2.92771 -7.2317,-2.92875 -2.764,-8e-4 -3.1936,0.0842 -4.7322,0.93666 -3.2013,1.7735 -5.4636,5.02766 -6.3269,9.10051 -0.9144,4.31403 -0.3909,10.48276 1.145,13.49347 0.8344,1.63548 3.1913,4.21675 4.7038,5.15153 2.8645,1.77036 6.471,1.94774 9.4973,0.46711 z m -528.0534,6.17808 c -5.522,-0.83287 -10.2271,-4.26304 -12.9368,-9.43142 -1.8748,-3.57597 -2.3158,-5.68672 -2.3014,-11.01682 0.011,-4.14185 0.1036,-4.91485 0.8604,-7.2 1.1573,-3.49451 2.8804,-6.27558 5.279,-8.5202 3.5039,-3.27914 7.4325,-4.76241 12.5452,-4.73663 6.7775,0.0342 11.689,2.96512 14.5492,8.68234 0.6219,1.24326 1.1308,2.51647 1.1308,2.82936 0,0.36748 -0.9346,1.14603 -2.64,2.19906 -2.3124,1.42794 -2.6662,1.56045 -2.8511,1.06812 -0.1161,-0.30913 -0.5183,-1.43189 -0.8939,-2.49503 -0.9332,-2.64146 -2.6821,-4.83373 -4.815,-6.03541 -1.6062,-0.90499 -2.0115,-0.99161 -4.64,-0.99161 -2.376,0 -3.1471,0.13153 -4.4063,0.75162 -4.55,2.24055 -7.3521,7.80081 -7.3619,14.60838 -0.01,5.34072 1.3579,9.20362 4.321,12.22314 4.6345,4.72275 11.8345,4.17427 15.7812,-1.20217 0.6592,-0.89797 1.5303,-2.44904 1.9358,-3.44682 0.4055,-0.99779 0.8527,-1.81415 0.9938,-1.81415 0.453,0 5.2164,3.14109 5.2164,3.43981 0,0.60799 -2.8383,4.63594 -4.3858,6.22416 -3.0831,3.16405 -6.3953,4.67198 -10.9757,4.99679 -1.3191,0.0936 -3.3013,0.0339 -4.4049,-0.13252 z m 63.2777,0.0302 c -6.0165,-0.94449 -10.5296,-4.19006 -13.0756,-9.40315 -1.6854,-3.45093 -2.104,-5.59785 -2.0659,-10.59533 0.053,-6.96793 1.8438,-11.81788 5.8622,-15.87696 3.3938,-3.42816 7.4074,-5.08304 12.328,-5.08304 9.2812,0 15.1578,6.04736 16.473,16.9516 0.1799,1.49138 0.327,3.18338 0.327,3.76 v 1.0484 h -14.2007 -14.2007 l 0.1525,1.52 c 0.5795,5.77587 3.1097,9.99096 7.1289,11.87636 2.3736,1.11341 5.9953,1.13732 8.7662,0.0579 2.4841,-0.96769 5.4867,-3.92005 6.5993,-6.48876 0.437,-1.009 0.9133,-1.837 1.0585,-1.84 0.4118,-0.009 4.9998,3.32037 5.0084,3.6339 0.016,0.58182 -2.9114,4.33642 -4.4818,5.74833 -4.2119,3.78683 -10.14,5.56036 -15.6793,4.69079 z m 12.9568,-25.51848 c -0.844,-5.03975 -3.3092,-8.6222 -6.7874,-9.86344 -1.6444,-0.58683 -4.7783,-0.56165 -6.5818,0.0529 -1.8007,0.61355 -4.4075,2.87945 -5.5442,4.81906 -0.8089,1.38034 -2.0347,4.83825 -2.0347,5.74001 0,0.37954 1.6851,0.45149 10.5745,0.45149 h 10.5745 z m 19.7643,25.48412 c -3.4228,-0.57004 -6.3411,-2.67226 -7.787,-5.60947 -0.6443,-1.3088 -0.7654,-2.03541 -0.7654,-4.59465 0,-2.71388 0.1008,-3.24598 0.9397,-4.96 2.6375,-5.38952 9.664,-8.93442 21.1403,-10.66544 l 3.84,-0.57921 -0.074,-1.57768 c -0.1731,-3.70906 -1.7486,-6.33966 -4.4044,-7.35393 -2.2234,-0.84913 -5.8605,-0.53233 -8.5985,0.74894 -2.5024,1.171 -5.3697,3.76339 -6.7635,6.11492 -0.528,0.89083 -1.0497,1.62255 -1.1593,1.62605 -0.1487,0.005 -3.8399,-2.88523 -4.719,-3.69465 -0.2062,-0.18994 2.0964,-3.12678 3.5345,-4.50805 2.1368,-2.05218 5.073,-3.77358 8.166,-4.78736 2.5605,-0.83924 3.2124,-0.92195 7.1378,-0.90558 3.6852,0.0154 4.5856,0.12275 6.1271,0.73068 2.149,0.8475 4.4548,2.7886 5.5671,4.68661 1.5227,2.59827 1.7342,4.73113 1.7403,17.54573 0,7.49821 0.126,12.00605 0.3368,12.4 0.3805,0.71094 2.4539,0.8635 3.5758,0.2631 0.6458,-0.34566 0.6585,-0.30662 0.441,1.36 -0.1231,0.94372 -0.3018,2.03331 -0.397,2.42129 -0.3856,1.57112 -5.4389,2.08939 -7.5644,0.7758 -1.9101,-1.18055 -2.5975,-2.64686 -2.7844,-5.94 l -0.1623,-2.85877 -1.3634,2.11219 c -2.5609,3.96736 -6.4312,6.61417 -10.6366,7.27411 -2.3658,0.37127 -3.0081,0.36832 -5.3676,-0.0246 z m 6.7119,-5.44421 c 3.9318,-0.8349 7.7702,-3.88296 9.4156,-7.47698 0.8889,-1.94181 1.7429,-7.64013 1.2192,-8.13596 -0.174,-0.16479 -1.5699,-0.0942 -3.3391,0.16882 -10.6604,1.58497 -15.6495,4.70914 -15.6729,9.81448 -0.013,2.82194 1.3178,4.71308 3.8787,5.51199 1.7564,0.54791 2.3937,0.56458 4.4985,0.11765 z m 118.1396,5.49598 c -7.204,-1.12411 -12.5703,-6.29756 -14.5463,-14.02367 -0.8632,-3.37503 -0.8567,-9.59466 0.014,-12.99719 1.7998,-7.03744 6.95,-12.27198 13.3847,-13.604 2.1241,-0.4397 5.8427,-0.45171 8.1006,-0.0262 6.4769,1.2207 11.8536,6.70125 13.766,14.03173 0.8855,3.39461 0.8779,9.17238 -0.017,12.61956 -1.688,6.50476 -6.1587,11.59049 -11.7057,13.31605 -2.2706,0.70633 -6.6957,1.04264 -8.9961,0.68369 z m 7.4492,-5.94784 c 4.3196,-2.11338 6.9373,-7.60297 6.9373,-14.54805 0,-7.31642 -2.9509,-12.93195 -7.7467,-14.74191 -3.815,-1.4398 -8.4128,-0.33227 -11.1366,2.68261 -4.8531,5.37182 -5.2701,16.93588 -0.842,23.34885 2.7401,3.96822 8.3932,5.40869 12.788,3.2585 z m 62.2914,5.93572 c -2.5998,-0.54904 -4.3845,-1.96563 -5.4475,-4.32378 -0.524,-1.16245 -0.5857,-2.62442 -0.672,-15.91999 l -0.095,-14.64 h -3.345 -3.345 v -2.56 -2.56 h 3.36 3.36 v -3.31653 -3.31652 l 1.52,-0.56078 c 0.836,-0.30842 2.2739,-0.97598 3.1952,-1.48347 0.9213,-0.50749 1.7717,-0.9227 1.8897,-0.9227 0.1181,0 0.126,2.16 0.018,4.8 l -0.197,4.8 h 4.1472 4.1473 v 2.56 2.56 h -4.16 -4.16 l 0.01,12.88 c 0,7.084 0.1411,13.456 0.3042,14.15999 0.4226,1.82399 1.2803,2.4 3.5739,2.4 1.0421,0 2.4163,-0.21789 3.0536,-0.4842 0.6374,-0.26631 1.2184,-0.42465 1.2912,-0.35187 0.073,0.0728 -0.021,1.2371 -0.2091,2.58736 -0.1878,1.35026 -0.3415,2.58305 -0.3415,2.73954 0,0.74737 -5.6436,1.42853 -7.8955,0.95295 z m 69.3269,-0.005 c -6.0166,-0.94449 -10.5297,-4.19006 -13.0757,-9.40315 -1.6854,-3.45093 -2.104,-5.59785 -2.0659,-10.59533 0.053,-6.96793 1.8438,-11.81788 5.8622,-15.87696 3.3938,-3.42816 7.4074,-5.08304 12.328,-5.08304 7.5775,0 12.7868,3.91985 15.3096,11.52 0.7449,2.24396 1.4875,6.8305 1.4895,9.2 l 9e-4,1.04 h -14.2095 -14.2096 l 0.1533,1.36 c 0.6955,6.17011 3.0437,10.12686 7.1458,12.0408 2.3759,1.10853 6.0011,1.13062 8.7662,0.0534 2.4841,-0.96769 5.4867,-3.92005 6.5993,-6.48876 0.437,-1.009 0.9133,-1.837 1.0585,-1.84 0.4118,-0.009 4.9998,3.32037 5.0084,3.6339 0.016,0.58182 -2.9114,4.33642 -4.4818,5.74833 -4.2118,3.78683 -10.14,5.56036 -15.6792,4.69079 z m 12.9567,-25.51848 c -0.844,-5.03975 -3.3092,-8.6222 -6.7874,-9.86344 -1.6444,-0.58683 -4.7782,-0.56165 -6.5818,0.0529 -1.8007,0.61355 -4.4075,2.87945 -5.5442,4.81906 -0.8089,1.38034 -2.0347,4.83825 -2.0347,5.74001 0,0.37954 1.6851,0.45149 10.5745,0.45149 h 10.5745 z m 41.7561,25.5005 c -3.8651,-0.56906 -8.1183,-2.86295 -10.5379,-5.68346 -1.7819,-2.07715 -3.4281,-5.33067 -4.1752,-8.25208 -0.7696,-3.0092 -0.8457,-8.81966 -0.1579,-12.06563 0.9972,-4.70604 3.847,-9.1115 7.5983,-11.74595 3.4476,-2.42115 5.6281,-3.03787 10.6485,-3.01171 3.5675,0.0186 4.4335,0.12826 6.08,0.77003 4.0419,1.57541 6.5213,3.85152 8.4984,7.8018 0.6939,1.38633 1.2616,2.68425 1.2616,2.88427 0,0.28528 -4.3875,3.22858 -5.4501,3.65615 -0.1284,0.0517 -0.3326,-0.43483 -0.4538,-1.0811 -0.6897,-3.67608 -3.5081,-7.33338 -6.5303,-8.47397 -2.5789,-0.97326 -5.9771,-0.76805 -8.3103,0.50185 -4.7086,2.56274 -7.3738,8.5464 -6.9837,15.6793 0.4018,7.34784 3.5675,12.1921 8.9993,13.77118 4.8769,1.41774 9.8785,-1.12043 12.4885,-6.33757 0.6162,-1.23178 1.1204,-2.43626 1.1204,-2.67661 0,-0.24035 0.094,-0.437 0.2081,-0.437 0.1625,0 5.0069,2.9815 5.5065,3.38901 0.3483,0.2841 -2.6387,4.45662 -4.6162,6.44835 -4.1559,4.18577 -9.0832,5.76285 -15.1942,4.86314 z m 63.1295,-0.0101 c -6.7226,-1.02116 -11.651,-5.44144 -14.06,-12.6104 -0.7869,-2.3419 -0.8617,-2.99621 -0.8769,-7.68 -0.016,-4.80385 0.04,-5.294 0.9068,-7.93784 1.9148,-5.84171 5.7188,-9.93137 10.9423,-11.76387 2.4358,-0.85453 7.39,-1.16797 10.0838,-0.63798 6.6684,1.31192 11.7026,6.30659 13.7889,13.6807 0.9076,3.20773 0.9771,9.33268 0.1444,12.73014 -1.611,6.57363 -6.2139,11.8346 -11.8876,13.58702 -2.4517,0.75725 -6.4008,1.03338 -9.0417,0.63223 z m 7.4133,-5.86024 c 3.3587,-1.64322 5.829,-5.38805 6.7583,-10.24502 0.8754,-4.57525 0.3583,-9.41925 -1.4003,-13.11844 -1.954,-4.11031 -4.8697,-6.26284 -8.8235,-6.51398 -1.2438,-0.079 -2.846,0.0145 -3.5604,0.2077 -3.3821,0.91485 -6.2721,4.09673 -7.7185,8.498 -1.5786,4.80367 -1.0934,12.09757 1.085,16.31188 0.6761,1.30794 3.2465,3.98867 4.4024,4.59142 3.0483,1.58951 6.3605,1.68556 9.257,0.26844 z M 1042.24,926.39997 v -19.52 h 3.191 3.191 l 0.089,4.4 0.089,4.4 1.2148,-2.27272 c 3.272,-6.12149 8.0404,-8.80713 12.2252,-6.88545 2.4485,1.12436 2.5094,1.39367 1.0576,4.67817 -0.7002,1.584 -1.3277,2.93516 -1.3946,3.00258 -0.067,0.0674 -0.6187,-0.31395 -1.2263,-0.8475 -4.3182,-3.79138 -10.4603,1.69091 -11.7371,10.47619 -0.2784,1.91526 -0.3425,5.55584 -0.2184,12.4 l 0.1756,9.68872 h -3.3284 -3.3284 z m 104,0 v -19.52 h 3.1917 3.1917 l 0.088,4.87498 0.088,4.87499 1.0702,-2.17552 c 1.388,-2.82158 4.2701,-5.89112 6.8398,-7.28454 1.9236,-1.04307 2.1545,-1.08991 5.37,-1.08991 2.8632,0 3.5818,0.10921 4.8597,0.73869 2.7825,1.37059 4.697,4.12032 5.4447,7.82 l 0.4253,2.10446 1.2752,-2.4256 c 1.6069,-3.05669 4.4952,-6.04775 7.0523,-7.30327 1.7411,-0.85489 2.1884,-0.93354 5.2628,-0.92549 3.0135,0.008 3.5296,0.0973 5.0041,0.86721 3.1679,1.65397 4.9631,4.71157 5.5726,9.49133 0.1706,1.33796 0.3446,8.51674 0.3868,15.95282 l 0.077,13.52016 -3.4279,-1.6e-4 -3.4279,-1.6e-4 -0.092,-14.8092 -0.092,-14.80919 -0.8172,-1.5908 c -1.0928,-2.12723 -2.7963,-3.0948 -5.4487,-3.0948 -3.7638,0 -7.0064,2.46856 -9.1214,6.944 -1.8035,3.81643 -2.0527,5.91199 -2.0527,17.2665 v 10.09349 h -3.1821 -3.1821 l -0.1065,-14.47999 c -0.095,-12.91061 -0.1677,-14.63559 -0.6704,-15.91547 -1.0652,-2.71236 -2.8967,-3.91838 -5.9504,-3.91838 -4.4949,0 -8.6401,4.27748 -10.46,10.79385 -0.4363,1.56201 -0.5643,3.93368 -0.6868,12.72 l -0.1505,10.79999 h -3.1656 -3.1656 z m 120.96,2.56 v -16.96 h -3.2 -3.2 v -2.56 -2.56 h 3.2 3.2 v -3.14192 c 0,-5.25441 1.3229,-8.04526 4.4743,-9.43928 1.7076,-0.75537 5.6583,-0.87565 8.222,-0.25033 1.5654,0.38181 1.666,0.46843 1.8315,1.57776 0.4547,3.04787 0.5719,4.21377 0.4235,4.21377 -0.089,0 -0.7891,-0.28484 -1.5563,-0.63298 -1.7095,-0.7757 -4.6321,-0.85749 -5.6313,-0.15759 -0.93,0.6514 -1.3597,2.33957 -1.3619,5.35057 v 2.48 h 3.68 3.68 v 2.56 2.56 h -3.7087 -3.7087 l 0.1087,16.96008 0.1087,16.96009 -3.28,-9e-5 -3.28,-9e-5 z m 54.4,-8.64 v -25.6 h 3.2 3.2 v 11.44 11.44 l 1.3276,-2.4 c 1.884,-3.40598 4.9634,-6.39814 8.1509,-7.9201 2.4102,-1.1508 2.6505,-1.1999 5.873,-1.1999 3.0302,0 3.5567,0.0908 5.3638,0.92539 3.252,1.50186 5.4405,4.54647 6.1446,8.54847 0.1671,0.94937 0.346,8.17019 0.3977,16.04625 l 0.094,14.32011 -3.28,-1.1e-4 -3.28,-1.2e-4 v -13.17378 c 0,-8.10254 -0.1348,-13.94802 -0.3502,-15.18504 -0.4721,-2.71121 -1.7255,-4.62964 -3.6255,-5.54943 -1.9916,-0.96414 -5.3622,-0.83574 -7.7043,0.2935 -2.3201,1.11864 -5.8726,4.81874 -7.146,7.44296 -1.7521,3.61052 -1.9622,5.3541 -1.9684,16.3318 l -0.01,9.83999 h -3.2 -3.2 z m 135.04,6.08 v -19.52 h 3.36 3.36 v 4.52299 4.52299 l 1.155,-2.30869 c 1.4146,-2.82755 4.3995,-6.09978 6.4385,-7.0582 2.1025,-0.98829 4.9174,-0.80722 6.798,0.43728 1.5658,1.03616 1.565,1.06263 -0.1451,4.76373 l -1.1364,2.45964 -1.4349,-1.01141 c -1.9768,-1.39336 -4.0531,-1.41514 -5.9938,-0.0629 -1.8056,1.25819 -3.9101,4.45062 -4.8005,7.28246 -0.6923,2.20143 -0.7208,2.75075 -0.7208,13.89217 v 11.60011 l -3.44,-1.1e-4 -3.44,-1.1e-4 z M 918.08002,785.14313 c 0,-35.02355 -0.11059,-52.46285 -0.34347,-54.16 -0.68935,-5.02377 -2.96367,-8.14573 -7.55799,-10.37486 l -2.49854,-1.21226 18,-0.018 18.00001,-0.018 v 23.84 23.84 h 34.08 34.07997 v -23.84 -23.84 h 12.8 12.8 v 58.72 58.72 h -12.8 -12.8 v -23.52 -23.52 h -34.07997 -34.08 v 23.52 23.52 h -12.80001 -12.8 z M 1097.6,836.45945 c -11.3847,-1.39661 -20.9391,-5.46771 -28.759,-12.25417 -5.9527,-5.166 -10.8423,-12.40261 -14.0832,-20.8429 -5.572,-14.51163 -5.9557,-33.9623 -0.9658,-48.96241 5.3067,-15.9523 16.0224,-27.43711 30.688,-32.89047 8.489,-3.15661 20.3019,-4.22927 29.1747,-2.64919 9.5634,1.70304 19.3119,7.13046 24.9977,13.91726 l 1.1876,1.4176 v -7.0976 -7.0976 h 12.16 12.16 v 57.6 57.6 h -12.154 -12.154 l -0.086,-7.23947 -0.086,-7.23946 -1.242,1.80391 c -4.1965,6.09501 -14.095,11.70675 -23.8491,13.52081 -3.2446,0.60341 -13.4221,0.85125 -16.9889,0.41369 z m 19.2,-21.73386 c 3.4907,-0.89224 8.5039,-3.33227 11.36,-5.52922 5.7994,-4.4609 10.2086,-11.65504 12.1468,-19.81879 4.038,-17.00897 -0.7497,-34.60777 -11.79,-43.33772 -6.2066,-4.90779 -13.4497,-7.15016 -21.7788,-6.74244 -16.1736,0.7917 -27.5696,11.45663 -30.8213,28.84386 -0.8442,4.51446 -0.7476,14.96765 0.1779,19.25199 3.3893,15.68873 12.3156,25.21065 26.0924,27.83333 3.4341,0.65376 11.1271,0.39 14.613,-0.50101 z m 298.88,21.737 c -12.7706,-1.58332 -23.3043,-6.55892 -31.9566,-15.09467 -14.347,-14.15374 -20.3158,-36.17466 -15.8532,-58.48795 4.0535,-20.26803 16.6785,-35.50728 34.5461,-41.69943 12.5646,-4.35438 29.2617,-4.04983 41.5875,0.75854 16.3411,6.37476 28.1766,21.14582 31.5225,39.34089 0.7902,4.2972 1.1546,12.43353 0.806,18 l -0.2354,3.76 h -42.6695 c -23.4683,0 -42.7401,0.11406 -42.8262,0.25347 -0.2975,0.48126 1.0807,7.49769 2.0281,10.32553 3.9886,11.90503 12.1118,19.38551 23.6907,21.81624 3.9311,0.82524 10.8157,0.88715 14.7428,0.13259 10.2022,-1.9603 17.6355,-7.58193 20.2002,-15.27701 l 0.7902,-2.37082 11.8934,-0.0839 c 6.5414,-0.0462 11.8934,-0.0196 11.8934,0.0591 0,0.0786 -0.2189,1.19638 -0.4865,2.48389 -1.6964,8.1611 -5.7375,15.73594 -11.4907,21.53877 -7.3616,7.42506 -16.286,11.80641 -28.3508,13.91855 -4.5387,0.79458 -15.6453,1.14528 -19.832,0.62622 z m 34.6996,-72.58956 c 0.3047,-0.49294 -0.7244,-5.58091 -1.7219,-8.51368 -1.4207,-4.17692 -3.3148,-7.28456 -6.2577,-10.26671 -5.6444,-5.71987 -12.5136,-8.12597 -22.0464,-7.72231 -5.0347,0.21318 -8.1565,0.95571 -12.1936,2.90034 -7.3961,3.56265 -12.5334,9.92402 -15.4836,19.17313 -0.548,1.7181 -0.9964,3.4821 -0.9964,3.92 v 0.79617 h 29.2612 c 16.9148,0 29.3359,-0.12107 29.4384,-0.28694 z m 74.1004,72.57323 c -20.4398,-2.30527 -35.8367,-14.41188 -40.199,-31.6085 -0.4254,-1.67719 -0.8846,-4.31581 -1.0204,-5.86361 l -0.2469,-2.81418 h 11.8682 11.8681 l 0.3669,2.1418 c 1.2608,7.3603 8.5371,14.32909 17.5231,16.78249 3.6704,1.00209 11.9274,1.00331 15.68,0.002 5.8255,-1.55389 10.4837,-4.81969 12.2491,-8.58762 0.7462,-1.59273 0.8709,-2.27244 0.8709,-4.74582 0,-2.61693 -0.098,-3.0866 -1.0517,-5.02316 -1.1916,-2.42033 -2.9299,-4.12113 -5.7341,-5.61051 -2.8228,-1.49926 -4.715,-2.03934 -17.6942,-5.0503 -14.1265,-3.27714 -17.3124,-4.2542 -22.88,-7.01696 -11.6333,-5.77273 -16.6932,-12.83828 -17.7883,-24.83927 -1.2193,-13.36196 4.9693,-24.15463 17.5554,-30.61582 5.9372,-3.04792 10.8295,-4.46038 17.9468,-5.18141 26.9654,-2.73179 48.5644,11.43601 52.0534,34.14427 l 0.209,1.36 h -11.862 -11.8621 l -0.1877,-0.88 c -0.3737,-1.75208 -1.5344,-4.74683 -2.3251,-5.99952 -2.7123,-4.29649 -8.6829,-7.76023 -15.1848,-8.80909 -3.0268,-0.48829 -8.9063,-0.25095 -11.5395,0.46583 -4.506,1.22656 -8.1102,3.88199 -9.7209,7.16195 -0.7691,1.56607 -0.8931,2.2014 -0.8863,4.54083 0.01,3.25185 0.6799,4.89149 2.9356,7.17952 3.1912,3.23696 5.1579,3.93803 20.6894,7.37537 6.7139,1.48588 13.5751,3.11678 15.2471,3.62423 9.7477,2.95835 17.6163,7.62893 21.3778,12.68908 3.8849,5.22634 5.842,13.05883 5.4,21.6118 -0.2358,4.56153 -1.0733,7.91093 -2.9566,11.82399 -5.7618,11.97138 -18.711,19.92768 -35.4085,21.7558 -3.5711,0.39097 -11.7706,0.38373 -15.2927,-0.0135 z m 106.7472,-0.14419 c -13.9284,-1.89627 -24.0812,-9.72951 -27.9847,-21.59124 -1.81,-5.50009 -1.7443,-4.12611 -1.9408,-40.63086 l -0.1817,-33.76 -10.16,-0.0845 -10.16,-0.0845 v -10.0755 -10.07551 h 10.0304 c 9.1525,0 10.0734,-0.049 10.5213,-0.56 0.2699,-0.308 4.8737,-6.824 10.2306,-14.48 12.475,-17.82903 12.774,-18.24 13.2729,-18.24 0.339,0 0.4349,3.16584 0.502,16.56 l 0.083,16.56 14,0.0834 14,0.0834 v 10.07327 10.07328 l -14,0.0834 -14,0.0834 v 30.72 c 0,28.54647 0.041,30.86717 0.5736,32.8 0.9333,3.38457 1.9997,5.3445 3.9926,7.33734 3.5123,3.51236 7.095,4.67769 13.5138,4.39557 2.3815,-0.10466 5.0765,-0.44228 6.6603,-0.83436 1.4632,-0.3622 2.7952,-0.65855 2.96,-0.65855 0.1802,0 0.2997,4.19194 0.2997,10.51371 v 10.51371 l -2.48,0.52084 c -5.9116,1.24153 -13.6276,1.50501 -19.7328,0.67384 z M 1183.68,777.59997 v -57.6 h 12.16 12.16 l 0.01,10.64 0.01,10.64 1.352,-2.56 c 2.0491,-3.88002 3.2475,-5.47821 6.6005,-8.80275 6.3421,-6.28823 14.5639,-10.41979 22.979,-11.54726 3.1505,-0.42211 10.9238,-0.21498 12.3551,0.32922 0.6098,0.23184 10.0462,0.34079 29.5156,0.34079 26.7659,0 31.7394,0.15052 27.0991,0.82013 -4.6129,0.66567 -8.8416,2.7944 -11.7808,5.93048 -2.1883,2.33494 -3.2165,4.18722 -3.9788,7.16815 -1.1777,4.60471 -1.6263,1.7021 8.1058,52.45635 3.2384,16.88866 5.9816,30.42749 6.1784,30.49309 0.4809,0.16027 6.1967,-5.34439 10.5972,-10.20559 13.1375,-14.51307 19.9751,-27.46785 22.6936,-42.99635 0.865,-4.94092 0.7802,-16.23506 -0.1633,-21.73306 -1.3683,-7.97447 -1.2494,-11.05234 0.5833,-15.09418 2.5038,-5.52212 8.7989,-8.93551 15.3508,-8.32368 5.1264,0.47871 10.0099,4.86506 12.2565,11.00877 0.9386,2.56657 1.1339,8.05567 0.4133,11.61211 -1.9288,9.51914 -6.9649,19.20478 -16.9073,32.51681 -9.4246,12.61888 -20.7545,24.71957 -35.9087,38.35144 -7.5516,6.79308 -25.5759,22.50935 -26.7112,23.29088 -1.1204,0.77131 -2.1441,0.68183 -2.7483,-0.24023 -0.3066,-0.46799 -1.8005,-7.60609 -3.7001,-17.68 -11.867,-62.93163 -14.1253,-74.59493 -14.6919,-75.87571 -1.4598,-3.30005 -5.9761,-8.28802 -12.6285,-13.94736 l -2.88,-2.45008 -0.085,8.80902 c -0.047,4.84496 -0.1908,8.80899 -0.32,8.80896 -0.1292,-3e-5 -1.387,-0.23536 -2.795,-0.52295 -1.7093,-0.34915 -4.2612,-0.52844 -7.68,-0.5396 -4.6778,-0.0153 -5.363,0.0578 -7.9349,0.84587 -4.8221,1.47763 -8.4758,3.69074 -12.0193,7.28022 -6.8563,6.94517 -11.5581,19.24475 -12.8356,33.57651 -0.189,2.12118 -0.3284,14.08344 -0.3291,28.24 v 24.56 h -12.16 -12.16 z m 63.1623,-149.71434 c -13.9247,-6.64899 -26.0497,-12.62638 -26.9443,-13.28308 -2.677,-1.96512 -5.0666,-5.74175 -5.7975,-9.16257 -0.2659,-1.24468 -0.3474,-6.09198 -0.2782,-16.55518 l 0.098,-14.79518 29.36,13.98812 29.36,13.98812 v 18.96706 c 0,10.43188 -0.108,18.96137 -0.24,18.95443 -0.132,-0.007 -11.6329,-5.45272 -25.5577,-12.10172 z m 40.8377,-6.85115 v -19.01884 l 29.04,-13.84145 c 15.972,-7.6128 29.22,-13.91373 29.44,-14.00207 0.5296,-0.21265 0.5782,27.93477 0.053,30.80909 -0.5716,3.12935 -2.0363,5.7837 -4.5836,8.30614 l -2.2696,2.24737 -25.5483,12.15263 c -14.0516,6.68394 -25.6796,12.20063 -25.84,12.25929 -0.1735,0.0634 -0.2917,-7.59986 -0.2917,-18.91216 z m -44.48,-41.81432 -29.28,-13.99574 -0.082,-19.07172 -0.082,-19.07173 2.852,1.33951 c 1.5685,0.73672 14.8122,7.0275 29.4303,13.9795 l 26.5784,12.64 0.012,19.12 c 0.01,10.516 -0.024,19.10558 -0.068,19.08796 -0.044,-0.0176 -13.256,-6.33013 -29.36,-14.02778 z m 44.4836,-5.22018 v -18.96 l 28.5565,-13.57713 c 15.706,-7.46743 28.9536,-13.77171 29.439,-14.00952 l 0.8825,-0.43239 -0.082,19.07846 -0.083,19.07846 -29.12,13.88399 c -16.016,7.6362 -29.228,13.88718 -29.36,13.89107 -0.132,0.004 -0.2384,-8.52494 -0.2364,-18.95294 z m -44.5545,-41.79801 -29.3509,-13.96199 -0.01,-18.99732 c -0.01,-17.94458 0.022,-18.98819 0.5509,-18.83247 1.6898,0.49745 50.7291,24.17068 52.0229,25.11355 2.8162,2.05224 5.3161,6.11382 5.9827,9.72009 0.193,1.04394 0.2878,7.55388 0.2377,16.32813 l -0.083,14.59201 z m 44.5509,-1.0835 c 0,-16.48609 0.063,-17.19087 1.8477,-20.53453 0.4766,-0.89318 1.7478,-2.5173 2.825,-3.60917 2.2316,-2.26207 0.3095,-1.28385 34.3673,-17.49061 l 19.68,-9.36493 0.083,18.88181 c 0.045,10.385 -0.027,18.99074 -0.16,19.12386 -0.1334,0.13313 -13.0864,6.36004 -28.7844,13.8376 -15.698,7.47755 -28.838,13.75405 -29.2,13.94777 l -0.6582,0.35223 z"
       id="path1" />
  </g>
</svg>

