<?xml version="1.0" encoding="UTF-8" standalone="no"?>
<!-- Created with Inkscape (http://www.inkscape.org/) -->

<svg
   version="1.1"
   id="svg1"
   width="256"
   height="256"
   viewBox="0 0 256 255.99998"
   sodipodi:docname="harvest.svg"
   inkscape:version="1.3.2 (091e20ef0f, 2023-11-25)"
   inkscape:export-filename="harvest.svg"
   inkscape:export-xdpi="96"
   inkscape:export-ydpi="96"
   xmlns:inkscape="http://www.inkscape.org/namespaces/inkscape"
   xmlns:sodipodi="http://sodipodi.sourceforge.net/DTD/sodipodi-0.dtd"
   xmlns="http://www.w3.org/2000/svg"
   xmlns:svg="http://www.w3.org/2000/svg">
  <defs
     id="defs1" />
  <sodipodi:namedview
     id="namedview1"
     pagecolor="#ffffff"
     bordercolor="#000000"
     borderopacity="0.25"
     inkscape:showpageshadow="2"
     inkscape:pageopacity="0.0"
     inkscape:pagecheckerboard="0"
     inkscape:deskcolor="#d1d1d1"
     inkscape:zoom="0.28941694"
     inkscape:cx="-193.49247"
     inkscape:cy="-803.33929"
     inkscape:window-width="2516"
     inkscape:window-height="1352"
     inkscape:window-x="0"
     inkscape:window-y="0"
     inkscape:window-maximized="1"
     inkscape:current-layer="layer1"
     inkscape:export-bgcolor="#ffffff00" />
  <g
     inkscape:groupmode="layer"
     id="layer1"
     inkscape:label="Image 1"
     transform="matrix(3.4249247,0,0,3.4249247,-4258.0497,-2339.3183)">
    <path
       style="fill:#000000;stroke-width:0.1"
       d="m 1304.7601,741.39763 v -2.656 h 0.32 0.32 v 0.368 c 0,0.2024 0.012,0.368 0.026,0.368 0.014,0 0.049,-0.0474 0.076,-0.10542 0.028,-0.058 0.1253,-0.18745 0.2169,-0.28771 0.6816,-0.74578 1.9495,-0.50383 2.4253,0.46282 0.1772,0.36004 0.2388,0.65414 0.2404,1.14631 0,0.49706 -0.048,0.74651 -0.2221,1.11338 -0.5244,1.10648 -1.9739,1.28985 -2.5928,0.32801 -0.067,-0.10441 -0.135,-0.19063 -0.1508,-0.19161 -0.017,-10e-4 -0.022,0.43933 -0.012,1.05422 l 0.017,1.056 h -0.3321 -0.3321 z m 2.2207,0.72302 c 0.4402,-0.21535 0.7028,-0.73485 0.7052,-1.39502 0,-0.52872 -0.1377,-0.94613 -0.4107,-1.22703 -0.2309,-0.23754 -0.3673,-0.29278 -0.7232,-0.29288 -0.2764,-8e-5 -0.3194,0.008 -0.4732,0.0937 -0.3202,0.17735 -0.5464,0.50276 -0.6327,0.91005 -0.091,0.4314 -0.039,1.04827 0.1145,1.34934 0.083,0.16355 0.3191,0.42168 0.4704,0.51516 0.2864,0.17703 0.6471,0.19477 0.9497,0.0467 z m -52.8053,0.61781 c -0.5522,-0.0833 -1.0228,-0.42631 -1.2937,-0.94315 -0.1875,-0.35759 -0.2316,-0.56867 -0.2302,-1.10168 0,-0.41418 0.01,-0.49148 0.086,-0.72 0.1157,-0.34945 0.288,-0.62756 0.5279,-0.85202 0.3504,-0.32791 0.7432,-0.47624 1.2545,-0.47366 0.6777,0.003 1.1689,0.29651 1.4549,0.86823 0.062,0.12433 0.1131,0.25165 0.1131,0.28294 0,0.0367 -0.093,0.1146 -0.264,0.21991 -0.2312,0.14279 -0.2666,0.15604 -0.2851,0.10681 -0.012,-0.0309 -0.052,-0.14319 -0.089,-0.24951 -0.093,-0.26414 -0.2682,-0.48337 -0.4815,-0.60354 -0.1606,-0.0905 -0.2012,-0.0992 -0.464,-0.0992 -0.2376,0 -0.3147,0.0132 -0.4406,0.0752 -0.455,0.22406 -0.7352,0.78009 -0.7362,1.46084 -10e-4,0.53407 0.1358,0.92036 0.4321,1.22232 0.4634,0.47227 1.1834,0.41742 1.5781,-0.12022 0.066,-0.0898 0.153,-0.2449 0.1936,-0.34468 0.041,-0.0998 0.085,-0.18142 0.099,-0.18142 0.045,0 0.5216,0.31411 0.5216,0.34398 0,0.0608 -0.2838,0.4636 -0.4386,0.62242 -0.3083,0.3164 -0.6395,0.4672 -1.0976,0.49968 -0.1319,0.009 -0.3301,0.003 -0.4404,-0.0132 z m 6.3277,0.003 c -0.6016,-0.0945 -1.0529,-0.41901 -1.3075,-0.94032 -0.1686,-0.34509 -0.2104,-0.55978 -0.2066,-1.05953 0.01,-0.69679 0.1844,-1.18179 0.5862,-1.5877 0.3394,-0.34281 0.7407,-0.5083 1.2328,-0.5083 0.9281,0 1.5158,0.60473 1.6473,1.69516 0.018,0.14914 0.033,0.31834 0.033,0.376 v 0.10484 h -1.4201 -1.42 l 0.015,0.152 c 0.058,0.57759 0.311,0.99909 0.7129,1.18763 0.2374,0.11135 0.5995,0.11374 0.8766,0.006 0.2484,-0.0968 0.5487,-0.392 0.6599,-0.64887 0.044,-0.1009 0.091,-0.1837 0.1059,-0.184 0.041,-9e-4 0.5,0.33204 0.5008,0.36339 0,0.0582 -0.2911,0.43364 -0.4481,0.57483 -0.4212,0.37868 -1.014,0.55604 -1.568,0.46908 z m 1.2957,-2.55185 c -0.084,-0.50398 -0.3309,-0.86222 -0.6787,-0.98635 -0.1645,-0.0587 -0.4779,-0.0562 -0.6582,0.005 -0.1801,0.0614 -0.4408,0.28795 -0.5544,0.48191 -0.081,0.13803 -0.2035,0.48383 -0.2035,0.574 0,0.038 0.1685,0.0451 1.0574,0.0451 h 1.0575 z m 1.9764,2.54841 c -0.3422,-0.057 -0.6341,-0.26723 -0.7787,-0.56095 -0.064,-0.13088 -0.076,-0.20354 -0.076,-0.45946 0,-0.27139 0.01,-0.3246 0.094,-0.496 0.2637,-0.53895 0.9664,-0.89344 2.114,-1.06655 l 0.384,-0.0579 -0.01,-0.15776 c -0.017,-0.37091 -0.1749,-0.63397 -0.4404,-0.7354 -0.2224,-0.0849 -0.5861,-0.0532 -0.8599,0.0749 -0.2502,0.1171 -0.537,0.37634 -0.6763,0.61149 -0.053,0.0891 -0.105,0.16225 -0.116,0.1626 -0.015,5e-4 -0.384,-0.28852 -0.4719,-0.36946 -0.021,-0.019 0.2097,-0.31268 0.3535,-0.45081 0.2137,-0.20521 0.5073,-0.37735 0.8166,-0.47873 0.256,-0.0839 0.3212,-0.0922 0.7138,-0.0906 0.3685,0.002 0.4585,0.0123 0.6127,0.0731 0.2149,0.0847 0.4454,0.27886 0.5567,0.46866 0.1522,0.25983 0.1734,0.47311 0.174,1.75457 0,0.74982 0.013,1.20061 0.034,1.24 0.038,0.0711 0.2454,0.0863 0.3576,0.0263 0.064,-0.0346 0.066,-0.0307 0.044,0.136 -0.012,0.0944 -0.03,0.20333 -0.04,0.24213 -0.039,0.15711 -0.5439,0.20894 -0.7565,0.0776 -0.191,-0.11805 -0.2597,-0.26469 -0.2784,-0.594 l -0.016,-0.28588 -0.1364,0.21122 c -0.2561,0.39674 -0.6431,0.66142 -1.0636,0.72741 -0.2366,0.0371 -0.3009,0.0368 -0.5368,-0.002 z m 0.6712,-0.54442 c 0.3932,-0.0835 0.777,-0.3883 0.9416,-0.7477 0.089,-0.19418 0.1743,-0.76401 0.1219,-0.81359 -0.017,-0.0165 -0.157,-0.009 -0.3339,0.0169 -1.066,0.15849 -1.565,0.47091 -1.5673,0.98145 0,0.28219 0.1318,0.4713 0.3879,0.55119 0.1756,0.0548 0.2393,0.0565 0.4498,0.0118 z m 11.814,0.5496 c -0.7204,-0.11241 -1.257,-0.62976 -1.4546,-1.40237 -0.086,-0.3375 -0.086,-0.95947 0,-1.29972 0.1799,-0.70374 0.695,-1.2272 1.3384,-1.3604 0.2124,-0.044 0.5843,-0.0452 0.8101,-0.003 0.6477,0.12207 1.1853,0.67013 1.3766,1.40317 0.089,0.33947 0.088,0.91724 0,1.26196 -0.1688,0.65048 -0.6159,1.15905 -1.1706,1.33161 -0.227,0.0706 -0.6696,0.10426 -0.8996,0.0684 z m 0.7449,-0.59479 c 0.432,-0.21133 0.6937,-0.76029 0.6937,-1.4548 0,-0.73164 -0.2951,-1.2932 -0.7746,-1.47419 -0.3815,-0.14398 -0.8413,-0.0332 -1.1137,0.26826 -0.4853,0.53718 -0.527,1.69359 -0.084,2.33488 0.274,0.39683 0.8393,0.54087 1.2788,0.32585 z m 6.2291,0.59358 c -0.2599,-0.0549 -0.4384,-0.19657 -0.5447,-0.43238 -0.052,-0.11625 -0.059,-0.26244 -0.067,-1.592 l -0.01,-1.464 h -0.3345 -0.3345 v -0.256 -0.256 h 0.336 0.336 v -0.33165 -0.33166 l 0.152,-0.0561 c 0.084,-0.0308 0.2274,-0.0976 0.3195,-0.14835 0.092,-0.0507 0.1772,-0.0923 0.189,-0.0923 0.012,0 0.013,0.216 0,0.48 l -0.02,0.48 h 0.4147 0.4147 v 0.256 0.256 h -0.416 -0.416 l 10e-4,1.288 c 0,0.7084 0.014,1.3456 0.031,1.416 0.042,0.1824 0.128,0.24 0.3573,0.24 0.1043,0 0.2417,-0.0218 0.3054,-0.0484 0.064,-0.0266 0.1218,-0.0425 0.1291,-0.0352 0.01,0.007 0,0.12371 -0.021,0.25874 -0.019,0.13502 -0.034,0.2583 -0.034,0.27395 0,0.0747 -0.5644,0.14285 -0.7896,0.0953 z m 6.9327,-5e-4 c -0.6016,-0.0944 -1.0529,-0.41901 -1.3075,-0.94032 -0.1686,-0.34509 -0.2104,-0.55978 -0.2066,-1.05953 0.01,-0.6968 0.1844,-1.18179 0.5862,-1.5877 0.3394,-0.34281 0.7407,-0.5083 1.2328,-0.5083 0.7577,0 1.2787,0.39198 1.531,1.152 0.074,0.22439 0.1487,0.68305 0.1489,0.92 l 10e-5,0.104 h -1.421 -1.4209 l 0.015,0.136 c 0.07,0.61701 0.3044,1.01268 0.7146,1.20408 0.2376,0.11085 0.6001,0.11306 0.8766,0.005 0.2484,-0.0968 0.5487,-0.39201 0.6599,-0.64888 0.044,-0.1009 0.091,-0.1837 0.1059,-0.184 0.041,-9e-4 0.5,0.33204 0.5008,0.36339 0,0.0582 -0.2911,0.43364 -0.4481,0.57483 -0.4212,0.37869 -1.014,0.55604 -1.568,0.46908 z m 1.2957,-2.55185 c -0.084,-0.50398 -0.3309,-0.86222 -0.6787,-0.98635 -0.1645,-0.0587 -0.4779,-0.0562 -0.6582,0.005 -0.1801,0.0614 -0.4408,0.28795 -0.5544,0.48191 -0.081,0.13803 -0.2035,0.48382 -0.2035,0.574 0,0.038 0.1685,0.0452 1.0574,0.0452 h 1.0575 z m 4.1756,2.55005 c -0.3865,-0.0569 -0.8118,-0.2863 -1.0538,-0.56835 -0.1782,-0.20771 -0.3428,-0.53307 -0.4175,-0.82521 -0.077,-0.30092 -0.085,-0.88196 -0.016,-1.20656 0.1,-0.4706 0.3847,-0.91115 0.7598,-1.17459 0.3448,-0.24212 0.5629,-0.30379 1.0649,-0.30118 0.3567,0.002 0.4433,0.0128 0.608,0.077 0.4042,0.15754 0.6521,0.38515 0.8498,0.78018 0.069,0.13863 0.1262,0.26842 0.1262,0.28842 0,0.0285 -0.4388,0.32286 -0.545,0.36562 -0.013,0.005 -0.033,-0.0435 -0.045,-0.10811 -0.069,-0.36761 -0.3508,-0.73334 -0.653,-0.8474 -0.2579,-0.0973 -0.5977,-0.0768 -0.8311,0.0502 -0.4708,0.25627 -0.7373,0.85464 -0.6983,1.56793 0.04,0.73478 0.3567,1.21921 0.8999,1.37712 0.4877,0.14177 0.9879,-0.11205 1.2489,-0.63376 0.062,-0.12318 0.112,-0.24363 0.112,-0.26766 0,-0.024 0.01,-0.0437 0.021,-0.0437 0.016,0 0.5007,0.29815 0.5507,0.3389 0.035,0.0284 -0.2639,0.44566 -0.4617,0.64483 -0.4156,0.41858 -0.9083,0.57629 -1.5194,0.48632 z m 6.313,-10e-4 c -0.6723,-0.10212 -1.1651,-0.54415 -1.406,-1.26104 -0.079,-0.23419 -0.086,-0.29962 -0.088,-0.768 0,-0.48039 0,-0.5294 0.091,-0.79379 0.1914,-0.58417 0.5718,-0.99313 1.0942,-1.17638 0.2436,-0.0855 0.739,-0.1168 1.0084,-0.0638 0.6668,0.13119 1.1702,0.63066 1.3789,1.36807 0.091,0.32077 0.098,0.93327 0.014,1.27301 -0.1611,0.65737 -0.6214,1.18346 -1.1888,1.3587 -0.2451,0.0757 -0.64,0.10334 -0.9041,0.0632 z m 0.7413,-0.58603 c 0.3359,-0.16432 0.5829,-0.5388 0.6758,-1.0245 0.088,-0.45752 0.036,-0.94192 -0.14,-1.31184 -0.1954,-0.41103 -0.487,-0.62629 -0.8824,-0.6514 -0.1243,-0.008 -0.2846,10e-4 -0.356,0.0208 -0.3382,0.0915 -0.6272,0.40967 -0.7718,0.8498 -0.1579,0.48037 -0.1094,1.20976 0.1085,1.63119 0.068,0.13079 0.3246,0.39886 0.4402,0.45914 0.3048,0.15895 0.636,0.16856 0.9257,0.0268 z m -45.9647,-1.45904 v -1.952 h 0.3191 0.3191 l 0.01,0.44 0.01,0.44 0.1215,-0.22727 c 0.3272,-0.61215 0.804,-0.88071 1.2225,-0.68854 0.2448,0.11243 0.2509,0.13936 0.1058,0.46781 -0.07,0.1584 -0.1328,0.29352 -0.1395,0.30026 -0.01,0.007 -0.062,-0.0314 -0.1226,-0.0847 -0.4319,-0.37914 -1.0461,0.16909 -1.1737,1.04762 -0.028,0.19153 -0.034,0.55558 -0.022,1.24 l 0.018,0.96887 h -0.3329 -0.3328 z m 10.4,0 v -1.952 h 0.3192 0.3191 l 0.01,0.4875 0.01,0.4875 0.1071,-0.21755 c 0.1388,-0.28216 0.427,-0.58911 0.6839,-0.72846 0.1924,-0.1043 0.2155,-0.10899 0.537,-0.10899 0.2864,0 0.3582,0.0109 0.486,0.0739 0.2783,0.13706 0.4697,0.41203 0.5445,0.782 l 0.043,0.21045 0.1275,-0.24256 c 0.1607,-0.30567 0.4495,-0.60478 0.7053,-0.73033 0.1741,-0.0855 0.2188,-0.0933 0.5262,-0.0925 0.3014,8e-4 0.353,0.01 0.5004,0.0867 0.3168,0.1654 0.4964,0.47116 0.5573,0.94914 0.017,0.13379 0.034,0.85167 0.039,1.59528 l 0.01,1.35201 -0.3428,-10e-6 -0.3428,-2e-5 -0.01,-1.48092 -0.01,-1.48092 -0.082,-0.15908 c -0.1093,-0.21272 -0.2796,-0.30948 -0.5449,-0.30948 -0.3764,0 -0.7006,0.24686 -0.9121,0.6944 -0.1804,0.38165 -0.2053,0.5912 -0.2053,1.72665 v 1.00935 h -0.3182 -0.3182 l -0.011,-1.448 c -0.01,-1.29106 -0.017,-1.46356 -0.067,-1.59154 -0.1065,-0.27124 -0.2897,-0.39184 -0.595,-0.39184 -0.4495,0 -0.8641,0.42775 -1.046,1.07938 -0.044,0.1562 -0.056,0.39337 -0.069,1.272 l -0.015,1.08 h -0.3165 -0.3166 z m 12.096,0.256 v -1.696 h -0.32 -0.32 v -0.256 -0.256 h 0.32 0.32 v -0.31419 c 0,-0.52544 0.1323,-0.80453 0.4474,-0.94393 0.1708,-0.0755 0.5659,-0.0876 0.8222,-0.025 0.1566,0.0382 0.1666,0.0468 0.1832,0.15778 0.045,0.30478 0.057,0.42137 0.042,0.42137 -0.01,0 -0.079,-0.0285 -0.1556,-0.0633 -0.171,-0.0776 -0.4632,-0.0857 -0.5631,-0.0158 -0.093,0.0651 -0.136,0.23395 -0.1362,0.53505 v 0.248 h 0.368 0.368 v 0.256 0.256 h -0.3709 -0.3709 l 0.011,1.69601 0.011,1.69601 -0.328,-10e-6 -0.328,-1e-5 z m 5.44,-0.864 v -2.56 h 0.32 0.32 v 1.144 1.144 l 0.1328,-0.24 c 0.1884,-0.3406 0.4963,-0.63981 0.815,-0.79201 0.2411,-0.11508 0.2651,-0.11999 0.5873,-0.11999 0.3031,0 0.3557,0.009 0.5364,0.0925 0.3252,0.15019 0.5441,0.45465 0.6145,0.85485 0.017,0.0949 0.035,0.81702 0.04,1.60462 l 0.01,1.43201 -0.328,-10e-6 -0.328,-10e-6 v -1.31738 c 0,-0.81025 -0.014,-1.3948 -0.035,-1.5185 -0.047,-0.27112 -0.1725,-0.46296 -0.3625,-0.55494 -0.1992,-0.0964 -0.5362,-0.0836 -0.7704,0.0294 -0.2321,0.11186 -0.5873,0.48187 -0.7146,0.74429 -0.1753,0.36105 -0.1963,0.53541 -0.1969,1.63318 l -10e-4,0.984 h -0.32 -0.32 z m 13.504,0.608 v -1.952 h 0.336 0.336 v 0.4523 0.4523 l 0.1155,-0.23087 c 0.1415,-0.28275 0.4399,-0.60998 0.6438,-0.70582 0.2103,-0.0988 0.4918,-0.0807 0.6798,0.0437 0.1566,0.10362 0.1565,0.10626 -0.014,0.47637 l -0.1136,0.24597 -0.1435,-0.10114 c -0.1977,-0.13934 -0.4053,-0.14152 -0.5994,-0.006 -0.1805,0.12581 -0.391,0.44506 -0.48,0.72824 -0.069,0.22014 -0.072,0.27508 -0.072,1.38922 v 1.16001 l -0.344,-10e-6 -0.344,-10e-6 z m -53.856,-14.12568 c 0,-3.50236 -0.011,-5.24629 -0.034,-5.416 -0.069,-0.50238 -0.2964,-0.81457 -0.7558,-1.03749 l -0.2499,-0.12122 1.8,-0.002 1.8,-0.002 v 2.384 2.384 h 3.408 3.408 v -2.384 -2.384 h 1.28 1.28 v 5.872 5.872 h -1.28 -1.28 v -2.352 -2.352 h -3.408 -3.408 v 2.352 2.352 h -1.28 -1.28 z m 17.952,5.13163 c -1.1385,-0.13966 -2.0939,-0.54677 -2.8759,-1.22542 -0.5953,-0.5166 -1.0842,-1.24026 -1.4083,-2.08429 -0.5572,-1.45116 -0.5956,-3.39623 -0.097,-4.89624 0.5307,-1.59523 1.6022,-2.74371 3.0688,-3.28904 0.8489,-0.31567 2.0302,-0.42293 2.9175,-0.26492 0.9563,0.1703 1.9312,0.71304 2.4997,1.39172 l 0.1188,0.14176 v -0.70976 -0.70976 h 1.216 1.216 v 5.76 5.76 h -1.2154 -1.2154 l -0.01,-0.72394 -0.01,-0.72395 -0.1242,0.18039 c -0.4197,0.6095 -1.4095,1.17068 -2.3849,1.35208 -0.3245,0.0603 -1.3422,0.0851 -1.6989,0.0414 z m 1.92,-2.17339 c 0.3491,-0.0892 0.8504,-0.33322 1.136,-0.55292 0.5799,-0.44609 1.0209,-1.1655 1.2147,-1.98188 0.4038,-1.70089 -0.075,-3.46077 -1.179,-4.33377 -0.6207,-0.49078 -1.345,-0.71501 -2.1779,-0.67424 -1.6174,0.0792 -2.757,1.14566 -3.0821,2.88438 -0.085,0.45145 -0.075,1.49677 0.018,1.9252 0.3389,1.56888 1.2315,2.52107 2.6092,2.78334 0.3434,0.0654 1.1127,0.039 1.4613,-0.0501 z m 29.888,2.1737 c -1.2771,-0.15833 -2.3304,-0.65589 -3.1957,-1.50946 -1.4347,-1.41538 -2.0315,-3.61747 -1.5853,-5.8488 0.4054,-2.0268 1.6679,-3.55073 3.4546,-4.16994 1.2565,-0.43544 2.9262,-0.40498 4.1588,0.0758 1.6341,0.63748 2.8176,2.11459 3.1522,3.93409 0.079,0.42972 0.1155,1.24336 0.081,1.8 l -0.024,0.376 h -4.267 c -2.3468,0 -4.274,0.0114 -4.2826,0.0254 -0.03,0.0481 0.1081,0.74977 0.2028,1.03255 0.3989,1.19051 1.2112,1.93855 2.3691,2.18163 0.3931,0.0825 1.0816,0.0887 1.4743,0.0133 1.0202,-0.19603 1.7635,-0.7582 2.02,-1.52771 l 0.079,-0.23708 1.1894,-0.008 c 0.6541,-0.005 1.1893,-0.002 1.1893,0.006 0,0.008 -0.022,0.11964 -0.049,0.24839 -0.1696,0.81611 -0.5737,1.5736 -1.149,2.15388 -0.7362,0.7425 -1.6286,1.18064 -2.8351,1.39185 -0.4539,0.0795 -1.5645,0.11453 -1.9832,0.0626 z m 3.47,-7.25895 c 0.03,-0.0493 -0.072,-0.55809 -0.1722,-0.85137 -0.1421,-0.41769 -0.3315,-0.72846 -0.6258,-1.02667 -0.5644,-0.57199 -1.2514,-0.8126 -2.2046,-0.77223 -0.5035,0.0213 -0.8157,0.0956 -1.2194,0.29003 -0.7396,0.35627 -1.2533,0.9924 -1.5484,1.91732 -0.055,0.17181 -0.1,0.34821 -0.1,0.392 v 0.0796 h 2.9261 c 1.6915,0 2.9336,-0.0121 2.9439,-0.0287 z m 7.41,7.25732 c -2.044,-0.23053 -3.5837,-1.44119 -4.0199,-3.16085 -0.043,-0.16772 -0.089,-0.43158 -0.102,-0.58636 l -0.025,-0.28142 h 1.1868 1.1868 l 0.037,0.21418 c 0.1261,0.73603 0.8537,1.43291 1.7523,1.67825 0.367,0.10021 1.1927,0.10033 1.568,2e-4 0.5825,-0.15539 1.0484,-0.48197 1.2249,-0.85876 0.075,-0.15927 0.087,-0.22724 0.087,-0.47458 0,-0.2617 -0.01,-0.30866 -0.1052,-0.50232 -0.1191,-0.24203 -0.293,-0.41211 -0.5734,-0.56105 -0.2823,-0.14993 -0.4715,-0.20393 -1.7694,-0.50503 -1.4127,-0.32771 -1.7312,-0.42542 -2.288,-0.7017 -1.1633,-0.57727 -1.6693,-1.28382 -1.7788,-2.48392 -0.122,-1.3362 0.4969,-2.41547 1.7555,-3.06158 0.5937,-0.3048 1.083,-0.44604 1.7947,-0.51815 2.6965,-0.27317 4.8564,1.14361 5.2053,3.41443 l 0.021,0.136 h -1.1862 -1.1862 l -0.019,-0.088 c -0.037,-0.17521 -0.1534,-0.47468 -0.2325,-0.59995 -0.2712,-0.42965 -0.8683,-0.77602 -1.5184,-0.88091 -0.3027,-0.0488 -0.8907,-0.0251 -1.154,0.0466 -0.4506,0.12266 -0.811,0.3882 -0.9721,0.7162 -0.077,0.15661 -0.089,0.22014 -0.089,0.45408 10e-4,0.32519 0.068,0.48915 0.2935,0.71795 0.3192,0.3237 0.5158,0.39381 2.069,0.73754 0.6714,0.14859 1.3575,0.31168 1.5247,0.36242 0.9748,0.29584 1.7616,0.7629 2.1378,1.26891 0.3885,0.52264 0.5842,1.30588 0.54,2.16118 -0.024,0.45615 -0.1074,0.79109 -0.2957,1.1824 -0.5762,1.19714 -1.8711,1.99277 -3.5408,2.17558 -0.3571,0.0391 -1.1771,0.0384 -1.5293,-10e-4 z m 10.6747,-0.0144 c -1.3928,-0.18962 -2.4081,-0.97295 -2.7985,-2.15912 -0.181,-0.55001 -0.1744,-0.41261 -0.194,-4.06309 l -0.018,-3.376 -1.016,-0.008 -1.016,-0.008 v -1.00755 -1.00755 h 1.003 c 0.9153,0 1.0074,-0.005 1.0522,-0.056 0.027,-0.0308 0.4873,-0.6824 1.023,-1.448 1.2475,-1.7829 1.2774,-1.824 1.3273,-1.824 0.034,0 0.043,0.31659 0.05,1.656 l 0.01,1.656 1.4,0.008 1.4,0.008 v 1.00733 1.00733 l -1.4,0.008 -1.4,0.008 v 3.072 c 0,2.85464 0,3.08671 0.057,3.28 0.093,0.33845 0.1999,0.53445 0.3992,0.73373 0.3513,0.35124 0.7095,0.46777 1.3514,0.43956 0.2382,-0.0105 0.5077,-0.0442 0.666,-0.0834 0.1464,-0.0362 0.2796,-0.0659 0.296,-0.0659 0.018,0 0.03,0.41919 0.03,1.05137 v 1.05137 l -0.248,0.0521 c -0.5911,0.12416 -1.3627,0.1505 -1.9733,0.0674 z m -44.7547,-5.87021 v -5.76 h 1.216 1.216 l 10e-4,1.064 10e-4,1.064 0.1352,-0.256 c 0.2049,-0.388 0.3247,-0.54782 0.66,-0.88027 0.6343,-0.62883 1.4564,-1.04198 2.2979,-1.15473 0.3151,-0.0422 1.0924,-0.0215 1.2356,0.0329 0.061,0.0232 1.0046,0.0341 2.9515,0.0341 2.6766,0 3.174,0.015 2.7099,0.082 -0.4613,0.0666 -0.8841,0.27944 -1.1781,0.59304 -0.2188,0.2335 -0.3216,0.41873 -0.3978,0.71682 -0.1178,0.46047 -0.1627,0.17021 0.8105,5.24563 0.3239,1.68887 0.5982,3.04275 0.6179,3.04931 0.048,0.016 0.6197,-0.53444 1.0597,-1.02056 1.3138,-1.4513 1.9975,-2.74678 2.2694,-4.29963 0.087,-0.49409 0.078,-1.62351 -0.016,-2.17331 -0.1368,-0.79744 -0.1249,-1.10523 0.058,-1.50942 0.2503,-0.55221 0.8799,-0.89355 1.535,-0.83236 0.5127,0.0479 1.001,0.4865 1.2257,1.10087 0.094,0.25666 0.1134,0.80557 0.041,1.16121 -0.1929,0.95192 -0.6965,1.92048 -1.6907,3.25169 -0.9425,1.26188 -2.0755,2.47195 -3.5909,3.83514 -0.7551,0.67931 -2.5576,2.25093 -2.6711,2.32909 -0.112,0.0771 -0.2144,0.0682 -0.2748,-0.024 -0.031,-0.0468 -0.1801,-0.7606 -0.37,-1.768 -1.1867,-6.29316 -1.4126,-7.45949 -1.4692,-7.58757 -0.146,-0.33 -0.5976,-0.8288 -1.2629,-1.39473 l -0.288,-0.24501 -0.01,0.8809 c 0,0.4845 -0.019,0.8809 -0.032,0.8809 -0.013,-10e-6 -0.1387,-0.0235 -0.2795,-0.0523 -0.1709,-0.0349 -0.4261,-0.0528 -0.768,-0.054 -0.4678,-0.002 -0.5363,0.006 -0.7935,0.0846 -0.4822,0.14776 -0.8475,0.36907 -1.2019,0.72802 -0.6856,0.69452 -1.1558,1.92448 -1.2836,3.35765 -0.019,0.21212 -0.033,1.40835 -0.033,2.824 v 2.456 h -1.216 -1.216 z m 6.3162,-14.97143 c -1.3924,-0.6649 -2.6049,-1.26264 -2.6944,-1.32831 -0.2677,-0.19651 -0.5067,-0.57417 -0.5798,-0.91626 -0.026,-0.12446 -0.035,-0.60919 -0.028,-1.65551 l 0.01,-1.47952 2.936,1.39881 2.936,1.39881 v 1.89671 c 0,1.04319 -0.011,1.89613 -0.024,1.89544 -0.013,-7e-4 -1.1633,-0.54527 -2.5557,-1.21017 z m 4.0838,-0.68512 v -1.90188 l 2.904,-1.38415 c 1.5972,-0.76128 2.922,-1.39137 2.944,-1.4002 0.053,-0.0213 0.058,2.79347 0.01,3.08091 -0.057,0.31293 -0.2036,0.57837 -0.4584,0.83061 l -0.2269,0.22474 -2.5549,1.21526 c -1.4051,0.66839 -2.5679,1.22006 -2.584,1.22593 -0.017,0.006 -0.029,-0.75999 -0.029,-1.89122 z m -4.448,-4.18143 -2.928,-1.39957 -0.01,-1.90717 -0.01,-1.90718 0.2852,0.13395 c 0.1568,0.0737 1.4812,0.70275 2.943,1.39795 l 2.6579,1.264 v 1.912 c 0,1.0516 0,1.91056 -0.01,1.9088 0,-0.002 -1.3256,-0.63301 -2.936,-1.40278 z m 4.4484,-0.52202 v -1.896 l 2.8556,-1.35771 c 1.5706,-0.74674 2.8954,-1.37717 2.9439,-1.40095 l 0.088,-0.0432 -0.01,1.90785 -0.01,1.90784 -2.912,1.3884 c -1.6016,0.76362 -2.9228,1.38872 -2.936,1.38911 -0.013,4e-4 -0.024,-0.8525 -0.024,-1.8953 z m -4.4555,-4.1798 -2.9351,-1.3962 -10e-4,-1.89973 c 0,-1.79446 0,-1.89882 0.055,-1.88325 0.169,0.0498 5.0729,2.41707 5.2023,2.51136 0.2816,0.20522 0.5316,0.61138 0.5983,0.97201 0.019,0.10439 0.029,0.75539 0.024,1.63281 l -0.01,1.4592 z m 4.4551,-0.10835 c 0,-1.64861 0.01,-1.71908 0.1848,-2.05345 0.048,-0.0893 0.1747,-0.25173 0.2825,-0.36092 0.2231,-0.2262 0.031,-0.12838 3.4367,-1.74906 l 1.968,-0.93649 0.01,1.88818 c 0,1.0385 0,1.89907 -0.016,1.91239 -0.013,0.0133 -1.3086,0.636 -2.8784,1.38376 -1.5698,0.74775 -2.8838,1.3754 -2.92,1.39477 l -0.066,0.0352 z"
       id="path1" />
  </g>
</svg>
