<?xml version="1.0" encoding="UTF-8" standalone="no"?>
<svg
        version="1.1"
        id="affiliation"
        x="0px"
        y="0px"
        viewBox="0 0 256 256"
        style="enable-background:new 0 0 256 256;"
        xml:space="preserve"
        xmlns="http://www.w3.org/2000/svg"
><defs
   id="defs12" />
<style
   type="text/css"
   id="style1">
	.st0{fill:#FFFFFF;}
    .st1{fill:#C8003E;stroke:#C8003E;stroke-width:4;stroke-miterlimit:10;}
</style>
    <rect
   id="black"
   width="256"
   height="256" />
    <path
   id="background"
   class="st0"
   d="M206.9,256H49.1C22.1,256,0,233.9,0,206.9V49.1C0,22.1,22.1,0,49.1,0H207  c27,0,49.1,22.1,49.1,49.1V207C256,233.9,233.9,256,206.9,256z" />
<g
   id="logo"
   transform="matrix(2.0756945,0,0,2.0756945,-55.826726,-137.28861)">

<path
   d="m 33.909299,98.553522 98.015001,-18.7843 11.812,70.914998 -96.865601,25.684 z"
   fill="#992451"
   id="path183" /><path
   d="m 90.078299,87.901322 43.318001,12.298998 -5.657,80.5099 -41.120001,-14.967 z"
   fill="#d43873"
   id="path185" /><path
   d="m 90.381299,87.855322 -41.8192,-11.9311 -0.9751,19.9986 z"
   fill="#d43873"
   id="path187" /></g>
</svg>
