<?xml version="1.0" encoding="utf-8"?>
<!-- Generator: Adobe Illustrator 26.3.1, SVG Export Plug-In . SVG Version: 6.00 Build 0)  -->
<svg version="1.1" id="affiliation" xmlns="http://www.w3.org/2000/svg" xmlns:xlink="http://www.w3.org/1999/xlink" x="0px"
	 y="0px" viewBox="0 0 256 256" style="enable-background:new 0 0 256 256;" xml:space="preserve">
<style type="text/css">
	.st0{display:none;fill:#FFFFFF;}
	.st1{fill:#FFFFFF;}
	.st2{display:none;}
	.st3{display:inline;}
	.st4{fill-rule:evenodd;clip-rule:evenodd;fill:#29235C;}
	.st5{fill-rule:evenodd;clip-rule:evenodd;fill:#E73352;}
</style>
<rect id="black" width="256" height="256"/>
<path id="background" class="st1" d="M206.9,256H49.1C22.1,256,0,233.9,0,206.9V49.1C0,22.1,22.1,0,49.1,0h157.9
	c27,0,49.1,22.1,49.1,49.1v157.9C256,233.9,233.9,256,206.9,256z"/>
<g id="logo_00000029004921855638880850000003084163963237851569_">
	<g class="st2">
		
			<g id="BetterBe-user-cases_00000075879744545068051090000009132117392792340129_" transform="translate(-180.000000, -30.000000)" class="st3">
			<g id="Page-1_00000157989979455262294560000011833284690272511671_" transform="translate(180.000000, 30.000000)">
				<path id="Fill-1_00000128480764161779799910000012830764803458772659_" class="st4" d="M170.6,131.5c-0.3,0-0.5,0.1-0.8,0.3
					l-2.3,2.3c-0.2,0.2-0.4,0.5-0.4,0.8c0,0.3,0.1,0.6,0.4,0.9l2.3,2.3c0.2,0.2,0.5,0.3,0.8,0.3c0.3,0,0.6-0.1,0.9-0.4l3.1-3.1
					l-3.1-3.1C171.2,131.6,170.9,131.5,170.6,131.5"/>
				<path id="Fill-3_00000016049009955584189740000007818685021340437916_" class="st4" d="M161.7,131.5c-0.3,0-0.6,0.1-0.9,0.4
					l-3.1,3.1l3.1,3.1c0.2,0.2,0.5,0.4,0.9,0.4c0.3,0,0.5-0.1,0.8-0.3l2.3-2.3c0.2-0.2,0.4-0.5,0.4-0.9c0-0.3-0.1-0.6-0.4-0.9
					l-2.3-2.3C162.3,131.6,162,131.5,161.7,131.5"/>
				<g id="Group-7_00000165956351412304563560000016116298112717014438_" transform="translate(113.815789, 0.077632)">
					<path id="Fill-5_00000084523981654522040300000004845422386094978433_" class="st4" d="M107.8,134.8h13.4v-6.7
						c0-2.5-0.9-4.6-2.7-6.2c-1.8-1.7-4.1-2.5-6.9-2.5c-2.8,0-5.2,0.9-7,2.6c-1.8,1.7-2.7,3.8-2.7,6.3v9.2c0,2.5,0.9,4.6,2.7,6.3
						c1.8,1.7,4.1,2.5,6.9,2.5c2.6,0,4.8-0.7,6.6-2.2c1.8-1.5,2.9-3.5,3.2-5.9h-6l-0.2,0.7c-0.1,0.5-0.5,1-1.1,1.5
						c-0.6,0.5-1.4,0.7-2.4,0.7c-1.1,0-2-0.3-2.7-1c-0.7-0.7-1.1-1.6-1.1-2.7V134.8z M107.8,129.9v-1.7c0-1,0.4-1.9,1.1-2.6
						c0.8-0.7,1.6-1,2.6-1c1.1,0,2,0.3,2.7,1c0.7,0.7,1.1,1.5,1.1,2.6v1.7H107.8z M94.6,143.2c1.9-1.7,2.8-3.9,2.8-6.5v-3.9
						c0-1.2-0.3-2.4-0.8-3.5c-0.5-1.1-0.9-1.8-1.2-2c-0.3-0.3-0.5-0.5-0.8-0.6l0.6-0.7c0.4-0.4,0.8-1.1,1.2-2c0.4-0.9,0.6-1.9,0.6-3
						v-3c0-2.4-0.9-4.4-2.6-6c-1.7-1.6-3.8-2.5-6.4-2.5H77.2v36.3H88C90.6,145.8,92.8,144.9,94.6,143.2L94.6,143.2z M91,121.2
						c0,0.7-0.3,1.3-0.8,1.8c-0.5,0.5-1.2,0.8-1.9,0.8h-4.7v-8.2h4.7c0.8,0,1.4,0.3,1.9,0.8c0.5,0.5,0.8,1.1,0.8,1.8V121.2z
						 M91.1,136.7c0,0.8-0.3,1.5-0.9,2.1c-0.6,0.6-1.3,0.9-2.2,0.9h-4.5v-9.9H88c1,0,1.7,0.3,2.3,1c0.6,0.7,0.8,1.4,0.8,2V136.7z"/>
				</g>
				<path id="Fill-8_00000165222668429150671300000007137796110031227315_" class="st4" d="M144.8,125.5l1.8-5.1l-0.5-0.2
					c-0.3-0.1-0.7-0.3-1.4-0.4c-0.6-0.1-1.3-0.2-2-0.2c-0.6,0-1.2,0.1-1.8,0.4c-0.6,0.2-1.1,0.5-1.4,0.8c-0.4,0.3-0.7,0.6-1,1
					c-0.3,0.4-0.5,0.6-0.6,0.8c-0.1,0.1-0.2,0.3-0.2,0.4l-0.1-2.9h-5.6v25.9h6v-15c0-2,0.4-3.5,1.2-4.5c0.8-1,1.8-1.5,3-1.5
					C143.2,124.9,144.1,125.1,144.8,125.5L144.8,125.5z M112.7,137.4v-2.5h13.4v-6.7c0-2.5-0.9-4.6-2.7-6.2
					c-1.8-1.7-4.1-2.5-6.9-2.5c-2.8,0-5.2,0.9-7,2.6c-1.8,1.7-2.7,3.8-2.7,6.3v9.2c0,2.5,0.9,4.6,2.7,6.3c1.8,1.7,4.1,2.5,6.9,2.5
					c2.6,0,4.8-0.7,6.6-2.2c1.8-1.5,2.9-3.5,3.2-5.9h-6l-0.2,0.7c-0.1,0.5-0.5,1-1.1,1.5c-0.6,0.5-1.4,0.7-2.4,0.7
					c-1.1,0-2-0.3-2.7-1C113,139.4,112.7,138.5,112.7,137.4L112.7,137.4z M112.7,130v-1.7c0-1,0.4-1.9,1.1-2.6c0.8-0.7,1.6-1,2.6-1
					c1.1,0,2,0.3,2.7,1c0.7,0.7,1.1,1.5,1.1,2.6v1.7H112.7z M96.6,138.6v-13.2h5.6V120h-5.6v-6.7h-6.1v6.7H78.7v-6.7h-6.1v6.7h-3.4
					v5.4h3.4v13.1c0,5.3,2.4,7.9,7.3,7.9c2.3,0,4.3-0.7,5.9-2l-2.7-4.4l-0.4,0.3c-0.2,0.1-0.6,0.3-1,0.4c-0.4,0.2-0.8,0.2-1.2,0.2
					c-1.2,0-1.8-0.8-1.8-2.3v-13.2h11.8v13.1c0,5.3,2.4,7.9,7.3,7.9c2.3,0,4.3-0.7,5.9-2L101,140l-0.4,0.3c-0.2,0.1-0.6,0.3-1,0.4
					c-0.4,0.2-0.8,0.2-1.2,0.2C97.2,141,96.6,140.2,96.6,138.6L96.6,138.6z M52,137.4v-2.5h13.4v-6.7c0-2.5-0.9-4.6-2.7-6.2
					c-1.8-1.7-4.1-2.5-6.9-2.5c-2.8,0-5.2,0.9-7,2.6c-1.8,1.7-2.7,3.8-2.7,6.3v9.2c0,2.5,0.9,4.6,2.7,6.3c1.8,1.7,4.1,2.5,6.9,2.5
					c2.6,0,4.8-0.7,6.6-2.2c1.8-1.5,2.9-3.5,3.2-5.9h-6l-0.2,0.7c-0.1,0.5-0.5,1-1.1,1.5c-0.6,0.5-1.4,0.7-2.4,0.7
					c-1.1,0-2-0.3-2.7-1C52.4,139.4,52,138.5,52,137.4L52,137.4z M52,130v-1.7c0-1,0.4-1.9,1.1-2.6c0.8-0.7,1.6-1,2.6-1
					c1.1,0,2,0.3,2.7,1c0.7,0.7,1.1,1.5,1.1,2.6v1.7H52z M38.4,143.3c1.9-1.7,2.8-3.9,2.8-6.5v-3.9c0-1.2-0.3-2.4-0.8-3.5
					c-0.5-1.1-0.9-1.8-1.2-2c-0.3-0.3-0.5-0.5-0.8-0.6l0.6-0.7c0.4-0.4,0.8-1.1,1.2-2c0.4-0.9,0.6-1.9,0.6-3v-3c0-2.4-0.9-4.4-2.6-6
					c-1.7-1.6-3.8-2.5-6.4-2.5H20.9v36.3h10.8C34.3,145.9,36.5,145,38.4,143.3L38.4,143.3z M34.7,121.3c0,0.7-0.3,1.3-0.8,1.8
					c-0.5,0.5-1.2,0.8-1.9,0.8h-4.7v-8.2h4.7c0.8,0,1.4,0.3,1.9,0.8c0.5,0.5,0.8,1.1,0.8,1.8V121.3z M34.8,136.8
					c0,0.8-0.3,1.5-0.9,2.1c-0.6,0.6-1.3,0.9-2.2,0.9h-4.5v-9.9h4.5c1,0,1.7,0.3,2.3,1c0.6,0.7,0.8,1.4,0.8,2V136.8z"/>
				<path id="Fill-10_00000027589825242404279760000013658955340967206819_" class="st4" d="M167.6,134.1c0,0-0.1,0.1-0.1,0.1
					C167.5,134.1,167.5,134.1,167.6,134.1"/>
				<path id="Fill-12_00000008130562621189436820000017996107420893923755_" class="st5" d="M181.1,141.6l-6.6-6.6l6.6-6.6
					c0.5-0.5,0.5-1.3,0-1.7l-2.2-2.2c-0.2-0.2-0.6-0.4-0.9-0.4c-0.3,0-0.6,0.1-0.9,0.4l-7.4,7.4c0.2-0.2,0.5-0.3,0.8-0.3
					c0.3,0,0.6,0.1,0.9,0.4l3.1,3.1l-3.1,3.1c-0.2,0.2-0.5,0.4-0.9,0.4c-0.3,0-0.5-0.1-0.8-0.3l7.4,7.4c0.2,0.2,0.5,0.4,0.9,0.4
					c0.3,0,0.6-0.1,0.9-0.4l2.2-2.2C181.6,142.8,181.6,142,181.1,141.6"/>
				<path id="Fill-14_00000065037239752401368510000007276561834308698295_" class="st4" d="M164.8,134.2
					C164.8,134.1,164.8,134.1,164.8,134.2C164.8,134.1,164.8,134.1,164.8,134.2"/>
				<path id="Fill-16_00000029753530542587334300000008959275617506845074_" class="st5" d="M162.2,138.2c0,0-0.1,0-0.1,0.1
					c-0.1,0-0.3,0.1-0.4,0.1c-0.3,0-0.6-0.1-0.9-0.4l-3.1-3.1l3.1-3.1c0.2-0.2,0.6-0.4,0.9-0.4c0.3,0,0.6,0.1,0.8,0.3l-7.4-7.4
					c-0.2-0.2-0.5-0.4-0.9-0.4c-0.3,0-0.6,0.1-0.9,0.4l-2.2,2.2c-0.5,0.5-0.5,1.3,0,1.7l6.6,6.6l-6.6,6.6c-0.5,0.5-0.5,1.3,0,1.7
					l2.2,2.2c0.2,0.2,0.6,0.4,0.9,0.4c0.3,0,0.6-0.1,0.9-0.4l7.4-7.4C162.4,138.1,162.3,138.2,162.2,138.2
					C162.3,138.2,162.2,138.2,162.2,138.2"/>
			</g>
		</g>
	</g>
	<g id="BetterBe-user-cases" transform="translate(-180.000000, -30.000000)">
		<g id="Page-1" transform="translate(180.000000, 30.000000)">
			<path id="Fill-1" class="st4" d="M156.1,106.5c-1.7,0-3.5,0.6-4.9,1.7l-14.4,14.4c-1.5,1.5-2.2,3.4-2.2,5.3c0,2,0.7,4,2.2,5.5
				l14.5,14.5c1.4,1.1,3.1,1.6,4.8,1.6c2,0,3.9-0.7,5.4-2.2l19.3-19.3l-19.3-19.3C160,107.2,158,106.5,156.1,106.5"/>
			<path id="Fill-3" class="st4" d="M99.9,106.5c-2,0-3.9,0.7-5.5,2.2L75.2,128l19.3,19.3c1.5,1.5,3.5,2.2,5.4,2.2
				c1.7,0,3.4-0.6,4.8-1.7l14.5-14.5c1.5-1.5,2.2-3.5,2.2-5.4c0-2-0.8-3.9-2.2-5.4l-14.4-14.4C103.4,107,101.7,106.5,99.9,106.5"/>
			<path id="Fill-10" class="st4" d="M137.1,122.6c-0.2,0.3-0.4,0.5-0.6,0.7C136.7,123.1,136.9,122.8,137.1,122.6"/>
			<path id="Fill-12" class="st5" d="M222.8,169.9L180.8,128L222.8,86c3-3,3-7.9,0-10.9l-13.8-13.8c-1.5-1.5-3.5-2.2-5.5-2.2
				c-2,0-3.9,0.7-5.4,2.2l-46.8,46.8c1.4-1.1,3.1-1.7,4.9-1.7c2,0,3.9,0.7,5.5,2.2l19.3,19.3l-19.3,19.3c-1.5,1.5-3.5,2.2-5.4,2.2
				c-1.7,0-3.4-0.5-4.8-1.6l46.7,46.7c1.5,1.5,3.5,2.2,5.4,2.2c2,0,4-0.8,5.4-2.3l13.8-13.9C225.7,177.8,225.7,172.9,222.8,169.9"/>
			<path id="Fill-14" class="st4" d="M119.7,123.2c-0.1-0.2-0.3-0.4-0.5-0.6C119.4,122.8,119.5,123,119.7,123.2"/>
			<path id="Fill-16" class="st5" d="M103.2,148.8c-0.3,0.1-0.5,0.3-0.8,0.3c-0.8,0.3-1.7,0.4-2.5,0.4c-2,0-3.9-0.7-5.4-2.2
				L75.2,128l19.3-19.3c1.5-1.5,3.5-2.2,5.4-2.2c1.7,0,3.5,0.6,4.9,1.7L58,61.3c-1.5-1.5-3.5-2.2-5.4-2.2c-2,0-4,0.7-5.5,2.2
				L33.2,75.1c-3,3-3,7.9,0,10.9L75.2,128l-41.9,41.9c-3,3-3,7.9,0,10.9l13.8,13.9c1.5,1.5,3.5,2.3,5.4,2.3c2,0,3.9-0.7,5.4-2.2
				l46.8-46.8c-0.3,0.3-0.7,0.5-1.1,0.7C103.5,148.7,103.4,148.7,103.2,148.8"/>
		</g>
	</g>
</g>
</svg>
