<?xml version="1.0" encoding="utf-8"?>
<!-- Generator: Adobe Illustrator 26.5.0, SVG Export Plug-In . SVG Version: 6.00 Build 0)  -->
<svg version="1.1" id="affiliation" xmlns="http://www.w3.org/2000/svg" xmlns:xlink="http://www.w3.org/1999/xlink" x="0px"
	 y="0px" viewBox="0 0 256 256" style="enable-background:new 0 0 256 256;" xml:space="preserve">
<style type="text/css">
	.st0{fill:#FFFFFF;}
	.st1{display:none;}
	.st2{display:inline;}
	.st3{fill:#D9E2F0;}
	.st4{fill:#C8E4E2;}
	.st5{fill:#9BD3D0;}
	.st6{fill:#CDDBEE;}
	.st7{fill:#91CFCE;}
	.st8{fill:#D0E1F0;}
	.st9{fill:#90C6CA;}
	.st10{fill:#BFD3EA;}
	.st11{fill:#9CBFE2;}
	.st12{fill:#B6CEE7;}
	.st13{fill:#8FBAE0;}
	.st14{fill:#B9D0E9;}
	.st15{fill:#8BB7DF;}
	.st16{fill:#98BDE0;}
	.st17{fill:#98BBE0;}
	.st18{fill:#A6D7D5;}
	.st19{fill:#CDE7E3;}
	.st20{fill:#A4C2E3;}
	.st21{fill:#80AFDC;}
	.st22{fill:#6BA3D6;}
	.st23{fill:#79A8D8;}
	.st24{fill:#BFD3E7;}
	.st25{fill:#A5C3E1;}
	.st26{fill:#8CB7DD;}
	.st27{fill:#82B0DA;}
	.st28{fill:#519AD0;}
	.st29{fill:#1386C6;}
	.st30{fill:#1181C0;}
	.st31{fill:#81BFC5;}
	.st32{fill:#64B7BC;}
	.st33{fill:#42A5B2;}
	.st34{fill:#2E9AB3;}
	.st35{fill:#0888B6;}
	.st36{fill:#1881C1;}
	.st37{fill:#6CC0BD;}
	.st38{fill:#81C4C5;}
	.st39{fill:#B2CBE4;}
	.st40{fill:#9CC0E1;}
	.st41{fill:#7AA9D6;}
	.st42{fill:#619ED1;}
	.st43{fill:#0D4F90;fill-opacity:0.2;}
	.st44{fill:#114D8F;fill-opacity:0.2;}
	.st45{fill:#76A1CC;}
	.st46{fill:#6A91C2;}
	.st47{fill:#4981B3;}
	.st48{fill:#406EA7;}
	.st49{fill:#055293;}
	.st50{fill:#1C4787;}
	.st51{fill:#1F4686;}
	.st52{fill:#114D8F;}
	.st53{fill:#0492A0;}
	.st54{fill:#018188;}
	.st55{fill:#067581;}
	.st56{fill:#056B80;}
	.st57{fill:#005782;}
	.st58{fill:#204580;}
	.st59{fill:#1A4888;}
	.st60{fill:#029DA2;}
	.st61{fill:#0598A6;}
	.st62{fill:#3A98BF;}
	.st63{fill:#467EB3;}
	.st64{fill:#2A5F9D;}
	.st65{fill:#19498A;}
	.st66{fill:#0080C8;}
</style>
<rect id="black" width="256" height="256"/>
<path id="background" class="st0" d="M206.9,256H49.1C22.1,256,0,233.9,0,206.9V49.1C0,22.1,22.1,0,49.1,0H207
	c27,0,49.1,22.1,49.1,49.1V207C256,233.9,233.9,256,206.9,256z"/>
<g id="logo_00000029004921855638880850000003084163963237851569_">
	<g class="st1">
		<g class="st2">
			<g>
				<g>
					<path class="st3" d="M27.4,117.6c7.2,0,10.8-6,14.4-6s6.6,6,14.4,6s14.4-6,14.4-14.4S64,88.8,56.2,88.8s-10.8,6-14.4,6
						s-6.6-6-14.4-6S13,94.9,13,103.2S20.2,117.6,27.4,117.6z"/>
					<path class="st4" d="M27.4,146.4c7.2,0,10.8-6,14.4-6s6.6,6,14.4,6s14.4-6,14.4-14.4c0-8.4-6.6-14.4-14.4-14.4s-10.8,6-14.4,6
						s-6.6-6-14.4-6S13,123.6,13,132S20.2,146.4,27.4,146.4z"/>
					<path class="st5" d="M27.4,175.1c7.2,0,10.8-6,14.4-6s6.6,6,14.4,6s14.4-6,14.4-14.4s-6.6-14.4-14.4-14.4s-10.8,6-14.4,6
						s-6.6-6-14.4-6s-14.4,6-14.4,14.4S20.2,175.1,27.4,175.1z"/>
					<path class="st6" d="M56.1,117.6c7.2,0,10.8-6,14.4-6s6.6,6,14.4,6s14.4-6,14.4-14.4s-6.6-14.4-14.4-14.4s-10.8,6-14.4,6
						s-6.6-6-14.4-6s-14.4,6-14.4,14.4S48.9,117.6,56.1,117.6z"/>
					<path class="st7" d="M56.1,146.4c7.2,0,10.8-6,14.4-6s6.6,6,14.4,6s14.4-6,14.4-14.4c0-8.4-6.6-14.4-14.4-14.4s-10.8,6-14.4,6
						s-6.6-6-14.4-6s-14.4,6-14.4,14.4C41.7,140.4,48.9,146.4,56.1,146.4z"/>
					<path class="st8" d="M56.1,175.1c7.2,0,10.8-6,14.4-6s6.6,6,14.4,6s14.4-6,14.4-14.4s-6.6-14.4-14.4-14.4s-10.8,6-14.4,6
						s-6.6-6-14.4-6s-14.4,6-14.4,14.4S48.9,175.1,56.1,175.1z"/>
					<path class="st6" d="M84.9,117.6c7.2,0,10.8-6,14.4-6s6.6,6,14.4,6s14.4-6,14.4-14.4s-6.6-14.4-14.4-14.4s-10.8,6-14.4,6
						s-6.6-6-14.4-6s-14.4,6-14.4,14.4S77.7,117.6,84.9,117.6z"/>
					<path class="st9" d="M84.9,146.4c7.2,0,10.8-6,14.4-6s6.6,6,14.4,6s14.4-6,14.4-14.4c0-8.4-6.6-14.4-14.4-14.4s-10.8,6-14.4,6
						s-6.6-6-14.4-6s-14.4,6-14.4,14.4C70.5,140.4,77.7,146.4,84.9,146.4z"/>
					<path class="st8" d="M84.9,175.1c7.2,0,10.8-6,14.4-6s6.6,6,14.4,6s14.4-6,14.4-14.4s-6.6-14.4-14.4-14.4s-10.8,6-14.4,6
						s-6.6-6-14.4-6s-14.4,6-14.4,14.4S77.7,175.1,84.9,175.1z"/>
					<path class="st10" d="M113.6,117.6c7.2,0,10.8-6,14.4-6c3.6,0,6.6,6,14.4,6s14.4-6,14.4-14.4s-6.6-14.4-14.4-14.4
						s-10.8,6-14.4,6s-6.6-6-14.4-6s-14.4,6-14.4,14.4S106.4,117.6,113.6,117.6z"/>
					<path class="st11" d="M113.6,146.4c7.2,0,10.8-6,14.4-6c3.6,0,6.6,6,14.4,6s14.4-6,14.4-14.4c0-8.4-6.6-14.4-14.4-14.4
						s-10.8,6-14.4,6s-6.6-6-14.4-6s-14.4,6-14.4,14.4C99.2,140.4,106.4,146.4,113.6,146.4z"/>
					<path class="st6" d="M113.6,175.1c7.2,0,10.8-6,14.4-6c3.6,0,6.6,6,14.4,6s14.4-6,14.4-14.4s-6.6-14.4-14.4-14.4
						s-10.8,6-14.4,6s-6.6-6-14.4-6s-14.4,6-14.4,14.4S106.4,175.1,113.6,175.1z"/>
					<path class="st12" d="M142.4,117.6c7.2,0,10.8-6,14.4-6s6.6,6,14.4,6s14.4-6,14.4-14.4s-6.6-14.4-14.4-14.4s-10.8,6-14.4,6
						s-6.6-6-14.4-6s-14.4,6-14.4,14.4S135.2,117.6,142.4,117.6z"/>
					<path class="st13" d="M142.4,146.4c7.2,0,10.8-6,14.4-6s6.6,6,14.4,6s14.4-6,14.4-14.4c0-8.4-6.6-14.4-14.4-14.4
						s-10.8,6-14.4,6s-6.6-6-14.4-6s-14.4,6-14.4,14.4C128,140.4,135.2,146.4,142.4,146.4z"/>
					<path class="st14" d="M142.4,175.1c7.2,0,10.8-6,14.4-6s6.6,6,14.4,6s14.4-6,14.4-14.4s-6.6-14.4-14.4-14.4s-10.8,6-14.4,6
						s-6.6-6-14.4-6s-14.4,6-14.4,14.4S135.2,175.1,142.4,175.1z"/>
					<path class="st15" d="M171.1,117.6c7.2,0,10.8-6,14.4-6s6.6,6,14.4,6s14.4-6,14.4-14.4s-6.6-14.4-14.4-14.4s-10.8,6-14.4,6
						s-6.6-6-14.4-6s-14.4,6-14.4,14.4S163.9,117.6,171.1,117.6z M171.1,146.4c7.2,0,10.8-6,14.4-6s6.6,6,14.4,6s14.4-6,14.4-14.4
						c0-8.4-6.6-14.4-14.4-14.4s-10.8,6-14.4,6s-6.6-6-14.4-6s-14.4,6-14.4,14.4C156.7,140.4,163.9,146.4,171.1,146.4z"/>
					<path class="st16" d="M171.1,175.1c7.2,0,10.8-6,14.4-6s6.6,6,14.4,6s14.4-6,14.4-14.4s-6.6-14.4-14.4-14.4s-10.8,6-14.4,6
						s-6.6-6-14.4-6s-14.4,6-14.4,14.4S163.9,175.1,171.1,175.1z"/>
					<path class="st15" d="M199.9,117.6c7.2,0,10.8-6,14.4-6s6.6,6,14.4,6s14.4-6,14.4-14.4s-6.6-14.4-14.4-14.4s-10.8,6-14.4,6
						s-6.6-6-14.4-6s-14.4,6-14.4,14.4S192.7,117.6,199.9,117.6z M199.9,146.4c7.2,0,10.8-6,14.4-6s6.6,6,14.4,6s14.4-6,14.4-14.4
						c0-8.4-6.6-14.4-14.4-14.4s-10.8,6-14.4,6s-6.6-6-14.4-6s-14.4,6-14.4,14.4C185.5,140.4,192.7,146.4,199.9,146.4z"/>
					<path class="st17" d="M199.9,175.1c7.2,0,10.8-6,14.4-6s6.6,6,14.4,6s14.4-6,14.4-14.4s-6.6-14.4-14.4-14.4s-10.8,6-14.4,6
						s-6.6-6-14.4-6s-14.4,6-14.4,14.4S192.7,175.1,199.9,175.1z"/>
				</g>
				<g>
					<path class="st3" d="M13,103.2c0,7.2,6,10.8,6,14.4s-6,6.6-6,14.4s6,14.4,14.4,14.4s14.4-6.6,14.4-14.4c0-7.8-6-10.8-6-14.4
						s6-6.6,6-14.4s-6-14.4-14.4-14.4S13,96.1,13,103.2z"/>
					<path class="st18" d="M13,132c0,7.2,6,10.8,6,14.4s-6,6.6-6,14.4s6,14.4,14.4,14.4s14.4-6.6,14.4-14.4s-6-10.8-6-14.4
						s6-6.6,6-14.4c0-7.8-6-14.4-14.4-14.4S13,124.8,13,132z"/>
					<path class="st3" d="M41.8,103.2c0,7.2,6,10.8,6,14.4s-6,6.6-6,14.4s6,14.4,14.4,14.4s14.4-6.6,14.4-14.4c0-7.8-6-10.8-6-14.4
						s6-6.6,6-14.4s-6-14.4-14.4-14.4S41.8,96.1,41.8,103.2z"/>
					<path class="st19" d="M41.8,132c0,7.2,6,10.8,6,14.4s-6,6.6-6,14.4s6,14.4,14.4,14.4s14.4-6.6,14.4-14.4s-6-10.8-6-14.4
						s6-6.6,6-14.4c0-7.8-6-14.4-14.4-14.4S41.8,124.8,41.8,132z"/>
					<path class="st6" d="M70.5,103.2c0,7.2,6,10.8,6,14.4s-6,6.6-6,14.4s6,14.4,14.4,14.4s14.4-6.6,14.4-14.4c0-7.8-6-10.8-6-14.4
						s6-6.6,6-14.4s-6-14.4-14.4-14.4S70.5,96.1,70.5,103.2z"/>
					<path class="st6" d="M70.5,132c0,7.2,6,10.8,6,14.4s-6,6.6-6,14.4s6,14.4,14.4,14.4s14.4-6.6,14.4-14.4s-6-10.8-6-14.4
						s6-6.6,6-14.4c0-7.8-6-14.4-14.4-14.4S70.5,124.8,70.5,132z"/>
					<path class="st10" d="M99.2,103.2c0,7.2,6,10.8,6,14.4s-6,6.6-6,14.4s6,14.4,14.4,14.4S128,139.8,128,132s-6-10.8-6-14.4
						s6-6.6,6-14.4s-6-14.4-14.4-14.4S99.2,96.1,99.2,103.2z"/>
					<path class="st10" d="M99.2,132c0,7.2,6,10.8,6,14.4s-6,6.6-6,14.4s6,14.4,14.4,14.4s14.4-6.6,14.4-14.4s-6-10.8-6-14.4
						s6-6.6,6-14.4c0-7.8-6-14.4-14.4-14.4S99.2,124.8,99.2,132z"/>
					<path class="st20" d="M128,103.2c0,7.2,6,10.8,6,14.4s-6,6.6-6,14.4s6,14.4,14.4,14.4s14.4-6.6,14.4-14.4c0-7.8-6-10.8-6-14.4
						s6-6.6,6-14.4s-6-14.4-14.4-14.4S128,96.1,128,103.2z"/>
					<path class="st10" d="M128,132c0,7.2,6,10.8,6,14.4s-6,6.6-6,14.4s6,14.4,14.4,14.4s14.4-6.6,14.4-14.4s-6-10.8-6-14.4
						s6-6.6,6-14.4c0-7.8-6-14.4-14.4-14.4S128,124.8,128,132z"/>
					<path class="st21" d="M156.8,103.2c0,7.2,6,10.8,6,14.4s-6,6.6-6,14.4s6,14.4,14.4,14.4s14.4-6.6,14.4-14.4
						c0-7.8-6-10.8-6-14.4s6-6.6,6-14.4s-6-14.4-14.4-14.4S156.8,96.1,156.8,103.2z"/>
					<path class="st20" d="M156.8,132c0,7.2,6,10.8,6,14.4s-6,6.6-6,14.4s6,14.4,14.4,14.4s14.4-6.6,14.4-14.4s-6-10.8-6-14.4
						s6-6.6,6-14.4c0-7.8-6-14.4-14.4-14.4S156.8,124.8,156.8,132z"/>
					<path class="st21" d="M185.5,103.2c0,7.2,6,10.8,6,14.4s-6,6.6-6,14.4s6,14.4,14.4,14.4s14.4-6.6,14.4-14.4
						c0-7.8-6-10.8-6-14.4s6-6.6,6-14.4s-6-14.4-14.4-14.4S185.5,96.1,185.5,103.2z"/>
					<path class="st15" d="M185.5,132c0,7.2,6,10.8,6,14.4s-6,6.6-6,14.4s6,14.4,14.4,14.4s14.4-6.6,14.4-14.4s-6-10.8-6-14.4
						s6-6.6,6-14.4c0-7.8-6-14.4-14.4-14.4S185.5,124.8,185.5,132z"/>
					<path class="st22" d="M214.2,103.2c0,7.2,6,10.8,6,14.4s-6,6.6-6,14.4s6,14.4,14.4,14.4S243,139.8,243,132s-6-10.8-6-14.4
						s6-6.6,6-14.4s-6-14.4-14.4-14.4S214.2,96.1,214.2,103.2z"/>
					<path class="st23" d="M214.2,132c0,7.2,6,10.8,6,14.4s-6,6.6-6,14.4s6,14.4,14.4,14.4s14.4-6.6,14.4-14.4s-6-10.8-6-14.4
						s6-6.6,6-14.4c0-7.8-6-14.4-14.4-14.4S214.2,124.8,214.2,132z"/>
				</g>
				<g>
					<path class="st24" d="M27.4,117.6c-7.9,0-14.4-6.4-14.4-14.4s6.4-14.4,14.4-14.4s14.4,6.4,14.4,14.4S35.3,117.6,27.4,117.6z
						 M27.4,108.9c3.1,0,5.7-2.5,5.7-5.7s-2.5-5.7-5.7-5.7s-5.7,2.5-5.7,5.7S24.2,108.9,27.4,108.9z"/>
					<path class="st25" d="M56.1,117.6c-7.9,0-14.4-6.4-14.4-14.4s6.4-14.4,14.4-14.4s14.4,6.4,14.4,14.4S64.1,117.6,56.1,117.6z
						 M56.1,108.9c3.1,0,5.7-2.5,5.7-5.7s-2.5-5.7-5.7-5.7s-5.7,2.5-5.7,5.7S53,108.9,56.1,108.9z"/>
					<path class="st26" d="M84.9,117.6c-7.9,0-14.4-6.4-14.4-14.4s6.4-14.4,14.4-14.4s14.4,6.4,14.4,14.4S92.8,117.6,84.9,117.6z
						 M84.9,108.9c3.1,0,5.7-2.5,5.7-5.7s-2.5-5.7-5.7-5.7s-5.7,2.5-5.7,5.7S81.7,108.9,84.9,108.9z"/>
					<path class="st27" d="M113.6,117.6c-7.9,0-14.4-6.4-14.4-14.4s6.4-14.4,14.4-14.4s14.4,6.5,14.4,14.4S121.6,117.6,113.6,117.6z
						 M113.6,108.9c3.1,0,5.7-2.5,5.7-5.7s-2.5-5.7-5.7-5.7s-5.7,2.5-5.7,5.7S110.5,108.9,113.6,108.9z"/>
					<path class="st28" d="M142.4,117.6c-7.9,0-14.4-6.4-14.4-14.4s6.4-14.4,14.4-14.4s14.4,6.4,14.4,14.4S150.3,117.6,142.4,117.6z
						 M142.4,108.9c3.1,0,5.7-2.5,5.7-5.7s-2.5-5.7-5.7-5.7s-5.7,2.5-5.7,5.7S139.2,108.9,142.4,108.9z"/>
					<path class="st29" d="M171.1,117.6c-7.9,0-14.4-6.4-14.4-14.4s6.4-14.4,14.4-14.4s14.4,6.4,14.4,14.4S179.1,117.6,171.1,117.6z
						 M171.1,108.9c3.1,0,5.7-2.5,5.7-5.7s-2.5-5.7-5.7-5.7s-5.7,2.5-5.7,5.7S168,108.9,171.1,108.9z"/>
					<path class="st30" d="M199.9,117.6c-7.9,0-14.4-6.4-14.4-14.4s6.4-14.4,14.4-14.4s14.4,6.4,14.4,14.4S207.8,117.6,199.9,117.6z
						 M199.9,108.9c3.1,0,5.7-2.5,5.7-5.7s-2.5-5.7-5.7-5.7s-5.7,2.5-5.7,5.7S196.7,108.9,199.9,108.9z"/>
					<path class="st29" d="M228.6,117.6c-7.9,0-14.4-6.4-14.4-14.4s6.4-14.4,14.4-14.4s14.4,6.5,14.4,14.4S236.6,117.6,228.6,117.6z
						 M228.6,108.9c3.1,0,5.7-2.5,5.7-5.7s-2.5-5.7-5.7-5.7s-5.7,2.5-5.7,5.7S225.5,108.9,228.6,108.9z"/>
					<path class="st31" d="M27.4,146.4C19.5,146.4,13,140,13,132c0-8,6.4-14.4,14.4-14.4S41.8,124,41.8,132S35.3,146.4,27.4,146.4z
						 M27.4,137.7c3.1,0,5.7-2.5,5.7-5.7c0-3.1-2.5-5.7-5.7-5.7s-5.7,2.5-5.7,5.7C21.7,135.1,24.2,137.7,27.4,137.7z"/>
					<path class="st32" d="M56.1,146.4c-7.9,0-14.4-6.4-14.4-14.4c0-8,6.4-14.4,14.4-14.4S70.5,124,70.5,132S64.1,146.4,56.1,146.4z
						 M56.1,137.7c3.1,0,5.7-2.5,5.7-5.7c0-3.1-2.5-5.7-5.7-5.7s-5.7,2.5-5.7,5.7C50.4,135.1,53,137.7,56.1,137.7z"/>
					<path class="st33" d="M84.9,146.4c-7.9,0-14.4-6.4-14.4-14.4c0-8,6.4-14.4,14.4-14.4S99.3,124,99.3,132S92.8,146.4,84.9,146.4z
						 M84.9,137.7c3.1,0,5.7-2.5,5.7-5.7c0-3.1-2.5-5.7-5.7-5.7s-5.7,2.5-5.7,5.7C79.2,135.1,81.7,137.7,84.9,137.7z"/>
					<path class="st34" d="M113.6,146.4c-7.9,0-14.4-6.4-14.4-14.4c0-8,6.4-14.4,14.4-14.4S128,124.1,128,132
						S121.6,146.4,113.6,146.4z M113.6,137.7c3.1,0,5.7-2.5,5.7-5.7c0-3.1-2.5-5.7-5.7-5.7s-5.7,2.5-5.7,5.7
						C107.9,135.1,110.5,137.7,113.6,137.7z"/>
					<path class="st35" d="M142.4,146.4c-7.9,0-14.4-6.4-14.4-14.4c0-8,6.4-14.4,14.4-14.4s14.4,6.4,14.4,14.4
						S150.3,146.4,142.4,146.4z M142.4,137.7c3.1,0,5.7-2.5,5.7-5.7c0-3.1-2.5-5.7-5.7-5.7s-5.7,2.5-5.7,5.7
						C136.7,135.1,139.2,137.7,142.4,137.7z"/>
					<path class="st36" d="M171.1,146.4c-7.9,0-14.4-6.4-14.4-14.4c0-8,6.4-14.4,14.4-14.4s14.4,6.4,14.4,14.4
						S179.1,146.4,171.1,146.4z M171.1,137.7c3.1,0,5.7-2.5,5.7-5.7c0-3.1-2.5-5.7-5.7-5.7s-5.7,2.5-5.7,5.7
						C165.4,135.1,168,137.7,171.1,137.7z M199.9,146.4c-7.9,0-14.4-6.4-14.4-14.4c0-8,6.4-14.4,14.4-14.4s14.4,6.4,14.4,14.4
						S207.8,146.4,199.9,146.4z M199.9,137.7c3.1,0,5.7-2.5,5.7-5.7c0-3.1-2.5-5.7-5.7-5.7s-5.7,2.5-5.7,5.7
						C194.2,135.1,196.7,137.7,199.9,137.7z M228.6,146.4c-7.9,0-14.4-6.4-14.4-14.4c0-8,6.4-14.4,14.4-14.4S243,124.1,243,132
						S236.6,146.4,228.6,146.4z M228.6,137.7c3.1,0,5.7-2.5,5.7-5.7c0-3.1-2.5-5.7-5.7-5.7s-5.7,2.5-5.7,5.7
						C222.9,135.1,225.5,137.7,228.6,137.7z"/>
					<path class="st37" d="M27.4,175.1c-7.9,0-14.4-6.4-14.4-14.4s6.4-14.4,14.4-14.4s14.4,6.4,14.4,14.4S35.3,175.1,27.4,175.1z
						 M27.4,166.4c3.1,0,5.7-2.5,5.7-5.7s-2.5-5.7-5.7-5.7s-5.7,2.5-5.7,5.7S24.2,166.4,27.4,166.4z"/>
					<path class="st38" d="M56.1,175.1c-7.9,0-14.4-6.4-14.4-14.4s6.4-14.4,14.4-14.4s14.4,6.4,14.4,14.4S64.1,175.1,56.1,175.1z
						 M56.1,166.4c3.1,0,5.7-2.5,5.7-5.7s-2.5-5.7-5.7-5.7s-5.7,2.5-5.7,5.7S53,166.4,56.1,166.4z"/>
					<path class="st39" d="M84.9,175.1c-7.9,0-14.4-6.4-14.4-14.4s6.4-14.4,14.4-14.4s14.4,6.4,14.4,14.4S92.8,175.1,84.9,175.1z
						 M84.9,166.4c3.1,0,5.7-2.5,5.7-5.7s-2.5-5.7-5.7-5.7s-5.7,2.5-5.7,5.7S81.7,166.4,84.9,166.4z"/>
					<path class="st40" d="M113.6,175.1c-7.9,0-14.4-6.4-14.4-14.4s6.4-14.4,14.4-14.4s14.4,6.4,14.4,14.4S121.6,175.1,113.6,175.1z
						 M113.6,166.4c3.1,0,5.7-2.5,5.7-5.7s-2.5-5.7-5.7-5.7s-5.7,2.5-5.7,5.7S110.5,166.4,113.6,166.4z"/>
					<path class="st41" d="M142.4,175.1c-7.9,0-14.4-6.4-14.4-14.4s6.4-14.4,14.4-14.4s14.4,6.4,14.4,14.4S150.3,175.1,142.4,175.1z
						 M142.4,166.4c3.1,0,5.7-2.5,5.7-5.7s-2.5-5.7-5.7-5.7s-5.7,2.5-5.7,5.7S139.2,166.4,142.4,166.4z"/>
					<path class="st42" d="M171.1,175.1c-7.9,0-14.4-6.4-14.4-14.4s6.4-14.4,14.4-14.4s14.4,6.4,14.4,14.4S179.1,175.1,171.1,175.1z
						 M171.1,166.4c3.1,0,5.7-2.5,5.7-5.7s-2.5-5.7-5.7-5.7s-5.7,2.5-5.7,5.7S168,166.4,171.1,166.4z"/>
					<path class="st29" d="M199.9,175.1c-7.9,0-14.4-6.4-14.4-14.4s6.4-14.4,14.4-14.4s14.4,6.4,14.4,14.4S207.8,175.1,199.9,175.1z
						 M199.9,166.4c3.1,0,5.7-2.5,5.7-5.7s-2.5-5.7-5.7-5.7s-5.7,2.5-5.7,5.7S196.7,166.4,199.9,166.4z M228.6,175.1
						c-7.9,0-14.4-6.4-14.4-14.4s6.4-14.4,14.4-14.4s14.4,6.4,14.4,14.4S236.6,175.1,228.6,175.1z M228.6,166.4
						c3.1,0,5.7-2.5,5.7-5.7s-2.5-5.7-5.7-5.7s-5.7,2.5-5.7,5.7S225.5,166.4,228.6,166.4z"/>
				</g>
				<g transform="translate(7.25 7.25)">
					<path class="st43" d="M20.1,130.4c3.3,0,5.7-2.7,5.7-5.7s-4.5-11.4-4.4-15c0-3.5,4.4-10.7,4.4-13.8s-2.4-5.7-5.7-5.7
						s-5.7,2.6-5.7,5.7s4.5,10.2,4.4,13.8c0,3.5-4.4,12-4.4,15C14.4,127.7,16.8,130.4,20.1,130.4z"/>
					<path class="st43" d="M20.1,159.2c3.3,0,5.7-2.7,5.7-5.7s-4.5-11.4-4.4-15c0-3.5,4.4-10.7,4.4-13.8s-2.4-5.7-5.7-5.7
						s-5.7,2.6-5.7,5.7s4.5,10.2,4.4,13.8c0,3.5-4.4,12-4.4,15S16.8,159.2,20.1,159.2z M48.9,130.4c3.3,0,5.7-2.7,5.7-5.7
						s-4.5-11.4-4.4-15c0-3.5,4.4-10.7,4.4-13.8s-2.4-5.7-5.7-5.7s-5.7,2.6-5.7,5.7s4.5,10.2,4.4,13.8c0,3.5-4.4,12-4.4,15
						C43.2,127.7,45.6,130.4,48.9,130.4z"/>
					<path class="st43" d="M48.9,159.2c3.3,0,5.7-2.7,5.7-5.7s-4.5-11.4-4.4-15c0-3.5,4.4-10.7,4.4-13.8s-2.4-5.7-5.7-5.7
						s-5.7,2.6-5.7,5.7s4.5,10.2,4.4,13.8c0,3.5-4.4,12-4.4,15S45.6,159.2,48.9,159.2z M77.6,130.4c3.3,0,5.7-2.7,5.7-5.7
						s-4.5-11.4-4.4-15c0-3.5,4.4-10.7,4.4-13.8s-2.4-5.7-5.7-5.7c-3.3,0-5.7,2.6-5.7,5.7s4.5,10.2,4.4,13.8c0,3.5-4.4,12-4.4,15
						C71.9,127.7,74.3,130.4,77.6,130.4z"/>
					<path class="st43" d="M77.6,159.2c3.3,0,5.7-2.7,5.7-5.7s-4.5-11.4-4.4-15c0-3.5,4.4-10.7,4.4-13.8s-2.4-5.7-5.7-5.7
						c-3.3,0-5.7,2.6-5.7,5.7s4.5,10.2,4.4,13.8c0,3.5-4.4,12-4.4,15S74.3,159.2,77.6,159.2z M106.4,130.4c3.3,0,5.7-2.7,5.7-5.7
						s-4.5-11.4-4.4-15c0-3.5,4.4-10.7,4.4-13.8s-2.4-5.7-5.7-5.7c-3.3,0-5.7,2.6-5.7,5.7s4.5,10.2,4.4,13.8c0,3.5-4.4,12-4.4,15
						C100.7,127.7,103.1,130.4,106.4,130.4z"/>
					<path class="st43" d="M106.4,159.2c3.3,0,5.7-2.7,5.7-5.7s-4.5-11.4-4.4-15c0-3.5,4.4-10.7,4.4-13.8s-2.4-5.7-5.7-5.7
						c-3.3,0-5.7,2.6-5.7,5.7s4.5,10.2,4.4,13.8c0,3.5-4.4,12-4.4,15C100.7,156.5,103.1,159.2,106.4,159.2z M135.1,130.4
						c3.3,0,5.7-2.7,5.7-5.7s-4.5-11.4-4.4-15c0-3.5,4.4-10.7,4.4-13.8s-2.4-5.7-5.7-5.7s-5.7,2.6-5.7,5.7s4.5,10.2,4.4,13.8
						c0,3.5-4.4,12-4.4,15C129.4,127.7,131.8,130.4,135.1,130.4z"/>
					<path class="st43" d="M135.1,159.2c3.3,0,5.7-2.7,5.7-5.7s-4.5-11.4-4.4-15c0-3.5,4.4-10.7,4.4-13.8s-2.4-5.7-5.7-5.7
						s-5.7,2.6-5.7,5.7s4.5,10.2,4.4,13.8c0,3.5-4.4,12-4.4,15C129.4,156.5,131.8,159.2,135.1,159.2z M163.9,130.4
						c3.3,0,5.7-2.7,5.7-5.7s-4.5-11.4-4.4-15c0-3.5,4.4-10.7,4.4-13.8s-2.4-5.7-5.7-5.7s-5.7,2.6-5.7,5.7s4.5,10.2,4.4,13.8
						c0,3.5-4.4,12-4.4,15C158.2,127.7,160.6,130.4,163.9,130.4z"/>
					<path class="st43" d="M163.9,159.2c3.3,0,5.7-2.7,5.7-5.7s-4.5-11.4-4.4-15c0-3.5,4.4-10.7,4.4-13.8s-2.4-5.7-5.7-5.7
						s-5.7,2.6-5.7,5.7s4.5,10.2,4.4,13.8c0,3.5-4.4,12-4.4,15S160.6,159.2,163.9,159.2z M192.6,130.4c3.3,0,5.7-2.7,5.7-5.7
						s-4.5-11.4-4.4-15c0-3.5,4.4-10.7,4.4-13.8s-2.4-5.7-5.7-5.7s-5.7,2.6-5.7,5.7s4.5,10.2,4.4,13.8c0,3.5-4.4,12-4.4,15
						C186.9,127.7,189.3,130.4,192.6,130.4z"/>
					<path class="st43" d="M192.6,159.2c3.3,0,5.7-2.7,5.7-5.7s-4.5-11.4-4.4-15c0-3.5,4.4-10.7,4.4-13.8s-2.4-5.7-5.7-5.7
						s-5.7,2.6-5.7,5.7s4.5,10.2,4.4,13.8c0,3.5-4.4,12-4.4,15C186.9,156.5,189.3,159.2,192.6,159.2z M221.4,130.4
						c3.3,0,5.7-2.7,5.7-5.7s-4.5-11.4-4.4-15c0-3.5,4.4-10.7,4.4-13.8s-2.4-5.7-5.7-5.7s-5.7,2.6-5.7,5.7s4.5,10.2,4.4,13.8
						c0,3.5-4.4,12-4.4,15C215.7,127.7,218.1,130.4,221.4,130.4z"/>
					<path class="st43" d="M221.4,159.2c3.3,0,5.7-2.7,5.7-5.7s-4.5-11.4-4.4-15c0-3.5,4.4-10.7,4.4-13.8s-2.4-5.7-5.7-5.7
						s-5.7,2.6-5.7,5.7s4.5,10.2,4.4,13.8c0,3.5-4.4,12-4.4,15S218.1,159.2,221.4,159.2z"/>
				</g>
				<g transform="translate(7.25 7.25)">
					<path class="st44" d="M14.4,96c0,3.3,2.7,5.7,5.7,5.7s11.4-4.5,15-4.4c3.5,0,10.7,4.4,13.8,4.4s5.7-2.4,5.7-5.7
						c0-3.3-2.6-5.7-5.7-5.7s-10.2,4.5-13.8,4.4c-3.5,0-12-4.4-15-4.4C17.2,90.3,14.4,92.7,14.4,96z"/>
					<path class="st44" d="M43.2,96c0,3.3,2.7,5.7,5.7,5.7s11.4-4.5,15-4.4c3.5,0,10.7,4.4,13.8,4.4c3.1,0,5.7-2.4,5.7-5.7
						c0-3.3-2.6-5.7-5.7-5.7s-10.2,4.5-13.8,4.4c-3.5,0-12-4.4-15-4.4C45.9,90.3,43.2,92.7,43.2,96z"/>
					<path class="st44" d="M71.9,96c0,3.3,2.7,5.7,5.7,5.7s11.4-4.5,15-4.4c3.5,0,10.7,4.4,13.8,4.4c3.1,0,5.7-2.4,5.7-5.7
						c0-3.3-2.6-5.7-5.7-5.7s-10.2,4.5-13.8,4.4c-3.5,0-12-4.4-15-4.4C74.7,90.3,71.9,92.7,71.9,96z"/>
					<path class="st44" d="M100.7,96c0,3.3,2.7,5.7,5.7,5.7s11.4-4.5,15-4.4c3.5,0,10.7,4.4,13.8,4.4s5.7-2.4,5.7-5.7
						c0-3.3-2.6-5.7-5.7-5.7s-10.2,4.5-13.8,4.4c-3.5,0-12-4.4-15-4.4C103.4,90.3,100.7,92.7,100.7,96z"/>
					<path class="st44" d="M129.4,96c0,3.3,2.7,5.7,5.7,5.7s11.4-4.5,15-4.4c3.5,0,10.7,4.4,13.8,4.4s5.7-2.4,5.7-5.7
						c0-3.3-2.6-5.7-5.7-5.7s-10.2,4.5-13.8,4.4c-3.5,0-12-4.4-15-4.4C132.2,90.3,129.4,92.7,129.4,96z"/>
					<path class="st44" d="M158.2,96c0,3.3,2.7,5.7,5.7,5.7s11.4-4.5,15-4.4c3.5,0,10.7,4.4,13.8,4.4s5.7-2.4,5.7-5.7
						c0-3.3-2.6-5.7-5.7-5.7s-10.2,4.5-13.8,4.4c-3.5,0-12-4.4-15-4.4S158.2,92.7,158.2,96z"/>
					<path class="st44" d="M186.9,96c0,3.3,2.7,5.7,5.7,5.7s11.4-4.5,15-4.4c3.5,0,10.7,4.4,13.8,4.4s5.7-2.4,5.7-5.7
						c0-3.3-2.6-5.7-5.7-5.7s-10.2,4.5-13.8,4.4c-3.5,0-12-4.4-15-4.4C189.7,90.3,186.9,92.7,186.9,96z"/>
					<path class="st44" d="M14.4,124.8c0,3.3,2.7,5.7,5.7,5.7s11.4-4.5,15-4.4s10.7,4.4,13.8,4.4s5.7-2.4,5.7-5.7s-2.6-5.7-5.7-5.7
						s-10.2,4.5-13.8,4.4c-3.5,0-12-4.4-15-4.4C17.2,119,14.4,121.4,14.4,124.8z"/>
					<path class="st44" d="M43.2,124.8c0,3.3,2.7,5.7,5.7,5.7s11.4-4.5,15-4.4c3.5,0,10.7,4.4,13.8,4.4s5.7-2.4,5.7-5.7
						s-2.6-5.7-5.7-5.7s-10.2,4.5-13.8,4.4c-3.5,0-12-4.4-15-4.4C45.9,119,43.2,121.4,43.2,124.8z"/>
					<path class="st44" d="M71.9,124.8c0,3.3,2.7,5.7,5.7,5.7s11.4-4.5,15-4.4c3.5,0,10.7,4.4,13.8,4.4s5.7-2.4,5.7-5.7
						s-2.6-5.7-5.7-5.7s-10.2,4.5-13.8,4.4c-3.5,0-12-4.4-15-4.4C74.7,119,71.9,121.4,71.9,124.8z"/>
					<path class="st44" d="M100.7,124.8c0,3.3,2.7,5.7,5.7,5.7s11.4-4.5,15-4.4c3.5,0,10.7,4.4,13.8,4.4s5.7-2.4,5.7-5.7
						s-2.6-5.7-5.7-5.7s-10.2,4.5-13.8,4.4c-3.5,0-12-4.4-15-4.4C103.4,119,100.7,121.4,100.7,124.8z"/>
					<path class="st44" d="M129.4,124.8c0,3.3,2.7,5.7,5.7,5.7s11.4-4.5,15-4.4c3.5,0,10.7,4.4,13.8,4.4s5.7-2.4,5.7-5.7
						s-2.6-5.7-5.7-5.7s-10.2,4.5-13.8,4.4c-3.5,0-12-4.4-15-4.4C132.2,119,129.4,121.4,129.4,124.8z"/>
					<path class="st44" d="M158.2,124.8c0,3.3,2.7,5.7,5.7,5.7s11.4-4.5,15-4.4c3.5,0,10.7,4.4,13.8,4.4s5.7-2.4,5.7-5.7
						s-2.6-5.7-5.7-5.7s-10.2,4.5-13.8,4.4c-3.5,0-12-4.4-15-4.4C160.9,119,158.2,121.4,158.2,124.8z"/>
					<path class="st44" d="M186.9,124.8c0,3.3,2.7,5.7,5.7,5.7s11.4-4.5,15-4.4c3.5,0,10.7,4.4,13.8,4.4s5.7-2.4,5.7-5.7
						s-2.6-5.7-5.7-5.7s-10.2,4.5-13.8,4.4c-3.5,0-12-4.4-15-4.4C189.7,119,186.9,121.4,186.9,124.8z"/>
					<path class="st44" d="M14.4,153.5c0,3.3,2.7,5.7,5.7,5.7s11.4-4.5,15-4.4c3.5,0,10.7,4.4,13.8,4.4s5.7-2.4,5.7-5.7
						s-2.6-5.7-5.7-5.7s-10.2,4.5-13.8,4.4c-3.5,0-12-4.4-15-4.4C17.2,147.8,14.4,150.2,14.4,153.5z"/>
					<path class="st44" d="M43.2,153.5c0,3.3,2.7,5.7,5.7,5.7s11.4-4.5,15-4.4c3.5,0,10.7,4.4,13.8,4.4s5.7-2.4,5.7-5.7
						s-2.6-5.7-5.7-5.7s-10.2,4.5-13.8,4.4c-3.5,0-12-4.4-15-4.4C45.9,147.8,43.2,150.2,43.2,153.5z"/>
					<path class="st44" d="M71.9,153.5c0,3.3,2.7,5.7,5.7,5.7s11.4-4.5,15-4.4c3.5,0,10.7,4.4,13.8,4.4s5.7-2.4,5.7-5.7
						s-2.6-5.7-5.7-5.7s-10.2,4.5-13.8,4.4c-3.5,0-12-4.4-15-4.4C74.7,147.8,71.9,150.2,71.9,153.5z"/>
					<path class="st44" d="M100.7,153.5c0,3.3,2.7,5.7,5.7,5.7s11.4-4.5,15-4.4c3.5,0,10.7,4.4,13.8,4.4s5.7-2.4,5.7-5.7
						s-2.6-5.7-5.7-5.7s-10.2,4.5-13.8,4.4c-3.5,0-12-4.4-15-4.4C103.4,147.8,100.7,150.2,100.7,153.5z"/>
					<path class="st44" d="M129.4,153.5c0,3.3,2.7,5.7,5.7,5.7s11.4-4.5,15-4.4c3.5,0,10.7,4.4,13.8,4.4s5.7-2.4,5.7-5.7
						s-2.6-5.7-5.7-5.7s-10.2,4.5-13.8,4.4c-3.5,0-12-4.4-15-4.4C132.2,147.8,129.4,150.2,129.4,153.5z"/>
					<path class="st44" d="M158.2,153.5c0,3.3,2.7,5.7,5.7,5.7s11.4-4.5,15-4.4c3.5,0,10.7,4.4,13.8,4.4s5.7-2.4,5.7-5.7
						s-2.6-5.7-5.7-5.7s-10.2,4.5-13.8,4.4c-3.5,0-12-4.4-15-4.4S158.2,150.2,158.2,153.5z"/>
					<path class="st44" d="M186.9,153.5c0,3.3,2.7,5.7,5.7,5.7s11.4-4.5,15-4.4c3.5,0,10.7,4.4,13.8,4.4s5.7-2.4,5.7-5.7
						s-2.6-5.7-5.7-5.7s-10.2,4.5-13.8,4.4c-3.5,0-12-4.4-15-4.4C189.7,147.8,186.9,150.2,186.9,153.5z"/>
				</g>
				<g transform="translate(7.25 7.25)">
					<circle class="st45" cx="20.1" cy="96" r="5.7"/>
					<circle class="st46" cx="48.9" cy="96" r="5.7"/>
					<circle class="st47" cx="77.6" cy="96" r="5.7"/>
					<circle class="st48" cx="106.4" cy="96" r="5.7"/>
					<circle class="st49" cx="135.1" cy="96" r="5.7"/>
					<circle class="st50" cx="163.9" cy="96" r="5.7"/>
					<circle class="st51" cx="192.6" cy="96" r="5.7"/>
					<circle class="st52" cx="221.4" cy="96" r="5.7"/>
					<circle class="st53" cx="20.1" cy="124.8" r="5.7"/>
					<circle class="st54" cx="48.9" cy="124.8" r="5.7"/>
					<circle class="st55" cx="77.6" cy="124.8" r="5.7"/>
					<circle class="st56" cx="106.4" cy="124.8" r="5.7"/>
					<circle class="st57" cx="135.1" cy="124.8" r="5.7"/>
					<circle class="st58" cx="163.9" cy="124.8" r="5.7"/>
					<circle class="st51" cx="192.6" cy="124.8" r="5.7"/>
					<circle class="st59" cx="221.4" cy="124.8" r="5.7"/>
					<circle class="st60" cx="20.1" cy="153.5" r="5.7"/>
					<circle class="st61" cx="48.9" cy="153.5" r="5.7"/>
					<circle class="st62" cx="77.6" cy="153.5" r="5.7"/>
					<circle class="st63" cx="106.4" cy="153.5" r="5.7"/>
					<circle class="st64" cx="135.1" cy="153.5" r="5.7"/>
					<circle class="st50" cx="163.9" cy="153.5" r="5.7"/>
					<circle class="st51" cx="192.6" cy="153.5" r="5.7"/>
					<circle class="st65" cx="221.4" cy="153.5" r="5.7"/>
				</g>
			</g>
		</g>
	</g>
	<g>
		<polygon class="st66" points="138.5,148.8 138.5,150.7 140.6,150.7 140.6,161.3 142.7,161.3 142.7,150.7 144.8,150.7 144.8,148.8 
					"/>
		<path class="st66" d="M156.6,154.4h0.8c1.2,0,1.6-0.4,1.6-1.9c0-1.5-0.4-1.9-1.6-1.9h-0.8V154.4z M156.6,161.3h-2.1v-12.5h3
			c2.4,0,3.6,1,3.6,3.7c0,2-0.8,2.8-1.5,3.2l1.8,5.7h-2.2l-1.5-5.2c-0.3,0-0.7,0.1-1.1,0.1V161.3z"/>
		<path class="st66" d="M174.2,151.3L174.2,151.3l0.9,5.4h-1.7L174.2,151.3z M172.9,148.8l-2.3,12.5h2.1l0.4-2.8h2.4l0.4,2.8h2.1
			l-2.3-12.5H172.9z"/>
		<path class="st66" d="M189.4,159.6h0.7c1.1,0,1.5-0.4,1.5-1.7v-5.5c0-1.3-0.4-1.7-1.5-1.7h-0.7V159.6z M187.3,148.8h3.2
			c2.2,0,3.4,1.2,3.4,3.8v4.9c0,2.6-1.2,3.8-3.4,3.8h-3.2V148.8z"/>
		<rect x="205.8" y="148.8" class="st66" width="2.1" height="12.5"/>
		<polygon class="st66" points="224.6,148.8 224.6,156 224.5,156 221.9,148.8 219.9,148.8 219.9,161.3 221.9,161.3 221.9,153.5 
			221.9,153.5 224.6,161.3 226.5,161.3 226.5,148.8 		"/>
		<path class="st66" d="M238.8,155h3.5v6.3h-1l-0.4-0.9c-0.6,0.8-1.2,1.1-2.2,1.1c-1.7,0-2.9-1.2-2.9-3.2v-6.4c0-1.8,1-3.2,3.1-3.2
			c2.1,0,3.2,1.6,3.2,3.4v0.8h-2c0-1.9-0.4-2.4-1.2-2.4c-0.5,0-1,0.3-1,1.4v6.4c0,0.8,0.3,1.3,1,1.3c0.9,0,1.2-0.5,1.2-1.7v-1.2
			h-1.4V155z"/>
		<path class="st66" d="M206.2,136.3v-16.5c0-3.5-0.4-5.9-2-8c-2.1-2.7-4.5-3.7-7.8-3.7c-4.6,0-8.3,2.8-10.7,6
			c-0.3-0.8-0.7-1.6-1.3-2.3c-2.1-2.7-4.5-3.7-7.8-3.7c-4.1,0-7.5,2.2-9.9,5c0-1.8,0-3.3,0-4.4h-10v1h0.6c1.3,0,2.2,0.8,2.2,2.4
			c0,0.5,0,23.7,0,24.2c0,1.6-0.9,2.4-2.2,2.4h-0.6v1l12.8,0v-1h-0.6c-1.4,0-2.2-0.8-2.2-2.4c0-0.3,0-11.2,0-19.5
			c1.6-2.1,4.3-4.5,7.2-4.5c2,0,3.5,0.8,4.4,2c0.9,1.2,1,2.5,1,4v18c0,1.6-0.9,2.4-2.2,2.4h-0.6v1h12.8v-1h-0.6
			c-1.4,0-2.2-0.8-2.2-2.4c0-0.5,0-13.5,0-16.5c0-1,0-1.9-0.1-2.8c1.6-2.2,4.4-4.7,7.3-4.7c2,0,3.5,0.8,4.4,2c0.9,1.2,1,2.5,1,4
			c0,1.5,0,17.4,0,18c0,1.6-0.9,2.4-2.2,2.4h-0.6v1h12.8v-1h-0.6C207.1,138.7,206.2,137.9,206.2,136.3"/>
		<path class="st66" d="M138.7,109.7h0.6c1.3,0,2.2,0.8,2.2,2.4c0,0.5,0,23.4,0,23.9c0,1.6-0.9,2.7-2.2,2.7h-0.6v1l12.8,0v-1h-0.6
			c-1.4,0-2.2-0.8-2.2-2.4c0-0.5,0-23.6,0-24.2c0-1.6,0.9-2.4,2.2-2.4h0.6v-1h-12.8V109.7z"/>
		<path class="st66" d="M241.1,131.7c-1.3,2-4.7,5.7-10.4,5.5c-4.8-0.2-9-4.1-10.8-10.6c-2.3-8.1-0.3-13.6,4.9-15.9
			c4-1.9,8.7,0.1,10,2c-1.8,0.9-2.2,3.2-1.7,4.5c0.8,2.5,4,3.8,6.4,1.9c1.4-1.1,1.8-2.8,1.4-4.5c-0.4-1.9-1.9-3.3-3.7-4.4
			c-2.3-1.5-5-2.4-8.5-2.4c-8.4-0.1-16.2,7-16.2,16.7c0,10,8.7,16.1,16.1,16.1c7.7,0,12.5-4.8,14.2-8L241.1,131.7z"/>
		<path class="st66" d="M34.4,112.5c-1.6,0-2.9-1.3-2.9-2.9c0-1.6,1.3-2.9,2.9-2.9s2.9,1.3,2.9,2.9C37.3,111.2,36,112.5,34.4,112.5
			 M34.4,102.5c-3.9,0-7,3.2-7,7.1c0,3.9,3.1,7.1,7,7.1s7-3.2,7-7.1C41.4,105.7,38.2,102.5,34.4,102.5"/>
		<path class="st66" d="M62.3,126.6c-1.6,0-2.9-1.3-2.9-2.9c0-1.6,1.3-2.9,2.9-2.9c1.6,0,2.9,1.3,2.9,2.9
			C65.2,125.3,63.9,126.6,62.3,126.6 M62.3,116.6c-3.9,0-7,3.2-7,7.1c0,3.9,3.1,7.1,7,7.1c3.9,0,7-3.2,7-7.1
			C69.3,119.8,66.2,116.6,62.3,116.6"/>
		<path class="st66" d="M62.3,112.5c-1.6,0-2.9-1.3-2.9-2.9c0-1.6,1.3-2.9,2.9-2.9c1.6,0,2.9,1.3,2.9,2.9
			C65.2,111.2,63.9,112.5,62.3,112.5 M62.3,102.5c-3.9,0-7,3.2-7,7.1c0,3.9,3.1,7.1,7,7.1c3.9,0,7-3.2,7-7.1
			C69.3,105.7,66.2,102.5,62.3,102.5"/>
		<path class="st66" d="M48.4,126.6c-1.6,0-2.9-1.3-2.9-2.9c0-1.6,1.3-2.9,2.9-2.9c1.6,0,2.9,1.3,2.9,2.9
			C51.3,125.3,50,126.6,48.4,126.6 M48.4,116.6c-3.9,0-7,3.2-7,7.1c0,3.9,3.1,7.1,7,7.1c3.9,0,7-3.2,7-7.1
			C55.3,119.8,52.2,116.6,48.4,116.6"/>
		<path class="st66" d="M48.4,112.5c-1.6,0-2.9-1.3-2.9-2.9c0-1.6,1.3-2.9,2.9-2.9c1.6,0,2.9,1.3,2.9,2.9
			C51.3,111.2,50,112.5,48.4,112.5 M48.4,102.5c-3.9,0-7,3.2-7,7.1c0,3.9,3.1,7.1,7,7.1c3.9,0,7-3.2,7-7.1
			C55.3,105.7,52.2,102.5,48.4,102.5"/>
		<path class="st66" d="M48.4,140.7c-1.6,0-2.9-1.3-2.9-2.9c0-1.6,1.3-2.9,2.9-2.9c1.6,0,2.9,1.3,2.9,2.9
			C51.3,139.4,50,140.7,48.4,140.7 M48.4,130.7c-3.9,0-7,3.2-7,7.1c0,3.9,3.1,7.1,7,7.1c3.9,0,7-3.2,7-7.1
			C55.3,133.9,52.2,130.7,48.4,130.7"/>
		<path class="st66" d="M34.4,140.7c-1.6,0-2.9-1.3-2.9-2.9c0-1.6,1.3-2.9,2.9-2.9s2.9,1.3,2.9,2.9C37.3,139.4,36,140.7,34.4,140.7
			 M34.4,130.7c-3.9,0-7,3.2-7,7.1c0,3.9,3.1,7.1,7,7.1s7-3.2,7-7.1C41.4,133.9,38.2,130.7,34.4,130.7"/>
		<path class="st66" d="M76.3,126.6c-1.6,0-2.9-1.3-2.9-2.9c0-1.6,1.3-2.9,2.9-2.9c1.6,0,2.9,1.3,2.9,2.9
			C79.2,125.3,77.9,126.6,76.3,126.6 M76.3,116.6c-3.9,0-7,3.2-7,7.1c0,3.9,3.1,7.1,7,7.1c3.9,0,7-3.2,7-7.1
			C83.3,119.8,80.2,116.6,76.3,116.6"/>
		<path class="st66" d="M90.3,126.6c-1.6,0-2.9-1.3-2.9-2.9c0-1.6,1.3-2.9,2.9-2.9c1.6,0,2.9,1.3,2.9,2.9
			C93.2,125.3,91.9,126.6,90.3,126.6 M90.3,116.6c-3.9,0-7,3.2-7,7.1c0,3.9,3.1,7.1,7,7.1c3.9,0,7-3.2,7-7.1
			C97.3,119.8,94.1,116.6,90.3,116.6"/>
		<path class="st66" d="M104.3,126.6c-1.6,0-2.9-1.3-2.9-2.9c0-1.6,1.3-2.9,2.9-2.9c1.6,0,2.9,1.3,2.9,2.9
			C107.2,125.3,105.9,126.6,104.3,126.6 M104.3,116.6c-3.9,0-7,3.2-7,7.1c0,3.9,3.1,7.1,7,7.1c3.9,0,7-3.2,7-7.1
			C111.2,119.8,108.1,116.6,104.3,116.6"/>
		<path class="st66" d="M20.4,112.5c-1.6,0-2.9-1.3-2.9-2.9c0-1.6,1.3-2.9,2.9-2.9c1.6,0,2.9,1.3,2.9,2.9
			C23.3,111.2,22,112.5,20.4,112.5 M20.4,102.5c-3.9,0-7,3.2-7,7.1c0,3.9,3.1,7.1,7,7.1s7-3.2,7-7.1
			C27.4,105.7,24.3,102.5,20.4,102.5"/>
		<path class="st66" d="M62.3,140.7c-1.6,0-2.9-1.3-2.9-2.9c0-1.6,1.3-2.9,2.9-2.9c1.6,0,2.9,1.3,2.9,2.9
			C65.2,139.4,63.9,140.7,62.3,140.7 M62.3,130.7c-3.9,0-7,3.2-7,7.1c0,3.9,3.1,7.1,7,7.1c3.9,0,7-3.2,7-7.1
			C69.3,133.9,66.2,130.7,62.3,130.7"/>
		<path class="st66" d="M76.3,112.5c-1.6,0-2.9-1.3-2.9-2.9c0-1.6,1.3-2.9,2.9-2.9c1.6,0,2.9,1.3,2.9,2.9
			C79.2,111.2,77.9,112.5,76.3,112.5 M76.3,102.5c-3.9,0-7,3.2-7,7.1c0,3.9,3.1,7.1,7,7.1c3.9,0,7-3.2,7-7.1
			C83.3,105.7,80.2,102.5,76.3,102.5"/>
		<path class="st66" d="M90.3,112.5c-1.6,0-2.9-1.3-2.9-2.9c0-1.6,1.3-2.9,2.9-2.9c1.6,0,2.9,1.3,2.9,2.9
			C93.2,111.2,91.9,112.5,90.3,112.5 M90.3,102.5c-3.9,0-7,3.2-7,7.1c0,3.9,3.1,7.1,7,7.1c3.9,0,7-3.2,7-7.1
			C97.3,105.7,94.1,102.5,90.3,102.5"/>
		<path class="st66" d="M118.2,112.5c-1.6,0-2.9-1.3-2.9-2.9c0-1.6,1.3-2.9,2.9-2.9c1.6,0,2.9,1.3,2.9,2.9
			C121.1,111.2,119.8,112.5,118.2,112.5 M118.2,102.5c-3.9,0-7,3.2-7,7.1c0,3.9,3.1,7.1,7,7.1c3.9,0,7-3.2,7-7.1
			C125.2,105.7,122.1,102.5,118.2,102.5"/>
		<path class="st66" d="M118.2,140.7c-1.6,0-2.9-1.3-2.9-2.9c0-1.6,1.3-2.9,2.9-2.9c1.6,0,2.9,1.3,2.9,2.9
			C121.1,139.4,119.8,140.7,118.2,140.7 M118.2,130.7c-3.9,0-7,3.2-7,7.1c0,3.9,3.1,7.1,7,7.1c3.9,0,7-3.2,7-7.1
			C125.2,133.9,122.1,130.7,118.2,130.7"/>
		<path class="st66" d="M104.3,112.5c-1.6,0-2.9-1.3-2.9-2.9c0-1.6,1.3-2.9,2.9-2.9c1.6,0,2.9,1.3,2.9,2.9
			C107.2,111.2,105.9,112.5,104.3,112.5 M104.3,102.5c-3.9,0-7,3.2-7,7.1c0,3.9,3.1,7.1,7,7.1c3.9,0,7-3.2,7-7.1
			C111.2,105.7,108.1,102.5,104.3,102.5"/>
		<path class="st66" d="M104.3,140.7c-1.6,0-2.9-1.3-2.9-2.9c0-1.6,1.3-2.9,2.9-2.9c1.6,0,2.9,1.3,2.9,2.9
			C107.2,139.4,105.9,140.7,104.3,140.7 M104.3,130.7c-3.9,0-7,3.2-7,7.1c0,3.9,3.1,7.1,7,7.1c3.9,0,7-3.2,7-7.1
			C111.2,133.9,108.1,130.7,104.3,130.7"/>
		<path class="st66" d="M90.3,140.7c-1.6,0-2.9-1.3-2.9-2.9c0-1.6,1.3-2.9,2.9-2.9c1.6,0,2.9,1.3,2.9,2.9
			C93.2,139.4,91.9,140.7,90.3,140.7 M90.3,130.7c-3.9,0-7,3.2-7,7.1c0,3.9,3.1,7.1,7,7.1c3.9,0,7-3.2,7-7.1
			C97.3,133.9,94.1,130.7,90.3,130.7"/>
		<path class="st66" d="M76.3,140.7c-1.6,0-2.9-1.3-2.9-2.9c0-1.6,1.3-2.9,2.9-2.9c1.6,0,2.9,1.3,2.9,2.9
			C79.2,139.4,77.9,140.7,76.3,140.7 M76.3,130.7c-3.9,0-7,3.2-7,7.1c0,3.9,3.1,7.1,7,7.1c3.9,0,7-3.2,7-7.1
			C83.3,133.9,80.2,130.7,76.3,130.7"/>
		<path class="st66" d="M20.4,126.6c-1.6,0-2.9-1.3-2.9-2.9c0-1.6,1.3-2.9,2.9-2.9c1.6,0,2.9,1.3,2.9,2.9
			C23.3,125.3,22,126.6,20.4,126.6 M20.4,116.6c-3.9,0-7,3.2-7,7.1c0,3.9,3.1,7.1,7,7.1s7-3.2,7-7.1
			C27.4,119.8,24.3,116.6,20.4,116.6"/>
		<path class="st66" d="M34.4,126.6c-1.6,0-2.9-1.3-2.9-2.9c0-1.6,1.3-2.9,2.9-2.9s2.9,1.3,2.9,2.9C37.3,125.3,36,126.6,34.4,126.6
			 M34.4,116.6c-3.9,0-7,3.2-7,7.1c0,3.9,3.1,7.1,7,7.1s7-3.2,7-7.1C41.4,119.8,38.2,116.6,34.4,116.6"/>
		<path class="st66" d="M20.4,140.7c-1.6,0-2.9-1.3-2.9-2.9c0-1.6,1.3-2.9,2.9-2.9c1.6,0,2.9,1.3,2.9,2.9
			C23.3,139.4,22,140.7,20.4,140.7 M20.4,130.7c-3.9,0-7,3.2-7,7.1c0,3.9,3.1,7.1,7,7.1s7-3.2,7-7.1
			C27.4,133.9,24.3,130.7,20.4,130.7"/>
		<path class="st66" d="M118.2,126.6c-1.6,0-2.9-1.3-2.9-2.9c0-1.6,1.3-2.9,2.9-2.9c1.6,0,2.9,1.3,2.9,2.9
			C121.1,125.3,119.8,126.6,118.2,126.6 M118.2,116.6c-3.9,0-7,3.2-7,7.1c0,3.9,3.1,7.1,7,7.1c3.9,0,7-3.2,7-7.1
			C125.2,119.8,122.1,116.6,118.2,116.6"/>
	</g>
</g>
</svg>
