<?xml version="1.0" encoding="utf-8"?>
<!-- Generator: Adobe Illustrator 26.3.1, SVG Export Plug-In . SVG Version: 6.00 Build 0)  -->
<svg version="1.1" id="affiliation" xmlns="http://www.w3.org/2000/svg" xmlns:xlink="http://www.w3.org/1999/xlink" x="0px"
	 y="0px" viewBox="0 0 256 256" style="enable-background:new 0 0 256 256;" xml:space="preserve">
<style type="text/css">
	.st0{fill:#FFFFFF;}
	.st1{display:none;fill:#FFFFFF;}
	.st2{fill:#04316A;}
</style>
<rect id="black" width="256" height="256"/>
<circle id="background_x5F_circle" class="st0" cx="128" cy="128" r="128"/>
<path id="background_x5F_rectangle" class="st1" d="M206.9,256H49.1C22.1,256,0,233.9,0,206.9V49.1C0,22.1,22.1,0,49.1,0h157.9
	c27,0,49.1,22.1,49.1,49.1v157.9C256,233.9,233.9,256,206.9,256z"/>
<g id="logo">
	<g id="Logo" transform="matrix(1 0 0 1 0 -2)">
		<path class="st2" d="M31.3,100l3.8-3.8v67.9h-3.8V100z M42.5,96.8h44.9v-3.8H38.8v3.8V138h41.3v-3.8H42.5V96.8z M85.8,126.7H50
			v-15h30.6l3.8-3.8H50v-3.8h37.4v-3.8H50h-3.8v29.9H82L85.8,126.7z M38.8,143.6v20.6h3.8v-18.7h3.8V161l3.8-3.8v-11.8h30.1v-3.8
			H38.8V143.6z M220.9,93.1v43c0,10-4.5,18.6-14.9,25.2l-0.1-0.1c6.9-5.4,11.2-12.4,11.2-21.4V93.1h-3.8v46.6
			c0,13.4-10.9,23.5-24.3,23.5s-24.3-10.1-24.3-23.5V96.2l-3.8,3.8v39.8c0,15.5,12.6,27.1,28.1,27.1c0.4,0,3.8,0,3.8,0
			c15.3,0,31.8-11.3,31.8-30.8V93.1L220.9,93.1L220.9,93.1z M189.1,159.5c11.3,0,20.6-8.4,20.6-19.8l0,0V96.2L206,100v36.1
			c0,7.2-5.9,12.1-13.1,12.1s-13.1-4.9-13.1-12.1v-43H176v43c0,9.3,7.5,15.9,16.8,15.9c3.8,0,8.4-1.9,11.5-5.2l0.1,0.1
			c-2.9,5.4-8.4,8.8-15.4,8.8c-9.2,0-16.7-6.7-16.8-15.9l0,0V93.1h-3.8v46.8l0,0C168.6,151.1,177.8,159.5,189.1,159.5z M106,141.7
			l-9.4,22.4h3.8l0,0l0,0l4.7-11.2h31.7l4.7,11.2h3.8l-6.3-15h-32.3l1.6-3.8H141l7.9,18.7h3.8l-9.4-22.4L106,141.7L106,141.7z
			 M111.5,93.1L84,158.3l2.4,3.2l28.9-68.5H111.5z M126.5,93.1l28.8,68.5l2.4-3.2l-27.5-65.2H126.5z M103.8,138l-11.1,26.2H89
			l28.1-66.6l15.5,36.7h3.8L119,93.1h3.8l18.9,44.9H103.8z M120.9,115.3l-8,18.9h15.9L120.9,115.3z M105.4,134.2h3.8l9.8-23.4
			l-1.9-4.4L105.4,134.2z"/>
	</g>
</g>
</svg>
