<?xml version="1.0" encoding="utf-8"?>
<!-- Generator: Adobe Illustrator 26.3.1, SVG Export Plug-In . SVG Version: 6.00 Build 0)  -->
<svg version="1.1" id="affiliation" xmlns="http://www.w3.org/2000/svg" xmlns:xlink="http://www.w3.org/1999/xlink" x="0px"
	 y="0px" viewBox="0 0 256 256" style="enable-background:new 0 0 256 256;" xml:space="preserve">
<style type="text/css">
	.st0{fill:#FFFFFF;}
	.st1{display:none;fill:#FFFFFF;}
	.st2{fill:#00417F;}
	.st3{fill:#AEBFD9;}
</style>
<rect id="black" width="256" height="256"/>
<circle id="background_x5F_circle" class="st0" cx="128" cy="128" r="128"/>
<path id="background_x5F_rectangle" class="st1" d="M206.9,256H49.1C22.1,256,0,233.9,0,206.9V49.1C0,22.1,22.1,0,49.1,0h157.9
	c27,0,49.1,22.1,49.1,49.1v157.9C256,233.9,233.9,256,206.9,256z"/>
<g id="logo">
	<g>
		<path id="path13029" class="st2" d="M79.9,121.3c-0.3,21.7,6.7,41.6,20.7,60.5L83,198.6C59.2,175,44.1,150,37.6,122.9
			c5.8,3.1,12.4,4.9,19.5,4.9C65.5,127.8,73.4,125.6,79.9,121.3z M149.7,220.2c-6.6,5.2-13.7,10.4-21.2,15.5
			c-7.5-5.1-14.6-10.3-21.2-15.5c-6.8-5.3-13.1-10.7-18.9-16.2l16.9-16.2c6.5,7.9,14,15.1,23.2,22.5c39.7-31.9,55.2-68.4,46.6-109.8
			H96.2c1.6-4.4,2.2-9,2.2-13.9c0-7-1.7-13.6-4.8-19.4H221C230.4,125.9,206.6,175.2,149.7,220.2"/>
		<path id="path13031" class="st3" d="M23,86.5c0-18.9,15.3-34.1,34.1-34.1s34.1,15.3,34.1,34.1c0,18.9-15.3,34.1-34.1,34.1
			S23,105.4,23,86.5"/>
	</g>
</g>
</svg>
