<?xml version="1.0" encoding="utf-8"?>
<!-- Generator: Adobe Illustrator 26.3.1, SVG Export Plug-In . SVG Version: 6.00 Build 0)  -->
<svg version="1.1" id="affiliation" xmlns="http://www.w3.org/2000/svg" xmlns:xlink="http://www.w3.org/1999/xlink" x="0px"
	 y="0px" viewBox="0 0 256 256" style="enable-background:new 0 0 256 256;" xml:space="preserve">
<style type="text/css">
	.st0{fill:#FFFFFF;}
	.st1{display:none;fill:#FFFFFF;}
	.st2{fill:#1954A6;}
</style>
<rect id="black" width="256" height="256"/>
<circle id="background_x5F_circle" class="st0" cx="128" cy="128" r="128"/>
<path id="background_x5F_rectangle" class="st1" d="M206.9,256H49.1C22.1,256,0,233.9,0,206.9V49.1C0,22.1,22.1,0,49.1,0h157.9
	c27,0,49.1,22.1,49.1,49.1v157.9C256,233.9,233.9,256,206.9,256z"/>
<g id="logo">
	<g>
		<rect x="47.8" y="47.8" class="st2" width="160.4" height="160.4"/>
		<g>
			<path class="st0" d="M131,193.6c1.4-1.6,2.9-3.3,3.9-4.3c2.1-2.1,4.2-2,4.2-2s-2.4-1.2-5,1.4c-0.7,0.7-2.2,2.4-3.8,4.2
				c-0.6-0.6-1.1-1.3-1.7-1.9c0.6-0.6,1.1-1.2,1.6-1.7c2.1-2.1,4.2-2,4.2-2s-2.4-1.2-5,1.4c-0.3,0.3-0.8,0.9-1.5,1.6
				c-0.6-0.7-1.1-1.3-1.5-1.6c-2.6-2.6-5-1.4-5-1.4s2.1,0,4.2,2c0.5,0.5,1,1,1.6,1.7c-0.5,0.6-1.1,1.2-1.7,1.9
				c-1.6-1.8-3.1-3.5-3.8-4.2c-2.6-2.6-5-1.4-5-1.4s2.1,0,4.2,2c1,1,2.5,2.7,3.9,4.3c-1.3,1.5-2.6,2.9-3.3,3.6
				c-1.7,1.7-3.7,1.8-3.7,1.8s2.2,1.3,5.1-1.7c0.5-0.6,1.5-1.7,2.6-2.9c0.6,0.7,1.2,1.3,1.6,1.8c-0.4,0.4-0.7,0.7-0.9,1
				c-1.7,1.7-3.7,1.8-3.7,1.8s2.2,1.3,5.1-1.7c0.1-0.1,0.2-0.2,0.3-0.3c0.1,0.1,0.2,0.2,0.3,0.3c2.9,3,5.1,1.7,5.1,1.7
				s-2-0.1-3.7-1.8c-0.2-0.2-0.6-0.6-0.9-1c0.5-0.5,1-1.2,1.6-1.8c1.1,1.2,2.1,2.4,2.6,2.9c2.9,3,5.1,1.7,5.1,1.7s-2-0.1-3.7-1.8
				C133.6,196.5,132.4,195.1,131,193.6z M128,195.5c-0.5-0.6-1.1-1.2-1.7-1.8c0.6-0.6,1.1-1.3,1.7-1.9c0.5,0.6,1.1,1.2,1.7,1.9
				C129.1,194.3,128.5,194.9,128,195.5z"/>
			<path class="st0" d="M74.1,104.9c0.3,1,1.2,1.6,2.4,1.6c0.3,0,0.7-0.1,1-0.2c0,0.1,0.1,0.1,0.2,0.2c0.2,0.2,0.4,0.4,0.6,0.6
				c0.1,0.1,0.2,0.1,0.2,0.1c0.1,0,0.3-0.1,0.4-0.2c0.1-0.2,0.1-0.5-0.1-0.6c-0.2-0.1-0.3-0.2-0.4-0.4c0,0,0-0.1-0.1-0.1
				c0.5-0.3,0.8-0.6,1.1-1.1c0.3-0.6,0.3-1.2,0.2-1.7c-0.2-0.6-0.6-0.7-0.9-0.8c0,0-0.1,0-0.1,0c0-0.1-0.1-0.3-0.1-0.4
				c-0.4-1.3-1.6-2.4-2.6-2.3c-0.1-0.1-0.3-0.2-0.5-0.1c-0.2,0.1-0.3,0.2-0.4,0.4c-0.2,0.1-0.4,0.4-0.6,0.7
				c-0.4,0.7-0.5,1.8-0.2,2.7c0,0.1,0.1,0.3,0.2,0.4c0,0-0.1,0-0.1,0C74.2,103.9,73.9,104.3,74.1,104.9z M78.8,103.7
				c0,0.3,0,0.6-0.1,0.9c-0.2,0.5-0.7,0.8-1.3,1c-0.3,0.1-0.5,0.1-0.8,0.1c-0.7,0-1.3-0.3-1.5-0.8c0.3,0.1,0.6,0.1,0.7,0.1
				c0.4,0,0.9-0.1,1.3-0.2C77.7,104.5,78.4,104.1,78.8,103.7z M75.2,101c0.1-0.2,0.2-0.3,0.3-0.3c0.1,0,0.1-0.1,0.2-0.1
				c0.1,0,0.1,0,0.2,0c0.3-0.1,1.3,0.6,1.7,1.7c0.1,0.4,0.2,0.7,0.1,1.1c-0.2,0.2-0.6,0.4-1,0.5c-0.3,0.1-0.7,0.2-1,0.2
				c0,0-0.1,0-0.1,0c-0.2-0.3-0.4-0.6-0.5-1C74.9,102.3,75,101.5,75.2,101z"/>
			<path class="st0" d="M84.1,112.1c0.6,0,0.9-0.4,1-0.6c0,0,0-0.1,0-0.1c0.1,0,0.2,0,0.3,0c0,0,0.1,0,0.1,0c1,0,1.9-0.4,2.5-1
				c0.2-0.2,0.4-0.5,0.4-0.8c0.1-0.1,0.3-0.2,0.3-0.4c0-0.2-0.2-0.4-0.3-0.5c-0.2-0.9-1.6-1.7-3-1.7c-0.1,0-0.3,0-0.4,0
				c0,0,0-0.1,0-0.1c-0.1-0.2-0.4-0.6-1-0.6c0,0,0,0,0,0c-0.7,0-1.3,0.3-1.8,0.9c-0.2,0.3-0.4,0.7-0.5,1.1c0,0-0.1,0-0.1,0
				c-0.2-0.1-0.4-0.1-0.5-0.3c-0.2-0.1-0.5-0.1-0.6,0.1c-0.1,0.2-0.1,0.5,0.1,0.6c0.2,0.2,0.5,0.3,0.8,0.4c0.1,0,0.2,0.1,0.3,0.1
				C81.6,110.9,82.7,112.1,84.1,112.1C84.1,112.1,84.1,112.1,84.1,112.1z M85.4,107.9c1.1,0,2.2,0.7,2.2,1c0,0.1,0,0.2,0.1,0.2
				c0,0.1-0.1,0.1-0.1,0.2c0,0.1-0.1,0.2-0.2,0.4c-0.3,0.4-1.1,0.8-1.9,0.8c-0.4,0-0.7,0-1.1-0.2c-0.1-0.3-0.2-0.7-0.2-1.1
				c0-0.5,0.1-0.8,0.2-1.1C84.7,108,85.1,107.9,85.4,107.9z M82.5,109.3c0-0.6,0.1-1.1,0.4-1.5c0.2-0.2,0.5-0.5,0.9-0.6
				c-0.3,0.5-0.5,1.2-0.5,2c0,0.7,0.2,1.5,0.5,2C83.1,111.1,82.5,110.3,82.5,109.3z"/>
			<path class="st0" d="M79.4,133.2c0.1-0.3,0.1-0.6,0-0.9c0.1-0.1,0.1-0.3,0-0.5c-0.1-0.2-0.3-0.2-0.5-0.3
				c-0.6-0.7-2.3-0.7-3.5,0.1c-0.1,0.1-0.2,0.2-0.4,0.2c0,0,0-0.1-0.1-0.1c0,0-0.3-0.2-0.6-0.2c-0.2,0-0.4,0.1-0.6,0.2
				c-0.6,0.4-1,1-1.1,1.7c-0.1,0.4,0,0.8,0.1,1.3c0,0-0.1,0-0.1,0c-0.2,0-0.4,0.1-0.6,0c-0.2,0-0.5,0.1-0.5,0.4
				c0,0.2,0.1,0.5,0.4,0.5c0.1,0,0.2,0,0.3,0c0.2,0,0.4,0,0.6-0.1c0.1,0,0.2,0,0.3-0.1c0.6,0.9,1.5,1.5,2.4,1.5
				c0.4,0,0.8-0.1,1.2-0.3c0.5-0.3,0.6-0.8,0.5-1c0,0,0,0,0-0.1c0.1-0.1,0.3-0.1,0.4-0.2C78.5,134.8,79.2,134,79.4,133.2z
				 M75.9,132.3c1-0.6,2.2-0.5,2.4-0.2c0,0.1,0.1,0.1,0.2,0.2c0,0.1,0,0.1,0.1,0.2c0,0.1,0.1,0.2,0,0.4c-0.1,0.5-0.6,1.2-1.3,1.6
				c-0.3,0.2-0.7,0.3-1,0.4c-0.2-0.2-0.5-0.5-0.8-0.9c-0.2-0.4-0.4-0.8-0.4-1.1C75.3,132.7,75.6,132.5,75.9,132.3z M74,135
				c-0.3-0.5-0.4-1-0.4-1.5c0-0.3,0.2-0.6,0.5-0.9c0,0.6,0.2,1.3,0.6,2c0.4,0.6,0.9,1.2,1.4,1.4C75.5,136.3,74.6,135.9,74,135z"/>
			<path class="st0" d="M64.2,134.1c0.1,0.1,0.2,0.2,0.3,0.3c0,0,0,0,0,0.1c-0.1,0.2-0.1,0.7,0.3,1.1c0.4,0.4,1,0.6,1.6,0.6h0
				c0.8,0,1.6-0.4,2.2-1c0.1,0,0.1,0.1,0.3,0.1c0.3,0.1,0.5,0.2,0.8,0.2c0,0,0,0,0,0c0.2,0,0.4-0.2,0.4-0.4c0-0.2-0.2-0.5-0.4-0.5
				c-0.2,0-0.4-0.1-0.6-0.2c0,0-0.1,0-0.1,0c0.3-0.5,0.4-1,0.4-1.5c0-0.6-0.3-1.2-0.7-1.6c-0.3-0.3-0.6-0.3-0.7-0.3
				c-0.2,0-0.4,0.1-0.4,0.1c0,0,0,0-0.1,0.1c-0.1-0.1-0.2-0.2-0.3-0.3c-1-1-2.6-1.3-3.4-0.8c-0.1,0-0.4,0-0.5,0.1
				c-0.2,0.2-0.1,0.4-0.1,0.5c-0.1,0.2-0.2,0.5-0.2,0.9C63.1,132.5,63.5,133.4,64.2,134.1z M68.6,133c0,0.5-0.2,1.1-0.7,1.5
				c-0.5,0.5-1,0.8-1.6,0.8h0c-0.3,0-0.6-0.1-0.8-0.2c0.6-0.1,1.2-0.6,1.7-1.1c0.5-0.6,0.9-1.2,1-1.8
				C68.5,132.4,68.6,132.7,68.6,133z M64,131.2c0.1-0.1,0.1-0.1,0.1-0.2c0.1,0,0.1-0.1,0.2-0.1c0.2-0.3,1.5-0.1,2.3,0.7
				c0.3,0.3,0.5,0.6,0.7,0.9c-0.1,0.3-0.3,0.6-0.6,1c-0.3,0.3-0.6,0.6-0.9,0.7c-0.3-0.1-0.6-0.3-0.9-0.6c-0.6-0.6-0.9-1.4-0.9-1.9
				C63.9,131.4,63.9,131.2,64,131.2z"/>
			<path class="st0" d="M83.1,157.5c-0.1-0.3-0.2-0.6-0.4-0.8c0-0.1,0-0.3-0.2-0.5c-0.2-0.1-0.4-0.1-0.5,0c-0.9-0.3-2.3,0.5-3,1.7
				c-0.1,0.1-0.1,0.3-0.2,0.4c0,0-0.1,0-0.1,0c0,0-0.1,0-0.1,0c-0.4,0-0.7,0.2-0.9,0.6c-0.6,1-0.3,2.2,0.6,3c0,0,0,0-0.1,0.1
				c-0.2,0.1-0.3,0.2-0.5,0.3c-0.2,0.1-0.3,0.3-0.2,0.6c0.1,0.2,0.2,0.3,0.4,0.3c0.1,0,0.1,0,0.2,0c0.3-0.1,0.5-0.3,0.7-0.5
				c0.1-0.1,0.1-0.1,0.2-0.2c0.5,0.3,1.1,0.5,1.6,0.5c0.9,0,1.6-0.4,2.1-1.1c0.3-0.5,0.1-1,0-1.2c0,0,0,0-0.1-0.1
				c0.1-0.1,0.2-0.2,0.2-0.4C83.2,159.4,83.3,158.4,83.1,157.5z M79.7,158.5c0.6-1,1.7-1.5,2-1.3c0.1,0,0.2,0.1,0.2,0.1
				c0,0.1,0.1,0.1,0.2,0.2c0.1,0,0.1,0.2,0.2,0.4c0.1,0.5,0.1,1.3-0.3,2c-0.2,0.3-0.4,0.6-0.7,0.8c-0.3-0.1-0.7-0.2-1.1-0.4
				c-0.4-0.2-0.7-0.5-0.9-0.7C79.3,159.2,79.5,158.8,79.7,158.5z M79.3,161.7c-0.8-0.5-1.4-1.3-1-2.2c0.3,0.5,0.8,1,1.5,1.4
				c0.6,0.4,1.4,0.6,2,0.6C81.2,162.2,80.2,162.3,79.3,161.7z"/>
			<path class="st0" d="M75.9,163.6c-0.1-0.2-0.4-0.3-0.6-0.2c-0.2,0.1-0.4,0.1-0.6,0.1c0,0-0.1,0-0.1,0c0-0.4-0.1-0.9-0.2-1.2
				c-0.3-0.7-0.8-1.1-1.5-1.3c-0.5-0.1-0.9,0.1-1.1,0.4c0,0,0,0.1,0,0.1c-0.1,0-0.3-0.1-0.4-0.1c-1.4-0.3-2.9,0.1-3.3,1
				c-0.1,0-0.3,0.1-0.4,0.4c-0.1,0.2,0.1,0.4,0.2,0.5c0,0.3,0.1,0.6,0.3,0.8c0.4,0.7,1.3,1.3,2.2,1.6c0.1,0,0.3,0.1,0.4,0.1
				c0,0,0,0.1,0,0.1c0,0.2,0.2,0.7,0.8,0.8c0.2,0,0.4,0.1,0.6,0.1c0,0,0,0,0,0c1.2,0,2.2-0.9,2.5-2.2c0,0,0,0,0,0c0.1,0,0.2,0,0.3,0
				c0.3,0,0.6-0.1,0.8-0.2C75.9,164.1,76,163.9,75.9,163.6z M68.8,163.6c-0.1-0.2-0.1-0.3-0.1-0.4c0-0.1,0-0.2,0-0.2
				c0-0.1,0.1-0.1,0.1-0.2c0.1-0.3,1.2-0.8,2.4-0.5c0.4,0.1,0.7,0.3,1,0.5c0,0.3,0,0.7-0.1,1.1c-0.1,0.5-0.3,0.8-0.5,1.1
				c-0.4,0-0.7,0-1.1-0.1C69.7,164.6,69,164,68.8,163.6z M73.7,164.2c-0.2,1-0.9,1.6-1.7,1.6c0,0-0.1,0-0.1,0c0.4-0.4,0.8-1.1,1-1.8
				c0.2-0.7,0.2-1.5,0-2c0.4,0.2,0.6,0.5,0.8,0.7C73.8,163.1,73.8,163.7,73.7,164.2z"/>
			<path class="st0" d="M97,182.8C97,182.8,97,182.8,97,182.8c1.6,0,2.9-1,2.9-2.4c0-0.6-0.4-0.9-0.6-1c0,0-0.1,0-0.1,0
				c0-0.1,0-0.3,0-0.4c0-1-0.4-2-0.9-2.6c-0.2-0.2-0.5-0.4-0.8-0.5c-0.1-0.1-0.2-0.3-0.4-0.3c-0.2,0-0.4,0.1-0.5,0.3
				c-0.9,0.2-1.8,1.6-1.8,3c0,0.1,0,0.3,0,0.4c0,0-0.1,0-0.1,0c-0.2,0.1-0.6,0.4-0.6,1c0,0.7,0.3,1.3,0.9,1.8
				c0.3,0.3,0.7,0.4,1.1,0.6c0,0,0,0.1,0,0.1c-0.1,0.2-0.2,0.4-0.3,0.5c-0.2,0.2-0.1,0.5,0.1,0.6c0.1,0.1,0.2,0.1,0.3,0.1
				c0.1,0,0.3-0.1,0.3-0.2c0.2-0.2,0.3-0.5,0.4-0.8C97,183,97,182.9,97,182.8z M96.8,176.8C96.8,176.8,96.8,176.8,96.8,176.8
				c0.1,0,0.2,0,0.2-0.1c0.1,0,0.1,0.1,0.2,0.1c0.1,0,0.2,0.1,0.4,0.2c0.3,0.4,0.7,1.1,0.7,1.9c0,0.4-0.1,0.7-0.2,1.1
				c-0.3,0.1-0.7,0.2-1.1,0.2h0c-0.5,0-0.8-0.1-1.1-0.2c-0.1-0.3-0.2-0.7-0.2-1.1C95.7,177.8,96.5,176.8,96.8,176.8z M95,180.6
				c0.5,0.3,1.2,0.5,2,0.5c0.7,0,1.5-0.2,1.9-0.5c-0.1,0.9-1.1,1.3-2,1.3l0,0c-0.6,0-1.1-0.2-1.4-0.5C95.3,181.3,95.1,181,95,180.6z
				"/>
			<path class="st0" d="M94.5,185.7c-0.1,0.2-0.3,0.3-0.4,0.4c0,0-0.1,0-0.1,0.1c-0.5-0.9-1.3-1.4-2.2-1.4c-0.2,0-0.4,0-0.6,0.1
				c-0.6,0.2-0.8,0.6-0.8,0.8c0,0,0,0.1,0,0.1c-0.1,0-0.3,0.1-0.4,0.1c-1.4,0.4-2.5,1.5-2.4,2.5c-0.1,0.1-0.2,0.3-0.1,0.5
				c0.1,0.2,0.2,0.3,0.4,0.4c0.1,0.2,0.3,0.4,0.6,0.6c0.5,0.3,1.1,0.4,1.7,0.4c0.3,0,0.7,0,1-0.1c0.1,0,0.3-0.1,0.4-0.1
				c0,0,0,0.1,0,0.1c0.1,0.2,0.4,0.4,0.8,0.4c0.1,0,0.2,0,0.3,0c0.6-0.2,1.1-0.5,1.4-1.1c0.4-0.6,0.5-1.5,0.2-2.3
				c0.1,0,0.1-0.1,0.2-0.1c0.2-0.2,0.5-0.4,0.6-0.6c0.1-0.2,0.1-0.5-0.1-0.6C94.9,185.5,94.6,185.5,94.5,185.7z M90.9,189.2
				c-0.8,0.2-1.6,0.1-2.1-0.2c-0.2-0.1-0.3-0.2-0.3-0.3c0-0.1-0.1-0.2-0.1-0.2c0-0.1,0-0.1,0-0.2c-0.1-0.3,0.7-1.3,1.8-1.6
				c0.4-0.1,0.7-0.1,1.1-0.1c0.2,0.3,0.4,0.6,0.5,1c0.1,0.4,0.1,0.8,0.1,1.1C91.6,189,91.3,189.1,90.9,189.2z M93.3,188.9
				c-0.2,0.3-0.4,0.5-0.7,0.6c0.2-0.5,0.2-1.3,0-2c-0.2-0.7-0.6-1.4-1-1.8c0.8-0.1,1.6,0.5,1.8,1.5
				C93.6,187.8,93.6,188.4,93.3,188.9z"/>
			<path class="st0" d="M120.7,194.5c0.3,0,0.6,0,0.6-0.2c0,0,0-0.1,0-0.1c0,0,0,0,0-0.1c0-0.2,0-0.4-2.9-1c0-1.1,0-3.2-1.3-4
				c-0.3-0.2-0.5-0.3-0.8-0.3c-0.7,0-1.1,0.6-1.4,1c0,0.1-0.1,0.2-0.1,0.2c-0.1-0.1-0.2-0.3-0.3-1.1l-0.1-0.5
				c-0.1-0.8-0.4-2.5-2.1-3c-0.2-0.1-0.4-0.1-0.6-0.1c-1.2,0-1.6,1.2-1.8,1.9c-0.1,0.2-0.2,0.7-0.3,0.7c-0.2-0.2-0.2-1.3-0.2-1.8
				l0-0.3c0-2.3-1.1-3.6-2.9-3.6c-0.2,0-0.4,0-0.6,0c-0.5,0-1,0.3-1.3,0.6c-0.6,0.7-0.4,1.7-0.3,2.6c0,0.3,0.1,0.7,0.1,0.9
				c-0.1,0-0.1,0-0.2,0c-0.3,0-0.6-0.3-1-1c-0.7-1.2-1.8-1.9-3-1.9c-1.2,0-2.3,0.7-3.1,1.9c-0.8,1.2-0.9,2.6-0.3,3.7
				c0.6,1.1,1.8,1.7,3.2,1.7c0.1,0,0.2,0,0.3,0c0.1,0,0.2,0,0.4,0c0.9,0,1.2,0.2,1.4,0.6c-0.2,0.1-0.5,0.3-0.8,0.4
				c-0.8,0.4-1.7,0.8-1.9,1.7c-0.1,0.5,0,1,0.4,1.6c1,1.4,2.2,1.6,3,1.6c1,0,1.9-0.4,2.8-1.2c0.1-0.1,0.2-0.2,0.3-0.3
				c0.5-0.4,1.1-1,1.5-1c0,0,0.1,0,0.2,0c0,0.1-0.1,0.5-0.2,0.7c-0.2,0.6-0.5,1.2-0.2,1.9c0.2,0.5,0.6,0.8,1.3,1
				c0.4,0.1,0.8,0.2,1.1,0.2c1.4,0,2.3-0.9,2.7-1.4l0.1-0.1c0.1-0.1,0.3-0.3,0.4-0.4c0.4-0.5,0.6-0.7,0.9-0.7c0,0,0,0,0,0
				c0,0.1,0,0.2,0,0.3c0.1,0.5,0.2,1.8,1.8,1.6c1.2-0.1,2.2-1.2,2.9-3.2C119.5,194.4,120.3,194.5,120.7,194.5z M115.3,196.2
				c-0.1,0-0.2,0-0.2,0c-0.1-0.1-0.1-0.4-0.1-0.5c-0.1-0.4-0.2-1.2-0.9-1.3c-0.1,0-0.3,0-0.4,0c-0.8,0-1.3,0.6-1.8,1.1
				c-0.1,0.1-0.2,0.3-0.4,0.4l-0.1,0.1c-0.4,0.4-0.9,1-1.7,1c-0.2,0-0.5,0-0.7-0.1c-0.3-0.1-0.5-0.2-0.5-0.3
				c-0.1-0.2,0.1-0.6,0.2-0.9c0.2-0.6,0.6-1.6-0.2-2.2c-0.3-0.2-0.6-0.3-1-0.3c-0.9,0-1.6,0.7-2.4,1.4c-0.1,0.1-0.2,0.2-0.3,0.3
				c-0.6,0.5-1.2,0.8-1.9,0.8c-0.7,0-1.4-0.4-2-1.1c-0.1-0.1-0.2-0.3-0.2-0.5c0.1-0.3,0.8-0.6,1.2-0.9c0.8-0.4,1.9-0.9,1.5-2
				c-0.6-1.6-2.1-1.6-2.6-1.6c-0.1,0-0.3,0-0.4,0c-1.1,0.1-1.9-0.3-2.3-1c-0.4-0.7-0.3-1.5,0.2-2.3c0.5-0.8,1.3-1.3,2-1.3
				c0.7,0,1.4,0.4,1.8,1.3c0.4,0.7,1.1,1.7,2.2,1.7c0.3,0,0.5-0.1,0.8-0.2c0.9-0.4,0.7-1.4,0.6-2.3c-0.1-0.6-0.2-1.3,0-1.6
				c0,0,0.1-0.1,0.4-0.1c0.1,0,0.3,0,0.4,0c0.4,0,1.6,0,1.6,2.3l0,0.3c0,1,0,2.1,0.6,2.7c0.3,0.3,0.7,0.4,1.1,0.4
				c1-0.1,1.2-1,1.4-1.7c0.3-1,0.4-1,0.8-0.9c0.8,0.2,1,1,1.1,1.9l0.1,0.5c0.1,1,0.3,2,1.5,2.3c0.1,0,0.1,0,0.2,0c0,0,0,0,0,0
				c0.6,0,0.9-0.5,1.2-0.9c0.1-0.1,0.2-0.4,0.3-0.4c0,0,0,0,0.1,0c0.3,0.2,0.7,0.8,0.7,2.7c-0.3-0.1-0.6-0.1-1-0.2
				c-4.8-0.8-10.9-3.3-12.9-4c-0.6-0.2-0.6-0.2-0.7-0.2c-0.1,0-0.1,0-0.2,0.1l0,0c0,0,0,0,0,0.1c0,0,0,0,0,0.1c0,0,0,0.1,0,0.1
				c0.1,0.4,8,4.2,13.6,5.1c0.4,0.1,0.7,0.1,1,0.2C116.4,195.8,115.8,196.2,115.3,196.2z"/>
			<path class="st0" d="M81.6,104.7l0.1,0.1l0,0.1h0.2c0.1,0,0.2,0,0.8-0.7c0.8,0.4,1.9,0.9,2.9,0.9c0.4,0,0.8-0.1,1.2-0.3
				c0.4-0.2,0.6-0.5,0.7-0.8c0.1-0.6-0.2-1.1-0.4-1.4c0-0.1-0.1-0.1-0.1-0.2c0.2-0.1,0.6,0.1,1,0.2l0.5,0.2c0.4,0.1,1,0.3,1.6,0.3
				c0.8,0,1.4-0.3,1.9-0.8c0.4-0.4,0.6-0.8,0.5-1.2c0-0.7-0.6-1.2-1-1.7c-0.2-0.2-0.4-0.4-0.5-0.5c0,0,0,0,0.1,0
				c0.4,0,1.1,0.3,1.6,0.6l0.2,0.1c2.3,1.1,4.1,0.5,4.7-1.5c0.2-0.5,0.2-1,0-1.4c-0.4-0.8-1.3-1.1-2.1-1.4c-0.3-0.1-0.7-0.2-0.8-0.3
				c0-0.3,0.2-0.6,1.4-0.6c1.3,0,2.4-0.6,3-1.6c0.6-1.1,0.5-2.4-0.2-3.7c-0.7-1.2-1.8-1.9-3-1.9c-1.4,0-2.6,0.9-3.2,2.3
				c-0.5,1.1-0.8,1.3-1.3,1.3c0-0.2,0-0.6,0-0.9c0-0.9,0-1.8-0.6-2.4c-0.2-0.2-0.6-0.4-1.2-0.4c-0.1,0-0.3,0-0.5,0
				c-1.2,0.3-2.2,0.9-2.7,1.8c-0.5,0.9-0.6,1.9-0.3,3.1c0,0.2,0.1,0.3,0.2,0.5c0.3,0.9,0.5,1.6,0.1,1.8c-0.1,0-0.4-0.3-0.5-0.5
				c-0.4-0.5-0.9-1-1.7-1c-0.5,0-0.9,0.2-1.4,0.7c-1.5,1.5-0.9,3.2-0.6,3.9l0,0.1c0.1,0.2,0.1,0.3,0.2,0.5c0.3,0.7,0.3,0.9,0.2,1.1
				c-0.1,0-0.2-0.1-0.2-0.1c-0.3-0.1-0.6-0.2-0.9-0.2c-0.4,0-1,0.1-1.3,1c-0.5,1.2,0.1,2.5,1.6,4.1
				C81.5,104.5,81.6,104.6,81.6,104.7z M81.6,100.1c0.1-0.1,0.1-0.2,0.1-0.2c0.1,0,0.3,0.1,0.5,0.1c0.2,0.1,0.5,0.2,0.8,0.2
				c0.4,0,0.7-0.2,0.8-0.4c0.7-0.9,0.4-1.7,0-2.5c-0.1-0.1-0.1-0.3-0.2-0.4l0-0.1c-0.3-0.8-0.5-1.7,0.3-2.5c0.3-0.3,0.5-0.3,0.5-0.3
				c0.2,0,0.5,0.3,0.7,0.6c0.4,0.4,0.8,0.9,1.5,0.9c0.2,0,0.4,0,0.5-0.1c1.4-0.6,0.9-2.3,0.6-3.3c0-0.2-0.1-0.3-0.1-0.5
				c-0.2-0.8-0.2-1.5,0.1-2c0.3-0.6,1-1,1.8-1.2c0.1,0,0.2,0,0.2,0c0.2,0,0.2,0,0.2,0.1c0.2,0.2,0.2,1,0.2,1.5c0,0.9,0,2.1,1.1,2.2
				c1.5,0.2,2.2-1,2.7-2c0.4-1,1.1-1.5,2-1.5c0.7,0,1.4,0.5,1.9,1.2c0.5,0.9,0.6,1.7,0.2,2.4c-0.3,0.6-1,0.9-1.9,1
				c-2.1,0-2.6,1.1-2.6,2c-0.1,0.9,0.9,1.3,1.7,1.5c0.5,0.2,1.2,0.4,1.3,0.7c0,0,0.1,0.1,0,0.4c-0.3,1-0.9,1.1-1.4,1.1
				c-0.4,0-1-0.1-1.5-0.4l-0.2-0.1c-0.7-0.4-1.5-0.8-2.2-0.8c-0.6,0-1.1,0.3-1.3,0.8c-0.4,0.9,0.3,1.6,0.8,2
				c0.2,0.2,0.6,0.6,0.6,0.7c0,0.1-0.1,0.2-0.2,0.3c-0.3,0.3-0.6,0.4-1,0.4c-0.4,0-0.8-0.1-1.2-0.3l-0.5-0.2
				c-0.5-0.2-0.9-0.3-1.3-0.3c-0.5,0-0.9,0.2-1.2,0.6c-0.5,0.6-0.1,1.2,0.1,1.6c0.1,0.1,0.2,0.3,0.2,0.4c0,0,0,0-0.1,0
				c-0.1,0.1-0.3,0.1-0.5,0.1c-0.7,0-1.5-0.4-2-0.6c0.5-0.5,1.1-1.3,1.8-2.2c2.9-3.5,7.5-7.6,9.5-9.2l0.1,0c0.8-0.6,0.8-0.6,0.8-0.7
				l0-0.1l-0.1-0.2h-0.1c-0.1,0-0.1,0-0.9,0.6c-1.8,1.2-7.1,5-10.2,8.8c-0.8,1-1.4,1.8-1.8,2.4C81.4,101.2,81.4,100.4,81.6,100.1z"
				/>
			<path class="st0" d="M88.5,183.8L88.5,183.8c1.3,0,2.5-1,3.1-1.5c0.5,0.3,0.8,0.5,1,0.5c0.2,0,0.2-0.1,0.3-0.1c0,0,0,0,0,0
				c0,0,0.1-0.1,0.1-0.1c0-0.1,0.1-0.2-0.7-0.9c0.5-0.8,1.7-2.8,0.9-4.2c-0.3-0.6-0.8-0.7-1.2-0.7c-0.4,0-0.8,0.2-1.1,0.3
				c-0.1,0-0.1,0.1-0.2,0.1c0-0.1,0-0.4,0.3-1l0.2-0.5c0.3-0.7,0.9-2.3-0.4-3.5c-0.4-0.4-0.8-0.6-1.2-0.6c-0.7,0-1.2,0.5-1.6,0.9
				c-0.2,0.2-0.5,0.5-0.6,0.5c-0.1-0.2,0.5-1.3,0.7-1.7l0.1-0.2c0.6-1.2,0.8-2.3,0.5-3.1c-0.3-0.7-0.9-1.3-1.7-1.6
				c-0.3-0.1-0.5-0.2-0.8-0.2c-1.3,0-1.7,1.3-2.1,2.2c-0.1,0.3-0.3,0.7-0.4,0.8c-0.3-0.1-0.6-0.3-0.6-1.3c0.1-1.1-0.2-2-0.9-2.6
				c-1-1-2.7-1.2-4.3-0.4c-1.2,0.6-2,1.8-2,3c0,1.3,0.8,2.5,2.2,3.2c1.1,0.5,1.3,0.9,1.2,1.3c-0.1,0-0.5,0-0.9,0c-0.2,0-0.5,0-0.7,0
				c-0.6,0-1.4,0.1-1.8,0.6c-0.3,0.4-0.4,0.9-0.4,1.5c0.3,2.1,1.7,3.4,3.6,3.4c0.4,0,0.8-0.1,1.2-0.2c0.2,0,0.3-0.1,0.5-0.1
				c0.5-0.1,1-0.3,1.4-0.3c0.3,0,0.4,0.1,0.4,0.2c0,0.1-0.3,0.3-0.5,0.5c-0.5,0.4-1,0.8-1.1,1.6c-0.1,0.5,0.1,1,0.6,1.5
				c0.6,0.7,1.4,1.1,2.3,1.1c0.6,0,1.2-0.2,1.6-0.3l0.1,0c0.2-0.1,0.3-0.1,0.5-0.2c0.4-0.1,0.7-0.2,0.9-0.2c0.1,0,0.1,0,0.2,0.1
				c0,0.1-0.1,0.2-0.1,0.3c-0.2,0.5-0.7,1.7,0.8,2.3C87.9,183.8,88.2,183.8,88.5,183.8z M86.8,179.8c-0.4,0-0.8,0.1-1.3,0.3
				c-0.1,0.1-0.3,0.1-0.4,0.2l-0.1,0c-0.3,0.1-0.7,0.2-1.1,0.2c-0.5,0-1-0.2-1.4-0.6c-0.2-0.2-0.3-0.4-0.3-0.6
				c0-0.2,0.4-0.5,0.6-0.7c0.5-0.4,1.3-1,0.9-2c-0.1-0.4-0.5-1-1.6-1c-0.5,0-1.1,0.2-1.7,0.3c-0.2,0-0.3,0.1-0.5,0.1
				c-0.3,0.1-0.6,0.1-0.8,0.1c-1.2,0-2-0.8-2.3-2.2c0-0.2,0-0.4,0-0.4c0.1-0.1,0.2-0.2,0.9-0.2c0.2,0,0.4,0,0.6,0c0.2,0,0.4,0,0.6,0
				c1,0,1.5-0.3,1.6-1c0.3-1.6-0.9-2.3-1.9-2.8c-0.9-0.5-1.4-1.2-1.4-2c0-0.8,0.5-1.4,1.3-1.8c1.1-0.5,2.1-0.5,2.7,0.1
				c0.4,0.4,0.5,1,0.5,1.7c0,1.6,0.7,2.5,1.9,2.7l0.1,0c0.9,0,1.2-0.9,1.5-1.7c0.2-0.6,0.5-1.3,0.9-1.3c0.1,0,0.2,0,0.3,0.1
				c0.5,0.2,0.9,0.5,1,0.9c0.2,0.5,0.1,1.2-0.4,2.1l-0.1,0.2c-0.5,0.9-1,1.8-0.8,2.7c0.1,0.4,0.3,0.6,0.7,0.8
				c0.2,0.1,0.4,0.1,0.6,0.1c0.6,0,1.1-0.5,1.5-0.8c0.2-0.2,0.6-0.6,0.7-0.6c0,0,0.1,0.1,0.3,0.2c0.6,0.6,0.4,1.4,0.1,2.1l-0.2,0.5
				c-0.3,0.9-0.7,1.8,0.2,2.6c0.2,0.2,0.4,0.3,0.7,0.3h0c0.3,0,0.6-0.2,0.9-0.3c0.1-0.1,0.4-0.2,0.4-0.2c0,0,0,0,0.1,0.1
				c0.1,0.2,0.3,0.9-0.7,2.7c-0.5-0.5-1.2-1.1-2.1-1.9c-2.5-2.2-5.5-5.7-9-10.3c-0.4-0.5-0.4-0.5-0.5-0.5c0,0-0.1,0-0.1,0
				c-0.1,0-0.1,0.1-0.1,0.2c-0.1,0.4,4.7,7.8,8.9,11.5c0.8,0.8,1.5,1.4,2.1,1.9c-0.8,0.7-1.5,1-2.1,1c-0.1,0-0.3,0-0.4-0.1
				c-0.1,0-0.2-0.1-0.2-0.1c0-0.1,0.1-0.4,0.1-0.5c0.2-0.4,0.4-1.1-0.1-1.6C87.6,179.9,87.2,179.8,86.8,179.8z"/>
			<path class="st0" d="M69.4,155.3c0.2,0,0.4,0.1,0.6,0.1c0.7,0.1,0.9,0.2,1,0.4c-0.1,0.1-0.1,0.1-0.2,0.2
				c-0.4,0.3-1.4,1.1-0.5,2.3c0.5,0.7,1.3,1,2.4,1c0.7,0,1.4-0.1,1.8-0.2c0.5,1,0.6,1,0.7,1c0.1,0,0.1,0,0.2-0.1l0.1,0
				c0.1-0.1,0.1-0.2-0.1-1.2c0.9-0.5,2.7-1.7,2.8-3.2c0-0.4-0.1-0.8-0.4-1c-0.4-0.4-1-0.4-1.4-0.4c-0.1,0-0.2,0-0.2,0
				c0-0.1,0.2-0.3,0.8-0.8l0.4-0.3c0.6-0.5,1.9-1.6,1.4-3.3c-0.2-0.8-0.8-1.3-1.6-1.3c-0.4,0-0.8,0.1-1.1,0.2
				c-0.3,0.1-0.5,0.1-0.7,0.1c-0.1,0-0.1,0-0.1,0c0-0.3,1-0.8,1.4-1.1l0.3-0.2c1.2-0.7,1.8-1.5,1.9-2.5c0.1-0.8-0.1-1.6-0.8-2.3
				c-0.5-0.6-1-0.8-1.4-0.8c-0.8,0-1.5,0.6-2.1,1.1c-0.2,0.2-0.6,0.5-0.7,0.5c-0.2-0.2-0.4-0.4,0.2-1.5c0.7-1.1,0.7-2.3,0.2-3.3
				c-0.6-1.1-1.8-1.7-3.3-1.8l-0.2,0c-1.4,0-2.5,0.6-3.1,1.7c-0.6,1.1-0.4,2.5,0.4,3.8c0.7,1,0.6,1.4,0.4,1.7
				c-0.2-0.1-0.5-0.3-0.8-0.4c-0.6-0.4-1.3-0.8-2-0.8c-0.5,0-1.1,0.2-1.6,1.2c-0.4,1.1-0.4,2.2,0.1,3.2c0.5,0.9,1.4,1.6,2.5,1.9
				c0.1,0,0.3,0.1,0.4,0.1c0.9,0.3,1.7,0.5,1.7,0.8c-0.1,0.1-0.4,0.1-0.7,0.2c-0.6,0.1-1.3,0.2-1.7,0.8c-0.3,0.4-0.3,0.9-0.2,1.6
				C66.8,154.8,68.5,155.1,69.4,155.3L69.4,155.3z M67.6,152.4c-0.1-0.4,0-0.6,0-0.6c0.1-0.1,0.5-0.2,0.9-0.3
				c0.6-0.1,1.6-0.3,1.7-1.3c0.1-1.5-1.4-1.9-2.6-2.2c-0.1,0-0.3-0.1-0.4-0.1c-0.8-0.2-1.4-0.7-1.7-1.3c-0.3-0.6-0.3-1.3,0-2.1
				c0.2-0.4,0.3-0.4,0.4-0.4c0.3,0,0.9,0.3,1.3,0.6c0.5,0.3,1.1,0.7,1.6,0.7c0.3,0,0.7-0.1,0.9-0.4c1.1-1.5,0-2.9-0.3-3.4
				c-0.6-0.8-0.7-1.7-0.3-2.4c0.3-0.6,1-1,1.9-1l0.1,0c1,0,1.8,0.5,2.2,1.1c0.3,0.6,0.3,1.3-0.2,2.1c-0.3,0.6-1.3,2.2,0.2,3.3
				c0.2,0.1,0.4,0.2,0.6,0.2h0c0.6,0,1-0.4,1.6-0.8c0.4-0.3,1-0.8,1.3-0.8c0,0,0.2,0,0.4,0.3c0.4,0.5,0.6,0.9,0.5,1.3
				c-0.1,0.5-0.5,1-1.3,1.5l-0.3,0.2c-0.9,0.5-1.8,1.1-2,1.9c-0.1,0.4,0,0.7,0.3,1c0.2,0.2,0.5,0.5,1.1,0.5c0.3,0,0.7-0.1,1-0.2
				c0.3-0.1,0.6-0.1,0.8-0.1c0.1,0,0.2,0,0.3,0.4c0.2,0.8-0.3,1.4-1,1.9l-0.4,0.3c-0.7,0.6-1.5,1.3-1.1,2.4c0.2,0.7,1,0.7,1.4,0.7
				c0.1,0,0.4,0,0.5,0c0,0,0,0,0,0.1c0,0.3-0.3,1-1.9,2c-0.2-0.7-0.5-1.5-0.9-2.6c-1.5-4.3-2.3-10.2-2.7-12.7
				c-0.2-1.4-0.2-1.4-0.4-1.4l-0.2,0.1c-0.2,0.3,0.2,8.8,2.2,14.4c0.4,1.1,0.7,2,1,2.6c-0.3,0.1-0.8,0.1-1.3,0.1
				c-0.7,0-1.1-0.2-1.4-0.5c-0.1-0.1-0.1-0.2-0.1-0.2c0-0.1,0.2-0.3,0.4-0.4c0.3-0.3,0.9-0.8,0.6-1.5c-0.4-1.1-1.2-1.2-2.1-1.4
				c-0.2,0-0.3-0.1-0.5-0.1l-0.1,0C68.7,153.8,67.9,153.6,67.6,152.4z"/>
			<path class="st0" d="M68.2,124.6L68.2,124.6c0.2,0.2,0.4,0.3,0.5,0.4c0.6,0.5,0.7,0.6,0.7,0.8c-0.1,0-0.2,0-0.3,0.1
				c-0.5,0.1-1.7,0.3-1.5,1.8c0.1,1.2,1.3,2.1,3.3,2.7c0,0.8,0.1,0.9,0.1,1c0,0.1,0.2,0.1,0.2,0.1c0,0,0,0,0.1,0c0.1,0,0.2,0,0.5-1
				c0.9,0,3.2-0.1,4-1.4c0.2-0.4,0.3-0.7,0.2-1.1c-0.1-0.6-0.6-0.8-1-1.1c-0.1,0-0.1-0.1-0.2-0.1c0.1-0.1,0.3-0.2,1-0.3l0.5-0.1
				c0.7-0.1,2.4-0.5,2.8-2.2c0.4-1.7-1.1-2.1-1.8-2.3c-0.2-0.1-0.6-0.1-0.7-0.2c0,0,0,0,0,0c0.2-0.2,1.2-0.3,1.8-0.3l0.3,0
				c1.3-0.1,2.3-0.5,2.9-1.2c0.5-0.6,0.7-1.4,0.5-2.4c-0.1-0.6-0.5-1.6-1.9-1.6c-0.4,0-0.9,0.1-1.3,0.1c-0.3,0.1-0.6,0.1-0.8,0.1
				c0,0-0.1,0-0.1,0c-0.1-0.3-0.1-0.7,0.8-1.2c1.2-0.7,1.8-1.7,1.8-2.8c0-1.2-0.7-2.4-2-3.2c-1.5-0.9-3.2-0.7-4.3,0.4
				c-0.7,0.7-1,1.8-0.9,3c0.1,1.2-0.1,1.5-0.4,1.7c-0.1-0.2-0.3-0.5-0.5-0.8c-0.5-0.8-1-1.9-2.1-1.9c-0.4,0-0.8,0.2-1.2,0.5
				c-1,0.8-1.5,1.7-1.6,2.8c0,1,0.4,2.1,1.3,2.9c0.1,0.1,0.2,0.2,0.4,0.4c0.7,0.6,1.2,1.2,0.9,1.5c-0.1,0-0.4-0.1-0.7-0.2
				c-0.4-0.1-0.8-0.3-1.2-0.3c-0.6,0-1.3,0.3-1.7,1.5C66.3,122.9,67.7,124.1,68.2,124.6z M68.1,121.2c0.2-0.5,0.3-0.5,0.4-0.5
				c0.2,0,0.5,0.1,0.7,0.2c0.4,0.1,0.7,0.3,1.1,0.3c0,0,0,0,0,0c0.4,0,0.8-0.2,1.1-0.5c1-1.2-0.3-2.4-1.1-3.2
				c-0.1-0.1-0.2-0.2-0.4-0.4c-0.6-0.6-0.9-1.3-0.9-1.9c0-0.7,0.4-1.3,1.1-1.8c0.2-0.2,0.3-0.2,0.4-0.2c0.3,0,0.7,0.8,0.9,1.2
				c0.4,0.7,0.8,1.5,1.6,1.5h0c0.2,0,0.3,0,0.4-0.1c1.6-0.6,1.4-2.2,1.4-3.1c-0.1-0.8,0.1-1.5,0.6-2c0.6-0.7,1.7-0.8,2.6-0.2
				c0.9,0.5,1.4,1.3,1.3,2c0,0.7-0.4,1.3-1.2,1.7c-1.8,1-1.6,2.3-1.3,3c0.1,0.3,0.5,0.6,1.2,0.6c0.3,0,0.7-0.1,1.1-0.1
				c0.4-0.1,0.7-0.1,1-0.1c0.5,0,0.6,0.2,0.7,0.5c0.1,0.6,0,1-0.2,1.3c-0.3,0.4-1,0.7-1.9,0.7l-0.2,0c-1,0-2.1,0.1-2.7,0.7
				c-0.2,0.3-0.4,0.6-0.4,1c0.1,1,1,1.2,1.7,1.4c1,0.3,1,0.4,0.9,0.7c-0.2,0.8-1,1-1.8,1.2l-0.5,0.1c-0.9,0.2-1.9,0.4-2.1,1.5
				c-0.1,0.7,0.5,1.1,0.9,1.3c0.1,0.1,0.3,0.2,0.4,0.2c0,0,0,0,0,0.1c-0.2,0.3-0.8,0.8-2.6,0.8c0.1-0.7,0.3-1.7,0.6-2.9
				c0.8-4.4,2.9-9.9,3.9-12.3c0.5-1.3,0.5-1.3,0.4-1.5c0,0-0.1,0-0.1,0c-0.5,0-4.3,8.2-5.3,13.6c-0.2,1.3-0.4,2.2-0.5,3
				c-1.8-0.6-2.1-1.2-2.1-1.6c0-0.2,0-0.2,0-0.2c0.1-0.1,0.3-0.1,0.5-0.1c0.4-0.1,1.1-0.2,1.3-1c0.2-1.1-0.5-1.7-1.2-2.2
				c-0.1-0.1-0.3-0.2-0.4-0.3l-0.1-0.1C68.4,123,67.8,122.4,68.1,121.2z"/>
			<path class="st0" d="M177.7,106C177.7,106,177.7,106.1,177.7,106c-0.2,0.2-0.3,0.4-0.5,0.5c-0.2,0.1-0.2,0.4-0.1,0.6
				c0.1,0.1,0.2,0.2,0.4,0.2c0.1,0,0.2,0,0.2-0.1c0.2-0.2,0.4-0.4,0.6-0.6c0.1-0.1,0.1-0.2,0.2-0.2c0.3,0.1,0.7,0.2,1,0.2
				c1.2,0,2.1-0.6,2.4-1.6c0.2-0.6-0.1-1-0.3-1.1c0,0-0.1,0-0.1,0c0.1-0.1,0.1-0.3,0.2-0.4c0.3-0.9,0.2-2-0.2-2.7
				c-0.2-0.3-0.4-0.5-0.6-0.7c0-0.1-0.1-0.3-0.3-0.4c-0.2-0.1-0.4,0-0.5,0.1c-0.9-0.1-2.1,1-2.6,2.3c0,0.1-0.1,0.3-0.1,0.4
				c0,0-0.1,0-0.1,0c-0.2,0-0.7,0.2-0.9,0.8c-0.2,0.7-0.1,1.4,0.3,2C177,105.5,177.3,105.8,177.7,106z M178.4,102.3
				c0.3-1.1,1.3-1.8,1.7-1.7c0.1,0,0.2,0,0.2,0c0.1,0.1,0.1,0.1,0.2,0.1c0.1,0,0.2,0.1,0.3,0.3c0.2,0.4,0.4,1.3,0.1,2.1
				c-0.1,0.4-0.3,0.7-0.5,1c0,0-0.1,0-0.1,0c-0.3,0-0.7-0.1-1-0.2c-0.4-0.1-0.8-0.3-1-0.5C178.2,103,178.3,102.7,178.4,102.3z
				 M177.2,103.7c0.4,0.4,1,0.8,1.7,1.1c0.4,0.1,0.9,0.2,1.3,0.2c0.2,0,0.5,0,0.7-0.1c-0.3,0.5-0.8,0.8-1.5,0.8
				c-0.3,0-0.5,0-0.8-0.1c-0.5-0.2-1-0.5-1.2-0.9C177.3,104.5,177.2,104.1,177.2,103.7z"/>
			<path class="st0" d="M174.4,109.3c0.1,0,0.2,0,0.3-0.1c0.3-0.1,0.5-0.2,0.8-0.4c0.2-0.1,0.2-0.4,0.1-0.6
				c-0.1-0.2-0.4-0.2-0.6-0.1c-0.2,0.1-0.3,0.2-0.5,0.3c0,0-0.1,0-0.1,0c-0.3-1.2-1.2-2-2.3-2.1c-0.6,0-0.9,0.4-1,0.6
				c0,0,0,0.1,0,0.1c-0.1,0-0.3,0-0.4,0c-1.4,0-2.8,0.8-3,1.7c-0.1,0.1-0.3,0.2-0.3,0.4c0,0.2,0.1,0.4,0.3,0.5
				c0.1,0.3,0.2,0.5,0.4,0.8c0.6,0.6,1.6,1,2.5,1c0,0,0.1,0,0.1,0c0.1,0,0.2,0,0.3,0c0,0,0,0.1,0,0.1c0.1,0.2,0.4,0.6,1,0.6
				c0,0,0.1,0,0.1,0C173.3,112.1,174.4,110.9,174.4,109.3z M170.5,110.5c-0.8,0-1.6-0.4-1.9-0.8c-0.2-0.2-0.2-0.3-0.2-0.4
				c0-0.1,0-0.2-0.1-0.2c0-0.1,0.1-0.1,0.1-0.2c0-0.4,1-1.1,2.2-1c0.4,0,0.8,0.1,1.1,0.2c0.1,0.3,0.2,0.7,0.2,1.1
				c0,0.5-0.1,0.9-0.2,1.1C171.2,110.5,170.9,110.5,170.5,110.5z M172.1,111.2c0.3-0.5,0.5-1.2,0.5-2c0-0.7-0.2-1.5-0.5-2
				c0.8,0.1,1.3,0.9,1.3,2C173.5,110.3,172.9,111.1,172.1,111.2z"/>
			<path class="st0" d="M179.1,136.6c0.4,0.2,0.8,0.3,1.2,0.3c0.9,0,1.8-0.6,2.4-1.5c0.1,0,0.2,0,0.3,0.1c0.2,0,0.4,0.1,0.6,0.1
				c0.1,0,0.2,0,0.3,0c0.2,0,0.4-0.2,0.4-0.5c0-0.2-0.2-0.4-0.5-0.4c-0.2,0-0.4,0-0.6,0c0,0-0.1,0-0.1,0c0.1-0.4,0.2-0.8,0.1-1.3
				c-0.1-0.7-0.5-1.3-1.1-1.7c-0.2-0.1-0.4-0.2-0.6-0.2c-0.3,0-0.5,0.2-0.6,0.2c0,0,0,0-0.1,0.1c-0.1-0.1-0.2-0.2-0.4-0.2
				c-1.2-0.7-2.8-0.7-3.5-0.1c-0.1,0-0.3,0-0.5,0.2c-0.1,0.2-0.1,0.4,0,0.5c-0.1,0.3-0.1,0.6,0,0.9c0.2,0.8,0.9,1.7,1.7,2.2
				c0.1,0.1,0.3,0.1,0.4,0.2c0,0,0,0,0,0.1C178.6,135.8,178.6,136.3,179.1,136.6z M182.3,133.5c0.1,0.5-0.1,1-0.4,1.5
				c-0.5,0.9-1.5,1.3-2.2,1c0.5-0.3,1.1-0.8,1.5-1.4c0.4-0.6,0.6-1.4,0.6-2C182.2,132.9,182.3,133.2,182.3,133.5z M177.4,132.9
				c-0.1-0.2,0-0.4,0-0.4c0-0.1,0.1-0.2,0.1-0.2c0.1,0,0.1-0.1,0.2-0.2c0.2-0.3,1.4-0.4,2.4,0.2c0.3,0.2,0.6,0.4,0.8,0.7
				c-0.1,0.3-0.2,0.7-0.4,1.1c-0.2,0.4-0.5,0.7-0.8,0.9c-0.3-0.1-0.7-0.2-1-0.4C178,134.1,177.6,133.4,177.4,132.9z"/>
			<path class="st0" d="M188.5,131.2C188.5,131.2,188.4,131.1,188.5,131.2c-0.1-0.1-0.3-0.1-0.5-0.1c-0.2,0-0.5,0.1-0.7,0.3
				c-0.5,0.4-0.7,1-0.7,1.6c0,0.5,0.1,1,0.4,1.5c0,0-0.1,0-0.1,0c-0.2,0.1-0.4,0.1-0.6,0.2c-0.2,0-0.4,0.2-0.4,0.5
				c0,0.2,0.2,0.4,0.4,0.4c0,0,0,0,0,0c0.3,0,0.6-0.1,0.8-0.2c0.1,0,0.2-0.1,0.3-0.1c0.6,0.6,1.4,1,2.2,1c0.6,0,1.1-0.2,1.6-0.6
				c0.4-0.4,0.4-0.9,0.3-1.1c0,0,0,0,0-0.1c0.1-0.1,0.2-0.2,0.3-0.3c0.7-0.7,1.2-1.6,1.2-2.5c0-0.3-0.1-0.6-0.2-0.9
				c0-0.1,0.1-0.3-0.1-0.5c-0.2-0.2-0.4-0.2-0.5-0.2c-0.8-0.5-2.4-0.2-3.4,0.8C188.7,131,188.6,131.1,188.5,131.2z M188.1,134.5
				c-0.4-0.5-0.7-1-0.7-1.5c0-0.3,0.1-0.6,0.3-0.8c0.1,0.6,0.5,1.2,1,1.8c0.5,0.5,1.2,1,1.7,1.1
				C189.8,135.5,188.8,135.3,188.1,134.5z M191.7,130.8c0.1,0.1,0.1,0.1,0.2,0.1c0,0.1,0.1,0.1,0.1,0.2c0,0.1,0.1,0.2,0.1,0.4
				c0,0.5-0.3,1.3-0.9,1.9c-0.3,0.3-0.6,0.5-0.9,0.6c-0.3-0.1-0.6-0.4-0.9-0.7c-0.3-0.3-0.5-0.7-0.6-1c0.2-0.3,0.4-0.6,0.7-0.9
				C190.2,130.7,191.5,130.6,191.7,130.8z"/>
			<path class="st0" d="M178.4,158.9c-0.2-0.3-0.5-0.6-0.9-0.6c0,0-0.1,0-0.1,0c0,0-0.1,0-0.1,0c-0.1-0.1-0.1-0.3-0.2-0.4
				c-0.7-1.2-2.1-2-3-1.7c-0.1-0.1-0.3-0.1-0.5,0c-0.2,0.1-0.2,0.3-0.3,0.5c-0.2,0.2-0.3,0.4-0.4,0.8c-0.2,0.8-0.1,1.9,0.4,2.7
				c0.1,0.1,0.2,0.2,0.2,0.4c0,0,0,0-0.1,0.1c-0.2,0.2-0.3,0.7,0,1.2c0.4,0.7,1.2,1.2,2.1,1.2c0.5,0,1.1-0.2,1.6-0.5
				c0.1,0.1,0.1,0.1,0.2,0.2c0.2,0.2,0.5,0.3,0.7,0.5c0.1,0,0.1,0,0.2,0c0.2,0,0.3-0.1,0.4-0.3c0.1-0.2,0-0.5-0.2-0.6
				c-0.2-0.1-0.3-0.2-0.5-0.3c0,0-0.1,0-0.1-0.1C178.7,161.1,179,159.9,178.4,158.9z M173.7,157.8c0.1-0.2,0.1-0.3,0.2-0.4
				c0.1,0,0.1-0.1,0.2-0.2c0.1,0,0.1,0,0.2-0.1c0.3-0.2,1.4,0.3,2,1.3c0.2,0.3,0.3,0.7,0.4,1c-0.2,0.2-0.5,0.5-0.9,0.7
				c-0.4,0.2-0.8,0.3-1.1,0.4c-0.3-0.2-0.5-0.5-0.7-0.8C173.6,159.1,173.6,158.2,173.7,157.8z M176.7,161.7
				c-0.4,0.2-0.8,0.3-1.2,0.3c-0.5,0-0.9-0.2-1.2-0.5c0.6,0,1.3-0.2,2-0.6c0.7-0.4,1.2-0.9,1.5-1.4
				C178.1,160.4,177.5,161.3,176.7,161.7z"/>
			<path class="st0" d="M188,162.3c-0.4-0.8-2-1.3-3.3-1c-0.1,0-0.3,0.1-0.4,0.1c0,0,0-0.1,0-0.1c-0.2-0.2-0.6-0.5-1.1-0.4
				c-0.7,0.2-1.2,0.6-1.5,1.3c-0.2,0.4-0.2,0.8-0.2,1.2c0,0-0.1,0-0.1,0c-0.2,0-0.4-0.1-0.6-0.1c-0.2-0.1-0.5,0-0.6,0.2
				c-0.1,0.2,0,0.5,0.2,0.6c0.3,0.1,0.5,0.2,0.8,0.2c0.1,0,0.2,0,0.3,0c0,0,0,0,0,0c0.3,1.3,1.3,2.2,2.5,2.2c0.2,0,0.4,0,0.6-0.1
				c0.6-0.1,0.8-0.6,0.8-0.8c0,0,0-0.1,0-0.1c0.1,0,0.3,0,0.4-0.1c0.9-0.2,1.8-0.8,2.2-1.6c0.2-0.3,0.3-0.6,0.3-0.8
				c0.1-0.1,0.2-0.3,0.2-0.5C188.3,162.5,188.2,162.4,188,162.3z M182.3,164.2c-0.1-0.5-0.1-1.1,0.1-1.5c0.1-0.3,0.3-0.6,0.8-0.7
				c-0.2,0.5-0.2,1.3,0,2c0.2,0.7,0.5,1.4,1,1.8C183.3,165.9,182.5,165.2,182.3,164.2z M187.2,163.6c-0.3,0.4-0.9,1-1.7,1.2
				c-0.4,0.1-0.7,0.1-1.1,0.1c-0.2-0.3-0.3-0.6-0.5-1.1c-0.1-0.4-0.1-0.8-0.1-1.1c0.3-0.2,0.6-0.4,1-0.5c1.1-0.3,2.3,0.2,2.4,0.5
				c0,0.1,0.1,0.2,0.1,0.2c0,0.1,0,0.2,0,0.2C187.4,163.3,187.3,163.4,187.2,163.6z"/>
			<path class="st0" d="M159.9,182.8C159.9,182.8,159.9,182.7,159.9,182.8c1.1-0.4,2-1.3,1.9-2.5c0-0.6-0.4-0.9-0.6-1
				c0,0-0.1,0-0.1,0c0-0.1,0-0.3,0-0.4c0-1.4-0.9-2.8-1.8-3c-0.1-0.1-0.2-0.3-0.4-0.3c-0.2,0-0.4,0.1-0.5,0.3
				c-0.3,0.1-0.5,0.2-0.8,0.5c-0.6,0.6-1,1.6-0.9,2.6c0,0.1,0,0.3,0,0.4c0,0-0.1,0-0.1,0c-0.2,0.1-0.6,0.4-0.6,1
				c0,1.4,1.2,2.4,2.8,2.4c0,0,0,0,0,0c0,0.1,0,0.2,0.1,0.3c0.1,0.3,0.2,0.5,0.4,0.8c0.1,0.1,0.2,0.2,0.3,0.2c0.1,0,0.2,0,0.3-0.1
				c0.2-0.2,0.2-0.4,0.1-0.6C160.1,183.2,160,183,159.9,182.8z M158.3,177c0.2-0.2,0.3-0.2,0.4-0.2c0.1,0,0.2,0,0.2-0.1
				c0.1,0,0.1,0.1,0.2,0.1c0,0,0,0,0,0c0.4,0,1.1,1,1.1,2.1c0,0.4-0.1,0.8-0.2,1.1c-0.3,0.1-0.7,0.2-1.2,0.2c-0.4,0-0.8-0.1-1.1-0.2
				c-0.1-0.3-0.2-0.7-0.2-1.1C157.6,178.1,158,177.4,158.3,177z M157,180.6c0.5,0.3,1.2,0.5,2,0.5c0,0,0,0,0,0c0.8,0,1.5-0.2,2-0.5
				c-0.1,0.8-0.9,1.4-2,1.4l0,0C158.1,182,157.1,181.5,157,180.6z"/>
			<path class="st0" d="M166,185.9c-0.1,0-0.3-0.1-0.4-0.1c0,0,0-0.1,0-0.1c0-0.2-0.2-0.7-0.8-0.8c-0.2-0.1-0.4-0.1-0.6-0.1
				c-0.9,0-1.7,0.5-2.2,1.4c0,0,0,0-0.1-0.1c-0.2-0.1-0.3-0.2-0.4-0.4c-0.1-0.2-0.4-0.2-0.6-0.1c-0.2,0.1-0.2,0.4-0.1,0.6
				c0.2,0.2,0.4,0.4,0.6,0.6c0.1,0.1,0.2,0.1,0.2,0.1c-0.2,0.8-0.1,1.7,0.2,2.3c0.3,0.5,0.8,0.9,1.4,1.1c0.1,0,0.2,0,0.3,0
				c0.4,0,0.7-0.2,0.8-0.4c0,0,0-0.1,0-0.1c0.1,0.1,0.3,0.1,0.4,0.1c0.3,0.1,0.7,0.1,1,0.1c0.6,0,1.2-0.1,1.7-0.4
				c0.3-0.2,0.5-0.4,0.6-0.6c0.1,0,0.3-0.1,0.4-0.4c0.1-0.2,0-0.4-0.1-0.5C168.5,187.4,167.4,186.2,166,185.9z M163.3,189.4
				c-0.3-0.1-0.5-0.3-0.7-0.6c-0.3-0.5-0.3-1.1-0.1-1.7c0.3-0.9,0.9-1.6,1.7-1.6c0.1,0,0.1,0,0.2,0c-0.4,0.4-0.8,1.1-1,1.8
				C163.2,188.1,163.2,188.9,163.3,189.4z M167.6,188.5c0,0.1-0.1,0.1-0.1,0.2c0,0.1-0.1,0.2-0.3,0.3c-0.4,0.2-1.3,0.4-2.1,0.2
				c-0.4-0.1-0.7-0.3-1-0.5c0-0.3,0-0.7,0.1-1.1c0.1-0.4,0.3-0.8,0.5-1c0.4,0,0.7,0,1.1,0.1c1.1,0.3,1.9,1.3,1.8,1.6
				C167.6,188.4,167.6,188.5,167.6,188.5z"/>
			<path class="st0" d="M155.7,183.6c-1.2,0-2.3,0.7-3,1.9c-0.4,0.7-0.7,1-1,1c-0.1,0-0.1,0-0.2,0c0-0.2,0-0.6,0.1-0.9
				c0.1-0.9,0.2-1.9-0.3-2.6c-0.3-0.4-0.7-0.6-1.2-0.6c-2.2-0.3-3.5,1-3.5,3.6v0.4c0,0.5,0,1.6-0.2,1.8c-0.1-0.1-0.2-0.5-0.3-0.7
				c-0.2-0.7-0.6-1.9-1.8-1.9c-0.2,0-0.4,0-0.6,0.1c-1.7,0.5-2,2.2-2.1,3l-0.1,0.5c-0.1,0.8-0.2,1-0.3,1.1c0-0.1-0.1-0.2-0.1-0.2
				c-0.3-0.4-0.6-1-1.4-1c-0.3,0-0.5,0.1-0.8,0.3c-1.3,0.8-1.3,2.9-1.3,4c-2.9,0.5-2.9,0.8-2.9,1c0,0,0,0,0,0.1c0,0,0,0.1,0,0.1
				c0.1,0.2,0.3,0.2,0.6,0.2c0.5,0,1.3-0.1,2.4-0.2c0.7,2,1.6,3.1,2.9,3.2c0.1,0,0.2,0,0.2,0c1.3,0,1.5-1.1,1.5-1.6
				c0-0.1,0-0.2,0-0.3c0,0,0,0,0,0c0.2,0,0.5,0.2,0.9,0.7c0.1,0.1,0.2,0.3,0.4,0.4l0.1,0.1c0.4,0.5,1.3,1.4,2.7,1.4
				c0.4,0,0.8-0.1,1.1-0.2c0.7-0.2,1.1-0.6,1.3-1c0.3-0.7,0-1.4-0.2-1.9c-0.1-0.2-0.2-0.6-0.2-0.7c0.1-0.1,0.1-0.1,0.2-0.1
				c0.4,0,1,0.6,1.5,1c0.1,0.1,0.2,0.2,0.3,0.3c0.8,0.8,1.8,1.2,2.8,1.2c0.8,0,2-0.3,3.1-1.7c0.4-0.5,0.5-1.1,0.4-1.6
				c-0.2-0.9-1.1-1.3-1.9-1.7c-0.3-0.1-0.7-0.3-0.8-0.4c0.2-0.4,0.5-0.6,1.4-0.6c0.1,0,0.2,0,0.3,0c1.6,0.1,2.9-0.6,3.5-1.7
				c0.6-1.1,0.5-2.5-0.3-3.7C158,184.3,156.8,183.6,155.7,183.6z M157.9,188.5c-0.4,0.7-1.1,1.1-2,1.1c-0.1,0-0.2,0-0.3,0
				c-0.2,0-0.3,0-0.4,0c-0.5,0-2,0-2.6,1.6c-0.4,1.1,0.7,1.6,1.5,2c0.5,0.2,1.2,0.6,1.2,0.9c0,0.1-0.1,0.4-0.2,0.5
				c-0.6,0.7-1.3,1.1-2,1.1c-0.6,0-1.3-0.3-1.9-0.8c-0.1-0.1-0.2-0.2-0.3-0.3c-0.7-0.7-1.5-1.4-2.4-1.4c-0.3,0-0.7,0.1-1,0.3
				c-0.8,0.6-0.4,1.6-0.2,2.2c0.1,0.3,0.3,0.7,0.2,0.9c0,0.1-0.2,0.2-0.5,0.3c-0.3,0.1-0.5,0.1-0.7,0.1c-0.8,0-1.4-0.6-1.7-1
				l-0.1-0.1c-0.1-0.1-0.2-0.3-0.4-0.4c-0.5-0.6-1-1.1-1.8-1.1c-0.1,0-0.3,0-0.4,0c-0.7,0.2-0.9,0.9-0.9,1.3c0,0.2-0.1,0.4-0.1,0.5
				c0,0-0.1,0-0.2,0c-0.5,0-1.1-0.5-1.7-2.1c0.3,0,0.7-0.1,1-0.2c5.6-1,13.5-4.7,13.6-5.1c0,0,0-0.1,0-0.1c0,0,0,0,0-0.1
				c0,0,0,0,0-0.1c0,0-0.1-0.1-0.2-0.1c-0.1,0-0.1,0-0.7,0.2c-2,0.8-8.1,3.2-12.9,4c-0.4,0.1-0.7,0.1-1,0.2c0-1.9,0.4-2.5,0.7-2.7
				c0,0,0.1,0,0.1,0c0.1,0.1,0.2,0.3,0.3,0.4c0.3,0.4,0.6,1,1.4,0.9c1.2-0.3,1.3-1.3,1.5-2.3l0.1-0.5c0.1-0.9,0.3-1.7,1.1-1.9
				c0.4-0.1,0.5-0.1,0.8,0.9c0.2,0.7,0.5,1.6,1.4,1.7c0.4,0,0.8-0.1,1.1-0.4c0.6-0.6,0.6-1.7,0.6-2.7V186c0-2.3,1.2-2.3,1.6-2.3
				c0.1,0,0.3,0,0.5,0c0.3,0,0.3,0.1,0.4,0.1c0.2,0.3,0.1,1,0,1.6c-0.1,0.9-0.2,1.9,0.6,2.3c0.3,0.1,0.5,0.2,0.8,0.2
				c1.1,0,1.8-1,2.1-1.7c0.5-0.8,1.1-1.3,1.8-1.3c0.7,0,1.5,0.5,2,1.3C158.2,187,158.3,187.9,157.9,188.5z"/>
			<path class="st0" d="M178.4,172.1c-0.2,0-0.5,0-0.7,0c-0.4,0-0.8,0-0.9,0c0-0.4,0.1-0.8,1.3-1.3c1.3-0.7,2.1-1.9,2.1-3.2
				c0-1.2-0.7-2.4-2-3c-1.6-0.8-3.3-0.6-4.3,0.4c-0.6,0.7-0.9,1.6-0.9,2.6c0,1.2-0.4,1.3-0.6,1.4c-0.1-0.2-0.3-0.6-0.4-0.8
				c-0.4-0.9-0.9-2.2-2.1-2.2c-0.3,0-0.5,0.1-0.8,0.2c-0.9,0.3-1.5,0.9-1.7,1.6c-0.3,0.9-0.2,1.9,0.5,3.1l0.1,0.2
				c0.2,0.3,0.8,1.4,0.6,1.7c-0.1-0.1-0.4-0.3-0.5-0.5c-0.4-0.4-1-0.9-1.6-0.9c-0.4,0-0.9,0.2-1.2,0.6c-1.3,1.2-0.7,2.8-0.4,3.5
				l0.2,0.5c0.2,0.6,0.3,0.9,0.3,1c-0.1,0-0.1-0.1-0.2-0.1c-0.3-0.2-0.6-0.3-1.1-0.3c-0.3,0-0.8,0.1-1.1,0.7
				c-0.8,1.4,0.4,3.5,0.9,4.3c-0.7,0.7-0.7,0.8-0.7,0.9c0,0,0,0.1,0.1,0.1c0,0,0,0.1,0.1,0.1c0,0,0.1,0.1,0.2,0.1
				c0.2,0,0.5-0.2,1-0.5c0.6,0.6,1.8,1.5,3.1,1.5c0.3,0,0.6-0.1,0.9-0.2c1.4-0.6,0.9-1.8,0.7-2.3c0-0.1-0.1-0.2-0.1-0.3
				c0.1,0,0.1-0.1,0.2-0.1c0.2,0,0.5,0.1,0.9,0.2c0.1,0.1,0.3,0.1,0.5,0.2l0.1,0c0.4,0.1,0.9,0.3,1.6,0.3c0.9,0,1.7-0.4,2.4-1.1
				c0.4-0.5,0.6-1,0.6-1.5c-0.1-0.7-0.6-1.2-1.1-1.6c-0.2-0.1-0.5-0.4-0.5-0.5c0-0.1,0.1-0.2,0.4-0.2c0.4,0,0.9,0.1,1.4,0.3
				c0.2,0,0.3,0.1,0.5,0.1c0.4,0.1,0.8,0.2,1.2,0.2c1.9,0,3.2-1.3,3.6-3.4c0.1-0.6,0-1.1-0.4-1.5C179.8,172.1,179,172.1,178.4,172.1
				z M179.3,174c-0.3,1.8-1.4,2.6-3.1,2.1c-0.2,0-0.3-0.1-0.5-0.1c-0.6-0.1-1.2-0.3-1.7-0.3c-1.1,0-1.5,0.6-1.6,1
				c-0.4,1,0.4,1.6,0.9,2c0.3,0.2,0.6,0.5,0.6,0.7c0,0.1-0.1,0.3-0.3,0.5c-0.4,0.4-0.8,0.6-1.4,0.6c-0.4,0-0.8-0.1-1.2-0.2l-0.1,0
				c-0.2-0.1-0.3-0.1-0.4-0.2c-0.5-0.2-0.9-0.3-1.3-0.3c-0.5,0-0.9,0.2-1.2,0.5c-0.5,0.5-0.3,1.2-0.1,1.6c0.1,0.1,0.2,0.4,0.2,0.5
				c0,0-0.1,0.1-0.2,0.1c-0.6,0.2-1.4-0.1-2.4-1c0.6-0.5,1.3-1.1,2.1-1.9c4.2-3.7,9-11.1,8.9-11.5c0-0.1-0.1-0.1-0.1-0.2
				c0,0-0.1,0-0.1,0c-0.1,0-0.1,0-0.5,0.5c-3.5,4.6-6.5,8.1-9,10.3c-0.9,0.8-1.6,1.4-2.1,1.9c-1-1.8-0.9-2.5-0.7-2.7
				c0,0,0-0.1,0-0.1c0.1,0,0.3,0.1,0.4,0.2c0.3,0.1,0.6,0.3,0.9,0.3c0.3,0,0.5-0.1,0.7-0.3c0.8-0.8,0.5-1.7,0.1-2.6l-0.2-0.5
				c-0.3-0.8-0.5-1.5,0.1-2.2c0.1-0.1,0.2-0.2,0.3-0.2c0.2,0,0.5,0.3,0.7,0.6c0.4,0.4,0.9,0.8,1.5,0.8c0.2,0,0.4,0,0.6-0.1
				c0.3-0.2,0.6-0.5,0.7-0.8c0.2-0.8-0.3-1.8-0.8-2.7l-0.1-0.2c-0.4-0.8-0.6-1.6-0.4-2.1c0.1-0.4,0.5-0.7,1-0.9
				c0.1,0,0.2-0.1,0.3-0.1c0.4,0,0.7,0.7,0.9,1.3c0.3,0.8,0.7,1.7,1.5,1.7l0.1,0c1.2-0.2,1.8-1.1,1.9-2.7c0-0.7,0.1-1.3,0.5-1.7
				c0.6-0.6,1.7-0.7,2.7-0.1c0.8,0.4,1.3,1.1,1.3,1.8c0,0.8-0.5,1.6-1.4,2c-1.1,0.5-2.2,1.2-2,2.8c0.1,0.7,0.6,1,1.6,1
				c0.2,0,0.4,0,0.6,0c0.2,0,0.4,0,0.6,0c0.6,0,0.8,0.1,0.9,0.2C179.3,173.6,179.4,173.8,179.3,174z"/>
			<path class="st0" d="M190.2,142.8c-0.7,0-1.4,0.4-2,0.8c-0.2,0.2-0.6,0.4-0.8,0.4c-0.2-0.3-0.3-0.8,0.4-1.7
				c0.8-1.2,1-2.6,0.4-3.8c-0.6-1.1-1.7-1.7-3.1-1.7l-0.2,0c-1.5,0.1-2.7,0.7-3.3,1.8c-0.5,1-0.5,2.2,0.2,3.3c0.6,1,0.4,1.3,0.2,1.5
				c-0.2-0.1-0.5-0.4-0.7-0.5c-0.6-0.5-1.3-1.1-2.1-1.1c-0.4,0-0.9,0.1-1.4,0.7c-0.7,0.8-0.9,1.5-0.8,2.3c0.1,0.9,0.8,1.7,1.9,2.5
				l0.3,0.2c0.4,0.2,1.3,0.8,1.4,1.1c0,0,0,0-0.1,0c-0.2,0-0.4-0.1-0.7-0.1c-0.3-0.1-0.7-0.2-1.1-0.2c-0.8,0-1.4,0.5-1.6,1.3
				c-0.5,1.7,0.8,2.8,1.4,3.3l0.4,0.3c0.6,0.5,0.7,0.6,0.8,0.8c-0.1,0-0.2,0-0.2,0c-0.4,0-1,0-1.4,0.4c-0.2,0.3-0.4,0.6-0.4,1
				c0,1.6,1.9,2.7,2.8,3.2c-0.3,1-0.2,1.1-0.1,1.2l0.2,0.1l0,0l0.1,0c0.1,0,0.3,0,0.7-1c0.4,0.1,1.1,0.2,1.8,0.2
				c1.1,0,1.9-0.3,2.4-1c0.9-1.2-0.1-2-0.5-2.3c-0.1,0-0.1-0.1-0.2-0.2c0.1-0.2,0.3-0.2,1-0.4c0.2,0,0.4-0.1,0.6-0.1l0.1,0
				c0.7-0.1,2.5-0.5,3-2.6c0.1-0.7,0.1-1.2-0.2-1.6c-0.4-0.6-1.1-0.7-1.7-0.8c-0.2,0-0.6-0.1-0.6-0.1c0-0.4,0.7-0.6,1.6-0.9
				c0.1,0,0.3-0.1,0.4-0.1c1.1-0.3,2-1,2.5-1.9c0.5-0.9,0.5-2,0.1-3.2C191.3,143,190.7,142.8,190.2,142.8z M180.8,159.7
				C180.8,159.7,180.8,159.7,180.8,159.7C180.9,159.7,180.9,159.7,180.8,159.7L180.8,159.7z M190.5,146.6c-0.3,0.6-0.9,1-1.7,1.3
				c-0.1,0-0.3,0.1-0.4,0.1c-1.1,0.3-2.7,0.7-2.6,2.2c0.1,1,1.1,1.2,1.7,1.3c0.3,0.1,0.8,0.1,0.9,0.3c0,0,0.1,0.2,0,0.6
				c-0.3,1.2-1.1,1.4-1.9,1.6l-0.1,0c-0.2,0-0.4,0.1-0.5,0.1c-0.9,0.1-1.7,0.3-2.1,1.3c-0.2,0.7,0.3,1.2,0.6,1.5
				c0.1,0.1,0.3,0.3,0.4,0.4c0,0,0,0.1-0.1,0.2c-0.2,0.3-0.7,0.5-1.4,0.5c-0.5,0-0.9-0.1-1.3-0.1c0.3-0.7,0.6-1.5,1-2.6
				c1.9-5.6,2.4-14.1,2.2-14.4l-0.2-0.1c-0.2,0-0.2,0-0.4,1.4c-0.4,2.5-1.2,8.4-2.7,12.7c-0.4,1.1-0.7,1.9-0.9,2.6
				c-1.6-1-1.9-1.6-1.9-2c0,0,0-0.1,0-0.1c0.1,0,0.3,0,0.5,0c0.4,0,1.2,0,1.4-0.7c0.4-1.1-0.4-1.8-1.1-2.4l-0.4-0.3
				c-0.7-0.5-1.2-1.1-1-1.9c0.1-0.4,0.2-0.4,0.3-0.4c0.2,0,0.5,0.1,0.8,0.1c0.3,0.1,0.7,0.2,1,0.2c0.6,0,0.9-0.3,1.1-0.5
				c0.2-0.3,0.3-0.7,0.3-1.1c-0.2-0.8-1.1-1.4-2-1.9l-0.3-0.2c-0.8-0.5-1.3-1-1.3-1.5c-0.1-0.4,0.1-0.8,0.5-1.3
				c0.2-0.2,0.3-0.2,0.3-0.2c0.3,0,0.9,0.5,1.3,0.8c0.6,0.5,1.1,0.8,1.6,0.8c0.2,0,0.4-0.1,0.6-0.2c1.5-1,0.6-2.7,0.3-3.3
				c-0.4-0.7-0.5-1.5-0.2-2.1c0.4-0.7,1.2-1.1,2.2-1.1l0.1,0c0.9,0,1.6,0.4,1.9,1c0.4,0.7,0.2,1.6-0.3,2.4c-0.3,0.5-1.3,1.9-0.3,3.4
				c0.2,0.3,0.5,0.4,0.9,0.4c0.5,0,1-0.3,1.6-0.7c0.4-0.3,1-0.6,1.3-0.6c0.1,0,0.2,0,0.4,0.4C190.8,145.2,190.8,146,190.5,146.6z"/>
			<path class="st0" d="M181.5,109.8c-1-1.1-2.8-1.3-4.3-0.4c-1.3,0.8-2,1.9-2,3.2c0,1.1,0.7,2.2,1.8,2.8c1,0.5,0.9,1,0.8,1.2
				c0,0,0,0-0.1,0c-0.2,0-0.5-0.1-0.8-0.1c-0.4-0.1-0.8-0.1-1.3-0.1c-1.5,0-1.8,1-1.9,1.6c-0.2,1,0,1.8,0.5,2.4
				c0.6,0.7,1.5,1.1,2.9,1.2l0.3,0c0.6,0,1.6,0.1,1.8,0.3c0,0,0,0,0,0c-0.1,0.1-0.5,0.2-0.7,0.2c-0.7,0.2-2.2,0.6-1.8,2.3
				c0.4,1.7,2.1,2,2.8,2.2l0.5,0.1c0.7,0.1,0.9,0.2,1,0.3c-0.1,0-0.1,0.1-0.2,0.1c-0.4,0.2-0.9,0.5-1,1.1c-0.1,0.3,0,0.7,0.2,1.1
				c0.8,1.4,3.1,1.4,4,1.4c0.2,1,0.3,1,0.5,1c0,0,0,0,0.1,0c0.1,0,0.2-0.1,0.2-0.1c0.1-0.1,0.2-0.2,0.1-1c2-0.6,3.2-1.5,3.3-2.7
				c0.2-1.5-1.1-1.7-1.5-1.8c-0.1,0-0.2,0-0.3-0.1c0-0.2,0.2-0.4,0.7-0.8c0.1-0.1,0.3-0.2,0.4-0.3l0.1-0.1c0.6-0.5,2-1.6,1.4-3.7
				c-0.4-1.2-1.1-1.5-1.7-1.5c-0.4,0-0.8,0.1-1.2,0.3c-0.2,0.1-0.5,0.2-0.7,0.2c-0.2-0.3,0.3-0.8,1-1.5c0.1-0.1,0.3-0.3,0.4-0.4
				c0.9-0.9,1.3-1.9,1.3-2.9c0-1-0.6-2-1.6-2.8c-0.4-0.3-0.8-0.5-1.2-0.5c-1.1,0-1.6,1-2.1,1.9c-0.1,0.3-0.3,0.6-0.5,0.8
				c-0.4-0.2-0.5-0.6-0.4-1.7C182.5,111.6,182.2,110.5,181.5,109.8z M182.5,115.7c0.1,0.1,0.3,0.1,0.4,0.1c0.8,0,1.2-0.8,1.6-1.5
				c0.2-0.5,0.7-1.2,0.9-1.2c0,0,0.2,0,0.4,0.2c0.7,0.5,1,1.2,1.1,1.8c0,0.7-0.3,1.3-0.9,1.9c-0.1,0.1-0.2,0.2-0.4,0.4
				c-0.8,0.8-2.1,2-1.1,3.2c0.3,0.3,0.6,0.5,1.1,0.5c0.4,0,0.7-0.1,1.1-0.3c0.3-0.1,0.6-0.2,0.7-0.2c0.1,0,0.2,0,0.4,0.5
				c0.3,1.2-0.3,1.8-0.9,2.4l-0.1,0.1c-0.1,0.1-0.3,0.2-0.4,0.3c-0.7,0.6-1.4,1.1-1.2,2.2c0.1,0.7,0.9,0.9,1.3,1
				c0.2,0,0.4,0.1,0.5,0.1c0,0,0,0.1,0,0.2c0,0.4-0.4,1-2.1,1.6c-0.1-0.7-0.2-1.7-0.5-3c-0.9-5.4-4.7-13.6-5.3-13.6
				c-0.1,0-0.1,0-0.2,0.1c-0.1,0.1-0.1,0.1,0.4,1.5c0.9,2.4,3.1,7.9,3.9,12.3c0.2,1.2,0.4,2.2,0.6,2.9c-1.9-0.1-2.4-0.5-2.6-0.8
				c0,0,0,0,0-0.1c0.1-0.1,0.3-0.2,0.4-0.2c0.4-0.2,1-0.6,0.9-1.3c-0.2-1.1-1.2-1.3-2.1-1.5l-0.5-0.1c-0.8-0.2-1.6-0.4-1.8-1.2
				c-0.1-0.4-0.1-0.5,0.9-0.7c0.6-0.2,1.6-0.4,1.7-1.4c0-0.4-0.1-0.7-0.4-1c-0.6-0.6-1.7-0.7-2.7-0.7l-0.2,0
				c-0.9-0.1-1.6-0.3-1.9-0.7c-0.3-0.3-0.3-0.8-0.2-1.3c0.1-0.3,0.1-0.5,0.7-0.5c0.3,0,0.7,0.1,1,0.1c0.4,0.1,0.7,0.1,1.1,0.1
				c0.7,0,1.1-0.3,1.2-0.7c0.3-0.7,0.5-1.9-1.3-3c-0.8-0.4-1.2-1-1.2-1.7c0-0.7,0.5-1.5,1.3-2c1-0.6,2-0.5,2.6,0.2
				c0.4,0.5,0.6,1.2,0.6,2C181.1,113.5,180.9,115.1,182.5,115.7z"/>
			<path class="st0" d="M157,89c-0.7,1.3-0.8,2.6-0.2,3.7c0.6,1,1.6,1.6,3,1.6c1.1,0,1.3,0.4,1.3,0.6c-0.2,0.1-0.6,0.2-0.8,0.3
				c-0.8,0.3-1.7,0.6-2.1,1.4c-0.2,0.4-0.2,0.9,0,1.4c0.6,2,2.4,2.6,4.7,1.5l0.2-0.1c0.5-0.3,1.2-0.6,1.6-0.6c0.1,0,0.1,0,0.1,0
				c-0.1,0.1-0.3,0.4-0.5,0.5c-0.4,0.4-1,0.9-1,1.7c0,0.4,0.2,0.8,0.5,1.2c0.5,0.6,1.2,0.9,1.9,0.9c0.6,0,1.2-0.2,1.6-0.3l0.5-0.2
				c0.4-0.2,0.8-0.3,1-0.2c0,0.1-0.1,0.1-0.1,0.2c-0.2,0.4-0.5,0.9-0.4,1.4c0.1,0.3,0.3,0.6,0.7,0.8c0.3,0.2,0.7,0.3,1.2,0.3
				c1,0,2.1-0.5,2.9-0.9c0.6,0.7,0.7,0.7,0.8,0.7c0.1,0,0.1,0,0.2-0.1l0.1,0l0.1-0.1c0-0.1,0.1-0.2-0.4-1c1.5-1.5,2.1-2.9,1.6-4.1
				c-0.3-0.9-1-1-1.3-1c-0.3,0-0.6,0.1-0.9,0.2c-0.1,0-0.2,0.1-0.2,0.1c-0.1-0.2,0-0.4,0.2-1.1c0.1-0.1,0.1-0.3,0.2-0.5l0-0.1
				c0.3-0.7,0.9-2.4-0.6-3.9c-0.5-0.4-0.9-0.7-1.4-0.7c-0.8,0-1.3,0.6-1.7,1c-0.1,0.2-0.4,0.5-0.5,0.5c-0.3-0.1-0.1-0.9,0.1-1.8
				c0.1-0.2,0.1-0.3,0.1-0.5c0.3-1.1,0.3-2.2-0.3-3.1c-0.5-0.9-1.5-1.5-2.7-1.8c-0.8-0.1-1.4,0.2-1.6,0.4c-0.6,0.6-0.6,1.6-0.6,2.4
				c0,0.3,0,0.7,0,0.9c-0.4,0-0.8-0.2-1.2-1.3c-0.6-1.4-1.8-2.3-3.2-2.3C158.8,87.2,157.7,87.9,157,89z M158.2,89.7
				c0.4-0.8,1.1-1.2,1.9-1.2c0.8,0,1.6,0.6,2,1.5c0.5,1,1.1,2,2.4,2c0.1,0,0.2,0,0.3,0c1.1-0.1,1.1-1.3,1.1-2.2c0-0.5,0-1.3,0.2-1.5
				c0,0,0.1-0.1,0.2-0.1c0.1,0,0.1,0,0.2,0c0.9,0.2,1.5,0.6,1.9,1.2c0.3,0.6,0.4,1.3,0.1,2.1c0,0.2-0.1,0.3-0.1,0.5
				c-0.3,1.1-0.8,2.7,0.6,3.3c0.2,0.1,0.4,0.1,0.5,0.1c0.7,0,1.1-0.5,1.5-0.9c0.2-0.3,0.5-0.6,0.7-0.6c0.1,0,0.2,0,0.5,0.3
				c0.9,0.9,0.6,1.7,0.3,2.5l0,0.1c-0.1,0.2-0.1,0.3-0.2,0.4c-0.3,0.8-0.7,1.7,0.1,2.5c0.1,0.2,0.4,0.4,0.8,0.4
				c0.3,0,0.5-0.1,0.8-0.2c0.2-0.1,0.4-0.1,0.5-0.1c0,0,0,0,0.1,0.2c0.1,0.3,0.1,1.1-1.2,2.5c-0.4-0.6-1-1.4-1.8-2.4
				c-3.1-3.8-8.4-7.5-10.2-8.8c-0.8-0.6-0.8-0.6-0.9-0.6l-0.1,0l-0.1,0.1l0,0.1c0,0.1,0,0.1,0.8,0.7l0.1,0c2,1.6,6.7,5.6,9.5,9.2
				c0.8,1,1.4,1.7,1.8,2.2c-0.6,0.3-1.4,0.6-2,0.6c-0.2,0-0.4,0-0.5-0.1c0,0,0,0-0.1,0c0-0.1,0.1-0.3,0.2-0.4c0.2-0.4,0.6-1,0.1-1.6
				c-0.3-0.4-0.7-0.6-1.2-0.6c-0.4,0-0.9,0.1-1.3,0.3l-0.5,0.2c-0.3,0.1-0.8,0.3-1.2,0.3c-0.4,0-0.7-0.1-1-0.4
				c-0.1-0.1-0.2-0.2-0.2-0.3c0-0.2,0.4-0.5,0.6-0.7c0.5-0.5,1.2-1.1,0.8-2c-0.2-0.5-0.7-0.8-1.3-0.8c-0.7,0-1.5,0.4-2.2,0.8
				l-0.2,0.1c-0.6,0.3-1.1,0.4-1.5,0.4c-0.4,0-1-0.1-1.4-1.2c-0.1-0.3,0-0.4,0-0.4c0.1-0.3,0.8-0.5,1.3-0.7c0.8-0.3,1.8-0.6,1.7-1.6
				c-0.1-0.9-0.6-1.9-2.6-1.9c-0.9,0-1.6-0.4-1.9-1C157.6,91.4,157.7,90.6,158.2,89.7z"/>
			<path class="st0" d="M96.5,152.3l2.9-7.7h-1.7l-1.5,4c-0.2,0.6-0.4,1.3-0.6,2h0c-0.2-0.7-0.4-1.4-0.6-2l-1.5-4h-1.8l2.9,7.7H96.5
				z"/>
			<polygon class="st0" points="106,151 103,151 103,148.9 105.8,148.9 105.8,147.7 103,147.7 103,145.8 106,145.8 106,144.6 
				101.4,144.6 101.4,152.3 106,152.3 			"/>
			<polygon class="st0" points="111.7,152.3 111.7,145.9 113.8,145.9 113.8,144.6 108,144.6 108,145.9 110.1,145.9 110.1,152.3 			
				"/>
			<polygon class="st0" points="120.7,145.8 120.7,144.6 116.1,144.6 116.1,152.3 120.7,152.3 120.7,151 117.7,151 117.7,148.9 
				120.5,148.9 120.5,147.7 117.7,147.7 117.7,145.8 			"/>
			<path class="st0" d="M128.4,148.7l-2.6-4.1h-2.1v7.7h1.6l0-4c0-0.7,0-1.2,0-1.6h0c0.2,0.5,0.5,1,0.8,1.5l2.7,4.2h2.1v-7.7h-1.6
				l0,3.4c0,1,0,1.7,0,2.2h0C129,149.7,128.7,149.2,128.4,148.7z"/>
			<path class="st0" d="M135.5,151.1c-0.7,0-1.3-0.1-1.7-0.3l-0.1,1.4c0.4,0.1,1.1,0.2,1.6,0.2c2,0,3.3-1,3.3-2.6
				c0-2.4-3.4-1.8-3.4-3.2c0-0.6,0.4-1,1.4-1c0.4,0,1.1,0.1,1.5,0.2l0.1-1.4c-0.4-0.1-1-0.1-1.5-0.1c-2,0-3.2,1-3.2,2.4
				c0,2.5,3.4,1.8,3.4,3.2C136.9,150.8,136.2,151.1,135.5,151.1z"/>
			<polygon class="st0" points="141.5,144.6 141.5,152.3 143.1,152.3 143.1,148.7 145.9,152.3 148,152.3 144.7,148.3 147.9,144.6 
				145.9,144.6 143.1,148 143.1,144.6 			"/>
			<path class="st0" d="M151.5,150.8h3.2l0.5,1.5h1.8l-2.9-7.7h-1.9l-2.9,7.7h1.6L151.5,150.8z M152.7,147.5
				c0.1-0.4,0.3-0.8,0.4-1.2h0c0.1,0.4,0.3,0.8,0.4,1.2l0.8,2.2h-2.4L152.7,147.5z"/>
			<path class="st0" d="M161.8,144.5c-0.9,0-1.9,0-2.5,0v7.7h1.6v-2.5c0.2,0,0.5,0,0.7,0c2,0,3.3-1.1,3.3-2.8
				C164.9,145.5,163.8,144.5,161.8,144.5z M161.6,148.5c-0.2,0-0.5,0-0.7-0.1v-2.6c0.2,0,0.5,0,0.8,0c1,0,1.5,0.5,1.5,1.3
				C163.2,148,162.6,148.5,161.6,148.5z"/>
			<path class="st0" d="M96.5,165.3c2.2,0,4-1.5,4-4.1c0-2.6-1.6-3.9-3.8-3.9c-2.1,0-4,1.5-4,4.1C92.7,163.7,94,165.3,96.5,165.3z
				 M96.6,158.7c1.3,0,2.2,0.9,2.2,2.6c0,1.7-1,2.5-2.2,2.5c-1.5,0-2.1-1.2-2.1-2.6C94.4,159.6,95.5,158.7,96.6,158.7z"/>
			<path class="st0" d="M106.2,165.2c0.8,0,1.4-0.1,2.1-0.3l-0.1-1.4c-0.5,0.2-1,0.4-1.6,0.4c-1.5,0-2.4-0.9-2.4-2.5
				c0-1.5,0.8-2.6,2.3-2.6c0.5,0,1.1,0.1,1.6,0.3l0.1-1.4c-0.5-0.1-1.2-0.2-1.7-0.2c-2.9,0-4.1,1.9-4.1,4.1
				C102.4,163.8,103.7,165.2,106.2,165.2z"/>
			<polygon class="st0" points="117.6,165.1 117.6,157.4 116,157.4 116,160.5 112.4,160.5 112.4,157.4 110.8,157.4 110.8,165.1 
				112.4,165.1 112.4,161.9 116,161.9 116,165.1 			"/>
			<polygon class="st0" points="126,161.5 128.9,165.1 131,165.1 127.7,161.1 130.9,157.4 128.9,157.4 126,160.9 126,157.4 
				124.4,157.4 124.4,165.1 126,165.1 			"/>
			<path class="st0" d="M135.8,165.3c2.2,0,4-1.5,4-4.1c0-2.6-1.6-3.9-3.8-3.9c-2.1,0-4,1.5-4,4.1
				C132.1,163.7,133.3,165.3,135.8,165.3z M136,158.7c1.3,0,2.2,0.9,2.2,2.6c0,1.7-1,2.5-2.2,2.5c-1.5,0-2.1-1.2-2.1-2.6
				C133.8,159.6,134.8,158.7,136,158.7z"/>
			<path class="st0" d="M144.5,160.9l2.7,4.2h2.1v-7.7h-1.6l0,3.4c0,1,0,1.7,0,2.2h0c-0.3-0.5-0.5-1-0.8-1.5l-2.6-4.1h-2.1v7.7h1.6
				l0-4c0-0.7,0-1.2,0-1.6h0C144,159.9,144.2,160.5,144.5,160.9z"/>
			<path class="st0" d="M154,163.9c-0.7,0-1.3-0.1-1.7-0.3l-0.1,1.4c0.4,0.1,1.1,0.2,1.6,0.2c2,0,3.3-1,3.3-2.6
				c0-2.4-3.4-1.8-3.4-3.2c0-0.6,0.4-1,1.4-1c0.4,0,1.1,0.1,1.5,0.2l0.1-1.4c-0.4-0.1-1-0.1-1.5-0.1c-2,0-3.2,1-3.2,2.4
				c0,2.5,3.4,1.8,3.4,3.2C155.4,163.6,154.7,163.9,154,163.9z"/>
			<polygon class="st0" points="162.4,165.1 162.4,158.8 164.6,158.8 164.6,157.4 158.7,157.4 158.7,158.8 160.8,158.8 160.8,165.1 
							"/>
			<path class="st0" d="M102.7,135.6l-0.2,0c-4-0.5-4.1-1.3-4.2-4.7v-5.8l6.8,7.3c2.6,2.8,4,4.4,7.7,4.4c0.7,0,1.5-0.1,2.4-0.2
				l0.2,0l0-0.9l-0.2,0c-2.3-0.1-3.5-1.4-5.9-3.9c-0.3-0.4-0.7-0.7-1.1-1.1l-6.6-7.3l2.6-2.7l0.6-0.6c2.2-2.3,4.8-5,8.1-5.3l0.2,0
				v-0.9h-8.9v0.9l0.2,0c0.9,0.1,1.4,0.3,1.5,0.6c0.3,0.7-0.5,2-2.4,4.1l-5.2,5.5v-5.6c0.1-3.4,0.1-4.2,3.3-4.7l0.2,0v-0.9H91v0.9
				l0.2,0c3.7,0.5,3.8,1.3,3.9,4.7v11.5c-0.1,3.4-0.1,4.2-3.9,4.7l-0.2,0v0.9h11.7V135.6z"/>
			<path class="st0" d="M132.3,135.6l-0.2,0c-4.2-0.5-4.4-1.5-4.4-5.4v-14.9h1.7c3.9,0,5.4,1.2,6.5,4.9l0.1,0.2l0.8-0.2l-0.4-6.4
				h-20.8l-0.4,6.4l0.8,0.2l0.1-0.2c1.1-3.7,2.6-4.9,6.5-4.9h1.7v14.9c0,4-0.2,4.9-4.4,5.4l-0.2,0v0.9h12.5V135.6z"/>
			<path class="st0" d="M165.7,114.7l0.2,0v-0.9h-11.7v0.9l0.2,0c4.2,0.6,4.2,1.1,4.2,4.7v4.5h-11.8v-4.5c0-3.5,0-4.1,4.2-4.7l0.2,0
				v-0.9h-11.7v0.9l0.2,0c3.7,0.5,3.8,1.3,3.9,4.7v11.5c-0.1,3.4-0.1,4.2-3.9,4.7l-0.2,0v0.9H151v-0.9l-0.2,0
				c-4.2-0.6-4.2-1.1-4.2-4.7v-5.2h11.8v5.2c0,3.5,0,4.1-4.2,4.7l-0.2,0v0.9h11.7v-0.9l-0.2,0c-3.7-0.5-3.8-1.3-3.9-4.7v-11.5
				C161.9,116,162,115.2,165.7,114.7z"/>
			<path class="st0" d="M100.9,84.1c-0.1,0.2-0.6,1.3,0.2,2.5c0.9,1.3,2.3,1.1,2.4,1.1c1,1.3,2.7,2.8,4,2.4c0,0,8.6-4,20.6-4h0
				c12,0,20.6,4,20.6,4c1.4,0.4,3-1.1,4-2.4c0,0,1.5,0.2,2.4-1.1c0.8-1.2,0.3-2.3,0.2-2.5c0.7-1.2,1.8-2.2,1.8-2.2
				c0.5-0.5,0.8-1.1,0.8-1.9c0-1.4-1.2-2.6-2.6-2.6c-0.1,0-0.2,0-0.3,0c0-0.1,0-0.1-0.1-0.2c0.7-0.4,1.2-1.1,1.2-1.9
				c0-1.2-1-2.1-2.1-2.1c-0.4,0-0.8,0.1-1.1,0.3c-0.1-0.1-0.1-0.1-0.2-0.2c0.3-0.3,0.5-0.8,0.5-1.3c0-1-0.8-1.8-1.8-1.8
				c-0.6,0-1.1,0.3-1.4,0.8c-0.1-0.1-0.2-0.1-0.3-0.2c0.2-0.3,0.3-0.6,0.3-1c0-0.9-0.7-1.6-1.6-1.6c-0.7,0-1.3,0.4-1.5,1.1
				c-0.2-0.1-0.3-0.1-0.5-0.2c0.1-0.2,0.2-0.5,0.2-0.7c0-0.8-0.7-1.5-1.5-1.5c-0.7,0-1.3,0.5-1.4,1.2c-0.1,0-0.2-0.1-0.3-0.1
				c-0.2-0.9-1-1.5-2-1.5c-0.2,0-0.4,0-0.6,0.1c-0.1-0.1-0.1-0.1-0.2-0.2c0,0,0-0.1,0-0.1c0-0.9-0.8-1.7-1.7-1.7
				c-0.4,0-0.7,0.1-1,0.3c-0.1,0-0.1-0.1-0.2-0.1c0,0,0,0,0,0c0-0.9-0.7-1.6-1.6-1.6c-0.6,0-1.1,0.3-1.3,0.8c-0.1,0-0.2,0-0.4-0.1
				c0,0,0,0,0-0.1c0-0.8-0.6-1.4-1.4-1.4c-0.7,0-1.2,0.5-1.4,1.1c-0.1,0-0.3,0-0.4,0c0.2-0.4,0.3-0.8,0.3-1.3c0-1.3-0.7-2.4-1.8-3
				c0,0-0.4-0.2-1-0.3c0-1.2,0-2.6,0-2.6s1.3,0,1.4,0c0-0.1,0.1-0.3,0.1-0.6c0-0.3-0.1-0.5-0.1-0.6c-0.1,0-1.4,0-1.4,0v-1.4
				c-0.1,0-0.3-0.1-0.6-0.1h0c-0.3,0-0.5,0.1-0.6,0.1v1.4c0,0-1.3,0-1.4,0c0,0.1-0.1,0.3-0.1,0.6c0,0.3,0.1,0.5,0.1,0.6
				c0.1,0,1.4,0,1.4,0s0,1.4,0,2.6c-0.6,0.1-1,0.3-1,0.3c-1.1,0.6-1.8,1.7-1.8,3c0,0.5,0.1,0.9,0.3,1.3c-0.1,0-0.3,0-0.4,0
				c-0.1-0.6-0.7-1.1-1.4-1.1c-0.8,0-1.4,0.6-1.4,1.4c0,0,0,0,0,0.1c-0.1,0-0.2,0-0.4,0.1c-0.3-0.5-0.8-0.8-1.3-0.8
				c-0.9,0-1.6,0.7-1.6,1.6c0,0,0,0,0,0c-0.1,0-0.1,0.1-0.2,0.1c-0.3-0.2-0.6-0.3-1-0.3c-1,0-1.7,0.8-1.7,1.7c0,0,0,0.1,0,0.1
				c-0.1,0.1-0.2,0.1-0.2,0.2c-0.2-0.1-0.4-0.1-0.6-0.1c-0.9,0-1.7,0.6-2,1.5c-0.1,0-0.2,0.1-0.3,0.1c-0.1-0.7-0.7-1.2-1.4-1.2
				c-0.8,0-1.5,0.7-1.5,1.5c0,0.3,0.1,0.5,0.2,0.7c-0.2,0.1-0.3,0.1-0.5,0.2c-0.2-0.6-0.8-1.1-1.5-1.1c-0.9,0-1.6,0.7-1.6,1.6
				c0,0.4,0.1,0.7,0.3,1c-0.1,0.1-0.2,0.1-0.3,0.2c-0.3-0.5-0.8-0.8-1.4-0.8c-1,0-1.8,0.8-1.8,1.8c0,0.5,0.2,0.9,0.5,1.3
				c-0.1,0.1-0.1,0.1-0.2,0.2c-0.3-0.2-0.7-0.3-1.1-0.3c-1.2,0-2.1,1-2.1,2.1c0,0.8,0.5,1.5,1.2,1.9c0,0.1,0,0.1-0.1,0.2
				c-0.1,0-0.2,0-0.3,0c-1.4,0-2.6,1.2-2.6,2.6c0,0.7,0.3,1.4,0.8,1.9C99,81.9,100.1,82.9,100.9,84.1z M103.1,86.8
				c-0.9,0-1.6-0.7-1.6-1.6c0-0.3,0.1-0.6,0.3-0.9c0.3-0.4,0.8-0.7,1.3-0.7c0.5,0,1,0.3,1.3,0.7c0.2,0.3,0.3,0.6,0.3,0.9
				C104.7,86.1,103.9,86.8,103.1,86.8z M128,81.6c-0.9,0-1.6-0.7-1.6-1.6c0-0.9,0.7-1.6,1.6-1.6c0.9,0,1.6,0.7,1.6,1.6
				C129.6,80.9,128.9,81.6,128,81.6z M128,69.4c0.9,0,1.6,0.7,1.6,1.6c0,0.9-0.7,1.6-1.6,1.6c-0.9,0-1.6-0.7-1.6-1.6
				C126.4,70.1,127.1,69.4,128,69.4z M126.8,67.7c0-0.7,0.5-1.2,1.2-1.2c0.7,0,1.2,0.5,1.2,1.2c0,0.7-0.5,1.2-1.2,1.2
				C127.3,68.9,126.8,68.3,126.8,67.7z M128,73.1c1.1,0,1.9,0.9,1.9,1.9c0,0.5-0.2,0.9-0.5,1.3c-0.4-0.3-0.9-0.5-1.4-0.5
				c-0.5,0-1,0.2-1.4,0.5c-0.3-0.3-0.5-0.8-0.5-1.3C126.1,74,126.9,73.1,128,73.1z M152.9,86.8c-0.9,0-1.6-0.7-1.6-1.6
				c0-0.4,0.2-0.8,0.4-1.1c0.3-0.3,0.7-0.5,1.1-0.5c0.7,0,1.3,0.4,1.5,1c0.1,0.2,0.1,0.4,0.1,0.6C154.5,86.1,153.8,86.8,152.9,86.8z
				 M155.2,78.3c0.9,0,1.7,0.8,1.7,1.7c0,0.6-0.6,1.4-1.1,1.7c-0.4-0.5-1.1-0.9-1.8-0.9c-0.1,0-0.1,0-0.2,0
				c-0.1-0.2-0.2-0.5-0.2-0.8C153.5,79.1,154.3,78.3,155.2,78.3z M153.9,74.1c0.7,0,1.3,0.6,1.3,1.3c0,0.7-0.6,1.3-1.3,1.3
				c-0.7,0-1.3-0.6-1.3-1.3C152.6,74.7,153.1,74.1,153.9,74.1z M151.4,71.1c0.5,0,0.9,0.4,0.9,0.9c0,0.5-0.4,0.9-0.9,0.9
				c-0.5,0-0.9-0.4-0.9-0.9C150.5,71.5,150.9,71.1,151.4,71.1z M148.3,69.1c0.4,0,0.7,0.3,0.7,0.7c0,0.4-0.3,0.7-0.7,0.7
				c-0.4,0-0.7-0.3-0.7-0.7C147.6,69.5,147.9,69.1,148.3,69.1z M145,67.8c0.3,0,0.6,0.3,0.6,0.6c0,0.3-0.3,0.6-0.6,0.6
				c-0.3,0-0.6-0.3-0.6-0.6C144.4,68,144.7,67.8,145,67.8z M143.1,69.6c4.9,1.6,7.5,4,8.7,6.4c1,2.2,0.8,2.7,0.9,4.1
				c0,0.5,0.1,0.8,0.2,1.1c-1.1,0.6-1.3,1.5-1.3,1.5c0,0-0.1-0.1-0.1-0.1c-0.4-0.3-0.9-0.5-1.5-0.5c-1.8,0-2.9,1.8-2.2,3.5
				c0.2,0.4,1.2,1.9,3.1,1.2c0.1,0.2,0.2,0.3,0.4,0.4c-0.6,1.1-1.9,1.6-3.1,1.2c-1.2-0.5-2-1.4-2.3-2.6c-0.9,0.8-2.1,1.2-3.3,0.9
				c-1.3-0.3-2.2-1.6-1.9-2.9c0-0.1,0.1-0.6,0.2-0.8c0.2,0.9,0.9,1.7,1.9,1.9c1.3,0.3,2.5-0.6,2.8-1.9c0.3-1.3-0.6-2.5-1.9-2.8
				c-0.1,0-0.3,0-0.4,0c0-0.1,0.1-0.2,0.1-0.2c0.1-0.3,0.1-0.6,0-0.8c1.2-0.3,2-1.4,2-2.7c0-1-0.6-1.9-1.4-2.4
				c0.7-0.4,1.2-1.1,1.2-2c0-1.2-0.9-2.2-2.1-2.3C143,69.7,143.1,69.6,143.1,69.6z M141.4,77.1c-0.2,0-0.4,0-0.6,0
				c-0.1-0.2-0.1-0.4-0.1-0.7c0-1,0.8-1.9,1.9-1.9s1.9,0.8,1.9,1.9c0,0.9-0.6,1.6-1.5,1.8C142.6,77.7,142.1,77.3,141.4,77.1z
				 M144.2,72c0,0.8-0.6,1.4-1.4,1.4c-0.8,0-1.4-0.6-1.4-1.4c0-0.8,0.6-1.4,1.4-1.4C143.6,70.6,144.2,71.2,144.2,72z M141.3,67.4
				c0.6,0,1.2,0.5,1.2,1.2c0,0.6-0.5,1.2-1.2,1.2c-0.6,0-1.2-0.5-1.2-1.2C140.1,68,140.7,67.4,141.3,67.4z M140.5,79.7
				c0.9,0,1.6,0.7,1.6,1.6c0,0.9-0.7,1.6-1.6,1.6c-0.9,0-1.6-0.7-1.6-1.6C139,80.4,139.7,79.7,140.5,79.7z M138.8,65.5
				c0.5,0,0.9,0.4,0.9,0.8c0,0.5-0.4,0.8-0.9,0.8c-0.5,0-0.8-0.4-0.8-0.8C137.9,65.9,138.3,65.5,138.8,65.5z M136,64.2
				c0.4,0,0.7,0.3,0.7,0.7c0,0.4-0.3,0.7-0.7,0.7c-0.4,0-0.7-0.3-0.7-0.7C135.3,64.5,135.6,64.2,136,64.2z M132.9,63.4
				c0.3,0,0.5,0.2,0.5,0.5c0,0.3-0.2,0.5-0.5,0.5c-0.3,0-0.5-0.2-0.5-0.5C132.3,63.7,132.6,63.4,132.9,63.4z M139.1,77l0.4,0.6
				c-0.4,0.3-0.8,0.8-0.9,1.4c0,0,0,0.1,0,0.2c-0.1-0.1-0.3-0.1-0.4-0.2c-1.3-0.3-2.5,0.6-2.8,1.9c-0.3,1.3,0.6,2.5,1.9,2.8
				c1,0.2,1.9-0.3,2.4-1c0,0.2-0.1,0.7-0.1,0.8c-0.3,1.3-1.6,2.2-2.9,1.9c-1.2-0.2-2.1-1-2.7-2.1c-0.7,0.9-1.8,1.6-3,1.6
				c-1.4,0-2.5-1.1-2.5-2.5c0-0.1,0-0.6,0-0.8c0.4,0.9,1.2,1.5,2.2,1.5c1.3,0,2.4-1.1,2.4-2.4c0-1.3-1.1-2.4-2.4-2.4
				c-0.1,0-0.3,0.1-0.4,0.1c0-0.1,0-0.3,0-0.3c0-0.2,0-0.5-0.1-0.7l0.9-0.5c0,0-0.2-8.1-1.6-11.7c0,0,0.1-0.1,0.1-0.1
				C141.5,65.9,140.5,74.1,139.1,77z M130.5,62.1c0,0.1,0,0.1,0,0.2c0,0.5-0.1,0.9-0.4,1.3c-0.2,0-0.5,0-0.8,0c0-0.1,0-0.2,0-0.3
				c0-0.5-0.3-0.9-0.7-1.1H130.5z M128.6,59.9c0.7,0.2,1.3,0.7,1.6,1.3h-1.6V59.9z M128,62.7c0.3,0,0.5,0.2,0.5,0.5
				c0,0.3-0.2,0.5-0.5,0.5c-0.3,0-0.5-0.2-0.5-0.5C127.5,63,127.7,62.7,128,62.7z M128,64.4c0.5,0,0.8,0.4,0.8,0.8
				c0,0.5-0.4,0.8-0.8,0.8c-0.5,0-0.8-0.4-0.8-0.8C127.2,64.7,127.5,64.4,128,64.4z M127.4,59.9v1.3h-1.6
				C126.1,60.6,126.7,60.1,127.4,59.9z M125.5,62.1h1.8c-0.4,0.2-0.7,0.7-0.7,1.1c0,0.1,0,0.2,0,0.3c-0.3,0-0.6,0-0.8,0
				c-0.2-0.4-0.4-0.8-0.4-1.3C125.5,62.2,125.5,62.2,125.5,62.1z M123.1,63.4c0.3,0,0.5,0.2,0.5,0.5c0,0.3-0.2,0.5-0.5,0.5
				c-0.3,0-0.5-0.2-0.5-0.5C122.6,63.7,122.8,63.4,123.1,63.4z M120,64.2c0.4,0,0.7,0.3,0.7,0.7c0,0.4-0.3,0.7-0.7,0.7
				c-0.4,0-0.7-0.3-0.7-0.7C119.3,64.5,119.6,64.2,120,64.2z M117.2,65.5c0.5,0,0.8,0.4,0.8,0.8c0,0.5-0.4,0.8-0.8,0.8
				c-0.5,0-0.9-0.4-0.9-0.8C116.4,65.9,116.8,65.5,117.2,65.5z M126.3,65.2c0,0,0.1,0.1,0.1,0.1c-1.4,3.6-1.6,11.7-1.6,11.7l0.9,0.5
				c-0.1,0.2-0.1,0.4-0.1,0.7c0,0,0,0.1,0,0.3c-0.1,0-0.3-0.1-0.4-0.1c-1.3,0-2.4,1.1-2.4,2.4c0,1.3,1.1,2.4,2.4,2.4
				c1,0,1.9-0.6,2.2-1.5c0,0.2,0,0.7,0,0.8c0,1.4-1.1,2.5-2.5,2.5c-1.3,0-2.3-0.6-3-1.6c-0.5,1.1-1.4,1.9-2.7,2.1
				c-1.3,0.3-2.6-0.6-2.9-1.9c0-0.1-0.1-0.6-0.1-0.8c0.5,0.8,1.5,1.2,2.4,1c1.3-0.3,2.1-1.5,1.9-2.8c-0.3-1.3-1.5-2.1-2.8-1.9
				c-0.1,0-0.3,0.1-0.4,0.2c0-0.1,0-0.2,0-0.2c-0.1-0.6-0.4-1.1-0.9-1.4l0.4-0.6C115.5,74.1,114.5,65.9,126.3,65.2z M117,81.3
				c0,0.9-0.7,1.6-1.6,1.6c-0.9,0-1.6-0.7-1.6-1.6c0-0.9,0.7-1.6,1.6-1.6C116.3,79.7,117,80.4,117,81.3z M113,78.3
				c-0.8-0.2-1.5-0.9-1.5-1.8c0-1,0.8-1.9,1.9-1.9c1,0,1.9,0.8,1.9,1.9c0,0.2,0,0.5-0.1,0.7c-0.2,0-0.4,0-0.6,0
				C113.9,77.3,113.4,77.7,113,78.3z M114.7,67.4c0.6,0,1.2,0.5,1.2,1.2c0,0.6-0.5,1.2-1.2,1.2c-0.6,0-1.2-0.5-1.2-1.2
				C113.5,68,114.1,67.4,114.7,67.4z M113.2,70.6c0.8,0,1.4,0.6,1.4,1.4c0,0.8-0.6,1.4-1.4,1.4c-0.8,0-1.4-0.6-1.4-1.4
				C111.8,71.2,112.4,70.6,113.2,70.6z M111,67.8c0.3,0,0.6,0.3,0.6,0.6c0,0.3-0.3,0.6-0.6,0.6c-0.3,0-0.6-0.3-0.6-0.6
				C110.4,68,110.7,67.8,111,67.8z M107.7,69.1c0.4,0,0.7,0.3,0.7,0.7c0,0.4-0.3,0.7-0.7,0.7c-0.4,0-0.7-0.3-0.7-0.7
				C107,69.5,107.3,69.1,107.7,69.1z M112.9,69.6c0,0.1,0.1,0.1,0.1,0.2c-1.2,0.1-2.1,1.1-2.1,2.3c0,0.9,0.5,1.6,1.2,2
				c-0.8,0.5-1.4,1.4-1.4,2.4c0,1.3,0.9,2.3,2,2.7c0,0.3,0,0.6,0,0.8c0,0,0,0.1,0.1,0.2c-0.1,0-0.3,0-0.4,0
				c-1.3,0.3-2.1,1.5-1.9,2.8c0.3,1.3,1.5,2.1,2.8,1.9c1-0.2,1.7-1,1.9-1.9c0.1,0.2,0.2,0.7,0.2,0.8c0.3,1.3-0.6,2.6-1.9,2.9
				c-1.2,0.2-2.5-0.1-3.3-0.9c-0.3,1.1-1.2,2.1-2.3,2.6c-1.2,0.5-2.5-0.1-3.1-1.2c0.1-0.1,0.3-0.3,0.4-0.4c2,0.7,3-0.8,3.1-1.2
				c0.7-1.7-0.4-3.5-2.2-3.5c-0.6,0-1.1,0.2-1.5,0.5c0,0-0.1,0.1-0.1,0.1c0-0.1-0.1-0.9-1.3-1.5c0.1-0.3,0.2-0.6,0.2-1.1
				c0.1-1.4-0.1-1.9,0.9-4.1C105.4,73.5,108,71.1,112.9,69.6z M104.7,71.1c0.5,0,0.9,0.4,0.9,0.9c0,0.5-0.4,0.9-0.9,0.9
				c-0.5,0-0.9-0.4-0.9-0.9C103.7,71.5,104.2,71.1,104.7,71.1z M100.9,75.4c0-0.7,0.6-1.3,1.3-1.3c0.7,0,1.3,0.6,1.3,1.3
				c0,0.7-0.6,1.3-1.3,1.3C101.4,76.6,100.9,76.1,100.9,75.4z M100.8,78.3c0.9,0,1.7,0.8,1.7,1.7c0,0.3-0.1,0.6-0.2,0.8
				c-0.1,0-0.1,0-0.2,0c-0.7,0-1.4,0.3-1.8,0.9c-0.5-0.3-1.1-1.1-1.1-1.7C99.1,79.1,99.8,78.3,100.8,78.3z"/>
			<path class="st0" d="M145.4,96.7c0.2,0,0.4-0.1,0.5-0.4c0.1-0.3,0-0.6-0.3-0.7c-5.6-2.1-11.4-3.1-17.4-3.1h-0.4
				c-6,0-11.9,1-17.4,3.1c-0.3,0.1-0.4,0.4-0.3,0.7c0.1,0.3,0.4,0.4,0.7,0.3c5.4-2,11.2-3,17.1-3h0.4c5.9,0,11.6,1,17.1,3
				C145.3,96.7,145.4,96.7,145.4,96.7z"/>
			<path class="st0" d="M148.8,93.4l-0.8-2.2l-0.1-0.3l-1,0.2c-5.7-2.2-11.7-3.3-17.8-3.5l-1-0.6l-1,0.6c-6.1,0.1-12.1,1.3-17.8,3.5
				l-1-0.2l-0.1,0.3l-0.8,2.2l2.3,1.3l0.7-0.9c5.3-2,10.8-3.1,16.5-3.2l1.2,0.7l1.2-0.7c5.7,0.1,11.2,1.2,16.5,3.2l0.7,0.9
				L148.8,93.4z M109.3,93.6c-0.3-0.2-0.7-0.4-1.1-0.6c0.1-0.4,0.3-0.8,0.4-1.1c0.4,0.1,1.2,0.2,1.9,0.3
				C110.1,92.7,109.6,93.3,109.3,93.6z M119.1,90.9l-1.9,0.4c-0.5,0.1-1-0.2-1.1-0.7c-0.1-0.5,0.2-1,0.7-1.1l1.9-0.4
				c0.5-0.1,1,0.2,1.1,0.7C120,90.2,119.6,90.7,119.1,90.9z M128,90.3l-2-1.1l2-1.1l2,1.1L128,90.3z M139.9,90.5
				c-0.1,0.5-0.6,0.8-1.1,0.7l-1.9-0.4c-0.5-0.1-0.8-0.6-0.7-1.1c0.1-0.5,0.6-0.8,1.1-0.7l1.9,0.4C139.6,89.5,140,90,139.9,90.5z
				 M145.5,92.2c0.7-0.1,1.5-0.2,1.9-0.3c0.1,0.3,0.3,0.8,0.4,1.1c-0.3,0.2-0.8,0.4-1.1,0.6C146.4,93.3,145.9,92.7,145.5,92.2z"/>
		</g>
	</g>
</g>
</svg>
