<?xml version="1.0" encoding="utf-8"?>
<!-- Generator: Adobe Illustrator 26.3.1, SVG Export Plug-In . SVG Version: 6.00 Build 0)  -->
<svg version="1.1" id="affiliation" xmlns="http://www.w3.org/2000/svg" xmlns:xlink="http://www.w3.org/1999/xlink" x="0px"
	 y="0px" viewBox="0 0 256 256" style="enable-background:new 0 0 256 256;" xml:space="preserve">
<style type="text/css">
	.st0{fill:#FFFFFF;}
	.st1{display:none;fill:#FFFFFF;}
	.st2{fill:#003B4A;}
</style>
<rect id="black" width="256" height="256"/>
<circle id="background_x5F_circle" class="st0" cx="128" cy="128" r="128"/>
<path id="background_x5F_rectangle" class="st1" d="M206.9,256H49.1C22.1,256,0,233.9,0,206.9V49.1C0,22.1,22.1,0,49.1,0H207
	c27,0,49.1,22.1,49.1,49.1V207C256,233.9,233.9,256,206.9,256z"/>
<g id="logo">
	<g>
		<path class="st2" d="M118.1,207.1c-0.1,0.3-0.2,0.9-0.5,1.3c1.2,2,4.9-0.3,6.2-1.1c2,0,4.1,1.2,6.4,2c0.2-0.1,0.5-0.7,0.6-1
			C125.9,204.4,123.9,206,118.1,207.1 M96.8,201.9c0.2,0.4,0.4,0.8,0.6,1.2c1.7,0,2.7-0.1,4.6-0.7c0.1,0.1,0.1,0.1,0.2,0.2
			c4.8,0,5.5,1.2,10.2,2.5c3.8,0.8,8.1-1.6,12-1.9c4.7,1.8,5.9,2.8,11.6,3.4c3.6-0.1,5.8-0.5,9.2-2.4c3.8-1.8,5,1.1,10,0.2
			c0.2-0.3,0.3-0.6,0.5-1c-3.3-1.2-10.1-4.5-12.2-0.5c-4,2-8.7,2.1-12.8,1.2c-2.4-1.1-4-3.1-6.4-3.1c-3.7,1-10.1,4-13.4,1.2
			C103.6,198.6,104.6,199.2,96.8,201.9 M78.9,195.7c8.7-1.4,5.3-3.2,13.1,2.6c5.2,2.6,7.3-0.3,12.8-1.4c4,3.4,8.9,4.4,14.2,4.1
			c7.6-4.6,5-4.1,11.8,1.1c0.7,0.3,1.7,0.3,2.5,0.9c5.1,0,7.3-0.4,11.7-3.5c4.7-2.2,9.6,2.9,16.3,0.1c5.4-2.5,7.9-1.9,13.9-2
			c0-0.5-0.1-1-0.1-1.4c-9.3-1.6-8.3-3.2-15.4,1.8c-6.4,2.8-10.3-3.2-15.6-0.8c-10.4,7.7-10.4,0.2-19.9-1.7c-6.5,3.1-8,4.5-14.9,1.5
			c-1.3-0.9-3.6-2.9-4.7-3.1c-7.7,3.1-9,5.6-15.7,0.3C86,192.1,79.6,190.9,78.9,195.7 M87.2,186.3c-4.8,0.6-9.5,1.9-13.6,4.2
			c0,0.3,0.3,0.6,0.6,1c2.7-0.5,9.5-3.2,11.9-2.7c2.3,2.6,4,4.1,7,6.3c6,2.2,8.4-4.2,12.7-4.2c9.2,9.8,8.5,5.5,19.5,0.9
			c0.1,0,7.9,5.8,11.8,6.1c4.3-0.3,6.9-4.2,11.1-4.2c8.5,3.6,9.8,3.1,17.6-1.9c4.6-1.3,9.9,2.5,15.8,0.5c-0.1-0.2-0.1-0.3-0.2-0.4
			c-5.6-0.6-11.3-2.8-16.6-2.6c-5.4,4.7-9,7.4-15.2,3c0-0.1,0.1-0.1,0.1-0.1c0,0-0.1-0.1-0.1-0.1c-0.1,0-0.3,0-0.3,0
			c-2.4-2.6-2.8-1.5-5.3-0.2c-6.3,6-10.9,5-16.2-1.4c-6.3-4.7-9.9,9.5-18.7,1.4c-3.8-4.3-3.2-4.1-8.3-0.7
			C93.6,195.1,91.9,191.7,87.2,186.3 M154.2,165.8c-0.7-0.9-1.8-1.8-2.1-2.2c3.1,0,8.8,4.6,11,6c1.5,1,1.9,1.2,3.8,2.1
			c4.1,1.1,7.7,4.6,12.3,4.9c-2-0.1-6.8,3.5-8.7,3.5c-2.2-0.2-7.5-2.6-7.9-4C159.6,172,155.1,171.2,154.2,165.8 M170.3,181.8
			c3.3-0.6,7.1-2.8,9.8-5.2c-5.6-1.8-10.5-4.2-15.6-6.6c-3.3-2.6-9.7-7.2-13.6-7.2C153.1,170.1,163.7,179.9,170.3,181.8
			 M100.5,126.9c0.2,0,0.4,0,0.6,0.1C100.9,127,100.7,126.9,100.5,126.9 M101.1,127c0.5,0.3,0.8,1,0.4,2.3c-0.3,0.1-0.5,0.2-0.7,0.3
			c-1.5-0.2-1.8-1-1.6-2.2c0.5-0.3,0.9-0.5,1.3-0.5c-0.4,0-0.9,0-1.4,0.2c-0.4,1.5,0,2.5,1.5,2.8C102.4,129.4,102.6,127.5,101.1,127
			 M88.5,152.8c1.2-1.5,1.1-1.3,0.4-2.5c-0.4,0-0.8,0-1.2,0c-0.6,1.5-0.7,1.1,0.2,2.5H88.5z M81.3,156.2c0.1,1.2,0.2,1.3,1.1,2.5
			c0.3-0.2,0.6-0.3,0.9-0.5C83.3,156,83,155.5,81.3,156.2 M86.6,165.6c0,0.8,0.3,1.1,0.8,2c0.3-0.2,0.6-0.3,0.9-0.5
			C88.4,165.4,87.9,165,86.6,165.6 M85.2,170.2c-0.9-0.4-0.9-0.2-1.5,0c-0.1,1,0.3,1.4,0.9,2.4C86,172.1,85.5,171.6,85.2,170.2
			 M99.5,178.2c0.4,0,0.4,0,2.1-0.5l-1.6-1.8c-0.5,0-0.7,0.3-1.1,0.5v1.4C99.1,177.9,99.3,178,99.5,178.2 M108.5,173l-0.2,0.7
			c0.2,0.2,0.3,0.5,0.5,0.7c0.5,0,1.1,0,1.6,0.1c-0.1-1.1-0.1-1.1-0.5-1.7L108.5,173z M101.1,164.7h-1.8c0.1,1.5,0.1,1.5,0.2,1.8
			c0.3,0.1,0.3,0.1,1.2,0.2C102.1,166.8,101.3,165.4,101.1,164.7 M106.9,159.4c0,1.2,0.1,1.3,1.1,2.3c0.4,0,1.2-0.9,1.6-1.2
			C109.6,157.8,107.8,159.1,106.9,159.4 M124.7,168.8c-0.8,0-1.6-0.1-2.4-0.1c-0.1,0.4-0.1,0.7-0.1,1.4l1.1,0.3
			C124.5,170.5,125,169.9,124.7,168.8 M135.8,174.7c-0.5,0.1-1,0.3-1.4,0.5c-0.1,0.4-0.2,0.8-0.2,1.3c0.3,0.3,0.6,0.6,1,1
			C137.3,177.2,136.5,175.8,135.8,174.7 M129.7,161.4c-0.2,0.4-0.4,0.9-0.5,1.4c0.5,0.3,1,0.7,1.5,1.1c0.4,0,1.2-0.5,1.8-0.7
			c0-0.5-0.9-1.6-0.9-1.7L129.7,161.4z M161.6,129.6c0.5,0.1,1.1,0.2,1.6,0.4c0,0.4-0.2,0.8-0.5,1.4h-0.2l-1.4-1L161.6,129.6z
			 M163.3,129.8l-1.9-0.5l-0.7,1.1c0.6,0.4,1.2,0.8,1.8,1.3h0.2C163.3,130.9,163.3,130.6,163.3,129.8 M163.8,129.6
			c-0.1,1.1-0.3,1.5-0.9,2.4l-1.8-0.1C159.5,129,161.3,128.5,163.8,129.6 M160.9,128.8c-1.2,1.9-1.3,1.7,0.3,3.6
			c0.6-0.1,1.2,0,1.8,0c0.7-1.1,1-1.7,0.9-3.1C162.5,128.6,162.3,128.7,160.9,128.8 M167.6,158.8c0.2-0.5,0.3-0.9,0.5-1.4
			c-1.2-1.8-1-0.8-2.8,0.3c0.3,0.3,0.6,0.7,0.9,1.1H167.6z M173.6,163c0.7-1.5,0.5-1.2-0.2-2.2H172c-0.3,0.4-0.5,0.8-0.7,1.3
			c0.3,0.3,0.6,0.7,0.9,1.1C172.7,163.1,173.2,163.1,173.6,163 M177.3,167.1c0.3-1.1,0-1.1-0.5-1.7c-1.2,0.1-1.4,1-1.8,1
			c0.4,0.4,0.7,0.8,1,1.2C176.5,167.5,176.9,167.3,177.3,167.1 M147.5,181.2c0,0.7,0.7,1.2,1.6,1.4c0.4-0.1,0.8-0.1,1.2-0.1
			c0.1-0.5,0.1-1,0.1-1.1C149.3,180.8,148.4,180.7,147.5,181.2 M123.1,180.3c-0.4,0.4-0.7,0.9-1.1,1.3c0.4,0.3,0.8,0.7,1.2,1.1
			c0.2,0,0.2,0,1.6-0.6c0.1-0.5-0.2-1.2-0.2-1.2L123.1,180.3z M87.3,178c0,0.9,0.2,1.4,0.8,2.4c0.3-0.2,0.6-0.4,0.9-0.5
			C89,177.7,88.7,177.4,87.3,178 M73.5,118.3c-1.3-0.3-0.2-1.1-1.6,0.1c0.2,0.3,0.5,0.5,0.7,0.8C72.8,119.2,73.4,118.5,73.5,118.3
			 M78.6,123.1c1.3-1.4,2.6-2.6,2.2-4.5c-1.2,0.6-1.8,3-2.2,4.4C78.5,123,78.5,123,78.6,123.1 M102.4,133.9c0,5.9,1.1,11.9,1.9,18
			c0.3,0.1,0.6,0.3,0.9,0.5c0.1,0,0.1,0,0.2,0c-0.5-6.3-0.9-12.7-2.4-18.6C102.8,133.7,102.5,133.8,102.4,133.9 M101.1,134.1
			c0.1,5.5-0.2,11.3,0.5,17c0.4,0,0.8-0.1,1.2-0.1c-0.3-5.7-0.7-11.3-1-16.9H101.1z M99.1,134.2c-1.5,2.1-1.5,9.2-1.5,11.8
			c0,0,0.1,0,0.1,0c0,2.1-1.2,2.8,1.2,4c0.1,0,0.2,0,0.3,0c0.5-5,1.2-10.5,0.8-15.3C99.7,134.6,99.4,134.4,99.1,134.2 M95.5,117.6
			c-3.2-4.8-3.6-5.3-3.7-10.6c-4.1,3.2,1.5,10.4,2.8,14.7c0,0,0,0.1,0,0.1C95.6,121.4,95.5,118.3,95.5,117.6 M95.3,109.4
			c1.3,0,3.7-2.4,5.3-3.2c-0.2-0.3-0.4-0.6-0.5-1C97.8,104.9,96.1,107.5,95.3,109.4 M102.6,109.6c-0.5-0.3-0.8-0.1-1.1-0.1
			c-0.2-0.6-0.4-1.2-0.6-1.8c-1.7-0.6-3.2,1.4-3.2,3.1c0.3-0.3,0.6-0.5,0.9-0.8c0.3,0.2,0.5,0.4,0.8,0.7c0,0.3-0.5,0.8-0.7,1.1
			c0.3,0.1,0.6,0.3,0.9,0.4C100.8,111.5,101.6,110.8,102.6,109.6 M117.5,55.2c0-4.3-6.4-0.3-1.7,1.6C116.8,56.7,117.1,56,117.5,55.2
			 M129.9,55c0.5,1.1,0.4,1.3,1.8,1.8C135.9,55.7,131.6,50.6,129.9,55 M125.9,47.8c-1.1-2.1-2.6-2.2-3.6,0c0.5,1.1,0.3,1.1,1.8,1.6
			C125.1,49.1,125.4,48.9,125.9,47.8 M125.9,62c-2.1-4.2-5.7,0.4-1.8,1.8C125.2,63.4,125.3,63.3,125.9,62 M154.2,119.1
			c-0.3,0.4-0.5,0.8-0.7,1.3l-2.1-0.1l-0.2,0.4l0.7,0.6c1.1-0.1,2.3-0.1,3.5-0.1l-0.9-2H154.2z M159.7,116c-0.2,0.3-0.4,0.5-0.4,1.1
			c1.2,0,2.4-0.1,3.6-0.1C161.8,116.7,160.7,116.3,159.7,116 M157.5,112.5c0,0.3-0.1,0.6-0.1,0.9c1.4-0.1,1.7-1,2.5,0.5
			c-0.3,0.3-0.6,0.5-1,0.9c0.1,0.2,0.3,0.5,0.4,0.8c1.1,0,2.1,0,3.3,0.1v-0.8l-0.8-0.1c-0.5-0.9-0.2-1.2,0-1.8
			c0.4,0,0.8-0.1,1.2-0.1v-0.7C160.2,111.5,159.9,111.6,157.5,112.5 M157.6,109.9v0.9c2.5,0,5.1-0.1,7.6-0.1
			C162.2,108.7,160.6,109.3,157.6,109.9 M178.4,151c-0.2-0.3-0.3-0.6-0.5-0.9c-1.4,0.2-1.5,0.2-2,1.6c0.2,0.2,0.3,0.5,0.5,0.8
			C177,152.5,178,151.6,178.4,151 M177.7,123.2c0.3,0,0.6,0,0.9,0c-0.2-1.6-2.9-3.8-3.9-3.8C175.7,120.6,176.8,121.7,177.7,123.2
			 M193,117.6c0.5,6.6-8,8.2-10.6,13.4c1.2,0,7.6-3.1,7.9-2.8c-3.1,2.5-7.1,6.4-10.9,6.9c-0.5-0.5-1-1-1.4-1.5
			c-1,0.7-3.4,8.7-3.4,10.2l1-0.1c0.7-2.3,1.4-4.7,2.1-7c0.8,0.1,1.6,0.2,2.4,0.3c0.6,4.4-0.1,10.2-0.4,15c-0.6,0.5-3.5,2.9-4,2.7
			c-0.7-1.2-1.3-2.4-2-3.6c1.4-1.3,3-2.8,4.3-4.3c-1.9-2-8.7,6.3-10.6,4.2c2.5-5.7,6.9-19,10.9-24.4c-0.6-3.3-5.2-7-4.2-8.9
			c1.6,0.9,4.9,4,6.6,3.9c0.9-1.9,1.5-3.4,3.3-4.4c0.3,0.2,0.6,0.3,1,0.5l0.2,1.7c-2.9,1.5-3.8,3.4-4.6,6.9c3.6,2.4,6.2-6.1,6.7-6.1
			c0.5,0.4,0.6,0.6,1.5,0.4c0.4-1.6-0.7-2,0.4-3.1l1,0.2c0,0.5,0,1,0,1.5c1-0.7,1.4-1.1,2.1-2.2C192.5,117.4,192.8,117.5,193,117.6
			 M185.1,123.2v-0.9c-0.4-0.2-0.7-0.4-1.1-0.6v-0.4c0.4-0.1,0.8,0.1,1.5,0.4c-0.3,2.5-1.2,2.7-3.1,3.5c-0.1-0.1-0.2-0.1-0.4-0.2
			C184.1,120.3,182.6,124.5,185.1,123.2 M181.3,117.8c-0.1,0-0.1,0-0.2,0c-0.7-0.9-1.1-1.7-1.4-2.4c0,0,0.1,0,0.1,0
			C180.1,115.7,181.6,116.9,181.3,117.8 M173.6,110.7c-1.4,2-2.8,11.4-6.6,11.4h-0.1c0-10.8,2.1-14.3-8.5-15.7
			c-0.3-0.4-0.5-0.9-0.5-1.1c4.2-2.7,17.3-1.1,22,0.5C177.7,107.5,175.6,109,173.6,110.7 M158,107.5c8.4,1.1,8.3,2.6,8,11.5
			c-0.5,4.2-2.9,6.3-6.5,6.9l-1.9-0.3c0-0.6,0-1.2,0-1.8c0.5-0.2,1-0.5,1.5-0.7c0-1.5-1.3-1.1-1.3-1.6c1.3-1.4,3.3,1.2,2.9-1.6h-3.1
			c0-1.7,0.9-1.2,0.7-2.5c-1.6-0.1-3.1-0.2-4.7-0.2C153.5,112.9,155.7,110.9,158,107.5 M152.2,117.8c-0.5,0.1-1,0.2-1.5,0.4
			c-0.1-0.2-0.3-0.3-0.4-0.5c0.3-0.2,0.7-0.5,1.1-0.7C151.7,117.3,151.9,117.6,152.2,117.8 M156,126.4c-0.2-0.2-0.4-0.3-0.5-0.5
			c0.2-0.5,0.2-0.5,0.8-0.3c0,0.2,0,0.4,0.1,0.6C156.1,126.4,156.2,126.4,156,126.4 M149.9,119c1.8,0,3.5-1.2,5.5-0.1
			c-0.3,1.9,0.7,3.8,0.1,6c-0.8,0-1.4-0.6-1.8-1v-0.2c0.6-0.5,0.7-0.6,1.7-0.6c-0.1-0.3-0.3-0.5-0.4-0.8c-1.2-0.2-2.6-0.5-3.5,0
			c1.5,1.4,3.3,4.8,4.7,7c0.5,0,1,0,1.4,0l-1-0.9l1.3-1.4c0.1,0,0.3,0.1,0.7,0.5c-1,2.3-0.1,2.8-2.3,4.3c-0.1,1.2-0.9,9.1-2.1,7.9
			c-2.2-2.9-3.9-6.3-6.6-2.8l-0.3-0.4c0.9-0.7,1.8-1.4,2.7-2.1c-0.3-0.3-0.7-0.6-1-0.8l0.9-0.6c-1.1-4.9-1.5-8.8-4.4-12.4
			c-0.9-0.7-4.8-3.4-5-3.9c0.6,0,1.8,0.5,2.8,0.5c-1.9-7.3-7.1-14.3-8.2-20.7c3.9,2.9,6.5,13,11,15.9c0,0.2-0.1,0.5-0.1,0.7
			C147.9,114.1,148.3,116.7,149.9,119 M148.5,114.4c-0.1-0.1-0.2-0.2-0.3-0.3c1.1-0.4,1.2-0.6,2.7,0
			C150.3,114.7,149.1,114.4,148.5,114.4 M149.7,113.1c-1.4-0.2-2.1-0.5-2.8-1C149.9,111.3,149.7,113.2,149.7,113.1 M148.3,110.6
			c-2.1,0.6-2.1,0.6-2.5,0.6c-0.1-0.1-0.3-0.3-0.4-0.4c0.7-0.2,1.8-0.9,2.9-0.8C148.2,110.2,148.2,110.4,148.3,110.6 M147.2,109.4
			c-0.6,0.3-0.6,0.3-0.9,0.3c-1.6-0.5-1.6-0.5-1.7-0.7C145,108.6,147.6,107.9,147.2,109.4 M145.9,107.2c0,1.3-1.7,0.9-1.1,0.9
			c-0.2,0-0.9,0.2-1.1,0.1l1.2-1.1C145.3,107,145.5,107.1,145.9,107.2 M143.1,107.6l-0.9-0.9C144.9,105.1,145.9,106.3,143.1,107.6
			 M144.5,105.1c-0.5,0.1-1.1,0.3-1.6,0.4c-0.5-0.2-1-0.4-1.5-0.5c0.1-0.3,0.2-0.5,0.4-0.7C142.9,104.2,143.1,104.1,144.5,105.1
			 M143.4,103.8c-0.4,0-0.9,0-1.3,0c-0.3-0.3-0.6-0.5-0.9-0.7c1.1-0.7,0.9-0.9,2.1,0.1C143.4,103.3,143.4,103.6,143.4,103.8
			 M141.9,100.5c0,0.2-0.3,1.6-0.6,1.5c-0.8-0.3-1.2-0.7-1.4-0.9C140,100.9,141.2,100.3,141.9,100.5 M139.9,100.1
			c-0.5-0.3-1-0.5-1.5-0.8C138.4,95.2,142,101.2,139.9,100.1 M139.7,97.1c-0.4,0.3-0.4,0.3-1.8,0.8c-0.3-0.2-0.6-0.4-1-0.5
			C137.7,97.1,138.4,97,139.7,97.1 M138.8,96.3h-2.5l0.1-0.7c0.8,0,1.6-0.1,2.4-0.1V96.3z M137.7,93.7c0,0.2-0.1,0.5-0.1,0.8
			c-0.8,0-1.5,0.1-2.2,0.2c-0.2-0.2-0.4-0.4-0.5-0.6C135.6,93.2,136.4,93.3,137.7,93.7 M136.5,92c-0.8,0.3-2,0.9-2.4,0.9
			c-0.2-0.3-0.3-0.6-0.4-0.8C134.8,91.7,135.3,91.4,136.5,92 M135.6,90.2c-1.7,1-1.7,1-1.9,1c-0.7-0.6-0.6-0.6-0.2-1.2
			c0.7,0,1.3,0,2,0.1C135.5,90.1,135.6,90.1,135.6,90.2 M134,88.5c-0.5,0.3-0.8,0.7-1.3,0.7c-0.5,0-0.7-0.7-0.7-0.8
			c0.7-0.4,0.9-0.7,1.9-0.4C134,88.1,134,88.3,134,88.5 M132.7,86.7c-0.4,0.3-0.8,0.7-1.2,0.7c-0.3-0.2-0.6-0.4-0.9-0.5
			c0.2-0.3,0.4-0.7,0.6-1C131.5,86,132.1,86.3,132.7,86.7 M132,85.3l-0.1,0.3c-0.9,0-1.7,0-2.6,0l-0.3-0.4
			C130.1,84.7,130.3,84.6,132,85.3 M130.8,83.4c0,0.1-0.1,0.3-0.1,0.5c-0.5,0-0.9,0.1-1.4,0.2l-1.5-1.1
			C127.8,82,130.6,83.3,130.8,83.4 M129.6,82.2c-0.1,0-0.2,0.1-0.2,0.1c-0.6-0.2-1.1-0.4-1.6-0.6c0.1-0.2,0.2-0.3,0.3-0.4
			c0.5,0.2,1,0.3,1.5,0.6V82.2z M128.5,81c-1.1-0.4-1.7-0.9-1.6-1.5c0.5-0.1,0.8,0.1,1.5,0.4C128,80.4,128.6,81,128.5,81
			 M127.4,78.8c-0.3-0.1-0.5-0.1-0.8-0.1c0.1-0.2,0.2-0.4,0.3-0.6C127.2,78.1,127.7,78.9,127.4,78.8 M127.4,75.2
			c0,0.7,0,0.9-0.5,1.6c-2.1,0-4.2,0-6.3,0c-0.2-0.9-0.1-1,0.1-1.5C122.3,75.1,125.9,74.4,127.4,75.2 M124.5,67.8
			c-0.4-0.2-0.8-0.3-1.2-0.4C123,65,126.3,66.9,124.5,67.8 M125.3,73.1l-1.9,0.5c-0.1-0.2-0.2-0.4-0.3-0.5
			C123.3,72.9,125.7,71.8,125.3,73.1 M125.1,69.3c0.1,0.2,0.2,0.4,0.4,0.7c-0.3,0.3-0.6,0.6-0.9,0.6C122,70.4,123,69.1,125.1,69.3
			 M125.9,64.6c-0.7,0.3-1.3,0.5-2,0.8c-3.5-0.6-3.8-4.5-0.9-5.8c0-1.2,0-2.3,0-3.5c-1.6,0-3.2,0-4.8,0c-1.8,4.4-9.6-2.7-2-4.3
			c1.4,0.6,1.5,0.3,2.2,2c1.5,0,3,0,4.6,0c0-1.4-0.1-2.7-0.1-4.1c-6.7-2.7,6.6-9.8,3.2-0.3l-0.9,0.4c0,1.3,0,2.7,0,4
			c1.3,0,2.6,0,3.9,0c0.8-2.5,2.6-2.1,4.6-1.3c1.8,4.8-2.8,6.7-4.4,3.6c-1.4,0-2.7,0-4,0c0,1.2,0,2.4,0,3.6
			C127.3,60.6,126.5,63,125.9,64.6 M122.1,69.2c0,0.5-0.1,3.2-0.6,2.7c-0.7-0.3-1.5-0.6-2.2-0.9c0-0.2-0.1-0.5-0.1-0.7
			c0.8-0.5,1.5-1.1,2.3-1.6C121.7,68.9,121.9,69,122.1,69.2 M119.9,68.4c-0.7,0.5-3.1,1.9-3.2,1.8c-1.1-0.6-2.3-1.3-3.4-1.9
			c0.6-0.6,5.3-0.2,6.6-0.2V68.4z M112.8,69.5c0.7,0.5,1.4,1,2.1,1.5v0.8c-0.7,0.5-1.4,1.1-2.1,1.7l-0.5-0.3
			C112.3,71.9,111.9,70.1,112.8,69.5 M111.6,68.3c-0.1,0.2-0.3,0.5-0.4,0.8l-2.2,0.1c-0.1,0.1-0.1,0.2-0.1,0.3
			c-1.5-0.5-2.6,0.8-4,0.8c-2.1-0.1-2.1-0.1-2.4-0.2C103.2,68.4,109.8,67.1,111.6,68.3 M102.5,72.5c0.8-1.1,6.3-1.8,7.9-2l0.9,1
			c-2.8,1.3-5.8,1.3-8.5,1.4C102.7,72.8,102.6,72.7,102.5,72.5 M103.3,75.3c1-0.6,6.8-1.8,7.6-0.6c-2.5,0.5-4.9,1-7.2,1.2
			C103.5,75.6,103.4,75.4,103.3,75.3 M114.4,74.5c1.2-1.6,4.2-2.7,5.7-0.4C115,74.5,115,74.5,114.4,74.5 M118.8,78.5
			c0.1,0.3,0.3,0.6,0.4,1.2c-0.1,0-0.2,0.1-0.2,0.1C118.3,79.3,118.6,78.9,118.8,78.5 M118.9,85c-0.3,0.2-0.3,0.2-0.3,0.1
			c-0.8-0.9-0.6-0.8-0.3-1.7C118.5,83.5,119,84.4,118.9,85 M117.8,82c-0.3-0.4-0.5-0.9-0.8-1.3C117.8,78.5,118.5,81.6,117.8,82
			 M116.9,86.5c0.4-1,0.5-0.8,1.4,0.1c0,0.2,0,0.2-0.3,0.6h-0.2C117.6,87,117.2,86.7,116.9,86.5 M116.5,84.2
			c-0.8-0.7-0.9-0.9-1.1-1.6c0.1-0.1,0.2-0.2,0.3-0.3c0.3,0,0.6,0.1,1,0.2C116.6,82.8,116.7,84.3,116.5,84.2 M114.8,84.3
			c0.3,0.3,0.6,0.6,0.9,1c-0.1,0.4-0.1,0.8-0.1,1.3c-0.2,0-0.3,0-0.4,0c-0.9,0-0.6-1.5-0.7-1.9C114.5,84.5,114.6,84.4,114.8,84.3
			 M114.8,94.1c0.4,0.2,0.8,0.4,1.2,0.7c0,0.2,0,0.4,0,0.6c-0.1,0-0.2,0-0.3,0c-1.1-0.6-1.1-0.6-1.3-0.8
			C114.6,94.3,114.7,94.2,114.8,94.1 M114.3,95.8c0.4,0.5,1.4,1.4,1.4,2.5c-0.1,0-0.3,0-0.4,0.1c-0.8-0.2-1.3-0.9-1.7-1.3
			c0.2-0.5,0.4-0.9,0.6-1.3H114.3z M113.5,98.5c0.3,0,0.5,0.1,0.8,0.1c0.2,0.3,0,1.8-0.4,1.4c-0.4-0.5-0.7-0.9-0.7-1.2
			C113.3,98.8,113.4,98.6,113.5,98.5 M113.9,103.1c-0.6-0.5-1.1-0.9-1.7-1.3C114.4,99,115.1,102.7,113.9,103.1 M112,103.8
			c0.1-0.3,0.3-0.6,0.4-0.9c0.4,0,1.8,1.1,1,1.9C112.9,104.5,112.4,104.1,112,103.8 M111.1,105c0.3-0.1,0.7-0.1,1.1-0.1
			c0.2,0.2,1.9,1.7,0.6,2.4C111.3,106.4,111.5,106,111.1,105 M111.9,109.4l-1.4-1.8C111.7,105.3,112.2,109.8,111.9,109.4
			 M110.4,109.6l1.7,1.2c0,0,0,0.6-0.2,0.5c-0.7-0.3-1.3-0.6-1.9-0.8c0-0.2,0-0.3,0-0.5C110.1,109.9,110.3,109.7,110.4,109.6
			 M110.1,111.6c0.5,0.2,0.8,0.2,1,1.3c-0.4,0.6-0.4,0.6-0.5,0.6c-0.3-0.3-0.7-0.5-1-0.8C109.6,111.8,109.7,112.1,110.1,111.6
			 M109,114.2c0.7,0.2,1,0.5,1.6,1.5c-0.1,0.1-0.2,0.3-0.4,0.3C109.7,115.4,108.8,114.8,109,114.2 M108.8,116.3
			c0.3,0.2,1.7,1,1.1,1.9C109,117.5,108.4,117.2,108.8,116.3 M108.1,118.7c0.4,0.1,0.7,0.1,1.2,0.9c-0.1,0.2-0.3,0.4-0.4,0.6h-0.4
			c-0.2-0.2-0.4-0.4-0.6-0.6C108,119.2,108.1,119,108.1,118.7 M107.8,122.9c-0.3-0.4-0.6-0.9-1-1.3
			C107.7,119.4,108.6,123.2,107.8,122.9 M106.8,117.9c-1.1,1.1-2.8,2.6-4.4,2.2c-1.3-0.9-1.3-0.9-1.5-0.9c0.9,1.7,2.8,4.2-0.5,4.7
			c-2.6-0.7-1.6-4.4-2.5-6.1c-8.5-12.7,0.8-18.7,9.3-9c-0.7,1.5-3.7,1.9-4.1,2.6c0.7,0.5,1.5,1,2.2,1.5c0,0.3-1.9,2.7-2.2,3.1
			c1.9,0.9,0.8-1.6,3-0.9C104.9,117.5,106.8,116.5,106.8,117.9 M99.3,101.5c-7.2,5.1-7.2,4.9-5.2,13.4c2.5,2.9,3.1,2.8,2.2,7.1
			c-1,0.3-1.9,0.8-2.7,0.9c-0.5-0.4-1-0.8-1.6-1.2c-0.2-2.6-1.3-4.5-2.3-6.6c-0.1,0-0.2-0.1-0.3-0.1c-0.1-2.5-0.3-4.6-0.6-6.6
			c2.3-2.3,8.8-6.2,8.2-9.5C98.1,97.8,99.8,99.9,99.3,101.5 M96.8,126.7l-0.4,2.6c-1.4-0.7-2.8-1.4-4.1-2.1c0,0,0.5,1.4,0.5,1.5
			c1.3,2.2,7.1,4.7,9.9,3.6c0.7,0.5,1.2,1.4,1.9,2.4c0.2-0.2,0.4-0.3,0.6-0.4c1.3,1.8,0.1,13.7,2.5,18.9c0.5,0,1.2-0.3,1.9-0.5
			c-1.4-6.3-2.1-5.8,2.4-8.6c1.3,1.2-0.3,6.5-0.8,8.6c0.2,0.1,0.3,0.1,0.4,0.5c0.2,0,0.4,0,0.5,0c0.2-0.4,0.5-0.8,0.7-1.2
			c0.2,0,0.2,0,1.4,0.7l0.1,1.6c1.5-1,1.9-10.7,1.7-12.1c-0.6-0.3-1.2-0.5-1.8-0.8c0-0.4,0.1-0.8,0.2-1.2c0.6,0,1,0.7,1.5,1.5
			c0.2-0.1,0.4-0.1,0.6-0.2c1.3-3.7,0.6-8.9,1.2-12.6c1.2-1.3,1.6-2.1,2.3-3.5c0,0,0.1,0,0.1,0.1c-0.9,9.7-1.1,19.7-1.6,29.6h1.6
			l0.5-3.2c2.2,0,4.4,0,6.7,0.4l0.1,3.8c-0.2,0-0.3,0-0.5,0c-10.4-0.5-22.8-1.2-31.6-7.2c0-5.3,3.4-10.1,2.3-16c-0.4,0-0.7,0-1,0
			c-0.5,2.9-1.5,13.1-2.7,15.2c-0.4-0.1-0.9-0.2-1.3-0.3c-0.4-4.4,0.2-8.9-0.5-12.8c-2.8-5.8-5.6-11.7-8-17.3
			c-0.5-3.6-0.4-7.2-0.3-10.6c0.9-0.5,1-0.8,2.2-0.6c0.4,0.7,0.8,1.5,1.2,2.6C88.8,118.5,89.3,120.5,96.8,126.7 M86.8,101.7
			c-0.7-0.2-1.4-0.3-2.1-0.5C84,99.6,83,97.6,83,96.1c0.1-0.1,3.3-3.1,3.3-1.8c-1.4,1.4-2,3.5-0.6,5.7c0.3-0.2,0.6-0.4,0.9-0.6
			c-0.1-2.1,0.3-3.5,0.8-5.3c0-2.5-2.2-4.1-2.9-6c0.2-0.1,0.3-0.2,0.5-0.3c1.4,0.5,3.9,4.2,4.2,4.2c0.1-0.2,0.3-0.3,0.4-0.5
			c-1-3.7-1.7-6.9-2.1-10.3l0.4-0.5h0.2C90.9,86.3,90.9,96.4,86.8,101.7 M87.7,87.5c-1.6-0.4-2.6-6.4-2.8-7.7
			c0.1-0.2,0.3-0.3,0.4-0.5C86.8,80.5,88.1,85.6,87.7,87.5 M84,90.1c-0.8,1.7-1.5,2.9-3.3,3.7C80.8,92.3,82.3,89.7,84,90.1
			 M82.3,94.6c0.7-0.8,2.4-3,3.2-3.3c0.2,0.1,0.3,0.3,0.5,0.4c-0.4,0.4-3,3.2-3.3,3.2C82.5,94.8,82.4,94.7,82.3,94.6 M84,125.3
			c0,0.5-1.1,3.3-1.7,2.7c-1.6-1.7-1-6.2,0.5-7.7C83.6,121.2,86.3,124.2,84,125.3 M82.8,131.6h-0.2c-0.2-0.1-0.4-0.2-0.5-0.3
			c0.1-0.9,0.4-1.3,0.8-1.9h0.5C83.4,130.1,83.4,130.7,82.8,131.6 M82.5,115.6c-0.4,3.5-1.9,6.1-3.6,9.4l0.7,0.1
			c0.3,1.2,3.8,14,2.9,15.8c-1.9-0.8-2.9-1.9-4.6-2.1c0,4.3,7,4.9,8.4,7.9c-1,1.3-2.3,3.8-3.8,4.3c-10.5-5.7-9.5-6.7-7.9-17.6
			c1-0.9,1.5-0.8,3-1.1c0.4,0.8,0.8,1.6,1.3,2.5c0,0,0.1,0,0.1,0c0.9-1-0.6-3-0.9-3.7c-4.7-0.5-7-2.9-10.5-5.6
			c0-0.2-0.1-0.4-0.1-0.5l-2.8-0.5c0-0.3,0-0.5,0-0.7c1.7,0.5,3.4,0.9,5.2,1.4c0,0.2,0,0.3,0.1,0.5c0.6,0.1,3.1,1.2,4,1
			c-3.7-4.8-13-5.8-9.8-12.7c1.2-0.5,1,1.4,1.7,2.4c0.5-0.6,1.1-1.2,1.7-1.7c0.3,0.2,0.6,0.4,0.9,0.6c0,0.5,0.1,1,0.1,1.5
			c-0.2,0.1-0.4,0.2-0.6,0.3v0.7c2.3,0,2.2-2,3.2,1.5c0.9,1.8,2.8,2.8,4.7,4c0.9-0.3-0.4-5.9-0.6-6.5c-1-0.5-1.9-0.9-2.8-1.4
			c0-0.4,0.6-0.8,0.9-1.2c2,0.6,3.3,2.9,5.1,4.8c1.8-0.5,2.6-2.2,3.8-3.7C82.2,115.5,82.3,115.6,82.5,115.6 M77.7,116
			c-2.3-1.1,0.8-3.3,1.5-2.9C78.9,114.1,78.4,115.2,77.7,116 M73.8,117.9c0,2.9,0,2.9-0.1,2.8c-1.2-0.8-2.6-1.8-2.6-3.2
			C72.4,116.9,72,116.9,73.8,117.9 M73.3,155.7c2.4,2.2,10,5.8,11.2,8.4c-0.9,1.2-1,1.4-2.2,1.5C79.6,164.3,70.5,159.1,73.3,155.7
			 M74.3,163.2c0.1-0.1,0.3-0.2,0.4-0.3c2.2,2,3.7,3.1,6.6,4.6c-0.3,1.2-0.6,2.3-0.9,3.5c-0.1,0-0.1,0-0.1,0
			C75.9,168.7,74.5,168,74.3,163.2 M75.9,170.4c0.8,0,7.8,3.9,8.8,5.1c-0.3,0.7-1.9,3.9-2,3.8C79.8,177.1,73.8,174.6,75.9,170.4
			 M77.3,178c1.7,0,4.2,2.3,5.9,3.4c-0.7,0.9-2.8,2-3.7,2.3C77.2,182.2,77.5,180.5,77.3,178 M84.8,180.9c0.4-1.8,0.8-3,1.6-4.5
			c4,1.4,8.5,2.7,12.5,5.3c0.1,1,0.2,3.3-0.6,4.1C94.4,184.3,88.1,180.9,84.8,180.9 M99.4,185c0.3-1,0.7-2,1.1-2.9
			c6.7,0.6,13,2.9,19.9,3.6c0-2.2,0.2-4.5,0.5-6.5c4.5,0.1,21.1-1.5,22.5,1.4c0.3,1.2,0.6,2.6,0.6,4.1c-2.7,2.8-4.6,5.6-8.2,6.3
			c-0.9-0.6-5.3-3.8-4-4.9l4,0.5c0.4,1.4-0.1,2.8,0.6,4.1c0.9-0.9,1-2.7,1.2-3.9c1.3-0.2,2.4-0.3,4.1-0.2c-0.1-0.5-0.1-0.9-0.2-1.4
			c-7.1-0.9-14.5-3-20.7,0.6c-10.2,8.8-7.4-1-16.4-2.2C102.9,184.1,101,185,99.4,185 M145.4,183.9c0-1.4,0.1-2.7,0.2-4.1
			c2.9-1.8,6.2-1.5,9.8-1.6c0.2-0.4,0.5-0.9,0.7-1.3c0.2,0,4.3,4.1,5,4.8c-5.4,1.8-8.7,3-13.9,3.2
			C146.6,184.5,146,184.2,145.4,183.9 M151,186.4c2-1.4,4.1-0.8,6.6-1.4c2.3-0.9,4.4-2.6,6.8-1.1c-3.6,2.7-6,5.7-10.5,5.7
			C152,188.9,151.7,187.9,151,186.4 M179.9,169.1l-0.1,3.5c-0.1,0-0.2,0-0.3,0c-1.9-0.1-3-0.4-4.5-0.9
			C174.7,170.9,179.1,169,179.9,169.1 M175.3,169.3c-3.5-4.5,0.2-5.2,4-7.7c0.3,0,0.6,0.6,0.8,1.1
			C180.7,167.6,178.9,167.5,175.3,169.3 M179.6,154.5c0.3,1.4,0.9,2.7,0.6,4.5c-1.8,1.2-7.6,6.3-9,6.6c-0.9-1.6-1.5-3.1-2.1-4.5
			C170.5,160.3,178.9,154,179.6,154.5 M174.6,155.8c-2.8,2-6,4.9-9.3,5.4c-0.6-1.6-1.2-3.5-1.6-4.8
			C166.2,154.6,174.6,147.1,174.6,155.8 M171.8,136.2c-0.6,5.5-5.2,16.6-11.4,17.5c-1.3-0.2-2.5-0.3-3.7-0.5c0-5.5,5.7-4.4,8.8-8.9
			c1.2-3.5,2.1-6.9,3.6-10C170.3,134.2,170.6,134.9,171.8,136.2 M166.2,131.7c2.4,0,0.4,3.5-0.1,4.7h-0.4c-0.1,0-0.3-0.1-0.4-0.1
			C165.1,134,165.2,133.6,166.2,131.7 M163.3,134.4c2.3,1.3,1.9,6.3,0.5,8.8h-0.1c-0.8-2.2-0.6-6.2-0.8-8.3L163.3,134.4z
			 M159.4,131.6c0-2.7,1.3-4.3,3.9-4.1c1.1,1.5,1.4,2.6,1.6,5c-0.4,0.2-0.8,0.4-1.2,0.6C161.4,132.8,160.9,132.7,159.4,131.6
			 M161.5,134.8c0.8,3.4,0.5,7.8,0.7,11.2c-0.8,0.3-1.6,0.7-2.4,1.1l-0.4-0.3C159.6,143.5,159.5,137.3,161.5,134.8 M158.6,133.2
			c0.7,0.4,1.4,0.9,2.1,1.4c0,0-2.1,14.3-4.2,13.2c-1.4-1.5,5.3-12.2,2.8-13.8c-1.9,1.7-3.2,10.3-4.8,13.6c-0.5,0-0.4-0.1-0.5-0.2
			C154.7,143.7,155.7,135.2,158.6,133.2 M148.2,137.5c3.4-1.7,3.6,0.8,6.4,4.1c0,1.1-2.2,6.7-2.5,6.6c-1.2-0.9-0.6-1.4-0.3-2.3
			C150.6,143.6,148.2,140,148.2,137.5 M151.5,152.8h-0.2c-0.1-0.1-0.3-0.2-0.4-0.2c0-1.2,0.7-2.3,1-3.3c0.1,0.1,0.3,0.2,0.4,0.3
			C152.3,150.8,152,151.7,151.5,152.8 M153.2,152c-0.1,0-0.1,0-0.1,0c-0.9-1.3,0.3-2.2,0.8-3c0.2,0.1,0.4,0.2,0.6,0.3
			C154.6,149.6,153.5,151.5,153.2,152 M155.5,149.6L155.5,149.6c0.3,0.9-0.2,1.3-0.8,2.2l-0.3-0.5
			C154.8,150.6,155.2,150.1,155.5,149.6 M150.8,156.1c-0.4-0.3-1.1-0.5-1.1-1c0.1-2.2,5.1-0.5,7.5-0.2
			C154.6,155.3,151.1,156.1,150.8,156.1 M160.2,163.7c-3.1-1.8-4.8-3.2-7.1-5.7c2.7-1.2,5.2-0.9,8.2-0.8c0.4,0.7,2.5,4.1,2.2,5.2
			C162.6,162.7,160.8,163.7,160.2,163.7 M173.2,170.5H173c-1.7-0.6-2.7-1.2-3.8-2.1C169.2,166.2,176.4,166.3,173.2,170.5
			 M168.5,168.2c-0.1,0-0.2,0-0.2,0c-2.7-0.9-4-1.9-6-3.5c6.2-3.8,5.5-4.9,7,1.5C168.4,166.9,168.5,167,168.5,168.2 M150.2,152.1
			h-0.3c-3.9-0.8-4.4-2.5-6.5-5.6l-3.4-0.1c0-0.1-0.1-0.1-0.1-0.1c5.3-2.4,2,0.6,6.2,0.3c-0.6-0.8-1.1-1.5-1.7-2.2
			c-1.6,0.1-3.3,0.3-4.9,0.4c-0.2-0.2-0.3-0.3-0.5-0.4c2.4-0.7,3.3-1.2,6.2-1.2l1,1.3c0.3,0,0.7,0,1.1,0c-2.5-2.4-2.7-2.3-5.5-2.7
			v-0.3c0.9-0.7,3.5-0.4,5-0.4C148.9,145.3,150.8,146.9,150.2,152.1 M148.7,133.9c-1.3,1-2.3,1.5-3.4,2c0.7,1.2,1.5,2.5,2.2,3.8
			c-0.1,0.2-0.3,0.3-0.3,0.5c-2.5-0.1-3.6,0.4-5.5,0.7c0,0.9-1.8,2.1-2.6,2.3c0-4.6-1.3-8.6-1.9-12.7c2.4-2.6,6.4,2.4,8.3,4.3
			C146.5,134.3,147.3,134.1,148.7,133.9 M141.6,125.9c0,0,0.1,0,0.1,0c0,1.1-0.6,2.9-1.6,3.5c-0.2-0.1-0.3-0.3-0.4-0.4L141.6,125.9z
			 M138.9,126.5c0.2,0,0.4,0.1,0.8,0.3c-0.7,0.8-1.1,1.6-1.6,2.5c-0.1,0-0.2,0-0.3,0h-0.2C138,128.2,138.4,127.3,138.9,126.5
			 M148.2,132.3c-0.5,0.2-1,0.4-1.4,0.7c-2.9-0.7-3.5-1-5.1-3.7c0.4-0.9,0.8-1.8,1.2-2.6c0.2,0,0.4,0,0.6,0
			c-0.1,2.6-0.9,3.1,1.8,4.3c0.1-0.8-0.4-1.2-0.7-1.4c0.2-1.1,0.9-1.9,1.4-2.7c-1.3-1-1.7-1.7-2.9-2.4c-1.3,0.1-4.1,1.2-4.9,0.7
			c0-0.2,0-0.4,0-0.6c2-1.6,3.5-1.4,6.1-1.6c-1.3-3.2-4.2-3.8-6.7-5.1c0-0.2,0-0.2,0.1-0.5C145.4,119.3,147.4,123.7,148.2,132.3
			 M142.6,115.4c-0.1,0.2-0.1,0.2-0.9,0.6c-0.5-0.3-0.9-0.6-1.4-0.8c0.3-0.2,0.5-0.4,0.8-0.6C141.6,114.9,142.1,115.2,142.6,115.4
			 M141.4,113.4l0.1,0.5H139c0-0.2,0.1-0.3,0.1-0.4C139.9,113.4,140.7,113.4,141.4,113.4 M140.6,112.1c-0.4,0.1-0.8,0.2-1.1,0.4
			c-0.6-0.4-1.4-0.8-1.2-1.2C139.6,111.2,139.7,111,140.6,112.1 M140.3,109.9c0,0.1,0,0.3,0,0.4c-0.2,0.2-0.5,0.6-0.8,0.6
			c-0.9-0.1-1.4-0.2-1.6-0.7C138.6,109.9,139.2,109.4,140.3,109.9 M139.4,108.5c-0.1,0.2-0.3,0.4-0.4,0.6h-0.3
			c-0.8-0.3-1.5-0.6-2.2-0.8C137.1,107.6,138.4,108,139.4,108.5 M138.4,106.8l-0.4,0.3c-0.9-0.1-1.2-0.3-1.5-0.8
			c0.2-0.3,0.6-0.9,0.9-0.9C137.6,105.7,138.1,106.1,138.4,106.8 M137.4,104.7c-0.1,0.1-0.2,0.3-0.3,0.4h-0.4
			c-0.4-0.3-0.8-0.5-1.1-0.8C135.9,103.8,136.8,103.6,137.4,104.7 M136.9,102.7c-0.3,0.4-1.4,0.4-1.6,0.4l-1.3-0.6
			c0-0.3,0.1-0.5,0.1-0.7C135.1,102.1,136,102.4,136.9,102.7 M136.1,101.3l-2.5,0l-0.3-0.3C134.6,100.1,134.8,100,136.1,101.3
			 M135.2,98.8v0.4c-0.5,0.5-1.1,0.4-1.7,0.3l-0.6-1.3C133.6,98,134.4,98.3,135.2,98.8 M134.6,96.4c0,0.3-0.1,0.7-0.1,1
			c-0.2,0-0.4,0-0.6,0c-1.2-0.2-1.5,0.1-2.1-0.4c0.2-0.5,0.5-0.9,0.8-1.4C133.3,96.1,133.9,95.9,134.6,96.4 M133.7,94.9
			c0.1,0.2-0.6,0.2-0.8,0.2c-0.9-0.1-1.8-1-2.2-0.6C131.6,93.3,133,93.8,133.7,94.9 M132.9,92.5c0,0.1,0,0.2,0,0.4l-1.3,0.4
			c-2-0.3-1.8-0.8-0.6-1.7C131.5,92,131.8,92.3,132.9,92.5 M132.1,90.5c-0.4,0.3-0.7,0.7-1,0.7c-0.9-0.2-1-0.5-1.3-0.9
			C130.8,90,131.2,89.5,132.1,90.5 M131.8,89.1c-0.4,0.3-0.4,0.3-1,0.5c-1.6-0.4-3.4-0.6-1.4-1.3C130.4,88.6,131,88.8,131.8,89.1
			 M130.3,86.9c-0.2,0.2-0.4,0.5-0.6,0.7c-0.6-0.4-1.1-0.7-1.7-1.1C128.6,86.2,130,86.1,130.3,86.9 M127.4,84.1
			c0.5,0.2,1,0.5,1.5,0.7c0,0.2,0,0.5,0,0.7c-0.2,0-0.3,0-0.5,0C127.8,85.5,126.7,84.8,127.4,84.1 M126.6,84.5
			c0.3,0.4,1.2,1.6,0.3,2C126.6,85.6,126.1,85,126.6,84.5 M122.9,78.7c0.8-0.3,1.1-0.5,2.2-0.4c1.3,6.1,2.3,21.5,0.8,29.3
			c-0.7,0-1.4,0-2,0c-0.5-0.2-0.9-0.4-1.4-0.6C120.8,98.7,122.4,87.1,122.9,78.7 M120,83.4h0.9c0.4,0.5,1.3,1,0.6,1.8
			C120.4,84.6,120.4,84.2,120,83.4 M119.7,85.7c0.1-0.1,0.3-0.2,0.4-0.3c0.4,0.4,0.7,0.8,1.6,1.3c-0.1,0.2-0.2,0.4-0.3,0.5h-0.2
			C120.3,86.5,120,86.2,119.7,85.7 M119.4,82.5h-0.2c-0.1,0-0.1-0.1-0.2-0.1c0.1-0.3,0.2-0.5,0.3-0.8
			C119.8,81.6,119.7,82,119.4,82.5 M121.1,89.7c-0.1,0-0.3,0-0.4,0c-0.5-0.5-1.1-1-1.6-1.5C119.1,87.3,120.9,88.3,121.1,89.7
			 M118.7,90.8c0.5-0.6,0.7-0.2,1.7,0.3l0.2,1.6c-0.1,0-0.1,0-0.1,0.1C118.8,91,118.8,91,118.7,90.8 M118.6,92.7
			c0.2,0,1.1,0.8,1.6,1.2c0,0.3,0,0.7,0,1c-0.1,0-0.2,0-0.3,0C119.3,94.9,118.6,92.8,118.6,92.7 M120.9,150.6
			c-0.6-0.5-0.6-0.6-0.5-1c1.5-0.4,7.1-1.8,7.5,0.5C125.6,150.2,122.8,150.6,120.9,150.6 M130,98.6c-0.1,0.4-0.9,0.8-1,0.8
			c-0.4-0.3-0.9-0.6-1.3-0.8c0.2-0.3,0.4-0.6,0.6-0.9C128.9,98,129.5,98.3,130,98.6 M127.7,96.1c0.2-0.1,0.4-0.2,0.6-0.3
			c0.4,0.3,0.8,0.7,1.2,1.1c-0.2,0.1-0.3,0.3-0.5,0.5C128.2,97.3,127.5,96.9,127.7,96.1 M129.7,94.2c-0.2,0.3-1.2,0.4-1.5,0.4
			c-0.1-0.2-0.9-0.4-1-0.5c0.3-0.2,1.6-0.6,2.1-0.6L129.7,94.2z M129.4,91.6c-0.1,0.3-0.1,0.6-0.1,0.9c-0.2,0-0.3,0-0.5,0
			c-0.7-0.3-1.3-0.7-1.9-1c0.2-0.2,0.3-0.3,0.6-0.5C128.6,91,129.1,91.5,129.4,91.6 M127,112.6c0.3,10.9,1.2,22,0.8,33.1
			c-0.2,0.3-0.3,0.7-0.4,1c-1.4,0.5-3.1,0.2-4.4,0.3c-0.7-0.2-1.4-0.4-2.1-0.6c0.3-11.4,0.7-22.9,1.1-34.3
			C123.8,112,124.8,112,127,112.6 M122.5,108.5c1.4,0.2,2.7,0.3,4.3,1.1c0,0.2,0,0.5,0,0.7c-0.8,0.1-1.6,0.2-2.4,0.3
			c-0.7-0.1-1.3-0.1-2-0.2C121.7,109.3,122.1,109.3,122.5,108.5 M120.5,103.4c0.5,1,0.8,2.5,0,3.3c0,0-0.1-0.1-0.1-0.1
			C120.4,106.4,119.5,103.4,120.5,103.4 M117.7,100.9c0.1-0.3,0.3-0.6,0.5-0.8c0.6,0.3,1.2,0.6,1.9,0.9c0,0.3-0.2,1.5-0.3,1.5
			C119,101.9,118.3,101.4,117.7,100.9 M117.5,103.2c0.2-0.2,0.4-0.4,0.6-0.6c0.6,0.4,1.2,0.9,1.8,1.3c0,0.1-0.3,0.8-0.4,0.8
			C118.8,104.2,118.1,103.7,117.5,103.2 M118.4,106.7c-0.8-1.2-0.8-1.3-0.7-2.3c0.6,0.4,1.5,1.2,1.5,2.4
			C118.9,106.8,118.7,106.7,118.4,106.7 M117.3,106.3c0.6,0.6,3.2,3.9,1.3,2.9C118.1,108.9,115.6,106.3,117.3,106.3 M115.8,109.1
			c0.8-0.8,2.1,0.3,3.1,1.1c0,0.2-0.1,0.3-0.1,0.5c-0.2,0-0.4,0.1-0.6,0.1C116.9,110.6,116.4,109.7,115.8,109.1 M118.1,113.6
			c-1.4-0.7-2.2-1.4-1.3-2.5C117.1,111.3,119.6,112.6,118.1,113.6 M117.9,117.1c0,0,0,0.1,0,0.1c-0.2,0.1-0.4,0.3-0.6,0.5l-1.9-1.2
			c0-0.4,0-0.4,0.1-0.6C116.3,116.3,117.1,116.7,117.9,117.1 M115.6,113.8c0.6-0.7,1.9-0.2,2.7,0.6c-0.1,0.2-0.2,0.4-0.3,0.6h-1.1
			c-0.4-0.4-0.9-0.7-1.3-1V113.8z M127.6,88.5c-0.2-0.1-1-0.4-1-0.6c0.7-0.6,0.5-0.7,1.4,0.1C127.9,88.2,127.7,88.5,127.6,88.5
			 M128.8,90.3c-0.1-0.1-0.7,0.2-0.8,0.2c-0.3-0.1-1.2-0.5-1.4-0.6C126.8,89.6,127.6,89.2,128.8,90.3 M138.5,152.6
			c0.9,1.2,1.3,1.9,2,3.7c-2.1,0.6-3.8,0.8-5.9,0.8c-1.8-0.1-3.5-0.3-4.9-0.6l0.1-14.8c-0.3-5.8-3.8-40.7-2.2-42.3
			c0.3,0.8,2.2-0.1,2.6,1.1c-0.1,0.1-0.2,0.3-0.3,0.4c-1-0.5-1.4-0.4-2.3-0.4c0.6,6.1,2.8,11.5,3.2,18.2c0.2,1.6,1,2.2,0.7,4.5
			c0.2,0.2,0.3,0.5,0.5,0.7c-1.6,6.1,6.6,18.3,1.6,24.7c-0.8,0.7-1.6,1.4-2.4,2c0,1,0,2,0,3.1C135.2,155.2,134.6,153.2,138.5,152.6
			 M133.7,151.3c0,0.2,0.1,0.5,0.1,0.7c-0.7,0.9-0.7,0.9-0.8,0.9c-0.4-0.2-0.8-0.4-1.1-0.5C132.1,150.9,132.3,151,133.7,151.3
			 M141.5,147.9c-0.3,0.5-6.3,4.3-6.4,4.3c-0.5-0.8-1-1.6-1.4-2.3C136,148.5,138.8,145.9,141.5,147.9 M136,145.7
			c0.3,0,0.5-0.1,1,0.3v0.2c-0.3,0.2-0.5,0.2-0.7,0.2c-0.1,0-0.3-0.1-0.3-0.1C136,146.1,136,145.9,136,145.7 M137.9,144.2
			c-0.1,0.3-0.3,1-0.4,0.9c-0.5-0.2-1.1-0.4-1.6-0.5c0-0.2,0-0.4,0-0.6C136.2,143.5,137.3,143.4,137.9,144.2 M137.8,142.3
			c0,0.1-0.1,0.1-0.1,0.2h-0.2c-0.5-0.1-1-0.3-1.4-0.4C136.6,141.8,137,141.6,137.8,142.3 M137.3,140.2c0,0.2-0.5,1.1-0.6,1.1
			c-1-0.4-1.2-0.9-1.6-1.4C136,139.7,136.2,139.6,137.3,140.2 M135.9,137.3c0.3,0.2,0.6,0.5,0.9,0.7c-0.1,0.2-0.3,0.4-0.4,0.6h-1.2
			c-0.2-0.3-0.4-0.5-0.6-0.8C135.1,137.7,135.5,137.5,135.9,137.3 M136.9,135.8c-0.1,0.2-0.5,0.5-0.7,0.6c-1.6-0.2-1.4-0.6-2-1.7
			C135.3,134.8,135.6,134.7,136.9,135.8 M136.3,119.7c0-0.3-0.1-0.5-0.1-0.8c2.3,0.2,3.7,1.5,5.7,3.2c-0.1,0.1-0.3,0.3-0.4,0.3
			C139.7,121.5,138,120.6,136.3,119.7 M139.1,122.4c0,1.2-1.1,1.6-2,2.3c0,1.1-0.2,2.3-0.4,3.5c-0.1,0-0.2,0-0.2,0.1
			c-0.1,0-0.2-0.1-0.3-0.1c-0.1-1.6-1.2-6-0.3-7C137.1,121.3,137.8,121.5,139.1,122.4 M130,95.2c1,1.4,2.4,6.5,3.8,7.4
			c0.4,4.5,3.4,8.2,4.7,12.8c-1,0.6-2.9,2.4-3.6,2.5C133.9,116.7,130.3,97.9,130,95.2 M128.5,102c0.7-0.7,1.5,0,2.5,0.7
			c-0.1,0.2-0.3,0.3-0.4,0.5c-0.4,0-0.9,0-1.2,0C129,102.8,128.7,102.4,128.5,102 M128.7,104.3c0.9-0.3,1.5-0.5,2.5,0.2
			c-0.4,0.4-0.6,0.5-0.9,0.5L128.7,104.3z M129.3,106.3c-0.1-0.3-0.1-0.5-0.1-0.7c0.6,0,1.4,0,2.1,0.1c0.1,0.2,0.2,0.5,0.4,0.8
			c-0.1,0-0.2,0-0.4,0.1C130.6,106.4,129.9,106.4,129.3,106.3 M129.7,108c0-0.6,0.2-0.5,0.3-0.9c0.7,0.4,1.5,0.7,2.2,1.1
			c-0.5,0.5-0.9,0.3-1.4,0.4C130.4,108.5,130.1,108.2,129.7,108 M132,110.7c-0.6-0.4-1.2-0.9-1.7-1.3l1.5-0.3l0.9,0.8
			C132.6,110.5,132.2,110.7,132,110.7 M130.1,111.2c0.1-0.2,0.2-0.3,0.3-0.4c0.7,0.6,1.4,1.2,2.2,1.8c-0.2,0.2-0.3,0.3-0.4,0.6h-0.2
			C130.5,112.5,130.5,111.9,130.1,111.2 M130.9,113.9v-0.6c0.8,0.2,1.6,0.4,2.5,0.6c-0.4,0.4-0.5,0.5-0.8,0.5
			C132,114.3,131.4,114.1,130.9,113.9 M131.8,115.3c0.5,0,1.1,0,1.6,0.1c0.1,0.3,0.3,0.5,0.4,0.8c-0.2,0.1-0.3,0.3-0.5,0.5l-1.1-0.2
			C132.1,116.1,132,115.7,131.8,115.3 M131.9,118c0.6-0.2,1.5-1,2.4-0.3v0.5l-0.6,0.4C132.9,118.6,132.2,118.4,131.9,118
			 M132.2,120.3c-0.4-1.3,1.5-0.2,2,0c0,0.1,0,0.8-0.2,0.7C133.3,120.7,132.7,120.5,132.2,120.3 M132.4,122.6c0-0.3,0-0.6,0-0.9
			c0.9,0.3,1.8,0.5,2.7,0.8c-0.5,0.4-1.3,0.5-1.6,0.6C133.1,122.9,132.8,122.7,132.4,122.6 M132.7,124.5c0-0.3,0-0.6,0-0.8
			c0.9-0.2,1.5,0.4,2.4,1.2c-0.3,0.2-0.5,0.5-0.8,0.7C133.8,125.3,133.2,124.9,132.7,124.5 M133.4,127.2l-0.5-1
			c1-0.3,1.7,0.3,2.9,0.9v0.6c-0.1,0-0.2,0-0.3,0.1C134.7,127.6,134.1,127.4,133.4,127.2 M133.4,128.6c1,0,1.4-0.3,2.6,0.6
			c-0.3,0.2-0.4,0.4-0.6,0.6C134.4,129.5,133.7,129,133.4,128.6 M133.9,132.5c0.8,0.2,1.6,0.5,2.4,0.8c0,0.3,0,0.7,0,1.1
			c-0.2,0-0.4,0-0.6,0C134.4,134.1,133.6,133.4,133.9,132.5 M133.5,130.8v-0.2c1.2-0.6,1.2-0.4,2.9,0.7v0.2l-0.5,0.4
			C134.5,131.7,134.1,131.3,133.5,130.8 M127.8,159.5c4.7,0,9.2-0.5,14.1,0.7c0,1.7,0.1,3.4,0.1,5.1c-0.8,0.1-1.6,0.3-2.4,0.5
			c-4.1-0.3-8.2-0.2-12.2-0.6C127.4,163.3,127.2,160.6,127.8,159.5 M147,165.8l-2.5-0.5c-0.6-1.8-1.8-4.5-0.9-4.5
			c0.4,0,3.3,3.5,3.7,4.7C147.2,165.6,147.1,165.7,147,165.8 M155.4,176.1c-5.5,1.7-15.5,2.2-21.1,2.2c-2.5-0.8-1.7-2.5-1.7-4.7
			c6.1-0.7,12.6-0.4,18.9-0.2v-1.4c-3.2,0-11.1,1.9-11.1-2.8c0.7-0.5,1.6-0.2,2.6-0.1c-0.2,0.4-0.4,0.8-0.6,1.2
			c0.2,0.2,0.3,0.5,0.5,0.7c0.7,0,1.4,0,2.1,0l-0.2-1.9c-0.4-0.1-0.7-0.1-1.1-0.2C151.6,167.7,150.6,168.4,155.4,176.1 M138.9,168.3
			c0.2,1,0.2,2.1,0.1,3.2c-1.5,0-2.9,0-4.4,0c-4,0-10.8,0.6-14.2-0.6l0.1-3.9C125.3,167,134.5,166.2,138.9,168.3 M104.3,163
			c0-2.1,0.9-4.5,1.9-6.2c6,0.2,12.7,0.9,19,1.7c0.8,0.4,0.2,7.3,0.1,7.2C118.4,165,110.4,165.3,104.3,163 M119.1,167
			c0,1.1,0.2,2.3,0,3.8c-0.1,0-0.2,0-0.3,0c-7.7-0.5-14.2-2-21.5-3.9c0.2-1.7,0.5-2.7,1-4C105.3,164.6,112,165.6,119.1,167
			 M106.5,174.8c-0.4-0.9-0.2-2.6-0.1-3.3c7.4,0,15,1.9,22.8,2.1c0.6,0.1,1.1,0.1,1.8,0.6c0,1,0,2,0,3c-0.7,0.1-1.5,0.3-2.2,0.5
			C121.5,177.2,113.2,177.3,106.5,174.8 M119.1,183.9c-0.1,0-0.2,0-0.3,0.1c-7.3-1.4-14.9-3.2-21.7-5.3c0.1-1.5,0.3-2.8,0.8-4
			c3.1,0,8.3,2.2,11.6,3.2C113.8,178.4,121.9,176.6,119.1,183.9 M96.3,173.3c0,0.8-0.7,4.2-2,4.2c-4.5-1.2-9-3.7-12.7-6.1
			c0-1.2,0.5-3,1.1-3.9C87.3,169.2,91.5,170.9,96.3,173.3 M84.7,165c3.4-1.8,14.1,4,18.7,5.5c2,0.8,1.5,1.3,0.5,3.3h-0.2
			C99.9,172.5,86.8,169.6,84.7,165 M77.7,157.1c-2.3-2.2-3.5-3.1-4.7-5.7c1-1.5,0.7-2.7,1.4-4.1c2.1,1.4,3.8,2.6,5.8,4.5
			C80.1,153,77.7,157.1,77.7,157.1 M81.1,153.4c5,2.7,10.2,6.2,15.6,9.2c-0.1,1.2-0.5,2.5-1,3.9c-0.1,0-0.2,0-0.3,0
			c-5.9-2.5-11.3-4.9-16.4-8.3C79,156.2,80.3,154.7,81.1,153.4 M104,156.5c-0.4,1.1-1,6-2.4,6c-6.3-1.8-12.6-5.9-17.7-9.5
			c1.2-1.9,2.4-3.4,3.9-5.1C89.2,147.9,101.8,153.8,104,156.5 M84.2,129.6c-0.2-0.5-0.4-1.1-0.6-1.6c0.4-0.4,0.4-0.4,0.5-0.4
			C84.6,128.1,84.6,130,84.2,129.6 M85.3,128.2c-0.2-0.3-0.3-0.7-0.5-1c0.2-0.2,0.3-0.4,0.5-0.6C85.4,126.8,85.8,128.8,85.3,128.2
			 M89.9,145.5c-0.1,0-0.3,0-0.4,0c-5.2-0.9-7.3-10.9-4.6-14.7C89.3,126.5,91.8,141.8,89.9,145.5 M114.1,151.3c-0.3,0-0.6,0-0.9,0
			c-0.2-0.2-0.4-0.5-0.6-0.7c0.2-0.3,0.5-0.6,0.7-0.8C113.7,150.2,114,150.2,114.1,151.3 M114.9,149.2c-1-0.6-2.3-1.5-2.3-2.4
			C113.4,146.8,115,147.8,114.9,149.2 M115.2,145.8l-0.1,0.7c-0.2,0-0.3,0-0.5,0c-0.9-0.1-0.7-0.7-0.9-1.1
			C114.3,144.6,114.3,144.9,115.2,145.8 M115.4,143.4c0,0.2,0,0.4,0,0.6c-0.2,0.1-0.2,0.1-0.3,0.1c-0.8-0.4-1.1-0.9-1.4-1.4
			c0-0.2,0.1-0.4,0.1-0.5C114.6,142.4,114.6,142.9,115.4,143.4 M113.8,131.6l0.1,0.6c-0.2,0.1-0.3,0.3-0.4,0.4
			c-0.2-0.3-0.3-0.6-0.5-0.9L113.8,131.6z M114.3,130.6c-0.1,0-0.1,0-0.2,0c-0.2-0.1-0.4-0.3-0.5-0.4c0-0.5,0.2-0.5,0.4-0.9
			c-0.4,0-0.9-0.1-1.3-0.1c-1.1-3.5-0.5-4.9,0.4-8.2c2.2-0.7,4.2-1.5,6.7-1.5c0.1,0.1,0.1,0.2,0.2,0.3c-2.1,3.4-6.1,0.5-5.7,6
			c-0.3,1.6-1.3,1.9,0.2,2.9C114.5,129.4,114.7,129.8,114.3,130.6 M115.8,139c-0.1,0.1-0.1,0.3-0.2,0.5c-0.3-0.1-0.6-0.1-0.9-0.2
			c-0.1-0.3-0.2-0.5-0.3-0.7C115,138.1,115.2,138.4,115.8,139 M114.6,135c1.8,0.8,1,1.9,0.9,1.8C114.4,136,114,135.9,114.6,135
			 M115.9,134.3c-0.1,0.1-0.3,0.2-0.4,0.3c-0.3-0.2-0.5-0.4-0.7-0.6c0-0.2,0-0.3,0-0.4C115.2,133.7,115.6,134,115.9,134.3
			 M116.9,132.5c-0.2,0.2-0.3,0.3-0.5,0.3c-0.3-0.2-0.7-0.4-1-0.6v-0.5C116.1,131.1,116.3,131.7,116.9,132.5 M115.4,129.8
			c0.2,0,0.5,0.1,1,0.5c-0.1,0-0.1,0-0.2,0l-0.9-0.4C115.4,129.8,115.4,129.8,115.4,129.8 M118.4,127c-0.7,0.8-1.9,1.4-2.8,1.4
			l-0.3-0.4C116.3,127.3,117.1,126,118.4,127 M118.1,123.5c-0.5,0.1-2.1,0.7-2.4,0.6c-0.1-0.1-0.1-0.3-0.2-0.4
			c1.1-0.6,1.5-1.2,2.9-1.1L118.1,123.5z M119.2,124.2c0,1.2-2.6,1.7-3.4,1.9l-0.4-0.3C116.8,124.8,117.3,124.6,119.2,124.2
			 M105.1,128.3c0.3,0.2,0.7,0.3,1,0.5c0,0.1-0.7,5.4-1,4.9C103.4,130.3,103.5,131.7,105.1,128.3 M104.1,121.5
			c0.4-0.2,0.8-0.5,1.2-0.7c0.3,0.5,0.3,0.5,0.4,1.1c-0.1,0.2-0.2,0.4-0.3,0.6h-0.1c-0.3-0.1-0.7-0.1-1-0.2L104.1,121.5z
			 M102.9,124.7c0.3-0.3,0.7-0.6,1.1-1c0.5,0.3,0.7,0.2,1,1.2c-0.4,0.3-1,0.4-1.2,0.4C103,124.9,103,124.9,102.9,124.7 M97.3,125.2
			c-2.1-0.5-2.8-2.1,0.3-2.1C98,124,98.8,124.8,97.3,125.2 M101.8,125.6l0.1,0.6c0.2-0.1,0.3-0.2,0.5-0.3c1.5,1.8,1.6,5.7-1.6,5.7
			C95.1,130.2,97.1,126.3,101.8,125.6 M107.4,124.3c-0.3-0.2-0.5-0.4-0.8-0.6c0-0.2,0-0.3,0-0.5c0.1,0.1,0.9,0.3,1.1,0.8
			C107.6,124.2,107.5,124.3,107.4,124.3 M108.5,128.3c-0.1,0.2-0.3,0.4-0.5,0.5c-1.6-0.5-2.5-1.3-3.5-2c0-0.2,0-0.3,0-0.5
			C106,126.3,107.3,126.6,108.5,128.3 M108.2,140.1h0.9c0.6-2.9,1.1-4.7,2.4-7.2c0.8,0,1.5,0.1,2.3,0.1c-0.4,3.7-0.4,9.6-4.9,10.7
			c-3.3-0.6-1.6-12.4-1-13.5c0.3,0.2,0.6,0.4,1,0.7C108.8,133.8,108.4,136.9,108.2,140.1 M120.1,96.2c0,0.4-0.1,0.8-0.1,1.1
			c0,0-0.1,0-0.1,0.1c-1.1-0.6-1.5-1.4-2-1.8v2.3c0.8,0.2,1.7-0.1,1.6,1.6c-0.1,0.1-0.2,0.1-0.3,0.2l-1.6-1.5
			c-1.8,6.4-2.9,13.9-2.6,20.8c1.4-1.1,1.4-0.9,3.4-0.6c0.5-3.7,0.9-7.6,2-10.8c0.9,3.1,0.1,7.1-0.3,10.6c-3,0.7-4.7,1.6-7.2,2.6
			c-1.4,3-2.2,4.5-2,8.8c0.3,0.1,0.7,0.2,1,0.3v0.4c-1.4,0.2-1.6,1.4-2.1,2.7h-0.1c-0.1,0,0.2-4.1,0.1-4.5c-3-7.2,3.7-17.4,5.1-24.2
			c0.1-2.2,1.1-8.7,2.7-9.6C118.5,95.2,119.3,95.7,120.1,96.2 M116.2,88.8c0-0.2,0-0.2,0.3-0.9c0.5,0.3,1.5,0.5,1.4,1.5
			c-0.1,0.1-0.3,0.1-0.4,0.2C117,89.4,116.6,89.1,116.2,88.8 M117.4,93.9c-0.2,0-0.3,0.1-0.4,0.2c-0.6-0.7-1.3-1.4-1.9-2
			C115.9,91.3,117.1,92.6,117.4,93.9 M115.9,90.4c0.1-0.1,0.2-0.3,0.2-0.4c0.4,0.2,0.8,0.4,1.2,0.7c0,0.3-0.3,0.6-0.6,0.6
			C116.4,91,116,90.5,115.9,90.4 M121.8,79.4c-0.2,0.1-0.3,0.2-0.5,0.3l-0.9-0.5v-0.3c0.5-0.4,0.4-0.4,1.4,0.1
			C121.8,79.2,121.8,79.3,121.8,79.4 M121.8,82.2c-0.1,0.2-0.3,0.5-0.5,0.6c-0.3-0.2-0.6-0.4-0.9-0.6c0.1-0.2,0.2-0.4,0.3-0.6
			C121,81.6,121.3,81.8,121.8,82.2 M166.9,124.2c-0.1-0.1-0.1-0.2-0.2-0.2c1.3-1.2,2-1.6,3.6-2.4c0.2,0.3,0.5,0.7,0.7,1
			C170.5,123.7,167.9,124,166.9,124.2 M172.8,119.6c0.3,0.8,3.3,9.5,1.8,7.9C173.2,124.1,171.2,122.5,172.8,119.6 M166.2,129
			c1.8,1,5.1,1.1,7.7,2.4c-0.3,0.6-0.7,1.9-1.1,2.4c-3.6-1.7-7-4.2-9.3-7.3c1-1.4,3.5-1.2,5.2-1.4c0,0.1,0,0.1,0,0.2
			c2.1-0.4,2.5-1.3,4.1,0l-0.8,1.1c-2.3,0-6.1-0.8-7.7,0.9c3.2,0,5.9,0.3,9.3,1c-0.7,2.4-6.1,0.1-7.4-0.2
			C166.2,128.5,166.2,128.8,166.2,129 M147.5,162.1c-1.7-2.2-7.8-8.7-7.8-11.3c3.3-1.5,6.2,3.2,8.3,5.7c4.9,5.1,11.4,8.2,17.7,11.4
			c17.2,8.4,17.2,8.4,17.5,8.6c-4,5.4-5.9,6.7-12,7.5C158.5,181,154.9,172.9,147.5,162.1 M167,185.4c0.2-0.3,0.4-0.6,0.6-0.8
			c4,0.8,5.5,0.4,9.7-0.6c0,1-0.1,2-0.1,3l-5.3,0.3C167.1,185.5,167.1,185.5,167,185.4 M113.5,88.4c-0.5-0.9-0.6-1.3-0.6-2
			c0.2-0.2,0.3-0.3,0.5-0.5C114,86.4,113.8,88.7,113.5,88.4 M112.9,90.6c-0.2,0.2-0.4,0.5-0.6,0.5l-0.9-2.2c0.1-0.2,0.2-0.3,0.3-0.5
			C112.6,88.5,112.7,89.1,112.9,90.6 M111.5,90.8c0,0.5,0,1,0,1.4c-0.2,0.1-0.5,0.3-0.7,0.5c-1-1.6-0.8-1.5-0.9-2.9
			C111,89.8,110.6,90.6,111.5,90.8 M109.1,91.9c0.6,0.6,1.4,1.2,1.3,2.7c-0.2,0.1-0.4,0.2-0.6,0.4c-0.5-0.8-0.9-1.7-1.4-2.4
			C108.6,92.3,108.8,92.1,109.1,91.9 M107.7,93.9c0.3,0.6,0.6,1.2,1,1.8c-0.3,1.1-0.3,1.1-0.4,1c-0.5-0.7-1-1.4-1.4-2.1L107.7,93.9z
			 M106.8,96.1c0.5,1.1,0.6,1.4,0.6,3.2c-1.1-1.5-1.1-1.7-1.2-3.2H106.8z M105.9,100.7c-1.1-0.4-1.2-1.5-1.5-2.1
			c0.2-0.2,0.3-0.4,0.4-0.5C106.7,98.4,105.9,100.7,105.9,100.7 M104.8,100.9l0.1,1.7c-0.1,0-0.2,0-0.3,0c-1-0.9-0.8-1.1-0.8-1.9
			C104.3,100.7,104.3,100.7,104.8,100.9 M192.6,115.7c-0.8,0-5.2,2.4-5.9,3c-3.5-3.8-1.1-2.7-4.3-1.8c-1.5-1.6-2.9-3.2-4.4-4.8
			c-0.3,0.1-0.7,0.2-1,0.4c0.1,0.8,2.9,6.5,2.4,7c-1.8-1-3.5-2-5.3-3.1c-0.3-6.2,6.1-6.8,8.6-11c-0.1-0.2-0.2-0.4-0.3-0.5
			c-8.6-1.4-18.6-4-26.3,0.5c-0.3,2-3.5,11.5-4.6,11.5c-0.8-0.3-1.6-0.6-2.3-0.9c0.2-0.5,1.7-0.4,2.2-0.4c-0.8-3.3-1-4.5-3.6-6.4
			c-4.2-5-6.7-10.6-9.8-16.1c-2.3-4-6-7.8-7.1-11.7c-0.4-0.1-0.8-0.3-1.2-0.4c-0.2-0.6-0.3-1.2-0.4-1.8c-1-6.3-5.2-9.5-1-15.5
			c-0.2-1.4-0.4-2.7-0.6-4c-1.5-0.9-1.4-0.9-1.9-2.3c1.4-1.1,2.9,0.6,4.1,1.7c11.5,1.5,4-13-2.3-5.5c-3.6-1.6,1.2-4.9,0.4-9.1
			c-2.7-0.9-4.9-1.9-7.2-0.2c-2.2,3.5,1.5,5.5,1.3,9.2c-2.9,0.3-5-4.8-8.8-1.5c-3.6,12.1,4.8,4.3,9.2,5.1c0.3,2.7-5,2.8-0.7,8.4
			c-6.5,1.7-13.2,1.9-19.6,2.9c-0.2,0.7-0.4,1.4-0.7,2.2c0.3,0.2,0.6,0.3,0.9,0.5c0,0.8-0.3,1.8-0.2,2.9l0.9,0.4
			c-0.6,1.3-1.7,0.9-0.1,2.6c4.1,0.6,11.1-1.3,15.7-1.8c0,7.8-21.1,23.3-14,28.5c1.3-1.6,2.3-3.8,2.7-4.4c0.7-1,5.9-9,6.7-9.9
			c0.2,0.1,0.4,0.1,0.6,0.2c0.8,2.8-3.3,12.9-4.4,16.6c-0.5,3.2-0.7,6.8-2.4,9.8c-1.4-1,0.6-1.7-1.7-2.3c1.3-3-0.2-2.1,2.6-4.3
			c-0.3-4.3-5.6-6-8.3-7.6c0.2-4.9-1.9-5.2-5-3.2c0.3,0.2,0.6,0.5,1,0.8v0.9c-2.4,1.7-5.1,3.6-7.4,5.1c-2.3-1.5,2-10.7,2.5-12.7
			c-0.3-7.8,0-13.7-7.4-14.7c-0.6,1.2,0.6,6,0.8,7.9c-3.1,3.8-6.6,6.2-3.4,10.8c0.4,4.3,1.4,4.9,5.5,6c0,0.2,0,0.5,0.1,0.8h-3.8
			c0,0.4,0,0.8,0,1.2c0.7,0.4,3-0.1,4.1-0.2c0,0.2,0,0.5,0,0.8c-0.9,0.4-3.2,0.2-4.2,0.4c-0.1,2.2-0.3,4.4-0.8,6.5
			c-0.5,0.9-3.4,5.6-3.9,5c2.5-5,4.1-9.4-1.8-3.7c-3.5,1.6-2.7-2.8-6,2.5c-2.4-1.9-2.3-2.1-4.7-2c-0.3-0.3-0.6-0.7-0.8-1
			c-0.9,0-1.7,0-2.5,0c-0.3,0.5-0.6,1.1-0.8,1.7c0.2,0.5,0.4,1.1,0.6,1.6c-0.2,5.6,3.7,5.9,7.9,8.3c-0.7,0.7-5.5-2.1-7.1-1.8
			c-0.2,0.4-0.4,0.8-0.5,1.1l1.2,1.7c2.4,0.2,6.6,4.4,9,6.2c-0.4,4.4-0.8,8.9-1.2,13.3c0.2,0.1,0.4,0.3,0.7,0.5
			c-0.4,2-1.5,5.6-1.5,7.6c2.1,1.9,0.1,2.7,0,6.2c2.3,2.5,1.7,4.5,1.6,8.3c0.3,0.3,0.7,0.5,1,0.8c0,2.1,0.1,4.3,0.1,6.5
			c0.5,0.4,1,0.9,1.6,1.3c0.1,2.7,0.3,4.6,0.9,7.5c-1.7,0.9-3.4,0.6-5.2,1.5l0.7,0.8c5.8,0.3,9.9-2.7,15.3-2.7
			c8.8,4.7,7.3,8.9,17.9,2.9c5.1-0.7,6.5,8.4,13.5,4.6c10.7-9,8-4.4,17.3,2.2c1.2,0,2.3,0,3.5,0c9.2-6.5,5.9-9.3,16.1-1
			c4.8,0.8,8.2-5.8,11.2-5.8c7.9,2.8,9.5,3.4,18-1c-2.7-3.5-3.3,1.4-5.7,1.4c-0.3-1.4,0.1-2.4,0.1-3.5c2.5-2.3,4.9-4.7,7.4-7v-0.1
			c-1.6-0.8-3.2-1.6-4.7-2.4c0.1-2.7-0.2-5.6,1.7-7.2c-1.7-9.5-1-19.8-0.4-29.3c0.7-1,1.3-2,2-3c2.7-3.2,6-4,8.8-7.1l-0.7-1
			c-2.8,0.6-4.3,1.2-6.6,2.4C185,126.1,197.7,127.1,192.6,115.7"/>
		<path class="st2" d="M95.7,216.1c1.2,0.4,2.3,0.9,3.2,1.5l-1.2,3.7l-1.4-0.5c-0.1-0.7-0.1-1.4-0.1-2c-0.3-0.3-0.9-0.7-1.7-1
			c-1-0.3-1.9-0.2-2.3,0.9c-0.8,2.6,5.6,3.6,4.3,7.7c-0.7,2.1-3.1,3.2-6.5,2.1c-1-0.3-2.1-0.8-3-1.3l1.1-3.5l1.4,0.5
			c0.1,0.7,0.2,1.5,0.1,2c0.2,0.2,0.8,0.5,1.4,0.7c1.1,0.3,1.9,0.1,2.2-0.9c0.7-2.3-5.7-3.6-4.4-7.6C89.5,216.2,92.2,215,95.7,216.1
			"/>
		<path class="st2" d="M85.2,212.4l-0.6,1c-0.6,0.1-1.3,0-2-0.1l-4.4,7.9c0.4,0.4,0.8,1,1.1,1.6l-0.6,1l-5.8-3.2l0.6-1
			c0.6,0,1.4,0,2,0.1l4.4-7.9c-0.4-0.5-0.8-1-1.1-1.6l0.6-1L85.2,212.4z"/>
		<path class="st2" d="M63,201.6l2.7-2.8c1.7,0.5,3.4,1.5,4.9,2.9c3,2.9,3,6.5,0.4,9.3c-3,3.1-7.1,3.1-10.5-0.3c-1-1-2-2.2-2.7-3.3
			l2.7-2.8l1.1,1.1c-0.2,0.7-0.4,1.3-0.7,1.8c0.3,0.6,0.8,1.4,1.6,2.1c1.9,1.8,4.1,1.2,5.9-0.7c1.8-1.8,2.1-4.2,0.1-6.2
			c-0.4-0.4-0.9-0.8-1.4-1l-1.8,1.9c0.2,0.4,0.4,1,0.5,1.5l-0.8,0.8l-4-3.9l0.8-0.8C62.1,201.4,62.5,201.4,63,201.6"/>
		<path class="st2" d="M62.8,193.1l-1,0.6c-0.6-0.3-1.2-0.6-1.7-1.1l-7.7,4.7c0.2,0.6,0.2,1.3,0.2,1.9l-1,0.6l-3.5-5.7l1-0.6
			c0.6,0.3,1.2,0.7,1.6,1.1l7.7-4.7c-0.2-0.6-0.2-1.3-0.2-2l1-0.6L62.8,193.1z"/>
		<path class="st2" d="M56.8,182.3l-1.1,0.4c-0.5-0.4-1-0.8-1.4-1.3l-8.4,3.2c0,0.6,0,1.4-0.2,2l-1.1,0.4l-2.4-6.2l1.1-0.4
			c0.5,0.4,1.1,0.9,1.4,1.4l8.6-3.3l-1.1-2.7c-0.5,0-1.4,0-2.1,0l-0.5-1.4l3.7-1.4L56.8,182.3z"/>
		<path class="st2" d="M51.7,167.5l-1.2,0.2c-0.4-0.4-0.9-1-1.2-1.6l-8.8,1.8c0,0.6-0.2,1.3-0.5,1.9l-1.1,0.2l-1.4-6.5l1.1-0.2
			c0.4,0.4,0.9,1.1,1.2,1.6l9-1.9l-0.7-2.9c-0.5,0-1.4-0.2-2.1-0.3l-0.3-1.5l3.8-0.8L51.7,167.5z"/>
		<path class="st2" d="M36.8,141.1l5.8-0.5c3.6-0.3,5.6,1.8,5.9,5.2c0.4,4.1-1.6,5.7-4.5,6l-6.3,0.5c-0.1,0.4-0.5,1-0.7,1.3
			l-1.2,0.1l-0.5-5.8l1.2-0.1c0.4,0.4,0.8,0.9,1,1.4l5.8-0.5c2.2-0.2,3.4-1.1,3.2-3.4c-0.2-1.9-1.4-2.7-3.3-2.5l-6.2,0.6
			c-0.1,0.5-0.5,1.1-0.7,1.6l-1.2,0.1l-0.4-5.2l1.2-0.1C36.2,140.2,36.6,140.7,36.8,141.1"/>
		<path class="st2" d="M47.7,120.4l-1.2,0c-0.4-0.4-0.7-0.9-0.8-1.4l-7.5,1.1v0l9.5,3.5l0,2.1l-9.7,3.3v0l7.6,0.9
			c0.2-0.5,0.6-1,0.9-1.4l1.2,0l-0.1,4.9l-1.2,0c-0.3-0.3-0.6-0.7-0.8-1.1l-9-1.7c-0.2,0.5-0.5,1.1-0.9,1.5l-1.2,0l0.1-5.1l8.7-3.1
			v0l-8.5-3.3l0.1-5.1l1.2,0c0.3,0.5,0.6,1,0.8,1.6l9.1-1.6c0.2-0.4,0.5-0.8,0.9-1l1.2,0L47.7,120.4z"/>
		<path class="st2" d="M43.3,105.1c-0.1,1-1,1.7-2,1.5c-1-0.1-1.7-1-1.6-2c0.1-1,1-1.7,2-1.6C42.7,103.3,43.4,104.2,43.3,105.1"/>
		<path class="st2" d="M42.1,82.6l5.7,1.4c3.5,0.9,4.7,3.5,4,6.8c-1,4-3.3,4.9-6.2,4.2l-6.1-1.5c-0.3,0.4-0.8,0.8-1.1,1l-1.1-0.3
			l1.4-5.7l1.1,0.3c0.2,0.5,0.4,1.1,0.5,1.7l5.6,1.4c2.1,0.5,3.6,0.1,4.1-2.2c0.4-1.8-0.4-3-2.3-3.4l-6-1.4
			c-0.3,0.5-0.8,0.9-1.2,1.3L39.2,86l1.2-5l1.1,0.3C41.8,81.6,42.1,82.2,42.1,82.6"/>
		<path class="st2" d="M51.4,60.8l9.9,5l-1.2,2.4l-11.7,1.5l6.9,3.1c0.4-0.4,0.9-0.7,1.5-1l1.1,0.5l-2.5,5l-1.1-0.5
			c-0.1-0.7-0.1-1.3,0-1.9l-8-4.2c-0.4,0.4-1,0.8-1.6,1.2l-1-0.5l2.4-4.6l10.4-1.3l-6.1-2.8c-0.4,0.4-0.9,0.7-1.4,0.9l-1-0.5
			l2.2-4.4l1,0.5C51.3,59.8,51.4,60.3,51.4,60.8"/>
		<path class="st2" d="M66.1,59.3l-0.9-0.8c0.1-0.6,0.3-1.3,0.6-1.9l-6.7-6.1c-0.5,0.3-1.2,0.6-1.8,0.7l-0.9-0.8l4.5-4.9l0.9,0.8
			c-0.1,0.6-0.3,1.3-0.6,1.9l6.7,6.1c0.6-0.3,1.2-0.6,1.8-0.7l0.9,0.8L66.1,59.3z"/>
		<path class="st2" d="M80.3,33.8l2.1,11.8L80,47.1l-9.6-7.3c-0.4,0-0.8-0.1-1.3-0.2l-0.6-1l4.9-3l0.6,1c-0.2,0.5-0.4,0.9-0.8,1.4
			l6.7,5.2l0,0l-2-8.1c-0.5,0.1-1.1,0-1.6,0l-0.6-1l4.2-2.6l0.6,1C80.6,33,80.5,33.4,80.3,33.8"/>
		<path class="st2" d="M93.2,40.4l-0.3-1.2c0.4-0.4,0.9-1,1.5-1.3l-2.5-8.6c-0.6,0-1.4-0.2-1.9-0.3l-0.3-1.1l9.5-2.7l0.9,3.2
			l-1.4,0.4c-0.4-0.3-0.9-0.9-1.1-1.3l-2.7,0.8l1,3.7l2.3-0.6c0-0.4,0.2-0.9,0.3-1.2l1.2-0.3l1,3.6l-1.2,0.3
			c-0.3-0.2-0.7-0.5-0.9-0.9l-2.3,0.6l1.1,4l2.7-0.8c0-0.6,0.1-1.3,0.2-1.8l1.5-0.4l0.9,3.3L93.2,40.4z"/>
		<path class="st2" d="M115.3,28.6l-1.1,0.1l-0.4-4c0.2-0.1,0.6-0.1,0.8-0.1c1.7-0.2,2.6,0.5,2.7,1.9
			C117.5,27.5,116.9,28.5,115.3,28.6 M122.4,35.2l-0.2-1.4c-1.7,0.4-2-4.4-4.2-4.5c1.7-0.6,2.6-1.9,2.5-3.5
			c-0.2-2.5-2.1-3.4-5.4-3.1c-1.8,0.2-4,0.4-4.5,0.5l-1.6,0.1l0.1,1.2c0.6,0.3,1.2,0.5,1.8,0.7l0.8,9c-0.6,0.3-1.3,0.6-1.7,1
			l0.1,1.2l6.2-0.5l-0.1-1.2c-0.4-0.3-0.9-0.6-1.5-0.7l-0.3-3.3l0.7-0.1c2.2-0.2,2.2,5.4,5.2,5.2C121,35.5,121.8,35.4,122.4,35.2"/>
		<path class="st2" d="M133.2,35.7c-1.2-0.1-2.5-0.3-3.5-0.6l0.2-3.8l1.5,0.1c0.3,0.6,0.5,1.3,0.6,1.9c0.4,0.2,1.1,0.5,1.9,0.5
			c1,0,1.9-0.3,2-1.4c0.1-2.7-6.3-2-6.1-6.3c0.1-2.3,2.2-3.9,5.7-3.7c1,0,2.3,0.3,3.2,0.5l-0.2,3.7l-1.5-0.1
			c-0.3-0.6-0.6-1.4-0.6-1.9c-0.3-0.2-1-0.3-1.5-0.3c-1.1-0.1-1.9,0.4-1.9,1.4c-0.1,2.4,6.4,2,6.2,6.2
			C139.2,34,136.9,35.8,133.2,35.7"/>
		<path class="st2" d="M146.1,36.5l0.2-1.2c0.6-0.3,1.2-0.5,1.9-0.5l1.6-8.9c-0.5-0.3-1.1-0.7-1.6-1.1l0.2-1.2l6.5,1.2l-0.2,1.2
			c-0.6,0.2-1.3,0.4-1.9,0.5l-1.6,8.9c0.6,0.3,1.1,0.7,1.6,1.2l-0.2,1.2L146.1,36.5z"/>
		<path class="st2" d="M172.7,34.8c0-0.7-0.1-1.7,0-2.3l-2-0.8l-3.4,8.6c0.5,0.4,1,0.9,1.3,1.5l-0.4,1.1l-6.2-2.5l0.4-1.1
			c0.7-0.1,1.4-0.2,2-0.1l3.4-8.6l-2-0.8c-0.4,0.5-1.1,1.2-1.6,1.7l-1.3-0.5l1.5-3.7l11.2,4.5l-1.5,3.7L172.7,34.8z"/>
		<path class="st2" d="M186.7,41.7c-0.2,0.5-0.4,1.1-0.6,1.7l-1.2,3.7l-2.9-2.3l3.4-2.1C185.8,42.4,186.3,42,186.7,41.7L186.7,41.7z
			 M190,41l-2.6-2.1l-10.2,6.3c-0.4-0.1-0.9-0.1-1.4-0.1l-0.7,0.9l3.8,3l0.7-0.9c-0.1-0.5-0.3-1-0.6-1.4l1.4-0.8l3.7,2.9l-0.5,1.5
			c-0.5-0.1-1.1-0.2-1.5-0.2l-0.7,0.9l4.5,3.5l0.7-0.9c-0.1-0.4-0.2-0.8-0.4-1.3L190,41z"/>
		<path class="st2" d="M202.9,61.8c0.4-0.6,0.8-1.4,1.3-1.9l-1.3-1.8l-7.6,5.3c0.2,0.6,0.3,1.3,0.3,2l-1,0.7l-3.8-5.5l1-0.7
			c0.6,0.3,1.3,0.6,1.7,1l7.6-5.3l-1.3-1.8c-0.6,0.2-1.6,0.4-2.3,0.5l-0.8-1.2l3.2-2.3l6.9,9.9l-3.2,2.3L202.9,61.8z"/>
		<path class="st2" d="M199.1,74.5l1.1-0.4c0.5,0.4,1.1,0.8,1.5,1.3L210,72c-0.1-0.6,0-1.3,0.1-2l1.1-0.4l2.5,6.2l-1.1,0.4
			c-0.5-0.4-1.1-0.9-1.4-1.3l-8.4,3.3c0.1,0.6,0,1.3-0.1,2l-1.1,0.4L199.1,74.5z"/>
		<path class="st2" d="M204.4,91.3c-0.3-1.2-0.4-2.5-0.4-3.5l3.7-0.8l0.3,1.5c-0.5,0.4-1.2,0.9-1.7,1.1c-0.1,0.5-0.1,1.2,0,2
			c0.2,1,0.8,1.8,1.9,1.5c2.6-0.6,0.2-6.6,4.5-7.6c2.2-0.5,4.3,1.1,5.1,4.5c0.2,1,0.4,2.3,0.4,3.2l-3.6,0.8l-0.3-1.5
			c0.5-0.5,1.2-0.9,1.7-1.1c0.1-0.3,0-1-0.1-1.5c-0.3-1.1-0.9-1.7-1.9-1.5c-2.4,0.5-0.2,6.7-4.3,7.7
			C207.5,96.6,205.2,94.9,204.4,91.3"/>
		<path class="st2" d="M212.8,105.1c-0.1-1,0.6-1.9,1.6-2c1-0.1,1.9,0.6,2,1.5c0.1,1-0.6,1.9-1.6,2
			C213.8,106.8,212.9,106.1,212.8,105.1"/>
		<path class="st2" d="M208,114.4l1.2-0.1c0.4,0.5,0.7,1.1,0.9,1.7l9-0.4c0.1-0.6,0.5-1.3,0.8-1.8l1.2,0l0.3,6.6l-1.2,0
			c-0.4-0.5-0.7-1.2-0.9-1.7l-9.2,0.4l0.2,2.9c0.5,0.1,1.3,0.4,2,0.7l0.1,1.5l-3.9,0.2L208,114.4z"/>
		<path class="st2" d="M219,143.3l-5.9-0.3c-3.6-0.2-5.3-2.5-5.2-5.9c0.2-4.1,2.3-5.5,5.2-5.3l6.3,0.3c0.2-0.4,0.6-0.9,0.9-1.2
			l1.2,0l-0.2,5.9l-1.2,0c-0.3-0.5-0.6-1-0.8-1.5l-5.8-0.2c-2.2-0.1-3.5,0.6-3.6,2.9c-0.1,1.9,1,2.9,3,2.9l6.2,0.2
			c0.2-0.5,0.6-1.1,0.9-1.5l1.2,0l-0.2,5.2l-1.2,0C219.5,144.3,219.2,143.8,219,143.3"/>
		<path class="st2" d="M217.6,157.3c0,0.5-0.1,0.9-0.2,1.4c-0.3,1.7-1.2,2.2-2.3,2c-1.1-0.2-1.8-0.9-1.5-2.8
			c0.1-0.5,0.2-0.9,0.2-1.2L217.6,157.3z M212.3,156.4l-0.2,1.1c-0.3,2-1.2,3.1-2.5,2.9c-1.1-0.2-2-1.1-1.7-2.8
			c0.1-0.8,0.3-1.4,0.5-1.8L212.3,156.4z M220.2,152.8l-1.2-0.2c-0.4,0.5-0.9,1.1-1.1,1.6l-8.9-1.5c-0.1-0.6-0.3-1.3-0.6-1.9
			l-1.2-0.2l-0.3,1.8c-0.3,1.7-0.6,3.3-0.8,4.4c-0.7,4.5,1.1,6.5,3.1,6.8c1.4,0.2,2.9-0.5,3.5-2.5c0.1,1.6,1.1,2.5,2.3,2.7
			c2.1,0.4,3.5-1.1,4-4.4c0.3-1.7,0.5-3.8,0.7-4.9L220.2,152.8z"/>
		<path class="st2" d="M203.7,168.9l1.1,0.4c0.1,0.6,0.3,1.3,0.2,2l8.5,2.9c0.4-0.5,0.9-1,1.4-1.4l1.1,0.4l-3.2,9.4l-3.1-1.1
			l0.5-1.4c0.5-0.1,1.2-0.2,1.7-0.2l0.9-2.7l-3.6-1.2l-0.8,2.2c0.3,0.3,0.6,0.7,0.8,0.9l-0.4,1.2l-3.5-1.2l0.4-1.2
			c0.3-0.1,0.8-0.3,1.2-0.3l0.8-2.2l-3.9-1.3l-0.9,2.7c0.5,0.3,1,0.8,1.4,1.2l-0.5,1.4l-3.3-1.1L203.7,168.9z"/>
		<path class="st2" d="M194.3,189.9c2.3-3.8,5.4-4.6,8.8-2.5c4,2.4,4.7,6.2,2.6,9.7c-0.8,1.3-1.6,2.2-2.3,2.9l-3.7-2.2l0.8-1.3
			c0.7,0.1,1.5,0.3,2.2,0.5c0.4-0.3,0.9-0.7,1.3-1.3c1-1.7,0.3-3.6-2.2-5.1c-2.4-1.4-4.4-1-5.9,1.5c-0.5,0.8-0.9,1.8-1,2.8l-1.8-0.6
			C193,192.9,193.4,191.3,194.3,189.9"/>
		<path class="st2" d="M188.4,198.5l0.8,0.9c-0.2,0.6-0.4,1.3-0.7,1.8l6.2,6.5c0.5-0.3,1.3-0.5,1.9-0.6l0.8,0.9l-7.2,6.8l-2.3-2.4
			l1.1-1c0.5,0.1,1.2,0.4,1.6,0.7l2.1-2l-2.6-2.8l-1.7,1.6c0.2,0.4,0.2,0.9,0.2,1.2l-0.9,0.9l-2.6-2.7l0.9-0.9
			c0.3,0.1,0.9,0.2,1.2,0.3l1.7-1.6l-2.8-3l-2.1,2c0.3,0.5,0.5,1.2,0.6,1.7l-1.1,1l-2.4-2.5L188.4,198.5z"/>
		<path class="st2" d="M169.4,224.7l-4.9-10l2.5-1.2l10.2,5.8l-3.7-6.6c-0.5,0.1-1.1,0-1.8-0.1l-0.5-1.1l5-2.5l0.5,1.1
			c-0.4,0.6-0.7,1.1-1.1,1.5l3.8,8.1c0.6-0.1,1.3-0.1,2,0l0.5,1.1l-4.7,2.3l-9.1-5.2l3.2,5.8c0.5-0.1,1.1,0,1.7,0.1l0.5,1.1
			l-4.4,2.2l-0.5-1.1C168.9,225.6,169.1,225.1,169.4,224.7"/>
		<path class="st2" d="M153.7,217.6c1.2-0.3,2.5-0.4,3.5-0.3l0.8,3.7l-1.5,0.3c-0.4-0.5-0.8-1.2-1.1-1.7c-0.5-0.1-1.2-0.2-2,0
			c-1,0.2-1.8,0.8-1.5,1.9c0.6,2.6,6.6,0.3,7.6,4.5c0.5,2.2-1.1,4.3-4.5,5.1c-1,0.2-2.3,0.4-3.2,0.4l-0.8-3.6l1.5-0.3
			c0.4,0.5,0.9,1.2,1.1,1.7c0.3,0.1,1,0,1.5-0.1c1.1-0.2,1.7-0.9,1.5-1.8c-0.5-2.4-6.7-0.2-7.6-4.4
			C148.4,220.7,150.1,218.4,153.7,217.6"/>
		<path class="st2" d="M141.8,219.9l0.1,1.2c-0.5,0.4-1.1,0.8-1.7,1l0.7,9c0.6,0.1,1.3,0.4,1.8,0.7l0.1,1.2l-6.6,0.5l-0.1-1.2
			c0.5-0.4,1.1-0.8,1.7-1l-0.7-9c-0.6-0.1-1.3-0.4-1.8-0.7l-0.1-1.2L141.8,219.9z"/>
		<path class="st2" d="M124.8,220.3c1.2,0,2.5,0.2,3.5,0.5l-0.1,3.8l-1.5,0c-0.3-0.6-0.5-1.3-0.7-1.9c-0.4-0.2-1.1-0.4-1.9-0.5
			c-1,0-1.9,0.4-1.9,1.5c-0.1,2.7,6.4,1.8,6.3,6.2c-0.1,2.3-2.1,4-5.6,3.9c-1,0-2.3-0.2-3.2-0.4l0.1-3.7l1.5,0
			c0.3,0.6,0.6,1.4,0.7,1.9c0.3,0.2,1,0.3,1.5,0.3c1.1,0,1.8-0.5,1.9-1.4c0.1-2.4-6.5-1.8-6.4-6.1
			C118.9,222.1,121.1,220.2,124.8,220.3"/>
		<path class="st2" d="M108.4,224.9c1,0.1,1.6,1.1,1.5,2.1c-0.2,1-1,1.7-2,1.6c-1-0.1-1.7-1.1-1.5-2.1
			C106.5,225.5,107.4,224.8,108.4,224.9"/>
	</g>
</g>
</svg>
