<?xml version="1.0" encoding="utf-8"?>
<!-- Generator: Adobe Illustrator 26.3.1, SVG Export Plug-In . SVG Version: 6.00 Build 0)  -->
<svg version="1.1" id="affiliation" xmlns="http://www.w3.org/2000/svg" xmlns:xlink="http://www.w3.org/1999/xlink" x="0px"
	 y="0px" viewBox="0 0 256 256" style="enable-background:new 0 0 256 256;" xml:space="preserve">
<style type="text/css">
	.st0{fill:#FFFFFF;}
	.st1{display:none;fill:#FFFFFF;}
	.st2{fill:#10427A;}
	.st3{fill:#173E7D;}
</style>
<rect id="black" width="256" height="256"/>
<circle id="background_x5F_circle" class="st0" cx="128" cy="128" r="128"/>
<path id="background_x5F_rectangle" class="st1" d="M206.9,256H49.1C22.1,256,0,233.9,0,206.9V49.1C0,22.1,22.1,0,49.1,0h157.9
	c27,0,49.1,22.1,49.1,49.1v157.9C256,233.9,233.9,256,206.9,256z"/>
<g id="logo">
	<g>
		<g id="g22" transform="translate(239.1768,250.9287)">
			<path id="path24" class="st2" d="M-31.7-167.8v106.3h-7.1c-13.3,0-25.5-6.3-32.1-12.6v18.3h16.5l6.8,13.1h-3.1l-7.1-5h-9.3
				l3.3,3.6l1.1,10.3h-2.8l-12.7-13.8h-20.2l-4.4,5h-2.8l3.4-13.1h16.5l-8.9-9.7h-33.2l-8.9,9.7h16.5l3.4,13.1h-2.8l-4.4-5h-20.2
				l-12.7,13.8h-2.8l1.1-10.3l3.3-3.6h-9.3l-7.1,5h-3.1l6.8-13.1h16.6V-74c-6.6,6.3-18.9,12.6-32.1,12.6h-7.1v-106.3
				c0-9,7.1-14,16-14c11,0,19.1,7.8,23.8,15.5l3.8-45.9h18.2c0,0,5.5,7.8,7.2,10.2h20.3c1.7-2.4,7.3-10.2,7.3-10.2h17.7l4.8,46.1
				c4.7-7.8,12.8-15.7,23.9-15.7C-38.8-181.7-31.7-176.7-31.7-167.8"/>
		</g>
		<g id="g26" transform="translate(165.9741,248.6709)">
			<path id="path28" class="st0" d="M-38.3-163l-4.8,3.6l4.8,10.9l4.9-10.9L-38.3-163z"/>
		</g>
		<g id="g30" transform="translate(193.9409,259.9678)">
			<path id="path32" class="st0" d="M-35.8-186.6c0,7.9-6.4,14.4-14.4,14.4c-7.9,0-14.4-6.4-14.4-14.4c0-7.9,6.4-14.4,14.4-14.4
				C-42.2-201-35.8-194.6-35.8-186.6"/>
		</g>
		<g id="g34" transform="translate(190.7554,259.9678)">
			<path id="path36" class="st3" d="M-36-186.6c0,6-4.9,10.9-10.9,10.9c-6,0-10.9-4.9-10.9-10.9c0-6,4.9-10.9,10.9-10.9
				C-40.9-197.5-36-192.7-36-186.6"/>
		</g>
		<g id="g38" transform="translate(186.5112,259.9678)">
			<path id="path40" class="st0" d="M-36.4-186.6c0,3.5-2.8,6.3-6.3,6.3c-3.5,0-6.3-2.8-6.3-6.3c0-3.5,2.8-6.3,6.3-6.3
				C-39.2-192.9-36.4-190.1-36.4-186.6"/>
		</g>
		<g id="g42" transform="translate(164.4976,259.9678)">
			<path id="path44" class="st0" d="M-38.4-186.6c0,7.9-6.4,14.4-14.4,14.4c-7.9,0-14.4-6.4-14.4-14.4c0-7.9,6.4-14.4,14.4-14.4
				C-44.8-201-38.4-194.6-38.4-186.6"/>
		</g>
		<g id="g46" transform="translate(161.3159,259.9678)">
			<path id="path48_00000076604563952380481900000007065446199757479328_" class="st3" d="M-38.7-186.6c0,6-4.9,10.9-10.9,10.9
				c-6,0-10.9-4.9-10.9-10.9c0-6,4.9-10.9,10.9-10.9C-43.5-197.5-38.7-192.7-38.7-186.6"/>
		</g>
		<g id="g50" transform="translate(157.0737,259.9678)">
			<path id="path52_00000036944232572796717620000000938253072970599302_" class="st0" d="M-39-186.6c0,3.5-2.8,6.3-6.3,6.3
				c-3.5,0-6.3-2.8-6.3-6.3c0-3.5,2.8-6.3,6.3-6.3C-41.9-192.9-39-190.1-39-186.6"/>
		</g>
		<g id="g54" transform="translate(147.0757,194.2871)">
			<path id="path56_00000103969880965140465090000015791521837309730715_" class="st0" d="M-39.9-49.4c0-1-0.8-1.9-1.9-1.9
				c-1,0-1.9,0.8-1.9,1.9v12.2c0,0.7-0.5,1.3-1.2,1.3c-0.6,0-1.2-0.6-1.2-1.3v-12.2c0-1-0.8-1.9-1.9-1.9c-1,0-1.9,0.8-1.9,1.9v22.1
				c0,2.8,2.2,5.1,4.9,5.1c2.7,0,4.9-2.3,4.9-5.1V-49.4z"/>
		</g>
		<g id="g58" transform="translate(162.3413,189.6563)">
			<path id="path60_00000100347983634751181610000010752052029899551415_" class="st0" d="M-38.6-39.8c0-1-0.8-1.9-1.9-1.9
				c-1,0-1.9,0.8-1.9,1.9v12.2c0,0.7-0.5,1.3-1.2,1.3c-0.6,0-1.2-0.6-1.2-1.3v-12.2c0-1-0.8-1.9-1.9-1.9c-1,0-1.9,0.8-1.9,1.9v22.1
				c0,2.8,2.2,5.1,4.9,5.1c2.7,0,4.9-2.3,4.9-5.1V-39.8z"/>
		</g>
		<g id="g62" transform="translate(178.4077,189.6563)">
			<path id="path64_00000102514357088752746400000012818291888478917049_" class="st0" d="M-37.1-39.8c0-1-0.8-1.9-1.9-1.9
				c-1,0-1.9,0.8-1.9,1.9v12.2c0,0.7-0.5,1.3-1.2,1.3c-0.6,0-1.2-0.6-1.2-1.3v-12.2c0-1-0.8-1.9-1.9-1.9c-1,0-1.9,0.8-1.9,1.9v22.1
				c0,2.8,2.2,5.1,4.9,5.1c2.7,0,4.9-2.3,4.9-5.1L-37.1-39.8z"/>
		</g>
		<g id="g66" transform="translate(193.6714,194.2871)">
			<path id="path68_00000168098894970073143360000000387262462815672217_" class="st0" d="M-35.8-49.4c0-1-0.8-1.9-1.9-1.9
				c-1,0-1.9,0.8-1.9,1.9v12.2c0,0.7-0.5,1.3-1.2,1.3c-0.6,0-1.2-0.6-1.2-1.3v-12.2c0-1-0.8-1.9-1.9-1.9c-1,0-1.9,0.8-1.9,1.9v22.1
				c0,2.8,2.2,5.1,4.9,5.1c2.7,0,4.9-2.3,4.9-5.1L-35.8-49.4z"/>
		</g>
		<g id="g70" transform="translate(147.0757,226.3799)">
			<path id="path72_00000020360856765579208690000001187479818620892847_" class="st0" d="M-39.9-116.5c0-1-0.8-1.9-1.9-1.9
				c-1,0-1.9,0.8-1.9,1.9v12.2c0,0.7-0.5,1.3-1.2,1.3c-0.6,0-1.2-0.6-1.2-1.3v-12.2c0-1-0.8-1.9-1.9-1.9c-1,0-1.9,0.8-1.9,1.9v22.1
				c0,2.8,2.2,5.1,4.9,5.1c2.7,0,4.9-2.3,4.9-5.1V-116.5z"/>
		</g>
		<g id="g74" transform="translate(162.3413,221.749)">
			<path id="path76_00000070827795041995459560000018338804202588929685_" class="st0" d="M-38.6-106.8c0-1-0.8-1.9-1.9-1.9
				c-1,0-1.9,0.8-1.9,1.9v12.2c0,0.7-0.5,1.3-1.2,1.3c-0.6,0-1.2-0.6-1.2-1.3v-12.2c0-1-0.8-1.9-1.9-1.9c-1,0-1.9,0.8-1.9,1.9v22.1
				c0,2.8,2.2,5.1,4.9,5.1c2.7,0,4.9-2.3,4.9-5.1V-106.8z"/>
		</g>
		<g id="g78" transform="translate(178.4077,221.749)">
			<path id="path80_00000001630584921553797320000005693553553605439886_" class="st0" d="M-37.1-106.8c0-1-0.8-1.9-1.9-1.9
				c-1,0-1.9,0.8-1.9,1.9v12.2c0,0.7-0.5,1.3-1.2,1.3c-0.6,0-1.2-0.6-1.2-1.3v-12.2c0-1-0.8-1.9-1.9-1.9c-1,0-1.9,0.8-1.9,1.9v22.1
				c0,2.8,2.2,5.1,4.9,5.1c2.7,0,4.9-2.3,4.9-5.1L-37.1-106.8z"/>
		</g>
		<g id="g82" transform="translate(193.6714,226.3799)">
			<path id="path84_00000021083491186028743260000004807659991626059930_" class="st0" d="M-35.8-116.5c0-1-0.8-1.9-1.9-1.9
				c-1,0-1.9,0.8-1.9,1.9v12.2c0,0.7-0.5,1.3-1.2,1.3c-0.6,0-1.2-0.6-1.2-1.3v-12.2c0-1-0.8-1.9-1.9-1.9c-1,0-1.9,0.8-1.9,1.9v22.1
				c0,2.8,2.2,5.1,4.9,5.1c2.7,0,4.9-2.3,4.9-5.1L-35.8-116.5z"/>
		</g>
		<g id="g86" transform="translate(120.2124,178.8633)">
			<path id="path88_00000021838173255211447710000010720543102110824862_" class="st0" d="M-42.3-17.2c0,2.8,2.2,5.1,4.9,5.1
				c2.7,0,4.9-2.3,4.9-5.1v-61.9c0-1-0.8-1.9-1.9-1.9c-1,0-1.9,0.8-1.9,1.9v51.8c0,0.7-0.5,1.3-1.2,1.3c-0.6,0-1.2-0.6-1.2-1.3
				v-59.8c0-1-0.8-1.9-1.9-1.9c-1,0-1.9,0.8-1.9,1.9V-17.2z"/>
		</g>
		<g id="g90" transform="translate(104.9487,172.0664)">
			<path id="path92_00000170276513870298060450000011295760558736533664_" class="st0" d="M-43.7-3c0,2.8,2.2,5.1,4.9,5.1
				c2.7,0,4.9-2.3,4.9-5.1v-85.5c0-1-0.8-1.9-1.9-1.9c-1,0-1.9,0.8-1.9,1.9v66.9c0,0.7-0.5,1.3-1.2,1.3c-0.6,0-1.2-0.6-1.2-1.3
				v-65.6c0-1-0.8-1.9-1.9-1.9c-1,0-1.9,0.8-1.9,1.9V-3z"/>
		</g>
		<g id="g94" transform="translate(212.187,243.0889)">
			<path id="path96" class="st0" d="M-34.1-151.4c0-1-0.8-1.9-1.9-1.9c-1,0-1.9,0.8-1.9,1.9v59.8c0,0.7-0.5,1.3-1.2,1.3
				c-0.6,0-1.2-0.6-1.2-1.3v-51.8c0-1-0.8-1.9-1.9-1.9c-1,0-1.9,0.8-1.9,1.9v61.9c0,2.8,2.2,5.1,4.9,5.1c2.7,0,4.9-2.3,4.9-5.1
				V-151.4z"/>
		</g>
		<g id="g98" transform="translate(227.4541,249.374)">
			<path id="path100" class="st0" d="M-32.8-164.5c0-1-0.8-1.9-1.9-1.9c-1,0-1.9,0.8-1.9,1.9v65.6c0,0.7-0.5,1.3-1.2,1.3
				c-0.6,0-1.2-0.6-1.2-1.3v-66.9c0-1-0.8-1.9-1.9-1.9c-1,0-1.9,0.8-1.9,1.9v85.5c0,2.8,2.2,5.1,4.9,5.1c2.7,0,4.9-2.3,4.9-5.1
				V-164.5z"/>
		</g>
		<g id="g102" transform="translate(165.9741,248.6709)">
			<path id="path104" class="st0" d="M-38.3-163l-4.8,3.6l4.8,10.9l4.9-10.9L-38.3-163z"/>
		</g>
		<g id="g106" transform="translate(193.9409,259.9678)">
			<path id="path108" class="st0" d="M-35.8-186.6c0,7.9-6.4,14.4-14.4,14.4c-7.9,0-14.4-6.4-14.4-14.4c0-7.9,6.4-14.4,14.4-14.4
				C-42.2-201-35.8-194.6-35.8-186.6"/>
		</g>
		<g id="g110" transform="translate(190.7554,259.9678)">
			<path id="path112" class="st2" d="M-36-186.6c0,6-4.9,10.9-10.9,10.9c-6,0-10.9-4.9-10.9-10.9c0-6,4.9-10.9,10.9-10.9
				C-40.9-197.5-36-192.7-36-186.6"/>
		</g>
		<g id="g114" transform="translate(186.5112,259.9678)">
			<path id="path116" class="st0" d="M-36.4-186.6c0,3.5-2.8,6.3-6.3,6.3c-3.5,0-6.3-2.8-6.3-6.3c0-3.5,2.8-6.3,6.3-6.3
				C-39.2-192.9-36.4-190.1-36.4-186.6"/>
		</g>
		<g id="g118" transform="translate(164.4976,259.9678)">
			<path id="path120" class="st0" d="M-38.4-186.6c0,7.9-6.4,14.4-14.4,14.4c-7.9,0-14.4-6.4-14.4-14.4c0-7.9,6.4-14.4,14.4-14.4
				C-44.8-201-38.4-194.6-38.4-186.6"/>
		</g>
		<g id="g122" transform="translate(161.3159,259.9678)">
			<path id="path124" class="st2" d="M-38.7-186.6c0,6-4.9,10.9-10.9,10.9c-6,0-10.9-4.9-10.9-10.9c0-6,4.9-10.9,10.9-10.9
				C-43.5-197.5-38.7-192.7-38.7-186.6"/>
		</g>
		<g id="g126" transform="translate(157.0737,259.9678)">
			<path id="path128" class="st0" d="M-39-186.6c0,3.5-2.8,6.3-6.3,6.3c-3.5,0-6.3-2.8-6.3-6.3c0-3.5,2.8-6.3,6.3-6.3
				C-41.9-192.9-39-190.1-39-186.6"/>
		</g>
		<g id="g130" transform="translate(147.0757,194.2871)">
			<path id="path132" class="st0" d="M-39.9-49.4c0-1-0.8-1.9-1.9-1.9c-1,0-1.9,0.8-1.9,1.9v12.2c0,0.7-0.5,1.3-1.2,1.3
				c-0.6,0-1.2-0.6-1.2-1.3v-12.2c0-1-0.8-1.9-1.9-1.9c-1,0-1.9,0.8-1.9,1.9v22.1c0,2.8,2.2,5.1,4.9,5.1c2.7,0,4.9-2.3,4.9-5.1
				V-49.4z"/>
		</g>
		<g id="g134" transform="translate(162.3413,189.6563)">
			<path id="path136" class="st0" d="M-38.6-39.8c0-1-0.8-1.9-1.9-1.9c-1,0-1.9,0.8-1.9,1.9v12.2c0,0.7-0.5,1.3-1.2,1.3
				c-0.6,0-1.2-0.6-1.2-1.3v-12.2c0-1-0.8-1.9-1.9-1.9c-1,0-1.9,0.8-1.9,1.9v22.1c0,2.8,2.2,5.1,4.9,5.1c2.7,0,4.9-2.3,4.9-5.1
				V-39.8z"/>
		</g>
		<g id="g138" transform="translate(178.4077,189.6563)">
			<path id="path140" class="st0" d="M-37.1-39.8c0-1-0.8-1.9-1.9-1.9c-1,0-1.9,0.8-1.9,1.9v12.2c0,0.7-0.5,1.3-1.2,1.3
				c-0.6,0-1.2-0.6-1.2-1.3v-12.2c0-1-0.8-1.9-1.9-1.9c-1,0-1.9,0.8-1.9,1.9v22.1c0,2.8,2.2,5.1,4.9,5.1c2.7,0,4.9-2.3,4.9-5.1
				L-37.1-39.8z"/>
		</g>
		<g id="g142" transform="translate(193.6714,194.2871)">
			<path id="path144" class="st0" d="M-35.8-49.4c0-1-0.8-1.9-1.9-1.9c-1,0-1.9,0.8-1.9,1.9v12.2c0,0.7-0.5,1.3-1.2,1.3
				c-0.6,0-1.2-0.6-1.2-1.3v-12.2c0-1-0.8-1.9-1.9-1.9c-1,0-1.9,0.8-1.9,1.9v22.1c0,2.8,2.2,5.1,4.9,5.1c2.7,0,4.9-2.3,4.9-5.1
				L-35.8-49.4z"/>
		</g>
		<g id="g146" transform="translate(147.0757,226.3799)">
			<path id="path148" class="st0" d="M-39.9-116.5c0-1-0.8-1.9-1.9-1.9c-1,0-1.9,0.8-1.9,1.9v12.2c0,0.7-0.5,1.3-1.2,1.3
				c-0.6,0-1.2-0.6-1.2-1.3v-12.2c0-1-0.8-1.9-1.9-1.9c-1,0-1.9,0.8-1.9,1.9v22.1c0,2.8,2.2,5.1,4.9,5.1c2.7,0,4.9-2.3,4.9-5.1
				V-116.5z"/>
		</g>
		<g id="g150" transform="translate(162.3413,221.749)">
			<path id="path152" class="st0" d="M-38.6-106.8c0-1-0.8-1.9-1.9-1.9c-1,0-1.9,0.8-1.9,1.9v12.2c0,0.7-0.5,1.3-1.2,1.3
				c-0.6,0-1.2-0.6-1.2-1.3v-12.2c0-1-0.8-1.9-1.9-1.9c-1,0-1.9,0.8-1.9,1.9v22.1c0,2.8,2.2,5.1,4.9,5.1c2.7,0,4.9-2.3,4.9-5.1
				V-106.8z"/>
		</g>
		<g id="g154" transform="translate(178.4077,221.749)">
			<path id="path156" class="st0" d="M-37.1-106.8c0-1-0.8-1.9-1.9-1.9c-1,0-1.9,0.8-1.9,1.9v12.2c0,0.7-0.5,1.3-1.2,1.3
				c-0.6,0-1.2-0.6-1.2-1.3v-12.2c0-1-0.8-1.9-1.9-1.9c-1,0-1.9,0.8-1.9,1.9v22.1c0,2.8,2.2,5.1,4.9,5.1c2.7,0,4.9-2.3,4.9-5.1
				L-37.1-106.8z"/>
		</g>
		<g id="g158" transform="translate(193.6714,226.3799)">
			<path id="path160" class="st0" d="M-35.8-116.5c0-1-0.8-1.9-1.9-1.9c-1,0-1.9,0.8-1.9,1.9v12.2c0,0.7-0.5,1.3-1.2,1.3
				c-0.6,0-1.2-0.6-1.2-1.3v-12.2c0-1-0.8-1.9-1.9-1.9c-1,0-1.9,0.8-1.9,1.9v22.1c0,2.8,2.2,5.1,4.9,5.1c2.7,0,4.9-2.3,4.9-5.1
				L-35.8-116.5z"/>
		</g>
		<g id="g162" transform="translate(120.2124,178.8633)">
			<path id="path164" class="st0" d="M-42.3-17.2c0,2.8,2.2,5.1,4.9,5.1c2.7,0,4.9-2.3,4.9-5.1v-61.9c0-1-0.8-1.9-1.9-1.9
				c-1,0-1.9,0.8-1.9,1.9v51.8c0,0.7-0.5,1.3-1.2,1.3c-0.6,0-1.2-0.6-1.2-1.3v-59.8c0-1-0.8-1.9-1.9-1.9c-1,0-1.9,0.8-1.9,1.9V-17.2
				z"/>
		</g>
		<g id="g166" transform="translate(104.9487,172.0664)">
			<path id="path168" class="st0" d="M-43.7-3c0,2.8,2.2,5.1,4.9,5.1c2.7,0,4.9-2.3,4.9-5.1v-85.5c0-1-0.8-1.9-1.9-1.9
				c-1,0-1.9,0.8-1.9,1.9v66.9c0,0.7-0.5,1.3-1.2,1.3c-0.6,0-1.2-0.6-1.2-1.3v-65.6c0-1-0.8-1.9-1.9-1.9c-1,0-1.9,0.8-1.9,1.9V-3z"
				/>
		</g>
		<g id="g170" transform="translate(212.187,243.0889)">
			<path id="path172" class="st0" d="M-34.1-151.4c0-1-0.8-1.9-1.9-1.9c-1,0-1.9,0.8-1.9,1.9v59.8c0,0.7-0.5,1.3-1.2,1.3
				c-0.6,0-1.2-0.6-1.2-1.3v-51.8c0-1-0.8-1.9-1.9-1.9c-1,0-1.9,0.8-1.9,1.9v61.9c0,2.8,2.2,5.1,4.9,5.1c2.7,0,4.9-2.3,4.9-5.1
				V-151.4z"/>
		</g>
		<g id="g174" transform="translate(227.4541,249.374)">
			<path id="path176" class="st0" d="M-32.8-164.5c0-1-0.8-1.9-1.9-1.9c-1,0-1.9,0.8-1.9,1.9v65.6c0,0.7-0.5,1.3-1.2,1.3
				c-0.6,0-1.2-0.6-1.2-1.3v-66.9c0-1-0.8-1.9-1.9-1.9c-1,0-1.9,0.8-1.9,1.9v85.5c0,2.8,2.2,5.1,4.9,5.1c2.7,0,4.9-2.3,4.9-5.1
				V-164.5z"/>
		</g>
	</g>
</g>
</svg>
