<?xml version="1.0" encoding="utf-8"?>
<!-- Generator: Adobe Illustrator 26.3.1, SVG Export Plug-In . SVG Version: 6.00 Build 0)  -->
<svg version="1.1" id="affiliation" xmlns="http://www.w3.org/2000/svg" xmlns:xlink="http://www.w3.org/1999/xlink" x="0px"
	 y="0px" viewBox="0 0 256 256" style="enable-background:new 0 0 256 256;" xml:space="preserve">
<style type="text/css">
	.st0{fill:#FFFFFF;}
	.st1{display:none;fill:#FFFFFF;}
	.st2{fill:#0065BD;}
</style>
<rect id="black" width="256" height="256"/>
<circle id="background_x5F_circle" class="st0" cx="128" cy="128" r="128"/>
<path id="background_x5F_rectangle" class="st1" d="M206.9,256H49.1C22.1,256,0,233.9,0,206.9V49.1C0,22.1,22.1,0,49.1,0h157.9
	c27,0,49.1,22.1,49.1,49.1v157.9C256,233.9,233.9,256,206.9,256z"/>
<g id="logo">
	<polygon class="st2" points="48.1,94.9 48.1,179.4 66.4,179.4 66.4,95 86.8,95 86.8,179.4 145.1,179.4 145.1,95.9 165.9,95.9 
		165.9,179.4 185.1,179.4 185.1,95.9 206.1,95.9 206.1,179.4 225.4,179.4 225.4,76.6 126.7,76.6 126.7,160.7 105.5,160.7 
		105.5,76.7 30.6,76.7 30.6,94.9 	"/>
</g>
</svg>
