<?xml version="1.0" encoding="utf-8"?>
<!-- Generator: Adobe Illustrator 26.3.1, SVG Export Plug-In . SVG Version: 6.00 Build 0)  -->
<svg version="1.1" id="affiliation" xmlns="http://www.w3.org/2000/svg" xmlns:xlink="http://www.w3.org/1999/xlink" x="0px"
	 y="0px" viewBox="0 0 256 256" style="enable-background:new 0 0 256 256;" xml:space="preserve">
<style type="text/css">
	.st0{fill:#FFFFFF;}
	.st1{display:none;fill:#FFFFFF;}
	.st2{fill:#C7433F;}
</style>
<rect id="black" width="256" height="256"/>
<circle id="background_x5F_circle" class="st0" cx="128" cy="128" r="128"/>
<path id="background_x5F_rectangle" class="st1" d="M206.9,256H49.1C22.1,256,0,233.9,0,206.9V49.1C0,22.1,22.1,0,49.1,0h157.9
	c27,0,49.1,22.1,49.1,49.1v157.9C256,233.9,233.9,256,206.9,256z"/>
<g id="logo">
	<g>
		<g>
			<g>
				<path class="st2" d="M35.1,104c-1.9-0.3-5.7-1-7-0.6c-0.3,0.3-0.6,0.6-1,1.6v0.6c-0.3,0.3-0.6,0-0.6-0.3
					c0.3-1.3,0.6-2.6,0.6-3.8c0.3-1.3,0.3-2.2,0.6-3.5c0.3-0.3,0.6,0,1,0v1c0,1,0,1.6,0.6,1.9c1,0.6,4.8,1.3,6.7,1.6l3.8,0.6
					c2.9,0.6,5.7,1.6,7.3,3.8c1.3,1.6,1.6,4.2,1.3,6.7c-0.3,2.2-1.3,4.5-2.9,5.7c-1.6,1.6-4.2,1.9-8.3,1.3l-7.7-1.3
					c-3.5-0.6-4.2-0.6-4.5,1.3l-0.3,1c-0.3,0.3-0.6,0-0.6-0.3c0.3-1.6,0.6-2.9,1-4.2c0.3-1.3,0.3-2.6,0.6-4.2c0-0.3,0.6,0,1,0v1
					c-0.3,1.9,0.3,2.2,3.8,2.6l7,1.3c5.4,1,8.9,0,9.9-5.1c1-4.8-2.6-7.3-7.7-8L35.1,104z"/>
				<path class="st2" d="M56.1,77.2c1,0.6,4.5,2.6,5.1,2.9c0,0,0.3,0.3,0,0.6c-0.6,0-2.2,0.3-6.4,1.3L43,84.6
					c-1.3,0.3-4.8,1-5.7,1.3l0,0c0.3,0.3,1,0.6,1.9,1.3l6.4,3.5c1.3,0.6,5.1,2.9,6.4,2.9c0.3,0,1-0.6,1.3-1.3l0.6-1
					c0.3,0,0.6,0.3,0.6,0.3c-0.6,1.3-1.3,2.2-1.9,3.5c-0.6,1.3-1,1.9-1.6,3.2c-0.3,0-0.6,0-0.6-0.3l0.3-1c0.3-0.6,0.3-1.3,0-1.6
					c-1-1-4.5-2.9-5.7-3.8l-8.3-4.8c-1-0.3-1.6-0.6-2.6-0.6c-0.6,0.3-1.3,0.6-1.6,1.3l-0.3,0.3c-0.3,0-0.6-0.3-0.6-0.3
					c0.6-1.3,1.6-2.9,1.9-3.2s0.6-1,0.6-1.3c1.9,0.3,7.7-1,9.3-1.3l4.8-1c3.5-0.6,5.7-1.3,8-1.9l0,0c0-0.3-0.6-0.3-1.3-1l-6.4-3.5
					c-1.3-0.6-5.1-2.9-6.4-2.9c-0.3,0-0.6,0.3-1.6,1.6l-0.6,0.6c-0.3,0-0.6-0.3-0.6-0.3c1-1.3,1.3-2.2,1.9-3.5
					c0.6-1.3,1-1.9,1.6-3.2c0.3,0,0.6,0,0.6,0.3L43,67.3c0,1.3,0,1.9,0.3,2.2c0.6,1,4.5,3.2,5.7,3.8L56.1,77.2z"/>
				<path class="st2" d="M55.8,60.3c-2.6-2.6-2.9-2.9-4.5-1.6l-0.6,0.6c-0.3,0-0.6-0.3-0.6-0.6c1.3-1.3,1.9-1.9,2.9-2.9
					c1-1,1.6-1.9,2.9-3.2c0.3,0,0.6,0.3,0.6,0.6l-0.6,0.6c-1.3,1.6-1,1.9,1.6,4.5l8.6,8.3c2.6,2.6,2.9,2.9,4.5,1.6l0.6-0.6
					c0.3,0,0.6,0.3,0.6,0.6c-1.3,1.3-1.9,1.9-2.9,2.9s-1.6,1.9-2.9,3.2c-0.3,0-0.6-0.3-0.6-0.6l0.6-0.6c1.3-1.6,1-1.9-1.6-4.5
					L55.8,60.3z"/>
				<path class="st2" d="M67.6,47.2c-1.6-1.3-2.6-1.6-3.8-1l-0.6,0.3c-0.3,0-0.6-0.3-0.3-0.6c1-0.3,1.9-1,2.9-1.9
					c1.3-0.6,2.2-1.6,3.5-2.2c0.3,0,0.6,0.3,0.6,0.6l-0.3,0.3c-1,1-1,1.3-1,1.6c0.3,0.3,1.6,1.6,3.8,3.2c3.5,2.6,6.7,4.8,10.2,7.3
					c-0.3-2.6-1-6.1-1.3-8c-0.3-2.6-1-6.4-1.3-8c0-0.6-0.3-1-0.3-1.3s-0.6-0.3-1.6,0.3l-0.6,0.3c-0.3,0-0.6-0.6-0.3-0.6
					c1-0.3,1.9-1,2.9-1.9c1-0.6,1.9-1.3,2.6-1.9c0.3,0,0.6,0.3,0.6,0.6l-1,0.6c-0.6,0.6-1,1-1,1.9c0,1.9,0.3,4.8,1,8.6l0.6,4.5
					c0.6,3.2,1.3,7.3,1.6,9.3c0,0,0,0.3-0.3,0.3c0,0-0.3,0-0.3,0.3c-1-1-2.6-1.9-3.8-2.9L67.6,47.2z"/>
				<path class="st2" d="M95.7,34.1c-1-3.2-1.3-3.8-3.2-3.5h-0.6c-0.3,0-0.3-0.6-0.3-1c1.3-0.3,2.6-0.6,3.8-1l6.1-1.6
					c1.9-0.6,3.8-1.3,4.5-1.3c0.3,0.6,1.3,2.9,1.6,4.2c0,0.3-0.6,0.3-0.6,0.3c-1-1.3-1.6-2.6-3.2-2.2c-0.6,0-1.9,0.3-3.2,0.6
					l-2.2,0.6c-1,0.3-1,0.3-0.6,1.6l1.9,6.4c0.3,1,0.3,1,1.3,0.6l1.9-0.6c1.3-0.3,2.2-0.6,2.6-1c0.3-0.3,0.6-0.6,0.3-1.3v-1.3
					c0-0.3,0.6-0.3,1-0.3c0.3,0.6,0.3,1.9,0.6,3.2c0.3,1.3,1,2.2,1,3.2c0,0.3-0.6,0.3-1,0.3l-0.3-1.3c-0.3-0.6-0.6-1-1.3-1
					c-0.6,0-1.3,0.3-2.6,0.6l-1.9,0.6c-1,0.3-1,0.3-1,1.3l1.3,4.5c0.6,1.6,1,2.9,1.6,3.2c0.6,0.3,1.3,0.3,4.2-0.3
					c2.6-0.6,3.5-1,3.8-1.6c0.6-0.6,1-1.9,1.3-3.8c0.3-0.3,0.6-0.3,1,0c0,1.3,0,3.8-0.3,4.8c-2.9,0.6-5.7,1.6-8.6,2.2l-2.9,1
					c-1.3,0.3-2.6,0.6-4.5,1.3c-0.3,0-0.3-0.6-0.3-0.6l1-0.3c1.9-0.6,1.9-1.3,1-4.5L95.7,34.1z"/>
				<path class="st2" d="M122.3,29c0-3.2,0-3.8-1.6-3.8h-1c-0.3-0.3-0.3-0.6,0-1c1.9,0,4.2-0.3,7.3-0.3c2.2,0,4.2,0.3,5.4,1
					c1.6,1,2.9,2.2,2.9,4.8c0,3.2-2.6,4.8-4.2,5.4c-0.3,0.3,0,0.6,0.3,1c2.6,4.5,4.5,7,6.7,8.9c0.6,0.6,1.3,1,2.2,1
					c0.3,0,0.3,0.3,0,0.3s-1,0.3-1.6,0c-2.9,0-4.5-1-7-4.2c-1-1.3-2.2-3.5-3.2-5.1c-0.6-0.6-1-1-2.2-1c-1.6,0-1.6,0-1.6,0.6v4.2
					c0,3.5,0,3.8,1.9,4.2h0.6c0.3,0.3,0,0.6,0,1c-1.6,0-2.6,0-3.8,0c-1.3,0-2.6,0-4.2,0c-0.3,0-0.3-0.6,0-1h1
					c1.9-0.3,1.9-0.6,1.9-4.2L122.3,29z M124.8,33.8c0,0.6,0,1,0,1s0.6,0.3,2.2,0.3c1.3,0,2.6,0,3.5-1c1-0.6,1.9-1.6,1.9-3.8
					c0-2.6-1.6-5.1-5.4-5.1c-2.2,0-2.2,0-2.2,1V33.8z"/>
				<path class="st2" d="M152,50.1c-2.6-1-4.2-2.2-4.5-2.9c-0.3-1,0-3.2,0.6-4.8c0.3-0.3,0.6,0,1,0c0,1.9,0.3,5.4,3.8,6.4
					c2.6,1,4.5-0.6,5.1-2.6c0.3-1.3,0.6-3.2-1.3-5.4l-2.6-2.9c-1.3-1.6-2.6-3.8-1.6-6.7c1-3.2,4.2-4.8,8.3-3.5c1,0.3,2.2,1,2.9,1.3
					c0.3,0.3,0.6,0.3,1,0.6c0,1-0.3,2.9-0.6,4.2c-0.3,0-0.6,0-1,0c0-1.6,0-4.2-3.2-5.1c-3.2-1-4.5,1-4.8,2.2
					c-0.6,1.9,0.6,3.8,1.6,4.8l1.9,2.6c1.6,1.9,2.9,4.5,1.9,7.3C159.6,50.1,156.1,51.7,152,50.1z"/>
				<path class="st2" d="M178.5,43c1.9-2.9,2.2-3.5,0.6-4.8l-0.6-0.6c0-0.3,0.3-0.6,0.6-0.6c1.3,1,2.2,1.6,3.5,2.2
					c1.3,0.6,2.2,1.3,3.5,2.2c0,0.3,0,0.6-0.3,0.6l-0.6-0.3c-1.9-1-2.2-0.3-3.8,2.6l-6.4,10.2c-1.9,2.9-1.9,3.5-0.3,4.8l0.6,0.6
					c0,0.3-0.3,0.6-0.6,0.6c-1.3-1-2.2-1.6-3.5-2.2c-1.3-0.6-2.2-1.3-3.5-2.2c0-0.3,0-0.6,0.3-0.6l0.6,0.3c1.9,1,2.2,0.3,3.8-2.6
					L178.5,43z"/>
				<path class="st2" d="M192.8,69.9c-2.6,2.2-2.9,2.9-1.6,4.5l0.6,1c0,0.3-0.3,0.6-0.6,0.6c-1.3-1.6-1.9-2.2-2.9-3.2
					c-1-1-1.6-1.9-3.2-3.2c0-0.3,0.3-0.6,0.6-0.6l1,1c1.3,1.3,1.9,1,4.5-1.3l10.9-10.2c0.6-0.6,0.6-0.6,0-1.6l-1.3-1.3
					c-1-1-2.2-2.2-3.5-2.6c-1,0-1.9,0.3-2.9,0.3c-0.3,0-0.6-0.6-0.3-1c1.6-0.6,3.5-1.6,4.5-2.6l0.3,0.3c-0.6,1,0,1.6,1.3,2.9
					l9.3,9.9c1.3,1.3,1.6,1.6,2.6,1.3c0.3,0,0.3,0.3,0.3,0.6c-1.3,0.6-3.5,2.2-4.2,3.2c-0.3,0-0.6-0.3-0.6-0.6
					c0.6-0.6,1.3-1.6,1.3-2.2c0-1-0.6-1.9-1.9-3.5l-1.6-1.6c-0.6-0.6-0.6-0.6-1.6,0L192.8,69.9z"/>
				<path class="st2" d="M210.4,92.5c0.6-0.6,0.6-0.6,0.3-1.6l-2.2-4.5c-0.3-0.6-0.6-1-1.3-1l-3.8,0.3c-1.6,0.3-2.6,0.3-2.9,0.6
					c-0.3,0.3-0.3,0.3-0.3,1.3l0.3,1c0,0.3-0.6,0.6-0.6,0.3c-0.3-1-0.6-1.6-1.3-3.2c-0.3-1-1-1.9-1.6-2.9c0-0.3,0.6-0.6,0.6-0.3
					l0.6,1c0.3,0.6,1,1.3,2.2,1c1.6,0,4.2-0.3,8-0.6l9.6-0.6c1.3,0,1.9-0.3,2.2-0.6c0.6,0.6,1.3,1,1.9,1c0,0.3,0,0.3,0,0.6
					c-1.3,1-2.2,2.2-3.5,3.2l-9.6,10.2c-2.2,2.2-2.6,2.9-1.9,4.2l0.3,1c0,0.3-0.6,0.3-0.6,0.3c-0.6-1.3-1-2.2-1.6-3.8
					c-0.6-1.6-1.3-2.6-1.6-3.5c0-0.3,0.3-0.6,0.6-0.3l0.6,1c0.3,0.6,0.6,1,1,1c0.3-0.3,1-0.6,1.3-1.3L210.4,92.5z M210.4,85.2
					c-1,0-1,0-0.3,1L212,90c0.3,1,0.6,1,1.3,0.3l4.2-3.8c0.6-0.6,1.3-1.3,1.6-1.6l0,0c-0.3,0-1,0-2.2,0L210.4,85.2z"/>
				<path class="st2" d="M208.5,115.2c-0.3-2.9,0.3-4.8,0.3-5.4c0.6-0.6,2.9-1.3,4.5-1.6c0.3,0,0.3,0.6,0.3,0.6
					c-1.6,0.6-4.8,2.6-4.2,6.4c0.3,2.9,2.6,3.8,4.5,3.5c1.6-0.3,3.2-0.6,4.2-3.5l1.6-3.5c1-1.9,2.6-4.2,5.1-4.5
					c3.2-0.3,6.1,1.6,6.7,6.1c0,1,0,2.2,0,3.2c0,0.3,0,1,0,1.3c-0.6,0.3-2.6,1-3.8,1.3c-0.3,0-0.3-0.6-0.3-1
					c1.6-0.6,3.5-1.9,3.2-5.1c-0.6-3.2-2.9-3.5-4.2-3.5c-1.9,0.3-3.2,2.2-3.5,3.5l-1.6,3.5c-1,2.2-2.6,4.5-5.7,5.1
					C212,121.9,209.1,119.7,208.5,115.2z"/>
			</g>
			<g>
				<path class="st2" d="M45,152.6c2.2-1,2.9-1.3,2.6-2.6l-0.3-1c0-0.3,0.6-0.3,0.6-0.3c0.6,1.6,1.6,3.8,2.9,6.7
					c0.6,1.9,1.3,3.8,1,5.7c-0.3,1.6-1,3.2-3.2,3.8c-2.2,1-3.8,0-5.4-1.6c-0.3,0-0.3,0.3-0.3,0.6c0.3,1.9-0.3,4.8-3.8,6.1
					c-3.5,1.3-7-0.3-9.3-6.1c-0.3-1-1-2.6-1.3-3.8c-0.6-1.3-1-2.6-1.3-3.5c0-0.3,0.6-0.3,0.6-0.3l0.3,0.6c1,1.6,1.3,1.6,4.5,0.3
					L45,152.6z M34.4,159.3c-1.3,0.3-2.6,1-3.2,1.9c-0.6,1-0.3,1.9,0,2.9c1,2.9,3.2,4.5,6.1,3.2c2.6-1,4.8-3.2,3.2-8.3
					c-0.6-1.6-1-1.6-1.6-1.6L34.4,159.3z M41.8,156.4c-1,0.3-1,0.3-0.3,1.9c1.3,3.2,2.9,4.5,5.7,3.5c3.2-1.3,3.5-3.8,2.6-6.4
					c-0.3-0.6-0.6-1.3-0.6-1.3c-0.3-0.3-0.3-0.3-1,0L41.8,156.4z"/>
				<path class="st2" d="M55.2,175.9c2.9-2.2,3.2-2.6,2.2-4.2l-0.3-0.3c0-0.3,0.6-0.6,0.6-0.3c1,1.3,1.6,2.2,2.2,3.2l3.8,5.1
					c1.3,1.6,2.6,3.2,2.9,3.5c-0.3,0.6-2.2,2.2-3.2,3.2c-0.3,0-0.6-0.3-0.6-0.6c1-1.3,1.6-2.2,1-3.8c-0.3-0.6-1-1.6-1.9-2.9
					l-1.6-1.9c-0.6-1-0.6-0.6-1.6,0l-5.1,3.5c-0.6,0.6-0.6,0.6,0,1.6l1.3,1.6c1,1.3,1.6,1.9,1.9,2.2s0.6,0.3,1.3,0l1.3-0.6
					c0.3,0,0.6,0.3,0.6,0.6c-0.6,0.6-1.9,1.3-2.9,1.9c-1,0.6-1.9,1.6-2.6,1.9c-0.3,0-0.6-0.3-0.6-0.6l1-1c0.3-0.3,0.6-1,0.3-1.6
					c-0.3-0.3-0.6-1.3-1.3-2.2l-1.3-1.6c-0.6-1-0.6-1-1.3-0.3l-3.8,2.9c-1.3,1-2.2,1.9-2.6,2.6c0,0.6,0,1.3,1.9,3.8
					c1.6,1.9,2.2,2.9,2.9,3.2c0.6,0.3,2.2,0.3,4.2,0c0.3,0,0.3,0.6,0.3,1c-1,0.6-3.5,1.3-4.8,1.6c-1.6-2.6-3.5-4.8-5.4-7.3l-1.9-2.6
					c-1-1.3-1.6-1.9-2.9-3.5c0-0.3,0.3-0.6,0.6-0.6l0.6,1c1.3,1.3,1.9,1.3,4.5-1L55.2,175.9z"/>
				<path class="st2" d="M71.5,194.4c1.9-2.6,2.2-3.2,1.3-4.2l-1-0.6c0-0.3,0.3-0.6,0.6-0.6c1.6,1,3.5,2.2,6.1,4.2
					c1.6,1.3,3.2,2.6,3.8,4.2c1,1.6,1,3.5-0.6,5.4c-1.9,2.6-4.8,2.6-6.7,1.9c-0.3,0-0.3,0.3-0.3,0.6c-0.3,5.1-0.6,8.3,0.3,11.2
					c0,0.6,0.6,1.6,1.3,2.2c0,0,0,0.3-0.3,0.3s-0.6-0.3-1.3-0.6c-2.2-1.6-3.2-3.5-3.2-7.3c0-1.6,0.3-4.2,0.3-6.1
					c0-1-0.3-1.6-1.3-2.2c-1.3-1-1.3-1-1.6-0.3l-2.6,3.5c-2.2,2.9-2.2,3.2-1,4.5L66,211c0,0.3-0.3,0.6-0.6,0.6
					c-1.3-1-2.2-1.6-3.2-2.6c-1.3-1-2.2-1.6-3.5-2.2c0-0.3,0-0.6,0.3-0.6l0.6,0.3c1.6,1,1.9,0.6,4.2-2.2L71.5,194.4z M70.8,199.9
					c-0.3,0.6-0.6,0.6-0.6,1c0,0,0.3,0.6,1.9,1.6c1,0.6,2.2,1.3,3.2,1.3c1.3,0,2.6-0.6,3.8-2.2c1.6-2.2,1.6-5.1-1.3-7.3
					c-1.6-1.3-1.9-1.3-2.2-0.3L70.8,199.9z"/>
				<path class="st2" d="M105.3,226.4c-0.3,1.3-0.3,2.2,0,2.6v0.3c-0.3,0-1-0.3-1.6-0.3c-1.9,0-4.2-0.3-6.1-1
					c-3.8-1.3-7-3.5-8.6-6.7c-1.3-2.6-1.3-5.1-0.6-8c1-2.6,2.6-5.1,5.4-6.7c2.9-1.6,6.4-1.9,11.2-0.3c1.9,0.6,3.5,1.6,3.8,1.9
					c0.6,0.3,1.6,1,1.9,1c-0.3,1-0.6,2.9-1,4.8c-0.3,0.3-0.6,0-1-0.3c0.3-3.8-1.9-5.7-5.1-6.7c-6.1-1.9-10.2,1.6-11.8,6.4
					c-1.9,6.1-0.3,11.8,6.1,14.1c1.9,0.6,3.2,0.6,3.8,0.3c0.3-0.3,0.6-0.6,1-1.6l0.3-1.3c1-2.6,1-2.9-1-3.8l-1.3-0.6
					c-0.3-0.3,0-0.6,0.3-0.6c1,0.3,2.6,1,4.5,1.6c1.3,0.3,2.2,0.6,3.5,1c0.3,0.3,0,0.6-0.3,1h-0.6c-1.3-0.3-1.6,0.6-2.2,2.2
					L105.3,226.4z"/>
				<path class="st2" d="M122.3,214.9c0-3.5,0-3.8-1.9-4.2h-0.6c-0.3,0,0-0.6,0-1c1.6,0,2.6,0,3.8,0h6.4c2.2,0,4.2,0,4.5,0
					c0.3,0.6,0.3,2.9,0.6,4.5c0,0.3-0.6,0.3-1,0c-0.6-1.6-0.6-2.9-2.6-3.2c-0.6-0.3-1.9-0.3-3.2-0.3h-2.6c-1,0-1,0-1,1.3v6.7
					c0,1,0,1,1,1h1.9c1.3,0,2.6,0,2.9-0.3c0.3,0,0.6-0.3,1-1.3l0.3-1.3c0.3-0.3,0.6-0.3,1,0c0,1,0,2.2,0,3.5c0,1.3,0,2.6,0,3.2
					c0,0.3-0.6,0.3-1,0l-0.3-1.3c0-0.6-0.3-1-1-1.3c-0.3,0-1.3-0.3-2.6-0.3h-1.9c-1,0-1,0-1,1v4.8c0,1.9,0,2.9,0.6,3.5
					c0.3,0.3,1,0.6,4.2,0.6c2.6,0,3.5,0,4.2-0.6c0.6-0.3,1.6-1.6,2.2-3.2c0.3-0.3,0.6,0,1,0.3c-0.3,1.3-1,3.8-1.6,4.8
					c-2.9,0-6.1,0-8.9,0h-2.9c-1.6,0-2.6,0-4.5,0c-0.3,0-0.3-0.6,0-1h1c1.9-0.3,2.2-0.6,2.2-4.2L122.3,214.9z"/>
				<path class="st2" d="M168.2,209.4c-0.6-1.6-1.9-5.4-1.9-6.7c0-0.3,0.6-0.6,1.6-1.3l0.3-0.3c0-0.3,0-0.6-0.3-0.6
					c-1,0.3-1.9,0.6-3.2,1.3c-1.3,0.3-2.2,1-3.8,1.3c-0.3,0.3,0,0.6,0.3,1h0.6c1.3-0.3,1.9-0.3,2.2,0c1,0.6,2.6,4.8,3.2,6.4l2.6,6.7
					c0.3,0.6,0.3,1.3,0.3,1.3l0,0c-1.9-1-4.2-2.2-7.3-3.8L158,212c-1.6-0.6-6.7-3.5-8-4.8c-0.3,0.3-1,0.3-1.3,0.6
					c-0.6,0.3-2.2,1-3.5,1.3c-0.3,0.3,0,0.6,0.3,1h0.6c0.6-0.3,1.6-0.3,2.2,0c1,0.3,1.3,1.3,1.6,1.9l3.5,8.9
					c0.6,1.6,1.9,5.4,1.9,6.7c0,0.3-0.3,0.6-1.3,1.3l-1,0.3c0,0.3,0,0.6,0.3,0.6c1-0.3,1.9-1,3.2-1.3s2.2-1,3.8-1.3
					c0.3-0.3,0-0.6-0.3-1l-1,0.3c-1,0.3-1.6,0.3-1.9,0c-1-0.6-2.6-4.8-2.9-6.4l-2.6-6.7c-0.3-1-0.6-1.6-0.6-2.2l0,0
					c1,0.3,4.2,2.2,5.1,2.9l10.2,5.4c3.8,2.2,5.1,2.9,5.7,3.2c0.3,0,0.3-0.3,0.3-0.6c-0.3-0.6-1.9-4.5-2.2-5.4L168.2,209.4z"/>
				<path class="st2" d="M194.4,208.8c-2.2,1.9-4.2,2.2-4.8,2.6c-0.6-0.3-2.6-1.9-3.8-2.9c0-0.3,0.3-0.6,0.6-0.6
					c1.6,1,4.8,2.6,7.7,0c2.2-1.9,1.9-4.2,0.6-5.7c-1-1.3-2.2-2.2-5.1-1.9l-3.8,0.3c-1.9,0.3-4.8,0-6.4-2.2
					c-1.9-2.6-1.9-6.1,1.6-8.9c0.6-0.6,1.9-1.3,2.6-1.6c0.3-0.3,1-0.3,1-0.6c0.6,0.3,2.2,1.6,3.2,2.9c0,0.3-0.3,0.6-0.6,0.6
					c-1.3-1-3.5-1.9-6.1,0c-2.6,2.2-1.6,4.2-0.6,5.4c1.3,1.6,3.5,1.6,4.8,1.3l3.2-0.3c2.6-0.3,5.4-0.3,7.3,2.2
					C198.3,202.1,197.9,205.9,194.4,208.8z"/>
				<path class="st2" d="M198.3,179.4c-2.9-1.9-3.5-2.2-4.8-1l-0.6,0.6c-0.3,0-0.6-0.3-0.6-0.6c1-1.3,1.6-2.2,2.6-3.5
					c0.6-1,1.3-1.9,2.2-3.5c0.3,0,0.6,0.3,0.6,0.3l-0.3,0.6c-1,1.6-0.6,2.2,2.2,4.2l9.6,7c2.9,1.9,3.2,2.2,4.8,0.6l0.6-0.6
					c0.3,0,0.6,0.3,0.6,0.6c-1,1.3-1.6,2.2-2.6,3.2c-1,1.3-1.6,2.2-2.2,3.5c-0.3,0-0.6,0-0.6-0.3l0.3-0.6c1-1.6,0.6-1.9-2.2-4.2
					L198.3,179.4z"/>
				<path class="st2" d="M225.7,165.4c-1,2.6-2.6,3.8-2.9,4.5c-1,0-3.2-0.3-4.8-1c-0.3-0.3,0-0.6,0.3-0.6c1.9,0,5.4,0,6.7-3.5
					c1-2.6-0.3-4.5-2.2-5.4c-1.3-0.6-2.9-1-5.4,1l-3.2,2.2c-1.6,1.3-4.2,2.2-6.7,1.3c-2.9-1.3-4.5-4.5-2.9-8.3c0.3-1,1-1.9,1.6-2.9
					c0.3-0.3,0.6-0.6,0.6-1c1,0,2.9,0.3,4.2,1c0,0.3,0,0.6-0.3,1c-1.6,0-4.2,0-5.1,2.9c-1.3,3.2,0.6,4.5,2.2,5.1
					c1.9,0.6,3.8-0.3,4.8-1.3l2.6-1.9c1.9-1.6,4.5-2.9,7.3-1.6C225.7,157.7,227.3,161.2,225.7,165.4z"/>
			</g>
		</g>
		<path class="st2" d="M128,14.9C65.4,14.9,14.9,65.4,14.9,128S65.4,241.1,128,241.1S241.1,190.6,241.1,128S190.6,14.9,128,14.9z
			 M128,237.9c-60.7,0-109.9-49.2-109.9-109.9S67.3,18.1,128,18.1S237.9,67.3,237.9,128S188.7,237.9,128,237.9z"/>
		<g>
			<path class="st2" d="M154.8,182.9c-2.2,1.6-3.8,4.2-4.8,6.4c2.2,1.6,7,3.8,15,5.1c3.5-1.9,6.4-3.8,9.6-6.4
				c-2.9-0.6-5.7-2.2-7.7-3.2C163.5,182.6,159,179.4,154.8,182.9z"/>
			<path class="st2" d="M101.8,167.9c-2.9-0.6-4.2-0.6-8.3,0.6c-7,2.2-18.2,14.7-18.2,14.7c3.2,3.2,7,6.1,10.9,8.6
				c3.2-3.8,11.2-13.1,18.8-13.1c4.2,0,6.4,1.6,9.6,3.8c0.3-0.3,0.6-1,1-1.3C109.5,177.8,101.8,167.9,101.8,167.9z"/>
			<path class="st2" d="M125.8,178.8c-3.5,0.3-5.7,3.2-7.3,6.1c6.4,4.5,12.1,9.6,20.4,11.8c6.4,1.9,8.9,2.6,15.6,2.9
				c2.9-1,5.7-2.2,8.6-3.8c-4.2-0.6-9.6-2.6-14.1-4.5C141.4,187.4,132.8,177.8,125.8,178.8z"/>
		</g>
		<path class="st2" d="M106.3,182.6c-9.6,0-13.4,8-16.3,11.5c11.2,6.4,24.3,10.2,38,10.2c7.3,0,14.4-1,21.1-2.9
			c-4.2-0.3-9.6-1.3-14.1-3.2C124.5,193.8,113.3,182.6,106.3,182.6z"/>
		<path class="st2" d="M174.3,175.9c-6.4-8-11.2-9.6-13.7-8.9c-2.6,0.6-1.9,2.6-4.8,5.7c-2.6,3.2-8.6,6.7-9.9,7.3
			c1,1,2.2,2.6,2.6,2.9c2.9-2.9,7-5.4,10.5-5.4c6.7,0,8.6,5.4,17.6,8.6c1.9-1.6,3.8-3.2,5.4-4.8
			C182.3,181.7,177.8,180.7,174.3,175.9z"/>
		<g>
			<path class="st2" d="M159.3,110.4c-0.3-0.3,0-1-0.3-1.3c-0.3-1.3-1-2.6-1-4.2c-0.3-1,0.6-1.3,1.3-1.6c0.3-1,0.3-1.9,0-2.6
				c-0.3-1.3-2.2-1.6-2.2-3.2c0-1-0.6-1.9-0.6-3.2c-0.6-1.6-0.3-3.5-0.6-5.1c-0.3-1.9-0.3-3.8-0.6-5.7c-0.3-2.2-0.6-4.5-1.3-6.7
				c-0.3-1.9-1-3.8-1.9-5.4c0-1.3-1.3-2.2-0.6-3.5c1-1.6,1.9-3.2,2.6-4.8c0.6-1,0.3-2.2,0.6-3.5c0-1,0.3-1.9,0-2.9
				c-0.3,0-0.3,0-0.3,0c-0.3,1.6-2.2,2.2-3.5,3.2c-1.9,0.6-3.8,0.3-6.1,0.6c-1.3,0-2.2,1.3-3.8,0.3c-0.6-0.3-1.3-0.6-2.2-1
				c-1.6,0-3.2,0-4.5,0c-2.2,0-3.8-1.3-6.1-1c-2.9,0-5.1,1.3-8,1c-2.6-0.6-5.1,0.3-7,1.3c-0.6,0-1.6-0.6-2.6-0.6
				c-2.2-1-5.1,0.6-6.7-1c-1-1-1.6-1.9-1.6-3.2c-0.3,0.3-0.6,0.6-0.6,1c-0.6,1-1,1.9-1,2.9c-0.3,1.3,0,2.9,0.3,4.2
				c0.3,2.2,1.9,4.2,1.6,6.4c-0.3,1-1,2.2-1.3,3.2c-1,1.3-0.6,2.6-1,4.2c-1,2.6-0.3,5.1,0,8c-1,3.2-1.3,6.4-1.6,9.6
				c-0.3,2.2,0,4.5-1,6.4c-1.3,1.3-2.2,2.2-1.9,4.2c0,1,0.6,1.6,1,2.2c0.3,1.6,0.3,3.5,0,5.1c0,1.3-1.3,1.9-1.6,2.9
				c-0.3,1.3,0.6,1.9,1.3,2.6c0.3,0.6,0.3,1.9,0.6,2.6c0.3,2.2,0.6,4.2,1,6.4c0.6,3.2,1,6.4,1.6,9.3c0.6,3.8,1.6,7.3,2.6,10.9
				c1.3,2.6,1.6,5.4,2.6,8c0.6,2.2,1.9,4.2,1.9,6.4c0,0.3,0,0.6,0.3,0.6c0,1.6-1.3,2.6-1,4.2c0,0,4.8,8.3,10.2,11.8
				c2.2-2.6,5.4-4.8,9.6-4.8c6.7,0,12.8,6.7,19.2,11.8c0.3-0.6,1-1,1.6-1.6c-2.2-2.9-11.5-13.7-19.2-15c0,0,0.6-1.6,0-2.2
				c-0.6-1-0.6-1.6-0.6-2.6c0-0.3-0.3-1.3,0-1.6c1.3,0.3,1.6,1.6,2.2,2.6h0.3c0,0,0.3,0,0.3-0.3c0-1.3,1.6-1.9,2.2-2.6
				c0.3,0,0.3,0,0.6,0.3c0.3,1.3,0,2.9,1,3.8c0.3,0.3,0,0.6-0.3,1c0,1-0.6,0.6-0.6,0.6c5.7,2.9,8.9,6.1,12.1,9.9
				c2.2-1.6,10.2-6.7,9.9-11.8c0-1.6-1-1.6-1.3-2.6c-0.6-0.6-1.3-1.3-1.6-2.2c-1-1.6-1.6-3.5-1.3-5.7c0.6-1.6,0.6-3.2,1.3-4.8
				c1-2.9,1.6-5.7,2.2-8.6c1-3.8,2.2-8,2.6-12.1c0.6-1.3,0.6-2.9,1-4.5c0.6-1.3,0.3-3.2,0.6-4.8c0.3-1.3,0-2.6,0.6-3.5
				c0.3-0.6,0-1.3,0.3-1.9c0-1,1-0.6,1-1.6c0.6-0.3,1-1.3,1.3-1.6C161.5,112.4,160.3,111.4,159.3,110.4z M155.8,99.3
				c0.6,0.3,1.3,0.3,1.6,1c0.6,0.3,0.6,1,1,1.6c0,0.3,0,1-0.3,1c-1.3,0-2.2-0.6-2.9-1.3C154.8,100.5,155.5,99.9,155.8,99.3z
				 M149.1,114.9c0,1.9,0,4.2-0.3,5.7c-0.3,0.3,0,0.6,0,1c-0.3,1.9,0,4.2-0.3,6.1h-0.3c-0.6-1-2.2-1.3-2.2-2.6c1-3.2,0.6-7,1-10.5
				c0.3-2.9,0.3-6.1,0-8.9c0,0,0-0.3,0.3-0.3c1,0.3,1.3,1.3,2.2,1.6C149.1,109.8,148.8,112,149.1,114.9z M105.3,89.7
				c-1,0-1-1-1.3-1.6c-0.3-0.3-0.3-1-0.3-1.3c0.3-0.3,0.3-0.6,0.3-1c-0.3-0.3-1,0-1-0.6c0-0.6-0.3-1.6,0.6-1.9
				c0.6-0.3,1.6,0,2.6-0.6c0,0,0-0.3-0.3-0.3c-1,0-1.6,0.3-2.2,0.6c-0.3,0-0.3-0.3-0.3-0.6c0-2.2-0.3-4.2,0.3-5.7c0-0.3-0.3-1,0-1.3
				c1-0.3,1.3,1.3,2.2,1l0,0c-0.6-0.6-1.3-1.3-1.9-1.3c-0.3-0.6,0-1.6,0-2.2c0.3-0.3,0.3-0.6,0.6-0.3c0.6,0.3,1,1,1.6,1.3
				c0.3,0,0.3-0.3,0.3-0.6c-0.6-1-2.6-1-1.6-2.6c0-0.6,0.3-1.3,1-1.3c0.6,0.3,1,1,1.6,1.3h0.3c-0.6-0.6-1-1.3-0.6-1.9
				c0.3-0.3,1,0.3,1.3,0.3l0.6,0.3c0.6,0.3,1.6,0.6,1.6,1.6c0.6,1,0.6,1.9,1.6,2.6c0.3,0.6,0.6,1,1,1.3c-0.3,0.3-0.6,0.3-0.6,0
				c-0.6-0.3-1-1.3-1.6-1.9c-0.3,0-0.3,0-0.3,0.3c0.3,0.6,0.3,1.6,1,1.9v0.6c-1,0-2.2-1-2.9-1.6c0,0-0.3-0.3-0.6,0
				c-0.3,0.3,0,0.6,0,0.6c0.6,1,1,1.9,1.9,2.2c0.3,0,0.3,0.6,0,0.6c0,0.6-0.6,0.3-1,0.3c-0.6-0.6-1.3-1.3-1.9-1.6h-0.3
				c0,0.6,0.6,1,0.6,1.3c0.6,1,1.9,1,1.6,2.2c0,0.3,0,0.6-0.3,0.6c-1.6-0.3-3.8-1-5.1,0.6c0,0.3,0,0.3,0.3,0.3c1.6,0,2.9,0,4.2,1
				c0.3,0.3,0.6,0.6,0.3,1c-0.3,0-0.6,0-1,0.3s-1,0.6-1.6,1v0.3c0.6-0.3,1.6-0.6,2.2-1c0.3,0,0.6,0,0.6,0.3s-0.3,0.3-0.6,0.6
				c0-0.6-1.3-0.3-1.3,0.6h0.3c1,0,1.6-1.6,2.6-1.3c0.3,0,0.3,0.3,0.3,0.6c-1.3,1-3.2,1.6-3.5,3.5v0.3c0.3,0,0.3-0.3,0.6-0.6
				c1.3-1,2.2-1.9,3.8-2.2c0,0,0.3,0,0.3,0.3c0,0.6-1.3,1.3-1.3,1.9c-0.3,0.6-0.3,1.3-0.6,1.9c0,0,0.3,0.3,0.3,0
				c0.6-1,1.3-2.6,2.6-3.2c0,0.3,0.3,0,0.6,0.3c0.6,0,1.6,0.3,1.9,1c0,1.6-0.6,3.5,0,4.8c0.3-0.3,0-0.6,0.3-1c0-1.3,0.6-1.9,1-3.2
				c0-0.3,0.6-0.3,0.6-0.3c0.6,0.3,0.6,1,1.3,1.3c0.3-0.3,0-1.3,0-1.6c0.3-0.3,0.6-0.3,1-0.3c0,0,0.3,0,0.6,0c0.3-0.3,0-0.6,0-0.6
				c0.6-0.6,1-1.9,2.2-1.6l0.3,0.3c0,0.6,0,1.6-0.3,2.2c-0.3,0-0.3-0.6-1-0.3c-0.3,0.3,0,0.6,0,1c0.3,0.6,0.6,1.3,1,1.9
				c0,0.3,0.3,0.3,0,0.6c-1,0-1.3-1-1.6-1.3c-0.3-0.3-0.6,0-0.6,0.3c-0.3,1,0.6,1.9,1.3,2.6c0.3,0,0.6,0.3,0.6,0.3
				c0,0.3-0.3,0.6,0,1l0.3,0.6c-0.3,0.3-1,0-1.6-0.3c-1-0.6-1.9-1.9-2.2-3.2c0,0-0.3-0.3-0.3,0c-0.3,1,0,1.6,0.6,2.2
				c0.6,0.3,1,1,1,1.6c-0.3,0.3-0.6,0.3-1,0.3c-1-0.6-1-1.9-1-2.9c0,0-0.3-0.3-0.3,0c-0.3,0.6-0.3,1.3-0.3,1.6s0.3,1.3-0.3,1.6
				c-0.6,0.3-1.3,0-1.9,0.3c-0.6-0.3-0.6-1.3-0.6-1.9c0-0.3-0.3,0-0.3,0c-0.6,0.3-0.6,1.9-1.6,1.6c-0.6-0.3-1.6-0.6-2.2-1.6
				c-0.3-1,0.6-1.3,0.6-2.2c0.3-0.6,1-1.3,1.3-1.9c-0.3-0.3-1,0.3-1.3,0.6c-0.6,1-1.3,1.9-1.6,2.9c0,0.3-0.3,0.3-0.6,0.3
				c-1-1-3.2-1.6-2.9-3.2c0.3-0.3,0.3-0.6,0.6-1C106,88.7,105.6,89.4,105.3,89.7z M127.7,93.2h0.3c0.3-0.6,0.3-1.9,0.3-2.6
				c0-2.2,0.3-4.5,0.6-6.4c0-0.3,0-1,0.6-1c0.6,0,1.6,0.3,1.9,1c0.3,2.9,0,6.1-1,8.6c-0.3,1.3-1.3,2.2-1.9,3.5
				c-0.3,0.3-0.3,1.3-1.3,1.3c-1.9-2.6-3.2-5.7-3.2-9.3c0-1.3-0.6-3.2,0.3-4.2c1-0.3,1.6-1.3,2.6-1v0.3
				C127.7,86.5,126.7,90,127.7,93.2z M136,102.4c-1.6-0.6-3.2-2.2-3.2-4.2c0-0.3,0.3-0.3,0.3,0l1.6,1.6c1.3,0.6,2.6,1.6,3.2,2.9
				c0,0.3,0.3,1-0.3,1.3c-0.6,0.6-1.3,1-2.2,1c-1.6-0.3-3.2-1.6-3.8-2.9c-0.3-1-0.3-2.2,0-3.2c0.6,0,0.3,0.6,0.6,1
				c0.6,1.3,1.9,3.2,3.5,3.5C136.3,102.8,136,102.4,136,102.4z M135.3,87.4c-0.3,0.3-0.6,0.6-1,1c-0.3-0.6,0.3-1.3,0.3-1.6v-0.3
				c-0.3-0.3-0.6,0-0.6-0.6c0-0.3,0-0.3,0-0.6h0.6c0.6,0.6,1.6,1.6,2.6,2.2c0,0.6,0,1.3-0.3,1.9c0,0.6-0.6,1.3-0.6,1.9
				c0,0.3,0.3,0.3,0.3,0c0.6-1,1-1.9,1.9-2.9c1-0.3,1.9,0,2.9,0c0.6,0.3,0.3,1.3,0.6,1.9c0,0.3,0,1,0.3,1.3c0.6,0,0.6-1,0.6-1.3
				c0.3-1,0-1.6,0-2.6c0-0.3,0-0.3,0-0.6c0.3-0.3,0.6-0.3,1,0c0.6,0.3,1,1.3,1.6,1.6c0.3,0,0-0.3,0-0.6c0-0.6-1-1.3-1-1.9
				c0-0.3,0.3-0.3,0.6-0.3c0.6,0.3,0.3,1.3,1,1.6c0.3,0,0-0.3,0-0.6c-0.3-0.6-0.6-1.3-0.6-1.9c0.3-0.3,0.6,0,0.6,0
				c1,0.3,1.6,0.6,2.6,1.3c1,0.6,1,1.9,1.3,2.9c-0.3,1,0.6,2.2-0.3,2.9c-0.6,0.3-1.3,1-1.9,1.3c-0.3-0.3-0.3-0.6-0.6-1
				c-0.6-0.6-1-2.2-1.9-1.9c-0.3,0.3,0.3,1,0.3,1.6c0,1,1,1.9,0.3,2.9c-1-0.3-1.3,1-2.2,0.6c-1-0.3-1.9,1.6-2.9,0
				c0-1.3,0-2.6-0.3-4.2c0-0.3-0.3-1-0.6-1.3c-0.3,0.3,0,1-0.3,1.6c0,1.3-0.3,2.6-1,3.5c-0.3,0.3-0.6,0.6-1,0.3c0,0-0.3,0-0.3-0.3
				c0-0.6,0.3-1.3,0.3-1.9c0-0.3-0.3,0-0.3,0c-0.6,1-1.6,2.2-2.9,1.9c-0.3-0.3-0.3-0.3-0.6-0.3c0.3-0.6,1.3-1.3,1.3-1.9
				c-0.6,0-1,0.6-1.6,1c-0.3-2.2,1.9-3.5,2.2-5.7C135.7,87.4,135.3,87.4,135.3,87.4z M135.3,76.9c1-1.3,2.6-1.6,4.2-1.9
				c1.6,0,3.5,0.3,4.5,1.6c1.3,1.6,1.6,3.8,1,5.7c-1,1.9-2.9,3.5-5.1,3.5c-1,0.3-1.6-0.3-2.6-0.6c-1.3-0.6-1.6-1.9-2.2-2.9
				C134.1,80.4,134.4,78.5,135.3,76.9z M152,102.4c0,0,0.3-0.3,0.6-0.3c0.6,0,1,0,1.6,0.3c0.3,0.6,0.6,1.6,0.3,2.2
				c-1,0.3-1.6,0-2.2-0.6C151.6,103.4,152.3,102.8,152,102.4z M152.6,101.2c-1-0.3-1.9-1.3-2.6-2.2c-0.3-1-1-1.6-1-2.6
				c0-0.6-0.3-1.3,0-1.9l0,0c0.6,1.6,1.9,2.9,3.2,4.2c0.3,0.3,1,0.3,1.3,1C153.6,100.2,153.2,100.9,152.6,101.2z M144.9,121
				c-1,0.3-1.6-1-2.6-1.3c-1-1.3-1.9-2.6-1.9-4.2l0.3-0.3c0.6,1,1.3,2.2,2.6,2.6c0.3,0,0.3,0,0.3-0.3c-0.3-1-1-1.9-0.6-2.9
				c0.6,0,1,1,1.9,1c0.3,0.3,0.3,1.3,0.3,1.6C144.9,118.4,145.2,120,144.9,121z M144.6,141.7c0-2.6,0.6-5.4,0.6-8
				c0.3-0.3,1-0.6,1.6-0.6c0,0.3,0,1,0,1.6c0,2.6-0.3,5.1-0.3,8c0,1-0.3,2.2-0.3,3.2c-0.3,0.6-0.3,1.3-0.3,2.2c0,2.2-0.6,4.2-1,6.1
				c-0.3,0.3-0.3,1.3-1,1.3c-0.6-0.6-0.3-1.6-0.3-2.2c0.3-0.6,0-1.6,0.3-2.2C144,147.8,144.9,144.9,144.6,141.7z M144,160.3
				c0.6,1.3,0.6,2.6,1,3.5c0,0.6,0.3,1.3-0.3,1.6c-1.6-0.3-2.9,0.3-4.2,1.3c-0.3,0-0.6,0-1-0.3c-0.3-0.6,0-1.3,0-1.9
				c0.3-0.6,0-1.6,0.6-2.2c0.3-0.3,1-0.3,1-1c-0.6-0.3-1.6,0-1.9-0.6c-0.6-1-1.3-1.9-1.3-3.2c1-1,2.6-1.3,3.8-1c0.3,0.3,1,0.3,1,0.6
				C143.6,158.7,143.6,159.6,144,160.3z M141.7,167.9c0.3-1,1.3-1,1.9-1.3c0.3,0,0.6,0,0.6,0.3c-0.3,1.9-0.6,3.8-1.9,5.4
				c0,0.3-0.3,0.3-0.6,0.3s0-0.3,0-0.6C142.4,170.8,142.4,169.2,141.7,167.9z M138.5,171.1c-1.3-0.3-2.9-1.3-2.9-2.9
				c0-0.3-0.3-0.6-0.3-1c0.6-0.6,1.6-0.6,2.6-0.6l0.3,0.3C137.9,168.2,137.6,170.2,138.5,171.1z M136.6,165.7
				c-0.6,0-1.3,0.6-1.9,0.6c-0.3-0.6-0.3-1.3-0.6-1.9c-0.3-2.2,0-4.5,1.9-5.7c0.3-0.3,0.6,0,1,0c0.6,0.6,1,1.6,1.3,2.2
				c0.3,0.6,0.6,1,1,1.9s0,1.9,0,2.9C138.2,166,137.3,165.4,136.6,165.7z M121.9,168.9c0.6-0.3,1.3-1,2.2-0.3
				c0.6,0.6,0.6,1.3,0.6,1.9c-0.6,1.3-1.9,2.6-3.2,2.9c0,0-0.3,0-0.3-0.3c0-1,0.6-1.6,0.3-2.6C121.3,169.8,121.6,169.5,121.9,168.9z
				 M124.5,167.6c-0.6,0-1.3-0.3-1.6-0.6c-0.6,0-0.6,0.6-1.3,1c-0.3,0-0.3,0.3-0.6,0.3c-0.3-0.6-0.3-1.3-0.3-1.9
				c-0.3-0.6,0-1.6,0.3-2.2c0.6-0.3,1-1,1.6-1c0.3-0.3,0.3-0.3,0.3-0.6c-0.3-0.3-1-0.3-1.3-0.3c-0.6,0.3-1,0.6-1.6,1.3
				c-0.6-1-0.6-1.9-0.6-3.2c0-1,0.3-2.2,1.3-2.6c0.6,0.3,1.9,0.3,2.2,1.3c1.3,1.6,2.6,3.2,2.9,5.4c0,1.3,0.3,2.6-0.3,3.8
				C124.8,168.2,124.8,167.9,124.5,167.6z M120.7,155.5c-1.9-1-2.2-3.2-1.9-5.1c0-0.3,0-1,0.6-1c0.3,0.3,0.3,0.6,0.6,1
				c1,1.9,3.2,3.2,4.8,4.8c1.3,0.6,1.9,2.2,1.9,3.8c0.3,0.3,0,1,0,1.3c0,0-0.3,0-0.3-0.3C124.8,158,122.9,156.1,120.7,155.5z
				 M111.4,99.9c0.6-0.3,1-1,1.6-1.3c0.6-0.6,1-1.3,1.6-1.9c0.3,0,0.6,0,0.6,0.3c0,1-0.3,1.6-0.6,2.6c-1,1.9-2.2,3.8-4.5,4.2
				c-0.6,0-1.3-0.3-1.6-0.6c0-1-0.3-1.6-0.3-2.2c0-1.6,1.3-2.9,2.2-4.5c0.3-0.3,1-0.6,1,0c-0.3,1-0.3,2.2-0.3,3.2
				C111.4,99.6,111.4,99.9,111.4,99.9z M116.2,111.7c1.3-1,2.2-2.6,3.2-3.5h0.3c0,2.2-1.3,4.2-2.9,6.1c-1,1-2.6,1.6-3.8,1.3
				c-1-0.3-1.3-1.3-1.6-1.9c0-1,0.3-1.6,0.6-2.2c1.3-1,2.9-1.9,3.5-3.2c0-0.3,0.3-0.3,0.6-0.3c0,1.6-1,2.9-1.6,4.2
				C115.5,112.4,115.9,112,116.2,111.7z M119.7,103.1c1.3-0.3,1.9-1.3,2.6-2.2c0-0.6,0.6-1,1-1.6c0,0,0,0,0.3,0c0,2.2-1,4.5-2.9,6.1
				c-0.3,0.3-1,0.3-1.3,0.3c-0.6-0.3-1.6-0.6-1.6-1.3c0-1.6,0.3-2.9,1.6-3.5c0.3-0.3,0.6-1,1.3-1.3c0,1-0.3,1.9-0.6,2.6
				C120,102.4,119.4,102.8,119.7,103.1z M125.8,125.1C126.1,125.1,126.1,125.1,125.8,125.1c0.6-0.3,0.3-1,0.6-1.3
				c0.3-0.3,0.6,0,0.6,0c1,0.6,0.3,1.9,0.6,2.9c0,1-0.3,2.2-0.6,3.2c0.3,0.3,0.6,0,0.6,0c1-1.3,0.6-2.6,1-4.2c0-0.3,0-0.6,0.3-1
				c0.3,0,0.3,0,0.3,0.3c0,1,0,1.9,0,2.9h0.3c1-1.3,0.3-2.9,1-4.5c0.3-0.6,0-1.6,0.3-2.6c0.6,0,0.6,0.6,0.6,1.3c0,0.6,0.3,1,0.6,1.3
				c0.3,3.2,1.3,7.7-1.9,9.6c-1,0.6-2.6,0.3-3.5,0c-1-0.3-1.3-1.6-1.6-2.2c-0.6-1.9-1.3-3.8-1-6.1c0.3-1.9,0.6-4.2,1.6-5.7
				c0.3,0,0,0.6,0,1C125.8,121.9,125.4,123.5,125.8,125.1z M135,118.4c-0.3-0.6-0.3-1.6-0.6-2.6c0-0.6,0.6,0,0.6,0.3
				c0.6,1.9,3.5,2.2,3.5,4.5c0.3,0.6,0.3,1.3,0,1.9c-0.6,0.6-1.6,1-2.9,1c-1.6-0.6-2.6-2.2-3.8-3.5c0-1-1-1.6-0.3-2.6
				c0.3,0,0.6,0.3,0.6,0.3c1,1,1.9,1.9,2.9,2.6c0.3,0,0.3,0,0.6-0.3C136.3,119.4,135.3,119.1,135,118.4z M133.4,136.9
				c-0.3-0.6-1.3-1.3-1.3-1.9c0-0.3-0.3-0.6,0.3-1c1.6,0.6,2.9,1.6,3.8,2.9c0.3,1,0.3,2.2,0,2.9c0,0.3-0.3,1-0.6,1
				c-0.3,0.3-1,0.3-1.6,0.3c-1.6-1-2.6-2.9-2.9-4.8h0.3c0.6,0.6,1,2.2,2.2,1.6C133.7,137.9,133.7,137.3,133.4,136.9z M136.3,133.4
				c-1-1.3-1.9-2.6-1.9-4.5c0,0,0.3-0.3,0.3,0c0.3,0.3,0.3,0.6,0.3,1c0.3,0.6,0.6,1.6,1.6,1.6c0.3,0,0-0.6,0-0.6
				c0-1-0.6-1.6-0.3-2.6l0,0c1.3,1.3,2.9,2.6,2.2,4.5c0,0.6-0.6,1-1,1C137.3,133.7,136.9,133.7,136.3,133.4z M120,131.5
				c1-1,1.6-1.9,2.2-2.9c0.3,0,0.3,0,0.3,0.3c0.3,2.6-1,4.5-2.9,5.7c-0.6,0.3-1.3,0.3-1.6,0.3c-0.3-0.3-0.6-1-1-1.3
				c-0.3-1.9,0.3-3.5,1.6-4.8c0.6-0.6,0.6-1.3,1.3-1.6c0.6,0.3,0.3,1.6,0.3,2.2c0,1-0.6,1.3-0.6,2.2
				C119.4,132.2,119.7,131.5,120,131.5z M121.6,135.3c0.3-1,1.3-1.3,1.9-2.2c0.3,0,0.6,0,0.6,0.3c0,1.6-1,2.9-1.6,4.2
				c0.3,0.3,0.6-0.3,1.3-0.3c1-0.6,1-1.9,1.6-2.9c0.3,0,0.6,0.3,0.6,0.3c1,2.2-0.3,4.2-1.3,5.7c-0.6,1.3-1.9,0.6-2.9,1
				c-0.6,0-1.3-0.3-1.3-1C120,138.5,121.3,136.9,121.6,135.3z M124.5,116.8c0,1-0.3,1.6-0.6,2.6l-0.3,0.3c0.3,0.3,0,0.6,0,1
				c-0.3,1.9-1.9,3.2-3.8,3.5c-0.6,0-1.3-0.3-1.9-0.6c-1-0.6-0.6-1.9-0.6-3.2c0.6-1.9,1.9-3.8,3.2-5.7c0,0,0.3-0.3,0.3,0
				c0.3,1.9,0,3.5-0.6,5.1c0,0.3,0,0.6,0.3,1c0.6-0.3,0.6-1,1.3-1.3v-0.3c0.6-1.3,1.6-2.6,1.9-4.2c0-0.3,0.3-0.3,0.3-0.3
				C124.8,115.5,124.5,116.2,124.5,116.8z M114.9,106.9c-0.6,0.6-1.6,1.3-2.6,1.3c-0.3,0-0.6-0.3-0.6-0.6c-0.3-1.9,1.3-2.9,1.6-4.5
				c0.3-0.3,0.6-1,1-1c0.3,1-0.3,1.9-0.3,3.2c0.3,0.3,0.6-0.3,1-0.6c0.6-1.3,1.3-2.9,1.6-4.2c0-0.3,0.3,0,0.3,0
				C116.8,103.1,115.9,105,114.9,106.9z M111.4,118.7l1.6-1.6c0.3,0,0.3,0,0.3,0.3c0.3,1-0.3,2.2-0.6,2.9c0,0.3-0.3,1,0,1.3
				c0.6,0,1-0.6,1.3-1c0.6-1,1.3-1.9,2.2-2.6h0.3c0,1.6-1,2.9-1.6,4.2c-0.6,1.3-1.9,2.2-3.5,1.9l-0.3-0.3
				C110.8,122.3,110.4,120,111.4,118.7z M116.8,137.9c0.3-0.3,0.3-0.6,0.6-0.6c0,0.6-0.6,1-0.6,1.6c-0.3,0.6-0.6,1.3-0.6,1.9
				c0.3,0.3,0.6,0,1,0c0.6-0.6,1.3-1.3,1.9-1.9v0.3v0.3c-0.6,1.3-1.3,3.2-3.2,3.5c-0.6,0-1.3,0-1.6-0.3c-0.3-1,0-2.2,0.6-3.2
				C115.5,139.2,115.9,138.2,116.8,137.9z M116.5,150.4c0,1.3,0.3,2.9-0.3,3.8c-0.3,0.3-0.6,0.6-1,0.3c-0.6-0.3-0.6-0.6-0.6-1.3
				c0-1.3-0.3-2.6,0.3-3.8c0.3-1,0.3-1.6,0.6-2.6c0-0.6,0.3-1.3,0.3-1.9c0.3,0.3,0,1,0.3,1.3C116.5,147.8,115.9,149.1,116.5,150.4z
				 M114.3,159.9c0.3-0.6,0.6-1.6,1.3-2.2c0.3-0.6,1.3-0.3,1.9-0.6c0.6,0.3,1.9-0.3,1.6,0.6c-0.6,1.3-1.3,2.9-0.6,4.2
				c-0.3,0.6-1.9,0-1.6,1c0.6,1,1.6,0.3,1.9,1.3s0.3,2.2,0.6,3.2c0,0.3-0.3,0-0.3,0c-1-0.6-1.9-1.3-2.9-0.6c-0.6,0.3-1,1-1.6,1.6
				c-0.3,0.3-0.3-0.3-0.3-0.3C113.3,165.4,113.6,162.2,114.3,159.9z M122.3,151.6c-0.6-1-1-2.2-1.6-3.2c0-1.3-0.3-2.2,0-3.5
				c0-0.3,0-0.6,0.3-1l0,0c0,2.6,1.6,4.2,2.9,6.1c1,1,3.2,1.3,2.9,3.2c0,1,0.6,1.6,0,2.6c-0.3,0-0.3,0-0.3-0.3
				C125.4,153.9,123.5,152.9,122.3,151.6z M127,148.4c-1.3-1.3-2.2-2.9-1.6-4.8c0-1.3,0.6-2.6,1.6-3.2c0.3-0.3,0-1,0.6-1
				c0.3,0.3,0,0.6-0.3,0.6c0.3,1.3,1,3.2-0.3,4.2c0,0.3,0,0.6,0.3,0.6c1.3,0.3,1-1.3,1.6-1.6c0,1-0.6,1.9-1.3,2.6
				c0,0.3,0.6,0.3,0.6,0.6c0.6,0,1-1,1.3-1.3c0.3-1.6,0.3-2.9-0.6-4.2c0-0.3-0.3-1,0.3-1.6c1,0,1.3,1,1.6,1.6c0.6,1.3,1,3.2,0.3,4.5
				c0.3,1.6-1.3,1.9-1.9,2.9C128.6,148.4,127.7,149.1,127,148.4z M130.2,151.6c0-0.6,0.6-1,1-1.6c0.6-1.6,1.3-2.9,2.2-4.2
				c0.6-0.6,0.3-1.6,0.6-2.6c0.3,0,0.3,0.6,0.6,1c0.3,1.6,0.3,3.5-0.3,4.8c-1,1.9-2.6,3.5-3.2,5.1c-0.3,0.3-0.3,1-0.6,1.3
				C129.6,154.5,129.6,152.9,130.2,151.6z M131.2,157.7c0.3-1.6,1.3-2.9,1.9-4.2c1.3-1.6,1.9-3.2,2.6-4.8c0-0.3-0.3-0.6,0-1
				c0.6,1,1,2.2,0.6,3.5c0,3.2-3.5,5.1-3.8,8c-0.3,0.3-0.6,1-1,1.3C131.2,159.9,131.5,158.7,131.2,157.7z M138.9,151.3
				c0-1.9,0.6-3.5,0.6-5.4c0-0.3,0.3-0.6,0.3-0.3c0.3,1.9,0,3.8,0.6,5.4c0,1.3,0.3,2.9-1,3.5c-0.3,0.3-0.6,0-0.6-0.3
				C138.2,153.2,138.9,152.3,138.9,151.3z M141.4,140.5c-0.3,0.3-0.6,0.6-1.3,0.3c-1.9-0.6-2.6-2.6-2.9-4.2c0.3,0,0.6,0.6,1,0.6
				c0.6,0.3,1,1.6,1.9,1c0-1-1-1.3-1.3-2.2c0-0.3-0.3-0.6-0.3-1c0.3,0,0.3,0.6,1,1c1,0.3,1.9,1.3,2.2,2.2
				C142.1,138.9,142.1,139.8,141.4,140.5z M137.9,112.7c-1.3-1-1.6-2.2-1.9-3.8c0-0.3-0.3-1,0-1.3c0.3,0,0.3,0.3,0.3,0.3
				c0.6,0.6,1.3,1.9,2.2,2.2c0.3,0.3,0.3,0.3,0.3,0.6c0.3,0,0.6,0,0.6-0.3s-0.3-1-0.6-1.3c-0.3-1-1.3-1.6-1-2.9
				c0.3-0.3,0.6,0.3,1.3,0.6c1.3,0.3,3.2,1.3,3.5,2.9c0,1,0,2.2-0.6,2.9C140.5,113.3,138.9,113,137.9,112.7z M141.7,103.1
				c0.3,0.3,0.6,0.6,1,0.6c0.6,0.6,1.3,1.6,1,2.6c-0.3,0.3-0.3,1-0.6,1.3c-1,0-1.6-1-2.2-1.6c-0.6-0.6-1-1.3-0.6-2.2
				c0-0.3,0.3,0,0.6,0c0.6,0.3,1,1.3,1.6,0.6C142.1,104,141.4,103.7,141.7,103.1z M142.7,102.4c-1-1.6-1.9-2.9-1.9-4.8h0.3
				c0.6,1,1.6,2.6,3.2,2.6c0.3-0.3-0.3-1-0.3-1.3c0-0.6-0.3-1-0.3-1.6c0.3,0,0.3,0.3,0.6,0.6c1,0.6,1.9,1.3,2.2,2.6c0,1,0,2.2-1,3.2
				C144.3,103.4,143.3,103.1,142.7,102.4z M132.5,114.6c-1,1.3-2.9,2.6-4.8,2.6c-1-0.3-1.9-0.3-2.6-1.3c0-0.6-1-1-0.6-1.9
				c-0.6-1.6-1.3-3.2-1-5.1c-0.3-1.9,0.3-4.2,0.6-6.1c0.3-0.3,0.6-1.3,1-0.6c0,1.9-0.6,3.5,0.3,5.1c0.3,0,0.3,0.3,0.6,0.3
				c0.6-0.3,0-1.3,0.3-1.9c0.3-0.3,0.3,0,0.6,0.3c0.3,1.9,0,4.2,1,5.7c0.3,0.3,0.6,0.6,1,0.3c0.3-0.3,0-0.3,0.3-0.6
				c-1-2.6-1-5.7,0-8.3c0.3,0,0.3,0,0.3,0.3c0.3,1.6-0.3,3.5,0.3,4.8c0.6-0.3,0.6-1,1-1.6c0.3-1.6,0-3.5,0.3-5.1
				c0.3,0,0,0.3,0.3,0.3C132.5,106,135,110.8,132.5,114.6z M124.8,78.2c0-0.3,0.3-1-0.3-1c-0.3,0-1,0.3-1.3,0.3l-0.3-0.3
				c0,0,0,0,0-0.3c0.6-0.3,1.6-1,2.2-1.3c0.3-0.3,0.6-0.6,1-0.3C126.4,76.6,125.4,77.5,124.8,78.2C124.8,78.5,124.8,78.5,124.8,78.2
				z M122.6,75.6c-0.6,0-1.3,0.3-1.9-0.3c0.3-0.6,1-0.3,1.3-0.6c1-0.3,1.6,0.6,2.2,0.6c0,0,0,0,0,0.3
				C123.8,75.6,123.2,75.3,122.6,75.6z M124.5,70.5c-0.3,0-0.3-0.6-0.6-0.6c-0.3-0.3-0.3-0.3-0.6-0.3c-0.3,0.3-0.6,1-1,1.6v0.3
				c-0.6,0-0.6-0.6-1.3-1c-0.3-1,0.6-1.6,1-2.2c0.6,0,1.6,0.3,1.9,1C124.2,69.2,124.8,69.6,124.5,70.5z M121.9,72.4
				c-0.3,1,1,0.6,1.3,1v0.3c0,0.3-0.6,0.3-1,0.3c-1-0.3-1.9,0-2.6,0.3c-0.3,0-0.6,0-1-0.3c0-0.6,1-0.3,1.3-0.3
				c0.3-0.3,0.6-0.3,1-0.6c-1-0.6-2.2,0-3.2,0c-0.6,0.3-1.6,0.3-2.2,0c0,0,0-0.3,0.3-0.3c1,0.3,1.6-0.6,2.6-0.6c0.6-0.3,1.6,0,2.6,0
				C121.3,72.1,121.6,72.4,121.9,72.4z M119.4,70.8c-1.6,0-2.9,1-4.8,0.6c0,0-0.3,0-0.3-0.3s0.3-0.3,0.3-0.3
				c0.3-0.6,1.3-0.3,1.6-0.6c0.3,0,1,0,1.3-0.3c1,0,2.2,0,2.9,1v0.3C120,71.1,119.7,70.8,119.4,70.8z M115.2,75.3
				c1.9-0.6,3.8,0,5.1,1c1.3,1.6,1.6,4.2,0.6,6.1c-0.6,1.3-1.6,2.9-3.2,2.9c-1.9,1-3.8,0-5.4-1.3c-1-1.3-1.9-2.9-1.3-4.5
				C111.4,77.9,113.3,75.9,115.2,75.3z M109.2,106.3C109.2,106.3,109.2,106.6,109.2,106.3c0,3.8,0.3,7.3,0.6,11.5
				c0.3,3.5,0.3,7,0.6,10.2c0,0.6-0.6,1-1,1.6c-0.3,0.3-0.6,1-1.3,1.3c-0.6-1-0.3-2.2-0.6-3.5c-0.3-5.4-1-11.5-1-17.2
				c0.3-0.6,0.6-1.3,1-2.2C108.2,107.6,108.8,106.9,109.2,106.3z M110.8,129L110.8,129c1-1,1.9-1.9,2.6-2.6h0.3
				c-0.3,1.6-0.6,3.2-1.9,4.8c0,0.3,0,0.3,0.3,0.3c0.6-1,1.3-1.6,2.2-2.6c0.6-0.6,1-1.3,1.6-1.9c0.3,0.6,0,1.3,0,1.6
				c-0.3,2.6-1.3,4.8-3.8,6.1c-1,0-1.3,0.6-2.2,0.3c-0.6,0-1.3-0.6-1.6-1.3C108.2,132.2,109.5,130.6,110.8,129z M109.5,136.3l1-0.3
				c0,0,0.3,0,0.3,0.3c0.3,2.9,0.3,5.7,0.6,8.6c0,2.2,0.3,3.8,0.6,6.1c0.3,1.3,0,2.9,0.6,4.2c0.6,1.3-0.3,1.9-0.6,2.9
				c-1,0,0-1.3-0.6-1.9c-1-3.8-1.9-7.3-2.2-11.5c-0.3-1.9-0.3-3.8-0.6-5.7c-0.3-1,0-1.9-0.3-2.9C108.8,136,109.2,136.3,109.5,136.3z
				 M108.8,163.8c0-1.3,0.3-2.6,1-3.5c0-0.6,0.6-0.6,1.3-1c0.6,0,1.3-0.6,1.9,0c0,0.3,0.6,0.6,0.3,1.3c-0.3,0.6-0.6,1.3-1.6,1.9
				c-0.3,0-1-0.3-1,0.3c0,1,1.3,0.3,1.6,1c0,0.6,0.3,1.6,0,2.2c-0.6,0-1.6,0-2.2,0.3c-0.3,0.3-0.6,0.6-1,0.3
				C108.2,166,108.5,164.7,108.8,163.8z M110.4,167c0.6-0.3,1.3-0.3,1.9,0c0,0.6-0.3,1.6-0.3,2.2c0,1,0.6,1.9,1.6,2.2l0,0
				c-0.6,0.3-1.3-0.3-1.9-0.6c-1-0.6-1-1.6-1.3-2.2C110.4,168.2,109.8,167.3,110.4,167z M116.8,167.6c0.6,0,1.3,0,1.9,0.6
				c0,0.6-0.3,1.3-0.3,2.2s0,1.9,0.6,2.6v0.3c-0.6,0-1.3-0.6-1.6-1c-1-1-1.9-1.9-1.9-3.2C115.5,168.2,116.2,167.9,116.8,167.6z
				 M146.8,167c-0.3,0,0-0.3,0-0.6c0.6-1,1.6-0.3,2.6-0.6l0,0c0.3,1-1,1.6-1.3,2.6c-0.3,0.3-0.3,0.6-0.3,0.6c-0.6,0.6-1,1.3-1.6,1.9
				h-0.3C146.2,169.8,147.5,168.6,146.8,167z M149.7,164.7c-0.3,0.3-0.3,0.3-0.6,0.3c-1-0.3-1.6,0.3-2.6,0.3
				c-0.3-0.6-0.6-1.6-0.6-2.2c0.6-0.6,1.3-1,1.6-1.6c0-0.3,0-0.3-0.3-0.3c-0.6,0-1.3,1.3-1.9,0.3c-0.3-0.6-0.6-1.6-1-2.6
				c0.6-0.3,1.3,0,1.6,0.3l1,0.3c1.6,0.3,1.6,2.2,2.6,3.2C149.7,163.1,150.7,164.1,149.7,164.7z M146.2,132.5
				c-1.9,0.3-3.8-0.6-5.1-1.9c-0.6-1-1.3-1.9-1.3-3.2c0-0.3,0.3-0.3,0.6-0.3c1,1,2.2,1.9,3.5,2.2l0.3-0.3c0.3,0,0.3,0.6,0.6,0.3
				c0,0,0.3-0.3,0-0.3c-1.6-1.3-2.6-2.9-2.9-4.5c0-0.3,0.3-0.3,0.6-0.3c1.6,1,3.2,2.2,4.8,3.5c0.6,1,1.3,1.9,1,2.9
				C147.5,131.5,146.8,132.2,146.2,132.5z M147.2,101.2c0-0.3,0.3,0,0.3,0c0.6,0.6,1,1.3,1.6,1.9c1.3,1,2.2,2.2,3.8,2.6
				c0.3,0.6,1.3,0.6,1.6,1c0,0.6-0.3,1.3-1,1.3c-1.9,0-2.9-1.3-4.2-2.6C148.4,104.4,147.8,102.8,147.2,101.2z M154.5,98.3
				c-0.3,0-1,0-1.3-0.3c-1.3-0.6-0.6-1.9-1-3.2c0-1-0.3-1.9,0.3-2.6c0.3,0,0.3,0.3,0.3,0.3C153.6,94.5,154.5,96.1,154.5,98.3z
				 M153.2,85.8c0,0.3-0.3,0-0.6,0c-0.3-0.6-1.3-1-1.6-1.9c0-0.3-0.6-0.3-0.6,0c0,0-0.3,0.3,0,0.3c1,1.3,1.3,2.6,2.2,3.8
				c0,0.6-0.6,1.3-1,1.9h-0.3c-0.6-0.3-0.6-1-1-1.6c0-0.3-0.3-1-0.3-1.3c0.3-1.3-1-1.9-1.3-2.9c-0.6-0.6-1.6-0.6-1.9-1.3
				c0-0.3,0-0.6,0.3-0.6c1-1,1.9,0.3,2.9-0.3c0.3,0.3,1,0,1.3,0c0.6,0.3,1.3,1,1.9,1c0.6,0.3,0.6,1,0.6,1.6
				C153.6,85.2,153.2,85.5,153.2,85.8z M151.6,74c0,0.3-0.3,1,0,1.3c0.3,0.3,1,0.3,1,1c0,0.3,0,0.6-0.3,0.6c-1,0-1.9,0.3-2.6,1.3
				c0,0.3,0,0.3,0.3,0.3c0.6,0,0.6-1,1.6-1c0.6,0,1-0.3,1.6,0c0,0.6,0.6,1,0.6,1.3c-0.3,1,0.3,2.2-0.3,3.2c-1.3,0-2.2-1.3-3.5-0.3
				c-0.6,0-1.6-0.6-2.2-0.3c-0.6-0.3-1-1.3-0.6-1.9c0.3-0.6,1-0.3,1.3-1c0.3,0,1,0.3,1,0c0-0.6-1-0.3-1.3-0.3
				c-0.3,0-0.6,0.3-1.3,0.3c-0.3-0.3-0.3-0.6-0.3-1.3c0.6-1.3,2.2-1.6,3.2-1.9c0,0,0.3-0.3,0-0.3c-1.3-1-2.9,0.3-3.8,1
				c-0.3,0-0.3,0-0.3-0.3c0.3-1,0.6-1.9,1.6-2.2l0.3-0.3c-0.3-0.3-0.6,0-1,0c-0.3,0.3-1,1-1.6,1.3c0-0.6,1-1.3,1.3-2.2
				c0,0,0-0.3-0.3-0.3c-1,0.6-1.6,1.6-2.9,2.2c-0.3,0-0.6,0-1,0c-0.3,0,0-0.3,0-0.6c0.6-1,1.6-1.9,1.9-2.9c0.6-1.9,2.9-1.6,4.2-2.9
				c0.6,0.3,1.3-0.3,1.6,0.3c-0.6,0.6-1,0.6-1.3,1c-0.6,0.6-1.9,1-2.2,1.9c0.6,0.3,0.6-0.3,1.3-0.6c0.3-0.3,0.6-0.6,1-0.3
				c0.6,0.6,1-1,1.3,0.3c-0.3,0.6-1,0.6-1.3,1c-0.3,0.3-1,1-1,1.6c0,0.3,0.3,0,0.6,0c0.6-0.6,1.3-1.3,2.2-1.3
				C151.3,72.1,151.6,73.1,151.6,74z M140.5,64.8c0.6-1,1.9-0.6,2.6-1.3c2.2-0.6,4.5,0.3,6.4-1.3l2.2-1.6c1,0,1.3-1,1.9-1.3
				c0.3,0,0.6,0,0.6,0.3c-0.3,1-0.6,1.9-1,3.2c-0.3,1.6-1.9,1.9-3.2,2.9c-0.6,0.6-1.6,0.6-2.6,0.6c-1.9,0-3.5,1-4.5,2.6
				c0.3,0.6-0.3,1-0.6,1c-0.3,0.3-1,0.3-1.3,0.6c0.3,0.3,0.6,0,0.6,0.6c-1,1-2.6,0-3.5,1l-0.3,0.3c0.3,0.3,1,0,1,0.3
				c-0.6,0.6-1.9,0.3-2.6,1c0,0.3,0,0.3,0.3,0.3s0.6-0.3,1,0c0,0.3-0.3,0.3-0.6,0.6c-1,0.3-1.9,0-2.6,0.6c0.3,0.3,1,0.3,1.3,0.6
				c-1,0.6-2.2,0.6-2.9,1.3c-0.6,0.3,0.3,2.2-1,1.6c-0.6-0.6-1-1.3-1.3-2.2c0.3-0.3,0-1.3,0.3-1c0.6,0.3,0.6,1,1,1.3
				c0.3,0,0.6-0.3,1-0.6c-0.6-1,1-1,1.3-1.6c0-1,1-0.6,1.3-1c1-0.3,1.6-0.3,2.6-0.6c0,0-0.3,0-0.3-0.3h-0.3c0,0,0,0,0-0.3
				c1-1.3,2.6-1,3.8-1.3c0-0.3-0.6-0.3-0.3-0.6c1-0.6,2.6-0.3,2.9-1.6c0-0.3,0.3-0.6,0-0.6c-0.6,0.3-1,1-1.6,1.3
				c-0.6,0.6-1.3,1-1.9,1.3c0-0.3,0.3-0.6,0.6-1c1-1,1.6-2.2,2.2-3.8c0-0.3-0.3,0-0.6,0c-1,1-2.2,1.6-3.2,2.6c-0.3,0-0.6,0.3-0.6,0
				c-0.3-0.6,0.6-0.6,0.6-1.3C139.2,66,139.8,65.4,140.5,64.8z M129.9,70.5c-0.3-0.3-0.3-1-0.3-1.6h-0.3c-0.3,0.3-0.6,1-0.6,1.3
				h-0.3c-0.3-1,0-1.9,0.3-2.6c0.3-0.3,0.6-0.6,1-0.6c0.3,0.3,0.6,0.6,1,1C130.6,68.9,130.6,69.9,129.9,70.5z M133.1,69.2
				c-0.3-0.3-0.6,0.3-1,0.3c-0.3,0.3-0.6,1-1,1.3c-0.3,0-0.3,0-0.3-0.3c0-1,0.3-1.6,0.6-2.6c0.3-0.6,1.3-0.6,1.6-1.3
				c0.3-0.3,1.3-0.6,1.3,0.3c0,0.6,0.3,1.3,0.6,1.9c0,0.6-0.6,1.3-0.6,1.9c0,0-0.3,0.3-0.6,0.3C133.7,70.5,133.4,69.9,133.1,69.2z
				 M134.1,61.9c0-1,1-0.6,1.6-1c1,0,2.2,0,2.9,1c0.3,0.3,0.3,0.6,0.3,1.3c-0.6,0.3-0.3,1.3-1,1.6c-1-0.3-0.6-1.3-1.3-1.9
				c-1-0.6-1.6,0.3-2.6,0.6C133.4,62.8,134.1,62.2,134.1,61.9z M135,63.8c0.3,0,0.3,0,0.6,0.3c0,1.3,1.6,2.2,0.3,3.2
				c-1,0-0.6-1-1-1.6c-0.6-0.6-1.3,0.6-1.9,0.3c-0.3,0-0.6-0.3-0.3-0.6C132.8,64.4,134.1,64.1,135,63.8z M128.3,61.9
				c0.6-1.3,1.9-1.3,3.2-1.3c0.6,0.6,0.6,1.3,1.3,1.6c0,0.3,0,1-0.3,1.3c-0.3,0-0.6-0.6-1-0.6c-0.6-0.6-1.3-0.6-1.9-0.6
				c-0.3,0-0.6,0.6-1,0.3C128.3,62.5,128.3,62.2,128.3,61.9z M129.6,63.5c0.6-0.3,1,0.6,1.3,1.3c0,0.3,1,0.6,0.6,1.3
				c-0.3,0.3-0.3,0.6-0.6,0.6c-0.6-0.3-1-1.3-1.6-1c-0.3,0.3-0.6,0.6-1,0.6c-0.3-0.3-0.3-1-0.3-1.3C128.6,64.1,129,63.8,129.6,63.5z
				 M128,75.9c0.6-0.3,1.3,0.3,1.6-0.3l0,0c0,0.6,0.6,1.6,0.3,2.2c0,0.3,0.3,0.6,0.3,1.3c-0.3,0-0.3-0.6-0.6-1
				c0-0.3-0.3-0.6-0.6-0.6c-0.6,0-0.3,1.6-1,0.6c-0.3-0.6,0.3-1.3-0.3-1.6c-0.3,0.6-0.6,1-1,1.6c-0.3,0-0.6-0.3-0.6-0.6
				c1-0.3-0.3-1.6,1-1.9C127.4,75.6,127.7,75.6,128,75.9z M127.4,69.6c-0.3,0-0.3-0.3-0.3-0.6s-0.3-0.6-0.6-0.3
				c-0.3,0.3-0.3,0.6-0.3,1.3l0,0c-0.6-0.6-1-1.3-0.6-2.2c0-0.6,0.6-1,1-1.3c0.3,0,0.6,0.3,1,0.6C127.7,68,127.7,68.9,127.4,69.6z
				 M125.1,65.7c0,0.3-0.3,0.6-0.6,1c-0.3,0-0.6-0.3-0.6-0.3c-0.3-0.3,0-0.6,0-1c0.3-0.6,0.6-1.6,1.3-1.9c0.6,0,1.3,1,1.9,1
				c0.3,0.3,0.3,0.6,0.3,1C126.4,65.7,125.4,64.8,125.1,65.7z M125.1,60.3c0.3,0,1,0,1.3,0.3c0.3,0.3,0.3,1,1,1.6
				c0,0.3,0,0.6-0.3,0.6c-1.3,0.3-1.3-1.3-2.6-1c-0.3,0.3-1,1-1.3,1.6c-0.3,0-0.3,0.3-0.6,0.3c-0.3-0.3-0.6-0.6-0.6-1
				C122.6,61.6,123.5,60.3,125.1,60.3z M122.6,65.4c0,0.3,0.3,1,0,1.3c-0.6,0-1.6,0-1.9,1c-0.3,0.3-0.3,1-1,1.3
				c-0.3-0.3-0.6-0.6-1-1.3c0.3-0.6,0.6-1.6,1-2.2l0.3-0.3C121.3,65.1,121.9,65.7,122.6,65.4z M118.4,61.6c0.6,0,1.3,0,1.9,0.6
				c0.3,0.3,0.6,1,1,1s0.3,0.3,0.3,0.6c-0.3,0.3-0.6,0-1,0c-0.6,0-1.6-1-2.2,0.3c-0.3,0.3-0.3,1-0.6,1c-0.3-0.3-0.6-1-0.6-1.6
				C117.5,62.8,117.8,61.9,118.4,61.6z M102.1,61.9c0-1,0-1.6,0-2.6l0.3-0.3c1-0.3,0.6,1,1.3,1.3c0.3,1,1.3,1.9,2.2,1.9
				c1.9,0,3.8-0.3,5.7,0.3c1.3,0.3,2.6,1.3,3.5,2.6c0.3,0,0.3-0.3,0.6-0.3c0.3,0.3,1.3,0.6,1,1.3c1,0,1.3,1.3,2.2,1.9
				c-0.6,0.6,1.6,1.6-0.3,1.6c-1.3-0.6-2.6,0.3-3.8,0.3c-0.3,0-0.6,0-1-0.3v-0.3c0.6-0.6,1.6-1,2.6-1c0.3,0,0-0.6,0.6-0.3
				c0.3,0.3,0.3,0.6,0.6,0.6v-0.3c-0.6,0-0.6-1-1.3-1s-1,0-1.3-0.6c-0.3-1-1.3-1.3-1.9-1.6c-0.3-0.3-0.6-0.3-1-0.3
				c-0.3,0.3-0.3,0.3-0.3,0.6c0.6,1,1.3,1.9,2.2,2.6l0,0c-1,0-1.6-1.3-2.2-1c0,0-0.3,0.3,0,0.6c0.3,0.6,1.3,1.3,0.6,1.9
				c-0.6,0-1-0.6-1.3-1c0-1-1-1-1.6-1.3c-0.6-0.3-1.3,0-2.2,0c-0.6-0.3-1.3,0.3-1.9-0.3C103.7,66,102.1,64.1,102.1,61.9z
				 M101.5,97.3c0.3-1.3,0-2.6,1-3.5c0.6,0,0.3,1,0.3,1.3c0.3,1,0.3,2.2,0.6,3.2c-0.3,0.6-1,1-1.6,1C101.2,98.9,101.5,98,101.5,97.3
				z M106.9,95.7c0.3-0.3,0.6-0.3,0.6,0c0,1-0.3,1.9-0.6,2.9c-1,1.3-1.3,2.9-2.2,4.2c-0.6,0.3-1.3,1.3-2.2,1.3c-0.3-0.6-1-1.3-1-2.2
				C103.4,99.9,105.6,98,106.9,95.7z M103.1,107.6c-0.3,0.3-0.6,0.6-1.3,0.3c0-0.6-0.3-1.9,0.3-2.2c0.3-0.3,1-1,1.3-0.3
				C103.7,106.3,103.7,107.2,103.1,107.6z M104.4,107.2c1-1.3,2.2-2.2,2.9-3.8l0.3-0.3c-0.3,2.6-1.3,5.1-2.9,7
				c-0.6,1-1.9,1.3-2.9,1.6c-0.3,0-0.6-0.3-0.6-0.6c0-0.3-0.3-0.6-0.3-1C102.1,109.5,103.4,108.5,104.4,107.2z M97.7,106
				c0-1,0.3-1.6,1.3-2.2c0.3-0.3,1-0.6,1.6-0.6l0.6,1c0,1.3-1.3,1.6-2.2,2.6c-0.3,0-0.3,0.3-0.6,0.3C97.7,106.6,97.7,106.3,97.7,106
				z M98.3,118.4c-0.3,0-0.6-0.3-1-0.3c-0.3-0.3-0.6-1-0.6-1.6c0.3-0.6,1.3-1,1.6-1.6c1-0.6,1.6-1.6,2.6-2.6c0.3,0,1-0.3,1.3,0
				C101.5,114.6,100.2,116.5,98.3,118.4z M104,148.4c-1.3-4.2-2.6-8.3-3.2-12.8c-0.6-3.8-1-7.7-1.6-11.5c0.3-1.6,0-3.5,0-5.1
				c0.3-0.6,1-1,1.6-1.3c0,0,0.3,0,0.3,0.3c0,2.9,0.6,5.4,0.6,8.3c0.3,2.2,0.6,4.5,0.6,6.4c0,2.2,0.3,4.5,0.3,6.7
				c0.3,2.6,0.6,4.8,1,7C103.7,147.2,104,147.8,104,148.4L104,148.4z M105,145.2c-0.3-1.9-0.3-4.2-0.6-6.1c-0.6-3.8-0.6-8-1-11.8
				c-0.3-1-0.3-2.2-0.3-3.5c-0.3-2.6-0.3-5.1-0.6-7.3c-0.3-1.6,0.3-2.9,0.6-3.8c0.3-0.3,1-1,1.3-0.6c0.3,2.6,0,5.1,0.3,7.7
				c0.3,1,0.3,2.2,0.3,3.2c0.3,4.2,0.3,8,1,11.8c0.6,5.4,1.3,10.9,1.9,16.6c0.3,1.9,0.6,3.8,1,6.1c0,0-0.3,0.3-0.3,0
				C106.6,153.6,105.6,149.4,105,145.2z M150,146.5c-0.6,2.9-1,5.7-1.9,8.6c0,1-0.3,1.9-0.6,2.6h-0.3c0-2.2,1-3.8,1-5.7
				c0.3-1.6,0.3-3.2,0.6-4.8c0.3-2.2,0.3-4.2,0.3-6.4c0.3-0.6,0.3-1.6,0.3-2.2c-0.3-1.6,0.3-3.2,0.3-4.8c0.3-1.6,0.6-3.5,0.6-5.1
				c0.3-3.2,0.6-6.1,0.6-9.3c0.3-1,0-2.2,0.3-2.9c0-1,0-1.6,0-2.6c0.3-0.6-0.6-2.2,0.6-2.6c0.3,0.3,1,0.6,1.3,1c0,1-0.3,1.9-0.3,2.9
				c0,1.6-0.3,3.2-0.3,5.1c0,2.6,0,4.8-0.3,7c-0.3,2.9-0.6,5.7-1,8.3C151.3,139.2,150.7,142.7,150,146.5z M157.1,116.2
				c-0.3,1.9,0,3.5-0.3,5.4c0,1.6-0.6,3.2-0.6,4.8c0,2.6-1,4.8-1,7.3c-0.3,2.6-1,4.8-1.6,7.3c-0.6,2.9-1.6,5.7-2.6,8.3h-0.3
				c0.3-2.6,1-5.4,1.3-8c0.6-3.2,1.3-6.7,1.9-9.9c0.3-2.6,0.3-5.1,0.6-7.7c0.3-3.2,0.6-6.4,1-9.3c0.3-0.3,1,0.3,1.3,0.3
				C157.1,115.2,157.1,115.5,157.1,116.2z M159,114.6c-1.6-1.3-3.2-2.2-4.2-3.8c-0.3-0.3-0.6-1-0.6-1.6c0.3-0.3,0.3-0.6,0.6-0.3
				c0.6,0,1,1,1.9,1c0.3,0.3,0.3,0.6,0.3,1c0.6,0.6,1.6,1.6,2.2,2.2c0.3,0.3,0.6,0.6,0.3,1.3C159.6,114.3,159.3,114.9,159,114.6z"/>
			<path class="st2" d="M104,62.5c0.6,0.6,1.6,0.6,2.6,0.6c1,0.3,1.9,0,2.6,0.6c0.3,0.3,1,0.6,1,1.6l0,0c-1.9-1-4.2,0-5.7-1.6
				c-0.6,0-1-0.6-1-1.3c0-0.3,0-0.3,0-0.6C103.7,61.9,103.7,62.5,104,62.5z"/>
			<path class="st2" d="M152.9,62.2c0,0.3-0.3,1-1,1.3c-1.6,1-3.8,1.6-6.1,1.3v-0.3c1.3-0.3,2.9-0.6,4.2-1.3
				C150.7,62.8,151.6,62.2,152.9,62.2L152.9,62.2z"/>
			<path class="st2" d="M113.9,77.9c-0.3,0-2.6,3.5-0.3,5.4c2.9,2.6,6.4-1.9,5.7-2.9c-0.3-0.3-1.3,2.6-3.8,1.9
				C112.7,81.7,114.3,77.9,113.9,77.9z"/>
			<path class="st2" d="M137.3,82.6c0,1,3.5,2.6,5.4,0.3c2.2-3.5-1-5.4-1.9-4.5c-0.3,0.3,1.9,1.3,1,3.5
				C140.1,84.2,137.3,82,137.3,82.6z"/>
		</g>
	</g>
</g>
</svg>
