<?xml version="1.0" encoding="utf-8"?>
<!-- Generator: Adobe Illustrator 26.3.1, SVG Export Plug-In . SVG Version: 6.00 Build 0)  -->
<svg version="1.1" id="affiliation" xmlns="http://www.w3.org/2000/svg" xmlns:xlink="http://www.w3.org/1999/xlink" x="0px"
	 y="0px" viewBox="0 0 256 256" style="enable-background:new 0 0 256 256;" xml:space="preserve">
<style type="text/css">
	.st0{fill:#FFFFFF;}
	.st1{display:none;fill:#FFFFFF;}
</style>
<rect id="black" width="256" height="256"/>
<circle id="background_x5F_circle" class="st0" cx="128" cy="128" r="128"/>
<path id="background_x5F_rectangle" class="st1" d="M206.9,256H49.1C22.1,256,0,233.9,0,206.9V49.1C0,22.1,22.1,0,49.1,0h157.9
	c27,0,49.1,22.1,49.1,49.1v157.9C256,233.9,233.9,256,206.9,256z"/>
<g id="logo">
	<g>
		<path id="path46" class="st0" d="M124.9,139.3c-0.6,0.2-1.1-0.2-1.3-0.6c-0.2-0.5,0.3-1,0.8-1.1c0.6-0.2,1.1,0.2,1.3,0.6
			C125.8,138.8,125.5,139.3,124.9,139.3z M116,123.4c1.6,0.2,1.9,0.5,2.1,1c0.2,0.5,0,0.8-1.1,2.9c-0.2,0.2,0.3,0.3,0.5,0.3
			c5.6-6.5,14.6-3.7,16.4-2.9c2.1,0.8,1.7,1.9,1.4,2.2c-1.3,1.4-6,4.1-7,4.6s-1.3,0.3-1.9-0.3c-0.6-0.6-1.1-2.5-1.1-2.7
			c0-0.2,0-2.1,0-2.2s-0.5-0.3-0.5,0c0,0.2-0.5,1.6-0.5,1.9c-0.2,0.2-0.3,0.5-0.6,0.3c-0.2,0-2.5-0.8-2.5-0.8
			c-0.2,0-0.3,0.3-0.2,0.5c0.2,0.2,2.4,1.6,2.9,1.9c0.5,0.3,0.8,1.1,1,2.1c0,0.3,0,0.8-0.6,1c-0.6,0.2-2.9-0.6-3.5-0.8
			c-0.5-0.2-1-1.4-1.1-1.7c0-0.2-0.6-0.2-0.6,0.2c0,0.2,0,1.3-0.2,1.6c-0.2,0.5-1.1,0.8-2.4,1c-0.2,0-0.2,0.6,0,0.6
			c1.1,0,1.6,0.5,1.6,0.8c0.2,0.3,0,0.5-0.6,1.9c-0.2,0.3,0.5,0.5,0.5,0.3c1.7-2.1,3.2-2.5,5.6-2.4c0.5,0,0.8,0,0.5,0.3
			c-0.8,1-2.7,3.3-7.6,7.9c-0.3,0.3-0.5,1-0.2,1.4c0,0.2,1.4,1.9,1.4,2.1c0.2,0.2,0.3,0.2,0.5,0.2c4.1-1.7,6.8-2.5,6.8-2.5
			c2.4,4,4.3,6.5,5.9,6c1.6-0.5,2.1-2.7,2.1-2.7s1.1,1.7,2.9,2.2c0.2,0,0.2,0,0.2-0.2c0-0.2,0-12.1,0-12.1s-4.6,0-4.9,0
			c-0.2,0-0.3,0-0.5-0.2c-3.7-2.4-4.1-2.9-3.2-3.3c0.3-0.2,0.5-0.2,0.6-0.3c6-2.7,9.4-5.4,9.4-7.1c0-1.9-2.1-5.4-4.3-7.1
			c-0.2-0.2-0.5,0.3-0.3,0.5c0.2,0.2,1.4,2.1,1.1,2.7c-0.3,0.6-2.9-0.2-3.7-0.6c-1-0.5-1.9-2.5-2.4-3.5c-0.5-0.8-1.6-1.6-1.6-1.6
			c-0.2,0-0.3,0.3-0.3,0.5c0.5,0.5,1.9,2.7,1.3,3.7c-0.5,1-2.5,1.1-3.5,0.3c-1-0.8-2.1-3.8-2.1-4c-0.2-0.2-0.5,0-0.5,0.2
			c0,0.3,0.5,2.2-0.5,2.7c-0.8,0.6-2.5-0.2-3.5-0.6c-0.2-0.2-0.5,0.3-0.3,0.3c0.2,0.2,2.1,1.9,2.1,2.2c0,0.5-1.1,0.6-3,1.1
			C115.6,122.9,115.8,123.4,116,123.4"/>
		<path id="path48" class="st0" d="M100.2,139.3c-0.6,0.2-1.1-0.2-1.3-0.6c-0.2-0.5,0.3-1,0.8-1.1c0.6-0.2,1.1,0.2,1.3,0.6
			C101.2,138.8,100.7,139.3,100.2,139.3L100.2,139.3z M91.2,123.4c1.6,0.2,1.9,0.5,2.1,1c0.2,0.5,0,0.8-1.1,2.9
			c-0.2,0.2,0.3,0.3,0.5,0.3c5.6-6.5,14.6-3.7,16.4-2.9c2.1,0.8,1.7,1.9,1.4,2.2c-1.3,1.4-6,4.1-7,4.6s-1.3,0.3-1.9-0.3
			c-0.6-0.6-1.1-2.5-1.1-2.7c0-0.2,0-2.1,0-2.2s-0.5-0.3-0.5,0c0,0.2-0.5,1.6-0.5,1.9c-0.2,0.2-0.3,0.5-0.6,0.3
			c-0.3,0-2.5-0.8-2.5-0.8c-0.2,0-0.3,0.3-0.2,0.5c0.2,0.2,2.4,1.6,2.9,1.9s0.8,1.1,1,2.1c0,0.3,0,0.8-0.6,1
			c-0.6,0.2-2.9-0.6-3.5-0.8c-0.5-0.2-1-1.4-1.1-1.7c0-0.2-0.6-0.2-0.6,0.2c0,0.2,0,1.3-0.2,1.6c-0.2,0.5-1.1,0.8-2.4,1
			c-0.2,0-0.2,0.6,0,0.6c1.1,0,1.6,0.5,1.6,0.8c0.2,0.3,0,0.5-0.6,1.9c-0.2,0.3,0.5,0.5,0.5,0.3c1.7-2.1,3.2-2.5,5.6-2.4
			c0.5,0,0.8,0,0.5,0.3c-0.8,1-2.7,3.3-7.6,7.9c-0.3,0.3-0.5,1-0.2,1.4c0,0.2,1.4,1.9,1.4,2.1c0.2,0.2,0.3,0.2,0.5,0.2
			c4.1-1.7,6.8-2.5,6.8-2.5c2.4,4,4.3,6.5,5.9,6c1.6-0.5,2.1-2.7,2.1-2.7s1.1,1.7,2.9,2.2c0.2,0,0.2,0,0.2-0.2c0-0.2,0-12.1,0-12.1
			s-4.6,0-4.9,0c-0.2,0-0.3,0-0.5-0.2c-3.7-2.4-4.1-2.9-3.2-3.3c0.2-0.2,0.5-0.2,0.6-0.3c6-2.7,9.4-5.4,9.4-7.1
			c0-1.9-2.1-5.4-4.3-7.1c-0.2-0.2-0.5,0.3-0.3,0.5c0.2,0.2,1.4,2.1,1.1,2.7c-0.3,0.6-2.9-0.2-3.7-0.6c-1-0.5-1.9-2.5-2.4-3.5
			c-0.5-0.8-1.6-1.6-1.6-1.6c-0.2,0-0.3,0.3-0.3,0.5c0.5,0.5,1.9,2.7,1.3,3.7c-0.5,1-2.5,1.1-3.5,0.3c-1-0.8-2.1-3.8-2.1-4
			c-0.2-0.2-0.5,0-0.5,0.2c0,0.3,0.5,2.2-0.5,2.7c-0.8,0.6-2.5-0.2-3.5-0.6c-0.2-0.2-0.5,0.3-0.3,0.3c0.2,0.2,2.1,1.9,2.1,2.2
			c0,0.5-1.1,0.6-3,1.1C91,122.9,91,123.4,91.2,123.4"/>
		<path id="path50" class="st0" d="M149.5,139.3c-0.6,0.2-1.1-0.2-1.3-0.6c-0.2-0.5,0.3-1,0.8-1.1c0.6-0.2,1.1,0.2,1.3,0.6
			C150.4,138.8,150.1,139.3,149.5,139.3L149.5,139.3z M140.6,123.4c1.6,0.2,1.9,0.5,2.1,1c0.2,0.5,0,0.8-1.1,2.9
			c-0.2,0.2,0.3,0.3,0.5,0.3c5.6-6.5,14.6-3.7,16.4-2.9c2.1,0.8,1.7,1.9,1.4,2.2c-1.3,1.4-6,4.1-7,4.6c-1,0.5-1.3,0.3-1.9-0.3
			c-0.6-0.6-1.1-2.5-1.1-2.7c0-0.2,0-2.1,0-2.2s-0.5-0.3-0.5,0c0,0.2-0.5,1.6-0.5,1.9c-0.2,0.2-0.3,0.5-0.6,0.3
			c-0.3,0-2.4-0.8-2.5-0.8s-0.3,0.3-0.2,0.5c0.2,0.2,2.4,1.6,2.9,1.9c0.5,0.3,0.8,1.1,1,2.1c0,0.3,0,0.8-0.6,1
			c-0.6,0.2-2.9-0.6-3.5-0.8c-0.5-0.2-1-1.4-1.1-1.7c0-0.2-0.6-0.2-0.6,0.2c0,0.2,0,1.3-0.2,1.6c-0.2,0.5-1.1,0.8-2.4,1
			c-0.2,0-0.2,0.6,0,0.6c1.1,0,1.6,0.5,1.6,0.8c0.2,0.3,0,0.5-0.6,1.9c-0.2,0.3,0.5,0.5,0.5,0.3c1.7-2.1,3.2-2.5,5.6-2.4
			c0.5,0,0.8,0,0.5,0.3c-0.8,1-2.7,3.3-7.6,7.9c-0.3,0.3-0.5,1-0.2,1.4c0,0.2,1.4,1.9,1.4,2.1c0.2,0.2,0.3,0.2,0.5,0.2
			c4.1-1.7,6.8-2.5,6.8-2.5c2.4,4,4.3,6.5,5.9,6c1.6-0.5,2.1-2.7,2.1-2.7s1.1,1.7,2.9,2.2c0.2,0,0.2,0,0.2-0.2c0-0.2,0-12.1,0-12.1
			s-4.6,0-4.9,0c-0.2,0-0.3,0-0.5-0.2c-3.7-2.4-4.1-2.9-3.2-3.3c0.2-0.2,0.5-0.2,0.6-0.3c6-2.7,9.4-5.4,9.4-7.1
			c0-1.9-2.1-5.4-4.3-7.1c-0.2-0.2-0.5,0.3-0.3,0.5c0.2,0.2,1.4,2.1,1.1,2.7c-0.3,0.6-2.9-0.2-3.7-0.6c-1-0.5-1.9-2.5-2.4-3.5
			c-0.5-0.8-1.6-1.6-1.6-1.6c-0.2,0-0.3,0.3-0.3,0.5c0.5,0.5,1.9,2.7,1.3,3.7c-0.5,1-2.5,1.1-3.5,0.3c-1-0.8-2.1-3.8-2.1-4
			c-0.2-0.2-0.5,0-0.5,0.2c0,0.3,0.5,2.2-0.5,2.7c-0.8,0.6-2.5-0.2-3.5-0.6c-0.2-0.2-0.5,0.3-0.3,0.3c0.2,0.2,2.1,1.9,2.1,2.2
			c0,0.5-1.1,0.6-3,1.1C140.3,122.9,140.4,123.4,140.6,123.4"/>
		<path id="path52" d="M91.2,122.9c2.1-0.5,3-0.8,3-1.1c0-0.5-1.9-2.2-2.1-2.2c-0.2-0.2,0.2-0.5,0.3-0.3c1,0.5,2.7,1.3,3.5,0.6
			c0.8-0.6,0.5-2.4,0.5-2.7c0-0.2,0.5-0.3,0.5-0.2c0.2,0.2,1.1,3.2,2.1,4c1,0.8,3,0.6,3.5-0.3c0.5-1-0.8-3.2-1.3-3.7
			c-0.2-0.2,0.2-0.5,0.3-0.5c0.2,0,1.1,0.8,1.6,1.6c0.5,0.8,1.6,2.9,2.4,3.5c1,0.5,3.3,1.3,3.7,0.6c0.3-0.6-1-2.5-1.1-2.7
			c-0.2-0.2,0.3-0.5,0.3-0.5c2.2,1.6,4.3,5.1,4.3,7.1c0,1.9-3.3,4.4-9.4,7.1c-0.2,0.2-0.5,0.2-0.6,0.3c-1,0.5-0.5,1,3.2,3.3
			c0.2,0.2,0.3,0.2,0.5,0.2c0.2,0,4.9,0,4.9,0s0,11.9,0,12.1c0,0.2,0,0.3-0.2,0.2c-1.7-0.6-2.9-2.2-2.9-2.2s-0.5,2.2-2.1,2.7
			c-1.6,0.5-3.5-2.1-5.9-6c0,0-2.7,0.8-6.8,2.5c-0.2,0.2-0.3,0-0.5-0.2c-0.2-0.2-1.4-1.9-1.4-2.1c-0.3-0.5-0.2-1,0.2-1.4
			c4.9-4.6,6.8-7,7.6-7.9c0.2-0.3,0-0.3-0.5-0.3c-2.4-0.2-3.8,0.3-5.6,2.4c-0.2,0.2-0.6,0-0.5-0.3c0.6-1.6,0.8-1.6,0.6-1.9
			c-0.2-0.3-0.5-0.8-1.6-0.8c-0.3,0-0.3-0.6,0-0.6c1.4-0.2,2.2-0.5,2.4-1c0.2-0.3,0.2-1.4,0.2-1.6c0-0.3,0.5-0.3,0.6-0.2
			c0,0.2,0.6,1.4,1.1,1.7c0.5,0.2,2.9,1,3.5,0.8c0.6-0.2,0.6-0.6,0.6-1c-0.2-1-0.5-1.7-1-2.1c-0.5-0.3-2.7-1.7-2.9-1.9
			c-0.2-0.2,0-0.5,0.2-0.5c0.2,0,2.4,0.8,2.5,0.8c0.3,0,0.5-0.2,0.6-0.3c0.2-0.2,0.5-1.6,0.5-1.9c0-0.2,0.5-0.2,0.5,0s0,2.1,0,2.2
			c0,0.2,0.5,2.1,1.1,2.7c0.6,0.6,1,0.6,1.9,0.3c1-0.5,5.7-3.2,7-4.6c0.3-0.3,0.6-1.4-1.4-2.2c-1.9-0.6-10.8-3.5-16.4,2.9
			c-0.2,0.2-0.5-0.2-0.5-0.3c1.1-2.1,1.3-2.4,1.1-2.9c-0.2-0.5-0.5-0.8-2.1-1C91,123.4,91,122.9,91.2,122.9L91.2,122.9z
			 M115.8,122.9c2.1-0.5,3-0.8,3-1.1c0-0.5-1.9-2.2-2.1-2.2c-0.2-0.2,0.2-0.5,0.3-0.3c1,0.5,2.7,1.3,3.5,0.6
			c0.8-0.6,0.5-2.4,0.5-2.7c0-0.2,0.5-0.3,0.5-0.2c0.2,0.2,1.1,3.2,2.1,4c1,0.8,3,0.6,3.5-0.3c0.5-1-0.8-3.2-1.3-3.7
			c-0.2-0.2,0.2-0.5,0.3-0.5c0.2,0,1.1,0.8,1.6,1.6c0.5,0.8,1.6,2.9,2.4,3.5c1,0.5,3.3,1.3,3.7,0.6c0.3-0.6-1-2.5-1.1-2.7
			c-0.2-0.2,0.3-0.5,0.3-0.5c2.2,1.6,4.3,5.1,4.3,7.1c0,1.9-3.5,4.4-9.4,7.1c-0.2,0.2-0.5,0.2-0.6,0.3c-1,0.5-0.5,1,3.2,3.3
			c0.2,0.2,0.3,0.2,0.5,0.2c0.2,0,4.9,0,4.9,0s0,11.9,0,12.1c0,0.2,0,0.3-0.2,0.2c-1.7-0.6-2.9-2.2-2.9-2.2s-0.5,2.2-2.1,2.7
			c-1.6,0.5-3.5-2.1-5.9-6c0,0-2.7,0.8-6.8,2.5c-0.2,0.2-0.3,0-0.5-0.2c-0.2-0.2-1.4-1.9-1.4-2.1c-0.3-0.5-0.2-1,0.2-1.4
			c4.9-4.6,6.8-7,7.6-7.9c0.2-0.3,0-0.3-0.5-0.3c-2.4-0.2-3.8,0.3-5.6,2.4c-0.2,0.2-0.6,0-0.5-0.3c0.6-1.6,0.8-1.6,0.6-1.9
			c-0.2-0.3-0.5-0.8-1.6-0.8c-0.3,0-0.3-0.6,0-0.6c1.4-0.2,2.2-0.5,2.4-1c0.2-0.3,0.2-1.4,0.2-1.6c0-0.3,0.5-0.3,0.6-0.2
			c0,0.2,0.6,1.4,1.1,1.7c0.5,0.2,2.9,1,3.5,0.8c0.6-0.2,0.6-0.6,0.6-1c-0.2-1-0.5-1.7-1-2.1c-0.5-0.3-2.7-1.7-2.9-1.9
			c-0.2-0.2,0-0.5,0.2-0.5s2.4,0.8,2.5,0.8c0.3,0,0.5-0.2,0.6-0.3c0.2-0.2,0.5-1.6,0.5-1.9c0-0.2,0.5-0.2,0.5,0s0,2.1,0,2.2
			c0,0.2,0.5,2.1,1.1,2.7c0.6,0.6,1,0.6,1.9,0.3c1-0.5,5.7-3.2,7-4.6c0.3-0.3,0.6-1.4-1.4-2.2c-1.9-0.6-10.8-3.5-16.4,2.9
			c-0.2,0.2-0.5-0.2-0.5-0.3c1.1-2.1,1.3-2.4,1.1-2.9c-0.2-0.5-0.5-0.8-2.1-1C115.8,123.4,115.6,122.9,115.8,122.9L115.8,122.9z
			 M140.6,122.9c2.1-0.5,3-0.8,3-1.1c0-0.5-1.9-2.2-2.1-2.2c-0.2-0.2,0.2-0.5,0.3-0.3c1,0.5,2.7,1.3,3.5,0.6
			c0.8-0.6,0.5-2.4,0.5-2.7c0-0.2,0.5-0.3,0.5-0.2s1.1,3.2,2.1,4c1,0.8,3,0.6,3.5-0.3c0.5-1-0.8-3.2-1.3-3.7
			c-0.2-0.2,0.2-0.5,0.3-0.5s1.1,0.8,1.6,1.6c0.5,0.8,1.6,2.9,2.4,3.5c1,0.5,3.3,1.3,3.7,0.6c0.3-0.6-1-2.5-1.1-2.7s0.3-0.5,0.3-0.5
			c2.2,1.6,4.3,5.1,4.3,7.1c0,1.9-3.3,4.4-9.4,7.1c-0.2,0.2-0.5,0.2-0.6,0.3c-1,0.5-0.5,1,3.2,3.3c0.2,0.2,0.3,0.2,0.5,0.2
			s4.9,0,4.9,0s0,11.9,0,12.1c0,0.2,0,0.3-0.2,0.2c-1.7-0.6-2.9-2.2-2.9-2.2s-0.5,2.2-2.1,2.7c-1.6,0.5-3.5-2.1-5.9-6
			c0,0-2.7,0.8-6.8,2.5c-0.2,0.2-0.3,0-0.5-0.2c-0.2-0.2-1.4-1.9-1.4-2.1c-0.3-0.5-0.2-1,0.2-1.4c4.9-4.6,6.8-7,7.6-7.9
			c0.2-0.3,0-0.3-0.5-0.3c-2.4-0.2-3.8,0.3-5.6,2.4c-0.2,0.2-0.6,0-0.5-0.3c0.6-1.6,0.8-1.6,0.6-1.9c-0.2-0.3-0.5-0.8-1.6-0.8
			c-0.3,0-0.3-0.6,0-0.6c1.4-0.2,2.2-0.5,2.4-1c0.2-0.3,0.2-1.4,0.2-1.6c0-0.3,0.5-0.3,0.6-0.2c0,0.2,0.6,1.4,1.1,1.7
			c0.5,0.2,2.9,1,3.5,0.8c0.6-0.2,0.6-0.6,0.6-1c-0.2-1-0.5-1.7-1-2.1c-0.5-0.3-2.7-1.7-2.9-1.9c-0.2-0.2,0-0.5,0.2-0.5
			c0.2,0,2.4,0.8,2.5,0.8c0.3,0,0.5-0.2,0.6-0.3c0.2-0.2,0.5-1.6,0.5-1.9c0-0.2,0.5-0.2,0.5,0s0,2.1,0,2.2c0,0.2,0.5,2.1,1.1,2.7
			c0.6,0.6,1,0.6,1.9,0.3c1-0.5,5.7-3.2,7-4.6c0.3-0.3,0.6-1.4-1.4-2.2c-1.9-0.6-10.8-3.5-16.4,2.9c-0.2,0.2-0.5-0.2-0.5-0.3
			c1.1-2.1,1.3-2.4,1.1-2.9c-0.2-0.5-0.5-0.8-2.1-1C140.4,123.4,140.3,122.9,140.6,122.9L140.6,122.9z M84,167.2h84.5v-64.6H84
			V167.2"/>
		<path id="path54" d="M99.9,137.7c-0.6,0.2-1,0.6-0.8,1.1c0.2,0.5,0.6,0.8,1.3,0.6c0.6-0.2,1-0.6,0.8-1.1
			C100.9,137.8,100.4,137.5,99.9,137.7"/>
		<path id="path56" d="M124.5,137.7c-0.6,0.2-1,0.6-0.8,1.1c0.2,0.5,0.6,0.8,1.3,0.6c0.6-0.2,1-0.6,0.8-1.1
			C125.7,137.8,125,137.5,124.5,137.7"/>
		<path id="path58" d="M149.2,137.7c-0.6,0.2-1,0.6-0.8,1.1c0.2,0.5,0.6,0.8,1.3,0.6c0.6-0.2,1-0.6,0.8-1.1
			C150.3,137.8,149.8,137.5,149.2,137.7"/>
		<path id="path60" d="M168.5,95.6l-42.1-18.4L84.2,95.6v3.2h84.5v-3.2"/>
		<path id="path62" d="M196.8,86.6c2.2,0,4.1-1.9,4.1-4.1c0-2.2-1.9-4.1-4.1-4.1s-4.1,1.9-4.1,4.1S194.4,86.6,196.8,86.6"/>
		<path id="path64" d="M56.2,86.6c2.2,0,4.1-1.9,4.1-4.1c0-2.2-1.9-4.1-4.1-4.1c-2.2,0-4.1,1.9-4.1,4.1S54,86.6,56.2,86.6"/>
		<path id="path66" d="M42.4,123.4l4.1,0.6c1.7,0.3,5.4,1,6.2,1.6c0.2,0.2,0.3,0.5,0.3,1.3c0,0,0,0,0,1v0.2v0.2c0,0.2,0.2,0.3,1,0.6
			h0.2l0.8-0.3v-0.2c0,0,0-0.2,0.3-3.7l0.5-3.8l0,0c0-0.2-0.2-0.3-0.6-0.6l-0.2-0.2l-1,0.2l-0.2,0.2c0,0-0.2,0.2-0.3,1.1
			c-0.2,0.8-0.3,1.1-0.5,1.1c-0.3,0.2-1.6,0.3-6.7-0.6l-3.8-0.6c-5.6-1-7.9-3.5-7.3-7.5c0.3-1.9,1.1-3.2,2.2-4
			c1.6-1.1,4-1.3,7.1-0.8l7.1,1.3c3.3,0.6,3.3,0.6,3.2,2.1l-0.2,1v0.2c0,0.2,0.3,0.6,0.8,0.6c0.3,0,0.8,0,1.1-0.3v-0.2
			c0,0,0-0.2,1-4.3l1.1-4.3V105c0-0.3-0.3-0.6-0.8-0.8c-0.5-0.2-0.8,0-1,0.2v0.2c0,0,0,0.2-0.3,1c-0.5,1.4-0.5,1.4-4.1,1l-7.9-1.4
			c-4.1-0.8-6.8-0.3-8.7,1.4c-1.6,1.3-2.7,3.5-3.2,6.4c-0.5,2.7,0.2,5.6,1.4,7.3C35.9,121.3,38.6,122.6,42.4,123.4"/>
		<path id="path68" d="M58.2,157.4c0.2,0,0.5,0.5,1,1.3l0.3,0.5h0.2c0.3,0.2,0.8,0.3,1.1,0.2c0.3-0.2,0.5-0.3,0.6-0.6l0,0l0,0
			c0,0,0-0.2-1.3-3.5l-1.3-3.8v-0.2c-0.2-0.3-0.6-0.5-1-0.5c-0.5,0-0.8,0.3-1,0.6v0.2c0,0,0,0.2,0.2,0.8c0.3,1.3,0.2,1.6,0.2,1.7
			c-0.2,0.2-1,0.8-6.2,2.2l-7,1.9h-0.2c0.6-1,1.7-2.7,3.8-6l0,0c0.2-0.2,2.7-4.1,2.7-4.1l0.5-0.6c1.1-1.6,4-5.9,5.2-6.8l0.2-0.2
			v-0.2c0,0,0-0.3-0.3-1.7l-0.6-3.7v-0.2c-0.2-0.3-0.5-0.5-1-0.5c-0.5,0-0.8,0.3-1,0.5v0.2c0,0,0,0.2,0,0.8c0,0.8,0,1.4-0.3,1.9
			c-0.5,0.6-1,0.8-1.9,1.1l-9.5,2.5l-0.5,0.2c-1.6,0.5-4.9,1.3-6,1.3c0,0-0.3-0.2-0.5-0.8l-0.3-0.8l-0.2-0.2c-0.2-0.2-0.3-0.2-1-0.3
			h-0.2l-0.8,0.6v0.2c0,0.2,0,0.2,0.8,3.5l0.6,3.8v0.2c0,0.2,0.2,0.3,0.8,0.5h0.2l0.8-0.3l0.2-0.2v-0.2c0-0.2,0-0.8-0.2-1.3
			c0-0.3,0-0.6,0-0.8c0-0.3,0.2-0.5,0.2-0.5l0,0c0.6-0.6,4.1-1.7,6.4-2.2l7.1-1.9c0.3-0.2,0.6-0.2,0.8-0.2c-1,1.4-2.7,4-2.7,4
			c0,0.2-6.7,9.8-6.7,9.8c-2.7,4.1-3.5,5.1-3.8,5.4l-0.2,0.2v0.2c0.2,0.6,0.5,1.1,1.1,1.1h0.2H38c0.3-0.2,1.6-0.5,5.6-1.6l8.4-2.2
			C53.4,158.2,57,157.2,58.2,157.4"/>
		<path id="path70" d="M69,173.9c0.3,0.2,0.8,0.2,1.1-0.2c0.2-0.2,0.5-0.5,0.5-1v-0.2c0,0,0-0.2-2.5-3.5l-2.4-3.7l-0.2-0.2
			c-0.3-0.2-0.8-0.2-1.1,0c-0.3,0.2-0.6,0.5-0.5,0.8v0.2c0,0,0,0.2,0.5,1c0.6,1.3,0.8,1.3-2.2,3.3l-10,6.8c-2.9,2.1-3,1.9-4,0.8
			l-0.6-0.8h-0.2c-0.5-0.2-0.8,0-1.1,0.3c-0.3,0.3-0.3,0.6-0.3,0.8v0.2c0,0,0,0.2,2.5,3.7l2.2,3.5l0.2,0.2c0.2,0.2,0.3,0.2,0.5,0.2
			c0.2,0,0.5,0,0.6-0.2c0.3-0.2,0.6-0.5,0.5-0.8V185c0,0,0-0.2-0.5-1c-0.6-1.3-0.8-1.4,2.2-3.3l10-6.8c3-2.1,3-1.9,4-0.8l0.5,0.6
			L69,173.9"/>
		<path id="path72" d="M92.9,193.6c0.5,0,0.8-0.3,1-0.6l0,0c0.2-0.3,0.2-0.6,0-1v-0.2c0,0-0.2-0.2-2.9-1.9l-2.9-2.1H88
			c-0.3,0-0.8,0.2-1.1,0.5c-0.2,0.2-0.3,0.5-0.3,0.6c0,0.2,0,0.2,0,0.3v0.2c0,0,0.2,0.2,0.6,0.6c0.3,0.3,0.6,0.5,0.6,0.6l-0.8,0.6
			l-13.2,7.5c0.8-3,2.9-11,2.9-11c0.6-2.2,1.1-3.8,1.4-4.4c0.2,0,0.5,0.2,0.8,0.5l0.5,0.3h0.2c0.3,0,0.8-0.2,1-0.5
			c0.2-0.3,0.3-0.6,0.2-1v-0.2c0,0,0-0.2-3.3-2.7l-2.7-2.4h-0.2c-0.3-0.2-0.8,0-1.1,0.3s-0.3,0.6-0.3,1v0.2c0,0,0,0.2,0.5,0.6
			c0.8,0.8,0.8,1.4,0.3,3.5l-4.1,15.6c-0.3,1.4-1,3.2-1.4,4.4v0.2v0.2c0,0.2,0,0.3,0.5,0.8l0.2,0.2l0.6,0.2l0.2-0.2
			c1.7-1.1,5.6-3.3,8.3-4.9l4-2.2c3.5-1.9,6.4-3.3,7.9-4.1c0.8-0.3,1.3-0.3,1.6,0L92.9,193.6L92.9,193.6"/>
		<path id="path74" d="M114.4,198.5c-0.3,0-2.4-0.6-4.1-1.1h-0.2l-6-1.9l0,0l-3.8-1.3h-0.2c-0.3,0-0.6,0.3-0.8,0.8
			c0,0.2-0.2,0.6,0.2,1l0.2,0.2c0,0,0.2,0,0.6,0.3c1.4,0.6,1.4,0.6,0.3,4L96.9,212c-1.1,3.3-1.1,3.3-2.5,3l-1.3-0.3h-0.2
			c-0.3,0.2-0.6,0.5-0.6,1c0,0.3,0,0.6,0.3,1h0.2c0,0,0.2,0,4.6,1.3l11.8,3.8l0.2-0.2c1-0.8,2.5-3.2,3-4.3v-0.2v-0.2
			c0-0.5-0.2-0.8-0.5-1c-0.3-0.2-0.6-0.3-1-0.2h-0.2l-0.2,0.2c-1.4,1.4-2.5,2.2-3,2.2c-0.8,0.2-1.7,0-4-0.8c-2.9-1-3.2-1.4-3.3-1.6
			c-0.3-0.5,0-1.6,0.5-3.2l1.4-4.6c0-0.2,0-0.2,0.2-0.3c0.2,0,0.3,0.2,0.5,0.2l1.9,0.6c1.1,0.3,1.9,0.6,2.4,0.8
			c0.3,0.2,0.3,0.5,0.3,1l-0.2,1.4v0.2c0.2,0.3,0.5,0.6,1,0.8c0.3,0,0.6,0,1-0.2v-0.2c0,0,0-0.2,0.5-1.4l0.5-1.9l1.1-3.3v-0.2
			c0-0.3-0.3-0.6-0.6-0.8c-0.3-0.2-0.8-0.2-1.1,0h-0.2c0,0-0.2,0.2-0.8,1.4c-0.3,0.6-0.5,0.6-0.6,0.6c-0.3,0-1.1-0.2-2.7-0.6
			l-1.9-0.6c-0.2,0-0.3-0.2-0.5-0.2c0-0.2,0-0.2,0.2-0.3l2.1-6.5c0.2-0.3,0.2-0.6,0.2-0.6c0.2,0,0.3,0.2,0.3,0.2l2.4,0.8
			c1.4,0.5,2.4,0.8,3,1.1c1.3,0.8,1.3,1.6,1.3,3.2v0.2v0.2c0.2,0.2,0.3,0.5,0.8,0.6c0.2,0,0.6,0.2,1-0.2l0.2-0.2
			c0,0,0.2-0.2,0.2-0.6c0.5-1.9,0.8-3.7,0.8-4.1v-0.5L114.4,198.5"/>
		<path id="path76" d="M136.8,209c-0.8,0.8-2.1,1-3,1.1c-1.1,0.2-1.6,0.2-1.9,0.2c0-0.2,0-0.5,0-0.6l-0.8-7.9c0-0.2,0-0.3,0-0.3
			c0.2-0.2,1.1-0.2,1.6-0.2c3.7-0.2,5.1,1.9,5.2,4C137.9,206.9,137.6,208.2,136.8,209L136.8,209z M148.5,219.2L148.5,219.2
			L148.5,219.2c-1,0-1.7-0.2-2.4-0.6c-2.5-1.6-4.8-4.1-7.8-7.9l0,0c1-0.6,4-2.7,3.7-6.5c-0.3-3-2.1-4.3-3.7-4.9
			c-1.6-0.6-3.3-0.6-5.4-0.5h-0.6c-3,0.2-5.4,0.3-7.5,0.6h-0.2c-0.3,0.2-0.5,0.5-0.5,1c0,0.3,0.2,0.8,0.5,1h0.2c0,0,0.2,0,1.3,0.2
			c0.8,0,1,0,1.3,3.3l1.1,12.2c0.3,3.3,0.3,3.3-1.1,3.7l-1,0.2l-0.2,0.2c-0.3,0.3-0.3,0.6-0.3,1.1c0.2,0.3,0.3,0.6,0.5,0.6h0.2l0,0
			c0.2,0,0.8,0,4.3-0.3l4-0.2h0.2c0.2-0.2,0.5-0.3,0.5-0.8c0-0.5-0.2-0.8-0.5-1h-0.2c0,0-0.2,0-1-0.2c-1.6-0.2-1.6-0.2-1.9-3.7
			l-0.5-4.3v-0.2c0.2,0,0.6,0,1-0.2c1.1-0.2,1.6,0.2,2.1,0.6l4,4.6c2.9,3.2,4.8,4,7.9,3.5l1.6-0.5l0.2-0.2
			C148.5,219.8,148.5,219.5,148.5,219.2C149,219.5,148.7,219.3,148.5,219.2"/>
		<path id="path78" d="M163.1,194.5L163.1,194.5L163.1,194.5L163.1,194.5z M163,200.6l-3.2-0.2c-2.1-0.2-3.5-0.8-4.1-1.9
			c-0.2-0.3-0.5-1-0.5-1.7c0-1.1,0.6-2.1,1.9-2.9c2.4-1.4,4-0.3,5.2,1l0.2,0.2c0.2,0.2,0.6,0.2,1-0.2c0.3-0.2,0.6-0.5,0.6-1v-0.2
			v-0.2c-0.8-1.4-2.1-2.9-2.7-3.5l-0.2-0.2h-0.2c-0.2,0-0.3,0-1.4,0.5c-1,0.2-2.1,0.6-3.2,1.3c-1.9,1.1-3.2,2.5-3.8,4.3
			c-0.6,1.7-0.5,3.5,0.5,5.1c1.6,2.7,4.4,3.3,6.5,3.5l3.8,0.2c2.7,0.2,3.7,1.3,4.3,2.4c0.5,0.8,0.6,1.6,0.3,2.4
			c-0.2,1-1,1.6-1.9,2.2c-2.2,1.3-4.6,0.8-6.8-1.4h-0.2c-0.3-0.2-0.6-0.2-1,0c-0.3,0.2-0.6,0.5-0.6,1v0.2l0.2,0.2
			c0.8,1.4,2.5,3.3,3.3,4h0.2h0.2c0,0,0,0,0.2,0c1.1,0,3-0.2,5.4-1.6c2.2-1.3,3.5-2.9,4.1-4.9c0.2-0.6,0.2-1.1,0.2-1.7
			c0-1.1-0.3-2.2-1-3.2C169,201.8,166.6,200.6,163,200.6"/>
		<path id="path80" d="M192,194.5L192,194.5c-0.2,0-0.2,0-1,0.6c-1.3,1-1.3,1-3.7-1.7l-8.1-8.9c-2.4-2.7-2.4-2.7-1.4-3.8l0.6-0.6
			v-0.2c0-0.2,0.2-0.6-0.3-1.1c-0.2-0.2-0.6-0.5-1-0.3h-0.2c0,0-0.2,0-3.2,3l-3.2,2.7l-0.2,0.2c-0.2,0.3-0.2,0.8,0.2,1.1
			c0.3,0.5,0.6,0.5,1,0.5h0.2c0,0,0.2,0,0.8-0.6c1.1-0.8,1.3-1,3.7,1.7l8.1,8.9c2.4,2.7,2.4,2.7,1.3,3.8l-0.6,0.8v0.2
			c0,0.5,0.2,0.8,0.5,1.1c0.2,0.2,0.5,0.3,0.6,0.3h0.2h0.2c0,0,0.2,0,3.2-3l0,0c0.3-0.3,1.1-1,3.2-2.7l0.2-0.2
			c0.2-0.3,0.2-0.8-0.2-1.1C192.7,194.7,192.4,194.5,192,194.5"/>
		<path id="path82" d="M210.5,170.9c-0.2-0.2-0.6-0.3-1-0.2l-0.2,0.2c0,0,0,0-0.8,1c-0.8,1.1-1,1.3-4-0.5l-13-7.5
			c-0.2-0.2-0.3-0.2-0.5-0.3c0-0.2,0.2-0.3,0.2-0.3l1.3-2.1c0.8-1.4,1.6-2.4,2.4-2.7c0.2,0,0.8,0,2.1,0.5h0.2h0.2
			c0.5,0,0.8-0.3,1-0.8c0.2-0.3,0.2-0.8,0-1v-0.2h-0.2c-1-0.5-3.2-1.9-4.1-2.9l-0.2-0.2h-0.2c-0.6-0.2-1.1,0.5-1.1,1v0.2v0.2
			c0.3,0.6,0.5,0.8-0.5,2.2l-6.8,11.9c-1,1.6-1.1,1.9-1.6,1.7h-0.2h-0.2c-0.6,0.2-1,0.8-0.8,1.1v0.2l0.2,0.2
			c0.6,0.5,2.5,2.2,3.7,3.7l0.2,0.2h0.2c0.5,0.2,0.8,0,1.1-0.3s0.3-0.6,0.3-1V175v-0.2c-0.5-0.6-1-1.3-1.1-2.2
			c-0.2-1,0.8-2.9,1.3-3.7l1-1.6c0-0.2,0.2-0.3,0.2-0.3c0.2,0,0.3,0.2,0.5,0.2l13.2,7.5c3,1.7,3,1.9,2.4,3.2l-0.5,1.1v0.2
			c0,0.5,0.2,0.8,0.6,1c0.2,0.2,0.3,0.2,0.6,0.2c0.2,0,0.3,0,0.5-0.2h0.2c0,0,0.2-0.2,2.4-4.3l0,0c0.3-0.3,1-1.4,2.4-3.8v-0.2
			C211.1,171.5,210.8,171,210.5,170.9"/>
		<path id="path84" d="M221.7,136.3c-1-0.8-3.5-2.2-4.6-2.5H217h-0.2c-0.5,0-0.6,0.3-1,0.6c-0.2,0.3-0.2,0.6,0,1v0.2h0.2
			c1.6,1.3,2.4,2.2,2.5,2.7c0.2,0.6,0.2,1.7-0.3,4.1c-0.6,3-1.1,3.3-1.3,3.5c-0.5,0.3-1.6,0.2-3.2-0.2l-4.6-1l-0.3-0.2
			c0-0.2,0-0.3,0-0.5l0.3-1.9c0.2-1,0.3-1.9,0.6-2.4c0.2-0.3,0.3-0.5,1-0.5h1.4h0.2c0.3-0.2,0.6-0.5,0.6-1c0-0.3,0-0.6-0.3-1h-0.2
			c0,0-0.2,0-1.4-0.3l-1.9-0.3l-3.5-0.8h-0.2c-0.3,0-0.6,0.3-0.8,0.8c-0.2,0.3-0.2,0.8,0.2,1.1h0.2c0,0,0.2,0,1.4,0.6
			c0.6,0.3,0.6,0.3,0.6,0.5c0,0.3,0,1.1-0.3,2.7l-0.3,1.9c0,0.2,0,0.3-0.2,0.5c-0.2,0-0.2,0-0.3,0l-6.7-1.3c-0.3,0-0.6-0.2-0.8-0.2
			c0-0.2,0-0.3,0-0.5l0.5-2.4c0.3-1.4,0.5-2.4,0.8-3c0.6-1.3,1.4-1.4,3-1.6h0.2h0.2c0.2-0.2,0.5-0.3,0.6-0.8c0-0.2,0-0.6-0.3-1
			l-0.2-0.2c0,0-0.2,0-0.6-0.2c-1.9-0.2-3.7-0.3-4.3-0.3l-0.5,0.2v0.5c0,0.3-0.3,2.5-0.8,4.3l-1.3,6.4l-1,4v0.2
			c0.2,0.3,0.3,0.6,0.8,0.8c0.5,0.2,0.8,0,1-0.2l0,0c0,0,0-0.2,0.3-0.6c0.5-1.4,0.5-1.4,4-0.8l11.9,2.2c3.5,0.6,3.5,0.8,3.3,2.2
			l-0.2,1.3v0.2c0.2,0.3,0.6,0.6,1,0.6l0,0c0.3,0,0.6-0.2,0.8-0.3v-0.2c0,0,0-0.2,0.8-4.8l2.4-12.2L221.7,136.3"/>
		<path id="path86" d="M198.4,111.2c0-0.2,0-0.3-0.2-0.3l0,0c0-0.2-0.2-0.6-0.5-2.4s-0.3-2.9,0-3.7c0-0.2,0.5-0.5,1.9-1h0.2l0.2-0.2
			c0.3-0.3,0.3-0.6,0.2-1.1c-0.2-0.3-0.3-0.6-0.6-0.8h-0.2h-0.2c-1,0.3-3.7,0.5-5.1,0.5h-0.2l-0.2,0.2c-0.2,0.2-0.3,0.3-0.3,0.6
			c0,0.3,0,0.6,0.2,1l0.2,0.2h0.2c0.8,0.3,0.8,0.3,1.1,2.1l2.9,13.5c0.3,1.7,0.3,2.2,0,2.4h-0.2v0.2c-0.3,0.5-0.2,1.3,0.2,1.4
			l0.2,0.2h0.2c1.6,0,3.7,0.2,5.2,0.3h0.2h0.2c0.3-0.2,0.6-0.6,0.6-1s-0.2-0.6-0.3-1h-0.2h-0.2c-0.8-0.2-1.6-0.3-2.4-1
			c-0.8-0.5-1.1-2.2-1.4-3.5l-0.3-1.9c0-0.2,0-0.3,0-0.3c0.2,0,0.3,0,0.5-0.2l14.8-2.9c3.5-0.6,3.5-0.5,3.8,0.8l0.3,1.1l0.2,0.2
			c0.3,0.3,0.6,0.5,1.1,0.3c0.5-0.2,0.6-0.3,0.8-0.6v-0.2c0,0,0-0.2-1-4.8l-0.8-4.4v-0.2c-0.2-0.3-0.6-0.5-1.1-0.5
			c-0.5,0-0.8,0.3-0.8,0.5v0.2c0,0,0,0.2,0.2,1.3c0.2,1.4,0.2,1.4-3.3,2.2l-14.9,2.9C198.9,111.2,198.5,111.2,198.4,111.2"/>
		<path id="path88" d="M64.3,60L64.3,60c0.2,0,0.3,0,1-0.6c1.3-0.8,1.3-0.8,3.2,1.9c0,0.2,4.8,6.5,4.8,6.5c2.5,3.3,4.8,4.9,7.3,5.1
			c0.2,0,0.3,0,0.5,0c1.9,0,3.8-0.8,6-2.4c2.4-1.6,3.7-3.7,4-5.9c0.3-2.5-0.5-5.2-2.7-8.4L86.3,53c-1.4-2.2-3-4.8-3.2-5.7
			c0-0.2,0.2-0.5,0.8-1l0.6-0.5l0.2-0.2c0.2-0.2,0.2-0.3-0.2-1.1v-0.2l-0.8-0.3h-0.2c0,0-0.2,0-3.2,1.9l0,0
			c-0.3,0.2-1.1,0.6-3.3,1.9l-0.2,0.2c-0.2,0.2-0.2,0.3-0.2,1v0.2l0.8,0.6h0.2c0.2,0,0.2,0,1-0.5c0.8-0.5,1.3-0.3,1.3-0.3
			c0.8,0.5,2.7,3.2,3.7,4.8l2.5,3.8c1.4,2.1,2.2,4,2.2,5.6c0.2,1.9-0.8,3.5-2.5,4.8c-3.7,2.5-6.7,1.6-10-3.2l-4.3-5.9l-0.2-0.2
			c-1.9-2.7-1.9-2.7-1-3.7l0.6-0.6l0.2-0.2c0.2-0.2,0.2-0.6-0.3-1.1c-0.3-0.3-0.6-0.5-1-0.3h-0.2c0,0-0.2,0-3.3,2.7l-3.3,2.5
			l-0.2,0.2c-0.2,0.3-0.2,0.8,0.2,1.1C63.7,59.9,64,60,64.3,60"/>
		<path id="path90" d="M128.3,56.9L128.3,56.9c0.3-0.2,0.6-0.5,0.6-1c0-0.3-0.2-0.8-0.5-1h-0.2c0,0-0.2,0-1.3,0
			c-1,0-1.1-0.3-1.4-1.9l-3-14.8c-0.3-2.2-0.3-2.4,1.3-2.7l0.8-0.2l0.2-0.2c0.3-0.2,0.3-0.6,0.3-1c0-0.2-0.2-0.6-0.5-1h-0.2
			c-0.2,0-0.2,0-3.2,0.3l-3.2,0.2v0.6c0,0.2,0,0.3,0,0.5c0,1.4-0.6,3.5-1.4,6.2c0,0.2-2.2,7.5-2.2,7.5s-0.8,2.5-1.3,3.8
			c-0.3-0.5-1-1.4-1.9-2.7l-5.6-7.9c-0.6-1-2.4-3.3-2.5-4.8v-0.6l-3.3,1c-0.2,0-2.7,0.5-2.7,0.5h-0.2c-0.3,0.2-0.5,0.5-0.5,1
			c0,0.3,0.2,0.8,0.3,1l0.2,0.2c0.2,0,0.3,0,0.8,0l0,0c1.7-0.2,1.9-0.2,2.1,1.7c0,0,0,0,1,7.5l0.6,6.8l0.2,1.1
			c0.2,2.1-0.2,2.2-1.3,2.7l0,0c-0.2,0-0.3,0.2-0.8,0.3l-0.2,0.2c-0.3,0.3-0.3,0.6-0.3,1c0.2,0.3,0.3,0.6,0.6,0.8h0.2l0,0
			c0.2,0,0.5,0,3.7-1l3.7-0.8h0.2c0.3-0.2,0.5-0.6,0.5-1c0-0.3-0.2-0.8-0.6-1h-0.2c0,0-0.2,0-1.6,0.2c-0.3,0-0.6,0-0.6,0
			c-0.3-0.2-0.5-1.6-0.6-2.2l-1-7.5l-0.5-4.4l1.7,2.5l0,0c0.3,0.5,1.1,1.6,4.1,6l0.6,0.8c1,1.4,2.7,3.8,3.5,5.2v0.2
			c0.3,0.3,0.6,0.3,1,0.3s0.6-0.3,0.8-0.5v-0.2c0.3-1.6,1.3-4.8,2.4-8.3l2.7-8.9l2.2,11.8c0.2,0.6,0.2,1.1,0.2,1.6
			c0,0.5,0,0.6-1,0.8l-1,0.2h-0.2c-0.2,0.2-0.3,0.2-0.3,1V57l0.5,0.8h0.2c0.2,0,0.2,0,4.3-0.3L128.3,56.9"/>
		<path id="path92" d="M155.3,57L155.3,57v-0.3c0-0.5-0.2-0.8-0.6-1c-0.3-0.2-0.6-0.2-1-0.2h-0.2v0.2c-1.3,1.6-2.4,2.4-2.9,2.4
			c-0.8,0.2-1.7,0-4.1-0.6c-3-0.8-3.3-1.3-3.3-1.4c-0.3-0.5-0.2-1.6,0.3-3.2l1.1-4.6l0.2-0.3c0.2,0,0.3,0,0.5,0.2l1.9,0.5
			c1.1,0.3,1.9,0.5,2.4,0.8c0.3,0.2,0.5,0.5,0.3,1l0,0c0,0.2,0,0.5,0,1.4v0.2v0.2c0.2,0.3,0.5,0.6,1,0.6c0.3,0,0.6,0,1-0.3l0.2-0.2
			c0,0,0-0.2,0.3-1.4l0.5-1.9l1-3.3v-0.2c0-0.3-0.3-0.6-0.6-0.8c-0.3-0.2-0.8-0.2-1.1,0.2l-0.2,0.2c0,0,0,0.2-0.6,1.4
			c-0.3,0.6-0.3,0.6-0.6,0.6c-0.2,0-0.6,0-2.7-0.5l-1.9-0.5c-0.2,0-0.3-0.2-0.5-0.2c0-0.2,0-0.2,0.2-0.3l1.7-6.7
			c0-0.3,0.2-0.5,0.2-0.6c0.2,0,0.3,0,0.3,0.2l2.4,0.6c1.4,0.3,2.4,0.6,3,1c1.3,0.6,1.3,1.6,1.4,3v0.2v0.2c0.2,0.3,0.5,0.5,0.8,0.6
			c0.2,0,0.6,0.2,1-0.2l0.2-0.2c0,0,0.2-0.2,0.2-0.6c0.3-1.9,0.6-3.7,0.5-4.1v-0.5h-0.5c-0.3,0-2.5-0.5-4.3-1l-6.2-1.6l-4-1.1h-0.2
			c-0.3,0-0.6,0.3-0.8,0.8c-0.2,0.3-0.2,0.8,0.2,1l0.2,0.2c0,0,0.2,0,0.6,0.3c1.4,0.5,1.4,0.6,0.6,4l-3,11.8c-0.8,3.3-1,3.3-2.4,3.2
			l-1.3-0.2h-0.2c-0.3,0.2-0.6,0.5-0.6,1c0,0.3,0.2,0.6,0.3,0.8h0.2c0,0,0.2,0,4.6,1.1l3,0.8c0.2,0,8.7,2.4,8.7,2.4h0.3l0.2-0.2
			C153.3,60.5,154.7,58.1,155.3,57"/>
		<path id="path94" d="M170.6,59.9C170.6,59.7,170.6,59.7,170.6,59.9c0,0,0,0,5.9-4.1l0.6-0.3l-2.2,7.1c0,0.2,0,0.2-0.2,0.3
			l-0.2-0.2l0,0C174.2,62.3,173.3,61.6,170.6,59.9C170.8,59.9,170.8,59.9,170.6,59.9L170.6,59.9z M180.6,49.1L180.6,49.1
			c0.3-0.5,0.8-0.8,1.3-0.8c0.3,0,0.5,0,0.6,0.2c0.6,0.5,0.6,1.3,0.2,2.1c-0.3,0.5-0.6,0.6-1.1,0.8c-0.3,0-0.6,0-1-0.2
			c-0.3-0.2-0.5-0.5-0.5-0.8C180.3,49.9,180.3,49.4,180.6,49.1L180.6,49.1z M157.7,63.8c0,0,0.2,0.2,0.8,0.5l2.1,1.3l2.9,1.9h0.2
			c0.5,0.2,0.8,0,1.1-0.5c0.3-0.3,0.3-0.8,0.2-1.1v-0.2c0,0-0.2-0.2-1-0.8c-0.2-0.2-0.3-0.2-0.3-0.3c0.2-0.2,0.5-0.6,2.1-1.7
			l2.4-1.6c0.3-0.3,0.3-0.3,0.8,0.2l4.6,3.2c0.3,0.2,0.5,0.3,0.5,0.5v0.3c0,0,0,0-1.1,3.8c-0.2,0.3-0.3,1.1-0.5,1.4
			c-0.2,0-0.3-0.2-0.5-0.3l-1-0.6h-0.2c-0.5,0-0.8,0.2-1,0.5c-0.2,0.3-0.3,0.8-0.2,1.1v0.2c0,0,0,0.2,0.6,0.6l2.5,1.9l3.2,2.7h0.2
			c0,0,0,0,0.2,0c0.3,0,0.6-0.2,1-0.5c0.2-0.3,0.3-0.6,0.2-1v-0.2c0,0,0-0.2-0.8-0.8c-0.8-0.8-1-1.3,0-4.1c0,0,0,0,4.1-14l1-3.2
			c1.3,0.2,2.5-0.5,3.3-1.4c1.1-1.7,0.8-4-1-5.2c-1.7-1.3-4.1-1-5.2,0.8c-0.8,1.1-0.8,2.7-0.2,3.8l-1.6,1.1l0,0
			c-0.2,0.2-8.1,5.4-8.1,5.4l-1.1,0.8l0,0c-1.1,0.8-2.9,1.9-3.5,2.2l0,0l-2.2,1.4c-0.8,0.5-1.4,0.6-2.1,0.3l-1.1-0.5h-0.2
			c-0.3,0-0.6,0.2-1,0.6C157.7,62.9,157.6,63.4,157.7,63.8L157.7,63.8"/>
	</g>
</g>
</svg>
