<?xml version="1.0" encoding="utf-8"?>
<!-- Generator: Adobe Illustrator 26.3.1, SVG Export Plug-In . SVG Version: 6.00 Build 0)  -->
<svg version="1.1" id="affiliation" xmlns="http://www.w3.org/2000/svg" xmlns:xlink="http://www.w3.org/1999/xlink" x="0px"
	 y="0px" viewBox="0 0 256 256" style="enable-background:new 0 0 256 256;" xml:space="preserve">
<style type="text/css">
	.st0{fill:#FFFFFF;}
	.st1{display:none;fill:#FFFFFF;}
	.st2{fill-rule:evenodd;clip-rule:evenodd;}
	.st3{fill-rule:evenodd;clip-rule:evenodd;fill:#32A189;}
</style>
<rect id="black" width="256" height="256"/>
<circle id="background_x5F_circle" class="st0" cx="128" cy="128" r="128"/>
<path id="background_x5F_rectangle" class="st1" d="M206.9,256H49.1C22.1,256,0,233.9,0,206.9V49.1C0,22.1,22.1,0,49.1,0h157.9
	c27,0,49.1,22.1,49.1,49.1v157.9C256,233.9,233.9,256,206.9,256z"/>
<g id="logo">
	<g>
		<path class="st2" d="M231.9,90.8h-49.1v16.7h14.4v57.7h20.4v-57.7h14.4C231.9,107.6,231.9,90.8,231.9,90.8z M177.8,165.2h-20.4
			V90.8h20.4V165.2z M154,165.2h-22.7l-27-29v-16.6l26.1-28.9h23.4l-30.1,37.4L154,165.2z"/>
		<path class="st2" d="M99.4,165.2L99.4,165.2L99.4,165.2L99.4,165.2z"/>
		<path class="st2" d="M99.4,165.2L99.4,165.2L99.4,165.2L99.4,165.2z"/>
		<path class="st3" d="M41.3,118c-3.9,4.7-7.3,9.9-9.9,15.5l68,31.6L41.3,118L41.3,118z"/>
		<path class="st3" d="M99.4,165.2L67.7,97.7c-5.7,2.6-10.9,5.8-15.6,9.6L99.4,165.2L99.4,165.2z"/>
		<path class="st2" d="M99.4,165.2l0.1-74.4h-0.6c-6,0-11.9,0.8-17.6,2.1L99.4,165.2z"/>
		<path class="st2" d="M99.4,165.2L99.4,165.2L99.4,165.2L99.4,165.2L99.4,165.2z"/>
		<path class="st2" d="M99.4,165.2L99.4,165.2L99.4,165.2L99.4,165.2L99.4,165.2z"/>
		<path class="st3" d="M26.5,147c-1.5,5.8-2.3,11.9-2.4,18.2h75.3C99.4,165.2,26.5,147,26.5,147z"/>
	</g>
</g>
</svg>
