<?xml version="1.0" encoding="utf-8"?>
<!-- Generator: Adobe Illustrator 26.3.1, SVG Export Plug-In . SVG Version: 6.00 Build 0)  -->
<svg version="1.1" id="affiliation" xmlns="http://www.w3.org/2000/svg" xmlns:xlink="http://www.w3.org/1999/xlink" x="0px"
	 y="0px" viewBox="0 0 256 256" style="enable-background:new 0 0 256 256;" xml:space="preserve">
<style type="text/css">
	.st0{fill:#FFFFFF;}
	.st1{display:none;fill:#FFFFFF;}
	.st2{fill:#A90A2E;}
	.st3{fill:#706F6F;}
</style>
<rect id="black" width="256" height="256"/>
<circle id="background_x5F_circle" class="st0" cx="128" cy="128" r="128"/>
<path id="background_x5F_rectangle" class="st1" d="M206.9,256H49.1C22.1,256,0,233.9,0,206.9V49.1C0,22.1,22.1,0,49.1,0h157.9
	c27,0,49.1,22.1,49.1,49.1v157.9C256,233.9,233.9,256,206.9,256z"/>
<g id="logo">
	<g>
		<g>
			<g>
				<path class="st2" d="M158,75.4c0,13.3-10.8,24.1-24.1,24.1c-13.3,0-24.1-10.8-24.1-24.1c0-13.3,10.8-24.1,24.1-24.1
					C147.2,51.3,158,62.1,158,75.4z"/>
				<g>
					<g>
						<g>
							<path class="st2" d="M115.9,110.6c0,6.3-5.1,11.4-11.4,11.4c-6.3,0-11.4-5.1-11.4-11.4s5.1-11.4,11.4-11.4
								C110.8,99.2,115.9,104.3,115.9,110.6z"/>
							<path class="st2" d="M139.9,135.1c0,3.3-2.7,6-6,6c-3.3,0-6-2.7-6-6c0-3.3,2.7-6,6-6C137.2,129.1,139.9,131.8,139.9,135.1z"
								/>
						</g>
					</g>
				</g>
			</g>
		</g>
		<g>
			<path class="st3" d="M47.2,164.5c0-5.7-0.4-5.8-3.9-6.6l-1.2-0.2c-0.6-0.4-0.5-1.8,0.2-2.1c2.8,0.2,5.4,0.2,8,0.2
				c2.6,0,5.2-0.1,8.4-0.2c0.7,0.2,0.7,1.6,0.2,2.1l-1.6,0.2c-3.5,0.6-3.9,0.9-3.9,6.6v11.6c0,8.2,2.7,13.8,10.7,13.8
				c7.4,0,10.6-5.6,10.6-13.7v-7.7c0-8.2-0.5-10.1-4-10.6l-1.7-0.2c-0.6-0.5-0.5-1.6,0.2-2.1c2.6,0.2,4.5,0.2,6.9,0.2
				c2.4,0,4.2-0.1,6.8-0.2c0.7,0.4,0.7,1.6,0.1,2.1l-2.5,0.2c-2.1,0.2-2.8,2.5-2.8,10.6v8.1c0,10.5-4.9,16.1-15.3,16.1
				c-5.3,0-9.2-1.1-11.7-3.5c-2.5-2.5-3.5-6.3-3.5-11.6V164.5z"/>
			<path class="st3" d="M123.6,156.3c0,1.7,0.2,5.8,0.7,9.1c-0.3,0.7-1.6,0.8-2.1,0.2c-1.2-4.5-4-8.4-11.4-8.4
				c-7.1,0-14.1,4.8-14.1,16c0,11,7.1,17.3,14.8,17.3c7.7,0,10.9-6.2,11.9-8.3c0.4-0.7,1.7-0.7,2.1,0.1c-0.4,3.6-1.7,7.4-2.7,8.9
				c-2.4,0.4-5.4,1.7-11.1,1.7c-5.2,0-10.3-0.9-14.5-3.8c-4.4-3-7.8-8.1-7.8-14.6c0-6.7,2.8-11.6,6.9-14.8c4-3.1,9.7-4.8,16-4.8
				C117.7,154.7,122.9,156.3,123.6,156.3z"/>
			<path class="st3" d="M137.8,165.5c0-5.4-0.1-6.6-2-6.9l-2.5-0.4c-0.7-0.2-0.7-1.8,0.1-2.1c4.6-0.3,8.8-0.5,13.2-0.5
				c4.6,0,7.6,0.6,9.9,1.4c2.7,1,6.7,3.8,6.7,9.6c0,5.7-3.8,8.3-6.8,9.4c-2.8,1-5.9,1.4-7.5,1.2c-0.4-0.4-0.4-1.2-0.1-1.5
				c5.1-1.1,7.7-4.1,7.7-9.4c0-5.4-3.4-8.4-9-8.4c-3.4,0-3.4,0.5-3.4,2.8V183c0,5.7,0.3,6.1,3.9,6.6l1.9,0.2
				c0.6,0.4,0.5,1.8-0.2,2.1c-3.5-0.2-6.2-0.2-8.7-0.2c-2.6,0-5.2,0.1-8.1,0.2c-0.7-0.2-0.7-1.6-0.2-2.1l1.2-0.2
				c3.5-0.7,3.9-0.9,3.9-6.6V165.5z"/>
			<path class="st3" d="M198.8,171.7c2.6,0,3,0,3-2.1v-5c0-5.7-0.3-6-3.9-6.6l-1.6-0.2c-0.6-0.4-0.5-1.8,0.2-2.1
				c3.2,0.2,5.8,0.2,8.4,0.2c2.6,0,5.2-0.1,8.4-0.2c0.7,0.2,0.7,1.6,0.2,2.1l-1.6,0.2c-3.5,0.6-3.9,0.9-3.9,6.6V183
				c0,5.7,0.3,6.1,3.9,6.6l1.9,0.2c0.6,0.4,0.5,1.8-0.2,2.1c-3.5-0.2-6.2-0.2-8.7-0.2c-2.6,0-5.2,0.1-8.4,0.2
				c-0.7-0.2-0.7-1.6-0.2-2.1l1.6-0.2c3.5-0.6,3.9-0.9,3.9-6.6v-6.5c0-2.1-0.2-2.1-3-2.1h-14.5c-2.8,0-3,0.1-3,2.1v6.5
				c0,5.7,0.3,6.2,3.9,6.6l2.2,0.2c0.6,0.4,0.5,1.8-0.2,2.1c-3.8-0.2-6.5-0.2-9.1-0.2c-2.6,0-5.2,0.1-7.7,0.2
				c-0.7-0.2-0.7-1.6-0.2-2.1l0.9-0.2c3.5-0.9,3.9-0.9,3.9-6.6v-18.4c0-5.7-0.3-6.1-3.9-6.6l-1.9-0.2c-0.6-0.4-0.5-1.8,0.2-2.1
				c3.5,0.2,6.1,0.2,8.7,0.2c2.6,0,5.2-0.1,8.1-0.2c0.7,0.2,0.7,1.6,0.2,2.1l-1.2,0.2c-3.5,0.7-3.9,0.9-3.9,6.6v5
				c0,2.1,0.3,2.1,3,2.1H198.8z"/>
		</g>
	</g>
</g>
</svg>
