<?xml version="1.0" encoding="utf-8"?>
<!-- Generator: Adobe Illustrator 26.3.1, SVG Export Plug-In . SVG Version: 6.00 Build 0)  -->
<svg version="1.1" id="affiliation" xmlns="http://www.w3.org/2000/svg" xmlns:xlink="http://www.w3.org/1999/xlink" x="0px"
	 y="0px" viewBox="0 0 256 256" style="enable-background:new 0 0 256 256;" xml:space="preserve">
<style type="text/css">
	.st0{fill:#FFFFFF;}
	.st1{display:none;fill:#FFFFFF;}
	.st2{fill-rule:evenodd;clip-rule:evenodd;fill:#BD2B30;}
	.st3{fill:#BD2B30;}
</style>
<rect id="black" width="256" height="256"/>
<circle id="background_x5F_circle" class="st0" cx="128" cy="128" r="128"/>
<path id="background_x5F_rectangle" class="st1" d="M206.9,256H49.1C22.1,256,0,233.9,0,206.9V49.1C0,22.1,22.1,0,49.1,0h157.9
	c27,0,49.1,22.1,49.1,49.1v157.9C256,233.9,233.9,256,206.9,256z"/>
<g id="logo">
	<g>
		<path class="st2" d="M86.1,197.7c-1.7-1.3-3.6-2.5-5.5-3.4c-2.1-0.3-4.3,0-5.5,1.8c-1.2,1.4-1,3.5-0.4,5.1c0.5,1-2.2,1.6-2.5,2.4
			c-1.1,1.4,0,3.7,1,4.5c1,0.9,2,1.5,3,2.2c1.6,1.3,3.4,1.9,5.2,2.7c0.3,0.1,0.7,0.2,1-0.1c0.6-0.8,0.1-0.6-0.5-1.4
			c-0.8-1.4,0.9-3.6,1.4-4.7c1-2.1,1.6-4.1,3.7-5.2c0.9-0.4,2.4,0.3,2.8-0.8C89,199.3,87.3,199,86.1,197.7L86.1,197.7z M78.2,208.6
			c-1.1,0.5-2-1-2.8-1.5c0-0.6,0.1-1.4,0.3-1.9c0.4-0.3,1.4-1.4,1.9-1.1c0.4,0.6,1.3,1.2,2,1.6C79.8,206.4,78.6,207.9,78.2,208.6
			L78.2,208.6z M81.6,201.8c-0.2,0.4-0.7,1.6-1.2,1.8c-0.8-0.3-1.6-1-2.3-1.7c-1.4-1.5,0.2-2.8,0.4-3.8c1.3-0.9,3.7-0.8,4.8,0
			C84.1,199.3,82,200.7,81.6,201.8L81.6,201.8z"/>
		<path class="st2" d="M118,131.8c-1,0.4-0.1,1.9-1.7,2c-1.3,0.1-3.1-1.1-3.8-2.3c0.6-0.7,2.3-1,2.3-3.2c0-2-0.5-3.1-2.9-3.9
			c-1.6-0.5-3.6-0.2-5.4-0.3c-0.7,0.1-1.8-0.2-2.2,0.5c-0.2,0.5,0.6,0.5,0.9,1c0.4,2.4,0,6.4-0.2,8.7c0,0.7-1.5,1-0.8,1.8
			c0.5,0.9,2.2,0.2,3,0.3c0.4,0.1,0.8,0.3,1.2,0c0.8-0.5,0.1-1.3,0.1-2.1c0.1-0.7-0.8-2.5,1.8-0.9c1.4,0.9,2.5,2.3,4.2,2.7
			c1,0.2,2.8,0.5,3.6-0.5c0.6-1,1.1-1.9,0.8-3.2C118.6,132.1,118.5,131.6,118,131.8L118,131.8z M111,129.9c-0.4,0.8-1.3,0.9-2.2,0.8
			c-0.7-0.3-0.1-2.5-0.4-3.1c-0.2-0.4-0.1-1.2,0.2-1.5c0.8-0.3,2-0.4,2.4,0.6C111.3,127.4,111.3,129.3,111,129.9L111,129.9z"/>
		<path class="st2" d="M110.7,67.4c-0.5-0.6-3.6,0.4-4.2,0.6c-1.5,1.1-0.7,3.1-0.4,4.5L106,77c-0.2,1.5-0.7,2.9-1.2,4.3
			c0.7,0.7,1.8,0,2.7-0.3c0.5-0.4,1.4-0.4,1.6-1.1c0-0.4-0.5-0.3-0.8-0.4c-0.2-0.3-0.4-0.5-0.4-0.9c0-0.9,0.9-1.5,1.5-2.1
			c0.7-0.3,3.4-1.8,4.2-1.2c0.4,0.3,0.6,0.7,0.7,1.2c0.2,0.7-1.8,1.7-0.2,2.2c1.5,0.4,3.7-1.6,5.1-2.1l0.1-0.3
			c-1.3-1.2-1.1-0.3-2.1-1.8C117.2,74.5,112.2,68.3,110.7,67.4L110.7,67.4z M111.7,73.9c-0.5,0.3-3.1,1.6-3.6,1.2
			c-0.4-1.1-0.7-3.9-0.1-5.1c1.4-0.6,2.8,2,3.6,2.7C111.8,73.1,111.8,73.6,111.7,73.9L111.7,73.9z"/>
		<path class="st2" d="M96.8,82.1c-0.6-0.1-1.2,0-1.6,0.5c-0.3,0.5-0.3,1.2-0.2,1.8c-0.2,0.6-0.6,1.3-1.3,1.5
			c-0.6,0-2.1-0.1-2.1-0.1c0.5-1.5,0.6-3.8-0.7-5.1c-0.9-1-1.8-1.7-3.2-1.4c-1.6,0-3.1,0.5-3.9,2c-1.2,1.2-2.9,2.1-4.2,3.3
			c-0.3,0.4,0.1,0.8,0.3,0.9c1.2-0.3,2.1,0.5,2.9,1.2c1.1,1.4,2.5,3.4,3.6,4.8c1,0.9-0.4,2.2,0.7,3.1c0.2,0.3,0.7,0.3,1,0.1l3.4-3.5
			c0.3-0.6-0.2-1.4-0.9-1.1c-0.4,0-1-0.2-1.1-0.8c1.7-1,4-0.4,5.8-1.1c1.1-0.5,2.3-1.6,2.6-2.8C98.2,84.2,98,82.8,96.8,82.1
			L96.8,82.1z M87.9,87.2c-1.1,0-2.5-2.9-3.4-3.3c0.1-0.4,1-1.4,1.4-1.5c1.7-1.2,3.1,1.2,3.3,2.5C89.3,85.7,88.3,86.8,87.9,87.2
			L87.9,87.2z"/>
		<path class="st2" d="M121,214.8c-0.5,1.5-1.1,2.9-2.1,4.2c-1.1,1.4-2.7,2-4.2,2.5c-2.3,0.7-3.1-1-4.9,0.9
			c-0.2,0.4,0.1,0.8,0.4,1.1c1.9,0.9,2.5,0.6,4.8,0.6c1.4,0.2,3.1,0.2,4.6,0.2c1.4-0.7,2.9-0.8,4.2-1.4c1.4-0.5,3.5-2.4,5-2.2
			l4.3,2.2c4.2,1.2,6.1,0.9,9.2,0.7c1.3-0.2,2.2-1.3,2.9-2.3c0.1-0.5,0.3-1.3-0.2-1.7c-0.6-0.6-1.3,0.1-2-0.1
			c-2.3-0.5-4.8-0.7-6.4-2.9c-0.5-0.5-0.9-1.1-1.3-1.8l-2.9,0c1,1.8,2.2,3.4,3.4,4.9c0.2,0.3,0.9,0.5,0.6,1
			c-0.9,0.3-2.6-1.2-3.4-1.6c-2.1-1-4-3.8-7.2-2.1c-0.7,0.4-1.2,0.7-1.9,1.1c-0.4,0.2-2.1,1.8-2.6,1.6l1.5-2.7
			c0.2-0.8,0.5-1.5,0.8-2.3L121,214.8L121,214.8z"/>
		<path class="st2" d="M111.7,205.3c0.1,0,0.1,0,0.2,0c2.2,0.3,4.8,0.1,6.9,0.6c1,1,2.6,1.1,3.2,2.5c0.3,0.7,0.4,1.6,0.1,2.4
			c-0.4,1.3-0.7,2.6-1.1,3.9l2.9,0c0.4-1.2,0.9-2.3,1-3.6c0.2-1.3,0.5-2.8-0.3-4c-0.3-0.6-0.9-1.3-1.5-1.9L111.7,205.3L111.7,205.3z
			 M132.4,205.3c-0.8,1.5-1.4,3.1-1.4,4.4c0.2,1.9,0.9,3.6,1.7,5.2l2.9,0c-1.3-2-2-4.5-1.2-6.9c0.8-1.3,2.3-1.3,3.7-1.4
			c1.9-0.5,3.8-0.9,5.7-1.3L132.4,205.3L132.4,205.3z"/>
		<path class="st2" d="M73.5,186.2c0,0,0.1,0.1,0.1,0.1c2.3,3,5.5,4.6,8.1,7.1c3.8,2.5,7.9,4.6,11.9,6.6c2.3,1.2,4.8,1.9,7.4,2.6
			c3.3,1.6,7.2,1.6,10.7,2.7l11.5,0c-1.6-1.6-3.6-3.1-4.5-4c0-0.5,0.3-0.5,0.8-0.6c1.8,0,6.2,2.8,7.6,1.3c0.4-0.4,0.8-1.3,1.4-1.2
			c1,1.7,3,1.1,4.5,0.9c0.7-0.1,2-0.8,2.7-1c0.1,0.1,0.3,0.4,0.1,0.5c-1.3,0.8-2.6,2.3-3.5,4l11.5,0c3.1-0.6,6.1-1.3,8.9-2.8
			c3.8-1,7.2-2.8,10.8-4.4c3.1-1.8,6.1-3.6,9-5.6c2.5-1.8,4.7-4,6.8-6.3l-3.9,0c-2.9,3-6.6,4.7-9.9,6.9c-4.8,2.7-9.7,5.2-14.9,7.1
			c-3,1.6-6.5,1.9-9.7,3.1c-0.8,0.1-1.7,0.1-2.2-0.6c-0.1-0.4-0.3-0.9,0-1.2c1-0.8,2.6-0.6,3.2-2.2c0.1-1-0.7-1.2-1.5-1.6
			c-1.4-0.5-2.9,0.3-4.3,0.5c-1.7,0.5-3.1,1.3-5.1,0.7c-0.6-0.4-1.2-0.9-1.7-1.4l0-0.3c1.5,0.3,3-0.3,4.6-0.2c2.8,0.2,5.2-0.9,8-0.7
			c4.5-0.3,8.7-1.4,12.4-3.6c3.9-1.7,7.8-3.8,11.3-6.5c0,0,0,0,0.1,0l-5,0c-2.8,1.7-5.5,3.3-8.4,4.7l-6,2.1l-1.7,0.4l-14.8,1.5
			c-1.8,0.4-3.6-0.2-5.4-0.2c-2.5-0.4-5.1-0.6-7.5-1.1c-8.5-1.2-16.7-3-23.9-7.3l-5,0c3.3,2.4,6.7,4.6,10.6,5.6
			c4,1.5,8.2,2.3,12.3,3.4c5.3,1.2,11.1,1.4,16.7,1.9l0.1,0.2c-1.7,0.6-1.8,3.9-4.1,2.7c-2.4-0.8-4.2-1.8-6.5-2.7
			c-1.1,0.1-3.2-0.6-3.7,0.6c-0.3,0.7-0.6,1.5-0.3,2.3c0.2,0.4,0.6,0.5,1,0.4c0.4-0.6,1.3-0.2,1.9,0c0.3,0.1,0.3,0.6,0.1,0.8
			c-1.8,1.3-4.1,0.1-6.2,0.1c-2.7-0.9-5.7-1.1-8.3-2.4c-1.7-0.5-3.3-1.3-5-1.7c-3.7-2-7.5-3.7-11.1-6c-2.4-1.5-4.8-3.2-7-5.1
			L73.5,186.2L73.5,186.2z"/>
		<path class="st2" d="M53,148c0.9,3.4,2.1,6.7,3.3,10c1.6,2.6,2.2,5.7,3.7,8.3c4.2,6.8,8.4,13.5,13.5,19.9l5.1,0
			c-2.5-2.2-4.7-4.7-6.4-7.5c-4.4-5.5-7.8-11.3-10.6-17.5c-0.7-2.1-2.1-4-2.8-6.2c-1-2.3-1.8-4.7-2.5-7.1L53,148L53,148z M62.5,148
			l1.1,4.1c0.9,3.1,2.5,5.9,3.4,9c1.6,4.7,5.3,8.5,8.1,12.7c2.3,3.4,5.7,6.3,8.7,9.4c1.4,1,2.8,2.1,4.1,3.1l5,0
			c-1-0.6-1.9-1.2-2.8-1.9c-4-2.7-7.9-6.1-11-9.8c-2.4-2.5-4.3-5.3-6.3-8c-2-2.1-2.7-4.7-4.1-7.1c-1.3-3.7-2.5-7.4-3-11.4L62.5,148
			L62.5,148z M79.7,148c1.2,2.1,2.4,4.1,3.5,6.2c1.9,3.5,5.3,6.5,7.8,9.7c1.9,1.9,4.1,3.6,6.1,5.5c5.8,4.8,12.7,6.8,19.5,9.1
			c3.7,1.1,7.7,1.5,11.8,1.8c3.7,0.1,7.2-0.6,10.7-1.2c1.4,0.2,2.5-0.6,3.8-0.9c2.9-0.3,5.2-2.1,8-3c3-1.4,5.9-3.3,8.9-4.7
			c3.6-2.6,6.2-6.5,9.5-9.6c1.4-2.7,4.1-4.9,5.2-7.8c0.7-1.8,1.9-3.5,2.8-5.2l-3.2,0c-0.8,1.6-1.9,3-3,4.4c-1.3,0.3-2.2-1.1-3-1.9
			c-0.7-0.8-1.4-1.6-2.1-2.4l-4.1,0c1.6,1.6,3.1,3.1,4.8,4.6c0.9,1.3,2.6,2.9,1.3,4.6c-1.3,2.9-4.2,4.9-6.5,7.1
			c-0.4,0.4-1,0.5-1.7,0.4c-2-3.3-3.5-6.9-5.3-10.3c-0.9-1.4-1.4-3.1-2.2-4.7c-0.3-0.6-0.7-1.3-1.1-1.9l-3.1,0
			c0.5,0.9,0.9,1.9,1.4,2.8c1.6,2.5,2.4,5.3,3.7,8c1.6,2.5,2.8,5,4.6,7.5c0.1,0.3,0.2,0.6,0,1c-1.8,1.7-4.1,2.6-6.3,3.6
			c-1.8,0.5-3.5,1.3-5.4,1.3c-0.5-0.1-1-0.5-1-1.2c-1.2-6-1.3-12.5-2.3-18.5c-0.2-1.4-0.3-2.9-0.4-4.3l-7.2,0l0.8,0.5
			c1.5,1.3,3.8,2.5,3.7,4.8c0.7,2.6,1.1,6.3-0.6,8.6c-1,2.7-3.1,5.8-5.9,7c-2.6,1.6-8.1,1.7-10.5,0c-3.9-2.3-5.8-11.2-3.8-15
			c0.8-1.9,3.1-4.4,5.5-5.9l-6.7,0c-3.5,3.2-5.2,7.4-5.5,12.1l-0.7,4.5c-1.4,1.6-1.6,3.7-3,5.2c-2.1,0.3-3.7-1.3-5.4-2.3
			c-1.1-1-1-2.9-0.4-4.2c1.1-3,3.6-5.5,4.6-8.5c1.4-2.2,2.1-4.6,3.5-6.8l-2.7,0c-1.2,2.6-2.4,5.2-3.8,7.7c-1.2,1.5-1.5,3.3-2.6,4.8
			c-1,1-1,3-2.8,3.1c-2.7-0.8-5-3.1-6.9-5.3c-0.5-2.5,1.2-4.4,2.3-6.3c1.1-1.3,2.2-2.7,3.2-4.1l-3.6,0c-0.8,0.9-1.6,1.7-2.4,2.4
			c-1.1,0.5-1.7,2.1-3.1,1.6c-1.1-1.1-2-2.6-2.7-4.1L79.7,148L79.7,148z M191,148c-0.1,0.3-0.1,0.6-0.2,1c-0.9,2.3-1.5,4.6-2.5,6.8
			c-1.2,2.3-1.8,4.9-3.5,7.1c-1.9,2.7-3.5,5.6-5.8,8.1l-2.9,3.3c-2.7,1.8-4.9,4.8-7.7,6.6c-1.6,1.1-2.9,2.6-4.6,3.5
			c-1,0.6-1.9,1.2-2.9,1.8l5,0c2.1-1.3,4-3.1,6.1-4.5c4.2-4.8,9.8-8.9,13-14.2c3.5-4.5,5.9-9.5,7.9-14.6c0.8-1.5,1.4-3.1,1.9-4.8
			L191,148L191,148z M199.7,148c-0.3,0.9-0.6,1.7-0.9,2.6c-1.8,4.7-3.7,9.4-6.5,13.7c-2.3,4.8-5.6,9.1-8.6,13.6
			c-2.1,2.7-4.9,4.7-7.1,7.1c-0.4,0.4-0.7,0.9-1.1,1.3l3.9,0c1.5-1.6,2.9-3.1,4.5-4.5c1.4-1.9,2.9-3.8,4.5-5.6
			c2.4-3.2,4.8-6.6,6.4-10.2c1.2-2.1,2.4-4.1,3.4-6.3c2.1-3.6,3.3-7.6,4.4-11.6L199.7,148L199.7,148z M114.9,167.5
			c1.3,2.7,4.2,3.6,6.6,4.7c2,0.3,3.7,1.3,5.8,1.6c0.5,0.2,0.4,0.7,0.5,1.2c-0.6,1.6-2.7,0.6-4.1,0.9c-2.3-0.7-4.8-0.9-7-1.9
			c-1.9-0.4-3.8-1-5.4-2.3c-0.4-0.2-0.1-0.6-0.1-1c0.5-1.4,1-2.7,1.7-4c0.1-0.5,0.5-1,0.5-1L114.9,167.5L114.9,167.5z M142.1,165
			c0.3,2.7,0.8,5.3,1,7.9c0,0.7-0.7,1.1-1.2,1.4c-1.5,0.8-3.2,1-4.9,1.3c-1.7,0.1-3.7,0.7-5.3,0c-0.6-0.7-0.3-1.7,0.1-2.4
			c1.8-1.7,4.3-1.6,6-3.5c1.8-1.3,2.3-3.2,3.5-4.9C141.5,164.1,142.1,164.6,142.1,165L142.1,165z"/>
		<path class="st2" d="M50.9,138.5c0.5,3.3,1.2,6.4,2,9.5l3.4,0c-0.9-3.2-1.7-6.4-2.6-9.5L50.9,138.5L50.9,138.5z M60.3,138.5
			c0.1,0.4,0.1,0.8,0.1,1.1c-0.3,1.3,1.3,4.6,1.5,5.8l0.7,2.6h3.3c0-0.3-0.1-0.6-0.1-0.9c-0.4-1.8-0.9-3.4-1.1-5.3
			c0.4-1.7,2.3-0.9,3.5-1c1.2,0,2.1-0.6,3.2-0.6c1.9,0.3,4.9-0.8,5.7,1.6c0.5,2.2,1.5,4.2,2.6,6.1l5.8,0c-0.6-1.3-1-2.7-1.1-4
			c0.1-0.8,0.2-1.9,1.1-2.1c2.2-0.9,5.4,0.4,7.8,0l1.9,0.1c0.8,0.1,1.7,0.2,2.2,0.8c-0.1,1.2-1.1,1.9-1.6,2.9
			c-0.7,0.7-1.4,1.5-2.1,2.3l3.6,0c1.1-1.4,2.2-2.9,3.5-4.3c2.3-2.2,5.9-2.7,8.9-1.7c0.3,0.2,0.4,0.6,0.4,0.9
			c-0.2,1.3-1.2,2.2-1.5,3.4c-0.2,0.5-0.5,1.1-0.7,1.6l2.7,0c0.2-0.3,0.4-0.6,0.6-0.8c1.1-1.9,2-4.1,4.1-5.5c2.2-1,5-0.3,6.5,1.6
			c0.7,0.3,1-0.5,1.5-0.5c1.1-0.4,2.2-0.5,3.3,0.1c0.4,0.5,1,0.9,1.7,0.8c1.3,0,2.2-1,3.4-1.3c1.8-0.3,4.1-0.5,5.8,0.4
			c0.9,1,0.8,2.4,1.1,3.6c0.1,0.4,0.1,0.8-0.2,1.1c-0.9,0.4-0.7-0.6-2.3-1.1c0,0-2.6-1.1-3.6-1.5c-1.8-0.8-4-0.1-6.1-0.3
			c-2.7,0.7-5.9,1-8.2,2.8c-0.2,0.2-0.5,0.4-0.7,0.6l6.7,0c1.2-0.7,2.4-1.2,3.5-1.2c2.5-0.1,4.9,0.3,7.1,1l0.3,0.2h7.2
			c-0.1-0.7-0.1-1.4-0.3-2.1c-0.3-0.9-0.2-1.9,0.1-2.7c0.9-1,2.6-0.6,3.3,0.4c1,1.4,1.7,2.9,2.5,4.5l3.1,0c-0.7-1.1-1.4-2.2-1.5-3.6
			c0-0.5,0.5-0.9,1-1.2c1.8-0.3,3.8-0.1,5.6,0l1.3,0.6c1.4,1.4,2.8,2.8,4.2,4.2l4.1,0c-1-1.2-2.1-2.3-3.3-3.3
			c-0.5-0.7-1.4-1.3-1.3-2.2l0.5-0.4c3.8-0.2,7.6-1.2,11.3-0.2l1.3,0.5l0.3,0.5c0.4,1.9,0,3.6-0.7,5.1l3.2,0c0.4-0.7,0.7-1.5,1-2.3
			c0.8-1.7,1.1-3.5,2.3-5.1c2.3-0.8,5-0.6,7.6-0.8l4.5,0.1c0.7,0.6,0.1,1.6,0,2.4c-0.5,1.9-1.1,3.8-1.5,5.7l3.7,0
			c0.7-2.3,1.2-4.7,2.1-7c0.4-0.3,0.7-1.4,0.9-2.5L60.3,138.5L60.3,138.5z M201.9,138.5c0,0.1-0.1,0.2-0.1,0.3
			c-0.3,3.2-1.2,6.2-2.2,9.2l2.8,0c0.1-0.5,0.3-1.1,0.4-1.6c0.6-2.6,1-5.3,1.5-7.9L201.9,138.5L201.9,138.5z"/>
		<path class="st2" d="M49.7,128.9c0.1,3.1,0.1,6.2,1.2,8.9c0,0.2,0.1,0.4,0.1,0.7l2.9,0c-0.1-0.4-0.2-0.9-0.4-1.3
			c-0.2-0.8-0.5-1.8,0.2-2.5c1-0.6,1.9,1.8,2.9,0.8c0.7-1,2.4-2.2,2.7-1c0.3,1.4,0.8,2.9,1,4l137.4,0c0.2-0.9,0.2-1.8,0.3-2.1
			c0-0.4,0-0.9,0.3-1.3c0.7-0.3,1.4,0.5,2.1,0.6c0.7,0.1,1.6-0.5,2.1-0.2c0.4,0.6-0.3,2.1-0.6,3l2.5,0c0.2-1.4,0.5-2.8,0.7-4.2
			c0.5-1.7,0.5-3.5,0.6-5.4l-3.6,0c0.1,0.1,0.2,0.2,0.3,0.3l0.2,1c0.3,0.7-0.1,1.3-0.5,1.8c-0.6,0.5-1.3,1-2.1,0.8
			c-0.9-0.1-1.5-0.9-1.9-1.6c-0.1-0.4,0.3-2,0.6-2.3c0,0,0,0,0,0l-4.6,0c0.2,2.2,0.8,4.3,0.5,6.5c-0.3,0.6-1,0.9-1.5,1
			c-1.2,0.4-2.4-0.1-3.7,0c-3.9,0.1-7.9,0.7-11.8,0.4c-1.8,0.2-3.9,0-5.7,0.3c-1.8,0.6-3.9,0.2-5.8,0.5c-1.8-0.3-3.5,0.1-5.3,0
			c-2.8-0.4-6-0.3-8.8,0.1c-4.7-0.4-9.5-0.1-14.4-0.2c-2.7-0.4-5.7,0.1-8.6,0.1c-4.4-0.3-8.8,0.3-13,0c-7.1-0.2-14.3,0-21.4-0.1
			c-3,0.1-5.7-0.9-8.9-0.5c-4.8-0.4-9.9-0.2-14.5-1.4c-1.9,0.2-4,0.1-5.8,0.1c-0.5,0-0.7-0.6-0.8-1c-0.4-1.9-1.2-3.8-1.6-5.8l-4.9,0
			c0.2,0.4,0.3,0.8,0.1,0.9l-1.2,1.6c-0.5,0.5-1.8,0.4-2.6,0.3c-0.6,0-0.8-0.7-1.1-1c-0.2-0.2-0.3-1.1-0.4-1.8L49.7,128.9
			L49.7,128.9z"/>
		<path class="st2" d="M50,119.4c-0.4,2-0.5,4.2-0.6,6.3c0.1,1.1,0.2,2.2,0.2,3.3l3.5,0c-0.1-0.4-0.1-0.8-0.1-1
			c0.2-0.3,0.6-1.1,0.9-1.2c0.7-0.1,2.1-0.1,2.7,0.2c0.5,0.1,1.3,1.2,1.6,2h4.9c-0.3-1.4-0.4-2.9,0.2-4.4c0.3-0.6,0.9-1.2,1.5-1.3
			c4.8,0,9.8-0.3,14.7-0.1c1-0.4,2.1,0.1,3.2-0.1c3.6-0.5,7.1,0.2,10.7,0.1c3.4-0.6,6.3,0.9,9.7,0.8c2.9-1,6.6-0.4,9.7-0.3
			c1.8,0,3.6-0.6,5.4,0c1.9,0.3,4,0.1,5.8-0.3c3.6,0.2,7.2-0.2,10.7-0.3c1-0.2,1.9,0.3,2.9,0c2.9-0.3,5.6,0,8.3-0.4
			c4.6,0.3,9.6,0,14.1,0.4c1.4-0.3,3,0,4.4,0c6.7-0.5,13.8-0.5,20.6-0.5c2.1-0.3,4.4-0.1,6.6-0.4c0.6,0.1,1.2,0.3,1.7,0.6
			c0.9,1.4,0.8,3.3,0.9,5.1c0,0.4,0,0.8,0,1.2l4.6,0c0.9-0.7,2.4-0.6,3.3,0l3.6,0c0-0.6,0.1-1.2,0.1-1.8c-0.1-2.6-0.3-5.2-0.6-7.7
			l-2.8,0c0.4,3.2,0.7,7,0.7,7s-1.1-0.9-1.8-0.8c-0.7,0.1-2.6,1.1-2.7,0.9c0-1.8-0.1-3.8-0.5-5.6c-0.2-0.5-0.3-1-0.3-1.5l-7.2,0
			c-0.2,0.1-0.3,0.2-0.5,0.3c-1.7,0.1-3.5,0.1-5.1,0.4c-1.8-0.4-3.5,0.2-5.2,0l-0.2-0.2c0-0.1,0-0.3,0-0.4l-2.5,0
			c0,0.2,0,0.3-0.1,0.4c-0.5,0.8-1.6,0.6-2.4,0.5c-0.6,0-1-0.4-1.6-0.5l-2.4-0.2c-0.2-0.1-0.4-0.1-0.5-0.2l-3.5,0
			c0.5,0.3,0.9,0.6,1.3,0.9c0.2,0.5-0.4,0.4-0.6,0.5c-1.7-0.3-3.4-0.3-5.2-0.3c-1-0.4-2-0.9-3.1-0.9c-0.2-0.1-0.3-0.2-0.5-0.2
			l-3.2,0c0.4,0.3,0.9,0.6,1.4,0.8c-0.1,0.3-0.6,0.2-0.9,0.3c-1.4-0.1-3,0-4.3-0.5c-0.5-0.2-0.9-0.4-1.4-0.6l-5.4,0
			c0,0.1,0,0.2,0,0.3c-0.6,0.4-1.2,0.5-1.9,0.6c-0.6,0-1.3,0.1-1.7-0.4c-0.1-0.1-0.2-0.3-0.3-0.4l-3.2,0c-0.2,0.4-0.4,0.8-1,0.8
			c-0.7-0.1-1.4-0.2-1.9-0.8l-2.5,0c0,0.2,0,0.4,0,0.6c-0.2,0.5-0.8,0.5-1.2,0.6c-0.6,0-0.9-0.6-1.1-1.2l-2.1,0
			c0,0.7-0.2,1.4-0.7,1.7c-0.5,0-1.3,0.1-1.6-0.5c-0.4-0.4-0.4-0.8-0.3-1.3l-2.2,0c-0.2,0.7-0.6,1.4-1.4,1.7c-1,0.1-2,0-2.9-0.3
			c-0.2-0.2-0.2-0.6,0-0.8c0.1-0.2,0.3-0.4,0.4-0.6l-2.8,0c-0.1,0.2-0.2,0.4-0.4,0.5c-0.8,1.2-2.3,0.4-3.4,0.6
			c-0.4,0-0.3-0.5-0.2-0.8c0.1-0.2,0.1-0.3,0.2-0.4l-2.8,0c-0.2,0.3-0.5,0.5-0.7,0.8c-1.7,0.9-4.1,0.7-6.1,0.5
			c-0.3-0.2-0.5-0.6-0.3-0.9c0.2-0.1,0.4-0.3,0.6-0.4l-6.3,0c-2,0.6-4.4,0.6-6.3,0H76.2c-0.4,0.2-1.1-0.1-1.5,0.1
			c-1.8,0.4-3.7,0.1-5.5,0.1c-0.8,0-1.6-0.1-2.4-0.2l-6.7,0c-0.3,1.7-0.6,3.3-0.9,5c-0.6,0.4-1.2-0.3-1.8-0.5
			c-0.6-0.6-1.3-1.4-2.2-1c-0.6,0.1-1.3,0.3-1.7,0.8c-0.2,0.1-0.5-0.1-0.5-0.3c0-1.3,0.2-2.6,0.4-3.9L50,119.4L50,119.4z"/>
		<path class="st2" d="M51.7,109.8c-0.3,1.1-0.4,2.3-0.4,3.6c-0.9,1.3-0.8,3.1-1,4.8c-0.1,0.4-0.2,0.8-0.3,1.2l3.3,0
			c0.4-2.5,0.9-5,1.3-7.5c0.2-0.7,0.3-1.3,0.5-2L51.7,109.8L51.7,109.8z M61.7,109.8c-0.4,2-0.9,4-1.1,6.1c-0.2,1.1-0.5,2.3-0.7,3.4
			l6.7,0c-0.9-0.1-1.7-0.3-2.5-0.5c-0.5-0.6-0.9-1.3-0.8-2.2c-0.1-2.5,0.5-4.7,1.2-6.8L61.7,109.8L61.7,109.8z M79.5,109.8
			c-1.1,3-1.8,6.2-2.9,9.2c-0.1,0.2-0.2,0.3-0.4,0.3l14.5,0c-0.1,0-0.1,0-0.2-0.1c-0.3-0.2-0.1-0.7,0-0.9c3.1-2.5,7-3.2,10.5-5
			c2.2-0.5,4-2.1,6.1-2.8c0.6-0.2,1.2-0.5,1.7-0.8l-4.3,0c-0.8,0.4-1.7,0.8-2.6,1c-3.2,1.2-6.4,2.5-9.4,4.1c-2.5,1-4.7,2.8-7.5,2.5
			c-0.4-0.2-0.6-0.6-0.4-0.9c2.5-2.2,5.8-2.7,8.7-4.1c0.9-0.4,3.3-1.4,6.1-2.5l-6.3,0c-2.6,0.7-5,2-7.7,2.1c-0.4-0.2-1-0.4-1-0.9
			c-0.1-0.5,0.1-0.8,0.2-1.2L79.5,109.8L79.5,109.8z M112.9,109.8c-0.5,0.4-1.2,0.8-1.9,1.2c-4,3.2-8.5,5-12.6,7.8
			c-0.4,0.2-0.9,0.4-1.3,0.5l6.3,0c3.5-2.4,6.7-5.7,10.2-8.2c0.6-0.9,1.3-1.1,1.7-1.4L112.9,109.8L112.9,109.8z M117.5,109.8
			c-0.1,0-0.1,0.1-0.2,0.1c-0.8,1-1.6,2.2-2.2,3.3c-1.5,2.1-3.5,4.1-5.4,6.1l2.8,0c0.7-1.4,2.1-2.3,3.2-3.6c0.8-1.3,1.8-2.2,2.5-3.6
			c0.5-0.3,0.8-0.9,0.8-1.5c0-0.4-0.1-0.3-0.4-0.7c-0.2,0-0.4-0.1-0.5-0.2L117.5,109.8L117.5,109.8z M121.9,109.8
			c1.1,0.6,2.2,1,3.4,1.2c1.2-0.1,2.4,0.1,3.4-0.2c0.6,0.5,1.6-0.2,2,0.6c0.1,1.2,0.8,2.1,1.2,3.1c-0.3,1.7,0.5,3.1,0.5,4.8l2.5,0
			c-0.1-0.1-0.1-0.2-0.2-0.2c-0.5-2-1.2-4-1.3-6.2c-0.3-0.7-0.7-1.3-0.7-2.1c0.5-0.4,1,0.3,1.2,0.6c1.2,2.6,3.9,4.6,3.8,7.7
			c0,0.1,0,0.1-0.1,0.2l3.2,0c-2.2-2.9-3.7-6-5.6-9c-0.1-0.3,0.1-0.4,0.3-0.5L121.9,109.8L121.9,109.8z M136.2,109.8
			c0.4,0.3,0.4,1.1,1.1,1.1c1.4,1.2,2.9,2.7,4.3,4.2c1.3,1.2,2.2,2.6,3.2,3.8c0,0.1,0.1,0.3,0.1,0.5l5.4,0c-1.4-0.7-2.7-1.6-4-2.6
			c-2.7-2.1-4.8-5-7.6-7L136.2,109.8L136.2,109.8z M141.1,109.8c2.3,0.9,4,3,6.2,4.2c2.1,1.5,4.6,2.1,6.5,4c0.6,0.4,1.2,0.9,1.8,1.3
			l3.2,0c-2.7-1.4-5.2-3.3-7.6-5.4c-2.5-0.5-4.3-2.5-6.4-4c-0.1-0.1-0.3-0.1-0.4-0.2L141.1,109.8L141.1,109.8z M148,109.8
			c0.3,0.2,0.7,0.3,1,0.4c1.9,0.6,3.8,1.1,5.4,2.3c1.2,0.4,2.2,1.6,3.4,2.1c2.1,1.4,5,1,6.8,3.2c0.6,0.7,1.4,1.2,2.2,1.6l3.5,0
			c-0.9-0.5-1.6-1.5-2.6-2c-0.8-0.3-1.6-0.7-2.2-1.4c-1.5-0.2-2.6-1.3-3.9-1.8c-1.3-0.8-2.8-1.3-4.1-2c-1.2-1.1-2.7-1.6-4-2.3
			L148,109.8L148,109.8z M156.5,109.8c0.2,0.1,0.4,0.1,0.6,0.2l1.1,0.1c0.8,1,2.3,0.6,3.3,1.1c1.8,0.6,3.7,0.8,5.3,2
			c2.3,0.4,4.4,1.4,6.7,1.9c1.3,0.9,2.7,1.7,3.8,2.7c0.2,0.4,0.2,0.9,0.1,1.4l2.5,0c-0.2-2.3-0.4-4.6-1.7-6.5c-0.4-1-0.7-2-1.1-3
			l-4,0c0.9,0.7,1,1.8,1.2,2.9c-0.2,0.4-0.5,0.7-1,0.5c-3.5-0.7-6.6-2.5-10-3.5L156.5,109.8L156.5,109.8z M191.1,109.8
			c0.2,0.4,0.4,0.8,0.6,1.3c0.5,2.3,1.9,4.2,2,6.7c-0.2,1.5-1.7,1.2-2.9,1.6l7.2,0c-0.1-0.8-0.1-1.7-0.5-2.4c-0.6-2.4-1.2-4.8-2-7.2
			L191.1,109.8L191.1,109.8z M200.8,109.8c0.5,2.1,0.9,4.2,1.2,6.3c0.2,0.8,0.4,2,0.5,3.2l2.8,0c-0.3-2.6-0.7-5.2-1.3-7.7
			c-0.1-0.6-0.3-1.2-0.5-1.8L200.8,109.8L200.8,109.8z M119.2,119.4c1.4-1.9,2.9-3.7,3.8-5.7c0.5-0.9-0.4-1.4-0.6-2.2
			c-0.3-0.3-0.7-0.4-1-0.4c-0.8,1-1.1,2.2-1.7,3.3c-0.8,1.8-2.2,3.3-3.3,5L119.2,119.4L119.2,119.4z M125.3,119.4
			c0.1-0.5,0.3-1,0.3-1.4c0.6-1.4,0.5-3,0.9-4.5c0-0.4-0.3-0.8-0.7-1c-0.6-0.1-1.3,0-1.6,0.6c-0.7,1-0.1,2.3-0.4,3.4
			c-0.4,0.8-0.5,1.9-0.7,2.8L125.3,119.4L125.3,119.4z M130,119.4c0-0.1-0.1-0.2-0.1-0.3c-0.5-1.7,0.1-3.4,0.4-5
			c-0.1-0.6-0.4-1.3-1.1-1.5c-0.5-0.1-1,0.1-1.2,0.5c-0.2,0.9-0.6,2.2,0.1,3c0.1,0.8-0.2,1.5-0.3,2.2c0.1,0.3,0.1,0.7,0.1,1
			L130,119.4L130,119.4z"/>
		<path class="st2" d="M53.3,103.9c0,0.1-0.1,0.2-0.1,0.3c-0.4,2-1.1,3.8-1.5,5.7l3.3,0c0.3-1.2,0.5-2.5,0.8-3.7l0.8-2.2H53.3
			L53.3,103.9z M63.2,103.9c-0.2,0.7-0.4,1.4-0.7,2.1c-0.2,1.3-0.5,2.6-0.7,3.8l2.8,0c0.6-2,1.3-3.9,1.8-6L63.2,103.9L63.2,103.9z
			 M82.5,103.9c-0.8,1.3-1.4,2.7-2.3,4c-0.3,0.6-0.6,1.3-0.8,2l5.1,0c0.2-0.3,0.4-0.5,0.6-0.8c1.2-0.3,2.2-1.1,3.5-1.5
			c3.8-0.1,11.7-2.5,16-3.6l-9.7,0c-2,0.4-4.1,0.7-6.2,0.8c-0.6-0.2-1.3-0.1-1.8-0.4c0-0.2,0.1-0.3,0.1-0.4L82.5,103.9L82.5,103.9z
			 M110.8,103.9c-0.8,0.2-1.5,0.4-1.8,0.4c-2.3,0.5-13.6,4.6-15.6,5.5c-0.1,0-0.2,0-0.3,0.1l6.3,0c4.2-1.7,9.1-3.8,10.6-4.3
			c0.4-0.4,2.7-1.1,3.4-1.7L110.8,103.9L110.8,103.9z M116.1,103.9c0.5,1.8,1.4,3.3,3,4.5c0.9,0.5,1.8,1,2.7,1.5l13.7,0
			c0.1,0,0.2-0.1,0.2-0.1c0.2,0,0.3,0,0.4,0.1l2.5,0c-0.1,0-0.1-0.1-0.2-0.1c-0.4-0.2-0.7-0.7-0.7-1.2c0-0.3,0.3-0.4,0.5-0.5
			c0.9,0,1.4,1.2,2.2,1.6c0.2,0.1,0.4,0.1,0.5,0.2h3.3c-1.6-0.9-3.1-2.3-4.9-3c-0.3-0.3-0.7-0.7-0.4-1.1c0.3-0.7,0.6-1.3,0.9-1.9
			l-2,0c-0.4,1.1-1.1,2.1-2.1,2.9c-1.2,1-2.8,0.9-4.3,1.3c-3.5,0.8-6.7-0.3-9.3-2.3c-1-0.4-1.6-1.1-2.1-1.9L116.1,103.9L116.1,103.9
			z M147.8,103.9c0.6,0.2,1.2,0.3,1.8,0.6c3.3,0.9,6.9,1,10.1,2.1c2.5,0.4,4.8,1.4,7.3,1.8c1.9,0.5,3.9,1,5.8,1.3
			c0.1,0,0.2,0.1,0.2,0.2l4,0c-0.4-1.1-0.9-2.1-1.5-3.1c-0.3-1-0.8-2-1.3-2.9l-3.2,0c0.6,1,1.2,2,1.3,3.2c-0.1,0.3-0.5,0.5-0.8,0.5
			c-1.7-0.3-3.2-0.9-4.8-1.3c-2.3-0.4-4.4-1.4-6.8-1.4c-1.3-0.1-2.5-0.6-3.6-0.9L147.8,103.9L147.8,103.9z M189,103.9
			c0.7,2,1.4,4,2.2,6l4.4,0c-0.6-2-1.4-4-2.3-6L189,103.9L189,103.9z M199.1,103.9c0.6,2,1.2,3.9,1.7,6l2.8,0c-0.6-2-1.3-4-2.1-6
			L199.1,103.9L199.1,103.9z M108.8,109.8c1.4-0.8,2.7-1.9,4.1-2.6c0.7-0.3-0.1-1.6-0.7-1.3c-2.7,1-5.1,2.7-7.7,3.9L108.8,109.8
			L108.8,109.8z M115.2,109.8c0.2-0.2,0.3-0.4,0.3-0.8c-0.5-0.5-1-0.7-1.3-0.3c-0.4,0.4-0.9,0.7-1.4,1L115.2,109.8L115.2,109.8z
			 M118.1,109.8c-0.2-0.1-0.4-0.1-0.6,0L118.1,109.8L118.1,109.8z M153.6,109.8c-0.1-0.1-0.2-0.1-0.3-0.2c-1.8-0.4-3.5-1-5.1-1.9
			c-1.5-0.2-2.7-0.9-4.2-1.1c-0.5,0-1.1-0.1-1.1,0.5c0.1,1.5,1.7,1.2,2.8,1.7c0.9,0.1,1.6,0.6,2.4,1L153.6,109.8L153.6,109.8z
			 M163.2,109.8c0,0-0.1,0-0.1,0c-2.7-0.9-5.5-1.7-8.2-2.6c-2.3-0.6-4.8-0.8-6.9-1.9c-0.6-0.2-1.3-0.1-1.8,0.1
			c-0.3,0.1-0.4,0.5-0.2,0.8c1.3,1.1,3.1,0.8,4.5,1.7c2,0.7,4.1,1.3,6.1,2L163.2,109.8L163.2,109.8z"/>
		<path class="st2" d="M55.6,97.9c-0.9,1.9-1.7,3.9-2.3,6l3.4,0l1.2-3.1c0.6-0.9,1.1-1.9,1.5-2.9L55.6,97.9L55.6,97.9z M65.1,97.9
			c-0.8,1.9-1.3,4-2,6l3.2,0c0,0,0,0,0-0.1c0.4-2.1,1.2-4,2.1-5.9L65.1,97.9L65.1,97.9z M87,97.9c-0.4,0.4-0.7,0.9-1.1,1.4
			c-1,1-2.1,2.2-2.6,3.5c-0.3,0.4-0.6,0.7-0.8,1.1l4.4,0c0.3-0.9,1-1.2,1.7-2c0.9-1,20.1-0.9,20.5-2.5c0.6-1-18.8,0.4-17.1-1.4
			c0,0,0.1-0.1,0.1-0.1L87,97.9L87,97.9z M115.7,97.9c0,0.3,0,0.5,0,0.8c-0.2,1.8-0.1,3.5,0.3,5.2l4.1,0c-0.6-1-0.9-2.1-1.2-3.1
			c-0.1-1,0.1-2,0.4-2.9L115.7,97.9L115.7,97.9z M122.1,97.9c-0.2,0.2-0.4,0.5-0.4,0.7c-0.4,0.5-0.4,1.8-1.4,1.6
			c-0.8-0.8-0.3-1.5,0.2-2.3L122.1,97.9L122.1,97.9z M125.1,97.9c-0.3,0.2-0.7,0.2-1,0.1c0,0-0.1-0.1-0.1-0.1L125.1,97.9L125.1,97.9
			z M130.2,97.9c-0.2,0.7-0.6,1.4-0.7,2.1c-0.2,0.2-0.5,0.2-0.8,0.2c-0.3-0.7-0.3-1.5-0.5-2.3L130.2,97.9L130.2,97.9z M135.2,97.9
			C135.2,97.9,135.2,97.9,135.2,97.9c-0.1,0.7-0.3,1.4-0.9,1.8c-0.9-0.2-0.1-1.4-1.2-1.7c-0.8-0.4-0.8,1.1-1.5,0.3
			c-0.1-0.1-0.2-0.2-0.2-0.4L135.2,97.9L135.2,97.9z M136.8,97.9c0.1,0.6,0.2,1.1,0.5,1.6c0.5,0.1,1.3,0,1.3,0.7
			c0,1.3-0.2,2.5-0.6,3.6h2c0.2-0.5,0.4-0.9,0.4-1.4c0.6-0.8,1.3,0,1.8,0.1c1.8,0.6,3.7,0.8,5.5,1.2h8.5c-0.9-0.3-1.7-0.5-2.7-0.5
			c-1.7-0.5-3.5-0.9-5.4-1c-2.6-0.7-5.7-0.5-7.5-2.9c-0.1-0.6,0.1-1.1,0.7-1.2c2.4-0.1,4.8-0.2,7.1-0.3L136.8,97.9L136.8,97.9z
			 M154.6,97.9c0.9,0,1.7,0.1,2.6,0.2l2.8-0.1c0.3,0,0.6,0,0.9,0L154.6,97.9L154.6,97.9z M164.9,97.9c0.8,0.1,1.6,0.2,2.4,0.5
			c0.3,0.3,0.8,0.6,0.7,1.1c-2.7,0.4-6,0.8-8.9,0.2c-1.8,0.1-3.6-0.1-5.5,0.1c-1.4,0.4-3.1-1-4,0.5c-0.1,0.4,0.1,0.9,0.5,0.9
			c2.5,0.3,5,0.5,7.6,0.5c1.3-0.3,2.6-0.1,4-0.1c3.1,0.1,6.9-1.1,9.1,1.8c0.1,0.1,0.2,0.3,0.2,0.4l3.2,0c-0.6-1-1.3-2-1.9-3
			c-0.9-1-1.8-2-2.7-3L164.9,97.9L164.9,97.9z M186.5,97.9c0.2,0.6,0.4,1.1,0.6,1.7c0.7,1.4,1.3,2.8,1.8,4.3l4.3,0
			c-0.1-0.2-0.2-0.4-0.3-0.6c-0.6-1.9-1.7-3.7-2.6-5.4L186.5,97.9L186.5,97.9z M196.6,97.9c0.8,1.8,1.6,3.7,2.4,5.6
			c0,0.1,0.1,0.3,0.1,0.4l2.4,0c-0.8-2-1.7-4-2.4-6L196.6,97.9L196.6,97.9z M104.6,103.9c0.4-0.1,0.7-0.2,1-0.3
			c0.5-0.8,7.5-0.7,7.2-2.4c-0.1-0.5-13.6,1.6-14.9,2c-1,0.2-2,0.4-3,0.6L104.6,103.9L104.6,103.9z M113.4,103.9
			c0.1-0.1,0.2-0.1,0.2-0.2c-0.2-0.5-1.6-0.2-2.8,0.2L113.4,103.9L113.4,103.9z"/>
		<path class="st2" d="M59.5,90.8c-1.5,2.3-2.8,4.7-3.9,7.1l3.7,0c1.2-2.4,2.2-4.9,4-7.1L59.5,90.8L59.5,90.8z M69.5,90.8
			c-0.5,0.7-1,1.4-1.5,2.1c-1.3,1.5-2.1,3.2-2.9,5l3.4,0c0.1-0.2,0.2-0.5,0.3-0.7c1.2-2.2,2.5-4.3,4-6.4L69.5,90.8L69.5,90.8z
			 M94.5,90.8c-0.5,0.4-1,0.9-1.5,1.2c-2,1.8-4.2,3.8-6,5.9l5.1,0c1.5-1.4,4.4-0.9,6.5-0.8l9.6,0.3c1.7,0,2.8,0.4,4.6,0
			c0.4-0.4,1,0,0.9-0.7c0-0.9-2.2-0.3-3.4-0.8c-2.7-0.1-5.4-0.7-8-0.5c-2.3,0.2-4.5-0.4-6.7-0.5c-0.3-0.1-0.7-0.4-0.4-0.8
			c2-2.1,11.6-0.3,13.4-0.3c0.2-0.1,0.4-0.4,0.5-0.7c-0.1-0.5-6-1.3-7.9-2.3L94.5,90.8L94.5,90.8z M108.5,90.8c1,0.5,2,0.9,2.9,1.2
			l1.5,0.6c1.2,0.8,2.7,0.9,3.9,1.6c0.7,1.4-0.8,2.3-1,3.7l3.6,0c0.4-1.1,0.9-2.1,1.4-3.1c1-1.5,2.3-3.1,3.8-4l-5.1,0
			c-0.8,0.9-1.5,2-2.7,1.5c-0.9-0.5-1.8-1.1-2.8-1.5L108.5,90.8L108.5,90.8z M134.1,90.8c0.4,0.3,0.9,0.6,1.3,0.9
			c0.9,0.5,1.8,1.4,2.6,2.1c0.3,0.3,0.2,0.8,0.1,1.1c-0.5,0.6-1.9,0.7-1.7,1.8c0.2,0.4,0.3,0.8,0.3,1.3l11.7,0c2-0.1,4-0.1,6.1,0
			l6.3,0c1.3,0,2.7-0.1,4,0l4.7,0c-0.8-1-1.6-2-2.4-3c-1.5-1.2-2.7-2.8-4.1-4.1l-3.9,0c-1.8,0.3-3.6,0.7-5.3,1.3l-3.7,0.2
			c-1.6-0.1-3.2,0.1-4.7,0.4c-1.9,0.1-3.5,1.2-5.3,1.6c-1.1-0.4-0.5-1.8-1.2-2.6c-0.1-0.3-0.1-0.6,0.1-0.9L134.1,90.8L134.1,90.8z
			 M142.4,90.8c-0.2,0.1-0.5,0.2-0.7,0.3c-0.2,0.1-0.2,0.4-0.1,0.6c0.3,0.4,0.8,0.3,1.3,0.4c0.9-0.5,1.9-0.9,2.9-1.3L142.4,90.8
			L142.4,90.8z M182.9,90.8l1.7,2.5c0.6,1.6,1.3,3,1.9,4.6l3.9,0c0-0.1-0.1-0.2-0.1-0.3c-0.8-2.4-1.9-4.7-3.2-6.9L182.9,90.8
			L182.9,90.8z M193.1,90.8c0.5,1,1,2,1.4,3c0.8,1.3,1.5,2.7,2.2,4.1l2.5,0c-0.1-0.3-0.2-0.6-0.3-0.9c-1.4-1.9-2-4.1-3-6.2
			L193.1,90.8L193.1,90.8z M120.4,97.9c0.2-0.3,0.3-0.6,0.3-0.9c0.4-0.2,1.5-0.6,1.7,0.2c0,0.3-0.2,0.5-0.3,0.7L120.4,97.9
			L120.4,97.9z M123.9,97.9c-0.6-0.5-0.6-1.5-1.5-1.8c-0.4,0.1-0.9,0.1-1.3-0.1c-0.2-0.2-0.2-0.6,0-0.8c0.9-0.6,2-0.6,3.1-0.5
			l0.4,0.5c0.7,0.6,0.9,1.7,0.6,2.6c0,0.1-0.1,0.1-0.2,0.2L123.9,97.9L123.9,97.9z M128.2,97.9c0-0.2-0.1-0.4-0.1-0.5
			c-0.3-0.8-1.1-1.5-0.8-2.4c0.1-0.2,0.3-0.4,0.5-0.4c1.2-0.1,1.8,1.2,2.3,2c0.2,0.5,0.2,0.9,0.1,1.4L128.2,97.9L128.2,97.9z
			 M131.3,97.9c-0.1-0.4-0.1-0.8,0-1.1c0.1-0.7,0.8-1.3,1.4-1.4c0.7-0.1,1.2,0.2,1.7,0.5c0.6,0.5,0.7,1.2,0.7,2L131.3,97.9
			L131.3,97.9z M153.1,93.7c1.7-0.3,3.3-0.7,4.9-1.1c1.4,0.1,3-0.7,4.2,0.2c0.9,0.6,2.2,1.3,2,2.5c-1,0.8-2.6,1-3.9,0.7
			c-5.8-0.2-11.4,0.4-17.2,0.4l-2.6,0.2c-0.4-0.2-0.4-0.5-0.3-0.9c1.2,0.1,1.9-0.9,3-1c0.8-0.4,1.8-0.2,2.7-0.4l4.3-0.5L153.1,93.7
			L153.1,93.7z"/>
		<path class="st2" d="M66.1,81.2c0,0,0,0.1-0.1,0.1c-1.1,2.1-3,3.9-4.2,6c-0.8,1.1-1.6,2.3-2.4,3.5l3.8,0c0.2-0.3,0.4-0.5,0.6-0.8
			c1.7-3,4.2-5.4,6-8.3c0.1-0.2,0.3-0.3,0.4-0.5L66.1,81.2L66.1,81.2z M76.7,81.2c-2.7,3-5,6.3-7.3,9.5l3.3,0c1-1.3,2-2.6,3.2-3.8
			c1.5-1.7,2.5-3.9,4.3-5.3c0.2-0.1,0.4-0.3,0.6-0.4L76.7,81.2L76.7,81.2z M109.6,81.2c-3.6,1.3-6.8,3.5-10.1,5.4
			c-1.7,1.1-3.4,2.7-5,4.1l6.8,0c-0.6-0.3-0.8-0.6-0.5-0.9c1.7-1.8,4.8-0.4,7.7,0.9l5.6,0c-0.6-0.3-1.3-0.5-2.1-0.6
			c-1.9-1.3-4-1.9-6.2-2.7c-0.3-0.1-0.2-0.5-0.1-0.6c0.6-0.9,1.4,0,2.2-0.1c1,0.6,2.2,0.7,3.3,0.9c1.5,1,3.3,1.3,4.9,2.1
			c0.3,0,0.6-0.3,0.7-0.5c0.1-0.4-0.2-0.8-0.6-0.9c-0.9,0-1.4-0.8-2.3-0.9c-1-0.9-2.1-1.4-3.1-2.2c-0.3-0.2-0.3-0.7-0.1-1
			c0.4-0.5,0.9-1,1.6-1c1.7-0.5,2.3,1.6,3.6,2.1c1.9,1,2.5,3.2,4.2,4.5l0,0.4c-0.2,0.1-0.3,0.3-0.5,0.5l5.1,0
			c0.1-0.1,0.2-0.1,0.4-0.2c2.3-1,5.3-1,7.8-0.4c0.5,0.2,0.9,0.4,1.3,0.6l5.1,0c0.1-0.2,0.3-0.4,0.4-0.6c2.9-2.9,6.5-6.5,10.8-4.3
			l0.6,0.6c0,1.2-1.5,0.8-2.1,1.4c-2.2,0.8-4.3,1.9-6.5,2.9l3.3,0c1.7-0.7,3.5-1.4,5.2-2.3c3-1,6.1,0,8.5,1.8c0,0.1,0.1,0.3,0,0.5
			c0,0-0.1,0-0.1,0l3.9,0c-0.5-0.5-1.1-0.9-1.7-1.3c-2.1-1.8-4.5-3-6.8-4.4c-2.1-1.2-4.5-1.6-6.5-2.8c-0.8-0.5-1.7-0.8-2.6-1
			l-10.4,0c0,0,0,0.1,0,0.1c-0.2,1.9-1,3.5-1.6,5.3c-0.2,0.1-0.2,0.4-0.5,0.3c-0.8-2.1,0.7-3.6,0.5-5.6c0,0,0,0,0.1-0.1l-2.4,0
			c0,1.4-0.3,2.6-0.6,3.9c-0.5,0.7,0.2,1.8-0.8,2.2c-1.2,0.4-2.6,0.4-3.8,0.1l-0.4-0.4c-0.3-1.8-0.2-3.6-0.3-5.4
			c0-0.1-0.1-0.3-0.1-0.4L109.6,81.2L109.6,81.2z M127.5,81.2c0.1,0.1,0.1,0.2,0.2,0.3c0,1-0.7,2.7,0.5,3.3c0.5,0,0.8-0.4,0.9-0.8
			l0.1-2.1l0.4-0.8H127.5L127.5,81.2z M174.4,81.2c2.9,2.4,5,5.5,7.8,8.3l0.2,0.6l0.4,0.6h4.2c-0.2-0.3-0.4-0.6-0.6-0.9
			c-1.1-1.2-1.7-2.5-2.5-3.8c-1.5-1.6-2.5-3.3-3.9-4.8L174.4,81.2L174.4,81.2z M187.3,81.2c1.4,1.8,2.6,3.8,3.9,5.7
			c0.6,1.3,1.2,2.6,1.9,3.9l2.7,0c-0.1-0.3-0.3-0.6-0.4-0.9c-0.8-1.3-0.8-3-1.9-4.2c-0.4-1.5-1.7-2.6-2.6-3.9
			c-0.3-0.2-0.5-0.4-0.7-0.6L187.3,81.2L187.3,81.2z M121.8,84.4c-0.2-0.8-0.9-1.9-0.1-2.7c0.2-0.1,0.4-0.3,0.6-0.3
			c0.4,0.1,0.9,0,1,0.4c-0.4,1.8-0.1,3.7,0.4,5.4c-0.2,0.6-1,0.9-1.6,1.2c-1.3,0.2-1.5-1.3-2.5-1.8c-1.1-1.1-1.9-2.5-3.2-3.4
			c-0.1-0.3-0.1-0.6,0-0.9c0.4-0.5,1-0.6,1.7-0.5l0.5,0.4c1,1.4,1.5,3.1,3,4c0.3,0.1,0.8,0,0.9-0.4
			C122.7,85.2,121.9,84.9,121.8,84.4L121.8,84.4z M138.3,86.4c0.2,0.1,0.5,0.2,0.7,0c1.3-1.4,2.2-4.5,4.8-3.7
			c0.3,0.3,0.8,0.4,0.9,0.8c0.1,0.8-0.7,0.7-1.1,1c-1.8,2-4,3.4-6,5.4c-0.5,0.3-0.9-0.2-1.3-0.5c-1.6-1.8-0.1-4,0.3-5.8
			c0.7-0.8,1-2.3,2.3-2.2c0.6-0.1,1.1,0.1,1.6,0.3l-0.1,0.4c-1,1-1.8,2.1-2.6,3.3C137.9,85.7,138.1,86.1,138.3,86.4L138.3,86.4z"/>
		<path class="st2" d="M74.8,71.7c-0.3,0.3-0.5,0.5-0.7,0.8c-1.4,1.9-3,3.4-4.7,5c-0.8,1.3-2.5,2.3-3.2,3.7l4.3,0
			c2.5-2.8,5.5-5.1,7.7-8c0.7-0.4,1.3-1,2-1.5L74.8,71.7L74.8,71.7z M90.1,71.7c-2.3,1.3-4.6,2.8-7,3.8c-2.4,1.7-4.5,3.6-6.4,5.8
			l4.2,0c2.7-1.9,5.3-4.2,8.3-5.5c1.6-1.1,3.2-2.1,4.9-3.1c0.7-0.3,1.3-0.7,2-1L90.1,71.7L90.1,71.7z M162.6,71.7
			c0.3,0.2,0.5,0.4,0.8,0.5c3.7,1.7,6.3,5.6,9.7,8c0.4,0.3,0.9,0.7,1.3,1l5.6,0c-0.2-0.3-0.5-0.6-0.8-0.8c-1.7-1-2.8-3-4.6-3.9
			c-2.2-1.3-4.1-3.3-6.2-4.9L162.6,71.7L162.6,71.7z M178,71.7c1.4,1.3,2.7,2.7,4.2,4c2,1.6,3.7,3.5,5.2,5.6l2.8,0
			c-1.2-1.2-1.9-2.8-3.4-3.9c-1.5-2-3.3-3.9-5.3-5.6L178,71.7L178,71.7z M125.3,81.2c0-0.2,0-0.3,0-0.5c0.3-0.3,0.7-0.3,1-0.3
			c0.4,0.2,0.9,0.4,1.1,0.8l2.1,0l0.5-1c0.4-0.2,1-0.1,1.2,0.4c0,0.2,0,0.4,0,0.6l2.4,0c0.2-0.2,0.3-0.6,0.6-0.6
			c0.4,0,0.7,0.3,0.9,0.6l10.4,0c-1.2-0.3-2.4-0.6-3.5-1.1c-3-0.7-6-1.3-9.2-1.6l-8.9,0c-3.1,0.3-6,0.9-8.9,1.6l-3.5,0.5
			c-0.7,0.2-1.4,0.4-2.1,0.7L125.3,81.2L125.3,81.2z"/>
		<path class="st2" d="M109.4,52.6c-1.4,0.3-2.8,0.4-4.1,0.8c-2.2,0.4-4.1,1.5-6.1,2.3c-3.7,2-7.9,3-11.4,5.7
			c-2.5,1.6-4.6,3.7-7.1,5.4c-2,1.6-4.1,3-5.9,4.9l5.4,0c0.5-0.5,1.1-0.9,1.6-1.4l6.9-5.4c2.3-1.6,4.8-2.7,7.1-4.3
			c1.9-0.9,4-1.3,5.9-2.2c0.7-0.2,1.7-0.3,2.3,0.2c1.6,2.2,4,4.2,6.9,3.6c1.7-0.5,3.5-0.9,4.9-2.3c0.4-0.4,2-1.8,2.6-1.9
			c0.8-0.1,2,0.8,2.7,1c2.3-0.2,3.1,0.2,5.3-0.7c1.3-0.6,2.4-1,3.5-2c0.7,0,1.9,1.1,2.5,1.4c1.7,1.1,5.5,1.1,7.5,1.6
			c0.1,0,0.1,0.1,0.1,0.3c-0.5,0.5-3.7-0.3-4.3-0.2c-5.4-0.9-11,0.2-16.2,1.2c-4.5,1.4-9.4,2-13.8,3.8c-3.4,1.2-6.5,3-9.7,4.5
			c-2,0.7-3.8,1.7-5.6,2.7l5.9,0c2.6-1.2,5.2-2.4,7.8-3.5c1.5-0.9,3.3-1.3,4.7-2.3c5.7-2.4,12.3-2.7,18.5-3.9c1.5,0.3,2.6-0.4,4-0.3
			c4.9-0.2,9.5,0.7,14,1.7c1.7,0.6,3.4,1.3,5,1.9c2.5,1.4,5.1,2.5,7.6,3.7c1.7,0.6,3.3,1.6,4.9,2.6l5.8,0c-0.9-0.7-1.8-1.2-2.8-1.6
			c-3.5-1.9-7.2-3.5-10.6-5.6c-2.1-1-4.3-1.7-6.5-2.3c-0.2-0.2-0.4-0.5-0.2-0.8c0.8-0.6,1.9-0.6,2.7-1.2c0.8-0.9,2-1.5,2.6-2.6
			c3.1,1.3,6.1,2.9,9.1,4.5c3.8,1.5,7.4,3.4,10.7,6c1.7,1,3.2,2.3,4.6,3.7l3.5,0c-1.3-1.2-2.7-2.4-4-3.6c-1.7-0.8-3-2.4-4.6-3.4
			c-2-0.6-3.6-2.1-5.5-3c-2.7-1.5-5.4-3.1-8.3-4.3c-0.9-0.5-1.9-0.7-2.7-1.3c-2.1-0.9-3.9-2.2-6.2-2.7c-1.2-0.4-2.4,0.4-3.5-0.3
			c-0.1-0.2-0.1-0.4-0.1-0.6l-2.5,0c0.2,2,0.8,4,1.5,5.5c0.5,0.4,1,0.8,1.6,0.5c0.3-0.1,0.5-0.1,0.7-0.4c-0.1-1-0.6-1.9-1-2.9
			c0-0.3,0.3-0.4,0.5-0.4c1.1-0.1,1.8,0.8,2.8,0.9c0.1,0.1,0.1,1.2-0.1,1.9c0,0.6-1.1,0.8-1.5,1.3c-0.4,0.5-0.8,0.6-1.4,0.6
			c-2.1-0.2-3.5-1.9-4.6-3.6l-1-3.4h-5.9c0.5,0.8,0.9,1.3,1.2,1.6c0.8,1,2.3,2.9,0.7,2.5c-2.3-0.7-4.7-2.6-6-4.1l-2.3,0
			c-1.5,1.6-4.2,3.5-5.9,4.1c-1.6,0.5,0.2-1.8,1-2.8c0.3-0.3,0.6-0.7,1-1.3l-4.2,0c-0.1,0.1-0.2,0.1-0.3,0.2c-0.6,0.2-1.1,0-1.6-0.1
			l-0.9,0c-0.2,0.1-0.4,0.3-0.5,0.7c-0.2,2.3-2.2,4.8-4.5,5.6c-1.3,0.2-2.9,0.8-4.1,0c-0.9-0.9-1.2-2-0.9-3.2
			c0.2-1.3,1.6-1.5,2.6-1.8c0.5,0,1.2-0.1,1.4,0.4c0.4,1.6-3.1,1.7-1.2,3.3c1.6,0.1,2.8-1,3.8-2.1c0.5-0.8,0.9-1.8,1.1-2.9
			L109.4,52.6L109.4,52.6z"/>
		<path class="st2" d="M116.1,52.6c0.3-1.8,0.1-3.9-0.7-5.5c0.6-0.4,3.7,0.8,4,1.6c0,1-0.2,2.3,0.9,2.8c0.6,0.2,1.4-0.6,1.7,0.3
			c0.1,0.5-0.3,0.7-0.6,0.9l4.2,0c0.8-1.3,1.6-3.4,1.6-7.1c-0.1-5.4-3.6-6.6-5.1-6.7c-1.5-0.1-2.6-0.1-2-0.8
			c0.6-0.6,3.1-0.7,4.9-0.3c1.8,0.4,5.8,3.9,5.8,3.9s3.9-3.5,5.8-3.9c1.8-0.4,5.2-0.6,5.8,0c0.6,0.6-0.4,0.6-1.9,0.7
			c-1.5,0.1-6,1.7-6.1,7.1c-0.1,3.5,0.8,5.7,1.7,7.1l5.9,0l-0.1-0.3c-0.7-0.7-1.8-0.2-2.6-0.5c-0.7-0.3-1.6-0.3-1.9-1.2
			c-0.1-0.5-0.3-1.3,0.3-1.5l0.5-0.4c0.1-0.3,0.8-0.3,1.2-0.3c1-0.1,1.2,1.6,2.3,1.2c1.3,0.1,1.6-2,2.5-2.4c2-1.6,2.5-1.1,3.8-1.7
			l0.1,0.1v0.1c-1.8,1.2-3.7,2.3-3.9,4.5c0,0.8,0,1.5,0.1,2.3l2.5,0c-0.2-1.4,0.8-2.6,1.1-3.9c1.2-1.9,3.7-0.7,5.3-1.8
			c0.5-0.5,0.5-1.3,0.4-1.9c-1.1-1.4-2.4-2.5-4.2-2.3c-2.7,0.4-5,1.8-7.1,3.7c-1.2,1-2.3-0.4-3.5-0.6c-1-0.3-1.7-1.4-1.8-2.5
			c0-1.2,1.2-1.9,2-2.5c1.7-1.5,4.2-0.8,6.1-0.2c0.7-0.1,1.3-0.9,1.4-1.6c0.1-0.9,0-1.8-0.5-2.5c-0.8-0.5-1.6-0.9-2.6-1
			c-3.1-0.3-6.5-0.7-9,1.1c-1.3,0.6-2.1,2.3-3.7,2.2c-1.5-1.2-3.3-1.5-4.9-2.5l-2.5-1c-2.5-0.5-4.9,0.9-6.1,3c-0.3,1.2-1.1,2.9,0,4
			c0.4,0.5,1,0.7,1.6,0.5c0.9-0.1,1.1-1.1,1.6-1.7c0.4-0.4,0.9-0.3,1.4-0.2c0.9,0.2,1.8,1,2.1,1.9c0.4,1.2-0.5,2.1-1.3,2.9
			c-0.7,0.6-1.8,0.5-2.7,0.4c-3-1.8-6.2-4.6-10.1-2.9c-1.6,0.8-3.7,2.4-3.7,4.4c0.8,1.4,2.1,0,3.2,0c1.8-0.2,3.5,0.1,4.6,1.4
			c0.4,1-0.1,2.1-0.9,2.7c-1.1,0.5-2.3,0.8-3.5,1L116.1,52.6L116.1,52.6z M119.3,52.6c-0.3-0.1-0.6-0.1-0.9,0L119.3,52.6L119.3,52.6
			z M129.4,52.6c0.7-0.7,1.2-1.4,1.3-1.8c0,0.4,0.4,1,1.1,1.8L129.4,52.6L129.4,52.6z M121.1,48.7c0.6-0.9,1.7-1.8,2.8-1.5l0.3,0.4
			c0.1,0.6,0.1,1.8-0.4,2.3c-0.6,0.5-1.9,0.3-2.7,0C120.9,49.5,121,49,121.1,48.7L121.1,48.7z"/>
		<path class="st2" d="M228.6,121.8c-0.4-2.3-0.4-4.9-0.7-7.3c-1-8.4-2.8-16.5-5.9-24c-0.4-1.8-1.3-3.4-2.3-4.9
			c-0.5-1.7-1.6-3.1-2.4-4.6l-0.2-0.6c-4-5.4-6.5-11.4-11.3-16.4c-5.2-5.2-10.2-11.3-16.4-15.3c-3.9-3.5-8.1-6.2-12.5-8.7
			c-2.4-1.1-4.6-2.5-6.9-3.7c-2.3-1.1-4.8-1.9-7.2-2.9c-4.1-1.8-8.9-1.8-13.1-3.3c-2.8-0.3-5.7-0.4-8.5-0.8
			c-4.4-0.3-8.8-0.5-13.1-0.4c-3.3-0.6-6.8-0.3-9.8,0.6c-2,0-3.9,0.6-5.8,0.7c-3.3-0.1-6.1,1.3-9.2,1.7c-1.1,0.3-2,1.1-3.2,1.1
			c-2.5,1.2-5.2,1.6-7.9,2.3c-2.1,0.3-3.8,1.7-5.9,2.3c-1.3,1.6-3.5,1.3-4.9,2.8c-5.6,2.4-10.4,6.7-16,9.3
			c-4.5,3.9-9.9,6.7-13.3,11.7c-1.8,1.7-2.9,3.7-4.5,5.4c-1.4,1.7-1.9,3.7-3.3,5.4c-0.9,2.6-3.2,4.7-4,7.4c-0.8,0.9-0.8,2.1-1.7,2.9
			c-0.8,2.1-2,3.9-2.9,5.9c-0.4,1.7-1.5,3-1.8,4.7c-1.1,2.1-2,4.4-2.4,6.8c-1,1.4-1.3,3.2-1.7,4.9c-1,4.8-2.6,9.3-2.9,14.3
			c-1,3.8-0.1,7.7-0.4,11.7c-0.7,1.2,0.3,2.4-0.1,3.8c0.8,2.1,0.6,4.6,0.9,6.9l0.3,0.5c0.5,2.1,0.8,4.2,1.2,6.3
			c0.5,3.7,1.9,7.2,2.9,10.7c1.8,4,2.7,8.4,4.5,12.4c1.3,2.3,2.1,4.8,3.6,7c2.1,4.2,5,8.1,7.4,12.3c3.1,3.8,6.7,7.5,10.3,10.9
			c4.9,5,10.3,8.7,15.9,11.9c4.7,3.3,9.9,5.1,14.9,7.6c3.1,1.1,6.1,2.3,9.3,3.3c2.8,0.4,5,2.1,7.9,2.3c2.1,0,3.7,1.2,5.8,1.2
			c7.5,0.8,15.4,1.2,23,0.4c3.7-0.4,7.5-0.6,11.1-1.2c6.7-0.7,12.9-2.6,19-5c3.2-2,6.7-3.2,10.2-4.5c5.5-2.9,11.2-5.5,16.2-9.8
			c2.8-1.8,5.3-4.2,8-6.3c2.8-3.7,6.4-7,9.4-10.7c0.2-0.9,0.8-1.6,1.3-2.4c2.5-2.9,4.4-6.1,6.6-9.1c1-2.2,2.9-4,3.2-6.5
			c0.9-1.8,4.5-11.9,5.7-14.9c0.9-4.5,2.4-8.5,2.8-13.2c0.3-4.4,1.3-8.6,1-13.1C228.4,128.3,228.8,125.1,228.6,121.8L228.6,121.8z
			 M224.6,142.5c-0.4,0.9,0,1.8-0.3,2.7c-0.5,2.6-0.8,5.3-1.9,7.7c-1.6,6.3-3.6,12.4-6.2,18.4c-1.5,2.8-3.1,5.6-4.9,8.3
			c-2.3,3.7-5,7.3-7.6,10.8c-0.9,1.4-2.3,2.2-3.4,3.4c-1.5,3.2-4.9,5.2-7.5,7.5c-2.9,3.4-6.7,4.9-9.9,7.6c-3.7,3.1-8.2,4.3-12.1,6.8
			c-1.9,1.2-4.1,1.7-6,3.1c-1.6,0.4-3,1.4-4.6,1.7c-4.5,1.5-9.4,2-14.2,2.8c-2.7,0.8-5.3,1.7-8.3,1.7c-2.3,0.2-4.8,0.4-7,0.5
			c-1.8,0.1-3.7,0.8-5.6,0.2c-1.9-0.6-4.1-0.2-6.2-0.2c-4.1,0.1-8.3-0.2-11.9-1.5c-3.1-0.7-6-2-9.3-2.4c-3.7-1.7-7.8-2.5-11.5-4.4
			c-4.9-2-9.7-4.1-13.9-7.7c-2.5-2.1-5.5-3.4-8-5.8c-3.3-2.5-6.9-5.2-9.1-8.8c-1.6-1.1-2.6-2.8-3.5-4.4c-0.4-0.8-1.4-0.6-1.6-1.4
			c-1.8-3.2-4-6.2-5.8-9.4c-1-0.7-1-1.9-1.7-2.7c-2.1-3.7-4.2-7.4-5.4-11.4c-1.2-2.3-1.7-4.9-2.9-7.2c-0.6-2.2-1.2-4.5-1.4-6.8
			c-0.1-1-1-1.8-1.3-2.7c-1-4.4-1.2-9-1.8-13.5c-0.3-1.9-0.8-4-0.7-6.1c-0.3-2.8-0.3-5.6,0.3-8.3c0-4,1.7-7.4,2.2-11.2
			c1-4,1.8-8.1,3.7-11.8c0-1.4,1.1-2.4,1.2-3.8c1.8-3.7,2.8-7.8,4.9-11.4c1.3-3.5,4.1-6.3,5.2-9.8c1.2-2.7,3.4-4.8,4.9-7.3
			c1.7-1.8,3.2-3.9,5.3-5.1c1.2-0.9,2.3-2,3.2-3.1c3.6-2.2,6.6-5.7,10.3-7.8c1.7-0.7,3-2.5,4.8-3.1c2.5-1.7,5.2-2.9,7.8-4.3
			c3.9-1.5,7.3-4.2,11.5-4.9c3.1-0.8,6.2-1.5,9.3-2c1.9-0.6,4-0.8,5.9-1.5c2.8-0.3,5.7-0.8,8.5-1.2c4-0.7,8.3-0.8,12.5-1
			c3,0.3,5.9,0.2,8.9,0.6l5.3,0.9c1.7-0.4,3.3,0.3,4.9,0.4c5.2,0.5,9.9,2,14.5,4.1c2.6,1.4,5.3,2.5,8,3.8c5.5,1.9,10.4,5.6,15.1,9.6
			c1.9,2,4,3.8,6.1,5.4c4.1,4,8.1,8.1,12,12.2c1.4,1.9,2.8,3.9,4,5.9c2.2,3,4.5,6.1,6,9.5c3.3,5.8,5.1,12.1,6.8,18.6
			c3.2,8.3,3.2,17.8,3.3,27.1C225,134,224.8,138.2,224.6,142.5L224.6,142.5z"/>
		<path class="st3" d="M148.5,124.3c0.3,0.6-0.3,0.6-0.2,1.3c0.1,0.5,0.3,1.3-0.4,1.6c-1.2,0.3-0.9-1.7-2.2-1.2l-1.8,0.3
			c-0.1,2.2-0.1,5.3-0.4,7.4c0.1,0.9,1.2,0.5,1.3,1.4c0,0.5,0,1.1-0.5,1.1c-0.6,0-1,0.2-1.4-0.1c-1.1,0.3-2.6,0.5-3.7,0
			c-0.4-0.3-0.4-0.8-0.3-1.2c0.5-0.6,1.5-0.5,1.5-1.4c0-2.3,0.5-5.2,0-7.3c-0.4-0.6-1.5-0.5-1.9-0.4c-0.9,0.2-0.5,2-1.3,1.8
			l-0.5-0.6l-0.2-2.6l0.3-0.3c3.3,0,6.9,0.2,10.2-0.2C147.5,124.1,148.1,123.9,148.5,124.3L148.5,124.3z"/>
		<path class="st3" d="M180,124.8c0,0.9,0.2,2-0.1,2.8c-0.4,0.3-0.9,0-1.4,0c-0.3-0.2,0.2-1,0-1.3c-0.4-0.6-1-1.1-1.7-1.1
			c-0.4,0.1-1.8,0.9-1.9,1.3c0.1,2.6,4.3,2.1,5.4,4.1c1,1.8,0.5,3.2-0.6,4.4c-1.4,1.4-4.2,1.4-5.9,0.5c-1,0-2.1,1.1-2.9,0.1l1-1.5
			c0.6-0.9,0.4-1.4,1.3-2.2l0.3,0c0.5,1.7,0.8,2.5,2.7,2.6c1.2,0,2-0.2,2.2-0.8c0.3-0.4,0.1-0.9,0-1.3c-1.2-1.7-5-1.5-5.9-3.5
			c-0.4-1.4-0.5-3.3,0.7-4.3c1.5-1,4.8-1.5,6.5-0.5L180,124.8L180,124.8z"/>
		<path class="st3" d="M97.2,124.4c0.5,0.8,0.3,2.1,0.2,3c-0.2,0.5-0.8,0.5-1.3,0.4c-0.8-0.3-0.3-1.2-1.2-1.3
			c-0.6-0.1-1.5-0.2-2,0.3c-0.3,0.3-0.4,1.5-0.4,1.9c0.3,0.6,1.6,0.3,2.1,0.5c0.8,0.7,0.5,0.7,0.3,1.7c-0.2,1-1.3,0-2.1,0.2
			c-0.5,0.6-0.4,2.8,0,3.4c1.3,0.4,3-0.2,3.6-0.7c0.6-0.5,0.8-1.3,1.4-1.5c0.4,0,0.9,0.2,0.9,0.6c-0.4,1-0.1,2.6-1.2,3.3
			c-2.7,1.1-6.3,0-9.3,0.2c-0.5-0.2-0.5-0.7-0.4-1.1c2.2-2,1.3-6.1,1.4-8.8c-0.1-0.7-1.2-1.3-0.8-2l0.4-0.2c1.9-0.1,4.5,0.3,6.4,0
			C96,124.1,96.7,124.1,97.2,124.4L97.2,124.4z"/>
		<path class="st3" d="M130.3,124.9c0.1,0.4,0.1,0.8-0.1,1.1c-0.5,0.2-1.1,0.5-1.5,1c0.2,2.1,0.1,4.4,0,6.5c0.4,0.5,1.3,0.4,1.5,1.2
			c0.3,0.7,0.1,1.2-0.4,1.6c-1,0.5-3-0.1-4.2,0c-0.7,0.4-1.6,0.1-2.3-0.1c-0.5-0.4-0.5-0.7-0.2-1.3c0.4-0.9,1.6-0.4,1.9-1.3
			c0.8-1.8,0.2-4.9,0.4-6.9c-0.3-0.8-1.3-0.1-1.8-0.8c-0.3-0.3-0.8-1.4-0.4-1.4c2.1,0,4.2-0.3,6.5-0.1
			C130,124.3,130.2,124.6,130.3,124.9L130.3,124.9z"/>
		<path class="st3" d="M76.1,124.6c0.1,0.5-0.2,0.5-0.7,0.6c-0.3,0-0.5,0.2-0.7,0.4c0.1,1.4,0.6,3.3,1.6,4.4
			c0.5,0.1,0.9-0.4,1.1-0.8l2.9-4.1c-1.1-0.6-0.5-1.2-0.5-1.2c1.2-0.2,3.1-0.3,4,0c0.3,0.1,1.4-0.3,1.1,0.6
			c-0.2,0.7-1.1,0.6-1.6,1.3c-2.2,3.1-4.3,7-6,9.9c-0.6,0-1.3,0.1-1.5-0.5l0-1.2l-3.7-8c-0.3-0.3-0.8-0.1-1.2-0.4
			c-0.5-0.4-0.4-0.5-0.3-1.1c0.5-0.7,1.5-0.5,2.2-0.7C73.9,123.9,75.6,123.3,76.1,124.6L76.1,124.6z"/>
		<path class="st2" d="M165.6,133.8c-1.7-3.1-3.6-6-4.8-9.2c-0.2-0.4-0.6-0.9-1.1-0.9c-0.5,0.1-1.7,0.3-1.8,0.8
			c-0.5,3.6-2.7,6.5-4.4,9.5c-0.6,0.4-1.1,1-1.8,1.3c-0.2,0.3-0.1,0.5,0.1,0.7c1.4-0.1,3.7,0,5.2-0.1c0.2-0.1,0.5-0.2,0.4-0.5
			c-0.1-0.3-0.4-0.4-0.6-0.6c-0.2-0.2-0.1-0.4,0-0.6c0.8-1.8,2.1-1.3,3.3-1.2c0.8,0.3,2.2-0.3,2.4,1.2c0.1,0.5-0.7,0.1-1,0.3
			c-0.4,0.2-0.7,0.5-0.5,1c0,0.5,0.4,0.5,0.9,0.5c1.6-0.2,3-0.2,4.8-0.3C167.4,135.8,166,134.4,165.6,133.8L165.6,133.8z
			 M160.8,131.5c-0.5,0.4-2.5,0.4-3.2,0.3c-0.9-0.2,0.9-2.4,0.6-3c0.2-0.6,0.1-1.5,0.8-1.7c0.6,0,0.5,1,0.7,1.7
			C160,129.4,161,130.9,160.8,131.5L160.8,131.5z"/>
		<path class="st2" d="M166.8,76.5c-0.2-0.8-0.6-0.7-1.6-0.7c-1.5,0.4-2.9,1.2-3.9,2.6c-1.7,1.3-3.4,2.7-5.4,3.5
			c-0.6,0.5-1.4,0.2-2.1,0.5c-0.1,0.2,0,0.4,0.1,0.6c0.7,0.3,1.3,0.8,2.1,1c0.8,0.3,1.2,1.8,2.3,1c0-0.5-0.5-1.1-0.1-1.5
			c1.9-0.6,2.6,0.4,4,1.4c0.3,0.3,0.4,0.6,0.1,1c-0.6,0.1-1.3,0.4-1.8,0c-0.1,0-0.3,0.2-0.3,0.4c0,1,1.8,2.1,2.4,2.7
			c0.5,0.9,1.9,1.8,2.9,2c0.3-0.1,0.5-0.4,0.5-0.8c-0.6-1.8-1.2-0.3-0.4-2.1c0.3-0.5,1-8.5,1.3-9C166.7,77.5,166.8,76.5,166.8,76.5
			L166.8,76.5z M163.1,82.5c-0.1,0.6-2.4-0.8-2.8-1.3c-0.2-0.2,1.5-1.4,1.6-1.7c0.8-0.6,1-1,1.9-1.4l0.1,0.1
			C163.8,79.3,163.3,81.2,163.1,82.5L163.1,82.5z"/>
		<path class="st3" d="M136.8,65c-0.1,1.2-0.2,2.4-0.4,3.6c-0.1,0.3-0.3,0.4-0.6,0.4c-0.6-0.1-1.4-0.1-1.2-2.6
			c-1.1-1.3-2.7-0.6-2.8,0.7c-0.1,3.9-0.7,4.4-0.3,7.1c0.6,0.7,0.6,1.7,1.4,2.2c0.2,0.4-0.1,0.8-0.5,0.8c-1,0.2-1.8-0.4-2.8-0.5
			c-1.2-0.1-2.5,0.3-3.6-0.1c-0.4-0.2-0.2-0.6-0.1-0.9c2.5-1.7,2-4.9,2.2-7.7c0-0.4-0.3-0.9-0.7-1c-2.1-0.9-1.7,0.7-2.7,0.9
			c-0.2,0.2-0.7,0.2-0.9,0c-0.7-0.5-0.3-1.4-0.3-2.1c0.2-0.5,0.1-1.4,0.8-1.4c2.7-0.3,5.7,0.3,8.4-0.2C134.2,64.4,136,63.8,136.8,65
			L136.8,65z"/>
		<path class="st3" d="M151.1,68.3c0.6,0.2,1.3,0.6,1.7,1.1c-0.1,1.4-2,0.6-2.5,1.7c-0.8,2.6-3.9,5.7-1.7,8.5
			c0.1,0.3-0.1,0.6-0.4,0.6c-1.1,0-2.8-1.4-3.7-1.9c-1-0.2-2.1-0.2-2.7-1.1c0.1-1.1,1.5-0.8,2.2-1.4c1.6-0.7,1.8-2.8,2.3-4.2
			c0.2-1,0.9-1.9,0.7-3c-0.5-0.6-1.6-0.9-1.1-1.8c0.5-0.8,1.4-0.1,2.1-0.1C148.6,67.4,150.4,67.9,151.1,68.3L151.1,68.3z"/>
		<path class="st3" d="M181.5,91.4c1.3,1.3,1.9,2.9,2.8,4.4c0.1,0.6,0.7,1.3,0.2,1.9c-0.5,0.7-1.2,0.8-2,0.8
			c-0.4-0.2-0.3-0.7-0.2-0.9c0.6-2-0.3-3.1-1.8-3.2c-0.3,1-2,0.6-1.5,1.8c0.4,0.5,1,1.2,0.8,1.8c0.1,0.8-0.7,1.1-1.2,1.4l-0.5,0
			c-0.6-0.8-1.4-1.4-1.5-2.3c-0.1-0.2-0.4-0.3-0.6-0.1c-0.3,0.6-1.5,1-1.2,2c0.9,0.8,0.8,2.1,1.9,2.8c0.5,0.1,0.9-0.2,1.4-0.2
			c0.8,0.3,2-0.1,2.5,0.6c0.1,0.8-0.8,0.7-1.3,1c-1.2,0.4-2.6,1-3.9,0.5c-1.3-1.2-1.4-2.9-2.6-4.1l-0.1-0.4
			c-0.9-0.9-1.7-1.9-2.9-2.4c-0.3-0.2-0.3-0.7-0.1-0.9c0.6-1.3,1.6,0,2.5-0.3c1.9-1,3.8-1.7,5.5-3c0.7-0.1,1.2-0.8,1.6-1.3
			c-0.1-0.6-0.3-1.3-0.1-1.9c0.3-0.2,0.7-0.4,1-0.1C180.9,89.6,181,90.6,181.5,91.4L181.5,91.4z"/>
		<path class="st3" d="M74.8,95.1c0.2,1.1-1.1,1.8-1.8,2.6c-0.5,1-0.8,3-0.1,4.1c0.6,1,1.4,2.2,2.6,2.3l2.4-0.3
			c0.2-0.6,0.9-1,0.8-1.8c-0.2-2-2,0.3-2.5-0.7c-0.1-1.1,0.5-2.7,1.3-3.4c1.2-0.2,2.3,0.6,3.3,1.3c0.4,0.2,1.2,0.1,1.3,0.8v0.7
			c-0.4,1.5-0.5,3.2-1.3,4.6c-1,1.3-2,1.7-3.7,2.3c-1,0.4-2.2,0.7-3.1,0.3c-1.3-1.3-3.6-1.9-4-4c-1.6-2.8-0.1-7,1.5-9.2
			C72.6,94.3,74.3,93.6,74.8,95.1L74.8,95.1z"/>
		<path class="st2" d="M96.5,171.5c-0.2-0.4-0.6-0.9-1.1-0.8c-2.3,1-4.3,2.5-6.7,3.2c-1,0.5-1.9,1.2-3.1,1.3c-1,0.3-1.8-0.2-2.7-0.2
			c-0.3,0.1-0.4,0.4-0.4,0.6c1.5,1.2,2.8,2.9,4.2,4.2c0.6-0.5,0.2-1.5,0.8-2.1c0.7-0.3,1.4,0.1,2.1,0.3c1.2,0.7,2.7,1.9,2.6,3.5
			c-0.1,0.3-1,0.2-1.3,0.2c-0.1,0.4-0.6,0.3-0.2,0.8l2.3,1.3c1,0.6,1.5,1.9,2.6,2.2c0.4-0.1,0.3-0.7,0.3-1
			C93.5,180.4,97.2,176.2,96.5,171.5L96.5,171.5z M92.3,178.1c-0.7,0.1-1.8-1.2-2.2-1.8c-0.2-0.2-0.3-0.5-0.2-0.9
			c0.9-0.5,2.6-2.2,3.6-2.3l0.2,0.2C93.6,174.6,92.5,176.9,92.3,178.1L92.3,178.1z"/>
		<path class="st2" d="M172.9,174.6c-1.9-0.5-0.8,0.4-2.7-0.1c-1.3-0.4-5.6-2.1-6.9-2.5c-0.8-0.3-1.8-1.2-2.7-0.4
			c-0.5,1.4,0.4,2.5,0.3,4c0.6,2.1,1.6,5.7,0.9,6.4c-0.9,0.9-1.4,1.7-0.7,2.5c0.7,0.2,0.9-0.4,1.4-0.7c1-0.8,2.4-1.3,3.2-2.5
			c-0.1-0.7-1-0.2-1.4-0.8c-0.4-1,1.2-1.4,1.7-2.1c0.8-0.4,1.3-1.5,2.3-1.5c1.1,0.4-0.1,1.2,0,1.9c0.1,0.1,0.2,0.3,0.4,0.3
			c1.7-0.8,3-2.6,4.5-3.7C173.1,175.2,173.1,174.8,172.9,174.6L172.9,174.6z M163.4,178.3c-0.7-0.7-1.1-3.2-1-4.2
			c0.2-0.3,0.9,0.4,1.1,0.5l2.3,1c0.2,0.1,0.6,0.2,0.6,0.4C165.7,176.9,164.5,178.6,163.4,178.3L163.4,178.3z"/>
		<path class="st3" d="M82.8,156.2l0.1,0.6c-0.7,2-1.8,5.9-1.9,8.2c0.2,0.3,1.3-0.9,1.6-1.1c1.3-0.5,2.1-1.9,3.4-2.3
			c0.8,0.3,0.9,0.6,1.4,1.3c0.4,0.8,1.4,1.6,1.1,2.6c-0.9,0.8-1.2-0.8-2.1-0.5c-1.8,0.4-3.2,1.6-4.7,2.5c-0.9,1.2-2.2,1.5-3.2,2.5
			c-0.5-0.2-1.4,0.1-1.4-0.7c0.1-2.7,1.7-5.6,1.4-8.4c-0.3-0.4-3,2-3.3,2.2c-1.4,1-0.7,0.9-1.2,2.5c-0.4,0.1-0.8-0.3-1.1-0.5
			c-0.4-0.8-0.5-1.6-0.9-2.3c-0.4-0.4-0.9-0.8-0.8-1.4c1.8,0.2,2,0.1,3.6-0.5c1.2-0.9,5.8-4,5.8-4.5c0.1-0.4-0.6-0.8-0.3-1.2
			c0.3-0.4,0.9-0.3,1.3-0.1C82.1,155.1,82.6,155.6,82.8,156.2L82.8,156.2z"/>
		<path class="st3" d="M177.5,157.6c0.3,0.3,0.7,0.7,0.4,1.1c-1.3,0.5-2.8,0.5-4,1.4c-0.5,0.4-1.2,0.9-1.3,1.6
			c0.4,0.8,1.5,1.8,2.3,1.7c1.1-0.5-0.4-2.1,1.2-2.1c1.2,0,1.5,0.2,2.1,1.1c0.1,0.2,0.3,0.5,0.1,0.7c-0.5,0.4-1.4,0-1.6,0.8
			c0,0.4,0.1,1.3,0.5,1.6c0.4,0.6,1.1,0.7,1.8,0.6c0.8-0.2,1.2-1.1,1.6-1.7c0.6-1.2-0.8-1.9-1.4-2.8c0-0.5,0.3-0.9,0.7-1.1
			c1.6,0.3,2.5,1.5,4,2.1c0.1,0.5-0.1,0.9-0.4,1.3c-2.2,2.6-3.6,5-6.2,7.4c-0.3,0.2-0.6,0.6-0.9,0.4c-0.7-0.6,0.9-1.8,0.4-2.4
			c-0.9-1.3-3.4-3.9-5.5-4.6c-1.2-0.3-1.3,0.2-2,1c-0.4,0.3-0.9,0.5-1.3,0.3c-0.5-0.2-0.4-0.7-0.3-1.1c0.4-1.2,1.8-1.9,2.5-3
			c1.2-2,2.5-3.2,3.9-5.2C175.4,155.7,176.3,157.2,177.5,157.6L177.5,157.6z"/>
		<path class="st3" d="M106.2,177c3,1,5.9,2.1,9,3c0.4,0.2,0.9,0.5,1.1,0.9c0.2,1.1-0.7,1.8-0.9,2.8c-0.3,0.3-0.7,0.2-1,0
			c-0.8-0.8-0.6-2.8-2.3-2.4c-1.2,0.3-1.3,2-1.8,2.9c-0.4,1.4-1.4,2.7-1.4,4.2c0.4,0.9,0.9,1.2,1.6,1.9c0.1,0.3-0.1,0.6-0.4,0.7
			c-0.9,0.1-1.5-0.6-2.3-0.8c-1.5-0.5-3.2-0.5-4.6-1.4c-0.2-0.2,0-0.4,0-0.6c0.6-0.3,1.3-0.4,1.9-0.7c1.4-1.6,1.5-3.7,2.5-5.6
			c0.2-0.7,0.9-1.2,0.7-2c-0.5-0.4-1.1-0.6-1.7-0.7c-0.9,0.6-1.4,1.6-2.2,2.2c-0.3-0.1-0.7-0.1-0.8-0.5c-0.1-1.6,0.5-2.9,1.3-4.1
			C105.2,176.7,105.8,176.9,106.2,177L106.2,177z"/>
		<path class="st3" d="M130.7,182c-0.1,0.4,0.1,0.8,0.5,1c0.3,0.2,1,0.3,0.9,0.8c0.2,2.6,0.2,4.9-1.3,6.9c-0.7,0.8-1.7,0.9-2.6,0.6
			c-2.4-1.4-0.7-3.8-1.2-6.1c0.1-0.8-0.4-1.9,0.4-2.5c0.2-0.2,0.6-0.2,0.7-0.6c-0.1-0.2-0.1-0.5-0.4-0.6c-1.4-0.2-3.1,0.4-4.5,0
			c-0.3-0.1-0.7,0.1-0.8,0.5c-0.3,0.4,0.1,0.7,0.4,0.8c0.5,0,0.8,0.5,1,0.9c0.8,3.1-0.7,6.2,0.9,9c1.4,1.2,4.6,1.3,6.5,0.9
			c3.9-1.9,1.9-6.5,3.2-9.8c0.5-0.3,1.3-0.2,1.5-0.6c0.2-0.4,0.4-0.8,0.2-1.3c-1.3-0.5-3-0.2-4.3-0.2
			C131.4,181.9,130.9,181.6,130.7,182L130.7,182z"/>
		<path class="st2" d="M157.2,184.6c-0.4-0.3-0.8-0.5-1.3-0.4c-0.7,0.2-0.8,0.9-1,1.4c-0.2,0.8-1.1,0.6-1.8,0.7
			c-0.6-0.2-2.5-1.3-2.1-1.9c0.7-1.2,1.5-3,0.3-4.5c-1.2-2.5-4.5-1.9-6.4-1.1c-1.5,1-3.2,1.3-4.7,2.3c-0.1,0.4,0.1,0.8,0.3,1.1
			c0.5,0.5,1.3-0.2,1.9-0.2c0.8,0.7,1.1,1.7,1.6,2.6c0.6,1.6,1.2,3.1,1.6,4.7c0.1,0.9-0.8,1.9,0.1,2.6c0.9-0.5,1.9-0.7,2.9-1
			c1-0.6-0.8-2.9-0.6-3.8c0.1-0.3,0.4-0.4,0.8-0.4c0.7,0.5,3.1,1.7,3.9,1.9c2.4,0,3.8,0,4.9-2.4C157.5,185.7,157.8,185,157.2,184.6
			L157.2,184.6z M148.8,184c-0.4,0.4-1.1,0.7-1.6,0.5c-0.5-0.4-2.3-3.6-1.3-4.1c1.2-0.3,2.6,0,3.2,1.2
			C149.4,182.4,149,183.4,148.8,184L148.8,184z"/>
		<path class="st3" d="M95.1,39.4c0,1.7,1.1,2.5,0.6,4c-0.4,0.4-0.3,0.6-0.9,0.6c-0.2-0.1-0.6,0.1-0.8-0.3C94,43,93.2,42.2,92.6,42
			c-0.8,0-3.2,1-3.7,1.9c-0.2,0.6-0.1,1.2,0.3,1.7c2.1,2.1,4.8,0.1,7.1-0.2c0.9,0.1,1.8,0.6,2.6,1.3c1.4,1.5,2.2,3.6,1.5,5.7
			c-1.1,2.1-3.1,4.6-5.8,4.3c-1,0.3-1.7-0.9-2.5-0.2c0,0.6,0.1,1.3-0.5,1.5c-0.5,0.1-1,0.1-1.4-0.3c-0.6-0.8,0.1-1.7-0.1-2.6
			c-0.1-1-1-1.6,0.3-2.3c1.5-0.2,2.9,1.9,4.2,1.5c1.2-0.4,1.8-0.7,2.3-2c0.2-0.6,0.3-1.3-0.1-1.8c-0.4-0.4-0.9-0.7-1.5-0.7
			c-1.5,0.1-2.4,1.7-4.2,1.4c-1.6-0.2-3.2-0.7-4.1-2.3c-0.8-1.3-1.6-2.9-1-4.5c0.5-1.4,1.8-2.7,3.2-3.3c1-0.4,2.3-0.7,3.4-0.6
			c1.2-0.3,0.7-2.2,2.4-1.5L95.1,39.4L95.1,39.4z"/>
		<path class="st3" d="M174.6,45.3c0.6,0.6,0.6,1.8,1.7,1.9c0.5,0,1.3-0.2,1.5,0.5c-0.5,1.2-1.8,1.5-2.7,2.4l-1.2,1
			c-0.3,0.1-0.5-0.2-0.6-0.4c-0.7-1.5,0.7-1.7-0.2-3c-0.4-0.6-0.9-1.4-1.7-1.6c-0.5,0-1,0.4-1.3,0.8c-1,1.8,0.5,3.2,0.9,4.8
			c0.7,0.9,1,1.9,1.3,3c0.4,1.5-0.2,3-1.3,3.9c-1.7,1.3-3.4,1.6-5.5,0.9c-1-0.6-2.2-0.9-3-1.9l-1.2-1.8c-0.7-0.2-1.6,0-2.1-0.6
			c-0.2-0.4,0.1-0.8,0.3-1.2l3.1-3.4c0.2-0.2,0.7-0.2,0.9,0c0.4,0.2,0.4,0.6,0.5,0.9c-0.1,1-1.2,1.6-1,2.7c-0.1,1.3,1.3,2.1,2.2,2.7
			c0.6,0.3,1.6,0.3,2.2,0c0.8-0.5,1.2-1.4,0.9-2.2c-0.1-1.7-2.2-2.6-2.4-4.1c-0.2-1.4-0.8-3.3,0.3-4.5c1.4-2.1,3.9-2.5,6.2-2.2
			C173.2,44.1,174,44.6,174.6,45.3L174.6,45.3z"/>
		<path class="st3" d="M75.3,50.1c0.2,1.3-1.1,2-0.1,3.2c1.2,2.1,3.7,3.7,4.6,5.8c0.6,0.8,1,1.8,2,2.2c1,0.6,2.3-1,2.7,0.4
			c-0.4,1.1-2,1.6-2.8,2.4c-1.1,0.8-2.4,1.9-3.1,3.1c-0.3,0.3-0.8,0.5-1.1,0.2c-0.9-1.3,0.9-2.8,0.2-4.2c-0.3-1-1.3-1.7-1.8-2.6
			c-1.3-2.2-3.4-4.4-5.6-5.7c-0.8-0.4-1.9,0.7-2.4-0.2c0-0.7,0.7-1.2,1.3-1.6c1.5-1.2,3.3-2,4.7-3.5C74.3,49.6,75.1,49.6,75.3,50.1
			L75.3,50.1z"/>
		<path class="st3" d="M183.1,56.1c1,0.9,1,2.1,0.9,3.4c-0.2,1.3-1.4,2.1-2.6,2.3c-1.3,0-2.8,0-3.4-1.4c-0.4-1-0.1-2.3,0.6-3.2
			c0.6-0.6,1.1-1.3,1.9-1.6C181.4,55.6,182.3,55.6,183.1,56.1L183.1,56.1z"/>
		<path class="st3" d="M62.6,61.5c0.3,0.4,0.1,0.9,0,1.3c-0.4,0.4-0.8,0.9-1.4,0.7c-0.4-0.2-1.1-1.1-1.6-0.6
			c-0.3,0.3-1.3,2.3-1.1,2.6c0.5,0.4,1.5,0.9,2.1,0.8c1.9-0.3,4.5-2.5,6.7-1.8c1.2,0,4.8,0.7,4.8,4.5c0,1.1,0.1,2.4-0.5,3.4
			c-0.8,1.5-2.2,3.5-4.1,3.8c-0.4-0.1-0.8-0.1-1.2,0c-0.5,0.5-0.2,1.5-0.9,1.9c-1.4,0.4-1.6-1.3-2.2-2.1c-0.4-1-0.7-1.5-0.9-2.6
			c0-0.3,0.3-0.3,0.5-0.4c2.4-0.9,2.1,2.5,5.7-0.2c0.6-0.5,0.7-1.2,0.7-2c-0.5-0.9-0.1-2.5-2.5-2c-2.3,0.4-4.1,1.5-6.2,1.9
			c-1.6,0.1-3-0.7-4.1-1.9c-0.7-1.4-1-3.3-0.2-4.8c0.7-0.9,2.5-4.5,3.3-4C60.7,60.4,61.7,60.7,62.6,61.5L62.6,61.5z"/>
		<path class="st3" d="M50.8,73.1c0.4,0.8-0.5,1.4-0.3,2.3c0.4,1.7,1.8,3.2,3.5,3.7c2.8,1.8,5,3.7,8,5.2c0.3,0.2,0.3,0.5,0.2,0.8
			c-1.3,1.4-3,1-4.7,1c-2.8,0-5.9,0.1-8.4,1.1c0.9,0.7,1.5,1.8,2.7,2c1,1.2,2.4,1.8,3.9,1.5c0.7,0,0.9-1.2,1.6-0.9
			c0.5,0.2,0.6,0.8,0.5,1.2c-1.4,2.2-2.1,4.6-3.4,6.8c-0.2,0.4-0.7,0.6-1,0.3c-0.7-0.6,0-1.5-0.2-2.3c0-1.8-1.7-2.6-2.9-3.6
			c-2.1-1.4-4.4-2.6-7.1-2.4c-0.9-0.1-1.3,1.3-2.3,0.9c-0.7-0.4-0.1-1.3,0.1-1.8c0.9-1.5,1.6-2.8,3.5-3.2c2.8-0.8,6.1-1.5,9.2-1.6
			c0.5,0,0.9-0.3,1.2-0.7c-1.2-1.1-2.5-2-3.9-2.8c-0.9-0.5-1.4-1-2.4-1.1c-0.5,0.3-1,0.9-1.7,0.5c-0.3-0.3-0.8-0.5-0.9-0.9
			c-0.1-0.5,0.5-0.7,0.6-1.2c1-1.8,1.2-3.8,2.9-5.1C50.1,72.7,50.4,72.8,50.8,73.1L50.8,73.1z"/>
		<path class="st3" d="M39.3,101.3c0.6,0.8,2.3,0.3,2.1,1.6c-0.5,0.7-2.3,0.1-3.1,0.3c-1,0.6-1.5,1.7-1.4,3.1c0,0.5,0.3,1.4,0.8,1.7
			c0.8,0.2,2.6,1,3.2,0c0-0.7-0.1-2.9,0.2-3.1c0.7-0.2,0.8,0.2,1.5,0.2c0.8-0.1,1.9,0,1.8,0.3c-0.9,1.5-0.9,2.4-1.7,3.3
			c0,0.2,0.2,0.3,0.3,0.3c1.7-0.1,3.5,1,5.1,1.2c0.3-1.1,0.3-3.1,0.6-4.3c0.2-1.8-3-2.6-2.3-4.4c0.3-0.5,0.9-0.5,1.4-0.4
			c1.3,0.5,2.3,0.6,3.1,1.7c1.2,1.7,0.3,4.8-0.4,6.4c-0.9,1.9-1.1,7.6-1.4,8.1c-0.3,0.2-0.8,0.3-1.1,0.1c-1.4-1-0.2-3.8-3.4-4
			c-2.7-0.2-5.3-1.3-8-1.9c-1.6-0.1-1.2,2.6-2.9,1.8c-1.1-1.5,1.5-10,2.1-12.3c0.2-0.3,0.3-0.3,0.6-0.4
			C37.5,100.6,38.3,101.3,39.3,101.3L39.3,101.3z"/>
		<path class="st3" d="M33.8,126.1c2.4,0.6,5.2,0.2,7.7,0.5c1.5,0,3.4,0.4,4.3-1c0.1-0.4,0.3-1,0.8-1.2c0.4,0,1-0.2,1.3,0.1L48,125
			c-0.1,2.3-0.3,4.4,0.2,6.6c0,0.6,0.1,1.3-0.5,1.6c-1.4,0.3-2-2.1-3.4-2.4c-2.5-0.7-5.3-0.4-8-0.4c-1.7-0.1-2.6,1.1-3.7,2.3
			c-0.2,0.2-1.3,0.1-1.4-0.8c-0.1-2-0.6-3.3-0.2-5.6c0.1-0.7,0.1-1.7,0.9-2C33,124.3,32.9,125.8,33.8,126.1L33.8,126.1z"/>
		<path class="st3" d="M47.7,140.3c0.5,0.1,1.4-0.1,1.6,0.5c-0.3,1.2,0.3,1.9,0.5,2.9c0.5,2.2,2.5,8.2,2.5,9.1
			c-0.1,0.4-0.5,0.8-0.9,1c-1.9,0.1-0.9-1.7-2.9-1.3c-2.1,0.6-6.9,2-9.2,2c-0.4,0.1-0.9,0.2-0.9,0.6c0,0.5,0.1,1.4-0.5,1.5
			c-0.8,0-1.2-0.8-1.6-1.3c-0.8-2-2.7-3.8-2-6.2c0.2-0.5,0.7-0.5,1.1-0.5c1.2,0.1,1,1.9,2.2,1.7c1.2-0.3,3.3-0.5,4.6-0.6
			c1.6-1,6,0.2,5.7-2c-0.9-6.4-2.9-4.9-4.9-7.1c-0.6-0.7,0.7-0.6,1-0.9C45.4,139.5,46.4,140.1,47.7,140.3L47.7,140.3z"/>
		<path class="st3" d="M209,143.3c2.4,1.7,5.4,1.6,8.3,2.1c1.1,0.1,2.3,1.2,3.2,0.3c0.3-0.5,0.5-1.2,1.1-1.6
			c0.5-0.1,1.1,0.3,1.2,0.8c-0.2,1.4-1,2.6-1.3,4c-1,1.9-1.6,4-1.7,6.3c-0.2,0.4-0.4,1-1,1.2c-1.5,0.1-2.7-0.2-4-0.4
			c-0.5-0.2-1-1.2-0.5-1.2c3.3,0,5-4.4,4.7-4.9c-0.3-0.5-3.2-0.6-4.3-1c-0.8-0.3,0.5,2.5-0.9,3c-1.2,0.2-0.5-0.2-1.7-0.1
			c-0.4-0.2-0.8-0.5-0.9-0.9c-0.1-0.5,0-1.1,0.4-1.4c0.2-0.1,0.5-0.3,0.5-0.6c0.1-0.5-0.5-0.8-1-0.9c-1.4-0.1-3.5-1.9-4.4-0.7
			c-0.4,1.7-1.3,3.9,1.1,6.4c0.2,0.2-0.1,0.5-0.4,0.6l-0.8-0.1l-2.9-2c-0.5-0.6-0.2-1.6-0.1-2.3c0.5-2.1,1.2-4,1.9-5.9
			c0.4-0.8,0.6-1.8,1.4-2.3C208.4,141.4,207.9,142.8,209,143.3L209,143.3z"/>
		<path class="st3" d="M201.9,160.2l0.1,1.1c1.8,1.9,3.9,3.4,6.2,4.2c1.7,1.4,3.5,2.3,5.4,3.2c0.5,0.3,0.9,0.9,0.6,1.5
			c-1.8,2-5.1,1.2-7.6,1.2c-0.3-0.1-1.5-0.4-1.8-0.3c-0.4,0.4,0.6,1.8,0.7,2.2c0.9,1.9,2,3.2,2.9,5.1c0.1,0.4-0.3,0.7-0.4,1
			c-1.8,0.2-3.1-1.3-4.7-1.9c-1-0.4-1.5-1.1-2.4-1.4c-1.8-0.6-4.2-3-5.8-1.7c-0.6,0.5-1.2,0.1-1.8-0.4c0.1-1.4,1-2.7,1.6-3.9
			c0.7-0.4,0.4-1.9,1.5-1.4c1.2,0.5-0.2,2.1,1.1,2.3c1.2,0.5,5.9,2.8,6.9,3.9c0.5,0.2-3.9-5.7-4-7.1c0-0.5,8,0.5,8.1,0.2
			c-0.1-0.6-4.7-2.5-5.1-2.8c-1.2,0-2.5-1.9-4.2,0.7c-0.2,0.4-1,0.1-1.2-0.4c0.1-0.5,0.6-0.9,0.7-1.5c0.8-1.4,0.4-3.4,2.1-4.3
			C201.3,159.6,201.7,159.9,201.9,160.2L201.9,160.2z"/>
		<path class="st3" d="M190.4,181c0.5,1.5,2.6,1.9,3.8,3.1c2,1.3,3.1,4.4,5.7,4.4c0.9,0,2.1-0.6,2.6,0.2c0.4,1.3-1.2,1.4-1.8,2
			c-0.9,1.2-2.2,2.2-3.1,3.3c-0.3,0.2-0.6,0.1-0.9-0.1c-0.4-0.6,0.6-1.5,0.2-2.1c-0.5-1-2.9-2.7-3.9-3.2c-1.7-1.3-2.4-2.9-4.4-3.7
			c-1.2-0.3-2.3,1.4-3.2,0.1c0-1.7,1.8-2.5,2.5-3.9c0.8-0.6,1.1-1.6,1.9-2.1C190.7,179.1,190.1,180.4,190.4,181L190.4,181z"/>
		<path class="st3" d="M71.6,185.6c0.1,1.8,1.6,3.1,3.1,3.6c0.1,0.4-0.1,0.8-0.5,0.9c-0.8,0.4-1.8,0.3-2.7,0.4
			c-0.8,0.8-0.9,0.5-1.9,0.7c-0.4,0.1-0.9,0-1-0.4v-0.4c0.7-0.5,1.1-0.8,1.4-1.8c0.1-1.6-1.3-2.8-2.6-3.7c-0.6-0.2-1.2-0.1-1.9,0.2
			c-0.8,0.7-0.3,1.5-0.1,2.5c0.5,1.4,0.6,2.5,0.8,4.1c0,1.9-0.4,3.6-1.8,4.9c-1.1,0.6-2.3,1.4-3.8,0.9c-1.3,0-2.1-1.1-3-1.9
			c-0.8-1.3-1.8-2.6-2.3-4c0-0.9,1-1.2,1.6-1.6l2.2-0.6c1.1,0.8-0.6,1.4-0.7,2.2c-0.1,1.2,0.3,2.1,1.3,2.8c0.9,0.3,1.7,0.1,2.5-0.3
			c0.6-0.5,0.3-1.3,0.3-1.9c-0.3-2.6-2.1-4.9-1.4-7.7c0.3-1,0.8-2,1.8-2.6c2.6-0.9,5.3,0.1,7.2,1.8
			C70.9,184.3,71.3,184.9,71.6,185.6L71.6,185.6z"/>
		<path class="st3" d="M164,201.6c-0.2,0.8-1.6,1-0.9,1.9c0.6,1.4,0.5,3,1.5,4.1c0.5,1.5,1.1,4.4,2.6,5.4c0.8,0.9,1.7-0.2,2.8,0
			c0.4,0.3,0.6,0.8,0.6,1.3c-0.3,1.2-1.7,0.8-2.5,1.2c-2.5,0.9-5.4,2.1-7.8,3.1c-0.7,0.3-0.8,1.5-1.7,1c-1-1-1-2.6-1.9-3.8
			c-0.1-0.3-0.1-0.8,0.3-1c0.6-0.2,0.9,0.4,1.4,0.5c0.7,0.1,0.8,1.1,1.6,0.8c0.5-0.7,2.8-1.4,2.8-1.4l-1.1-3.4
			c-0.3-0.3-0.8-0.4-1.2-0.3c-0.7,0.5-0.4,1.5-1.1,2c-0.4,0.1-0.7-0.4-0.8-0.7c-0.6-1.2-0.8-1.6-0.6-3c0.8-0.9,1.6,0.3,2.5,0.1
			c0.4-0.3,0.2-0.8,0-1.2c-1.2-0.9-0.8-4.3-3.1-3.3c-0.9,0.4-2.4,0.8-2.7,1.9c-0.4,0.6-0.3,1.7-1.2,1.9c-0.4,0.1-0.8,0-0.9-0.4
			c-0.1-0.7,0.3-1.2,0.3-1.8c0-0.7-0.7-1.7,0.2-2.1c2.3-1,4.9-1.3,7.2-2.3c0.8-0.5,2.5-1.7,3.5-1.2L164,201.6L164,201.6z"/>
		<path class="st2" d="M220.7,103.6c-0.3-0.4-0.6-0.9-1.2-0.9c-1.5,0.6-2.9-0.3-4.4-0.3c-0.6-0.2-6.3-0.4-8.5-1.4
			c-2-0.9-2.4-2.5-2.4-2.5c-0.2-0.6-1.3-1-1.6-0.4c-0.2,0.7-0.1,2,0.3,2.9c0.6,1.4,0.8,2.4,1.3,3.6c0.1,0.4,0.5,0.6,0.9,0.5
			c0.4,0,0.3-1.6,0.2-2c0.2-0.4,1,0.3,1.4,0.1c0.8-0.1,0.9,0.2,1.5,0.6c0.4,1,0.6,2.6,0.9,3.6c0,0.8,0.3,1.5,0.2,2.3
			c-0.2,0.4-1.2,1.2-1.7,1c-0.8-0.2-0.9-1.4-1.7-1.4c-0.5,0.1-0.4,0.7-0.4,1.2c0.4,0.9,0.3,4.9,0.7,5.9c0.2,0.4,0.5,1,1.1,0.8
			c1.7-1.1,0-1.2,1.7-2.6c1.7-1.5,8.1-6.9,9.3-7.7c0.6-0.3,1.7-1.6,2.2-2.1C220.7,104.7,220.9,104.1,220.7,103.6L220.7,103.6z
			 M211.1,108.6c-0.4,0-0.5-0.4-0.6-0.7l-0.5-3.8c1-0.7,4.7,0.5,6.2,0.4C217.3,104.5,212,107.9,211.1,108.6L211.1,108.6z"/>
		<path class="st2" d="M198.8,64.6c-0.1-0.6-0.9-0.6-1.4-0.7c-3.9,1.1-7.4,3.2-11.2,4.4c-1.2,0-2.5,0.2-3.5-0.4
			c-0.5-0.1-1.1-0.5-1.6,0c-0.1,0.5,0,1,0.3,1.4c1.5,0.9,2.5,3.5,4.2,3.5c0.7,0-0.3-1.1,1.1-1.8c1.8-0.8,3.3,1.5,4.3,2.8
			c0.2,0.6,0,1.2-0.3,1.7c-0.2,0.4-0.8,0.1-1.3,0c-0.5,0-0.8-0.5-1.2,0c-0.1,0.1-0.1,0.8,0,0.9c1.3,0.6,2.1,1.9,3,3.1
			c0.5,0.5,1,1.7,1.5,1.3c1-0.7,0.3-1.3,0.5-2.1c0.3-1.7,1.8-3.9,2.5-6.3C196.3,69.9,198.4,67.2,198.8,64.6L198.8,64.6z M192.2,71.7
			c-1,0-2-1.3-2.5-2.1c0.5-0.7,3.4-2.1,4.2-2.5C194.7,66.8,192.8,71.3,192.2,71.7L192.2,71.7z"/>
		<path class="st2" d="M185.2,204.2c-0.8-3-1.7-6-2.2-9.2c-0.1-1.3-0.5-2.7-0.3-3.9c0.4-0.8,1.2-1.5,1.3-2.5c-0.1-0.4-0.6-0.6-1-0.5
			c-0.9,1-2.1,1.6-3.3,2.2c-0.5,0.9-1.1,0.4-1.5,1.5c0.2,0.6,0.9,0.5,1.5,0.6c0.6,0.1,0.3,0.8,0.4,1.2c-0.8,1.6-2.5,2.5-4,3.3
			c-0.5,0.1-0.8-0.3-1-0.7c-0.8-0.9-0.2-1-0.4-1.9c-0.1-0.3-0.4-0.3-0.7-0.3c-1.4,1.2-3.1,1.8-4.4,3.2c-0.3,0.3-0.9,0.4-0.9,1
			c0.2,0.5,0.3,1,0.8,1.3c0.4,0.2,0.9,0.2,1.3,0c2.8-1.5,4.6,2.6,7.1,3.9c1.8,0.5,4.2,3.5,5.4,3.4c0.9-0.1,1.6-0.5,2.3-1.1
			C185.9,205.1,185.3,204.6,185.2,204.2L185.2,204.2z M182.1,202.3c-0.7-0.1-3.3-3.2-3.8-3.6c-0.2-0.1-0.4-0.1-0.5-0.3l0-0.4
			c0.7-0.6,3-3,3.6-1.2c0.3,0.7,1.1,4.2,1.3,4.9C182.6,202.1,182.4,202.3,182.1,202.3L182.1,202.3z"/>
		<path class="st2" d="M61.7,173.6c-0.8-1.6-1.8-4.7-2.7-4.7c-1.4,0.1,0,2.2-1.2,2.9c-0.5,0.3-1.2,0.5-1.8,0.3
			c-1.3-0.6-1.3-1.2-2.2-3c-0.4-0.8-1.3-1.7-0.6-2.6c0.6-0.5,0.8-1.6,1.8-1.6c0.4,0.1,0.4,0.5,0.5,0.8c0.2,0.4,0.4,1.2,1.1,0.9
			c0.3-0.1,0.6-0.3,0.6-0.6c-0.2-1.7-1.5-2.9-2.1-4.5c-0.7-0.9-0.5-2.6-1.9-2.7c-0.9,0.4-0.3,1.6-0.5,2.4c-1.1,1.4-2,3-3.3,4.4
			c-1.3,1.4-2.3,3.1-3.8,4.4l-1.4,2.4c-0.1,0.5-0.8,1.6-0.1,1.7c4.4,0.5,7.9,0.3,11.9,0.2c1.6,0,3.6-0.4,4.8,0.9
			c0.5,0.3,0.6,1,1.1,1.2c0.4,0.1,0.8,0.2,1.2-0.2C63.1,175.2,62.2,174.5,61.7,173.6L61.7,173.6z M52.1,172.2c-1.1,0-2.9,0.1-4,0.1
			c-0.3-0.1,2.7-2.9,2.8-3.1c0.8-0.8,1.3,0.9,1.3,0.9s0.4,1.5,0.9,1.8C53.2,172.1,52.3,172.2,52.1,172.2L52.1,172.2z"/>
		<path class="st3" d="M197.7,91c-0.9-1.6-1.2-2.8-1.2-3.8c0-1,0.9-2,1-2.9c0.5-1.2,1.6-2.1,2.6-2.9c1-0.8,2.1-1.4,3.5-1.8
			c1.2-0.1,2.5-0.6,3.5-0.6c1,0.1,2,0.3,2.8,0.8c0.9,0.5,1.4,1.2,2.2,1.9c2.4,3.1,2.8,6.6,1.5,7.3l-0.4,0.3l-1.4,0.7
			c-0.6,0.4-1,0.4-1.2,0.5c-0.2,0.1-0.4,0.2-0.5,0.3c-0.2,0-0.3,0-0.4,0c-0.1,0-0.2-0.1-0.2-0.2c0-0.2,0.1-0.5,0.5-1
			c0.2-0.2,0.3-0.4,0.4-0.6c0.5-0.7,1-0.9,1.2-1.4c0.2-0.6,0-1.7-0.1-2.2c-0.2-1.1-1-2.1-2.2-2.5c-1.2-0.4-2.6-0.1-4.2,0.4
			c-1.8,0.5-2.9,1.1-3.8,2.1c-0.9,1.1-1.3,2.6-0.9,3.9c0.1,0.5,0.3,0.9,0.5,1c0.1,0.9,2.4,3.4,2.8,3.3c0.6,0.4-0.4,1.1-0.4,1.1
			C202.9,94.6,198.8,93.3,197.7,91L197.7,91z"/>
		<path class="st3" d="M99,219.7c-0.3-0.1-0.7-0.3-0.8-0.5c-0.1-0.2-0.1-0.4,0-0.6c0.1-0.4,1.4-0.5,1.4-0.5c0.3-0.1,0.8-0.8,1.3-2.1
			c0.1-0.3,0.9-2.8,1.2-3.8c0-0.1,0.3-1.7,0.4-1.9c0.4-1.1,0.1-1.9-0.2-2.6c-0.3-0.7-0.8-1.1-1.8-1.5c-1.1-0.4-1.5-0.3-2.3,0
			c-0.7,0.3-1.3,0.6-1.6,1.6c-0.1,0.2-0.8,1.3-0.9,1.5l-2,3.7c-0.5,1.6-0.9,2.7-0.7,3c0.1,0.1,0.2,0.2,0.3,0.4
			c0.3,0.3,0.8,0.9,0.7,1.2c-0.1,0.2-0.2,0.4-0.4,0.4c-0.2,0.1-0.4,0.1-0.6,0l-4.3-1.9c-0.3-0.1-0.5-0.2-0.6-0.4
			c-0.1-0.2-0.1-0.4,0-0.6c0.1-0.3,0.4-0.4,0.8-0.5c0,0,1.2,0.2,1.4,0.1c0.1-0.1,2.7-5.1,2.7-5.1c0-0.1,1.3-2.7,1.4-3.1
			c0.5-1.4,1.4-2.3,2.6-2.6c1.2-0.4,2.5-0.3,4.4,0.4c2.2,0.8,3.5,1.5,4.2,2.6c0.8,1.1,1,4.9,0.5,5.9c-0.2,0.4-0.4,1.5-0.5,1.7
			l-0.6,3.1c-0.1,0.1-0.2,1-0.3,1.1c0,0.1-0.3,0.8-0.2,1c0,0.1,0.5,0.6,0.5,0.6c0.3,0.3,0.5,0.6,0.4,0.9c-0.1,0.2-0.2,0.4-0.4,0.4
			c-0.2,0.1-0.4,0.1-0.6,0L99,219.7L99,219.7z"/>
		<path class="st2" d="M235.8,119c-0.8-4.2-0.8-8.6-2.3-12.5c-1.1-6.6-3.5-12.6-5.7-18.8c-1.1-2.3-1.9-4.7-3.5-6.7
			c-0.8-1.6-1.8-3.1-2.6-4.8c-1.7-2.2-2.5-4.9-4.1-7.1c-2.1-2.2-3.6-4.9-5.5-7.2c-1.8-2.6-4.3-4.7-6.2-7.3c-1.8-0.8-2.3-3-4.1-3.9
			c-0.7-1.3-2.3-1.6-3.1-3c-2.2-1.9-4.1-4.2-6.5-5.9c-3.5-3-7.8-3.7-11.2-6.8l-2.9-1.4c-2.5-1.9-5.5-2.6-8.2-4.1
			c-2.3-1.2-4.7-2.1-7-3.1c-1.9-0.5-3.7-1.5-5.7-1.8c-0.5,0-0.9-0.5-1.4-0.4c-4.6,0-8.5-1.7-12.9-2.3c-3.9-0.1-7.8-0.8-11.6-1.3
			c-1.7,0.2-3.5-0.1-5.1,0.3c-3.1,0.2-6.3,0.3-9.3,0.7c-4.5,0.8-9.3,1.2-13.3,3.1c-4.5,1.5-9,3.1-13.4,4.7c-0.9,0.6-2,0.9-3.1,1.1
			c-2.7,0.7-4.9,2.6-7.6,3.3c-2.8,1.7-6.1,2.5-8.6,4.9c-2.9,1.2-5.5,3-8.1,5c-3,1.3-5.6,3.7-8.2,5.9c-2.6,3.1-5.9,5.4-8.5,8.3
			c-0.9,1.4-2.1,2.7-2.9,4.1c-1.3,1.6-2.6,3.2-3.7,4.8c-1.7,1.6-2.7,3.5-3.9,5.3c-1.3,2.6-3.1,5-4.4,7.6c-0.6,1.9-1.6,3.6-2.3,5.5
			c-1.3,2.2-2.1,4.6-3.1,7c-0.8,2.6-1.9,5.1-2.5,7.8c-0.3,0.9-1,1.7-0.8,2.8c-0.8,2-0.9,4.3-1.3,6.5c-0.1,3.5-1.4,6.6-1.4,10.2
			c0,3-0.2,6-0.2,8.9c0.1,5,0,10.1,0.6,15c0.4,2.1,0.3,4.3,1,6.3c1.4,5.6,2.5,11.2,4.6,16.5c1,3.9,3,7.4,4.4,11.2
			c1.2,2,2.8,3.8,3.6,6c1.5,2.4,2.5,5,4.5,7.2c0.3,0.8,1.3,1.2,1.4,2.1c1.1,1.2,1.9,2.7,2.9,4c1.4,1.4,2.4,3,3.9,4.4
			c0.3,1.2,1.8,1.9,2.3,3c1.2,1.1,2.7,1.9,3.5,3.4c2.2,0.9,3.5,3,5.4,4.4c4.8,4.1,9.9,7.5,15.2,10.5c2.4,1,4.6,2.5,7,3.5
			c3.1,1.6,6.5,2.8,9.6,4.2c2.9,0.3,5.3,1.8,8.3,1.7c1.1,0.1,2,0.7,3.1,0.7c3.9,0.9,7.8,1.9,11.7,2.6c6.3,0.2,12.8,1.3,19.1,0.3
			c8.6,0.2,16.5-1.3,24.3-3.3c3.6-1.3,7.3-2.2,10.9-3.5c4.3-2.3,8.9-3.7,13.1-6.1c1.1-0.5,2.1-1.3,3.2-1.6c3.1-1.5,5.8-4.1,8.8-6
			c4.2-2.7,8.3-5.9,12.1-9.2c3.4-3.8,6.8-7.6,9.4-11.8c3.2-3.9,6-8,8.1-12.4c0.4-0.3,0.5-0.9,0.8-1.3c0.1-1.1,0.7-2,1.2-3
			c1-3.2,3.1-6.1,4.2-9.3c0.8-1.8,1.3-3.7,1.7-5.7c1.2-3.4,2.4-6.8,3.2-10.5c1.1-6.5,2.5-12.9,3.1-19.6
			C236.8,127.6,235.9,123.3,235.8,119L235.8,119z M233,136.2c-0.6,5.8-1.6,11.8-2.9,17.2c-0.4,4.2-3,7.2-3.7,11.3
			c-1,2.4-1.4,5.5-2.9,7.7c-1.7,3.4-3.4,6.2-4.9,9.6c-2.2,4.2-11.2,18.7-19.9,24.3c-3.3,2.3-6.6,4.7-9.8,7.3l-4.2,2.6
			c-2.1,0.3-3.4,2.4-5.2,3.3c-1.4,0.9-2.9,1.3-4.4,2c-4.4,2.3-8.7,4.6-13.5,5.9c-3.6,1.5-7.6,2-11.2,3.6c-4.7,0.7-9.4,1.5-14.2,2
			c-4.9-0.1-9.8,1-14.5,0.1c-2.8-0.7-6.1-0.6-9-0.7c-1.3,0.1-2.3-0.6-3.5-0.8c-3.3-0.6-6.3-1.8-9.7-2c-4-0.8-7.6-2.3-11.4-3.4
			c-0.8-0.5-1.7-0.5-2.6-0.9c-3.8-2.3-8-3.6-11.7-6.1l-0.7-0.3c-2.9-2.4-6-4.2-9-6.1c-3.4-2.7-7.1-4.9-10.4-8
			c-2.2-1.8-3.8-4.2-5.7-6.3c-1.6-1.2-2.7-2.9-4.1-4.3c-2.7-2.9-4.1-6.6-6.7-9.6c-2.1-2.8-3.1-6.2-4.8-9.2c-0.9-2.4-2.3-4.6-3.1-7
			c-1.5-3.8-2.2-7.9-3.9-11.5c-0.6-2.6-1.5-5.1-1.8-7.9c-0.5-4.1-1.6-8.1-1.1-12.4c-0.3-2.4-0.5-5.2-0.2-7.6c-0.4-0.9,0.1-2,0.2-2.9
			c-0.4-2,0.5-4,0-5.9c0-3.5,1.2-6.3,1.1-9.9c0.4-2.2,0.9-4.5,1.1-6.8c0.7-1.3,0.9-2.7,1.5-4c0.2-2.4,1.4-4.4,2-6.7
			c0.9-2.7,2.1-5.3,3.6-7.7c1.5-2.7,2.7-5.6,3.8-8.5c2.1-2.9,3.5-6.1,6.2-8.8c1.3-2.5,3.4-4.8,5.3-7.1c0.8-2.2,3.1-3.5,4.7-5.2
			c3.3-3.3,6.9-5.9,10.7-8c2.4-1.4,4.6-3.3,7-4.6c0.4-0.7,1.2-0.6,1.7-1.1c4-2.5,8-5.2,12.3-7c5.4-3,11.4-4.5,17.2-6.5
			c2.1-0.4,4.2-0.9,6.2-1.7c1.9-0.1,3.5-0.9,5.2-1.2c1.8-0.5,3.8-0.5,5.6-1.1c4-0.6,7.9,0.4,12,0.3c1.6,0.1,3.1-0.3,4.8-0.1
			c1,0.1,2,0,2.9-0.1c3.2-0.1,6,0.5,9,1.1c1.4,0.4,2.8,0.8,4.3,1.1c1.9,0.1,3.5,1.2,5.4,1.5c1.9,0.7,4,0.8,5.9,1.5
			c4.7,2,9.6,3.6,14.2,5.9c3.4,2.5,7.3,3.6,10.6,6.4c2.7,1.7,5.4,3.6,8,5.6c1.3,0.9,2.3,2.4,3.6,3.4c1.7,1.7,3.5,3.3,5.1,5
			c1.5,1.3,2.7,2.9,4.3,4.2c1.3,1.6,2.5,3.3,3.9,4.9c2.8,3.9,5.6,7.7,7.9,11.8c2.2,2.6,3.5,5.5,4.8,8.4c1.5,4.4,3.8,8.5,4.7,13.1
			c1,3.9,2.6,7.4,3.4,11.4c0.7,3.2,0.9,6.6,1.2,9.9c0.4,2.7,0.6,5.9,0.2,8.6C233.6,130.9,233.7,133.8,233,136.2L233,136.2z"/>
		<path class="st2" d="M223.7,120.8c-1.2-1.8-1.4,0.9-1.8,1.5c-1.2,0.5-2.8,0.8-4.1,0.8c-2.7-0.6-4.6,0.6-7.4,0
			c-0.5-0.3-1.4,0.3-1.6-0.3c-0.3-0.6-0.8-1.2-1.5-1.1c-0.2,0.1-0.4,0.2-0.4,0.5c0.5,2.1,0.3,5.2,0.5,7.5c0,1.4,2.8,5.2,3.7,5.9
			c1.5,1.1,3.3,1.1,5.3,1.1c1.8,0,3.3-1.3,4.7-2.6l1.5-2c0.3-0.6,0.2-1.3,0.6-1.8c0.2-1.4,0.6-3.1,0.6-4.9
			C223.8,124,224.1,122.1,223.7,120.8L223.7,120.8z M220.8,130.4c-2,2.7-5.6,2.2-8.5,1.9c-0.9-0.4-1.9-1.1-2.3-2.2
			c-0.1-0.5-0.4-2.1,0-2.6c1.3-0.7,3.1-0.4,4.5-0.2c1.3,0.2,5.9-0.7,6.4-0.1C220.9,127.7,221,129.8,220.8,130.4L220.8,130.4z"/>
	</g>
</g>
</svg>
