<?xml version="1.0" encoding="utf-8"?>
<!-- Generator: Adobe Illustrator 26.3.1, SVG Export Plug-In . SVG Version: 6.00 Build 0)  -->
<svg version="1.1" id="affiliation" xmlns="http://www.w3.org/2000/svg" xmlns:xlink="http://www.w3.org/1999/xlink" x="0px"
	 y="0px" viewBox="0 0 256 256" style="enable-background:new 0 0 256 256;" xml:space="preserve">
<style type="text/css">
	.st0{fill:#FFFFFF;}
	.st1{display:none;fill:#FFFFFF;}
	.st2{clip-path:url(#SVGID_00000064319051948433063460000011564825832415163834_);}
	.st3{fill-rule:evenodd;clip-rule:evenodd;fill:#009CD6;}
	.st4{fill-rule:evenodd;clip-rule:evenodd;fill:#274988;}
	.st5{fill-rule:evenodd;clip-rule:evenodd;fill:#1D1D1B;}
	.st6{fill-rule:evenodd;clip-rule:evenodd;fill:#FFFFFF;}
	.st7{clip-path:url(#SVGID_00000013184483762800827940000018306525371083095201_);}
	.st8{clip-path:url(#SVGID_00000000911885397179057810000008913005612466166935_);}
	.st9{clip-path:url(#SVGID_00000116228161588078961960000012989177226149239942_);}
	.st10{clip-path:url(#SVGID_00000036930522384112697840000000418044232680281509_);}
	.st11{font-family:'PromtImperial-Bold';}
	.st12{font-size:19.8712px;}
</style>
<rect id="black" width="256" height="256"/>
<circle id="background_x5F_circle" class="st0" cx="128" cy="128" r="128"/>
<path id="background_x5F_rectangle" class="st1" d="M206.9,256H49.1C22.1,256,0,233.9,0,206.9V49.1C0,22.1,22.1,0,49.1,0H207
	c27,0,49.1,22.1,49.1,49.1V207C256,233.9,233.9,256,206.9,256z"/>
<g id="logo">
	<g>
		<g>
			<defs>
				<path id="SVGID_1_" d="M196.7,162.5c-1.6,26.6-15.8,62.3-68.7,76.1c-56.3-14.8-67.5-53.7-68.8-76.1H196.7L196.7,162.5z"/>
			</defs>
			<clipPath id="SVGID_00000129903372517725763710000012710501338593596817_">
				<use xlink:href="#SVGID_1_"  style="overflow:visible;"/>
			</clipPath>
			<g style="clip-path:url(#SVGID_00000129903372517725763710000012710501338593596817_);">
				<defs>
					<rect id="SVGID_00000034791748231542440490000014778421979162738582_" x="59.2" y="162.5" width="137.5" height="76.1"/>
				</defs>
				<clipPath id="SVGID_00000118386076540614896030000002120033817328642952_">
					<use xlink:href="#SVGID_00000034791748231542440490000014778421979162738582_"  style="overflow:visible;"/>
				</clipPath>
				<g style="clip-path:url(#SVGID_00000118386076540614896030000002120033817328642952_);">
					
						<image style="overflow:visible;" width="808" height="450" xlink:href="CC654CCA5A74D47E.png"  transform="matrix(0.1709 0 0 -0.1709 59.0133 239.1239)">
					</image>
				</g>
			</g>
			<g style="clip-path:url(#SVGID_00000129903372517725763710000012710501338593596817_);">
				<defs>
					<rect id="SVGID_00000021798897582767360640000002968868399720117912_" x="59.2" y="162.5" width="137.5" height="76.1"/>
				</defs>
				<clipPath id="SVGID_00000072995645134562691670000008028652272729580461_">
					<use xlink:href="#SVGID_00000021798897582767360640000002968868399720117912_"  style="overflow:visible;"/>
				</clipPath>
				<g style="clip-path:url(#SVGID_00000072995645134562691670000008028652272729580461_);">
					
						<image style="overflow:visible;" width="808" height="450" xlink:href="CC654CCA5A74D47D.png"  transform="matrix(0.1709 0 0 -0.1709 59.0133 239.1239)">
					</image>
				</g>
			</g>
			<g style="clip-path:url(#SVGID_00000129903372517725763710000012710501338593596817_);">
				<defs>
					<rect id="SVGID_00000117636894225423852690000003939692296801495469_" x="59.2" y="162.5" width="137.5" height="76.1"/>
				</defs>
				<clipPath id="SVGID_00000033332798454959772220000007334877738809053092_">
					<use xlink:href="#SVGID_00000117636894225423852690000003939692296801495469_"  style="overflow:visible;"/>
				</clipPath>
				<g style="clip-path:url(#SVGID_00000033332798454959772220000007334877738809053092_);">
					
						<image style="overflow:visible;" width="808" height="450" xlink:href="CC654CCA5A74D47A.png"  transform="matrix(0.1709 0 0 -0.1709 59.0133 239.1239)">
					</image>
				</g>
			</g>
			<g style="clip-path:url(#SVGID_00000129903372517725763710000012710501338593596817_);">
				<defs>
					<rect id="SVGID_00000098193682652933846410000013522347190175650993_" x="59.2" y="162.5" width="137.5" height="76.1"/>
				</defs>
				<clipPath id="SVGID_00000168091209260594791660000001963173752825018030_">
					<use xlink:href="#SVGID_00000098193682652933846410000013522347190175650993_"  style="overflow:visible;"/>
				</clipPath>
				<g style="clip-path:url(#SVGID_00000168091209260594791660000001963173752825018030_);">
					
						<image style="overflow:visible;" width="808" height="450" xlink:href="CC654CCA5A74D475.png"  transform="matrix(0.1709 0 0 -0.1709 59.0133 239.1239)">
					</image>
				</g>
			</g>
			<g style="clip-path:url(#SVGID_00000129903372517725763710000012710501338593596817_);">
				<defs>
					<rect id="SVGID_00000130606939818589582650000000297708317332225726_" x="59.2" y="162.5" width="137.5" height="76.1"/>
				</defs>
				<clipPath id="SVGID_00000036240519703412859720000008523706815811970990_">
					<use xlink:href="#SVGID_00000130606939818589582650000000297708317332225726_"  style="overflow:visible;"/>
				</clipPath>
				<g style="clip-path:url(#SVGID_00000036240519703412859720000008523706815811970990_);">
					
						<image style="overflow:visible;" width="808" height="450" xlink:href="CC654CCA5A74D474.png"  transform="matrix(0.1709 0 0 -0.1709 59.0133 239.1239)">
					</image>
				</g>
			</g>
			<g style="clip-path:url(#SVGID_00000129903372517725763710000012710501338593596817_);">
				<defs>
					<rect id="SVGID_00000049915774818645588430000010834864273288496277_" x="59.2" y="162.5" width="137.5" height="76.1"/>
				</defs>
				<clipPath id="SVGID_00000001628031394513342920000006616263197420461218_">
					<use xlink:href="#SVGID_00000049915774818645588430000010834864273288496277_"  style="overflow:visible;"/>
				</clipPath>
				<g style="clip-path:url(#SVGID_00000001628031394513342920000006616263197420461218_);">
					
						<image style="overflow:visible;" width="808" height="450" xlink:href="CC654CCA5A74D473.png"  transform="matrix(0.1709 0 0 -0.1709 59.0133 239.1239)">
					</image>
				</g>
			</g>
			<g style="clip-path:url(#SVGID_00000129903372517725763710000012710501338593596817_);">
				<defs>
					<rect id="SVGID_00000018945274589380698790000003267810778007040425_" x="59.2" y="162.5" width="137.5" height="76.1"/>
				</defs>
				<clipPath id="SVGID_00000017510084766929720090000017999521818864584328_">
					<use xlink:href="#SVGID_00000018945274589380698790000003267810778007040425_"  style="overflow:visible;"/>
				</clipPath>
				<g style="clip-path:url(#SVGID_00000017510084766929720090000017999521818864584328_);">
					
						<image style="overflow:visible;" width="808" height="450" xlink:href="CC654CCA5A74D488.png"  transform="matrix(0.1709 0 0 -0.1709 59.0133 239.1239)">
					</image>
				</g>
			</g>
			<g style="clip-path:url(#SVGID_00000129903372517725763710000012710501338593596817_);">
				<defs>
					<rect id="SVGID_00000041254575051834248290000011640415174184437893_" x="59.2" y="162.5" width="137.5" height="76.1"/>
				</defs>
				<clipPath id="SVGID_00000024715365767530905760000001219022733342054068_">
					<use xlink:href="#SVGID_00000041254575051834248290000011640415174184437893_"  style="overflow:visible;"/>
				</clipPath>
				<g style="clip-path:url(#SVGID_00000024715365767530905760000001219022733342054068_);">
					
						<image style="overflow:visible;" width="808" height="450" xlink:href="CC654CCA5A74D48A.png"  transform="matrix(0.1709 0 0 -0.1709 59.0133 239.1239)">
					</image>
				</g>
			</g>
		</g>
		<path class="st3" d="M59.1,65.1c38.5-23,89-29.2,137.8-28.2l0,56.5H59.1V65.1L59.1,65.1z"/>
		<path class="st4" d="M196.9,92.1l0,65.2c0,2.4-0.1,4.8-0.3,7.4H59.4c-0.2-2.4-0.3-4.7-0.3-6.7V92.1H196.9L196.9,92.1z"/>
		<polygon class="st5" points="152.8,69.9 150.9,88.5 181.3,88.5 181.3,87.3 181.2,86.5 152.6,86.7 154.3,69.9 152.8,69.9 		"/>
		<path class="st6" d="M150.5,64.8h3v-3.8h5.3v3.8h5.3v-3.8h5.3v3.8h5.3v-3.8h5.3v3.8h3v2.7h-1.2v2.7h-1.9l1.7,17.2H152l1.6-17.2
			h-1.9v-2.7h-1.2V64.8L150.5,64.8z M164,81.7h5.3v-6.4c0-1.5-1.2-2.7-2.7-2.7h0c-1.5,0-2.7,1.2-2.7,2.7V81.7L164,81.7z"/>
		<path class="st6" d="M162,49.5c-2.5,1.5-5.7,3.9-5.7,7.2c0,2.4,1.8,4.1,4.1,3.9c2-0.2,3.2-1.7,3.3-3.6c0.7,1.3,2,2,3.8,2.1
			c1.8,0.1,3.1-0.7,3.9-1.8c0.2,1.4,1,2.5,2.6,2.6c1.6,0.1,2.8-1.2,2.7-2.8c-0.2-2.4-2.5-3-0.9-5.6c-1.5,0.3-2.6,1.2-3.4,2.3
			c-0.5-4.8-4.9-5-1.8-9.7c-5.1,1.6-7.8,6.4-7.6,10.5l0,0.2C162.4,53.4,161.5,52.2,162,49.5L162,49.5z M173.9,54.1
			c-0.8,0.6-1.2,1.6-1.2,2.7c0,0.8,0.4,1.5,1.2,1.5c0.7,0,1.1-0.6,1.1-1.2C175.1,55.6,174.1,55.5,173.9,54.1L173.9,54.1z
			 M168.3,48.5c-1.7,1.2-2.8,3.4-2.7,5.3c0.1,1.4,0.9,3.2,2.3,3.2c1.1,0,1.7-0.8,1.7-1.8c0-1.2-0.9-1.9-1.2-3
			C168.1,51,168.1,49.8,168.3,48.5L168.3,48.5z M160.1,53.2c1.3,1.1,1.8,2.6,1.8,3.7c0.1,1.1-0.5,1.9-1.5,1.9
			c-0.8,0-1.5-0.7-1.5-1.6C158.8,55.7,159.9,55.6,160.1,53.2L160.1,53.2z"/>
		<polygon class="st5" points="111.4,72 109.7,88.7 136.9,88.7 136.9,87.6 136.8,86.9 111.2,87.1 112.7,72.1 111.4,72 		"/>
		<path class="st6" d="M109.3,67.5h2.7V64h4.7v3.4h4.7V64h4.7v3.4h4.7V64h4.7v3.4h2.7v2.5h-1.1v2.4h-1.7l1.5,15.4h-26.3l1.5-15.4
			h-1.7v-2.4h-1.1V67.5L109.3,67.5z M121.4,82.6h4.8v-5.8c0-1.3-1.1-2.4-2.4-2.4h0c-1.3,0-2.4,1.1-2.4,2.4V82.6L121.4,82.6z"/>
		<path class="st6" d="M119.6,53.8c-2.2,1.4-5.1,3.5-5.1,6.4c0,2.1,1.6,3.7,3.7,3.5c1.8-0.1,2.9-1.5,2.9-3.3
			c0.6,1.1,1.8,1.8,3.4,1.9c1.6,0.1,2.8-0.7,3.5-1.6c0.2,1.3,0.9,2.2,2.3,2.3c1.4,0.1,2.5-1.1,2.4-2.5c-0.2-2.2-2.3-2.7-0.8-5
			c-1.3,0.3-2.4,1.1-3,2c-0.4-4.3-4.3-4.4-1.7-8.7c-4.6,1.5-6.9,5.7-6.8,9.4l0,0.1C120,57.3,119.2,56.2,119.6,53.8L119.6,53.8z
			 M130.2,57.9c-0.7,0.6-1.1,1.4-1.1,2.4c0,0.7,0.4,1.3,1.1,1.3c0.7,0,1-0.6,1-1C131.3,59.3,130.4,59.2,130.2,57.9L130.2,57.9z
			 M125.3,52.9c-1.5,1-2.5,3-2.4,4.7c0.1,1.3,0.8,2.9,2.1,2.9c1,0,1.5-0.7,1.5-1.6c0-1.1-0.8-1.7-1.1-2.7
			C125.1,55.2,125,54.1,125.3,52.9L125.3,52.9z M117.9,57.1c1.2,0.9,1.6,2.4,1.6,3.3c0.1,1-0.5,1.7-1.3,1.7c-0.7,0-1.4-0.6-1.4-1.4
			C116.8,59.3,117.7,59.3,117.9,57.1L117.9,57.1z"/>
		<polygon class="st5" points="76.6,75.9 75.3,88.6 96.1,88.6 96.1,87.8 96,87.3 76.5,87.4 77.6,75.9 76.6,75.9 		"/>
		<path class="st6" d="M75,72.4h2.1v-2.6h3.6v2.6h3.6v-2.6h3.6v2.6h3.6v-2.6H95v2.6h2.1v1.9h-0.8v1.8h-1.3l1.1,11.7H76l1.1-11.7
			h-1.3v-1.8H75V72.4L75,72.4z M84.2,83.9h3.6v-4.4c0-1-0.8-1.8-1.8-1.8h0c-1,0-1.8,0.8-1.8,1.8V83.9L84.2,83.9z"/>
		<path class="st6" d="M82.9,62c-1.7,1-3.9,2.7-3.9,4.9c0,1.6,1.2,2.8,2.8,2.7c1.4-0.1,2.2-1.1,2.2-2.5c0.5,0.9,1.4,1.4,2.6,1.4
			c1.2,0.1,2.1-0.5,2.7-1.2c0.1,1,0.7,1.7,1.8,1.8c1.1,0.1,1.9-0.8,1.8-1.9c-0.2-1.6-1.7-2-0.6-3.8c-1,0.2-1.8,0.8-2.3,1.5
			c-0.3-3.3-3.3-3.4-1.3-6.6c-3.5,1.1-5.3,4.3-5.1,7.1l0,0.1C83.1,64.7,82.5,63.8,82.9,62L82.9,62z M91,65.1
			c-0.5,0.4-0.8,1.1-0.8,1.8c0,0.5,0.3,1,0.8,1c0.5,0,0.8-0.4,0.8-0.8C91.8,66.2,91.1,66.1,91,65.1L91,65.1z M87.2,61.3
			c-1.1,0.8-1.9,2.3-1.8,3.6c0,1,0.6,2.2,1.6,2.2c0.8,0,1.1-0.5,1.2-1.3c0-0.9-0.6-1.3-0.8-2.1C87.1,63.1,87,62.2,87.2,61.3
			L87.2,61.3z M81.5,64.5c0.9,0.7,1.2,1.8,1.2,2.5c0,0.7-0.4,1.3-1,1.3c-0.5,0-1-0.4-1-1.1C80.7,66.2,81.4,66.2,81.5,64.5L81.5,64.5
			z"/>
		<path class="st5" d="M105.4,157.2c-2.5,1.4-5,3.3-7,6.8l-0.4,1.4c2.1,2.4,6,4.9,11.6,5.6c13.9,1.6,20.4-4.9,31-4.7
			c5.1,0.1,10,1,15.5,3.9l0.9-1.1l0.9-2.9c-4.1-4.1-11.9-6.9-17.8-7.2c-8.8-0.5-14.5,3-21.2,3C113.6,161.9,109.5,160.2,105.4,157.2
			L105.4,157.2z"/>
		<path class="st5" d="M110.7,176.2c-2.5,22.7,6.3,40.3,21.6,50.9c-0.5,1.3-0.9,2.4-1.4,3.7c-20.2-11.9-35-28.2-32.4-60.1l1.1-0.3
			C101.1,172.5,106.8,175.9,110.7,176.2L110.7,176.2z"/>
		<path class="st5" d="M148.5,170.3l-26,39.1l-0.5,1.6c1.3,3.2,3.9,6,6,7.6l24.6-47.8l-0.5-1.3l-0.5-0.1
			C150.6,169.6,149,170.4,148.5,170.3L148.5,170.3z"/>
		<path class="st5" d="M153.6,171.5l-22.4,48.1l-0.4,1.4c2.5,1.9,5.6,3.6,8.1,4.6l18.1-53l-0.5-1.3l-0.5-0.2
			C155.3,170.8,154,171.6,153.6,171.5L153.6,171.5z"/>
		<g>
			<defs>
				<path id="SVGID_00000078754402957574503490000001797899559259182010_" d="M105.8,155.8c-2.7,1.5-5.2,4.1-7.4,8.2
					c2.1,2.4,6,4.9,11.6,5.6c13.9,1.6,20.4-4.9,31-4.7c5.2,0.1,10.5,1.1,16.1,4.2l1.5-4.2c-4.1-4.1-12.1-7.1-18-7.4
					c-8.8-0.5-14.5,3-21.2,3C114,160.5,109.8,158.8,105.8,155.8L105.8,155.8z"/>
			</defs>
			<clipPath id="SVGID_00000141422154172291272790000014935694858412227716_">
				<use xlink:href="#SVGID_00000078754402957574503490000001797899559259182010_"  style="overflow:visible;"/>
			</clipPath>
			<g style="clip-path:url(#SVGID_00000141422154172291272790000014935694858412227716_);">
				<defs>
					<rect id="SVGID_00000125603612168488015670000007473476250810134945_" x="98.3" y="155.8" width="60.2" height="15.4"/>
				</defs>
				<clipPath id="SVGID_00000153682709672278987970000013148889933808837008_">
					<use xlink:href="#SVGID_00000125603612168488015670000007473476250810134945_"  style="overflow:visible;"/>
				</clipPath>
				<g style="clip-path:url(#SVGID_00000153682709672278987970000013148889933808837008_);">
					
						<image style="overflow:visible;" width="360" height="94" xlink:href="CC654CCA5A74D48E.png"  transform="matrix(0.1709 0 0 -0.1709 97.8796 171.6382)">
					</image>
				</g>
			</g>
			<g style="clip-path:url(#SVGID_00000141422154172291272790000014935694858412227716_);">
				<defs>
					<rect id="SVGID_00000101801929948509445520000004233847129205620886_" x="98.3" y="155.8" width="60.2" height="15.4"/>
				</defs>
				<clipPath id="SVGID_00000008841129970647065800000000704144540285642914_">
					<use xlink:href="#SVGID_00000101801929948509445520000004233847129205620886_"  style="overflow:visible;"/>
				</clipPath>
				<g style="clip-path:url(#SVGID_00000008841129970647065800000000704144540285642914_);">
					
						<image style="overflow:visible;" width="360" height="94" xlink:href="8AA4193F12E2B5DC.png"  transform="matrix(0.1709 0 0 -0.1709 97.8796 171.6382)">
					</image>
				</g>
			</g>
			<g style="clip-path:url(#SVGID_00000141422154172291272790000014935694858412227716_);">
				<defs>
					<rect id="SVGID_00000005231964331334182860000011875656369449550986_" x="98.3" y="155.8" width="60.2" height="15.4"/>
				</defs>
				<clipPath id="SVGID_00000137841821293281760870000005701936390655024009_">
					<use xlink:href="#SVGID_00000005231964331334182860000011875656369449550986_"  style="overflow:visible;"/>
				</clipPath>
				<g style="clip-path:url(#SVGID_00000137841821293281760870000005701936390655024009_);">
					
						<image style="overflow:visible;" width="360" height="94" xlink:href="8AA4193F12E2B5DD.png"  transform="matrix(0.1709 0 0 -0.1709 97.8796 171.6382)">
					</image>
				</g>
			</g>
		</g>
		<g>
			<defs>
				<path id="SVGID_00000037681009012429481800000006108487920224311189_" d="M111,174.8c-2.5,22.7,6.6,40.3,21.8,50.9
					c-0.5,1.3-1,2.8-1.5,4.1c-20.7-12.3-34-28.2-31.8-59.5C102.5,172.9,106.5,174.5,111,174.8L111,174.8z"/>
			</defs>
			<clipPath id="SVGID_00000116230391884959454520000009510350814937692346_">
				<use xlink:href="#SVGID_00000037681009012429481800000006108487920224311189_"  style="overflow:visible;"/>
			</clipPath>
			<g style="clip-path:url(#SVGID_00000116230391884959454520000009510350814937692346_);">
				<defs>
					<rect id="SVGID_00000023279785118424697520000016549740605380683948_" x="97.4" y="170.3" width="35.5" height="59.5"/>
				</defs>
				<clipPath id="SVGID_00000111874297752009297420000015039104544209527721_">
					<use xlink:href="#SVGID_00000023279785118424697520000016549740605380683948_"  style="overflow:visible;"/>
				</clipPath>
				<g style="clip-path:url(#SVGID_00000111874297752009297420000015039104544209527721_);">
					
						<image style="overflow:visible;" width="216" height="353" xlink:href="8AA4193F12E2B5DA.png"  transform="matrix(0.1709 0 0 -0.1709 96.922 230.2725)">
					</image>
				</g>
			</g>
			<g style="clip-path:url(#SVGID_00000116230391884959454520000009510350814937692346_);">
				<defs>
					<rect id="SVGID_00000147207710906053550600000008118494441458989740_" x="97.4" y="170.3" width="35.5" height="59.5"/>
				</defs>
				<clipPath id="SVGID_00000021100041304867220140000015261585812483711422_">
					<use xlink:href="#SVGID_00000147207710906053550600000008118494441458989740_"  style="overflow:visible;"/>
				</clipPath>
				<g style="clip-path:url(#SVGID_00000021100041304867220140000015261585812483711422_);">
					
						<image style="overflow:visible;" width="216" height="353" xlink:href="8AA4193F12E2B5C5.png"  transform="matrix(0.1709 0 0 -0.1709 96.922 230.2725)">
					</image>
				</g>
			</g>
			<g style="clip-path:url(#SVGID_00000116230391884959454520000009510350814937692346_);">
				<defs>
					<rect id="SVGID_00000021108171088648441430000008573267539999376789_" x="97.4" y="170.3" width="35.5" height="59.5"/>
				</defs>
				<clipPath id="SVGID_00000006709739211641785960000003141689731253217714_">
					<use xlink:href="#SVGID_00000021108171088648441430000008573267539999376789_"  style="overflow:visible;"/>
				</clipPath>
				<g style="clip-path:url(#SVGID_00000006709739211641785960000003141689731253217714_);">
					
						<image style="overflow:visible;" width="216" height="353" xlink:href="8AA4193F12E2B5C4.png"  transform="matrix(0.1709 0 0 -0.1709 96.922 230.2725)">
					</image>
				</g>
			</g>
			<g style="clip-path:url(#SVGID_00000116230391884959454520000009510350814937692346_);">
				<defs>
					<rect id="SVGID_00000138567216700549461760000010802151626090792363_" x="97.4" y="170.3" width="35.5" height="59.5"/>
				</defs>
				<clipPath id="SVGID_00000066478142047918927850000009681498521453488814_">
					<use xlink:href="#SVGID_00000138567216700549461760000010802151626090792363_"  style="overflow:visible;"/>
				</clipPath>
				<g style="clip-path:url(#SVGID_00000066478142047918927850000009681498521453488814_);">
					
						<image style="overflow:visible;" width="216" height="353" xlink:href="8AA4193F12E2B5C3.png"  transform="matrix(0.1709 0 0 -0.1709 96.922 230.2725)">
					</image>
				</g>
			</g>
			<g style="clip-path:url(#SVGID_00000116230391884959454520000009510350814937692346_);">
				<defs>
					<rect id="SVGID_00000134247620086419136830000004612465317390999706_" x="97.4" y="170.3" width="35.5" height="59.5"/>
				</defs>
				<clipPath id="SVGID_00000100382038729741721850000014093205100652747939_">
					<use xlink:href="#SVGID_00000134247620086419136830000004612465317390999706_"  style="overflow:visible;"/>
				</clipPath>
				<g style="clip-path:url(#SVGID_00000100382038729741721850000014093205100652747939_);">
					
						<image style="overflow:visible;" width="216" height="353" xlink:href="8AA4193F12E2B5CA.png"  transform="matrix(0.1709 0 0 -0.1709 96.922 230.2725)">
					</image>
				</g>
			</g>
		</g>
		<polygon class="st5" points="113,175.6 128.8,202.4 130.9,199 116.2,174.5 113.6,174.6 113,175.6 		"/>
		<polygon class="st6" points="113.6,174.6 129.4,201.4 131.5,197.9 117.2,174.3 113.6,174.6 		"/>
		<polygon class="st5" points="121.6,173.2 135.3,196.4 137.4,193.1 124.8,172.1 122.2,172.2 121.6,173.2 		"/>
		<polygon class="st6" points="122.2,172.2 136.6,196.5 138.4,192.7 125.6,171.4 122.2,172.2 		"/>
		<polygon class="st5" points="129.8,170.6 140.7,189 142.6,185.5 132.8,169.4 130.4,169.5 129.8,170.6 		"/>
		<polygon class="st6" points="130.4,169.6 141.2,187.9 143,184.1 133.7,168.8 130.4,169.6 		"/>
		<polygon class="st5" points="138,168.4 145,180.3 147,177.1 141.3,167.6 138.6,167.4 138,168.4 		"/>
		<polygon class="st6" points="138.6,167.4 145.5,179.2 147.4,175.8 142.4,167.5 138.6,167.4 		"/>
		<g>
			<defs>
				<path id="SVGID_00000021815514876705533970000003055924439159305140_" d="M148.8,169l-26.4,40.4c1.3,2.9,3.2,5.6,5.3,7.2
					l24.2-47.1C151,169.2,149.9,169.1,148.8,169L148.8,169z"/>
			</defs>
			<clipPath id="SVGID_00000072963672455484262410000002137111859631540916_">
				<use xlink:href="#SVGID_00000021815514876705533970000003055924439159305140_"  style="overflow:visible;"/>
			</clipPath>
			<g style="clip-path:url(#SVGID_00000072963672455484262410000002137111859631540916_);">
				<defs>
					<rect id="SVGID_00000122697945157464208280000005181875267318305959_" x="122.5" y="169" width="29.6" height="47.6"/>
				</defs>
				<clipPath id="SVGID_00000066491440548728322590000006801696913264182414_">
					<use xlink:href="#SVGID_00000122697945157464208280000005181875267318305959_"  style="overflow:visible;"/>
				</clipPath>
				<g style="clip-path:url(#SVGID_00000066491440548728322590000006801696913264182414_);">
					
						<image style="overflow:visible;" width="180" height="282" xlink:href="8AA4193F12E2B5CD.png"  transform="matrix(0.1709 0 0 -0.1709 122.1024 216.9301)">
					</image>
				</g>
			</g>
			<g style="clip-path:url(#SVGID_00000072963672455484262410000002137111859631540916_);">
				<defs>
					<rect id="SVGID_00000005244754413869089990000006218662828025253011_" x="122.5" y="169" width="29.6" height="47.6"/>
				</defs>
				<clipPath id="SVGID_00000102512722405484515490000012814195233464646556_">
					<use xlink:href="#SVGID_00000005244754413869089990000006218662828025253011_"  style="overflow:visible;"/>
				</clipPath>
				<g style="clip-path:url(#SVGID_00000102512722405484515490000012814195233464646556_);">
					
						<image style="overflow:visible;" width="180" height="282" xlink:href="8AA4193F12E2B5CE.png"  transform="matrix(0.1709 0 0 -0.1709 122.1024 216.9301)">
					</image>
				</g>
			</g>
			<g style="clip-path:url(#SVGID_00000072963672455484262410000002137111859631540916_);">
				<defs>
					<rect id="SVGID_00000027602174054370166070000010872233349653165742_" x="122.5" y="169" width="29.6" height="47.6"/>
				</defs>
				<clipPath id="SVGID_00000002367493902994648590000007417458333395196829_">
					<use xlink:href="#SVGID_00000027602174054370166070000010872233349653165742_"  style="overflow:visible;"/>
				</clipPath>
				<g style="clip-path:url(#SVGID_00000002367493902994648590000007417458333395196829_);">
					
						<image style="overflow:visible;" width="180" height="282" xlink:href="8AA4193F12E2B5CC.png"  transform="matrix(0.1709 0 0 -0.1709 122.1024 216.9301)">
					</image>
				</g>
			</g>
			<g style="clip-path:url(#SVGID_00000072963672455484262410000002137111859631540916_);">
				<defs>
					<rect id="SVGID_00000010300037082391058280000008456529578033436063_" x="122.5" y="169" width="29.6" height="47.6"/>
				</defs>
				<clipPath id="SVGID_00000038385021796747072870000016134502560949962922_">
					<use xlink:href="#SVGID_00000010300037082391058280000008456529578033436063_"  style="overflow:visible;"/>
				</clipPath>
				<g style="clip-path:url(#SVGID_00000038385021796747072870000016134502560949962922_);">
					
						<image style="overflow:visible;" width="180" height="282" xlink:href="8AA4193F12E2B5EE.png"  transform="matrix(0.1709 0 0 -0.1709 122.1024 216.9301)">
					</image>
				</g>
			</g>
			<g style="clip-path:url(#SVGID_00000072963672455484262410000002137111859631540916_);">
				<defs>
					<rect id="SVGID_00000180345670775245644900000001138602644299926706_" x="122.5" y="169" width="29.6" height="47.6"/>
				</defs>
				<clipPath id="SVGID_00000101104718316626492050000009684135180893396412_">
					<use xlink:href="#SVGID_00000180345670775245644900000001138602644299926706_"  style="overflow:visible;"/>
				</clipPath>
				<g style="clip-path:url(#SVGID_00000101104718316626492050000009684135180893396412_);">
					
						<image style="overflow:visible;" width="180" height="282" xlink:href="8AA4193F12E2B5E4.png"  transform="matrix(0.1709 0 0 -0.1709 122.1024 216.9301)">
					</image>
				</g>
			</g>
			<g style="clip-path:url(#SVGID_00000072963672455484262410000002137111859631540916_);">
				<defs>
					<rect id="SVGID_00000013903041643826677870000008402315513630308762_" x="122.5" y="169" width="29.6" height="47.6"/>
				</defs>
				<clipPath id="SVGID_00000035506137792279771030000003331536290171654807_">
					<use xlink:href="#SVGID_00000013903041643826677870000008402315513630308762_"  style="overflow:visible;"/>
				</clipPath>
				<g style="clip-path:url(#SVGID_00000035506137792279771030000003331536290171654807_);">
					
						<image style="overflow:visible;" width="180" height="282" xlink:href="8AA4193F12E2B5E6.png"  transform="matrix(0.1709 0 0 -0.1709 122.1024 216.9301)">
					</image>
				</g>
			</g>
		</g>
		<g>
			<defs>
				<path id="SVGID_00000103240669914179565620000009445481669443937195_" d="M153.9,170.1l-22.8,49.5c2,1.7,4.8,3.3,7.3,4.5
					l18.1-52.8C155.6,170.8,154.6,170.3,153.9,170.1L153.9,170.1z"/>
			</defs>
			<clipPath id="SVGID_00000136409116661926648870000015088956832509774469_">
				<use xlink:href="#SVGID_00000103240669914179565620000009445481669443937195_"  style="overflow:visible;"/>
			</clipPath>
			<g style="clip-path:url(#SVGID_00000136409116661926648870000015088956832509774469_);">
				<defs>
					<rect id="SVGID_00000109747135464364616580000006210460351558202770_" x="131.1" y="170.1" width="25.4" height="53.9"/>
				</defs>
				<clipPath id="SVGID_00000153682262501335584560000012279632967537016979_">
					<use xlink:href="#SVGID_00000109747135464364616580000006210460351558202770_"  style="overflow:visible;"/>
				</clipPath>
				<g style="clip-path:url(#SVGID_00000153682262501335584560000012279632967537016979_);">
					
						<image style="overflow:visible;" width="156" height="320" xlink:href="8AA4193F12E2B5D2.png"  transform="matrix(0.1709 0 0 -0.1709 130.6453 224.4702)">
					</image>
				</g>
			</g>
			<g style="clip-path:url(#SVGID_00000136409116661926648870000015088956832509774469_);">
				<defs>
					<rect id="SVGID_00000013167758435597317810000000668973987768784553_" x="131.1" y="170.1" width="25.4" height="53.9"/>
				</defs>
				<clipPath id="SVGID_00000023992361237422471800000013376280765742872224_">
					<use xlink:href="#SVGID_00000013167758435597317810000000668973987768784553_"  style="overflow:visible;"/>
				</clipPath>
				<g style="clip-path:url(#SVGID_00000023992361237422471800000013376280765742872224_);">
					
						<image style="overflow:visible;" width="156" height="320" xlink:href="8AA4193F12E2B5D3.png"  transform="matrix(0.1709 0 0 -0.1709 130.6453 224.4702)">
					</image>
				</g>
			</g>
			<g style="clip-path:url(#SVGID_00000136409116661926648870000015088956832509774469_);">
				<defs>
					<rect id="SVGID_00000141441441071762345280000015193128687284124830_" x="131.1" y="170.1" width="25.4" height="53.9"/>
				</defs>
				<clipPath id="SVGID_00000116217195486509570670000011046496610666326925_">
					<use xlink:href="#SVGID_00000141441441071762345280000015193128687284124830_"  style="overflow:visible;"/>
				</clipPath>
				<g style="clip-path:url(#SVGID_00000116217195486509570670000011046496610666326925_);">
					
						<image style="overflow:visible;" width="156" height="320" xlink:href="8AA4193F12E2B5D4.png"  transform="matrix(0.1709 0 0 -0.1709 130.6453 224.4702)">
					</image>
				</g>
			</g>
			<g style="clip-path:url(#SVGID_00000136409116661926648870000015088956832509774469_);">
				<defs>
					<rect id="SVGID_00000126306598686202908920000008553057173095049094_" x="131.1" y="170.1" width="25.4" height="53.9"/>
				</defs>
				<clipPath id="SVGID_00000176037807496325517420000009002453377835533996_">
					<use xlink:href="#SVGID_00000126306598686202908920000008553057173095049094_"  style="overflow:visible;"/>
				</clipPath>
				<g style="clip-path:url(#SVGID_00000176037807496325517420000009002453377835533996_);">
					
						<image style="overflow:visible;" width="156" height="320" xlink:href="8AA4193F12E2B5D5.png"  transform="matrix(0.1709 0 0 -0.1709 130.6453 224.4702)">
					</image>
				</g>
			</g>
			<g style="clip-path:url(#SVGID_00000136409116661926648870000015088956832509774469_);">
				<defs>
					<rect id="SVGID_00000061459423666390158190000011955182080665906865_" x="131.1" y="170.1" width="25.4" height="53.9"/>
				</defs>
				<clipPath id="SVGID_00000001633048354583464500000014034790930063019414_">
					<use xlink:href="#SVGID_00000061459423666390158190000011955182080665906865_"  style="overflow:visible;"/>
				</clipPath>
				<g style="clip-path:url(#SVGID_00000001633048354583464500000014034790930063019414_);">
					
						<image style="overflow:visible;" width="156" height="320" xlink:href="8AA4193F12E2B5D6.png"  transform="matrix(0.1709 0 0 -0.1709 130.6453 224.4702)">
					</image>
				</g>
			</g>
			<g style="clip-path:url(#SVGID_00000136409116661926648870000015088956832509774469_);">
				<defs>
					<rect id="SVGID_00000091704717756927376310000004134448944415167656_" x="131.1" y="170.1" width="25.4" height="53.9"/>
				</defs>
				<clipPath id="SVGID_00000139993243746729058820000016990490213103228831_">
					<use xlink:href="#SVGID_00000091704717756927376310000004134448944415167656_"  style="overflow:visible;"/>
				</clipPath>
				<g style="clip-path:url(#SVGID_00000139993243746729058820000016990490213103228831_);">
					
						<image style="overflow:visible;" width="156" height="320" xlink:href="8AA4193F12E2B5D7.png"  transform="matrix(0.1709 0 0 -0.1709 130.6453 224.4702)">
					</image>
				</g>
			</g>
		</g>
		<path class="st0" d="M74.8,96.5v1.4c0.7,0,1.5,0.3,1.9,0.8c0.4,0.7,0.3,2.1,0.3,2.9l0,16.4c0,4.4,0.8,7.2,2.9,9.3
			c2.1,2.2,5.6,3.3,10.2,3.3c4.7,0,8.1-1.2,10.3-3.5c1.9-2,2.9-4.9,2.9-8.5l0-17.5c0-1,0.1-2.1,0.4-2.6c0.3-0.5,0.9-0.7,1.9-0.8
			v-1.4h-10v1.4c0.8,0,1.5,0.2,1.8,0.7c0.4,0.6,0.5,1.9,0.5,2.7v17c0,2.7-0.4,4.9-1.5,6.2c-1.5,1.9-3.6,2.6-5.8,2.7
			c-2.1,0.1-4.5-0.6-5.8-2.1c-1.4-1.5-2.1-4-2.1-6.2l0-17.3c0-1.2,0-2.4,0.4-3c0.3-0.4,0.7-0.8,1.9-0.9v-1.4L74.8,96.5L74.8,96.5z"
			/>
		<path class="st0" d="M140.2,103.8h-1.3c-1.4-4.1-4.9-4.9-8.6-4.9c-8.6,0-12,6.9-12,14c0,6.9,3.2,14.4,11.2,14.4
			c4.7,0,8.1-1.4,9.6-5.9l1.6,0l-0.4,6.6c-2.8,1.4-7.4,2.7-11.4,2.7c-4.2,0-7.7-1-10.2-2.7c-5.2-3.5-6.9-10-6.3-16.4
			c0.5-5.5,2.8-10,6.7-12.7c2.8-1.9,6.5-2.9,11-2.9c2.9,0,6.9,0.9,10,2.1L140.2,103.8L140.2,103.8z"/>
		<path class="st0" d="M162.9,96.9c11.3,0,18.3,4.5,18.5,16c0.2,10-4.9,16.9-18.7,16.9h-13.4v-1.6c1.4-0.1,2.1-0.5,2.6-1.3
			c0.6-0.7,0.8-1.5,0.8-2.9v-21.4c0-1.3-0.2-2.2-0.7-3c-0.5-0.8-1.2-1.1-2.7-1.2v-1.4H162.9L162.9,96.9z M158,102.6v21
			c0,1.4,0,2.3,0.6,2.7c0.6,0.3,0.8,0.4,2.2,0.4c10.1,0,14.5-4,14.5-13.1c0-9.6-3.7-13.8-13.7-13.8c-1.2,0-2.7-0.1-3.2,0.6
			C158,101,158,101.8,158,102.6L158,102.6z"/>
		<path class="st0" d="M95.4,142.4c0-4.9-3.2-7-7.1-7h-7.9v14.3h7.8C92.9,149.7,95.4,147,95.4,142.4L95.4,142.4z M92.7,142.5
			c0,3.1-2.1,4.7-5.3,4.7h-4.1v-9.3h4.2C90.8,137.9,92.7,139.3,92.7,142.5L92.7,142.5z"/>
		<path class="st0" d="M114.4,144.7v-9.3h-2.9v9.4c0,1.8-1.9,2.7-3.8,2.7c-2.1,0-4.4-0.6-4.4-2.9v-9.3h-2.9v9.5
			c0,4.2,3.9,5.2,7.3,5.2C111.5,150.1,114.4,148.3,114.4,144.7L114.4,144.7z"/>
		<path class="st0" d="M132.3,145.5c0-0.7-0.1-1.4-0.4-2c-0.3-0.6-0.9-1.1-1.7-1.4c0.2-0.1,0.3-0.2,0.5-0.3c0.2-0.1,0.4-0.3,0.5-0.5
			c0.2-0.2,0.3-0.5,0.4-0.9c0.1-0.3,0.2-0.8,0.2-1.3c0-0.4-0.1-0.8-0.2-1.2c-0.1-0.4-0.4-0.8-0.7-1.2c-0.3-0.4-0.7-0.7-1.3-0.9
			c-0.5-0.2-1.2-0.3-2.1-0.3h-8.3v14.3h7.5c1.3,0,2.3-0.1,2.9-0.4c0.3-0.1,0.6-0.3,0.8-0.4c0.2-0.1,0.4-0.3,0.6-0.5
			C131.9,147.6,132.3,146.7,132.3,145.5L132.3,145.5z M129.2,139.4c0,0.6-0.2,1-0.6,1.2c-0.4,0.3-0.8,0.4-1.4,0.4h-5v-3.1h5
			c0.7,0,1.2,0.1,1.5,0.3C129,138.4,129.2,138.8,129.2,139.4L129.2,139.4z M129.5,145.2c0,1.4-0.8,2.1-2.2,2.1h-5.2v-3.8h5.3
			c0.5,0,1,0.1,1.4,0.4C129.3,144.1,129.5,144.5,129.5,145.2L129.5,145.2z"/>
		<polygon class="st0" points="149.3,149.7 149.3,147.1 141.3,147.1 141.3,135.4 138.5,135.4 138.5,149.7 149.3,149.7 		"/>
		<text transform="matrix(1 0 0 1 152.6104 149.7061)" class="st0 st11 st12">I</text>
		<polygon class="st0" points="175.4,149.7 175.4,135.4 172.8,135.4 172.8,146.2 172.8,146.2 164.6,135.4 161.2,135.4 161.2,149.7 
			163.9,149.7 163.9,138.8 163.9,138.8 172.1,149.7 175.4,149.7 		"/>
	</g>
</g>
</svg>
