<?xml version="1.0" encoding="utf-8"?>
<!-- Generator: Adobe Illustrator 26.3.1, SVG Export Plug-In . SVG Version: 6.00 Build 0)  -->
<svg version="1.1" id="affiliation" xmlns="http://www.w3.org/2000/svg" xmlns:xlink="http://www.w3.org/1999/xlink" x="0px"
	 y="0px" viewBox="0 0 256 256" style="enable-background:new 0 0 256 256;" xml:space="preserve">
<style type="text/css">
	.st0{fill:#FFFFFF;}
	.st1{display:none;fill:#FFFFFF;}
	.st2{fill:#00548F;}
	.st3{fill:#549DC5;}
</style>
<rect id="black" width="256" height="256"/>
<circle id="background_x5F_circle" class="st0" cx="128" cy="128" r="128"/>
<path id="background_x5F_rectangle" class="st1" d="M206.9,256H49.1C22.1,256,0,233.9,0,206.9V49.1C0,22.1,22.1,0,49.1,0h157.9
	c27,0,49.1,22.1,49.1,49.1v157.9C256,233.9,233.9,256,206.9,256z"/>
<g id="logo">
	<g>
		<path class="st2" d="M27.1,126.8v-21.2h4.2v21.2H27.1z"/>
		<path class="st2" d="M37.4,113.4L37.4,113.4c1.1-1.4,3-2.2,4.7-2.2c1.9,0,3.4,0.8,4.3,2.2c1.2-1.2,3.2-2.1,4.9-2.2
			c3.3,0,5.1,2.1,5.1,5.5v9.9h-3.9v-9.2c0-1.8-0.6-3.6-2.5-3.6c-1.9,0-3.1,1.2-3.1,3.8v9H43v-9.2c0-2.1-0.9-3.6-2.6-3.6
			c-1.9,0-3,1.3-3,3.9v8.9h-3.9v-15.2h3.9C37.4,111.6,37.4,113.4,37.4,113.4z"/>
		<path class="st2" d="M66.3,113.7c2.2,0,3.4,2.6,3.4,5.2c0,2.7-0.9,5.8-3.5,5.8c-2.1,0-3.6-2.2-3.6-5.3
			C62.5,115.9,63.8,113.7,66.3,113.7z M62.5,111.6h-3.9v22.7h3.9v-9.5c1.1,1.3,2.6,2.2,4.4,2.2c4.2,0,6.9-4.3,6.9-8.3
			c0-3.3-1.9-7.6-6.5-7.6c-1.8,0-3.7,0.9-4.7,2.5h-0.1C62.5,113.7,62.5,111.6,62.5,111.6z"/>
		<path class="st2" d="M79.5,117.4c0-2,1-3.9,3.2-3.9c1.9,0,2.7,1.6,2.6,3.9H79.5z M89,119.6c0.3-4.5-1.6-8.3-6.2-8.3
			c-4.2,0-7.5,3-7.5,7.6c0,5,3.3,8.2,7.8,8.2c1.7,0,3.8-0.5,5.8-1.7l-1.1-2.1c-1,0.7-2.5,1.2-4,1.2c-2.4,0-4.4-2.1-4.3-5L89,119.6
			L89,119.6z"/>
		<path class="st2" d="M94.7,114.3L94.7,114.3l0.9-1.2c0.5-0.6,1.3-1.8,2.5-1.8c0.9,0,1.8,0.5,2.7,1.4l-1.5,2.8
			c-0.6-0.3-1.1-0.5-1.9-0.5c-1.4,0-2.7,1.1-2.7,4.4v7.5h-3.9v-15.2h3.9L94.7,114.3L94.7,114.3z"/>
		<path class="st2" d="M106,111.6v15.2H102v-15.2H106z M101.7,107.1c0-1.2,0.9-2.3,2.3-2.3c1.4,0,2.4,1.2,2.4,2.3
			c0,1.3-0.9,2.5-2.4,2.5C102.6,109.6,101.7,108.4,101.7,107.1z"/>
		<path class="st2" d="M116.6,118c0.3,4.5-1.7,6.5-3.3,6.5c-0.9,0-1.8-0.9-1.8-2.2c0-1.7,1-2.9,2.9-3.5L116.6,118z M116.6,124.6
			c0,0.8,0.1,1.7,0.4,2.2h4.2c-0.5-1.1-0.6-2.5-0.6-3.7v-6.2c0-4.7-3.3-5.6-6-5.6c-2,0-3.8,0.5-5.7,2.1l1.3,1.9
			c1-0.9,2.2-1.5,3.9-1.5c1.3,0,2.5,0.9,2.7,2.3l-3.5,1.1c-3.4,1-5.5,2.6-5.5,5.5c0,2.8,1.9,4.6,4.2,4.6c1.4,0,2.7-0.9,3.8-1.8
			L116.6,124.6z"/>
		<path class="st2" d="M122.9,126.8v-22.3h3.9v22.3H122.9z"/>
		<path class="st2" d="M152.8,109.4c-1-0.5-2.7-1.2-4.3-1.2c-4.2,0-7.3,3.1-7.3,7.9c0,5,3.4,8,7.4,8c1.6,0,3.1-0.5,4.2-1.1l1.2,2.6
			c-1.3,0.8-3.5,1.5-5.5,1.5c-7.2,0-11.7-4.8-11.7-11.1c0-5.8,4.5-10.9,11.7-10.9c2.2,0,4.2,0.8,5.6,1.6L152.8,109.4z"/>
		<path class="st2" d="M161.7,124.9c-2.8,0-3.6-3.2-3.6-5.9c0-2.5,0.9-5.5,3.6-5.5c2.7,0,3.6,3,3.6,5.5
			C165.3,121.7,164.6,124.9,161.7,124.9z M161.7,127.2c4.6,0,7.8-3.4,7.8-8.1c0-4.9-3.8-7.8-7.8-7.8c-4,0-7.7,2.8-7.7,7.8
			C154,123.7,157.1,127.2,161.7,127.2z"/>
		<path class="st2" d="M171.1,126.8v-22.3h3.9v22.3H171.1z"/>
		<path class="st2" d="M177.5,126.8v-22.3h3.9v22.3H177.5z"/>
		<path class="st2" d="M187.3,117.4c0-2,1-3.9,3.2-3.9c1.9,0,2.7,1.6,2.6,3.9H187.3z M196.8,119.6c0.3-4.5-1.6-8.3-6.2-8.3
			c-4.2,0-7.5,3-7.5,7.6c0,5,3.3,8.2,7.8,8.2c1.7,0,3.8-0.5,5.8-1.7l-1.1-2.1c-1,0.7-2.5,1.2-4,1.2c-2.4,0-4.4-2.1-4.3-5
			L196.8,119.6L196.8,119.6z"/>
		<path class="st2" d="M219.4,117.4c0-2,1-3.9,3.2-3.9c1.9,0,2.7,1.6,2.6,3.9H219.4z M228.9,119.6c0.3-4.5-1.6-8.3-6.2-8.3
			c-4.2,0-7.5,3-7.5,7.6c0,5,3.3,8.2,7.8,8.2c1.7,0,3.8-0.5,5.8-1.7l-1.1-2.1c-1,0.7-2.5,1.2-4,1.2c-2.4,0-4.4-2.1-4.3-5
			L228.9,119.6L228.9,119.6z"/>
		<path class="st2" d="M206,113.7c2.4,0,3.6,2.5,3.6,5.1c0,3-1.1,5.9-3.7,5.9c-2.3,0-3.4-2.8-3.4-5.8
			C202.4,116,203.5,113.7,206,113.7z M213.5,111.6h-3.9v1.8h-0.1c-0.8-1.4-2.6-2.2-4.4-2.2c-4,0-6.8,3.8-6.8,7.8
			c0,4.8,2.6,8.1,6.5,8.1c2.2,0,3.8-1.3,4.7-2.5h0.1v2c0,3.5-2,5.2-4.6,5.2c-2,0-3.7-0.4-5.1-1.3l-0.8,2.5c1.7,0.9,4,1.4,6.2,1.4
			c4.4,0,8.2-2.2,8.2-8.9V111.6z"/>
		<path class="st3" d="M27.1,135.9h4.2v18.4h8.8v2.8h-13V135.9z"/>
		<path class="st3" d="M63.1,143.7c1.4-1.5,3.4-2.2,5.3-2.2c3.6,0,5.4,1.9,5.4,5.8v9.8h-3.9v-9.3c0-2.1-1-3.5-3.1-3.5
			c-2,0-3.6,1.3-3.6,3.8v9h-3.9V142h3.9L63.1,143.7L63.1,143.7z"/>
		<path class="st3" d="M84,144c2.5,0,3.8,2.5,3.8,5.1c0,3-1.2,5.9-3.9,5.9c-2.4,0-3.6-2.8-3.6-5.8C80.3,146.3,81.3,144,84,144z
			 M87.8,157.1h3.9v-22.3h-3.9v8.9h-0.1c-0.9-1.3-2.7-2.1-4.7-2.1c-4.2,0-7.1,3.8-7.1,7.8c0,4.8,2.7,8.1,6.8,8.1
			c2.4,0,4-1.3,5.1-2.5h0.1V157.1z"/>
		<path class="st3" d="M102,155.2c-2.9,0-3.8-3.2-3.8-5.9c0-2.5,0.9-5.5,3.8-5.5c2.9,0,3.8,3,3.8,5.5C105.7,152,105,155.2,102,155.2
			z M102,157.5c4.9,0,8.2-3.4,8.2-8.1c0-4.9-4-7.8-8.2-7.8c-4.2,0-8.1,2.9-8.1,7.8C93.8,154,97.1,157.5,102,157.5z"/>
		<path class="st3" d="M116.2,143.7c1.4-1.5,3.4-2.2,5.3-2.2c3.6,0,5.4,1.9,5.4,5.8v9.8h-3.9v-9.3c0-2.1-1-3.5-3.1-3.5
			c-2,0-3.6,1.3-3.6,3.8v9h-3.9V142h3.9L116.2,143.7L116.2,143.7z"/>
		<path class="st3" d="M48.8,155.2c-3,0-3.8-3.2-3.8-5.9c0-2.5,0.9-5.5,3.8-5.5c2.9,0,3.8,3,3.8,5.5C52.6,152,51.8,155.2,48.8,155.2
			z M48.8,157.5c4.9,0,8.2-3.4,8.2-8.1c0-4.9-4-7.8-8.2-7.8c-4.2,0-8.1,2.9-8.1,7.8C40.7,154,44,157.5,48.8,157.5z"/>
	</g>
</g>
</svg>
