<?xml version="1.0" encoding="utf-8"?>
<!-- Generator: Adobe Illustrator 26.3.1, SVG Export Plug-In . SVG Version: 6.00 Build 0)  -->
<svg version="1.1" id="affiliation" xmlns="http://www.w3.org/2000/svg" xmlns:xlink="http://www.w3.org/1999/xlink" x="0px"
	 y="0px" viewBox="0 0 256 256" style="enable-background:new 0 0 256 256;" xml:space="preserve">
<style type="text/css">
	.st0{fill:#FFFFFF;}
	.st1{display:none;fill:#FFFFFF;}
	.st2{fill:#231F20;}
	.st3{fill:#FCD213;}
	.st4{fill:#ED0F93;}
	.st5{fill:#87D5B6;}
	.st6{fill:#FEE884;}
	.st7{fill:#287AC8;}
	.st8{fill:#EE293D;}
</style>
<rect id="black" width="256" height="256"/>
<circle id="background_x5F_circle" class="st0" cx="128" cy="128" r="128"/>
<path id="background_x5F_rectangle" class="st1" d="M206.9,256H49.1C22.1,256,0,233.9,0,206.9V49.1C0,22.1,22.1,0,49.1,0h157.9
	c27,0,49.1,22.1,49.1,49.1v157.9C256,233.9,233.9,256,206.9,256z"/>
<g id="logo">
	<g>
		<path class="st2" d="M39.6,107.1c1.8,0.4,2.4,0.2,2.7-1.1l0.4,0.1l-1.2,5.3l-0.4-0.1c0.2-1.1,0.1-1.8-2-2.2l-11.5-2.6l-0.5,2.2
			c-0.5,2-0.1,3.1,1.5,3.6l-0.1,0.4l-3.4-0.8l0.1-0.4c0.2-0.2,0.4-0.4,0.6-0.7c0.2-0.3,0.3-0.8,0.5-1.4l1.8-7.9c0.3-1.3,0.3-2,0-2.5
			l0.1-0.5l3.4,0.8l-0.1,0.3c-1.3,0-2.3,0.3-2.9,2.7l-0.5,2.3 M40.4,90l4,2c1.7,0.8,2.4,0.7,3-0.5l0.4,0.2l-2.4,5L45,96.4
			c0.5-1.1,0.4-1.7-1.4-2.6l-8.6-4.2c-1.6-0.8-2.4-0.7-3,0.5l-0.4-0.2l2.4-5l0.4,0.2c-0.5,1.1-0.3,1.8,1.4,2.7l3.9,1.9l3.7-7.5
			l-3.9-1.9c-1.7-0.8-2.4-0.7-3,0.5l-0.4-0.2l2.4-5l0.4,0.2c-0.6,1.2-0.2,1.8,1.4,2.6l8.6,4.2c1.6,0.8,2.4,0.7,3-0.5l0.4,0.2l-2.4,5
			L49.6,87c0.5-1.1,0.4-1.7-1.5-2.6l-4-2 M58.7,64.6l-0.3,0.4c-1.2-0.6-1.5-0.5-2.5,0.7l-2.4,2.9l4.2,3.5c0.6,0.5,1,0.5,1.5-0.2
			l1.7-2.1c1.4-1.7,1.7-2.2,0.8-4.2l0.3-0.4l1.8,2.4l-7.1,8.5l-0.4-0.3c0.8-0.9,0.8-1.6-0.7-2.9l-7.4-6.2c-1.5-1.2-2.2-1.2-3-0.2
			l-0.4-0.3l7.1-8.5l2,1.7l-0.2,0.2c-1.5-0.8-2-0.5-3.1,0.8l-2.8,3.4l5.1,4.2l2.8-3.3c0.7-0.8,0.8-1.2-0.1-2.2l0.3-0.4 M87.6,47.2
			c-0.4,2.2-1.5,3.7-3.2,4.7c-3.3,1.8-5.9,0.3-7.2-2l-3.7-6.6c-1-1.8-1.7-1.9-2.7-1.3l-0.2-0.4l4.9-2.7l0.2,0.4
			c-1.1,0.6-1.3,1.3-0.4,3L79,49c1.2,2.1,3.1,2.9,5.4,1.6c1.6-0.9,2.5-2.4,2.6-4.4l-4.6-8.1c-0.9-1.5-1.5-1.9-2.6-1.3l-0.2-0.4
			l4.7-2.7l0.2,0.4c-1.1,0.6-1.2,1.4-0.3,3l4.7,8.4c1,1.8,1.7,1.9,2.7,1.3l0.2,0.4l-3.3,1.9 M112,41.1l-0.4,0.1L97.7,30.9l-0.1,0
			l2.7,10.5c0.4,1.5,1.1,1.9,2.5,1.6l0.1,0.4l-4.5,1.2l-0.1-0.4c1.2-0.3,1.8-0.9,1.2-3l-2.2-8.7c-0.4-1.7-1.1-2.5-2.9-2.2l-0.1-0.4
			l3.8-1l12.3,9.2l0,0l-2.2-8.7c-0.5-2-1.1-2.3-2.5-2l-0.1-0.4l4.5-1.2l0.1,0.4c-1.5,0.4-1.8,1.1-1.3,2.8 M124.6,37
			c0.1,1.9,0.6,2.4,1.9,2.4l0,0.5l-5.5,0.3l0-0.5c1.3-0.1,1.7-0.6,1.6-2.5l-0.5-9.6c-0.1-1.9-0.5-2.4-1.9-2.4l0-0.5l5.5-0.3l0,0.5
			c-1.3,0.1-1.7,0.7-1.6,2.5 M140.2,40.9l-0.4-0.1l-3.1-13c-0.5-2-0.8-2.7-2.2-3l0.1-0.4l5.6,0.7l-0.1,0.5c-1.1-0.1-1.7,0.4-1.4,1.6
			l2.4,10.4l4.8-9.1c0.7-1.2,0.5-2.1-0.9-2.3l0.1-0.5l4.5,0.6l-0.1,0.5c-1.1-0.2-2.1,0.6-3.2,2.6 M164.5,41.2l-0.4-0.2
			c0.1-1.4,0-1.6-1.5-2.1l-3.6-1.3l-1.9,5.2c-0.3,0.7-0.1,1.1,0.7,1.4l2.5,0.9c2.1,0.8,2.7,0.9,4.2-0.7l0.4,0.2l-1.6,2.5l-10.4-3.8
			l0.2-0.4c1.1,0.4,1.8,0.2,2.5-1.7l3.3-9.1c0.7-1.8,0.4-2.4-0.8-2.9l0.2-0.4l10.4,3.8l-0.9,2.4l-0.3-0.1c0.3-1.7-0.2-2-1.8-2.6
			l-4.2-1.5l-2.3,6.2l4,1.5c1,0.4,1.4,0.3,2.1-0.8l0.4,0.2 M182.1,40.1l1.3,0.9c2,1.3,2.5,3.4,1.3,5.1c-1,1.5-2.8,2.4-5,1l-1.6-1
			L182.1,40.1L182.1,40.1z M177.8,46.5l1,0.7c2.4,1.6,1,5,1.5,9.5l2.6,1.7l0.2-0.4c-2-1.6,0-6.3-1.4-9.5c2.3,0.7,3.8,0,4.7-1.4
			c1.1-1.7,0.8-4.3-2.1-6.2l-5.3-3.5l-0.3,0.4c1,0.7,1.3,1.3,0.1,3l-5.3,8.1c-1.1,1.7-1.8,1.7-2.8,1.1l-0.3,0.4l4.6,3.1l0.3-0.4
			c-1.1-0.7-1.2-1.4-0.1-3 M202.4,60.5l-0.3-0.3c1.5-1.8,1-3.6-0.1-4.7c-1.1-1.2-2.6-1.4-3.6-0.4c-2,2,0.2,5.3,0.2,8.5
			c0,1.5-0.5,2.4-1.2,3.1c-1.7,1.7-4.5,1.7-6.2,0c-1.2-1.2-1.5-2.7-1.9-3.1c-0.2-0.2-0.5-0.2-0.8,0l-0.3-0.3l3-2.9l0.3,0.3
			c-2,2-1,4.4-0.1,5.3c1.3,1.3,2.9,1.5,4.1,0.3c1.9-1.9-0.1-5.7-0.1-8.1c0-1.3,0.5-2.4,1.4-3.2c1.7-1.7,4-1.6,5.8,0.2
			c1.2,1.2,1.3,2.1,1.7,2.6c0.2,0.2,0.2,0.2,0.6,0L205,58 M203.7,77c-1.6,1.1-1.8,1.8-1,2.8l-0.4,0.3l-3.2-4.6l0.4-0.3
			c0.7,1,1.4,1.2,3,0l7.9-5.5c1.6-1.1,1.8-1.8,1-2.8l0.4-0.3l3.2,4.6l-0.4,0.3c-0.7-1.1-1.5-1.1-3,0 M211.4,91
			c-1.7,0.8-2,1.3-1.5,2.5l-0.4,0.2l-2.3-5l0.4-0.2c0.5,1,1,1.5,3,0.6l10.7-4.9l-0.9-2c-0.9-1.9-1.8-2.5-3.3-1.9l-0.2-0.4l3.2-1.5
			l0.2,0.4c-0.1,0.3-0.1,0.5,0,0.9c0.1,0.4,0.2,0.8,0.5,1.4l3.4,7.3c0.6,1.2,1,1.7,1.5,2l0.2,0.4l-3.2,1.5l-0.1-0.3
			c1.1-0.8,1.7-1.7,0.7-3.9l-1-2.1 M217.5,109.8c-1.8,0.4-2.3,0.9-2,2.2l-0.4,0.1l-1.2-5.5l0.4-0.1c0.2,1.2,0.6,1.8,2.8,1.3l4.7-1
			l4.3-4.3c1.4-1.4,1.7-1.9,1.5-3.1l0.4-0.1l1.3,5.9l-0.4,0.1c-0.4-1.7-1-1.7-1.8-0.9l-3.9,4l4.3,1.6c1.3,0.5,2.5,0.3,2.2-1l0.4-0.1
			l0.9,4.1l-0.4,0.1c-0.3-1.1-0.7-1.5-2.2-2l-6.1-2.3 M34.5,148.9c4.3-1.2,7.8,0.2,8.8,3.7c0.9,3.1-1,6.3-5.7,7.6
			c-3.6,1-7.7,0.1-8.8-3.6C27.9,153.3,30.2,150.2,34.5,148.9 M33.8,146.6c-4.4,1.3-6.8,5.7-5.6,10.1c1.3,4.4,5.7,6.9,10.1,5.7
			c4.3-1.2,6.7-5.7,5.4-10.1C42.5,147.8,38.2,145.4,33.8,146.6 M40,176.6c-1.6,0.9-1.9,1.6-1.3,2.7l-0.4,0.2l-2.8-4.8l0.4-0.2
			c0.6,1.1,1.3,1.3,3,0.3l8.3-4.8c1.7-1,1.9-1.6,1.3-2.7l0.4-0.2l5.2,9.2l-2.4,1.4l-0.2-0.3c1.4-1.3,1.3-1.7,0.5-3.2l-1.9-3.4
			l-5.6,3.2l2,3.5c0.6,1,1.3,1.1,2.4,0.6l0.2,0.4l-3.8,2.2l-0.2-0.4c0.9-0.6,1.2-1.4,0.7-2.3l-2-3.5 M69.6,206.3l-0.4-0.3
			c0.6-1.2,0.5-1.5-0.7-2.5l-3-2.4l-3.5,4.3c-0.5,0.6-0.5,1,0.2,1.5l2.1,1.7c1.7,1.4,2.3,1.7,4.2,0.7l0.4,0.3l-2.4,1.8l-8.6-7.1
			l0.3-0.4c0.9,0.8,1.6,0.8,2.9-0.8l6.1-7.5c1.2-1.5,1.2-2.2,0.2-3l0.3-0.4l8.6,7l-1.6,2l-0.2-0.2c0.8-1.5,0.5-2-0.8-3.1l-3.4-2.8
			l-4.2,5.1l3.3,2.7c0.8,0.7,1.2,0.8,2.2-0.1l0.4,0.3 M87.2,206.8l2.7,1.2c4.4,2,4.6,6.2,3,9.5c-1.8,3.8-4.9,5.2-8.4,3.7l-1.4-0.7
			c-1.3-0.6-1.6-1.2-0.6-3.4L87.2,206.8z M80.3,216.8c-0.8,1.7-1.5,2-2.6,1.5l-0.2,0.4l6.7,3.1c5.5,2.5,9.2,0.3,10.8-3.2
			c1.7-3.6,0.8-8.4-4.6-10.9l-6.5-3l-0.2,0.4c1.2,0.5,1.3,1.3,0.6,3 M107.5,226.5c-0.4,1.8-0.1,2.5,1.2,2.8l-0.1,0.4l-5.4-1.2
			l0.1-0.4c1.2,0.3,1.8-0.1,2.2-2l2.1-9.4c0.4-1.9,0.1-2.5-1.2-2.8l0.1-0.5l5.4,1.2l-0.1,0.4c-1.3-0.3-1.8,0.2-2.2,2 M135.4,231.5
			l-0.5,0l-11-13.3l-0.1,0l0.1,10.8c0,1.6,0.6,2.1,2,2.1l0,0.5l-4.7,0l0-0.5c1.3,0,1.9-0.4,1.9-2.7l-0.1-9c0-1.7-0.5-2.7-2.3-2.8
			l0-0.5l4,0l9.8,11.9l0.1,0l-0.1-9c0-2-0.6-2.5-1.9-2.5v-0.5l4.7,0l0,0.5c-1.5,0-2,0.6-2,2.4 M151.5,220.5l-1.7-6.3l1.5-0.4
			c2.4-0.7,3.9,0.3,4.4,2.2c0.5,1.9-0.5,3.5-2.7,4.1L151.5,220.5z M150.9,226.2c0.5,1.8,0.2,2.5-1,2.8l0.1,0.4l6.9-1.9
			c2.8-0.8,4.4-2.7,3.8-4.9c-0.5-2-2.6-3.3-5-3.1l0,0c1.9-1.2,2.5-2.6,2.1-4.2c-0.5-1.9-2.6-3.2-6.2-2.2l-5.6,1.5l0.1,0.4
			c1.2-0.3,1.8,0,2.3,1.9L150.9,226.2L150.9,226.2z M151.7,221l1.4-0.4c2.6-0.7,4.7,0.3,5.3,2.5c0.6,2.2-0.6,3.6-2.1,4l-1.2,0.3
			c-1.2,0.3-1.7-0.1-2.2-2.1 M182.9,213.6c-0.4,2.2-1.4,3.7-3.2,4.8c-3.2,1.9-5.9,0.4-7.2-1.9l-3.8-6.6c-1-1.8-1.7-1.8-2.7-1.2
			l-0.2-0.4l4.8-2.8l0.2,0.4c-1.1,0.6-1.3,1.3-0.3,3l3.9,6.7c1.2,2,3.2,2.8,5.4,1.5c1.5-0.9,2.4-2.5,2.5-4.4l-4.7-8
			c-0.9-1.5-1.6-1.9-2.7-1.3l-0.2-0.4l4.7-2.7l0.2,0.4c-1.1,0.7-1.2,1.4-0.3,3l4.9,8.3c1,1.7,1.7,1.8,2.7,1.2l0.2,0.4l-3.3,1.9
			 M189.1,192.7l1.1-1.1c1.7-1.7,3.8-1.8,5.2-0.3c1.3,1.2,1.8,3.2,0,5.1l-1.3,1.3L189.1,192.7z M194.6,198.1l0.9-0.9
			c2-2,5.1,0,9.7,0.4l2.2-2.2L207,195c-1.9,1.7-6.2-1.2-9.6-0.4c1.1-2.1,0.7-3.7-0.5-4.9c-1.5-1.4-4-1.6-6.5,0.8l-4.4,4.5l0.3,0.3
			c0.9-0.9,1.5-1,2.9,0.4l6.9,6.8c1.5,1.5,1.3,2.1,0.5,3l0.3,0.3l3.9-3.9l-0.3-0.3c-0.9,0.9-1.6,0.8-3-0.5 M219.9,176.6
			c-0.2,0.9-1.6,3.3-1.9,3.9c-3.5,5.8-8.2,5.6-11.2,3.7c-4.7-2.8-5.1-8-3.2-11.2c1.1-1.9,2.2-2.2,2.8-3.2c0.2-0.4,0.2-0.7,0-1
			l0.3-0.4l3.9,2.4l-0.2,0.4c-2.7-1.2-5.1,0.4-6.2,2.2c-1.6,2.7-0.5,6.2,3.1,8.4c3.9,2.4,8.1,1.8,10-1.3c0.6-0.9,1.1-2.3-0.1-3.1
			l-1.4-0.9c-1.6-1-2.4-1-3.1,0.1l-0.3,0.5l-0.4-0.2l3.3-5.3l0.4,0.2c-0.8,1.3-0.4,2,0.8,2.7 M219.5,158.8l4.3,1.2
			c1.8,0.5,2.5,0.2,2.8-1l0.4,0.1l-1.5,5.4l-0.4-0.1c0.3-1.1,0.1-1.8-1.9-2.4l-9.2-2.7c-1.8-0.5-2.5-0.3-2.8,1l-0.4-0.1l1.5-5.4
			l0.4,0.1c-0.3,1.2,0,1.8,1.9,2.4l4.2,1.2l2.3-8.1l-4.2-1.2c-1.8-0.5-2.5-0.3-2.8,1l-0.4-0.1l1.5-5.3l0.4,0.1
			c-0.4,1.3,0.1,1.9,1.9,2.4l9.2,2.7c1.8,0.5,2.5,0.3,2.8-1l0.4,0.1l-1.5,5.3l-0.4-0.1c0.3-1.2,0.1-1.8-1.9-2.3l-4.3-1.2
			 M33.1,129.4c0,0.8-0.6,1.4-1.4,1.4c-0.7,0-1.4-0.6-1.3-1.4c0-0.8,0.6-1.4,1.4-1.4C32.5,128,33.1,128.6,33.1,129.4 M226,129.4
			c0,0.7-0.6,1.4-1.4,1.3c-0.7,0-1.4-0.6-1.4-1.4c0-0.7,0.6-1.4,1.4-1.3C225.4,128.1,226,128.7,226,129.4 M167.7,199.4
			c1.1-0.6,2.1-1.3,3.1-2c0.9-0.5,1.8-1.1,2.7-1.6c0.8-0.6,1.5-1.3,2.3-1.8c0.9-0.6,1.7-1.2,2.6-1.9c0.2-0.2,0.4-0.3,0.5-0.5
			c0.2-0.1,0.4-0.2,0.6-0.3c0.7-0.6,1.5-1.2,2.2-1.8c0.5-0.5,1-1.1,1.5-1.6c0.6-0.5,1.2-1,1.8-1.5c0.2-0.2,0.4-0.5,0.6-0.7
			c0.5-0.5,1-0.9,1.4-1.4c0.3-0.4,0.6-0.7,0.9-1.1c1.1-1,2-2.1,2.9-3.3c0.7-0.9,1.5-1.7,2.2-2.6c0.5-0.7,1-1.3,1.4-2
			c0.2-0.3,0.5-0.5,0.8-0.8c0.8-1.1,1.6-2.2,2.3-3.3c0.2-0.4,0.4-0.8,0.6-1.1c0.2-0.2,0.3-0.5,0.5-0.7c0.2-0.3,0.3-0.6,0.4-0.9
			c0.5-0.9,1-1.8,1.5-2.7c0.4-0.7,0.8-1.4,1.2-2.1c0.3-0.7,0.6-1.5,0.9-2.2c0.4-0.7,0.7-1.5,1.1-2.2c1.2-3.2,2.4-6.4,3.3-9.8
			c0.1-0.4,0.1-0.8,0.2-1.2c0.3-1.2,0.6-2.5,0.8-3.7c0.1-0.6,0.1-1.3,0.2-1.9c0.2-1,0.4-2.2,0.5-3.2c0.1-0.8,0.1-1.7,0.2-2.6
			c0.1-0.3,0.1-0.7,0.2-1c0-0.7,0.1-1.4,0.1-2.1c0-0.4,0.1-0.7,0.2-1.1c0-0.5,0-1,0-1.5c0.2-3.2,0.3-6.7,0.1-9.9
			c-0.1-1.7-0.5-3.3-0.7-4.9c-0.2-1.7-0.3-3.4-0.7-5.1c-0.9-4.5-2.2-8.9-3.8-13.1c-0.2-0.6-0.6-1.2-0.8-1.8
			c-0.5-1.3-1.1-2.4-1.7-3.6c-0.2-0.3-0.4-0.7-0.6-1c-0.5-1-0.8-2.2-1.4-3.2c-0.3-0.6-0.7-1.2-1.1-1.8c-0.3-0.7-0.6-1.3-0.9-2
			c-1.1-1.8-2.3-3.5-3.5-5.2c-0.4-0.5-0.9-1-1.3-1.6c-0.5-0.6-1-1.3-1.5-1.9c-0.5-0.5-1-0.9-1.4-1.4c-0.2-0.3-0.4-0.6-0.6-0.9
			c-0.4-0.4-0.7-0.8-1.1-1.2c-0.2-0.2-0.5-0.4-0.7-0.6c-0.6-0.6-1.1-1.3-1.7-1.9c-0.5-0.5-1-1-1.5-1.5c-0.5-0.5-1-1-1.5-1.5
			c-0.7-0.5-1.4-1.1-2.1-1.6c-0.7-0.6-1.4-1.2-2.1-1.9c-0.5-0.4-1-0.6-1.5-0.9c-0.6-0.4-1.2-0.9-1.8-1.3c-0.5-0.3-0.8-0.7-1.3-1
			c-0.3-0.2-0.7-0.4-1-0.6c-0.4-0.3-0.9-0.6-1.3-0.9c-1.5-0.9-3-1.6-4.5-2.3c-0.5-0.3-1.1-0.7-1.6-1c-1-0.5-1.9-1-2.9-1.4
			c-0.8-0.4-1.6-0.6-2.4-1c-0.4-0.2-0.8-0.4-1.2-0.6c-0.3-0.1-0.6-0.2-0.9-0.3c-0.5-0.2-1-0.4-1.4-0.6c-1.5-0.5-3.1-0.9-4.6-1.4
			c-0.7-0.2-1.5-0.5-2.2-0.7c-1.6-0.5-3.2-0.7-4.9-1.1c-1.1-0.2-2.2-0.6-3.3-0.7c-0.7-0.1-1.4-0.2-2.1-0.3c-1.2-0.2-2.5-0.5-3.7-0.6
			c-0.5,0-0.9,0-1.4,0c-0.3,0-0.7-0.1-1-0.1l-1.9,0c-1.4-0.1-3-0.2-4.5-0.2c-0.6,0.2-1.4,0.1-2.1,0.1c-0.8,0-1.6,0-2.4,0
			c-0.2,0-0.4,0.1-0.6,0.1c-0.5,0-1.1,0-1.6,0c-0.3,0.1-0.6,0.1-0.9,0.2c-0.3,0-0.6,0.1-0.9,0.1c-0.3,0-0.5,0-0.8,0.1
			c-0.2,0-0.3,0-0.5,0.1c-0.4,0-0.7,0-1,0.1c-0.8,0-1.9,0.1-2.5,0.4c-0.2,0-0.3,0-0.5,0.1c-0.5,0-1.1,0.1-1.5,0.3
			c-1.3,0-2.3,0.5-3.4,0.8c-0.6,0.1-1.3,0.2-1.8,0.5c-0.5,0-1,0.1-1.4,0.3c-0.8,0-1.5,0.5-2.2,0.7c-0.4,0.2-0.9,0.2-1.3,0.4
			c-0.8,0-1.5,0.5-2.2,0.7c-0.5,0.2-0.9,0.4-1.4,0.6c-2.4,1-4.8,2.2-7.2,3.4c-0.4,0.3-0.8,0.5-1.2,0.8c-2.8,1.4-5.6,3-8.1,5
			l-2.2,1.6c-0.4,0.3-0.8,0.7-1.2,1c-0.7,0.5-1.5,1-2.2,1.6c-1.4,1.2-2.8,2.5-4.1,3.8c-0.8,0.7-1.6,1.5-2.4,2.2
			c-0.3,0.3-0.6,0.6-0.8,1l-1.1,1c-0.6,0.6-1,1.3-1.5,1.9c-0.5,0.5-1,1-1.4,1.5c-0.2,0.3-0.4,0.5-0.6,0.8c-0.9,1-1.7,1.9-2.4,2.9
			c-0.5,0.8-1,1.6-1.5,2.4c-0.7,0.9-1.5,2.1-2.1,3.2c-0.2,0.3-0.3,0.7-0.5,1c-0.5,0.8-1,1.6-1.5,2.4c-0.4,0.8-0.7,1.8-1.1,2.6
			c-0.2,0.3-0.4,0.7-0.6,1c-0.4,0.8-0.8,1.5-1.2,2.3c-0.2,0.5-0.4,1-0.6,1.5c-0.2,0.5-0.5,1-0.7,1.5c-0.2,0.6-0.4,1.2-0.6,1.7
			c-0.2,0.6-0.5,1.3-0.7,1.9c-1.2,3.9-2.2,7.8-3.1,12c-0.1,0.8-0.1,1.6-0.2,2.3c-0.1,0.9-0.4,1.9-0.5,2.8c-0.1,0.7,0,1.5-0.2,2.1
			c0,0.5-0.1,1.1-0.2,1.6c-0.1,3.3,0,6.5,0.1,9.8c0,1.6,0.4,3.1,0.5,4.6c0,0.7,0.1,1.3,0.1,2c0.2,2.1,0.6,4.2,0.9,6.3
			c0.2,0.5,0.3,1.1,0.4,1.6c0.3,1.6,0.7,3.2,1.2,4.8c0.1,0.4,0.3,0.7,0.4,1.1c0.1,0.4,0.2,0.7,0.3,1.1c0.6,1.7,1.2,3.5,1.8,5.2
			c0.3,0.6,0.6,1.3,0.9,2c0.2,0.4,0.3,0.9,0.5,1.3c0.5,1.1,1.2,2.1,1.7,3.2c0.4,0.9,1,1.7,1.4,2.6c0.1,0.3,0.3,0.6,0.4,0.9
			c0.2,0.2,0.3,0.4,0.5,0.6c0.2,0.4,0.3,0.7,0.5,1.1c0.4,0.7,0.9,1.4,1.4,2.1c0.3,0.4,0.6,0.9,0.9,1.3c0.4,0.5,0.9,1,1.3,1.6
			c0.3,0.5,0.6,0.9,0.9,1.4c0.6,0.7,1.2,1.4,1.8,2.1c0.5,0.6,1,1.2,1.4,1.8c0.6,0.6,1.2,1.3,1.8,1.9c0.5,0.6,0.9,1.3,1.5,1.8
			c0.8,0.7,1.6,1.5,2.4,2.3c0.4,0.4,0.8,0.8,1.2,1.2c0.7,0.6,1.4,1,2.1,1.6l1.8,1.8c0.5,0.3,0.9,0.7,1.3,1c0.5,0.5,1,1,1.6,1.4
			c0.7,0.5,1.4,1.1,2.1,1.5c0.5,0.3,1,0.4,1.5,0.7c0.6,0.4,1.1,0.8,1.7,1.2c0.5,0.4,1.2,0.6,1.7,1c2.1,1.3,4.2,2.4,6.4,3.5
			c1,0.5,1.9,1.1,2.9,1.4c1,0.4,1.9,0.7,2.9,1.1c0.4,0.1,0.7,0.2,1,0.3c0.9,0.4,1.9,0.7,2.8,1.1c0.3,0.1,0.5,0.2,0.8,0.2
			c0.8,0.3,1.6,0.7,2.4,0.9c1,0.2,2,0.4,3,0.6c1.5,0.3,3.1,0.8,4.6,1c0.6,0.1,1.1,0.1,1.7,0.1c0.7,0.1,1.5,0.3,2.3,0.3
			c0.6,0,1.2,0.1,1.8,0.1c0.4,0.1,0.8,0.1,1.1,0.2l1.2,0c0.9,0.1,1.8,0.3,2.8,0.4c0.5,0,0.9,0,1.4,0.1c0.3,0,0.6-0.1,0.9-0.1
			c0.9,0,1.9,0.1,2.7,0.1c0.5,0,1.1,0,1.6,0c1.1,0.1,2.1-0.2,3.1-0.3c0.4,0,0.9,0,1.3-0.1c0.6-0.1,1.3-0.2,1.9-0.2
			c2.2-0.2,4.3-0.4,6.5-0.9c0.7-0.2,1.4-0.4,2.2-0.6c0.9-0.2,1.8-0.4,2.7-0.5c0.5-0.1,0.9-0.4,1.3-0.5c0.7-0.2,1.5-0.4,2.2-0.6
			c0.3-0.1,0.6-0.2,0.9-0.3c0.5-0.1,1-0.2,1.5-0.4c1.1-0.4,2.2-0.8,3.2-1.1c0.6-0.3,1.3-0.6,1.9-0.9c0.6-0.2,1.3-0.5,1.8-0.8
			c0.2-0.1,0.3-0.2,0.5-0.3c0.6-0.3,1.3-0.6,2-0.9c0.7-0.4,1.5-0.8,2.2-1.3C166.9,199.7,167.4,199.6,167.7,199.4"/>
		<path class="st3" d="M127.3,202.8L127.3,202.8L127.3,202.8c-0.2-0.1-0.2-0.2-0.3-0.3c-0.3-0.4-0.5-0.9-0.8-1.3
			c-0.6-0.7-1.2-1.3-1.7-2c-1.7-1.6-3.8-3.1-5.9-4c-0.4-0.2-0.9-0.3-1.3-0.5c-0.5-0.2-0.9-0.5-1.4-0.7c-0.5-0.2-1-0.2-1.5-0.3
			c-0.5-0.1-1-0.2-1.6-0.4c-1.1-0.2-2.2-0.5-3.3-0.7c-1.1-0.1-2.1-0.3-3.2-0.4c-0.9,0-1.7,0-2.5-0.1c-3.9-0.4-7.7-0.8-11.4-1.4
			c-1.3-0.2-2.5-0.2-3.8-0.4c-1.2-0.2-2.5-0.6-3.7-0.9c-0.7-0.2-1.3-0.4-2-0.6c-0.6-0.3-1.2-0.6-1.9-0.8c-0.4-0.2-0.9-0.4-1.3-0.6
			c-0.3-0.2-0.6-0.4-0.9-0.6c-0.1-0.1-0.3-0.2-0.4-0.2c-1-0.8-1.8-2-2.6-2.9c-0.6-0.8-0.9-1.7-1.2-2.6c-0.1-0.5-0.3-0.9-0.4-1.4
			c-0.5-2.1-0.4-4.4-0.4-6.7c0-0.5-0.1-0.9-0.1-1.4c0.1-1.7,0.2-3.5,0.2-5.2c0-0.4,0-0.8,0-1.1c0-1.7,0-3.5,0-5.2
			c0-1.1,0.1-2.3,0.1-3.3c0-4.7,0-9.4,0.1-14.1c0-0.7-0.1-1.3-0.1-2c0-0.7,0.1-1.4,0.1-2.1c0-0.3,0-0.7,0-1c0.1-1.1,0.2-2.1,0.3-3.2
			c0-0.8-0.1-1.6-0.1-2.4c0-0.6,0.1-1.2,0.1-1.8c0-0.5-0.1-1-0.1-1.5c0-0.4,0.1-0.9,0.1-1.4c0-0.9-0.1-1.9,0-2.8
			c0-0.5,0.1-1.1,0.1-1.7c0-0.6-0.1-1.3-0.1-1.9c0.1-0.8,0.1-1.6,0.2-2.4c0-0.8,0-1.5,0-2.2c0-1.6,0.1-3.3,0.1-5c0-0.3,0-0.7,0-1
			c0-0.7-0.1-1.4-0.1-2.1c0.1-0.6,0.1-1.2,0.2-1.9c0.1-3,0.1-6,0.1-8.9c0-1,0-2,0-3c0-0.7-0.1-1.4-0.1-2.1c0-0.5,0.1-1,0.1-1.4
			c0-2.5,0-5,0-7.6c0-0.9,0.1-1.8,0.1-2.6c0-1-0.1-2.1,0-3.1c0-0.7,0.1-1.4,0.1-2.1c0-0.6-0.1-1.4,0.1-1.8c0-0.1,0.2-0.1,0.3-0.1
			c1-0.1,2.3-0.3,3.4-0.1c1.4,0.2,2.7,0,4.1,0c1.3,0,2.5,0,3.8,0c0.8,0,1.5-0.1,2.3-0.1c1.4,0,2.7,0.1,4.1,0.1c1.7,0,3.5,0,5.2,0
			c0.5,0,1,0,1.5,0.1c0.7,0,1.4-0.1,2.1-0.1c0.6,0,1.2,0.1,1.8,0.1c0.8,0,1.5-0.1,2.3,0c1.2,0,2.4,0,3.6,0.1c0.6,0,1.1,0.1,1.7,0.1
			c1.7,0,3.4-0.1,5.1-0.1c1.1,0,2.2,0.1,3.4,0.1c0.9,0,1.9-0.2,2.8-0.2c0.7,0,1.4,0.1,2.1,0.1c0.6,0,1.3,0,1.9,0
			c0.7,0.1,1.5,0.1,2.2,0.2c0.6,0,1.1-0.1,1.7-0.1c1.1,0,2.2,0.1,3.3,0.1c0.5,0,1-0.1,1.6-0.1c3-0.1,5.9,0,9,0c0.7,0,1.3-0.1,2-0.1
			c1.4,0,2.8,0.1,4.1,0c0.3,0,0.6-0.1,0.9-0.1c1.1,0.1,2.5,0,3.7,0c0.5,0,0.9,0.1,1.4,0.1c0.5,0,1.1,0,1.6-0.1
			c0.9,0,1.9,0.1,2.8,0.1c0.6,0,1.2-0.1,1.9-0.1c0.5,0,0.9,0.1,1.4,0.1c0.6,0,1.3-0.1,2,0c0.4,0.1,0.9,0.1,1.4,0.2
			c0.4,0,0.8,0,1.1,0c0.4,0,0.8,0,1.2,0.1c0.4,0,0.8,0,1.2-0.1c0.8,0,1.5,0.1,2.2,0c1.2-0.1,2.3,0.1,3.5,0.1c0.6,0,1.1-0.1,1.7-0.1
			l1.1,0.1c0.4,0,0.8,0,1.1,0.1c0,0,0.1,0,0.1,0.1c0.3,0.4,0.2,1.1,0.2,1.6c0,1.6-0.1,3.2,0,4.8c0,1,0,2.1,0,3.1c0,0.3,0,0.7-0.1,1
			c0,0.7,0.1,1.4,0.1,2.1c0,0.7-0.1,1.4-0.1,2.1c0.1,0.9,0.1,1.9,0.2,2.8c0,0.4-0.1,0.7-0.1,1.1c0,0.6,0.1,1.2,0.1,1.8
			c0,0.6-0.1,1.2-0.1,1.9c0,0.8,0,1.5,0,2.3c0,0.6-0.1,1.1-0.1,1.7c0.1,0.9,0.1,1.9,0.2,2.8c0,0.3-0.1,0.7-0.1,1
			c0,0.8-0.1,1.5-0.1,2.3c0,1.3,0.1,2.8,0.1,4.1c0,0.3-0.1,0.6-0.1,0.9c0,0.6,0,1.2,0.1,1.8c0,0.7-0.1,1.5-0.1,2.2
			c0,0.5,0.1,1,0.1,1.6c0,0.3-0.1,0.6-0.1,0.9c0,0.4,0,0.8,0,1.1c0,1.4-0.2,2.8-0.1,4.3c0,0.7,0,1.4,0.1,2.1c0,0.3,0.1,0.6,0.1,0.9
			c0,0.5,0,0.9-0.1,1.4c0,0.3,0,0.6,0,0.9l-0.1,1.6c0,0.7,0.2,1.5,0.1,2.2c-0.1,2.1-0.2,4-0.2,6.1c0,0.8,0.1,1.6,0.1,2.4l-0.1,1.4
			c0,1,0,1.9,0,2.9c0,0.5-0.1,1-0.1,1.6c0,2,0.1,3.9,0.1,5.9c0,1.4-0.1,2.8-0.1,4.2c0,0.7,0.1,1.5,0.1,2.2c0,0.3,0,0.6-0.1,0.9
			c0,0.5,0,1,0,1.6c0,1.3,0.1,2.6,0.1,3.8c0,1.5,0,3.1,0,4.6c0,0.4,0,0.9-0.1,1.3c0,0.3,0.1,0.5,0.1,0.8c0,0.9-0.1,1.8-0.1,2.7
			c0,0.8,0.1,1.6,0,2.4c-0.1,0.5-0.2,1-0.3,1.4c-0.1,0.5-0.1,1-0.2,1.6c-0.2,0.9-0.8,2.2-1.3,2.9c-0.4,0.6-1.1,1-1.6,1.5
			c-0.3,0.3-0.7,0.5-1,0.8c-0.6,0.5-1.2,1.1-1.9,1.4c-0.4,0.2-0.9,0.3-1.3,0.5c-0.9,0.4-1.8,0.8-2.7,1.1c-0.8,0.3-1.7,0.5-2.6,0.9
			c-0.2,0.1-0.4,0.2-0.6,0.2c-0.5,0-1.1,0.2-1.4,0.4c-0.4,0-0.8,0-1.1,0.2c-0.6,0-1,0.2-1.5,0.4c-0.2,0-0.3,0.1-0.5,0.1
			c-0.2,0-0.5,0-0.7,0.1c-0.5,0-1.6,0.2-1.9,0.4c-0.4,0-0.9-0.1-1.3,0.1c-0.2,0-0.5,0-0.7,0.1c-0.4,0-0.8,0-1.1,0.1
			c-0.2,0-0.4,0.1-0.6,0.1c-0.3,0-0.6,0-0.9,0.1c-0.3,0-0.6,0-0.8,0.1c-0.5,0-1.2-0.1-1.6,0.1c-0.2,0-0.4,0-0.6,0.1
			c-0.5,0-1.1-0.2-1.5,0.1c-0.3,0-0.6,0-0.9,0.1c-0.1,0-0.3,0-0.4,0.1c-0.5,0-1-0.1-1.4,0.1c-0.2,0-0.4,0-0.6,0.1
			c-0.1,0-0.3,0-0.4,0.1c-0.1,0-0.3,0.1-0.4,0.1c-0.2,0-0.4,0-0.6,0.1c-0.3,0-0.6,0-0.9,0.1c-0.2,0-0.4,0-0.6,0.1
			c-0.3,0-0.7,0-0.9,0.1c-0.3,0-0.6,0-0.9,0.1c-0.2,0-0.5,0-0.7,0.1c-0.2,0-0.5,0-0.6,0.1c-0.1,0-0.3,0-0.4,0.1
			c-0.4,0-0.9,0.1-1.1,0.3c-0.2,0-0.5,0-0.6,0.1c-0.7,0-1.4,0.3-2,0.6c-0.5,0.2-1,0.4-1.5,0.5c-1,0-2,0.9-2.7,1.5
			c-0.6,0.5-1.4,0.8-2,1.3C129.2,198.6,128.2,200.7,127.3,202.8"/>
		<path class="st2" d="M135.3,192.6c0.4-0.2,0.9-0.4,1.3-0.6c0.9-0.3,1.8-0.4,2.7-0.6c1.7-0.4,3.4-0.8,5.1-1.2
			c0.4,0,0.8-0.1,1.3-0.1c0.7-0.1,1.3-0.3,2-0.4c0.9,0,1.8-0.1,2.7-0.1c1.1-0.1,2.2-0.3,3.3-0.4c1-0.1,2-0.1,2.9-0.2
			c0.9-0.1,1.7-0.3,2.6-0.4c0.3,0,0.6,0,0.8-0.1c1.3-0.2,2.6-0.5,3.9-0.8c0.4-0.1,0.8-0.2,1.3-0.3c1.2-0.4,2.4-0.8,3.6-1.2
			c1-0.3,2-0.6,2.9-1.1c0.8-0.4,1.5-0.9,2.2-1.4c1.3-0.8,2.8-1.7,3.7-3.2c0.4-0.6,0.7-1.6,0.8-2.3c0-0.4,0.1-0.7,0.1-1.1
			c0.3-1.5,0.2-3.2,0.2-4.8c0-0.6,0-1.1,0.1-1.7c0-0.3,0-0.6-0.1-0.9c0-0.6,0-1.2,0-1.8c0-0.2-0.1-0.5-0.1-0.7c0-0.2,0-0.4,0.1-0.6
			c0-0.2,0-0.4-0.1-0.6c0-0.4,0.1-0.8,0.1-1.2c0-0.5-0.1-0.8-0.1-1.3c0-0.5,0.1-0.9,0.2-1.5c0-1.9,0-3.7,0.1-5.6c0-0.5,0-0.9,0-1.3
			c0-1.6,0-3.3,0-4.9c0.1-4.5,0-9.2,0.1-13.7c0-0.5,0-0.9-0.1-1.4c0-0.1,0-0.3-0.1-0.4c0-0.4,0.1-0.8,0.1-1.1c0-0.3-0.1-0.5-0.1-0.8
			c0-0.4,0.1-0.7,0.1-1.1c0-0.8-0.2-1.5-0.2-2.4c0-0.6,0.1-1.1,0.1-1.6l0-0.8c0-0.3,0.1-0.5,0.1-0.8c0-0.3-0.1-0.6-0.1-0.9
			c0-0.4,0.1-0.7,0.1-1.1c0-0.3-0.1-0.6-0.1-0.9c0-1.9,0-3.9,0-5.8c0-0.4,0.1-0.8,0.1-1.2c0-0.4-0.1-0.7-0.1-1.1
			c0-0.2,0.1-0.4,0.1-0.6c0-0.6,0.1-1.3,0.1-1.9c0-1,0-2-0.1-3.1c0-0.3-0.1-0.7-0.1-1c0-0.8,0.1-1.5,0.1-2.3c0-0.6-0.1-1.2-0.1-1.8
			c0-4.6-0.2-9,0-13.6c0-2.5,0-5,0-7.5c0-1.4-0.1-2.8-0.1-4.1c0-1.3,0-2.6,0-3.9h-0.1c0-0.2-0.7-0.1-0.8,0c-1.3,0-2.7,0-4-0.1
			c-0.9-0.1-1.7-0.1-2.6-0.1c-0.3,0-0.6,0-0.8,0.1c-0.3,0-0.7,0.1-1,0.1c-0.5-0.1-0.9-0.1-1.4-0.2c-1.7,0-3.3,0-5,0
			c-0.5,0-1.7-0.2-2,0c-0.9,0-1.7,0-2.6,0c-0.6,0-1.6-0.3-2.2-0.1c-0.2,0-0.4,0-0.6,0.1c-0.6,0-1.2,0-1.9,0
			c-0.9-0.1-1.8-0.2-2.8-0.2c-0.7,0.2-1.7-0.1-2.4,0.1c-0.2,0-0.4,0-0.6,0.1c-0.7,0-1.5,0-2.2,0c-0.4,0-0.8-0.1-1.1,0.1
			c-0.2,0-0.5,0-0.7,0.1c-0.6,0-1.1-0.1-1.7-0.2c-1.5,0-2.9,0-4.4,0c-0.5,0-1.3-0.1-1.8,0.1c-0.2,0-0.3,0-0.5,0.1l-0.6,0.1
			c-0.8,0-2.2-0.4-2.9-0.2c-0.1,0-0.3,0-0.4,0.1c-0.3,0-0.7,0-0.9,0.1c-2.1,0-4.2,0-6.3-0.1c-0.5,0-1.1,0-1.6,0
			c-0.3,0-0.6-0.1-0.9,0c-0.5,0-1,0-1.6,0c-0.7-0.1-2.3-0.3-3-0.1c-0.5,0-0.9,0-1.4,0c-0.3,0-0.7-0.1-1,0c-0.4,0-1-0.1-1.4,0.1
			c-0.9,0-1.6-0.2-2.5-0.2c-0.3,0-0.6,0-0.9,0.1c-0.5,0-1.3-0.1-1.7,0.1c-0.8,0-1.6,0-2.4,0c-0.4,0-0.9-0.1-1.2,0.1c-1,0-2,0-3.1,0
			c-0.7,0-1.9-0.3-2.5,0c-0.6,0-1.8-0.2-2.3,0c-1.3,0-2.6-0.1-3.9-0.2c-0.5,0-1.2-0.2-1.6,0c-0.3,0-0.6,0-0.8,0.1
			c-0.5,0-1.2-0.1-1.6,0.1c-0.5,0-1.1-0.1-1.5,0.1c-1.7,0-3.5-0.1-5.3-0.1c-0.5,0-1.3-0.1-1.7,0.1c-0.6,0-2.1-0.1-2.6,0.1
			c-0.4,0-1-0.1-1.3,0.1c-0.4,0.4-0.2,2.2-0.2,2.9c0,0.5,0,0.9-0.1,1.4c0,0.4,0.1,0.9,0,1.4v2c-0.1,1.8-0.1,3.6-0.1,5.4
			c0,0.5-0.1,0.9-0.1,1.3c0,0.5,0.1,1,0.1,1.4c-0.1,0.5-0.1,0.9-0.2,1.4c0,0.9,0,1.9,0.1,2.8c-0.1,1.6-0.1,3.4-0.1,5.1
			c0,0.7,0,1.3,0.1,2c0,0.2,0.1,0.4,0.1,0.6c-0.1,0.4-0.1,0.8-0.2,1.2c0,2.9,0,5.7-0.1,8.6c0,1.3,0.1,2.5,0,3.7
			c0,0.6-0.1,1.2-0.1,1.9c0,0.9,0,1.9,0.1,2.8c0,1.8-0.1,3.8-0.1,5.6c0,0.7,0.1,1.3,0.1,2c0,0.9-0.1,1.7-0.1,2.6
			c0,3.4,0,6.9,0.1,10.3c0,0.8-0.1,1.5-0.1,2.4c0,0.9,0,1.8,0,2.7c0,0.4,0,0.8,0.1,1.2c-0.1,3.1-0.2,6-0.2,9.1c0,1.4-0.2,2.6-0.2,4
			c0,0.6,0,1.2,0,1.8c0,0.2,0.1,0.5,0.1,0.7c0,0.2-0.1,0.5-0.1,0.7c0,0.7-0.1,1.4-0.1,2.1c0,0.8,0,1.8,0,2.6c0,0.4,0.1,0.7,0.1,1.1
			c0,0.4-0.1,0.7-0.1,1.1c0,0.5,0.1,0.8,0.1,1.4c0,3.7,0,7.2,1.7,10c1.1,1.9,3.3,3.1,5.2,4c1.3,0.6,2.7,1.2,4.2,1.6
			c1.1,0.2,2.1,0.4,3.3,0.6c0.9,0.2,1.7,0.4,2.6,0.5c0.9,0.1,1.7,0.1,2.6,0.2c1.8,0.2,3.6,0.5,5.5,0.8c0.9,0,1.8,0.1,2.6,0.1
			c0.4,0.1,0.8,0.2,1.1,0.3c0.7,0,1.4,0,2.1,0c0.7,0.1,1.5,0.1,2.2,0.2c0.4,0,0.8,0,1.1,0c0.3,0.1,0.7,0.2,1,0.2
			c0.9,0.1,1.8,0.3,2.8,0.4c0.3,0.1,0.6,0.2,0.9,0.3c0.7,0.2,1.2,0.3,1.9,0.6c0.9,0.3,1.8,0.7,2.7,1c0.7,0.3,1.3,0.7,2,1
			c0.3,0.2,0.7,0.5,1,0.7c0.7,0.4,1.4,0.8,2.1,1.3c0.8,0.7,1.4,1.5,2.1,2.2c0.2,0.3,0.4,0.6,0.7,0.8c0,0.1,0,0.1,0.1,0.1
			c0-0.1,0.4-0.4,0.5-0.5c0.2-0.2,0.3-0.5,0.4-0.7c1.6-2.3,3.9-3.9,6.2-5.2C134.6,192.9,134.9,192.8,135.3,192.6"/>
		<path class="st4" d="M135.7,84.1L135.7,84.1l-0.2,0.1c0-0.2,0-0.5,0-0.7c0.1-0.7,0.7-1,1.1-1.6C137.3,82.5,136.1,83.6,135.7,84.1
			 M139.4,78.1c0.3-0.3,0.5-0.7,0.7-1.1c0.2-0.2,0.4-0.4,0.7-0.7c0.5,0.1,1,0.1,1.6,0.2v0.2c-0.8,0-2.8,2.5-3.3,3.1
			c-0.2,0.3-0.5,0.9-0.8,1.1c-0.2,0.1-0.5,0-0.6-0.1c-0.5-0.3-0.1-0.8,0-1.2c0.1-0.2,0.1-0.5,0.3-0.6c0.2-0.1,0.4-0.2,0.6-0.3
			C138.8,78.6,139.1,78.3,139.4,78.1 M134.6,79.8c0.1-0.4,0.1-0.8,0.3-1.1c0.2-0.4,0.8-0.5,1.1-0.9c0.3-0.3,0.4-0.7,0.6-1
			c0.3-0.3,0.6-0.4,0.9-0.5c0.3,0,0.6,0,0.9,0c0,0.4-0.5,0.7-0.6,1c-0.2,0.4-0.5,0.8-0.7,1.2c-0.3,0.4-0.6,0.7-0.8,1.1
			c-0.2,0.3-0.3,0.6-0.5,0.9c-0.2,0.1-0.3,0.3-0.5,0.4c-0.2,0.2-0.3,0.4-0.5,0.5c-0.2,0.1-0.3,0.3-0.5,0.4c-0.3,0.4-0.3,0.9-0.7,1.2
			c-0.3,0.3-1,0.4-1.4,0.3H132c0-0.2,0.9-1.7,1.2-1.8c0.2-0.2,0.5-0.2,0.6-0.4c0.1-0.2,0.1-0.5,0.2-0.7
			C134.2,80.2,134.5,80.1,134.6,79.8 M129.2,78.8c0.1-0.3,0.4-0.6,0.5-0.9c0.1-0.4,0-0.8,0.3-1.1c0.3-0.3,2.1-0.1,2.7-0.4
			c0.4,0,0.8,0,1.1,0v0.1c-0.1,0-0.1,0.1-0.2,0.1c-0.6,0.8-0.8,1.7-1.2,2.6c-0.2,0.3-0.4,0.6-0.5,0.9c-0.1,0.3-0.3,0.7-0.4,1
			c-0.4,0.7-1.3,1.9-2.1,2v-0.1c-0.1,0-0.1-0.6-0.1-0.8c-0.1-0.3-0.2-0.6-0.1-0.9c0-0.4,0.2-0.6,0.2-1.1
			C129.3,79.9,129,79.4,129.2,78.8 M123.5,76.5c0.3-0.3,1.3-0.1,1.7-0.2c0.4,0.2,1.6,0.1,2.1,0.2c0,0.3,0,0.6,0,0.9
			c0.1,0.2,0.1,0.5,0.2,0.7c0,0.3-0.1,0.5-0.1,0.8c0,1.1-0.2,2.3-0.2,3.4c0,0.7,0.1,1.4,0.1,2.1h-0.1v-0.1c-0.9,0-2-2.8-2.3-3.4
			c-0.2-0.4-0.5-0.6-0.8-0.9C123.6,79.1,122.7,77.3,123.5,76.5 M117.7,77C117.7,77,117.7,77,117.7,77c0.2-0.5,1.3-0.5,1.7-0.7
			c0.4,0,1-0.1,1.3,0.1c1,0.5,1.4,2,1.8,2.9c0.3,0.6,0.6,1.2,0.9,1.8c0.2,0.3,0.4,0.6,0.6,1c0.1,0.3,0.2,0.7,0.2,1
			c0,0.3,0.1,0.8-0.2,0.9c-0.2,0.1-0.5,0.1-0.7,0c-0.4-0.1-5.5-6.5-5.5-6.8L117.7,77C117.7,77,117.7,77,117.7,77 M114.9,76.3
			c0.5,0.1,0.9,0.2,1.2,0.6c0.6,0.5,1,1.2,1.5,1.8c0.2,0.3,0.4,0.7,0.6,1c0.4,0.4,0.7,0.8,1.1,1.1c0.3,0.4,0.6,0.8,0.9,1.2
			c0.1,0.2,0.2,0.3,0.3,0.5c0.2,0.2,0.5,0.4,0.7,0.6c0.5,0.5,0.9,1,1.2,1.6c-0.1,0-0.1,0.1-0.1,0.2c-0.4,0-0.9-0.1-1.1-0.4
			c-0.5-0.5-0.9-0.9-1.4-1.4c-0.3-0.3-0.6-0.4-0.9-0.7c-0.5-0.7-0.9-1.4-1.5-2c-0.3-0.3-0.8-0.4-1.2-0.7l0,0
			c-0.4-0.4-0.5-0.9-0.8-1.3c-0.4-0.5-0.9-0.8-1.2-1.3c0,0,0-0.1,0-0.1c0,0,0,0,0-0.1C114.1,76.6,114.7,76.4,114.9,76.3"/>
		<path class="st5" d="M130.9,91.2c0.2,0,0.4,0.1,0.6,0.1c0.6,0.2,1.1,1.1,0.9,1.8c-0.1,0.4-0.5,0.7-0.8,0.9
			c-0.2,0.2-0.5,0.4-0.8,0.4c-0.4,0-0.2-0.9-0.1-1.2c0.1-0.3,0.5-0.4,0.5-0.8C131.2,91.8,130.9,91.6,130.9,91.2 M131.9,88.2
			c-0.2,0.1-0.5,0.5-0.8,0.5c-0.4-0.1-0.6-0.6-0.9-0.9c-0.3-0.3-1-0.5-0.9-1c0-0.2,0.2-0.4,0.4-0.4v-0.1c0.5,0.1,0.8,0.3,1.2,0.5
			c0.5,0.2,1,0.3,1.5,0.5c0.1,0,0.2,0.2,0.1,0.3C132.5,87.9,132.1,88.1,131.9,88.2 M131,97.1c-0.1,0.5-1.3,0.7-1.7,0.5
			c-0.6-0.4,0.6-1.1,0.8-1.3C130.4,96.3,131,96.6,131,97.1 M127.8,96.6c-0.2,0-0.3-0.1-0.4-0.2c-0.2-0.1-0.4-0.1-0.5-0.3
			c-0.4-0.4-0.3-0.8-0.3-1.4c0-0.3-0.1-0.6,0-0.9c0.1-0.2,0.3-0.3,0.5-0.5c0.2,0,0.4,0,0.6,0.1c0.2,0.1,1.6,1.5,1.7,1.7
			C129.5,95.7,128.3,96.5,127.8,96.6 M136.2,92c0,0.5-0.3,1.1-0.7,1.3c0,0.1-0.2,0-0.4-0.1C135.1,92.7,135.8,92.4,136.2,92L136.2,92
			 M134.9,91.1c-0.2,0.1-0.3,0.3-0.6,0.3c-0.2,0-0.4-0.2-0.4-0.4c-0.1-0.2,0-2.5,0-2.7c0.1-0.2,0.5-0.5,0.6-0.7
			c0.5,0.2,0.5,0.5,0.7,1C135.6,89.6,135.8,90.4,134.9,91.1 M134,95.2C134.1,95.2,134,95.3,134,95.2c0,0.4-0.9,1-1.2,0.7
			c-0.4-0.4,0.1-0.8,0.4-1.1C133.5,94.9,133.8,94.9,134,95.2 M127.5,87.7c0.3,0,0.5,0.1,0.8,0.1c0.4,0.1,1.9,1.3,1.7,1.9
			c-0.1,0.5-0.6,0.8-1,1.2c-0.4,0.4-0.8,0.8-1.4,0.9c-0.5,0.1-1.3-2.3-1.2-2.7C126.5,88.8,127.3,87.9,127.5,87.7L127.5,87.7
			 M125.8,93.5c-0.3,0.2-0.6,0.7-1,0.7c-0.3,0-0.4-0.2-0.6-0.4c-0.5-0.4-0.8-1.2-0.6-1.9c0.1-0.2,0.2-0.4,0.3-0.6
			c0.2-0.6,0.1-0.7,0.6-1.1c0.6,0.3,2.4,1.6,2.2,2.4C126.5,93,126.1,93.3,125.8,93.5 M126.1,97.4L126.1,97.4c-0.1,0.1-0.3,0-0.4,0
			c-1.1-0.2-2.2-0.5-1.3-1.8c0.2,0,0.3,0,0.4,0.1c0.3,0.2,0.3,0.5,0.5,0.7C125.6,96.8,126,97,126.1,97.4 M121.2,88.3
			c0,0,0.5-0.6,0.7-0.7v-0.1c0.9,0.6,1.6,1.6,0.7,2.6c-0.2,0.2-0.5,0.4-0.7,0.5c-0.8,0.1-0.5-0.9-0.5-1.3
			C121.4,88.9,121.3,88.6,121.2,88.3 M122.8,87v-0.2c0.1,0,0.3-0.1,0.4-0.1c0.9-0.1,1.5-0.3,2.2-0.7c0.2,0.1,0.6,0.1,0.7,0.3
			c0.4,0.6-1.5,1.9-2,1.8C123.6,88.1,123.3,87.3,122.8,87 M121.7,92.9c0.1,0,0.3,0.1,0.4,0.1c0.3,0.2,1.6,1.4,1.6,1.8
			c0,0.4-1,1.1-1.3,1.2c-0.3,0.1-0.4-0.2-0.4-0.4C121.7,94.7,121.4,93.8,121.7,92.9 M120.3,92.1c-0.7,0.2-0.5-1.2-0.5-1.6
			C120.3,90.7,121.3,91.9,120.3,92.1"/>
		<path class="st0" d="M135.3,163.1c0.3,0.5,2.4,2.7,2.3,3.2c0,0.1-0.2,0.1-0.3,0.1c-0.6,0-1.2,0-1.9,0c-1.1,0-2.2,0-3.3,0
			c0,0,0,0,0-0.1h-0.1c0-0.2,0.2-0.5,0.3-0.6c0.3-0.6,1.7-2.5,1.6-3.1c0-0.2-0.2-0.4-0.4-0.5c-0.9-0.3-1.9,0-2.8-0.1
			c-0.5,0-1.6-0.3-2.1-0.1c-0.9,0-4.2-0.5-4.6,0.4c-0.1,0.2,0,0.4,0.1,0.6c0.4,0.7,1,1.4,1.5,2.1c0.3,0.4,0.5,0.8,0.8,1.3v0.1
			c-0.1,0-0.1,0.1-0.2,0.1c-2,0-4-0.1-6-0.1v-0.1c0.1,0,2.9-3.4,3.2-3.8c0-0.1,0-0.1-0.1-0.1c-0.4,0-0.7-0.1-1.1-0.1
			c-0.6,0-1.2-0.1-1.8-0.1c-1.7,0-3.5,0.1-5.1-0.1c0-0.2,2.4-2.5,2.8-2.9c2.1-2.2,4.2-4.3,6.4-6.4c0.7-0.8,1.5-1.5,2.2-2.3
			c0.2-0.2,0.5-0.5,0.8-0.6c0,0,0-0.1,0-0.1c0.5,0.2,0.9,0.7,1.3,1.1c0.6,0.7,1.3,1.3,1.9,2c0.4,0.4,0.8,0.8,1.2,1.1
			c1.8,1.9,3.8,3.7,5.7,5.6c0.8,0.8,1.8,1.6,2.4,2.5c-0.1,0-0.3,0-0.4,0.1c-0.6,0-1.2,0-1.8,0c-0.2,0-0.5-0.1-0.7,0
			c-0.8,0-1.8-0.1-2.4,0.2C134.8,162.5,135.1,162.8,135.3,163.1 M163.7,186.6c-0.2,0-0.5,0-0.7,0.1c-0.4,0-1.1,0.2-1.4,0.3
			c-0.6,0-1.2,0.3-1.8,0.4c-0.4,0.1-0.8,0.2-1.2,0.2c-0.3,0-0.6,0-0.9,0.2c-0.2,0-0.3,0-0.5,0.1c-0.2,0-0.3,0-0.5,0.1
			c-0.4,0-1-0.1-1.3,0.1c-0.2,0-0.3,0-0.5,0.1c-0.7,0-1.5-0.1-2.1,0.2c-0.3,0-0.6,0-0.8,0.1c-0.3,0-0.6-0.1-0.9-0.1
			c0,0.1-0.9,0.3-1,0.4c-0.5,0-1.1-0.1-1.5,0.1c-0.2,0-0.3,0-0.5,0.1c-0.5,0-1.1-0.1-1.4,0.1c-0.3,0-0.7,0-0.9,0.1
			c-0.5,0-1.6,0.1-1.9-0.1c-0.5-0.4-0.2-4.9-0.2-5.7c0-0.4,0-0.9-0.1-1.3c0-0.4,0.1-2-0.6-1.7c-0.4,0-1.4-0.1-1.7,0.1
			c-0.5,0-1.7,0.1-2-0.2c-0.5-0.5-0.8-2.2-1-2.8c-0.4-1-1-2-1.1-3.1c0-0.1,0-0.3,0-0.4c0.2-0.2,1.2-0.2,1.5-0.2c0.8,0,4.7,0,5-0.5
			c0.2-0.4,0.1-1.5,0.1-1.9c0-0.7,0.1-1.4,0.1-2.1c0-1.1-0.2-2.3,0.1-3.3c2.4,2.6,5.2,5,7.7,7.6c0.2,0.3,0.5,0.6,0.7,0.9
			c0.6,0.6,1.3,1.2,2,1.8c1.7,1.7,3.3,3.5,5,5.2c1.3,1.3,2.7,2.6,3.9,3.9c0.2,0.2,0.7,0.5,0.8,0.8
			C164.2,186.4,163.8,186.5,163.7,186.6 M159,118.9c0.4-0.5,0.8-0.9,1.2-1.4c0.5-0.5,1-0.9,1.5-1.3c0.6-0.6,1.2-1.3,1.9-1.9
			c0.7-0.7,1.4-1.3,2.1-2c1.4-1.4,2.7-2.9,4.1-4.3c2.1-2,4.3-4,6.2-6.2c0.5-0.6,1.2-1,1.6-1.7c0.4,0.5,0.1,1.8,0.1,2.4
			c0.1,1.6,0,3.3,0,4.9c0,0.8,0.1,1.7,0.1,2.5c0,0.9-0.1,1.7-0.1,2.6c0,0.5,0.1,1,0.1,1.5c0,0.2,0,0.5,0,0.7c0,0.3,0.1,0.6,0.1,0.9
			c0,0.2-0.1,0.5-0.1,0.7c-0.1,1.3-0.1,2.6-0.1,4c0.1,0.7,0.1,1.4,0.2,2.1c0,0.4-0.1,0.8-0.1,1.1l0,2.6c0,0.3,0,0.6,0,0.9
			c0,0.5,0.1,1.1,0.1,1.6c0,0.8-0.2,1.6-0.2,2.4c0.1,1,0.1,1.9,0.2,2.9c0,0.6-0.1,1.2-0.1,1.8c0,0.2,0,0.4,0.1,0.6
			c0,0.6,0,1.3-0.1,1.9c0,0.5,0.1,0.9,0.1,1.4c0,0.4-0.1,0.7-0.1,1c0,0.7,0,1.4,0.1,2c0.1,1,0.1,2.3,0,3.3c0,0.2-0.1,0.5-0.1,0.7
			c0,0.6,0.1,1.1,0.1,1.7c0,0.3-0.1,0.7-0.1,1c0,0.4,0,0.7,0,1.1c0,0.5,0,0.9-0.1,1.4c0,0.4,0.3,3-0.2,3c-0.3,0-2.5-2.5-2.9-2.9
			c-2.8-2.9-5.7-5.8-8.5-8.7c-0.5-0.5-0.8-1-1.3-1.4c-0.4-0.4-0.8-0.8-1.2-1.2c-0.2-0.2-0.4-0.5-0.6-0.7c-2.7-2.7-5.5-5.4-8.2-8.1
			c-0.5-0.5-4-4-4.1-4.3c0-0.1,0-0.1,0-0.2c0.3-0.7,1.4-1.4,2-1.9c0.6-0.6,1.1-1.2,1.6-1.8c0.5-0.5,1.1-1,1.6-1.5
			c0.2-0.2,0.4-0.3,0.6-0.5c0.4-0.5,0.9-0.9,1.3-1.4C158.1,119.8,158.5,119.4,159,118.9 M142.6,79.2c0.2-0.2,0.5-0.2,0.7-0.5
			c0.1-0.2,0.3-0.4,0.4-0.7c0.4-0.6,0.8-1,1.3-1.5c0.2-0.1,0.3-0.3,0.5-0.5c0.3-0.2,0.8-0.1,1.2-0.1c0.8,0,1.6,0,2.3-0.1
			c0.4,0,0.7,0,1-0.2c0.5,0,1.1,0,1.6,0c0.6,0.1,1.3,0.2,1.9,0.2c0.6,0,1.1-0.2,1.6-0.2c0.2,0,0.4,0.1,0.6,0.1
			c0.7,0.1,1.5,0.1,2.1-0.1v0.1h0.1c0,0.1,0,0.1-0.1,0.1c0,0,0,0.1,0,0.1c-0.7,0.9-1.7,1.6-2.5,2.4l-4.6,4.5c-0.3,0.4-0.7,0.6-1.1,1
			c-1.4,1.4-2.6,2.9-4,4.3c-0.5,0.5-1,1-1.5,1.5c-0.3,0.2-0.6,0.5-0.8,0.7c-0.3,0.4-0.6,0.7-0.9,1.1c-0.9,0.9-1.8,1.8-2.7,2.6
			c-0.4,0.5-0.8,1-1.3,1.5c-0.9,0.9-1.9,1.8-2.8,2.7c-1.6,1.6-3.2,3.2-4.8,4.8c-0.5,0.5-1,1.1-1.6,1.5v0.1h-0.1v-0.1h-0.1
			c0-0.2,0-0.4,0.1-0.6c0-0.5-0.1-1,0-1.5c0.1-0.3,0.1-0.5,0.2-0.8c0-0.5-0.1-0.9,0.1-1.3c0.1-0.3,0.5-0.4,0.7-0.6
			c0.4-0.4,0.7-0.9,1.2-1.3c0.5-0.3,1.2-0.4,1.7-0.7c0.4-0.2,0.6-0.5,1-0.7c0.8-0.5,1.6-0.9,2.2-1.7c0.2-0.3,0.3-0.6,0.5-0.9
			c0.2-0.3,0.4-0.5,0.6-0.8c0.2-0.4,0.1-0.8,0.2-1.2c0.1-0.5,0.4-1,0.4-1.7c-0.1-0.5-0.1-1.1-0.2-1.6c-0.1-0.7-0.5-1.3-0.9-1.9
			c-0.2-0.2-0.4-0.4-0.5-0.7c-0.1,0,0-0.2,0-0.3c0.1-0.2,0.2-0.3,0.3-0.5c0.5-0.7,1-1.5,1.7-2.1c0.4-0.3,0.4-0.7,0.7-1
			c0.3-0.4,0.8-0.6,1.2-1c0.2-0.2,0.4-0.5,0.5-0.7c0.1-0.3,0.2-0.6,0.4-0.8c0.2-0.2,0.5-0.4,0.7-0.6
			C142.2,79.6,142.4,79.4,142.6,79.2 M101.3,76.1c0.7,0,1.6,0.1,2.2-0.1c0.5,0.1,1.1,0.1,1.6,0.1c0.4,0,0.9,0.1,1.3,0.1
			c0.6,0,1.2,0,1.8,0c0.3,0.1,0.5,0.1,0.8,0.1c0.5,0,1.2-0.4,1.7-0.2c0.6,0.2,1.2,0.9,1.7,1.4c0.8,0.8,1.5,1.5,2.3,2.3
			c0.5,0.5,1,1.2,1.5,1.7c0.6,0.7,1.3,1.1,2,1.8c0.4,0.4,0.6,0.8,1,1.2c0.2,0.2,0.4,0.3,0.6,0.5c0.4,0.3,0.8,0.8,1,1.3
			c-0.2,0-0.6,0.5-0.7,0.6c-0.6,0.6-1.1,1.3-1.2,2.1c-0.1,0.3-0.1,0.7-0.1,1c-0.1,0.5-0.2,1-0.2,1.6c0.1,0.4,0.2,0.8,0.3,1.1
			c0.2,0.4,0.3,0.8,0.5,1.2c0.2,0.4,0.3,0.9,0.6,1.3c0.2,0.3,0.6,0.4,0.9,0.6c0.3,0.2,0.4,0.5,0.7,0.7c0.3,0.1,0.5,0.2,0.8,0.4
			c0.4,0.2,0.7,0.5,1.1,0.7c0.5,0.3,1.1,0.5,1.5,0.9c0.3,0.4,0.6,0.8,0.8,1.2c0.3,0.3,0.7,0.5,0.8,0.9c0.1,0.3,0.2,0.6,0.2,0.9
			c0,0.3-0.1,0.6,0,0.9c0.1,0.6,0.4,1.5,0.3,2.2c-0.6,0-1.8-1.4-2.2-1.9c-0.9-0.8-1.8-1.7-2.7-2.5c-0.6-0.7-1.3-1.4-1.9-2.1
			c-1.3-1.3-2.6-2.6-3.9-3.9c-0.7-0.7-1.4-1.4-2-2.1c-0.3-0.3-0.6-0.7-0.9-1c-2.3-2.3-4.6-4.5-7-6.8c-0.6-0.7-1.2-1.3-1.8-2
			c-1.3-1.3-2.6-2.7-3.9-4c-0.7-0.6-2.1-1.5-2.4-2.4C99.3,76.2,100.3,76.1,101.3,76.1 M86.3,146.3c-1,1-1.9,2.1-2.9,3.1
			c-1.5,1.5-3,2.9-4.5,4.4c-0.5,0.5-1.2,1-1.6,1.6h-0.1c0,0.1-0.2-0.3-0.2-0.4c0-0.5,0-1,0-1.6c0-1.6,0.1-3.1,0.1-4.7
			c0-1.3,0-2.5,0-3.8c0-0.4,0-0.9-0.1-1.3c0-1.2,0.1-2.5,0.1-3.7c0-0.5,0-1-0.1-1.6c0-0.8,0.1-1.5,0.1-2.4c0-0.5,0-0.9-0.1-1.4
			c0-1.4,0-2.7,0-4.1c0-0.4,0-0.8-0.1-1.2c0-0.5,0.1-1,0.1-1.5c0-1.1-0.1-2.2,0-3.3c0-0.8,0.1-1.7,0.1-2.5c0-1.8-0.1-3.6-0.1-5.3
			c0.1-0.9,0.1-1.7,0.2-2.6c0-0.5-0.1-0.9-0.1-1.4c0-1.8,0-3.7,0-5.4c0-0.4,0-0.8-0.1-1.1c0-0.4,0.1-0.9,0.1-1.3
			c0-0.5-0.1-1-0.1-1.6c0-0.3,0.1-0.6,0.1-0.9c0-0.8,0-1.7,0-2.6c0.7,0.3,1.3,1.1,1.9,1.6c1.2,1.2,2.5,2.4,3.7,3.6
			c0.4,0.5,0.8,0.9,1.3,1.4c0.9,0.9,1.8,1.8,2.7,2.7c0.3,0.3,0.5,0.7,0.9,1c0.6,0.6,1.3,1.1,1.8,1.7c0.3,0.3,0.4,0.6,0.7,0.8
			c1.4,1.4,2.9,2.6,4.4,4c1.4,1.4,2.7,2.8,4.1,4.2c0.9,0.8,6.3,6,6,6.7c-0.1,0.2-0.2,0.3-0.3,0.5c-0.6,1.1-2.1,2.3-3.1,3.2
			c-0.3,0.3-0.5,0.7-0.9,1.1c-0.8,0.8-1.6,1.6-2.4,2.4c-1.1,1.1-2.3,2.2-3.4,3.3c-0.7,0.8-1.5,1.5-2.2,2.3c-0.2,0.2-0.4,0.4-0.6,0.6
			C90,142.8,88.1,144.6,86.3,146.3 M116.6,180.3c-0.6,0-2.7-0.1-3,0.1c-0.1,0.1-0.2,0.3-0.2,0.4c0,1.9,0,3.8,0,5.7
			c0,0.8,0.1,2-0.1,2.8c0,0.2-0.2,0.4-0.3,0.5v0.1c-0.6,0-1.1-0.3-1.6-0.3c-0.5-0.1-1.1,0-1.6,0c-0.4-0.1-0.8-0.1-1.1-0.2
			c-0.7-0.1-1.5-0.1-2.2-0.2c-0.3,0-0.7-0.1-1,0c-1.7,0-3.3-0.4-4.9-0.5c-0.8-0.1-1.5-0.1-2.2-0.2c-0.6-0.1-1.2-0.2-1.8-0.3
			c-0.3-0.1-0.5-0.1-0.8-0.2c-0.4,0-0.7,0-1.1-0.1c-0.9-0.2-1.7-0.3-2.6-0.5c-0.7-0.1-1.5-0.1-2.1-0.4h-0.1v-0.1
			c0.1,0,0.1,0,0.1-0.1c0.4-0.6,1.1-1.3,1.7-1.8c0.5-0.5,1-1,1.5-1.5c0.8-0.8,1.6-1.4,2.4-2.2c0.4-0.4,0.8-0.7,1.2-1.1
			c0.3-0.3,0.6-0.7,0.9-1.1c2-1.9,4-3.7,5.9-5.7c1.2-1.2,2.3-2.5,3.5-3.6c1.7-1.6,3.4-3.2,5-4.9c0.5-0.5,0.9-1,1.4-1.4
			c0.3,0.4,0.1,2.1,0.1,2.6c-0.1,0.9-0.1,1.8-0.1,2.8c0,0.6-0.1,1.2,0.1,1.8c0.2,0.5,0.5,0.9,0.8,1.4c0.2,0.3,0.3,0.6,0.6,0.8
			c0.4,0.2,1.8,0.3,2.4,0.3c1,0,2.1-0.1,3.1-0.1c0,0.7-0.4,1.5-0.7,2.2c-0.4,1.1-0.9,2.2-1.3,3.3c-0.2,0.4-0.3,1-0.6,1.3
			c-0.2,0.2-0.5,0.1-0.8,0.2C116.8,180.3,116.7,180.3,116.6,180.3 M129.4,194.5c-0.2,0.3-0.5,0.6-0.7,0.9c-0.6,0.6-1.3,1.2-1.7,2
			h-0.1c-0.4-0.5-0.9-1-1.3-1.5c-0.4-0.4-1.3-0.9-1.8-1.1v-0.1h-0.1v-0.1h0.1c0-0.1,0.1-0.1,0.2-0.1c0.3-0.1,0.5-0.1,0.8-0.2
			c0.8,0,1.7-0.1,2.5-0.1c0-0.1,0.1-0.3,0.1-0.4c0-0.4,0.1-0.7,0.1-1.1c0-0.3-0.1-0.7-0.1-1c0-0.3,0-0.7,0-1c0-0.7-0.1-1.5,0-2.2
			c0.1-0.4,0.2-0.8,0.3-1.2c0.1-0.5,0.2-1.1,0.6-1.5c0.3-0.4,0.8-0.4,1.3-0.5c0.1,0.1,0.3,0.1,0.4,0.3c0.2,0.5,0,1.1,0,1.6
			c0,1.2,0,2.5,0,3.7c0,0.3,0.2,0.5,0.4,0.8c0.2,0.4,0.3,0.8,0.5,1.2c0.1,0,0.1,0,0,0.1C130.5,193.7,129.9,194.1,129.4,194.5"/>
		<path class="st0" d="M129.1,166.3c0-0.2,1.6-2.5,1.8-2.7c0.1-0.1,0.3-0.3,0.5-0.3v-0.1c0.4,0,0.7,0,1.1,0c0,0.4-1.7,2.9-2.1,3.1
			C130,166.4,129.5,166.3,129.1,166.3L129.1,166.3L129.1,166.3 M118.2,166.1c-0.4,0.2-1,0.1-1.5,0.1c0-0.6,2.6-2.5,3.1-3.1h1.1
			C121,163.6,118.8,165.8,118.2,166.1 M137.7,180.1c-0.5,0.2-1.1-0.2-1.3-0.5c-0.3-0.4-0.4-0.8-0.5-1.2c-0.2-0.7-0.4-1.4-0.7-2.1
			c-0.2-0.5-0.5-1.1-0.5-1.6c0-0.3,0.4-0.5,0.6-0.6c0.2,0,0.4,0.1,0.5,0.3c0.1,0.2,0.2,0.4,0.3,0.7c0.2,0.7,0.4,1.3,0.6,2
			c0.2,0.8,0.5,1.6,0.9,2.3C137.6,179.5,137.9,180,137.7,180.1"/>
		<path class="st0" d="M115.1,171.1c0.3-0.5,5.8-0.1,6.7-0.1c1.4,0,2.7-0.2,4.1-0.2c1.8,0,3.8,0.2,5.7,0.2c1,0,2,0,3-0.1
			c2.2-0.1,4.6,0,6.8,0.1c0,0,0,0,0-0.1c0.1,0,0.1-0.6,0.1-0.8c0-1.4,0-2.9,0-4.4c0-1,0-2.1,0.2-3c1.2,0.6,1,2.1,1.1,3.4
			c0,0.8,0.1,1.7,0,2.6c0,0.5-0.1,0.9-0.1,1.4c0,0.7,0.2,1.4-0.1,2.1v0.1h-0.1c0-0.1-0.4-0.1-0.6-0.1c-1.1,0-2.2,0.1-3.4,0
			c-0.5,0-1.2-0.1-1.6,0.1c-0.4,0-1-0.1-1.4,0.1c-1.3,0-2.5,0-3.8-0.1c-0.6,0-1.4-0.3-1.9-0.1c-1,0-1.9-0.1-2.9,0
			c-0.2,0-0.5-0.1-0.6,0c-0.5,0-1.7-0.2-2.1,0c-0.3,0-0.7,0-0.9,0.1c-0.9,0-1.8,0-2.7,0c-0.5,0-1.1,0-1.7-0.1c-0.2,0-0.4,0-0.6,0
			c-0.2,0-0.4,0-0.6,0.1c-1.1,0-1.9,0.2-2.4-0.7C115.1,171.4,115,171.2,115.1,171.1 M142.3,188.9c-0.2,0.3-0.9,0.4-1.2,0.4
			c0-1.8-0.1-3.7,0-5.5c0-0.5-0.1-1.1,0-1.6c0-0.2,0.1-0.2,0.2-0.4c0.4,0,0.7,0,1,0.2c0.1,0,0.1,0.8,0.1,0.9c-0.1,0.4,0,0.8,0,1.2
			c0,0.6-0.1,1.2-0.1,1.8C142.4,186.7,142.6,188.4,142.3,188.9 M121.4,193c-0.7-0.1-1.4-0.6-2.1-0.9c-0.5-0.2-1.1-0.3-1.6-0.6h-0.1
			v-0.1h0.1c0-0.1,0-0.1,0.1-0.1c1,0,6,0.2,6.4-0.2c0.2-0.2,0.2-1.1,0.2-1.5c0-2.3-0.3-5.4,1.9-6.6c0.3-0.2,0.6-0.2,1-0.3
			c0.6,0,2,0.2,2,1c0,0.2-0.2,0.2-0.4,0.2c-1.4,0.2-1.7,0.9-2.2,2c-0.5,0.9-0.4,2.4-0.4,3.5c0,1.1-0.1,2.2-0.1,3.3H126
			c0,0.1-0.7,0-0.9,0.1c-0.4,0-0.7,0.1-1.1,0.1C123.2,193,122.3,193,121.4,193 M132.2,192.5c-0.3-0.3-0.6-0.9-0.6-1.4
			c0.4,0,0.8,0,1.1-0.1c0.8,0,1.6,0.1,2.4,0.1v0.1c-0.3,0-0.6,0.2-0.8,0.3C133.6,191.9,133,192.2,132.2,192.5
			C132.3,192.6,132.3,192.6,132.2,192.5"/>
		<path class="st3" d="M107.6,134c0-0.6,0.1-1.3,0.1-2c0-0.7-0.1-1.5-0.1-2.2c0-1.2,0.1-2.4,0.2-3.6c0-0.7-0.1-1.4-0.1-2.1
			c0-0.5,0-1.1,0.1-1.6c0-0.5-0.1-1.1-0.1-1.6c0-0.9,0.3-1.7,0.3-2.6c0-0.5-0.1-1-0.1-1.5c0-0.3,0-0.6,0.1-0.9
			c0-1.1,0.2-2.1,0.2-3.1c0-0.7-0.1-1.8,0.1-2.5c0.2-0.7,2.1-2.9,2.8-3.1v-0.1c0.1,0.5,0.1,1.3,0,1.8c-0.1,0.7-0.1,1.4-0.1,2.1
			c0,0.5,0.1,0.9,0.1,1.4c0,0.9,0,1.8,0,2.7c0,0.4-0.1,0.8-0.1,1.2l0.1,1.4c0,1.3-0.1,2.7-0.1,4c0,1.4-0.2,2.9-0.1,4.3l0.1,1.6
			c0,1.1,0,2.1,0,3.2c0,0.5-0.1,1-0.1,1.5l0,2.5c0,1,0.1,2.8-0.2,3.6c-0.1,0.3-0.4,0.4-0.6,0.7c-0.2,0.3-0.5,0.6-0.7,1l-0.7,0.7
			c-0.2,0.4-0.5,0.9-0.7,1.4h-0.1v0.1h-0.1c0-1.3-0.2-2.8-0.2-4.1c0-0.8,0.1-1.7,0.2-2.4C107.7,135.1,107.5,134.6,107.6,134
			 M108.9,142.8c0.3-0.8,0.6-1.1,1.3-1.7c0.4-0.3,0.7-0.7,1.1-1c1.8-1.2,4.7-1.2,6.9-0.7c0.4,0.1,0.9,0.2,1.3,0.4
			c1.4,0.3,2.7,0.4,4,1.2c0.8,0.5,1.5,1.1,2.2,1.7c0.2,0.1,0.4,0.2,0.6,0.4c0.3,0.3,0.7,0.8,1.2,0.8c0.7,0,1.1-0.9,1.6-1.2
			c0.6-0.4,1.1-0.8,1.7-1.1c1.7-0.8,3.4-1.7,5.2-2.1c0.7-0.2,1.3-0.3,2-0.5c0.4-0.1,0.8,0,1.1-0.2c0.6,0,1.1,0,1.7,0
			c0.9,0.2,1.9,0.6,2.7,1.2c0.3,0.4,0.7,0.7,1,1.1c0.5,0.6,1.1,1.2,1.2,1.9h-0.1c0,0.1-0.6,0.1-0.7,0.1c-1.5,0-3,0-4.5,0
			c-0.5,0-1.3-0.1-1.7,0.1c-0.5,0-1.2-0.3-1.6-0.1c-0.2,0-0.3,0-0.5,0.1c-0.6,0-1.3-0.1-1.7,0.1c-0.2,0-0.5,0-0.7,0.1
			c-0.5,0-1.5-0.1-1.9,0.1c-0.2,0-0.4,0-0.6,0.1c-0.2,0-0.4,0-0.6,0.1c-0.3,0-0.8,0-1,0.3c-0.1,0,0,0.4,0,0.5c0,1.3-0.9,2.4-2.2,2.4
			c-1.1,0-1.9-0.8-2.1-1.7c-0.1-0.3,0-0.8-0.2-1.1c-0.1-0.1-0.3-0.2-0.4-0.1c-0.5,0-1-0.1-1.5-0.1c-0.1,0-0.2,0-0.4,0.1
			c-1.2,0-2.2-0.2-3.4-0.2c-0.3,0-0.8-0.1-1,0.1c-0.9,0-1.7-0.1-2.6-0.1c-0.4,0-1,0-1.3,0.1c-1.3,0-2.5-0.1-3.8-0.1
			c-0.4,0-1.1-0.1-1.4,0.1c-0.4,0-0.8,0-1.1-0.2C108.6,143.3,108.8,143.1,108.9,142.8 M147.7,114.6c0-0.7-0.1-1.4-0.2-2
			c0-0.4,0-0.7-0.1-1.1c0-0.1,0-0.8-0.1-0.8v-0.1h-0.2c-0.1,1.4-0.1,2.9-0.1,4.4c0,0.6-0.3,1-0.3,1.5c0,0.3,0,0.6,0,0.9
			c0,0.3,0,0.5-0.1,0.8c-0.3,0-0.6,0-0.7-0.4c-0.1-0.5,0.1-0.9,0.1-1.3c0-0.3-0.1-0.6-0.1-0.9c0-1.7,0.1-3.5,0.1-5.1
			c0-0.3-0.1-0.6-0.1-0.9c0-0.1-0.1-0.3-0.1-0.4h-0.2v0.1h-0.1c0,1.2-0.2,2.3-0.2,3.5c0,0.2-0.1,0.4-0.1,0.6h-0.2
			c-0.4-0.9-0.3-2.2-0.3-3.3c0-0.6,0.1-1.2-0.1-1.7c-0.2,0.4-0.2,0.8-0.2,1.3c0,0.6-0.1,1.3-0.1,1.9c0,0.6,0.2,1.3,0.1,2
			c-0.4,4.1-0.2,8.1-0.2,12.3c0,0.8,0,1.7-0.1,2.5c-0.1,0.7-0.2,1.5-0.2,2.2c0,1,0.1,2.1,0,3.2c0,1-0.1,2.2-0.1,3.2
			c0,0.1,0,0.5,0.2,0.5v0.1h0.1v-0.1h0.1c0.2-0.6,0.1-1.3,0.2-2c0-1.1,0.2-2.3,0.2-3.4c0-0.7-0.2-1.6,0.1-2.3c0-0.1,0.1-0.2,0.3-0.1
			c0.3,0.1,0.3,0.5,0.4,0.7c0.1,0.9,0,1.7-0.1,2.6c0,0.7,0,1.4,0,2.1c0,0.8-0.1,1.6,0,2.4c0,0.4,0,0.8,0.1,1.2
			c0.1,0.2,0.1,0.7,0.4,0.7c0.1-1.2,0.1-2.5,0.1-3.7c0-0.6-0.1-1.1-0.1-1.7c0.1-0.6,0.1-1.1,0.2-1.7c0.1-0.4,0.1-0.8,0.2-1.1
			c0-0.5-0.2-1-0.2-1.5c-0.1-0.8-0.1-1.6-0.1-2.4c0-0.4,0-0.9,0.1-1.3c0-0.1,0.2-0.2,0.2-0.4h0.1c0.3,0.2,0.4,0.4,0.5,0.8
			c0.1,0.9,0.1,2,0,2.8c0,0.3-0.1,0.6-0.1,0.9c0,0.8,0.2,1.6,0.2,2.4c0,0.3,0,0.7-0.1,1l0,4.2c0,1,0.1,2.2,0.2,3.1
			c0,0.2,0,0.4-0.1,0.6h0.3c0.3-0.6,0.2-1.4,0.2-2.1c0-0.8,0.1-1.7,0.1-2.6c-0.1-0.5-0.2-1.1-0.2-1.6c0-0.6,0.2-1.1,0.2-1.7
			c0-0.9-0.1-1.7-0.1-2.6c0.1-0.9,0.1-1.8,0.2-2.8c0-0.7,0-1.4,0-2.1c0-0.3-0.1-0.6-0.1-0.9c0-0.5,0.1-0.8,0.1-1.3l-0.1-2.2
			c0-1.1,0.1-2.3,0.1-3.4C147.6,116.8,147.7,115.7,147.7,114.6 M145.2,125.5c0,0.1-0.4,0.7-0.4,0.3c-0.1-0.2-0.1-0.5-0.1-0.8
			c0-0.7,0-1.4,0-2.1c0-0.9,0-1.8,0-2.7c0-0.7-0.1-1.5,0.2-2.1c0.2,0.1,0.4,0.3,0.4,0.5c0.2,0.8,0,1.7,0,2.6
			C145.3,122.4,145.6,124.5,145.2,125.5 M145.4,115.1C145.4,115.1,145.4,115.2,145.4,115.1c-0.6,0-0.7-0.5-0.4-0.9
			C145.3,114.3,145.6,115.1,145.4,115.1 M146.4,123.9h-0.1c-0.2-0.6-0.1-1.1-0.1-1.8c0-0.8-0.2-1.7,0.2-2.4c0.2,0,0.4,0.1,0.5,0.3
			C147.1,120.5,147.1,123.9,146.4,123.9"/>
		<path class="st6" d="M143.2,122.2c0-0.4-0.1-0.9-0.1-1.3c0-1.8,0.1-3.6,0.1-5.3l-0.1-1.6c0-1.4,0-2.7-0.1-4
			c-0.1-0.4-0.1-0.8-0.2-1.2c-0.1-0.5,0-1,0-1.5c0-0.2,0-0.6-0.2-0.6c-0.3-0.2-0.7-0.1-1.1-0.1c-0.5,0-0.9-0.1-1.4-0.1
			c-0.5,0.2-1.2,0.1-1.8,0.2c-2.6,0.5-5.1,0.9-7.4,2.1c-0.6,0.3-1.2,0.6-1.6,1.1c-0.3,0.4-0.3,0.9-0.4,1.4c-0.2,1.2-0.2,2.5-0.2,3.9
			c0,0.7-0.1,1.3-0.1,2c0,1,0,1.9,0,2.9c0,0.4-0.1,0.8-0.1,1.1c-0.1,0.9-0.1,1.9-0.1,2.8c0,1.4,0,2.8,0.1,4.1c0,1.3,0,2.6,0,3.9
			c0,0.4,0.1,0.7,0.1,1.1c0,0.2-0.1,0.4-0.1,0.6c0,0.6,0.1,1.2,0.1,1.9c0,1.8-0.1,4,0.6,5.4c0,0.1,0.3,0.4,0.3,0.2
			c0.8-0.3,1.5-0.9,2.2-1.3c0.7-0.4,1.4-0.6,2-0.9c0.8-0.4,1.2-0.7,2.2-0.7c0.3-0.2,1.2-0.4,1.6-0.4c0.2,0,0.3,0,0.5-0.1
			c0.1,0,0.3,0,0.4-0.1c0.8-0.4,2.5,0,3.3,0.2c0.4,0.1,0.8,0.2,1.1,0.3c0.2-1.1,0-2.4,0-3.4c0-0.6,0.1-1.2,0.1-1.8
			c0-0.8,0-1.6,0-2.3c0-0.4,0.1-0.8,0.1-1.1c0-0.9,0-1.8,0-2.6c0-0.5,0.1-1.1,0.1-1.6C143.2,124.2,143.3,123.2,143.2,122.2
			 M130,124.8c1.7-1.6,3.9-2.4,6-3.2c0.7-0.3,1.4-0.8,2.2-0.7c0.3-0.2,0.9-0.5,1.2-0.5v-0.1c0.4,0.1,0.7,0.2,0.7,0.7
			c0,0.4-0.2,0.7-0.5,0.9c-0.6,0.4-1.4,0.5-2.1,0.7c-0.8,0.3-1.6,0.6-2.5,0.8c-0.6,0.2-1.1,0.3-1.6,0.5c-1,0.4-1.9,0.9-2.8,1.4
			c-0.3,0.2-0.6,0.5-1,0.5c-0.1,0-0.2,0-0.3-0.1C129.1,125.5,129.8,125,130,124.8 M140,130.6c-0.6,0.3-1.3,0.3-2,0.5
			c-0.6,0.1-1.2,0.3-1.9,0.5c-2.1,0.5-3.9,1.3-5.7,2.4c-0.2,0.1-0.8,0.7-1,0.3c-0.2-0.3,0.3-0.6,0.5-0.7c0.7-0.6,1.4-1,2.2-1.5
			c0.9-0.5,1.7-1,2.6-1.4c0.3-0.2,0.6-0.3,0.9-0.5c1.2-0.5,2.4-0.7,3.6-1.1c0.3,0,0.7,0,1,0.1C140.6,129.5,140.5,130.4,140,130.6
			 M140.1,113.2c-0.3,0.2-0.7,0.3-1,0.4c-0.8,0.2-1.6,0.5-2.4,0.7c-1.1,0.3-2.2,0.8-3.3,1.3c-0.7,0.4-1.5,0.8-2.2,1.3
			c-0.1,0.1-1.1,0.6-1.1,0.3H130c0.1-0.8,1-1.3,1.6-1.6c0.3-0.2,0.6-0.4,0.9-0.6c0.7-0.5,1.5-0.9,2.3-1.3c0.8-0.4,1.7-0.6,2.5-0.9
			c0.3-0.1,0.6-0.3,0.9-0.4c0.4-0.1,0.8-0.3,1.2-0.4c0.3,0,0.6,0,0.9,0.1C140.7,112.3,140.4,113,140.1,113.2 M126.9,112.7
			c-0.1-1.1,0-2.2-0.6-3c-1.1-1.5-2.6-2.1-4.3-2.7c-0.4-0.2-0.9-0.3-1.3-0.5c-0.5-0.1-1-0.2-1.5-0.3c-0.8-0.2-1.6-0.4-2.4-0.4
			l-3.4,0c-0.3,0.2-0.9,0.1-1.1,0.4c-0.2,0.3-0.1,1.6-0.1,2.1c0,1.9-0.1,3.9-0.1,5.8c0,1.2,0,2.3,0,3.5c-0.1,1-0.1,1.9-0.2,2.9
			c0,0.7,0.3,1.3,0.2,2.1c0,1.4-0.1,3-0.1,4.5c-0.1,0.6-0.1,1.2-0.2,1.8c0,1.3,0.1,2.5,0,3.7c0,0.6-0.1,1.2-0.1,1.8
			c0,0.6,0.2,1.1,0.2,1.6c0,0.6-0.1,1.3-0.1,1.9c0.3,0,0.5,0,0.8,0c0.2-0.1,0.5-0.1,0.7-0.1c0.2-0.1,0.5-0.1,0.7-0.1
			c0.2,0,0.3,0,0.5-0.1c0.7-0.3,2.5,0.1,3.2,0.2c0.9,0.2,1.7,0.1,2.6,0.3c1,0.2,2.5,0.8,3.4,1.3c0.3,0.2,2.1,1.5,2.2,1.5v-0.1
			c0.5-0.8,0.4-1.5,0.5-2.4c0.1-1.1,0.2-2.1,0.2-3.3c0.1-1.6,0.2-3.3,0.2-5c0-0.7,0-1.4,0-2.1c0.1-2.1,0.1-4,0.1-6.1
			C126.9,119.1,127.1,115.8,126.9,112.7 M124.3,134.3c-1.2-0.6-2.5-1-3.8-1.4c-0.5-0.1-0.9-0.2-1.4-0.3c-0.7-0.1-1.4-0.3-2.1-0.5
			c-0.8-0.1-1.6-0.2-2.4-0.3c-0.1,0-0.2-0.1-0.3-0.1c-0.6-0.4-0.7-1.6,0.3-1.6V130c0.6,0,1,0.2,1.5,0.3c0.5,0.1,1,0.2,1.5,0.3
			c0.4,0.2,0.9,0.3,1.3,0.5c1.3,0.4,2.4,0.8,3.6,1.4c0.3,0.1,0.6,0.2,0.8,0.3c0.7,0.3,1.7,1,2.2,1.6c0.2,0.2,0.5,0.3,0.5,0.7
			C125.3,135,124.8,134.5,124.3,134.3 M126,126.5c-0.1,0-0.1,0-0.2,0.1c0,0,0,0-0.1,0c-0.5,0.1-2.5-1.6-3.1-1.9
			c-0.7-0.3-1.5-0.6-2.2-0.9c-1-0.4-2-0.8-3.1-1c-0.4-0.1-0.9-0.1-1.3-0.2c-0.6,0-1.5,0.1-1.9-0.2c-0.5-0.4-0.2-1.6,0.5-1.6v-0.1
			c3.1,0.2,5.9,1.7,8.4,3.1c0.7,0.4,2.5,1.5,2.8,2.2C126,126.2,126.1,126.5,126,126.5 M126.3,117.6c-0.1,0.2-0.3,0.2-0.5,0.1
			c-0.4-0.1-0.7-0.5-1.1-0.7c-0.4-0.2-0.8-0.5-1.2-0.7c-2.2-1.1-4.7-1.8-7.1-2.4c-0.7-0.2-1.6-0.1-2.2-0.5c-0.5-0.3-0.5-1-0.1-1.3
			c1,0,1.9,0.3,2.8,0.6c0.3,0.1,0.6,0.1,0.8,0.2c0.6,0.2,1.2,0.4,1.7,0.6c0.5,0.2,1,0.4,1.5,0.5c0.2,0.1,0.5,0.3,0.7,0.4l2.1,1
			C124.1,115.5,126.5,117,126.3,117.6"/>
		<path class="st7" d="M81.3,75.9c-0.9,0.3-2.9-0.1-3.3,0.3c-0.3,0.4-0.2,7.5-0.3,8.9c-0.1,2.3-0.1,4.9,0,7.2c0,1-0.1,2.2,0.3,3.1
			c0.5,1.1,3.5,3.7,4.5,4.8c4.1,4.3,8.5,8.4,12.7,12.6c2.7,2.6,5.4,5.2,8.1,7.8c0.2,0.2,0.8,0.9,0.8,0.6h0.3c0.2-1,0.2-2.3,0.2-3.4
			c0-2.7-0.2-5.3-0.2-7.8c0.1,0,0.1,0,0.2,0v-0.2c0.7,0,1.5,0.1,2-0.2c2.4-1.3,2.9-4.6,6.3-4.6c0.7-0.3,1.8-0.2,2.6-0.2
			c3.8,0,7.1,0.7,10,2.5c0.2,0.1,0.8,0.3,0.8,0.6c0.2-0.4,0.1-0.8-0.1-1.1c-0.8-1.2-2.2-2.1-3.3-3c-1.2-1.3-2.5-2.5-3.7-3.8
			c-0.6-0.6-1.3-1.2-1.9-1.8c-5.5-5.5-11-11.2-16.6-16.6c-1.4-1.4-4.3-4.4-5.9-5.1c-0.7-0.3-2.5-0.3-3.6-0.1c-1.6-0.1-3.3,0-4.9-0.1
			C84.6,75.9,82.8,76.1,81.3,75.9 M164.7,76c-1.2,0.1-3.4-0.3-4.4,0.3c-1.5,0.9-3.3,3-4.5,4.2c-1,1-1.9,1.9-2.9,2.9
			c-5.5,5.5-11.1,10.8-16.4,16.4c-1.4,1.5-6.9,6.6-6.9,8.2h0.5v-0.2c1.9-0.7,3.6-1.9,5.8-1.9c0.4-0.3,1-0.4,1.5-0.4
			c0.8-0.3,2-0.2,2.9-0.2c1,0,2.5-0.2,3.3,0.2c0.6,0.3,0.8,1,1.1,1.5c1.2,1.7,2.9,2.6,5.1,2.6c0.1,3.5,0,7.2,0,10.8
			c0.1,0.7,0.1,1.4,0.2,2.1h0.2c5.2-4.9,9.9-10.3,15.1-15.2c2.5-2.4,5.1-4.9,7.8-7.4c1-1,3.3-2.8,4-4c0.9-1.6,0.5-4.3,0.5-6.2
			c0-1.9,0.3-12.5-0.2-13c-0.4-0.4-2.5-0.3-3.6-0.3C170.8,76.2,167.6,76.1,164.7,76 M150.5,130.6c-0.3,1.1,0,2.2,0,3.4
			c-0.1,3.8,0,7.4,0,11.3c-3.1-0.3-6.7-0.3-10.1-0.2c-2.2,0.1-4.5,0.4-6.8,0.4c-0.4,0-1.9,0-1.9,0.3c-0.2,0.3-0.4,1.7-0.9,1.7
			c0.6,1.8,2.6,3.3,4,4.6c0.6,0.6,1.2,1.2,1.7,1.9c0.8,0.7,1.6,1.4,2.5,2.2c0.9,1,1.7,1.9,2.6,2.9c1.3,1.4,2.8,2.5,4.1,3.8
			c1.3,1.4,2.6,2.7,3.9,4.1c2,1.8,4,3.8,6,5.7c1.2,1.2,2.6,2.1,3.7,3.5c0.8,0.8,1.7,1.6,2.5,2.5c0.9,0.9,1.8,1.9,2.8,2.9
			c0.9,0.9,2.1,2.4,3.2,3c0.5,0.3,1.2,0.4,1.9,0.4c0.7-0.3,1.4-0.6,2-0.9c1.6-0.6,3.4-1.9,4.5-3.3c1.4-2,1.2-4.5,1.3-7.1
			c0.1-2.9,0.1-6.1,0.1-9.1c0-2.1,0.5-4.8-0.3-6.6c-0.5-0.9-1.8-2-2.5-2.7c-1.3-1.2-2.5-2.4-3.8-3.6c-2-2.1-3.9-4.1-5.9-6.2
			c-1.2-1.2-2.5-2.3-3.7-3.6c-2.8-2.9-5.4-6-8.3-8.8C152,132.1,151.4,131,150.5,130.6 M104.2,130.9v0.2c-0.9,0.4-1.8,1.5-2.6,2.2
			c-2.2,2-4.2,4.4-6.4,6.5c-1.9,1.8-3.7,3.6-5.6,5.5c-2.2,2.2-4.6,4.7-6.7,7c-1.3,1.4-5.3,4.6-5.8,6.3c0,0.1,0,0.2-0.1,0.3
			c-0.5,3.3-0.2,6.5-0.2,9.9c0,6.1-1.2,13.1,4.7,16c1.4,0.7,3.9,2,4.8,1.1c2.9-2.8,6.1-5.7,9-8.5c1.1-1.1,2.1-2.4,3.1-3.5
			c1-1.1,2.3-2,3.3-3.2c1.1-1.1,2-2.3,3-3.5c1.4-1.2,2.7-2.4,4-3.6c0.9-1,1.8-2,2.8-3c1.3-1.2,2.6-2.5,3.8-3.7
			c1.7-1.7,3.3-3.5,5.1-5.1c1.2-1.1,2.7-2.2,3.6-3.6c0.2-0.4,0.2-0.9,0-1.2c-0.4-0.8-1.4-0.9-2.2-1.1c-1.9-0.3-3.6,0.1-5.4,0.1
			c-4.1,0-8.2,0-12.3,0c0-4,0.4-7.9,0.2-11.8C104.5,133.1,104.8,131.7,104.2,130.9"/>
		<path class="st8" d="M122.4,50c-1.1,0.1-2.2,0.3-3.2,0.4c-0.9,0.2-1.9,0.3-2.9,0.4c-2.2,0.4-4.4,0.8-6.6,1.3
			c-3.1,0.6-6.1,1.9-8.9,3.1c-5.3,2.2-10.4,4.8-15.2,8c-1.1,0.8-9.2,6.4-9.2,7.2c1.3,0.1,2.6,0.2,3.9,0.3c3.1,0.2,6.4,0.1,9.6,0.1
			c1.9,0.1,3.9,0.2,5.8,0.3c0.8-0.4,2-0.2,2.9-0.2c2.6,0,5.2,0.2,7.7,0.2c1.3-0.5,3.4-0.1,4.8,0c4.3,0,8.5,0,12.8,0
			c4.8,0.1,9.6,0.2,14.3,0.3c8.8-0.1,17.6-0.2,26.5-0.4c0.7-0.2,1.6,0,2.4,0c1.5,0,3.1,0.1,4.6,0.1c0.8,0,1.6-0.1,2.4-0.1
			c1.5,0,3.2,0.2,4.8,0.1c0.4,0,1.4,0.1,1.7,0.1c1.1,0-0.9-1.5-1.2-1.9c-1.1-1.3-2.4-2.1-3.7-3c-0.8-0.6-1.6-1.2-2.4-1.9
			c-1.6-1.1-3.2-2.2-4.8-3.2c-10.1-6.1-19.8-9.7-32.4-10.9c-1.8,0-3.6-0.1-5.5-0.1C128,50.1,125.1,50,122.4,50 M72.1,74.3
			c-1.1,1.1-2.7,2.7-3.8,3.9c-2.3,3.1-4.5,6.1-6.8,9.2c-4.8,8.1-7.7,16.5-9.8,25.9c-0.3,1.5-0.3,3-0.5,4.6
			c-0.7,7.8-0.9,16.5,0.3,24.1c0.3,1.3,0.7,2.5,1,3.8c0.4,2.1,0.7,4,1.3,6c0.7,1.6,1.3,3.2,2,4.8c0.8,2.4,2,4.5,3.1,6.7
			c2.7,5.2,5.7,10.1,9.5,14.8c0.5,0.7,1.9,2.6,2.9,2.6v-0.2c0.8-1.4,0.2-5.8,0.2-7.5c0-3,0-5.9,0-8.9c0-2.6-0.1-5.4,0-8.2
			c0.3-5.9,0-12,0.1-17.9c0.1-5,0.3-10.2,0.3-15.4c0-4.8-0.3-10.1,0.1-14.8c0-0.5-0.1-1-0.1-1.6l0-4.4l0.2-6.1
			c-0.1-4.4-0.1-8.9-0.3-13.3C71.8,79,72.2,76,72.1,74.3 M184.7,74.8c-0.2,3,0.3,7.7,0.2,10.9c-0.1,6.8-0.1,13.6-0.1,20.7
			c0,11.5,0,22,0,33.1c0,6.2-0.3,12.4,0,18.8c0,2.6,0,5.1-0.1,7.7c0,4.7,0.5,9.6-0.4,14.2c-0.1,0.3-0.7,2.3-0.2,2.3
			c1.6,0,9-10.7,10.1-12.4c0.7-1.4,1.5-2.7,2.2-4.1c0.4-0.9,0.8-1.9,1.2-2.8c1.4-2.6,3.1-5.7,4-8.5c2-5.9,3.2-12,4.1-18.6
			c0.3-2.1,0.2-4.2,0.2-6.5c0.1-1.2,0.1-2.4,0.2-3.6c-0.1-6.4-0.9-13.2-2.5-18.8c-1.6-5.6-4.2-11.1-7-16.1c-1-1.8-2.2-3.4-3.3-5.1
			C191.9,83.6,185.7,74,184.7,74.8 M174.4,190.5c-4.4,3.3-13.5,3.6-19.3,4.3c-1.5,0.2-3,0.4-4.5,0.6c-7.2,0.3-16.7,1-19.3,8.4
			c-0.3,0.8-0.2,1-0.5,1.8c-0.1,0.7,3.2,0,4.8,0c0.4-0.2,1.2-0.2,1.7-0.2c0.3-0.1,0.7-0.1,1-0.2c0.9-0.5,2.2-0.5,3.2-0.5
			c0.7-0.4,1.7-0.3,2.6-0.3c0.9-0.5,3.2-0.9,4.4-0.9c2-0.7,4.1-1.4,6.1-2.1c5.8-2.3,11.9-4.7,16.9-8.7
			C172.3,192.2,173.3,192,174.4,190.5 M84.5,191.9c1.3,1.5,3.1,1.9,4.7,3c0.9,0.7,2.2,1.4,3.1,2c3.5,1.7,6.1,3.1,9.7,4.2
			c3.9,1.3,7.8,2.5,12,3.3c1.4,0.3,11.2,2,11.5,1.1c0.6-1.5-2.6-5.1-3.7-6c-1-0.9-2.3-1.4-3.4-2c-1.1-0.6-2.4-0.9-3.6-1.3
			c-1.6-0.4-3.1-0.9-4.8-1.2c-1.6-0.3-3.2-0.3-4.9-0.5c-1.5-0.2-3-0.5-4.5-0.7c-1.9-0.3-3.9-0.2-5.8-0.5
			C91.4,192.9,88.1,192.1,84.5,191.9"/>
	</g>
</g>
</svg>
