<?xml version="1.0" encoding="utf-8"?>
<!-- Generator: Adobe Illustrator 26.3.1, SVG Export Plug-In . SVG Version: 6.00 Build 0)  -->
<svg version="1.1" id="affiliation" xmlns="http://www.w3.org/2000/svg" xmlns:xlink="http://www.w3.org/1999/xlink" x="0px"
	 y="0px" viewBox="0 0 256 256" style="enable-background:new 0 0 256 256;" xml:space="preserve">
<style type="text/css">
	.st0{fill:#FFFFFF;}
	.st1{display:none;fill:#FFFFFF;}
	.st2{fill:#00557F;}
</style>
<rect id="black" width="256" height="256"/>
<circle id="background_x5F_circle" class="st0" cx="128" cy="128" r="128"/>
<path id="background_x5F_rectangle" class="st1" d="M206.9,256H49.1C22.1,256,0,233.9,0,206.9V49.1C0,22.1,22.1,0,49.1,0H207
	c27,0,49.1,22.1,49.1,49.1V207C256,233.9,233.9,256,206.9,256z"/>
<g id="logo">
	<g>
		<path class="st2" d="M204.5,74c-0.2,0-2.2,1.7-4.4,2.2c-0.2,1.7-1,3.4-2.6,4.6c-1.2,0.9-2.4,1.2-3.8,1.2c-0.5,0-1,0-1.5-0.2
			c-1.2,2.1-3.4,3.4-3.4,3.6l-0.3,0.3l-0.3-0.3c-0.2,0-2.2-1.5-3.6-3.6c-0.5,0.2-1,0.2-1.4,0.2c-1.2,0-2.6-0.3-3.8-1.2
			c-1.5-1.2-2.4-2.7-2.6-4.6c-2.2-0.5-4.4-2.2-4.4-2.2l-0.3-0.3l0.2-0.5c0-0.2,0.9-2.6,2.2-4.4c-0.9-1.5-1.2-3.4-0.7-5.1
			c0.5-1.5,1.7-2.9,3.1-3.6c0.2,0,0.3-0.2,0.5-0.2c-0.2-2.4,0.7-4.8,0.7-5l0.2-0.5h0.5c0.2,0,2.7,0,5,0.9c1.2-1.4,2.9-2.2,4.8-2.2
			s3.6,0.9,4.8,2.2c2.2-0.9,4.8-0.9,5-0.9h0.5l0.2,0.5c0,0.2,0.9,2.6,0.7,5c0.2,0,0.3,0.2,0.3,0.2c1.5,0.7,2.6,2.1,3.1,3.6
			c0.5,1.9,0.3,3.8-0.7,5.1c1.5,1.9,2.2,4.3,2.4,4.4l0.2,0.5L204.5,74z M194.9,165.5c-5.1,16.1-12.7,29.9-22.4,41.2
			c-11.6,13.7-26.7,23.8-44.5,29.9c-17.8-6.2-32.7-16.3-44.5-29.9c-9.8-11.3-17.3-25.3-22.6-41.2c-7.2-21.9-8-42.1-8.2-49.4
			c1.4-0.5,3.3-1.2,5.5-2.1c1.5,4.6,5,8.9,10.6,12.8c7.5,5.3,15.6,7.5,15.9,7.7c0,0,16.4,4.8,26.2,7.7c6.2,2.1,6,6.5,5,9.8
			c0,0.2-0.2,0.3-0.2,0.5c-0.2,0.3-0.3,0.9-0.5,1.2l0,0c-0.2,0.3-0.3,0.9-0.5,1.2c-0.3-0.3-0.9-3.9-7.7-7.4s-17.1-1.9-18.3-1.2
			c-0.5,0.3-0.7,0.5-0.2,1c0.3,0.2,0.7,0.3,0.9,0.7c1.5,1.7,1.4,5.5,6.2,10.4c1.5,1.4,3.1,2.4,4.8,3.3c6.8,3.3,9.9,1.7,11.1,1.5
			c0,0.2-0.2,0.5-0.2,0.7c-10.4,18.3-14.5,34-15.1,47.2l2.1,1.7c4.1,3.4,8.4,6.5,13,9.4l0,0l3.8,2.2c4.1,2.2,8.4,4.1,12.8,5.8
			c12.3-4.6,23.1-11.1,32.3-19.7c0,0,1.2-1.2,1.9-1.9c-1.4-0.2-2.7-0.2-4.1-0.3c-17.6-0.7-22.8-7.7-19.7-18.3c0.2-0.3,0.7-1.4,0-2.1
			c-0.5-0.5-1.5-0.2-1.9,0c-18.1,8.6-23.3,34.2-23.3,34.2s-0.7-20.4,13.5-34s26.2-10.9,26.7-10.9c5.8,1.4,7-2.1,7.4-4.8
			c0-0.3,0.2-0.7,0.5-1c2.7-1.9,5.6-9.2,2.6-12c-1.5-1.4-7.4-2.9-8.9-3.4c-1.4-0.5-2.6-0.9-3.8-1.5c-0.7-0.3-1.4-0.9-1.7-1.7
			c-1-3.1-3.9-4.6-4.6-5.1c6-1.4,12.5-4.8,19.3-10.1c2.1-1.7,3.8-3.4,5.1-5.3c1.4-1.5,1.4-3.1,3.8-4.1c5-2.4,4.8-5,3.9-5.8
			c-0.9-0.9-3.9,0.3-4.3,0.7c0.2-1.4,0-2.9-0.2-4.3v-0.2c0-0.2,0-0.2,0-0.3s0-0.3-0.2-0.7v-0.2c-1-5-3.8-9.2-6.7-12.3
			c18,3.4,31.3,8.6,36.8,10.8C202.8,123.6,202.1,143.6,194.9,165.5 M70.2,122.1c-3.6-2.2-6.3-5.6-7.7-9.6c2.2-0.7,4.8-1.5,7.5-2.4
			l0,0C69.3,113.4,69,118,70.2,122.1 M51.2,74l-0.3-0.3l0.2-0.5c0-0.2,0.9-2.6,2.2-4.4c-0.9-1.5-1.2-3.4-0.7-5.1
			c0.5-1.5,1.7-2.9,3.1-3.6c0.2,0,0.3-0.2,0.5-0.2c-0.2-2.4,0.7-4.8,0.7-5l0.2-0.5h0.5c0.2,0,2.7,0,5,0.9c1.2-1.4,2.9-2.2,4.8-2.2
			s3.6,0.9,4.8,2.2c2.2-0.9,4.8-0.9,5-0.9h0.5l0.2,0.5c0,0.2,0.9,2.6,0.7,5c0.2,0,0.3,0.2,0.3,0.2c1.5,0.7,2.6,2.1,3.1,3.6
			c0.5,1.9,0.3,3.8-0.7,5.1c1.5,1.9,2.2,4.3,2.4,4.4l0.2,0.5L83.3,74c-0.2,0-2.2,1.7-4.4,2.2c-0.2,1.7-1,3.4-2.6,4.6
			c-1.2,0.9-2.4,1.2-3.8,1.2c-0.5,0-1,0-1.5-0.2c-1.2,2.1-3.4,3.4-3.4,3.6l-0.3,0.3l-0.3-0.3c-0.2,0-2.2-1.5-3.6-3.6
			c-0.5,0.2-1,0.2-1.4,0.2c-1.2,0-2.6-0.3-3.8-1.2c-1.5-1.2-2.4-2.7-2.6-4.6C53.4,75.7,51.4,74.2,51.2,74 M133.3,126.7L133.3,126.7
			c0.2-0.3,3.6-7.7,5.8-13c1.9-4.8-1.9-9.6-4.4-12.1c8.7,0.3,16.9,1.2,24.6,2.4c1,1,2.2,1.9,2.4,2.7c-7-0.7-10.8,0.9-10.4,3.4
			c0.2,1,1.7,1.4,3.1,1c1.2-0.2,6.5-0.7,10.4,2.2c1.7,1.4,2.9,3.6,3.1,6.7v0.2c0,0.3,0,0.5,0,0.9c0.2,4.8-2.1,9.1-6.5,12.5
			c-14.4,11.3-22.8,9.8-24,9.4c-3.9-2.4-5.8-5.6-5.8-9.9C131.9,129.8,133.3,126.9,133.3,126.7 M126.3,112.3c1.2,0.5,4.4,2.6,5.3,4.8
			c0.3,0.9-0.3,1.9-0.7,2.7c-1.2,2.4-2.1,4.4-2.2,4.6c-0.3,0.5-1.9,3.9-2.1,8.4c-0.2,2.9,0.3,6.7,3.1,10.1c-0.3,0-0.5,0-0.5,0
			c-2.6-0.2-5.1,0.2-6.3,0.3c-1.2,0-1.7-0.5-2.2-1.2c-1.5-2.2-4.1-4.3-8-5.3c-4.8-1.4-11.1-3.1-16.3-4.4l0,0
			c-10.1-2.7-7.4-8.7-9.8-8.6c-2.4,0.2-1.2,4.3-0.2,5.8c-4.1-0.9-6.2-2.4-6.2-2.4c-7.4-6-7-13.2-5.5-18.3
			c13.9-3.8,32.7-7.4,53.6-7.4c0.2,0,0.5,0,0.7,0c2.4,1.9,7.2,6.5,5.5,10.3c-0.2,0.3-0.2,0.5-0.3,0.9c-3.1-2.1-6.2-3.3-6.7-3.6
			c-1.4-0.5-2.6-0.7-2.9,0.3C124.1,110.6,125.1,111.7,126.3,112.3 M88.8,50.2c0-0.2,0.2-0.5,0.3-0.7c0.2-0.2,0.5-0.2,0.7-0.2
			l1.9,0.3v-3.9c0-0.3,0.2-0.5,0.3-0.7c0.2-0.2,0.5-0.2,0.9-0.2l1.7,0.5v-2.9c0-0.7,0.3-1.4,1-1.7c0.3-0.2,0.7-0.2,0.9-0.2
			c0.3,0,0.7,0.2,1,0.3s0.5,0.3,0.9,0.5c1.4,0.9,2.9,1.9,7.4,2.9c1.2,0.3,2.9,0.5,4.6,0.9c2.9,0.5,6.3,1.2,9.4,2.1
			c3.8,1.2,6.3,2.6,7.7,4.4c0.3,0.3,0.3,0.7,0.3,1.2c0-0.3,0.2-0.9,0.3-1.2c1.5-1.9,3.9-3.3,7.7-4.4c3.1-0.9,6.5-1.5,9.4-2.1
			c1.7-0.3,3.4-0.7,4.6-0.9c4.4-1,6-2.1,7.4-2.9c0.3-0.2,0.5-0.3,0.9-0.5c0.3-0.2,0.7-0.3,1-0.3c0.3,0,0.7,0,0.9,0.2
			c0.5,0.3,1,1,1,1.7v2.9l1.7-0.5c0.3-0.2,0.5,0,0.9,0.2c0.2,0.2,0.3,0.3,0.3,0.7v3.9l1.9-0.3c0.2,0,0.5,0,0.7,0.2
			c0.2,0.2,0.3,0.3,0.3,0.7v31.7c0,3.1-2.2,4.3-7.9,3.9c-19.2-0.5-26.3,4.4-26.3,4.4c0,1.7-1.9,2.9-4.6,2.9c-2.9,0-4.6-1-4.6-2.9
			c0,0-7.2-5-26.3-4.4c-5.6,0.3-7.9-1-7.9-3.9V50.2H88.8z M209.4,45.8c-1.4-0.7-36.3-16.6-81.6-16.6S47.6,45.1,46.2,45.8l-2.7,1.4
			v73.2l0,0c0.3,9.9,1.9,28.1,8.6,48.1c12.8,39.2,38.7,66.2,74.8,78.2c0.5,0.2,1,0.2,1.5,0.2c0.5,0,1,0,1.5-0.2
			c36.1-12,61.9-39,74.4-78.2c6.3-19.8,7.9-38,8.2-47.9l0,0v-0.2V47.3L209.4,45.8z"/>
		<path class="st2" d="M63.3,61.4c0,0-0.5-0.7-0.5-2.1c0-2.6,2.1-4.4,4.4-4.4c2.6,0,4.4,2.1,4.4,4.4c0,1.4-0.5,2.1-0.5,2.1l-1.9,2.6
			c-0.3-0.2-0.9-0.3-1.4-0.3v-1.9c0-0.3-0.3-0.7-0.7-0.7c-0.3,0-0.7,0.3-0.7,0.7v1.9c-0.5,0-0.9,0.2-1.4,0.3L63.3,61.4z M71.7,66.3
			l1.9-0.5c0.3-0.2,0.9,0.2,0.9,0.5c0.2,0.3,0,0.9-0.5,0.9l-1.9,0.5c0,0.2,0,0.5,0,0.7s0,0.5,0,0.7l3.1,1c0,0,0.9,0.3,2.2-0.2
			c2.4-0.9,3.6-3.3,2.9-5.6c-0.3-1.2-1.2-2.1-2.2-2.6c-1-0.5-2.2-0.7-3.4-0.3c-1.4,0.3-1.9,1-1.9,1.2l-1.9,2.7
			C71.2,65.5,71.4,65.8,71.7,66.3 M73.6,59.8c0.2,0,0.3-0.2,0.5-0.2c1-0.3,1.9-0.3,2.9-0.2c0-1.4-0.3-2.7-0.5-3.6
			c-0.7,0-2.2,0.2-3.6,0.7c0.5,0.9,0.7,1.9,0.7,2.9C73.6,59.5,73.6,59.6,73.6,59.8 M60.6,59.6c0.2,0,0.3,0.2,0.5,0.2
			c0-0.2,0-0.3,0-0.5c0-1,0.2-2.1,0.7-2.9c-1.4-0.5-2.7-0.5-3.6-0.5c-0.2,0.7-0.5,2.2-0.5,3.6C58.7,59.3,59.6,59.3,60.6,59.6
			 M57.2,69.9c1.2,0.3,2.1,0.2,2.2,0.2l3.1-1c0-0.2,0-0.5,0-0.7s0-0.5,0-0.7l-1.9-0.5c-0.3-0.2-0.5-0.5-0.5-0.9
			c0.2-0.3,0.5-0.5,0.9-0.5l1.9,0.5c0.2-0.5,0.5-0.9,0.9-1.2l-1.9-2.7c0,0-0.5-0.7-1.9-1.2C59.4,61,59.1,61,58.5,61
			c-0.7,0-1.4,0.2-2.1,0.5c-1,0.5-1.9,1.5-2.2,2.6C53.6,66.5,54.9,69.1,57.2,69.9 M65.6,78.5c0.9-1,0.9-1.9,0.9-2.1v-3.3
			C65.9,73,65.6,73,65,72.6l-1.2,1.5c-0.2,0.2-0.3,0.3-0.5,0.3s-0.3,0-0.5-0.2c-0.3-0.2-0.3-0.7-0.2-1l1.2-1.5
			c-0.3-0.3-0.7-0.7-0.9-1.2l-3.1,1c0,0-0.9,0.3-1.7,1.4c-1.5,2.1-1,4.8,1,6.3C61.3,80.9,64.2,80.5,65.6,78.5 M125.9,88.4V53.1
			c0-1-4.8-4.3-15.6-5.6c-10.8-1.5-13.9-4.8-13.9-4.8v38c1.9,1.5,2.2,1.4,14.5,2.7C124.1,85,125.9,88.4,125.9,88.4 M144.6,83.4
			c12.5-1.4,12.8-1.2,14.5-2.7v-38c0,0-3.1,3.3-13.9,4.8c-10.8,1.5-15.6,4.8-15.6,5.6v35.2C129.7,88.4,131.6,85,144.6,83.4
			 M56.8,72.1c0.2-0.2,0.2-0.3,0.3-0.3c-0.2,0-0.3,0-0.5-0.2c-1-0.3-1.9-0.9-2.6-1.5c-0.9,1-1.4,2.4-1.7,3.3
			c0.7,0.3,1.9,1.2,3.3,1.5C56,73.8,56.3,73,56.8,72.1 M67.6,79.5c-0.2-0.2-0.2-0.3-0.3-0.3c0,0.2-0.2,0.3-0.3,0.3
			c-0.7,0.9-1.4,1.5-2.2,1.9c0.9,1.2,1.9,2.1,2.6,2.6c0.7-0.5,1.7-1.4,2.6-2.6C69,81,68.1,80.3,67.6,79.5 M77.9,71.6
			c-0.2,0-0.3,0.2-0.5,0.2c0.2,0.2,0.2,0.2,0.3,0.3c0.7,0.9,1,1.7,1.2,2.7c1.4-0.3,2.6-1.2,3.3-1.5c-0.3-0.7-0.9-2.1-1.7-3.3
			C79.8,70.8,78.9,71.3,77.9,71.6 M74.8,71.8C74.6,71.8,74.6,71.8,74.8,71.8l-3.1-1c-0.2,0.3-0.5,0.9-0.9,1.2l1.2,1.5
			c0.2,0.3,0.2,0.9-0.2,1c-0.2,0.2-0.3,0.2-0.5,0.2c-0.2,0-0.5-0.2-0.5-0.3l-1.2-1.5c-0.3,0.2-0.9,0.3-1.4,0.5v3.4
			c0,0,0,0.9,0.9,2.1c1.5,2.1,4.3,2.4,6.3,1c2.1-1.5,2.4-4.3,1-6.3C75.5,72,74.8,71.8,74.8,71.8 M67.3,72.1c2.1,0,3.8-1.7,3.8-3.8
			c0-2.1-1.7-3.8-3.8-3.8s-3.8,1.7-3.8,3.8C63.5,70.4,65.2,72.1,67.3,72.1 M195.8,71.8L195.8,71.8l-3.1-1c-0.2,0.3-0.5,0.9-0.9,1.2
			l1.2,1.5c0.2,0.3,0.2,0.9-0.2,1c-0.2,0.2-0.3,0.2-0.5,0.2c-0.2,0-0.5-0.2-0.5-0.3l-1.2-1.5c-0.3,0.2-0.9,0.3-1.4,0.5v3.4
			c0,0,0,0.9,0.9,2.1c1.5,2.1,4.3,2.4,6.3,1c2.1-1.5,2.4-4.3,1-6.3C196.6,72,195.8,71.8,195.8,71.8 M201.2,64.3
			c-0.3-1.2-1.2-2.1-2.2-2.6c-1-0.5-2.2-0.7-3.4-0.3c-1.2,0.3-1.9,1-1.9,1.2l-1.9,2.7c0.3,0.3,0.7,0.7,0.9,1.2l1.9-0.5
			c0.3-0.2,0.9,0,0.9,0.5c0.2,0.3-0.2,0.9-0.5,0.9L193,68c0,0.2,0,0.5,0,0.7c0,0.2,0,0.5,0,0.7l3.1,1c0,0,0.9,0.2,2.2-0.2
			C200.7,69.1,202.1,66.5,201.2,64.3 M188.6,79.5c-0.2-0.2-0.2-0.3-0.3-0.3c0,0.2-0.2,0.3-0.3,0.3c-0.7,0.9-1.4,1.5-2.2,1.9
			c0.9,1.2,1.9,2.1,2.6,2.6c0.7-0.5,1.7-1.4,2.6-2.6C189.9,81,189.2,80.3,188.6,79.5 M199,71.6c-0.2,0-0.3,0.2-0.5,0.2
			c0.2,0.2,0.2,0.2,0.3,0.3c0.7,0.9,1,1.7,1.2,2.7c1.4-0.3,2.6-1.2,3.3-1.5c-0.3-0.7-0.9-2.1-1.7-3.3
			C200.7,70.8,199.9,71.3,199,71.6 M186.7,78.5c0.9-1,0.9-1.9,0.9-2.1v-3.3c-0.5-0.2-0.9-0.2-1.4-0.5l-1.2,1.5
			c-0.2,0.2-0.3,0.3-0.5,0.3s-0.3,0-0.5-0.2c-0.3-0.2-0.3-0.7-0.2-1l1.2-1.5c-0.3-0.3-0.7-0.7-0.9-1.2l-3.1,1c0,0-0.9,0.3-1.7,1.4
			c-1.5,2.1-1,4.8,1,6.3C182.4,80.9,185.1,80.5,186.7,78.5 M184.6,68.4c0,2.1,1.7,3.8,3.8,3.8c2.1,0,3.8-1.7,3.8-3.8
			c0-2.1-1.7-3.8-3.8-3.8C186.3,64.6,184.6,66.3,184.6,68.4 M180.4,70.1l3.1-1c0-0.2,0-0.5,0-0.7s0-0.5,0-0.7l-1.9-0.5
			c-0.3-0.2-0.5-0.5-0.5-0.9c0.2-0.3,0.5-0.5,0.9-0.5l1.9,0.5c0.2-0.3,0.5-0.9,0.9-1.2l-1.9-2.7c0,0-0.5-0.7-1.9-1.2
			c-0.5-0.2-0.9-0.2-1.4-0.2c-0.7,0-1.4,0.2-2.1,0.5c-1,0.5-1.9,1.5-2.2,2.6c-0.9,2.4,0.5,5,2.9,5.6
			C179.5,70.2,180.4,70.1,180.4,70.1 M186.2,64.1c0.3-0.2,0.9-0.3,1.4-0.3v-1.9c0-0.3,0.3-0.7,0.7-0.7c0.3,0,0.7,0.3,0.7,0.7v1.9
			c0.5,0,0.9,0.2,1.4,0.3l1.9-2.6c0,0,0.5-0.7,0.5-2.1c0-2.6-2.1-4.4-4.4-4.4c-2.6,0-4.4,2.1-4.4,4.4c0,1.4,0.5,2.1,0.5,2.1
			L186.2,64.1z M194.6,59.8c0.2,0,0.3-0.2,0.5-0.2c1-0.3,1.9-0.3,2.9-0.2c0-1.4-0.3-2.7-0.5-3.6c-0.7,0-2.2,0.2-3.6,0.7
			c0.5,0.9,0.7,1.9,0.7,2.9C194.6,59.5,194.6,59.6,194.6,59.8 M175.2,70.1c-0.9,1-1.4,2.4-1.7,3.3c0.7,0.3,1.9,1.2,3.3,1.5
			c0.2-1,0.5-1.9,1.2-2.7c0.2-0.2,0.2-0.3,0.3-0.3c-0.2,0-0.3,0-0.5-0.2C176.8,71.3,175.9,70.8,175.2,70.1 M181.6,59.6
			c0.2,0,0.3,0.2,0.5,0.2c0-0.2,0-0.3,0-0.5c0-1,0.2-2.1,0.7-2.9c-1.4-0.5-2.7-0.5-3.6-0.5c-0.2,0.7-0.5,2.2-0.5,3.6
			C179.7,59.3,180.7,59.3,181.6,59.6"/>
	</g>
</g>
</svg>
