<?xml version="1.0" encoding="UTF-8" standalone="no"?>
<!-- Generator: Adobe Illustrator 26.3.1, SVG Export Plug-In . SVG Version: 6.00 Build 0)  -->

<svg
   version="1.1"
   id="affiliation"
   x="0px"
   y="0px"
   viewBox="0 0 256 256"
   style="enable-background:new 0 0 256 256;"
   xml:space="preserve"
   sodipodi:docname="10500.svg"
   inkscape:version="1.4 (86a8ad7, 2024-10-11)"
   xmlns:inkscape="http://www.inkscape.org/namespaces/inkscape"
   xmlns:sodipodi="http://sodipodi.sourceforge.net/DTD/sodipodi-0.dtd"
   xmlns="http://www.w3.org/2000/svg"
   xmlns:svg="http://www.w3.org/2000/svg"><defs
   id="defs1" /><sodipodi:namedview
   id="namedview1"
   pagecolor="#ffffff"
   bordercolor="#000000"
   borderopacity="0.25"
   inkscape:showpageshadow="2"
   inkscape:pageopacity="0.0"
   inkscape:pagecheckerboard="0"
   inkscape:deskcolor="#d1d1d1"
   inkscape:zoom="1.5761719"
   inkscape:cx="113.88352"
   inkscape:cy="165.27385"
   inkscape:window-width="1920"
   inkscape:window-height="1009"
   inkscape:window-x="1912"
   inkscape:window-y="-8"
   inkscape:window-maximized="1"
   inkscape:current-layer="affiliation" />
<style
   type="text/css"
   id="style1">
	.st0{fill:#FFFFFF;}
	.st1{fill:#E4067E;}
</style>
	<rect
   id="black"
   width="256"
   height="256" />
	<circle
   id="background"
   class="st0"
   cx="128"
   cy="128"
   r="128" />
<g
   id="logo"
   transform="matrix(0.42651225,0,0,0.42651225,52.066371,28.449208)">
  <g
   id="layer1"
   transform="translate(-34.425901,-25.118285)">
    <path
   d="M 36.425901,32.258875 V 301.0245 L 316.8634,174.43077 Z M 373.34777,214.35266 92.910271,356.5245 373.34777,483.11829 Z"
   id="path3385"
   style="fill:#001c3d;fill-opacity:1;fill-rule:evenodd;stroke:none;stroke-width:1px;stroke-linecap:butt;stroke-linejoin:miter;stroke-opacity:1" />
	  <path
   d="m 355.73127,396.44862 h -26.95524 l -6.21489,-40.30513 c -0.4337,-2.84407 -0.83116,-6.00656 -1.19241,-9.48738 -0.36143,-3.4807 -0.68662,-7.27996 -0.97558,-11.39744 -0.67459,3.94775 -1.99947,8.87182 -3.97463,14.77214 -0.4337,1.23108 -0.74686,2.14372 -0.93948,2.73795 l -14.38096,43.67986 H 281.8753 l -14.38095,-43.67986 c -0.19275,-0.59423 -0.48182,-1.50687 -0.86719,-2.73795 -2.02348,-5.90032 -3.34837,-10.80317 -3.97464,-14.70852 -0.2891,3.52336 -0.62635,7.01466 -1.01172,10.47423 -0.38546,3.4596 -0.84316,6.9086 -1.37307,10.34697 l -6.21488,40.30513 h -26.81073 l 16.33213,-93.21764 h 28.54514 l 15.9708,48.07331 c 0.0963,0.33964 0.28901,0.89149 0.57814,1.65548 1.49343,4.28735 2.43289,7.95921 2.81838,11.01551 0.19262,-1.65548 0.55396,-3.49138 1.08399,-5.50779 0.52988,-2.01624 1.25253,-4.44645 2.16799,-7.29059 l 16.11533,-47.94592 h 28.61738 z"
   id="text3377"
   style="font-style:normal;font-variant:normal;font-weight:bold;font-stretch:normal;font-size:50.4408px;line-height:100%;font-family:'Futura Md BT';-inkscape-font-specification:'Futura Md BT Bold';text-align:start;writing-mode:lr-tb;text-anchor:start;fill:#ffffff;fill-opacity:1;stroke:none;stroke-width:1px;stroke-linecap:butt;stroke-linejoin:miter;stroke-opacity:1" />
	  <path
   d="m 78.011141,123.92877 h 25.192729 v 45.33534 c -4e-5,6.66453 0.16876,11.45059 0.50638,14.35834 0.33756,2.90775 0.90724,5.33795 1.70906,7.29056 0.97054,2.37714 2.65849,4.19183 5.06386,5.44406 2.4053,1.25227 5.33812,1.87838 8.79847,1.87838 3.46026,0 6.38253,-0.62611 8.76682,-1.87838 2.38417,-1.25223 4.08268,-3.06692 5.09551,-5.44406 0.80172,-1.95261 1.3714,-4.38281 1.70906,-7.29056 0.33752,-2.90775 0.50632,-7.69381 0.50638,-14.35834 v -6.36732 -38.96802 h 25.12944 v 49.28307 c -1e-4,10.23021 -0.61198,17.77549 -1.83566,22.63582 -1.22385,4.86043 -3.29159,9.0098 -6.20323,12.44814 -3.165,3.77794 -7.51148,6.61142 -13.03945,8.50039 -5.52812,1.88896 -12.23774,2.83345 -20.12887,2.83345 -7.93343,0 -14.65359,-0.94449 -20.160509,-2.83345 -5.50698,-1.88897 -9.86401,-4.72245 -13.07111,-8.50039 -2.86953,-3.43834 -4.92673,-7.58771 -6.17158,-12.44814 -1.24488,-4.86033 -1.86731,-12.40561 -1.8673,-22.63582 v -9.67832 z"
   id="text3381"
   style="font-style:normal;font-variant:normal;font-weight:bold;font-stretch:normal;font-size:47.2075px;line-height:100%;font-family:'Futura Md BT';-inkscape-font-specification:'Futura Md BT Bold';text-align:start;writing-mode:lr-tb;text-anchor:start;fill:#ffffff;fill-opacity:1;stroke:none;stroke-width:1px;stroke-linecap:butt;stroke-linejoin:miter;stroke-opacity:1" />
  </g>
</g>
</svg>
