<?xml version="1.0" encoding="utf-8"?>
<!-- Generator: Adobe Illustrator 26.5.0, SVG Export Plug-In . SVG Version: 6.00 Build 0)  -->
<svg version="1.1" id="affiliation" xmlns="http://www.w3.org/2000/svg" xmlns:xlink="http://www.w3.org/1999/xlink" x="0px"
	 y="0px" viewBox="0 0 256 256" style="enable-background:new 0 0 256 256;" xml:space="preserve">
<style type="text/css">
	.st0{fill:#FFFFFF;}
	.st1{fill:#E4067E;}
</style>
<rect id="black" width="256" height="256"/>
<circle id="background" class="st0" cx="128" cy="128" r="128"/>
<g id="logo">
	<path class="st1" d="M29.3,129.2v14h14.2v39.1h16v-39.1h14.1v-14L29.3,129.2L29.3,129.2z M77.2,129.2v53.1h40.1v-14H93.2v-5.8h23.5
		v-14H93.2v-5.3h24.1v-14L77.2,129.2L77.2,129.2z M210.7,129.2V148h-18.9v-18.8h-16v53.1h16V162h18.9v20.3h16v-53.1L210.7,129.2
		L210.7,129.2z M120,155.8c0,16.3,12.5,27.5,29,27.5c13.9,0,20.9-8.4,24-15.5l-13.8-6.4c-1.3,4.1-5.5,7.7-10.2,7.7
		c-7.7,0-12.8-5.9-12.8-13.3c0-7.4,5.1-13.3,12.8-13.3c4.8,0,8.9,3.6,10.2,7.7l13.8-6.5c-3.2-7.3-10.1-15.5-24-15.5
		C132.5,128.3,120,139.4,120,155.8 M29.3,72.7v14h14.2v39.1h16V86.7h14.1v-14H29.3z M93.9,88.5l5.2,17.1H88.7L93.9,88.5z M83.9,72.7
		l-19.5,53.1h18.1l1.9-6.2h19l1.9,6.2h18.1L104,72.7H83.9z M126.3,72.7v53.1h36v-14h-20V72.7H126.3z"/>
</g>
</svg>
