<?xml version="1.0" encoding="utf-8"?>
<!-- Generator: Adobe Illustrator 27.8.1, SVG Export Plug-In . SVG Version: 6.00 Build 0)  -->
<svg version="1.1" id="affiliation" xmlns="http://www.w3.org/2000/svg" xmlns:xlink="http://www.w3.org/1999/xlink" x="0px"
	 y="0px" viewBox="0 0 256 256" style="enable-background:new 0 0 256 256;" xml:space="preserve">
<style type="text/css">
	.st0{fill:#FFFFFF;}
	.st1{fill-rule:evenodd;clip-rule:evenodd;fill:#00539E;}
	.st2{fill-rule:evenodd;clip-rule:evenodd;fill:#FFCB00;}
	.st3{fill:#00539E;}
	.st4{fill:#FFCB00;}
</style>
<rect id="black" width="256" height="256"/>
<circle id="background" class="st0" cx="128" cy="128" r="128"/>
<g id="logo">
	<path class="st1" d="M176.2,155.7c0,26.6-21.6,48.2-48.2,48.2s-48.2-21.6-48.2-48.2V98.2h96.4L176.2,155.7z"/>
	
		<rect x="109.5" y="147.2" transform="matrix(0.6159 -0.7879 0.7879 0.6159 -68.1831 160.8716)" class="st2" width="42.8" height="6.4"/>
	<path class="st2" d="M108.6,188c-0.9,1-2.4,1.2-3.4,0.5l-5.1-4c-0.9-0.7-1.2-2.2-0.4-3.3l0.7-0.9c0.9-1.1,2.4-1.2,3.3-0.4l5.1,4
		c0.9,0.7,1.2,2.3,0.4,3.2L108.6,188z"/>
	<path class="st2" d="M146.4,114.3l-1.6,3.4c-0.1,0.1,0,0.5,0.2,0.6c1.3,1.1,1.9,2.9,1.8,4.5c0,1.6-0.6,2.8-2,4.4l5.1,4
		c1.2-1.8,2.2-2.6,3.8-3c1.4-0.5,3.4-0.3,4.8,0.7c0.2,0.1,0.5,0.1,0.7,0l2.9-2.4L146.4,114.3z"/>
	<path class="st2" d="M162.9,125.9l8-6.2c0.1-0.1,0.1-0.6-0.4-0.5l-4.9,0.5v-3.5c0-0.2-0.3-0.5-0.6-0.4l-3.4,0.9l1.6-7.4
		c0-0.1,0-0.3-0.1-0.3s-0.2-0.1-0.3,0l-6.8,3.4l0.1-3.5c0-0.2-0.4-0.5-0.6-0.4l-3.4,0.9l-0.7-4.9c0-0.4-0.5-0.4-0.5-0.2l-4.1,9.2
		L162.9,125.9z"/>
	<path class="st2" d="M149.8,132.4c1.4,1.1-0.7,3.9-2.2,2.8l-6.1-4.8c-1.4-1.1,0.8-3.9,2.2-2.8L149.8,132.4z"/>
	<path class="st2" d="M120.1,170.5c1.4,1.1-0.7,3.9-2.2,2.8l-6.1-4.8c-1.4-1.1,0.8-3.9,2.2-2.8L120.1,170.5z"/>
	
		<rect x="104.7" y="173.1" transform="matrix(0.6157 -0.788 0.788 0.6157 -96.4484 154.9038)" class="st2" width="11.8" height="6.4"/>
	<path class="st2" d="M114.5,131.5l12.9,16.6l-4.1,5.2l-13.9-17.8L114.5,131.5z M132.7,154.8l8.3,10.6l-5,3.9l-7.3-9.3L132.7,154.8z
		"/>
	<path class="st2" d="M147.5,188.1c0.9,1,2.4,1.2,3.4,0.5l5.1-4c0.9-0.7,1.2-2.2,0.4-3.3l-0.7-0.9c-0.9-1.1-2.4-1.2-3.3-0.4l-5.1,4
		c-0.9,0.7-1.2,2.3-0.4,3.2L147.5,188.1z"/>
	<path class="st2" d="M109.5,114.2l1.6,3.4c0.1,0.1,0,0.5-0.2,0.6c-1.3,1.1-1.9,2.9-1.8,4.5c0,1.6,0.6,2.8,2,4.4l-5.1,4
		c-1.2-1.8-2.2-2.6-3.8-3c-1.4-0.5-3.4-0.3-4.8,0.7c-0.2,0.1-0.5,0.1-0.7,0l-2.9-2.4L109.5,114.2z"/>
	<path class="st2" d="M93.1,125.8l-8-6.2c-0.1-0.1-0.1-0.6,0.4-0.5l4.9,0.5v-3.5c0-0.2,0.3-0.5,0.6-0.4l3.4,0.9l-1.6-7.4
		c0-0.1,0-0.3,0.1-0.3s0.2-0.1,0.3,0l6.8,3.4l-0.1-3.5c0-0.2,0.4-0.5,0.6-0.4l3.4,0.9l0.7-4.9c0-0.4,0.5-0.4,0.5-0.2l4.1,9.2
		L93.1,125.8z"/>
	<path class="st2" d="M106.1,132.3c-1.4,1.1,0.7,3.9,2.2,2.8l6.1-4.8c1.4-1.1-0.8-3.9-2.2-2.8L106.1,132.3z"/>
	<path class="st2" d="M136,170.6c-1.4,1.1,0.7,3.9,2.2,2.8l6.1-4.8c1.4-1.1-0.8-3.9-2.2-2.8L136,170.6z"/>
	
		<rect x="142.3" y="170.5" transform="matrix(0.788 -0.6157 0.6157 0.788 -77.7629 126.969)" class="st2" width="6.4" height="11.8"/>
	<path class="st3" d="M98.7,93.7l-2.4-6.5l-4.9-12.9c-3.6-9.4-7.2-18.9-7.3-19.2l-0.3-0.9c0,0,0.1-0.4,0.5-0.6
		c0.2-0.1,1.9,0.7,3.5,1.2c1.1,0.4,2.5,1,4.1,1.3c1.7,0.4,2.4,0.7,3.6,2.3c0.5,0.9,0.5,2.2,0.5,3.1c1.6-2.8,3.8-4.7,7.4-4.1
		c4.2,0.5,6,6.3,3.5,8.6c-0.7,0.9-2.4,2.5-0.8,3.4c0.3,0.1,0.8,0,0.8,0s-0.2,0.9-0.4,1.3c-0.8,1.2-3.8,2.5-5.4,0.2
		c-0.7-1-0.8-1.6-0.5-2.8l0.2-1c0-0.6-0.8-1-1.7-0.8c-0.3,0.1-0.9,0.6-1.1,2.4c-0.3,4.5,2.4,10.5,8.6,8.8c3.1-0.8,3.9-2,4-3.7
		c-1.4-0.5-2.3-1.7-2.3-3.3c0-1.9,1.3-3.4,3.2-3.4c1.9,0,3.4,1.5,3.4,3.4c0,1.1-0.5,2-1.2,2.6c0.7,1.6,1.6,2.6,4.9,2.3
		c6.3-0.6,7.1-7.1,5.2-11.3c-0.7-1.7-1.5-1.9-1.8-1.9c-0.8,0.1-1.5,0.7-1.3,1.3l0.6,0.9c0.6,1,0.7,1.6,0.5,2.8
		c-0.7,2.6-4,2.4-5.1,1.6c-0.5-0.4-0.9-1.1-0.9-1.1s0.6,0,0.7-0.2c1.2-1.5-0.9-2.4-1.9-3c-3.1-1.4-3.4-7.3,0.4-9.3
		c3-1.7,5.2-0.9,7.4,0.7c0.2,0.2,0.4,0.4,0.6,0.6c-0.1-0.3-0.2-0.3-0.3-0.6c-0.2-0.3-0.3-0.7-0.4-1.1c-0.2-1.3,0-2.6,0.6-3.7
		c0.6-1,1.4-1.8,2-2.6c0.7-0.9,1.6-2.1,2.3-4c0.1-0.2,0.4-0.9,0.6-1c0.1-0.1,0.1-0.1,0.3-0.1c0.1,0,0.2,0,0.3,0.1
		c0.2,0.1,0.4,0.8,0.6,1c0.8,1.9,1.6,3,2.3,4c0.7,0.9,1.5,1.7,2,2.6c0.6,1,0.8,2.4,0.6,3.7c0,0.4-0.2,0.8-0.4,1.1s-0.2,0.3-0.3,0.6
		c0.1-0.2,0.3-0.4,0.6-0.6c2.2-1.6,4.4-2.4,7.4-0.7c3.8,1.9,3.5,7.9,0.4,9.3c-1,0.6-3.2,1.5-1.9,3c0.1,0.2,0.7,0.2,0.7,0.2
		s-0.4,0.8-0.9,1.1c-1.1,0.8-4.4,1-5.1-1.6c-0.3-1.2-0.2-1.8,0.5-2.8l0.6-0.9c0.2-0.6-0.4-1.2-1.3-1.3c-0.3,0-1.1,0.2-1.8,1.9
		c-1.9,4.1-1.1,10.7,5.2,11.3c3.3,0.3,4.2-0.6,4.9-2.3c-0.8-0.6-1.2-1.6-1.2-2.6c0-1.9,1.5-3.4,3.4-3.4s3.2,1.5,3.2,3.4
		c0,1.5-1,2.8-2.3,3.3c0.1,1.7,0.9,2.9,4,3.7c6.1,1.6,8.9-4.3,8.6-8.8c-0.1-1.8-0.8-2.3-1.1-2.4c-0.8-0.2-1.6,0.1-1.7,0.8l0.2,1
		c0.3,1.2,0.2,1.7-0.5,2.8c-1.6,2.2-4.6,0.9-5.4-0.2c-0.3-0.4-0.4-1.3-0.4-1.3s0.4,0.1,0.8,0c1.6-0.9,0-2.5-0.8-3.4
		c-2.4-2.3-0.7-8.1,3.5-8.6c3.6-0.5,5.8,1.3,7.4,4.1c0-0.9,0-2.3,0.5-3.1c1.2-1.6,1.9-1.9,3.6-2.3c1.6-0.4,3-1,4.1-1.3
		c1.6-0.5,3.2-1.4,3.5-1.2c0.3,0.1,0.5,0.6,0.5,0.6l-0.3,0.9c-0.1,0.3-3.7,9.8-7.3,19.2l-4.9,12.9l-2.4,6.5
		C157.5,93.7,98.7,93.7,98.7,93.7z"/>
	<path class="st4" d="M99.4,92.6C99.3,92.5,85.3,55.4,85,54.8c0.9,0.3,3.3,1.6,6.6,2.4c1.1,0.3,1.8,0.3,3,1.9c0.6,1,0.5,2.6,0.3,3.5
		c0.1,0.4,0.9,0.8,1.3,0.3c1-1.7,2.4-5,6.8-4.3c3.6,0.4,4.8,5.3,3,7c-0.7,0.8-3.2,3.3-0.6,4.8c-0.6,0.9-2.8,1.7-3.8,0.3
		c-0.7-1.1-0.5-1.3-0.1-3.1c0.1-1.8-2-2-2.8-1.8C97.9,66.1,97.1,67,97,69c-0.3,4.7,2.9,11.7,10,9.8c4-1.1,4.4-3,4.4-5.4
		c-1.3-0.1-2.3-1.2-2.3-2.5c0-1.4,1.1-2.5,2.5-2.5s2.5,1.1,2.5,2.5c0,1-0.6,1.8-1.4,2.2c0.1,0.2,0.2,0.6,0.3,0.8
		c0.8,1.9,2,3.2,5.7,2.9c7.3-0.7,7.9-8.4,6-12.7c-0.8-1.9-1.8-2.5-2.7-2.5c-0.9,0.1-2.8,1-2.1,2.6c1,1.6,1.3,1.7,1,3
		c-0.4,1.7-2.7,1.7-3.7,1.1c2-2.3-1.3-3.8-2.2-4.4c-2.3-1-2.8-6,0.4-7.6c3.9-2.1,6.4,0.5,7.9,1.8c0.5,0.3,1.2-0.2,1.1-0.7
		c-0.4-0.6-1.2-1.5-1.3-2.5c-0.2-1.1,0-2.2,0.5-3.1c0.9-1.6,2.8-2.8,4.4-6.6c1.6,3.8,3.5,5,4.4,6.6c0.5,0.8,0.6,1.9,0.5,3.1
		c0,1-0.9,1.9-1.3,2.5c0,0.5,0.6,1,1.1,0.7c1.5-1.3,4-3.9,7.9-1.8c3.2,1.6,2.7,6.6,0.4,7.6c-0.9,0.5-4.2,2-2.2,4.4
		c-0.9,0.7-3.2,0.6-3.7-1.1c-0.3-1.3-0.1-1.4,1-3c0.7-1.7-1.1-2.6-2.1-2.6c-0.9,0-1.9,0.6-2.7,2.5c-1.9,4.3-1.3,12,6,12.7
		c3.7,0.3,4.9-1,5.7-2.9c0.1-0.2,0.2-0.6,0.3-0.8c-0.8-0.4-1.4-1.3-1.4-2.2c0-1.4,1.1-2.5,2.5-2.5s2.5,1.1,2.5,2.5
		c0,1.3-1,2.4-2.3,2.5c0,2.4,0.4,4.4,4.4,5.4c7.1,1.9,10.3-5.2,10-9.8c-0.1-2-0.9-3-1.7-3.2c-0.9-0.3-2.9,0-2.8,1.8
		c0.4,1.8,0.6,2-0.1,3.1c-1,1.4-3.2,0.7-3.8-0.3c2.7-1.5,0.1-4-0.6-4.8c-1.8-1.7-0.6-6.6,3-7c4.4-0.7,5.8,2.6,6.8,4.3
		c0.4,0.5,1.2,0.2,1.3-0.3c-0.2-0.9-0.3-2.5,0.3-3.5c1.2-1.6,1.9-1.7,3-1.9c3.3-0.7,5.7-2.1,6.6-2.4c-0.3,0.6-14.4,37.8-14.4,37.8
		S99.4,92.6,99.4,92.6z"/>
</g>
</svg>
