<?xml version="1.0" encoding="utf-8"?>
<!-- Generator: Adobe Illustrator 26.3.1, SVG Export Plug-In . SVG Version: 6.00 Build 0)  -->
<svg version="1.1" id="affiliation" xmlns="http://www.w3.org/2000/svg" xmlns:xlink="http://www.w3.org/1999/xlink" x="0px"
	 y="0px" viewBox="0 0 256 256" style="enable-background:new 0 0 256 256;" xml:space="preserve">
<style type="text/css">
	.st0{fill:#FFFFFF;}
	.st1{display:none;fill:#FFFFFF;}
	.st2{fill:#1E4AA1;}
</style>
<rect id="black" width="256" height="256"/>
<circle
   id="background"
   class="st0"
   cx="128"
   cy="128"
   r="128" />
<g id="logo">
	<g>
		<path class="st2" d="M90.4,90.4h75.1v75.1H90.4V90.4z M165.6,52.9H90.4c-20.7,0-37.5,16.8-37.5,37.5v75.1
			c0,20.7,16.8,37.5,37.5,37.5h75.1c20.7,0,37.5-16.8,37.5-37.5V90.4C203.1,69.7,186.3,52.9,165.6,52.9"/>
		<path class="st2" d="M127.8,96.9c-17,0-30.8,13.8-30.8,30.8s13.8,30.8,30.8,30.8c17,0,30.8-13.8,30.8-30.8S144.8,96.9,127.8,96.9"
			/>
	</g>
</g>
</svg>
