<?xml version="1.0" encoding="UTF-8" standalone="no"?>
<!-- Generator: Adobe Illustrator 26.3.1, SVG Export Plug-In . SVG Version: 6.00 Build 0)  -->

<svg
   version="1.1"
   id="affiliation"
   x="0px"
   y="0px"
   viewBox="0 0 256 256"
   style="enable-background:new 0 0 256 256;"
   xml:space="preserve"
   sodipodi:docname="14148.svg"
   inkscape:version="1.4 (86a8ad7, 2024-10-11)"
   xmlns:inkscape="http://www.inkscape.org/namespaces/inkscape"
   xmlns:sodipodi="http://sodipodi.sourceforge.net/DTD/sodipodi-0.dtd"
   xmlns="http://www.w3.org/2000/svg"
   xmlns:svg="http://www.w3.org/2000/svg"><defs
   id="defs1" /><sodipodi:namedview
   id="namedview1"
   pagecolor="#ffffff"
   bordercolor="#000000"
   borderopacity="0.25"
   inkscape:showpageshadow="2"
   inkscape:pageopacity="0.0"
   inkscape:pagecheckerboard="0"
   inkscape:deskcolor="#d1d1d1"
   inkscape:zoom="2.2290436"
   inkscape:cx="153.20472"
   inkscape:cy="120.45525"
   inkscape:window-width="1920"
   inkscape:window-height="1009"
   inkscape:window-x="1912"
   inkscape:window-y="-8"
   inkscape:window-maximized="1"
   inkscape:current-layer="logo" />
<style
   type="text/css"
   id="style1">
	.st0{fill:#FFFFFF;}
	.st1{display:none;fill:#FFFFFF;}
	.st2{fill:#143A84;}
</style>

<rect
   id="black"
   width="256"
   height="256"
   style="enable-background:new 0 0 256 256" /><circle
   id="background"
   class="st0"
   cx="128"
   cy="128"
   r="128"
   style="enable-background:new 0 0 256 256" /><g
   id="logo"
   style="enable-background:new 0 0 256 256">
	
<g
   fill-rule="evenodd"
   clip-rule="evenodd"
   id="g20"
   transform="matrix(1.3406961,0,0,1.397538,-9.2647542,-7.1099621)"><path
     d="m 101.111,8.504 c -48.62,0 -87.975,39.424 -87.975,87.772 0,48.553 39.355,87.976 87.975,87.976 z"
     fill="#4c8757"
     id="path2" /><path
     d="m 100.57,58.206 h 38.545 v 30.971 h -8.656 v 4.598 h 8.656 v 8.723 h -8.656 v 4.599 h 8.656 v 8.723 h -8.656 v 4.599 h 8.656 v 5.68 c 0,3.854 -1.082,6.289 -5.139,8.724 a 60729.688,60729.688 0 0 1 -33.406,19.271 z"
     fill="#9e2d35"
     id="path3" /><path
     d="m 63.108,58.747 v 30.43 h 8.926 v 4.598 h -8.926 v 8.723 h 8.926 v 4.599 h -8.926 v 8.723 h 8.926 v 4.599 h -8.926 v 5.95 c 0,2.164 0.27,4.937 5.41,8.182 5.207,2.977 32.052,19.272 32.052,19.272 V 58.747 Z"
     fill="#ffffff"
     id="path4" /><path
     fill="#9e2d35"
     d="m 100.57,58.747 -4.327,6.83 H 87.79 l 6.289,3.516 -6.018,10.346 12.509,-6.83 z m -25.493,0 4.328,6.83 h 8.115 l -5.951,3.516 6.492,10.346 -13.254,-6.83 -11.699,6.83 5.41,-10.346 -5.41,-3.516 h 7.574 z"
     id="path5" /><path
     fill="#ffffff"
     d="m 101.111,59.017 3.246,6.019 h 9.264 l -7.371,3.245 7.102,11.158 -12.241,-6.83 z"
     id="path6" /><path
     fill="#ffffff"
     d="m 126.131,58.477 4.328,6.559 h 8.115 l -5.951,3.245 5.951,11.158 -12.443,-7.641 -12.779,7.641 6.22,-11.158 -6.492,-3.245 h 8.385 z m -0.27,59.236 c 0,0 -2.232,0.271 -2.773,0 -0.811,0 -2.705,0 -3.516,-0.271 -0.812,0 -4.869,-0.812 -7.303,-1.623 -2.436,-1.082 -3.246,-1.623 -6.289,-1.623 -2.705,0 -4.869,1.623 -4.869,1.623 V 87.283 c 0,0 2.164,-1.623 4.869,-1.623 3.043,0 3.854,0.812 6.289,1.623 2.434,0.812 5.951,1.623 7.844,1.623 h 5.748 z"
     id="path7" /><path
     d="m 75.618,118.254 c 0,0 2.976,-0.271 3.787,-0.271 0.812,0 2.435,-0.271 3.246,-0.271 0.811,0 4.869,-1.082 7.303,-1.894 2.502,-0.812 3.314,-1.353 6.289,-1.353 2.705,0 4.328,1.623 4.328,1.623 V 86.742 c 0,0 -1.623,-1.353 -4.328,-1.353 -2.975,0 -3.787,0.541 -6.289,1.353 -2.434,0.812 -5.95,1.623 -7.844,1.894 h -6.492 z m 25.493,27.927 c -0.541,0 -1.082,0.339 -1.893,0.339 -1.082,0.271 -2.435,-0.339 -2.435,-0.339 -1.623,0.339 -3.246,0.339 -4.598,0 -0.541,-1.081 -1.082,-2.704 -1.353,-4.327 0,0 -0.879,-1.082 -1.15,-2.435 0,-0.541 0,-1.082 -0.27,-1.623 0,-0.541 -0.541,-1.082 -0.812,-1.622 -0.541,-1.082 -0.541,-2.435 -0.541,-2.435 -0.812,-1.623 -1.353,-2.976 -1.623,-4.396 1.082,-1.082 2.434,-1.894 3.787,-2.705 0,0 0.879,-1.082 1.961,-1.623 0.541,-0.541 1.082,-0.541 1.623,-0.812 l 1.353,-1.352 c 0.812,-0.812 2.164,-1.353 2.164,-1.353 1.354,-1.624 2.164,-2.976 3.787,-3.787 z"
     fill="#9e2d35"
     id="path8" /><path
     d="m 97.596,137.255 c 0,0 -1.894,2.705 -2.706,3.517 -0.541,0.812 -1.082,1.353 -1.623,1.353 0,0 -0.542,0 -1.623,-0.812 0,0 -0.541,-0.812 -0.812,-1.894 0,-0.811 0,-1.353 -0.271,-1.893 0,-0.542 -0.609,-1.082 -0.879,-1.895 -0.541,-1.082 -0.541,-2.434 -0.541,-2.434 0.271,-1.082 0.811,-1.353 0.811,-1.353 0.271,-0.271 1.15,-0.541 1.961,-0.271 1.082,0.271 4.328,1.353 4.328,1.353 v 0.812 c 0.002,1.354 0.543,2.706 1.355,3.517 z"
     fill="#ffffff"
     id="path9" /><path
     d="m 93.268,133.739 c -0.542,-0.541 -0.812,-0.541 -1.353,-0.541 -0.541,0.271 -1.082,0.812 -0.541,1.623 0.271,1.081 0.812,1.353 1.082,2.163 0,0.812 0,2.164 0.27,2.705 0.542,0.271 1.082,0.271 1.353,0.271 0.541,-0.271 0.812,-0.812 0.812,-0.812 0,-0.271 -0.271,-0.54 -0.541,-0.271 0,0 -0.541,0.271 -0.811,0 -0.271,-0.27 0,-1.082 -0.271,-1.352 0,-0.542 0,-1.353 -0.271,-1.624 -0.271,-0.54 -1.082,-1.353 -1.082,-1.622 0,0 0.271,-0.541 0.542,-0.541 0.27,0 0.27,0.271 0.541,0.271 z m 7.574,12.442 c 0.811,0 1.352,0.339 1.893,0.339 1.082,0.271 2.705,-0.339 2.705,-0.339 1.352,0.339 3.312,0.609 4.666,0.339 0.541,-1.42 0.811,-3.043 1.082,-4.666 0,0 0.811,-1.082 1.082,-2.435 0.27,-0.541 0,-1.082 0.27,-1.623 l 0.812,-1.622 c 0.541,-1.082 0.541,-2.435 0.541,-2.435 0.811,-1.623 1.623,-2.976 1.893,-4.396 -1.082,-1.082 -2.705,-1.894 -4.057,-2.705 0,0 -0.812,-1.082 -1.895,-1.623 -0.541,-0.541 -1.082,-0.541 -1.623,-0.812 -0.27,-0.541 -0.811,-0.812 -1.42,-1.352 -0.811,-0.812 -2.164,-1.353 -2.164,-1.353 -1.08,-1.624 -2.162,-2.976 -3.785,-3.787 z"
     fill="#9e2d35"
     id="path10" /><path
     d="m 101.383,137.526 c 1.893,-0.271 3.244,-1.624 3.244,-3.517 0,-1.894 -1.352,-3.517 -3.244,-3.787 z m 1.892,0.54 c 0,0 1.893,2.705 2.434,3.787 0.541,0.812 0.812,1.623 0.541,1.894 0,0 0,0.812 -1.082,1.353 0,0 -0.811,0.271 -2.164,0 -0.539,0 -1.352,-0.271 -1.893,-0.271 -0.541,0 -1.082,0.271 -1.893,0.271 -1.354,0.271 -2.435,-0.271 -2.435,-0.271 -1.082,-0.541 -1.353,-1.082 -1.353,-1.082 0,-0.541 0,-1.353 0.541,-1.894 0.812,-1.082 2.706,-3.787 2.706,-3.787 0.27,0.271 0.541,0.271 0.811,0.271 1.082,0.541 2.705,0.271 3.787,-0.271 z"
     fill="#ffffff"
     id="path11" /><path
     d="m 98.137,141.312 c -0.271,0.271 -0.541,0.541 -0.541,1.082 0,0.271 0.27,1.082 1.352,1.082 1.082,0 1.623,-0.541 2.164,-0.541 0.812,0.271 2.164,0.812 2.705,0.541 0.541,-0.271 0.811,-0.812 0.541,-1.353 0,-0.271 -0.271,-0.812 -0.541,-0.812 -0.27,-0.271 -0.541,0 -0.27,0.271 0,0.271 0,0.812 -0.271,1.082 -0.271,0 -1.082,-0.271 -1.352,-0.541 h -1.623 c -0.541,0 -1.623,0.541 -1.623,0.541 -0.271,0 -0.541,-0.271 -0.541,-0.541 0,-0.27 0.27,-0.541 0.27,-0.541 -10e-4,-0.27 -10e-4,-0.27 -0.27,-0.27 z"
     fill="#9e2d35"
     id="path12" /><path
     d="m 96.513,131.846 c 0,0 -2.975,-1.082 -4.057,-1.353 -0.812,-0.271 -1.623,-0.812 -1.623,-1.42 0,0 -0.271,-0.541 0.271,-1.623 0,0 0.271,-0.812 1.353,-1.353 0.812,-0.541 1.352,-0.541 1.893,-0.812 0.541,-0.541 0.812,-1.082 1.353,-1.623 0.812,-0.811 2.164,-1.082 2.164,-1.082 1.082,-0.271 1.623,0.271 1.623,0.271 0.541,0.27 0.812,0.811 0.812,1.893 v 4.328 c -0.271,0.271 -0.541,0.271 -0.812,0.271 -1.353,0.609 -2.166,1.421 -2.977,2.503 z"
     fill="#ffffff"
     id="path13" /><path
     d="m 98.678,126.368 c 0.27,-0.541 0.27,-0.812 0,-1.353 -0.271,-0.271 -0.812,-0.812 -1.623,0 -0.812,0.541 -1.083,1.353 -1.624,1.623 -0.812,0.271 -2.164,0.812 -2.435,1.353 -0.271,0.271 0,0.812 0.271,1.353 0.271,0.338 0.811,0.338 0.811,0.338 0.541,0 0.541,-0.338 0.271,-0.608 -0.271,0 -0.811,-0.541 -0.541,-0.812 0.271,0 1.082,-0.271 1.353,-0.541 0.541,0 1.353,-0.541 1.623,-0.812 0.271,-0.271 0.812,-1.353 0.812,-1.353 0.27,0 0.811,-0.271 0.811,0 v 0.541 c -10e-4,0.271 0.271,0.271 0.271,0.271 z"
     fill="#9e2d35"
     id="path14" /><path
     d="m 105.709,132.928 c 0,0 3.043,-0.812 4.125,-1.082 1.082,-0.27 1.895,-0.271 2.164,0 0,0 0.541,0.271 0.812,1.623 0,0 0,0.812 -0.541,1.894 l -0.812,1.622 c -0.27,0.812 -0.27,1.353 -0.27,2.164 -0.271,1.082 -1.082,2.164 -1.082,2.164 -0.812,0.812 -1.623,0.812 -1.354,0.812 -0.541,0 -1.352,-0.271 -1.961,-1.082 -0.541,-0.812 -2.705,-3.787 -2.705,-3.787 0.271,0 0.541,-0.271 0.541,-0.541 0.813,-1.083 1.083,-2.435 1.083,-3.787 z"
     fill="#ffffff"
     id="path15" /><path
     d="m 107.062,138.608 c 0,0.54 0.338,1.081 0.879,1.081 0.541,0.271 1.352,0 1.623,-0.812 0.27,-1.082 -0.271,-1.894 0.27,-2.434 0.271,-0.542 1.082,-1.895 1.082,-2.435 0,-0.541 -0.541,-0.812 -0.811,-0.812 -0.541,-0.271 -1.082,0 -1.082,0.271 -0.271,0 -0.271,0.271 0,0.271 0.27,0 0.811,0.271 0.811,0.541 0,0.27 -0.541,0.812 -0.541,1.082 -0.27,0.54 -0.811,1.352 -0.811,1.622 0,0.542 0.27,1.624 0,1.894 l -0.541,0.271 c -0.271,-0.271 -0.271,-0.54 -0.541,-0.54 z"
     fill="#9e2d35"
     id="path16" /><path
     d="m 101.652,129.073 v -4.328 c 0,-1.082 0.271,-1.623 0.812,-1.893 0,0 0.27,-0.542 1.621,-0.271 0,0 0.812,0 1.623,0.812 0.541,0.541 1.082,1.082 1.354,1.623 0.607,0.271 1.42,0.541 1.961,0.812 1.082,0.541 1.893,1.623 1.893,1.623 0.541,1.082 0.271,1.623 0.271,1.623 -0.271,0.608 -0.812,1.149 -1.623,1.42 -1.082,0.271 -4.396,1.353 -4.396,1.353 0,-0.271 -0.27,-0.271 -0.27,-0.541 -0.812,-1.083 -1.894,-1.962 -3.246,-2.233 z"
     fill="#ffffff"
     id="path17" /><path
     d="m 107.4,129.682 c 0.541,0 1.082,0 1.352,-0.608 0.271,-0.271 0.271,-1.082 -0.541,-1.623 -0.811,-0.812 -1.689,-0.541 -2.23,-1.082 -0.271,-0.541 -1.354,-1.894 -1.895,-1.894 -0.539,0 -1.082,0.271 -1.082,0.541 -0.27,0.271 -0.27,1.082 -0.27,1.082 0.27,0.271 0.541,0.271 0.541,0 0,-0.271 0.541,-0.812 0.811,-0.812 0.271,0.271 0.541,1.082 0.812,1.353 0.27,0.271 1.082,0.812 1.352,1.082 0.271,0 1.691,0.271 1.691,0.541 0,0 0.27,0.541 0,0.541 -0.271,0.271 -0.271,0.271 -0.541,0.271 z"
     fill="#9e2d35"
     id="path18" /><path
     d="m 105.439,146.181 c 1.352,0.339 3.312,0.609 4.666,0.339 0.541,-1.42 0.811,-3.043 1.082,-4.666 -0.812,0.812 -2.436,1.894 -3.518,1.353 0.272,1.081 -1.419,2.434 -2.23,2.974 z m 8.454,-12.442 c 0.811,-1.353 1.623,-2.976 1.893,-4.396 -1.082,-1.082 -2.705,-1.894 -4.057,-2.705 0.541,1.082 0.811,3.043 0,3.854 1.351,0.272 2.164,2.165 2.164,3.247 z M 104.627,121.5 c -0.811,-1.353 -2.162,-2.976 -3.516,-3.787 v 5.14 c 0.541,-1.353 2.705,-1.895 3.516,-1.353 z M 91.645,21.014 c -0.541,0 -1.082,0.271 -1.42,1.082 l -2.705,7.642 0.812,4.057 c 0.541,1.623 1.082,1.623 2.502,1.353 l 0.271,0.541 -7.641,1.624 V 36.77 c 1.352,-0.27 1.894,-0.541 1.623,-2.164 L 84.275,31.36 78.865,25.071 C 78.595,24.8 77.783,23.989 76.701,24.259 v -0.541 l 7.303,-1.623 v 0.542 c -1.623,0.27 -1.623,0.541 -1.623,1.082 0,0.271 0.541,0.812 0.812,1.082 l 3.787,4.396 1.353,-4.396 c 0.27,-0.271 0.541,-1.623 0.541,-2.164 -0.271,-0.812 -1.082,-0.812 -2.164,-0.542 v -0.541 l 4.666,-1.082 z m -15.215,18.461 -7.1,3.787 -0.271,-0.541 c 1.353,-0.812 1.893,-1.082 1.082,-2.705 l -5.41,-10.278 c -1.353,0.812 -3.246,1.894 -2.164,5.139 l -0.541,0.271 -1.894,-3.787 11.631,-6.289 2.231,3.854 -0.879,0.271 c -1.894,-2.772 -4.057,-1.961 -5.41,-1.149 l 5.41,10.075 c 0.879,1.894 1.42,1.623 3.043,0.812 z m -12.24,7.1 -5.951,5.14 -0.271,-0.541 c 0.811,-0.812 1.353,-1.353 0.541,-2.435 l -6.83,-8.182 c -1.082,-1.082 -1.894,-0.541 -2.705,0 l -0.271,-0.271 5.951,-5.139 0.271,0.541 c -0.812,0.812 -1.623,1.353 -0.542,2.435 l 6.83,8.183 c 0.812,1.082 1.623,0.812 2.705,0 z M 46.541,49.28 c -1.353,-0.812 -4.057,-1.352 -5.68,0.812 -0.812,0.812 -1.082,2.164 0,2.976 1.082,0.811 1.623,0.811 3.517,0 l 3.246,-1.624 c 0.812,-0.27 2.705,-0.811 4.598,0.812 1.623,1.082 2.705,3.787 0.271,7.033 -1.353,1.623 -2.435,1.893 -2.976,2.434 -0.271,0.338 0,0.879 0.271,1.15 l -0.541,0.27 -4.057,-3.313 0.271,-0.541 c 1.894,1.082 4.869,1.623 6.492,-0.541 1.623,-2.164 0,-3.517 -0.271,-3.787 -1.082,-0.812 -2.164,-0.271 -3.516,0.271 l -1.623,0.812 c -3.516,1.894 -5.139,0.541 -5.951,0 -1.149,-0.812 -3.043,-3.246 -0.271,-6.492 a 7.55,7.55 0 0 1 2.705,-2.164 c 0.271,-0.541 0,-0.812 -0.271,-1.082 l 0.541,-0.541 3.787,2.975 z m 1.352,16.026 -1.893,4.057 -8.182,1.353 -0.271,0.541 4.125,1.894 c 1.623,0.541 1.894,0.271 2.705,-1.082 l 0.271,0.271 -2.976,6.83 -0.271,-0.338 c 0.271,-1.352 0.541,-1.893 -1.082,-2.434 l -8.994,-4.057 c -1.894,-0.541 -2.164,0 -2.705,1.082 l -0.541,-0.271 2.975,-6.492 c 0.541,-1.353 2.435,-5.748 5.951,-4.057 2.435,1.082 2.164,3.246 1.894,4.598 l 7.641,-1.623 c 0.541,0 0.812,-0.271 0.812,-0.541 z m -10.887,5.68 c 1.082,-2.705 1.082,-3.787 -1.623,-4.869 -1.893,-1.082 -3.246,-0.541 -3.787,1.082 -0.541,1.082 -0.271,1.353 0.271,1.623 z m -11.631,24.141 0.812,-12.712 4.328,0.27 v 0.541 c -3.246,0.271 -3.787,1.894 -4.057,4.869 0,1.082 0,1.623 0.812,1.623 l 5.139,0.271 C 32.68,88.095 32.138,86.743 29.433,86.202 V 85.66 l 7.574,0.541 -0.271,0.541 c -2.705,0.271 -3.246,1.353 -3.517,3.516 l 5.41,0.271 c 0.812,0 1.149,-0.271 1.42,-1.893 0,-2.164 -0.271,-4.328 -3.584,-5.951 v -0.541 l 4.396,1.082 -0.812,13.051 -0.608,-0.271 c 0,-1.149 0,-1.961 -1.353,-1.961 L 27.54,93.233 c -1.623,0 -1.623,0.812 -1.623,1.894 z m 0,4.125 c 0.271,1.353 0.812,1.623 2.164,1.894 l 13.321,3.246 v 0.811 l -12.239,7.033 c -1.353,0.879 -1.353,1.149 -1.353,2.231 h -0.541 l -0.812,-7.37 h 0.541 c 0.271,1.352 0.271,1.622 1.082,1.622 0.271,0 1.353,-0.54 1.623,-0.812 l 6.762,-3.787 -7.574,-1.893 c -0.541,0 -1.082,-0.271 -1.623,-0.271 -0.812,0.271 -0.812,0.812 -0.812,2.163 h -0.541 l -0.541,-4.598 z m 17.379,15.485 2.975,7.033 -0.541,0.27 c -0.541,-1.082 -1.082,-1.893 -2.164,-1.352 l -10.076,3.786 c -1.353,0.541 -1.082,1.623 -0.812,2.435 l -0.541,0.271 -2.705,-7.032 0.541,-0.271 c 0.542,0.812 0.812,1.895 2.164,1.353 l 10.076,-3.786 c 1.353,-0.541 1.082,-1.353 0.812,-2.435 z m 12.984,23.329 c -1.082,-1.082 -1.623,-1.353 -2.705,-0.54 l -8.385,6.221 c -0.271,1.894 -0.271,2.164 0,2.434 l -0.542,0.339 -2.705,-3.584 2.976,-11.901 -5.478,4.058 c -1.082,0.811 -1.353,1.353 -0.541,2.975 l -0.271,0.271 -2.976,-3.787 0.541,-0.27 c 1.082,1.082 1.353,0.812 2.435,0.27 l 10.346,-7.911 0.27,0.541 -3.516,14.944 v 0.271 l 7.033,-5.41 c 1.082,-1.082 1.353,-1.622 0.541,-2.975 l 0.271,-0.271 2.976,3.787 z m -5.41,13.322 c 1.082,0.812 1.623,0.812 2.705,-0.27 l 4.396,-5.748 c 0.812,-0.812 2.164,-2.164 3.516,-2.435 1.623,-0.271 3.246,0.541 4.328,1.353 0.812,0.541 2.435,1.893 2.705,3.854 0.271,1.353 0.271,2.163 -1.353,4.058 l -4.328,5.68 c -1.082,1.623 -0.812,1.894 0,2.705 l -0.271,0.541 -5.748,-4.599 0.338,-0.271 c 1.082,0.812 1.623,1.082 2.975,-0.271 l 4.328,-5.95 c 0.812,-1.082 2.705,-3.246 0.271,-5.478 -3.246,-2.164 -5.139,0.271 -6.221,1.353 l -4.125,5.477 c -0.812,1.082 -1.082,1.894 0.541,2.976 l -0.541,0.541 -3.787,-2.976 z"
     fill="#ffffff"
     id="path19" /><path
     d="m 132.623,33.794 c -1.893,5.139 -6.762,7.033 -11.699,5.139 -4.867,-1.894 -7.031,-6.762 -5.139,-11.698 2.164,-5.14 7.033,-7.033 11.699,-5.14 4.598,1.894 7.303,6.56 5.139,11.699 z m -12.51,-4.868 c -0.811,2.164 -2.975,7.574 1.082,9.196 4.125,1.623 6.559,-3.787 7.371,-5.95 1.352,-3.517 1.893,-7.912 -1.354,-9.265 -3.245,-1.352 -5.747,2.435 -7.099,6.019 z m 23.668,0.811 11.09,9.196 -3.246,4.058 -0.541,-0.541 c 1.352,-2.164 1.893,-4.057 -1.623,-6.763 -0.811,-0.811 -1.354,-1.082 -2.164,-0.27 l -3.787,4.598 c 2.436,1.894 3.787,0.812 5.41,-0.541 l 0.541,0.541 -5.41,6.559 -0.541,-0.27 c 1.082,-1.961 1.895,-3.584 -0.541,-5.748 l -3.854,4.666 c -1.082,1.352 -0.271,1.894 1.082,3.246 l -0.541,0.271 -7.033,-5.748 0.541,-0.541 c 1.082,0.811 1.893,1.082 2.705,0 l 8.182,-9.467 c 1.082,-1.352 0.271,-1.893 -0.541,-2.705 z m 16.838,50.513 -5.479,-13.592 0.541,-0.271 c 0.812,1.082 1.082,1.893 2.502,1.353 l 11.631,-4.599 c 1.623,-0.541 1.082,-1.69 0.812,-2.772 h 0.541 l 3.244,8.182 -0.539,0.271 c -0.812,-1.623 -1.082,-2.434 -2.977,-1.623 l -11.359,4.328 c -1.082,0.541 -1.082,1.082 -0.541,2.705 1.352,3.516 4.057,4.057 7.031,4.327 l 0.271,0.609 z m 18.459,3.787 0.541,14.674 -5.207,0.271 V 98.44 c 3.855,-0.812 4.396,-2.705 4.125,-6.018 0,-1.623 -0.27,-1.894 -1.352,-1.894 l -6.018,0.271 c 0.27,2.434 0.811,3.787 4.125,4.058 v 0.541 l -8.725,0.608 v -0.879 c 3.246,-0.27 4.059,-1.623 3.787,-4.328 l -6.221,0.271 c -1.082,0.271 -1.354,0.541 -1.082,2.434 0,2.502 0.811,4.937 4.598,6.289 l 0.271,0.812 -5.41,-0.812 -0.812,-14.944 h 0.543 c 0.27,1.623 0.539,2.164 1.893,2.164 l 12.51,-0.541 c 1.623,0 1.623,-1.082 1.623,-2.435 z m -0.81,25.223 -3.855,14.403 -4.867,-1.353 0.27,-0.54 c 3.518,0.27 4.598,-1.353 5.479,-4.599 0.27,-1.353 0.27,-1.894 -0.881,-2.164 l -5.68,-1.353 c -0.541,2.435 -0.27,3.787 2.705,4.869 v 0.812 l -8.385,-2.164 v -0.812 c 3.246,0.541 4.328,-0.541 4.869,-2.976 l -5.951,-1.42 c -1.082,-0.271 -1.352,0 -1.893,1.69 -0.541,2.435 -0.541,5.14 2.703,7.573 l -0.27,0.812 -4.936,-2.434 3.854,-14.404 h 0.541 c 0,1.623 -0.271,2.435 1.354,2.705 l 11.969,2.976 c 1.623,0.541 1.893,-0.541 2.162,-1.623 h 0.812 z m -22.586,15.485 c -1.082,1.353 -0.811,2.164 0,2.705 l 10.346,7.642 c 1.082,0.811 1.895,0 2.436,-0.812 l 0.541,0.27 -4.6,6.492 c -4.326,5.748 -9.264,4.869 -12.238,2.435 -3.787,-2.705 -5.41,-7.303 -1.895,-12.442 l 4.869,-6.56 z m -2.434,6.289 c -0.812,-0.812 -1.354,-0.812 -1.895,0.271 -1.893,2.164 -1.893,4.869 3.246,8.655 1.623,1.353 6.561,4.058 8.994,0.541 1.082,-1.353 0.541,-1.623 0,-1.893 z m -12.781,26.575 c 1.42,1.082 4.396,2.435 6.83,0.541 1.082,-0.812 1.623,-2.164 0.541,-3.517 -0.812,-1.082 -1.352,-1.082 -3.787,-0.812 l -4.125,0.812 c -1.082,0.271 -3.516,0.271 -5.139,-1.894 -1.354,-1.622 -1.893,-5.139 1.623,-8.182 1.893,-1.353 3.516,-1.353 4.057,-1.894 0.271,-0.271 0.271,-0.812 0,-1.082 l 0.609,-0.541 4.057,4.869 -0.811,0.608 c -1.895,-1.69 -4.938,-3.043 -7.371,-1.149 -2.436,1.961 -1.082,4.125 -0.812,4.125 1.082,1.353 2.436,1.353 4.059,0.811 l 1.961,-0.27 c 4.867,-1.082 6.221,0.54 6.762,1.622 1.082,1.082 2.434,4.328 -1.352,7.304 -1.623,1.353 -2.977,1.353 -3.518,1.894 -0.541,0.271 -0.27,0.541 -0.27,1.081 l -0.541,0.542 -3.314,-4.328 z"
     fill="#4c8757"
     id="path20" /></g></g>

</svg>
