<?xml version="1.0" encoding="utf-8"?>
<!-- Generator: Adobe Illustrator 26.5.0, SVG Export Plug-In . SVG Version: 6.00 Build 0)  -->
<svg version="1.1" id="affiliation" xmlns="http://www.w3.org/2000/svg" xmlns:xlink="http://www.w3.org/1999/xlink" x="0px"
	 y="0px" viewBox="0 0 256 256" style="enable-background:new 0 0 256 256;" xml:space="preserve">
<style type="text/css">
	.st0{fill:#FFFFFF;}
	.st1{fill:#EE2425;}
</style>
<rect id="black" width="256" height="256"/>
<circle id="background" class="st0" cx="128" cy="128" r="128"/>
<g id="logo">
	<path id="path917" class="st1" d="M120.9,59.7c-0.9,0.1-2.2,0.5-3-1.1c-0.7-1.5,1.9-3.9,2.8-4.7c1.1-1.1-0.4-2.1-1.2-0.9
		c-0.2,0.3-2.3,3.2-3.9,3.2c-2.5,0-2.3-2.9-2.3-2.9s-2.8-1.8-2.8-7.4c0-5,3.3-7.4,3.3-7.4s0-2.8,2.2-2.8c2.2,0.1,3.7,3.1,3.8,3.3
		c1.1,1.7,2.5,0.2,1.5-1c-2.3-2.8-2.8-5.1-0.2-6.3c0.9-2.1,3.7-3.6,6.8-3.8h0.2c3,0.2,5.8,1.7,6.8,3.8c2.5,1.2,2.1,3.4-0.3,6.3
		c-1,1.2,0.4,2.6,1.6,1c0.1-0.2,1.6-3.3,3.8-3.3c2.2-0.1,2.2,2.8,2.2,2.8s3.3,2.4,3.3,7.4c0,5.6-2.8,7.4-2.8,7.4s0.1,2.9-2.3,2.9
		c-1.6,0-3.6-2.9-3.9-3.2c-0.8-1.2-2.3-0.1-1.2,0.9c0.9,0.8,3.5,3.2,2.8,4.7c-0.7,1.6-2.1,1.3-3,1.1c0,0-0.9,1.5-2.1,1.5
		c6.4,4.8,16.6,2.1,17.9-1.4c0,0-1.7,0.3-1.7-1.5c0-1.1,1.1-1.7,2.6-1.9c-0.4-0.7-0.5-1.5-0.4-2.4c0.1-2.5,1.9-4.6,3.9-4.7
		c2-0.1,3.5,1.9,3.3,4.4c-0.1,1.2-0.5,2.4-1.2,3.3c1.4,0.5,2.5,1.2,2.3,2.1c-0.4,2.3-2.5,1.8-2.5,1.8c-0.3,5.3,7.8,6.3,9.9,4.9
		c-0.8-3.1,0.4-3.9,1.4-4.8c0.6-0.6,2.6-1.8,2.9-2c0.6-0.4,0.9-1.2,0.5-1.6c-0.4-0.3-1.2,0.2-1.6,0.6c-0.5,0.6-1.5,2.1-3,1.7
		c-1.8-0.5-1.1-2.6-1.4-3.7c-2-7.1-0.3-12,6.8-15c0,0,2.7-2.8,5.1-1.6c2.3,1.2,0.9,5,0.9,5l0.7,0.4c2.6-4.7,6.3-8.1,11.7-8.2
		c3.8-0.1,5.6,2.1,5.8,5.2c0.4,6.8-6.6,4.3-6.1,1.7c0,0-1.7,0.2-2.6,1.7c0-0.4,0-4.5-3.6-2.3c-1.2,1.2-2.3,2.5-3,4.1
		c-0.4,1.4,0.2,1.6-0.5,2.9c-0.5,1-1.3,1.3-1.6,2c-0.4,0.7,0.1,2.1-0.3,3c-0.6,1.1-1.3,1.2-1.8,2.2c-0.4,0.8-5.4,13.7-5.4,13.7
		s2,1.3,1.6,3.2c-0.5,2.6-2.1,2-3,3.7c-27.9-7.1-57.2-7.1-85.1-0.2c-0.9-1.5-2.5-1.1-2.9-3.6c-0.4-1.9,1.6-3.2,1.6-3.2
		s-5-12.8-5.4-13.6c-0.5-1-1.3-1.1-1.8-2.2c-0.5-0.9,0-2.3-0.4-3c-0.3-0.7-1.1-1-1.6-2c-0.7-1.3,0-1.5-0.5-2.8c-0.1-0.4-2-3.5-3-4.1
		c-3.6-2.1-3.6,1.9-3.6,2.3c-0.9-1.5-2.6-1.7-2.6-1.7c0.6,2.6-6.4,5.1-6.1-1.7c0.1-3.1,2-5.3,5.8-5.2c5.4,0.1,9.1,3.6,11.7,8.2
		l0.7-0.4c0,0-1.4-3.7,0.9-5c2.4-1.3,5.1,1.6,5.1,1.6c7.1,2.9,8.7,7.9,6.8,14.9c-0.3,1.1,0.5,3.2-1.3,3.7c-1.5,0.4-2.5-1.1-3-1.7
		c-0.4-0.4-1.2-0.9-1.5-0.6c-0.4,0.3-0.1,1.2,0.5,1.6c0.3,0.2,2.2,1.4,2.9,2c0.9,0.9,2.1,1.8,1.4,4.8c2.1,1.4,10.1,0.4,9.9-4.9
		c0,0-2.1,0.6-2.5-1.7c-0.1-0.9,0.9-1.6,2.3-2.1c-0.7-0.9-1.2-2-1.3-3.3c-0.1-2.5,1.4-4.5,3.4-4.4c2,0.1,3.8,2.2,3.9,4.7
		c0,0.9-0.1,1.7-0.4,2.4c1.5,0.2,2.6,0.8,2.6,1.9c0,1.8-1.7,1.5-1.7,1.5c1.4,3.6,11.5,6.3,17.9,1.4
		C121.8,61.2,120.9,59.7,120.9,59.7 M123.3,46.5c0,2.6,2.1,4.7,4.7,4.7c2.6,0,4.7-2.1,4.7-4.7c0-2.6-2.1-4.7-4.7-4.7
		C125.4,41.8,123.3,43.9,123.3,46.5 M149.4,67.1c2-0.1,6,0.8,6,0.8s-1.7-1.9-2.5-3.2c0,0-0.9,0.9-1.5,1.2
		C150.8,66.3,150.1,66.7,149.4,67.1 M128,62.9c-1.1,1.3-2.5,2.3-4,3l3.9-0.1h0.1l3.9,0.1C130.4,65.3,128.9,63.8,128,62.9
		 M106.6,67.1c0,0-1.7-0.9-2.1-1.2c-0.5-0.4-1.5-1.2-1.5-1.2c-0.8,1.3-2.5,3.2-2.5,3.2S104.6,67,106.6,67.1 M169.4,79.9
		c1.3,0.4,3.2,1.7,2.6,3.6c-0.5,1.9-2.7,2.1-4.1,1.8c-1.3-0.4-3.2-1.7-2.7-3.6C165.8,79.7,168,79.5,169.4,79.9 M152.1,79.4l-4,3.3
		l-3.3-4l4-3.3L152.1,79.4z M88.6,85.2c-1.3,0.4-3.6,0.2-4.1-1.7c-0.5-1.9,1.4-3.2,2.7-3.6c1.3-0.4,3.6-0.1,4.1,1.8
		C91.7,83.5,89.9,84.8,88.6,85.2 M124.1,78.1c0-1.5,1.8-2.7,4.1-2.7c2.3,0,4.2,1.2,4.2,2.7c0,1.5-1.8,2.7-4.2,2.7
		C125.9,80.8,124.1,79.6,124.1,78.1 M104.4,79.4l3.3-4l4,3.3l-3.3,4L104.4,79.4z M70.2,200c0.4-1.8,2.4-1.4,2.4-1.4
		s-0.5-1.7,1.2-2.4c1.9-0.9,2.8,1.2,2.8,1.2l0.8,5.4l-5.7-0.2C71.7,202.6,69.7,202,70.2,200 M78.3,191.1c0.5-1.8,2.4-1.4,2.4-1.4
		s-0.5-1.7,1.2-2.5c1.9-0.9,2.8,1.2,2.8,1.2l0.8,5.4l-5.8-0.2C79.8,193.7,77.8,193.1,78.3,191.1 M86.4,182.2
		c0.5-1.8,2.4-1.4,2.4-1.4s-0.5-1.7,1.2-2.4c1.9-0.9,2.8,1.2,2.8,1.2l0.8,5.4l-5.7-0.2C88,184.8,85.9,184.2,86.4,182.2 M128,99.7
		c0.5-1.8,2.4-1.4,2.4-1.4s-0.5-1.7,1.3-2.5c1.9-0.8,2.8,1.2,2.8,1.2l0.8,5.4l-5.8-0.2C129.6,102.3,127.5,101.8,128,99.7 M136,130.1
		c0.4-1.8,2.4-1.4,2.4-1.4s-0.5-1.7,1.2-2.5c1.9-0.9,2.8,1.2,2.8,1.2l0.8,5.4l-5.7-0.2C137.5,132.7,135.5,132.1,136,130.1
		 M145.5,120c0.5-1.8,2.4-1.4,2.4-1.4s-0.5-1.7,1.2-2.5c1.9-0.9,2.8,1.2,2.8,1.2l0.8,5.4l-5.7-0.2C147,122.6,145,122,145.5,120
		 M155,109.9c0.5-1.8,2.4-1.4,2.4-1.4s-0.4-1.7,1.3-2.5c1.9-0.9,2.8,1.2,2.8,1.2l0.8,5.4l-5.8-0.2
		C156.6,112.5,154.5,111.9,155,109.9 M164.6,99.8c0.5-1.8,2.4-1.4,2.4-1.4s-0.5-1.6,1.2-2.4c1.9-0.9,2.8,1.2,2.8,1.2l0.8,5.4
		l-5.7-0.2C166.1,102.4,164.1,101.8,164.6,99.8 M64.8,167.8c0.5-1.8,2.4-1.4,2.4-1.4s-0.5-1.7,1.2-2.5c1.9-0.9,2.8,1.2,2.8,1.2
		l0.8,5.4l-5.7-0.2C66.3,170.3,64.3,169.8,64.8,167.8 M86.9,221.8c0.5-1.8,2.4-1.4,2.4-1.4s-0.5-1.6,1.2-2.4
		c1.9-0.9,2.8,1.2,2.8,1.2l0.8,5.4l-5.7-0.2C88.5,224.4,86.4,223.8,86.9,221.8 M96.3,211.6c0.5-1.8,2.4-1.4,2.4-1.4
		s-0.5-1.7,1.2-2.4c1.9-0.9,2.8,1.2,2.8,1.2l0.8,5.4l-5.7-0.2C97.9,214.1,95.8,213.6,96.3,211.6 M105.8,201.3
		c0.5-1.8,2.4-1.4,2.4-1.4s-0.5-1.6,1.2-2.4c1.9-0.9,2.8,1.2,2.8,1.2l0.8,5.4l-5.8-0.2C107.3,203.9,105.3,203.3,105.8,201.3
		 M115.2,191c0.4-1.8,2.4-1.4,2.4-1.4s-0.5-1.7,1.2-2.4c1.9-0.9,2.8,1.2,2.8,1.2l0.8,5.4l-5.7-0.2
		C116.7,193.6,114.7,193.1,115.2,191 M156.7,147.5c0.5-1.8,2.4-1.4,2.4-1.4s-0.5-1.6,1.2-2.4c1.9-0.9,2.8,1.2,2.8,1.2l0.8,5.4
		l-5.7-0.2C158.2,150,156.2,149.5,156.7,147.5 M165.2,138.2c0.4-1.8,2.3-1.4,2.3-1.4s-0.5-1.7,1.2-2.5c1.9-0.9,2.8,1.2,2.8,1.2
		l0.8,5.4l-5.8-0.2C166.7,140.8,164.7,140.2,165.2,138.2 M173.7,128.9c0.4-1.8,2.4-1.4,2.4-1.4s-0.5-1.7,1.2-2.5
		c1.9-0.9,2.8,1.2,2.8,1.2l0.8,5.4l-5.8-0.2C175.2,131.5,173.2,130.9,173.7,128.9 M182.2,119.7c0.4-1.8,2.4-1.4,2.4-1.4
		s-0.5-1.7,1.2-2.5c1.9-0.9,2.8,1.2,2.8,1.2l0.8,5.4l-5.7-0.2C183.7,122.2,181.7,121.7,182.2,119.7 M116.2,230.9
		c0.5-1.8,2.4-1.4,2.4-1.4s-0.5-1.6,1.2-2.4c1.9-0.9,2.8,1.2,2.8,1.2l0.8,5.4l-5.7-0.2C117.8,233.5,115.7,232.9,116.2,230.9
		 M182.3,157.8c0.5-1.8,2.4-1.4,2.4-1.4s-0.5-1.7,1.2-2.4c1.9-0.9,2.8,1.2,2.8,1.2l0.8,5.4l-5.7-0.2
		C183.8,160.4,181.8,159.9,182.3,157.8 M118.4,165.1c0-0.2,0.4-0.2,1.3-0.4c0.9-0.1,1.6-0.4,1.6-0.1c0,0.4-0.6,0.1-0.6,0.8v6.7
		c0,0.4,0.5,0.1,0.5,0.4c0,0.4-0.8,0.2-1.4,0.2s-1.4,0.1-1.4-0.1c0-0.4,0.6,0,0.6-0.4v-6.4C118.9,165.1,118.4,165.7,118.4,165.1
		 M111.1,168.1c0-0.2,0.2-0.2,0.7-0.4c0.4-0.2,0.7-0.5,1.1-0.1c0.4,0.3,2.5,2.7,2.5,2.7v-3.4c0-0.4-0.7,0.1-0.7-0.3
		c0-0.2,0.3-0.2,0.8-0.5c0.5-0.2,1.2-0.7,1.2-0.4s-0.5,0.2-0.5,0.8v6.5c0,0.5,0,0.5-0.3,0.5c-0.1,0-3.4-4.2-3.4-4.2v4.4
		c0,0.4,0.8-0.1,0.8,0.2c0,0.2-0.5,0.4-1,0.5c-0.5,0.2-1.1,0.5-1.1,0.2c0-0.4,0.6-0.2,0.6-0.6v-5.8
		C111.7,168.1,111.1,168.4,111.1,168.1 M108.5,172.1c0-2.8-1.8-1.7-1.8-1.7v5.7C106.8,176.1,108.5,176.1,108.5,172.1 M104.4,171
		c0-0.2,0.9-0.5,1.4-0.8c1.1-0.5,4.4-2.2,4.4,1.9c0,3.8-2.6,4.4-3.5,4.8c-0.8,0.4-2,0.9-2,0.7c-0.1-0.2,0.5-0.3,0.5-1V172
		C105.2,170.8,104.4,171.4,104.4,171 M116,154.1c0-0.2,0.7-0.3,1.1-0.4c0.6-0.2,1-0.3,1.2,0s1.5,2.2,1.5,2.2l1.7-2.4
		c0.1-0.2,0.2-0.4,0.8-0.4c0.7,0,1.1-0.1,1.1,0c0,0.3-0.5,0.2-0.5,0.7v6.1c0,0.7,0.5,0.5,0.5,0.7c0,0.2-0.3,0.1-1.4,0.1
		c-0.9,0-1.4,0.1-1.4-0.1c0-0.3,0.4,0,0.4-0.6v-4.1c0,0-1.5,2.2-1.6,2.2s-2-2.8-2-2.8v4.9c0,0.8,0.8,0.3,0.8,0.6
		c0,0.2-0.6,0.2-1,0.4c-0.5,0.1-0.9,0.3-1,0.1c-0.1-0.3,0.6-0.1,0.6-1v-5.6C116.6,154,116,154.4,116,154.1 M113.8,155
		c0.3-0.1,1-0.5,1-0.4c0.1,0.1-0.3,0.2-0.5,1.4c-0.1,0.4-1.4,7.2-1.9,7.4c-0.1,0.1-2.3-5.3-2.5-5.8c-0.4-0.7-0.8-0.2-0.9-0.5
		c0-0.2,0.6-0.4,1.1-0.6c0.2-0.1,1.2-0.7,1.3-0.6c0.2,0.2-0.5,0.2-0.2,1.1l1.4,3.2l1-4c0.2-1-0.6-0.5-0.6-0.7
		C113,155.3,113.4,155.1,113.8,155L113.8,155z M105.4,162.1v3.7c0,0,1.9-0.4,1.9-2.7C107.3,161.1,105.4,162.1,105.4,162.1
		 M105.4,158.8v2.5c0,0,1.4-0.5,1.4-1.7C106.8,158.1,105.4,158.8,105.4,158.8 M105.5,158.1c0.8-0.3,2.9-0.7,2.9,1.1
		c0,1.3-0.9,1.6-0.9,1.6s1.6,0.3,1.6,1.6c0,1.5-0.7,2.5-1.5,2.9l-3.2,1.6c-0.2,0.1-0.8,0.5-0.9,0.4c-0.2-0.4,0.4-0.3,0.4-1.2v-5.9
		c0-1.3-0.6-0.7-0.6-1.1C103.4,158.9,104.7,158.5,105.5,158.1 M118.8,141.4v3c0,0,1.4-0.1,1.4-1.7
		C120.2,140.8,118.8,141.4,118.8,141.4 M122.5,148.1c0.4,0,0.6-0.1,0.6-0.1s-0.1,1.1-1.2,1.1c-1.5,0-1.5-2.6-1.9-3.4
		c-0.5-0.8-1.2-0.4-1.2-0.4v2.7c0,0.9,0.5,0.5,0.5,0.8c0,0.1-0.4,0.2-0.4,0.2s-1.2,0.4-1.6,0.4c-0.4,0.1-0.6,0.2-0.6,0
		c0-0.4,0.4-0.1,0.4-1.1v-5.5c0-1.1-0.6-0.7-0.6-1c0-0.2,0.4-0.2,0.9-0.4c0.7-0.2,1-0.4,2-0.6c1-0.2,2.7,0.2,2.7,1.6
		c0,1.5-0.9,1.8-1.4,2.2C122.5,145.5,121.7,148,122.5,148.1 M110.9,144.2c0.7-0.2,2-0.8,3.3-1.6c0.2-0.1,0.7-0.4,1,0.1
		c0.3,0.5,0.5,1.2,0.3,1.2c-0.2,0.1-0.4-0.1-0.7-0.2c-0.3-0.1-0.6-0.3-1-0.2l-0.8,0.3v2.3c0,0,0.8,0,0.9-0.4
		c0.1-0.4,0.2-0.9,0.5-0.9c0.1,0,0.1,0.4,0.1,1.1v0.5c0,0.8,0,1.1-0.1,1.1c-0.2,0-0.4-0.6-0.5-0.7c-0.1-0.2-0.9,0-0.9,0.1v3.4
		l0.9-0.5c0.4-0.2,1.1-1,1.3-1.4c0.2-0.5,0.4-0.8,0.6-0.8c0.1,0-0.2,1.5-0.2,1.5s0,0.6-0.5,0.8l-3.4,1.6c-0.5,0.2-1,0.6-1,0.4
		c0-0.3,0.4-0.1,0.4-1.1v-5.6c0,0,0-0.5-0.4-0.5C110.6,144.5,110.4,144.4,110.9,144.2 M104.7,146.8c0.4-0.1,1.5-0.6,1.5-0.5
		c0.1,0.4-0.6,0.3-0.4,1l1.5,3.6l1.1-4.3c0.2-0.9-0.5-0.6-0.6-0.8c0-0.2,0.6-0.4,0.9-0.5c0.3-0.1,1.2-0.5,1.2-0.4
		c0.1,0.2-0.4,0.2-0.6,1.1c-0.3,1-2,7.7-2.4,8c-1.1-2-2-4-2.7-6.1c-0.2-0.4-0.8-0.3-0.9-0.5C103.3,147.2,104.3,146.9,104.7,146.8
		 M134.9,165.4c0-0.2,0.2-0.1,0.6,0c0.4,0.1,0.9,0.2,1.2,0.8l2.8,4.9v-3.9c0-0.5-0.5-0.5-0.5-0.7c0-0.2,0.4,0,0.7,0.1
		c0.4,0.1,0.9,0.2,0.9,0.4c0,0.2-0.5-0.1-0.5,0.4v7.3c0,0,0,0.4-0.2,0l-3.9-6.3v4.2c0,0.5,0.5,0.4,0.5,0.6c0,0.2-0.5,0.1-0.9,0
		c-0.4-0.1-0.8,0-0.8-0.3c0-0.3,0.4,0.1,0.4-0.5v-6.2C135.4,165.6,134.9,165.6,134.9,165.4 M138.4,154.2c0-0.3,1.2,0.2,2.1,0.5
		c1,0.3,2.7,0.6,2.7,1.1c0,0.7,0.2,1.4-0.1,1.4c-0.1,0-0.4-0.9-0.7-1.2c-0.5-0.4-1-0.6-1.6-0.7c-0.2,0-0.2,0-0.2,0.2v2.3
		c0,0,0.6,0.3,0.9,0.1c0.4-0.1,0.4-0.7,0.6-0.6c0.2,0,0.1,0.5,0.1,1.2c0,0.8,0.1,1.5-0.1,1.4c-0.2-0.1-0.2-0.7-0.6-1.1
		c-0.2-0.2-0.5-0.4-0.9-0.5v3.7c0,0,0.4,0.5,1.4,0.2c0.9-0.3,1.6-0.9,1.7-0.8s0.1,0.4-0.4,1.1c-0.5,0.7-0.7,1.2-1.2,1l-2.1-0.9
		c-0.6-0.3-1.9-0.6-1.9-0.9c0-0.3,0.6,0.2,0.6-0.6v-6.3C138.9,154.5,138.4,154.4,138.4,154.2 M136.9,153.1c0.4,0,0.3,1.2,0.4,1.6
		c0.1,0.8,0.3,1.4,0,1.5c-0.4,0-0.8-1.2-1.4-1.8c-0.6-0.6-2.6-1.6-2.6,2.7c0,3.6,1.6,3.6,2.5,3.3c0.8-0.3,1.2-1,1.3-0.9
		s-0.7,1.8-2.5,2c-1.8,0.2-3.5-1.5-3.5-4.3c0-2.7,1.3-4.4,3-4.4c1.4,0,1.7,0.9,2.3,0.9C136.8,153.8,136.5,153.1,136.9,153.1
		 M141.5,143.4c0-0.4,0.7,0.1,1.7,0.5c1,0.4,1.7,0.6,1.7,0.8c-0.1,0.1-0.8-0.1-0.7,0.4l1.2,4.2l1.4-3.2c0.1-0.4-0.4-0.5-0.3-0.6
		c0.1-0.2,0.5,0.1,0.8,0.2c0.3,0.2,0.8,0.4,0.7,0.6c-0.1,0.2-0.5-0.3-0.6,0.1l-2.7,6.2l-2.6-8.4
		C141.7,143.6,141.4,143.7,141.5,143.4 M135.5,141.2c0-0.2,0.4,0,0.4,0l2.3,0.8c0,0,0.4,0.1,0.4,0.3c0,0.2-0.8-0.2-0.8,0.5v6.5
		c0,0,0.2,0.5,1,0.1c0.8-0.4,1.9-1.1,1.9-1.1s0.5-0.3,0.4,0.1c-0.1,0.4-0.7,1.6-0.7,1.6s-0.1,0.5-0.7,0.4c-0.6-0.1-2.2-0.6-2.6-0.7
		c-0.5-0.1-1.1-0.3-1.6-0.5c0,0-0.2,0-0.2-0.2c0-0.2,0.7,0,0.7-0.6V142C135.9,141.4,135.5,141.4,135.5,141.2 M144.4,164.2
		c0-0.4,0.6,0.2,0.6-0.5v-6.3c0-0.8-0.4-0.7-0.4-1.1s0.7,0.1,0.9,0.2l2.2,1.1c0.2,0.1,2.1,0.9,2.1,3c0,1.5-1.2,1.2-1.2,1.2
		s1.2,0.7,1.3,1.8l0.2,2.1c0,0.1,0.2,0.7,0.9,0.2c0,0,0.1,1.3-1.4,0.8c-0.9-0.4-1.2-1.2-1.3-1.8c-0.1-0.6-0.4-3.5-1.7-3.4v2.9
		c0,0.7,0.4,0.5,0.4,1c0,0.3-0.6-0.2-1.2-0.4C145,164.6,144.4,164.5,144.4,164.2 M146.7,157.8v2.9c0.2,0.1,1.6,1,1.6-0.8
		C148.3,158.1,146.7,157.8,146.7,157.8 M143.5,168.8c0.1-0.5-0.3-0.6-0.2-0.8c0.1-0.1,0.7,0.2,1,0.4c0.4,0.2,0.9,0.3,1.1,0.8
		c0.1,0.5,2,6.9,2.2,7.5c0.2,0.7,0.6,0.5,0.5,0.8c0,0.1-0.6-0.1-1.7-0.6c-0.9-0.4-1.4-0.5-1.4-0.6c0-0.3,0.9,0.2,0.7-0.4l-0.5-1.5
		l-2.5-0.8l-0.4,1.2c-0.2,0.6,0.4,0.5,0.2,0.7c0,0.1-0.4,0-0.9-0.2c-0.4-0.2-0.6-0.2-0.6-0.4c0-0.2,0.4,0.1,0.5-0.4
		C141.9,174,143.4,169.1,143.5,168.8 M143.9,169.6l-0.9,2.8l2,0.6L143.9,169.6z M194.2,90.7v83.6c1,50-39.9,67.7-66.9,67.7
		c-27,0-67.9-17.7-66.9-67.7V90.7h24.9c-0.1-1.6,0.3-2.6,0.3-2.7c34.1-6.8,50.5-7.1,84.6,0c0.7,0.9,0.9,1.8,0.7,2.7H194.2z
		 M73,211.9L99,184.1V176l-3-0.1c0,0-2-0.6-1.5-2.6c0.5-1.8,2.4-1.4,2.4-1.4s-0.5-1.6,1.2-2.4c0.3-0.1,0.6-0.2,0.9-0.2v-5.4
		l-32.7,34.7C68.1,203.5,70.3,208,73,211.9 M105.4,140.8l1.1-0.5c1.2-0.6,3.5-1.8,6-2.8c2.4-1.1,5.2-2,7.5-2c2.5,0,4.9,0.8,6.9,2.3
		l0.1,0.1l0.1-0.2c0.3-0.4,0.7-0.7,1.2-1.1c1.1-0.7,2.8-1.2,5.4-1.2c2.7,0,5.8,1.1,8.2,2.2l0.6,0.2l42-44.7h-19l-37,39.3v-18.9
		l19.2-20.4H62.9v81.2c-0.1,3,0,5.9,0.3,8.7l18.3-19.5H99v-15.5c-0.4,0.5-0.8,0.4-0.8,0.4s0.4-1.3-0.8-1.5h-0.3
		c-0.7,0-1.1,0.4-1.5,0.7c-0.6,0.5-2.6,2.8-2.9,3.1c-0.4-0.4-2.3-2.6-2.9-3.1c-0.4-0.4-0.8-0.7-1.5-0.7l-0.3,0
		c-1.2,0.2-0.8,1.5-0.8,1.5s-1.1,0.2-1.1-1.5c0-1.2,0.9-1.9,1.8-2.1c1.3-0.2,2.5-0.4,2.8-2.5c0-0.4-0.1-0.5-0.1-0.5
		s-0.5,0.7-1.6,1.2c-1.3,0.7-4.8,0.6-4.7,2.7c0,0.8,0.9,0.7,0.9,0.7s0,0.4-0.6,0.5H84c-0.8-0.1-1.1-1-1-2.1c0-0.7-0.4-1.6-1.3-1.4
		c-0.2,0-0.3,0.1-0.5,0.2c-0.7,0.4-0.5,1-0.5,1s-0.7-0.4-0.6-1.3c0.1-0.8,0.6-1.1,1.3-1.4l0.3,0c0.9-0.1,1.7,0.1,1.7,0.1
		s-0.2-0.7-0.1-1.4c0.1-0.6,0.4-1.2,1.3-1.4c1.3-0.2,1.6,0.6,1.4,1.1c-0.1,0-0.3-0.3-0.7-0.2c0,0-0.1,0-0.1,0
		c-0.2,0.1-0.3,0.2-0.4,0.4c-0.2,0.5,0.2,1.2,0.3,1.3c0.2,0.4,1.1,0.6,2.1,0.4c1.2-0.3,2-1.1,2.4-1.7c0.2-0.4,0.3-0.7,0.3-0.9
		l0.6-7.2c0,0,0.2-1.8-1.1-2.1h-0.4c-1.1,0.2-2.2,1.6-1.8,3.3c0.2,1.4-0.4,2.4-1.1,2.6c-0.9,0.2-1.4,0-1.7-0.6
		c1.5-0.1,1.4-1.3,0.9-1.7c-0.2-0.2-0.5-0.2-0.8-0.2c-1.4,0.2-3.6,2.1-3.9,3.3c-0.4,1.1,0.4,0.8,0.8,1.6c0.2,0.7-0.4,1.2-0.4,1.2
		l-0.1,0.6c-0.2,0.6-0.5,0.8-0.8,0.9c-0.2,0-0.4,0-0.5-0.1c0.4-0.1,0.5-0.5,0.5-0.8v-0.4c0,0-0.4,0.1-0.7-0.5
		c-0.4-0.7,0.1-0.9-0.4-1.6c-0.5-0.7-1.8-1.4-2.8-1.6h-0.2c-0.2,0-0.4,0.1-0.7,0.2c-0.1,0-0.2,0-0.3,0c-0.8,0-0.6-0.5-1.2-0.4
		c-0.4,0.1-0.5,0.4-0.4,0.9v0.1c-0.3-0.2-0.6-0.6-0.6-1c0-1,0.7-1.8,1.3-1.8c0.7-0.1,1.1,0.4,1.1,0.4c0.4-1.7-0.9-1.1-1.6-2
		c-0.5-0.6-0.3-0.9-0.2-1.1c0.1-0.3-0.5-0.4-0.9-0.3c-0.1,0-0.2,0-0.3,0.1c-0.1-0.1,0.1-0.9,1-1c0.3-0.1,0.6,0,1.1,0.1
		c0.5-0.1,0.9,0.1,1,0.4c0.2,0.4,0,0.8,0.1,1.2c0.1,1.1,0.9,1.1,1,1.1c-0.6-1.6,0.1-2.1,0.2-2.4c0.1-0.3-0.1-0.6-0.4-0.7
		c0,0,0,0,0,0c-0.1-0.1-0.2-0.1-0.1-0.1c0,0,1.6-0.1,1.8,0.9c0,0,0.7,0.4,0.7,1.2c0,1.1-0.6,1.2-0.8,1.4c0.2,1.1,0.8,1.3,1.4,1.2
		s1.2-0.5,1.2-0.5c1-0.4,3.2-1.7,2.6-2.8c-0.3-0.5-0.7-0.7-1.2-0.6c-0.3,0-0.5,0.1-0.7,0.3c-0.6,0.6-0.3,1.4-0.3,1.4
		c-1,0.2-1.4-1.4-0.8-2.1c0.4-0.5,0.9-0.7,1.5-0.8c0.6-0.1,1.3-0.1,1.9-0.2c0.7-0.1,1.4-0.6,1.9-1.6c0.4-0.7,0.4-1.6,0.1-2.4
		c-0.4-0.8-1.1-1.8-2.2-2c-0.2,1.8-1.2,3.2-2.4,4c-0.3,0.2-0.6,0.3-0.9,0.4c-0.2,0-0.4,0-0.3,0c1.6-1.8,1.2-3.7,1.1-3.9
		c-0.8,1.5-2,2.7-3.6,3.4c-0.2,0.1-0.4,0.1-0.6,0.2c-1.2,0.2-2.3-0.4-1.9-0.4c0.7-0.1,3.9-1.9,2.9-5.8c-0.8,1.5-1.9,2.8-3.2,3.8
		c-0.7,0.5-1.5,0.7-2.1,0.9c-1.3,0.2-2.3-0.1-2.1-0.4c0,0,3.7-1.7,3.7-3.4c-0.7,0.5-1.4,0.9-2.3,1.1c-0.2,0-0.3,0-0.5,0
		c-3.1,0-3.1-2.2-3.1-2.2c0.2,0,3.2,0.2,5.5-4.8c0,0-1.6,0.5-3.4,0.7c-1.1,0.1-1.5-0.5-1.4-0.5c0.2,0.1,0.5,0.1,0.7,0
		c0.6-0.1,1.4-0.5,2.5-1.3c-0.3-0.1-4.2-1.8-2.7-4.4c0,0,1.1,0.9,2.4,1.1c1,0,2.6-0.1,3-1.1c0,0-2.1-0.1-4.1-1.4
		c-1.2-0.7-1.7-2.5-1.2-2c0.4,0.4,1,0.7,1.6,0.9c0.5,0.1,0.9,0,0.9,0s-2.9-2.8-1.1-5c0,0,1,2.8,3.4,2.8c0,0-1.2-1.1-1.5-2.6
		c-0.2-0.9-0.1-2.2,0.1-1.8l0.6,1.1c0.3,0.5,1,1.2,1.5,1.7c0,0-0.4-1.5,0.1-2.8c0.1-0.2,0.7-1.3,0.8-1.1l0,1.2
		c0.2,0.9,0.5,2.1,2.3,3.9c2.3,2.3,4.7,2.3,4.7,3.8c-0.1,1.7-2.2,1.5-3.6,1.4c-0.5,0-0.5,0.7,0,1.3c1.1,1.6,6,1.9,7.6-0.6
		c0.6-0.9,0.7-1.9,0.4-2.9c-0.5-1.3-1.5-1.4-3.6-1.8c-1.4-0.4-1-1-0.8-1c0,0,0.5,0.2,0.9,0.2c1.1,0,0.4-1.4,0.3-1.3
		c-0.3,0-1.4,0.5-2.4,0.6c-1.2,0.1-2.7-0.4-2.7-1.2c0-1.1,1.3-1.4,1.2-1.1c0,0.1-0.8,1.5,1.5,1.4c0.7,0,2.1-0.1,2.1-0.2
		c0-0.4-0.7-0.9-1.2-0.9c-0.4,0-0.7,0.1-1.4,0c-0.3-0.6,0.4-1.2,0.9-1.5c0.5-0.2,0.8-0.1,1-0.2c0.3-0.1,0.4-0.9,2-1
		c0.8,0,2,0.5,2.5,0.5c0.6,0,1.5-0.4,1.6-0.2c0.1,0.2-0.4,0.7-0.3,1.2c0,1.1,1.9,5.6,3.9,6c2.1-0.4,4-4.8,3.9-6
		c0.1-0.5-0.4-1-0.3-1.2c0.1-0.1,1.1,0.2,1.6,0.2s1.7-0.5,2.5-0.5c1.5,0,1.7,0.9,2,1c0.2,0.1,0.5,0,1,0.2c0.5,0.2,1.1,0.9,0.9,1.5
		c-0.7,0.1-1.1,0-1.4,0c-0.5,0-1.2,0.5-1.2,0.9c0,0.1,1.4,0.2,2.2,0.2c2.3,0.1,1.5-1.3,1.5-1.4c0-0.3,1.2,0,1.2,1.1
		c0,0.9-1.5,1.4-2.7,1.2c-1-0.1-2.1-0.5-2.4-0.6c-0.1,0-0.7,1.3,0.3,1.3c0.4,0,0.9-0.2,0.9-0.2c0.2,0,0.6,0.6-0.8,0.9
		c-2,0.5-3.1,0.5-3.6,1.8c-0.3,1-0.2,2,0.4,2.9c1.5,2.5,6.4,2.1,7.6,0.6c0.4-0.5,0.5-1.3,0-1.3c-1.4,0.1-3.6,0.4-3.6-1.4
		c0-1.4,2.5-1.4,4.7-3.7c1.8-1.8,2.1-3,2.3-3.9l0.1-1.2c0-0.3,0.7,0.9,0.8,1.1c0.5,1.3,0.1,2.8,0.1,2.8c0.5-0.5,1.2-1.2,1.5-1.7
		l0.6-1c0.2-0.4,0.2,0.9,0.1,1.8c-0.2,1.4-1.5,2.6-1.5,2.6c2.5,0,3.5-2.8,3.5-2.8c1.9,2.2-1.1,5-1.1,5s0.4,0.1,0.9,0
		c0.7-0.2,1.2-0.4,1.6-0.9c0.5-0.5,0,1.2-1.2,2c-2,1.3-4.1,1.4-4.1,1.4c0.4,0.9,2.1,1.1,3,1.1c1.3-0.1,2.3-1.1,2.3-1.1
		c1.5,2.6-2.3,4.3-2.6,4.4c1.1,0.8,1.9,1.2,2.5,1.3c0.2,0.1,0.5,0.1,0.7,0c0.1,0-0.4,0.6-1.4,0.5c-1.8-0.2-3.3-0.7-3.3-0.7
		c2.4,5,5.3,4.9,5.5,4.8c0,0,0,2.3-3.1,2.3l-0.5,0c-1.1-0.2-2.1-1-2.3-1.1c0,1.7,3.7,3.4,3.7,3.4c0.2,0.2-0.8,0.5-2.1,0.4
		c-0.7-0.1-1.4-0.4-2.1-0.9c-1.3-1-2.4-2.3-3.2-3.8c-0.7,2.4,0.6,5,2.9,5.8c0.5,0.1-0.7,0.6-1.9,0.4c-0.2,0-0.4-0.1-0.6-0.2
		c-2.2-1-3.4-3.2-3.5-3.4c-0.3,1.4,0.2,2.8,1.1,3.9c0.1,0.1-0.1,0.1-0.3,0c-0.3-0.1-0.6-0.2-0.9-0.4c-1.2-0.9-2.2-2.2-2.4-4
		c-1.1,0.2-1.8,1.2-2.2,2c-0.4,0.8-0.3,1.6,0.1,2.4c0.6,1,1.1,1.4,1.9,1.6c0.6,0.1,1.3,0.1,1.9,0.2c0.6,0.1,1.1,0.3,1.5,0.8
		c0.6,0.7,0.1,2.3-0.8,2.1c0,0,0.3-0.7-0.3-1.4c-0.2-0.1-0.5-0.2-0.7-0.3c-0.5-0.1-0.9,0.2-1.1,0.6c-0.6,1.1,1.6,2.4,2.6,2.8
		c0,0,0.5,0.4,1.1,0.4c0.6,0.1,1.3-0.1,1.4-1.2c-0.2-0.2-0.8-0.3-0.8-1.4c0-0.9,0.7-1.2,0.7-1.2c0.2-1,1.8-0.9,1.8-0.9
		c0.2,0,0,0.1,0,0.1c-0.4,0.1-0.5,0.5-0.4,0.7c0.1,0.3,0.9,0.7,0.2,2.4c0.1,0,0.8,0,0.9-1.1c0.1-0.5-0.1-0.9,0.1-1.2
		c0.1-0.3,0.6-0.5,1-0.4c0.4-0.2,0.7-0.2,1.1-0.2c0.9,0.1,1.1,0.9,1.1,0.9s0,0.1-0.1,0.1c-0.1,0-0.2-0.1-0.3-0.1
		c-0.4-0.1-1,0-0.9,0.3c0,0.2,0.2,0.5-0.2,1.1c-0.6,0.8-2,0.2-1.6,2c0.1-0.1,0.4-0.5,1.1-0.5c0.6,0.1,1.3,0.8,1.3,1.8
		c0,0.4-0.2,0.8-0.5,1l0-0.1c0.1-0.5-0.1-0.8-0.4-0.9c-0.6,0-0.4,0.5-1.2,0.4h-0.3l-0.7-0.2h-0.2c-1.1,0.2-2.1,0.8-2.8,1.6
		c-0.5,0.7,0.1,0.9-0.4,1.6c-0.4,0.6-0.8,0.5-0.8,0.5v0.4C105.4,140.7,105.4,140.8,105.4,140.8 M102.7,141.8
		c0.6-0.2,1.4-0.4,2.1-0.7c-0.1-0.2-0.2-0.3-0.2-0.5c-0.1-0.2-0.1-0.4-0.1-0.6c0,0-0.6-0.5-0.3-1.2c0.4-0.9,1.1-0.6,0.8-1.6
		c-0.4-1.1-2.6-3.1-3.9-3.3c-0.4,0-0.6,0-0.8,0.2c-0.5,0.4-0.6,1.6,0.9,1.7c-0.3,0.6-0.8,0.8-1.7,0.6c-0.7-0.1-1.4-1.2-1.1-2.6
		c0.4-1.8-0.7-3.2-1.8-3.3h-0.5c-1.2,0.2-1.1,2.1-1.1,2.1l0.7,7.2c0,0.2,0,0.5,0.2,0.9c0.4,0.7,1.3,1.5,2.5,1.7
		c1,0.2,1.8-0.1,2.1-0.4c0.1-0.1,0.5-0.8,0.3-1.3c-0.1-0.2-0.2-0.3-0.4-0.4c-0.1,0-0.1,0-0.2,0c-0.4-0.1-0.6,0.3-0.7,0.2
		c-0.2-0.5,0.1-1.4,1.4-1.1c0.7,0.1,1.3,0.6,1.3,1.4c0.1,0.7-0.2,1.4-0.2,1.4L102.7,141.8 M99,144.4v-0.6c-1-0.3-2-0.4-2.6-0.7
		c-1.1-0.6-1.6-1.2-1.6-1.2l0,0.5c0.2,2.1,1.5,2.2,2.7,2.5c0.6,0.1,1.2,0.5,1.5,1.1V144.4z M144.3,184.8c-0.2,0.4-0.2,1.2,0.1,1.6
		c1.1,1.4,5.2,1.8,7.1,0C149,186.1,146.7,185.4,144.3,184.8 M155.8,181c0.6,0.8,1.3,1.5,2.1,1.6c2-0.4,4-4.8,3.9-6
		c0.1-0.5-0.4-1-0.3-1.2c0.1-0.1,1.1,0.2,1.6,0.2s1.7-0.5,2.5-0.5c1.6,0,1.7,0.9,2,1c0.2,0.1,0.5,0,1,0.2c0.5,0.2,1.1,0.9,0.9,1.5
		c-0.7,0.1-1.1,0-1.5,0c-0.5,0-1.2,0.5-1.2,0.9c0,0,1.5,0.1,2.2,0.1c2.3,0.1,1.5-1.3,1.5-1.4c-0.1-0.2,1.2,0,1.2,1.1
		c0,0.9-1.5,1.4-2.7,1.2c-1-0.1-2.1-0.5-2.4-0.6c-0.1,0-0.7,1.3,0.3,1.3c0.4,0,0.9-0.2,0.9-0.2c0.2,0,0.6,0.6-0.9,0.9
		c-2,0.5-3.1,0.5-3.5,1.8c-0.3,1-0.2,2.1,0.4,2.9c1.5,2.5,6.4,2.1,7.6,0.6c0.4-0.5,0.5-1.2,0-1.2c-1.4,0.1-3.5,0.4-3.6-1.4
		c0-1.4,2.5-1.4,4.8-3.7c1.8-1.8,2.1-3,2.3-3.9l0-1.2c0-0.3,0.7,0.9,0.8,1.1c0.5,1.3,0.1,2.8,0.1,2.8c0.5-0.4,1.2-1.2,1.5-1.7l0.6-1
		c0.1-0.4,0.2,0.9,0.1,1.9c-0.2,1.4-1.5,2.5-1.5,2.5c2.5,0,3.5-2.8,3.5-2.8c1.9,2.2-1.1,5-1.1,5s0.4,0.1,0.9,0
		c0.7-0.2,1.1-0.4,1.6-0.9c0.4-0.5,0,1.2-1.2,2c-2,1.3-4.1,1.4-4.1,1.4c0.4,1,2.1,1.1,3,1.1c1.3-0.1,2.4-1.1,2.4-1.1
		c1.5,2.6-2.3,4.3-2.6,4.5c1.1,0.8,1.9,1.2,2.5,1.3c0.2,0,0.4,0,0.6,0c0.1,0-0.3,0.6-1.4,0.5c-1.8-0.2-3.3-0.7-3.3-0.7
		c2.4,5,5.3,4.9,5.5,4.8c0,0,0,2.3-3.1,2.3l-0.5,0c-1.1-0.2-2.1-1-2.3-1.1c0.1,1.7,3.7,3.4,3.7,3.4c0.2,0.2-0.8,0.5-2.1,0.4
		c-0.7-0.1-1.4-0.4-2.1-0.9c-1.3-1.1-2.4-2.4-3.2-3.8c-0.7,2.4,0.6,5,2.9,5.8c0.5,0.1-0.7,0.6-1.9,0.4c-0.2,0-0.4-0.1-0.6-0.2
		c-2.2-1-3.4-3.2-3.5-3.4c-0.2,1.4,0.2,2.9,1.1,3.9c0,0.1-0.1,0.1-0.3,0c-0.3-0.1-0.6-0.2-0.9-0.4c-1.3-0.9-2.2-2.4-2.4-4
		c-1.1,0.2-1.8,1.2-2.2,2c-0.4,0.8-0.3,1.6,0.1,2.4c0.5,1,1.1,1.4,1.9,1.6c0.6,0.1,1.3,0.1,1.9,0.2c0.6,0.1,1.1,0.3,1.5,0.8
		c0.6,0.7,0.1,2.3-0.8,2.1c0,0,0.3-0.8-0.3-1.4c-0.2-0.1-0.4-0.2-0.7-0.3c-0.5-0.1-1,0.2-1.2,0.6c-0.6,1.1,1.6,2.4,2.6,2.8
		c0,0,0.6,0.4,1.2,0.4c0.6,0.1,1.2-0.1,1.4-1.2c-0.2-0.2-0.8-0.3-0.8-1.4c0-0.8,0.7-1.2,0.7-1.2c0.2-1,1.8-1,1.8-1
		c0.1,0,0,0.1-0.1,0.1c-0.4,0.1-0.5,0.5-0.4,0.7c0.1,0.3,0.9,0.7,0.2,2.4c0.1,0,0.8,0,1-1.1c0-0.5-0.1-0.9,0.1-1.2
		c0.1-0.3,0.6-0.5,1-0.4c0.5-0.2,0.9-0.2,1.1-0.2c0.9,0.1,1.1,0.9,1.1,0.9s0,0.1-0.1,0.1c-0.1,0-0.2-0.1-0.3-0.1
		c-0.4,0-0.9,0-0.9,0.3c0.1,0.2,0.2,0.5-0.2,1.1c-0.6,0.9-2,0.2-1.6,2c0-0.1,0.4-0.6,1.1-0.5c0.6,0.1,1.3,0.8,1.3,1.8
		c0,0.4-0.2,0.7-0.5,1c0,0-0.1,0-0.1-0.1c0.1-0.5-0.1-0.8-0.4-0.9c-0.6-0.1-0.4,0.4-1.2,0.4h-0.3c-0.3-0.1-0.5-0.2-0.7-0.2h-0.2
		c-1.1,0.2-2.1,0.7-2.8,1.6c-0.5,0.7,0,0.9-0.4,1.6c-0.4,0.6-0.8,0.5-0.8,0.5v0.4c0.1,0.3,0.2,0.6,0.5,0.7c0,0,0.1,0.1,0,0.1
		c-0.2,0.1-0.4,0.1-0.6,0.1c-0.3,0-0.6-0.2-0.7-0.9c0-0.2-0.1-0.4-0.1-0.6c0,0-0.6-0.6-0.4-1.3c0.4-0.9,1.1-0.6,0.8-1.6
		c-0.4-1.2-2.6-3.1-3.9-3.3c-0.4,0-0.6,0-0.9,0.2c-0.5,0.4-0.6,1.6,0.9,1.7c-0.3,0.6-0.8,0.8-1.7,0.6c-0.7-0.2-1.4-1.2-1.1-2.6
		c0.3-1.8-0.8-3.2-1.8-3.4h-0.5c-1.2,0.2-1.1,2.1-1.1,2.1l0.7,7.2c0,0.2,0.1,0.5,0.3,0.9c0.4,0.7,1.2,1.5,2.5,1.7
		c1,0.2,1.8-0.1,2.1-0.4c0-0.1,0.5-0.8,0.2-1.3c-0.1-0.2-0.3-0.4-0.6-0.5c-0.4-0.1-0.6,0.3-0.7,0.2c-0.2-0.5,0.1-1.4,1.4-1.1
		c0.7,0.1,1.2,0.7,1.3,1.4c0.1,0.7-0.1,1.4-0.1,1.4c0.6-0.2,1.3-0.2,2-0.1c0.7,0.3,1.2,0.6,1.3,1.4c0.1,0.9-0.6,1.3-0.6,1.3
		s0.2-0.6-0.5-1.1c-0.2-0.1-0.3-0.1-0.5-0.1c-0.9-0.1-1.4,0.7-1.3,1.4c0.1,1.1-0.2,2-1.1,2.1h-0.4c-0.6-0.1-0.6-0.5-0.6-0.5
		s0.9,0.1,0.9-0.7c0.1-2-3.4-2-4.8-2.7c-1.1-0.5-1.6-1.2-1.6-1.2s-0.1,0.1-0.1,0.5c0.2,2.1,1.5,2.2,2.8,2.5c0.8,0.2,1.8,0.9,1.8,2.1
		c0,1.7-1.1,1.5-1.1,1.5s0.4-1.3-0.8-1.5h-0.3c-0.7,0-1.1,0.4-1.5,0.7c-0.7,0.5-2.6,2.8-2.9,3.1c-0.4-0.4-2.3-2.6-2.9-3.1
		c-0.4-0.4-0.8-0.7-1.5-0.7l-0.3,0c-1.2,0.2-0.8,1.5-0.8,1.5s-1.1,0.2-1.1-1.5c0-1.2,0.9-1.9,1.8-2.1c1.2-0.2,2.5-0.4,2.7-2.5
		c0-0.4-0.1-0.5-0.1-0.5s-0.4,0.7-1.6,1.2c-1.3,0.7-4.8,0.6-4.7,2.7c0,0.8,0.9,0.7,0.9,0.7s0,0.4-0.6,0.5c-0.1,0-0.3,0-0.5,0
		c-0.8-0.1-1.1-1-1-2c0.1-0.7-0.4-1.6-1.3-1.5c-0.2,0-0.3,0.1-0.5,0.2c-0.7,0.4-0.4,1-0.4,1s-0.8-0.4-0.6-1.3
		c0.1-0.8,0.6-1.1,1.3-1.4l0.2,0c0.9-0.1,1.7,0.1,1.7,0.1s-0.2-0.7-0.2-1.4c0.1-0.6,0.4-1.2,1.3-1.4c1.4-0.2,1.6,0.6,1.4,1.1
		c-0.1,0-0.3-0.3-0.7-0.2l-0.1,0.1c-0.2,0.1-0.3,0.2-0.4,0.4c-0.2,0.5,0.2,1.2,0.3,1.3c0.3,0.4,1.1,0.6,2.1,0.4
		c1.2-0.2,2-1.1,2.4-1.7c0.2-0.4,0.4-0.7,0.3-0.9l0.7-7.2c0,0,0.2-1.8-1.1-2.1H154c-1.1,0.2-2.1,1.6-1.8,3.4
		c0.2,1.4-0.5,2.4-1.1,2.6c-0.9,0.2-1.4,0-1.7-0.6c1.5-0.1,1.4-1.3,0.9-1.7c-0.2-0.2-0.5-0.2-0.8-0.2c-1.4,0.2-3.6,2.1-3.9,3.3
		c-0.4,1,0.4,0.7,0.7,1.6c0.3,0.7-0.3,1.3-0.3,1.3c0,0.2-0.1,0.4-0.1,0.6c-0.1,0.6-0.5,0.8-0.7,0.9c-0.2,0-0.4,0-0.6-0.1
		c0.4-0.1,0.5-0.5,0.5-0.8v-0.4c0,0-0.4,0.1-0.8-0.5c-0.4-0.6,0.1-0.9-0.4-1.6c-0.5-0.7-1.8-1.4-2.8-1.6h-0.2l-0.7,0.2h-0.2
		c-0.8,0-0.6-0.5-1.2-0.4c-0.4,0.1-0.5,0.4-0.4,0.9l0,0.1c-0.3-0.2-0.5-0.6-0.5-1c0-1.1,0.6-1.8,1.3-1.8c0.7-0.1,1.1,0.4,1.1,0.5
		c0.4-1.7-1-1.1-1.6-2c-0.4-0.6-0.2-0.9-0.2-1.1c0.1-0.3-0.4-0.4-0.9-0.3c-0.1,0-0.2,0-0.3,0.1c-0.1-0.1,0.1-0.9,1-1
		c0.3,0,0.7,0,1.1,0.2c0.4-0.1,0.9,0.1,1,0.4c0.2,0.4,0,0.8,0.1,1.2c0.1,1.1,0.8,1.1,0.9,1.1c-0.6-1.6,0.2-2.1,0.2-2.4
		c0.1-0.2,0-0.6-0.4-0.7c-0.1,0-0.2-0.1-0.1-0.2c0,0,1.6,0,1.8,1c0,0,0.7,0.4,0.7,1.2c0,1.1-0.6,1.2-0.8,1.4
		c0.1,1.1,0.8,1.3,1.4,1.2c0.6-0.1,1.1-0.4,1.1-0.4c1.1-0.4,3.2-1.7,2.6-2.8c-0.2-0.5-0.7-0.7-1.2-0.6c-0.3,0-0.5,0.1-0.7,0.3
		c-0.6,0.6-0.3,1.4-0.3,1.4c-0.9,0.2-1.4-1.4-0.8-2.1c0.4-0.4,0.9-0.7,1.4-0.7c0.6-0.1,1.3-0.1,2-0.2c0.7-0.1,1.3-0.6,1.9-1.6
		c0.4-0.7,0.4-1.6,0.1-2.4c-0.4-0.8-1.1-1.8-2.2-2c-0.2,1.8-1.2,3.2-2.4,4c-0.3,0.2-0.6,0.3-0.9,0.4h-0.3c1.6-1.8,1.1-3.8,1.1-3.9
		c-0.8,1.5-2,2.7-3.5,3.4c-0.2,0.1-0.4,0.1-0.6,0.2c-1.2,0.2-2.3-0.4-1.9-0.4c0.8-0.1,3.9-1.9,2.9-5.8c-0.8,1.5-1.9,2.8-3.2,3.8
		c-0.7,0.5-1.4,0.7-2.1,0.8c-1.3,0.2-2.3-0.1-2.1-0.4c0,0,3.7-1.7,3.7-3.4c-0.7,0.5-1.4,0.9-2.3,1.1c-0.2,0-0.3,0-0.5,0
		c-3.1,0-3.1-2.2-3.1-2.2c0.2,0,3.2,0.2,5.5-4.8c0,0-1.6,0.5-3.3,0.7c-1.1,0.1-1.5-0.5-1.4-0.5c0.2,0.1,0.5,0.1,0.7,0
		c0.6-0.1,1.4-0.4,2.5-1.2c-0.3-0.1-4.1-1.8-2.7-4.5c0,0,1.1,0.9,2.4,1.1c1,0.1,2.6-0.1,3-1.1c0,0-2.1-0.1-4.1-1.4l-0.2-0.1
		c-0.9,0-1.9,0-2.8,0.1c-0.7,2.6-2.8,4.4-5.3,4.4c-2.5,0-4.6-1.8-5.3-4.4c-1.6-0.3-3.2-0.4-4.7-0.2l-36,38.3c3.5,3.3,7.3,6,11.2,8.3
		l33.6-35.8v18.9l-21.1,22.5c7.2,2.4,14.7,3.7,22.3,3.8c26.2,0,65.3-17.2,64.5-65.2v-30.9L175,161.3h-17.8l34.6-36.8v-20.3
		l-36.2,38.6c0.1,0.1,0.2,0.3,0.2,0.5L155.8,181z M151.9,192.6h11.9v-4.8h-11.9V192.6z M157.9,201.9c5.3,0,5.8-5.1,5.8-5.1H152
		C152,196.8,152.5,201.9,157.9,201.9 M86.7,118.4h11.9v-4.8H86.7V118.4z M92.7,127.8c5.4,0,5.8-5.1,5.8-5.1H86.8
		C86.8,122.7,87.3,127.8,92.7,127.8 M124.9,182.9c0,1.4,1.2,2.6,2.6,2.6s2.6-1.2,2.6-2.6c0-1.4-1.2-2.6-2.6-2.6
		S124.9,181.5,124.9,182.9 M100.7,144.3v39.3c0,0,0.4,0.5,3.1-0.2c3-0.8,6.8-4.7,12-5.8c3.9-0.9,9.2,0.4,10.5,1.2v-39.4
		c0,0-2.4-2.3-6.3-2.3c-3.8,0-10.3,3.4-12.8,4.7c-1.9,1-4,1.7-6.1,2.1C100.6,143.9,100.7,144.3,100.7,144.3 M135.1,177.5
		c6.9,0,10.4,4.3,12.7,5.2c5.4,2.1,6.3,1.1,6.3,1.1v-39.6c0-0.4-0.6-0.4-0.6-0.4s-5.3-0.9-7.1-2c-1.7-1.1-8.1-4.9-12.8-4.9
		s-5.5,2-5.5,2V179C128.2,179,130.4,177.5,135.1,177.5"/>
</g>
</svg>
