<?xml version="1.0" encoding="utf-8"?>
<!-- Generator: Adobe Illustrator 26.5.0, SVG Export Plug-In . SVG Version: 6.00 Build 0)  -->
<svg version="1.1" id="affiliation" xmlns="http://www.w3.org/2000/svg" xmlns:xlink="http://www.w3.org/1999/xlink" x="0px"
	 y="0px" viewBox="0 0 256 256" style="enable-background:new 0 0 256 256;" xml:space="preserve">
<style type="text/css">
	.st0{fill:#FFFFFF;}
</style>
<rect id="black" width="256" height="256"/>
<circle id="background" class="st0" cx="128" cy="128" r="128"/>
<g id="logo">
	<path id="path295" d="M167.4,70.2c0-7.9-6.4-14.4-14.4-14.4c-7.9,0-14.4,6.4-14.4,14.4c0,7.9,6.4,14.4,14.4,14.4
		C161,84.5,167.4,78.1,167.4,70.2z M232.3,179.1l-51-82.2l0,0.2v-0.2h-19.3v82.2h19.3v0l0,0l22.3-13.8l8.5,13.8H232.3z M181.3,162.5
		v-33.4l14.9,24.2L181.3,162.5z M143,96.9v82.2h-19.2l-30.4-49.3l-0.5-0.9v19.7c0,7.8-1.1,16.3-5.5,21.5
		c-6.8,8.4-19.4,10.1-28.3,10.1c-33.3,0-33.4-20.7-33.4-32.3v-51h19.8V139c0,14.5,0.3,18.4,2.2,21.4c2.6,3.9,7.2,5.8,12,5.8
		c12.4,0,14.1-10.1,14.1-17.1v-11.9l0-40.2h19.2l31.1,51.5V96.9L143,96.9L143,96.9z"/>
</g>
</svg>
