<?xml version="1.0" encoding="utf-8"?>
<!-- Generator: Adobe Illustrator 26.5.0, SVG Export Plug-In . SVG Version: 6.00 Build 0)  -->
<svg version="1.1" id="affiliation" xmlns="http://www.w3.org/2000/svg" xmlns:xlink="http://www.w3.org/1999/xlink" x="0px"
	 y="0px" viewBox="0 0 256 256" style="enable-background:new 0 0 256 256;" xml:space="preserve">
<style type="text/css">
	.st0{fill:#FFFFFF;}
	.st1{fill:#006AB3;}
</style>
<rect id="black" width="256" height="256"/>
<circle id="background" class="st0" cx="128" cy="128" r="128"/>
<g id="logo_00000169557994799884142440000017718490564280908447_">
	<g>
		<path id="path3920" class="st1" d="M204.3,106.2v27.4c0,16.3-12.2,27.4-27.3,27.4c-15.1,0-27.3-11.1-27.3-27.4
			c0-2.4,0-27.4,0-27.4h13.8c0,5,0,25.2,0,26.2c0,8.5,6,14.2,13.5,14.2s13.5-5.8,13.5-14.2v-26.2H204.3z"/>
		<path id="path3922" class="st1" d="M38.3,133.4c0-8.5,6-14.2,13.5-14.2s13.5,5.8,13.5,14.2v26.2H79v-27.4
			c0-16.3-12.2-27.4-27.3-27.4c-4.9,0-9.5,1.2-13.5,3.3V88.7H24.5v70.8h13.8l0,0"/>
		<path id="path3924" class="st1" d="M101.2,133.4c0-8.5,6-14.2,13.5-14.2c7.4,0,13.5,5.8,13.5,14.2v26.2h13.8v-27.4
			c0-16.3-12.2-27.4-27.3-27.4c-4.9,0-9.5,1.2-13.5,3.3V88.7H87.3v70.8h13.8l0,0"/>
		<path id="path3932" class="st1" d="M212.9,167.3h12.6c5.5,0,10-4.5,10-10c0-5.5-4.5-10-10-10h-12.6V167.3z"/>
	</g>
</g>
</svg>
