<?xml version="1.0" encoding="utf-8"?>
<!-- Generator: Adobe Illustrator 27.8.0, SVG Export Plug-In . SVG Version: 6.00 Build 0)  -->
<svg version="1.1" id="affiliation" xmlns:svg="http://www.w3.org/2000/svg"
	 xmlns="http://www.w3.org/2000/svg" xmlns:xlink="http://www.w3.org/1999/xlink" x="0px" y="0px" viewBox="0 0 256 256"
	 style="enable-background:new 0 0 256 256;" xml:space="preserve">
<style type="text/css">
	.st0{fill:#FFFFFF;}
	.st1{fill-rule:evenodd;clip-rule:evenodd;fill:#048CE4;}
	.st2{fill-rule:evenodd;clip-rule:evenodd;fill:#515151;}
	.st3{fill-rule:evenodd;clip-rule:evenodd;fill:#E44434;}
	.st4{fill-rule:evenodd;clip-rule:evenodd;fill:#DC4434;}
</style>
<rect id="black" y="0" width="256" height="256"/>
<circle id="background" class="st0" cx="128" cy="128" r="128"/>
<g id="logo" transform="matrix(0.40677521,0,0,0.40677521,236.97407,0.30061054)">
	<g id="g1" transform="matrix(1.4395788,0,0,1.4395788,-546.60925,206.74663)">
		<path id="path0" class="st1" d="M73.1,6.2c-1.1,0.1-2.8,0.3-3.9,0.5C68,6.8,66.7,7,66.2,7.1C65,7.2,60.6,8.3,58.6,9
			c-0.6,0.2-1.4,0.4-1.8,0.6c-0.4,0.1-0.8,0.3-0.9,0.4S55.6,10,55.4,10s-0.7,0.2-1.1,0.4c-0.5,0.2-0.9,0.4-1,0.4
			c-0.1,0-0.5,0.2-1,0.4c-0.5,0.2-0.9,0.4-0.9,0.4c-0.2,0-4.9,2.3-6.1,3c-0.4,0.2-0.9,0.5-1.1,0.6c-0.2,0.1-0.6,0.3-0.8,0.5
			c-0.3,0.2-0.7,0.4-1,0.6s-0.8,0.5-1.1,0.7c-0.3,0.2-0.7,0.5-0.9,0.6c-1.2,0.7-3.8,2.6-4.1,2.9c-0.1,0.1-0.4,0.3-0.6,0.5
			c-0.2,0.2-0.6,0.4-0.7,0.5c-0.1,0.1-0.6,0.5-1.1,0.9c-1.3,1-3.5,3.1-4.5,4.1c-0.3,0.3-0.9,1-1.5,1.5c-0.6,0.6-1.8,1.9-2.7,3
			c-2,2.4-1.9,2.3-2.5,3.1c-0.6,0.7-1.1,1.6-2,2.9c-0.2,0.4-0.5,0.8-0.7,0.9c-0.1,0.1-0.2,0.3-0.2,0.4c0,0.1-0.2,0.4-0.3,0.6
			c-0.7,1-3,5-3.5,6.3c-0.1,0.1-0.2,0.4-0.3,0.7c-0.1,0.3-0.5,1-0.7,1.6c-0.3,0.6-0.6,1.4-0.8,1.8c-0.2,0.3-0.3,0.7-0.3,0.8
			c0,0.1-0.2,0.5-0.4,1c-0.2,0.4-0.4,0.8-0.4,1c0,0.1-0.2,0.6-0.4,1.2c-4.8,13-4.8,31.8,0,44.8c0.2,0.6,0.4,1.1,0.4,1.2
			s0.2,0.6,0.4,1c0.2,0.4,0.4,0.9,0.4,1c0,0.1,0.1,0.4,0.3,0.8c0.2,0.3,0.5,1.1,0.8,1.8c0.3,0.6,0.6,1.4,0.7,1.6
			c0.4,0.7,0.5,0.9,0.6,1.2c0,0.1,0.5,0.9,0.9,1.8c0.5,0.8,1,1.8,1.2,2.2c0.2,0.4,0.4,0.7,0.5,0.8c0.1,0.1,0.2,0.3,0.2,0.3
			c0,0.1,0.2,0.4,0.4,0.7c0.2,0.3,0.4,0.6,0.4,0.7s0.1,0.2,0.2,0.4c0.1,0.1,0.4,0.5,0.7,0.9c0.2,0.4,0.6,0.8,0.7,1
			c0.1,0.2,0.4,0.5,0.5,0.8c0.8,1.2,1.4,1.9,1.5,1.9c0.1,0,0.1,0.1,0.1,0.2c0,0.5,5.2,6.3,8,8.8c0.5,0.5,1.1,1,1.3,1.2
			c1,0.9,3.2,2.7,3.4,2.7c0.1,0,0.2,0.1,0.2,0.1c0.1,0.3,4.9,3.6,6.4,4.4c0.3,0.1,0.8,0.5,1.2,0.7c0.4,0.3,1.5,0.9,2.5,1.3
			c0.9,0.5,1.9,1,2.1,1.1c0.2,0.1,0.7,0.4,1.1,0.5c0.8,0.3,1.3,0.6,2.5,1.1c0.5,0.2,1,0.4,1.2,0.4s0.3,0.1,0.4,0.1
			c0.1,0.1,0.5,0.3,0.9,0.4c2.3,0.8,2.9,1,3.8,1.3c2.1,0.7,6.4,1.7,7.7,1.9c0.5,0.1,1.8,0.3,2.9,0.4c5.5,0.9,14.2,0.9,19.6,0
			c1.1-0.2,2.3-0.4,2.9-0.4c1.4-0.2,5.2-1.1,7.5-1.8c1.9-0.6,4.4-1.4,4.9-1.7c0.2-0.1,0.5-0.2,0.6-0.2c0.2,0,0.6-0.2,2.7-1.2
			c1.3-0.6,4.6-2.2,5.4-2.7c0.4-0.2,0.9-0.5,1.1-0.6c0.6-0.3,3.4-2.1,3.4-2.2c0-0.1,0.1-0.1,0.3-0.1c0.1,0,0.3-0.1,0.4-0.2
			c0.1-0.1,0.6-0.5,1.1-0.8c3.8-2.5,11-9.1,14.1-13c0.7-0.9,1.5-1.9,1.7-2.2c0.3-0.3,0.5-0.6,0.5-0.7c0-0.1,0.1-0.2,0.1-0.2
			c0.1,0,0.8-0.9,1.5-2c0.2-0.3,0.9-1.4,1.5-2.3c0.2-0.4,0.6-0.9,0.8-1.2c0.2-0.3,0.5-0.9,0.8-1.3c0.3-0.4,1.1-2.1,1.9-3.6
			c0.8-1.6,1.5-3,1.5-3.1c0.1-0.1,0.1-0.3,0.1-0.4c0-0.1,0.1-0.5,0.3-0.8c0.3-0.7,0.4-1,1.4-3.7c0.7-1.9,1.1-3.4,1.1-3.6
			c0-0.1-6.8-0.1-15.8-0.1h-15.8l-0.2,0.4c-0.3,0.6-1.6,3.1-2.2,4c-0.5,0.8-1.3,1.9-1.6,2.5c-1.2,1.8-4.3,5.3-5.9,6.6
			c-1.7,1.4-2.4,2-3.3,2.7c-0.6,0.4-1.1,0.8-1.1,0.8c0,0-0.5,0.3-1,0.7c-0.8,0.5-2.3,1.4-3.7,2.1c-1.1,0.6-3.7,1.7-3.9,1.7
			c-0.1,0-0.6,0.2-1.2,0.4c-5.4,2-14.2,2.4-20.2,0.9c-0.5-0.1-1.2-0.3-1.5-0.4c-0.4-0.1-1.1-0.3-1.7-0.5c-0.5-0.2-1.1-0.4-1.2-0.4
			c-0.1,0-0.5-0.1-0.7-0.3c-0.3-0.2-0.7-0.4-1-0.5c-0.8-0.3-4.5-2.2-5.6-2.9c-2.3-1.5-2.7-1.8-4.8-3.6c-3-2.6-6.7-7-8.3-9.9
			c-0.2-0.3-0.4-0.6-0.5-0.8c-0.3-0.3-1.8-3.2-2-3.9c-0.1-0.3-0.4-1.1-0.7-1.8c-4.2-10.1-4.3-21.7-0.2-33.1c0.3-0.8,0.3-0.8,1.1-2.5
			c0.3-0.6,0.6-1.3,0.6-1.4c0.1-0.1,0.3-0.6,0.6-1c0.3-0.4,0.6-1.1,0.9-1.5c1.9-3.4,5.8-7.9,8.9-10.5c0.6-0.5,1.3-1.1,1.5-1.2
			c0.2-0.2,0.4-0.3,0.4-0.3s0.3-0.2,0.6-0.4c0.6-0.5,2.4-1.6,3.9-2.4c6.4-3.5,12.8-4.9,20.4-4.6c4.4,0.2,8.9,1.1,12.7,2.7
			c0.9,0.4,2.4,1,2.7,1.2c1.1,0.6,2.8,1.5,3.1,1.7c0.2,0.2,0.5,0.3,0.6,0.3c0.1,0,0.2,0.1,0.2,0.1c0,0.1,0.3,0.3,0.6,0.5
			c0.6,0.3,0.8,0.5,1.9,1.4c1.9,1.5,3.2,2.7,4.2,3.7c0.9,1,3.3,3.8,3.9,4.6c0.8,1.2,2,3.1,2.2,3.4c0.1,0.3,0.4,0.8,0.7,1.2
			c0.6,1.1,0.6,1.1,1.2,2.4l0.5,1.1l15.6,0c12.4,0,15.6,0,15.6-0.2c0-0.6-2-6.6-2.8-8.2c-0.2-0.4-0.3-0.7-0.3-0.8
			c0-0.1-0.1-0.4-0.3-0.7c-0.2-0.3-0.5-1-0.7-1.4c-0.9-1.9-1.4-3-1.5-3.1c-0.1,0-0.2-0.4-0.4-0.7c-0.6-1.1-1.1-2.2-1.4-2.4
			c-0.1-0.1-0.2-0.3-0.2-0.4c0-0.1-0.2-0.4-0.4-0.6c-0.2-0.3-0.4-0.6-0.4-0.7c0-0.1-0.1-0.2-0.2-0.4c-0.1-0.1-0.6-0.8-1.1-1.6
			c-1.1-1.6-2.4-3.4-2.9-3.9c-0.2-0.2-0.3-0.4-0.3-0.5c0-0.1-0.1-0.2-0.1-0.2s-0.4-0.3-0.7-0.7c-0.3-0.4-0.9-1.1-1.3-1.6
			c-0.4-0.5-0.8-0.9-0.8-0.9c0-0.1-4.4-4.4-5.7-5.5c-0.8-0.7-1.6-1.4-1.7-1.5c-0.2-0.1-0.3-0.3-0.4-0.3c-0.1,0-0.3-0.2-0.4-0.3
			c-0.2-0.2-0.8-0.7-1.4-1.1c-0.6-0.4-1.3-0.9-1.5-1.1c-0.2-0.2-0.5-0.3-0.6-0.3c-0.1,0-0.2-0.1-0.2-0.1c0-0.1-0.7-0.6-1.6-1.1
			c-2.1-1.3-2-1.3-3.6-2.2c-0.8-0.4-1.5-0.8-1.5-0.9c-0.3-0.3-6-2.9-8.2-3.7c-4-1.4-4.7-1.6-9.7-2.9c-0.8-0.2-1.8-0.4-2.4-0.5
			c-0.6-0.1-1.8-0.3-2.9-0.4C85.3,6,78.1,5.8,73.1,6.2"/>
		<path id="path1" class="st2" d="M164,38.8c0.1,0.1,0.2,0.3,0.3,0.4c0.4,0.4,0.9,1.2,1.6,2.1c0.5,0.8,2.1,2.8,2.9,3.9
			c0.1,0.2,0.6,0.8,1.1,1.5c0.5,0.6,1,1.3,1.1,1.5c0.1,0.2,0.3,0.4,0.4,0.6c0.5,0.7,1.7,2.4,1.9,2.6c0.1,0.1,0.3,0.4,0.4,0.5
			c0.1,0.2,2,2.7,2.3,3.2c0.1,0.1,0.4,0.5,0.7,1c0.3,0.5,0.8,1.1,1,1.3c0.2,0.3,0.5,0.7,0.7,0.9c0.2,0.2,0.6,0.8,1,1.3
			c0.4,0.5,1.1,1.5,1.7,2.3c1,1.4,2.8,3.8,3.3,4.4c0.1,0.2,0.6,0.8,1.1,1.5c0.5,0.6,1,1.3,1.1,1.5c0.1,0.2,0.3,0.4,0.4,0.6
			c0.5,0.7,1.7,2.4,1.9,2.6c0.1,0.1,0.3,0.4,0.4,0.5c0.1,0.1,0.6,0.8,1.1,1.5c0.5,0.7,1,1.3,1,1.4c0,0.1-0.4,0.7-1,1.4
			c-0.5,0.7-1,1.4-1.1,1.5c-0.1,0.1-0.3,0.4-0.4,0.5c-0.2,0.2-1.6,2-1.9,2.6c-0.1,0.1-0.3,0.3-0.4,0.5c-0.1,0.1-0.6,0.8-1.1,1.5
			c-0.5,0.7-1,1.4-1.2,1.6c-0.2,0.2-0.5,0.6-0.7,1c-0.2,0.3-0.8,1-1.2,1.5c-0.4,0.5-0.9,1.2-1.2,1.6c-0.3,0.4-0.6,0.8-0.7,0.9
			c-0.1,0.1-0.3,0.4-0.4,0.5c-0.1,0.1-0.6,0.8-1.1,1.4c-0.5,0.7-1,1.3-1.1,1.4c-0.1,0.1-0.3,0.4-0.4,0.6c-0.1,0.2-0.6,0.8-1.1,1.5
			c-0.5,0.6-1,1.3-1.1,1.5c-0.1,0.2-0.7,0.9-1.2,1.5c-0.5,0.7-1,1.4-1.2,1.5c-0.8,1-2.4,3.1-3.3,4.4c-0.6,0.8-1.2,1.6-1.3,1.7
			s-0.2,0.3-0.2,0.4c0,0.1-0.1,0.2-0.1,0.3c-0.1,0-0.6,0.6-1.1,1.4c-0.1,0.1-0.3,0.4-0.5,0.7c-0.2,0.3-0.7,0.9-1,1.4
			c-0.3,0.5-0.7,0.9-0.7,0.9c-0.1,0-0.1,0.1-0.1,0.2c0,0.1-0.2,0.4-0.4,0.6c-0.2,0.2-0.4,0.4-0.4,0.5c0,0.1,7.2,0.1,15.9,0.1h15.9
			l0.7-1c0.4-0.6,0.8-1.1,0.9-1.2c0.6-0.8,0.9-1.2,1.2-1.7c0.2-0.3,0.4-0.6,0.5-0.6c0.1,0,0.1-0.1,0.1-0.2c0-0.1,0.2-0.4,0.4-0.6
			c0.2-0.2,0.4-0.4,0.4-0.5c0-0.1,0.1-0.2,0.2-0.4c0.3-0.4,1.8-2.5,2.3-3.1c0.2-0.3,0.5-0.7,0.7-1s0.5-0.6,0.5-0.7
			c0.2-0.3,1.6-2.2,1.8-2.4c0.1-0.1,0.5-0.7,0.9-1.2c0.4-0.6,0.7-1.1,0.8-1.1c0,0,0.2-0.2,0.2-0.3c0.2-0.3,1.6-2.2,1.9-2.6
			c0.1-0.2,0.4-0.5,0.6-0.8c0.4-0.5,2.2-3,3.4-4.7c0.4-0.5,0.9-1.2,1.1-1.5c0.2-0.3,0.6-0.8,0.8-1.1c0.2-0.3,0.4-0.6,0.4-0.6
			c0-0.1,0.1-0.2,0.3-0.4c0.2-0.2,0.6-0.7,0.9-1.2c0.3-0.5,0.7-0.9,0.8-1c0.1-0.1,0.2-0.2,0.2-0.3s0.3-0.6,0.7-1.1
			c0.4-0.5,0.8-1.1,0.9-1.2c0.1-0.1,0.5-0.7,0.8-1.2c0.4-0.5,0.8-1.1,1-1.4c0.2-0.2,0.5-0.6,0.6-0.8c0.6-0.7,0.7-1.1,0.5-1.4
			c-0.1-0.2-0.3-0.5-0.5-0.8c-0.2-0.2-0.5-0.6-0.6-0.8c-0.2-0.2-0.6-0.8-1-1.4c-0.4-0.5-0.8-1-0.8-1.2c-0.1-0.1-0.5-0.7-0.9-1.2
			c-0.4-0.5-0.7-1-0.7-1.1c0-0.1-0.1-0.2-0.2-0.3c-0.1-0.1-0.5-0.6-1-1.2c-0.4-0.6-0.8-1.1-0.9-1.1c-0.1,0-0.1-0.1-0.1-0.2
			c0-0.1-0.3-0.6-0.7-1.1c-0.4-0.5-0.8-1.1-0.9-1.2c-0.2-0.2-1.3-1.9-2.2-3c-0.3-0.3-0.5-0.7-0.6-0.9c-0.1-0.1-0.5-0.7-0.9-1.3
			c-0.4-0.6-0.9-1.2-1.1-1.5c-0.2-0.2-0.7-0.9-1.1-1.5c-0.4-0.6-1-1.3-1.2-1.6c-0.2-0.3-0.5-0.7-0.7-1c-0.2-0.3-0.8-1.1-1.2-1.7
			c-0.5-0.7-1-1.3-1.1-1.4c-0.1-0.1-0.3-0.3-0.3-0.4c0-0.1-0.7-1.1-1.3-1.9c-0.1-0.1-0.2-0.3-0.2-0.4c0-0.1-0.2-0.3-0.4-0.6
			c-0.2-0.3-0.4-0.6-0.5-0.6c-0.1-0.1-0.3-0.5-0.6-0.8c-0.2-0.4-0.5-0.6-0.6-0.6c-0.1,0-0.1-0.1-0.1-0.2c0-0.1-0.2-0.4-0.3-0.6
			c-0.2-0.2-0.5-0.7-0.7-1c-0.2-0.3-0.6-0.8-0.8-1.1c-0.2-0.3-0.4-0.6-0.4-0.7c0-0.1-0.1-0.3-0.3-0.4c-0.2-0.2-0.6-0.7-0.9-1.2
			l-0.6-0.9l-16,0C167.1,38.6,163.9,38.6,164,38.8"/>
		<path id="path2" class="st3" d="M306.3,6.1c-0.1,0.1-2.9,0.3-4.4,0.3c-0.5,0-0.6,0.1-0.5,0.2c0.1,0.1,0,0.1-0.2,0
			c-0.2-0.2-0.3-0.2-0.3,0c0,0.2,0,0.2-0.1,0c-0.1-0.1-0.2-0.1-0.2-0.1c0,0.1-0.3,0.2-0.6,0.2c-1,0.1-1.1,0.1-1.3,0.2
			c-0.1,0.1-0.3,0.1-0.3,0c-0.1-0.1-0.2,0-0.3,0c-0.1,0.1-0.4,0.1-0.6,0.2c-0.2,0-0.6,0.1-1,0.1c-0.3,0-0.6,0.1-0.7,0.1
			c0,0-0.3,0.1-0.5,0c-0.2,0-0.4,0-0.5,0.1s-0.2,0.1-0.2,0.1c-0.1,0-0.1,0-0.1,0.1c0,0.1-0.1,0.1-0.3,0.1c-0.2,0-0.4,0-0.5,0.1
			c-0.1,0.1-0.5,0.2-0.8,0.2c-0.3,0-0.6,0.1-0.6,0.1s-0.2,0.1-0.4,0.1s-0.7,0.1-1,0.2c-0.3,0.1-0.7,0.2-0.9,0.2
			c-0.3-0.1-0.3,0-0.1,0.1c0.2,0.2,0.2,0.2-0.1,0.1c-0.2,0-0.3,0-0.3,0.1s-0.2,0.1-0.4,0.1c-0.2,0-0.4,0-0.4,0.1
			c0,0.1-0.1,0.1-0.1,0.1c-0.3-0.1-1.4,0.2-1.6,0.5c-0.1,0.1-0.3,0.2-0.3,0.1c0-0.1-0.1,0-0.2,0.1c-0.1,0.1-0.2,0.1-0.2,0.1
			c0-0.1-0.1,0-0.2,0.1s-0.4,0.2-0.6,0.2c-0.3,0-0.4,0.1-0.3,0.2c0.1,0.1-0.2,0.2-0.6,0.2c-0.1,0-0.1,0-0.1,0.1
			c0,0.1-0.1,0.1-0.2,0.1c-0.3,0-2,0.8-1.9,0.8c0,0,0,0.1-0.2,0.1c-0.6,0-0.7,0-0.6,0.2c0.1,0.1,0.1,0.1,0,0.1
			c-0.1-0.1-0.2,0-0.4,0.1c-0.2,0.2-0.2,0.2-0.1,0c0.2-0.3-0.1-0.2-0.5,0.1c-0.4,0.3-0.4,0.3-0.9,0.3c-0.2,0-0.2,0,0,0.2
			c0.2,0.1,0.2,0.2-0.1,0.1c-0.2,0-0.4,0.1-0.6,0.2c-0.1,0.1-0.3,0.2-0.3,0.1c0-0.1-0.1,0-0.2,0.2c-0.1,0.2-0.2,0.2-0.1,0.1
			c0.1-0.1,0-0.1-0.2,0.1c-0.2,0.2-0.3,0.2-0.3,0.1c0.1-0.1,0-0.2-0.1-0.1c-0.1,0.1-0.2,0.1-0.2,0.2c0.1,0.1-0.4,0.3-0.6,0.3
			c-0.1,0-0.3,0.1-0.5,0.3c-0.2,0.2-0.4,0.3-0.5,0.2c-0.1-0.1-0.1,0-0.1,0.1s-0.1,0.1-0.2,0.1c-0.1-0.1-0.2,0-0.2,0.1
			c0,0.1-0.1,0.1-0.2,0.1c-0.1-0.1-0.3,0-0.4,0.1c-0.1,0.1-0.2,0.2-0.1,0.2c0.2,0-0.6,0.5-1.5,0.9c-0.3,0.1-0.6,0.3-0.6,0.4
			c0,0.1-0.1,0.1-0.1,0.1c-0.1,0-0.2,0-0.3,0.2c-0.1,0.2-0.5,0.4-0.8,0.5c-0.4,0.1-0.6,0.3-0.5,0.4c0.1,0.1,0,0.2,0,0.1
			c-0.1-0.1-0.3,0-0.5,0.2c-0.2,0.2-0.5,0.3-0.6,0.3c-0.1,0-0.2,0.1-0.3,0.2c0,0.1-0.1,0.2-0.2,0.1s-0.3,0.1-0.4,0.2
			c-0.2,0.2-0.3,0.3-0.4,0.2c-0.1,0-0.1,0-0.1,0.2c0,0.2-0.1,0.2-0.2,0.2c-0.2-0.1-0.2,0-0.2,0.1c0.1,0.2,0,0.2-0.1,0.1
			c-0.1,0-0.2,0-0.2,0.1c0,0.1-0.1,0.2-0.2,0.2c-0.1,0-0.2,0.1-0.2,0.2c0,0.1-0.1,0.1-0.2,0.1c-0.1-0.1-0.2,0.1-0.2,0.4
			c0,0.1,0,0.1-0.1,0c-0.2-0.1-0.7,0.1-0.6,0.2c0.1,0.1-0.4,0.4-0.6,0.3c-0.1,0-0.1,0.1-0.1,0.2c0,0.1-0.1,0.2-0.3,0.2
			c-0.3,0-0.6,0.4-0.5,0.7c0,0.1-0.1,0.1-0.2,0c-0.2-0.1-0.2,0-0.1,0.1c0.1,0.1,0.1,0.2-0.1,0.1c-0.2-0.1-0.8,0.4-0.8,0.6
			c0,0.1-0.1,0.1-0.2,0.1c-0.1,0-0.3,0.1-0.3,0.3c-0.1,0.2-0.2,0.3-0.3,0.3c-0.1,0-0.2,0.1-0.1,0.2c0.1,0.1,0,0.2-0.1,0.2
			c-0.1,0-0.4,0.2-0.6,0.5s-0.4,0.4-0.4,0.3c0.1-0.2,0-0.1-0.2,0.1c-0.4,0.3-0.4,0.5-0.1,0.3c0.1-0.1,0.1,0-0.1,0.2
			c-0.3,0.4-0.5,0.4-0.3,0.1c0.1-0.1-0.1,0.1-0.4,0.3c-0.3,0.3-0.5,0.6-0.4,0.7c0.1,0.1,0.1,0.1-0.1,0.1c-0.3,0-1.8,1.5-1.6,1.6
			c0.1,0,0,0.1-0.2,0.1c-0.2,0-0.4,0.1-0.4,0.2c-0.1,0.1,0,0.1,0.1,0.1c0.1-0.1-0.1,0.2-0.5,0.5c-0.4,0.4-0.6,0.6-0.5,0.6
			c0.1,0,0.1,0.1-0.1,0.2c-0.4,0.2-0.8,0.6-0.7,0.7c0,0,0,0.1,0,0.2c0,0.1-0.1,0-0.2-0.1c-0.1-0.2-0.2-0.2-0.1,0.1
			c0.1,0.3,0,0.3-0.2,0.2c-0.2-0.1-0.2,0-0.1,0.2c0.1,0.2,0,0.2-0.1,0.2c-0.1,0-0.3,0.1-0.5,0.4c-0.1,0.3-0.3,0.4-0.3,0.4
			c0-0.1-0.1,0.1-0.3,0.3c-0.1,0.3-0.3,0.5-0.3,0.5c-0.1,0-0.1,0-0.1,0.1s-0.1,0.2-0.3,0.4s-0.2,0.2-0.1,0.1c0.1-0.1,0,0.1-0.3,0.4
			c-0.6,0.5-0.8,0.9-1.1,1.5c-0.1,0.2-0.3,0.5-0.5,0.7c-0.2,0.2-0.4,0.4-0.4,0.5c0,0.1,0.1,0.1,0.1-0.1c0.1-0.1,0.2-0.2,0.2-0.1
			c0,0.1-0.2,0.3-0.5,0.5c-0.3,0.3-0.5,0.5-0.5,0.6c0,0.1,0,0.2-0.1,0.1c-0.1,0-0.2,0-0.2,0.1c-0.1,0.1,0,0.2,0.1,0.2
			c0.1,0,0.1,0.1,0,0.2c-0.1,0.1-0.3,0.2-0.3,0.1c-0.1,0-0.1,0.1-0.1,0.2c0,0.2-0.1,0.3-0.1,0.3c-0.1,0-0.1,0.1-0.1,0.2
			c0.1,0.2,0,0.2-0.1,0.2c-0.1,0-0.2,0.1-0.3,0.3c0,0.3-0.1,0.3-0.2,0.2c-0.1-0.2-0.1-0.2-0.1,0.1c0,0.2-0.1,0.4-0.2,0.5
			c-0.1,0.1-0.2,0.3-0.2,0.5c0.1,0.1,0,0.3-0.2,0.3c-0.3,0.1-0.4,0.3-0.3,0.7c0,0.1,0,0.1-0.1,0c-0.1-0.1-0.2,0-0.2,0
			c-0.1,0.5-0.2,0.9-0.5,1.2c-0.2,0.2-0.3,0.4-0.2,0.4s0,0.1-0.1,0.1c-0.1,0-0.2,0.1-0.1,0.1c0,0.1,0,0.2-0.1,0.2
			c-0.1,0-0.2,0.2-0.2,0.4c0,0.2-0.1,0.4-0.2,0.6c-0.1,0.2-0.2,0.4-0.1,0.4c0,0.1,0,0.1-0.1,0.1c-0.1,0-0.2,0.1-0.2,0.2
			s-0.1,0.3-0.2,0.4c-0.1,0.1-0.2,0.4-0.2,0.5c0.1,0.3,0,0.3-0.2,0.3c-0.2-0.1-0.2-0.1,0,0.2c0.2,0.3,0.2,0.3,0,0.2
			c-0.2-0.1-0.2,0-0.2,0.1c0.1,0.1,0,0.3-0.2,0.5c-0.1,0.2-0.2,0.4-0.2,0.5c0.1,0.1,0,0.2-0.1,0.2c-0.1,0-0.2,0.2-0.2,0.5
			c0,0.2,0,0.4-0.2,0.5c-0.3,0.1-0.6,1.1-0.7,1.8c0,0.2-0.1,0.4-0.2,0.3c-0.1,0-0.1,0.1-0.1,0.3c0,0.2,0,0.4-0.1,0.5
			c-0.1,0.1-0.1,0,0-0.1c0.1-0.2,0.1-0.2-0.1,0c-0.2,0.2-0.2,0.3-0.1,0.5c0.1,0.2,0.1,0.3,0,0.4c-0.1,0-0.2,0.3-0.2,0.5
			c0,0.2-0.1,0.5-0.2,0.5c-0.1,0.1-0.1,0.2-0.1,0.3c0.1,0.1,0.1,0.2,0,0.1c-0.2-0.1-0.3,0.3-0.3,0.9c0,0.3,0,0.4-0.2,0.5
			c-0.1,0.1-0.2,0.1-0.1,0.2c0.1,0.1,0,0.2-0.1,0.3c-0.1,0.1-0.1,0.3-0.1,0.4c0,0.1,0,0.3-0.1,0.4c-0.1,0.1-0.2,0.3-0.2,0.5
			c0,0.3,0,0.3,0.2,0.1c0.1-0.1,0.2-0.2,0.2-0.1c0,0.1-0.1,0.3-0.2,0.4c-0.1,0.1-0.2,0.3-0.1,0.4c0,0.1,0,0.3-0.1,0.3
			c-0.1,0.1-0.2,0.3-0.2,0.5c0,0.2-0.1,0.4-0.2,0.5c-0.1,0.1-0.2,0.2-0.2,0.3c0,0.1,0.1,0.1,0.3,0c0.2-0.2,0.2-0.2,0.1,0
			c-0.1,0.1-0.2,0.4-0.2,0.6c0,0.4,0,0.4-0.1,0.1c-0.1-0.3-0.1-0.2-0.1,0.2c0,0.5-0.3,2-0.6,2.7c-0.1,0.2-0.1,0.3,0.1,0.1
			c0.1-0.1,0.2-0.2,0.2,0c0,0.1-0.1,0.2-0.1,0.3c-0.1,0-0.1,0.3-0.1,0.5c0,0.2,0,0.4-0.1,0.3c-0.1-0.1-0.2,0-0.2,0.1
			c0,0.1,0.1,0.2,0.2,0.2c0.1,0,0.1,0.1,0,0.2c-0.1,0.1-0.1,0.3-0.2,0.3c-0.1,0.7-0.2,1.5-0.3,2c0,0.4-0.1,0.6-0.1,0.6
			c-0.1,0-0.1,0.2-0.1,0.6c0,0.5,0,0.7-0.1,0.6c-0.1-0.1-0.1,0,0,0.1c0.2,0.2,0.3,0.7,0,0.5c-0.1-0.1-0.2,0-0.2,0.2
			c0,0.2,0.1,0.3,0.2,0.3s0.1,0.1,0.1,0.1c-0.2,0.2-0.2,2.1-0.2,5.3c0,3.1,0.1,5,0.2,5.3c0,0.1,0,0.1-0.1,0.1s-0.2,0.1-0.2,0.3
			s0.1,0.3,0.2,0.2c0.2-0.1,0.2,0.3,0,0.5c-0.2,0.2-0.2,0.2,0,0.1c0.2-0.1,0.2,0,0.1,0.2c-0.1,0.2,0,0.3,0.1,0.3
			c0.1,0,0.1,0.1,0,0.3c-0.2,0.2-0.2,0.3,0,0.3c0.1,0,0.2,0.3,0.1,0.7c0,0.4,0,0.6,0.1,0.5c0.1-0.1,0.1,0.1,0.2,0.5
			c0,0.4,0,1,0.1,1.3c0,0.3,0.1,0.5,0.2,0.5c0.1,0,0.1,0.1,0.1,0.3c0,0.2,0,0.4,0.1,0.4c0.1,0,0.1,0,0,0.1c-0.1,0.1-0.2,0.2-0.1,0.4
			c0.1,0.1,0.2,0.2,0.2,0.2c0.1,0,0.1,0.1,0,0.3c-0.1,0.3,0,0.3,0.1,0.2c0.2-0.1,0.2-0.1,0,0.1c-0.1,0.1-0.1,0.4,0,0.9
			c0.1,0.4,0.2,0.8,0.1,1c0,0.2,0,0.4,0.2,0.6c0.2,0.2,0.2,0.3,0.1,0.3c-0.1,0-0.1,0.1,0,0.3c0.1,0.2,0.3,1,0.4,1.3
			c0,0.1,0.1,0.2,0.1,0.2c0.1,0.1,0.1,0.3,0.1,0.6c0,0.2,0.1,0.4,0.1,0.4c0.1,0,0.1,0.2,0.1,0.3c-0.1,0.2,0,0.3,0.1,0.2
			c0.1-0.1,0.2,0,0.2,0.1c0,0.1,0,0.2-0.1,0.3c-0.1,0-0.1,0.2-0.1,0.3c0.1,0.1,0.2,0.2,0.2,0.2c0.1,0,0.1,0,0.1,0.2s0,0.4,0.1,0.5
			c0.1,0.2,0.1,0.2,0,0.1c-0.1-0.1-0.2-0.1-0.2,0c0,0.2,0.4,0.9,0.5,0.9c0.1,0,0.2,0.3,0.2,0.7c0.1,0.4,0.2,0.7,0.3,0.7
			c0.1,0,0.1,0.1,0.1,0.1c0,0.1,0,0.2,0.1,0.2c0.1,0,0.2,0.2,0.2,0.3s-0.1,0.1-0.2,0.1c-0.1-0.1-0.1,0,0,0.1
			c0.1,0.1,0.2,0.3,0.2,0.5c0,0.1,0,0.3,0.1,0.3c0.1,0,0.1,0,0.1,0.1c-0.1,0.1,0,0.2,0.1,0.3s0.1,0.3,0.1,0.4c0,0.1,0,0.2,0.1,0.2
			c0.1,0,0.1,0.1,0.1,0.2c0,0.3,0.4,1,0.5,1c0.1,0,0.1,0.1,0.1,0.2c0,0.1,0.1,0.2,0.2,0.2c0.1,0,0.1,0,0,0.1c-0.2,0.1-0.2,0.2,0,0.4
			c0.1,0.1,0.2,0.4,0.2,0.5c0,0.1,0,0.2,0.1,0.2c0.1,0,0.2,0.1,0.2,0.1c0,0.3,0,0.5,0.3,0.8c0.2,0.2,0.3,0.5,0.4,0.8
			c0.1,0.3,0.2,0.5,0.2,0.4c0.1,0,0.2,0.1,0.2,0.4c0.1,0.3,0.3,0.6,0.4,0.8c0.2,0.2,0.2,0.2,0.1,0.2c-0.1-0.1-0.1,0.1,0.1,0.4
			c0.1,0.3,0.3,0.4,0.4,0.4c0.1-0.1,0.1,0-0.1,0.2c-0.1,0.2-0.2,0.2,0,0.2c0.1-0.1,0.2,0,0.2,0.1c0,0.1,0.1,0.2,0.3,0.2
			c0.2,0,0.2,0,0.1,0.1c-0.2,0.1-0.2,0.2,0,0.4c0.1,0.1,0.2,0.3,0.2,0.4c0,0.1,0,0.1,0.1,0.1c0.1,0,0.2,0.1,0.3,0.3
			c0.1,0.2,0.2,0.3,0.3,0.3c0.1,0,0.2,0.1,0.1,0.2c0,0.1,0,0.2,0.1,0.2s0.1,0.1,0.1,0.1c0,0.1,0.1,0.3,0.3,0.6
			c0.2,0.2,0.3,0.5,0.3,0.6c0,0.1,0,0.1,0.2,0.1c0.1,0,0.3,0.2,0.3,0.4c0.1,0.2,0.2,0.5,0.4,0.5c0.2,0.1,0.2,0.2,0.1,0.2
			c-0.1,0,0,0.2,0.3,0.5c0.3,0.3,0.4,0.4,0.3,0.4c-0.1-0.1-0.1,0,0.1,0.3c0.2,0.2,0.3,0.5,0.3,0.6c0,0.1,0.1,0.1,0.2,0.1
			c0.1-0.1,0.2,0.1,0.2,0.5c0,0.1,0,0.1,0.1,0c0.1-0.1,0.5,0.2,0.4,0.4c0,0.1,0,0.1,0.1,0.1c0.1,0,0.1,0.1,0.1,0.3
			c-0.1,0.2,0,0.2,0.2,0.2c0.2-0.1,0.3,0,0.3,0.1c0,0.1,0.1,0.2,0.2,0.1c0.1-0.1,0.1,0,0.1,0.1c-0.1,0.1,0,0.3,0.2,0.3
			c0.1,0.1,0.2,0.2,0.2,0.3c0,0.1,0.1,0.2,0.1,0.2c0.1,0,0.3,0.2,0.4,0.5c0.1,0.3,0.3,0.5,0.4,0.5c0.1-0.1,0.2,0.1,0.3,0.4
			c0.1,0.3,0.3,0.5,0.5,0.6c0.2,0.1,0.3,0.1,0.2,0.2c0,0,0.1,0.3,0.3,0.5c0.2,0.2,0.5,0.5,0.5,0.7c0.1,0.2,0.1,0.3,0.3,0.1
			c0.1-0.2,0.1-0.2,0.1,0.1c0,0.2,0.1,0.4,0.2,0.5c0.1,0.1,0.3,0.3,0.5,0.5s0.4,0.4,0.5,0.4c0.2,0,0.3,0.1,0.3,0.3
			c0,0.3,0.4,0.6,0.6,0.5c0.1-0.1,0.1,0,0.1,0.1c-0.1,0.2,0.5,0.8,0.8,0.8c0.1,0,0.2,0,0.2,0.1c-0.1,0.1,0.1,0.2,0.3,0.4
			c0.2,0.2,0.4,0.4,0.4,0.5c0,0.1,0.1,0.2,0.2,0.1c0.1-0.1,0.2,0,0.2,0.2c0,0.1,0.1,0.3,0.3,0.3c0.1,0.1,0.4,0.3,0.6,0.5
			c0.2,0.2,0.4,0.4,0.5,0.4c0.1,0,0.2,0.1,0.1,0.2s0,0.2,0.1,0.1c0.2-0.1,0.7,0.3,0.6,0.5c-0.1,0.1,0,0.2,0.2,0.1c0.2,0,0.3,0,0.3,0
			c0,0.1,0.1,0.2,0.3,0.4c0.2,0.1,0.3,0.2,0.2,0.2c-0.2-0.1-0.2,0-0.2,0.1c0.1,0.1,0.2,0.2,0.3,0.2c0.3,0,0.9,0.6,0.8,0.7
			c-0.1,0.1,0,0.1,0.2,0c0.2-0.1,0.3,0,0.3,0.1c0,0.3,0.3,0.5,0.5,0.2c0.1-0.2,0.2,0,0.2,0.4c0,0.1,0.1,0.1,0.1,0
			c0.1-0.1,0.2,0,0.3,0.1c0.1,0.1,0.2,0.3,0.4,0.3c0.2,0.1,0.3,0.2,0.2,0.3c-0.1,0.1,0,0.1,0.2,0.1c0.2-0.1,0.3,0,0.4,0.2
			c0.1,0.2,0.2,0.3,0.3,0.3c0.1,0,0.3,0.1,0.4,0.3c0.1,0.2,0.4,0.3,0.6,0.4c0.2,0.1,0.6,0.3,0.8,0.6c0.3,0.3,0.6,0.5,0.7,0.5
			c0.1,0,0.3,0.1,0.4,0.3c0.2,0.2,0.4,0.3,0.5,0.2c0.1,0,0.2,0,0.2,0.2c0.1,0.1,0.2,0.2,0.2,0.2c0.1,0,0.2,0.1,0.3,0.2
			c0.1,0.3,0.2,0.3,0.4,0.1c0.1-0.1,0.2-0.1,0.1,0c-0.1,0.1,0,0.3,0.1,0.4c0.1,0.1,0.2,0.1,0.2,0.1c0-0.1,0.1,0,0.2,0.1
			c0.1,0.2,0.3,0.3,0.4,0.2c0.1,0,0.2,0,0.2,0.1c0,0.1,0,0.2,0.1,0.2c0.1,0,0.2-0.1,0.2-0.2c0-0.1,0.1,0,0.2,0.1
			c0.1,0.2,0.4,0.4,0.6,0.4s0.4,0.2,0.4,0.3s0.1,0.1,0.1,0.1c0.1,0,0.3,0.1,0.5,0.2c0.2,0.2,0.3,0.3,0.3,0.2c0-0.1,0.1,0,0.1,0.1
			c0.1,0.1,0.2,0.2,0.3,0.2c0.7,0.1,1.1,0.3,1,0.5c0,0.1,0.1,0.2,0.3,0.2s0.3,0,0.3,0.1c0,0.2,0.8,0.5,1.1,0.5c0.1,0,0.2,0,0.1,0.1
			s0,0.2,0.2,0.2c0.6,0,0.8,0.1,0.9,0.3c0,0.1,0.2,0.2,0.3,0.2c0.1,0,0.2,0.1,0.2,0.2c0,0.1,0.1,0.1,0.1,0.1c0.1,0,0.4,0.1,0.8,0.3
			c0.4,0.2,0.8,0.3,0.9,0.3c0.1,0,0.2,0.1,0.2,0.2c0,0.1,0,0.1,0.1,0.1c0.1-0.1,0.3,0,0.5,0.1c0.2,0.1,0.4,0.2,0.4,0.2
			c0,0,0.2,0.1,0.5,0.2c0.4,0.2,0.5,0.2,0.5,0.1c0-0.1,0-0.1,0.1,0c0.1,0.1,0.2,0.2,0.3,0.1c0.1-0.1,0.2-0.1,0.1,0.1
			c-0.1,0.1,0,0.2,0.2,0.2c0.2,0,0.4,0.1,0.5,0.2c0.2,0.2,0.2,0.2,0.1,0c-0.1-0.1,0-0.1,0.2,0.1c0.2,0.2,0.3,0.2,0.2,0.1
			c-0.1-0.1,0-0.2,0-0.2c0.1,0,0.2,0.1,0.2,0.2c0,0.1,0.2,0.2,0.4,0.2c0.2,0,0.5,0.1,0.6,0.2c0.2,0.1,0.3,0.1,0.4,0
			c0.1-0.1,0.2,0,0.4,0.2c0.2,0.2,0.4,0.3,0.6,0.2c0.2-0.1,0.3,0,0.2,0c0,0.1,0.2,0.1,0.5,0.2c0.3,0,0.8,0.1,1,0.3
			c0.2,0.1,0.5,0.2,0.6,0.2c0.1,0,0.3,0,0.3,0c0,0.1,0.2,0.1,0.4,0.1c0.1,0,0.5,0,0.8,0.1s0.7,0.2,0.8,0.1c0.1,0,0.3,0,0.3,0.1
			c0,0.1,0.1,0.1,0.1,0.1c0.1,0,0.2,0,0.2,0.1c0.1,0.1,0.3,0.1,0.5,0.1c0.2,0,0.4,0,0.4,0c0,0.1,0.2,0.1,0.5,0.1
			c1.2,0.1,1.7,0.1,1.7,0.2c0,0.1,0.1,0.1,0.3,0.1c0.1,0,0.4,0,0.5,0.1c0.1,0.1,0.3,0,0.5-0.1c0.2-0.2,0.2-0.2,0.1,0
			c-0.1,0.2,0,0.2,0.3,0.1c0.2,0,0.4,0,0.4,0.1c0,0.1,0.2,0.1,0.5,0.1c0.3,0,0.5,0,0.6,0c0.1,0.1,1.6,0.2,3.6,0.2
			c0.7,0,1.3,0.1,1.3,0.1c0,0.1,6.4,0,8.3-0.1c0.7-0.1,1.7-0.1,2.3-0.1c0.7,0,1-0.1,1-0.2c0-0.2,0.3-0.2,0.5,0
			c0.1,0.1,0.1,0.1,0.1,0c0-0.1,0.3-0.2,0.7-0.2c0.4,0,0.8-0.1,0.8-0.2c0.1-0.1,0.1-0.1,0.2,0c0.1,0.1,0.2,0.2,0.3,0.2
			c0.1,0,0.1-0.1,0.1-0.1c-0.1-0.1,0.6-0.2,1.5-0.2c0.4,0,0.7-0.1,0.7-0.1c0.1-0.1,0.2-0.1,0.3-0.1c0.1,0,0.3,0,0.3-0.2
			c0.1-0.2,0.1-0.2,0.2-0.1c0.1,0.2,0.2,0.2,0.6,0c0.2-0.1,0.7-0.2,1.1-0.3c0.3,0,0.8-0.2,0.9-0.3c0.3-0.2,0.3-0.2,0.1,0
			c-0.2,0.2-0.2,0.2,0.1,0.2c0.2,0,0.3-0.1,0.3-0.2c0-0.1,0.1-0.1,0.2-0.1c0.2,0,0.4,0,0.6-0.1c0.2,0,0.3-0.1,0.3-0.1
			c0-0.1,0.1-0.1,0.3,0c0.2,0,0.3,0,0.4-0.1c0.1-0.1,0.3-0.2,0.5-0.2c0.2,0,0.3-0.1,0.3-0.1c0-0.1,0-0.1,0.2-0.1
			c0.2,0,0.3,0,0.4-0.1c0.1-0.1,0.3-0.2,0.5-0.2c0.2,0,0.4-0.1,0.3-0.1c0-0.1,0-0.1,0.1-0.1s0.2,0.1,0.1,0.1c0,0.1,0,0.1,0.2,0
			c0.1-0.1,0.2-0.2,0.2-0.2c0-0.1,0.1-0.1,0.1-0.1c0.3,0.1,0.5,0,0.4-0.2c-0.1-0.2-0.1-0.2,0.1,0c0.2,0.1,0.3,0.1,0.6-0.1
			c0.2-0.1,0.5-0.2,0.6-0.1c0.1,0,0.4-0.1,0.5-0.2c0.2-0.2,0.3-0.3,0.3-0.2c0,0.1,0.2,0,0.4-0.1c0.2-0.1,0.5-0.2,0.6-0.1
			c0.1,0.1,0.2-0.1,0.4-0.3s0.3-0.3,0.3-0.2c0,0.2,0.1,0.1,0.3,0c0.2-0.1,0.5-0.2,0.6-0.2c0.2,0,0.3-0.1,0.3-0.2
			c0-0.1,0.1-0.1,0.3-0.1c0.2,0,0.3,0,0.2-0.2c0-0.1,0-0.2,0.2-0.1c0.1,0,0.3,0,0.3-0.1c0-0.1,0.2-0.1,0.3,0c0.2,0.1,0.2,0,0.1-0.1
			c-0.1-0.1,0-0.1,0.1-0.1c0.1,0.1,0.2,0,0.2-0.1c0-0.1,0.1-0.1,0.2-0.1c0.1,0.1,0.2,0,0.2-0.2c0-0.1,0.1-0.2,0.2-0.2
			c0.1,0.1,0.2,0,0.3,0c0.1-0.2,1.5-0.8,1.8-0.8c0.1,0,0.2-0.1,0.2-0.2c0-0.1,0.1-0.2,0.2-0.2c0.1,0,0.4-0.1,0.6-0.3
			c0.2-0.2,0.5-0.4,0.7-0.4c0.2,0,0.4-0.2,0.4-0.2c0-0.1,0.1-0.1,0.2-0.1c0.1,0,0.2,0,0.2-0.1c0-0.1,0.1-0.2,0.2-0.1
			c0.1,0.1,0.3,0,0.3,0c0.2-0.2,0.9-0.7,1.2-0.7c0.1,0,0.2-0.1,0.2-0.3c0-0.2,0-0.3,0.1-0.2c0.3,0.3,1.7-0.6,1.5-0.9
			c-0.1-0.1,0-0.1,0.1,0c0.1,0.1,0.3,0,0.5-0.2c0.2-0.2,0.4-0.3,0.5-0.2c0.1,0.1,0.1,0,0.1-0.1c-0.1-0.2,0.4-0.4,0.7-0.4
			c0.1,0,0.1-0.1-0.1-0.2c-0.2-0.2-0.2-0.2,0-0.1c0.3,0.1,0.7-0.2,0.7-0.5c0-0.1,0.2-0.2,0.4-0.2c0.2,0,0.5-0.1,0.6-0.4
			c0.1-0.2,0.3-0.4,0.4-0.3c0.1,0,0.2,0,0.2-0.2c0-0.1,0.2-0.2,0.4-0.2c0.2,0,0.4-0.1,0.4-0.2c0.1-0.1,0-0.1-0.1-0.1
			c-0.1,0.1-0.2,0.1-0.1-0.1c0.1-0.1,0.2-0.2,0.3-0.2c0.1,0,0.3-0.1,0.3-0.2c0-0.1,0.2-0.2,0.2-0.1s0.1,0,0.1-0.1
			c0-0.1,0.2-0.3,0.6-0.5c0.3-0.2,0.6-0.5,0.7-0.7c0.1-0.2,0.3-0.3,0.4-0.3c0.2,0,0.3-0.1,0.3-0.2c0-0.3,0.2-0.6,0.4-0.5
			c0.1,0,0.2-0.1,0.3-0.3c0.1-0.2,0.2-0.3,0.3-0.2s0.2,0,0.4-0.2c0.2-0.2,0.2-0.3,0.1-0.2c-0.2,0.1-0.2,0.1,0-0.1
			c0.1-0.1,0.3-0.2,0.3-0.2s0.1,0,0.1-0.2c0-0.1,0.1-0.2,0.2-0.2c0.1,0,0.2-0.1,0.2-0.2c0-0.1,0.1-0.1,0.2-0.1c0.1,0.1,0.1,0,0.1,0
			c-0.1-0.3,0-0.5,0.2-0.5c0.3,0.1,0.6-0.2,0.5-0.4c0-0.1,0.1-0.2,0.3-0.3c0.2,0,0.4-0.2,0.4-0.3c0-0.1,0.2-0.3,0.4-0.4
			c0.3-0.2,0.7-0.6,0.9-1.2c0.1-0.2,0.2-0.2,0.3-0.2c0.2,0.1,0.2,0,0.1-0.1c-0.1-0.1,0-0.2,0.1-0.2c0.1,0,0.2-0.1,0.2-0.2
			c0-0.2,0.1-0.2,0.2-0.2c0.1,0,0.2,0,0.2-0.1c0-0.1,0.2-0.4,0.5-0.6c0.3-0.3,0.4-0.5,0.4-0.6c-0.1-0.1,0-0.2,0.2-0.2
			c0.1,0,0.2-0.1,0.2-0.2s0-0.2,0.1-0.2c0.1,0,0.2-0.1,0.2-0.2s0.3-0.6,0.8-1c0.5-0.5,0.7-0.8,0.6-0.8c-0.1-0.1-0.1-0.1,0.2-0.2
			c0.2-0.1,0.3-0.2,0.3-0.2c0-0.1,0.1-0.3,0.2-0.4c0.2-0.2,0.3-0.3,0.2-0.4c0,0,0.1-0.2,0.3-0.3c0.2-0.1,0.4-0.3,0.4-0.4
			c0-0.1,0.2-0.4,0.4-0.6c0.3-0.3,0.3-0.4,0.2-0.4c-0.1,0-0.1-0.1,0.1-0.2c0.3-0.2,0.4-0.2,0.4-0.6c0-0.1,0.1-0.1,0.1-0.1
			c0.1,0,0.2,0,0.2-0.2c0.1-0.2,0-0.2-0.1-0.1c-0.1,0.1,0,0,0.2-0.2c0.3-0.2,0.5-0.6,0.2-0.5c-0.1,0.1-0.1,0-0.1-0.1
			c0.1-0.3,0.4-0.3,0.4,0c0,0.1,0,0.1,0.1,0c0.1-0.1,0.1-0.3,0.1-0.4c0-0.1,0-0.2,0.1-0.2c0.2,0,1-1.4,0.9-1.6c0-0.1,0-0.1,0.1-0.1
			c0.3,0,0.5-0.3,0.6-0.7c0-0.2,0.1-0.4,0.2-0.4c0.1-0.1,0.1-0.2,0.1-0.4c0-0.2,0.1-0.2,0.3-0.2c0.2,0.1,0.2,0,0.2-0.1
			c-0.1-0.1,0-0.2,0.1-0.4c0.1-0.1,0.2-0.3,0.1-0.3c0-0.1,0-0.1,0.1-0.1c0.2,0,0.4-0.6,0.6-1.2c0-0.2,0.2-0.4,0.3-0.5
			c0.1-0.1,0.2-0.2,0.2-0.2c-0.1,0,0-0.2,0.1-0.5c0.1-0.3,0.2-0.5,0.1-0.5s0-0.1,0.2-0.3c0.2-0.1,0.3-0.4,0.3-0.7
			c0-0.2,0.1-0.5,0.1-0.6c0-0.1,0.1-0.2,0.1-0.1c0.1,0.1,0.5-0.4,0.4-0.5c-0.1-0.1,0-0.2,0.1-0.2s0.1-0.1,0.1-0.2
			c0-0.1,0-0.2,0.1-0.2s0.1-0.1,0.1-0.2c-0.1-0.1,0-0.3,0.2-0.4c0.2-0.1,0.2-0.2,0.1-0.2c-0.1,0-0.1-0.1,0.1-0.2
			c0.2-0.1,0.2-0.2,0-0.2c-0.2,0-0.2,0,0-0.1c0.2-0.1,0.4-0.6,0.4-1.1c0-0.1,0.1-0.2,0.2-0.2c0.1,0,0.2-0.1,0.2-0.3
			c0-0.2,0.1-0.3,0.2-0.4c0.1-0.1,0.1-0.2,0.1-0.4c0-0.2,0-0.4,0.1-0.5c0.1-0.1,0.1-0.3,0-0.4c-0.1-0.1-0.1-0.1,0-0.1
			c0.2,0.2,0.7-0.9,0.7-1.8c0-0.3,0.1-0.4,0.2-0.3c0.1,0.1,0.1,0,0.1-0.1c-0.1-0.1,0-0.3,0.1-0.3c0.1-0.1,0.1-0.3,0.1-0.5
			c0-0.3,0.1-0.5,0.2-0.5c0.1,0,0.1-0.1,0.1-0.3c0-0.2,0-0.3,0.1-0.3s0.1-0.2,0.1-0.4c0-0.2,0-0.5,0.2-0.6c0.1-0.1,0.2-0.3,0.1-0.3
			c-0.1,0,0-0.1,0-0.2c0.1-0.1,0.1-0.4,0.1-0.8c0-0.3,0-0.5,0.1-0.5c0.1,0,0.2-0.2,0.2-0.6c0.1-0.4,0.1-0.8,0.2-0.9
			c0.1-0.5,0.3-2.1,0.4-3c0-0.3,0.1-0.6,0.2-0.8c0.1-0.2,0.1-0.4,0.1-0.5c0-0.1,0-0.3,0.1-0.4c0.1-0.2,0.1-0.2,0-0.3
			c-0.1,0-0.1-0.1,0-0.4c0.1-0.2,0.1-0.5,0.1-0.6s0-0.3,0-0.3c0.1,0,0.1-0.4,0.2-0.8c0.1-2,0.1-3,0.2-3.1c0.1,0,0.1-0.3,0-0.5
			c-0.1-0.3-0.1-0.4,0-0.3c0.1,0.1,0.1-1.2,0.1-3.5c0-2-0.1-3.6-0.1-3.6c-0.1,0-0.1-0.4-0.2-3c0-0.4-0.1-0.8-0.2-0.8s-0.1-0.1,0-0.3
			c0.1-0.2,0-0.5-0.1-0.6c-0.1-0.3-0.1-0.4,0-0.4c0.1,0,0.1-0.1,0-0.3c-0.1-0.1-0.1-0.3-0.1-0.4c0-0.1,0-0.3-0.1-0.5
			c-0.2-0.2-0.2-0.3,0-0.5c0.1-0.1,0.1-0.2,0-0.1c-0.1,0.1-0.2-0.2-0.2-0.8c0-0.5-0.1-0.9-0.1-1c-0.1-0.1-0.1-0.4-0.1-0.6
			s-0.1-0.6-0.1-0.7c0-0.1-0.1-0.5-0.2-0.9c-0.1-0.4-0.2-0.6-0.2-0.6c-0.1,0-0.1-0.2-0.1-0.5c0-0.3,0-0.7-0.1-0.8
			c-0.1-0.1-0.1-0.2,0-0.2c0.1,0,0-0.1-0.1-0.3c-0.1-0.1-0.2-0.4-0.2-0.6c0-0.2,0-0.4-0.1-0.4s-0.1-0.1-0.1-0.3c0-0.2,0-0.3-0.1-0.3
			c-0.1,0-0.2-0.2-0.2-0.5c0-0.3-0.1-0.5-0.1-0.5c-0.1-0.1-0.1-0.2-0.1-0.3c0.1-0.2,0-0.2-0.1-0.1c-0.1,0.1-0.2,0-0.2-0.3
			c0-0.9-0.4-2-0.7-1.8c-0.1,0.1-0.1,0,0-0.1c0.1-0.1,0-0.3,0-0.4c-0.1-0.1-0.1-0.3-0.1-0.5c0-0.2,0-0.3-0.1-0.4
			c-0.1-0.1-0.2-0.2-0.2-0.4c0-0.2-0.1-0.3-0.2-0.3c-0.1,0-0.1-0.1-0.2-0.2c0-0.5-0.2-1-0.4-1.1c-0.2-0.1-0.1-0.1,0-0.1
			c0.2,0,0.2,0,0-0.2c-0.1-0.1-0.2-0.2-0.1-0.2c0.1,0,0-0.1-0.1-0.2c-0.2-0.1-0.2-0.3-0.2-0.4c0.1-0.1,0-0.2-0.1-0.2
			c-0.1,0-0.1-0.1-0.1-0.2c0-0.1,0-0.2-0.1-0.2s-0.1-0.1-0.1-0.2c0-0.1,0-0.3-0.2-0.3c-0.2-0.1-0.3-0.3-0.3-0.5
			c-0.1-0.6-0.1-0.8-0.4-1c-0.2-0.2-0.5-1-0.4-1.2c0,0-0.1-0.2-0.2-0.3c-0.1-0.1-0.3-0.3-0.3-0.5c-0.1-0.6-0.4-1.2-0.6-1.2
			c-0.1,0-0.1-0.1-0.1-0.1c0-0.1,0-0.2-0.1-0.3c-0.1-0.1-0.2-0.3-0.1-0.4c0.1-0.1,0-0.1-0.2-0.1c-0.1,0.1-0.3,0-0.3-0.1
			c0-0.2-0.1-0.4-0.1-0.5c0,0-0.1-0.2-0.1-0.4c-0.1-0.5-0.3-0.8-0.7-0.8c-0.2,0-0.2,0,0-0.2c0.2-0.1,0.1-0.2-0.2-0.2
			c-0.1,0-0.1,0,0-0.1c0.1-0.1-0.5-1.3-0.7-1.3c-0.1,0-0.1-0.1-0.1-0.2c0-0.1,0-0.3-0.1-0.4c-0.1-0.2-0.1-0.2-0.1,0
			c0,0.3-0.3,0.2-0.4,0c-0.1-0.1,0-0.2,0.1-0.1c0.2,0.1,0.2,0-0.1-0.5c-0.2-0.3-0.3-0.4-0.4-0.4c-0.1,0.1-0.1-0.2-0.1-0.3
			c0,0-0.1-0.2-0.3-0.3c-0.2-0.1-0.3-0.2-0.2-0.2c0.1,0,0.1-0.2-0.2-0.4c-0.2-0.2-0.4-0.5-0.4-0.6c0-0.1-0.2-0.3-0.4-0.4
			c-0.2-0.1-0.4-0.2-0.3-0.3s-0.1-0.2-0.2-0.4c-0.7-0.8-0.7-0.9-0.6-0.9c0.1,0-0.2-0.4-0.6-0.8c-0.4-0.4-0.8-0.8-0.8-1
			s-0.1-0.2-0.2-0.2c-0.1,0-0.2-0.1-0.1-0.2c0.1-0.1,0-0.2-0.2-0.2c-0.1,0-0.2-0.1-0.2-0.1c0-0.1-0.1-0.4-0.4-0.7
			c-0.3-0.3-0.5-0.6-0.5-0.6c0-0.1-0.1-0.1-0.2,0c-0.1,0.1-0.2,0-0.2-0.2c0-0.1-0.1-0.2-0.2-0.2c-0.1,0-0.1-0.1-0.1-0.2
			c0.1-0.1,0-0.2-0.1-0.1c-0.2,0.1-0.3-0.1-0.5-0.5c-0.2-0.3-0.5-0.7-0.7-0.8c-0.2-0.1-0.4-0.3-0.4-0.4s-0.2-0.3-0.4-0.3
			c-0.2,0-0.3-0.1-0.3-0.3c0.1-0.3-0.2-0.5-0.5-0.4c-0.1,0.1-0.2,0-0.2-0.3c0-0.2-0.1-0.3-0.2-0.2c-0.1,0.1-0.2,0-0.2-0.1
			s-0.1-0.2-0.2-0.2c-0.1,0-0.2-0.1-0.2-0.2c0-0.1-0.1-0.2-0.2-0.2c-0.1,0-0.2,0-0.2-0.1c0-0.3-0.5-0.7-0.5-0.5c0,0.1-0.1,0-0.3-0.3
			c-0.2-0.3-0.3-0.4-0.3-0.3c0,0.1-0.1,0.1-0.2,0c-0.1-0.1-0.2-0.3-0.2-0.4s-0.1-0.2-0.3-0.2c-0.2,0-0.3-0.1-0.4-0.3
			c-0.1-0.2-0.4-0.5-0.7-0.7c-0.3-0.2-0.6-0.4-0.6-0.5c0-0.1-0.1-0.1-0.1-0.1c-0.1,0-0.2,0-0.2-0.1s-0.2-0.2-0.3-0.2
			c-0.1,0-0.3-0.1-0.3-0.2c-0.1-0.1,0-0.1,0.1-0.1c0.1,0.1,0.2,0.1,0.1-0.1c-0.1-0.1-0.2-0.2-0.4-0.1c-0.1,0-0.2,0-0.2-0.2
			c0-0.1,0-0.2-0.1-0.1c-0.1,0.1-0.2,0-0.2-0.1c0-0.1-0.1-0.1-0.1-0.1c-0.1,0-0.3-0.1-0.4-0.3c-0.2-0.2-0.4-0.4-0.6-0.4
			c-0.2,0-0.4-0.1-0.4-0.2c0-0.3-0.5-0.6-0.7-0.5c-0.2,0.1-0.2,0.1,0-0.1c0.1-0.1,0.1-0.2,0.1-0.2c-0.3,0.1-0.8-0.2-0.7-0.4
			c0.1-0.1,0-0.1-0.1,0c-0.1,0.1-0.3,0-0.5-0.2c-0.2-0.2-0.4-0.3-0.5-0.2c-0.1,0.1-0.1,0-0.1-0.1c0-0.1,0-0.2-0.2-0.2
			c-0.1,0-0.2,0-0.1-0.1c0.1-0.2-0.5-0.5-1-0.5c-0.2,0-0.3-0.1-0.3-0.3c0-0.2-0.1-0.3-0.2-0.2c-0.1,0.1-0.4,0-0.5-0.2
			c-0.6-0.6-0.8-0.7-1-0.6c-0.1,0.1-0.2,0-0.1-0.1c0.1-0.1-0.2-0.3-0.6-0.5s-0.8-0.4-0.9-0.5c-0.1-0.1-0.3-0.2-0.5-0.2
			c-0.1,0-0.2-0.1-0.2-0.2s-0.1-0.2-0.2-0.2c-0.3,0-1.7-0.6-1.8-0.8c-0.1-0.1-0.2-0.1-0.3,0c-0.1,0.1-0.2,0-0.2-0.2
			c0-0.2-0.1-0.2-0.2-0.2c-0.1,0-0.2,0-0.2-0.1s-0.1-0.1-0.2-0.1c-0.1,0.1-0.2,0-0.1-0.1c0.1-0.1-0.3-0.2-0.8-0.2
			c-0.1,0-0.2,0-0.1-0.1c0.1-0.1,0-0.2-0.2-0.4c-0.2-0.1-0.2-0.2-0.1,0c0.1,0.1,0,0.2,0,0.2s-0.2-0.1-0.2-0.2c0-0.1,0-0.1-0.1-0.1
			c-0.1,0.1-0.3,0-0.6-0.1c-0.3-0.1-0.5-0.2-0.5-0.1s-0.2-0.1-0.3-0.2c-0.1-0.2-0.3-0.3-0.4-0.2c-0.1,0-0.3,0-0.5-0.1
			c-0.2-0.1-0.4-0.2-0.5-0.2c-0.1,0-0.3-0.1-0.4-0.2c-0.1-0.1-0.3-0.2-0.5-0.1c-0.1,0-0.4,0-0.6-0.2c-0.3-0.2-0.4-0.2-0.6-0.1
			c-0.2,0.1-0.2,0.1-0.1,0c0.1-0.2-0.1-0.3-0.4-0.2c-0.1,0-0.1,0-0.1-0.1s-0.1-0.2-0.2-0.2c-0.2-0.1-0.2,0-0.1,0.1
			c0.1,0.1,0.1,0.1-0.1,0c-0.1-0.1-0.4-0.2-0.6-0.2c-0.2,0-0.4-0.1-0.5-0.2C329.3,9,329.1,8.9,329,9c-0.2,0-0.3,0-0.2-0.1
			c0-0.1-0.1-0.1-0.3-0.1c-0.2,0-0.4-0.1-0.5-0.2c-0.1-0.1-0.2-0.1-0.4-0.1c-0.2,0-0.3,0-0.3,0c0-0.1-0.1-0.1-0.3-0.1
			c-0.2,0-0.4,0-0.6-0.1c-0.2,0-0.3-0.1-0.2-0.1c0-0.1-0.1-0.1-0.3-0.2c-0.3-0.1-0.3,0-0.1,0.2c0.2,0.2,0.2,0.2-0.1,0
			c-0.2-0.1-0.6-0.3-1-0.3c-0.4,0-0.8-0.1-0.9-0.2c-0.1-0.1-0.3-0.2-0.4-0.2s-0.2,0.1-0.2,0.2c0,0.1-0.1,0.1-0.2-0.1
			c-0.1-0.2-0.3-0.2-0.4-0.2c-0.1,0.1-0.2,0-0.3-0.1c-0.1-0.1-0.2-0.2-0.3-0.2c-0.1,0-0.1,0.1,0,0.2c0.1,0.1,0,0.1-0.1,0.1
			c-0.2-0.1-0.7-0.2-1.6-0.3c-0.2,0-0.4-0.1-0.3-0.2c0-0.1,0-0.1-0.1-0.1c-0.1,0-0.2,0.1-0.3,0.2c-0.1,0.1-0.1,0.1-0.2,0
			c-0.1-0.1-0.3-0.2-0.6-0.2c-0.3,0-0.5-0.1-0.5-0.2c0-0.1-0.1-0.1-0.2,0.1c-0.2,0.2-0.2,0.2-0.2,0c0-0.1,0-0.2-0.1-0.1
			c-0.2,0.2-0.5,0.3-0.5,0c0-0.1-0.3-0.2-1-0.2c-0.5,0-1.6-0.1-2.3-0.1C311.8,6.1,306.4,6,306.3,6.1 M312.2,33.2
			c1.3,0.1,2.1,0.2,2.6,0.4c0.2,0.1,0.4,0.1,0.4,0s0.2-0.1,0.4-0.1c0.2,0,0.4,0.1,0.4,0.2s0.1,0.1,0.3,0c0.2-0.1,0.4,0,0.5,0.1
			c0.1,0.1,0.3,0.1,0.5,0.1c0.1,0,0.3,0,0.3,0.1c0.1,0.1,0.3,0.1,0.5,0.1c0.2,0,0.5,0,0.6,0.1c0.7,0.3,1.2,0.5,1.4,0.5
			c0.1,0,0.3,0.1,0.5,0.2c0.1,0.1,0.4,0.1,0.5,0.2s0.3,0.1,0.3,0.2c0,0.1,0.1,0.2,0.2,0.2c0.1,0,0.1-0.1,0-0.2
			c-0.1-0.1,0.2,0,0.5,0.2c0.4,0.2,0.7,0.3,0.8,0.2c0.1-0.1,0.1,0,0.1,0.1c-0.1,0.2,0.2,0.3,0.6,0.2c0.1,0,0.1,0.1,0.1,0.1
			s0.1,0.1,0.2,0.1c0.1-0.1,0.2,0,0.2,0.1c0,0.1,0.1,0.1,0.2,0.1c0.1-0.1,0.2,0,0.2,0.2c0,0.2,0.1,0.2,0.2,0.1c0.1-0.1,0.3,0,0.3,0
			c0.2,0.2,0.8,0.5,1,0.5c0.1,0,0.3,0.1,0.4,0.3c0.1,0.2,0.3,0.3,0.4,0.2c0.1,0,0.2,0,0.2,0.1s0.1,0.1,0.1,0.1c0.1,0,0.2,0,0.2,0.2
			c0.1,0.1,0.2,0.2,0.3,0.2c0.1,0,0.3,0,0.4,0.1c0.1,0.1,0.3,0.2,0.3,0.1c0,0,0.2,0.1,0.3,0.3c0.1,0.3,0.3,0.4,0.5,0.3
			c0.2,0,0.3,0,0.3,0.2c0,0.2,0.1,0.2,0.2,0.1c0.1-0.1,0.2,0,0.2,0c0,0.1,0.2,0.2,0.5,0.4c0.3,0.2,0.6,0.4,0.7,0.6
			c0,0.2,0.2,0.3,0.3,0.2c0.1,0,0.4,0.1,0.6,0.3c0.2,0.2,0.5,0.4,0.6,0.3c0.1,0,0.2,0.1,0.3,0.3c0.1,0.2,0.2,0.3,0.3,0.2
			c0.1,0,0.2,0,0.1,0.1c-0.1,0.1,0.1,0.2,0.3,0.3c0.2,0.1,0.5,0.3,0.6,0.4c0.2,0.2,0.2,0.3,0,0.1c-0.1-0.1-0.2-0.1-0.1,0.1
			c0.1,0.1,0.2,0.1,0.2,0.1c0.1,0,0.2,0,0.3,0.2c0.1,0.1,0.3,0.2,0.4,0.1c0.1-0.1,0.1,0,0.1,0.1c-0.1,0.1,0.1,0.4,0.4,0.7
			c0.3,0.3,0.5,0.5,0.5,0.5c0,0,0.2,0.1,0.4,0.3c0.2,0.2,0.5,0.4,0.5,0.4c0.1,0,0.1,0.1,0.1,0.2c0,0.1,0.1,0.3,0.2,0.3
			c0.1,0,0.2,0.2,0.2,0.3c0,0.1,0.1,0.2,0.2,0.2c0.1-0.1,0.2,0,0.2,0.1c0,0.1,0.1,0.2,0.2,0.2s0.2,0.1,0.1,0.1
			c-0.1,0.1,0.1,0.3,0.3,0.5c0.2,0.2,0.3,0.4,0.3,0.5c0,0.1,0.1,0.2,0.3,0.2c0.2,0,0.3,0.1,0.2,0.2c0,0.1,0,0.1,0.1,0.1
			c0.1,0,0.2,0.2,0.2,0.3c0,0.2,0.1,0.3,0.2,0.3c0.1,0,0.2,0,0.2,0.1s0.1,0.1,0.2,0.1c0.1-0.1,0.1,0,0.1,0.1
			c-0.1,0.2,0.1,0.4,0.3,0.7c0.2,0.2,0.4,0.5,0.4,0.6c0,0.1,0.1,0.1,0.2,0.1c0.1,0,0.2,0,0.1,0.2c-0.1,0.1,0,0.2,0.1,0.2
			c0.1,0,0.1,0.1,0.1,0.2c0,0.1,0.1,0.2,0.2,0.2c0.1,0,0.1,0.1,0.1,0.2c-0.1,0.1,0,0.2,0,0.2c0.1,0,0.3,0.1,0.5,0.4
			c0.2,0.3,0.3,0.4,0.2,0.4c-0.2-0.1-0.2,0,0.1,0.5c0.1,0.2,0.3,0.5,0.5,0.5c0.1,0.1,0.2,0.2,0.1,0.3c-0.1,0.1,0,0.3,0.2,0.3
			c0.1,0.1,0.2,0.2,0.2,0.2c0,0.1,0,0.1,0.1,0.1c0.1,0,0.1,0.1,0.1,0.2c-0.1,0.1,0,0.2,0.1,0.2c0.1,0,0.1,0.1,0.1,0.1
			c0,0.1,0,0.2,0.1,0.3c0.1,0.1,0.2,0.3,0.1,0.4c-0.1,0.1,0,0.2,0,0.2c0.1,0,0.3,0.2,0.5,0.6c0.2,0.4,0.3,0.6,0.2,0.6
			c-0.2-0.1-0.2,0.2,0.1,0.4c0.1,0.1,0.3,0.1,0.3,0.1c0.1-0.1,0.1,0,0,0.2c-0.1,0.2,0,0.4,0.2,0.6c0.2,0.2,0.2,0.4,0.2,0.6
			c-0.1,0.1,0,0.4,0.1,0.6c0.3,0.5,0.7,1.5,0.6,1.4c-0.2-0.1,0,0.4,0.2,0.6c0.1,0.1,0.2,0.4,0.2,0.6c0,0.2,0.1,0.5,0.2,0.6
			c0.1,0.1,0.1,0.2,0.1,0.4c-0.1,0.1,0,0.2,0.1,0.3c0.1,0,0.1,0.1,0,0.1c-0.2,0.1-0.2,0.2,0,0.2c0.1,0.1,0.3,0.2,0.2,0.4
			c-0.1,0.6,0,0.8,0.2,0.7c0.1-0.1,0.1-0.1,0,0.1c-0.1,0.2-0.1,0.3,0,0.3c0.1,0.1,0.1,0.2,0.1,0.2c0,0.1,0,0.2,0.1,0.2
			c0.1,0.1,0.1,0.3,0.1,0.5c0,0.2,0,0.4,0.1,0.5c0.1,0.1,0.1,0.3,0.1,0.6c0,0.3,0,0.5,0.1,0.5c0.1,0,0.1,0.2,0.1,0.4
			c-0.1,0.2,0,0.5,0.1,0.6c0.2,0.2,0.2,0.5,0.3,2.6c0,0.7,0.1,1.4,0.2,1.4c0.1,0.1,0.1,0.1,0,0.1s-0.2,0.2-0.2,0.7
			c0,0.7,0,0.7,0.1,0.2c0.1-0.3,0.1,0.4,0.1,1.5c0,1.1-0.1,2.2-0.1,2.3c0,0.1-0.1,0.6-0.1,1c0,0.7-0.1,2.1-0.3,3.5
			c0,0.2-0.1,0.5-0.1,0.6c-0.1,0.1,0,0.2,0.1,0.2c0.2,0.1,0,0.6-0.3,0.8c-0.2,0.1-0.2,0.2,0,0.2c0.1,0,0.1,0.1,0.1,0.2
			c-0.1,0.1-0.1,0.4-0.2,0.6c-0.1,0.6-0.1,0.8-0.3,1.2c-0.1,0.2-0.1,0.6-0.1,0.8c0,0.3-0.1,0.5-0.2,0.5c-0.2,0.1-0.2,0.1,0,0.2
			c0.2,0.1,0.1,0.2-0.1,0.6c-0.2,0.3-0.3,0.6-0.2,0.6c0,0.1,0,0.1-0.1,0.1c-0.1,0-0.1,0.1,0,0.2c0.1,0.2,0.1,0.3-0.1,0.5
			c-0.2,0.2-0.3,0.4-0.2,0.5c0,0.1,0,0.3-0.1,0.5c-0.1,0.2-0.2,0.4-0.2,0.4c0,0-0.1,0.2-0.2,0.4c-0.1,0.2-0.1,0.4-0.1,0.5
			c0.1,0.1,0,0.1-0.1,0.1c-0.1-0.1-0.2,0-0.1,0.2c0.1,0.3,0.1,0.3-0.1,0.2s-0.2,0-0.1,0.3c0,0.2,0,0.4,0,0.3c-0.1,0-0.2,0-0.3,0.2
			c-0.1,0.2-0.2,0.2,0,0.1c0.1-0.1,0.2,0,0.2,0c0,0.1-0.1,0.2-0.2,0.2c-0.1,0-0.1,0.1-0.1,0.2c0.1,0.1,0,0.2-0.1,0.2
			c-0.1,0-0.1,0.1-0.1,0.2c0.1,0.1,0,0.2-0.1,0.2c-0.1,0-0.1,0.1-0.1,0.2c0.1,0.1,0,0.2-0.1,0.2c-0.1,0-0.2,0.1-0.1,0.3
			c0,0.1,0,0.3-0.1,0.2c-0.1,0-0.2,0.1-0.1,0.2c0,0.1,0,0.2-0.1,0.2c-0.1,0-0.2,0.1-0.1,0.3c0,0.2,0,0.3-0.1,0.2
			c-0.1,0-0.1,0-0.1,0.2c0,0.2-0.1,0.2-0.2,0.1c-0.1-0.1-0.1,0,0,0.1c0.1,0.2,0.2,0.3,0,0.3c-0.1,0-0.3,0.3-0.4,0.6
			c-0.1,0.3-0.3,0.7-0.5,0.8c-0.2,0.2-0.3,0.4-0.2,0.7c0,0.1,0,0.1-0.1,0.1c-0.1-0.1-0.7,0.4-0.6,0.5c0.1,0.1,0,0.2-0.1,0.3
			c-0.4,0.3-0.7,0.8-0.4,0.7c0.1-0.1,0.1,0-0.1,0.1s-0.3,0.3-0.3,0.5s-0.2,0.4-0.4,0.7c-0.2,0.3-0.3,0.5-0.3,0.6
			c0.1,0.1,0,0.1-0.2,0c-0.2-0.1-0.3,0-0.4,0.3c-0.1,0.2-0.2,0.4-0.3,0.4s-0.2,0.2-0.3,0.5c-0.1,0.3-0.2,0.4-0.3,0.4
			c-0.1-0.1-0.2,0-0.1,0.3c0,0.1-0.2,0.2-0.4,0.4c-0.2,0.1-0.4,0.3-0.4,0.4c0,0.1-0.1,0.2-0.3,0.3c-0.2,0.1-0.3,0.3-0.3,0.4
			c0,0.1-0.1,0.2-0.2,0.1c-0.1-0.1-0.3,0.1-0.4,0.4c-0.1,0.3-0.4,0.5-0.5,0.6c-0.2,0-0.2,0.2-0.2,0.2c0,0.1,0,0.1-0.1,0.1
			c-0.1,0-0.1,0.1-0.1,0.2c0.1,0.1,0,0.1-0.2,0.1c-0.2-0.1-0.2,0-0.2,0.1c0.1,0.1,0,0.2-0.1,0.2c-0.1,0-0.2,0.1-0.2,0.2
			c0,0.1-0.1,0.2-0.2,0.2c-0.1,0-0.2,0.1-0.1,0.1c0.1,0.1-0.1,0.3-0.4,0.4c-0.3,0.1-0.5,0.3-0.6,0.4c-0.1,0.1,0,0.1,0.2,0
			c0.3-0.2,0.3-0.2,0.1,0c-0.1,0.2-0.3,0.3-0.4,0.2c-0.1,0-0.3,0.1-0.5,0.3c-0.2,0.2-0.4,0.4-0.5,0.4c-0.1,0-0.2,0.1-0.2,0.3
			c-0.1,0.2-0.2,0.3-0.3,0.3s-0.2,0-0.1,0.2c0,0.1-0.1,0.2-0.2,0.1c-0.3-0.1-0.7,0.2-0.6,0.5c0.1,0.1,0,0.1-0.1,0.1
			c-0.1-0.1-0.3,0.1-0.6,0.4c-0.2,0.3-0.5,0.5-0.7,0.5c-0.2,0-0.3,0.1-0.3,0.2c0,0.1-0.1,0.2-0.2,0.1c-0.4-0.1-1,0.4-1,0.7
			c0,0.2,0,0.2-0.1,0c-0.1-0.2-0.2-0.1-0.6,0.2c-0.2,0.2-0.5,0.4-0.6,0.3c-0.1,0-0.3,0-0.3,0.2c-0.1,0.1-0.2,0.2-0.3,0.2
			c-0.3-0.1-0.4,0.2-0.2,0.3c0.1,0,0.1,0.1-0.1,0.1c-0.4,0-1,0.2-0.9,0.4c0,0.1,0,0.1-0.2,0c-0.2-0.1-0.3,0-0.4,0.2
			c-0.1,0.1-0.3,0.3-0.4,0.3c-0.2,0-0.4,0.1-0.5,0.2c-0.2,0.2-0.2,0.2-0.3,0c-0.1-0.2-0.1-0.2-0.1,0c0,0.1-0.1,0.2-0.2,0.2
			c-0.1,0-0.2,0.1-0.2,0.2c0,0.1-0.1,0.1-0.2,0c-0.1-0.2-0.2-0.2-0.2,0c0,0.1,0,0.2-0.1,0.1c-0.1-0.1-0.4,0-0.7,0.2
			c-0.3,0.2-0.6,0.2-0.5,0.1c0.1-0.1,0-0.1-0.2,0c-0.2,0.1-0.3,0.3-0.3,0.3c0,0.1-0.1,0.1-0.2,0c-0.1,0-0.4,0-0.7,0.1
			c-0.2,0.1-0.7,0.2-1,0.3c-0.3,0-0.6,0.1-0.7,0.2c-0.1,0.1-0.4,0.2-0.7,0.2s-0.5,0.1-0.5,0.1c0,0.1-0.1,0.1-0.3,0.1
			c-0.5,0-1.9,0.2-3.4,0.5c-1,0.2-6.5,0.3-7.5,0.1c-0.4-0.1-1.1-0.2-1.5-0.2c-0.4-0.1-1-0.1-1.2-0.1c-0.2,0-0.4-0.1-0.4-0.1
			c0-0.1-0.2-0.1-0.4,0c-0.3,0.1-0.4,0-0.4-0.1c0-0.1-0.1-0.2-0.4-0.1c-0.2,0.1-0.4,0-0.4,0c0-0.1-0.2-0.2-1-0.2
			c-0.3,0-0.5-0.1-0.6-0.2c0-0.1-0.2-0.1-0.2-0.1c-0.1,0-0.1,0-0.1-0.1c0-0.1-0.1-0.1-0.2-0.1c-0.1,0.1-0.2,0-0.3-0.1
			c-0.1-0.1-0.4-0.2-0.7-0.2c-0.3,0-0.5-0.1-0.5-0.2c0.1-0.1,0-0.1-0.2-0.1c-0.2,0-0.3,0-0.3-0.1c0-0.2-0.8-0.4-0.9-0.2
			c0,0.1-0.2,0-0.4-0.1c-0.2-0.2-0.4-0.3-0.5-0.3c-0.1,0-0.3,0-0.5,0c-0.2,0-0.3-0.1-0.2-0.2c0.1-0.1-0.1-0.2-0.4-0.2
			c-0.1,0-0.1-0.1-0.1-0.2c0-0.1,0-0.1-0.1-0.1c-0.1,0.1-0.2,0-0.3-0.1c-0.2-0.2-0.2-0.2-0.1,0c0.1,0.1-0.1,0-0.4-0.2
			c-0.3-0.2-0.5-0.4-0.5-0.3c0,0.1-0.1,0-0.2-0.1c-0.1-0.1-0.3-0.1-0.5-0.1c-0.1,0.1-0.2,0-0.1-0.1c0.1-0.1,0-0.2-0.1-0.2
			c-0.1,0-0.3-0.1-0.3-0.2c0-0.1-0.4-0.3-0.7-0.4c-0.4-0.1-0.6-0.2-0.5-0.3c0.1-0.1-1-0.8-1.2-0.7c-0.1,0-0.3-0.1-0.4-0.2
			c-0.1-0.2-0.3-0.3-0.4-0.3c-0.1,0-0.2-0.1-0.1-0.2c0.1-0.1,0-0.1-0.1-0.1c-0.2,0.1-0.4-0.1-0.7-0.4c-0.3-0.3-0.6-0.5-0.7-0.4
			c-0.1,0.1-0.2,0-0.1-0.1c0.1-0.1,0-0.2-0.2-0.3c-0.2-0.1-0.3-0.2-0.2-0.3c0.1-0.1,0-0.1-0.1,0c-0.3,0.2-0.7-0.2-0.7-0.7
			c0-0.1-0.1-0.2-0.2-0.1c-0.2,0.1-0.6-0.2-0.5-0.4c0-0.1-0.1-0.2-0.3-0.3c-0.2-0.1-0.5-0.3-0.6-0.5c-0.1-0.2-0.2-0.3-0.3-0.2
			c-0.1,0.1-0.2,0-0.2-0.2c0-0.2-0.1-0.3-0.2-0.3c-0.1,0-0.3-0.1-0.5-0.4c-0.2-0.3-0.4-0.5-0.6-0.5c-0.1,0-0.2-0.1-0.1-0.2
			c0.1-0.1,0-0.2-0.1-0.2c-0.1,0-0.3-0.1-0.3-0.2c0-0.1-0.2-0.2-0.3-0.2c-0.3,0-0.8-0.6-0.5-0.7c0.1,0-0.1-0.2-0.4-0.4
			c-0.3-0.2-0.4-0.3-0.3-0.3c0.2,0.1,0.2,0,0.2-0.1c-0.1-0.1-0.2-0.2-0.3-0.2c-0.1,0-0.2-0.1-0.1-0.1s0-0.2-0.2-0.2
			c-0.1-0.1-0.2-0.2-0.1-0.3c0.1-0.1,0-0.1,0-0.1c-0.1,0-0.3-0.1-0.4-0.2c-0.2-0.2-0.2-0.3-0.1-0.2c0.2,0.1,0.2,0.1,0-0.2
			c-0.1-0.2-0.3-0.3-0.4-0.3c-0.1,0-0.2-0.1-0.1-0.2c0.1-0.2,0-0.2-0.2-0.1c-0.2,0.1-0.2,0-0.1-0.1c0.1-0.1-0.1-0.3-0.2-0.4
			c-0.2-0.1-0.3-0.2-0.2-0.2c0.1,0,0-0.2-0.2-0.4c-0.2-0.2-0.3-0.5-0.3-0.7c0.1-0.2,0.1-0.2-0.2,0c-0.2,0.2-0.3,0.2-0.2,0
			c0-0.1,0-0.3-0.2-0.4c-0.1-0.1-0.2-0.3-0.2-0.5s-0.1-0.3-0.2-0.4c-0.1-0.1-0.2-0.2-0.1-0.2c0.1-0.1,0-0.2-0.2-0.2
			c-0.1,0-0.2,0-0.2-0.1c0.1-0.1,0-0.2-0.1-0.3c-0.2-0.2-0.2-0.2,0-0.1c0.1,0.1,0.1,0,0-0.1c-0.1-0.1-0.2-0.3-0.2-0.3s0-0.2-0.2-0.3
			c-0.1-0.1-0.2-0.3-0.2-0.4c0-0.1-0.1-0.2-0.2-0.2s-0.2-0.1-0.1-0.2c0.1-0.1,0-0.3-0.1-0.4c-0.1-0.1-0.3-0.5-0.3-0.7
			c0-0.3-0.1-0.4-0.3-0.3c-0.1,0-0.2,0-0.1,0c0.1-0.1,0-0.2-0.1-0.3c-0.1-0.2-0.1-0.2,0-0.2c0.2,0,0.2,0,0-0.2
			c-0.1-0.1-0.2-0.2-0.1-0.2c0.1,0,0.1-0.1-0.1-0.2c-0.1-0.1-0.2-0.3-0.2-0.5c0-0.2-0.1-0.3-0.2-0.3c-0.1,0-0.1-0.1-0.1-0.3
			c0.1-0.2,0-0.3-0.1-0.2c-0.1,0.1-0.2,0-0.3-0.1c-0.1-0.1,0-0.2,0.1-0.2c0.1,0,0.1-0.1,0-0.4c-0.1-0.2-0.3-0.4-0.3-0.4
			c-0.1,0-0.1-0.1,0.1-0.1c0.2-0.1,0.2-0.2,0-0.2c-0.2-0.1-0.2-0.2-0.2-0.4c0.1-0.2,0-0.3-0.1-0.4c-0.1-0.1-0.2-0.2-0.1-0.4
			c0-0.2,0-0.3-0.1-0.4c-0.1-0.1-0.1-0.3-0.1-0.4c0.1-0.3,0-0.3-0.1-0.1c-0.1,0.2-0.4-0.7-0.4-1.1c0-0.1,0-0.2-0.1-0.3
			c-0.1-0.1-0.1-0.3-0.1-0.4c0.1-0.1,0-0.3-0.1-0.3c-0.1,0-0.2-0.1-0.2-0.2c-0.1-0.2,0-0.2,0.1-0.1c0.1,0.1,0.1,0-0.1-0.1
			c-0.3-0.2-0.4-0.5-0.1-0.4c0.1,0,0.1,0,0.1-0.1c0-0.1-0.1-0.2-0.2-0.2c-0.1,0-0.2-0.3-0.2-0.7c-0.1-1.5-0.1-1.8-0.2-1.8
			c-0.1,0-0.1-0.1,0-0.2c0-0.1,0-0.3-0.1-0.5c-0.1-0.1-0.1-0.2-0.1-0.2c0.1,0,0.1-0.1,0-0.2c-0.1-0.1-0.1-0.3-0.1-0.5
			c0-0.2,0-0.4-0.1-0.4c-0.1-0.1-0.1-0.1,0-0.2c0.1-0.1,0.2-0.2,0.1-0.3c-0.2-0.1-0.2-0.4-0.2-5.1c0-4.1,0.1-5.9,0.3-6.4
			c0-0.1,0.1-0.4,0.1-0.7c0-0.3,0-0.5,0.1-0.5s0.1-0.2,0.1-0.5s0-0.6,0-0.7c0.1-0.2,0.2-0.4,0.2-1.1c0-0.3,0.1-0.5,0.1-0.5
			c0,0,0-0.1,0-0.2c0-0.1,0.1-0.3,0.2-0.5c0.2-0.2,0.2-0.3,0-0.3c-0.1,0-0.1-0.1,0.1-0.3c0.2-0.2,0.2-0.3,0.1-0.2
			c-0.3,0.2-0.3,0.1,0.2-0.9c0.2-0.5,0.4-1.1,0.5-1.4c0.1-0.3,0.2-0.8,0.3-1c0.2-0.3,0.2-0.5,0-0.6c-0.1-0.1-0.1-0.2,0-0.1
			c0.2,0.1,0.3-0.2,0.4-0.8c0-0.1,0.1-0.3,0.2-0.3c0.1-0.1,0.1-0.2,0.1-0.3c-0.1-0.1,0-0.3,0.2-0.5c0.2-0.2,0.3-0.4,0.2-0.5
			c0-0.1,0-0.2,0.1-0.2s0.1-0.1,0.1-0.2c-0.1-0.1,0-0.2,0.1-0.2c0.1,0,0.2-0.2,0.2-0.4c0-0.2,0.1-0.4,0.2-0.3c0.1,0.1,0.1,0,0.1-0.2
			c-0.1-0.2,0-0.2,0.1-0.2c0.1,0.1,0.1,0,0.1-0.1c-0.1-0.1,0-0.2,0.1-0.2c0.1,0,0.1-0.1,0.1-0.1c0-0.1,0-0.3,0.2-0.4
			c0.1-0.2,0.2-0.2,0.1-0.1c-0.1,0.1-0.1,0.2,0.1,0.1c0.1-0.1,0.1-0.2,0-0.3c-0.2-0.2-0.1-0.2,0.1-0.1c0.2,0.1,0.3,0.1,0.2-0.2
			c-0.1-0.1,0-0.3,0.1-0.3c0.1,0,0.1-0.1,0.1-0.2c-0.1-0.1,0-0.2,0.1-0.2c0.1,0,0.3-0.1,0.4-0.3c0.1-0.2,0.1-0.3,0-0.2
			c-0.1,0.1-0.1,0-0.1-0.1c0-0.1,0.2-0.3,0.3-0.3c0.1-0.1,0.2-0.2,0.1-0.3c-0.1-0.1,0-0.2,0.1-0.1c0.1,0.1,0.2,0,0.2-0.1
			c0-0.1,0.1-0.2,0.2-0.2c0.1,0,0.1,0,0-0.1c-0.2-0.1-0.2-0.2,0-0.2c0.1-0.1,0.2-0.2,0.2-0.3c-0.1-0.1,0-0.1,0.1-0.1
			c0.2,0.1,0.2,0,0.3-0.3c0-0.3,0.1-0.4,0.3-0.4c0.1,0,0.2,0,0.1-0.1c-0.1-0.1,0-0.2,0.1-0.2c0.1,0,0.1-0.1,0.1-0.2
			c0-0.1,0.1-0.3,0.2-0.4c0.2-0.1,0.3-0.3,0.2-0.3c-0.1-0.1,0-0.1,0.1,0c0.1,0.1,0.3,0,0.4-0.1c0.1-0.1,0-0.2-0.1-0.1
			c-0.1,0.1,0-0.1,0.3-0.5c0.3-0.3,0.4-0.5,0.2-0.4c-0.3,0.2-0.3,0.2-0.1,0c0.1-0.1,0.3-0.3,0.4-0.3c0.2,0,0.6-0.6,0.4-0.7
			c-0.1,0,0,0,0.1,0c0.1,0,0.3-0.1,0.5-0.4c0.1-0.2,0.4-0.5,0.5-0.6c0.1-0.1,0.2-0.2,0.1-0.3c-0.1-0.1,0.1-0.2,0.4-0.4
			c0.3-0.1,0.5-0.3,0.5-0.5c0-0.2,0-0.3,0.1-0.2c0.1,0.1,0.6-0.2,0.8-0.5c0.1-0.3,0.1-0.3,0-0.2c-0.1,0.1-0.2,0.1-0.1-0.1
			c0.1-0.1,0.2-0.2,0.3-0.2s0.2-0.1,0.2-0.2c0-0.1,0.1-0.1,0.2-0.1c0.1,0.1,0.2,0,0.2-0.1c0-0.1,0.1-0.2,0.3-0.3
			c0.2-0.1,0.3-0.2,0.2-0.2c0-0.1,0.1-0.2,0.2-0.2c0.2,0,0.3-0.2,0.3-0.3c0-0.2,0.1-0.2,0.3-0.2c0.2,0,0.3,0,0.1-0.1
			c-0.2-0.1,0.1-0.5,0.4-0.5c0.4,0.1,0.5,0,0.4-0.3c-0.1-0.2,0-0.2,0.1-0.1c0.1,0.1,0.2,0,0.2-0.1c0-0.1,0.1-0.1,0.1-0.1
			c0.1,0,0.2-0.1,0.2-0.2c0.1-0.3,0.1-0.3,0.2-0.1c0.1,0.2,0.1,0.2,0.1-0.1c0-0.1,0.1-0.3,0.2-0.2c0.1,0,0.2,0,0.2-0.1
			c0-0.1,0.1-0.2,0.2-0.1c0.1,0,0.2,0,0.2-0.1c0-0.1,0.1-0.2,0.1-0.2c0.3,0,0.5,0,0.4-0.2c-0.1-0.1,0-0.2,0.1-0.2
			c0.1,0,0.4-0.1,0.5-0.3c0.2-0.2,0.5-0.3,0.6-0.4c0.2-0.1,0.4-0.2,0.6-0.4c0.2-0.2,0.3-0.3,0.4-0.3c0.1,0,0.4-0.2,0.7-0.4
			c0.3-0.2,0.6-0.3,0.8-0.3c0.1,0,0.3-0.1,0.5-0.2c0.2-0.2,0.3-0.3,0.4-0.2c0.1,0,0.1,0,0.1-0.1s0.1-0.2,0.2-0.2
			c0.1,0,0.2-0.1,0.2-0.1c0-0.1,0-0.1,0.2-0.1c0.5,0,1.4-0.3,1.8-0.6c0.2-0.2,0.5-0.3,0.7-0.3s0.3-0.1,0.3-0.2c0-0.1,0.1-0.1,0.3,0
			c0.2,0.2,0.2,0.2,0.1,0c-0.1-0.1,0-0.2,0.2-0.2c0.2,0,0.4,0,0.4-0.1c0.3-0.1,0.8-0.3,1-0.4c0.2-0.1,0.3-0.1,0.4-0.1
			c0.1,0.1,0.1,0,0.1-0.1c0-0.1,0.2-0.1,0.4-0.1c0.3,0.1,0.4,0,0.2-0.1c-0.3-0.2-0.3-0.2,0.5-0.2c1.1-0.1,1.3-0.2,1.5-0.4
			c0.2-0.2,0.2-0.2,0.2,0c0,0.1,0.1,0.1,0.3-0.1c0.2-0.2,0.4-0.2,0.7-0.2c0.2,0.1,0.5,0.1,0.7,0c0.4-0.2,1.5-0.3,2.9-0.3
			c0.7,0,1.1-0.1,0.9-0.1C306,33,310.7,33.1,312.2,33.2 M348.5,77c0,0.3,0,0.4,0.1,0.3c0-0.1,0-0.4,0-0.5
			C348.5,76.6,348.5,76.7,348.5,77 M307.8,118.1c0.4,0,1.2,0,1.6,0c0.4,0,0.1-0.1-0.8-0.1C307.7,118,307.3,118,307.8,118.1"/>
		<path id="path4" class="st4" d="M304.7,6.1c-0.2,0.1,0,0.1,0.6,0.1c0.5,0,1-0.1,1-0.1C306.4,5.9,305,6,304.7,6.1 M311.5,6.1
			c0.4,0.1,1.8,0.2,1.6,0.1c-0.1-0.1-0.6-0.1-1-0.1C311.7,6,311.4,6,311.5,6.1 M298.3,6.8c0,0.1,0.1,0.1,0.3,0.1
			c0.6-0.1,0.6-0.2,0.2-0.2C298.6,6.7,298.4,6.7,298.3,6.8 M291.8,8c-0.2,0.1-0.2,0.2,0.1,0.2c0.2,0,0.3-0.1,0.3-0.2
			C292.2,7.8,292.1,7.8,291.8,8 M282.5,11l-0.4,0.2l0.4-0.1c0.6-0.1,0.9-0.4,0.6-0.4C283,10.8,282.7,10.9,282.5,11 M334.9,11.1
			c0.1,0.2,0.2,0.3,0.3,0.2c0.1,0,0.3,0,0.6,0.2c0.3,0.1,0.5,0.2,0.5,0.2c0,0-0.3-0.3-0.8-0.5C334.8,10.8,334.7,10.8,334.9,11.1
			 M342.3,14.6c0.2,0.1,0.5,0.2,0.5,0.2c0.1,0,0-0.1-0.2-0.2c-0.2-0.1-0.5-0.2-0.5-0.2C342,14.3,342.1,14.4,342.3,14.6 M345.4,16.4
			c0,0.1,0.1,0.2,0.3,0.2c0.2,0,0.3,0,0.3,0c0,0-0.2-0.1-0.3-0.2C345.4,16.2,345.4,16.2,345.4,16.4 M347.5,17.7
			c0,0.2,0.6,0.5,0.7,0.5c0,0-0.1-0.2-0.3-0.3C347.7,17.7,347.5,17.6,347.5,17.7 M349.5,19.2c0,0.1,0.1,0.2,0.3,0.2
			c0.2,0,0.2,0,0.1-0.2c-0.1-0.1-0.2-0.2-0.3-0.2S349.5,19.1,349.5,19.2 M357.4,25.7c0,0.1,0.8,0.9,0.9,0.8c0,0-0.1-0.3-0.4-0.5
			C357.6,25.8,357.4,25.6,357.4,25.7 M258.4,27.3l-0.5,0.6L258.4,27.3c0.6-0.4,0.7-0.6,0.6-0.6C259,26.7,258.7,27,258.4,27.3
			 M359.9,28.2c0,0.3,0.3,0.6,0.4,0.4c0.1-0.1,0-0.2-0.1-0.3C360,28.1,359.9,28.1,359.9,28.2 M256.1,29.7c-0.1,0.1-0.2,0.3-0.2,0.3
			c0,0.1,0,0.1,0.1,0c0.1-0.1,0.3-0.2,0.4-0.3c0.2-0.1,0.2-0.2,0.1-0.2C256.4,29.5,256.2,29.6,256.1,29.7 M362.7,31.4
			c0,0.1,0.2,0.2,0.4,0.4l0.4,0.3l-0.4-0.4C362.7,31.3,362.7,31.2,362.7,31.4 M306.4,33.1c0.2,0,0.5,0,0.6,0c0.1,0,0-0.1-0.3-0.1
			S306.2,33.1,306.4,33.1 M307.9,33.1c0.4,0,1,0,1.3,0c0.4,0,0.1-0.1-0.7-0.1S307.6,33.1,307.9,33.1 M310.2,33.1
			c0,0,0.4,0.1,0.8,0.1c0.5,0.1,0.6,0,0.4,0C311,33.1,310,33,310.2,33.1 M304.8,33.3c0.1,0,0.4,0,0.5,0c0.1,0,0-0.1-0.3-0.1
			S304.6,33.2,304.8,33.3 M312,33.3c0.2,0,0.5,0,0.7,0c0.2,0,0-0.1-0.3-0.1C311.9,33.2,311.8,33.2,312,33.3 M364.4,33.4
			c0,0.2,0.4,0.8,0.5,0.7c0,0-0.1-0.3-0.2-0.5C364.5,33.4,364.4,33.3,364.4,33.4 M301.2,33.7c-0.1,0.2-0.1,0.2,0,0.2
			c0.1,0,0.2-0.1,0.2-0.2c0-0.1,0.2-0.1,0.4-0.1c0.3,0.1,0.4,0.1,0.2-0.1C301.6,33.4,301.4,33.4,301.2,33.7 M315.2,33.6
			c0,0.1,0.2,0.1,0.4,0.2c0.2,0,0.4,0,0.4,0c0-0.1-0.2-0.1-0.4-0.2C315.4,33.6,315.2,33.6,315.2,33.6 M298.4,34.3
			c-0.1,0.1,0,0.2,0.3,0.1c0.3,0,0.5-0.1,0.5-0.2C299.2,34.1,298.6,34.2,298.4,34.3 M318.3,34.3c-0.1,0.1,0.1,0.2,0.5,0.3
			c0.4,0.1,0.8,0.2,0.8,0.1c0.1-0.1,0-0.1-0.1-0.1c-0.1,0-0.4-0.1-0.6-0.2C318.7,34.2,318.4,34.2,318.3,34.3 M251.5,35.4l-0.3,0.4
			L251.5,35.4c0.3-0.1,0.4-0.3,0.4-0.3C251.8,35.1,251.7,35.2,251.5,35.4 M295.9,35.2c-0.2,0.1-0.5,0.1-0.5,0c0,0-0.1,0-0.1,0.1
			c0,0.2,0.7,0.1,1-0.2C296.5,35,296.5,35,295.9,35.2 M292.3,36.6c0,0.1,0,0.1-0.2,0.1c-0.1,0-0.2,0.1-0.2,0.2
			c0,0.1,0.2,0.1,0.5-0.1c0.5-0.3,0.6-0.3,0.2-0.3C292.4,36.5,292.3,36.5,292.3,36.6 M290.2,37.7c-0.3,0.2-0.6,0.4-0.7,0.4
			c-0.1,0-0.2,0.1-0.3,0.2c-0.1,0.2,0,0.1,0.3-0.1c0.3-0.2,0.7-0.4,1-0.5s0.4-0.2,0.4-0.3C290.8,37.3,290.8,37.3,290.2,37.7
			 M367.1,37.7c0,0,0.2,0.2,0.4,0.5c0.2,0.2,0.4,0.4,0.4,0.3c0-0.1-0.1-0.3-0.3-0.5C367.3,37.7,367.1,37.6,367.1,37.7 M369.6,41.4
			c0.1,0.1,0.1,0.3,0.2,0.4c0,0.3,0.2,0.4,0.3,0.2c0.1-0.1-0.1-0.3-0.2-0.5C369.6,41.3,369.5,41.2,369.6,41.4 M284.2,41.7
			c-0.3,0.3-0.3,0.3-0.1,0.3c0.1,0,0.3-0.1,0.4-0.3C284.7,41.3,284.6,41.3,284.2,41.7 M247.2,42.5c-0.2,0.4-0.2,0.4,0,0.3
			c0.2-0.2,0.4-0.8,0.3-0.8C247.5,42,247.4,42.2,247.2,42.5 M333.8,42.5c0.1,0.1,0.4,0.4,0.7,0.6c0.3,0.3,0.5,0.4,0.6,0.2
			c0.1-0.1,0.1-0.2,0-0.1c-0.1,0.1-0.4-0.1-0.7-0.4c-0.3-0.3-0.6-0.5-0.7-0.5C333.7,42.3,333.7,42.4,333.8,42.5 M282.2,43.5
			c0,0.1-0.1,0.2-0.3,0.2c-0.2,0.1-0.3,0.2-0.2,0.3c0.1,0.1,0.2,0.1,0.4-0.1c0.2-0.2,0.3-0.4,0.2-0.4
			C282.2,43.4,282.2,43.4,282.2,43.5 M336.1,44.6c0,0.1,0.3,0.5,0.8,0.9c0.4,0.4,0.8,0.7,0.8,0.6c0-0.1-0.1-0.2-0.2-0.3
			c-0.1,0-0.2-0.2-0.2-0.3c0-0.1-0.1-0.2-0.1-0.2s-0.3-0.2-0.5-0.4C336.3,44.6,336.1,44.5,336.1,44.6 M280.2,45.4
			c-0.2,0.1-0.3,0.2-0.2,0.3c0.1,0,0.3-0.1,0.4-0.2C280.8,45.2,280.7,45.2,280.2,45.4 M372.4,47.1c0,0.2,0.1,0.4,0.2,0.4
			c0.2,0.1,0.2,0,0-0.3C372.4,46.7,372.4,46.7,372.4,47.1 M276.8,49.4c-0.2,0.2-0.2,0.5,0,0.4c0.1,0,0.2-0.1,0.1-0.2
			c0-0.1,0.1-0.2,0.2-0.3c0.1-0.1,0.1-0.1,0-0.1C277.1,49.2,276.9,49.3,276.8,49.4 M276.3,50.2c-0.1,0.1-0.2,0.3-0.1,0.4
			c0,0.1,0.1,0,0.2-0.2C276.6,50,276.6,49.9,276.3,50.2 M243.2,51.3c-0.2,0.5-0.2,0.9-0.1,0.8c0.1-0.1,0.1-0.1,0.1-0.2
			c0-0.1,0.1-0.3,0.1-0.5c0.1-0.2,0.1-0.4,0.1-0.4C243.3,51,243.3,51.1,243.2,51.3 M342,52.1c0.2,0.3,0.4,0.6,0.5,0.6
			c0.1,0,0-0.2-0.2-0.5C341.8,51.4,341.5,51.4,342,52.1 M273.7,54.4c0,0.1-0.1,0.3-0.2,0.5c-0.3,0.5-0.1,0.4,0.2,0
			c0.2-0.2,0.2-0.4,0.1-0.5C273.8,54.4,273.7,54.4,273.7,54.4 M273.1,55.8c-0.1,0.2-0.2,0.5-0.2,0.6c0,0.2,0.2,0,0.2-0.2
			c0-0.1,0.1-0.3,0.1-0.5C273.5,55.3,273.3,55.4,273.1,55.8 M345.3,58.3c0,0.1,0,0.3,0.1,0.5c0.2,0.3,0.2,0.3,0.2,0.1
			c0-0.1-0.1-0.3-0.2-0.4c-0.1-0.1-0.1-0.2-0.1-0.2c0-0.1,0.1-0.1,0-0.1C345.4,58.2,345.3,58.2,345.3,58.3 M271.6,59.6
			c0,0.2-0.2,0.3-0.2,0.2c-0.1-0.1-0.1,0,0,0.1c0.1,0.1,0.2,0.1,0.2,0.1c0.1-0.1,0.3-0.7,0.2-0.7C271.7,59.3,271.6,59.4,271.6,59.6
			 M240.7,59.8c-0.1,0.1-0.2,0.4-0.2,0.6l0,0.4l0.1-0.4c0-0.2,0.1-0.5,0.2-0.6C241,59.5,240.9,59.5,240.7,59.8 M377.7,64.6
			c0,0.2,0.1,0.4,0.2,0.5c0.2,0.2,0.1-0.3-0.1-0.6C377.7,64.3,377.6,64.4,377.7,64.6 M378,66.5c0,0.3,0.3,0.6,0.3,0.2
			c0-0.2-0.1-0.3-0.2-0.3C378,66.4,378,66.4,378,66.5 M269.5,66.9c-0.1,0.3-0.1,0.6,0,0.6c0.1,0,0.1-0.1,0.1-0.3
			C269.7,66.9,269.6,66.7,269.5,66.9 M378.2,67.4c-0.1,0.2-0.1,0.3,0,0.4c0.1,0.1,0.3-0.1,0.2-0.4C378.3,67.1,378.3,67.1,378.2,67.4
			 M239,69.2c-0.1,0.2,0,0.4,0.1,0.5c0.1,0.1,0.2,0,0.1-0.3C239.2,68.8,239.2,68.7,239,69.2 M239,70.7c0,0.3,0,0.5,0.1,0.5
			c0,0,0.1-0.2,0.1-0.5c0-0.3,0-0.5-0.1-0.5C239,70.2,239,70.5,239,70.7 M238.8,73.6c0,0.3,0,0.5,0.1,0.3c0-0.2,0-0.5,0-0.6
			C238.9,73.1,238.8,73.2,238.8,73.6 M348.6,73.9c0,0.3,0,0.5,0.1,0.5c0.1,0,0.1-0.2,0.1-0.5s0-0.5-0.1-0.5
			C348.7,73.3,348.6,73.6,348.6,73.9 M238.9,75.6c0,0.8,0,1.1,0.1,0.7c0-0.4,0-1.1,0-1.5C238.9,74.5,238.9,74.8,238.9,75.6
			 M348.6,77.1c0,0.3,0,0.5,0.1,0.4c0.1-0.1,0.1-0.3,0.1-0.6C348.7,76.5,348.7,76.5,348.6,77.1 M238.8,77.7c0,0.3,0,0.5,0.1,0.3
			c0-0.2,0-0.5,0-0.6C238.9,77.2,238.8,77.4,238.8,77.7 M239,80.6c0,0.3,0.1,0.5,0.1,0.5c0.1,0,0.1-0.2,0.1-0.5s-0.1-0.5-0.1-0.5
			C239,80.1,239,80.3,239,80.6 M239,81.7c0,0.1,0,0.3,0.1,0.5c0.1,0.2,0.1,0.2,0.2-0.2C239.2,81.5,239.1,81.4,239,81.7 M348,83
			c0.1,0.1,0.1,0.2,0,0.2c-0.1,0-0.1,0.1-0.2,0.3c0,0.2,0,0.3,0.1,0.2C348.2,83.6,348.3,83.1,348,83C348,82.9,348,82.9,348,83
			 M378.1,83.6c0,0.3,0.3,0.6,0.3,0.2c0-0.2-0.1-0.3-0.2-0.3S378.1,83.6,378.1,83.6 M378.1,84.5c-0.1,0.2-0.1,0.3,0,0.4
			c0.1,0.1,0.3-0.1,0.2-0.4C378.2,84.2,378.2,84.2,378.1,84.5 M269.9,86.2c-0.1,0.1,0,0.2,0.1,0.2c0.1,0,0.2,0.1,0.1,0.2
			c0,0.1,0,0.2,0.1,0.3c0.1,0.2,0.1-0.3,0-0.6c0,0,0-0.1,0-0.2C270.2,85.9,270,86,269.9,86.2 M377.8,86.2c-0.1,0.4-0.1,0.8,0,0.7
			c0.1-0.1,0.1-0.3,0.1-0.5C377.9,86.2,377.8,86.1,377.8,86.2 M347.2,86.7c-0.1,0.3-0.1,0.5,0,0.5c0.1,0,0.1-0.2,0.1-0.4
			C347.3,86.4,347.3,86.4,347.2,86.7 M270.6,88.5c0.3,0.8,0.3,0.9,0.2,0.4c0-0.3-0.2-0.6-0.2-0.7C270.5,88.1,270.5,88.2,270.6,88.5
			 M272.9,94.7c0.1,0.1,0.1,0.2,0.1,0.3c0,0,0,0.1,0.1,0.2c0.2,0.1,0.2,0,0.1-0.3c-0.1-0.2-0.2-0.4-0.3-0.4
			C272.8,94.5,272.8,94.6,272.9,94.7 M344.1,95.1c-0.1,0.4-0.1,0.5,0.2,0.1c0.1-0.2,0.1-0.3,0.1-0.4C344.2,94.8,344.1,95,344.1,95.1
			 M343.4,96.5c-0.2,0.4-0.2,0.5,0,0.4c0.1,0,0.2-0.2,0.2-0.4C343.6,96.1,343.6,96.1,343.4,96.5 M342.8,97.7
			c-0.4,0.6-0.4,0.8-0.1,0.5c0.2-0.2,0.6-1,0.5-1C343.1,97.1,342.9,97.4,342.8,97.7 M242.9,99.3c0.1,0.2,0.2,0.3,0.2,0.6
			c0,0.1,0.1,0.1,0.2,0.1c0.1-0.1,0.1-0.1,0-0.2c-0.1-0.1-0.1-0.2-0.1-0.3c0-0.1-0.1-0.3-0.2-0.3C242.8,99.1,242.8,99.1,242.9,99.3
			 M340.5,101.3c-0.1,0.2-0.2,0.4-0.4,0.6c-0.3,0.3-0.4,0.5-0.1,0.5c0.1,0,0.1,0,0.1-0.1c-0.1-0.1,0.1-0.3,0.3-0.6
			c0.2-0.2,0.4-0.5,0.4-0.6C340.7,100.9,340.6,101,340.5,101.3 M277,101.6c0.2,0.2,0.3,0.3,0.2,0.3c-0.1,0,0,0.1,0.1,0.2
			c0.4,0.4,0.4,0.3,0.1-0.3c-0.2-0.3-0.4-0.5-0.6-0.5C276.7,101.3,276.7,101.4,277,101.6 M244.4,103c0.1,0.2,0.3,0.3,0.4,0.3
			c0.1,0,0.1,0,0-0.1c-0.1,0-0.2-0.2-0.2-0.3c0-0.1-0.1-0.2-0.2-0.2C244.2,102.7,244.2,102.8,244.4,103 M278.3,103.3
			c0.2,0.3,0.5,0.5,0.5,0.5c0.1,0-0.5-0.8-0.7-0.8C277.9,102.9,278,103,278.3,103.3 M279.8,105.3c0.1,0.2,0.3,0.3,0.5,0.3
			c0.1,0,0.3,0.1,0.3,0.3c0.1,0.1,0.2,0.2,0.2,0.1c0-0.1-0.2-0.4-0.4-0.6C279.9,104.9,279.4,104.8,279.8,105.3 M246.5,107.6
			c0,0.1,0.1,0.2,0.2,0.2c0.1,0,0.1,0.1,0.1,0.1c0,0.1,0,0.2,0.1,0.2c0.2,0.1,0.1-0.3-0.1-0.6C246.6,107.4,246.5,107.4,246.5,107.6
			 M369.8,109.4c0,0.2-0.1,0.4-0.2,0.5c-0.2,0.2-0.2,0.2,0,0.1c0.3-0.2,0.5-0.7,0.3-0.8C369.8,109.2,369.8,109.3,369.8,109.4
			 M284.5,109.4c0,0.3,0.4,0.7,0.7,0.8c0.1,0,0.2,0,0.2-0.1c0-0.1-0.2-0.1-0.3-0.1c-0.1,0-0.3-0.2-0.4-0.3
			C284.6,109.4,284.5,109.3,284.5,109.4 M330,111.6c-0.2,0.2-0.4,0.4-0.3,0.4c0.1,0,0.3-0.2,0.5-0.4
			C330.7,111.1,330.6,111.1,330,111.6 M367.6,113c-0.4,0.4-0.5,0.6-0.3,0.5c0.2-0.1,0.7-0.7,0.6-0.8
			C367.9,112.8,367.7,112.9,367.6,113 M249.8,113.2c0.1,0.2,0.2,0.3,0.2,0.3c0.1-0.1-0.1-0.6-0.3-0.6
			C249.7,112.9,249.7,113,249.8,113.2 M327.1,113.3c-0.3,0.2-0.4,0.3-0.3,0.3c0.2,0,1-0.6,0.8-0.6
			C327.6,113,327.3,113.2,327.1,113.3 M294.2,115.3c0,0.1,0.1,0.2,0.3,0.2c0.6,0.1,0.6,0,0.1-0.2
			C294.4,115.3,294.2,115.3,294.2,115.3 M251.6,115.8c0,0.2,0.5,0.8,0.7,0.8c0.1,0,0.1,0,0-0.1c-0.1-0.1-0.3-0.3-0.4-0.5
			C251.7,115.8,251.6,115.7,251.6,115.8 M364.5,117.5c-0.1,0.2-0.1,0.3-0.1,0.3c0.1,0,0.2-0.1,0.3-0.3c0.1-0.2,0.1-0.3,0.1-0.3
			C364.8,117.2,364.7,117.3,364.5,117.5 M305,118.1c0.1,0.1,5.8,0.1,6.7,0c0.5,0-0.9-0.1-3-0.1C306.6,118,304.9,118.1,305,118.1
			 M363,119.5c-0.2,0.2-0.3,0.3-0.3,0.4c0,0,0.2-0.1,0.4-0.3C363.6,119.1,363.5,119.1,363,119.5 M257.8,123.4c0,0.1,0.2,0.2,0.3,0.3
			c0.1,0,0.2,0,0.1-0.1c0-0.1-0.2-0.2-0.3-0.3C257.8,123.2,257.8,123.3,257.8,123.4 M259.7,125.4c0.3,0.3,0.6,0.6,0.7,0.5
			c0,0-0.1-0.2-0.3-0.4c-0.2-0.2-0.4-0.4-0.3-0.4c0,0-0.1-0.1-0.3-0.2C259.2,124.8,259.2,124.9,259.7,125.4 M357.6,125.3
			c-0.1,0.1-0.3,0.3-0.4,0.4c-0.2,0.2-0.1,0.2,0.2-0.1c0.4-0.3,0.5-0.5,0.4-0.5C357.8,125.2,357.7,125.3,357.6,125.3 M262.1,127.5
			c0,0.1,0.2,0.3,0.5,0.5c0.3,0.2,0.5,0.3,0.4,0.2c0-0.1-0.2-0.3-0.5-0.5C262.3,127.5,262.1,127.4,262.1,127.5 M265.7,130.3
			c0,0.1,0.2,0.3,0.3,0.4l0.3,0.2l-0.3-0.4c-0.2-0.2-0.3-0.4-0.3-0.4C265.7,130.1,265.7,130.2,265.7,130.3 M349.5,132.1
			c0,0.2,0,0.2,0.2,0.1c0.1-0.1,0.2-0.2,0.2-0.3c0,0-0.1-0.1-0.2-0.1C349.6,131.9,349.5,132,349.5,132.1 M268.6,132.4
			c0.1,0,0.1,0.1,0.1,0.2c0,0.1,0.1,0.2,0.3,0.3c0.3,0.2,0.3,0.2,0-0.1c-0.2-0.1-0.3-0.3-0.3-0.4
			C268.8,132.5,268.7,132.4,268.6,132.4C268.5,132.4,268.5,132.4,268.6,132.4 M347.8,133.3c-0.4,0.4-0.3,0.5,0.1,0.1
			c0.2-0.2,0.4-0.3,0.4-0.3c0,0,0,0-0.1,0C348.1,133.1,347.9,133.2,347.8,133.3 M345.4,134.9c0,0.2,0,0.2,0.3,0
			c0.1-0.1,0.3-0.2,0.3-0.2c0,0-0.1,0-0.3,0C345.5,134.7,345.4,134.8,345.4,134.9 M342.3,136.7c-0.2,0.1-0.3,0.2-0.2,0.2
			c0.1,0,0.3-0.1,0.5-0.2c0.2-0.1,0.3-0.2,0.2-0.2C342.7,136.5,342.5,136.6,342.3,136.7 M276.6,137.5c0,0.1,0.8,0.5,0.8,0.4
			c0-0.1-0.1-0.2-0.4-0.3S276.6,137.5,276.6,137.5 M279.6,138.9c0,0,0.2,0.2,0.5,0.3c0.4,0.2,0.4,0.2,0.4,0
			c-0.1-0.1-0.1-0.2-0.2-0.2c0,0-0.2,0-0.4-0.1C279.7,138.9,279.6,138.8,279.6,138.9 M334.9,140.2c-0.1,0.2-0.1,0.3,0.1,0.2
			c0.1-0.1,0.2-0.2,0.2-0.3C335.2,139.8,335.1,139.8,334.9,140.2 M317.9,144.7c0,0.2,0.1,0.2,0.5,0c0.3-0.1,0.3-0.1-0.1-0.1
			C318.1,144.5,317.9,144.6,317.9,144.7 M304.7,145.2c0.4,0.2,1,0.2,1,0c0-0.1-0.3-0.1-0.7-0.1C304.5,145,304.4,145.1,304.7,145.2
			 M312.5,145.1c-0.4,0.1-0.4,0.1-0.1,0.1c0.2,0,0.5-0.1,0.6-0.1C313.3,145,313.2,145,312.5,145.1 M8.5,5.5"/>
	</g>
</g>
</svg>
