<?xml version="1.0" encoding="UTF-8" standalone="no"?>
<!-- Generator: Adobe Illustrator 27.8.0, SVG Export Plug-In . SVG Version: 6.00 Build 0)  -->

<svg
   version="1.1"
   id="affiliation"
   x="0px"
   y="0px"
   viewBox="0 0 256 256"
   style="enable-background:new 0 0 256 256;"
   xml:space="preserve"
   sodipodi:docname="23885.svg"
   inkscape:version="1.4 (86a8ad7, 2024-10-11)"
   xmlns:inkscape="http://www.inkscape.org/namespaces/inkscape"
   xmlns:sodipodi="http://sodipodi.sourceforge.net/DTD/sodipodi-0.dtd"
   xmlns="http://www.w3.org/2000/svg"
   xmlns:svg="http://www.w3.org/2000/svg"><defs
   id="defs1" /><sodipodi:namedview
   id="namedview1"
   pagecolor="#ffffff"
   bordercolor="#000000"
   borderopacity="0.25"
   inkscape:showpageshadow="2"
   inkscape:pageopacity="0.0"
   inkscape:pagecheckerboard="0"
   inkscape:deskcolor="#d1d1d1"
   inkscape:zoom="1.5761719"
   inkscape:cx="155.75713"
   inkscape:cy="133.55142"
   inkscape:window-width="1920"
   inkscape:window-height="1009"
   inkscape:window-x="1912"
   inkscape:window-y="-8"
   inkscape:window-maximized="1"
   inkscape:current-layer="affiliation" />
<style
   type="text/css"
   id="style1">
	.st0{fill:#FFFFFF;}
	.st1{fill-rule:evenodd;clip-rule:evenodd;fill:#048CE4;}
	.st2{fill-rule:evenodd;clip-rule:evenodd;fill:#515151;}
	.st3{fill-rule:evenodd;clip-rule:evenodd;fill:#E44434;}
	.st4{fill-rule:evenodd;clip-rule:evenodd;fill:#DC4434;}
</style>
<rect
   id="black"
   y="0"
   width="256"
   height="256" />
<circle
   id="background"
   class="st0"
   cx="128"
   cy="128"
   r="128" />
<g
   id="logo">

</g>
<path
   style="fill:#231f20;fill-opacity:1;fill-rule:nonzero;stroke:none;stroke-width:0.11168"
   d="m 147.12936,36.411403 c -8.59263,0 -15.55771,6.966716 -15.55771,15.559341 l 0.002,22.044171 h 57.32957 c 8.59262,0 15.55769,-6.966715 15.55769,-15.55934 l -0.002,-19.770228 c 0.0446,-0.859932 0.54269,-1.59857 1.25967,-1.982748 l 0.01,-0.0065 c 0.048,-0.02569 0.0801,-0.07444 0.0801,-0.132511 0,-0.08376 -0.0683,-0.152142 -0.15214,-0.152142 z M 131.57328,85.324107 V 242.55509 l 5.46564,0.003 c 37.2362,0 67.42164,-30.18543 67.42164,-67.42163 V 100.8831 c 0,-8.592624 -6.96508,-15.559342 -15.55771,-15.559342 z M 47.378449,118.93268 v 56.20404 c 0,37.2362 30.184907,67.42163 67.420001,67.42163 l 5.46728,-0.003 V 134.49039 c 0,-8.59264 -6.96672,-15.55771 -15.55934,-15.55771 z"
   id="path14"
   inkscape:connector-curvature="0" /></svg>
