<?xml version="1.0" encoding="utf-8"?>
<!-- Generator: Adobe Illustrator 26.3.1, SVG Export Plug-In . SVG Version: 6.00 Build 0)  -->
<svg version="1.1" id="affiliation" xmlns="http://www.w3.org/2000/svg" xmlns:xlink="http://www.w3.org/1999/xlink" x="0px"
	 y="0px" viewBox="0 0 256 256" style="enable-background:new 0 0 256 256;" xml:space="preserve">
<style type="text/css">
	.st0{fill:#FFFFFF;}
	.st1{display:none;fill:#FFFFFF;}
</style>
<rect id="black" width="256" height="256"/>
<circle
   id="background"
   class="st0"
   cx="128"
   cy="128"
   r="128" />
<g id="logo">
	<path d="M47.42,112.31c0,7.98-3.31,10.52-9.51,10.52c-7.11,0-9.47-3.54-9.47-10.9V91.87h4.68v19.7c0,2.69-0.18,7.74,4.83,7.74
		c4.13,0,4.87-3,4.87-7.54V91.87h4.6V112.31z"/>
	<path d="M173.54,162.17l-9.15-26.29v26.29h-3.92v-30.42h6.86l9.16,26.28v-26.28h4.21v30.42H173.54z"/>
	<path d="M66.63,122.28L57.47,96v26.28h-3.93V91.87h6.86l9.15,26.28V91.87h4.21v30.42H66.63z"/>
	<path d="M80.87,122.28V91.87h4.71v30.42H80.87z"/>
	<path d="M181.14,122.28V91.87h4.71v30.42H181.14z"/>
	<path d="M102.63,122.28h-5.54L89.4,91.87h4.91l5.77,26.12l5.98-26.12h4.6L102.63,122.28z"/>
	<path d="M114.37,122.28V91.87h15.06v3.64h-10.39v9.27h9.72v3.51h-9.72v10.36h10.68v3.64H114.37z"/>
	<path d="M139.65,162.17v-30.42h15.07v3.63h-10.39v9.28h9.72v3.51h-9.72v10.36H155v3.64H139.65z"/>
	<path d="M207.04,162.17v-30.42h15.06v3.63h-10.38v9.28h9.71v3.51h-9.71v10.36h10.68v3.64H207.04z"/>
	<path d="M147.77,122.28c-0.43-2.92-0.43-7.4-0.46-7.96c-0.11-2.28-0.4-3.74-0.88-4.39c-0.56-0.81-1.85-1.22-3.87-1.22h-2.82v13.57
		h-4.72V91.87h8.75c5.04,0,8.71,1.21,8.71,7.7c0,4.1-1.66,6.55-4.97,7.37c1.71,0.14,2.88,0.73,3.53,1.77
		c0.51,0.79,0.97,2.6,0.97,4.87c0,0.87,0.19,6.81,0.63,8.72H147.77z M147.71,99.93c0-3.52-1.86-4.51-4.8-4.51h-3.16v9.74h2.46
		C146.23,105.16,147.71,104.09,147.71,99.93z"/>
	<path d="M175.36,114.63c0,5.46-2.99,8.2-8.96,8.2c-6.69,0-9.01-2.69-9.01-9.07v-0.33h4.83v0.33c0,3.61,0.93,5.6,4.17,5.6
		c2.78,0,4.18-1.45,4.18-4.35c0-2.59-1.57-3.81-2.91-4.67c-0.64-0.42-1.49-0.96-2.57-1.61c-4.49-2.76-7.28-4.6-7.28-9.53
		c0-5.04,3.11-7.9,8.91-7.9c5.55,0,8.33,2.53,8.33,7.6v1.09h-4.72v-0.76c0-2.95-1.27-4.42-3.82-4.42c-2.31,0-3.91,1.33-3.91,4.04
		c0,3.02,2.14,4,4.16,5.31c0.7,0.44,1.42,0.91,2.15,1.38C173.69,108.58,175.36,109.97,175.36,114.63z"/>
	<path d="M201.49,95.5v26.78h-4.71V95.5h-7.02v-3.64h18.75v3.64H201.49z"/>
	<path d="M92.35,135.38v26.79h-4.72v-26.79h-7.02v-3.63h18.76v3.63H92.35z"/>
	<path d="M196.17,135.38v26.79h-4.72v-26.79h-7.02v-3.63h18.75v3.63H196.17z"/>
	<path d="M129.12,162.17h-5.5l-4.75-25.52l-5.26,25.52h-5.5l-6.47-30.42h4.98l4.5,25.44l5.22-25.44h5.5l4.79,25.44l4.84-25.44h4.41
		L129.12,162.17z"/>
	<g>
		<path d="M222.14,110.68v11.61h-4.71v-11.61l-7.99-18.81h5.22l5.47,14.52l5.6-14.52h4.84L222.14,110.68z"/>
		<path d="M47.92,147.23c0,5.5-0.48,9.22-1.43,11.15c-1.37,2.89-4.19,4.33-8.46,4.33c-4.07,0-6.79-1.39-8.16-4.16
			c-0.56-1.17-0.95-2.7-1.17-4.58c-0.17-1.43-0.25-3.67-0.25-6.69c0-3.67,0.12-6.34,0.38-8c0.34-2.27,1.05-4.07,2.14-5.38
			c1.57-1.82,3.97-2.74,7.2-2.74c3.28,0,5.68,0.83,7.19,2.48c1.12,1.21,1.85,3.01,2.19,5.39C47.8,140.68,47.92,143.42,47.92,147.23z
			 M43.04,146.68c0-3.67-0.12-6.21-0.38-7.62c-0.56-2.92-2.06-4.37-4.5-4.37c-2.41,0-3.94,1.54-4.59,4.63
			c-0.11,0.56-0.2,1.46-0.25,2.7c-0.06,1.23-0.08,2.83-0.08,4.79c0,1.82,0.02,3.35,0.06,4.58c0.04,1.24,0.12,2.19,0.23,2.87
			c0.25,1.65,0.7,2.87,1.35,3.66c0.7,0.87,1.79,1.31,3.28,1.31c2.5,0,4.01-1.57,4.54-4.72c0.11-0.64,0.2-1.61,0.25-2.9
			C43.02,150.32,43.04,148.67,43.04,146.68z"/>
		<path d="M58.55,135.37v9.35h9.01v3.53h-9.01v13.92h-4.67v-30.42h14.18v3.62H58.55z"/>
	</g>
</g>
</svg>
