<?xml version="1.0" encoding="UTF-8" standalone="no"?>
<!-- Generator: Adobe Illustrator 26.3.1, SVG Export Plug-In . SVG Version: 6.00 Build 0)  -->

<svg
   version="1.1"
   id="affiliation"
   x="0px"
   y="0px"
   viewBox="0 0 256 256"
   style="enable-background:new 0 0 256 256;"
   xml:space="preserve"
   sodipodi:docname="26092.svg"
   inkscape:version="1.4 (86a8ad7, 2024-10-11)"
   xmlns:inkscape="http://www.inkscape.org/namespaces/inkscape"
   xmlns:sodipodi="http://sodipodi.sourceforge.net/DTD/sodipodi-0.dtd"
   xmlns:xlink="http://www.w3.org/1999/xlink"
   xmlns="http://www.w3.org/2000/svg"
   xmlns:svg="http://www.w3.org/2000/svg"><defs
   id="defs1"><linearGradient
     id="SVGID_3_"
     gradientUnits="userSpaceOnUse"
     x1="-112.6059"
     y1="785.76038"
     x2="-109.3492"
     y2="785.76038"
     gradientTransform="matrix(3.7536,0,0,-3.7536,398.4552,3269.6997)">
		<stop
   offset="0"
   style="stop-color:#FFFFFF"
   id="stop56" />
		<stop
   offset="0.4831"
   style="stop-color:#FFFFFF"
   id="stop57" />
		<stop
   offset="0.6536"
   style="stop-color:#FBFBFB"
   id="stop58" />
		<stop
   offset="0.8298"
   style="stop-color:#EEEFEF"
   id="stop59" />
		<stop
   offset="1"
   style="stop-color:#DBDCDC"
   id="stop60" />
	</linearGradient><clipPath
     id="SVGID_2_">
		<use
   xlink:href="#SVGID_1_"
   style="overflow:visible"
   id="use56" />
	</clipPath><linearGradient
     id="SVGID_6_"
     gradientUnits="userSpaceOnUse"
     x1="-108.6785"
     y1="795.3819"
     x2="-105.4213"
     y2="795.3819"
     gradientTransform="matrix(3.3753,0,0,-3.3753,356.0506,3004.8452)">
		<stop
   offset="0"
   style="stop-color:#FFFFFF"
   id="stop64" />
		<stop
   offset="0.4831"
   style="stop-color:#FFFFFF"
   id="stop65" />
		<stop
   offset="0.6536"
   style="stop-color:#FBFBFB"
   id="stop66" />
		<stop
   offset="0.8298"
   style="stop-color:#EEEFEF"
   id="stop67" />
		<stop
   offset="1"
   style="stop-color:#DBDCDC"
   id="stop68" />
	</linearGradient><clipPath
     id="SVGID_5_">
		<use
   xlink:href="#SVGID_4_"
   style="overflow:visible"
   id="use64" />
	</clipPath><path
     id="SVGID_1_"
     d="m -21,308.3 -0.9,0.3 c -0.9,0.3 -1.7,0.4 -2.3,0.4 v 24 c 0.5,0.1 1.1,0.1 1.9,-0.1 0.8,-0.2 1.7,-0.5 2.7,-0.9 1.5,-0.5 3,-1.1 4.2,-1.2 0.8,-0.1 2.8,0.6 3.4,0.7 v -21.3 c -0.8,-0.7 -3.5,-2.8 -5,-2.8 -1.3,0.1 -2.6,0.4 -4,0.9" /><path
     id="SVGID_4_"
     d="m -7.3,307.5 c -1.2,0.3 -2.6,1.4 -3.4,2.1 v 21.3 c 0.6,-0.1 1.3,-0.2 2.2,-0.1 1.3,0.1 2.8,0.7 4.2,1.2 1,0.4 1.9,0.7 2.7,0.9 0.8,0.2 1.5,0.2 1.9,0.1 v -23.9 c -0.7,0 -1.5,-0.1 -2.3,-0.4 l -0.9,-0.3 c -1.2,-0.4 -2.4,-1 -3.6,-1 -0.3,0 -0.6,0 -0.8,0.1" /></defs><sodipodi:namedview
   id="namedview1"
   pagecolor="#ffffff"
   bordercolor="#000000"
   borderopacity="0.25"
   inkscape:showpageshadow="2"
   inkscape:pageopacity="0.0"
   inkscape:pagecheckerboard="0"
   inkscape:deskcolor="#d1d1d1"
   inkscape:zoom="3.1523438"
   inkscape:cx="128"
   inkscape:cy="128"
   inkscape:window-width="1920"
   inkscape:window-height="1009"
   inkscape:window-x="1912"
   inkscape:window-y="-8"
   inkscape:window-maximized="1"
   inkscape:current-layer="affiliation" />
<style
   type="text/css"
   id="style1">
	.st0{fill:#FFFFFF;}
	.st1{display:none;fill:#FFFFFF;}
	.st2{fill:#143A84;}
</style>
<rect
   id="black"
   width="256"
   height="256" />
<circle
   id="background"
   class="st0"
   cx="128"
   cy="128"
   r="128" />
<g
   id="logo">

</g>
<rect
   x="137.92555"
   y="39.027065"
   class="st4"
   width="3.5662329"
   height="4.9531012"
   id="rect4"
   style="fill:#dbdcdc;stroke-width:1.98124" /><path
   class="st3"
   d="m 203.90086,140.46658 c 0,0.99063 0,1.98124 -0.19812,3.16998 h 4.9531 c 0,-1.18874 0.19812,-2.17935 0.19812,-3.16998 v -0.39625 h -4.9531 z"
   id="path5"
   style="fill:#9e9e9f;stroke-width:1.98124" /><path
   class="st5"
   d="M 137.92555,43.782045 H 118.11314 Z"
   id="path6"
   style="fill:#ffffff;stroke-width:1.98124" /><rect
   x="203.90088"
   y="120.45608"
   class="st6"
   width="4.9531012"
   height="19.614281"
   id="rect9"
   style="fill:#c8c9ca;stroke-width:1.98124" /><path
   class="st6"
   d="m 203.90086,140.07033 h -9.9062 c -3.76435,0 -8.51933,3.56623 -11.68931,6.33998 -3.17,-2.97187 -7.92498,-6.33998 -11.68934,-6.33998 h -6.53809 -26.15237 v 40.41731 c 0,3.76436 3.56622,8.51933 6.33997,11.68932 -2.97187,3.16999 -6.33997,7.92497 -6.33997,11.68931 v 29.32237 c 1.18874,-0.79249 2.37749,-1.585 3.56622,-2.37749 v -20.20866 -6.33997 c 0,-4.16059 7.92498,-11.68931 7.92498,-11.68931 0,0 -7.92498,-7.72683 -7.92498,-11.68932 v -6.33997 -30.5111 h 22.58615 6.33997 c 4.16062,0 11.68931,7.92496 11.68931,7.92496 0,0 7.52872,-7.92496 11.68933,-7.92496 h 6.33998 3.3681 c 0,-1.18875 0.19813,-2.17937 0.19813,-3.17 v -0.79249 z"
   id="path13"
   style="fill:#c8c9ca;stroke-width:1.98124" /><path
   class="st5"
   d="m 137.92555,204.0644 c 0,-3.76435 3.56622,-8.51933 6.33997,-11.68931 -2.97187,-3.17 -6.33997,-7.92497 -6.33997,-11.68933 v -40.61543 h 26.15237 6.33997 c 3.76436,0 8.51933,3.56623 11.68931,6.33998 3.17,-2.97187 7.92498,-6.33998 11.68933,-6.33998 h 9.90621 v -19.61428 h -9.90621 c -3.76435,0 -8.71746,-3.56622 -11.68933,-6.53809 -3.16998,2.77374 -7.92495,6.33997 -11.68931,6.53809 H 137.92555 V 87.963703 c 0,-3.764351 3.56622,-8.51933 6.33997,-11.689314 -2.97187,-3.169985 -6.33997,-7.924963 -6.33997,-11.68932 v -20.6049 h -19.81241 v 20.6049 c 0,3.764357 -3.56622,8.519335 -6.33996,11.68932 2.97186,3.169984 6.33996,7.924963 6.33996,11.689314 V 120.45605 H 85.422675 c -3.764356,0 -8.519334,-3.56622 -11.689318,-6.33996 -3.169986,2.97186 -7.924963,6.33996 -11.689319,6.33996 h -9.906204 v 19.61428 c 4.358731,0 9.906204,0 9.906204,0 3.764356,0 8.519333,3.56623 11.689319,6.33998 3.169984,-2.97187 7.924962,-6.33998 11.689318,-6.33998 h 6.339974 c 0,0 0,0 0,0 0.396246,0 0.594369,0 0.990615,0 h 25.359876 v 40.41731 c 0,3.76436 -3.56622,8.51933 -6.33996,11.68932 2.97186,3.16999 6.33996,7.92497 6.33996,11.68931 v 29.32237 c 0,0 0,0 0,0 0.79249,0.59437 1.585,0.99062 2.37749,1.58499 0,0 0,0 0.19813,0 0.79249,0.39626 1.585,0.99062 2.37748,1.38687 0.19813,0.19812 0.39625,0.19812 0.59437,0.39624 0.59439,0.39626 1.18875,0.79251 1.98125,1.18875 0.79249,0.59437 1.78312,0.99062 2.57561,1.58499 0.79249,-0.59437 1.78311,-0.99062 2.57561,-1.58499 0.79249,-0.39624 1.38688,-0.79249 2.17937,-1.38687 0.19812,0 0.19812,-0.19812 0.39624,-0.19812 1.585,-0.99061 3.16998,-1.98124 4.75498,-2.97186 V 204.0644 Z"
   id="path14"
   style="fill:#ffffff;stroke-width:1.98124" /><path
   class="st6"
   d="m 141.49177,43.782045 h -3.56622 z"
   id="path15"
   style="fill:#c8c9ca;stroke-width:1.98124" /><rect
   x="203.90088"
   y="116.69171"
   class="st3"
   width="4.9531012"
   height="3.5662329"
   id="rect15"
   style="fill:#9e9e9f;stroke-width:1.98124" /><path
   class="st6"
   d="m 137.92555,64.386945 c 0,3.764357 3.56622,8.519334 6.33997,11.68932 -2.97187,3.169984 -6.33997,7.924964 -6.33997,11.689315 v 32.49235 h 32.69046 c 3.76436,0 8.51934,-3.56623 11.68934,-6.53809 3.16998,2.77373 7.92496,6.33997 11.68931,6.53809 h 9.9062 v -3.56623 h -9.9062 c -4.16061,0 -11.68931,-7.92496 -11.68931,-7.92496 0,0 -7.52872,7.92496 -11.68934,7.92496 H 141.49177 V 94.303679 87.963703 c 0,-4.160597 7.92498,-11.689314 7.92498,-11.689314 0,0 -7.92498,-7.528713 -7.92498,-11.68932 V 58.2451 43.980169 h -3.56622 z"
   id="path16"
   style="fill:#c8c9ca;stroke-width:1.98124" /><polygon
   class="st7"
   points="-18.8,277 -52.8,277 -50.3,279.4 -18.8,279.4 "
   id="polygon16"
   style="fill:#e95532"
   transform="matrix(1.9812405,0,0,1.9812405,151.79423,-509.77655)" /><path
   class="st8"
   d="m 47.184734,143.83469 v 0 c 0,-1.18875 0,-2.17936 0,-3.16999 z"
   id="path17"
   style="fill:#e50012;stroke-width:1.98124" /><path
   class="st9"
   d="m 47.184734,143.83469 v 0 c 0,-1.18875 0,-2.17936 0,-3.16999 z"
   id="path18"
   style="fill:none;stroke:#231815;stroke-width:0.974176" /><path
   class="st8"
   d="m 208.85396,143.83469 v -3.16999 c 0,0.99063 0,1.98124 0,3.16999 z"
   id="path19"
   style="fill:#e50012;stroke-width:1.98124" /><path
   class="st9"
   d="m 208.85396,143.83469 v -3.16999 c 0,0.99063 0,1.98124 0,3.16999 z"
   id="path20"
   style="fill:none;stroke:#231815;stroke-width:0.974176" /><rect
   x="208.85397"
   y="120.45608"
   class="st8"
   width="0.19812407"
   height="19.614281"
   id="rect20"
   style="fill:#e50012;stroke-width:1.98124" /><rect
   x="208.85397"
   y="120.45608"
   class="st9"
   width="0.19812407"
   height="19.614281"
   id="rect21"
   style="fill:none;stroke:#231815;stroke-width:0.974176" /><polygon
   class="st10"
   points="28.8,316.2 28.8,277 26.3,279.4 26.3,316.2 "
   id="polygon23"
   style="fill:#b50005"
   transform="matrix(1.9812405,0,0,1.9812405,151.79423,-509.77655)" /><path
   class="st10"
   d="m 141.49177,230.81115 v 5.94371 c 49.3329,-32.49234 65.77719,-70.53216 67.16407,-92.92017 h -4.9531 c -1.38688,19.61428 -16.04805,55.47473 -62.21097,86.97646"
   id="path23"
   style="fill:#b50005;stroke-width:1.98124" /><path
   class="st7"
   d="m 52.335959,143.83469 h -4.953102 c 1.386869,22.38801 17.831166,60.42783 67.164063,92.92017 v -5.94371 C 68.384007,199.30942 53.722828,163.44897 52.335959,143.83469"
   id="path24"
   style="fill:#e95532;stroke-width:1.98124" /><polygon
   class="st7"
   points="-50.3,316.2 -50.3,279.4 -52.8,277 -52.8,316.2 "
   id="polygon24"
   style="fill:#e95532"
   transform="matrix(1.9812405,0,0,1.9812405,151.79423,-509.77655)" /><path
   class="st4"
   d="m 52.137834,140.46658 v -0.39625 h -4.9531 v 0.39625 c 0,0.99063 0,2.17936 0.198123,3.16998 h 4.953102 c -0.198125,-0.99062 -0.198125,-1.98123 -0.198125,-3.16998"
   id="path25"
   style="fill:#dbdcdc;stroke-width:1.98124" /><rect
   x="47.184734"
   y="120.45608"
   class="st5"
   width="4.9531012"
   height="19.614281"
   id="rect29"
   style="fill:#ffffff;stroke-width:1.98124" /><path
   class="st8"
   d="m 200.33463,143.83469 h -6.33997 c -4.16061,0 -11.68931,7.92497 -11.68931,7.92497 0,0 -7.52872,-7.92497 -11.68934,-7.92497 h -6.53809 -22.58615 v 30.51111 6.33996 c 0,4.16062 7.92498,11.68933 7.92498,11.68933 0,0 -7.92498,7.52871 -7.92498,11.68931 v 6.33997 20.20866 c 46.16292,-31.30361 60.82409,-67.36219 62.21097,-86.97647 h -3.36811 z"
   id="path30"
   style="fill:#e50012;stroke-width:1.98124" /><path
   class="st8"
   d="m 141.49177,64.386945 c 0,4.160605 7.92498,11.68932 7.92498,11.68932 0,0 -7.92498,7.528718 -7.92498,11.689315 v 6.339976 22.388014 h 29.12424 c 4.16062,0 11.68934,-7.92495 11.68934,-7.92495 0,0 7.5287,7.72683 11.68931,7.92495 h 9.9062 V 43.58392 h -62.40909 v 14.264932 z"
   id="path31"
   style="fill:#e50012;stroke-width:1.98124" /><path
   class="st8"
   d="m 73.733357,108.96486 c 0,0 7.528713,7.92497 11.689318,7.92497 H 114.34879 V 94.501802 88.161826 c 0,-4.160597 -7.92496,-11.689314 -7.92496,-11.689314 0,0 7.92496,-7.528713 7.92496,-11.689318 V 58.443224 44.178292 H 51.93971 v 72.909658 h 9.906204 c 4.358729,-0.39625 11.887443,-8.12309 11.887443,-8.12309"
   id="path32"
   style="fill:#e50012;stroke-width:1.98124" /><path
   class="st8"
   d="m 114.54692,204.0644 c 0,-4.1606 -7.92497,-11.68931 -7.92497,-11.68931 0,0 7.92497,-7.72684 7.92497,-11.68933 V 174.3458 143.83469 H 91.960772 85.620799 c -4.160605,0 -11.689318,7.92497 -11.689318,7.92497 0,0 -7.528714,-7.92497 -11.68932,-7.92497 h -6.33997 -3.368108 c 1.386868,19.61428 16.048047,55.67287 62.210957,86.97646 v -20.20866 -6.53809 z"
   id="path33"
   style="fill:#e50012;stroke-width:1.98124" /><path
   class="st6"
   d="m 111.77318,192.37509 c 2.97186,-3.17 6.33996,-7.92497 6.33996,-11.68933 V 140.07033 H 92.753264 c -0.396246,0 -0.792492,0 -0.990615,0 0,0 0,0 0,0 h -6.339974 c -3.764356,0 -8.519334,3.56623 -11.689318,6.33998 -3.169986,-2.97187 -7.924963,-6.33998 -11.689319,-6.33998 0,0 -5.547473,0 -9.906204,0 v 0.39625 c 0,0.99063 0,1.98124 0.198125,3.16998 h 3.368108 6.339971 c 4.160605,0 11.689319,7.92497 11.689319,7.92497 0,0 7.726837,-7.92497 11.689318,-7.92497 h 6.339974 22.586141 v 30.51112 6.33996 c 0,4.16061 -7.92496,11.68932 -7.92496,11.68932 0,0 7.92496,7.52872 7.92496,11.68931 v 6.33998 20.20866 c 1.18874,0.79249 2.37749,1.58497 3.56623,2.37748 v -29.12424 c 0.19812,-3.3681 -3.3681,-8.12308 -6.14184,-11.29306"
   id="path34"
   style="fill:#c8c9ca;stroke-width:1.98124" /><rect
   x="47.184734"
   y="116.69171"
   class="st4"
   width="4.9531012"
   height="3.5662329"
   id="rect34"
   style="fill:#dbdcdc;stroke-width:1.98124" /><path
   class="st6"
   d="m 114.54692,58.046976 v 6.339969 c 0,4.160605 -7.92497,11.68932 -7.92497,11.68932 0,0 7.92497,7.528718 7.92497,11.689315 v 6.339976 22.388014 H 85.620799 c -4.160605,0 -11.689318,-7.92495 -11.689318,-7.92495 0,0 -7.528714,7.92495 -11.68932,7.92495 h -9.906202 v 3.56624 h 9.906202 c 3.764357,0 8.519335,-3.56624 11.68932,-6.33997 3.169984,2.97186 7.924962,6.33997 11.689318,6.33997 H 118.11314 V 87.567457 c 0,-3.764351 -3.56622,-8.519332 -6.33996,-11.689317 2.97186,-3.169985 6.33996,-7.924961 6.33996,-11.689318 V 43.58392 h -3.56622 z"
   id="path35"
   style="fill:#c8c9ca;stroke-width:1.98124" /><rect
   x="114.54691"
   y="39.027065"
   class="st4"
   width="3.5662329"
   height="4.9531012"
   id="rect35"
   style="fill:#dbdcdc;stroke-width:1.98124" /><path
   class="st6"
   d="m 131.38745,166.02458 c 2.57562,0 4.55686,-2.17937 4.55686,-3.96248 h 1.98124 v -21.99177 h 26.15237 0.59438 v -19.61428 h -26.74675 v -19.21803 c -3.36811,1.58499 -6.5381,4.75498 -6.5381,4.75498 0,0 -4.55685,-4.55685 -8.71745,-5.54748 -1.585,-0.39625 -2.97186,-0.19812 -4.55686,0 v 20.01053 H 97.904489 v 19.61428 h 20.208651 v 21.99177 h 8.51934 c 0.19812,1.78311 2.17936,3.96248 4.75497,3.96248"
   id="path36"
   style="fill:#c8c9ca;stroke-width:1.98124" /><path
   class="st10"
   d="m 118.11314,100.44552 c -2.57561,0.59438 -5.15122,1.585 -7.33059,2.37749 -3.36811,1.18875 -6.14184,0.39624 -6.14184,0.39624 l -6.736221,4.55686 v 12.67994 h 20.208651 z"
   id="path37"
   style="fill:#b50005;stroke-width:1.98124" /><polygon
   class="st3"
   points="-18.8,339.1 -17,339.1 -17,328 -27.2,328 -27.2,329.9 -18.8,329.9 "
   id="polygon37"
   style="fill:#9e9e9f"
   transform="matrix(1.9812405,0,0,1.9812405,151.79423,-509.77655)" /><polygon
   class="st10"
   points="6.6,329.9 6.2,329.9 -5.2,329.9 -5.2,339.1 6.6,339.1 "
   id="polygon38"
   style="fill:#b50005"
   transform="matrix(1.9812405,0,0,1.9812405,151.79423,-509.77655)" /><path
   class="st10"
   d="m 164.87043,116.6917 v -8.91559 l -6.73622,-4.55686 c 0,0 -2.77374,0.99063 -6.14185,-0.39624 -2.97187,-1.18874 -6.73622,-2.97186 -10.30246,-2.77374 v 16.64243 z"
   id="path38"
   style="fill:#b50005;stroke-width:1.98124" /><rect
   x="97.904488"
   y="143.83467"
   class="st10"
   width="16.64242"
   height="18.227413"
   id="rect38"
   style="fill:#b50005;stroke-width:1.98124" /><polygon
   class="st3"
   points="-7,339.1 -5.2,339.1 -5.2,329.9 6.2,329.9 6.6,329.9 6.6,328 6.2,328 -7,328 "
   id="polygon39"
   style="fill:#9e9e9f"
   transform="matrix(1.9812405,0,0,1.9812405,151.79423,-509.77655)" /><path
   class="st3"
   d="m 141.49177,116.6917 v -16.64243 c -0.39624,0 -0.99061,0 -1.38685,0.19813 -0.7925,0.19812 -1.38687,0.39624 -2.17937,0.7925 v 19.21803 h 26.94488 v -3.56623 z"
   id="path39"
   style="fill:#9e9e9f;stroke-width:1.98124" /><line
   class="st5"
   x1="73.33712"
   y1="61.216988"
   x2="89.385162"
   y2="83.20871"
   id="line39"
   style="fill:#ffffff;stroke-width:1.98124" /><line
   class="st11"
   x1="73.33712"
   y1="61.216988"
   x2="89.385162"
   y2="83.20871"
   id="line40"
   style="fill:none;stroke:#231815;stroke-width:1.95489" /><line
   class="st5"
   x1="70.76149"
   y1="69.736298"
   x2="96.319504"
   y2="61.216988"
   id="line41"
   style="fill:#ffffff;stroke-width:1.98124" /><line
   class="st11"
   x1="70.76149"
   y1="69.736298"
   x2="96.319504"
   y2="61.216988"
   id="line42"
   style="fill:none;stroke:#231815;stroke-width:1.95489" /><line
   class="st5"
   x1="82.252708"
   y1="61.216988"
   x2="66.402771"
   y2="83.20871"
   id="line43"
   style="fill:#ffffff;stroke-width:1.98124" /><line
   class="st11"
   x1="82.252708"
   y1="61.216988"
   x2="66.402771"
   y2="83.20871"
   id="line44"
   style="fill:none;stroke:#231815;stroke-width:1.95489" /><line
   class="st5"
   x1="77.893959"
   y1="47.744514"
   x2="77.893959"
   y2="74.887535"
   id="line45"
   style="fill:#ffffff;stroke-width:1.98124" /><line
   class="st11"
   x1="77.893959"
   y1="47.744514"
   x2="77.893959"
   y2="74.887535"
   id="line46"
   style="fill:none;stroke:#231815;stroke-width:1.95489" /><line
   class="st5"
   x1="59.270294"
   y1="61.216988"
   x2="84.8283"
   y2="69.736298"
   id="line47"
   style="fill:#ffffff;stroke-width:1.98124" /><line
   class="st11"
   x1="59.270294"
   y1="61.216988"
   x2="84.8283"
   y2="69.736298"
   id="line48"
   style="fill:none;stroke:#231815;stroke-width:1.95489" /><path
   class="st12"
   d="M 61.449665,55.867611 94.338261,78.850002 M 66.204643,83.803106 89.187037,50.91451 M 79.478955,47.348277 75.91272,87.369334 M 57.883432,65.57569 97.904489,69.141923 M 64.817773,51.90513 90.573897,82.614359 M 62.440285,80.236869 93.14951,54.480743 M 84.630179,48.537022 70.95962,86.180595 M 58.874052,60.424464 96.517627,74.095025 M 69.374628,49.131394 86.413296,85.388091 M 59.666548,75.87814 95.923246,58.839471 M 74.327729,47.546401 81.26207,86.973088 M 58.081557,70.726916 97.508243,63.792573 M 62.440285,54.480743 93.14951,80.236869 M 64.817773,82.614359 90.573897,51.90513 M 81.26207,47.546401 74.327729,86.973088 M 58.081557,63.792573 97.508243,70.726916 M 66.204643,50.91451 89.187037,83.803106 M 61.449665,78.850002 94.338261,55.867611 M 86.215172,49.131394 69.176504,85.388091 M 59.666548,58.839471 95.923246,75.87814 M 70.95962,48.537022 84.630179,86.180595 M 58.874052,74.095025 96.517627,60.424464 M 76.110845,47.348277 79.677078,87.369334 M 57.883432,69.141923 97.904489,65.57569 M 63.62903,53.093875 91.960772,81.425615 m -28.331742,0 28.331742,-28.33174 M 83.045187,47.942648 72.742736,86.774965 M 58.477804,62.207581 97.111996,72.510032 M 67.789634,49.92389 87.800162,84.595598 M 60.459044,77.265008 95.130754,57.25448 M 87.800162,49.92389 67.789634,84.595598 M 60.459044,57.25448 95.130754,77.265008 M 72.544612,47.942648 82.847063,86.774965 M 58.477804,72.510032 97.111996,62.207581 M 91.960772,53.093875 63.62903,81.425615 m 0,-28.33174 28.331742,28.33174 M 77.893962,47.348277 V 87.369334 M 57.685308,67.358806 h 40.021058"
   id="path48"
   style="fill:none;stroke:#ffffff;stroke-width:0.974176" /><polygon
   class="st5"
   points="-39.6,288.2 -37.3,281.4 -35.1,288.2 -28,288.2 -33.8,292.5 -31.5,299.3 -37.3,295.1 -43.1,299.3 -40.9,292.5 -46.7,288.2 "
   id="polygon48"
   style="fill:#ffffff"
   transform="matrix(1.9812405,0,0,1.9812405,151.79423,-509.77655)" /><polygon
   class="st13"
   points="-39.6,288.2 -37.3,281.4 -35.1,288.2 -28,288.2 -33.8,292.5 -31.5,299.3 -37.3,295.1 -43.1,299.3 -40.9,292.5 -46.7,288.2 "
   id="polygon49"
   style="fill:none;stroke:#e50012;stroke-width:1.4784"
   transform="matrix(1.9812405,0,0,1.9812405,151.79423,-509.77655)" /><polygon
   class="st5"
   points="-39.6,288.2 -37.3,281.4 -35.1,288.2 -28,288.2 -33.8,292.5 -31.5,299.3 -37.3,295.1 -43.1,299.3 -40.9,292.5 -46.7,288.2 "
   id="polygon50"
   style="fill:#ffffff"
   transform="matrix(1.9812405,0,0,1.9812405,151.79423,-509.77655)" /><polygon
   class="st9"
   points="-39.6,288.2 -37.3,281.4 -35.1,288.2 -28,288.2 -33.8,292.5 -31.5,299.3 -37.3,295.1 -43.1,299.3 -40.9,292.5 -46.7,288.2 "
   id="polygon51"
   style="fill:none;stroke:#231815;stroke-width:0.4917"
   transform="matrix(1.9812405,0,0,1.9812405,151.79423,-509.77655)" /><polygon
   class="st14"
   points="-28.9,310 -28.9,337.4 -25.5,333.9 -25.5,307.7 "
   id="polygon52"
   style="fill:#f2b900"
   transform="matrix(1.9812405,0,0,1.9812405,151.79423,-509.77655)" /><polygon
   class="st15"
   points="-28.9,310 -28.9,337.4 -25.5,333.9 -25.5,307.7 "
   id="polygon53"
   style="fill:none;stroke:#231815;stroke-width:0.4917;stroke-linecap:round;stroke-linejoin:round"
   transform="matrix(1.9812405,0,0,1.9812405,151.79423,-509.77655)" /><path
   class="st14"
   d="m 121.48125,148.19342 c -3.76435,0.39624 -9.31183,3.16998 -13.27431,3.96248 -3.96247,0.99062 -6.73621,-0.39624 -6.73621,-0.39624 l -6.736222,6.7362 h 28.926102 l 4.55686,-9.50994 c -0.19813,0 -2.97186,-1.18875 -6.73622,-0.7925"
   id="path53"
   style="fill:#f2b900;stroke-width:1.98124" /><path
   class="st15"
   d="m 121.48125,148.19342 c -3.76435,0.39624 -9.31183,3.16998 -13.27431,3.96248 -3.96247,0.99062 -6.73621,-0.39624 -6.73621,-0.39624 l -6.736222,6.7362 h 28.926102 l 4.55686,-9.50994 c -0.19813,0 -2.97186,-1.18875 -6.73622,-0.7925 z"
   id="path54"
   style="fill:none;stroke:#231815;stroke-width:0.974176;stroke-linecap:round;stroke-linejoin:round" /><path
   class="st5"
   d="m 119.30189,97.077414 c -3.96249,-0.990615 -8.32121,1.188739 -11.68932,2.575613 -3.3681,1.188743 -6.14184,0.396243 -6.14184,0.396243 v 52.10663 c 0,0 2.77374,1.18874 6.73621,0.39625 3.96248,-0.99062 9.70808,-3.76437 13.27431,-3.96249 3.76436,-0.39624 6.53809,0.99063 6.53809,0.99063 v -46.55916 c 0,-0.39624 -4.55685,-5.151223 -8.71745,-5.943716"
   id="path55"
   style="fill:#ffffff;stroke-width:1.98124" /><path
   class="st15"
   d="m 119.30189,97.077414 c -3.96249,-0.990615 -8.32121,1.188739 -11.68932,2.575613 -3.3681,1.188743 -6.14184,0.396243 -6.14184,0.396243 v 52.10663 c 0,0 2.77374,1.18874 6.73621,0.39625 3.96248,-0.99062 9.70808,-3.76437 13.27431,-3.96249 3.76436,-0.39624 6.53809,0.99063 6.53809,0.99063 v -46.55916 c 0,-0.39624 -4.55685,-5.151223 -8.71745,-5.943716 z"
   id="path56"
   style="fill:none;stroke:#231815;stroke-width:0.974176;stroke-linecap:round;stroke-linejoin:round" /><g
   id="g60"
   transform="matrix(1.9812405,0,0,1.9812405,151.79423,-509.77655)">
	<defs
   id="defs56">
		<path
   id="path1"
   d="m -21,308.3 -0.9,0.3 c -0.9,0.3 -1.7,0.4 -2.3,0.4 v 24 c 0.5,0.1 1.1,0.1 1.9,-0.1 0.8,-0.2 1.7,-0.5 2.7,-0.9 1.5,-0.5 3,-1.1 4.2,-1.2 0.8,-0.1 2.8,0.6 3.4,0.7 v -21.3 c -0.8,-0.7 -3.5,-2.8 -5,-2.8 -1.3,0.1 -2.6,0.4 -4,0.9" />
	</defs>
	<clipPath
   id="clipPath1">
		<use
   xlink:href="#SVGID_1_"
   style="overflow:visible"
   id="use1" />
	</clipPath>
	
		<linearGradient
   id="linearGradient5"
   gradientUnits="userSpaceOnUse"
   x1="-112.6059"
   y1="785.76038"
   x2="-109.3492"
   y2="785.76038"
   gradientTransform="matrix(3.7536,0,0,-3.7536,398.4552,3269.6997)">
		<stop
   offset="0"
   style="stop-color:#FFFFFF"
   id="stop1" />
		<stop
   offset="0.4831"
   style="stop-color:#FFFFFF"
   id="stop2" />
		<stop
   offset="0.6536"
   style="stop-color:#FBFBFB"
   id="stop3" />
		<stop
   offset="0.8298"
   style="stop-color:#EEEFEF"
   id="stop4" />
		<stop
   offset="1"
   style="stop-color:#DBDCDC"
   id="stop5" />
	</linearGradient>
	<rect
   x="-24.200001"
   y="307.5"
   class="st16"
   width="12.2"
   height="25.6"
   clip-path="url(#SVGID_2_)"
   id="rect60"
   style="fill:url(#SVGID_3_)" />
</g><g
   id="g64"
   transform="matrix(1.9812405,0,0,1.9812405,151.79423,-509.77655)">
	<polygon
   class="st14"
   points="4.9,310 4.9,337.4 1.5,333.9 1.5,307.7 "
   id="polygon60"
   style="fill:#f2b900" />
	<polygon
   class="st15"
   points="4.9,310 4.9,337.4 1.5,333.9 1.5,307.7 "
   id="polygon61"
   style="fill:none;stroke:#231815;stroke-width:0.4917;stroke-linecap:round;stroke-linejoin:round" />
	<path
   class="st14"
   d="m -8.7,332.1 c 1.9,0.2 4.7,1.6 6.7,2 2,0.5 3.4,-0.2 3.4,-0.2 l 3.4,3.4 H -9.7 l -2.3,-4.8 c 0,0 1.4,-0.6 3.3,-0.4"
   id="path61"
   style="fill:#f2b900" />
	<path
   class="st15"
   d="m -8.7,332.1 c 1.9,0.2 4.7,1.6 6.7,2 2,0.5 3.4,-0.2 3.4,-0.2 l 3.4,3.4 H -9.7 l -2.3,-4.8 c 0,0 1.4,-0.6 3.3,-0.4 z"
   id="path62"
   style="fill:none;stroke:#231815;stroke-width:0.4917;stroke-linecap:round;stroke-linejoin:round" />
	<path
   class="st5"
   d="m -7.6,306.3 c 2,-0.5 4.2,0.6 5.9,1.3 1.7,0.6 3.1,0.2 3.1,0.2 v 26.3 c 0,0 -1.4,0.6 -3.4,0.2 -2,-0.5 -4.8,-1.9 -6.7,-2 -1.9,-0.2 -3.3,0.5 -3.3,0.5 v -23.5 c 0,-0.2 2.3,-2.6 4.4,-3"
   id="path63"
   style="fill:#ffffff" />
	<path
   class="st15"
   d="m -7.6,306.3 c 2,-0.5 4.2,0.6 5.9,1.3 1.7,0.6 3.1,0.2 3.1,0.2 v 26.3 c 0,0 -1.4,0.6 -3.4,0.2 -2,-0.5 -4.8,-1.9 -6.7,-2 -1.9,-0.2 -3.3,0.5 -3.3,0.5 v -23.5 c 0,-0.2 2.3,-2.6 4.4,-3 z"
   id="path64"
   style="fill:none;stroke:#231815;stroke-width:0.4917;stroke-linecap:round;stroke-linejoin:round" />
</g><g
   id="g68"
   transform="matrix(1.9812405,0,0,1.9812405,151.79423,-509.77655)">
	<defs
   id="defs64">
		<path
   id="path2"
   d="m -7.3,307.5 c -1.2,0.3 -2.6,1.4 -3.4,2.1 v 21.3 c 0.6,-0.1 1.3,-0.2 2.2,-0.1 1.3,0.1 2.8,0.7 4.2,1.2 1,0.4 1.9,0.7 2.7,0.9 0.8,0.2 1.5,0.2 1.9,0.1 v -23.9 c -0.7,0 -1.5,-0.1 -2.3,-0.4 l -0.9,-0.3 c -1.2,-0.4 -2.4,-1 -3.6,-1 -0.3,0 -0.6,0 -0.8,0.1" />
	</defs>
	<clipPath
   id="clipPath5">
		<use
   xlink:href="#SVGID_4_"
   style="overflow:visible"
   id="use5" />
	</clipPath>
	
		<linearGradient
   id="linearGradient10"
   gradientUnits="userSpaceOnUse"
   x1="-108.6785"
   y1="795.3819"
   x2="-105.4213"
   y2="795.3819"
   gradientTransform="matrix(3.3753,0,0,-3.3753,356.0506,3004.8452)">
		<stop
   offset="0"
   style="stop-color:#FFFFFF"
   id="stop6" />
		<stop
   offset="0.4831"
   style="stop-color:#FFFFFF"
   id="stop7" />
		<stop
   offset="0.6536"
   style="stop-color:#FBFBFB"
   id="stop8" />
		<stop
   offset="0.8298"
   style="stop-color:#EEEFEF"
   id="stop9" />
		<stop
   offset="1"
   style="stop-color:#DBDCDC"
   id="stop10" />
	</linearGradient>
	<rect
   x="-10.8"
   y="307.39999"
   class="st17"
   width="11"
   height="25.700001"
   clip-path="url(#SVGID_5_)"
   id="rect68"
   style="fill:url(#SVGID_6_)" />
</g></svg>
