<?xml version="1.0" encoding="utf-8"?>
<!-- Generator: Adobe Illustrator 26.3.1, SVG Export Plug-In . SVG Version: 6.00 Build 0)  -->
<svg version="1.1" id="affiliation" xmlns="http://www.w3.org/2000/svg" xmlns:xlink="http://www.w3.org/1999/xlink" x="0px"
	 y="0px" viewBox="0 0 256 256" style="enable-background:new 0 0 256 256;" xml:space="preserve">
<style type="text/css">
	.st0{fill:#FFFFFF;}
	.st1{display:none;fill:#FFFFFF;}
	.st2{fill-rule:evenodd;clip-rule:evenodd;fill:#7B003F;}
	.st3{fill:#7B003F;}
</style>
<rect id="black" width="256" height="256"/>
<circle
   id="background"
   class="st0"
   cx="128"
   cy="128"
   r="128" />
<g id="logo_00000169557994799884142440000017718490564280908447_">
	<g>
		<path class="st2" d="M36.2,156.7l10.4-2.1l-0.4-2l-10.4,2.1c-1.8,0.5-3.7-0.6-4.2-2.5c-0.5-1.8,0.6-3.7,2.5-4.2
			c0.1,0,0.2-0.1,0.4-0.1l10.4-2.1l-0.4-2L34.1,146c-2.9,0.5-4.8,3.2-4.3,6.1c0,0.1,0,0.2,0.1,0.3c0.5,2.9,3.2,4.8,6.1,4.3
			C36,156.8,36.1,156.7,36.2,156.7z"/>
		<polygon class="st2" points="51,167.9 39.6,172 48.6,161.3 47.8,159.1 33.1,164.5 33.8,166.4 45.2,162.3 36.2,173.1 37,175.2 
			51.7,169.8 		"/>
		
			<rect x="39.6" y="177.7" transform="matrix(0.8935 -0.4491 0.4491 0.8935 -75.2086 40.3183)" class="st3" width="15.7" height="2.1"/>
		<polygon class="st2" points="61.8,187.7 49.3,191 57.4,180.9 56.2,179.1 46,192.2 46.8,193.4 63,189.5 		"/>
		<polygon class="st2" points="59.6,199.2 64,204.3 65.4,203.1 61,198 64.9,194.6 69.3,199.7 70.7,198.5 64.9,191.9 53.1,202.2 
			58.9,208.8 60.2,207.6 55.8,202.5 		"/>
		<path class="st2" d="M78,205.2l-4.2-3.6l-10.1,12l1.6,1.3l3.2-3.8l2.5,2.1L70,219l1.8,1.5l0.9-6.2c2.8,1,5.8-0.5,6.8-3.2
			C80.3,209,79.7,206.6,78,205.2z M77.1,211.4c-1.1,1.5-3.2,1.8-4.6,0.6c-0.1,0-0.1-0.1-0.2-0.1l-2.7-2.2l4.5-5.3l2.7,2.2
			c1.4,1.2,1.6,3.3,0.4,4.7C77.2,211.3,77.1,211.4,77.1,211.4z"/>
		<path class="st2" d="M89.2,212.7c-1.9-1.4-4.7-1-6.1,0.9c-0.1,0.1-0.2,0.3-0.3,0.4c-1.5,2.6,0.1,4.5,2,6.7c1,1.1,2.1,2.4,1.1,3.9
			c-0.8,1.3-2.5,1.7-3.8,0.9c-0.1-0.1-0.2-0.1-0.3-0.2c-1.6-0.8-2.3-2.8-1.5-4.4c0.1-0.1,0.1-0.3,0.2-0.4l-1.8-1
			c-1.6,2.4-0.9,5.6,1.5,7.1c0.2,0.1,0.3,0.2,0.5,0.3c2.1,1.6,5.1,1.1,6.6-1c0.1-0.1,0.2-0.2,0.2-0.4c1.6-2.7-0.2-4.8-2-6.8
			c-1.1-1.2-2-2.4-1.1-3.8c0.7-1.2,2.2-1.5,3.4-0.8c0.1,0.1,0.2,0.1,0.2,0.2c1.4,0.7,1.9,2.3,1.3,3.6c-0.1,0.1-0.1,0.3-0.2,0.4
			l1.8,1c1.4-2.2,0.7-5.1-1.4-6.4C89.5,212.9,89.4,212.8,89.2,212.7z"/>
		
			<rect x="87.6" y="224" transform="matrix(0.3938 -0.9192 0.9192 0.3938 -149.0434 224.1255)" class="st3" width="15.7" height="2.1"/>
		<polygon class="st2" points="112.2,222.5 102.4,219.6 101.9,221.4 105.8,222.5 101.9,235.8 103.9,236.4 107.8,223.1 111.7,224.2 
					"/>
		<path class="st2" d="M117.7,223.3l-7.5,14.8l2.1,0.3l1.1-2.3l6.3,0.9l0.5,2.5l2.1,0.3l-3.3-16.3L117.7,223.3z M114.4,234.4
			l3.6-7.7l1.4,8.4L114.4,234.4z"/>
		<path class="st2" d="M132.2,230.6c-1.5-0.4-2.9-0.9-3-2.6c-0.1-1.5,1.1-2.4,2.7-2.5c1.5-0.2,2.9,0.9,3,2.4c0,0.2,0,0.3,0,0.5
			l2-0.1c0-2.6-2.1-4.6-4.7-4.6c-0.2,0-0.3,0-0.5,0c-2.4-0.2-4.5,1.7-4.6,4.1c0,0.2,0,0.3,0,0.5c0.1,3,2.6,3.7,5.3,4.5
			c1.4,0.4,3,0.9,3.1,2.7c0.1,1.7-1.2,2.7-3,2.8c-1.8,0.2-3.5-1.1-3.7-2.9c0-0.1,0-0.3,0-0.5l-2,0.1c0,2.8,2.3,5.2,5.1,5.2
			c0.2,0,0.4,0,0.6,0c2.6,0.2,4.9-1.8,5-4.4c0-0.1,0-0.3,0-0.4C137.5,232.1,134.8,231.3,132.2,230.6z"/>
		<polygon class="st2" points="156.4,232.1 148.7,221.6 146.7,222.3 156.7,235.5 158.1,235 158.5,218.4 156.4,219.1 		"/>
		
			<rect x="164.5" y="215.7" transform="matrix(0.9024 -0.4309 0.4309 0.9024 -80.176 93.1609)" class="st3" width="2.1" height="15.7"/>
		<polygon class="st2" points="176.6,224.4 169.3,212.7 167.6,213.8 175.8,227.1 181.9,223.3 181,221.7 		"/>
		<polygon class="st2" points="183.4,202.1 191.3,211.3 178,206.7 176.3,208.2 186.5,220.1 188.1,218.7 180.2,209.5 193.4,214.1 
			195.1,212.7 184.9,200.8 		"/>
		<polygon class="st2" points="200.1,204.7 196.2,201.4 200.6,196.3 199.2,195.1 194.8,200.3 190.9,197 195.2,191.8 193.8,190.6 
			188.2,197.3 200.2,207.4 205.8,200.7 204.4,199.5 		"/>
		<polygon class="st2" points="201.3,179.1 211.6,185.5 197.6,185.2 196.4,187.1 209.8,195.3 210.9,193.5 200.5,187.2 214.6,187.5 
			215.7,185.6 202.4,177.4 		"/>
		<path class="st2" d="M218.8,168.4c-2.9-1.2-4.7,0.9-6.5,2.9c-1,1.2-2.1,2.3-3.6,1.7c-1.2-0.5-1.8-2-1.3-3.2c0-0.1,0.1-0.2,0.1-0.3
			c0.5-1.4,2-2.2,3.4-1.7c0.1,0,0.3,0.1,0.4,0.2l0.8-1.9c-2.3-1.1-5.1,0-6.2,2.3c-0.1,0.1-0.1,0.3-0.2,0.4c-1.2,2.1-0.4,4.8,1.7,5.9
			c0.1,0.1,0.3,0.1,0.4,0.2c2.7,1.2,4.5-0.8,6.3-2.9c1-1.1,2.1-2.4,3.8-1.7c1.4,0.6,2,2.2,1.4,3.6c0,0.1-0.1,0.2-0.1,0.3
			c-0.6,1.7-2.5,2.7-4.2,2.1c-0.1,0-0.3-0.1-0.4-0.2L214,178c2.6,1.2,5.6,0.1,6.8-2.4c0.1-0.2,0.2-0.4,0.2-0.5
			c1.3-2.3,0.4-5.2-1.9-6.4C219,168.5,218.9,168.4,218.8,168.4z"/>
		
			<rect x="216.3" y="153.2" transform="matrix(0.2874 -0.9578 0.9578 0.2874 0.6436 322.9434)" class="st3" width="2.1" height="15.7"/>
		<path class="st2" d="M224.6,145.3c-3.1-0.6-4.4,1.8-5.7,4.2c-0.8,1.4-1.6,2.7-3.2,2.4c-1.3-0.3-2.2-1.6-1.9-2.9
			c0-0.1,0-0.2,0.1-0.3c0.2-1.5,1.5-2.6,3-2.4c0.2,0,0.3,0,0.5,0.1l0.4-2c-2.5-0.6-5,1-5.6,3.5c0,0.2-0.1,0.3-0.1,0.5
			c-0.7,2.3,0.6,4.7,2.9,5.4c0.1,0,0.3,0.1,0.5,0.1c2.9,0.6,4.2-1.7,5.6-4.2c0.7-1.3,1.5-2.7,3.3-2.4c1.5,0.3,2.4,1.8,2.1,3.3
			c0,0.1,0,0.2-0.1,0.3c-0.2,1.8-1.9,3.1-3.7,2.9c-0.1,0-0.3,0-0.4-0.1l-0.4,2c2.8,0.7,5.5-1,6.2-3.8c0-0.2,0.1-0.4,0.1-0.6
			c0.8-2.5-0.7-5.2-3.2-5.9C224.9,145.4,224.7,145.3,224.6,145.3z"/>
		<path class="st2" d="M111.6,170.3c0.4,0.2,0.8,0,1-0.4c0.2-0.4,0-0.8-0.4-1c0,0-0.1,0-0.1,0c-0.4-0.2-0.8,0-1,0.4
			c-0.2,0.4,0,0.8,0.4,1C111.6,170.3,111.6,170.3,111.6,170.3z"/>
		<path class="st2" d="M186.1,139.7V77.5l-115.4,0c0,25.1-0.3,50.5-0.2,75.4h68.2c0.8-4.5,6.6-9.8,3.8-14.9l-3.3-3.9
			c0.9-0.3,1.9-0.6,2.7-1.1l3.6,3.6c0.2,1.2,0.7,2.5,1.3,3.6c-1.6,2.9-2.8,6-3.4,9.2c-1.2,0.3-1.7,1.3-1.1,3.5h3.8
			c0.2-2.8,1.8-4.5,2.8-6.9c1.2-3.1,1.4-6.3,0.1-7.9c-2.8-2.2-5-4.5-7.9-7c-0.3-0.1-0.7-0.4-1-0.3c-0.3,0.1,0.5,1.2,0.9,1.4
			c-5.3,2.2-10.5,1.6-16.1,0.9c-0.1-1.2,0-2.4,0.4-3.6c0.7,0.8,1.2,1.7,1.6,2.8c0.9-1,1.6-2.2,2.2-3.4l3.4,3.4
			c0.1-2.7,0.6-5.3,1.4-7.8c2.4,0.6,4.8,1,7.3,1.2c0.3,1.4-0.2,3.6,1,3.6c1.2,0,0.6-2.7,0.5-3.6c1.3,0.1,2.6,0.2,3.9,0.1
			c0.3,1.3,0.1,3.4,1.2,3.4c1.1,0,0.5-2.4,0.5-3.5c1.2-0.1,2.4-0.3,3.5-0.6c-2,4.2-1.4,9.2,1.7,12.7l-3.4,11.6
			c-1.2,0.4-1.4,1.4-0.6,3.5h36.5C186.1,149.2,186.1,144,186.1,139.7z M122.7,85.4l0.6-3.5l0.9,3.6l17.7-0.6l5,1.4l-4.9,1.2
			l-17.7,0.1l-0.5,3.6l-1-3.4h-0.6c0.3-0.8,0.2-1.6-0.2-2.4L122.7,85.4z M113.3,122.5c2.1-0.9,4.4-1.3,6.6-1.1
			c0.1,0.4,0.2,0.9,0.2,1.4c-2.6,0.1-5.1,0.6-7.6,1.4C112.7,123.5,112.9,123,113.3,122.5z M112.9,116.5c3-2.5,6.6-4.3,10.4-5.3
			c0.3,0,0.4,0.2,0.7,0.2c-4.4,1.8-8.1,4.8-10.8,8.7C113,118.9,113,117.7,112.9,116.5z M114.2,120.8c2.4-3.7,5.9-6.6,10-8.2
			c-0.1,1.1,0.4,2.2,1.3,2.9l-3.2,3.2l-2.1,1.5C118.1,120.2,116.1,120.4,114.2,120.8z M128.9,98.8c1.8-2.3,1.9-5.5,0.5-7.9
			c1.6-0.4,3.2-0.3,4.8,0.2c0.4,2.2-0.1,4.5-1.3,6.4l0.9,1.4c-0.9,0.2-2.4,0.4-3.5,0.5c0,1.2,0.1,2.5,0.3,3.7
			c-1,0.3-2.1,0.5-3.2,0.6C127.4,101.8,127.9,100.1,128.9,98.8z M128.5,97.4c-1.2-1.3-1.7-3.1-1.4-4.8c0-0.6,0.6-1.4,1.2-1.4
			C129.5,91.8,129.7,96.6,128.5,97.4z M130.8,104c0.3,1.6,0.7,3.1,1.2,4.6c-0.9,0.3-2.6,1-3.9,1.3c-0.4-1.7-0.6-3.4-0.6-5.2
			C128.7,104.5,129.6,104.3,130.8,104z M132.4,109.7c0.2,0.5,0.5,1.1,0.8,1.6c-2.4,1-4.8,2.1-7,3.6c-0.7-0.7-1.7-2.2-0.6-2.7
			L132.4,109.7z M122.3,120l3.2,2.4c0,0.2,0,0.3,0,0.5c-1.2-0.1-3.1-0.2-4.3-0.3c-0.1-0.5-0.2-1.1-0.2-1.7
			C121.5,120.6,121.9,120.3,122.3,120z M123.3,119.3c2.8-3.2,6.4-5.6,10.3-7c0.7,1.1,1.5,2.1,2.3,3.1c-0.4,0.8-1.4,1.5-3.4,2
			c-2.4,1.2-5.3,3.9-6.3,4.4L123.3,119.3z M131.5,100.1l9.3-1.4c1.3,3.4,1.9,14.1-1.9,17.3C134.8,113.9,131.7,105.7,131.5,100.1z
			 M119.9,85.4c0.8,0.2,1.4,1,1.3,1.9c-0.1,0.6-0.4,1.1-0.8,1.5c0.1,1.5,0.5,5.7,0.6,8.1l6.2,2.5c-0.5,0.9-0.8,2-0.9,3.1l-8.1-3.6
			c0-3.4,0.1-6.9,0.2-10.2c-0.8-0.5-1.1-1.7-0.6-2.5C118.4,85.5,119.2,85.2,119.9,85.4z M115.6,86.5c0.2-0.3,0.7-0.4,1-0.1
			c0,0,0,0,0,0c0.3,0.3,0.3,0.7,0.1,1.1c-0.2,0.3-0.7,0.3-1,0.1c0,0,0,0-0.1-0.1C115.4,87.2,115.4,86.8,115.6,86.5z M118.5,105.9
			c1.5,1.2,2.8,2.7,3.8,4.4c-0.6,0.1-1.1,0.3-1.7,0.5c-1.4-2.5-3.5-4.5-6.2-5.6l0.4,1c2,1.2,3.5,2.9,4.5,4.9c-2.6,1-4.9,2.5-7,4.3
			c0.2-1.2-0.3-2.4,0.2-3.9c0.9-2.3,1.3-4.8-1.4-6.5c-0.6-0.3-1.3-0.4-2-0.5c-0.1-0.7-0.1-1.6-0.2-2.3
			C112.5,102.4,115.8,103.7,118.5,105.9z M111.4,113.3l-1.3-0.1l-0.8-7.3c1.2,0,2.3,0.7,2.8,1.8
			C112.8,108.9,111.3,111.9,111.4,113.3z M109.2,117.3c-1.3,0-2.5-1-2.6-2.4c1.5-0.5,3.2-0.6,4.8-0.5
			C111.6,116.1,110.8,117.3,109.2,117.3z M109.2,113.3c-0.6,0.1-1.9,0.3-2.7,0.5l-0.2-0.2l-1.7-6.8c1.1-0.7,2.3-1.1,3.6-1.1
			L109.2,113.3z M104.6,101.1c0.9,0.1,1.6,0.7,2,1.4c0,0,0.6-0.1,1.3-0.1c0.1,0.7,0.2,1.4,0.2,2.2c-1.3,0.1-2.6,0.5-3.8,1.2
			l-0.6-1.3c-0.9-1.4-0.4-1.1-1.1-1.9c0.9,0.1,1.7,0.5,2.4,1C104.8,102.6,104.6,101.9,104.6,101.1z M94.6,133.1
			c0.3-1.6,0.7-3.1,1.2-4.6c2.6-2,5.5-3.6,8.5-4.9c2.4-0.1,4.8,0,7.2,0.4c-0.2,0.7-0.3,1.5-0.4,2.3c-2.2-0.2-4.3-0.3-6.6-0.3
			c-2.5,0.8-4.8,2.1-6.8,3.7c-0.1,1.1,0,2.3,0.4,3.4C97.2,133.1,95.7,133.1,94.6,133.1L94.6,133.1z M100.1,135
			c-0.3,0.9-0.3,1.8,0,2.6c-0.9,0.1-1.8,0.2-2.6,0.3c0-1.3,0.3-2.6,1-3.8c1.6-1.6,3.6-3.4,5-4.8c0.6-0.7,1.3-1.3,2-1.8l9.1-0.6
			l0-0.3c-0.7-0.3-1.5-0.4-2.3-0.3l0.1-1c2.5-1,5.1-1.5,7.8-1.6c0.1,2.4,0,4.9-0.3,7.3c-3.3,0.6-9.4-1.3-13.3-1.2L100.1,135z
			 M124,131.4c-0.2,0.9-0.2,1.8,0,2.7c0.1,0.9-1.7,1.1-2.8,1.3c-1.7,0.5-3.4,1.2-4.9,2.1c0.2-1.4,1.1-2.6,2.3-3.2
			c0.7-0.3,1.3-0.7,1.9-1.2c0.7-3.1,1-6.2,0.9-9.4c0.9,0.1,3.2,0.2,4.3,0.3C126,126.8,124.4,129,124,131.4z M133.9,121.5
			c-1.4,2.5-2.1,5.4-2.2,8.2l-2.7-2.7c-0.5,0.8-1.1,2.2-1.7,3.1c-0.3-0.5-0.9-1.4-1.4-2.1c0.6-1.6,0.8-3.4,0.5-5.2
			c1.9-1.7,4.1-3.2,6.3-4.5c2.1-0.7,3.5-1.4,3.9-2.4c0.5,0.4,0.9,0.8,1.4,1.1c-1.7,2.1-4,3.5-6.7,4.1
			C132.3,121.5,133.1,121.6,133.9,121.5z M134.5,123.3c0.2-0.8,0.5-1.6,1-2.3c1.2-0.5,2.2-1.3,3.1-2.2c1.3,1.5,2.1,3.4,2.4,5.5
			C138.8,124.2,136.7,123.9,134.5,123.3z M142.5,124.4c-0.5-2.4-1.4-4.7-2.7-6.8c1.5-0.3,3,0.3,4,1.4c1.4,1.5,2.3,3.4,2.6,5.5
			C145.7,124.4,143.5,124.4,142.5,124.4z M162.1,128c0.6,0.7,1,1.6,1.1,2.6c-0.8-0.6-1.7-0.9-2.7-0.9c0.4,0.9,0.5,1.9,0.3,2.9l0,0.1
			c-0.5-0.7-1-1.4-1.7-2c-1.6-1.7-1-4.5-0.1-7c0-1.1-0.5-2.1-1.7-2.1c-3.1,0.5-5.8,3.1-8.9,2.9c-1.1-2.2-1.7-5.8-4.7-7.1
			c3.3,0.3,6.4,2.1,8.2,4.9c2.7-2.3,5.9-5.1,9.8-4c1.3,0.4,2.3,1.6,2.4,2.9c0.2,2.4-1.2,5.4,1.3,7.4
			C164.3,129.1,163.1,127.7,162.1,128z"/>
		<path class="st2" d="M182.3,155.2H70.6c0.4,13.5,5.3,26.5,14,36.8c22.9,27.2,67.7,26.8,89.6-2.2c7.7-9.9,11.8-22.1,11.9-34.7h-2.2
			c-0.2,7.5-1.9,14.9-5,21.8c-0.4,0.4-1,0.7-1.6,0.9c-2.3,1-3.6,0.9-6,1.7c-0.5,0.2-1.2,0.5-1.3,0.8c1.7,0,3.3-0.2,5-0.7
			c-0.7,0.5-1.3,0.9-1.8,1.2c-5.8,3.4-11.8,6.4-18,8.9c1-5.6,0.5-11.4-1.6-16.7c1.8-0.3,3.6-0.6,5.4-1.1c1.7,2.2,2.6,4.9,2.7,7.7
			c0.7-0.9,1.1-2.1,1-3.3c-0.4-1.8-1.2-3.6-2.2-5.2c1.5-0.7,3.6-1.8,5.1-2.4c1.6-0.6,3.9-1.1,4.8-1.5c-0.6-0.5-2.2-0.1-3.2,0
			c4.2-2.6,8.7-4.7,13.5-6c-0.2-0.8-2.6,0-3.4,0C179.6,159.7,181.2,157.6,182.3,155.2z M108.8,168.4l-0.1,29.7
			c-0.3-0.4-0.7-0.7-1.1-1l0.1-29.8c0-0.9,0.2-1.4,0.7-1.5c2.6-0.2,6.3-0.6,9.3-1.1c3.1-0.5,6.9-0.8,10.1-1.2
			c0.2-0.3,0.2-0.6-0.2-0.9l-19.9,2.3c-0.5,0.2-1,0.7-1,0.9c0,0.5-0.1,1.9-0.1,2.3c0,9.9,0,19.2-0.1,28.5l-1.2-0.2
			c-0.2-9.3-0.1-20.1-0.1-30.2c-0.1-0.6,0-1.3,0.1-1.9c0.2-0.4,1.2-0.4,1.2-0.4c6.9-0.7,14-1.7,21-2.6c0.3-0.1,0.3-0.5-0.1-0.8
			c-6.8,0.7-14.9,1.4-21.6,2.2c-0.6,0-1.1,0.2-1.6,0.6c-0.2,0.5-0.3,1.1-0.3,1.7c0,10.3,0.4,20.9,0.1,31.4h-1
			c0-10.6-0.2-24-0.2-33.1c-0.1-0.9,0.5-1.8,1.4-1.9c0.1,0,0.2,0,0.3,0c8.6-0.7,13.9-1,20.8-1.9c2,0,3.8,0.2,4.8,1.7
			c0.6,1,0.3,2.3-0.7,2.9c-0.1,0.1-0.2,0.1-0.4,0.2c-0.9,0.3-1.8,0.6-2.7,0.6c-5.4,0.6-10.8,1.2-16.3,1.9
			C109.5,167,108.9,167.6,108.8,168.4z M125.9,166.4v4.3l-1,0c-1.8-0.5-2.9-2.1-2.9-4C123.1,166.6,124.6,166.5,125.9,166.4z
			 M109.8,169.2c0-0.7,0.1-1.4,1-1.4c0.8-0.1,2.3-0.2,3.6-0.2c0,3-1.2,4.4-4.5,4.4C109.8,171.1,109.8,170.3,109.8,169.2z
			 M111.3,201.1c-0.6,0-1.1-0.4-1.3-0.9v-4c1.1,0,2.2,0.3,3.1,1c1.1,0.9,1.6,2.3,1.6,3.6C113.5,201,112.4,201,111.3,201.1z
			 M115.8,200.7c0-1.7-0.7-3.4-2-4.5c-1.1-0.7-2.4-1.1-3.7-1l-0.2-22.3c2.6,0.4,5.1-1.4,5.5-4c0.1-0.5,0.1-1,0-1.5l5.5-0.6
			c-0.1,2.7,2.1,5,4.8,5.1c0.1,0,0.1,0,0.2,0l0.6,21.9c-2.9,0.4-5,3-4.6,5.9c0,0.1,0,0.2,0,0.3L115.8,200.7z M123.1,199.8
			c-0.5-2.2,0.9-4.3,3.1-4.7c0.1,0,0.2,0,0.2,0c0.1,0,0.2,4.3,0.2,4.3C125.5,199.6,124.3,199.7,123.1,199.8z M127.1,166.2
			c1.3-0.1,2.5-0.6,3.4-1.5c0.4,0.9,0,1.9-0.8,2.3c-0.8,0.5-1.7,0.8-2.6,1C127,167.6,126.9,166.2,127.1,166.2z M127.1,169
			c1.3-0.1,2.5-0.6,3.5-1.4v6.4c-0.4,1.3-1.8,1.7-3.5,2.1V169z M127.2,177.3c1.3-0.2,2.5-0.7,3.5-1.5c0.4,0.5,0.4,1.2,0,1.7
			c-1,0.7-2.2,1.2-3.4,1.2C127.2,178.2,127.1,177.8,127.2,177.3z M127.3,179.8c1.1-0.1,2.1-0.4,3.1-0.9l0.1,5.7l-3,1.7L127.3,179.8z
			 M127.6,189.7c0.4,0.1,0.5,0,0.7,0.6c0.1,0.3,0.9,0.5,1.5,0.7c0.3,0.4,0.8,0.6,1.3,0.7c0,0.7,0,2.8,0,3.6c0,1-2.8,1.7-3.5,1.6
			L127.6,189.7z M130.9,198.3c-1,0.6-2,0.9-3.1,1l0-1.1c1.4-0.2,2.7-0.7,3.8-1.5C131.7,197.3,131.5,197.9,130.9,198.3z M154.1,189.8
			c-0.2,0.7-0.6,0.7-1,0.5c-1.3-2-2-4.3-2-6.7c0.9-0.9,2-1.6,3.2-2.1C154.6,184.3,154.5,187.1,154.1,189.8z M154.1,180.5
			c-5.5,2.2-9.2,8.6-15.7,9.5c1.2-0.6,2.4-1.4,3.6-2.2c0-0.3-0.1-0.4-0.4-0.4c-1.9,1.2-3.9,2.2-6,2.9l-3.7,0.7
			c-0.2,0-0.6,0.1-0.8-0.4c0.9-0.5,3.8-1.3,5.3-2.1c1.4-0.7,2.8-1.5,4.1-2.4c0.1-0.2,0-0.6-0.5-0.5c-1.2,0.7-2.5,1.4-3.8,2
			c-1.8,0.9-3.7,1.6-5.6,2.1c-0.6,0.1-1.2,0-1.3-0.3c0.2-0.1-0.1-0.2,0.6-0.6c0.9-0.5,3.3-1.2,4.9-2.1c1.5-0.7,2.9-1.6,4.2-2.5
			c0.1-0.3,0-0.5-0.5-0.4c-2.9,1.8-6.1,3.2-9.3,4.3c-0.5,0.2-1,0.2-1.5,0.1v-0.9l4.8-2.5c1.4-0.7,2.8-1.5,4.1-2.5l3.7-3.2v-0.5
			c-2.7,0.8-5.6,0.8-8.3,0v-0.4c1.4-0.4,2.9-0.6,4.3-1c2.3-0.6,4.5-1.7,7-2.3c2.8-0.4,6.4-0.5,9.5-0.8
			C153.6,176.1,154.1,178.3,154.1,180.5z"/>
		<path class="st2" d="M112.3,198.1c-0.5-0.2-1,0.1-1.1,0.5c-0.2,0.4,0,0.9,0.5,1.1c0.5,0.2,1-0.1,1.1-0.5
			C113,198.8,112.7,198.3,112.3,198.1z"/>
		<path class="st2" d="M122.9,182.3c0-1.6-1.1-1.9-2.5-2c0.1-0.8-0.2-1.5-0.7-2.1c-1.7-0.8-3.9,0.1-3.4,2.4c-1,0.2-2.7,0.8-2.6,2.4
			c0.1,1.6,1.1,2.1,2.9,2c0.1,1.4,1,2.9,2.3,2.7c1.4-0.2,1.7-1.7,1.7-3.4C121.7,184.2,123,183.6,122.9,182.3z M119.7,183.5
			c0,1.2,0.4,2.7-0.7,2.9c-1.7,0.2-0.9-1.9-1.4-2.5c-0.7-0.3-2.4,0.5-2.7-0.8c0.2-1.7,1.6-1.5,2.6-1.7c-0.1-1.2-0.8-2.2,1-2.6
			c1.4,0.1,0.9,1.3,1,2.2c0.9,0,2.5-0.2,2.5,1.2C122,183.5,120.7,183.1,119.7,183.5z"/>
		<path class="st2" d="M139.2,111.8c-0.2-1-0.4-2-0.5-2.9c0.9-0.1,1.5-0.2,2.1-0.3l-0.2-1.5c-0.7,0.2-0.9,0.2-1.9,0.5
			c-0.2-1-0.3-1.7-0.5-2.9c0.7-0.1,1.4-0.1,2.1-0.2c0-0.5-0.1-1-0.1-1.4c-0.5,0.1-1.6,0.2-2.2,0.5c-0.2-1-0.3-2-0.4-3
			c-0.3,0.1-1.3,0.2-1.6,0.3c0.3,1,0.5,1.9,0.6,2.9c-0.6,0.1-1.2,0.2-2.2,0.3l0.2,1.4c0.7-0.1,1.9-0.4,2.2-0.4
			c0.2,1.2,0.3,1.9,0.4,2.9c-0.7,0.2-1.4,0.3-2.2,0.3l0.3,1.5c0.7-0.1,1.4-0.3,2-0.5c0.1,1,0.1,2,0.1,3
			C138,112.1,138.6,112,139.2,111.8z"/>
		<path class="st2" d="M125.4,197.2c-0.4-0.2-0.9-0.1-1.1,0.3c-0.2,0.4-0.1,0.9,0.3,1.1c0,0,0,0,0,0
			C125.6,199.1,126.2,197.6,125.4,197.2z"/>
		<path class="st2" d="M107.6,109.1c0.2-0.4,0.1-0.9-0.2-1.2c-0.4-0.1-0.5-0.3-0.9,0c-0.2,0.4-0.1,0.9,0.1,1.2
			C107,109.4,107.5,109.4,107.6,109.1z"/>
		<path class="st2" d="M124,169c0.4,0.1,0.7-0.2,0.8-0.5c0.1-0.3-0.1-0.7-0.4-0.8C123.5,167.3,123.2,168.9,124,169z"/>
		<polygon class="st2" points="44.3,108.4 29.8,100.2 29.4,102.4 40.8,108.5 28,110.3 27.6,112.5 44,109.8 		"/>
		
			<rect x="37.9" y="88.8" transform="matrix(0.2741 -0.9617 0.9617 0.2741 -64.603 107.635)" class="st3" width="2.1" height="15.7"/>
		<polygon class="st2" points="51,86 49.3,85.4 47.4,90.2 34.5,85.2 33.8,87.1 48.4,92.7 		"/>
		<polygon class="st2" points="53.2,81.4 42.5,75.6 56.5,75.2 57.6,73.2 43.8,65.7 42.8,67.5 53.5,73.3 39.5,73.7 38.4,75.7 
			52.2,83.2 		"/>
		<rect x="53.5" y="56" transform="matrix(0.5762 -0.8173 0.8173 0.5762 -29.089 71.6639)" class="st3" width="2.1" height="15.7"/>
		<path class="st2" d="M64.7,63.3l-1.3-2.2l4.2-4.8l2.3,1l1.4-1.6l-15.3-6.3l-1,1.1l8.2,14.4L64.7,63.3z M58.2,52.1l7.7,3.5
			l-3.4,3.8L58.2,52.1z"/>
		<path class="st2" d="M77.3,51.1c2.3-1.8,2.7-5.1,0.9-7.4c-0.1-0.1-0.1-0.2-0.2-0.2l-6.8-8.1l-1.6,1.3l6.8,8.1
			c1.3,1.4,1.2,3.5-0.2,4.8c-1.4,1.3-3.5,1.2-4.8-0.2c-0.1-0.1-0.2-0.2-0.2-0.3L64.4,41l-1.6,1.3l6.8,8.1c1.8,2.3,5.1,2.7,7.4,0.9
			C77.1,51.3,77.2,51.2,77.3,51.1z"/>
		<path class="st2" d="M85,36.7c1.5-0.3,3.1-0.7,4,0.9c0.8,1.3,0.3,3-1,3.8c-0.1,0.1-0.2,0.1-0.3,0.1c-1.5,1-3.6,0.7-4.6-0.8
			c-0.1-0.1-0.2-0.3-0.2-0.4l-1.8,1c1.3,2.5,4.5,3.4,7,2.1c0.2-0.1,0.3-0.2,0.5-0.3c2.4-1.1,3.4-3.9,2.3-6.3
			c-0.1-0.1-0.1-0.3-0.2-0.4c-1.6-2.7-4.3-2.1-7-1.5c-1.6,0.4-3,0.6-3.9-0.8c-0.7-1.2-0.3-2.7,0.9-3.4c0.1,0,0.2-0.1,0.3-0.1
			c1.2-0.9,2.9-0.6,3.8,0.6c0.1,0.1,0.2,0.3,0.2,0.4l1.8-1c-1.2-2.3-4.1-3.1-6.3-1.8c-0.1,0.1-0.3,0.2-0.4,0.3
			c-2.2,1-3.1,3.6-2.1,5.8c0.1,0.1,0.1,0.3,0.2,0.4C79.7,37.8,82.2,37.3,85,36.7z"/>
		<path class="st2" d="M107.8,34.9c2.8-0.7,4.6-3.6,3.9-6.4c0-0.1-0.1-0.2-0.1-0.3L108.8,18l-2,0.5l2.8,10.2
			c0.6,1.8-0.4,3.7-2.2,4.3c-1.8,0.6-3.7-0.4-4.3-2.2c0-0.1-0.1-0.2-0.1-0.4l-2.8-10.2l-2,0.5l2.8,10.2c0.7,2.8,3.5,4.6,6.4,3.9
			C107.6,34.9,107.7,34.9,107.8,34.9z"/>
		<polygon class="st2" points="118.4,32.3 117.4,20.2 125.4,31.7 127.6,31.5 126.4,15.9 124.3,16.1 125.3,28.1 117.3,16.6 115,16.8 
			116.3,32.5 		"/>
		
			<rect x="125.7" y="23" transform="matrix(5.990348e-02 -0.9982 0.9982 5.990348e-02 101.5015 155.8649)" class="st3" width="15.7" height="2.1"/>
		<polygon class="st2" points="143.7,33.3 152.1,18.9 149.9,18.5 143.6,29.8 142,17 139.9,16.6 142.3,33 		"/>
		<polygon class="st2" points="159.4,38.1 160,36.4 153.7,34 155.4,29.3 161.8,31.6 162.4,29.9 156.1,27.6 157.8,22.8 164.2,25.1 
			164.8,23.4 156.6,20.3 151.1,35 		"/>
		<path class="st2" d="M164.4,40.6l2.5-4.3l2.8,1.6l0.2,5.9l2,1.2l-0.2-6.3c2.2,0.4,4.4-0.7,5.5-2.6c1.5-2.5,0.7-5.7-1.8-7.2
			c-0.1,0-0.2-0.1-0.2-0.1l-4.8-2.7l-7.7,13.6L164.4,40.6z M171.3,28.5l3,1.7c1.6,0.9,2.2,2.9,1.3,4.5c0,0.1-0.1,0.1-0.1,0.2
			c-0.8,1.6-2.8,2.3-4.4,1.5c-0.1,0-0.1-0.1-0.2-0.1l-3-1.7L171.3,28.5z"/>
		<path class="st2" d="M177.1,42.4c-1.9,2.1-1.7,5.4,0.5,7.2c0.1,0.1,0.3,0.2,0.5,0.4c1.9,1.8,4.9,1.8,6.7,0
			c0.1-0.1,0.2-0.2,0.3-0.3c1.9-2.4,0.4-4.8-1-7c-0.9-1.3-1.6-2.6-0.6-3.9c0.9-1,2.4-1.2,3.5-0.3c0.1,0.1,0.1,0.1,0.2,0.2
			c1.2,0.8,1.6,2.5,0.7,3.8c-0.1,0.1-0.2,0.2-0.3,0.4l1.6,1.3c1.7-2,1.4-4.9-0.5-6.6c-0.1-0.1-0.2-0.2-0.4-0.3
			c-1.7-1.7-4.5-1.7-6.2,0c-0.1,0.1-0.2,0.2-0.3,0.4c-1.9,2.3-0.5,4.5,1.1,6.9c0.8,1.2,1.7,2.6,0.6,4.1c-1,1.2-2.7,1.3-3.9,0.4
			c-0.1-0.1-0.2-0.1-0.2-0.2c-1.5-1-1.9-3.1-0.8-4.6c0.1-0.1,0.2-0.2,0.3-0.4L177.1,42.4z"/>
		
			<rect x="183.7" y="50.1" transform="matrix(0.7129 -0.7012 0.7012 0.7129 19.1013 148.9872)" class="st3" width="15.7" height="2.1"/>
		<polygon class="st2" points="191.6,63 192.9,64.6 203.7,55.9 206.2,59.1 207.7,57.9 201.3,50 199.9,51.2 202.4,54.3 		"/>
		<polygon class="st2" points="201.6,77.7 203.2,76.7 199.7,71 204,68.3 207.5,74.1 209.1,73.2 205.6,67.4 209.9,64.7 213.4,70.5 
			215,69.5 210.4,62 197,70.2 		"/>
		<polygon class="st2" points="204.7,84 205.5,85.8 218.1,80.2 219.8,83.9 221.5,83.1 217.3,73.9 215.6,74.6 217.3,78.3 		"/>
		<path class="st2" d="M208,91.9l2.5,0l1.9,6.1l-2,1.5l0.7,2l13.3-9.9l-0.4-1.4l-16.6-0.4L208,91.9z M221,91.9l-6.9,4.9l-1.6-4.9
			L221,91.9z"/>
		<path class="st2" d="M223.1,101.8c-2.9,0.5-3.3,3.1-3.7,5.9c-0.2,1.5-0.4,3.1-2.2,3.4c-1.5,0.3-2.9-0.8-3.2-2.3c0-0.1,0-0.2,0-0.3
			c-0.5-1.8,0.6-3.6,2.4-4c0.1,0,0.3-0.1,0.4-0.1l-0.4-2c-2.8,0.4-4.8,3-4.4,5.8c0,0.2,0.1,0.4,0.1,0.6c0.2,2.6,2.5,4.6,5.1,4.4
			c0.1,0,0.3,0,0.4-0.1c3.1-0.6,3.5-3.3,3.8-6c0.2-1.6,0.5-3,2.1-3.3c1.3-0.2,2.6,0.7,2.8,2c0,0.1,0,0.2,0,0.3
			c0.4,1.5-0.5,2.9-1.9,3.3c-0.1,0-0.3,0.1-0.5,0.1l0.4,2c2.5-0.4,4.3-2.8,3.9-5.3c0-0.2-0.1-0.3-0.1-0.5c-0.2-2.4-2.3-4.2-4.7-4
			C223.4,101.8,223.2,101.8,223.1,101.8z"/>
		<path class="st2" d="M111.7,65.8V52.7h-1.6c0,1.6-0.4,2.2-2.8,2.2v1.4h2.6v9.5H111.7z"/>
		<polygon class="st2" points="130,65.8 131.8,65.8 137.6,52.7 129.5,52.7 129.5,54.3 135.2,54.3 		"/>
		<path class="st2" d="M144.7,65.8l3.9-6.2c0.5-0.8,0.8-1.7,0.8-2.6c0-2.5-2-4.5-4.5-4.5c-2.5,0-4.5,2-4.5,4.5c0,2.5,2,4.5,4.5,4.5
			c0,0,0,0,0,0c0.3,0,0.6-0.1,0.8-0.2l-3,4.6H144.7z M144.9,59.9c-1.6,0.1-3-1.1-3.1-2.8c-0.1-1.6,1.1-3,2.8-3.1
			c1.6-0.1,3,1.1,3.1,2.8c0,0.1,0,0.1,0,0.2c0.1,1.5-1.1,2.8-2.6,2.9C144.9,59.9,144.9,59.9,144.9,59.9z"/>
		<circle class="st3" cx="99.4" cy="59.5" r="2.1"/>
		<circle class="st3" cx="157.2" cy="59.6" r="2.1"/>
		<circle class="st3" cx="36.2" cy="128.3" r="2.1"/>
		
			<ellipse transform="matrix(0.7507 -0.6607 0.6607 0.7507 -29.5345 178.4529)" class="st3" cx="221.7" cy="128.4" rx="2.1" ry="2.1"/>
		<path class="st3" d="M122.3,56.9c-1.2-0.1-2.3,0.4-3,1.3v-3.9h6.3v-1.5h-7.8v7.2h1.6c0.6-1.4,2.3-2,3.7-1.4
			c1.1,0.5,1.7,1.6,1.6,2.7c0.2,1.5-0.9,2.8-2.4,3c-0.1,0-0.3,0-0.4,0c-1.2,0.1-2.2-0.6-2.5-1.7l-1.6,0c0.3,2,2.1,3.4,4.1,3.3
			c2.4,0.1,4.4-1.8,4.5-4.2c0-0.1,0-0.3,0-0.4c0.2-2.1-1.3-4.1-3.5-4.3C122.7,56.9,122.5,56.9,122.3,56.9z"/>
	</g>
</g>
</svg>
