<?xml version="1.0" encoding="UTF-8" standalone="no"?>
<svg
        version="1.1"
        id="affiliation"
        x="0px"
        y="0px"
        viewBox="0 0 256 256"
        style="enable-background:new 0 0 256 256;"
        xml:space="preserve"
        xmlns="http://www.w3.org/2000/svg"
>
<style
        type="text/css"
        id="style187">
	.st0{fill:#FFFFFF;}
	.st1{display:none;fill:#FFFFFF;}
	.st2{display:none;}
	.st3{display:inline;}
	.st4{fill:#0064CB;}
	.st5{display:inline;fill:#0064CB;}
	.st6{fill:#00A6D6;}
</style>
    <rect
            id="black"
            width="256"
            height="256"
            x="0"
            y="0"/>
    <circle
            id="background"
            class="st0"
            cx="128"
            cy="128"
            r="128"
    />

    <g
            id="logo"
            transform="matrix(3.4851745,0,0,3.4851745,-279.98158,-178.82075)"
            style="display:inline">

	<path
            id="path860"
            class="st2"
            d="m 99.5,70.626141 h 6 v 6 h -6 z"
            style="display:inline;fill:#a6700e"
    />
        <path
                id="path878"
                class="st2"
                d="m 138.3,84.326141 4.2,4.2 -4.2,4.2 -4.2,-4.2 z"
                style="display:inline;fill:#a6700e"/>
        <path
                id="path874"
                class="st2"
                d="m 96.6,84.326141 4.2,4.2 -4.2,4.2 -4.2,-4.2 z"
                style="display:inline;fill:#a6700e"/>
        <path
                id="path866"
                class="st2"
                d="m 117.4,63.426141 4.2,4.2 -4.2,4.2 -4.2,-4.2 z"
                style="display:inline;fill:#a6700e"/>
        <path
                id="path838"
                class="st1"
                d="m 105.9,83.326141 c 0.1,0.1 0.2,0.2 0.2,0.3 0,0.1 0.1,0 0.1,0.1 0.1,0.1 0.1,0.1 0.2,0.2 0.1,0.1 0.2,0.2 0.3,0.3 0,0.1 0.1,0.1 0.1,0.2 0.1,0 0.3,0.2 0.4,0.2 0.1,0 0.2,0.1 0.3,0.2 0.1,0.1 0.3,0.1 0.3,0.1 0.1,0 0.1,0 0.2,0 0.1,0 0.1,0 0.2,0 l 0.5,0.1 c 0.1,0 0.2,0 0.3,0 0.1,0 0.1,0 0.2,0.1 0.1,0.1 0.2,0 0.3,0 0.1,0 0.1,0 0.2,0 0.1,0 0.3,0 0.4,0 0.1,0 0.1,-0.1 0.2,-0.1 0.1,0 0.3,-0.1 0.4,-0.2 0,-0.1 0.1,-0.1 0.2,-0.1 0.1,0 0.2,0 0.3,-0.1 l 0.3,-0.1 c 0.1,0 0.2,-0.1 0.2,-0.1 0.2,0 0.3,-0.1 0.4,-0.2 0.1,0 0.2,0.1 0.3,0.1 0.1,0 0.1,0.1 0.1,0.1 0,0 0.1,0 0.2,0 0.2,0.1 0.4,0.2 0.6,0.3 0,0 0.1,0 0.1,0 0.1,0 0.1,0 0.1,0.1 0,0.1 0.1,0.1 0.2,0.1 0.1,0.1 0.1,0.1 0.2,0.2 0.1,0.1 0.1,0.1 0.2,0.2 0.1,0 0.1,0 0.1,0.1 0,0.1 0.2,0.2 0.2,0.2 0,0 0.1,0 0.1,0.1 0.1,0.1 0.2,0.1 0.3,0.2 0.1,0 0.1,0.1 0.2,0.2 0,0.1 0.1,0.1 0.2,0.2 0.1,0.1 0.5,0.6 0.6,0.7 0.1,0.1 0.1,0 0,0.1 l -0.1,0.2 c 0,0.1 -0.1,0.2 -0.1,0.3 0,0.1 0,0.1 -0.1,0.1 -0.1,0 -0.2,-0.1 -0.3,-0.2 -0.1,-0.1 -0.2,-0.1 -0.3,-0.2 -0.1,-0.1 -0.1,-0.1 -0.3,-0.1 -0.2,0 -0.2,-0.1 -0.3,-0.1 -0.1,0 -0.3,-0.1 -0.4,-0.1 -0.1,-0.1 -0.2,-0.1 -0.3,-0.1 -0.1,0 -0.2,0 -0.3,-0.1 -0.1,0 -0.2,-0.1 -0.3,-0.2 -0.1,-0.1 -0.2,-0.1 -0.2,-0.1 0,0 -0.1,-0.1 -0.2,-0.1 -0.1,0 -0.1,-0.1 -0.2,-0.2 -0.1,-0.1 -0.1,-0.1 -0.2,-0.1 -0.1,0 -0.1,0 -0.2,-0.1 -0.1,0 -0.1,0 -0.2,0 -0.1,0 -0.1,0 -0.2,0 -0.1,0 -0.3,-0.1 -0.4,-0.1 -0.1,0 -0.5,0 -0.7,0 l -0.4,0.1 c -0.1,0 -0.2,0 -0.3,0 -0.1,0 -0.3,0.1 -0.4,0.1 -0.1,0 -0.1,0.1 -0.2,0.1 -0.2,0.1 -0.4,0.2 -0.6,0.4 -0.1,0.1 -0.3,0.1 -0.4,0.3 -0.1,0.2 -0.2,0.2 -0.3,0.2 -0.1,0 -0.1,0.1 -0.2,0.2 -0.1,0.1 -0.2,0.3 -0.1,0.4 0.1,0.1 0,0.1 0,0.2 0,0.1 -0.1,0.1 -0.2,0.2 -0.1,0.1 0,0.1 0.1,0.2 0.1,0.1 0.2,0.1 0.2,0 0,-0.1 0.3,0 0.4,0.1 0.1,0.1 0.1,0.1 0.2,0.2 0.1,0.1 0.2,0 0.2,0 0.1,0 0.2,0 0.3,0 0.1,0 0.2,0.1 0.3,0.1 0.1,0 0.2,0.1 0.3,0 0.1,-0.1 0.2,0 0.3,0.1 0.1,0.1 0.2,0 0.3,0 0.1,0 0.2,-0.1 0.3,0 0.1,0.1 0.2,0 0.3,0 0.1,0 0.1,0 0.2,0 0.1,0 0.2,-0.1 0.3,-0.1 l 0.9,-0.3 c 0.1,0 0.1,0 0.1,0 0,0 0.3,-0.2 0.3,-0.2 0,0 0.2,0 0.3,-0.1 0.1,-0.1 0.3,-0.3 0.4,-0.3 0.2,-0.1 0.4,-0.3 0.6,-0.3 0.1,0 0.1,-0.1 0.1,-0.2 0,-0.1 0.2,0 0.3,0.1 0.1,0 0.1,0.1 0.2,0.1 0.1,0 0.2,0 0.2,0.1 0,0.1 0.3,0.2 0.3,0.3 0.1,0.1 0.2,0.1 0.2,0.2 0.1,0.1 0.2,0.1 0.3,0.1 0,0 0,-0.1 0.1,0.1 0.1,0.2 0.2,0.3 0.3,0.5 0.1,0.2 0.1,0 0.1,0.2 0,0.2 -0.1,0.2 -0.1,0.4 0,0.2 0,0.3 0,0.5 0,0.2 -0.1,0.3 0,0.4 0.1,0.1 0,0.2 0,0.3 0,0.1 0,0.2 0,0.4 0,0.1 0,0.3 0,0.4 0,0.1 0,0.3 0,0.4 -0.1,0.2 -0.1,0.4 -0.1,0.6 0,0.1 0,0.3 0,0.4 0,0.1 0,0.2 0,0.3 v 0.7 c 0,0.3 0,0.6 0,0.9 0,0.1 0,0.2 -0.1,0.3 -0.1,0.1 -0.1,0.2 -0.1,0.3 0,0.1 0,0.1 -0.1,0.3 -0.1,0.2 0,0.1 0,0.3 0,0.2 0,0.1 -0.1,0.2 -0.1,0.1 -0.2,0.2 -0.2,0.4 0,0.1 0,0.1 -0.1,0.2 -0.1,0.1 -0.1,0.2 -0.1,0.3 0,0.1 -0.1,0.2 -0.1,0.2 -0.1,0.1 0,0.2 -0.1,0.3 -0.1,0.1 0,0.2 0,0.3 0,0.1 0,0.1 0,0.2 0,0.1 -0.1,0 0,0.1 0.1,0 0.2,0 0.3,0 0.1,0 0.1,0 0.2,0 0.1,0 0.2,0 0.3,0 0.1,0 0.2,0 0.3,0 0.1,0 0.1,0 0.1,-0.1 0,-0.1 0.1,-0.2 0.1,-0.2 0,0 0,-0.2 0.1,-0.3 0.1,-0.1 0.1,-0.2 0.1,-0.3 0,-0.1 0,-0.2 0,-0.3 0,-0.1 0,-0.1 0.1,-0.2 0,-0.1 0,-0.2 0,-0.3 0,-0.1 0,-0.2 0,-0.3 0,-0.1 0,-0.2 0,-0.3 0,-0.1 0,-0.2 0,-0.3 0,-0.2 0,-0.1 0.1,-0.3 0.1,-0.2 0.1,-0.1 0.1,-0.2 0,-0.1 0,-0.2 0,-0.2 0,-0.1 0,-0.1 0,-0.2 0,-0.1 0,-0.2 -0.1,-0.2 0,-0.1 0,-0.1 0,-0.2 0,-0.1 0,-0.2 0,-0.3 0,-0.1 0,-0.2 0,-0.3 0,-0.1 0,-0.2 0,-0.2 0,-0.1 0,-0.2 0,-0.3 v -0.5 c 0,-0.1 0,-0.1 0,-0.2 0,-0.1 0,-0.1 0,-0.2 0,-0.1 0,-0.2 0,-0.3 0,-0.1 0,-0.2 0,-0.3 0,-0.2 0,-0.3 0,-0.5 0,-0.1 0,-0.2 0,-0.4 0,-0.1 0,-0.2 0,-0.3 0,-0.1 0,-0.2 0.1,-0.2 0,-0.1 0,-0.2 0.1,-0.3 0,-0.1 0,-0.2 0,-0.3 0,-0.1 0,-0.2 0,-0.3 0.1,-0.1 0,-0.2 0,-0.3 0,-0.1 0,-0.2 -0.1,-0.2 -0.1,0 -0.1,0 -0.1,-0.1 0,-0.1 -0.1,-0.1 -0.1,-0.2 0,-0.1 0,-0.2 0,-0.2 0,-0.1 0,-0.2 0,-0.3 0,-0.1 0,-0.2 0,-0.2 0,-0.1 0,-0.2 0,-0.2 0,-0.1 0.1,-0.1 0.1,-0.2 0,-0.1 0,-0.2 0.1,-0.3 0,-0.1 0,-0.2 0.1,-0.2 0.1,0 0,-0.1 0.1,-0.2 0.1,-0.1 0.1,-0.2 0.1,-0.3 0,-0.1 0,-0.2 -0.1,-0.2 -0.1,-0.2 0,-0.2 -0.1,-0.4 -0.1,-0.2 -0.1,-0.2 -0.2,-0.4 -0.1,-0.2 -0.1,-0.2 -0.1,-0.3 0,-0.1 -0.1,-0.2 -0.1,-0.4 0,0 0.1,0 0,-0.1 -0.1,-0.1 0,-0.1 -0.1,-0.2 0,-0.1 -0.1,-0.1 -0.1,-0.2 0,-0.1 0,-0.1 0,-0.2 0,-0.1 -0.1,-0.2 -0.2,-0.2 -0.1,-0.1 -0.1,-0.1 -0.1,-0.2 0,-0.1 -0.1,-0.1 -0.2,-0.2 -0.1,-0.1 -0.1,-0.2 -0.2,-0.3 -0.1,0 -0.1,-0.1 -0.1,-0.2 0,-0.1 -0.1,-0.2 -0.2,-0.2 -0.1,-0.1 -0.2,-0.2 -0.3,-0.3 -0.1,0 -0.1,-0.1 -0.2,-0.2 -0.1,-0.1 -0.1,-0.2 -0.1,-0.3 -0.1,-0.1 -0.1,-0.2 -0.1,-0.3 0,-0.1 0,-0.1 0,-0.3 0,-0.1 0,-0.2 0,-0.3 0,-0.1 0,-0.2 0,-0.2 0,-0.1 0,-0.2 0,-0.2 0,-0.1 0,-0.2 -0.1,-0.2 -0.1,0 -0.1,-0.1 -0.1,-0.2 0,-0.1 -0.1,-0.2 -0.1,-0.2 0,-0.1 -0.1,-0.2 -0.2,-0.2 0,-0.1 0,-0.1 -0.1,-0.3 -0.1,-0.2 0,-0.2 -0.1,-0.3 -0.1,-0.1 -0.1,-0.2 -0.1,-0.3 0,-0.1 -0.2,-0.2 -0.3,-0.2 -0.1,0 -0.1,-0.1 -0.2,0 -0.1,0.1 -0.2,-0.1 -0.2,-0.2 -0.1,-0.1 -0.2,-0.2 -0.4,-0.2 l -0.5,-0.3 c -0.1,0 -0.3,0 -0.4,0 0,0 -0.1,0 -0.1,0 -0.1,0 -0.2,0 -0.2,0 h -0.5 c 0,0 -0.1,0 -0.1,0.1 -0.1,0 -0.1,0 -0.2,0 -0.1,0 -0.2,0 -0.2,0.1 0,0.1 0,0.2 0.1,0.2 0.1,0.1 0.1,0.1 0.1,0.1 0,0 0.1,0.1 0.1,0.2 0,0.1 0.1,0.1 0.1,0.2 0,0.1 0,0.2 0,0.3 0,0.2 0,0.3 0.1,0.3 0.1,0 0.1,0.2 0.2,0.3 0.1,0.1 0,0.1 0.1,0.3 0,0.1 0,0.2 0.1,0.2 0.1,0.1 0.1,0.2 0.2,0.3 0.1,0.1 0.1,0.1 0.2,0.2 0.1,0.1 0,0.1 0.1,0.2 0,0.1 0.1,0.1 0.2,0.1 0.1,0.1 0.2,0.2 0.3,0.4 0.1,0.1 0.1,0.1 0.2,0.2 0.1,0.1 0.2,0.1 0.3,0.1 0.1,0 0.2,0 0.3,0 0.1,0 0.2,0 0.3,0 0.1,0 0.2,0 0.3,0 0.1,0 0.2,0 0.3,0 0.1,0 0.3,0.3 0.4,0.4 0,0.1 0.1,0.1 0.2,0.2 0.1,0 0.1,0.1 0.1,0.2 0,0.1 0,0.1 0.1,0.2 0,0.1 0.1,0.1 0.2,0.2 0.1,0.1 0.5,0.8 0.5,0.8 0,0.1 0,0.1 0,0.2 0,0.1 0,0.1 0.1,0.2 0,0.1 0.1,0.1 0.1,0.2 0,0.1 0.1,0.1 0.1,0.2 0,0.1 0,0.1 0,0.2 0,0.1 0,0.2 0,0.2 0.1,0.3 0.1,0.6 0.1,0.9 0,0.3 -0.1,0.1 -0.2,0 -0.1,-0.1 -0.2,-0.2 -0.3,-0.2 -0.1,0 -0.3,-0.2 -0.4,-0.3 -0.1,-0.1 0,-0.1 -0.1,-0.2 -0.1,-0.1 -0.2,-0.2 -0.3,-0.2 -0.1,0 -0.4,-0.2 -0.5,-0.3 -0.1,-0.1 -0.2,-0.2 -0.3,-0.2 -0.1,0 -0.2,0 -0.2,-0.1 -0.1,-0.1 -0.2,-0.2 -0.4,-0.2 -0.2,-0.1 -0.4,-0.2 -0.7,-0.2 -0.1,0 -0.1,-0.1 -0.1,-0.2 0,-0.1 -0.1,-0.2 -0.1,-0.3 0,-0.1 0,-0.1 0,-0.2 0,-0.1 0,-0.1 -0.1,-0.2 -0.1,-0.1 0,-0.1 0,-0.2 0,-0.1 -0.1,-0.1 -0.1,-0.2 -0.1,0 -0.3,-0.3 -0.4,-0.3 -0.1,0 -0.5,-0.4 -0.6,-0.4 -0.1,0 -0.4,-0.3 -0.5,-0.4 -0.1,-0.1 -0.7,-0.3 -0.8,-0.4 -0.1,0 -0.2,0 -0.3,0 -0.2,0 -0.3,0 -0.5,-0.1 -0.2,0 -0.3,0 -0.5,0 -0.2,0 -0.4,0 -0.5,0 -0.1,0 -0.3,0 -0.4,0.1 l -0.1,0.1 c -0.1,0 -0.1,0.1 -0.2,0.1 -0.1,0 -0.1,-0.1 -0.2,0 -0.1,0.1 -0.2,0.1 -0.3,0.1 -0.1,0 -0.1,0.1 -0.2,0.1 -0.1,0 -0.2,0 -0.3,0.1 -0.1,0.1 -0.1,0.1 -0.2,0.1 -0.1,0 -0.2,0.1 -0.2,0.1 -0.1,0 -0.1,0.1 -0.2,0.1 -0.1,0 -0.1,0.1 -0.2,0.1 -0.1,0 -0.2,0.1 -0.2,0.1 -0.1,0.1 -0.3,0.1 -0.4,0.2 -0.1,0.1 0,0.1 0,0.2 0,0.1 0.1,0 0.2,0.1 0.1,0.1 0.2,0.1 0.2,0.2 0.1,0.1 0.1,0.1 0.2,0.2 0.1,0.1 0.1,0.1 0.2,0.2 0.1,0.1 0.1,0.1 0.2,0.2 m 7.2,4.1 c -0.2,0.2 -0.4,0.3 -0.4,0.3 0,0 -0.2,0 -0.2,0.1 -0.1,0.1 -0.1,0.1 -0.2,0.2 -0.1,0.1 -0.3,0.2 -0.5,0.3 -0.1,0 -0.2,0 -0.3,0.1 -0.1,0 -0.1,0.1 -0.2,0.1 h -0.4 c -0.1,0 -0.2,-0.1 -0.3,-0.1 -0.1,0 -0.2,0 -0.3,0 -0.1,0 0,0 -0.2,0 -0.2,0 -0.1,0 -0.2,0 h -0.2 c -0.1,0 -0.1,0 -0.2,0 v -0.2 c 0,0 -0.1,0 -0.1,0 -0.1,0 -0.1,0 -0.2,0 -0.1,0 -0.1,0 -0.2,0 l -0.1,-0.1 c -0.1,-0.1 -0.1,-0.1 -0.1,-0.1 0,0 0.1,0 0.1,-0.1 0,-0.1 0.1,-0.1 0.1,-0.2 0,-0.1 0,-0.1 0,-0.1 0,0 0.1,0 0.1,-0.1 0,-0.1 0.1,-0.1 0.1,-0.1 0,0 0,-0.1 0.1,-0.1 0.1,0 0.1,0 0.1,-0.1 0,-0.1 0.1,-0.1 0.2,-0.2 0.1,-0.1 0,-0.1 0.1,-0.1 0.1,0 0.1,0 0.2,-0.1 0.1,-0.1 0.1,0 0.2,0 0.1,0 0.1,0 0.2,-0.1 0.1,-0.1 0.2,0 0.2,-0.1 0,-0.1 0.1,0 0.2,-0.1 0.1,0 0.3,-0.1 0.4,-0.1 0.1,0 0.3,0 0.4,-0.1 0.1,0 0.4,0.1 0.5,0.1 0.2,0 0.3,0 0.5,0.1 0.1,0 0.2,0.1 0.3,0.1 0.1,0 0.1,0.1 0.2,0.1 0.1,0 0,0.1 -0.1,0.1 -0.1,0 -0.2,0 -0.2,0 -0.1,0 -0.2,0 -0.3,0 -0.1,0 -0.2,0 -0.3,0 -0.1,0 -0.2,0.1 -0.4,0.1 -0.1,0 -0.2,0 -0.2,0 l -0.3,0.1 -0.3,0.1 c -0.1,0 -0.1,0.1 -0.2,0.1 -0.1,0 -0.2,0.1 -0.3,0.2 -0.1,0.1 -0.1,0.1 0,0.1 0.1,0 0.1,0 0.2,0 0.1,0 0.2,-0.1 0.3,-0.1 0.1,0 0.1,0 0.2,-0.1 0.1,0 0.1,0 0.3,-0.1 0.2,-0.1 0.2,0 0.3,0 0.1,0 0.1,-0.1 0.2,-0.1 0.1,0 0.2,0 0.3,0 0.1,0 0.2,0 0.3,0 0.1,0 0.3,0 0.4,0 0.1,0 0.2,0.3 0.2,0.3 0.2,0 0.3,0 0,0 m 1.6,-7.3 c 0,0 0,0 0,0 -0.1,0.2 -0.1,0.2 -0.1,0.3 0,0 0,0.1 0,0.1 0,0 0,0.1 0,0.1 0,0.1 0,0.1 0,0.2 0,0.1 0.1,0.2 0,0.1 l -0.2,-0.1 c -0.1,-0.1 -0.2,-0.1 -0.2,-0.2 0,-0.1 0,-0.1 -0.1,-0.2 -0.1,-0.1 -0.1,0 -0.2,-0.1 -0.1,-0.1 -0.2,-0.2 -0.2,-0.3 -0.1,-0.1 -0.2,-0.2 -0.3,-0.2 -0.1,0 -0.1,-0.1 -0.2,-0.1 -0.1,0 -0.2,0 -0.2,-0.1 0,-0.1 -0.1,-0.1 -0.2,-0.1 -0.1,0 0,0.2 0,0.2 l 0.2,0.1 c 0.1,0 0.1,0.1 0.2,0.2 0,0.1 0,0.1 0.1,0.2 0.1,0.1 0.2,0.1 0.2,0.2 0.1,0.1 0.1,0.1 0.2,0.1 0,0.1 0.1,0.1 0.1,0.2 0,0.1 0,0.2 0.1,0.2 0.1,0 0.2,0.3 0.1,0.2 -0.1,0 -0.2,0 -0.3,0 -0.1,0 -0.2,0 -0.3,0 -0.1,0 -0.3,-0.2 -0.3,-0.2 -0.1,-0.1 -0.2,-0.1 -0.3,-0.2 0,0 -0.2,-0.1 -0.2,-0.2 -0.1,0 -0.1,-0.1 -0.2,-0.2 0,-0.1 -0.1,-0.2 -0.1,-0.2 -0.1,-0.1 -0.1,-0.1 -0.1,-0.2 0,-0.1 0.1,-0.1 0,-0.2 -0.1,-0.1 -0.2,-0.1 -0.2,-0.2 0,-0.1 0,-0.2 0,-0.2 -0.1,-0.1 -0.1,-0.1 -0.1,-0.2 l -0.1,-0.3 c 0,-0.1 -0.1,-0.2 -0.1,-0.2 0,-0.1 -0.1,-0.2 -0.1,-0.2 0,-0.2 -0.1,-0.2 0,-0.2 0.1,0 0.2,0 0.3,0 0.2,0 0.3,0.1 0.5,0.1 0.1,0 0.1,0.1 0.2,0.1 0.1,0 0.3,0.1 0.5,0.1 0.1,0 0.2,0 0.2,0.1 0.1,0.1 0.1,0.1 0.2,0.1 0.1,0 0.2,0.1 0.2,0.2 0.1,0.1 0.1,0.1 0.2,0.2 0,0.1 0.1,0.1 0.2,0.2 0.1,0 0.1,0.1 0.2,0.2 0,0.1 0.1,0.2 0.1,0.2 0,0 0.1,0.1 0.1,0.2 0,0.1 0.1,0.2 0.1,0.2 0,0 0.2,0 0.1,0 m -8.4,2.3 c 0,-0.1 0.1,-0.1 0.2,-0.2 0.1,-0.1 0.3,-0.1 0.4,-0.2 0.1,-0.1 0.2,-0.1 0.2,-0.2 0,-0.1 0.1,-0.1 0.2,-0.1 0.1,0 0.2,-0.1 0.3,-0.2 l 0.2,-0.1 c 0.1,0 0.2,0 0.3,-0.1 0.1,0 0.1,0 0.2,0 0.2,0 0.3,0 0.5,0 0.2,0 0.4,0 0.6,0 0.1,0 0.2,0.1 0.2,0 0,-0.1 0.2,0 0.3,0.1 l 0.9,0.4 c 0.2,0.1 0.2,0.1 0.3,0.2 0.1,0 0.2,0.1 0.3,0.2 0.1,0.1 0,0.1 0.1,0.2 0.1,0.1 0.1,0.1 0.2,0.2 0.1,0.1 0.1,0.2 0.2,0.3 0,0.1 0.1,0.2 0,0.2 -0.1,-0.1 -0.2,-0.2 -0.3,-0.2 -0.2,0 -0.4,-0.1 -0.7,-0.2 -0.2,0 -0.4,-0.1 -0.6,-0.1 -0.3,-0.1 -0.5,-0.2 -0.8,-0.2 h -0.4 c -0.1,0 -0.2,0 -0.3,0 -0.1,0 -0.3,0 -0.4,0.1 -0.1,0 -0.2,-0.1 -0.3,0 -0.1,0.1 -0.1,0.2 -0.2,0.1 -0.1,-0.1 -0.2,-0.1 -0.2,0 0,0.1 0,0.2 0,0.2 0,0 0.1,0.1 0.2,0 0.1,0 0.2,0 0.4,0 0.1,0 0.3,0 0.4,0 0.1,-0.1 0.2,0 0.3,0 0.1,0 0.2,-0.1 0.3,0 0.1,0.1 0.2,0.1 0.3,0.1 0.2,0 0.3,0 0.4,0.1 0.2,0.1 0.3,0.1 0.5,0.2 0.2,0.1 0.4,0.1 0.5,0.2 0.1,0.1 0.2,0.2 0.3,0.2 0.1,0 0.1,0 0.2,0 0.1,0 0.3,0.1 0,0.2 -0.2,0.1 -0.4,0.1 -0.5,0.2 -0.1,0 -0.2,0.1 -0.3,0.2 -0.1,0.1 -0.2,0 -0.3,0 -0.2,0 -0.3,0 -0.4,0.1 -0.1,0 -0.3,0.1 -0.4,0.1 -0.1,0 -0.2,0 -0.3,0 -0.2,-0.1 -0.5,-0.2 -0.7,-0.2 -0.1,0 -0.2,0 -0.3,-0.1 -0.1,0 -0.1,-0.1 -0.2,-0.1 l -0.2,-0.1 -0.2,-0.1 -0.2,-0.1 c -0.1,-0.1 -0.1,-0.1 -0.2,-0.2 -0.2,-0.1 -0.1,-0.2 -0.2,-0.2 -0.1,0 -0.1,-0.1 -0.2,-0.2 -0.1,-0.1 -0.2,-0.1 -0.2,-0.1 0,-0.1 0,-0.1 -0.1,-0.2 -0.1,0 -0.1,0 -0.2,-0.1 0,-0.1 0,-0.1 0,-0.2 0.1,0.1 -0.1,0.1 -0.1,-0.1"
                style="display:inline;fill:#093158"/>
        <path
                id="path870"
                class="st2"
                d="m 117.4,105.22614 4.2,4.2 -4.2,4.2 -4.2,-4.2 z"
                style="display:inline;fill:#a6700e"/>
        <path
                id="path834"
                class="st1"
                d="m 109.1,79.926141 c 0.1,0 0.1,0.1 0.1,0.2 0,0.1 0,0.1 0.1,0.1 0.1,0 0.1,0 0.2,0.1 0.1,0 0.1,0 0.2,0 0.1,0 0.1,0 0.1,-0.1 0,-0.1 0.1,-0.1 0.1,-0.2 0,-0.1 0,-0.1 0,-0.2 0,-0.1 0,-0.1 0,-0.2 0,-0.1 0,-0.1 0,-0.1 0,0 -0.1,-0.1 -0.2,-0.2 -0.1,0 -0.1,0 -0.2,0 -0.1,0 -0.2,0 -0.3,0 -0.1,0 -0.1,0 -0.1,0.1 0,0 0,0.1 -0.1,0.2 0,0 -0.1,0.1 -0.1,0.2 0,0.1 0,0 0,0.1 0,0.1 0.2,0 0.2,0"
                style="display:inline;fill:#093158"/>
        <path
                id="path862"
                class="st2"
                d="m 129.4,70.626141 h 6 v 6 h -6 z"
                style="display:inline;fill:#a6700e"/>
        <path
                id="path858"
                class="st2"
                d="m 129.4,100.42614 h 6 v 6 h -6 z"
                style="display:inline;fill:#a6700e"/>
        <path
                id="path856"
                class="st2"
                d="m 99.5,100.42614 h 6 v 6 h -6 z"
                style="display:inline;fill:#a6700e"/>
        <path
                id="path850"
                class="st1"
                d="m 129.6,82.226141 c 0,-0.1 0,-0.2 -0.2,-0.2 -0.1,0 -0.1,0 -0.2,0 -0.1,0 -0.1,0 -0.2,-0.1 -0.1,-0.1 -0.2,-0.1 -0.2,-0.2 -0.1,-0.1 -0.3,-0.1 -0.4,-0.2 -0.1,-0.1 -0.1,-0.1 -0.3,-0.1 -0.1,0 -0.1,0 -0.2,-0.1 -0.1,0 -0.2,-0.1 -0.3,-0.1 -0.1,0 -0.2,0 -0.3,0 -0.1,0 -0.1,-0.1 -0.2,0 -0.1,0.1 -0.3,0 -0.4,0 -0.2,0 -0.3,0 -0.5,0 -0.2,0 -0.4,0 -0.7,0 -0.2,0 -0.3,0 -0.4,0.1 -0.1,0 -0.1,0.1 -0.2,0.2 -0.1,0.1 -0.1,0 -0.2,0.1 -0.1,0.1 0,-0.1 -0.1,0 -0.1,0.1 -0.2,0.1 -0.2,0.2 -0.1,0.1 -0.2,0.1 -0.2,0.1 -0.2,0.1 -0.3,0.2 -0.4,0.3 -0.1,0.1 -0.1,0.2 -0.2,0.3 l -0.2,0.3 c 0,0.1 -0.1,0.2 -0.2,0.3 -0.1,0.1 -0.1,0.1 -0.2,0.2 l -0.1,0.1 c -0.1,0 -0.1,0.1 -0.2,0.1 -0.1,0 -0.1,0.1 -0.2,0.1 0,0 -0.1,0.1 -0.1,0.1 -0.1,0.1 -0.1,0 -0.2,0.1 -0.1,0.1 0,0.1 -0.1,0.1 -0.1,0 -0.1,0.1 -0.2,0.1 0,0.1 0,0 -0.1,0 -0.1,0 -0.1,0.1 -0.2,0.2 -0.1,0.1 -0.1,0 -0.2,0.1 -0.1,0.1 -0.1,0 -0.1,0.1 0,0.1 0,0.1 -0.1,0.1 -0.1,0 -0.1,0 -0.2,0.1 -0.1,0.1 -0.1,0.1 -0.2,0.1 -0.1,0 -0.1,0.1 -0.2,0.2 -0.1,0.1 -0.2,0.1 -0.3,0.2 -0.2,0.2 -0.4,0.3 -0.5,0.5 -0.1,0.2 -0.2,0.1 -0.2,0.2 -0.1,0.1 -0.2,0.2 -0.3,0.3 -0.1,0.2 -0.1,0.2 -0.2,0.2 -0.1,0 -0.1,0.1 -0.2,0.3 -0.1,0.2 -0.1,0.1 -0.2,0.2 -0.1,0.1 -0.1,0.2 -0.2,0 0,-0.1 -0.1,-0.1 -0.1,-0.2 0,-0.1 -0.1,0 -0.1,-0.1 0,-0.1 0,-0.1 -0.1,-0.3 -0.1,-0.2 -0.1,-0.1 0,-0.2 0,-0.1 0.1,-0.1 0.1,-0.2 0.1,-0.1 0.2,-0.2 0.2,-0.3 l 0.2,-0.3 c 0.1,-0.2 0.1,-0.1 0.1,-0.3 0,-0.2 0,-0.1 0.1,-0.1 0.1,0 0.2,-0.2 0.3,-0.3 0.1,-0.1 0.2,-0.2 0.2,-0.3 0.1,-0.1 0.1,-0.3 0.2,-0.4 0.1,-0.1 0.2,-0.2 0.2,-0.2 0.1,-0.1 0.2,-0.2 0.3,-0.3 0.1,-0.1 0.2,-0.1 0.3,-0.1 0.1,0 0.1,0 0.2,0 0.1,0 0.1,0 0.1,0.1 0,0.1 0.2,0 0.2,0 0.1,-0.1 0.1,-0.1 0.2,-0.1 0.2,0 0.1,0.1 0.2,0 0.1,-0.1 0.2,-0.2 0.3,-0.3 0.2,-0.1 0.3,-0.3 0.4,-0.5 0.1,-0.2 0.3,-0.4 0.4,-0.5 0.1,-0.1 0.2,-0.2 0.3,-0.3 0.1,-0.1 0.2,-0.3 0.3,-0.4 0.1,-0.1 0.1,-0.3 0.2,-0.4 0,-0.1 0.1,-0.2 0.1,-0.2 0.1,-0.1 0,-0.2 0,-0.3 0,-0.1 0,-0.2 0,-0.3 0,-0.1 0,-0.2 0.1,-0.3 0,-0.1 0,-0.1 0,-0.2 0,-0.1 0,-0.1 0,-0.2 0,-0.1 0,-0.1 -0.1,-0.2 -0.1,-0.1 0,-0.1 0,-0.2 0,-0.1 0,-0.2 -0.1,-0.2 -0.1,-0.1 -0.1,-0.1 -0.1,-0.2 0,-0.1 -0.1,-0.2 -0.2,-0.2 -0.1,-0.1 -0.1,0 -0.2,0.1 -0.1,0.1 -0.1,0.1 -0.2,0.1 -0.1,0 -0.1,0.1 -0.2,0.1 -0.1,0.1 -0.2,0.1 -0.3,0.2 -0.2,0.2 -0.1,0.1 -0.2,0.1 -0.1,0 -0.2,0.1 -0.3,0.2 -0.2,0.1 -0.2,0.1 -0.4,0.2 -0.2,0.1 -0.3,0.1 -0.4,0.3 -0.1,0.2 -0.1,0.1 -0.2,0.3 -0.1,0.2 0,0 0,0.1 0,0.1 -0.1,0.1 -0.1,0.2 0,0.1 -0.1,0.1 0,0.2 0.1,0.1 -0.1,0.1 -0.2,0.2 -0.1,0.1 -0.1,0.1 -0.1,0.2 0,0.2 -0.1,0.1 -0.1,0.3 0,0.2 0,0.1 0,0.1 0,0 0,0 0,0.1 0,0.1 0,0 0,0.1 0,0.1 -0.1,0.1 -0.1,0.2 0,0.1 0,0.1 -0.1,0.2 0,0 -0.1,0.1 -0.1,0.1 0,0.1 0,0.1 0,0.2 0,0.1 0,0.2 0,0.2 0,0.1 0,0.2 0,0.2 0,0 0,0.1 0,0.1 0,0 0,0.1 0,0.1 0,0 0.1,0 0.1,0.1 0,0.1 0,0.1 0,0.2 0,0.1 -0.1,0.1 -0.2,0.1 -0.1,0.1 -0.1,0.2 -0.2,0.3 -0.1,0.1 -0.1,0.2 -0.2,0.3 -0.1,0.2 -0.1,0.2 -0.2,0.3 -0.1,0.1 0,0.1 -0.1,0.2 0,0 -0.1,0.1 -0.1,0.1 -0.1,0 0,0.1 -0.1,0.2 -0.1,0.1 -0.1,0.1 -0.1,0.2 0,0.1 -0.1,0.2 -0.2,0.3 0,0.1 -0.1,0.1 -0.1,0.2 0,0.1 -0.1,0.1 -0.2,0.2 H 118 c -0.1,0.1 0,-0.1 0,-0.2 0,-0.1 0,-0.1 0,-0.2 0,-0.1 0,-0.1 -0.1,-0.2 -0.1,-0.1 0,-0.1 0,-0.2 0,-0.1 0,-0.1 0,-0.1 v -0.1 -0.1 c 0,-0.1 0,-0.1 -0.1,-0.2 0,-0.1 0,-0.1 0,-0.2 0,-0.1 0,-0.1 0,-0.2 0,-0.1 0,-0.1 0,-0.2 0,-0.1 0,-0.2 0,-0.3 0,-0.1 0,-0.1 0,-0.2 0,-0.1 0,-0.1 0,-0.2 0,-0.1 0,-0.1 0,-0.2 0,-0.1 0,-0.2 0,-0.3 0,-0.2 0,-0.2 0,-0.3 0,-0.1 0,-0.1 0,-0.4 0,-0.3 0,-0.2 0.1,-0.2 0.1,0 0.1,-0.2 0.2,-0.3 0.1,-0.1 0.1,-0.2 0.1,-0.2 0,0 0.1,-0.1 0.2,-0.2 0.1,-0.1 0.1,-0.1 0.2,-0.1 0.1,0 0.1,-0.1 0.1,-0.2 0,-0.1 0.1,-0.2 0.1,-0.3 0,-0.1 0.1,-0.2 0.1,-0.2 0.1,-0.1 0.1,-0.1 0.1,-0.2 0,-0.1 0,-0.2 0,-0.3 0,-0.1 0,-0.1 0,-0.2 0,-0.1 0,-0.2 0,-0.2 0,-0.1 0,-0.2 0,-0.2 0,-0.1 0,-0.1 0,-0.2 0,-0.1 0,-0.1 0,-0.2 0,-0.1 0,-0.2 0,-0.3 0,-0.1 0,-0.2 0,-0.3 0,-0.1 0,-0.2 0,-0.3 0,-0.1 0,-0.2 -0.1,-0.3 0,-0.1 -0.1,-0.1 -0.1,-0.2 0,-0.1 -0.1,-0.1 -0.1,-0.2 0,-0.1 0,-0.1 -0.1,-0.2 -0.1,-0.1 -0.1,-0.2 -0.2,-0.3 -0.1,-0.1 0,-0.2 -0.1,-0.2 -0.1,0 -0.1,-0.1 -0.1,-0.2 0,-0.1 -0.1,-0.2 -0.2,-0.2 0,-0.1 0,-0.1 -0.1,-0.2 -0.1,-0.1 0.1,-0.1 0.1,-0.1 0,-0.1 0,-0.3 -0.1,-0.4 -0.1,0 -0.1,-0.1 -0.2,-0.2 0,-0.1 0,-0.1 0,-0.2 0,-0.1 0,-0.2 -0.1,-0.3 -0.1,-0.1 -0.1,0 -0.2,0 -0.1,0 -0.1,0.1 -0.2,0.2 0,0.1 0,0.1 0,0.2 0,0.1 -0.1,0.1 -0.1,0.2 l -0.1,0.1 c 0,0.1 -0.1,0.1 -0.1,0.2 0,0.1 -0.1,0.1 -0.2,0.2 -0.1,0 0,0 -0.1,0.2 -0.1,0.1 -0.1,0.2 -0.2,0.3 -0.1,0.1 -0.1,0.2 -0.2,0.3 0,0.1 -0.1,0.2 -0.1,0.3 0,0.1 -0.1,0.1 -0.1,0.2 l -0.1,0.1 v 0.2 c 0,0 -0.1,0.2 -0.2,0.4 -0.1,0.2 0,0.1 0,0.1 0,0.1 0,0.1 -0.1,0.2 0,0.1 0,0.2 0,0.2 0,0.1 0,0.2 0,0.3 0,0.1 0,0.2 0,0.3 0,0.1 0,0.1 0,0.2 0,0 0,0.1 0,0.1 0,0 0,0.1 0.1,0.2 0,0.1 0,0.2 0.1,0.2 0,0.1 0,0.1 0,0.2 0,0.1 0,0.1 0.1,0.2 0.1,0.1 0,0.1 0,0.2 0,0.1 0,0.1 0,0.2 0,0.1 0,0.1 0.1,0.1 0.1,0 0.1,0 0.1,0.1 0,0.1 0,0.1 0,0.1 0,0 0.1,0.1 0.1,0.2 0,0.1 0.1,0.1 0.1,0.2 0,0.1 0.1,0 0.1,0.1 0,0.1 0.1,0.1 0.2,0.2 0,0.1 0.1,0.1 0.2,0.1 0.1,0 0.1,0 0.2,0 0.1,0 0.1,0 0.2,-0.1 0.1,0 0,-0.1 -0.1,-0.2 l -0.2,-0.2 c 0,-0.1 0,-0.1 -0.1,-0.1 -0.1,0 -0.1,0 -0.1,0 0,0 -0.1,-0.1 -0.1,-0.1 0,-0.1 -0.1,-0.1 -0.2,-0.1 -0.1,0 -0.1,-0.1 -0.1,-0.2 0,-0.1 0,-0.1 0,-0.2 0,-0.1 0,-0.1 0,-0.2 0,-0.1 0,-0.1 0,-0.2 0,-0.1 0,-0.1 -0.1,-0.2 -0.1,-0.1 -0.1,-0.1 -0.1,-0.1 0,-0.1 0,-0.2 0,-0.2 0,-0.1 0,-0.2 -0.1,-0.2 -0.1,0 -0.1,0 -0.1,-0.2 0,-0.2 0,-0.1 0.1,-0.3 0.1,-0.2 0,-0.1 0,-0.2 0,-0.1 0.1,-0.1 0.1,-0.2 0.1,-0.1 0,-0.1 0.1,-0.2 0,-0.1 0.1,-0.2 0.1,-0.3 0,-0.1 0.1,-0.1 0,-0.2 -0.1,-0.1 0.1,-0.1 0.1,-0.1 0,0 0.1,-0.1 0.1,-0.2 0,-0.1 0.1,-0.2 0.1,-0.3 0,-0.1 0.1,-0.2 0.1,-0.2 0,-0.1 0.1,-0.2 0.2,-0.2 0.1,-0.1 0.1,-0.1 0.1,-0.1 0,0 0,-0.1 0,-0.1 0,0 0,-0.1 0.1,-0.2 0.1,-0.1 0.1,-0.1 0.2,-0.2 0.1,-0.1 0.1,0 0.1,0 0,0.1 0,0.1 0.1,0.2 0.1,0.1 0.1,0.1 0.1,0.1 0,0.1 0.1,0.1 0.1,0.2 0,0.1 0,0.1 0.1,0.2 0,0 0.1,0.2 0.1,0.2 0,0 0.1,0.1 0.1,0.1 0,0.1 0,0.1 0.1,0.2 0.1,0.1 0.1,0.2 0.1,0.3 0,0.2 0.1,0.2 0.2,0.3 0.1,0.1 0,0.2 0.1,0.3 0,0.1 0,0.2 0,0.3 0,0.2 0,0.1 0.1,0.2 0,0.1 0,0.2 0,0.3 0,0.1 0,0.2 0,0.3 0,0.2 0,0.1 0.1,0.2 0,0.1 0,0.2 0,0.3 0,0.1 0,0.1 0,0.2 0,0.1 0,0.2 0,0.3 0,0.1 0,0.1 -0.1,0.2 l -0.2,0.2 c -0.1,0.1 -0.1,0.1 -0.2,0.2 0,0.1 -0.1,0.1 -0.1,0.2 0,0 -0.1,0 -0.2,0.1 -0.1,0.1 -0.1,0 -0.1,-0.1 0,-0.1 0,-0.1 -0.1,-0.2 -0.1,-0.1 0,0 -0.1,-0.1 -0.1,-0.1 0,-0.1 -0.1,-0.2 0,0 0,-0.1 0,-0.2 0,0 0,-0.1 -0.1,-0.1 0,0 0,-0.1 0,-0.1 0,0 0,-0.1 0,-0.2 0,-0.1 0,-0.1 0,-0.1 0,0 -0.1,-0.1 -0.1,-0.1 0,0 0,0 0,-0.1 0,-0.1 0,-0.1 0.1,-0.2 0,0 0,-0.1 0,-0.1 0,0 0,-0.1 0,-0.1 l -0.1,-0.2 c 0,-0.1 0,-0.1 -0.1,0 -0.1,0.1 -0.1,0.1 -0.1,0.2 0,0.1 0,0.1 -0.1,0.2 -0.1,0.1 -0.1,0.1 -0.1,0.2 0,0.1 0,0.1 0,0.2 0,0.1 0,0.1 0,0.2 0,0.1 0,0.1 0,0.2 0,0.1 0,0 0.1,0.1 0,0.1 0,0.1 0,0.2 0,0.1 0,0.1 0.1,0.2 0.1,0.1 0,0.2 0.1,0.3 0.1,0.1 0,0.3 0.1,0.4 0.1,0.1 0,0.1 0.1,0.2 0.1,0.1 0,0.1 -0.1,0.2 -0.1,0.1 0,0.1 0,0.2 0,0.1 0,0.1 0,0.2 0,0.1 0,0 -0.1,0.2 -0.1,0.2 0,0.1 0,0.2 0,0.1 0,0.6 0,0.6 0,0 0,0.3 0,0.3 0,0.2 -0.1,0.4 -0.1,0.6 0,0.1 0,0.3 0,0.4 0,0.1 0,0.1 0,0.2 0,0.1 0,0.1 0,0.2 0,0.1 0,0.4 0,0.4 0,0 0,0.1 0,0.1 0,0.1 0,0.1 0,0.2 0,0.1 0,0.1 0,0.2 0,0.1 0,0.2 0,0.3 0,0.1 0,0.2 0.1,0.2 0.1,0 0.1,0.1 0,0.2 -0.1,0.1 0,0.2 0,0.2 0,0 0.1,0 0.1,0.1 0,0.1 0,0.2 0,0.2 0,0.1 0,0.1 0.2,0.1 0.2,0 0.1,0 0.1,0.1 0,0.1 0,0.1 0,0.2 0,0.1 0,0 0.1,0.1 0,0.1 0,0.1 0.1,0.2 0,0.1 0.1,0.1 0.2,0.2 0.1,0.1 0,0.1 0.1,0.1 0.1,0 0.1,0.1 0.1,0.2 0,0.1 0.1,0.2 0.2,0.1 0.1,-0.1 0.1,0 0.1,0.1 0,0.1 0,0.2 -0.1,0.3 -0.1,0.2 -0.1,0.2 -0.1,0.3 0,0.1 0,0.1 0.1,0.3 0.1,0.2 0,0.1 0,0.3 0,0.2 0,0.1 0,0.2 0,0.1 0,0.1 0,0.2 0,0.1 0,0.2 0,0.3 0,0.1 0,0.1 0,0.3 0,0.1 0,0.2 -0.1,0.3 0,0.1 0,0.1 0.1,0.1 0.1,0 0,0.1 0,0.3 0,0.1 0,0.2 0,0.3 0,0.2 0,0.1 0,0.2 0,0.1 0,0.2 0,0.3 0,0.1 0,0.2 0,0.3 0,0.1 0,0.2 0,0.3 0,0.1 0,0.1 0,0.2 0,0.1 0,0.1 0,0.3 0,0.1 0,0.2 0,0.2 0,0.1 0,0.2 0,0.2 0,0.2 0,0.2 0,0.2 0,0.1 0,0.2 0,0.2 0,0.1 0,0.2 0,0.3 0,0.1 0,0.1 0,0.3 0,0.3 0,0.5 0,0.8 0,0.2 0,0.3 0,0.5 0,0.1 0,0.1 0,0.2 0,0.1 0,0.1 0,0.2 0,0.1 0,0.1 0,0.2 0,0.1 0,0.1 0,0.2 0,0.1 0,0 0.1,0.2 0.1,0.2 0,0.2 0,0.3 0,0.1 0,0.1 0.1,0.2 0,0 0,0.1 0,0.1 0,0 0,0.1 0.1,0.2 0.1,0.1 0,0.1 0.1,0.2 0.1,0.1 0,0 0,0.1 0,0.1 -0.1,0 0,0.1 0,0 0.1,0.1 0.1,0.1 0.1,0 0.1,0 0.2,0 0.1,0 0.1,0 0.2,0.1 0.1,0.1 0.1,0 0.2,0.1 0.1,0 0.2,0.1 0.3,0.2 0.1,0 0.2,0.1 0.3,0.1 0.1,0 0.1,-0.1 0.1,-0.2 0,-0.1 0,-0.2 0,-0.3 0,-0.1 0,-0.1 -0.1,-0.2 -0.1,-0.1 -0.1,-0.1 -0.1,-0.2 0,-0.1 0,-0.1 -0.1,-0.2 -0.1,-0.1 -0.1,-0.1 -0.1,-0.2 0,-0.1 -0.1,-0.2 -0.2,-0.3 -0.1,-0.1 -0.1,-0.1 -0.1,-0.2 0,-0.1 0,-0.2 0,-0.3 0,-0.1 0,-0.3 0,-0.4 0,-0.1 0,-0.1 0,-0.2 0,-0.1 -0.1,-0.1 -0.1,-0.3 0,-0.2 0,-0.2 -0.1,-0.3 0,-0.1 0,-0.2 0,-0.3 0,-0.1 0,-0.2 -0.1,-0.3 0,-0.1 0,-0.2 -0.1,-0.3 -0.1,-0.1 0,-0.1 0.1,-0.2 0.1,-0.1 0,-0.1 0,-0.2 v -0.3 c 0,-0.1 0,-0.1 0,-0.2 v -0.2 c 0,-0.1 0,-0.2 0,-0.2 0,-0.1 0,-0.2 0,-0.2 0,-0.1 0,-0.2 0.1,-0.3 0,-0.1 0,-0.2 0,-0.3 0,-0.2 0,-0.2 0.1,-0.2 0.1,0 0.1,0 0,-0.2 -0.1,-0.2 0,-0.1 0,-0.2 0,-0.1 0,-0.1 0,-0.3 0,-0.2 0,-0.2 0.1,-0.3 0.1,-0.1 0.1,-0.1 0,-0.2 -0.1,-0.1 0,-0.1 0,-0.2 0,-0.1 0,-0.1 0,-0.2 0,-0.1 0,-0.2 0,-0.2 0,-0.1 0,-0.1 0,-0.2 0,-0.1 0,-0.2 0,-0.3 0,-0.1 0,-0.2 0.1,-0.2 0.1,-0.1 0,-0.1 0,-0.2 0,-0.1 0,-0.2 -0.1,-0.3 -0.1,-0.1 0,-0.2 0,-0.3 0,-0.1 0,-0.1 -0.1,-0.2 -0.1,-0.1 -0.1,-0.1 0,-0.2 0.1,-0.1 0.1,-0.2 0.2,-0.3 0.1,-0.1 0,-0.1 0,-0.1 0,0 0.1,-0.1 0.2,-0.1 0.1,0 0.1,-0.1 0.1,-0.2 0,-0.1 0.1,-0.1 0.2,-0.2 0.1,-0.1 0.1,0 0.3,0 0.1,0 0.2,0 0.3,0.1 0.1,0.1 0.1,0 0.2,0 0.1,-0.1 0.2,-0.1 0.2,0 0.1,0 0.2,0 0.2,0 0.1,0 0.1,0 0.2,0 0.1,0 0.3,0 0.4,0.1 0.1,0.1 0.1,0 0,0.2 -0.1,0.2 0,0.2 0,0.2 0,0 0,0.1 0,0.2 0,0.1 0.1,0.1 0.1,0.2 0.1,0 0.1,0.1 0.1,0.2 0,0.1 0.1,0.2 0.2,0.2 0.1,0 0.2,0.2 0.3,0.3 0.1,0.1 0.2,0.2 0.3,0.2 0.1,0.1 0.1,0.1 0.2,0.2 0.1,0.1 0.2,0.1 0.3,0.2 l 0.3,0.1 c 0.1,0 0.3,0.1 0.4,0.1 h 0.2 c 0.1,0 0.2,0 0.2,0.1 0,0.1 1,0 1.2,0 0.2,0 0.3,0 0.4,0 0.1,0 0.2,0 0.3,-0.1 0.1,-0.1 0.3,-0.1 0.4,-0.1 0.1,0 0.1,0 0.2,-0.1 0.1,-0.1 0.1,0 0.1,-0.1 0,-0.1 0,-0.1 -0.1,-0.2 -0.1,-0.1 0,-0.1 0,-0.1 0,0 0,-0.1 0,-0.2 0,-0.1 0,-0.2 0,-0.2 0,-0.1 0,-0.1 -0.1,-0.2 -0.1,0 -0.1,-0.1 -0.1,-0.2 -0.1,-0.1 0,-0.1 0,-0.2 0,-0.1 -0.1,-0.1 -0.2,-0.2 -0.1,-0.1 -0.1,-0.1 -0.2,-0.2 l -0.4,-0.2 c -0.1,0 -0.1,-0.2 -0.2,-0.2 -0.1,-0.1 -0.3,-0.2 -0.4,-0.2 -0.1,0 -0.4,-0.1 -0.5,-0.2 -0.2,0 -0.4,-0.1 -0.6,-0.1 -0.2,0 -0.4,-0.1 -0.6,-0.1 h -0.3 c -0.1,0 -0.3,0 -0.4,0.1 -0.2,0.1 -0.3,0 -0.5,0 -0.2,0 -0.4,0 -0.4,0 -0.1,0 -0.2,0 -0.3,0 -0.1,0 -0.2,0 -0.3,0 -0.1,0 -0.2,0 -0.3,-0.1 H 121 c 0,0 0.1,-0.1 -0.2,0 -0.3,0.1 -0.3,0 -0.2,-0.1 0.1,-0.1 0.1,-0.2 0.2,-0.2 0.1,-0.1 0.2,-0.2 0.3,-0.2 0.1,-0.1 0.1,-0.2 0.2,-0.2 0.1,-0.1 0.1,-0.1 0.2,-0.2 0,-0.1 0,-0.1 0.1,-0.2 0.1,-0.1 0.3,-0.2 0.3,-0.2 0,0 0.2,-0.2 0.2,-0.2 0.1,0 0.1,-0.1 0.2,-0.1 0.1,-0.1 0.3,-0.2 0.5,-0.3 0.3,-0.1 0.2,-0.1 0.3,0.1 0.1,0.2 0.2,0 0.3,0.1 0.1,0.1 0.2,0.1 0.3,0.2 0.1,0 0.2,0.2 0.3,0.2 0.1,0 0.3,0 0.4,0 0.1,0 0.2,0 0.3,-0.1 0.1,-0.1 0.2,0 0.3,0 0.1,0 0.2,0.1 0.3,0.1 0.1,0 0.3,0 0.4,0 0.1,0 0.2,0 0.3,0 0.2,0 0.3,0 0.4,-0.1 0.1,-0.1 0.1,-0.1 0.2,-0.1 0.1,-0.1 0.3,-0.1 0.4,-0.2 0.2,-0.1 0.4,-0.1 0.6,-0.2 0.2,-0.1 0.2,-0.2 0.3,-0.2 0.1,0 0.2,-0.1 0.4,-0.3 0.2,-0.2 0.6,-0.6 0.7,-0.6 0.1,-0.1 0.2,-0.1 0.3,-0.2 0.1,0 0.2,-0.1 0.2,-0.2 0.2,-1 0.1,-1 0.1,-1.1 m -9.5,-0.7 c 0,-0.1 0.1,-0.1 0.1,-0.2 0,-0.1 0,-0.2 0,-0.3 0,-0.2 0,-0.1 0,-0.2 0,-0.1 0.1,-0.2 0.2,-0.2 0.1,0 0.1,-0.1 0.1,-0.2 0,-0.1 0.1,-0.1 0.1,-0.2 0.1,0 0.1,0 0.2,-0.1 0,-0.1 0.1,-0.1 0.2,-0.2 0.1,-0.1 0.1,-0.1 0.1,-0.2 0,-0.1 0,0 0.1,-0.1 0.1,0 0.1,-0.1 0.2,-0.2 0.1,-0.1 0.1,0 0.2,-0.2 0.1,-0.1 0.2,-0.2 0.4,-0.3 0.1,-0.1 0.2,0 0.3,-0.2 0.1,-0.2 0.1,0 0.2,-0.1 0.1,-0.1 0.1,-0.3 0.2,-0.1 0,0.1 0.1,0.2 0.1,0.2 0.1,0.1 0.1,0.2 0.1,0.2 0,0 0,0.1 0,0.2 0,0.1 0,0 0,0.2 0,0.2 0,0.1 0.1,0.3 0.1,0.2 0,0.2 -0.1,0.3 -0.1,0.1 0,0.2 -0.1,0.3 -0.1,0.1 0,0 0,0.2 0,0.1 -0.1,0.1 -0.1,0.2 0,0.1 -0.1,0.1 -0.1,0.2 0,0.1 -0.1,0.2 -0.1,0.3 0,0.1 0,0.1 -0.1,0.2 -0.1,0.1 0,0 -0.1,0.1 -0.1,0.1 -0.2,0.1 -0.2,0.2 0,0.1 -0.1,0.2 -0.2,0.2 -0.1,0.1 -0.1,0.1 -0.1,0.2 0,0.1 -0.1,0.1 -0.1,0.2 -0.1,0.1 -0.1,0 -0.2,0.1 -0.1,0.1 -0.1,0.1 -0.2,0.2 -0.1,0.1 -0.1,0.1 -0.2,0.1 0,0 -0.1,0.1 -0.1,0.1 h -0.1 c 0,0 0,0.1 -0.1,0 -0.1,-0.1 -0.1,0 -0.1,-0.1 0,-0.1 0,-0.1 0,-0.2 0,-0.1 0,-0.1 0.1,-0.2 0.1,-0.1 0.1,-0.1 0.1,-0.1 0,0 0.1,-0.1 0.1,-0.1 0,0 0,0 0,-0.1 0,-0.1 0,-0.1 0,-0.2 0,0 0,0 0.1,-0.1 0.1,-0.1 0.1,-0.1 0.2,-0.1 0.1,0 0,-0.1 0,-0.1 0,0 0.1,-0.1 0.1,-0.2 0,-0.1 0,0 0.1,-0.1 0.1,0 0.1,-0.1 0.2,-0.2 0,-0.1 0.1,-0.1 0.1,-0.2 0.1,-0.1 0.1,-0.1 0.2,-0.2 0.1,-0.1 0.1,0 0.1,-0.1 0,-0.1 0.1,-0.2 -0.1,-0.1 -0.1,0.1 -0.2,0.1 -0.3,0.2 -0.1,0.1 -0.2,0.2 -0.3,0.2 -0.1,0 -0.1,0.1 -0.2,0.2 -0.1,0.1 -0.2,0.2 -0.2,0.2 -0.1,0.1 -0.1,0.1 -0.2,0.2 -0.1,0.1 -0.1,0.1 -0.1,0.2 -0.1,0.1 -0.1,0.3 -0.2,0.4 -0.1,0.1 -0.1,0.2 -0.1,0.2 0,0.1 -0.1,0.1 -0.2,0.2 -0.1,0.1 -0.2,0.2 -0.3,0.2 -0.1,0 0,-0.1 0,-0.2 0,-0.1 0,-0.1 0,-0.2 0,0 0,0 0,-0.2 0,-0.1 0,-0.2 0,-0.2 0,-0.1 0,-0.1 0,-0.2 m 2.5,5.2 c 0.1,0 0.1,0 0.2,0 0.1,0 0.2,0 0.2,0 0.1,0 0.1,0.1 0.2,0.1 0.1,0 0.2,0.1 0.2,0.1 0.1,0 0.2,0.1 0.2,0.1 0.1,0 0.1,0.1 0.2,0.2 0.1,0.1 0.2,0 0.2,0.1 0,0.1 0.2,0.2 0.2,0.2 0.1,0 0.1,0.1 0.2,0.1 0.1,0.1 0.1,0.1 0.2,0.1 0.1,0 0.1,0 0.2,0 0.1,0 0.1,0.1 0.2,0 0.1,-0.1 0,-0.2 -0.1,-0.2 -0.1,0 -0.1,0 -0.1,-0.1 0,-0.1 0,-0.1 -0.2,-0.1 -0.2,0 -0.2,-0.2 -0.2,-0.2 l -0.3,-0.2 c -0.1,-0.1 -0.1,-0.2 -0.2,-0.2 -0.1,0 -0.1,-0.1 -0.1,-0.1 0,0 -0.1,-0.1 -0.2,-0.1 -0.1,0 -0.2,-0.1 -0.4,-0.2 -0.2,-0.1 -0.3,-0.1 -0.1,-0.2 0.1,0 0.2,0 0.3,0 0.1,0 0.1,0 0.2,0 0.1,0 0.1,0 0.2,-0.1 0,0 0.1,0 0.2,0 0,0 0.1,0 0.2,0 0.1,0 0.2,0 0.2,0 0.1,0 0.2,0 0.3,0 0.1,0 0.2,0 0.3,0.1 0.1,0.1 0.2,0.1 0.3,0.2 0.1,0.1 0,0.1 0,0.1 0,0 0,0 0.1,0.1 0.1,0 0.1,0.1 0.2,0.2 0,0 0,0 0,0.1 0,0.1 0.1,0 0.1,0.1 0,0 0,0.1 0,0.1 0,0 0.1,0.1 0.1,0.1 0,0 0,0 0.1,0.1 0,0.1 0.1,0.1 0.1,0.2 0,0.1 0.1,0.1 0.1,0.2 0,0.1 0.1,0.1 0.1,0.2 0,0.1 0.1,0 0,0.1 -0.1,0.1 -0.1,0 -0.2,0.1 -0.1,0.1 -0.1,0 -0.2,0.1 -0.1,0.1 0,0 -0.1,0.1 -0.1,0.1 -0.1,0.1 -0.2,0.1 -0.1,0 -0.1,0 -0.1,0 0,0 -0.1,0 -0.1,0 -0.1,0 -0.2,0 -0.3,0 -0.1,0 -0.3,0 -0.4,0 -0.2,0 -0.4,0 -0.5,0 -0.1,0 -0.3,-0.1 -0.4,-0.2 -0.1,-0.1 -0.1,-0.1 -0.2,-0.2 -0.1,-0.1 -0.3,-0.2 -0.4,-0.3 -0.1,-0.1 -0.2,-0.1 -0.3,-0.2 0,-0.1 -0.1,-0.2 -0.1,-0.2 -0.1,-0.1 -0.1,-0.2 -0.2,-0.2 -0.1,0 -0.1,-0.1 -0.1,-0.2 0,-0.1 0,-0.2 0,-0.2 m 6,-4.4 c -0.1,0.1 -0.2,0.2 -0.3,0.3 -0.1,0.1 -0.2,0.2 -0.3,0.3 -0.1,0.1 -0.1,0.1 -0.1,0.2 0,0 -0.1,0 -0.2,0.1 -0.1,0.1 -0.2,0.1 -0.3,0.2 l -0.2,0.2 c -0.1,0.1 -0.1,0.1 -0.2,0.1 -0.1,0 -0.3,0 -0.4,0 -0.1,0 -0.2,0 -0.3,0 -0.1,0 -0.4,0 -0.4,0.1 0,0.1 0,0.1 -0.1,0.1 H 125 c -0.1,0 -0.1,0 -0.2,0 -0.1,0 -0.1,0 -0.2,0 -0.1,0 -0.1,0 -0.1,0 0,0 -0.2,0 -0.3,0 -0.1,0 -0.1,-0.1 -0.2,0 -0.1,0 -0.2,0 -0.3,0 -0.1,0 -0.1,-0.1 -0.2,-0.1 -0.1,0 -0.1,0 -0.1,-0.1 0,-0.1 -0.1,0 -0.1,-0.1 0,-0.1 -0.1,-0.1 -0.1,-0.2 0,-0.1 0.1,0 0.2,-0.1 0.1,-0.1 0.2,-0.1 0.3,-0.2 0.1,-0.1 0.2,0 0.2,-0.1 l 0.1,-0.1 c 0,0 0,0 0.1,0 0.1,0 0.2,0 0.3,0 0.1,0 0.2,0 0.3,0 0.1,0 0.3,0 0.4,0 0.1,0 0.4,0 0.5,0 0.1,0 0.2,0 0.3,-0.1 0.1,0 0.1,-0.1 0.2,-0.1 0.1,0 0.2,0 0.2,-0.1 0.1,0 0.1,0 0.2,-0.1 0.1,-0.1 0,-0.2 -0.2,-0.1 -0.2,0.1 -0.3,0 -0.4,0 -0.1,0 -0.1,0 -0.2,0 h -0.4 c -0.1,0 -0.3,0 -0.4,0 -0.1,0 -0.2,0 -0.3,0 -0.1,0 -0.1,0 -0.2,0 0,0 0,-0.1 -0.1,-0.1 -0.1,0 -0.1,0.1 -0.2,0.1 -0.1,0 -0.2,0 -0.2,0.1 -0.1,0.1 -0.1,0.1 -0.1,0.1 0,0 -0.3,0.1 -0.2,0 0.1,-0.1 0.1,-0.1 0.2,-0.2 0.1,-0.1 0.2,-0.1 0.3,-0.2 0.1,-0.1 0.2,-0.2 0.3,-0.2 0.1,0 0.2,-0.1 0.2,-0.2 0.1,-0.1 0.1,0 0.2,-0.1 0.1,-0.1 0.1,0 0.2,-0.1 0.1,-0.1 0.2,-0.1 0.2,-0.1 0.1,0 0.2,0 0.3,0 0.1,0 0.2,0 0.3,0 0.1,-0.1 0.3,-0.1 0.3,0 0,0.1 0.2,0.1 0.3,0 0.1,0 0.3,0 0.4,0.1 0.1,0 0.4,0.1 0.5,0.2 0.1,0.1 0.2,0 0.3,0.1 0.1,0.1 0,0.1 0.1,0.2 0.1,0.1 0.2,0.1 0.3,0.2 0.1,0 0,0 -0.1,0.2"
                style="display:inline;fill:#093158"/>
        <path
                id="path854"
                class="st1"
                d="m 128.9,96.626141 c -0.1,0 -0.3,0 -0.5,0 -0.2,0 -0.3,0 -0.5,0 -0.1,0 -0.2,0 -0.3,0 -0.1,0 -0.1,0 -0.1,-0.1 -0.1,0 -0.2,0 -0.3,0 -0.1,0 -0.1,0 -0.2,0 -0.1,0 -0.2,0 -0.3,0 -0.1,0 -0.2,0 -0.3,0 -0.1,0 -0.2,0 -0.3,0 -0.1,0 -0.1,0 -0.2,0 -0.1,0 -0.2,0 -0.3,0 -0.1,0 -0.2,0 -0.3,0 -0.1,0 -0.1,0 -0.1,-0.1 0,-0.1 0,0 0,-0.2 0,-0.1 0,-0.2 0,-0.3 0,-0.1 0,-0.2 0,-0.2 0,-0.1 0,-0.1 0,-0.2 0,-0.1 0,-0.1 0.1,-0.1 h 0.2 c 0.1,0 0.1,0 0.1,0 0,0 0.1,0 0.1,0 0,-0.1 0.1,-0.1 0.1,-0.1 0.1,0 0.2,0 0.2,0 0.1,0 0.1,0 0.2,-0.1 0.1,0 0.1,0 0.2,0 0.1,0 0.1,-0.1 0.2,-0.2 0,-0.1 0,-0.1 0,-0.2 0,-0.1 -0.1,-0.2 -0.1,-0.2 -0.1,-0.1 0,-0.1 0,-0.3 0,-0.2 0,-0.1 0,-0.2 0,-0.1 0,-0.1 -0.1,-0.2 0,-0.1 0,0 0,-0.1 0,-0.1 0,-0.1 -0.1,-0.2 0,0 -0.1,-0.1 -0.1,-0.1 0,-0.1 0,0 0,-0.1 0,-0.1 0,-0.1 -0.1,-0.2 -0.1,-0.1 0,0 0,-0.1 0,-0.1 0,-0.1 0,-0.1 0,0 0,-0.1 0,-0.2 0,0 -0.1,-0.2 -0.1,-0.2 0,0 -0.1,0 -0.2,0.1 -0.1,0.1 -0.1,0 -0.2,0 -0.1,0 -0.1,0.1 -0.1,0.1 0,0 -0.1,0 -0.1,0 0,0 -0.1,0 -0.1,0 0,0 -0.1,0 -0.1,0 0,0 -0.1,-0.1 -0.1,0 0,0.1 -0.1,0 -0.2,0 -0.1,0 -0.1,-0.1 -0.1,-0.2 0,-0.1 0,-0.1 -0.1,-0.2 -0.1,-0.1 -0.1,-0.1 -0.2,-0.2 -0.1,-0.1 -0.1,-0.2 -0.2,-0.2 -0.1,-0.1 0,-0.1 -0.1,-0.1 -0.1,0 0.2,-0.2 0.1,-0.3 -0.1,-0.1 -0.1,0 -0.2,-0.1 -0.1,0 -0.1,-0.1 -0.2,-0.1 0,0 -0.1,0 0,0 0.1,0 0,-0.1 0.1,-0.1 0.1,0 0.1,-0.1 0.2,-0.2 0.1,-0.1 0.1,-0.1 0.1,-0.2 0,-0.1 0,-0.1 -0.1,-0.2 0,-0.1 -0.1,-0.1 -0.1,-0.2 0,-0.1 -0.1,-0.1 -0.1,-0.1 0,0 -0.1,-0.1 -0.1,-0.1 0,0 -0.1,-0.1 -0.2,-0.1 -0.1,0 -0.1,0 -0.2,0 -0.1,0 0,0 -0.1,0 -0.1,0 -0.2,0 -0.2,0 0,0 -0.1,0.1 -0.2,0.1 -0.1,0 -0.1,0.1 -0.1,0.2 0,0.1 -0.1,0.1 -0.2,0.1 -0.1,0 -0.1,0 -0.1,0.1 0,0.1 0,0.1 -0.1,0.2 0,0.1 0,0.2 0,0.2 0,0.1 0,0 0,0.2 0,0.1 0,0.2 0.1,0.2 0,0.1 0.1,0.1 0.1,0.1 0,0 -0.1,0 -0.1,0.1 0,0.1 0,0.1 0,0.1 0,0 0,0.1 -0.1,0.1 0,0 -0.1,0.1 -0.1,0.1 -0.1,0.1 -0.1,0.1 -0.2,0.2 -0.1,0.1 -0.1,0.1 -0.2,0.1 -0.1,0 -0.1,0.1 -0.1,0.2 0,0.1 0,0 0,0.2 0,0.2 -0.1,0.1 -0.2,0.3 0,0.1 -0.1,0.3 -0.1,0.4 0,0.1 0,0.1 -0.1,0.2 0,0.1 0,0 0.1,0.1 0.1,0.1 0,0.1 -0.1,0.1 -0.1,0 -0.1,0 -0.2,0.1 -0.1,0 -0.2,0.1 -0.2,0.1 -0.1,0 -0.1,0 -0.2,0 -0.1,0 -0.1,0 -0.2,0 -0.1,0 -0.1,0 -0.2,0.2 -0.1,0.2 0,0.1 0,0.2 0,0.1 0.1,0.1 0.2,0.1 0.1,0 0.2,0 0.2,0.1 0.1,0 0.3,0 0.4,0 0.1,0 0.2,0 0.2,-0.1 0,0 0,0 0.1,0.1 0.1,0.1 0,-0.1 0.1,0 0.1,0.1 0,0 0.1,0.1 0.1,0.1 0,0.1 0,0.2 0,0.1 0,0.1 -0.1,0.2 -0.1,0.1 0,0 0,0.2 0,0.2 0,0 0,0.1 0,0.1 0,0.1 -0.1,0.2 0,0.1 0,0.2 0,0.2 0,0.1 0,0.1 0,0.2 0,0.1 -0.1,0.2 -0.1,0.2 -0.1,0.1 -0.1,0 0,0.1 0.1,0.1 0,0.1 0,0.2 0,0.1 0,0.2 0,0.4 -0.1,0 -0.1,0 -0.2,0.1 -0.1,0.1 -0.2,0 -0.2,0 0,0 -0.1,-0.1 -0.1,0 0,0 -0.1,0 -0.1,0 -0.1,0 -0.1,0 -0.2,0 -0.1,0 -0.1,0 -0.1,0.1 0,0.1 0,0.1 0.1,0.1 l 0.1,0.2 c 0,0 0.1,0.1 0.1,0.1 0,0.1 0,0.1 0,0.1 0,0 0,0 0,0.1 0,0.1 0,0 0,0 0,0 0.2,0 0.2,0 0,0 0,0.1 0.1,0 0.1,-0.1 0.1,0 0.2,0 0.1,0 0.2,0 0.3,-0.1 0.2,0 0.4,0 0.6,0 0.1,0 0.2,0 0.3,0 h 0.4 c 0.1,0 0.1,0 0.2,0 0.1,0 0.1,0 0.3,0 0.2,0 0.3,0 0.5,0 0.2,0 0.3,0 0.4,0 0.1,0 0,0 0.1,0.1 0.1,0.1 0.1,-0.1 0.2,-0.1 0.1,0 0.3,0 0.4,0 0.1,0 0.3,0 0.4,0 h 0.3 c 0.1,0 0.1,0 0.2,0 0.1,0 0.1,0 0.2,0 h 0.1 c 0.1,0 0.2,0 0.3,0 0.1,0 0.1,0 0.2,0 0.1,0 0.3,0 0.4,0 0.1,0 0.3,0 0.4,0.1 0.1,0 0.4,0 0.5,0.1 0.1,0.1 0.1,0 0.1,-0.1 0,-0.1 0,-0.1 0,-0.1 0,0 0.1,0 0.1,-0.1 0.1,-0.1 0.1,-0.1 0.1,-0.1 0,0 0,-0.1 0.1,-0.1 0,0 0.1,-0.1 0.2,-0.1 0.1,0 0.1,0 0.1,-0.1 0,-0.1 0,-0.1 0.1,-0.2 0,-0.1 -0.1,-0.1 -0.2,-0.1 m -5.4,-6 v 0 l 0.2,-0.2 v -0.1 c 0,0 0,0 0.1,-0.1 0,0 0,-0.1 0,-0.1 0,0 0,0 0.1,0 0.1,0 0.1,0 0.1,0 0,0 0,0 0.1,0 0,0 0,0.1 0,0.1 0,0 0,0.1 0,0.1 0,0 0,0.1 0.1,0.1 0.1,0 0,0 0.1,0 0,0 0,0.1 0,0.1 0,0.1 0,0.1 0,0.1 0,0 -0.1,0 -0.1,0.1 0,0 0,0.1 0,0.1 0,0 0,0.1 -0.1,0 0,0 -0.1,0 -0.1,0 0,0 0,0.1 -0.1,0 l -0.1,-0.1 c 0,0 -0.1,-0.1 -0.1,-0.1 0,0 -0.1,0 -0.1,-0.1 -0.1,0.2 -0.1,0.1 -0.1,0.1 0,0 0,-0.1 0,0 0,-0.1 0,-0.1 0,-0.1 0,0 0,-0.1 0,-0.1 m 1.4,5.3 c 0,0.1 0,0.1 0,0.2 0,0.1 0,0.1 0,0.2 0,0.1 0,0.1 -0.1,0.2 0,0.1 0,0 -0.1,0 -0.1,0 -0.1,0 -0.2,0 -0.1,0 0,-0.1 -0.1,0 -0.1,0 -0.1,0 -0.2,0 -0.1,0 -0.1,0 -0.2,0 -0.1,0 -0.2,0 -0.3,0 -0.1,0 -0.1,0 -0.2,0 -0.1,0 0,-0.1 -0.1,0 -0.1,0.1 -0.2,0 -0.3,0 h -0.2 c 0,-0.1 0.1,-0.2 0.1,-0.3 0,-0.1 0,-0.2 0,-0.2 0,-0.1 0,-0.2 0,-0.3 0,-0.1 0,-0.1 0,-0.2 0,-0.1 0,-0.2 0,-0.2 0,-0.1 0,-0.1 0,-0.1 0,-0.1 0,-0.1 0,-0.2 0,-0.1 0,-0.2 0,-0.2 0,-0.1 0,-0.1 0.1,-0.2 0.1,-0.1 0,-0.2 0.1,-0.2 0.1,0 0,-0.1 -0.1,-0.2 -0.1,-0.1 -0.1,-0.2 -0.1,-0.2 0,0 0,-0.1 0,-0.1 v -0.1 -0.4 c 0,0 0,-0.1 0,-0.1 0,0 0,-0.1 0.1,-0.1 0,-0.1 0,-0.1 0,-0.2 0,-0.1 0,-0.1 0,-0.2 0,-0.1 0,-0.1 0,-0.2 0,-0.1 0,-0.1 0,-0.2 0,-0.1 0,-0.1 0.1,-0.1 0.1,0 0.1,-0.1 0.2,-0.1 0.1,0 0.1,-0.1 0.2,-0.1 0.1,0 0.1,-0.1 0.2,-0.1 0.1,0 0.1,-0.1 0.2,-0.1 0.1,0 0.2,0 0.3,0 0.1,0 0.1,0.1 0.2,0.1 0,0 0.1,0.1 0.2,0.1 0.1,0 0.1,0.1 0.1,0.2 0,0.1 0,0.2 0.1,0.2 0,0.1 0,0.1 0.1,0.2 0,0.1 0,0.2 0.1,0.2 0.1,0.1 0.1,0.1 0,0.1 -0.1,0 -0.2,0 -0.2,0.1 -0.1,0.1 -0.1,0.1 -0.2,0.1 -0.1,0.1 -0.1,0.1 -0.2,0.1 -0.1,0 0,0 -0.1,0.1 -0.1,0.1 -0.1,0.1 -0.1,0.2 0,0.1 0.1,0.1 0.1,0.1 0,0 0,0.1 0,0.2 0,0.1 0,0 0.1,0.1 0,0.1 0.1,0.1 0.1,0.2 0,0.1 0,0.1 0.1,0.1 0.1,0 0,0 0,0.1 0,0.1 0,0.1 0,0.1 0,0 0,0.1 0.1,0.2 0.1,0.1 0,0.2 0.1,0.3 0.1,0.1 0,0.1 0,0.3 0,0.2 0.1,0.1 0.1,0.2 0,0.1 0,0.1 0.1,0.2 0.1,0.1 0,0.1 0.1,0.2 0.1,0.1 0.1,0 0.1,0 0.1,0 0.2,-0.1 0.3,-0.1 0.1,0 0.1,0 0,0.1 m -0.3,-0.9 c -0.1,0 -0.2,0 -0.2,0.1 -0.1,0.1 -0.1,0 -0.2,0 -0.1,0 -0.1,0.2 -0.2,0 0,-0.1 -0.1,-0.2 -0.1,-0.3 0,-0.1 0,-0.1 -0.1,-0.2 -0.1,0 -0.1,-0.1 -0.1,-0.2 0,-0.1 0,0 0,-0.2 0,-0.2 0,-0.1 -0.1,-0.2 -0.1,-0.1 -0.1,-0.1 -0.1,-0.2 0,-0.1 0,0 0,-0.2 0,0 0.1,0 0.1,0 0.1,0 0.1,0 0.1,0 0,0 0,-0.1 0.1,-0.1 0.1,0 0.1,0 0.1,0 0,0 0.1,0 0.1,-0.1 0,-0.1 0.1,-0.1 0.1,0 0,0.1 0.1,0.1 0.1,0.2 0,0.1 0,0.1 0,0.2 0,0.1 0,0.1 0,0.2 0,0.1 -0.1,0.1 0,0.2 0.1,0.1 0.2,0.2 0.3,0.1 0.1,-0.1 0.1,0 0.2,-0.1 0,-0.1 0.1,-0.1 0.1,-0.2 0,-0.1 0,-0.1 0,-0.2 0,-0.1 0,-0.1 0,-0.2 0,0 0,0 0,-0.1 0,-0.1 0,-0.1 -0.1,-0.1 -0.1,0 0,-0.1 0,-0.1 0,0 0,-0.2 0,-0.2 0,0 0.1,0.1 0.2,0 0.1,-0.1 0.1,0 0.2,0 0.1,0 0.1,-0.1 0.2,-0.1 0.1,0 0.1,0 0.1,0.1 0,0.1 0,0.1 0,0.2 0,0.1 0.1,0.2 0.1,0.2 0,0 0,0.1 0,0.1 0,0 0.1,0.1 0.1,0.2 0,0.1 0,0.1 0,0.2 0,0.1 0,0.1 0.1,0.2 0.1,0.1 0.1,0.1 0,0.2 -0.1,0.1 -0.2,0.1 -0.2,0.1 -0.1,0 -0.2,0 -0.2,0.1 -0.1,0.1 -0.2,0.1 -0.4,0.1 -0.1,0.3 -0.2,0.3 -0.3,0.3"
                style="display:inline;fill:#093158"/>
        <path
                id="path822"
                class="st1"
                d="m 127.6,98.426141 h -0.2 c 0,0 -0.1,0 -0.1,0 h -0.1 c 0,0 -0.2,0 -0.2,0 -0.1,0 -0.2,0 -0.3,0 -0.1,0 -0.2,0 -0.4,0 -0.1,0 -0.3,0 -0.4,0 -0.1,0 -0.3,0 -0.4,0 -0.1,0 -0.2,0 -0.3,0 -0.1,0 -0.1,0 -0.2,0 -0.1,0 -0.1,0 -0.1,0 0,0 -0.1,0 -0.1,0 h -0.1 c 0,0 0,0 -0.1,-0.1 -0.1,0 -0.1,0 -0.2,0.1 -0.1,0.2 -0.3,0.4 -0.5,0.6 -0.1,0.1 -0.2,0.2 -0.3,0.3 -0.1,0.1 -0.1,0.2 -0.2,0.3 0,0.1 -0.1,0.2 -0.2,0.2 -0.1,0 0,-0.1 -0.1,0 -0.2,0.199999 -0.3,0.299999 -0.5,0.399999 -0.1,0.1 -0.3,0.1 -0.4,0.2 0,0.1 -0.1,0.1 -0.1,0.2 -0.2,0.1 -0.3,0.3 -0.5,0.4 -0.1,0 -0.2,0.1 -0.3,0.1 l -0.2,0.1 c -0.1,0 -0.7,0.1 -0.8,0.1 -0.1,0 -0.3,0.1 -0.4,0.1 -0.1,0 -0.1,0.1 -0.2,0 -0.2,0 -0.4,0 -0.6,0.1 -0.2,0.1 -0.4,0.1 -0.5,0.2 -0.1,0 -0.2,0.1 -0.4,0.1 -0.1,0 -0.6,0 -0.7,0 h -0.2 c -0.1,0 -0.1,0 -0.2,0 -0.2,0 -0.3,0 -0.5,0 -0.1,0 -0.2,0 -0.2,0 -0.1,0 -0.2,0 -0.3,-0.1 -0.1,0 -0.3,0 -0.4,-0.1 -0.1,0 -0.1,0 -0.2,0 -0.1,0 -0.1,-0.1 -0.1,-0.1 h -0.4 -0.3 c -0.1,0 -0.1,-0.1 -0.2,-0.1 -0.1,0 -0.1,0 -0.2,0 -0.1,0 -0.2,0 -0.3,0 -0.1,-0.1 -0.3,-0.1 -0.4,-0.2 -0.1,0 -0.3,-0.2 -0.5,-0.2 -0.2,0 -0.2,0 -0.3,-0.1 0,0 -0.1,-0.1 -0.2,-0.1 0,0 -0.6,-0.4 -0.8,-0.5 -0.1,0 -0.2,-0.1 -0.3,-0.2 l -0.3,-0.299998 c -0.1,-0.1 -0.2,-0.2 -0.3,-0.2 -0.1,-0.1 -0.1,0 -0.1,-0.1 0,-0.1 0,-0.1 -0.1,-0.2 -0.1,-0.1 -0.2,-0.2 -0.3,-0.3 -0.1,-0.1 -0.1,-0.2 -0.2,-0.3 0,-0.1 -0.1,-0.1 -0.1,-0.1 0,0 -0.1,0 -0.1,-0.1 0,-0.1 0,0 0,-0.1 0,-0.1 0,0 0,-0.1 0,-0.1 0,-0.1 -0.1,-0.1 -0.1,0 -0.2,0.1 -0.3,0.1 -0.1,0 -0.2,0 -0.3,0 -0.1,0 -0.2,0 -0.2,0 0,0 -0.1,0 -0.1,0 -0.1,0 -0.1,0 -0.2,0 0,0 -0.1,0 -0.2,0 0,0 -0.1,0 -0.1,0 l -0.1,-0.1 c -0.1,0 -0.2,-0.1 -0.3,-0.1 -0.1,0 -0.1,0 -0.2,0 -0.1,0 -0.2,0 -0.3,0 -0.1,0 -0.1,0 -0.2,0.1 0,0 -0.1,0.1 -0.1,0.1 0,0 0,0 -0.1,0 -0.1,0 -0.2,0 -0.2,0 -0.1,0 -0.1,0 -0.2,0 -0.1,0 -0.2,-0.1 -0.3,0 -0.1,0.1 0,0.3 0.1,0.3 0.1,0 0.1,0.1 0.3,0.2 0.1,0.1 0.2,0.2 0.3,0.2 0.1,0.1 0.1,0.2 0.2,0.1 0.1,-0.1 0.2,0 0.3,0 0.1,0 0.1,0 0.2,-0.1 0.1,0 0.2,0 0.3,0 0.2,0 0.3,0 0.3,0 0,0 0.1,0.1 0.2,0.1 0.1,0 0.1,0 0.1,0 h 0.3 c 0.1,0 0.1,0 0.2,0 0.1,0 0,0 0.1,0.1 0.1,0.1 0.1,0.2 0.2,0.2 0.1,0 0.1,0.1 0.1,0.2 0,0.1 0.1,0.2 0.1,0.3 0.1,0.1 0.2,0.199998 0.2,0.299998 0.1,0.1 0.1,0.2 0.2,0.3 0.1,0 0.1,0 0.2,0 0.1,0 0.1,0.1 0.2,0.1 0.1,0 0.1,0.1 0.2,0.1 l 0.1,0.1 0.1,0.1 0.2,0.1 0.1,0.1 h 0.2 c 0.1,0 0.2,0.1 0.3,0.2 0,0 0,0.1 0.1,0.2 0.1,0.1 0.2,0.1 0.3,0.1 0.1,0 0.1,0 0.2,0 0.1,0 0.2,0.1 0.2,0.1 0,0 0.1,0.1 0.2,0.1 0.1,0 0.6,0.2 0.7,0.2 0.1,0 0.4,0.1 0.5,0.1 0.1,0 0.1,0 0.2,0.1 0.1,0.1 0.3,0 0.3,0 0.1,0 0.2,0 0.3,0 0.1,0 0.1,0.1 0.2,0.1 0.1,0 0.5,0.1 0.6,0.1 0.1,0 0.4,0 0.5,0 0.1,0 0.3,0 0.4,0 0,0 0.1,0.1 0.1,0.1 h 0.3 c 0.1,0 0.3,0 0.3,0 0.1,0 0.2,0 0.3,0 0.1,0 0.1,-0.1 0.2,-0.1 0.1,-0.1 0.1,0 0.2,0 l 0.9,-0.1 0.4,-0.1 c 0.1,0 0.2,-0.1 0.2,-0.1 0,0 0,0 0.1,0 0.1,0 0.3,-0.1 0.5,-0.1 0.1,0 0.2,0 0.3,-0.1 0.1,0 0.1,-0.1 0.2,-0.1 0.1,0 0.1,0 0.1,0 0.2,0 0.5,-0.1 0.7,-0.2 0.1,-0.1 0.3,-0.1 0.4,-0.2 0.1,-0.1 0.3,-0.2 0.4,-0.2 l 0.4,-0.2 c 0.1,-0.1 0.2,-0.1 0.3,-0.2 0.1,-0.1 0.2,-0.1 0.3,-0.2 0.1,-0.1 0.2,-0.1 0.2,-0.2 0.1,-0.1 0.2,-0.2 0.4,-0.3 0.1,-0.1 0.2,-0.199994 0.2,-0.199994 0,0 0.2,-0.1 0.2,-0.2 0,0 0.1,-0.1 0.1,-0.1 0.1,0 0.1,-0.1 0.2,-0.2 0,-0.1 0.2,-0.1 0.2,-0.2 0.1,-0.1 0.1,-0.2 0.2,-0.3 0,-0.1 0,0 0.1,0 0.1,0 0.3,0 0.3,0 0.1,0 0.1,0 0.2,0 0,0 0.1,0 0.1,0 0.2,0 0.4,0 0.6,0 0.1,0 0.2,0 0.3,0 0.1,0 0.2,0.1 0.2,0.1 0,0 0.1,0 0.2,0 0.1,0 0.1,0 0.2,-0.1 0,-0.1 0.2,-0.2 0.2,-0.2 0,-0.1 0.1,-0.1 0.2,-0.2 0,0 0.1,-0.1 0.1,-0.1 0,0 0,-0.1 0.1,-0.1 0.1,0 0,-0.1 0,-0.1 0,0 0,0.2 0,0.2"
                style="display:inline;fill:#093158"/>
        <path
                id="path842"
                class="st1"
                d="m 120.3,77.126141 c 0.1,0 0.2,0.1 0.2,0.2 0,0.1 0,0.1 0.1,0 0.1,-0.1 0.1,0 0.2,0 0.1,0 0.1,0.1 0.2,0 0.1,-0.1 0.1,-0.1 0.1,-0.2 0,-0.1 0,-0.1 0,-0.2 0,-0.1 0,-0.1 0,-0.2 0,-0.1 -0.1,-0.1 -0.1,-0.2 0,-0.1 -0.1,-0.1 -0.2,-0.1 -0.1,0 -0.1,0 -0.2,0 -0.1,0 -0.2,0 -0.2,0 -0.1,0 -0.1,0.1 -0.2,0.1 0,0.1 -0.1,0.1 -0.1,0.2 0,0 0,0.1 0,0.1 0,0.2 0.1,0.3 0.2,0.3"
                style="display:inline;fill:#093158"/>
        <path
                id="path846"
                class="st1"
                d="m 125.5,80.226141 c 0.1,0.1 0.2,0.1 0.3,0.1 0.1,0 0.1,0 0.1,-0.1 0,-0.1 0,0 0.2,-0.1 0.2,-0.1 0.1,-0.1 0.1,-0.2 0,-0.1 0,-0.1 0,-0.2 0,-0.1 0,-0.1 -0.1,-0.2 0,0 -0.1,-0.1 -0.1,-0.1 0,-0.1 -0.1,0 -0.2,-0.1 0,0 -0.1,0 -0.2,0 0,0 -0.1,0.1 -0.2,0.1 -0.1,0 -0.1,0 -0.1,0.1 0,0.1 0,0.1 -0.1,0.1 0,0.1 0,0.1 0,0.2 0,0.1 0,0.1 0.1,0.2 0.1,0.1 0.1,0 0.2,0.2"
                style="display:inline;fill:#093158"/>
        <path
                id="path826"
                class="st1"
                d="m 116.6,99.726141 c -0.1,0 -0.2,0 -0.3,-0.1 -0.1,0 -0.1,0 -0.2,0 -0.1,0 -0.1,0 -0.1,-0.1 -0.1,0 -0.1,0 -0.2,0 -0.1,0 -0.1,0 -0.1,0 -0.1,0 -0.2,0 -0.2,0 -0.1,0 -0.1,0 -0.2,0 -0.1,0 -0.2,0 -0.3,0 -0.1,0 0,0 -0.1,-0.1 -0.1,-0.1 -0.1,-0.1 -0.2,-0.1 -0.1,0 0,0 -0.1,-0.1 -0.1,-0.1 -0.1,0 -0.2,0 -0.1,0 -0.1,-0.1 -0.1,-0.1 0,0 0,-0.1 -0.2,-0.1 -0.1,0 -0.1,-0.1 -0.2,-0.1 -0.1,0 -0.1,0 -0.1,-0.1 0,-0.1 -0.1,-0.1 -0.1,-0.2 -0.1,-0.1 0,-0.1 -0.2,-0.2 -0.2,-0.1 -0.1,-0.1 -0.2,-0.1 -0.1,0 -0.2,0 -0.2,0 -0.1,0 -0.1,0.1 -0.2,0 -0.1,0 -0.2,0 -0.2,0 -0.1,0 -0.1,0 -0.2,0 -0.2,0 -0.2,0 -0.2,-0.1 0,0 -0.1,-0.1 -0.1,0 0,0 0,0 0,0 0,0.1 0.1,0.1 0.2,0.2 0.1,0.1 0.1,0.1 0.2,0.1 0.1,0.1 0.2,0.2 0.3,0.3 0.1,0.1 0.2,0.1 0.3,0.2 0.1,0.1 0.3,0.3 0.4,0.3 0.1,0 0.2,0.2 0.3,0.2 0.1,0 0.5,0.3 0.5,0.3 0.1,0 0.2,0 0.2,0 0.1,0 0.2,0.1 0.2,0.199999 0.1,0 0.3,0.1 0.4,0.1 0.1,0 0.2,0 0.3,0.1 0,0 0.1,0.1 0.2,0.1 0.1,0 0.2,0.1 0.3,0.1 0.1,0 0.2,0 0.3,0 0.1,0 0.3,0 0.4,0.1 0.1,0 0.2,0.1 0.2,0 0,-0.1 0.1,0 0.3,0 h 0.4 c 0.1,0 0.2,0 0.2,0 l 0.2,-0.1 c 0,0 0,0.1 0.1,0.1 0.1,0 0.3,0 0.4,0 l 0.3,-0.1 c 0,0 0.1,0 0.1,0 0.1,0 0.1,0 0.2,0 0.1,0 0.2,-0.1 0.3,-0.1 0.1,0 0.1,0 0.2,-0.1 h 0.1 c 0.1,0 0.2,-0.1 0.3,-0.1 0.1,0 0.2,-0.1 0.3,-0.1 0,0 0.1,0 0.2,0 0,0 0.1,0 0.1,-0.1 0.1,0 0.1,0 0.2,0 0.1,0 0,0 0.2,-0.1 l 0.2,-0.1 c 0,0 0.2,-0.1 0.2,-0.2 h 0.1 l 0.1,-0.1 0.1,-0.1 c 0.1,0 0.1,0 0.2,-0.1 0.1,0 0.2,-0.1 0.2,-0.1 0.1,0 0.2,-0.1 0.3,-0.1 0.1,-0.1 0.1,-0.1 0.1,-0.1 0,0 0,0.1 0.1,0.1 0.1,0 0.2,-0.1 0.2,-0.1 0.1,-0.1 0.1,-0.1 0.1,-0.2 0,-0.1 0.1,0 0.1,-0.1 0,0 0.1,-0.1 0.1,-0.1 0,0 0,-0.1 0.1,-0.1 0,0 0.1,-0.1 0.1,-0.2 0,-0.1 0,-0.1 -0.1,-0.1 0,0 -0.1,0 -0.1,0 0,0 0,0 -0.1,0 0,0 -0.1,0 -0.1,0 -0.1,0 -0.1,0.1 -0.2,0.1 -0.1,0 -0.1,0 -0.1,0 0,0 -0.1,0 -0.1,0 0,0 0,0 -0.1,0 -0.1,0 -0.2,0 -0.2,0 -0.1,0 -0.1,0.1 -0.2,0.1 -0.1,0.1 -0.2,0.1 -0.4,0.1 -0.1,0 -0.2,0.1 -0.3,0.1 -0.1,0 -0.2,0.1 -0.3,0.2 0,0.1 -0.1,0.1 -0.2,0.1 -0.1,0 -0.2,0.1 -0.3,0.2 -0.1,0 0,0.1 -0.1,0 -0.1,-0.1 -0.2,-0.1 -0.4,0 l -0.3,0.2 c 0,0 -0.1,0 -0.1,0 0,0 -0.1,0 -0.1,0 0,0 -0.1,0.1 -0.2,0.1 -0.1,0 -0.2,0 -0.2,0 -0.1,0 -0.2,0.1 -0.4,0.1 -0.1,0.1 -0.3,0 -0.3,0 -0.1,0 -0.2,0.1 -0.3,0.1 -0.1,0 -0.2,0 -0.2,0 -0.1,0 -0.2,0 -0.4,0 h -0.3 c -0.1,0 -0.1,0 -0.2,0 -0.1,0 -0.1,0 -0.2,0"
                style="display:inline;fill:#093158"/>
        <path
                id="path830"
                class="st1"
                d="m 107,97.426141 c 0.1,0 0.1,0 0.2,0 h 0.2 c 0.1,0 0.4,0 0.4,0 0,0 0.1,0 0.1,0.1 0.1,0 0.1,0 0.2,0 0.1,0 0.2,0 0.2,0 h 0.2 c 0.1,0 0.2,-0.1 0.2,0 0,0.1 0.1,0 0.1,0 0,0 0.1,0 0.1,0 0,0 0,0 0,0 0,0 0.2,0 0.3,0 0.1,0 0.2,0 0.3,0 l 0.1,0.1 c 0,0 0.1,0 0.1,0 0,0 0.1,0 0.1,0 0.1,0 0.1,0 0.2,0 0.2,0 0.3,0 0.5,0 0.1,0 0.1,0 0.2,0 0.2,0 0.3,0 0.5,0 0,0 0.1,0.1 0.2,0.1 0.3,0 0.5,0 0.8,0 0.1,0 0,0 0.1,0 0.1,0 0.1,0 0.2,0 0.1,0 0.3,-0.1 0.4,-0.1 0.1,0 0.1,0 0.1,0 0,0 0,0 0,-0.1 0,-0.1 0,-0.1 0,-0.1 0,0 0.1,-0.1 0.1,-0.1 0,-0.1 0,-0.1 0.1,-0.2 0,-0.1 0,0 0.1,-0.1 0,0 0.1,-0.1 0,-0.1 -0.1,0 -0.1,-0.1 -0.1,0 v 0 l -0.2,0.1 c -0.1,0 -0.2,0 -0.3,0 -0.1,0 -0.2,0 -0.3,0 -0.1,0 -0.9,0 -1,0 -0.1,0 0,0 -0.1,0.1 -0.1,0.1 -0.1,0 -0.1,-0.1 0,-0.1 -0.2,0 -0.3,0 -0.1,0 -0.2,0 -0.3,0 -0.1,0 -0.1,0 -0.1,0 0,0 0,-0.1 -0.1,-0.2 0,-0.1 0,-0.2 0,-0.2 0,-0.1 0,-0.1 0,-0.2 0,-0.1 0,-0.2 -0.1,-0.2 0,-0.1 0,-0.1 0,-0.2 0,-0.1 0,-0.1 0,-0.2 0,-0.1 0,-0.1 -0.1,-0.1 0,0 0,-0.1 -0.1,-0.1 0,0 0,-0.1 0,-0.2 0,-0.1 0,-0.2 0,-0.3 0,-0.1 -0.1,-0.1 -0.1,-0.2 0,-0.1 0,-0.1 0,-0.2 0,-0.1 0,-0.1 0,-0.2 0,-0.1 0,-0.1 0.1,-0.1 0.1,0 0,-0.1 0,-0.1 0,0 0.1,-0.1 0.1,-0.1 0.1,-0.1 0.1,-0.1 0.1,-0.2 0,-0.1 0.1,-0.1 0.2,0 0.1,0 0.3,0 0.4,0 0.1,0 0.1,0 0.1,0 0,0 0.1,-0.1 0.2,-0.1 0.1,0 0.2,-0.1 0.2,-0.2 0.1,-0.1 0.1,-0.2 0.2,-0.2 0.1,-0.1 0.1,0 0,0.1 -0.1,0.1 0,0.1 0,0.2 0,0.1 0,0.2 0,0.3 0,0.1 0,0.2 0,0.2 0,0 -0.1,0 -0.2,0 -0.1,0 -0.1,0 -0.2,0 -0.1,0 -0.1,0.1 -0.1,0.1 0,0 0,0.1 0,0.1 0,0 0.1,0 0,0.1 0,0.1 0,0.1 0.1,0.2 0,0.1 0.1,0 0.2,0 h 0.2 c 0.1,0 0,0 0,0.1 0,0.1 0,0 0,0.1 0,0.1 0,0.1 0.1,0.1 0.1,0 0.2,0.1 0.3,0.1 0.1,0 0.1,-0.1 0.1,-0.2 0,-0.1 0,-0.1 0,-0.2 0,-0.1 0,-0.1 0,-0.2 0,-0.1 0,-0.2 0,-0.3 0,-0.1 0,-0.2 0,-0.3 0,-0.1 0,-0.1 0,-0.2 0,0 0,-0.1 0,-0.1 0,0 0,-0.1 0,-0.1 0,0 0,-0.2 0,-0.3 0,-0.1 0,-0.2 0,-0.2 0,-0.1 0,-0.1 0,-0.2 0,0 0,-0.1 0,-0.2 0,-0.1 0,-0.2 0,-0.3 0,-0.1 0,-0.2 0,-0.3 0,0 0,-0.1 0,-0.1 0,0 0.1,-0.1 0.1,-0.1 0,0 0.1,0 0.1,0 0,0 0.1,-0.1 0.1,-0.1 0,0 0.1,-0.1 0.1,-0.2 0,-0.1 0,-0.3 0,-0.3 0,-0.1 0,-0.1 -0.1,-0.2 -0.1,0 -0.1,0 -0.2,0 -0.1,0 -0.1,0 -0.1,0 0,0 -0.1,0 -0.1,0 0,0 -0.1,0 -0.1,0 l -0.1,-0.1 c -0.1,0 -0.1,0 -0.2,0 h -0.1 l -0.2,0.1 c -0.1,0 -0.1,0.1 -0.1,0.2 0,0.1 0,0.1 0,0.1 0,0 0,0.1 0,0.1 0,0 0,0.1 0,0.1 0,0 0,0.1 0,0.1 0,0 0,0.1 0,0.2 0,0.1 0.1,0 0.1,0.1 0,0 0.1,0.1 0.2,0.1 0.1,0 0.1,0 0.2,0 0.1,0 0,0 0,0.1 0,0.1 0,0 -0.1,0.1 -0.1,0.1 0,0 0,0.1 0,0.1 0.1,0.1 0,0.1 -0.1,0 0,0 0,0.1 0,0.1 0,0.1 0,0.1 0,0 0,0 -0.1,0 -0.1,0 -0.1,0.1 -0.1,0.1 0,0 -0.1,0 -0.2,0.1 -0.1,0.1 -0.1,0.1 -0.1,0.2 0,0.1 -0.1,0.1 -0.2,0.1 -0.1,0 -0.1,0 -0.2,0 -0.1,0 -0.2,0.1 -0.3,0.1 -0.1,0 -0.1,0 -0.2,0 0,0 0,0 0,0 0,0 0,-0.1 0,-0.2 0,-0.1 -0.1,-0.1 -0.1,0 0,0.1 -0.1,0 -0.1,0 0,0 -0.1,-0.1 -0.1,-0.1 0,0 -0.1,0 -0.2,0 -0.1,0 -0.2,-0.1 -0.3,-0.2 -0.1,-0.1 -0.2,-0.2 -0.3,-0.3 -0.1,-0.1 -0.2,-0.1 -0.2,-0.2 -0.1,0 0,-0.2 0.1,-0.2 0,-0.1 0.1,-0.1 0.1,-0.2 0,-0.1 0,-0.2 0,-0.2 0,-0.1 0,-0.1 0,-0.1 0,0 0,-0.1 0.1,-0.1 0.1,0 0,-0.1 0,-0.1 0,0 -0.1,0 0,-0.1 0,0 0,-0.1 0,-0.2 0,-0.1 0,-0.1 0,-0.1 0,-0.1 0,-0.1 0,-0.2 0,0 -0.1,0 -0.1,-0.1 0,0 -0.1,-0.1 -0.1,-0.1 0,0 -0.1,0 -0.1,0 0,0 0,-0.1 0,-0.1 0,0 -0.1,-0.1 -0.2,-0.1 -0.1,0 -0.3,0.1 -0.3,0.1 -0.1,0 -0.3,0.1 -0.4,0.2 -0.1,0.1 -0.2,0.2 -0.2,0.4 0,0.1 0,0.2 0,0.3 0,0.1 0,0.1 0.1,0.2 0.1,0.1 0,0.1 0.1,0.1 0.1,0 0,0.1 0,0.1 0,0 0,0.1 0,0.1 0,0 -0.1,0 -0.1,0.1 0,0.1 -0.1,0 -0.2,0 -0.1,0 -0.1,0.1 -0.1,0.1 0,0.1 0,0 0,0.1 0,0.1 -0.1,0 -0.1,0.1 -0.1,0.1 -0.1,0.1 -0.2,0.2 -0.1,0.1 -0.1,0.1 -0.1,0.2 0,0.1 0,0.1 -0.1,0.2 -0.1,0.1 0,0.1 -0.1,0.1 0,0 -0.1,0.1 -0.1,0.1 0,0.1 0,0.1 -0.1,0.2 0,0.1 -0.1,0.1 -0.1,0.2 0,0 0,0.1 0,0.2 0,0.1 0.1,0 0.1,0.1 0,0.1 0,0 -0.1,0 -0.1,0 0,0.1 0,0.1 0,0 0,0.1 0.1,0.1 0,0 0,0.1 0,0.1 0,0 0,0.1 0.1,0.2 0.1,0.1 0.2,0.2 0.3,0.4 0,0.1 0,0.2 0,0.3 0,0.1 0,0.2 -0.1,0.3 0,0.2 -0.1,0.4 -0.1,0.6 0,0.1 0,0.3 0,0.4 0,0.2 0,0.4 -0.1,0.7 0,0.2 0,0.1 0.2,0.3 -0.1,0 -0.2,0 -0.3,0 -0.1,0 -0.3,0 -0.3,0 0,0 -0.2,-0.1 -0.3,-0.1 -0.1,0 -0.2,0 -0.4,0 l -0.3,-0.1 -0.2,0.1 -0.1,-0.1 c -0.1,-0.1 -0.1,0.1 -0.1,0.2 0,0.1 0.4,0.3 0.4,0.7 0.1,0 0.3,0 0.4,0 0.1,0 0.2,0 0.2,0 0.1,0 0.2,0 0.3,0 0.1,0 0.1,0 0.2,0 m 5.3,-6.8 c 0,0 -0.1,0 -0.2,0 0,0 -0.1,0 0,-0.1 0.1,-0.1 0,0 0,-0.1 0,-0.1 0,-0.1 0,-0.1 0,0 0,-0.1 0.1,-0.1 h 0.1 c 0.1,0 0.1,0 0.2,0 0,0 0.1,0 0.1,0 0.1,0 0,0.1 0.1,0.1 0.1,0 0.1,0 0.1,0.1 0,0.1 0,0.1 0,0.1 0,0 0,0 -0.1,0 -0.1,0 0,0 -0.1,0 -0.1,0 -0.1,0.1 -0.3,0.1 m -3.2,-0.6 c 0,-0.1 0,-0.1 0,0 0,-0.1 0.1,-0.1 0,-0.2 -0.1,-0.1 0,-0.1 0,-0.1 0,0 0,0 0,-0.1 0,-0.1 0,0 0.1,0 0,0 0.1,0 0.1,0 0.1,0 0.1,0 0.2,0 0.1,0 0.1,0 0.1,0 0,0 0.1,0 0.1,0.1 0,0.1 0,0.1 0,0.1 0,0 0.1,0.1 0.1,0.1 0,0 0,0 0,0.1 0,0.1 0,0 0,0.1 0,0.1 0,0.1 0,0.2 0,0.1 0,0.1 0,0.2 0,0.1 0,0 -0.1,0.1 -0.1,0.1 -0.1,0.1 -0.2,0.1 -0.1,0 -0.1,0 -0.2,-0.1 0,0 -0.1,-0.1 -0.1,-0.1 l -0.1,-0.1 c 0,0 0,0 0,-0.1 0,0 -0.1,-0.1 -0.1,-0.1 0.1,-0.1 0.1,-0.1 0.1,-0.2 m -0.9,2.3 c 0,-0.1 0,0 0.1,-0.1 0.1,-0.1 0,-0.1 0.1,-0.1 0.1,0 0,-0.1 0,-0.1 0,0 0,-0.1 0,-0.1 0,0 0.1,0 0.1,-0.1 0,-0.1 0.1,-0.1 0.1,-0.2 0,-0.1 0,-0.1 0.1,-0.2 0.1,-0.1 0.1,-0.1 0.2,-0.2 0,0 0.1,-0.1 0.1,-0.2 0,-0.1 0.1,-0.1 0.2,-0.1 0.1,0 0.1,0 0.1,0.1 0,0.1 0,0.1 0,0.2 0,0.1 0.1,0.2 0.2,0.2 0.1,0 0.1,0.2 0.2,0.1 0,-0.1 0.1,-0.1 0.1,-0.1 0,0 0,0 0.1,0.1 0,0.1 0,0.1 0,0.2 0,0.1 0,0.2 0.1,0.2 0,0.1 0,0.1 0.1,0.2 0,0 0.1,0.1 0.1,0.1 0,0.1 0.1,0 0.2,0 0.1,0 0.1,0 0.2,0.1 0.1,0.1 0.1,0 0.1,0 0,0 0,0.1 0,0.2 0,0.1 -0.1,0.1 -0.1,0.2 0,0.1 0,0.2 0,0.2 0,0.1 0,0.1 -0.1,0.2 0,0.1 -0.1,0.2 -0.1,0.3 0,0 0,0 0,0.1 0,0.1 0,0.2 0,0.4 0,0.1 0,0.1 0,0.2 0,0.1 0,0.2 0,0.3 0.1,0.2 0.1,0.3 0.2,0.5 0,0 0,0.1 0,0.2 0,0.1 0,0.1 0,0.2 0,0.1 0,0.1 0,0.1 0,0.1 0,0.1 0,0.2 0,0.1 -0.1,0.1 0,0.2 0.1,0.1 0.1,0.2 0,0.2 -0.1,0 -0.2,0 -0.3,0 -0.1,0 -0.2,0 -0.3,0 -0.1,0 -0.1,0 -0.1,0 -0.1,0 -0.3,0 -0.4,0 -0.1,0 -0.2,-0.1 -0.3,0 -0.1,0.1 -0.1,0.1 -0.2,0.1 0,0 -0.1,0 -0.1,0 v 0 c -0.1,0 -0.2,0 -0.2,0 0,0 0,0 -0.1,0 0,-0.1 0,-0.2 0,-0.2 0,-0.1 0,-0.2 0,-0.2 0,-0.1 0,-0.2 0,-0.3 0,-0.1 0,-0.2 0,-0.3 0,-0.1 0,-0.2 0,-0.3 0,-0.1 0.1,0 0.1,-0.1 0,-0.1 0,-0.1 0,-0.2 0,-0.1 0,-0.2 0,-0.2 0,-0.1 0,-0.1 0,-0.2 0,-0.1 0,-0.1 0,-0.2 0,-0.1 0,-0.1 0.1,0 0.1,0.1 0.1,0.1 0.2,0.1 0.1,0 0.1,0 0.2,0 0.1,0 0.1,0.1 0.2,0.1 0.1,0 0.1,0 0.1,-0.1 0,-0.1 0.1,-0.1 0.1,-0.1 -0.1,-0.1 -0.1,-0.1 -0.1,-0.2 0,-0.1 -0.1,-0.1 -0.1,-0.2 0,-0.1 0,-0.2 -0.2,-0.2 h -0.2 c 0,0 -0.1,-0.1 -0.1,-0.1 l -0.1,-0.1 c -0.1,0 -0.1,0 -0.1,-0.1 0,-0.1 -0.1,-0.1 -0.2,-0.1 -0.1,0 -0.1,-0.1 -0.1,-0.2 0,-0.1 0,-0.2 0,-0.2 0,0 0,0 0,-0.1"
                style="display:inline;fill:#093158"/></g></svg>
