<?xml version="1.0" encoding="utf-8"?>
<!-- Generator: Adobe Illustrator 26.3.1, SVG Export Plug-In . SVG Version: 6.00 Build 0)  -->
<svg version="1.1" id="affiliation" xmlns="http://www.w3.org/2000/svg" xmlns:xlink="http://www.w3.org/1999/xlink" x="0px"
	 y="0px" viewBox="0 0 256 256" style="enable-background:new 0 0 256 256;" xml:space="preserve">
<style type="text/css">
	.st0{fill:#FFFFFF;}
	.st1{display:none;fill:#FFFFFF;}
	.st2{fill-rule:evenodd;clip-rule:evenodd;fill:#9B0A7D;}
	.st3{fill-rule:evenodd;clip-rule:evenodd;fill:#FFFFFF;}
</style>
<rect id="black" width="256" height="256"/>
<circle
   id="background"
   class="st0"
   cx="128"
   cy="128"
   r="128" />
<g id="logo_00000169557994799884142440000017718490564280908447_">
	<g>
		<path class="st2" d="M16.9,90.6h222.3v74.8H16.9V90.6z"/>
		<path class="st3" d="M163.6,90.6h3v53.4h-3V90.6z"/>
		<path class="st3" d="M89.5,111.3h3v54.1h-3V111.3z"/>
		<path class="st0" d="M55.5,144.3c-9.8,0-16.7-6.8-16.7-16.8c0-9.5,7.3-16.6,16.7-16.6c4.6,0,9.4,1.1,12.4,5.1l-4.6,4.5
			c-1.2-1.9-4.2-3.3-7.8-3.3c-5,0-9.5,3.9-9.5,10.2c0,6,3.7,10.5,9.8,10.5c1.8,0,5.8-0.4,8.2-4.7l5,3.7
			C65.3,143,59.9,144.3,55.5,144.3z"/>
		<path class="st0" d="M202.2,144.2c-9.5,0-13.4-5.8-13.4-13.1v-19.3h7.3v18.8c0,5,1.7,7.2,6.1,7.2c4.3,0,5.7-2.3,5.7-7.2v-18.8h7.3
			v19.3C215.3,138,211.8,144.2,202.2,144.2z"/>
		<path class="st0" d="M136.2,143.9l-3.3-7.4h-9.8l-3.3,7.4H112l16-34l16,34H136.2z M128,125.2l-2.8,6h5.7L128,125.2z"/>
	</g>
</g>
</svg>
