<?xml version="1.0" encoding="utf-8"?>
<!-- Generator: Adobe Illustrator 26.3.1, SVG Export Plug-In . SVG Version: 6.00 Build 0)  -->
<svg version="1.1" id="affiliation" xmlns="http://www.w3.org/2000/svg" xmlns:xlink="http://www.w3.org/1999/xlink" x="0px"
	 y="0px" viewBox="0 0 256 256" style="enable-background:new 0 0 256 256;" xml:space="preserve">
<style type="text/css">
	.st0{fill:#FFFFFF;}
	.st1{display:none;fill:#FFFFFF;}
	.st2{fill:#E42F09;}
	.st3{fill:#484847;}
</style>
<rect id="black" width="256" height="256"/>
<circle
   id="background"
   class="st0"
   cx="128"
   cy="128"
   r="128" />
<g id="logo">
	<g>
		<g>
			<path class="st2" d="M167.4,144.5c0.4-1.1,0.7-2.1,1-3.2l27,9.3c3.9-12.6,4.3-26.4,0.5-40.1c-1.2-4.3-2.8-8.5-4.8-12.4l12.4-5.5
				c-4.4-9-10.5-17.5-18.3-24.7c-7.8-7.3-16.7-12.8-26-16.5l-14.3,39.7c-1.8-0.8-3.8-1.5-5.8-2.1l7.8-27.5
				c-9.8-2.8-20.3-3.5-30.8-1.7l1.9,11.9c-1.9,0.3-3.8,0.7-5.7,1.2L107,48c-15.2,3.8-29.6,11.9-41.1,24.3
				C54.4,84.6,47.3,99.5,44.6,115l13.4,1.9c-0.3,1.8-0.6,3.7-0.8,5.6l12,0.8c-0.5,4.4-0.5,8.8,0,13.3l35.7-5.4
				c-0.1-1.9,0-3.8,0.4-5.7c0-0.2,0.1-0.4,0.1-0.6c0-0.2,0.1-0.4,0.1-0.6c0.1-0.5,0.3-1.1,0.4-1.6c0.1-0.2,0.2-0.5,0.2-0.7
				c0.2-0.5,0.4-1.1,0.6-1.6c0.1-0.2,0.2-0.4,0.3-0.6c0.3-0.7,0.7-1.3,1.1-2c0-0.1,0.1-0.2,0.1-0.2c0.4-0.7,0.9-1.3,1.4-1.9
				c0.1-0.1,0.2-0.2,0.3-0.3c0.3-0.4,0.7-0.8,1-1.2c2.5-2.6,5.4-4.5,8.6-5.7c0.6-0.2,1.2-0.4,1.7-0.6c0.1,0,0.2,0,0.3-0.1
				c0.7-0.2,1.4-0.4,2.1-0.5c0.1,0,0.1,0,0.2,0c0.3,0,0.6-0.1,0.8-0.1c0.5-0.1,0.9-0.1,1.4-0.2c0.1,0,0.3,0,0.4,0c0.4,0,0.7,0,1.1,0
				c0.4,0,0.8,0,1.1,0c0,0,0.1,0,0.1,0c0.7,0,1.4,0.1,2.2,0.2c0.1,0,0.2,0,0.3,0c0.8,0.1,1.5,0.3,2.2,0.5c1.7,0.5,3.4,1.1,5,2
				c0.2,0.1,0.4,0.2,0.6,0.4c0.2,0.1,0.5,0.3,0.7,0.4c0.4,0.3,0.9,0.6,1.3,0.9c0,0,0,0,0.1,0c0.1,0.1,0.2,0.2,0.4,0.3
				c0.5,0.4,1,0.8,1.5,1.3c0.6,0.5,1.1,1.1,1.5,1.6c0.1,0.1,0.2,0.2,0.3,0.4c0.4,0.5,0.8,1,1.2,1.6c0,0,0.1,0.1,0.1,0.1
				c0.1,0.1,0.2,0.2,0.3,0.4c0.4,0.5,0.7,1.1,1,1.6c0.1,0.1,0.1,0.3,0.2,0.4c0.3,0.6,0.6,1.3,0.9,1.9c0,0,0,0.1,0,0.1
				c0.3,0.6,0.5,1.3,0.7,2c0,0.1,0.1,0.2,0.1,0.3c0.2,0.6,0.3,1.2,0.4,1.8c0,0.2,0.1,0.5,0.1,0.7c0.1,0.5,0.2,1,0.2,1.6
				c0,0.2,0,0.4,0.1,0.6c0,0.6,0.1,1.2,0.1,1.9c0,0.2,0,0.4,0,0.6c0,0.5-0.1,1-0.1,1.5c0,0.3-0.1,0.6-0.1,0.9c0,0.2-0.1,0.5-0.1,0.7
				c-0.1,0.3-0.1,0.6-0.2,0.9c-0.2,0.9-0.5,1.8-0.8,2.7c-0.2,0.6-0.4,1.1-0.7,1.7c-0.1,0.1-0.1,0.2-0.2,0.4c-1,2.1-2.3,4.1-4,5.9
				c-0.1,0.1-0.2,0.2-0.3,0.3c-2.1,2.2-4.6,3.9-7.2,5c-0.1,0.1-0.3,0.1-0.4,0.2c-0.3,0.1-0.7,0.3-1,0.4c-0.4,0.2-0.9,0.3-1.3,0.4
				c-0.1,0-0.2,0.1-0.3,0.1c-0.6,0.2-1.3,0.3-1.9,0.4c-0.3,0.1-0.6,0.1-0.8,0.1c-0.4,0.1-0.9,0.1-1.3,0.2c-0.3,0-0.6,0-0.8,0.1
				c-0.6,0-1.2,0-1.8,0c-0.1,0-0.2,0-0.4,0c-0.7,0-1.4-0.1-2.1-0.2c-1.1-0.1-2.2-0.4-3.2-0.7L97,208.5c21.6,8.4,45.9,7.5,66.8-2.4
				l-6.2-12.1c4.5-2.1,8.6-4.6,12.5-7.5l-7.6-9.4c2.5-1.8,4.8-3.8,6.9-6l18.1,18c0.6-0.6,1.3-1.3,1.9-1.9
				c7.5-8.1,13.1-17.2,16.9-26.9L167.4,144.5z"/>
			<path class="st2" d="M107.6,167.1l8.7-17.5c-1.5-0.8-2.9-1.9-4.2-3.1c-0.5-0.4-0.9-0.9-1.3-1.3c-0.1-0.1-0.2-0.2-0.3-0.3
				c-0.5-0.6-1-1.2-1.4-1.8c-0.1-0.2-0.2-0.3-0.3-0.5c-0.3-0.5-0.6-1-0.9-1.5c-0.1-0.2-0.3-0.4-0.4-0.7c-0.3-0.6-0.6-1.2-0.9-1.8
				c-0.1-0.1-0.1-0.3-0.2-0.4c-0.3-0.7-0.5-1.3-0.7-2c-0.1-0.3-0.2-0.6-0.2-0.9l-46.6,11.5c0.2,0.6,0.3,1.2,0.5,1.9l-13.1,3.6
				c3.2,11.7,9,22.8,17.3,32.5l19.5-16.5c2.1,2.4,4.3,4.6,6.7,6.6l10.8-12.5C102.8,164.2,105.1,165.8,107.6,167.1z"/>
		</g>
		<g>
			<g>
				<path class="st3" d="M17.8,120.6l0.3-2.1l4.7,0.6l0.7-5.4l-4.7-0.6l0.3-2.1l11.9,1.5l-0.3,2.1l-5.4-0.7l-0.7,5.4L30,120
					l-0.3,2.1L17.8,120.6z"/>
				<path class="st3" d="M19.1,96.7l0.7-2.2l1.6,3L21,98.8L19.1,96.7z M21.9,99l0.6-2.1l12.8-0.9L34.8,98l-3.4,0.2l-1.4,4.6l2.7,2
					l-0.6,2.1L21.9,99z M28.6,101.8l1.1-3.5l-5.5,0.2l0,0L28.6,101.8z"/>
				<path class="st3" d="M34.7,87.6c1.7,0.8,2.9-0.1,3.6-1.6c0.8-1.7,0.3-2.7-0.5-3.1c-0.8-0.4-1.4-0.1-1.8,0.2
					c-0.7,0.6-1.3,1.5-2.5,2.8c-1.4,1.6-2.8,1.6-3.9,1c-2.2-1.1-2.2-3.5-1.2-5.5c1.1-2.2,3.2-3.6,5.5-2.5L33,80.9
					c-1.4-0.6-2.4,0.1-3,1.4c-0.4,0.9-0.7,2.1,0.4,2.7c0.8,0.4,1.4,0.1,2-0.6c0.1-0.1,1.9-2.2,2.4-2.7c1.1-1.2,2.7-1.3,3.8-0.8
					c2.4,1.2,2.3,3.8,1.3,5.9c-1.2,2.5-3.4,3.9-6.1,2.6L34.7,87.6z"/>
				<path class="st3" d="M35.2,69.9l1.2-1.7l4.5,3.2l-1.4-7.5l1.5-2.1l1.1,6.7l8.9,0l-1.5,2.1l-7-0.1l0.4,2.4l3.3,2.3L45,76.9
					L35.2,69.9z"/>
				<path class="st3" d="M47.7,49.4l1.6-1.6l0,3.4l-1,1L47.7,49.4z M58.2,52.2c2.4,2.4,2.9,6,0.4,8.5c-2.5,2.5-6.1,2-8.5-0.4
					c-2.4-2.4-2.9-6-0.4-8.5C52.2,49.2,55.7,49.7,58.2,52.2z M51.5,58.8c1.6,1.6,4,2.5,5.8,0.7c1.8-1.8,1-4.2-0.6-5.8
					c-1.6-1.6-4-2.5-5.8-0.7C49,54.8,49.9,57.2,51.5,58.8z"/>
				<path class="st3" d="M60.5,42.6l1.7-1.2l6,8.3l5-3.6l1.1,1.5l-6.7,4.8L60.5,42.6z"/>
				<path class="st3" d="M73.7,33.9l1.8-1l5.8,10.5l-1.8,1L73.7,33.9z"/>
				<path class="st3" d="M83.4,28.9l2.1-0.8l8.3,6.3l0,0l-3.2-8.2l1.9-0.7l4.3,11.2l-2.1,0.8l-8.3-6.3l0,0l3.2,8.2l-1.9,0.7
					L83.4,28.9z"/>
				<path class="st3" d="M101.2,22.9l2.2-0.4l7.1,7.6l0,0l-1.7-8.7l2-0.4l2.4,11.8l-2.2,0.4l-7.1-7.6l0,0l1.7,8.7l-2,0.4L101.2,22.9
					z"/>
				<path class="st3" d="M130.1,19.8l2.1,0.1l-0.4,12l-2.1-0.1L130.1,19.8z M131.5,16.3l2.3,0.1l-2.5,2.3l-1.4,0L131.5,16.3z"/>
				<path class="st3" d="M151.4,22.3l5.5,1.5c2.5,0.7,3.5,2.2,3,4.2c-0.6,2.2-2.3,2.4-2.7,2.4l0,0c0.7,0.3,1.6,1.1,1.1,2.9
					c-0.4,1.3-0.5,2.6-0.2,3.2l-2.2-0.6c-0.2-0.6,0-1.2,0.1-1.8c0.6-2.1,0.4-3.2-1.5-3.7l-3-0.8l-1.3,4.8l-2-0.5L151.4,22.3z
					 M152.1,28.1l3.3,0.9c1.3,0.3,2.2-0.1,2.5-1.3c0.4-1.5-0.5-2-1.5-2.3l-3.3-0.9L152.1,28.1z"/>
				<path class="st3" d="M169,27.7l7.9,3.5l-0.7,1.7l-6-2.7l-1.3,2.9l5.5,2.5l-0.7,1.6l-5.5-2.5l-1.4,3.2l6.1,2.7l-0.7,1.7l-8-3.6
					L169,27.7z"/>
				<path class="st3" d="M182.9,43.2l0.2-8.6l2,1.3l-0.3,6.2l5.6-2.8l2,1.3l-7.7,3.7l-2.6,3.9l-1.8-1.1L182.9,43.2z"/>
				<path class="st3" d="M198.5,45.5l1.6,1.4l-3.7,4l7.6-0.4l1.9,1.7l-6.8,0.3l-1.1,8.8l-1.9-1.8l1-6.9l-2.4,0.1l-2.7,3l-1.6-1.4
					L198.5,45.5z"/>
				<path class="st3" d="M209,68.3c-1.6,1.3-3.5,2.2-5.7-0.5c-1.6-2-1-3.8,0.7-5.2l0.5-0.4l1.3,1.6l-0.5,0.4
					c-1.1,0.9-1.4,1.6-0.6,2.6c0.9,1.1,1.7,0.8,2.9-0.2l6.4-5.2l1.3,1.6L209,68.3z"/>
				<path class="st3" d="M222.1,73.3l1.1,1.9l-8,10.1l-1.1-1.9l2.2-2.6l-2.4-4.1l-3.3,0.6l-1.1-1.9L222.1,73.3z M215.5,76.3l1.9,3.2
					l3.5-4.2l0,0L215.5,76.3z"/>
				<path class="st3" d="M227.8,83.8l0.8,2l-7.7,6.4l0,0l10-0.7l0.8,2l-12.7,0.7l-0.9-2.2L227.8,83.8z"/>
				<path class="st3" d="M233.9,100.6l0.5,2l-11.6,3.1l-0.5-2L233.9,100.6z M237.6,101l0.6,2.2l-2.9-1.7l-0.4-1.3L237.6,101z"/>
				<path class="st3" d="M236.3,111.3l0.3,2.1l-5.4,0.7l6.1,4.6l0.3,2.6l-5.4-4.1l-6.5,6l-0.3-2.6l5.2-4.6l-1.9-1.5l-4,0.5l-0.3-2.1
					L236.3,111.3z"/>
			</g>
			<g>
				<path class="st3" d="M31.1,149.3l1.4,5.6c0.6,2.5-0.2,4.1-2.2,4.7c-2.2,0.6-3.2-0.8-3.4-1.2l0,0c0.1,0.7-0.2,1.9-2,2.4
					c-1.4,0.3-2.5,0.9-2.9,1.4l-0.6-2.2c0.4-0.4,1.1-0.6,1.6-0.7c2.1-0.5,3-1.2,2.5-3.1l-0.8-3l-4.8,1.2l-0.5-2L31.1,149.3z
					 M26.3,152.7l0.9,3.3c0.3,1.3,1.1,1.8,2.4,1.5c1.5-0.4,1.5-1.4,1.3-2.5l-0.8-3.3L26.3,152.7z"/>
				<path class="st3" d="M35.6,164.7l3.4,7.9l-1.7,0.7l-2.6-6l-2.9,1.2l2.4,5.6l-1.6,0.7l-2.4-5.6l-3.2,1.4l2.6,6.1l-1.7,0.7l-3.5-8
					L35.6,164.7z"/>
				<path class="st3" d="M37.5,184.7l3.8-7.7l1.3,2.1l-2.9,5.6l6.2-0.2l1.3,2l-8.6,0.1l-4,2.5l-1.1-1.8L37.5,184.7z"/>
				<path class="st3" d="M50.5,190.7l1.4,1.6l-4.1,3.6l7.6,0.4l1.7,2l-6.8-0.5l-2.1,8.6l-1.7-2l1.7-6.7l-2.4-0.2l-3,2.7l-1.4-1.6
					L50.5,190.7z"/>
				<path class="st3" d="M61,212.6c-1.4,1.6-3.1,2.8-5.7,0.6c-1.9-1.6-1.6-3.6-0.2-5.3l0.4-0.5l1.6,1.4l-0.4,0.5
					c-0.9,1-1.1,1.9-0.1,2.7c1,0.9,1.8,0.5,2.8-0.7l5.4-6.3l1.6,1.4L61,212.6z"/>
				<path class="st3" d="M74.5,212.2l1.9,1.2L73.9,226l-1.9-1.2l0.7-3.3l-4.1-2.5l-2.6,2.1l-1.8-1.2L74.5,212.2z M70,217.9l3.1,1.9
					l1.2-5.3l0,0L70,217.9z"/>
				<path class="st3" d="M83.1,217.3l2,0.9l-1.1,9.9l0,0l6.7-7.4l2,0.9l-8.6,9.3l-2.1-0.9L83.1,217.3z"/>
				<path class="st3" d="M97.9,223.2l2,0.6l-3.5,11.5l-2-0.6L97.9,223.2z M100.2,220.2l2.2,0.7l-3,1.6l-1.3-0.4L100.2,220.2z"/>
				<path class="st3" d="M106.7,225.6l2.1,0.4l-0.9,5.4l6.2-4.5l2.6,0.4l-5.5,3.9l3.9,8l-2.6-0.4l-2.9-6.3l-2,1.4l-0.7,4l-2.1-0.4
					L106.7,225.6z"/>
				<path class="st3" d="M131.4,227.8l2.1-0.2l0.6,7c0.1,1.6,0.4,3.5,3.1,3.2c2.7-0.2,2.7-2.1,2.5-3.7l-0.6-7l2.1-0.2l0.7,7.7
					c0.3,3.1-1.6,4.8-4.5,5c-2.9,0.3-5-1.1-5.3-4.2L131.4,227.8z"/>
				<path class="st3" d="M147.7,225.9l2.1-0.6l7.5,7.2l0,0l-2.2-8.6l1.9-0.5l3,11.6l-2.1,0.6l-7.5-7.2l0,0l2.2,8.5l-1.9,0.5
					L147.7,225.9z"/>
				<path class="st3" d="M163.5,221l1.9-0.8l4.5,11.1l-1.9,0.8L163.5,221z"/>
				<path class="st3" d="M170.7,218l1.9-1.1l7.2,6.9l0,0L178,214l1.9-1l2.2,12.5l-2,1.1L170.7,218z"/>
				<path class="st3" d="M184.4,209.9l6.9-5.3l1.1,1.4l-5.2,4l1.9,2.5l4.8-3.7l1,1.4l-4.8,3.7l2.1,2.8l5.3-4.1l1.1,1.4l-7,5.3
					L184.4,209.9z"/>
				<path class="st3" d="M195.9,200.5l3.9-4.2c1.8-1.9,3.6-2,5.1-0.6c1.7,1.6,1,3.2,0.8,3.5l0,0c0.6-0.5,1.7-0.9,3.1,0.5
					c1,1,2.1,1.7,2.7,1.7L210,203c-0.6-0.1-1.1-0.6-1.5-1c-1.6-1.5-2.6-1.9-3.9-0.5l-2.1,2.2l3.6,3.4l-1.4,1.5L195.9,200.5z
					 M201.3,202.7l2.4-2.5c0.9-1,0.9-1.9,0-2.8c-1.1-1.1-2-0.5-2.8,0.2l-2.4,2.5L201.3,202.7z"/>
				<path class="st3" d="M213.9,191.8c1.5,1,2.9,0.3,3.8-1c1-1.5,0.7-2.6-0.1-3.1c-0.8-0.5-1.4-0.3-1.8,0c-0.7,0.5-1.5,1.3-2.8,2.4
					c-1.6,1.4-3,1.2-4,0.5c-2-1.4-1.7-3.8-0.4-5.6c1.4-2.1,3.7-3,5.8-1.6l-1.2,1.7c-1.3-0.8-2.4-0.3-3.2,0.9c-0.6,0.8-1,2,0,2.7
					c0.7,0.5,1.4,0.3,2.1-0.3c0.1-0.1,2.2-1.9,2.7-2.3c1.3-1,2.8-0.9,3.8-0.2c2.2,1.5,1.8,4.1,0.4,6.1c-1.6,2.3-3.9,3.3-6.4,1.7
					L213.9,191.8z"/>
				<path class="st3" d="M214.6,175.5l1-1.9l10.7,5.5l-1,1.9L214.6,175.5z"/>
				<path class="st3" d="M218.2,168.3l3.4-9.1l1.7,0.6l-1.3,3.6l9.5,3.6l-0.7,2l-9.5-3.6l-1.3,3.6L218.2,168.3z"/>
				<path class="st3" d="M231,152.2l-8.1,2.9l0.5-2.4l5.9-2l-4.6-4.2l0.5-2.3l6.2,5.9l4.6,1l-0.4,2.1L231,152.2z"/>
			</g>
		</g>
	</g>
</g>
</svg>
