<?xml version="1.0" encoding="utf-8"?>
<!-- Generator: Adobe Illustrator 26.3.1, SVG Export Plug-In . SVG Version: 6.00 Build 0)  -->
<svg version="1.1" id="affiliation" xmlns="http://www.w3.org/2000/svg" xmlns:xlink="http://www.w3.org/1999/xlink" x="0px"
	 y="0px" viewBox="0 0 256 256" style="enable-background:new 0 0 256 256;" xml:space="preserve">
<style type="text/css">
	.st0{fill:#FFFFFF;}
	.st1{display:none;fill:#FFFFFF;}
	.st2{fill:#002147;}
</style>
<rect id="black" width="256" height="256"/>
<circle
   id="background"
   class="st0"
   cx="128"
   cy="128"
   r="128" />
<g id="logo">
	<g>
		<path class="st2" d="M159.8,104.8c0,0,0,35.3,0,37.6c-2.2,0-27.2,0-27.2,0l-0.3,0.8c-0.5,1.2-1.3,2.3-4.3,2.3
			c-3,0-3.8-1.1-4.3-2.3l-0.3-0.8c0,0-24.9,0-27.2,0c0-2.3,0-37.6,0-37.6h-2.5v1.1l-2.4-0.7c-0.3-0.9-1.1-1.6-2.1-1.6
			c-1.2,0-2.2,1-2.2,2.2c0,1.2,1,2.2,2.2,2.2c0.5,0,1-0.2,1.4-0.5l3.1,0.9v3l-2.3-0.4c-0.3-0.8-1.1-1.4-2.1-1.4
			c-1.2,0-2.2,1-2.2,2.2c0,1.2,1,2.2,2.2,2.2c0.6,0,1.2-0.3,1.6-0.7l2.8,0.5v3.1l-2.4-0.1c-0.4-0.7-1.1-1.1-1.9-1.1
			c-1.2,0-2.2,1-2.2,2.2c0,1.2,1,2.2,2.2,2.2c0.7,0,1.4-0.4,1.8-0.9l2.5,0.1v3.3l-2.5,0.1c-0.4-0.6-1.1-0.9-1.8-0.9
			c-1.2,0-2.2,1-2.2,2.2c0,1.2,1,2.2,2.2,2.2c0.8,0,1.5-0.4,1.9-1.1l2.4-0.1v3.1l-2.7,0.5c-0.4-0.4-1-0.7-1.6-0.7
			c-1.2,0-2.2,1-2.2,2.2c0,1.2,1,2.2,2.2,2.2c0.9,0,1.7-0.6,2.1-1.3l2.3-0.4v3l-3,0.9c-0.4-0.3-0.9-0.5-1.4-0.5
			c-1.2,0-2.2,1-2.2,2.2c0,1.2,1,2.2,2.2,2.2c1,0,1.9-0.7,2.1-1.6l2.2-0.7v2.9l-3.3,1.4c-0.4-0.2-0.8-0.4-1.2-0.4
			c-1.2,0-2.2,1-2.2,2.2c0,1.2,1,2.2,2.2,2.2c1.1,0,2-0.8,2.2-1.8l2.3-1v2.7c0,0,26.8,0,28.1,0c1.1,2,3.1,3,6.1,3s5-1,6.1-3
			c1.3,0,28.2,0,28.2,0v-40H159.8z"/>
		<g>
			<ellipse class="st2" cx="109.5" cy="94.3" rx="10.3" ry="2"/>
			<path class="st2" d="M123.7,80l-5.9,4.2l-0.1,0.4l1.4,0.6c0.3,0.1,0.3,0.4,0.1,0.5l-3.7,3.1l-0.4,0l-2.6-3.9
				c-0.2-0.3-0.1-0.5,0.2-0.6l1.8-0.3v-0.4l-4.6-6.5h-0.8l-4.6,6.5v0.4l1.8,0.3c0.3,0.1,0.4,0.3,0.2,0.6l-2.6,3.9l-0.4,0l-3.5-3.1
				c-0.1-0.1-0.1-0.4,0.1-0.5l1.4-0.6l-0.1-0.4L95.4,80l-0.5,0.2l3.6,11.1c1.8-0.8,6.1-1.4,11-1.4c5,0,9.2,0.6,11,1.4l3.6-11.1
				L123.7,80z"/>
		</g>
		<g>
			<ellipse class="st2" cx="128" cy="168.7" rx="10.3" ry="2"/>
			<path class="st2" d="M142.1,154.4l-5.9,4.2l-0.1,0.4l1.4,0.6c0.3,0.1,0.3,0.4,0.1,0.5l-3.7,3.1l-0.4,0l-2.6-3.9
				c-0.2-0.3-0.1-0.5,0.2-0.6l1.8-0.3v-0.4l-4.6-6.5h-0.8l-4.6,6.5v0.4l1.8,0.3c0.3,0.1,0.4,0.3,0.2,0.6l-2.6,3.9l-0.4,0l-3.5-3.1
				c-0.1-0.1-0.1-0.4,0.1-0.5l1.4-0.6l-0.1-0.4l-6.2-4.2l-0.5,0.2l3.6,11.1c1.8-0.8,6.1-1.4,11-1.4c5,0,9.2,0.6,11,1.4l3.6-11.1
				L142.1,154.4z"/>
		</g>
		<g>
			<ellipse class="st2" cx="146.4" cy="94.3" rx="10.3" ry="2"/>
			<path class="st2" d="M160.5,80l-5.9,4.2l-0.1,0.4l1.4,0.6c0.3,0.1,0.3,0.4,0.1,0.5l-3.7,3.1l-0.4,0l-2.6-3.9
				c-0.2-0.3-0.1-0.5,0.2-0.6l1.8-0.3v-0.4l-4.6-6.5H146l-4.6,6.5v0.4l1.8,0.3c0.3,0.1,0.4,0.3,0.2,0.6l-2.6,3.9l-0.4,0l-3.5-3.2
				c-0.1-0.1-0.1-0.4,0.1-0.5l1.4-0.6l-0.1-0.4l-6.2-4.2l-0.5,0.2l3.6,11.1c1.8-0.8,6.1-1.4,11-1.4c5,0,9.2,0.6,11,1.4l3.6-11.1
				L160.5,80z"/>
		</g>
		<g>
			<path class="st2" d="M126.8,110.4c0-3.2-1.1-5.7-3.4-7.1c-1.4-0.9-3.4-1.1-5.8-1.1l-17.6,0v35.5h19.2c4.4,0,7,1,7.2,5h0.4
				L126.8,110.4z M113.8,112.6c0.4,0,0.5-0.1,0.6-0.4c0-0.2,0.1-0.7,0.1-1.4l0.1-1.6c0.1-1,0-1.1-0.6-1.1v-0.3h1.8l1.4,3.1l1.2-3.1
				h1.9v0.3c-0.6,0.1-0.6,0.1-0.6,0.9l0.1,2.6c0,0.9,0,0.9,0.6,0.9v0.3h-2.5v-0.3c0.6-0.1,0.6-0.1,0.6-0.9l0-2.8h0l-1.5,3.9h-0.4
				l-1.4-3.6h0l-0.1,1.7c0,0.7,0,1,0,1.3c0,0.3,0.2,0.4,0.7,0.4v0.3h-1.9L113.8,112.6L113.8,112.6z M118.3,120.3l-0.1-0.1
				c-0.6-0.3-1.4-0.7-1.4-1.5c0-0.9,0.6-1.6,1.9-1.6c0.2,0,0.5,0,0.7,0.1c0.2,0,0.3,0.1,0.4,0.1c0,0.3,0.1,0.7,0.2,1.2l-0.3,0.1
				c-0.2-0.5-0.4-1.1-1.1-1.1c-0.4,0-0.7,0.3-0.7,0.7c0,0.4,0.3,0.6,0.8,0.8l0.2,0.1c0.7,0.3,1.3,0.7,1.3,1.6c0,1-0.8,1.7-2,1.7
				c-0.3,0-0.6-0.1-0.8-0.1c-0.2-0.1-0.4-0.1-0.5-0.2c-0.1-0.4-0.2-0.8-0.3-1.3l0.3-0.1c0.2,0.5,0.6,1.3,1.4,1.3
				c0.4,0,0.7-0.3,0.7-0.8C119.1,120.8,118.8,120.6,118.3,120.3z M113.1,118c0.1,0.4,0.8,2,1,2.7c0.2-0.7,0.7-2.2,0.9-2.5
				c0.2-0.5,0.1-0.6-0.2-0.6l-0.2,0v-0.3h1.9v0.3c-0.4,0.1-0.6,0.1-0.9,0.8c0,0.1-1,2.4-1.6,4h-0.6c-0.5-1.4-1.3-3.3-1.6-4.1
				c-0.3-0.7-0.4-0.7-0.8-0.8v-0.3h2.5v0.3l-0.3,0C113,117.6,113,117.7,113.1,118z M110.9,107.7c1.4,0,2.5,1,2.5,2.6
				c0,1.7-1.1,2.7-2.6,2.7c-1.6,0-2.6-1.2-2.6-2.6C108.1,109.2,109,107.7,110.9,107.7z M102.2,112.9v-0.3c0.6,0,0.6-0.1,0.6-0.9
				v-2.6c0-0.8-0.1-0.9-0.6-0.9v-0.3h2.3c1,0,1.8,0.2,2.3,0.7c0.4,0.4,0.7,0.9,0.7,1.6c0,2-1.5,2.8-3.3,2.8H102.2z M107.4,127
				c-0.5,0-0.6,0.1-0.6,0.9v2.6c0,0.8,0.1,0.9,0.6,0.9v0.3h-2.5v-0.3c0.5,0,0.6-0.1,0.6-0.9v-2.6c0-0.8-0.1-0.9-0.6-0.9v-0.3h2.5
				V127z M107.5,122.3h-2V122c0.3,0,0.5-0.1,0.6-0.4c0-0.2,0.1-0.7,0.1-1.5v-1.4c0-0.6,0-0.7-0.2-0.9c-0.1-0.2-0.3-0.2-0.6-0.2v-0.3
				h1.7l2.6,3.3h0v-1c0-0.8,0-1.3-0.1-1.5c0-0.3-0.3-0.4-0.8-0.4v-0.3h2v0.3c-0.4,0-0.6,0.1-0.6,0.4c0,0.2-0.1,0.7-0.1,1.5v2.9h-0.7
				l-2.9-3.7h0v1.4c0,0.8,0,1.3,0.1,1.5c0,0.3,0.2,0.4,0.8,0.4L107.5,122.3L107.5,122.3z M111.8,131.7h-3.9v-0.3
				c0.6,0,0.7-0.1,0.7-0.9v-2.6c0-0.8-0.1-0.9-0.6-0.9v-0.3h2.5v0.3c-0.6,0-0.6,0.1-0.6,0.9v2.7c0,0.4,0,0.6,0.2,0.7
				c0.1,0.1,0.3,0.1,0.5,0.1c0.3,0,0.6,0,0.8-0.2c0.1-0.1,0.3-0.4,0.4-0.8l0.3,0.1C112,130.7,111.8,131.5,111.8,131.7z M116.1,131.7
				h-3.9v-0.3c0.6,0,0.7-0.1,0.7-0.9v-2.6c0-0.8-0.1-0.9-0.6-0.9v-0.3h2.5v0.3c-0.6,0-0.6,0.1-0.6,0.9v2.7c0,0.4,0,0.6,0.2,0.7
				c0.1,0.1,0.3,0.1,0.5,0.1c0.3,0,0.6,0,0.8-0.2c0.1-0.1,0.3-0.4,0.4-0.8l0.3,0.1C116.4,130.7,116.2,131.5,116.1,131.7z M121,127
				c-0.4,0.1-0.6,0.1-0.9,0.8c0,0.1-1,2.4-1.6,4H118c-0.5-1.4-1.3-3.3-1.6-4.1c-0.3-0.7-0.4-0.7-0.8-0.8v-0.3h2.5v0.3l-0.3,0
				c-0.3,0-0.3,0.1-0.2,0.4c0.1,0.4,0.8,2,1,2.7c0.2-0.7,0.7-2.2,0.9-2.5c0.2-0.5,0.1-0.6-0.2-0.6l-0.2,0v-0.3h1.9L121,127L121,127z
				 M123.5,108.2c-0.5,0-0.6,0.1-0.6,0.9v2.6c0,0.8,0.1,0.9,0.6,0.9v0.3h-2.5v-0.3c0.5,0,0.6-0.1,0.6-0.9v-2.6
				c0-0.8-0.1-0.9-0.6-0.9v-0.3h2.5V108.2z"/>
			<path class="st2" d="M104.5,108.2c-0.2,0-0.3,0-0.3,0.1c0,0,0,0.2,0,0.4v3c0,0.7,0.2,0.8,0.5,0.8c0.7,0,1.4-0.7,1.4-2.1
				C106,108.7,105.2,108.2,104.5,108.2z"/>
			<path class="st2" d="M110.9,112.7c0.7,0,1-0.7,1-2.1c0-1.6-0.6-2.4-1.2-2.4c-0.6,0-1.1,0.7-1.1,2.1
				C109.6,111.6,110.1,112.7,110.9,112.7z"/>
		</g>
		<g>
			<polygon class="st2" points="148.3,128.2 147.8,129.7 148.8,129.7 148.3,128.2 			"/>
			<polygon class="st2" points="150.2,109.4 149.7,110.9 150.7,110.9 150.2,109.4 			"/>
			<path class="st2" d="M145.8,119.6c0,1.4,0.5,2.5,1.3,2.5c0.7,0,1-0.7,1-2.1c0-1.6-0.6-2.4-1.2-2.4
				C146.3,117.5,145.8,118.2,145.8,119.6z"/>
			<path class="st2" d="M138.4,102.2c-2.4,0-4.4,0.3-5.8,1.1c-2.3,1.4-3.4,3.9-3.4,7.1l0,32.3h0.4c0.2-4,2.8-5,7.2-5h19.3v-35.5
				L138.4,102.2z M142.6,107.8h1.7l2.6,3.3h0v-1c0-0.8,0-1.3-0.1-1.5c0-0.3-0.3-0.4-0.8-0.4v-0.3h2v0.3c-0.4,0-0.6,0.1-0.6,0.4
				c0,0.2-0.1,0.7-0.1,1.5v2.9h-0.7l-2.9-3.7h0v1.4c0,0.8,0,1.3,0.1,1.5c0,0.3,0.3,0.4,0.8,0.4v0.3h-1.9v-0.3c0.3,0,0.5-0.1,0.6-0.4
				c0-0.2,0.1-0.7,0.1-1.5v-1.4c0-0.6,0-0.7-0.2-0.9c-0.1-0.2-0.3-0.2-0.6-0.2L142.6,107.8L142.6,107.8z M149.6,119.7
				c0,1.7-1.1,2.7-2.6,2.7c-1.6,0-2.6-1.2-2.6-2.6c0-1.3,0.8-2.7,2.7-2.7C148.5,117.1,149.6,118.2,149.6,119.7z M143.7,122v0.3h-2.5
				V122c0.5,0,0.6-0.1,0.6-0.9v-2.6c0-0.8-0.1-0.9-0.6-0.9v-0.3h2.5v0.3c-0.5,0-0.6,0.1-0.6,0.9v2.6
				C143.1,121.9,143.1,122,143.7,122z M139.6,112.6c0.5,0,0.6-0.1,0.6-0.9v-2.6c0-0.8-0.1-0.9-0.6-0.9v-0.3h2.5v0.3
				c-0.5,0-0.6,0.1-0.6,0.9v2.6c0,0.8,0.1,0.9,0.6,0.9v0.3h-2.5V112.6z M139.7,122v0.3h-2.7V122c0.6,0,0.7-0.1,0.7-0.9v-3.4h-0.1
				c-0.5,0-0.7,0.1-0.9,0.2c-0.1,0.1-0.2,0.3-0.3,0.8H136c0-0.7,0.1-1.2,0.1-1.6h0.2c0.1,0.2,0.2,0.2,0.4,0.2h3.1
				c0.2,0,0.2,0,0.4-0.2h0.2c0,0.3,0,1,0.1,1.6l-0.3,0c-0.1-0.5-0.2-0.7-0.3-0.8c-0.1-0.1-0.4-0.2-0.8-0.2H139v3.4
				C139,121.9,139,122,139.7,122z M134.5,112.9h-1.9v-0.3c0.4,0,0.5-0.1,0.6-0.4c0-0.2,0.1-0.7,0.1-1.4l0.1-1.6c0.1-1,0-1.1-0.6-1.1
				v-0.3h1.8l1.4,3.1l1.2-3.1h1.9v0.3c-0.6,0.1-0.6,0.1-0.6,0.9l0.1,2.6c0,0.9,0,0.9,0.6,0.9v0.3h-2.5v-0.3c0.6-0.1,0.6-0.1,0.6-0.9
				l0-2.8h0l-1.5,3.9h-0.4l-1.4-3.6h0l-0.1,1.7c0,0.7,0,1,0,1.3c0,0.3,0.2,0.4,0.7,0.4L134.5,112.9L134.5,112.9z M141.3,131.7h-2.5
				v-0.3c0.6-0.1,0.6-0.1,0.6-0.9l0-2.8h0l-1.5,3.9h-0.4l-1.4-3.6h0l-0.1,1.7c0,0.7,0,1,0,1.3c0,0.3,0.2,0.4,0.7,0.4v0.3h-1.9v-0.3
				c0.4,0,0.5-0.1,0.6-0.4c0-0.2,0.1-0.7,0.1-1.4l0.1-1.6c0.1-1,0-1.1-0.6-1.1v-0.3h1.8l1.4,3.1l1.2-3.1h1.9v0.3
				c-0.6,0.1-0.6,0.1-0.6,0.9l0.1,2.6c0,0.9,0,0.9,0.6,0.9L141.3,131.7L141.3,131.7z M145.8,131.7h-4v-0.3c0.6,0,0.7-0.1,0.7-0.9
				v-2.6c0-0.8-0.1-0.9-0.6-0.9v-0.3h3.7c0,0.1,0,0.7,0.1,1.3l-0.3,0c-0.1-0.4-0.2-0.6-0.3-0.7c-0.1-0.1-0.4-0.2-0.8-0.2h-0.1
				c-0.3,0-0.3,0-0.3,0.3v1.5h0.4c0.7,0,0.7,0,0.8-0.6h0.3v1.8H145c-0.1-0.7-0.1-0.7-0.8-0.7h-0.4v1.3c0,0.4,0,0.6,0.2,0.7
				c0.1,0.1,0.3,0.1,0.5,0.1c0.3,0,0.7,0,0.8-0.2c0.1-0.1,0.3-0.4,0.4-0.8l0.3,0.1C146,130.7,145.9,131.5,145.8,131.7z M151.3,131.7
				h-2.5v-0.3l0.2,0c0.3,0,0.3-0.1,0.2-0.4l-0.3-0.8h-1.3l-0.2,0.8c-0.1,0.3-0.1,0.4,0.3,0.5l0.2,0v0.3h-1.8v-0.3
				c0.4-0.1,0.5-0.1,0.8-0.7l1.6-4l0.5-0.1l0.5,1.5c0.3,0.9,0.7,1.9,1,2.7c0.3,0.7,0.4,0.7,0.8,0.8L151.3,131.7L151.3,131.7z
				 M153.1,112.9h-2.5v-0.3l0.2,0c0.3,0,0.3-0.1,0.2-0.4l-0.3-0.8h-1.3l-0.2,0.8c-0.1,0.3-0.1,0.4,0.3,0.5l0.2,0v0.3H148v-0.3
				c0.4-0.1,0.5-0.1,0.8-0.7l1.6-4l0.5-0.1l0.5,1.5c0.3,0.9,0.7,1.9,1,2.7c0.3,0.7,0.4,0.7,0.8,0.8L153.1,112.9L153.1,112.9z"/>
		</g>
		<circle class="st2" cx="118.9" cy="194.8" r="2"/>
		<circle class="st2" cx="139.6" cy="198.2" r="2"/>
		<path class="st2" d="M62.1,83L62.1,83L62.1,83z"/>
		<path class="st2" d="M148.2,46L148.2,46L148.2,46z"/>
		<path class="st2" d="M181.2,86.7L181.2,86.7L181.2,86.7z"/>
		<path class="st2" d="M197.1,153.3L197.1,153.3L197.1,153.3z"/>
		<circle class="st2" cx="127.9" cy="50.1" r="2"/>
		<circle class="st2" cx="176.7" cy="69.2" r="2"/>
		<g>
			<path class="st2" d="M76,157.2c0.8,1.1,1.2,2.3,1.2,3.6c0,1.4-0.5,2.6-3,4.4l-7.4,5.3l-1.4-2c0,0,7.6-5.4,7.7-5.5
				c1.3-0.9,1.9-1.6,1.9-2.6c0-0.7-0.2-1.4-0.7-2.1c-0.7-1.1-1.7-1.4-2.5-1.4c-0.8,0-1.6,0.5-3,1.5l-7,4.7l-1.3-1.9l6.6-4.5
				c1.8-1.3,3.3-2.2,4.7-2.2C73.6,154.7,75.1,155.9,76,157.2z"/>
		</g>
		<g>
			<path class="st2" d="M52.3,142.8l14.1-4.9l0.8,2.1l-8.1,9.8l10.2-4l0.8,2.1l-13.9,5.3l-0.8-2.1l8.1-9.8l-10.4,3.6L52.3,142.8z"/>
		</g>
		<g>
			<path class="st2" d="M50.2,131.6l14.7-2.2l0.3,2.4l-14.7,2.2L50.2,131.6z"/>
		</g>
		<g>
			<path class="st2" d="M49.8,113.8l0.1-2.5l14.7,6l-0.1,2.5l-15.1,4.5l0-2.5l12.2-3.4L49.8,113.8z"/>
		</g>
		<path class="st2" d="M63.2,80.5c-2.1,0-3.1,1.2-4.4,3.6l-1.7,3.1l13.1,7.1l1.1-2l-5.5-3l0.3-0.6c0.9-1.7,1.2-1.9,3.6-1.7l4.3,0.4
			l1.2-2.2l-4.9-0.4c-1-0.1-1.8-0.2-2.4,0c-0.2,0.1-0.5,0.2-0.7,0.4c0.1-0.3,0.2-0.5,0.2-0.8c0-0.4-0.1-0.8-0.2-1.2
			c-0.3-0.9-0.9-1.6-1.9-2.1C64.6,80.7,63.9,80.5,63.2,80.5z M60.6,85c0.9-1.6,1.5-2.2,2.4-2.2c0.3,0,0.8,0.1,1.2,0.3
			c0.6,0.3,1,0.8,1.1,1.4c0.1,0.2,0.1,0.4,0.1,0.6c0,0.9-0.5,1.8-1,2.7l-0.3,0.6l-4.2-2.3L60.6,85z"/>
		<g>
			<path class="st2" d="M79.5,59.5l1.9-1.4l9,11.8l-1.9,1.4L79.5,59.5z"/>
		</g>
		<g>
			<path class="st2" d="M87.7,53.7l9.6-5l0.9,1.8l-3.7,2l5.9,11.4l-2.1,1.1l-5.9-11.4l-3.8,2L87.7,53.7z"/>
		</g>
		<g>
			<path class="st2" d="M111.7,44.1l2.5-0.7l-2,10l1.6,5.7l-2.3,0.7l-1.6-5.6l-7.1-7.4l2.4-0.7l5.1,5.3L111.7,44.1z"/>
		</g>
		<g>
			<path class="st2" d="M157.2,64.5l7.6-12.8l7.1,4.2l-1,1.8l-5.1-3l-2.1,3.5l4.8,2.8l-1,1.7l-4.8-2.8l-3.4,5.8L157.2,64.5z"/>
		</g>
		<g>
			<path class="st2" d="M195.4,97.6l5.4-6.5l0.8,2.6l-4,4.6l6,1.3l0.8,2.4l-8.2-2l-5.8,7l-0.8-2.5l4.4-5.1l-6.6-1.5l-0.8-2.4
				L195.4,97.6z"/>
		</g>
		<g>
			<path class="st2" d="M191.2,112.3l14.8-1.2l0.7,8.2l-2,0.2l-0.5-5.9l-4.1,0.3l0.5,5.5l-2,0.2l-0.5-5.5l-6.7,0.5L191.2,112.3z"/>
		</g>
		<path class="st2" d="M197.7,125.5c-1.7,0-3.3,0.5-4.6,1.4c-2.2,1.6-2.7,4-2.7,5.3c0,5,4.7,7,8.3,7c1.7,0,3.3-0.5,4.5-1.4
			c2.5-1.8,2.6-4.5,2.6-5.4C206,128.1,201.9,125.5,197.7,125.5z M198.9,136.9c-2.9,0-6.3-1.6-6.3-4.5c0-1.1,0.4-2.5,1.7-3.4
			c0.9-0.6,2-1,3.3-1c1.5,0,4.1,0.4,5.5,2.3c0.5,0.7,0.7,1.4,0.7,2.3c0,1.1-0.5,2.5-1.7,3.4C201.3,136.6,200.2,136.9,198.9,136.9z"
			/>
		<path class="st2" d="M189.1,76c-1.5,0-3.1,0.5-4.7,1.5c-2.9,1.8-3.9,4.4-3.9,6.3c0,1.2,0.3,2.4,1,3.5c1.6,2.5,4,3.1,5.6,3.1
			c1.5,0,3.2-0.5,4.7-1.5c1.8-1.2,3.9-3.3,3.9-6.3c0-1.2-0.3-2.4-1.1-3.5C193.4,77,191.3,76,189.1,76z M186.8,88.1
			c-1.3,0-2.5-0.6-3.4-1.9c-0.4-0.7-0.6-1.4-0.6-2.1c0-1.7,1.1-3.4,3-4.7c1.3-0.8,2.6-1.2,3.7-1.2c1.4,0,2.6,0.6,3.4,1.9
			c0.5,0.7,0.7,1.5,0.7,2.3c0,1.6-1,3.3-2.9,4.5C189.3,87.7,187.9,88.1,186.8,88.1z"/>
		<path class="st2" d="M148.5,45.3c-3.1,0-5.8,2.1-6.9,5.8c-0.2,0.8-0.4,1.6-0.4,2.4c0,1.5,0.3,2.7,0.9,3.8c1.4,2.5,3.9,3.4,5.8,3.4
			c1.1,0,2.1-0.2,3.1-0.8c2.5-1.4,4.2-4.6,4.2-7.6c0-1.3-0.3-2.6-0.8-3.6C153.1,46.5,150.8,45.3,148.5,45.3z M147.7,58.6
			c-1.1,0-2.6-0.5-3.5-2.1c-0.4-0.8-0.6-1.7-0.6-2.7c0-2.7,1.8-6.4,5-6.4c1.8,0,4.1,1.4,4.1,4.7C152.7,54.3,151.2,58.6,147.7,58.6z"
			/>
		<path class="st2" d="M66,99.3l2,0.6l-2.3,8.2l-14.4-3.9l2.5-8.3l2,0.6l-1.8,6l4,1.1l1.5-5.4l1.9,0.5l-1.5,5.4l4.5,1.2L66,99.3z"/>
		<g>
			<g>
				<path class="st2" d="M69.8,68.2c2.1-2.3,4.2-2.2,4.2-2.2l0.4,2c0,0-1.6,0.1-2.9,1.5c-0.6,0.6-0.8,1.3-0.8,1.9
					c0,0.5,0.2,0.9,0.6,1.2c1,0.9,2.8-0.1,3.9-0.5c0.8-0.4,2.1-0.8,3.3-0.8c0.9,0,1.8,0.3,2.7,1c1,0.9,1.5,2,1.5,3.2
					c0,1.3-0.5,2.4-1.5,3.5c-1.9,2.1-4.5,2.4-4.5,2.4l-0.5-2c1.5-0.3,2.6-0.9,3.3-1.7c0.5-0.6,0.8-1.3,0.8-1.9
					c0-0.6-0.2-1.1-0.7-1.5c-0.4-0.3-0.8-0.5-1.3-0.4c-1,0-2.1,0.5-3,0.9c-1.8,0.7-3.7,1.3-5.4-0.2c-0.9-0.8-1.3-1.8-1.3-2.8
					C68.3,70.5,68.8,69.3,69.8,68.2z"/>
			</g>
		</g>
		<path class="st2" d="M187.2,144.8l5.6,2.5l-0.3,0.6c-0.8,1.7-1.1,2-3.4,2l-4.3,0l-1,2.3l4.9,0c1,0,1.8,0,2.4-0.2
			c0.2-0.1,0.4-0.2,0.6-0.4c0,0.1-0.1,0.3-0.1,0.4c0,0.5,0.1,1.1,0.3,1.6c0.7,1.6,2.5,2.3,3.8,2.3c2.4,0,3.3-1.4,4.4-4
			c0-0.1,1.4-3.2,1.4-3.2l-13.5-6.1L187.2,144.8z M196,153.7c-0.7,0-1.8-0.4-2.2-1.5c-0.1-0.3-0.2-0.6-0.2-0.9
			c0-0.8,0.4-1.7,0.8-2.6l0.3-0.6l4.3,1.9l-0.5,1.1C197.7,153.1,197.2,153.7,196,153.7z"/>
		<path class="st2" d="M179.4,158.9c-1.5,1.9-2.7,3.7-2.7,5.9c0,1.9,0.9,4.1,3,5.8c1.4,1.2,3.1,1.8,4.8,1.8c2.1,0,3.7-0.6,6.3-3.9
			l2.4-3l-11.6-9.3L179.4,158.9z M184.7,170.1c-1.2,0-2.3-0.5-3.5-1.4c-1.2-0.9-2.4-2.4-2.4-4.3c0-1.3,0.7-2.5,1.8-3.9l1-1.2
			l8.5,6.8l-0.6,0.8C187.9,169,186.8,170.1,184.7,170.1z"/>
		<path class="st2" d="M213.3,121.3c0-47-38.3-85.2-85.3-85.2c-47,0-85.3,38.2-85.3,85.2c0,28.2,13.9,54.4,37.2,70.4
			c2.3,8.5,10.1,14.8,19.4,14.8c2.5,0,4.9-0.5,7.3-1.4c3.1,1,6.3,1.9,9.6,2.5c-0.9,2.6-2.2,5-3.5,7.2c0,0,0,0,0.1,0c0,0-0.1,0-0.1,0
			l1.8,1.8c0.5-0.2,1-0.4,1.5-0.4c1.8,0,3.2,1.4,3.2,3.2c0,1.8-1.4,3.2-3.2,3.2c-1.5,0-2.9-1-3.6-2c0,0-0.4,1.4-0.4,3.3
			c0,6.1,6.7,13.1,15.9,16.1c9.3-2.9,15.9-9.9,15.9-16c0-2.1-0.4-3.3-0.4-3.3c-0.7,0.9-1.9,2-3.6,2c-1.8,0-3.2-1.4-3.2-3.2
			c0-1.8,1.4-3.2,3.2-3.2c0.6,0,1.2,0.2,1.7,0.5l1.7-1.7c0,0,0.1,0,0.1,0c-1-2.3-1.7-4.5-2.2-6.5c15.3-2.1,28.3-8.6,38.6-19.4l0,0
			C201,172.8,213.3,148.1,213.3,121.3z M99.3,204.1c-9.7,0-17.6-7.9-17.6-17.6c0-3,0.8-5.9,2.1-8.4c0.9,0.8,1.9,1.7,2.9,2.5
			c-0.9,1.8-1.3,3.8-1.3,5.9c0,5.3,2.7,9.6,7.7,12.6c2.9,1.7,6.2,3.2,9.6,4.6C101.6,204,100.5,204.1,99.3,204.1z M128,178.4
			c-3.7,0-7.3-0.4-10.8-1c-3.4-6.7-10.4-11-17.9-11c-1.9,0-3.6,0.3-5.3,0.7c-14.5-10.8-23.1-27.9-23.1-45.9
			c0-31.5,25.6-57.2,57.2-57.2c31.5,0,57.2,25.7,57.2,57.2S159.5,178.4,128,178.4z M140.7,179.5c-1.7,2.4-2.7,5.8-3,9.3
			c-5.4-1.4-10.3-3.3-14.6-5.2c0.8-1.6,3.1-2.7,4.9-2.7C132.4,180.8,136.6,180.3,140.7,179.5z M122.6,180.6
			c-0.7,0.5-1.3,1.2-1.7,1.9c-2.2-1-4.9-2.4-6.6-3.4C116.7,179.6,120,180.4,122.6,180.6z M99.3,168.8c5.9,0,11.4,3,14.6,7.9
			c-2.8-0.7-5.6-1.7-8.3-2.8l0,0l-0.1-0.1c-1.9-0.9-3.9-1.3-6-1.3c-4.7,0-8.8,2.3-11.4,5.8c-1.1-0.6-2.2-1.2-3.2-1.9
			C88,171.9,93.3,168.8,99.3,168.8z M139.8,213.7c-3.1,0-5.7,2.2-5.7,5.6c0,3.3,2.6,5.6,5.7,5.6c0.5,0,0.9-0.1,1.4-0.2
			c-0.7,4.7-6.2,10-13.3,12.4c-7.1-2.4-12.6-7.7-13.3-12.4c0.4,0.1,0.9,0.2,1.4,0.2c3.4,0,5.7-2.4,5.7-5.6c0-3.1-2.4-5.6-5.6-5.6
			c1-1.8,1.9-3.6,2.6-5.6c3.9,0.7,7.8,1.1,11.3,1.1c2.9,0,5.8-0.2,8.6-0.4c0.4,1.6,0.9,3.3,1.6,5C140,213.8,139.9,213.7,139.8,213.7
			z M130,206.8c-11.4,0-25.7-3.9-35.5-9.7c-3-1.8-6.5-5-6.5-10.6c0-1.5,0.3-2.9,0.8-4.3c3.7,3,7.4,5.9,9.8,7.2
			c0.5,0.3,0.9,0.4,1.5,0.4c1.5,0,2.8-1.2,2.8-2.8c0-1.2-0.6-2.1-1.7-2.6c-2-0.9-6.3-2.6-10.8-5c2.1-2.8,5.4-4.6,9.2-4.6
			c1.7,0,3.4,0.4,4.9,1.1l3.1,1.8c10,6.1,35.6,21.7,66.6,13.1C162.4,201.6,147.9,206.8,130,206.8z M178,187.2
			c-13.9,4.9-26.8,4.6-37.8,2.1c0.4-4.9,2.4-10.2,5.5-11.2c24.3-7.5,42-30.2,42-56.9c0-32.8-26.8-59.6-59.7-59.6
			s-59.7,26.7-59.7,59.6c0,18.3,8.5,35.6,22.9,46.9c-3.4,1.5-6.3,3.9-8.4,6.9c-1.1-0.7-2.1-1.5-3.1-2.3l-0.5,0.5
			c0.6,0.8,1.7,1.8,2.9,3c-1.8,3-2.8,6.4-2.8,10.1c0,0.6,0,1.1,0.1,1.7c-21.4-15.6-34.1-40.4-34.1-66.9c0-45.6,37.1-82.8,82.8-82.8
			s82.8,37.1,82.8,82.8C210.8,147.4,198.8,171.4,178,187.2z"/>
	</g>
</g>
</svg>
