<?xml version="1.0" encoding="utf-8"?>
<!-- Generator: Adobe Illustrator 26.3.1, SVG Export Plug-In . SVG Version: 6.00 Build 0)  -->
<svg version="1.1" id="affiliation" xmlns="http://www.w3.org/2000/svg" xmlns:xlink="http://www.w3.org/1999/xlink" x="0px"
	 y="0px" viewBox="0 0 256 256" style="enable-background:new 0 0 256 256;" xml:space="preserve">
<style type="text/css">
	.st0{fill:#FFFFFF;}
	.st1{display:none;fill:#FFFFFF;}
	.st2{fill:#C81A1A;}
</style>
<rect id="black" width="256" height="256"/>
<circle
   id="background"
   class="st0"
   cx="128"
   cy="128"
   r="128" />
<g id="logo">
	<g id="weuCMJ.tif">
		<g>
			<path class="st2" d="M88.1,96.5c5.49,0,10.92,0,16.64,0c0,0.73,0,1.47,0,2.21c0,12.49-0.04,24.99,0.04,37.48
				c0.01,2.14,0.23,4.35,0.79,6.4c1.66,6.12,6.48,9.18,13.47,8.82c6.2-0.32,10.59-4.07,11.65-10.09c0.29-1.64,0.4-3.33,0.41-4.99
				c0.03-12.49,0.02-24.99,0.02-37.48c0-0.75,0-1.5,0-2.36c5.69,0,11.18,0,16.9,0c0,0.73,0,1.41,0,2.09
				c0,13.05-0.15,26.1,0.04,39.15c0.28,19.37-13.89,27.48-26.83,28.39c-6.52,0.46-12.86-0.2-18.81-3.15
				c-9.37-4.65-14.14-12.43-14.37-22.64c-0.32-14.3-0.1-28.61-0.1-42.92C87.94,97.15,88.03,96.88,88.1,96.5z"/>
			<path class="st2" d="M81.38,96.51c0,4.6,0,9.11,0,13.86c-6.56,0-13.02,0-19.67,0c0,18.08,0,35.91,0,53.89c-5.73,0-11.27,0-17,0
				c0-17.9,0-35.73,0-53.82c-6.65,0-13.11,0-19.7,0c0-4.76,0-9.27,0-13.94C43.76,96.51,62.52,96.51,81.38,96.51z"/>
			<path class="st2" d="M234.57,145.11c-12.97,0-25.76,0-38.89,0c1.47,4.18,3.98,7.16,7.82,8.74c5.9,2.44,11.53,1.73,16.53-2.34
				c0.95-0.78,1.63-0.97,2.76-0.48c3.24,1.42,6.53,2.72,10.02,4.16c-3.82,5.13-8.74,8.08-14.51,9.79
				c-15.56,4.62-30.91-3.98-33.85-19.22c-2.04-10.58,1.44-19.43,10.21-25.68s18.37-6.66,27.67-1.28
				c9.33,5.4,13.34,13.92,12.57,24.65C234.87,143.93,234.72,144.39,234.57,145.11z M196.39,135.14c8.79,0,17.4,0,26.05,0
				c-0.97-4.47-6.63-8.54-12.1-8.81C204.17,126.03,198.1,129.8,196.39,135.14z"/>
			<path class="st2" d="M146.3,174.9c0.33-0.9,0.54-1.54,0.8-2.17c10.81-26.39,21.64-52.78,32.37-79.2c0.8-1.96,1.76-2.6,3.82-2.47
				c3.04,0.19,6.1,0.05,9.46,0.05c-0.38,1-0.63,1.7-0.91,2.39c-10.83,26.46-21.68,52.91-32.47,79.39c-0.62,1.52-1.32,2.15-3.03,2.06
				C153.08,174.79,149.81,174.9,146.3,174.9z"/>
		</g>
	</g>
</g>
</svg>
