<?xml version="1.0" encoding="utf-8"?>
<!-- Generator: Adobe Illustrator 26.5.0, SVG Export Plug-In . SVG Version: 6.00 Build 0)  -->
<svg version="1.1" id="affiliation" xmlns="http://www.w3.org/2000/svg" xmlns:xlink="http://www.w3.org/1999/xlink" x="0px"
	 y="0px" viewBox="0 0 256 256" style="enable-background:new 0 0 256 256;" xml:space="preserve">
<style type="text/css">
	.st0{fill:#FFFFFF;}
	.st1{fill:#515661;}
</style>
<rect id="black" width="256" height="256"/>
<circle id="background" class="st0" cx="128" cy="128" r="128"/>
<g id="logo">
	<g>
		<path class="st1" d="M128,236.8C68,236.8,19.2,188,19.2,128S68,19.2,128,19.2S236.8,68,236.8,128S188,236.8,128,236.8z M128,25.2
			C71.3,25.2,25.2,71.3,25.2,128S71.3,230.8,128,230.8S230.8,184.7,230.8,128S184.7,25.2,128,25.2z"/>
		<path class="st1" d="M147.6,208.4c1.5-0.6,4.2-2.8,4.5-3.7s1.2-0.7,1.4,0s0.8,2.7,1.2,3.3s0.4,1-0.2,1.3c-0.6,0.3-2.3,0.1-3.3,0.7
			c-1,0.6-2.4,0.8-3.2,1.3s-1.4,0.6-2.6,0.6c-1,0-1.7,0.5-2.3,0.6c-0.5,0.1-2.4-0.1-3.2-0.1s-2.2,0.3-2.9,0.3s-1.4-0.6-0.7-1.1
			s1.4-0.7,2.4-0.8c0.8-0.1,2.1-0.4,2.7-0.9c0.6-0.5,0.9-0.9,0.9-0.9s2.2-0.1,3.2-0.2C146.7,208.6,146.1,209.1,147.6,208.4z"/>
		<path class="st1" d="M128.6,168.9c0.9,0.5,3,1.4,3.2,2.3c0.1,0.8-1,3.4-2.3,3.4c-1.2,0-7.1-3.3-6.2-4.8
			C124.8,167,127,168,128.6,168.9z"/>
		<path class="st1" d="M170.2,89.4c-1.6-0.2-3.3-0.8-2.1-2.1c1.3-1.3,1-2.5,1.9-3.4c0.7-0.8,1.4-1.7,1.2-2.5s-1.9-1.9-1-2.7
			c0.8-0.8,2.3-3.1,2.9-4.9c0.6-1.9,3.9-9.4,4.5-11s0.6-3.3,1.4-4.3s4.6-6.7,7.1-7.2c2.2-0.4,3.8,0,3.8,0s5.6,4.2,6.7,5.5
			c1.5,1.6,12.5,15.1,13.9,17.4c0.7,1.1,9.3,17.5,10.4,21.7c0.4,1.5,2.2,6,2.8,8.4c0.2,0.9,2.2,12.9,2.2,12.9s-4.1,2-4.8-0.8
			c-0.4-1.5-1.5-7.5-2-8.7c-0.4-1.2-1.7-3.7-2.1-4.8c-0.3-1.1-1.1-4.2-1.5-5.3c-0.4-1.2-3-7.4-3.6-8.9s-1.1-3.7-1.4-4.3
			c-0.4-0.9-3.1-5.6-0.2-6.3c2.7-0.7-2.8-6.7-4-6.9c-2.7-0.5-8.7-3.1-11-2.4c-0.8,0.2-1.5,1.9-0.9,2.7c0.6,0.8,5.5,1.9,6.7,2.5
			c1,0.5,3.3,1.4,3.1,3.1c-0.1,0.8-1,2.2,0.2,3s3.1,0.8,2.8,3.5s0.4,3.6,1.6,5.2c1,1.4,1.3,3.8,2,5.1c0.5,1.1-3.1,0.4-3.6-0.8
			c-0.6-1.4-2.5-5.7-3.6-6.7c-0.9-0.9-2.5-0.1-2.3,0.9s2.3,5.3,3.4,6.7c1.2,1.6,4.6,2.9,5.5,4.5c0.8,1.6,2.5,3.7,3.1,4.7
			s3,3.3,3.3,7.6c0.2,2.9,1.5,5.8,2,6.8s-1.9,1.3-2.7,0.7c-1.2-1.1-2-2.5-2.1-4.3c-0.1-2.2-1.4-7.7-3.4-10.6
			c-2.4-3.4-3.5-4.6-4.5-5.5c-1-0.8-4.1-3.7-5.1-5c-1.1-1.5-3-4.5-3.6-6.6s-2.7-1.5-3.1,0.3c-0.3,1.7-0.3,3.3,2,5.9
			c2.3,2.7,3,4.7,4.8,5.1c1.9,0.4,2.9,0,4.3,2.5c1.4,2.5,5,8.5,5.2,10c0.2,1.4-3.6,1.1-4.1-0.8c-0.5-1.6-2.1-5.8-2.7-6.8
			c-0.6-1-1.1-2.3-2.3-1.4c-1.2,0.8,0.4,3.2,0.8,4.1c0.4,1.2-1.9,2.1-2.9,0.8c-1-1.2-1.6-3.7-2.3-4.9c-0.5-1-2-2.4-2.6-2.1
			c-1.3,0.6-0.5,3-0.1,4.6s-0.9,2.4-2.1,1.5c-1.6-1.2-1.3-4.3-2.4-5.8c-1-1.4-2.7-2.3-2.9-3.7c-0.2-1.4,0.1-3.4,0.8-4.1
			c1.4-1.3,0.8-2.6,0.6-3.5c-0.2-0.8-0.7-1.5-0.8-2.7c-0.1-1.6,1-1.6,1.4-2.5c0.4-0.8,0.3-2.3,0.1-3.1c-0.3-0.9-1.1-2.2,0.4-2.6
			c1.6-0.4,2.3-0.1,3.3,0.3s3.5,1.9,4.3,1.9s3.8,0.1,3.3-2.4c-0.1-0.7-2.3-2-3.1-1.5c-0.8,0.4-2.4,0.5-3.3-0.2
			c-1.2-0.9-4.5-4.2-4.7-4.6s1.5-4.2,3.2-4.8c1.6-0.6,3.9-1,3.3-2.5c-0.6-1.4-3-1.7-3.6-2.8c-0.6-1-2.3-2.7-3.5-1.9
			c-1.2,0.8-2.7,1-3.5,1.2c-0.8,0.2-2.3,1.4-2.7,3.1c-0.4,1.6-3.9,8.1-4.1,10.2c-0.1,0.8-2.7,2.9-2.3,3.9s1.2,0.6,2.1,0.8
			c0.8,0.2,0.4,1.9-0.6,3.1s-1.1,2.7-1.4,3.3c-0.5,0.9-2.3,0.6-2.6,1.6C172.5,87.7,171.5,88.7,170.2,89.4z"/>
		<path class="st1" d="M183.1,47.4c0,0-6.6,3.5-7.8,4.9c-0.9,1.1-2.3,7.2-2.7,7.8s-0.8,1.7-0.8,2.9c0,1.2,0.2,1.9-0.9,4.7
			c-1.1,2.9-2.1,4.5-2.5,6.8s0.9,3.6-0.2,5.7c-1.1,2.1-2.3,3.3-2.5,4.4s-1.3,2.6-1.7,3.7s-3.6,2.3-2.9,0.2c0.7-2.1,2.6-8.1,3.9-15
			c1.3-7,1.4-10.6,3.8-17.7c2-6.6,10.5-11.5,10.5-11.5L183.1,47.4z"/>
		<path class="st1" d="M160.6,160.2c-0.9,1-2.4,2.3-3.5,3s-1.4,2.6-1.5,4.1s2.4,2.9,3.1,2.7c0.7-0.2,0.5-1.6,0.2-3
			c-0.3-1.3,0.6-2.5,1.7-2.7c1.1-0.2,1,1.2,1.9,3.8c0.8,2.6,3,3.8,4.1,3.9c1.1,0.1,2.4-0.2,4.7,0.4c2,0.4,3.6,0.9,3.4,2.2
			c-0.2,1.2,0.8,3,1.5,2.8s1.9-1.9,1.6-2.7c-0.2-0.8-3-3.7-5.5-4.8s-3.7-1.2-5.2-3.3s-0.7-5.6-0.5-8.2c0.2-2.7-0.8-3.5-2.3-3.3
			c-1.4,0.2-2.4,0.8-2.2,2.4C162.4,158.5,161.5,159.1,160.6,160.2z M144.5,169.9c-2.3-0.5-1.9,0.6-1.7,1.2c0.1,0.7,1.4,1.9,1.7,2.3
			c0.3,0.4-0.6,3.3,1.9,2.3c0.6-0.2,1,0.6,1.6,1.4c0.6,0.9,0.4,2,0.3,2.7c-0.1,0.7,1.3,1.1,2.2,2.1c1.5,1.6,4.4,2,6.5,2
			c2,0,4.8-0.1,7-1.2c1.6-0.9,4.6-1.7,5.6-2.1c0.9-0.4,2.9,0.5,3.6,0.1c1-0.5,0.5-1.7,0-2.4s-2-0.9-2.7-0.7
			c-0.7,0.1-1.6-0.1-2.8-0.5s-1.7-1-3.6-0.5c-1.7,0.5-6.1,0.5-8-0.3c-2-0.8-3.1-3.1-3.7-4.4c-0.6-1.4-2.5,0.1-3.5-0.1
			C148,171.5,146.5,170.3,144.5,169.9z M155.7,193.4c0.1,1.1,0.9,2.8,1.3,3.3c0.4,0.5,2,2.5,3.1,2.8c0.7,0.2,2.9-0.3,3.9-0.4
			c1.7-0.2,2.2-2.7,0.1-3.2c-1.4-0.3-2.7-0.7-3.1-2.6c-0.4-2.1-0.3-2.9-2.4-2.8C157.6,190.5,155.6,190.6,155.7,193.4z M166.2,188.3
			c1-0.4,5.7-0.5,6.3-0.3s1.7,1.4,2.2,2.4c0.1,0.3,1.7,2.8,1.1,3.9c-0.6,1.1-1.2,2-1.1,3.3c0.1,1.1,1.3,1.7,2.9,1.1
			c1.5-0.7,0.7-1.6,2.6-2.6c0.7-0.4,0.5-4.4,0.5-4.9s-0.8-2.9-1.3-3.5s-1.6-1.3-1.9-1.9c-0.1-0.6-0.6-1.7-1.9-1.7
			c-1.2-0.1-6.1,0.5-7.9,1.1c-1.9,0.6-2.7,2-3,2.5C164.6,188.1,164.7,188.9,166.2,188.3z M202.8,155.5c-0.3,0.4-1,1.1-0.6,2.2
			c0.3,0.8,1.9,2.8,2.7,3.9c0.8,1.1,1.2,5.7,0.5,8.1c-0.4,1.4,1.1,2,1.3,3.5c0.2,1.6-1.5,1.7-1.5,2.4c0,0.6,1.3,3.1-0.1,4.7
			c-0.9,1.1-0.2,4.5,0.7,4.5c1.3,0.1,3.3-1.9,4.2-2.9c0.8-0.9,4-6.6,3.5-7.9c-0.8-1.9-2.2-1.6-1.9-3.6c0.1-0.9,1.2-3.2,0.9-3.9
			s-0.8-0.8-1.9-2.4c-1-1.5-1.4-3.4-1.7-4.3c-0.3-0.9-1.2-2.3-1.5-2.4c-0.3-0.1-0.5-0.3-1-0.8C205.7,156.1,204.4,154.6,202.8,155.5z
			 M214.5,153.5c-1.5-1-2-3.2-2.4-3.8s-3.1-4.6-4-5c-1-0.4-3.8-3.8-6.8-5.3s-5.6-1.1-9.1-0.8s-9.5,4.2-10.5,4.4s-2.2-1.3-3.4-2
			c-1.2-0.6-2-0.2-3.3-0.6c-1.3-0.4-1.6-0.9-3.2-1.7c-1.5-0.8-2.4-0.4-3.6,0.1c-1.2,0.5,0.2,1.5,1.6,2.1c1.4,0.5,3.4,0.6,4.3,1.7
			c0.9,1.1-0.5,1.6-1.5,1.7c-1,0.1-2.1-0.6-2.8-1.1s-1.9,1.2-1.4,2.1c0.4,0.8,1.4,0.9,2.3,1.2c0.8,0.3,3.9-0.5,4.6-0.1
			c0.7,0.4,0.3,1.7,0,2.4c-0.3,0.6,0.3,2.2,1.1,2.7s-5.8-0.2-6,0.8c-0.5,2.2,1.7,2.3,3.1,2.1c1.7-0.2,1-0.1,6.2-0.4
			c7.2-0.4,11.6,2.8,13.7,4c2.1,1.2,4,6,4.2,9.4s-1.6,4.7-2,7.5c-0.3,2.8,1.5,9.8,2,11.1c0.4,1.3,2.6,0.6,2.5-0.1
			c-0.1-0.7,0.2-1.2,0.9-2.3c0.7-0.9,1-1,0.4-2.5c-0.6-1.4-1.1-3.1-1.1-5.7c0-2.6,0.7-2.5,1.5-7.2s-1.6-9.7-2.8-12.5
			c-1.1-2.9-7.2-5.2-8.3-6c-1.1-0.7-2.3-1.9-2.7-2.5s-1.4-0.3-2.4-1.1c-0.9-0.8,1.2-1.6,1.9-2.1c1.3-0.7,3-2.3,3.4-2
			c1.2,0.9-0.2,2.4,0.4,2.8c0.8,0.5,2.4-1.2,3.1-0.7c0.8,0.6,2.7,1.9,0.5,2.4c-2,0.5,0.2,1.6,1.1,1.5c0.5-0.1,2.7-1.6,3.7-0.8
			c0.7,0.6-0.8,2.3,0.7,2.7c0.6,0.2,1.4,0.4,2.9,0.5c1.4,0.1,1.2,1.4,1.7,1.4s2.6-0.2,4.2,0.4c1.6,0.6,4.2,3.1,5,4
			c1.2,1.4,2.9-0.3,3.4-1s-0.3-2.2-0.8-2.1C216.7,153.3,215.3,154.1,214.5,153.5z M168.9,115.2c-0.8,1,0,3.5,0.7,3.3
			c1.2-0.3,2.4-1,2.7-1.3s1.5-1.5,3.7-1.2s5.5,2.2,6,2.5s2,1.2,1.9,2.9c-0.1,1.5-1.7,1.6-3,2.4c-0.9,0.5-1.6,1.2-2.8,1.1
			c-1.1-0.1-3.2-1.1-4.3-0.7s-2.2,1.4-1.1,2.3c1,0.8,2.5,0.4,3.6,0.3s0.8,2.5-0.7,2.7c-1.6,0.2-2.1,2.5-0.9,2.4
			c2.2-0.3,2.5,1.1,1.7,1.7c-0.7,0.6-2.5,0.9-2.9,1.3s0.7,1.5,1.9,1.5c1,0,2.9-1.1,3.3-1.4c1.3-0.7,2.4-0.4,3.6,0.5
			c1,0.8,3.2-1.6,5.7-2.1c2.5-0.4,4.4-1.1,5.1-1.1c1.1,0.1,1.1,2.4,1.7,2.5c0.6,0.1,3.3,0.1,4.8,0.2c1.5,0.2,4,1.6,5.2,1.2
			c1.9-0.6,0.2-2.3,0-2.9c-0.2-0.6-0.2-1.3-0.5-2.1s-1.4-1.5-1.5-2.6c-0.1-1,0.9-4.1-1.7-4.9c-2.7-0.8-3.9-0.7-4-1.3
			c-0.1-0.6,0.1-2.1-0.5-2.2s-7.5-0.6-8.3-0.8c-1.6-0.5-4.3-4.6-7.1-5.3c-2.8-0.7-4.8-1.6-7.1-0.3
			C171.5,115.2,170.2,115.3,168.9,115.2z M142.7,121.4c0.5-0.6-1.1-1.3-2.5,0s-0.4,4,0.8,4.5s3.3,1.2,5.5,0.4
			c1.5-0.5,2.8-1.3,2.8-3.3c0-0.8-1.2-1.4-2.3-1.7c-1-0.3-1.2,0.4-1,0.8s1.2,1,0.1,2.3c-1.1,1.2-3.1,0.7-3.8,0
			C141.4,123.4,142.4,121.8,142.7,121.4z M107,121.6c-1.4,1.4-0.9,3,0.2,3.9c0.9,0.7,4.6,1.2,6.5,0.5c1.4-0.5,2.7-2.5,2.6-3.6
			c-0.1-0.8-0.7-1.5-1.7-2c-1-0.4-1.2,0.8-0.8,1.6c0.4,0.8,0.8,2.7-1.9,2.9c-2.7,0.2-2.6-2-2.2-3.1
			C110.2,120.1,109.2,119.9,107,121.6z M132.3,155.4c-1.4-1.2-0.7-5.7-2.6-5.8c-0.8,0-2.1,0.8-2.7,1.2s-1.2-0.2-3.1,0
			s-0.8,2.1-0.3,3.4c0.8,2.2,3,1.1,3.6,1.3s0.7,0.9,1.5,0.9s1.4-0.4,2.5,0.8C132.7,159,134.4,157.2,132.3,155.4z M97.8,114.2
			c-2.2,1.7-3.2,2.6-2.9,4.4c0.4,2.1,3.5,2.7,4.5,2.7s2.4-2.3,3-3.6c0.5-1.2,1.3-2.7,0.6-3.5C102.2,113.3,99.6,112.4,97.8,114.2z
			 M107.1,127.8c-1.3-0.2-1.7-0.4-3.2-1c-1.4-0.6-1.9,1.2-1.2,1.6c0.6,0.4,2.6,0.9,5.6,1.2c1.7,0.2,4.4,0.1,5.2-0.1
			c0.8-0.1,2.3-0.5,2.4,1.2c0.1,2.1-2.2,1.2-3,1.2c-1.1,0-3.9-0.1-5.6-0.3c-1.6-0.2-5.8-1.1-7.2-2.2c-1-0.7-1.9-2-3.3-2.4
			s-2.7,2.3-1.5,2.8c0.7,0.3,2.1,1.1,0.8,2.3c-1.6,1.6-0.5,4.2,0.1,4.8s2.5,3.4,3.1,4s2.2,0.3,2.8,0.7c0.3,0.2,2.3,1.5,3.1,2.7
			c0.6,0.8,1.9-0.4,2.9-1.2s2.1,0.8,1.6,1.6c-0.4,0.8-0.6,0.8-1.4,2.7s-2.7,1.6-3.9,1.6s-1,1.2-1,1.2s0.8,1.2,0.8,1.9
			c0,0.6-1.4,1.2-2.9,1.2c-1.4,0-2.9-0.4-3.9-0.6s-0.7,1.2,0.2,2.1c0.8,0.7,1.9,2.8,3.7,3.3c0.7,0.2,2.4-0.1,2.9-0.4
			c1.1-0.7,3.1-1.7,3.1-2.9c0-1.1-0.8-2.3,0.9-3.3c1.3-0.8,2.5,0.8,3.3,1.4c0.8,0.6,2.4-0.1,3.6-1.1s1-3.9,0.7-5.2
			c-0.3-1.4-1.6-1.1-2.8-2.1c-1.4-1.2,0.7-2.9,0.7-2.9s3.8-2.2,3.6-4.1c-0.2-2.1,0.3-4.3,0.8-5.5c0.4-0.7-1.3-0.9-0.2-2.8
			c0.9-1.5,3.5-3.2,3.7-4.8c0.2-1.6-1.1-2.4-2.4-2.8c-1.2-0.4-1.4,1.3-1.7,3c-0.3,1.6-2,2.6-3.5,3C113.2,128,108.5,128,107.1,127.8z
			 M120.6,181c-0.8,0.8-1.7,1.1-2.7,1.5c-1,0.5-0.3,3.6,1.1,3.5c0.8-0.1,2.4,0.8,3.1,2c0.6,1,1.9,2.5,2.4,2.8
			c1.1,0.7,2.3,1.6,4.4,2.4c2.5,0.7,7.6,0.7,9.4,0.6c1.7-0.1,0.4-1.6-0.6-1.7c-1-0.1-6.7-1-8-1.6s-2.4-2.1-2.7-2.8
			c-0.3-0.7-1.7-0.9-2.4-2c-0.6-1-1.1-3.1-1.3-4.2C122.9,180.3,121.2,180.4,120.6,181z M167.8,202c-0.8,0.7-1.5,0.6-2.7,1.2
			c-1.1,0.6-2.6,1.7-4.6,2.1c-1,0.2-2.7,0.4-3.2,0.1c-0.5-0.3-0.7-3.4-0.9-4.4c-0.2-1.1-1.7-2.7-2.2-3.1s-0.3-0.6-0.9-1.6
			c-0.6-1-1.6-1.7-2.2-1.5c-0.5,0.2-0.9,0.5-1.6,0.6c-0.7,0.1-2-0.8-2.6-1.7c-0.5-0.8-2.7-1.1-3.6-1.1c-0.9,0,0.1,1.7,0.7,2.3
			c0.6,0.5,1.4,2,1.7,2.5s1.7,0.7,2.8,0.8c1,0.1,2.1,0.7,2.1,2c0,1.2-1.7,1.2-2.3,1.7s-1.3,0.6-2.3,0.3c-0.9-0.3-0.7-2-1.6-3.1
			c-0.6-0.6-3.5-2.3-5.8-2.8c-2.3-0.6-6.5,0.3-7.6,1.1c-1.2,0.8-4.2,2.1-5,2.1s-1.5-0.4-2.9-0.2c-1.3,0.2-2.8,3.2-3.3,4.1
			c-0.5,0.9-1.5,2.7-0.1,3.2s3.7-0.4,4.9-0.7c1.2-0.3,3.8-1.6,5-1.9c1.2-0.2,2.8-0.9,4.3-1.3c1.6-0.4,2.2-1.1,3-1.9
			c0.8-0.7,2-0.1,2.8,0.3c0.8,0.4,1.9,0.7,3.1,0.9c1.2,0.2,1.1,1,0.8,1.3c-0.5,0.5-1.4,0.8-2.7,1c-1.2,0.2-2.6,1.1-3.3,1.3
			c-1,0.3-3.5,1.4-4,1.6c-1.1,0.5-4.7,2.5-5.1,2.8c-0.4,0.3-1.7,0.3-2.6,0.7c-0.8,0.4-1.3,1.5-0.1,2.5c1.2,0.9,3.5,0.6,5.6,0.4
			c2.1-0.2,6.4-0.8,9.8-0.5c3.4,0.3,7.3,0.1,8.8-0.7s2.9-0.9,4.3-0.8c1.4,0.1,2.6,0.4,3.2-0.1c0.6-0.5,2.4-1.6,4-2.2
			c1.6-0.5,4.2-1.3,5.2-1.9c1-0.5,1.7-2,2.5-2.8s2-0.7,3.2-1.2c0.8-0.4,1-0.4,0.9-0.9s-0.8-1.3-1.1-1.7s0-2.6,0-3.3s-3-1.1-2.8,0.4
			C169.5,199.2,168.6,201.2,167.8,202z M169.9,157.5c-1.2,2.1-0.3,2,1.3,3.2c1.6,1.3,1.1,3.2,1.2,4.6c0.1,1.4,2,2,2.8,2.5
			c0.8,0.6,1.4,1.9,2.5,2.4c1,0.5,2.1,0.4,3.2,1.5c1.1,1.2,0.7,2.8,1.4,4.2c1,1.9,2.7,1.3,3,2.8c0.2,0.8-0.4,2.1-0.5,2.8
			c-0.1,0.8,0.7,4.3,0.7,7c0,2.6-2.1,4.9-2.3,6.5c-0.2,1.5,0.4,1.3,1.1,2.7c0.7,1.4-3.2,1.7-3.6,2.3s-2.6,2.8-3.1,3.1
			c-0.9,0.5-3.6,3.8-3.7,5.1c-0.3,2.8-11.9,3.2-11.5,9.7c0.1,2-2.9,1.3-6.9,3.2c-2.7,1.2-8.3-1.3-10.1-1.3c-1.7,0-14.7,1.1-16.4,0.9
			c-1.3-0.1-3.4-2.2-4.2-2.6c-1.6-0.9-2.8-1.6-5.3-2.2c-2.7-0.5-4-0.9-4.2-1.5s0.6-1.6,0.8-2.5c0.2-0.8-0.4-2-0.9-2.5
			s-0.8-3.1-0.8-4c0-1.4,1.3-3.9,2.1-5.6c0.8-1.6,1.7-1.7,2.6-2.5c0.8-0.7,3.4-1.3,3.2-2.5c-0.2-0.8-1.1-2-2.3-2.7
			c-1.2-0.7-3.3,0.2-5.1,0.9c-1.9,0.7-4.6,3.3-4.9,4.1c-0.4,0.9-1.1,3.3-1.9,4.9c-0.7,1.6,0,4.1,1,7c0.3,0.9,0.5,2.5,0.8,3.7
			s1.5,2.1,2.4,2.8c0.8,0.8,0.8,2,0.9,2.7s-0.7,4.5,0.1,5.9c0.9,1.3,4.5,1.4,4.1,0.6c-0.3-0.6,0.5-5.3,2.8-5.3
			c4.5,0,4.6,4.5,6.6,5.2c0.4,0.2,3.7-0.1,9.6-0.4c8.1-0.4,17.1-2.1,17.4-2.3c0.6-0.2,8.1-3.4,8.5-3.6c0.4-0.2,5.2-2.2,8.9-3.7
			c3.7-1.6,9.3-4.4,8.7-5.1c-1.6-2.6-0.1-5.2,0.6-6c1.1-0.9,5.7-3.6,6.3-4.1c2-1.5,3.4-3.4,3.7-4.3c0.3-0.9,0.4-2.6,0.8-3.4
			c0.3-0.7,3.3-0.7,3,0.7c-0.3,1.3,1.6,2.3,2.7,2.9c0.8,0.5,2.6-2.1,2.9-2.5c1.2-1.6-0.3-4.2-3.6-3.7c-2.5,0.4-1.2-2.7-1.3-3.4
			s-2.2-0.9-2.4-2.5c-0.1-0.5-0.7-2-1.3-2.7s-2.1-1.3-2.1-2.2c0-0.7,1-0.9,1.2-2.1s-0.3-2.7-0.5-3.8s-0.9-5.6,0.2-6.1
			c1.1-0.5,1.4,0.9,1.7,2.1c0.4,1.1,2.1,1.3,2.3,0.7c0.2-0.7,0.2-2.8-0.2-4.4c-0.4-1.6-3.5-3.5-4.4-3.8s-1.1-0.5-2.1-1.1
			c-0.9-0.6-7-0.4-9.3-0.8c-2.8-0.6-5-1.7-6.2-2.4C171.3,156.6,171.3,156.5,169.9,157.5z M102.2,206.6c-2.2-0.9-5.1,0.9-5.6,1.9
			c-0.7,1.5,1.1,3.2,3.2,3.9c1.6,0.5,4,0.7,4.8-0.8C105.5,209.8,103.6,207.2,102.2,206.6z M99.6,200.2c0.8-0.3,2.7-0.8,4-1.1
			c0.6-0.1,1.7,0,2.1-0.5s1.7-2.6,2.2-3.5c0.4-1,1.2-1.6,2.5-2.3c1.2-0.6,1.3-2.2,1.9-2.9c0.5-0.8,2.8-0.3,2.6-2.1
			c-0.1-1.7-3.2-1.3-4.5-1.2c-1.4,0.1-3.2,0.8-5.1,1.6c-1.6,0.7-2.9,1.2-4,2c-1.1,0.7-2.4,1.6-2.7,2.4c-0.3,0.7-0.4,1.6-1.2,2.3
			c-0.8,0.6-2.4,0.9-3.1,0c-0.8-0.9-0.7-2.1-1.5-2.5s-1.7-0.6-2.1-1.2c-0.4-0.8-0.4-1.3-1-1.6s-1.4,0-1.7-1c-0.4-1.1-0.2-2.1-1.1-3
			c-1.1-1.1-1.4-3.6-2.3-4s-2.4-0.7-2.4-1.5c0-0.9,0.5-2.1,1.5-2.3c1.1-0.2,0.9-2.3,1.2-3.1c0.3-0.8,2.8-2.8,4.6-3.2
			c1.9-0.5,2.8-1,3.2-0.7c0.5,0.3-0.1,2,0.5,2.3s5.2,1.4,6.5,0.9c1.2-0.5,3.7-2.5,5.2-2.4s2.3,0.7,1.7,1.7c-0.5,1-2.8,2-3.4,2.9
			c-0.6,1-2,2.3-2,2.3s-1.1-0.2-2.4-0.3c-1.2-0.1-4.4,0.2-5.3,2.7s-0.5,4-0.3,4.7s0.7,2.8,0.9,3.3c0.2,0.5,1.6,0.5,2.3,0.1
			c0.6-0.4,1.4-2,1.2-2.8c-0.2-0.8-1.1-4.1,0.3-4.8c1-0.5,2.8,0,2.7,0.6s0.2,1.7,0.9,1.5c0.8-0.2,2.4-0.7,3.2-0.7s2.9,0.8,3.6,0.7
			c3.5-0.4,3.8-1.6,4.1-2.6c0.9-2.7,3.1-5,5.3-4.1c2.2,0.8,3.3-0.7,4.2-1.1c1-0.4,1.6-0.1,2.6,0.6s2.2,4.1,3.2,6.1
			c1.1,2,2.7,3.5,3.5,4c0.9,0.5,2.6,0.6,2.9,1s2.1,1.7,3.3,2.1c1.2,0.3,5.2-0.7,5.9-0.7c0.6,0,2.4,1,3.3,2.1c0.9,1,1.1,1.1,2,1.9
			c0.8,0.7,2.1,1.2,2,0.1s-0.5-4.2-1.6-5.2c-1.2-1.1-1.9-2.3-2.8-2.3c-0.9,0-3-0.8-3.5-0.9c-1.7-0.5-3.3-1.4-3.9-2.1
			c-0.9-0.8-0.3-2.8-0.3-3.5c0.1-1.2-0.3-3.2-0.9-4.7c-1.3-3.3-1.3-4.5-1.7-6.1c-0.5-1.7-0.1-4.3-1.2-4.7s-3.7-0.9-5.6-0.7
			c-2.1,0.3-2.9,0.6-3.9,0.1s-1.9-1.5-3.9-1.4c-2.1,0.2-2.4-0.1-3.1-0.5s-1.7-0.5-2.8,0s-1.7,1.5-0.8,1.9c0.9,0.2,2.1,0.1,2.6,0.7
			c0.5,0.6,0.8,1.5,1.5,2.3s1.7,1.4,1.4,1.9c-0.3,0.4-1.6,1.1-2,0.9c-0.3-0.2-2-1.3-3.3-2.1c-1.3-0.7-2.6-1.9-3.8-1.4
			c-0.8,0.3-0.9,2.3-1.6,2.8s-1.9,0.9-2.5,0.3c-0.6-0.7-1.1-3.2-1.9-3.5c-0.7-0.3-2.6-0.8-4.5,0.1c-2.1,1-3.3,1.2-4.1,1.3
			c-1.2,0.3-2.8,0.4-4.1,0.8c-1.1,0.3-2.7,1.5-5.3,1.5c-2,0-5.7-0.2-6,0.9c-0.3,1.2-1,2-0.6,2.9s-1,2.8-2.5,1.5
			c-1.4-1.2-0.8-4.2-0.5-5.2s2.2-8.3,3-9.3s2.8-4.7,4.3-5.7c1-0.6,2.7-0.6,3,0.4c0.4,1,0.5,3.9,0.1,4.4s-1.2,0.1-2.3,0.7
			s-2.7,2.9-2.6,3.8c0.1,0.9-0.3,1.4,1.2,1.3c1.5-0.1,2-0.5,2.4-0.2s1.7,0.7,3.1,0.1c1.3-0.6,3.6-0.6,3.4-4.1s-0.4-5,0.2-6.5
			c0.6-1.4,1.6-2.9,0.1-4.5s-2.6-3.3-4.6-3.5c-3.8-0.4-2.5,1.6-3.2,2.2c-0.7,0.5-2.6,1-4.3,0.7s-3.6-0.3-4.4,0.9
			c-1,1.5-1.7,2.2-2,3.5c-0.2,1.3-1.2,3.4-2.2,4.4s-1,1.7-1.5,3.3c-0.4,1.4-0.8,3.9-0.9,4.7s1.9,7.2,2.6,9.1c0.7,2,1.7,6.1,2.6,6.8
			c0.8,0.7,1.6,0.6,2.6,0.2s2.2-0.6,2.7,0.4s0.1,4.5,0.3,5.3c0.2,1,1.1,2.5,1.6,3s0.2,1.1,0.6,2c0.4,0.8,1,1.1,2.1,1.5
			s2.1,0.6,2.5,1.5s0.5,1.7,1.7,2.6c1.2,0.8,2.7,1.9,2.7,2.8c0,0.9-1.3,1.6-2.9,2.2c-1.6,0.5-4.1,0.6-4.6,1.5s-1,1.6,0.2,2.1
			c1.3,0.4,5,0.4,7.4-0.4c2.5-0.8,5.1-1.7,5.6-2.5C97.7,202.2,98.8,200.5,99.6,200.2z M73.2,203.5c0.1-2.2-2.8-3.4-4.1-4.1
			c-4.5-2.4-2.5-4.3-4.1-5.7c-1.5-1.2-2.7,4.1-2.3,4.9c0.4,0.8,0.4,2.9,1.5,3.5s2.9,2.5,3.7,3.1c0.6,0.5,4.2,2.6,4.6,3.3
			C72.5,208.5,73.1,205.6,73.2,203.5z M78.8,211.3c0.6,0.4,5.9,3.4,7.3,4.3c1.4,0.9,11.8,6.7,15.3,7.3c3.4,0.6,1.3-4.1-0.6-5.5
			c-2.3-1.5-4.8-2.2-8.5-3.9s-7.8-3.4-8.7-3.7C80.5,208.8,78.8,211.3,78.8,211.3z M55.2,184c-0.3,2.3,4.1,1.2,5.8,1.2
			c1.6,0,3,1.6,4.9,2.7c2,1,2.8,2,3.7,3.2c0.9,1.2,6.9,5,8,5.6c2.8,1.2,2.4-0.3,0.8-2.2c-1.9-2.3-6.4-8.9-7.7-10
			c-0.8-0.7-2.2-5.1-4.3-5.6c-2.2-0.4-1.1,0.5-4.3-0.5c-3.2-1.1-4.8-1-4.8,0.1c0,1.3,1.1,2.2,0.2,2.6
			C56.4,181.7,55.7,182.1,55.2,184z M52.7,180.2c1.9-2,2.6-5.7,4.2-8.2c1.6-2.5,2.5-3.4,3.6-4s1.4-1.3,0.9-2.5
			c-0.4-0.9,0-1.1,1.9-2.2c1.9-1,3-1.3,3.6-3.4c0.4-1.3,3.4-6.6,2.2-7.1c-1.2-0.5-2.5-1.3-2.2-2.4c0.2-1,2-1,2.9-1.5
			s0.6-1.1-0.3-1.7c-0.9-0.6-3.4-0.7-4.6-0.5s-1.9,1.7-3,2.8c-1.1,1-2,0.3-3.4,2.2c-1.2,1.6-1.9,6.1-2.5,7.6s-0.9,1.1-1.5,2.2
			c-0.6,1,1.2,0.8,1.7,2s0.5,2-0.5,2.1c-3.4,0.2-1.3,1.6-1.5,3.3c-0.2,1.4-3.4,7.8-3.9,9.4C49.7,179.1,51.3,180.5,52.7,180.2z
			 M44.8,168.2c0.9,0.5-0.1,3.2,1,4.3c0.8,0.8,2.4-1.2,2.7-3.2c0.3-2.4-0.8-6.3,0.3-8c1.2-1.7,2.2-2.9,2.4-4.7
			c0.1-1.9,1.4-3.3,2.4-4.4c0.8-1.1,3.2-3,3.6-4.1c0.4-1.1-0.4-2.1-1.9-1.6c-1.5,0.4-4.5,2.9-6.2,4.2c-0.8,0.6-4.9,5.6-5.3,6.3
			c-1,1.7,1.1,2.4-0.1,4.6c-0.5,0.8-0.3,2.1-0.7,2.8C41.6,166.3,42.8,167.9,44.8,168.2z M63.9,143.9c0.8-0.5,1-0.7,2.3-0.6
			c1.2,0.2,7.2,1.7,11.2,1.1c4-0.6,8.5-2.7,9.3-3.9c0.7-1.2,2-2.6,2.6-3.3s0.3-2.9-0.4-3.3c-0.8-0.3-2.7-1.2-3.7-0.2s-2,0.9-3,0.8
			c-1.1-0.1-3.5,0.1-6.2,0.8c-2.1,0.5-7.4,2.6-9.3,3.6c-1.7,1-3.5,2.9-4,3.5C62.1,143.2,63.2,144.5,63.9,143.9z M67.4,51l-6.2,5.2
			c0,0,4-1.4,4.7,0.2c1.1,2.5,3,3.7,4.9,2.7c1.7-0.8,3.3-0.3,4.2,1.5c1,2.2,2.1,3.1,1.7,5.1c-0.4,3.7-3.6,14.9-1.4,22.8
			c1.1,4,0.6,5.8,5,11.2c2.4,2.9,7.1,6.7,7.7,7.5s0.8,2.3,1.6,1.9c0.8-0.4-0.1-3.9-1.7-5.8s-9.4-7-10.2-14.2
			c-0.8-7.2,0.2-11.7,1-13.6s1-5.3,1-6.4c0,0,0-2.4,1.3-2.1c1,0.2,1.4,4.1,1.4,5.6s0.3,4.1,0.3,4.1s1.2,2.9,1.2,3.7
			s-1.2,3.7-0.8,4.9c0.4,1.2,2.1,2.3,2.7,3.3s-0.4,2.7,0.4,3.7s3.3,4.7,4.7,5.1c1.4,0.4,5.9,2,6.7,1.1c0.8-0.8,2.7-3.2-0.4-4
			s-7.9-2.7-9.2-7c-1.2-4.3-0.9-13.3-6.5-24.6S72.8,53,70.8,52.3C69.2,51.7,67.4,51,67.4,51z M138.8,59.3c-3.8,10.8-4.3,11.1-4,14.5
			c0.2,3.4,2.4,3.6,3.7,1.5s2-3.6,3.7-3.8c1.2-0.1,1.4,1.6,1.2,3.9s1.5,0.7,2.7-0.9c1.1-1.5,1.6-6.6,1.9-9.3c0.2-2.7,0.7-4.7,0.8-7
			c0.1-2.2,0.6-4.9-0.5-4.9s-2.1,0.4-2.1-0.5c0-1.5,3.8-4.8,5.1-5.8c1.7-1.3,0.4-4.2-1.7-2.9C146.8,45.6,142.6,48.6,138.8,59.3z
			 M74.1,45c0,0,3.6,3.9,4.3,3.7c0.7-0.2,1.5-2.7,2.5-2.6c1.7,0.3,2.3,3.4,2.6,4.5c0.2,1.1,1.9,2.3,2.4,3.1c1,1.3,3.4,10.2,3.8,12.4
			c0.4,2.3,2.9,19.3,4,20.9c2.1,2.7,4.1,2.7,2.8-1.5c-1.6-5.2-2.3-16.6-1.3-20.4c0.9-3.8-0.6-11-1.5-12.3c-0.9-1.3-0.3-3.6,0.4-4
			c0.7-0.4,3.3,1.2,3.7,3.1c0.4,1.9,0.8,12.1,1.3,13.8c0.4,1.6,1.6,2.4,2.1,3.6c0.5,1.4,0,2.9,0.7,4.3c0.7,1.3,3.4,5.9,4.6,7.2
			c1.3,1.5,2.9,2.1,3.3,0.9s-4.5-6.1-5.7-11.9c-0.7-3.7-2.4-6.7-2.4-8.9c-0.5-1.2-0.4-2.3-0.7-3c-0.3-0.8,0-6.7-0.6-8
			c-0.7-1.3-5.5-5-6.4-4.6c-2.4,1-5.2-1.5-6.4-2.6c-0.8-0.7-4.4-2.6-4.4-2.6s7.1-2.8,8.7-3.5c1.4-0.6,4.3-1.3,4.3-1.3
			s-2,2.9-0.4,5.6c1.1,2,1.9,4.9,3.4,2.1c2.1-4,1-10.5,3.9-11.5c1.3-0.4,7,1,8.3,2.2c0.6,0.5,2.9,3.9,4.4,4.1c2,0.3,4.5,0.6,6.1,0.8
			c2.8,0.3,4.8,3.2,5.6,5c1.7,5-2.2,11.4-2.2,11.4s-0.8,1.9-0.5,5.3c0.3,3.4-0.1,5.7,1.4,5.7s1.5-6.8,2.7-9.3
			c1.1-2.5,1.4-4.7,1.6-6.8c0.3-2.2-0.1-9.8-0.3-10.9s-1.9-3.6-4.7-4.1c-2.9-0.4-7.6-2.3-6.5-4c1.1-1.7,8.5-0.9,9.7-0.7
			c1.1,0.2,3.7,0.8,4.2,4c0.5,3.1,0.2,10.3,0.1,11.6c-0.1,2.1,2.1-0.4,2.7,0.1c1.1,0.9-1.3,5.3-1.7,9.2c-0.4,3.8-2.1,7.3-0.7,7.5
			c1.3,0.2,3.6-6.1,5.9-11.4c2.3-5.3,1.9-4.8,1.9-5.6c0-0.7-0.6-2.9,0.7-3.7c1.3-0.8,5.8-1.2,8.4-1.5c2-0.2,3-1.2,2.8-2.1
			c-0.2-0.9-3.8-1.3-4.7-1.2c-1.3,0.1-4.2,0.8-4.9,0.1c-0.5-0.5,0.5-6.4,0.5-6.4s6.6,0.8,9.3,1.3c1.5,0.3,11.4,4.2,14.1,5
			c2.7,0.9,8.4,4.9,8.4,4.9s-2.6-0.6-4,0.7c-2.4,2.1-4.6,2.1-6.9,2.1c-2.4,0-6.6-1.1-8.8,3.8c-2.3,4.9-4.1,12.4-4.6,17.2
			c-0.4,4.7-2.7,9.4-1.5,9.8c1.4,0.5,3.3-3.3,4.1-6.5c0.6-2.3,1.6-5,2.3-6.2c0.7-1.2,2.9-3.2,2.9-0.3s-1.7,5.6-3.1,9.2
			c-1.3,3.6-1.5,5.5-3,6.7c-2.4,2.1-3.1,4-1.3,3.8c1.3-0.2,3.5,0.1,2.7,1.3c-1,1.5-2.7,2.3-1.7,3.2c0.9,0.9,3.4,0.5,3.7-1
			c0.2-1.5,0.2-4.5,1-5.5c0.9-0.9,2.1,0.3,1.5,1.9c-0.7,2.4,1.7,1.3,0.9,4c-0.3,1-2,3.1-1.7,3.8c0.2,0.7,2.6,2.2-2.7,2.7
			c-1.5,0.3-8.5-2.1-10.4-3.1c-2.5-1.3-4.5-3.7-6.5-4.4c-2.2-0.8-6.6-2.1-7.2-2.4c-1.3-0.5-2.2-1.7-2.2-2.7c0-0.9-2.3-3.4-3.8-5.9
			s-3.8-5.3-3.2-10.8c0.7-5.3,0.7-14.4-1.3-17.1s-8.2-6.8-9.5-8.9c-1.2-2.3-4.5-3.8-6.6-3.8c-1.4,0-0.4,8.9-0.5,11.5
			c0,2.4,1,4,1.7,4.3c0.7,0.4,2,2.6,1.9,4.5c-0.1,2.4-2.3,1.3-1.9,4.5c0.3,2.2,1.4,1.5,2.4,1.6c0.8,0.1,1.2,3.6,0.7,4
			c-0.6,0.5-1.3,1-1.1,2.2s0.7,4.5,2.1,4.5s2.1-2.1,2.1-3.2s0.4-12.9,0.9-14.8c0.4-2.1-0.9-4.1-2.1-5.8c-1.1-1.5-4.3-3.5-3.8-5.6
			c0.4-2.1,1-4.1,1.6-3.9c1.2,0.5,1,2.9,1.5,3.6c0.4,0.7,7.6,5.8,9.1,7.8c1.2,1.6,1.2,9.8,1.2,11.1c0,1.5-2,2.7-2.3,1.4
			c-0.4-2.3,0.8-5.8-1.3-6c-1.5-0.1-2.1,2.3-1.7,5.9c0.2,3.6,1,11.2,2,11.9c0.9,0.7,2.1,1,2.5,2.4c0.4,1.3,1.1,3.3,2.8,3.7
			c2,0.4,3.6,1,2.4,1.6c-2,1-4.7,2.3-6.1,2.4c-3.8,0.3-6.7,3.1-8.5,4.4c-2.5,1.9-4.3,5.6-5.3,8.1c-0.2,0.5-0.6,3.3-2.3,4.7
			c-1.9,1.7-4.3,2.9-5.6,3.5c-1.4,0.7-2.8,2.6-0.5,2.1c2.3-0.4,6.6-2.8,7.1-0.2c0.4,2.4-3.7,2.4-5.1,2.6s-4.4,2.1-2.9,3.5
			c1,1,4-1.7,6.1-1.6c2.3,0.1,5,1.4,7.1,1.6s6.1,0.5,7.7,0c1.4-0.4,7.4-4.5,10.5-4.2c2.3,0.2,4.7,2.1,6.8,3c2.6,1.2,5.3,3,11.2,2.9
			s9.8-2.5,10.4-0.9c0.5,1.4-0.7,1.7-0.8,3.2c-0.1,1.4,0.3,2.7-0.4,3.3c-0.8,0.8-3.1-0.2-3.7-0.8c-0.7-0.7-1.5-1.7-2.4-1.7
			c-0.8,0-3.9,0.2-3.7,0.9c0.2,0.7,1.1,1.1,3.2,1.1c1.5,0,4.5,3.7,5.3,4.1c0.9,0.4,3.4,2.3,2.9,3.2c-0.4,0.9-1,0.9-1.9,0.5
			c-1-0.4-1.1-1.6-2.3-1.4s-2.2,2.1-3.5,2.5c-1.5,0.5-4.6,0.8-6.3,0.2c-2.1-0.7-3.7-1.6-4.8-3c-1.3-1.6-2.4-3.9-3.9-6.4
			s-3.8-5.2-5.1-5s-1.9,3.2-1.5,5.8c0.2,2.8,1.5,4.5,1.1,5.7s-2.2,2.8-2.3,4.6c-0.1,2.7,1.7,1.5,1.7,2.7s-0.3,2.9-1.2,2.7
			c-0.9-0.2-2.7-0.5-2.9,0.9c-0.2,1.5,0.7,1.2,2,1.4c1.1,0.2,1.1,2,1.3,2.7c0.2,0.7,0.4,1.5,1.4,2c1.6,0.7,2-0.9,3.7-0.7
			c1.7,0.3,2,0.7,3.1,1c1.4,0.4,3.5-0.1,4-0.7c0.4-0.7,0.1-2.5-0.6-3.4c-0.7-0.9-1.2-2.8-0.1-2.9c1.3-0.2,2.2,1.5,2.4,2.2
			c0.2,0.6,1.1,2.1,2,3.1c0.7,0.8,1.5,1,2.6,2.1c1,1,1.2,1.7,1.4,2.6c0.3,1.1,2.8,1.4,3.5,2.4c0.7,0.9,0.7,2.7,1.7,4.2
			c1.1,1.5,2.4,2.6,1.2,3.9c-1.1,1.3-4.1-2.3-6.3-4.5c-1.9-2-4.5-5-6.1-5s-1.5,1.6-0.9,4.8c0.7,3.2,1,4.9,1.4,5.1
			c0.4,0.2,1.2-0.1,1.6,0.1s2.1,3.3,4,4.6c2,1.3,4.3,2.5,6.3,1.7c2.1-0.7,1.3-2.4,1.7-2.9c0.4-0.4,2.9-1.3,4-1.3s1.3-3.6,1.3-4.2
			s-0.9-1.7-0.7-2.7s1.3-2,1.3-2.4s0.2-3,0.8-4.7c0.8-2.1,2.1-5.6,1.6-8.6c-0.2-1.7-0.2-3.5,0.4-5.8c0.7-2.3,1-3.2,0.7-5.1
			c-0.4-2.2-0.7-3.2-0.7-4.3c0-1-1.5-2.5-1.3-4.4c0.1-0.9,1-3.4,1.1-5.1c0.1-3.6-0.2-4.8-0.8-6.4c-0.9-2.2-2.4-4.2-3.2-4.5
			c-2.2-0.8-1.5-2-2.5-2.6c-0.5-0.4-1.4-1.9-0.3-2.1c1.1-0.2,2,0.2,3.5-0.3c1.6-0.6,1.5-2.5,2.5-2.5c0.9,0,3.8,0.6,3.5,1.3
			c-0.3,0.8-1,3,2.4,1.1c0.9-0.5,1.5-1.2,2.7-0.5c1.1,0.7,0.1,1.7-0.5,2.5c-0.7,0.7-3,1.3-3,1.9c0,0.4-0.4,1.5,0.9,1.5
			c1.3,0,3-1,3.5-1.4c0.4-0.4,0.7-1.4,1.6-1.4c1.1,0,0.7,0.9,2.7,0.7c2-0.2,2.8-1.1,3.7-4.7S181.5,83,182,79c0.4-4,0.7-7,0.8-7.8
			c0.2-1.1,0.7-2.3,1.2-2.7c0.4-0.4,1.7-3.6,2.7-4.3c0.9-0.7,2.9-0.4,2.1,1.5c-0.9,2.1-2.3,3-2.4,4.5c-0.1,1.3,0.8,3.4,0.6,4.5
			s-2.5,1.3-2.3,3.2s0.8,6.4,0.8,7.5s-2.1,1.5-1.6,3.2c0.4,1.5,0.8,2.6,0.2,3.9c-0.7,1.3-1.9,3.6-2.1,4.5c-0.2,0.9-0.5,5.2-1.3,5.7
			c-1.4,0.6-3.6,0-4.6,0.8c-0.9,0.7-1.3,2.3-2.5,2.3c-1.1,0-2.1,0.7-2.9,1.3c-0.9,0.7-1.5,2.8-0.2,2.2c1.3-0.7,4.4-2.8,5.6-2.8
			c1.1,0,2.6,0,3.3-0.2s2.9-1.1,4-2.1c1.1-0.9,1.6-2.8,1.6-3.3c0-0.4,2.3-0.2,2.3,0.6c0,0.9,0.7,3.8,0.2,4.7
			c-0.4,0.9-2.1,2.3-2.1,2.3s-3.2,1.2-3,2.4c0.2,1.1,2.8,0.5,4.1,0.1s3.5-2.2,3.9-1.6c0.4,0.4-1.4,2.9-0.8,5.1
			c0.7,2.3,4.9,2.7,6.5,2.1c1.5-0.7,1.7-1.5,2.5-1.7c0.7-0.2,3-0.4,4.1,0s2.9,0.9,2.9,1.6s-2.3,1.2-1.9,2.4c0.4,1.1,1.2,1.1,2.6,0.9
			c1.3-0.2,2.9,0.2,4.7,0.7c1.7,0.4,7.4,2.1,9.7,2.9c1.3,0.5,2.7,2.4,2.7,5.6s-0.1,6.6-1,6.7c-1.6,0.1-1.9-4-3-6.3
			c-1.2-2.5-4-4.1-4.5-3.7c-0.4,0.4-1.2,1.2,0.3,3c1.5,1.7,2.4,2.7,2.4,4s0.2,2.4,0.4,3c0.3,0.7,1.6,2,1.4,3c-0.3,1.3-3.4,1-4.3,0.2
			c-0.7-0.6-0.5-6.7-1.1-7.8c-0.7-1.1-2.8-5.3-4.6-6.3c-1.7-0.9-3.7,0-3,2.1s1.1,4.7,2.3,5.3c1.1,0.7,2.3,2.3,2.3,2.3l-0.2,1.3
			c0,0,0,3.2,0.4,4c0.4,0.9,1.7,1.5,2.1,2.3c0.2,0.7,1.3,4,2.5,5.7c1.1,1.5,0.7,2.3,2.3,2.3s2.1-1.2,2.5-2.8s5.2-1.2,5.2-1.2
			s-2.9,13.1-4.2,16.5c-0.5,1.2-7.8,15.8-10.5,20.2c-2.8,4.4-13.3,17.3-15.6,18.9c-1.6,1.2-8.7,7.3-8.9,7.7s-18.1,10.5-19.2,11.2
			c-1.1,0.7-16.4,5.9-19.7,6.3c-3.4,0.4-19,1.5-20.7,1.4c-2.5-0.2-13.8-1.4-17.3-2.2c-3.5-0.7-27.4-9.6-29-10.5
			c-2.3-1.3-22-17.3-22.9-18S41.6,176,40.9,174.2c-0.7-1.5-6.2-13.8-6.4-15.3c-0.2-1.5-4.7-20.7-4.9-22.2c-0.2-1.5,0-15.1,0.3-17.9
			c0.3-3.1,2.4-13.8,2.8-16c0.4-2.3,4.3-12.8,7.2-19.1c2.9-6.3,7.1-11.3,11.8-17C56.4,61,69.9,49.4,71,47.8C71.5,46,74.1,45,74.1,45
			z M35.5,151c0,0.9,3.1,2.2,2.3,3.5c-1.7,2.8,2.6,3.9,1.7,5.6c-0.8,1.6-1.3,3.6-2.4,3.1c-1.2-0.7-4.7-12.3-5.3-15.1
			c-0.3-1.4-1.2-10-1.1-11.9c0.1-2,2.3-2.6,2.5-2.8c0.7-0.5,6.5-3,7.3-3.3c1.3-0.6,5.2-4.1,5.7-4.9s0.6-3,0.7-4.7
			c0.1-1.4,0.4-3.1-0.5-3.3c-1.1-0.3-2.3,0.3-2.5,1.3c-0.2,1-0.8,3.4-1.7,3.2c-1.7-0.4-2.7,3-2.7,3.9c0,2.1-3.8,2.4-3.7,0.7
			c0.1-1,1.7-6.7,1.9-8.7c0-1.5-1.6-3-0.8-4.5c0.6-1.2,0.9-6,1.1-6.8c0.8-1.5,4.5-2.7,2.8,2.3c-0.5,1.4-1.2,3.3,0.3,3.9
			c0.9,0.4,1.5,0.3,3-2.8c0.9-2.1,4.5-1.1,2.9,2.4c-1.4,3,1.9,2.6,2.6,2.9c0.7,0.3,0.8,1.7,0.7,2.7c-0.2,1.3,1.3,1.6,2.5,1.3
			c1.1-0.2,5.9-2.8,8.7-2.3c3.3,0.6,4.7,1.1,5.8,1.5c1,0.4,2.7,0.4,2.3-1c-0.4-1.4,1.1-4.1,1.3-5.1s2.2-2.2,1.9-3.2
			c-0.4-1.1-3.9-2.5-4.7-2.6c-0.9-0.1-1.7,3.1-2,4.9c-0.2,1.9-3.1,1.9-3.7,0.2c-0.8-2.2-2.1-2.4-2.7-5.2c-0.4-2-2.3-2.1-3.6-3.2
			c-2.5-2-0.4-3.5-0.5-4.3C55.3,96.3,52.8,96,52,97c-0.8,1-2.3-0.1-3.2-0.2c-1.3-0.1-4.8,0.4-6.3,0.6c-2.1,0.3-2.4,1.3-2.7,2.2
			c-0.7,2-4.6-0.7-4.6-0.7s5.1-10.9,6.2-14c0.9-2.6,5.2-9.2,5.6-9.8c0.7-1.7,3.2,0.9,0.8,4.3c-1.4,2.1-5.7,9.2-6.9,12.9
			c-0.7,2.3,3,2,3.7,0.5c0.5-0.9,4-8,5.7-10.9c1.6-2.9,5.5-9.6,6.2-11.2c0.7-1.6,2.4-3.2,3.2-4.8c0.8-1.6,3.5-1.7,2.5,1.6
			c-1,3.5-6.1,11.5-7.3,13.3c-1.1,1.6-4.9,8.2-5.1,9.3c-0.2,1-0.5,2.6,0.1,2.8s3.5-0.8,4.3-2.1C55,89.6,58,81.6,59,80.1
			c1-1.4,3.3-6.2,4.5-7.6c1.2-1.4,4.1,0.5,2.8,2.8c-3.1,5.1-6.2,11.4-7.5,13.2c-1.4,2,0.1,4.8,2.5,2.5c2.1-2.1,3-4.5,4-6.4
			s2.6-4.3,3.2-5.3s3.2-0.1,2.8,1.5c-0.4,1.6-2.5,5.2-3.7,6.5c-1.2,1.2-2,2.8-2.6,4s0,2.3,1.3,3.1c1.6,1,2.5,1,3.7,2.3
			c1.2,1.2,2.5,2.7,3.7,3.3c1.2,0.6,3,1,3.8,2.7c0.8,1.6,2.1,4.6,4.2,5.5c1.7,0.7,2.3,1.3,3.4,2.8c1.6,2.1,2.3,2.6,3.7,2.5
			c1.7-0.1,1.6,2.1,2,3.7c0.2,1-1.5,4.1-1.5,5.8c0,1.6,0.4,6.3-1,7c-1,0.5-3.2-0.7-4,0s-2.9,0.3-3.4-0.4c-0.7-1.1-2.2-1.2-2.9-0.6
			c-1.1,0.9-2.6,0.7-3.3-0.1c-0.5-0.5-2.1-0.1-3,0.3c-2.6,1.1-2.3-1.2-2.3-1.2s0.7-2.1,1.6-2.1c0.7,0,1.9,0.6,2.5,0.4s1.3-2,2.3-2.6
			c0.9-0.7,2.1-0.9,1.4-2.3c-0.3-0.8,0.5-1.5,1.1-1.7c1.2-0.4,2.7-0.3,3.2-0.9c0.4-0.5,0.3-2.8-1.1-4s-5.3-0.2-5.8,2.8
			c-0.5,3.7-3.9,5.2-6.2,5.8c-2.8,0.7-3.7,0-6-1.2s-7.1-1.2-8.9-0.5c-1.6,0.6-2.7,3.2-1.2,3.2c1.4,0,5,0.6,6.6,0.6
			c2.3,0,4.1,0.8,5,2.6c1,2.1,0.9,2.1-2,1.6c-6-0.8-11.8,0.3-15.1,1.2c-1.2,0.3-5.3,4-6,4.3c-0.4,0.2-3.4,1.9-5.6,3.5
			c-2.1,1.5-1.7,3.4-1.3,5.3c0.1,0.5,0.7,3.9,0.8,4.4c0,0,1.9-2.1,2.4-2.7c0.5-0.6,4.3-2.8,6.2-5.1c1.7-2.2,6.9-5,8.4-5.9
			c4.5-2.2,9.6-1.9,10.8-1.4c1.2,0.5,3.7,2.2,2.2,3.8c-1.5,1.5-4.2,3.6-5.2,4.2c-1.1,0.7-2.2-0.1-3,0.6c-0.7,0.8-2.9,2.6-3.8,2.6
			c-2.9-0.1-6.6,0.7-7.6,0.9c-2,0.4-5.6,1.7-6.9,2.7C36.8,148.5,35.5,150.1,35.5,151z"/>
		<path class="st0" d="M35.4,152.3c0,1,3.1,2.2,2.3,3.5c-1.7,2.8,2.6,3.9,1.7,5.6c-0.8,1.6-1.3,3.6-2.4,3.1
			c-1.2-0.7-4.7-12.3-5.3-15.1c-0.3-1.4-1.2-10-1.1-11.9c0.1-2,2.3-2.6,2.5-2.8c0.7-0.5,6.5-3,7.3-3.3c1.3-0.6,5.2-4.1,5.7-4.9
			c0.4-0.8,0.6-3,0.7-4.7c0.1-1.4,0.4-3.1-0.5-3.3c-1.1-0.3-2.3,0.3-2.5,1.3c-0.2,1-0.8,3.4-1.7,3.2c-1.7-0.4-2.7,2.9-2.7,3.9
			c0,2.1-3.8,2.4-3.7,0.7c0.1-1,1.7-6.7,1.9-8.7c0-1.5-1.6-3-0.8-4.5c0.6-1.2,0.9-6,1.1-6.8c0.8-1.5,4.5-2.7,2.8,2.3
			c-0.5,1.4-1.2,3.3,0.3,3.9c0.9,0.4,1.5,0.3,3-2.8c0.9-2.1,4.5-1.1,2.9,2.4c-1.4,3,1.9,2.6,2.6,2.9c0.7,0.3,0.8,1.7,0.7,2.7
			c-0.2,1.3,1.3,1.6,2.5,1.3c1.1-0.2,5.9-2.8,8.7-2.3c3.3,0.6,4.7,1.1,5.8,1.5c1,0.4,2.7,0.4,2.3-1c-0.4-1.4,1.1-4.1,1.3-5.1
			s2.2-2.1,1.9-3.2c-0.4-1.1-3.9-2.5-4.7-2.6c-0.9-0.1-1.7,3.1-2,4.9c-0.2,1.9-3.1,1.9-3.7,0.2c-0.8-2.2-2.1-2.4-2.7-5.2
			c-0.4-2-2.3-2.1-3.6-3.2c-2.5-2-0.4-3.5-0.5-4.3c-0.3-2.5-2.8-2.7-3.6-1.7c-0.8,1-2.3-0.1-3.2-0.2c-1.3-0.1-4.8,0.4-6.3,0.6
			c-2.1,0.3-2.4,1.3-2.7,2.2c-0.7,2-4.6-0.7-4.6-0.7s5.1-10.9,6.2-14c0.9-2.6,5.2-9.2,5.6-9.8c0.7-1.7,3.2,0.9,0.8,4.3
			c-1.4,2.1-5.7,9.2-6.9,12.9c-0.7,2.3,3,2,3.7,0.5c0.5-0.9,4-8,5.7-10.9c1.6-2.9,5.5-9.6,6.2-11.2c0.7-1.6,2.4-3.2,3.2-4.8
			c0.8-1.6,3.5-1.7,2.5,1.6c-1,3.5-6.1,11.5-7.3,13.3c-1.1,1.6-4.9,8.2-5.1,9.3c-0.2,1-0.5,2.6,0.1,2.8c0.6,0.2,3.5-0.8,4.3-2.1
			c0.8-1.2,3.8-9.2,4.8-10.6s3.3-6.2,4.5-7.6c1.2-1.4,4.1,0.5,2.8,2.8c-3.1,5.1-6.2,11.4-7.5,13.2c-1.4,2,0.1,4.8,2.5,2.5
			c2.1-2.1,3-4.5,4-6.4s2.6-4.3,3.2-5.3s3.2-0.1,2.8,1.5c-0.4,1.6-2.5,5.2-3.7,6.5s-2,2.8-2.6,4s0,2.3,1.3,3.1c1.6,1,2.5,1,3.7,2.3
			c1.2,1.2,2.5,2.7,3.7,3.3c1.2,0.6,3,1,3.8,2.7c0.8,1.6,2.1,4.6,4.2,5.5c1.7,0.6,2.3,1.3,3.4,2.8c1.6,2.1,2.3,2.6,3.7,2.5
			c1.7-0.1,1.6,2.1,2,3.7c0.2,1-1.5,4.1-1.5,5.8c0,1.6,0.4,6.3-1,7c-1,0.5-3.2-0.7-4,0s-2.9,0.3-3.4-0.5c-0.7-1.1-2.2-1.2-2.9-0.6
			c-1.1,0.9-2.6,0.7-3.3-0.1c-0.5-0.5-2.1-0.1-3,0.3c-2.6,1.1-2.3-1.2-2.3-1.2s0.7-2.1,1.6-2.1c0.7,0,1.9,0.6,2.5,0.4s1.3-2,2.3-2.6
			c0.9-0.7,2.1-0.9,1.4-2.3c-0.3-0.8,0.5-1.5,1.1-1.7c1.2-0.4,2.7-0.3,3.2-0.9c0.4-0.5,0.3-2.8-1.1-4s-5.3-0.2-5.8,2.8
			c-0.5,3.7-3.9,5.2-6.2,5.8c-2.8,0.7-3.7,0-6-1.2s-7.1-1.2-8.9-0.5c-1.6,0.6-2.7,3.2-1.2,3.2c1.4,0,5,0.6,6.6,0.6
			c2.3,0,4.1,0.8,5,2.7c1,2.1,0.9,2.1-2,1.6c-6-0.8-11.8,0.3-15.1,1.2c-1.2,0.3-5.3,4-6,4.3c-0.4,0.2-3.4,1.9-5.6,3.5
			c-2.1,1.5-1.7,3.4-1.3,5.5c0.1,0.5,0.7,3.9,0.8,4.4c0,0,1.9-2.1,2.4-2.7s4.3-2.8,6.2-5.1c1.7-2.2,6.9-5,8.4-5.9
			c4.5-2.2,9.6-1.9,10.8-1.4c1.2,0.4,3.7,2.2,2.2,3.8c-1.5,1.5-4.2,3.6-5.2,4.2c-1.1,0.6-2.2-0.1-3,0.6c-0.7,0.7-2.9,2.6-3.8,2.6
			c-2.9-0.1-6.6,0.7-7.6,0.9c-2,0.4-5.6,1.7-6.9,2.7C36.7,149.7,35.5,151.3,35.4,152.3z"/>
	</g>
</g>
</svg>
