<?xml version="1.0" encoding="utf-8"?>
<!-- Generator: Adobe Illustrator 26.3.1, SVG Export Plug-In . SVG Version: 6.00 Build 0)  -->
<svg version="1.1" id="affiliation" xmlns="http://www.w3.org/2000/svg" xmlns:xlink="http://www.w3.org/1999/xlink" x="0px"
	 y="0px" viewBox="0 0 256 256" style="enable-background:new 0 0 256 256;" xml:space="preserve">
<style type="text/css">
	.st0{fill:#FFFFFF;}
	.st1{display:none;fill:#FFFFFF;}
	.st2{fill:#92C4E0;}
	.st3{fill:#008DC7;}
	.st4{display:none;}
	.st5{display:inline;}
	.st6{display:inline;fill:#92C4E0;}
	.st7{display:inline;fill:#008DC7;}
</style>
<rect id="black" width="256" height="256"/>
<circle
   id="background"
   class="st0"
   cx="128"
   cy="128"
   r="128" />
<g id="logo_00000080179234113987053100000012976681773717875887_">
	<g>
		<path id="Fill-48" class="st2" d="M107.4,70.6v94.1h19.3V70.6H107.4z M139.6,88v76.7h19.3V88H139.6z M75.2,104.6v60h19.3v-60
			C94.6,104.6,75.2,104.6,75.2,104.6z"/>
		<path id="Fill-50" class="st3" d="M130.5,71.5v92.2l4.4-1.1V72.8L130.5,71.5z M162.7,88.9v74.8l4.6-1.3V90.2L162.7,88.9z
			 M98.4,105.6v58.1l4.6-1.3v-55.6L98.4,105.6z"/>
		<path id="Fill-52" class="st2" d="M201.8,134.6c-10.1,0-20.9,0.2-31.7,0.6v4.3c27.6-2.2,54.3-3.8,78-3.5
			C234.6,135.2,218.9,134.6,201.8,134.6L201.8,134.6z M72.5,143.3C28.2,151,8.7,161,26.6,168c16,7,64.2,8.6,116.1,5.2
			c-33-0.8-60.7-0.8-77.6-4c-19.6-5.5-17.9-12.2,7.4-18.7V143.3z"/>
	</g>
	<g class="st4">
		<path id="Fill-1_00000050626263866998548940000016638299573350072483_" class="st5" d="M133.9,103.3v13.3h1.2v-6.2h4.6v-1h-4.6
			v-5.2h5.2v-1C140.3,103.3,133.9,103.3,133.9,103.3z M159.1,104.1c-1.5,3.8-3,8.2-4.3,12.8h1.2c0.3-1.2,0.7-2.5,1-3.7h5.3
			c0.4,1.2,0.7,2.5,1,3.7h1.2c-1.2-4.3-2.6-8.6-4.3-12.8H159.1z M193.3,104.1V117h1.1v-5.9h4.3v-1h-4.3v-5h4.8v-1H193.3z
			 M144.6,104.1V117h1.1v-6.1h1.6l3.1,6.1h1.3l-3.3-6.2c1.4-0.4,2.6-1.5,2.6-3.4s-1.1-3.3-3.7-3.3H144.6z M168.6,104.1V117h1.1
			v-11.4l0,0l5.8,11.4h1.4v-12.8h-1.1v11l0,0l-5.6-11H168.6z M181.5,104.1V117h1.1v-5.9l0.8-0.8l4.4,6.7h1.4l-5.1-7.5l5-5.4h-1.5
			c-1.7,1.9-3.4,3.8-5.1,5.7v-5.7C182.5,104.1,181.5,104.1,181.5,104.1z M202.9,104.1v8.4c0,3.1,1.7,4.7,4.1,4.7
			c2.5,0,4.2-1.6,4.2-4.9v-8.1H210v8.2c0,2.6-1.2,3.8-3.1,3.8c-1.9,0-3.1-1.3-3.1-3.8v-8.2L202.9,104.1z M215.7,104.1V117h1.1v-6.1
			h1.6l3.1,6.1h1.3l-3.3-6.2c1.4-0.4,2.6-1.5,2.6-3.4s-1.1-3.3-3.7-3.3H215.7z M224.9,104.1v0.9h3.6v11.8h1.1V105h3.6v-0.9H224.9z
			 M145.7,105.1h1.5c2,0,2.6,1.2,2.6,2.5c0,1.3-0.8,2.4-2.6,2.4h-1.5V105.1z M216.8,105.1h1.5c2,0,2.6,1.2,2.6,2.5
			c0,1.3-0.8,2.4-2.6,2.4h-1.5V105.1z M159.5,105.3L159.5,105.3c0.2,0.4,0.3,1,0.5,1.5c0.7,1.9,1.3,3.8,1.9,5.6h-4.7
			c0.6-1.8,1.2-3.8,1.8-5.6C159.2,106.3,159.4,105.7,159.5,105.3L159.5,105.3z"/>
		<path id="Fill-18_00000115489656921121208710000001160360644327205789_" class="st5" d="M203,126.8c-2.2,0-3.6,1.3-3.6,3.2
			c0,1.7,0.9,2.6,2.6,3.5c1.5,0.9,2.5,1.5,2.5,3c0,1.5-0.9,2.4-2.6,2.4c-0.9,0-1.6-0.1-2.4-0.4l-0.2,1c0.8,0.2,1.6,0.4,2.4,0.4
			c2.5,0,4-1.4,4-3.5c0-1.6-0.9-2.5-2.7-3.6c-1.4-0.8-2.4-1.5-2.4-2.9c0-1.2,0.7-2.2,2.3-2.2c0.6,0,1.3,0.1,1.8,0.3l0.2-1
			C204.4,126.9,203.6,126.8,203,126.8L203,126.8z M134.1,127v8.4c0,3.1,1.7,4.7,4.1,4.7c2.5,0,4.2-1.6,4.2-4.9v-8.1h-1.1v8.2
			c0,2.6-1.2,3.8-3.1,3.8c-1.9,0-3.1-1.3-3.1-3.8v-8.2L134.1,127L134.1,127z M147,127v12.8h1.1v-11.4l0,0l5.8,11.4h1.4V127h-1.1v11
			l0,0l-5.6-11H147z M160.5,127v12.8h1.1V127H160.5z M165.6,127c1.2,4.3,2.6,8.6,4.3,12.8h1.1c1.7-4.3,3.1-8.5,4.3-12.8H174
			c-0.9,3.5-2,7-3.1,10.1l-0.5,1.5l0,0l-0.5-1.5c-1.2-3.3-2.3-6.8-3.2-10.1H165.6z M179.2,127v12.8h6.1v-1h-5.1v-5.3h4.4v-1h-4.4
			v-4.7h5v-1L179.2,127L179.2,127z M189.4,127v12.8h1.1v-6.1h1.6l3.1,6.1h1.3l-3.3-6.2c1.4-0.4,2.6-1.5,2.6-3.4s-1.1-3.3-3.7-3.3
			H189.4z M210,127v12.8h1.1V127H210z M214.2,127v0.9h3.6v11.8h1.1v-11.8h3.6V127H214.2z M224.2,127c1.2,2.4,2.5,4.9,4.1,7.3v5.6
			h1.1v-5.6c1.7-2.5,2.9-4.9,4.1-7.3h-1.2c-0.9,2-2.1,4.4-3.3,6.4c-1.3-2-2.5-4.3-3.5-6.4H224.2z M190.5,127.9h1.5
			c2,0,2.6,1.2,2.6,2.5s-0.8,2.4-2.6,2.4h-1.5V127.9z"/>
		<path id="Fill-31_00000029737337133484895280000005537680653950687137_" class="st5" d="M68.7,149.7c-3.5,0-5.4,2.8-5.4,6.7
			c0,3.7,1.7,6.5,5.2,6.5s5.4-2.8,5.4-6.7C73.8,152.5,72.2,149.7,68.7,149.7L68.7,149.7z M164,149.7c-2.2,0-3.6,1.3-3.6,3.2
			c0,1.7,0.9,2.6,2.6,3.5c1.5,0.9,2.5,1.5,2.5,3s-0.9,2.4-2.6,2.4c-0.9,0-1.6-0.1-2.4-0.4l-0.2,1c0.8,0.2,1.6,0.4,2.4,0.4
			c2.5,0,4-1.4,4-3.5c0-1.6-0.9-2.5-2.7-3.6c-1.4-0.8-2.4-1.5-2.4-2.9c0-1.2,0.7-2.2,2.3-2.2c0.6,0,1.3,0.1,1.8,0.3l0.2-1
			C165.4,149.8,164.6,149.7,164,149.7z M230.8,149.7c-2.2,0-3.6,1.3-3.6,3.2c0,1.7,0.9,2.6,2.6,3.5c1.5,0.9,2.5,1.5,2.5,3
			s-0.9,2.4-2.6,2.4c-0.9,0-1.6-0.1-2.4-0.4l-0.2,1c0.8,0.2,1.6,0.4,2.4,0.4c2.5,0,4-1.4,4-3.5c0-1.6-0.9-2.5-2.7-3.6
			c-1.4-0.8-2.4-1.5-2.4-2.9c0-1.2,0.7-2.2,2.3-2.2c0.6,0,1.3,0.1,1.8,0.3l0.2-1C232.2,149.8,231.4,149.7,230.8,149.7z M174.1,149.7
			c-3.3,0-5.3,2.7-5.3,6.7c0,4.1,2,6.4,5.2,6.4c1.1,0,2.1-0.3,3-0.7l-0.3-0.9c-0.7,0.3-1.6,0.6-2.5,0.6c-2.7,0-4.2-2-4.2-5.6
			c0-3.3,1.4-5.6,4-5.6c1,0,1.8,0.2,2.6,0.6l0.4-0.9C176.1,149.9,175.2,149.7,174.1,149.7L174.1,149.7z M212.2,149.7
			c-3.3,0-5.3,2.7-5.3,6.7c0,4.1,2,6.4,5.2,6.4c1.1,0,2.1-0.3,3-0.7l-0.3-0.9c-0.7,0.3-1.6,0.6-2.5,0.6c-2.7,0-4.2-2-4.2-5.6
			c0-3.3,1.4-5.6,4-5.6c1,0,1.8,0.2,2.6,0.6l0.4-0.9C214.2,149.9,213.2,149.7,212.2,149.7z M77,149.8v12.8h1.1v-5.9h4.3v-1h-4.3v-5
			h4.8v-1H77z M93.4,149.8c-1.5,3.8-3,8.2-4.3,12.8h1.1c0.3-1.2,0.7-2.5,1-3.7h5.3c0.4,1.2,0.7,2.5,1,3.7h1.2
			c-1.2-4.3-2.6-8.6-4.3-12.8H93.4z M101.9,149.8v12.8h1.1v-5.2h1.8c2.4,0,3.8-1.6,3.8-4c0-1.8-0.9-3.1-2.5-3.5
			c-0.4-0.1-0.9-0.2-1.4-0.2H101.9z M112.3,149.8v12.8h1.1v-5.2h1.8c2.4,0,3.8-1.6,3.8-4c0-1.8-0.9-3.1-2.5-3.5
			c-0.4-0.1-0.9-0.2-1.4-0.2H112.3z M122.1,149.8v12.8h5.8v-1h-4.7v-11.8H122.1z M130.1,149.8v12.8h1.1v-12.8H130.1z M135,149.8
			v12.8h6.1v-1H136v-5.3h4.4v-1H136v-4.7h5v-1L135,149.8L135,149.8z M144.5,149.8v12.8h3.2c3.7,0,5.7-2.3,5.7-6.6
			c0-3.7-1.9-6.2-5.5-6.2L144.5,149.8L144.5,149.8z M180.6,149.8v12.8h1.1v-12.8H180.6z M185.9,149.8v12.8h6.1v-1h-5.1v-5.3h4.4v-1
			h-4.4v-4.7h5v-1L185.9,149.8L185.9,149.8z M195.6,149.8v12.8h1.1v-11.4l0,0l5.8,11.4h1.4v-12.8h-1.1v11l0,0l-5.6-11H195.6z
			 M218.5,149.8v12.8h6.1v-1h-5v-5.3h4.4v-1h-4.4v-4.7h5v-1L218.5,149.8L218.5,149.8z M68.6,150.6c3,0,4.2,2.4,4.2,5.7
			c0,2.9-1.1,5.5-4,5.5c-3,0-4.2-2.4-4.2-5.7C64.5,153.2,65.7,150.6,68.6,150.6L68.6,150.6z M103,150.8h1.6c0.4,0,0.8,0,1.1,0.1
			c1.1,0.3,1.7,1.3,1.7,2.7c0,1.8-0.9,2.9-2.6,2.9h-1.9L103,150.8z M113.4,150.8h1.6c0.4,0,0.8,0,1.1,0.1c1.1,0.3,1.7,1.3,1.7,2.7
			c0,1.8-0.9,2.9-2.6,2.9h-1.9L113.4,150.8z M145.6,150.8h2.2c3,0,4.3,2.3,4.3,5.3c0,3.9-1.4,5.6-4.4,5.6h-2.2L145.6,150.8
			L145.6,150.8z M93.8,151L93.8,151c0.2,0.4,0.3,1,0.5,1.5c0.7,1.9,1.3,3.8,1.9,5.6h-4.7c0.6-1.8,1.2-3.8,1.8-5.6
			C93.5,152,93.7,151.5,93.8,151L93.8,151z"/>
		<path id="Fill-48_00000181074742537251401890000018190203591881429638_" class="st6" d="M83.5,80.7v59.1h12.1V80.7H83.5z
			 M103.7,91.6v48.1h12.1V91.6H103.7z M63.3,102v37.7h12.1V102C75.4,102,63.3,102,63.3,102z"/>
		<path id="Fill-50_00000013153359724283070020000007509140280050781619_" class="st7" d="M98,81.3v57.9l2.8-0.7V82L98,81.3z
			 M118.2,92.2v47l2.9-0.8V93L118.2,92.2z M77.8,102.6v36.5l2.9-0.8v-34.9L77.8,102.6z"/>
		<path id="Fill-52_00000116951730718549707800000004864371861431415997_" class="st6" d="M142.8,120.8c-6.4,0-13.1,0.1-19.9,0.4
			v2.7c17.3-1.4,34.1-2.4,48.9-2.2C163.4,121.2,153.5,120.8,142.8,120.8L142.8,120.8z M61.6,126.3c-27.9,4.9-40.1,11.1-28.8,15.5
			c10,4.4,40.3,5.4,72.9,3.3c-20.7-0.5-38.1-0.5-48.7-2.5c-12.3-3.5-11.2-7.7,4.7-11.7V126.3z"/>
	</g>
</g>
</svg>
