<?xml version="1.0" encoding="utf-8"?>
<!-- Generator: Adobe Illustrator 26.5.0, SVG Export Plug-In . SVG Version: 6.00 Build 0)  -->
<svg version="1.1" id="affiliation" xmlns="http://www.w3.org/2000/svg" xmlns:xlink="http://www.w3.org/1999/xlink" x="0px"
	 y="0px" viewBox="0 0 256 256" style="enable-background:new 0 0 256 256;" xml:space="preserve">
<style type="text/css">
	.st0{fill:#FFFFFF;}
	.st1{fill:#85A5D4;}
	.st2{fill:#0155A9;}
	.st3{fill:#FEFEFE;}
</style>
<rect id="black" width="256" height="256"/>
<circle id="background" class="st0" cx="128" cy="128" r="128"/>
<g id="logo_00000080179234113987053100000012976681773717875887_">
	<g>
		<path class="st1" d="M105.3,109c2,0,4,0,6,0c0.6,0,0.7-0.2,0.7-0.7c0-2.7,0-5.5,0-8.2c0-0.9,0.1-1.8,0.1-2.7
			c0-0.5,0.2-0.7,0.7-0.7c2.4,0,4.9,0,7.3,0c1,0,1.9,0,2.9-0.1c0.7-0.1,0.9,0.1,0.9,0.8c0,3.6,0,7.2-0.1,10.8c0,0.7,0.2,0.9,0.9,0.9
			c8.1,0,16.1,0,24.2,0.1c3,0,5.9,0,8.8,1.1c3.7,1.3,6.5,3.6,8.4,7.2c0.1,0.2,0.2,0.3,0.3,0.5c0.5-0.6,1-1.3,1.5-1.8
			c3.2-3.6,7.2-5.4,11.8-6.3c3.5-0.7,7-0.7,10.6-0.2c0.5,0.1,0.7,0.2,0.7,0.7c0,2.3,0,4.7,0,7c0,0.7-0.2,0.7-0.8,0.6
			c-2.7-0.5-5.4-0.6-8,0.3c-4.6,1.6-6.6,5.8-6,10.3c0.6,5.1,4.7,8,9.5,8.2c2.2,0.1,4.4,0,6.6-0.6c0.6-0.2,0.9-0.4,0.9-1.1
			c0-7.7,0-15.4,0.1-23.1c0.1-4.8,0.1-9.5,0.1-14.3c0-0.6,0.2-0.7,0.7-0.7c3.5,0,7,0,10.5,0c0.6,0,0.8,0.2,0.8,0.8
			c-0.1,5.3-0.1,10.5-0.1,15.8c0,0.3,0,0.5,0,0.9c0.7-0.3,0.9-0.9,1.4-1.2c3.4-2.9,7.3-3.9,11.6-3.4c3,0.3,5.6,1.4,7.7,3.6
			c2,2.1,3,4.6,3.4,7.3c0.6,3.4,0.3,6.8,0.3,10.2c0,4.4-0.1,8.7-0.1,13.1c0,0.7-0.1,0.8-0.8,0.8c-3.4-0.1-6.7-0.1-10.1-0.1
			c-1,0-1,0-1-1c0-6,0-11.9,0-17.9c0-1-0.1-2-0.3-3c-0.6-2.5-2.1-4.1-4.7-4.5c-2.9-0.5-5.8,0.9-7.1,3.6c-0.3,0.7-0.4,1.5-0.4,2.2
			c-0.1,6.6-0.1,13.1-0.1,19.7c0,0.7-0.2,0.9-0.9,0.9c-3.5-0.2-7,0-10.5-0.2c-1.8-0.1-3.4,0.4-5.1,0.6c-5.4,0.5-10.7,0.2-15.6-2.2
			c-4.7-2.4-7.7-6.1-8.7-11.4c-0.1-0.6-0.4-0.8-1-0.8c-3.7,0-7.4,0-11.1,0c-2.7-0.1-5.4-0.1-8.1-0.1c-0.9,0-1,0.1-0.8,1
			c0.6,2.1,2.1,3.4,4.1,4.3c1.7,0.8,3.6,1.1,5.5,1.2c3.8,0.2,7.5-0.2,11.1-1.2c0.5-0.1,0.6-0.1,0.7,0.4c0.4,2,0.9,4,1.3,6
			c0.1,0.4,0,0.7-0.5,0.9c-2.7,0.9-5.6,1.4-8.4,1.7c-2.2,0.2-4.4,0.3-6.6,0.1c-4.2-0.2-8.2-1.1-11.8-3.5c-3.9-2.6-6.1-6.3-6.7-10.9
			c-0.6-4.3,0.1-8.4,2.2-12.2c0-0.1,0-0.1,0.1-0.2c-0.2-0.2-0.4-0.1-0.6-0.1c-2.9,0-5.9,0-8.8,0c-0.6,0-0.8,0.1-0.8,0.8
			c0,3.4,0,6.8,0,10.2c0,0.8,0.1,1.5,0.3,2.3c0.6,2.9,2.5,3.6,5.1,3.5c0.6,0,1.2-0.1,1.8-0.3c0.3-0.1,0.5,0,0.6,0.4
			c0.7,2.7,1.4,5.3,2.1,8c0.1,0.5-0.1,0.7-0.5,0.8c-1.1,0.1-2.2,0.4-3.3,0.4c-2.5,0.1-5,0.5-7.4,0c-3.9-0.7-6.6-3.1-8.5-6.4
			c-1.4-2.3-1.8-4.9-1.8-7.5c0-3.8,0-7.5,0.1-11.3c0-0.7-0.2-0.9-0.9-0.9c-1.9,0-3.9,0-5.8,0C105.3,114.9,105.3,112,105.3,109z
			 M149.9,123.2C149.9,123.2,149.9,123.2,149.9,123.2c2.1,0,4.3,0,6.4,0c0.6,0,0.8-0.2,0.7-0.8c-0.5-4.2-3.1-6.3-7-6.2
			c-3.7,0.2-6.2,2.5-7,6.2c-0.1,0.6,0.1,0.7,0.6,0.7C145.6,123.2,147.8,123.2,149.9,123.2z"/>
		<path class="st2" d="M105.3,109c0,2.9,0,5.9,0,8.8c-0.1,2.7,0.1,5.3-0.2,8c-0.2,2.7-0.7,5.4-1.8,8c-2,4.8-5.5,8-10.5,9.4
			c-4.4,1.2-8.9,1.3-13.3,0.2c-6.1-1.5-9.6-5.6-11.3-11.5c-0.9-3.2-1.1-6.4-1.1-9.7c0-5.5,0-11,0.1-16.4c0-0.6-0.2-0.8-0.8-0.8
			c-6.3,0-12.5,0-18.8,0.1c-3,0-6,0.5-8.8,1.7c-5,2.2-7.7,6.1-8.1,11.6c-0.2,3.2,0.2,6.3,1.8,9.2c2.4,4.4,6.4,6.6,11.2,7.4
			c2.9,0.5,5.8,0.4,8.7-0.1c0.5-0.1,0.7-0.3,0.7-0.9c0-2.9,0-5.7,0-8.6c0-0.6-0.2-0.7-0.7-0.7c-3.1,0-6.3,0-9.4,0
			c-0.5,0-0.7-0.1-0.7-0.7c0-2.4,0-4.7,0-7.1c0-0.5,0.1-0.7,0.6-0.7c7,0.1,14,0.1,21,0.1c0.6,0,0.8,0.2,0.8,0.8
			c-0.1,7.8-0.1,15.6-0.1,23.4c0,0.6-0.2,0.8-0.7,0.9c-7.5,2-15.1,2.9-22.8,2c-4-0.4-7.8-1.4-11.4-3.2c-6.2-3.3-9.9-8.4-11.2-15.2
			c-1.3-6.8-0.2-13.1,4-18.7c3-4.1,7.2-6.6,11.9-8.3c4-1.4,8.2-2.1,12.5-2.1c5.2-0.1,10.4,0.3,15.5,0.4c4.9,0.1,9.9,0.1,14.8,0.1
			c1.3,0,1.3,0,1.3,1.3c0,8.9-0.1,17.9-0.1,26.8c0,1.6,0.2,3.3,0.6,4.9c0.9,3.4,2.6,4.8,6.1,5.1c1,0.1,1.9,0,2.9-0.2
			c2.2-0.4,3.6-1.7,4.4-3.7c0.9-2.3,1-4.8,1-7.2c0.1-7.4,0.1-14.7,0.1-22.1c0-1.4,0-2.8,0-4.2c0-0.5,0.1-0.7,0.7-0.7
			c3.4,0,6.8,0.1,10.2,0.1c0.5,0,0.7,0.2,0.7,0.7c0,3.7-0.1,7.4-0.1,11.1C105.3,108.6,105.3,108.8,105.3,109z"/>
		<path class="st2" d="M158,105.7c-0.8,0-1.5,0-2.3,0c-0.4,0-0.5-0.1-0.5-0.5c0-0.8,0-1.5,0-2.3c0-0.5-0.1-0.6-0.6-0.6
			c-1.4,0-1.4,0-1.4,1.3c0,0.6,0,1.1,0,1.7c0,0.3-0.1,0.4-0.4,0.4c-2.4,0.2-2.4,0.2-2.4-2.2c0-1.2,0-2.4,0-3.6
			c0-0.6-0.2-0.7-0.7-0.7c-1.2,0-1.2,0-1.2,1.3c0,1.5,0,3.1,0,4.6c0,0.5-0.1,0.6-0.6,0.6c-0.7,0-1.6,0.2-2.1-0.1
			c-0.5-0.4-0.1-1.3-0.1-2.1c0-1.2,0-2.4,0-3.6c0-0.5-0.2-0.7-0.7-0.7c-1.3,0-1.3,0-1.3,1.2c0,1.5,0,3,0,4.5c0,0.5-0.1,0.7-0.7,0.7
			c-2.3,0-2.3,0-3.1-2.1c-0.2-0.6-0.5-1.1-0.8-1.7c0,1.1,0,2.1,0,3.2c0,0.4-0.1,0.5-0.6,0.6c-2.3,0.1-2.3,0.1-3.2-2.1
			c-0.5-1.3-1.1-2.5-1.6-3.8c-0.1-0.2-0.1-0.5-0.5-0.7c0.2,1.1,0.1,1.9-0.6,2.7c-0.2,0.3,0,0.5,0.1,0.7c0.4,1,0.8,2,1.3,3.2
			c-0.9,0-1.7,0-2.6,0c-0.3,0-0.4-0.1-0.4-0.3c-0.5-1.2-1-2.4-1.5-3.6c-0.1-0.3-0.1-0.5,0.3-0.5c0.5,0,0.9-0.3,1-0.8
			c0.1-0.4-0.1-0.8-0.5-1.1c-0.5-0.3-1-0.2-1.5-0.1c-0.2,0.1-0.1,0.4-0.1,0.6c0,1.7,0,3.4,0,5.1c0,0.5-0.1,0.7-0.6,0.6
			c-0.7-0.1-1.6,0.3-2.1-0.1c-0.4-0.4-0.1-1.3-0.1-2c0-1.9,0-3.8,0-5.7c0-0.5,0.1-0.6,0.6-0.6c1.3,0,2.5,0,3.8,0
			c1.1,0,2,0.4,2.7,1.3c0-0.2,0.1-0.3,0-0.3c-0.2-1-0.2-1,0.9-1c1.7,0,1.7,0,2.3,1.5c0.3,0.7,0.6,1.3,0.9,2.2c0.3-0.8,0.2-1.4,0.2-2
			c0-1.7,0-1.6,1.7-1.7c0.9,0,1.3,0.2,1.6,1c0.3,1,0.8,1.9,1.3,2.8c0-1.1,0-2.2,0-3.2c0-0.4,0.1-0.6,0.6-0.6c3.4,0,6.8,0,10.2,0
			c0.5,0,0.6,0.2,0.6,0.6c0,0.6,0,1.2,0,1.8c0,0.5,0.1,0.6,0.6,0.6c1.4,0,1.4,0,1.4-1.3c0-1.8,0-1.8,1.8-1.8c1.1,0,1.1,0,1.1,1.1
			c0,2.3,0,4.7,0,7C158,105.5,158,105.6,158,105.7z"/>
		<path class="st2" d="M109.6,159.6c-0.6,0-1,0-1.5,0c-1.1-0.1-1.6-0.6-1.6-1.7c0-0.7,0-1.3,0-2c0-0.9,0.5-1.4,1.4-1.5
			c0.5-0.1,1-0.1,1.5,0c0.9,0.1,1.4,0.6,1.4,1.6c0,0.6,0,1.2,0,1.8c0,0.4,0.1,0.5,0.5,0.5c1.4,0,1.4,0,1.4-1.3c0-0.6,0-1.2,0-1.8
			c0-0.4,0.1-0.8,0.6-0.8c0.5,0,0.6,0.3,0.6,0.7c0,0.9,0,1.8,0,2.7c0,0.4,0.1,0.5,0.5,0.5c1.2,0,2.4,0,3.5,0c0.4,0,0.6-0.1,0.6-0.5
			c-0.1-2.5,0.3-2.2-2.2-2.2c-0.3,0-0.7,0.1-0.9-0.3c-0.2-0.4,0-0.7,0.2-1c0.6-0.7,1.1-1.4,1.6-2c0.2-0.3,0.5-0.5,0.9-0.2
			c0.4,0.3,0.3,0.6,0,0.9c-0.3,0.4-0.7,0.8-1,1.3c0.1,0.1,0.1,0.1,0.1,0.1c2,0.1,2.3,0.5,2.3,2.4c0,1.5,0,1.5,1.5,1.5
			c0.2,0,0.4,0,0.5,0c0.4,0.1,0.6-0.1,0.6-0.5c0-0.9,0-1.7,0-2.6c0-0.4,0.1-0.8,0.6-0.8c0.5,0,0.6,0.3,0.6,0.8c0,0.9,0,1.8,0,2.7
			c0,0.4,0.1,0.5,0.5,0.5c2.1,0.1,2.1,0.1,2.1-2c0-0.9,0-1.8,0-2.7c0-0.4,0-0.9,0.6-0.9c0.6,0,0.6,0.5,0.6,0.9c0,1.3,0,2.7,0,4
			c0,0.4,0,0.6,0.6,0.6c1.7,0,1.7,0,1.7-1.7c0-1,0-2,0-3.1c0-0.4,0.1-0.8,0.6-0.8c0.5,0,0.6,0.3,0.6,0.7c0,1.7,0,3.5,0,5.2
			c0,0.6-0.3,0.8-0.8,0.7c-1-0.1-2.1,0.3-3.1-0.3c-0.8,0.5-1.7,0.3-2.5,0.3c-3.3,0-6.5,0.1-9.8,0c-1.1,0-2.1,0.1-3.1,0
			c-0.3,0-0.5,0.1-0.6,0.4c-0.3,1-1.3,1.4-2.4,1.1c-0.3-0.1-0.4-0.3-0.4-0.6c0-0.3,0.2-0.5,0.5-0.6
			C108.8,160,109.3,160.2,109.6,159.6z M109.6,157.2c0-1.5-0.1-1.6-1.3-1.5c-0.5,0-0.7,0.3-0.7,0.7c0.1,0.7-0.4,1.5,0.4,2
			c0,0,0.1,0,0.1,0C109.4,158.7,109.6,158.5,109.6,157.2C109.6,157.3,109.6,157.2,109.6,157.2z"/>
		<path class="st2" d="M185,154.1c0.7,0,1,0.3,1,1c-0.1,0.9,0,1.8,0,2.8c0,0.3,0,0.5,0.4,0.5c6.5,0,12.9,0,19.4,0
			c0-0.4-0.2-0.5-0.4-0.7c-0.8-0.7-0.8-1.6-0.4-2.5c0.4-0.9,1.2-0.8,2-0.9c0.7,0,1.3,0,2,0c0.7,0,1.3,0.2,1.6,0.9
			c0.2,0.7,0.4,1.4-0.2,2.1c-0.2,0.3-0.4,0.5-0.7,0.9c0.1,0,0.2,0.1,0.2,0.1c1.6,0.1,1.6,0.1,1.6-1.6c0-0.4,0-0.7,0-1.1
			c0.1-0.6,0.4-1.1,1.1-1.2c0.4-0.1,0.9-0.1,1.3-0.1c1.4,0,1.9,0.5,1.9,1.9c0,0.6,0,1.2,0,1.8c0,0.6-0.3,1.2-0.9,1.4
			c-0.9,0.2-1.8,0.3-2.6,0c-0.1,0-0.1-0.1-0.2-0.1c-1.4,0.5-2.7,0.3-4.1,0.1c-0.3,0-0.6,0.2-1,0.2c-7.8,0-15.5,0-23.3,0
			c-1.4,0-1.9-0.5-2-1.9c0-0.6,0-1.1,0-1.7c0.1-1,0.5-1.4,1.5-1.5c0.4,0,0.8-0.1,1.2,0C184.7,154.6,184.9,154.5,185,154.1L185,154.1
			z M207.7,158.7c0.5-0.6,1-1.3,1.6-1.9c0.2-0.3,0.2-0.6,0.1-0.9c-0.1-0.3-0.4-0.3-0.7-0.3c-0.7,0-1.3,0-2,0c-0.3,0-0.6,0-0.8,0.4
			c-0.1,0.3,0,0.6,0.2,0.8C206.7,157.5,207.2,158.1,207.7,158.7z M184.7,157.1c0-1.4,0-1.4-0.9-1.4c-1,0-1.1,0.1-1.1,1.1
			c0,0.3,0,0.6,0,0.8c0,0.6,0.2,0.9,0.9,0.8c1.1,0,1.1,0,1.1-1.1C184.7,157.2,184.7,157.2,184.7,157.1z M214.6,157.1
			c0-1.4,0-1.4-0.8-1.4c-1.1,0-1.1,0-1.1,1.1c0,0.4,0,0.8,0,1.2c0,0.4,0.1,0.5,0.5,0.5c0.3,0,0.5,0,0.8,0c0.5,0,0.7-0.2,0.7-0.7
			C214.6,157.5,214.6,157.3,214.6,157.1z"/>
		<path class="st2" d="M36.8,159.7c-3.3,0-6.6,0-9.9,0c-0.3,0-0.6,0-0.8,0c-1-0.1-1.5-0.5-1.6-1.5c-0.1-1.5,0-3.1,0-4.6
			c0-0.4,0.2-0.7,0.6-0.6c0.4,0,0.6,0.3,0.6,0.7c0,1.3,0,2.6,0,3.9c0,0.7,0.2,0.9,0.9,0.9c6.1,0,12.2,0,18.3,0
			c0.5,0,0.6-0.1,0.6-0.6c-0.1-0.7-0.1-1.4,0-2.1c0.1-0.7,0.5-1.1,1.1-1.2c0.3-0.1,0.7-0.1,1-0.1c1.7,0,2.2,0.5,2.2,2.2
			c0,0.1,0,0.1,0,0.2c0,1.7,0,1.7,1.8,1.6c0.4,0,0.4-0.2,0.4-0.5c0-0.6,0-1.2,0-1.8c0.1-1,0.6-1.6,1.6-1.6c0.8,0,1.7-0.2,2.5,0.3
			c0.4,0.2,0.8,0.4,0.5,0.9c-0.2,0.5-0.6,0.4-1,0.2c-0.6-0.3-1.3-0.3-1.9-0.1c-1,0.4-0.3,1.3-0.5,2c-0.1,0.5,0.2,0.7,0.7,0.7
			c0.7,0,1.3,0,2,0c0.4,0,0.8,0.1,0.8,0.6c0,0.5-0.4,0.6-0.8,0.6c-2.2,0-4.4,0-6.5,0c-0.6,0-0.8-0.2-0.8-0.8c0-0.8,0-1.6,0-2.5
			c0-0.7-0.4-0.8-1-0.8c-0.6,0-1.1,0-1,0.8c0,0.4,0,0.7,0,1.1c0,0.6,0.2,1,0.9,0.9c0.5,0,0.8,0.1,0.8,0.7c0,0.5-0.4,0.6-0.8,0.6
			C43.8,159.6,40.3,159.6,36.8,159.7C36.8,159.7,36.8,159.7,36.8,159.7z"/>
		<path class="st2" d="M135.9,154.1c0.8,0,1,0.3,1,1.1c-0.1,0.8,0,1.7,0,2.5c0,0.5,0.1,0.7,0.7,0.7c5.8,0,11.6,0,17.4,0
			c0.6,0,1.4,0.3,1.7-0.1c0.3-0.4,0.1-1.1,0.1-1.7c0-0.5,0-1,0-1.5c0-0.4,0.2-0.6,0.6-0.6c0.4,0,0.6,0.2,0.6,0.6c0,0.9,0,1.9,0,2.8
			c0,0.4,0.1,0.5,0.5,0.5c1.7,0,1.7,0,1.7-1.7c0-0.5,0-1.1,0-1.6c0-0.4,0.2-0.7,0.6-0.7c0.4,0,0.6,0.3,0.6,0.7c0,1.3,0,2.5,0,3.8
			c0,0.5-0.2,0.8-0.7,0.7c-1.1-0.1-2.1-0.1-3.2-0.1c-0.9-0.1-1.9,0.1-2.8,0.1c-6.6,0-13.3,0-19.9,0c-0.4,0-0.8,0-1.1-0.1
			c-0.3-0.1-0.6-0.3-0.7-0.6c-0.4-1.2-0.5-2.5,0-3.7c0.4-1,1.6-0.8,2.5-0.7C135.6,154.6,135.8,154.5,135.9,154.1L135.9,154.1z
			 M135.6,157c0-1.5,0-1.5-1.3-1.4c-0.1,0-0.1,0-0.2,0c-0.5,0.1-0.5,0.5-0.5,0.9c0.1,0.6-0.4,1.5,0.4,1.8c1.1,0.4,1.5,0,1.5-1.1
			C135.6,157.2,135.6,157.1,135.6,157z"/>
		<path class="st1" d="M158,105.7c0-0.1,0-0.2,0-0.3c0.6-1.6,0.9-3.2,1.4-4.8c0.3-0.9,0.5-1.7,0.7-2.6c0.1-0.4,0.3-0.6,0.7-0.6
			c1.6,0,1.6,0,2,1.5c0.4,1.6,0.8,3.2,1.4,4.8c0.4-1.5,0.8-3.1,1.2-4.6c0-0.1,0-0.2,0-0.2c0.4-1.5,0.6-1.6,2.2-1.4
			c0.3,0,0.4,0.1,0.5,0.4c0.7,2.6,1.4,5.2,2.1,7.9c-0.2,0-0.4,0-0.6,0c-1.1,0-1.1,0-1.4-1.1c-0.1-0.5-0.3-0.7-0.8-0.6
			c-0.1,0-0.3,0-0.5,0c-0.8-0.1-1.3,0.2-1.3,1.1c0,0.5-0.2,0.8-0.8,0.7c-0.2,0-0.3,0-0.5,0c-1.4,0-1.4,0-1.8-1.3
			c-0.1-0.3-0.2-0.4-0.5-0.4c-0.2,0-0.4,0-0.5,0c-1.2,0-1.3,0-1.5,1.2c-0.1,0.4-0.3,0.6-0.7,0.6C158.8,105.7,158.4,105.7,158,105.7z
			 M161.4,99.1c0,0-0.1,0-0.1,0c-0.2,0.9-0.4,1.9-0.6,2.8c0,0.2-0.3,0.6,0,0.7c0.4,0.1,0.8,0.1,1.2,0c0.3-0.1,0.2-0.5,0.1-0.7
			C161.8,100.9,161.6,100,161.4,99.1z M167,99.1c0,0-0.1,0-0.1,0c-0.2,0.9-0.4,1.8-0.6,2.7c-0.1,0.3-0.2,0.6,0.1,0.7
			c0.4,0.2,0.8,0.1,1.3,0c0.1,0,0.1-0.2,0.1-0.3C167.5,101.2,167.2,100.1,167,99.1z"/>
		<path class="st2" d="M80.3,158.4c3.1,0,6.2,0,9.2,0c0.5,0,0.7-0.1,0.7-0.7c0-0.9,0-1.7,0-2.6c0-0.4,0.1-0.7,0.5-0.7
			c0.4,0,0.7,0.2,0.7,0.7c0,0.9,0,1.8,0,2.7c0,0.4,0.1,0.6,0.6,0.6c1.5,0,3.1,0,4.6,0c0.4,0,0.6-0.1,0.6-0.6c0-0.2,0-0.5,0-0.7
			c0-1.2-0.3-1.5-1.6-1.5c-0.5,0-1.1,0-1.6,0c-0.4,0-0.6-0.2-0.6-0.5c0-0.4,0.2-0.7,0.6-0.7c0.8,0,1.7,0,2.5,0
			c1,0.1,1.5,0.6,1.7,1.6c0.2,1,0.1,2,0.1,3c0,0.5-0.4,0.6-0.8,0.6c-1.7,0-3.4,0.1-5.2,0c-1.3-0.1-2.6,0-3.9,0c-1.3,0-2.7,0-4,0
			c-4.4,0-8.8,0-13.2,0c-0.3,0-0.6,0-0.8,0c-0.9-0.1-1.4-0.6-1.4-1.5c0-1.5,0-3,0-4.5c0-0.4,0.1-0.7,0.6-0.7c0.5,0,0.6,0.4,0.6,0.8
			c0,1.3,0,2.5,0,3.8c0,0.7,0.2,1,1,1C74.1,158.4,77.2,158.4,80.3,158.4C80.3,158.4,80.3,158.4,80.3,158.4z"/>
		<path class="st2" d="M172.7,156.3c0,0.8,0,1.7,0,2.5c0,0.5-0.2,0.8-0.7,0.8c-1.1,0-2.2,0-3.2,0c-0.5,0-0.6-0.2-0.6-0.7
			c0-0.8,0-1.7,0-2.5c0-0.8-0.5-0.8-1.1-0.8c-0.6,0-0.9,0.1-0.9,0.8c0,0.3,0,0.5,0,0.8c0,1.1,0,1.1,1.1,1.2c0.4,0,0.6,0.2,0.6,0.6
			c0,0.4-0.3,0.6-0.7,0.6c-1.3,0-2.5,0-3.8,0c-1.1,0-1.6-0.6-1.7-1.7c0-1.4,0-2.8,0-4.2c0-0.4,0.1-0.8,0.6-0.8
			c0.5,0,0.6,0.4,0.6,0.8c0,1.3,0,2.5,0,3.8c0,0.7,0.2,1,0.9,0.9c0.1,0,0.1,0,0.2,0c0.8,0.1,1.1-0.1,1-0.9c-0.1-0.4,0-0.9,0-1.4
			c0-1,0.5-1.5,1.5-1.6c0.3,0,0.6,0,0.8,0c1.5,0,2,0.5,2,2c0,0.2,0,0.5,0,0.7c0,1.3,0,1.3,1.3,1.3c0.7,0,0.9-0.2,0.9-0.9
			c-0.1-1.3,0-2.6,0-3.8c0-0.4,0.1-0.8,0.6-0.8c0.5,0,0.6,0.4,0.6,0.8C172.7,154.6,172.7,155.5,172.7,156.3z"/>
		<path class="st1" d="M190.6,102.5c0-1.4,0-2.9,0-4.3c0-0.6,0.2-0.8,0.8-0.8c0.6,0,0.9,0.1,0.9,0.8c0,2.3,0,4.6,0,6.9
			c0,0.5-0.1,0.7-0.6,0.7c-0.2,0-0.4,0-0.6,0c-0.5,0.1-0.8-0.1-1-0.7c-0.5-1.5-1.1-3.1-1.8-4.6c0,1.5,0,3,0,4.5
			c0,0.7-0.2,0.8-0.8,0.8c-0.6,0-0.8-0.1-0.8-0.8c0-2.3,0-4.5,0-6.8c0-0.7,0.2-0.8,0.8-0.8c0.9-0.1,1.4,0.2,1.6,1.1
			c0.4,1.4,0.9,2.7,1.4,4C190.4,102.5,190.5,102.5,190.6,102.5z"/>
		<path class="st2" d="M222.3,159.7c-1.3,0-2.7,0-4,0c-1.5,0-2-0.5-2-2c0-1.3,0-2.6,0-3.8c0-0.4,0-0.9,0.6-0.9
			c0.6,0,0.6,0.5,0.6,0.9c0,1.2,0,2.5,0,3.7c0,0.6,0.2,0.9,0.8,0.9c1.4,0,2.8,0,4.2,0c0.5,0,0.6-0.2,0.6-0.6c0-0.1,0-0.2,0-0.3
			c0-1.7-0.2-1.9-1.8-1.9c-0.4,0-0.9,0-1.3,0c-0.4,0-0.6-0.2-0.6-0.6c0-0.4,0.2-0.6,0.5-0.6c0.9,0,1.8-0.1,2.8,0.1
			c1,0.2,1.4,0.9,1.6,1.8c0.1,0.4,0.1,0.7,0.1,1.1c0,1,0,1,1,1c0.7,0.1,1-0.1,0.9-0.9c-0.1-1.3,0-2.5,0-3.8c0-0.4,0.1-0.9,0.6-0.8
			c0.5,0,0.6,0.4,0.6,0.8c0,1.7,0,3.4,0,5.1c0,0.7-0.3,0.8-0.9,0.8C225.1,159.6,223.7,159.6,222.3,159.7
			C222.3,159.7,222.3,159.7,222.3,159.7z"/>
		<path class="st2" d="M63.7,156.6c0.7,0,1.2,0,1.7,0c1.4,0,2.2,1.4,1.7,2.7c-0.1,0.3-0.4,0.3-0.6,0.3c-2.1,0-4.3,0-6.4,0
			c-1.1,0-1.8-1-1.6-2.1c0.1-0.3,0.2-0.5,0.6-0.5c0.4,0,0.6,0.1,0.6,0.5c-0.1,0.9,0.5,0.9,1.1,0.9c1.5,0,3,0,4.5,0
			c0.2,0,0.5,0.2,0.5-0.2c0-0.3-0.3-0.4-0.6-0.4c-0.9,0-1.9,0-2.8,0c-0.2,0-0.4,0-0.5,0c-0.3,0-0.4-0.2-0.5-0.5
			c0-0.3,0.1-0.5,0.4-0.6c0.2-0.1,0.5,0.1,0.9-0.2c-0.7-0.2-1.3-0.4-1.5-1.1c-0.2-0.6-0.2-1.3,0-1.9c0.5-1.3,1.6-1,2.6-1
			c0.9,0,1.4,0.4,1.6,1.1C65.7,154.9,65.4,155.6,63.7,156.6z M63.3,155.1c0.6,0,1-0.1,1-0.8c0-0.7-0.5-0.7-1-0.7c-0.5,0-1-0.1-1,0.7
			C62.3,155.1,62.7,155.2,63.3,155.1z"/>
		<path class="st1" d="M175.6,101.5c0-1.2,0-2.4,0-3.6c0-0.8,0.5-0.5,0.9-0.5c0.4,0,0.9-0.1,0.8,0.6c0,0.7,0,1.3,0,2
			c0,0.4,0.1,0.6,0.6,0.6c0.1,0,0.1,0,0.2,0c1.5,0,1.2,0.2,1.3-1.3c0-0.3,0-0.6,0-0.9c-0.1-0.8,0.2-1,1-1c0.6,0,0.8,0.1,0.7,0.7
			c0,2.3,0,4.6,0,6.9c0,0.7-0.3,0.7-0.8,0.7c-0.5,0-1,0.1-0.9-0.7c0.1-0.8,0-1.6,0-2.5c0-0.4-0.1-0.5-0.5-0.5
			c-1.5-0.1-1.5-0.1-1.5,1.4c0,0.5,0,1,0,1.5c0.1,0.6-0.2,0.8-0.8,0.8c-0.8,0-1-0.2-0.9-1C175.6,103.7,175.6,102.6,175.6,101.5z"/>
		<path class="st2" d="M102,159.6c-0.6,0-1.1,0-1.6,0c-1.1-0.1-1.6-0.6-1.6-1.6c0-0.6,0-1.3,0-1.9c0.1-1,0.6-1.5,1.6-1.6
			c0.4,0,0.8,0,1.2,0c1,0.1,1.4,0.5,1.5,1.5c0.1,0.6,0.1,1.3,0,1.9c0,0.8,0.5,0.5,0.9,0.5c0.4,0.1,0.7,0.1,0.7-0.6
			c0-1.4,0-2.7,0-4.1c0-0.4,0-0.9,0.6-0.9c0.6,0,0.6,0.4,0.6,0.9c0,1.7,0,3.3,0,5c0,0.6-0.2,0.9-0.9,0.9c-0.3,0-0.6,0-0.9,0
			c-0.6,0-1-0.1-1.2,0.7c-0.2,0.7-1.6,1.1-2.3,0.8c-0.3-0.1-0.3-0.4-0.3-0.7c0-0.3,0.3-0.4,0.5-0.5C101.2,160,101.6,160.1,102,159.6
			z M102,157.2c0-1.5-0.1-1.6-1.3-1.5c-0.4,0-0.7,0.2-0.6,0.7c0.1,0.7-0.5,1.7,0.4,2.1C101.5,158.8,102,158.4,102,157.2
			C102,157.3,102,157.2,102,157.2z"/>
		<path class="st1" d="M181.4,101.5c0-1.2,0-2.4,0-3.5c0-0.5,0.1-0.6,0.6-0.6c1.2,0,2.4,0,3.5,0c0.6,0,0.5,0.3,0.5,0.7
			c0,0.4,0.1,0.7-0.5,0.7c-0.6,0-1.2,0-1.8,0c-0.5,0-0.6,0.2-0.6,0.6c0,1.5-0.1,1.2,1.3,1.3c0.2,0,0.5,0,0.7,0
			c0.8-0.1,0.9,0.2,0.9,0.9c0,0.4-0.1,0.6-0.6,0.6c-0.6,0-1.2,0-1.8,0c-0.3,0-0.5,0.1-0.5,0.4c0,0,0,0.1,0,0.1
			c-0.1,1.7-0.1,1.7,1.5,1.7c0.3,0,0.5,0,0.8,0c0.8-0.1,0.8,0.3,0.8,0.9c0,0.4-0.2,0.5-0.5,0.5c-1.2,0-2.5,0-3.7,0
			c-0.5,0-0.6-0.2-0.6-0.6C181.4,103.9,181.4,102.7,181.4,101.5z"/>
		<path class="st1" d="M169.8,101.7c0-1.1,0-2,0.3-2.9c0.4-1.3,1.8-1.9,3.4-1.5c1,0.2,1.8,1.3,1.7,2.5c0,0.1,0,0.3-0.1,0.3
			c-0.5,0.4-1.6,0-1.7-0.6c-0.1-0.6-0.3-1.1-1-1c-0.7,0-0.8,0.6-0.9,1.1c-0.2,1.3-0.2,2.6,0,3.9c0.1,0.5,0.2,1.1,0.9,1.1
			c0.7,0,0.9-0.5,1-1.1c0-0.1,0.1-0.3,0.1-0.4c-0.1-0.6,0.2-0.7,0.7-0.7c1,0,1.1,0.1,0.9,1.1c-0.2,1.5-1,2.3-2.5,2.3
			c-1.7,0-2.6-0.7-2.9-2.3C169.8,102.9,169.7,102.2,169.8,101.7z"/>
		<path class="st2" d="M23.6,171.8c-0.6,0-1.2,0-1.8,0c-1.1-0.1-1.6-0.6-1.7-1.7c0-0.7,0-1.4,0-2.1c0.1-0.9,0.5-1.4,1.3-1.5
			c1.5-0.2,3-0.1,4.4-0.1c0.4,0,0.3,0.3,0.4,0.6c0,0.4-0.1,0.5-0.5,0.5c-1,0-2.1,0-3.1,0c-1.2,0-1.4,0.2-1.4,1.4
			c0,1.8,0,1.8,1.8,1.8c0.5,0,1,0,1.5,0c0.5,0,0.6-0.2,0.6-0.7c0-0.5-0.2-0.5-0.6-0.5c-0.5,0-0.9,0-1.4,0c-0.3,0-0.5-0.1-0.5-0.5
			c0-0.4,0.1-0.5,0.5-0.5c0.9,0,1.7,0,2.6,0c0.4,0,0.5,0.1,0.5,0.5c0,0.6,0,1.1,0,1.7c0,0.7-0.4,1-1.1,1
			C24.7,171.8,24.1,171.8,23.6,171.8C23.6,171.8,23.6,171.8,23.6,171.8z"/>
		<path class="st2" d="M204.4,171.8c-0.6,0-1.1,0-1.7,0c-1-0.1-1.5-0.5-1.6-1.5c-0.1-0.8-0.1-1.6,0-2.4c0.1-0.7,0.5-1.2,1.2-1.3
			c1.4-0.2,2.8-0.2,4.2,0c0.6,0.1,1,0.5,1.1,1.2c0.1,0.8,0.1,1.7,0,2.5c-0.1,1-0.6,1.4-1.6,1.5C205.5,171.8,204.9,171.8,204.4,171.8
			z M204.4,170.7C204.4,170.7,204.4,170.7,204.4,170.7c0.4,0,0.8,0,1.2,0c0.7,0,1-0.4,0.9-1c-0.1-0.8,0.5-1.8-0.7-2.2
			c0,0-0.1,0-0.2,0c-0.8,0-1.7,0-2.5,0c-0.6,0-0.8,0.3-0.9,0.9C202.2,171,202.2,170.7,204.4,170.7
			C204.3,170.7,204.4,170.7,204.4,170.7z"/>
		<path class="st2" d="M177.1,173.5c-0.6,0-1.2,0-1.8,0c-0.3,0-0.4-0.1-0.4-0.4c0-0.3,0.1-0.5,0.5-0.5c0.9,0,1.9,0,2.8,0
			c0.2,0,0.4,0,0.6,0c0.4-0.1,0.5-0.4,0.5-0.7c0-0.4-0.4-0.3-0.6-0.3c-0.9,0-1.7,0-2.6,0c-1,0-1.4-0.4-1.5-1.5c0-0.1,0-0.1,0-0.2
			c-0.1-1.9,0.3-2.3,2.2-2.3c0.8,0,1.5,0,2.3,0c0.9,0,1.3,0.4,1.3,1.3c0,1,0,2.1,0,3.1c0,0.9-0.4,1.3-1.3,1.4
			C178.4,173.5,177.7,173.5,177.1,173.5C177.1,173.5,177.1,173.5,177.1,173.5z M177.6,170.7c1.8,0,1.8,0,1.6-1.5
			c-0.1-0.4-0.2-0.7-0.7-0.7c-0.7,0-1.5,0-2.2,0c-0.4,0-0.6,0.2-0.7,0.6c-0.2,1.2,0.1,1.5,1.3,1.5
			C177.1,170.7,177.4,170.7,177.6,170.7z"/>
		<path class="st2" d="M212.4,167.6c0.8,0,1.5,0,2.3,0c0.9,0,1.3,0.4,1.3,1.3c0,0.8,0,1.5,0,2.3c0,0.4-0.1,0.5-0.5,0.5
			c-0.4,0-0.6-0.1-0.6-0.6c0-0.6,0-1.2,0-1.8c0-0.6-0.2-0.9-0.8-0.8c-0.2,0-0.4,0-0.5,0c-0.6-0.1-0.8,0.1-0.8,0.8c0.1,0.7,0,1.3,0,2
			c0,0.4-0.2,0.5-0.6,0.5c-0.4,0-0.6-0.1-0.6-0.5c0-0.7,0-1.4,0-2.1c0-0.6-0.2-0.7-0.7-0.7c-0.2,0-0.4,0-0.6,0
			c-0.5,0-0.8,0.3-0.8,0.8c0,0.6,0,1.3,0,1.9c0,0.4-0.2,0.5-0.6,0.5c-0.3,0-0.6,0-0.6-0.5c0-0.8,0-1.5,0-2.3c0.1-1,0.4-1.3,1.5-1.4
			C210.9,167.6,211.7,167.6,212.4,167.6C212.4,167.6,212.4,167.6,212.4,167.6z"/>
		<path class="st2" d="M41.6,167.6c0.8,0,1.6,0,2.4,0c1,0,1.3,0.4,1.4,1.4c0,0.7,0,1.5,0,2.2c0,0.5-0.2,0.5-0.6,0.6
			c-0.5,0-0.5-0.2-0.5-0.6c0-0.6,0-1.2,0-1.8c0-0.6-0.3-0.9-0.9-0.9c-0.2,0-0.5,0-0.7,0c-0.4,0-0.6,0.1-0.6,0.5c0,0.7,0,1.4,0,2.1
			c0,0.5-0.2,0.5-0.6,0.5c-0.4,0-0.5-0.1-0.5-0.5c0-0.7,0-1.5,0-2.2c0-0.4-0.1-0.5-0.5-0.5c-0.2,0-0.5,0-0.7,0c-0.7,0-1,0.3-1,0.9
			c0,0.6,0,1.2,0,1.8c0,0.4-0.2,0.4-0.5,0.4c-0.3,0-0.6,0-0.6-0.5c0-0.8,0-1.6,0-2.4c0-0.9,0.4-1.3,1.3-1.3
			C40,167.6,40.8,167.7,41.6,167.6C41.6,167.6,41.6,167.6,41.6,167.6z"/>
		<path class="st2" d="M23.9,156.9c0,0.7,0,1.4,0,2.2c0,1-0.5,1.5-1.4,1.6c-0.9,0.1-1.8,0.1-2.7,0c-1-0.1-1.4-0.6-1.4-1.6
			c0-0.7,0-1.4,0-2.2c0-0.4,0.2-0.6,0.6-0.6c0.4,0,0.6,0.3,0.6,0.7c0,0.3,0,0.5,0,0.8c0,2-0.1,1.8,1.8,1.8c0.1,0,0.2,0,0.3,0
			c1.1,0,1.1,0,1.1-1.1c0-1.1,0-2.3,0-3.4c0-0.4-0.2-1.1,0.6-1.1c0.8,0,0.6,0.6,0.6,1.1C23.9,155.7,23.9,156.3,23.9,156.9
			C23.9,156.9,23.9,156.9,23.9,156.9z"/>
		<path class="st2" d="M61.6,168.4c0-0.4,0-0.8,0-1.2c0-0.4,0-0.8,0.6-0.8c0.6,0,0.6,0.3,0.6,0.7c0,0.8,0,1.7,0,2.5c0,0.7,0.3,1,1,1
			c0.7,0,1.4,0,2.1,0c0.7,0,1-0.3,1-1c0-0.9,0-1.8,0-2.7c0-0.4,0.1-0.6,0.5-0.6c0.4,0,0.7,0.1,0.7,0.6c0,1.1,0,2.2-0.1,3.2
			c-0.1,1-0.6,1.5-1.6,1.6c-1,0-2,0-3.1,0c-1.1,0-1.6-0.5-1.7-1.6C61.6,169.6,61.7,169,61.6,168.4C61.7,168.4,61.6,168.4,61.6,168.4
			z"/>
		<path class="st2" d="M30.1,171.8c-0.6,0-1.2,0-1.8,0c-0.9-0.1-1.2-0.5-1.3-1.3c0-0.5,0-1,0-1.5c0-0.8,0.4-1.2,1.2-1.3
			c1,0,2.1,0,3.1,0c0.4,0,0.8,0.2,0.9,0.6c0.1,0.5,0.2,1.1,0,1.6c-0.1,0.2-0.4,0.2-0.6,0.2c-0.9,0-1.8,0-2.8,0
			c-0.2,0-0.7-0.2-0.7,0.3c0,0.5,0.4,0.5,0.8,0.5c0.9,0,1.9,0,2.8,0c0.3,0,0.5,0,0.5,0.4c0,0.4-0.1,0.6-0.5,0.6
			C31.3,171.8,30.7,171.8,30.1,171.8C30.1,171.8,30.1,171.8,30.1,171.8z M29.8,169.3c0.4,0,0.8,0,1.1,0c0.2,0,0.4,0,0.4-0.3
			c0-0.2,0-0.5-0.3-0.6c-0.9-0.1-1.7-0.1-2.6,0c-0.3,0.1-0.3,0.3-0.3,0.5c0,0.3,0.3,0.2,0.4,0.2C29,169.4,29.4,169.3,29.8,169.3z"/>
		<path class="st2" d="M96.7,171.8c-0.6,0-1.2,0-1.8,0c-0.3,0-0.5-0.1-0.5-0.4c0-0.4,0.1-0.5,0.5-0.5c1,0,2,0,3.1,0
			c0.3,0,0.6,0,0.6-0.5c0-0.4-0.3-0.4-0.6-0.4c-0.8,0-1.6,0-2.5,0c-0.9,0-1.1-0.4-1.1-1.2c0-0.8,0.3-1.2,1.2-1.2c1.2,0,2.3,0,3.5,0
			c0.3,0,0.5,0.1,0.5,0.4c0,0.4-0.1,0.5-0.5,0.5c-1,0-1.9,0-2.9,0c-0.3,0-0.6,0-0.6,0.3c0,0.4,0.3,0.4,0.6,0.4c0.8,0,1.6,0,2.4,0
			c1,0,1.2,0.3,1.2,1.3c0,0.9-0.3,1.2-1.2,1.2c-0.1,0-0.1,0-0.2,0C97.7,171.8,97.2,171.8,96.7,171.8z"/>
		<path class="st2" d="M137.3,171.8c-0.6,0-1.1,0-1.7,0c-1,0-1.4-0.5-1.4-1.4c0-0.3,0-0.6,0-0.8c0-1.6,0.3-1.9,1.9-1.9
			c0.8,0,1.6,0,2.4,0c0.4,0,0.8,0.1,1,0.5c0.2,0.6,0.2,1.2,0,1.7c-0.1,0.2-0.4,0.2-0.6,0.2c-0.9,0-1.9,0-2.8,0
			c-0.2,0-0.6-0.2-0.7,0.2c0,0.5,0.3,0.6,0.7,0.6c0.9,0,1.8,0,2.7,0c0.3,0,0.7-0.1,0.7,0.5c0,0.6-0.4,0.4-0.7,0.4
			C138.3,171.8,137.8,171.8,137.3,171.8C137.3,171.8,137.3,171.8,137.3,171.8z M136.9,169.3c0.4,0,0.8,0,1.1,0
			c0.2,0,0.4,0.1,0.5-0.3c0-0.2,0-0.5-0.3-0.6c-0.9-0.1-1.7-0.1-2.6,0c-0.3,0.1-0.3,0.3-0.3,0.5c0,0.4,0.3,0.2,0.5,0.2
			C136.1,169.4,136.5,169.3,136.9,169.3z"/>
		<path class="st2" d="M86.7,171.8c-0.6,0-1.2,0-1.8,0c-0.9-0.1-1.3-0.4-1.3-1.3c-0.2-2.7,0.1-3,2.5-2.9c0.6,0,1.2,0,1.8,0
			c0.7,0,1,0.4,1,1c0,0.3,0,0.5,0,0.8c0,0.5-0.2,0.6-0.6,0.6c-1,0-1.9,0-2.9,0c-0.2,0-0.7-0.2-0.7,0.3c0,0.5,0.3,0.6,0.7,0.6
			c0.9,0,1.8,0,2.8,0c0.4,0,0.6,0,0.6,0.5c0,0.5-0.3,0.4-0.6,0.4C87.7,171.8,87.2,171.8,86.7,171.8
			C86.7,171.8,86.7,171.8,86.7,171.8z M86.3,169.3c0.4,0,0.8,0,1.2,0c0.2,0,0.4,0,0.4-0.3c0-0.2,0-0.5-0.3-0.6
			c-0.9-0.1-1.7-0.1-2.6,0c-0.3,0.1-0.3,0.3-0.3,0.5c0,0.3,0.3,0.2,0.5,0.2C85.6,169.4,85.9,169.3,86.3,169.3z"/>
		<path class="st2" d="M49,171.8c-0.6,0-1.2,0-1.8,0c-0.8,0-1-0.5-1-1.2c0-0.9,0.2-1.2,1-1.3c0.9,0,1.8,0,2.7,0
			c0.2,0,0.6,0.2,0.6-0.2c0-0.4-0.3-0.5-0.6-0.5c-0.9,0-1.9,0-2.8,0c-0.3,0-0.7,0.1-0.7-0.5c0-0.3,0.1-0.5,0.4-0.5
			c1.2,0,2.4,0,3.5,0c0.8,0,1.2,0.5,1.3,1.3c0,0.7,0,1.4,0,2.2c0,0.5-0.2,0.7-0.7,0.7C50.2,171.8,49.6,171.8,49,171.8
			C49,171.8,49,171.8,49,171.8z M48.9,170.1c-0.4,0-0.7,0-1.1,0c-0.3,0-0.6,0-0.6,0.4c0,0.4,0.2,0.5,0.5,0.5c0.7,0,1.5,0,2.2,0
			c0.4,0,0.5-0.2,0.5-0.5c0-0.4-0.2-0.4-0.5-0.4C49.6,170.1,49.3,170,48.9,170.1z"/>
		<path class="st2" d="M117.7,171.8c-0.5,0-1,0-1.5,0c-0.8-0.1-1.2-0.4-1.3-1.2c-0.2-2.7,0.1-3,2.6-2.9c0.7,0,1.3,0,2,0
			c0.8,0.1,1.2,0.5,1.2,1.2c0,0.5,0,0.9,0,1.4c0,1.1-0.4,1.5-1.5,1.5C118.7,171.8,118.2,171.8,117.7,171.8
			C117.7,171.8,117.7,171.8,117.7,171.8z M117.7,170.9C117.7,170.9,117.7,170.9,117.7,170.9c0.4,0,0.8,0,1.2,0
			c0.3,0,0.5-0.2,0.6-0.5c0.4-1.3,0-1.9-1.4-1.9c-0.3,0-0.7,0-1,0c-1.1,0-1.2,0.1-1.2,1.2c0,1.1,0.1,1.1,1.1,1.1
			C117.3,170.9,117.5,170.9,117.7,170.9z"/>
		<path class="st2" d="M162.1,171.8c-0.5,0-1,0-1.5,0c-0.9-0.1-1.3-0.5-1.3-1.4c-0.1-2.6,0.1-2.8,2.7-2.8c0.6,0,1.2,0,1.8,0
			c0.7,0,1.2,0.4,1.2,1.2c0,0.5,0,1,0,1.5c-0.1,1-0.5,1.4-1.5,1.4C163.1,171.8,162.6,171.8,162.1,171.8
			C162.1,171.8,162.1,171.8,162.1,171.8z M162.1,170.9C162.1,170.9,162.1,170.9,162.1,170.9c0.4,0,0.8,0,1.1,0
			c0.3,0,0.5-0.1,0.6-0.4c0.5-1.1-0.1-2-1.3-2c-0.4,0-0.7,0-1.1,0c-1.1,0-1.2,0.1-1.2,1.2c0,1.1,0.1,1.2,1.2,1.2
			C161.8,170.9,161.9,170.9,162.1,170.9z"/>
		<path class="st2" d="M219.7,171.8c-0.6,0-1.3,0-1.9,0c-0.8,0-1-0.5-1-1.2c0-0.7,0.2-1.2,0.9-1.2c0.9,0,1.8,0,2.8,0
			c0.2,0,0.6,0.2,0.6-0.3c0-0.3-0.2-0.5-0.6-0.5c-1,0-2,0-3,0c-0.2,0-0.5,0.1-0.6-0.3c0-0.4,0-0.6,0.5-0.6c1.1,0,2.3,0,3.4,0
			c1,0,1.3,0.4,1.4,1.4c0,0.7,0,1.4,0,2.1c0,0.5-0.2,0.7-0.7,0.7C220.9,171.8,220.3,171.8,219.7,171.8
			C219.7,171.8,219.7,171.8,219.7,171.8z M219.6,170.1c-0.4,0-0.8,0-1.1,0c-0.3,0-0.5,0.1-0.5,0.4c0,0.4,0.2,0.5,0.5,0.5
			c0.7,0,1.5,0,2.2,0c0.4,0,0.5-0.2,0.5-0.5c0-0.4-0.2-0.4-0.5-0.4C220.3,170.1,220,170,219.6,170.1z"/>
		<path class="st2" d="M170.8,171.8c-0.5,0-1.1,0-1.6,0c-0.7-0.1-1.2-0.5-1.3-1.2c0,0,0-0.1,0-0.1c-0.1-2.7,0.2-2.9,2.5-2.9
			c0.7,0,1.3,0,2,0c0.8,0.1,1.2,0.5,1.3,1.3c0.2,2.5-0.1,2.9-2.6,2.9C171,171.8,170.9,171.8,170.8,171.8
			C170.8,171.8,170.8,171.8,170.8,171.8z M170.8,170.9c0.3,0,0.6,0,0.9,0c0.7,0.1,1-0.3,1-0.9c0-0.3,0-0.5,0-0.8
			c0-0.4-0.2-0.7-0.7-0.6c-0.7,0-1.5,0-2.2,0c-0.3,0-0.6,0.1-0.7,0.5c-0.3,1.3,0,1.8,1.4,1.8C170.6,170.9,170.7,170.9,170.8,170.9z"
			/>
		<path class="st2" d="M145.9,169c0-0.8,0-1.5,0-2.3c0-0.4,0.1-0.6,0.5-0.6c0.4,0,0.6,0.1,0.6,0.6c0,1,0,1,1,1c0.7,0,1.4,0,2.2,0
			c1,0,1.4,0.4,1.5,1.4c0,0.8,0,1.5,0,2.3c0,0.4-0.2,0.5-0.6,0.5c-0.4,0-0.6-0.1-0.6-0.5c0-0.6,0-1.3,0-1.9c0-0.5-0.2-0.8-0.8-0.8
			c-0.8,0-1.5,0-2.3,0c-0.4,0-0.5,0.2-0.5,0.6c0,0.7,0,1.4,0,2.2c0,0.4-0.1,0.5-0.5,0.5c-0.4,0-0.6-0.1-0.6-0.5
			C145.9,170.5,145.9,169.7,145.9,169z"/>
		<path class="st2" d="M177.3,156.5c0,0.9,0,1.8,0,2.7c0,0.4-0.1,0.5-0.5,0.5c-0.7,0-1.3,0-2,0c-1.2-0.1-1.8-0.9-1.7-2
			c0-0.3,0.2-0.5,0.5-0.6c0.4,0,0.6,0.1,0.7,0.5c0.2,0.7,0.9,1.1,1.6,0.8c0.3-0.1,0.2-0.4,0.2-0.6c0-1.3,0-2.7,0-4
			c0-0.5,0-0.9,0.6-0.9c0.6,0,0.6,0.5,0.6,0.9C177.3,154.7,177.3,155.6,177.3,156.5C177.3,156.5,177.3,156.5,177.3,156.5z"/>
		<path class="st2" d="M158.4,170.1c0,0.4,0,0.7,0,1.1c0,0.4,0,0.6-0.5,0.6c-0.5,0-0.6-0.1-0.6-0.6c0-0.6,0-1.2,0-1.8
			c0-0.5-0.2-0.8-0.7-0.8c-0.7,0-1.4,0-2.2,0c-0.5,0-0.7,0.3-0.7,0.8c0,0.6,0,1.3,0,1.9c0,0.4-0.1,0.5-0.5,0.5
			c-0.4,0-0.6-0.1-0.6-0.5c0-0.8,0-1.6,0.1-2.5c0-0.7,0.5-1.1,1.2-1.2c1.1,0,2.3,0,3.4,0c0.8,0,1.2,0.5,1.2,1.3
			C158.4,169.4,158.4,169.7,158.4,170.1C158.4,170.1,158.4,170.1,158.4,170.1z"/>
		<path class="st2" d="M71.9,167.7c0.6,0,1.2,0,1.8,0c0.7,0.1,1.1,0.4,1.1,1.1c0,0.9,0,1.7,0.1,2.6c0,0.4-0.3,0.4-0.6,0.4
			c-0.3,0-0.6,0-0.6-0.4c0-0.7,0-1.3,0-2c0-0.5-0.2-0.8-0.8-0.8c-0.7,0-1.3,0-2,0c-0.6,0-0.9,0.2-0.8,0.8c0,0.6,0,1.2,0,1.8
			c0,0.5-0.2,0.6-0.6,0.6c-0.4,0-0.6-0.1-0.5-0.5c0-0.8,0-1.6,0-2.4c0-0.8,0.4-1.2,1.2-1.3C70.9,167.6,71.4,167.7,71.9,167.7
			C71.9,167.7,71.9,167.7,71.9,167.7z"/>
		<path class="st2" d="M130.7,166.4c0.9,0,1.7,0,2.6,0c0.4,0,0.5,0.2,0.5,0.6c0,0.4-0.1,0.6-0.5,0.6c-0.1,0-0.2,0-0.2,0
			c-0.6,0.1-1.4-0.3-1.8,0.1c-0.3,0.3-0.1,1.1-0.1,1.7c0,0.6,0,1.2,0,1.8c0,0.4-0.1,0.6-0.5,0.6c-0.4,0-0.7,0-0.7-0.6
			c0-1,0-2.1,0-3.1c0-0.4-0.1-0.6-0.6-0.6c-0.5,0-0.9,0-1.4,0c-0.4,0-0.6,0-0.6-0.5c0-0.4,0.1-0.6,0.6-0.6
			C129,166.5,129.9,166.4,130.7,166.4z"/>
		<path class="st2" d="M105.8,167.7c0.8-0.2,1.3,0,1.6,0.7c0.4,0.8,0.9,1.6,1.4,2.5c0.5-0.9,1-1.6,1.4-2.5c0.3-0.7,0.8-1,1.5-0.7
			c-0.1,0.6-0.5,1-0.8,1.5c-0.6,1.2-1.3,2.3-1.9,3.5c-0.4,0.8-1,0.8-1.7,0.8c-0.3,0-0.3-0.2-0.3-0.5c0-0.2,0-0.4,0.4-0.5
			c0.9-0.2,1-0.5,0.5-1.2C107.2,170.2,106.5,169,105.8,167.7z"/>
		<path class="st2" d="M180.6,167.7c0.8-0.2,1.3,0,1.7,0.7c0.3,0.8,0.8,1.5,1.3,2.2c0,0,0.1,0.1,0.2,0.2c0.5-0.8,0.9-1.6,1.4-2.4
			c0.5-0.9,0.5-0.9,1.5-0.8c0.1,0.2-0.1,0.4-0.2,0.5c-0.8,1.5-1.7,3-2.5,4.5c-0.4,0.8-1,0.9-1.7,0.8c-0.4,0-0.3-0.2-0.3-0.5
			c0-0.2,0-0.4,0.3-0.5c0.9-0.2,1-0.5,0.6-1.2C182,170.2,181.4,169,180.6,167.7z"/>
		<path class="st2" d="M197.6,170.2c0,0.3,0,0.7,0,1c0,0.4,0,0.7-0.6,0.7c-0.5,0-0.6-0.3-0.5-0.7c0-0.6,0-1.2,0-1.8
			c0-0.5-0.2-0.8-0.8-0.8c-0.7,0-1.4,0-2.1,0c-0.5,0-0.8,0.3-0.8,0.8c0,0.6,0,1.3,0,1.9c0,0.4-0.1,0.6-0.6,0.6
			c-0.5,0-0.6-0.2-0.6-0.6c0-0.7,0-1.4,0-2.2c0-1,0.4-1.4,1.4-1.4c0.9,0,1.9,0,2.8,0c1.2,0,1.5,0.4,1.5,1.6
			C197.6,169.6,197.6,169.9,197.6,170.2z"/>
		<path class="st2" d="M226,167.7c0.5,0,1.1,0,1.6,0c0.8,0.1,1.2,0.5,1.2,1.3c0,0.8,0,1.6,0,2.4c0,0.4-0.2,0.5-0.5,0.5
			c-0.4,0-0.6,0-0.6-0.5c0-0.6,0-1.2,0-1.8c0-0.7-0.3-0.9-0.9-0.9c-0.6,0-1.1,0-1.7,0c-0.9,0-1,0.2-1,1c0,0.6,0,1.1,0,1.7
			c0,0.4-0.2,0.5-0.6,0.5c-0.4,0-0.6-0.1-0.6-0.5c0-0.8,0-1.5,0-2.3c0-0.9,0.5-1.3,1.4-1.4C225,167.6,225.5,167.6,226,167.7
			C226,167.6,226,167.6,226,167.7z"/>
		<path class="st2" d="M55.3,167.7c0.5,0,1.1,0,1.6,0c0.8,0,1.2,0.5,1.2,1.2c0,0.8,0,1.7,0,2.5c0,0.4-0.3,0.4-0.6,0.4
			c-0.3,0-0.6,0-0.5-0.4c0-0.6,0-1.2,0-1.8c0-0.7-0.2-1-0.9-1c-0.6,0-1.1,0-1.7,0c-0.7,0-1.1,0.3-1,1c0,0.6,0,1.2,0,1.8
			c0,0.5-0.2,0.5-0.6,0.5c-0.4,0-0.6-0.1-0.5-0.5c0-0.8,0-1.5,0-2.3c0-0.9,0.4-1.3,1.3-1.4C54.2,167.6,54.7,167.6,55.3,167.7
			C55.3,167.6,55.3,167.7,55.3,167.7z"/>
		<path class="st2" d="M143.1,171.8c-0.6,0-1.1,0-1.7,0c-0.8-0.1-1.2-0.5-1.2-1.3c-0.2-2.6,0-2.9,2.7-2.9c0.6,0,1.2,0,1.8,0
			c0.4,0,0.5,0.1,0.5,0.5c0,0.4-0.2,0.5-0.5,0.5c-0.8,0-1.7,0-2.5,0c-0.6,0-0.9,0.2-0.9,0.9c0,0.2,0,0.5,0,0.7
			c0,0.5,0.2,0.8,0.8,0.8c0.8,0,1.7,0,2.5,0c0.3,0,0.6,0,0.6,0.4c0,0.5-0.3,0.5-0.6,0.5C144.1,171.8,143.6,171.8,143.1,171.8
			C143.1,171.8,143.1,171.8,143.1,171.8z"/>
		<path class="st2" d="M80.6,171c0.6-1,1.1-1.8,1.5-2.7c0.3-0.7,0.8-0.9,1.6-0.6c-0.7,1.3-1.5,2.6-2.2,3.8c-0.3,0.4-1.5,0.4-1.8-0.1
			c-0.7-1.1-1.3-2.3-2-3.5c-0.1-0.1-0.2-0.3,0-0.4c0.4,0,0.8-0.2,1.1,0.2c0.4,0.7,0.8,1.5,1.3,2.2C80.2,170.4,80.4,170.6,80.6,171z"
			/>
		<path class="st2" d="M122.1,170.1c0-0.3,0-0.7,0-1c0-0.4,0-0.6-0.5-0.6c-0.3,0-0.3-0.2-0.4-0.5c0-0.3,0-0.5,0.4-0.4
			c0.3,0,0.5,0,0.5-0.4c0.2-1.2,0.4-1.3,1.6-1.3c0.2,0,0.4,0,0.6,0c0.3,0,0.4,0.2,0.4,0.4c0,0.2,0,0.5-0.3,0.5c-0.3,0-0.5,0-0.8,0
			c-0.3,0-0.4,0.2-0.4,0.5c0,0.3,0.3,0.2,0.4,0.3c0.4,0.1,1-0.4,1,0.5c0,0.8-0.6,0.4-1,0.4c-0.4,0-0.5,0.2-0.5,0.6
			c0,0.7,0,1.5,0,2.2c0,0.4-0.1,0.5-0.5,0.5c-0.4,0-0.6-0.1-0.6-0.6C122.1,170.9,122.1,170.5,122.1,170.1z"/>
		<path class="st2" d="M104.8,171.8c-1.5,0-1.8-0.3-1.8-1.7c0-0.3,0-0.7,0-1c0-0.4,0-0.6-0.5-0.5c-0.3,0-0.4-0.2-0.4-0.4
			c0-0.2,0-0.5,0.3-0.5c0.5,0.1,0.5-0.2,0.5-0.6c0-0.4,0-0.6,0.5-0.6c0.4,0,0.6,0.1,0.6,0.5c-0.1,0.6,0.2,0.7,0.7,0.7
			c0.3,0,0.6-0.2,0.8,0.2c0.2,0.4-0.1,0.8-0.6,0.7c-0.8-0.1-1,0.2-0.9,0.9c0,0.3,0,0.6,0,0.8c0,0.4,0.2,0.6,0.6,0.6
			c0.3,0,0.9-0.3,0.9,0.5C105.6,172.2,105,171.6,104.8,171.8z"/>
		<path class="st2" d="M229.4,156.3c0,0.9,0,1.7,0,2.6c0,0.4-0.1,0.8-0.6,0.8c-0.5,0-0.6-0.3-0.6-0.8c0-1.2,0-2.4,0-3.6
			c0-0.5,0.2-1-0.5-1.4c-0.3-0.1-0.2-0.6,0.1-0.8c0.4-0.3,0.8-0.2,1.2-0.1c0.4,0.1,0.4,0.4,0.4,0.8
			C229.4,154.6,229.4,155.4,229.4,156.3z"/>
		<path class="st2" d="M179.4,156.3c0,0.8,0,1.7,0,2.5c0,0.4-0.1,0.8-0.6,0.8c-0.5,0-0.6-0.4-0.6-0.8c0-1.4,0-2.7,0-4.1
			c0-0.3,0.1-0.6-0.3-0.7c-0.3-0.1-0.3-0.4-0.2-0.7c0.1-0.3,0.3-0.4,0.6-0.4c0.9-0.2,1.2,0.1,1.2,1
			C179.4,154.7,179.4,155.5,179.4,156.3z"/>
		<path class="st2" d="M89.8,170.2c0-2.4,0.1-2.6,2.5-2.6c0.4,0,0.7,0,1.1,0c0.3,0,0.5,0.1,0.5,0.5c0,0.4-0.2,0.5-0.5,0.5
			c-0.6,0-1.1,0-1.7,0c-0.5,0-0.8,0.2-0.8,0.8c0,0.7,0,1.3,0,2c0,0.4-0.2,0.5-0.5,0.5c-0.3,0-0.6,0-0.6-0.5
			C89.8,171,89.8,170.6,89.8,170.2z"/>
		<path class="st2" d="M167.1,169c0,0.8,0,1.5,0,2.3c0,0.4-0.2,0.5-0.6,0.5c-0.4,0-0.6-0.1-0.6-0.5c0-1.6,0-3.2,0-4.8
			c0-0.5,0.2-0.5,0.6-0.5c0.4,0,0.6,0.1,0.6,0.5C167,167.4,167.1,168.2,167.1,169z"/>
		<path class="st2" d="M33.2,170.1c0-2.4,0.1-2.5,2.5-2.5c0.4,0,0.8,0,1.2,0c0.3,0,0.5,0.1,0.5,0.4c0,0.3-0.1,0.5-0.5,0.5
			c-0.6,0-1.2,0-1.8,0c-0.5,0-0.7,0.2-0.7,0.8c0,0.7,0,1.3,0,2c0,0.4-0.2,0.5-0.6,0.5c-0.4,0-0.6,0-0.6-0.5
			C33.2,170.9,33.2,170.5,33.2,170.1z"/>
		<path class="st2" d="M173.3,155c0-0.5,0-1,0-1.5c0-0.4,0.2-0.6,0.5-0.6c0.4,0,0.6,0.2,0.6,0.6c0,1,0,2,0,3c0,0.5-0.4,0.3-0.7,0.4
			c-0.3,0-0.5,0-0.5-0.4C173.3,156,173.3,155.5,173.3,155z"/>
		<path class="st2" d="M101.5,169.8c0,0.5,0,1,0,1.5c0,0.4-0.2,0.5-0.5,0.5c-0.4,0-0.6,0-0.6-0.5c0-1.1,0-2.1,0-3.2
			c0-0.4,0.1-0.5,0.5-0.5c0.3,0,0.6,0,0.6,0.5C101.5,168.7,101.5,169.2,101.5,169.8z"/>
		<path class="st2" d="M76.9,169.7c0,0.5,0,1,0,1.5c0,0.4-0.1,0.6-0.6,0.6c-0.5,0-0.5-0.2-0.5-0.6c0-1,0-2,0-3c0-0.4,0-0.6,0.6-0.6
			c0.6,0,0.5,0.3,0.5,0.7C76.9,168.8,76.9,169.3,76.9,169.7z"/>
		<path class="st2" d="M190.8,169.7c0,0.5,0,1,0,1.5c0,0.4-0.1,0.6-0.6,0.6c-0.4,0-0.6-0.2-0.6-0.6c0-1,0-2,0-3.1
			c0-0.4,0.1-0.6,0.6-0.6c0.5,0,0.6,0.2,0.5,0.6C190.8,168.7,190.8,169.2,190.8,169.7z"/>
		<path class="st2" d="M174,152.6c-0.2,0-0.4,0-0.5,0c-0.3,0-0.9,0.1-0.2-0.5c0.2-0.1,0.1-0.4,0.1-0.6c0-0.4,0.2-0.7,0.7-0.7
			c0.3,0,0.7-0.2,0.7,0.2c0,0.4-0.4,0.2-0.6,0.2c-0.4,0-0.3,0.3-0.4,0.5c0,0.3,0.1,0.4,0.4,0.4c0.3,0,0.9-0.2,0.9,0.2
			C175,152.8,174.4,152.5,174,152.6C174.1,152.6,174,152.6,174,152.6z"/>
		<path class="st2" d="M101.5,166.6c0.1,0.5-0.2,0.5-0.6,0.6c-0.5,0-0.5-0.2-0.5-0.6c0-0.4,0.2-0.5,0.6-0.5
			C101.4,166.1,101.6,166.2,101.5,166.6z"/>
		<path class="st2" d="M76.9,166.6c0.1,0.4-0.1,0.6-0.5,0.6c-0.4,0-0.6-0.1-0.6-0.6c0-0.4,0.1-0.6,0.5-0.5
			C76.7,166.1,77,166.1,76.9,166.6z"/>
		<path class="st2" d="M90.6,160.6c0,0.3-0.2,0.6-0.6,0.6c-0.4,0-0.6-0.2-0.6-0.6c0-0.4,0.2-0.6,0.6-0.6
			C90.3,160,90.5,160.2,90.6,160.6z"/>
		<path class="st2" d="M185,154.1c-0.1-0.3-0.3,0-0.5-0.1c-0.4-0.1-0.6-0.3-0.6-0.7c0-0.4,0.3-0.5,0.6-0.5c0.4,0.1,0.5,0.3,0.5,0.7
			C185,153.8,184.7,153.9,185,154.1C185,154.1,185,154.1,185,154.1z"/>
		<path class="st2" d="M135.9,154.1c-0.1-0.3-0.3,0-0.5-0.1c-0.4-0.1-0.6-0.3-0.5-0.7c0.1-0.3,0.3-0.5,0.6-0.5
			c0.4,0.1,0.5,0.3,0.5,0.7C136,153.8,135.7,153.9,135.9,154.1C135.9,154.1,135.9,154.1,135.9,154.1z"/>
		<path class="st2" d="M60.9,160.7c0,0.4-0.2,0.6-0.6,0.6c-0.4,0-0.6-0.2-0.6-0.6c0-0.3,0.2-0.6,0.6-0.6
			C60.7,160.1,60.9,160.3,60.9,160.7z"/>
		<path class="st2" d="M190.3,166.1c0.5-0.1,0.6,0.1,0.6,0.5c0,0.4-0.1,0.5-0.5,0.5c-0.4,0-0.6-0.1-0.6-0.5
			C189.8,166.2,189.8,166,190.3,166.1z"/>
		<path class="st2" d="M91.5,161.2c-0.4,0-0.6-0.2-0.6-0.6c0-0.4,0.2-0.6,0.6-0.6c0.3,0,0.6,0.2,0.6,0.6
			C92.1,161,91.8,161.1,91.5,161.2z"/>
		<path class="st2" d="M134.5,153.5c0,0.4-0.2,0.6-0.6,0.6c-0.4,0-0.6-0.2-0.6-0.6c0-0.3,0.2-0.6,0.6-0.6
			C134.3,152.9,134.4,153.1,134.5,153.5z"/>
		<path class="st2" d="M124.3,153.5c0,0.3-0.2,0.6-0.6,0.6c-0.3,0-0.6-0.2-0.6-0.6c0-0.4,0.2-0.6,0.6-0.6
			C124.1,152.9,124.2,153.1,124.3,153.5z"/>
		<path class="st2" d="M62.4,160.7c-0.1,0.4-0.3,0.6-0.6,0.6c-0.3,0-0.6-0.2-0.5-0.6c0-0.4,0.2-0.6,0.6-0.5
			C62.3,160.1,62.4,160.4,62.4,160.7z"/>
		<path class="st2" d="M158.6,160.6c0,0.4-0.2,0.6-0.6,0.6c-0.4,0-0.6-0.2-0.6-0.6c0-0.4,0.2-0.6,0.6-0.6
			C158.3,160,158.6,160.2,158.6,160.6z"/>
		<path class="st2" d="M21.7,154.5c-0.1,0.3-0.2,0.6-0.6,0.6c-0.4,0-0.6-0.2-0.6-0.6c0-0.3,0.2-0.6,0.6-0.6
			C21.5,154,21.6,154.2,21.7,154.5z"/>
		<path class="st2" d="M157.1,160.6c0,0.3-0.2,0.6-0.5,0.6c-0.4,0-0.6-0.2-0.6-0.6c0-0.4,0.2-0.6,0.6-0.6
			C156.8,160,157,160.2,157.1,160.6z"/>
		<path class="st2" d="M183.6,153.5c-0.1,0.4-0.3,0.6-0.6,0.6c-0.3,0-0.6-0.2-0.6-0.6c0-0.3,0.2-0.6,0.6-0.6
			C183.4,152.9,183.5,153.2,183.6,153.5z"/>
		<path class="st2" d="M161.2,153.5c-0.1,0.4-0.3,0.6-0.6,0.6c-0.3,0-0.6-0.3-0.5-0.6c0-0.4,0.3-0.6,0.6-0.6
			C161,152.9,161.2,153.2,161.2,153.5z"/>
		<path class="st2" d="M122.8,153.5c-0.1,0.3-0.3,0.6-0.6,0.6c-0.3,0-0.6-0.2-0.6-0.6c0-0.4,0.2-0.6,0.6-0.6
			C122.6,152.9,122.8,153.2,122.8,153.5z"/>
		<path class="st2" d="M113.9,153.5c-0.1,0.3-0.2,0.6-0.6,0.6c-0.3,0-0.6-0.2-0.6-0.6c0-0.4,0.2-0.6,0.6-0.6
			C113.7,152.9,113.8,153.2,113.9,153.5z"/>
		<path class="st2" d="M63.9,151.5c-0.1,0.3-0.3,0.5-0.6,0.5c-0.4,0-0.6-0.3-0.5-0.6c0-0.3,0.2-0.6,0.6-0.5
			C63.7,150.9,63.8,151.1,63.9,151.5z"/>
		<path class="st2" d="M95.4,161.2c-0.3,0-0.5-0.2-0.6-0.6c0-0.4,0.2-0.6,0.6-0.6c0.4,0,0.6,0.2,0.6,0.6
			C96,161,95.8,161.2,95.4,161.2z"/>
		<path class="st2" d="M222.7,160.7c0,0.3-0.2,0.6-0.6,0.6c-0.4,0-0.6-0.2-0.6-0.6c0-0.4,0.2-0.6,0.6-0.6
			C222.6,160.1,222.7,160.3,222.7,160.7z"/>
		<path class="st3" d="M149.9,123.2c-2.1,0-4.3,0-6.4,0c-0.5,0-0.7-0.1-0.6-0.7c0.8-3.6,3.3-6,7-6.2c3.9-0.2,6.5,1.9,7,6.2
			c0.1,0.6-0.1,0.8-0.7,0.8C154.2,123.2,152,123.2,149.9,123.2C149.9,123.2,149.9,123.2,149.9,123.2z"/>
		<path class="st3" d="M109.6,157.2C109.6,157.2,109.6,157.3,109.6,157.2c0,1.3-0.2,1.5-1.5,1.2c0,0-0.1,0-0.1,0
			c-0.8-0.5-0.3-1.3-0.4-2c-0.1-0.4,0.2-0.7,0.7-0.7C109.5,155.6,109.6,155.7,109.6,157.2z"/>
		<path class="st3" d="M207.7,158.7c-0.5-0.6-1-1.2-1.5-1.8c-0.2-0.3-0.3-0.5-0.2-0.8c0.1-0.4,0.4-0.4,0.8-0.4c0.7,0,1.3,0,2,0
			c0.3,0,0.5,0,0.7,0.3c0.1,0.3,0.1,0.6-0.1,0.9C208.7,157.4,208.2,158.1,207.7,158.7z"/>
		<path class="st3" d="M184.7,157.1c0,0.1,0,0.2,0,0.2c0,1.1,0,1.1-1.1,1.1c-0.6,0-0.9-0.2-0.9-0.8c0-0.3,0-0.6,0-0.8
			c0-1,0.1-1.1,1.1-1.1C184.7,155.7,184.7,155.7,184.7,157.1z"/>
		<path class="st3" d="M214.6,157.1c0,0.2,0,0.5,0,0.7c0,0.4-0.2,0.7-0.7,0.7c-0.3,0-0.5,0-0.8,0c-0.4,0-0.6-0.1-0.5-0.5
			c0-0.4,0-0.8,0-1.2c0-1.1,0.1-1.1,1.1-1.1C214.6,155.7,214.6,155.7,214.6,157.1z"/>
		<path class="st3" d="M135.6,157c0,0.1,0,0.2,0,0.2c0,1.2-0.4,1.5-1.5,1.1c-0.9-0.3-0.3-1.2-0.4-1.8c-0.1-0.4-0.1-0.8,0.5-0.9
			c0,0,0.1,0,0.2,0C135.6,155.5,135.6,155.5,135.6,157z"/>
		<path class="st3" d="M161.4,99.1c0.2,0.9,0.4,1.8,0.6,2.7c0,0.2,0.2,0.6-0.1,0.7c-0.4,0.1-0.8,0.1-1.2,0c-0.3-0.1-0.1-0.4,0-0.7
			c0.2-0.9,0.4-1.9,0.6-2.8C161.3,99.1,161.4,99.1,161.4,99.1z"/>
		<path class="st3" d="M167,99.1c0.2,1.1,0.5,2.1,0.7,3.2c0,0.1,0,0.2-0.1,0.3c-0.4,0.1-0.9,0.2-1.3,0c-0.3-0.1-0.1-0.5-0.1-0.7
			c0.2-0.9,0.4-1.8,0.6-2.7C166.9,99.1,166.9,99.1,167,99.1z"/>
		<path class="st3" d="M63.3,155.1c-0.6,0-1-0.1-1-0.8c0-0.8,0.5-0.7,1-0.7c0.5,0,1,0,1,0.7C64.3,155.1,63.8,155.2,63.3,155.1z"/>
		<path class="st3" d="M102,157.2C102,157.2,102,157.3,102,157.2c0,1.2-0.5,1.6-1.5,1.2c-0.9-0.4-0.3-1.4-0.4-2.1
			c-0.1-0.4,0.2-0.6,0.6-0.7C101.9,155.6,102,155.7,102,157.2z"/>
		<path class="st3" d="M204.4,170.7C204.4,170.7,204.3,170.7,204.4,170.7c-2.2,0-2.2,0.2-2.2-2.3c0-0.5,0.3-0.9,0.9-0.9
			c0.8,0,1.7,0,2.5,0c0.1,0,0.1,0,0.2,0c1.3,0.4,0.6,1.5,0.7,2.2c0.1,0.6-0.2,1-0.9,1C205.2,170.7,204.8,170.7,204.4,170.7
			C204.4,170.7,204.4,170.7,204.4,170.7z"/>
		<path class="st3" d="M177.6,170.7c-0.2,0-0.5,0-0.7,0c-1.2,0-1.4-0.3-1.3-1.5c0.1-0.4,0.2-0.7,0.7-0.6c0.7,0,1.5,0,2.2,0
			c0.5,0,0.6,0.3,0.7,0.7C179.4,170.7,179.4,170.7,177.6,170.7z"/>
		<path class="st3" d="M29.8,169.3c-0.4,0-0.8,0-1.1,0c-0.2,0-0.4,0.1-0.4-0.2c0-0.2,0.1-0.5,0.3-0.5c0.9-0.2,1.7-0.1,2.6,0
			c0.3,0,0.3,0.3,0.3,0.6c0,0.3-0.2,0.3-0.4,0.3C30.5,169.3,30.1,169.3,29.8,169.3z"/>
		<path class="st3" d="M136.9,169.3c-0.4,0-0.7,0-1.1,0c-0.2,0-0.5,0.2-0.5-0.2c0-0.2,0.1-0.5,0.3-0.5c0.9-0.2,1.7-0.1,2.6,0
			c0.3,0,0.3,0.3,0.3,0.6c0,0.3-0.3,0.3-0.5,0.3C137.6,169.3,137.2,169.3,136.9,169.3z"/>
		<path class="st3" d="M86.3,169.3c-0.4,0-0.8,0-1.1,0c-0.2,0-0.5,0.1-0.5-0.2c0-0.2,0.1-0.5,0.3-0.5c0.9-0.2,1.7-0.1,2.6,0
			c0.3,0,0.3,0.3,0.3,0.6c0,0.3-0.2,0.3-0.4,0.3C87.1,169.3,86.7,169.3,86.3,169.3z"/>
		<path class="st3" d="M48.9,170.1c0.4,0,0.7,0,1.1,0c0.3,0,0.5,0,0.5,0.4c0,0.3-0.1,0.5-0.5,0.5c-0.7,0-1.5,0-2.2,0
			c-0.3,0-0.5-0.1-0.5-0.5c0-0.4,0.3-0.4,0.6-0.4C48.2,170,48.5,170.1,48.9,170.1z"/>
		<path class="st3" d="M117.7,170.9c-0.2,0-0.4,0-0.6,0c-1,0-1.1-0.1-1.1-1.1c0-1.1,0.1-1.2,1.2-1.2c0.3,0,0.7,0,1,0
			c1.3,0,1.8,0.6,1.4,1.9c-0.1,0.3-0.3,0.5-0.6,0.5C118.5,170.9,118.1,170.9,117.7,170.9C117.7,170.9,117.7,170.9,117.7,170.9z"/>
		<path class="st3" d="M162.1,170.9c-0.2,0-0.4,0-0.5,0c-1.2,0-1.2-0.1-1.2-1.2c0-1.1,0.1-1.2,1.2-1.2c0.4,0,0.7,0,1.1,0
			c1.2,0,1.8,0.9,1.3,2c-0.1,0.3-0.3,0.4-0.6,0.4C162.9,170.9,162.5,170.9,162.1,170.9C162.1,170.9,162.1,170.9,162.1,170.9z"/>
		<path class="st3" d="M219.6,170.1c0.3,0,0.7,0,1,0c0.3,0,0.6,0,0.5,0.4c0,0.4-0.1,0.5-0.5,0.5c-0.7,0-1.5,0-2.2,0
			c-0.3,0-0.5-0.1-0.5-0.5c0-0.3,0.3-0.4,0.5-0.4C218.9,170.1,219.2,170.1,219.6,170.1z"/>
		<path class="st3" d="M170.8,170.9c-0.1,0-0.2,0-0.3,0c-1.4,0-1.7-0.5-1.4-1.8c0.1-0.4,0.3-0.5,0.7-0.5c0.7,0,1.5,0,2.2,0
			c0.4,0,0.7,0.2,0.7,0.6c0,0.3,0,0.5,0,0.8c0,0.7-0.3,1-1,0.9C171.4,170.9,171.1,170.9,170.8,170.9z"/>
	</g>
</g>
</svg>
