<?xml version="1.0" encoding="utf-8"?>
<!-- Generator: Adobe Illustrator 26.5.0, SVG Export Plug-In . SVG Version: 6.00 Build 0)  -->
<svg version="1.1" id="affiliation" xmlns="http://www.w3.org/2000/svg" xmlns:xlink="http://www.w3.org/1999/xlink" x="0px"
	 y="0px" viewBox="0 0 256 256" style="enable-background:new 0 0 256 256;" xml:space="preserve">
<style type="text/css">
	.st0{fill:#FFFFFF;}
	.st1{fill:#14375E;}
	.st2{fill:#98DAF8;}
	.st3{fill:#FFCE38;}
	.st4{fill:#E19F34;}
	.st5{fill:none;stroke:#FFFFFF;stroke-width:0.4337;}
	.st6{fill:none;stroke:#FFFFFF;stroke-width:0.2526;}
	.st7{fill:none;stroke:#FFFFFF;stroke-width:0.811;}
	.st8{fill:#EE432C;}
	.st9{fill:#0098D5;}
	.st10{fill:#029048;}
	.st11{fill:#80C242;}
	.st12{fill:#01964B;}
	.st13{fill:none;stroke:#FFFFFF;stroke-width:2.1314;}
</style>
<rect id="black" width="256" height="256"/>
<circle id="background" class="st0" cx="128" cy="128" r="128"/>
<g id="logo">
	<g>
		<path class="st1" d="M68.8,39l118.4,0c0,0,0.1,56.1,0,96.9c0,30-37.1,63.1-59.3,64.3c-24.6-2-59.2-36.4-59.2-63.9V39z"/>
		<rect x="127.1" y="79.8" class="st2" width="3.8" height="104.3"/>
		<path class="st3" d="M152.1,115.8h18.6c5.5,0,6,0.8,6.4,1.9c-0.2-1.8-1.4-11.2-2.2-18c-0.2-1.8-0.8-6.6-3.3-9.5
			c-0.8-0.9-1.1-1.4-2.8-2.1c0.1-0.4,1.6-4.1,2.8-7.2c0.6-1.6,0-3.1-1.2-3.8c-1-0.6-2.4-0.6-3.3-0.6c-6.4,0-11.3,0-13.3,0
			c-3.4,0-5,2.2-3.9,4.8c0.8,2,2.1,5.4,2.7,6.9c-4.2,1.4-5.6,7.1-6.2,12.1c-1,8.4-2.4,19.5-2.5,20.2c-0.1,1.1-0.3,1.9,1.4,2
			c3.3,0.2,7.2,0.2,13.7,0.1c0.6,0.4,1.4,0.6,2.5,0.5c1.1,0,1.8-0.3,2.4-0.7c2.7-0.1,5.7-0.2,9.1-0.4c-3-0.1-5.9-0.2-8.5-0.2
			c0.9-1.2,0.8-2.8,0.8-3.1c-0.4,4.4-6,3.9-4.6-0.7c-0.6,0-2.2,0-3.2,0.8c-0.3,0.7-0.2,1.8,0.5,2.7c-3.7-0.2-6.7-0.3-8.9-0.4
			c-1.1-0.1-1.7-0.9-1.1-1.6C150.2,116.3,150.3,115.8,152.1,115.8 M153.9,79.2c3.4,0,8.8,0,12.3,0c1.1,0,2.9-0.3,1.9,2.1
			c-0.9,2.1-2.2,5.1-2.7,6.4c-1.9,0-9.4,0-9.4,0c-0.6-1.4-1.5-3.4-2.6-5.9C152.8,80.4,152.5,79.2,153.9,79.2"/>
		<path class="st0" d="M128.1,183.7c0,1.2-0.8,2.2-1.8,2.2c-1,0-1.8-1-1.8-2.2v-10.4c0-1.2,0.8-2.2,1.8-2.2c1,0,1.8,1,1.8,2.2V183.7
			"/>
		<path class="st4" d="M102.6,60.8c0.6-0.2,1.4-0.2,2.2-0.2c-0.9-0.7-1.6-1-2.1-1.1c-1.1-4.1-7.1-3-7.7,0.7
			c-0.2,1.3-4.9,1.9-10.3,9.1c-2.5,3.3-5.9,6.2-7,6.9c-1,0.7,1.5,0.5,2.7-0.8c1.1,1.1,3.3-2.2,6.5-2.8c0.9-0.1,11.7-2.1,8.9-8.3
			c3.8,4.9-2.6,8.5-6.6,8.8c0.4,0.2,2.4,0.4,2.7,0.4c0.6,0.2-0.2,0.9,0.3,1.2c1.2,0.6,3.5,2.8,3.5,2.8s1.3-0.4,0.7-1
			c-1.8-1.2-2.3-1.5-2.7-2.3c0,0-0.6-1.1,0.6-1.4c1.7-0.1,7.3-2.1,6.3-9.1C100.4,62.6,101.2,61.4,102.6,60.8"/>
		<path class="st1" d="M101.8,59.6c0,0.4-0.3,0.7-0.6,0.7c-0.3,0-0.6-0.3-0.6-0.7c0-0.4,0.3-0.7,0.6-0.7
			C101.5,59,101.8,59.3,101.8,59.6"/>
		<line class="st5" x1="130.8" y1="185.4" x2="130.8" y2="170.8"/>
		<path class="st3" d="M133.6,187.7c0.6-0.6,1-1.5,1-2.4c0-1.9-1.6-3.5-3.5-3.5h-5.9c-1.9,0-3.5,1.6-3.5,3.5c0,0.9,0.3,1.7,0.9,2.3
			c-0.7,0.7-2,1.9-2.4,2.3c4,1.8,11.6,1.6,15.8,0C135.6,189.6,134.2,188.3,133.6,187.7"/>
		<path class="st2" d="M128,67.4C128,67.5,128,67.5,128,67.4c-2.6-2.3-10.9-3.3-16.2-2c0.4,0.6,0.8,2.7,1,3.5
			c7.9-2.6,15.2,1.2,15.2,1.2c0,0,0,0,0-0.1c0,0,0,0.1,0,0.1c0,0,7.3-3.8,15.2-1.2c0.2-0.8,0.7-2.9,1-3.5
			C138.9,64.1,130.6,65.1,128,67.4"/>
		<line class="st6" x1="131" y1="160.7" x2="131" y2="79.8"/>
		<line class="st7" x1="126.4" y1="154.9" x2="126.4" y2="79.8"/>
		<path class="st1" d="M131.8,108.7c0.2-0.9,0.4-3.1,0-3.7c-1.8,0-4.5,0-6.1,0C129.4,106.3,131.8,108.7,131.8,108.7"/>
		<path class="st1" d="M118.7,175.5c2.1,0.3,13.4,0.8,13.4,0.8l1.8,4.8C133.9,181.1,124,180.9,118.7,175.5"/>
		<path class="st2" d="M164.7,141.3c-3.5-2.3-7.8-0.5-12.4-4.4c0,12,8.8,14.5,3.9,17.7c-4.4,2.9-8.7,3.6-13.1,3.2
			c0.4-0.6,1-1.7,1.6-2.2c-5.4-0.7-10.1-0.3-12.1-0.1c-6.8-2-14.2-4.5-23.3-4.6c1.6,1.3,3.2,3.6,3.2,7.6c-1.4-5.4-7-8.2-9.7-9.3
			c-0.8-0.3-1.6-0.5-2.4-0.6c-0.4,0.6-1.3,1.5-2.7,2c-0.8-0.4-1.5,0.3-1.4,0.6c0,0.1,0,0.3-0.1,0.4c-0.8,1-3.4,0.6-5.4-0.1
			c-2.3-0.8-2.2,0.8-1.7,1.6c0.7,1.3,1.4,2.1,1.7,2.8c3,6.2,5.2,10.2,11.9,14c6.3,4.7,14.3,7.1,22.4,7.4c3,1.1,9.8,2.9,18.3,1.6
			c-1.7-1.1-3.3-2.2-3.9-3.3c10.8-3.1,20.2-10.2,24-21c0-0.1,0.1-0.2,0.1-0.4c0.7-2.4-1.6-5.5-4.8-2.4c2.8-6.7,7.4-3.8,6.5,0.2
			c3.7-5,8.7-10.3,15.3-12.4C174.6,136.7,168.6,139.1,164.7,141.3"/>
		<path class="st1" d="M131.9,130.8c0.3-0.9,0.4-3.1,0-3.7c-1.8,0-4.5,0-6.1,0C129.5,128.3,131.9,130.8,131.9,130.8"/>
		<path class="st3" d="M134.5,123.7c0,1.9-1.6,3.5-3.5,3.5h-6c-2,0-3.5-1.6-3.5-3.5c0-1.9,1.6-3.5,3.5-3.5h6
			C132.9,120.2,134.5,121.7,134.5,123.7"/>
		<path class="st4" d="M130.9,126c-3.5,0-6.6,0-6.6,0s5-0.3,8.1-3.7C133.2,122.9,133.4,126,130.9,126"/>
		<path class="st1" d="M132,153.1c0.2-0.9,0.3-3.1,0-3.7c-1.8,0-4.5,0-6.1,0C129.6,150.7,132,153.1,132,153.1"/>
		<path class="st3" d="M134.5,145.9c0,1.9-1.6,3.5-3.5,3.5h-6c-2,0-3.5-1.6-3.5-3.5c0-1.9,1.6-3.5,3.5-3.5h6
			C133,142.5,134.5,144,134.5,145.9"/>
		<path class="st4" d="M130.9,148.3c-3.5,0-6.6,0-6.6,0s5-0.3,8.1-3.7C133.3,145.1,133.5,148.2,130.9,148.3"/>
		<rect x="122.7" y="85.5" class="st3" width="10.6" height="10.4"/>
		<path class="st4" d="M133.3,95.9c-1.8,0.4-1.7,2-1.7,2.5c0,0-4.3,0-7.1,0c0-0.2,0.1-2.2-1.8-2.5C122.7,95.9,132.6,95.9,133.3,95.9
			"/>
		<rect x="128.9" y="85.5" class="st4" width="2.9" height="10.6"/>
		<path class="st3" d="M94.7,143.3c-1.1,0.5-2.1,1.5-2.5,2.8c-0.5,1.3-0.5,2.7,0,3.8c0.4,0.8,1,1.4,1.8,1.7c0.8,0.3,1.6,0.2,2.5-0.1
			c1.1-0.5,2.1-1.5,2.6-2.8c0.9-2.3,0.1-4.8-1.7-5.6C96.3,142.9,95.5,143,94.7,143.3 M94.3,150.4c-0.5-0.2-0.8-0.6-1-1
			c-0.3-0.8-0.3-1.8,0-2.7c0.4-0.9,1-1.7,1.8-2.1c0.3-0.1,0.9-0.3,1.4-0.1c0.8,0.3,1.2,1.2,1.2,2.2c0,0.5-0.1,1-0.3,1.5
			c-0.4,1-1,1.7-1.8,2.1C95.4,150.5,94.9,150.6,94.3,150.4"/>
		<path class="st2" d="M96.2,150c-0.6-0.2-2.1-0.6-3.9-0.7c-1.3,0-2.5-0.8-2.4-1.1c0.1-0.3,0.4-0.4,0.9-0.5c1.2-0.2,3.9,0,6.7,0.4
			C97.4,148.8,97,149.5,96.2,150"/>
		<path class="st8" d="M100.7,65.3c0,5.3-4.1,7-5.3,7.3C95.8,71.4,97.5,65.9,100.7,65.3"/>
		<path class="st3" d="M134.6,101.5c0,1.9-1.6,3.5-3.5,3.5h-6c-2,0-3.5-1.6-3.5-3.5c0-1.9,1.6-3.5,3.5-3.5h6
			C133,98,134.6,99.6,134.6,101.5"/>
		<path class="st4" d="M131,103.8c-3.5,0-6.6,0-6.6,0s5-0.3,8.1-3.7C133.3,100.7,133.5,103.8,131,103.8"/>
		<path class="st0" d="M107.4,152.1c3.8,2.6,5.1,6.3,5.1,6.3s1.3-3.2-0.5-5.6c3.5-1,9.5,0.6,15,2.7c8,3.1,14,4.2,20.1,3.1
			c6.1-1,9.3-2.3,11.3-5.3c1-1.6,4.1-1.3,3.3,1.2c-0.9,2.4-4.7,9.4-11.8,11.4c-7.2,1.9-19,5.1-36.4,0.7c-4.7-1.2-15.6-4.1-20.1-9.8
			c-0.9-1.2-1.1-3.3-1.2-3.6c0-0.4,0.2-0.6,1.2-0.5c3.1,0.5,3.7-0.6,4.8-1.9C99.5,150.6,103.9,149.8,107.4,152.1"/>
		<path class="st9" d="M160.4,154c-5.3,10.1-15.6,11.7-26.4,12c-4.4,0.1-8.8-0.4-12.5-1.4c3.2,0.3,6.5,0.1,8.5-0.6
			c-0.8-4.1-7.7-7-12.6-7.3c-0.9-1-1.2-2.4-3.4-3.2c1.6,1.4,1.4,3.5,2.2,4.5c4,0.8,8.8,1.8,11.1,4.9c-0.8,1.1-8,0.5-11.9-0.4
			c-1.7-0.6-3.4-1.6-4.4-3.5c-1.9,2.1-4.8,1.3-7.9-0.2c0-1.2-0.8-2.2-2.3-2.5c0.3,0.5,0.4,1.1,0.4,1.5c-3.4-2-6.7-4.4-8.4-4.3
			c-2.3,0.2,5.1,13.2,11.4,14.6c18.7,10.8,49.8,6,57.2-12.1C162.5,153.5,161.6,151.8,160.4,154"/>
		<path class="st0" d="M101.5,157.7c0.1,1.1-0.8,2.2-2,2.3c-1.2,0.1-2.3-0.7-2.4-1.8c-0.1-1.1,0.8-2.2,2-2.3
			C100.3,155.8,101.4,156.6,101.5,157.7"/>
		<path class="st1" d="M100.5,157.9c0,0.6-0.5,1-1.2,1c-0.6,0-1.1-0.4-1.1-1c0-0.6,0.5-1,1.1-1C99.9,156.9,100.5,157.4,100.5,157.9"
			/>
		<path class="st0" d="M153.9,139.3c-1.3,4.4,4.2,10.4,4.2,10.4S155.6,142,153.9,139.3"/>
		<path class="st0" d="M157.8,140.3c-1.9,2.6,1.7,8.5,1.7,8.5S159.2,144.1,157.8,140.3"/>
		<path class="st0" d="M163.7,147c1.5-3.2,4.5-6.5,7.6-7.6C164.7,140.2,163.3,144.6,163.7,147"/>
		<path class="st0" d="M128,49.1c-2.8-5.4-6.7-1.2-13.6-3.4c-1.2,5.7-2.4,15.8-2.8,17.5c4.7,1.4,8.9-3,14.5,0.7
			c-0.6-7.3,1.7-13.4,1.7-13.4S127.9,49.7,128,49.1"/>
		<path class="st2" d="M128,49.1c-0.5-0.9-1.1-1.7-2-2.3c-0.8,8.7-1,10.6-3.8,15.7c1.7,0.2,3,0.9,3.9,1.5
			c-0.6-7.3,1.9-13.1,1.9-13.1S128,49.4,128,49.1"/>
		<path class="st0" d="M141.7,45.7c-6.9,2.1-10.9-2-13.6,3.4c0,1.8,0,15.3,0,16.3c6.6-6.2,11.2-0.6,16.4-2.2
			C144.1,61.5,142.9,51.4,141.7,45.7"/>
		<rect x="126.1" y="75.4" class="st3" width="3.8" height="4.5"/>
		<polygon class="st3" points="128,71.1 130,74.4 126.1,74.4 		"/>
		<path class="st10" d="M95.7,84.3L95.7,84.3C95.6,84.3,95.6,84.3,95.7,84.3"/>
		<path class="st11" d="M111.1,106.2c0,0,5.3-2.6,5.8-5.3c-1.6-1.6-5.8-1.7-5.8-1.7s4.7-3.6,4.5-6.2c-2.4-1.1-6.6-0.5-6.6-0.5
			c2-2.7,2.5-4.9,2.4-6.7c-2.5-0.4-6.3,1-6.3,1s1.3-4.5,0-6.9c-2.3-0.6-5.5,3.4-5.5,3.4s-1.1-5-3.8-7.6c-2.7,2.6-3.9,7.6-3.9,7.6
			s-3.2-4-5.5-3.4c-1.2,2.4,0,6.9,0,6.9s-3.8-1.5-6.3-1c-0.1,1.9,0.5,4,2.5,6.7c0,0-4.2-0.6-6.6,0.5c-0.2,2.6,4.5,6.2,4.5,6.2
			s-4.1,0.2-5.8,1.7c0.5,2.7,5.8,5.3,5.8,5.3s-3.1,0.6-5.1,2.8c1.2,1.6,4,3.2,6.1,3.5c-1.9,1.5-2.9,2.7-3.4,3.5
			c3,2.4,9.4,2.8,15.7,0.8c0,1.2,0,11-1.5,15.5h6.4c-1.5-4.5-1.5-14.3-1.5-15.5c6.3,2,12.7,1.6,15.7-0.8c-0.5-0.9-1.5-2-3.4-3.5
			c2.2-0.4,4.9-1.9,6.1-3.5C114.3,106.8,111.1,106.2,111.1,106.2"/>
		<path class="st12" d="M105.4,106.4c0.6-0.3,3.7-1.3,5.2-4c-1.6-1.5-5.2-1.6-5.2-1.6s3.3-2.1,4.4-5.4c-2.8-0.8-5.7,0-5.7,0
			s2.4-3.4,2.7-6.2c-2.7,0.3-5.5,1.7-5.5,1.7c0.8-1.8,1.2-4.2,0.9-6.4c-1.3,0.3-2.6,1.8-3.3,2.7c-0.7-2.2-1.8-2.8-2.6-3.3
			c-1.3,1.9-1.6,3.2-1.4,5.8c0.4-0.4,1.1-1.1,2.3-1.8c0.7,3.7-0.6,6.5-0.6,6.5s1.6-1.1,3.8-1.3c0.1,2.1-0.7,4.2-2.8,6.7
			c0,0,1.9-1.2,4.1-1.3c-0.3,2.9-2.1,4.9-4,6.5c1.2-0.6,3.3-0.5,4.8-0.1c-0.7,2.2-2.5,3.3-5,4.7c1.6,0,3.2,0.2,4.1,0.8
			c-1,1.9-3.5,2.8-5.2,3.3c4,1.5,7.8,2.1,11.5,1.2c-0.3-1.1-1.7-2.5-3.3-3.4c1.5-0.3,3.8-0.8,5.8-2.5
			C108.9,107.8,107.3,106.9,105.4,106.4"/>
		<path class="st2" d="M84.2,192.1c0.9,3-1.5,8.8,0.2,12.1c-1.5,0-10.7,1.6-12,0.4c-1.3-1.2-4.9-3.7-1.3-5.7
			C74.6,197.1,83.7,193.6,84.2,192.1"/>
		<path class="st2" d="M172.3,191.8c1.1,9.6-0.6,10.7-0.5,13.4c0.9,0.2,8.2,1.8,10.8,0.4c2.6-1.4,4.4-4.8,3.2-6.2
			c-1.2-1.4-7.2-5.2-9.6-5.6C173.9,193.4,172.9,192.5,172.3,191.8"/>
		<path class="st1" d="M183.7,196.5c-4-2.1-9.9-3.4-13.3-8c-1.3,4.6,1.8,7.3,1.7,14c2.8-5.3,0.5-6.6,1-9.1c2.3,2.9,5.7,3.3,8.1,4.5
			c3,1.6,4.9,5.1-1.4,5.1c-12.3,0-90.9,0-103.5,0c-6.5,0-4.6-3.5-1.5-5.1c2.4-1.2,5.8-1.7,8.1-4.6c0.5,2.5-1.9,3.8,1,9
			c-0.1-6.8,2.9-9.3,1.7-14c-3.3,4.6-9.4,5.9-13.4,8c-3.4,1.8-3.4,3-3.4,8.8c0,3.9,0,8.8,0,12.1c0,2.3,2.7,3.7,5.9,3.6h106.6
			c3.2,0.1,5.9-1.2,5.9-3.6c0-3.3,0-8.3,0-12.2C187.3,199.3,187.1,198.3,183.7,196.5"/>
		<path class="st0" d="M74.7,208.1H77l1.6,4.4c0,0.1,0.1,0.4,0.3,1.1c0.2-0.6,0.2-1,0.3-1.1l1.6-4.4h2.3l-3.3,7.9H78L74.7,208.1"/>
		<line class="st13" x1="85.3" y1="216" x2="85.3" y2="208.1"/>
		<path class="st0" d="M90.4,208.1h2.7l2.7,7.9h-2.1l-0.4-1.4h-3.1l-0.4,1.4h-2.1L90.4,208.1 M92.9,213l-0.8-2.6
			c0-0.1-0.1-0.5-0.3-1.1c-0.1,0.6-0.2,0.9-0.3,1.1l-0.8,2.6H92.9z"/>
		<path class="st0" d="M100.1,208.1h2.3l1.6,4.4c0,0.1,0.1,0.4,0.3,1.1c0.1-0.6,0.2-1,0.3-1.1l1.6-4.4h2.3l-3.3,7.9h-1.6
			L100.1,208.1"/>
		<polygon class="st0" points="109.6,208.1 114.4,208.1 114.4,209.8 111.7,209.8 111.7,211.2 114.3,211.2 114.3,212.9 111.7,212.9 
			111.7,214.2 114.4,214.2 114.4,216 109.6,216 		"/>
		<path class="st0" d="M116.4,208.1h2.3h0.1c1.1,0,1.9,0,2.6,0.5c0.6,0.4,0.9,1.1,0.9,1.9c0,1.2-0.6,2-1.8,2.2l2.1,3.2h-2.4
			l-1.8-3.1v3.1h-2V208.1 M118.8,211.8c0.9,0,1.3-0.3,1.3-1c0-0.8-0.4-1.1-1.3-1.1h-0.4v2.1H118.8z"/>
		<line class="st13" x1="125.7" y1="216" x2="125.7" y2="208.1"/>
		<polygon class="st0" points="129.7,210 127.9,210 127.9,208.1 133.6,208.1 133.6,210 131.8,210 131.8,216 129.7,216 		"/>
		<path class="st0" d="M137,208.1h2.7l2.7,7.9h-2.1l-0.4-1.4h-3.1l-0.4,1.4h-2.1L137,208.1 M139.4,213l-0.8-2.6
			c0-0.1-0.1-0.5-0.3-1.1c-0.1,0.6-0.2,0.9-0.3,1.1l-0.8,2.6H139.4z"/>
		<path class="st0" d="M146,214.5c0.6,0,1-0.3,1-0.8c0-0.6-0.4-0.8-1.3-1.1c-1.4-0.4-2.1-0.9-2.1-2.2c0-1.5,1.1-2.6,2.7-2.6
			c0.9,0,1.7,0.2,2.3,0.7l-0.7,1.5c-0.5-0.4-1-0.6-1.5-0.6c-0.5,0-0.9,0.3-0.9,0.7c0,0.6,0.6,0.7,1.3,0.9c1.4,0.4,2.2,0.9,2.2,2.4
			c0,1.6-1.2,2.8-3,2.8c-1.1,0-2-0.4-2.8-1.2l1-1.6C144.7,214.1,145.3,214.5,146,214.5"/>
		<path class="st0" d="M153.6,208.1h2.3l1.6,4.4c0,0.1,0.1,0.4,0.3,1.1c0.1-0.6,0.2-1,0.3-1.1l1.6-4.4h2.3l-3.3,7.9H157L153.6,208.1
			"/>
		<line class="st13" x1="164.2" y1="216" x2="164.2" y2="208.1"/>
		<polygon class="st0" points="168.7,210 167,210 167,208.1 172.7,208.1 172.7,210 170.9,210 170.9,216 168.7,216 		"/>
		<path class="st0" d="M176.1,208.1h2.7l2.7,7.9h-2.1l-0.4-1.4h-3.1l-0.4,1.4h-2.1L176.1,208.1 M178.5,213l-0.8-2.6
			c0-0.1-0.1-0.5-0.3-1.1c-0.2,0.6-0.2,0.9-0.3,1.1l-0.8,2.6H178.5z"/>
		<path class="st4" d="M132.3,183.4c0.5,0.6,0.9,3.5-1.7,3.8c-4.4,0.3-6.5-0.1-6.5-0.1S130,186.4,132.3,183.4"/>
		<path class="st4" d="M152,93.7c0.3-3.6,2-4.4,4.3-4.4c1.3,0,3.3,0.1,8,0c-2.7,0.2-6,1.7-6.5,5.1c-0.4,3.2-0.4,14.5-0.5,19.3
			c-2.4,0.1-5.5,0-6.2,0.2C151.5,109,151.7,97.3,152,93.7"/>
		<rect x="128.1" y="75.4" class="st4" width="1.2" height="4.5"/>
		<polygon class="st4" points="129.2,74.4 128,71.1 128,74.4 		"/>
	</g>
</g>
</svg>
