<?xml version="1.0" encoding="utf-8"?>
<!-- Generator: Adobe Illustrator 26.3.1, SVG Export Plug-In . SVG Version: 6.00 Build 0)  -->
<svg version="1.1" id="affiliation" xmlns="http://www.w3.org/2000/svg" xmlns:xlink="http://www.w3.org/1999/xlink" x="0px"
	 y="0px" viewBox="0 0 256 256" style="enable-background:new 0 0 256 256;" xml:space="preserve">
<style type="text/css">
	.st0{fill:#FFFFFF;}
	.st1{display:none;fill:#FFFFFF;}
	.st2{fill:#143A84;}
</style>
<rect id="black" width="256" height="256"/>
<circle
   id="background"
   class="st0"
   cx="128"
   cy="128"
   r="128" />
<g id="logo">
	<g>
		<path class="st2" d="M65.8,170.7H33.5L125,79.3v32.4L65.8,170.7z"/>
		<path class="st2" d="M216.5,125c0,6.3-1.2,12.3-3.6,17.8c-2.4,5.5-5.6,10.4-9.8,14.5c-4.1,4.1-9,7.4-14.5,9.8
			c-5.6,2.4-11.5,3.6-17.8,3.6c-4.2,0-8.3-0.5-12.2-1.6c-3.9-1.1-7.5-2.6-10.9-4.6c-3.4-2-6.5-4.4-9.2-7.1c-2.8-2.8-5.2-5.9-7.1-9.2
			c-2-3.4-3.5-7-4.6-10.9c-1.1-3.9-1.6-8-1.6-12.2h22.9c0,3.1,0.6,6.1,1.8,8.8c1.2,2.8,2.9,5.2,4.9,7.3c2.1,2.1,4.5,3.7,7.3,4.9
			c2.8,1.2,5.7,1.8,8.8,1.8c3.2,0,6.1-0.6,8.9-1.8c2.8-1.2,5.2-2.9,7.3-4.9c2.1-2.1,3.7-4.5,4.9-7.3c1.2-2.8,1.8-5.7,1.8-8.8H216.5z
			"/>
	</g>
</g>
</svg>
