<?xml version="1.0" encoding="utf-8"?>
<!-- Generator: Adobe Illustrator 26.5.0, SVG Export Plug-In . SVG Version: 6.00 Build 0)  -->
<svg version="1.1" id="affiliation" xmlns="http://www.w3.org/2000/svg" xmlns:xlink="http://www.w3.org/1999/xlink" x="0px"
	 y="0px" viewBox="0 0 256 256" style="enable-background:new 0 0 256 256;" xml:space="preserve">
<style type="text/css">
	.st0{fill:#FFFFFF;}
	.st1{fill-rule:evenodd;clip-rule:evenodd;fill:#00AEAE;}
	.st2{fill-rule:evenodd;clip-rule:evenodd;fill:#21174C;}
</style>
<rect id="black" width="256" height="256"/>
<circle id="background" class="st0" cx="128" cy="128" r="128"/>
<g id="logo_00000169557994799884142440000017718490564280908447_">
	<g>
		<path class="st1" d="M189.6,198.3V57.7H69.2v140.7H189.6L189.6,198.3z"/>
		<path class="st2" d="M77.2,83.6c15.9-3.2,17-1.4,11,2.1C77,92.2,32.7,111.7,31,119.7c-0.6,3.1,21.9,2.8,40.8-4.2
			C87.6,109.7,146,88,129.2,97c-4.8,2.5-14.7,5.6-26.3,17.8c-5.1,5.3-51.4,57.5,52.2,76.9c0,0,24.1-20.5,55.9-31.7
			c0,0-86.8-28-36.8-74c12.2-11.2-14.5-5.6-22.9-3c-8.5,2.7-75,23.8-66.6,15.8c2.7-2.6,22-15.3,30.5-22.9c4.5-4.1-13.6-3.5-25.8,2.1
			L77.2,83.6L77.2,83.6z"/>
	</g>
</g>
</svg>
