<?xml version="1.0" encoding="UTF-8" standalone="no"?>
<!-- Generator: Adobe Illustrator 26.3.1, SVG Export Plug-In . SVG Version: 6.00 Build 0)  -->

<svg
   version="1.1"
   id="affiliation"
   x="0px"
   y="0px"
   viewBox="0 0 256 256"
   style="enable-background:new 0 0 256 256;"
   xml:space="preserve"
   sodipodi:docname="7431.svg"
   inkscape:version="1.4 (86a8ad7, 2024-10-11)"
   xmlns:inkscape="http://www.inkscape.org/namespaces/inkscape"
   xmlns:sodipodi="http://sodipodi.sourceforge.net/DTD/sodipodi-0.dtd"
   xmlns="http://www.w3.org/2000/svg"
   xmlns:svg="http://www.w3.org/2000/svg"><defs
   id="defs1" /><sodipodi:namedview
   id="namedview1"
   pagecolor="#ffffff"
   bordercolor="#000000"
   borderopacity="0.25"
   inkscape:showpageshadow="2"
   inkscape:pageopacity="0.0"
   inkscape:pagecheckerboard="0"
   inkscape:deskcolor="#d1d1d1"
   inkscape:zoom="3.1523438"
   inkscape:cx="128"
   inkscape:cy="128"
   inkscape:window-width="1920"
   inkscape:window-height="1009"
   inkscape:window-x="1912"
   inkscape:window-y="-8"
   inkscape:window-maximized="1"
   inkscape:current-layer="affiliation" />
<style
   type="text/css"
   id="style1">
	.st0{fill:#FFFFFF;}
	.st1{display:none;fill:#FFFFFF;}
	.st2{fill:#143A84;}
</style>
<rect
   id="black"
   width="256"
   height="256" />
<circle
   id="background"
   class="st0"
   cx="128"
   cy="128"
   r="128" />
<g
   id="logo">
	<g
   id="g1">
	
</g>
</g>
<path
   class="st0"
   d="m 223.27215,182.13696 c -5.5408,-2.55731 -11.0816,-3.62282 -20.45833,-10.22916 -24.08113,-17.04862 -34.73652,-36.65449 -19.39277,-78.423576 8.95051,-24.081145 12.36022,-41.982175 11.72091,-65.210893 -0.21312,-0.213107 -1.27865,-0.852429 -1.49176,-1.065538 -4.68836,28.982622 -12.78644,43.260824 -30.68747,72.669664 -40.70354,66.276423 -2.34417,106.766863 15.76996,121.258163 16.40927,-8.09808 33.88408,-22.16318 44.53946,-38.99866"
   id="path18"
   style="fill:#21234f;stroke-width:2.13108" /><path
   class="st0"
   d="m 143.35685,97.320176 c 28.34327,-36.015181 40.0642,-50.932706 42.62148,-75.013855 l -1.49175,-0.85243 C 176.8147,50.649618 160.83165,63.43607 113.30867,96.254637 63.867735,130.35182 65.572594,181.92383 78.998366,219.64387 c 15.769952,8.09808 33.244774,12.36024 50.932694,12.36024 3.83594,0 7.67187,-0.21311 11.5078,-0.63933 -33.88409,-54.34242 -31.11369,-92.06243 1.91799,-134.044604"
   id="path19"
   style="fill:#21234f;stroke-width:2.13108" /><path
   class="st0"
   d="m 123.96406,70.25551 c 32.17923,-15.983063 46.67053,-31.966125 52.85064,-52.424445 -0.21311,-0.213109 -1.49175,-0.639324 -1.49175,-0.639324 -18.32724,31.326803 -40.91664,33.670986 -92.488647,42.195287 -29.621944,4.901471 -45.818114,17.901031 -62.440499,36.228276 -1.70486,7.884986 -2.55729,15.769946 -2.55729,23.654926 -0.213107,26.21222 8.950515,51.78513 25.786008,72.03034 C 44.47495,107.12311 83.686732,90.074506 123.96406,70.25551"
   id="path20"
   style="fill:#21234f;stroke-width:2.13108" /></svg>
