<?xml version="1.0" encoding="UTF-8" standalone="no"?>
<!-- Generator: Adobe Illustrator 26.3.1, SVG Export Plug-In . SVG Version: 6.00 Build 0)  -->

<svg
   version="1.1"
   id="affiliation"
   x="0px"
   y="0px"
   viewBox="0 0 256 256"
   style="enable-background:new 0 0 256 256;"
   xml:space="preserve"
   sodipodi:docname="7488.svg"
   inkscape:version="1.4 (86a8ad7, 2024-10-11)"
   xmlns:inkscape="http://www.inkscape.org/namespaces/inkscape"
   xmlns:sodipodi="http://sodipodi.sourceforge.net/DTD/sodipodi-0.dtd"
   xmlns="http://www.w3.org/2000/svg"
   xmlns:svg="http://www.w3.org/2000/svg"><defs
   id="defs1"><pattern
     id="EMFhbasepattern"
     patternUnits="userSpaceOnUse"
     width="6"
     height="6"
     x="0"
     y="0" /></defs><sodipodi:namedview
   id="namedview1"
   pagecolor="#ffffff"
   bordercolor="#000000"
   borderopacity="0.25"
   inkscape:showpageshadow="2"
   inkscape:pageopacity="0.0"
   inkscape:pagecheckerboard="0"
   inkscape:deskcolor="#d1d1d1"
   inkscape:zoom="0.55726091"
   inkscape:cx="454.90361"
   inkscape:cy="275.45445"
   inkscape:window-width="1920"
   inkscape:window-height="1009"
   inkscape:window-x="1912"
   inkscape:window-y="-8"
   inkscape:window-maximized="1"
   inkscape:current-layer="affiliation" />
<style
   type="text/css"
   id="style1">
	.st0{fill:#FFFFFF;}
	.st1{display:none;fill:#FFFFFF;}
	.st2{fill:#143A84;}
</style>
<rect
   id="black"
   width="256"
   height="256" />
<circle
   id="background"
   class="st0"
   cx="128"
   cy="128"
   r="128" />
<g
   id="logo">

</g>
<path
   style="fill:#004684;fill-opacity:1;fill-rule:evenodd;stroke:none;stroke-width:0.124068"
   d="m 128.41263,46.194919 v 85.403511 c -27.95773,-0.005 -55.920131,0.009 -83.873182,-0.009 V 46.194919 Z m 0,0 z m -23.89089,10.286429 c -5.54568,5.79839 -11.13817,11.55468 -16.67449,17.35775 0.0375,0.13571 0.17316,0.28547 0.0328,0.41651 0.61307,-0.24336 1.27295,-0.32759 1.90941,-0.47267 9.33173,-2.0264 18.67281,-4.02004 27.99985,-6.06047 0.41183,-1.13254 0.60371,-2.35399 0.87982,-3.53333 -6.60333,2.15276 -13.22072,4.26807 -19.83342,6.39743 -3.49589,1.15593 -7.01986,2.21359 -10.49702,3.41632 -0.0983,-0.0796 -0.19655,-0.16379 -0.28548,-0.25271 0.88919,-0.28079 1.69881,-0.77218 2.54587,-1.15594 7.52996,-3.63159 15.04121,-7.31936 22.58521,-10.92756 0.25739,-1.22614 0.53351,-2.45227 0.73475,-3.69712 -1.94217,1.11849 -3.82816,2.33059 -5.74693,3.48185 -5.94348,3.62691 -11.88695,7.2632 -17.83042,10.8948 -0.62711,0.35568 -1.2121,0.79091 -1.87664,1.07638 0.44459,-0.53819 1.01554,-0.94534 1.53032,-1.41334 4.67522,-4.07619 9.34576,-8.16173 14.02567,-12.23325 0.15911,-0.14976 0.34631,-0.30887 0.37439,-0.54288 0.2106,-1.07637 0.48203,-2.1387 0.65051,-3.22444 -0.18252,0.15444 -0.36035,0.30419 -0.52415,0.47267 z m 0,0 z m -49.597592,10.67953 c 0.14508,1.49289 0.421192,2.96238 0.617748,4.44122 2.087232,14.14735 4.165113,28.29937 6.257033,42.451392 0.0093,0.22931 0.285472,0.23399 0.444582,0.30419 8.447227,2.30251 16.894449,4.60502 25.341669,6.92157 0.009,-15.64958 0.014,-31.294492 -0.005,-46.939402 -10.88544,-2.38675 -21.77089,-4.77818 -32.656345,-7.17897 z"
   id="path1" /><path
   style="fill:#eead13;fill-opacity:1;fill-rule:evenodd;stroke:none;stroke-width:0.124068"
   d="m 212.38409,46.194919 c -0.0421,28.467849 -0.005,56.935691 -0.0187,85.403511 -27.9858,0 -55.9716,0 -83.9574,0 V 46.194919 Z m 0,0 z m -52.8548,6.565899 c -0.009,8.8497 0.0187,17.70875 -0.009,26.55844 -0.64115,0.0608 -1.27294,0.17316 -1.90472,0.29484 -5.36317,1.02489 -10.67486,2.69094 -15.39219,5.48952 -2.54587,1.53501 -4.94666,3.41633 -6.68291,5.85924 -1.37121,1.90472 -2.26039,4.21191 -2.22763,6.57994 -0.0186,2.569272 1.06702,5.026212 2.62543,7.019852 1.71752,2.19019 3.94983,3.92643 6.32723,5.34913 2.81261,1.6754 5.85455,2.92962 8.97604,3.89836 6.49102,1.99831 13.31432,2.78453 20.08614,2.72369 7.02453,-0.11699 14.0865,-1.14657 20.70856,-3.57076 4.00599,-1.49289 7.90435,-3.50992 11.03988,-6.45826 1.90472,-1.81581 3.49589,-4.07152 4.11364,-6.659502 0.62243,-2.52715 0.16848,-5.25553 -1.0951,-7.51592 -1.3291,-2.41483 -3.36953,-4.36167 -5.59716,-5.95752 -2.02172,-1.42736 -4.21659,-2.61606 -6.50974,-3.55204 -4.57695,7.19769 -9.12113,14.41878 -13.71212,21.607102 -1.93279,-4.918572 -3.9077,-9.823112 -5.892,-14.718282 0.40248,-0.3276 0.92196,-0.43992 1.3993,-0.62243 5.24617,-1.9562 10.49702,-3.90304 15.74786,-5.85924 0.57095,-0.22464 1.17466,-0.38375 1.70818,-0.69731 -4.30084,-1.7924 -8.88245,-2.8173 -13.47812,-3.45844 -3.25721,-0.40248 -6.55187,-0.70199 -9.83715,-0.55691 -3.22446,-7.96987 -6.39743,-15.97251 -9.60784,-23.95173 -0.25272,-0.60371 -0.45395,-1.23081 -0.78622,-1.80177 z m 0,0 z m 11.7138,26.92347 c 0.65987,0.0234 1.31972,0.0515 1.97959,0.11233 0.28548,1.84387 0.60371,3.68776 0.87047,5.53632 -0.97342,-1.87197 -1.94216,-3.74392 -2.85006,-5.64865 z m 0,0 z m -30.02625,6.74843 c 0.46799,-0.40248 1.00618,-0.71136 1.53969,-1.02023 1.96088,1.09978 3.93112,2.17616 5.89668,3.26658 0.51478,0.29483 1.0717,0.5335 1.53968,0.90322 -2.99981,-1.03426 -5.98559,-2.11063 -8.97605,-3.14957 z m 0,0 z m 54.7174,12.88844 c 3.30868,-0.96874 6.58462,-2.05447 9.89799,-3.00917 0.0749,0.45394 0.13104,0.90322 0.18252,1.35717 -2.64414,0.43991 -5.28361,0.90322 -7.92308,1.34781 -0.71602,0.12167 -1.43204,0.27611 -2.15743,0.30419 z m 0,0 z m -61.04462,-1.04362 c 3.18701,0.43523 6.36934,0.91726 9.55636,1.33846 -3.09342,0.11231 -6.20088,-0.0842 -9.29896,-0.0608 -0.10297,-0.42119 -0.19188,-0.84706 -0.2574,-1.27761 z m 0,0 z m 11.78867,12.280062 c 3.15425,-0.61775 6.32254,-1.15593 9.48148,-1.70816 -2.29316,0.87514 -4.66586,1.54436 -6.99178,2.35867 -0.28547,0.0702 -0.59435,0.26675 -0.8845,0.12636 -0.55222,-0.22464 -1.08106,-0.49608 -1.6052,-0.77687 z m 0,0 z m 28.76267,0.0561 c -0.46799,1.6754 -1.05766,3.31337 -1.60521,4.96537 -0.80961,0.005 -1.62393,0.014 -2.43355,-0.0187 1.2823,-1.69881 2.71434,-3.28061 4.03876,-4.94666 z"
   id="path2" /><path
   style="fill:#ffe9c2;fill-opacity:1;fill-rule:evenodd;stroke:none;stroke-width:0.124068"
   d="m 159.52929,52.765498 c 0.32759,0.56628 0.52884,1.19338 0.78155,1.79709 3.21041,7.97922 6.38806,15.97718 9.61719,23.94705 1.46949,3.74392 3.00918,7.45041 4.45527,11.19901 1.99363,4.89517 3.96388,9.79971 5.89668,14.718282 -0.53352,-0.13572 -1.02023,-0.40246 -1.51161,-0.64115 -6.40678,-3.12617 -12.82761,-6.214902 -19.25779,-9.294282 0,-5.05896 0,-10.11795 0.005,-15.17224 0.0281,-8.85437 0.005,-17.70874 0.014,-26.55376 z"
   id="path3" /><path
   style="fill:#7c91bc;fill-opacity:1;fill-rule:evenodd;stroke:none;stroke-width:0.124068"
   d="m 104.51706,56.481348 c 0.16847,-0.16379 0.34631,-0.31823 0.52415,-0.46799 -0.1638,1.08106 -0.43523,2.14807 -0.64583,3.22444 -0.0328,0.23401 -0.21527,0.39312 -0.37906,0.54288 -4.67992,4.06684 -9.34578,8.15238 -14.02099,12.22857 -0.51479,0.47268 -1.09042,0.87515 -1.53033,1.41802 0.66454,-0.28548 1.24953,-0.7207 1.87196,-1.08106 5.94348,-3.6316 11.88695,-7.26321 17.83042,-10.89013 1.92344,-1.15126 3.80477,-2.36803 5.74693,-3.48184 -0.19656,1.24017 -0.47736,2.4663 -0.73475,3.69244 -7.53932,3.61288 -15.05057,7.29128 -22.58053,10.92756 -0.85174,0.38844 -1.65668,0.87515 -2.55055,1.15594 0.0936,0.0889 0.19188,0.17316 0.28548,0.25739 3.47716,-1.20741 7.00581,-2.26975 10.5017,-3.421 6.6127,-2.13404 13.23008,-4.23999 19.83342,-6.39275 -0.27611,1.17466 -0.47267,2.39611 -0.87982,3.52865 -9.33172,2.04043 -18.66813,4.03407 -27.99985,6.06047 -0.64115,0.14976 -1.29633,0.234 -1.9094,0.47735 0.13572,-0.13104 0.005,-0.28548 -0.0328,-0.42119 5.53164,-5.80775 11.12412,-11.55936 16.66981,-17.35775 z m 0,0 z m -49.592912,10.68421 c 10.880775,2.39143 21.766222,4.78286 32.656352,7.17897 0.014,15.64491 0.014,31.294502 0,46.934722 -8.44722,-2.31187 -16.889762,-4.61906 -25.336989,-6.91689 -0.15911,-0.0749 -0.435231,-0.0749 -0.444582,-0.30887 -2.09192,-14.152022 -4.169801,-28.299362 -6.257033,-42.451392 -0.201236,-1.47884 -0.472668,-2.95301 -0.617748,-4.43654 z"
   id="path4" /><path
   style="fill:#f6d294;fill-opacity:1;fill-rule:evenodd;stroke:none;stroke-width:0.124068"
   d="m 169.92335,78.509638 c 3.28529,-0.13572 6.57995,0.15443 9.83716,0.56159 4.59566,0.63646 9.18197,1.66604 13.47342,3.45376 -0.5335,0.31356 -1.13252,0.47267 -1.70348,0.70199 -5.25084,1.95152 -10.50169,3.89836 -15.74787,5.85456 -0.47734,0.18719 -0.99681,0.29951 -1.40396,0.62242 -1.44141,-3.74859 -2.98577,-7.45508 -4.45527,-11.19432 z m 0,0 z m 1.31974,1.16997 c 0.9079,1.90473 1.87664,3.78136 2.85006,5.64865 -0.26676,-1.84856 -0.58967,-3.68777 -0.87047,-5.53632 -0.65987,-0.0561 -1.31972,-0.0889 -1.97959,-0.11233 z m 0,0 z m -13.62787,-0.0701 c 0.6271,-0.12168 1.25889,-0.234 1.90004,-0.29484 -0.005,5.0543 -0.005,10.11327 0,15.17224 6.4255,3.08406 12.84633,6.177472 19.24843,9.298962 0.49138,0.23869 0.97809,0.50543 1.5116,0.64115 4.58631,-7.193002 9.13985,-14.409412 13.71211,-21.611782 2.29316,0.93598 4.48335,2.12936 6.50975,3.55672 2.22763,1.59118 4.26807,3.53802 5.59716,5.95284 1.26357,2.2604 1.71752,4.99345 1.09509,7.5206 -0.62242,2.592662 -2.2089,4.843692 -4.11363,6.659502 -3.14022,2.95302 -7.03857,4.96069 -11.03989,6.45358 -6.62205,2.42419 -13.68403,3.45377 -20.70855,3.57077 -6.7765,0.0608 -13.59512,-0.72539 -20.09081,-2.7237 -3.11682,-0.96874 -6.15876,-2.22296 -8.97138,-3.89368 -2.37739,-1.4227 -4.6097,-3.15893 -6.33191,-5.34445 -1.5584,-1.99832 -2.63946,-4.45526 -2.62074,-7.019852 -0.0328,-2.37739 0.85642,-4.6799 2.22764,-6.5893 1.73623,-2.43823 4.13702,-4.32423 6.68289,-5.85923 4.71734,-2.79391 10.02435,-4.46464 15.3922,-5.48953 z m 0,0 z m -16.40306,6.81862 c 2.99514,1.04362 5.98092,2.11999 8.97606,3.14957 -0.46799,-0.36972 -1.02023,-0.60371 -1.53501,-0.90322 -1.96556,-1.08574 -3.9358,-2.1668 -5.89668,-3.26657 -0.53351,0.31355 -1.0717,0.61774 -1.54437,1.02022 z m 0,0 z m 54.7174,12.89312 c 0.73007,-0.0281 1.44142,-0.18252 2.16211,-0.30419 2.63947,-0.44459 5.27894,-0.9079 7.92308,-1.34313 -0.0515,-0.45863 -0.11232,-0.91259 -0.1872,-1.36185 -3.31336,0.95002 -6.5893,2.04043 -9.89799,3.00917 z m 0,0 z m -61.04462,-1.04366 c 0.0702,0.43055 0.15443,0.85642 0.2574,1.28229 3.10276,-0.0281 6.20554,0.16848 9.30364,0.0608 -3.18702,-0.42588 -6.36935,-0.90791 -9.56104,-1.34314 z m 0,0 z m 11.79335,12.280062 c 0.52414,0.27611 1.05298,0.54755 1.60052,0.77687 0.29483,0.14039 0.60371,-0.0608 0.88918,-0.13104 2.31656,-0.81431 4.69394,-1.47885 6.99178,-2.35399 -3.15894,0.55691 -6.33191,1.09041 -9.48148,1.70816 z m 0,0 z m 28.76267,0.0515 c -1.32442,1.66605 -2.75646,3.25254 -4.03876,4.95134 0.80962,0.0328 1.61924,0.0187 2.43355,0.014 0.54755,-1.64732 1.13722,-3.28997 1.60521,-4.96537 z"
   id="path5" /><path
   style="fill:#01818e;fill-opacity:1;fill-rule:evenodd;stroke:none;stroke-width:0.124068"
   d="m 44.539448,131.58439 c 27.953051,0.014 55.915452,0 83.873182,0.005 -0.005,33.72804 0.005,67.44672 -0.005,101.17008 h -0.0608 C 102.45296,222.0097 76.545026,211.29742 50.646457,200.56173 c -1.085737,-0.4914 -2.293148,-0.79092 -3.191688,-1.61456 -1.64733,-1.37122 -2.499073,-3.44442 -2.915585,-5.49421 z m 0,0 z M 60.46047,141.7585 c 0.332277,0.40247 0.744101,0.72539 1.123183,1.07638 0.645827,-1.26826 0.706664,-2.75178 0.416504,-4.123 -0.575631,0.98278 -1.010862,2.04044 -1.539687,3.04662 z m 0,0 z m 2.779864,2.61606 c 0.439911,0.40716 0.875142,0.82367 1.329092,1.21677 0.739421,-1.77367 1.099777,-3.70179 1.024901,-5.62523 -0.903228,1.39929 -1.698815,2.87346 -2.353993,4.40846 z m 0,0 z m -7.82947,-3.65968 c 0.519466,0.37907 1.132527,0.59903 1.722197,0.84706 0.842384,0.33696 1.712846,0.66923 2.630105,0.73475 -0.45863,-0.48204 -0.861103,-1.03426 -1.399288,-1.42269 -0.964065,-0.24336 -1.970239,-0.23868 -2.953014,-0.15912 z m 0,0 z M 68.467786,142.76 c -0.659874,1.56777 -1.36185,3.13085 -1.797081,4.77818 0.453942,0.46331 0.851735,0.99682 1.389928,1.37121 0.875142,-2.22295 1.282286,-4.67054 0.875142,-7.03857 -0.182518,0.28079 -0.336957,0.57563 -0.467989,0.88918 z m 0,0 z m -11.596798,1.39461 c 1.876644,0.9781 3.982595,1.64732 6.111953,1.62393 -0.477349,-0.54287 -0.91258,-1.16998 -1.50693,-1.58181 -1.530328,-0.0983 -3.074695,-0.15912 -4.605023,-0.0421 z m 0,0 z m 15.453032,1.81112 c -0.781547,1.67073 -1.595844,3.34145 -2.176155,5.10109 0.566272,0.55223 1.085738,1.16062 1.712846,1.65201 1.071698,-2.38675 1.305693,-5.07769 0.982775,-7.65164 -0.191877,0.28548 -0.374386,0.58031 -0.519466,0.89854 z m 0,0 z m -13.623193,1.9562 c 2.461626,1.10445 5.157247,1.769 7.857556,1.8158 -0.411832,-0.55223 -0.88918,-1.05297 -1.34781,-1.56309 -0.238683,-0.33695 -0.683265,-0.30419 -1.04362,-0.36503 -1.8158,-0.19655 -3.664366,-0.18251 -5.466126,0.11232 z m 0,0 z m 17.732149,1.98428 c -0.851743,1.75496 -1.736244,3.51928 -2.251039,5.40997 0.570952,0.50542 0.987464,1.20273 1.614564,1.63796 1.310379,-2.90154 2.017039,-6.09792 1.876639,-9.28493 -0.51478,0.68327 -0.82833,1.48821 -1.240164,2.237 z m 0,0 z m 3.453764,7.91371 c -0.29483,0.91726 -0.7207,1.82048 -0.83303,2.78454 0.4914,0.65519 1.0483,1.26825 1.6099,1.86728 1.48821,-3.73924 2.38206,-7.76395 2.28846,-11.80271 -1.18401,2.30719 -2.14339,4.7267 -3.06533,7.15089 z m 0,0 z m -19.421591,-5.76564 c 0.29484,0.16848 0.59435,0.32759 0.907908,0.45395 2.929616,1.22146 6.102586,1.88133 9.280243,1.8158 -0.491396,-0.56627 -0.968744,-1.14189 -1.474171,-1.69412 -0.224635,-0.29016 -0.613069,-0.29484 -0.940666,-0.36035 -2.56926,-0.40715 -5.185326,-0.42587 -7.773314,-0.21528 z m 0,0 z m 28.098121,2.53182 c -0.85173,1.86729 -1.64264,3.772 -2.41015,5.68141 -0.7675,2.00767 -1.5818,4.01067 -2.11999,6.09323 0.54287,0.84706 1.24954,1.61456 1.91408,2.38206 1.61457,-4.1183 2.5599,-8.50805 2.7003,-12.93056 0.005,-0.41183 0.0842,-0.8377 -0.0842,-1.22614 z m 0,0 z m -25.079582,2.27444 c 3.580122,1.8392 7.628242,2.65819 11.634228,2.7237 -0.650507,-0.82366 -1.305685,-1.66137 -2.045115,-2.40079 -3.140211,-0.68794 -6.402096,-0.64115 -9.589113,-0.32291 z m 0,0 z m 29.684602,6.48634 c -1.35717,3.22446 -2.63946,6.48635 -3.61756,9.84652 0.72071,1.00618 1.49289,1.97959 2.26975,2.94365 2.17616,-5.57376 3.50993,-11.53127 3.49121,-17.53559 -0.8377,1.52098 -1.43672,3.16362 -2.1434,4.74542 z m 0,0 z m -27.105974,-1.21677 c 0.921939,0.52883 1.928113,0.89386 2.915576,1.27761 3.48184,1.25889 7.188332,1.94216 10.894808,1.90004 -0.44927,-0.66454 -1.01086,-1.24486 -1.49757,-1.88132 -0.26207,-0.30419 -0.48203,-0.71135 -0.92194,-0.75814 -3.734562,-0.79559 -7.595476,-0.84239 -11.390874,-0.53819 z m 0,0 z m 36.348784,3.35549 c -1.43204,3.40228 -2.8173,6.82797 -4.05279,10.30514 -0.7207,2.11063 -1.50225,4.22126 -1.92812,6.41146 0.68794,1.03893 1.50225,1.98896 2.19487,3.02322 0.15444,-0.27144 0.29483,-0.54755 0.40715,-0.84238 2.47567,-6.38807 3.97324,-13.21605 3.93113,-20.08614 -0.2106,0.38375 -0.38376,0.78155 -0.55224,1.1887 z m 0,0 z m -33.260049,3.14957 c 2.265069,1.14657 4.684578,1.98896 7.146205,2.61607 3.009174,0.73473 6.111954,1.16997 9.210034,1.07169 -0.73005,-0.92661 -1.44608,-1.8626 -2.17146,-2.7939 -0.32292,-0.30419 -0.82367,-0.28547 -1.22614,-0.39779 -4.26807,-0.79558 -8.643775,-0.81899 -12.958639,-0.49607 z m 0,0 z m 36.535989,11.84482 c -1.20741,3.3321 -2.39144,6.68291 -3.17297,10.14603 0.80025,1.13722 1.53968,2.31188 2.40079,3.40697 1.09976,-2.54118 2.01703,-5.16193 2.76581,-7.82948 1.46482,-5.26957 2.34464,-10.74505 2.19956,-16.22989 -1.52565,3.44909 -2.8641,6.97773 -4.19319,10.50637 z m 0,0 z m 8.63442,2.81731 c -2.01236,5.32105 -4.01068,10.66549 -5.34913,16.20182 -0.234,0.57094 0.28548,1.01554 0.55223,1.46012 0.68794,0.96407 1.24018,2.01705 1.97491,2.93898 1.15126,-2.70966 2.14808,-5.48016 2.97642,-8.30682 1.90004,-6.47699 3.03726,-13.21604 2.96238,-19.9785 -1.1653,2.50843 -2.10128,5.11513 -3.11681,7.6844 z m 0,0 z m -41.609014,-6.7999 c 2.288476,1.16529 4.726704,2.02639 7.193014,2.73774 3.92176,1.06234 7.99795,1.71285 12.06946,1.57713 -0.66922,-1.01085 -1.44609,-1.93747 -2.15743,-2.91558 -0.19188,-0.234 -0.35568,-0.54286 -0.68327,-0.58498 -1.79708,-0.43991 -3.63628,-0.71602 -5.47547,-0.88451 -3.64097,-0.3042 -7.314697,-0.31355 -10.946304,0.0702 z m 0,0 z m 2.82199,7.93243 c 4.141704,2.00768 8.559544,3.43505 13.089684,4.25404 3.16829,0.5569 6.39274,0.89854 9.61251,0.78154 -0.58031,-1.03894 -1.37589,-1.9328 -2.03576,-2.91558 -0.27143,-0.33696 -0.45395,-0.82367 -0.92662,-0.9079 -3.5146,-0.89854 -7.14621,-1.25422 -10.76845,-1.39929 -2.99045,-0.0983 -5.99027,-0.10296 -8.971364,0.18719 z m 0,0 z m 3.678394,8.94329 c 2.67222,1.37589 5.51761,2.40079 8.39106,3.28062 5.54569,1.61924 11.3394,2.51778 17.12377,2.32123 -0.63179,-1.06234 -1.36186,-2.05917 -2.0264,-3.0981 -0.234,-0.31824 -0.40715,-0.76282 -0.84238,-0.83771 -3.2385,-0.89854 -6.58463,-1.35717 -9.92607,-1.61456 -4.23063,-0.31356 -8.48935,-0.33228 -12.71998,-0.0515 z m 0,0 z m 3.25254,9.196 c 3.38356,1.67541 6.959,2.96707 10.59529,3.9826 5.81711,1.57712 11.85888,2.43356 17.89594,2.24636 -0.70198,-1.31973 -1.55372,-2.55991 -2.30718,-3.84688 -0.21528,-0.31355 -0.36036,-0.75346 -0.78155,-0.82366 -5.06833,-1.43674 -10.3613,-1.85325 -15.60748,-1.95152 -3.26657,-0.005 -6.55185,0.014 -9.79502,0.3931 z"
   id="path6" /><path
   style="fill:#7f0029;fill-opacity:1;fill-rule:evenodd;stroke:none;stroke-width:0.124068"
   d="m 128.40795,131.58907 c 27.98113,0 55.97162,0 83.95274,0 0,19.9083 0,39.82128 0,59.72957 -0.009,0.92662 0.0749,1.87198 -0.16847,2.77987 -0.44928,1.88132 -1.36185,3.72988 -2.90154,4.95134 -0.89386,0.75814 -2.05447,1.04361 -3.10278,1.52564 -25.90325,10.73102 -51.80649,21.46203 -77.71442,32.18368 h -0.0702 c 0.009,-33.72337 0,-67.44673 0.005,-101.1701 z m 0,0 z m 38.84318,10.25367 c -0.009,2.68158 -0.014,5.36316 0,8.04475 -1.87196,0.98746 -3.75796,1.94684 -5.65799,2.88282 -0.009,-2.61607 0.009,-5.23213 -0.009,-7.85287 -1.97492,0.99213 -3.94047,1.99831 -5.90604,2.99981 l -0.0749,0.12636 c 0.014,2.58798 -0.014,5.17597 0.014,7.76395 -1.68944,0.90322 -3.3976,1.78304 -5.12448,2.61139 -0.005,-2.41951 -0.009,-4.82966 0,-7.23513 -2.01705,0.93598 -4.02941,1.89068 -6.03708,2.85474 0.014,20.15165 0,40.29862 0.009,60.45028 3.40698,-1.34314 6.78118,-2.77518 10.16007,-4.19319 -0.014,-4.45995 -0.0796,-8.91522 -0.0515,-13.37515 0.0187,-1.85325 -0.14508,-3.80946 0.66454,-5.53633 0.55691,-1.2589 1.70817,-2.24167 3.06066,-2.54587 1.21677,-0.28547 2.6301,0 3.48653,0.9547 0.72538,0.8143 0.95937,1.94215 0.96405,3.00449 -0.005,4.71267 -0.005,9.42065 0,14.13799 3.50993,-1.41334 6.99178,-2.90623 10.50638,-4.31955 0.0468,-21.27483 0,-42.54966 0.0234,-63.82917 -2.01705,1.0015 -4.02473,2.0264 -6.02773,3.05598 z m 0,0 z m 12.17711,8.08218 c 1.90003,0.99682 3.80943,1.9796 5.73755,2.92495 0,-2.64883 -0.009,-5.29766 0.005,-7.94648 -1.94683,1.63329 -3.82815,3.34614 -5.74223,5.02153 z m 0,0 z m 11.70442,5.92008 c 1.70349,0.92662 3.43037,1.82048 5.16662,2.68158 0.009,-2.41951 0.0187,-4.83902 -0.005,-7.25384 -1.75496,1.48821 -3.43037,3.06533 -5.16193,4.57226 z"
   id="path7" /><path
   style="fill:#75b9c2;fill-opacity:1;fill-rule:evenodd;stroke:none;stroke-width:0.124068"
   d="m 60.46047,141.7585 c 0.528825,-1.00618 0.964056,-2.06384 1.539687,-3.04662 0.285472,1.37122 0.229323,2.85474 -0.416504,4.123 -0.379082,-0.35099 -0.790906,-0.67859 -1.123183,-1.07638 z m 0,0 z m 2.779864,2.61138 c 0.655178,-1.53032 1.450765,-3.00918 2.353993,-4.40378 0.07486,1.91876 -0.28548,3.84688 -1.024901,5.62523 -0.45395,-0.39778 -0.889181,-0.81429 -1.329092,-1.22145 z m 0,0 z m -7.82947,-3.65968 c 0.982775,-0.0796 1.988949,-0.0796 2.953014,0.15912 0.538185,0.39311 0.940658,0.94533 1.399288,1.42269 -0.917259,-0.0608 -1.787721,-0.39779 -2.630105,-0.73007 -0.594342,-0.25271 -1.202731,-0.46799 -1.722197,-0.85174 z m 0,0 z m 13.056922,2.0498 c 0.126352,-0.31355 0.285471,-0.60839 0.467989,-0.88918 0.407144,2.36803 -0.005,4.81562 -0.875142,7.03389 -0.542873,-0.37439 -0.935986,-0.90322 -1.394616,-1.36653 0.439919,-1.65201 1.137215,-3.21041 1.801769,-4.77818 z m 0,0 z m -11.596798,1.39461 c 1.530328,-0.117 3.074695,-0.0608 4.605023,0.0375 0.59435,0.41182 1.029581,1.04362 1.50693,1.58648 -2.129358,0.0234 -4.239997,-0.64582 -6.111953,-1.62392 z m 0,0 z m 15.457712,1.80645 c 0.14508,-0.31356 0.327597,-0.61307 0.519466,-0.89855 0.322918,2.57863 0.08892,5.26489 -0.982775,7.65164 -0.627108,-0.49139 -1.151254,-1.0951 -1.717526,-1.65201 0.580311,-1.75964 1.399296,-3.42568 2.180835,-5.10108 z m 0,0 z m -13.627873,1.96087 c 1.80176,-0.29483 3.650326,-0.30887 5.466126,-0.11232 0.360355,0.0608 0.804937,0.0281 1.04362,0.36503 0.45863,0.51012 0.935978,1.01086 1.34781,1.56309 -2.700309,-0.0515 -5.39593,-0.71135 -7.857556,-1.8158 z m 0,0 z m 17.736821,1.9796 c 0.411842,-0.74411 0.725392,-1.54905 1.240172,-2.237 0.1404,3.18701 -0.56626,6.38339 -1.876631,9.28493 -0.627109,-0.42587 -1.043621,-1.12786 -1.614572,-1.63796 0.514795,-1.89069 1.399296,-3.65033 2.251031,-5.40997 z m 0,0 z m 3.453772,7.91371 c 0.92194,-2.42419 1.88132,-4.83902 3.06533,-7.14621 0.0936,4.03876 -0.80025,8.06347 -2.28847,11.80271 -0.56159,-0.59903 -1.11849,-1.21209 -1.60989,-1.86728 0.11232,-0.96406 0.5382,-1.86728 0.83303,-2.78922 z m 0,0 z m -19.426271,-5.76096 c 2.587988,-0.21059 5.204054,-0.19655 7.773314,0.2106 0.327597,0.0702 0.716031,0.0749 0.940666,0.36035 0.505427,0.55691 0.982775,1.13253 1.474171,1.6988 -3.177657,0.0655 -6.350627,-0.59434 -9.280243,-1.8158 -0.313558,-0.13103 -0.613068,-0.28547 -0.907908,-0.45395 z m 0,0 z m 28.098121,2.53182 c 0.16848,0.38376 0.0889,0.81431 0.0842,1.22146 -0.1404,4.42719 -1.08573,8.81694 -2.69562,12.93056 -0.66454,-0.76282 -1.37121,-1.53032 -1.91408,-2.37738 0.53819,-2.08256 1.35249,-4.09024 2.11999,-6.09791 0.76283,-1.90473 1.55374,-3.80476 2.40547,-5.67673 z m 0,0 z m -25.079582,2.27444 c 3.182329,-0.31356 6.448902,-0.36503 9.593793,0.31823 0.739429,0.73942 1.394616,1.57713 2.045123,2.40547 -4.005994,-0.0655 -8.058794,-0.88918 -11.638916,-2.7237 z m 0,0 z m 29.684602,6.48634 c 0.70668,-1.58648 1.3057,-3.22444 2.1434,-4.74542 0.0187,5.99964 -1.31505,11.96183 -3.49121,17.53559 -0.77686,-0.96406 -1.54904,-1.93747 -2.26975,-2.94365 0.9781,-3.36017 2.26039,-6.62206 3.61756,-9.84652 z m 0,0 z m -27.105974,-1.21677 c 3.795398,-0.3042 7.660992,-0.2574 11.395554,0.53819 0.43991,0.0421 0.65987,0.45395 0.92194,0.75814 0.48671,0.63646 1.0483,1.2121 1.49757,1.88132 -3.706477,0.0375 -7.41296,-0.64115 -10.899488,-1.90472 -0.987463,-0.37907 -1.993637,-0.74878 -2.915576,-1.27293 z m 0,0 z m 36.353464,3.3508 c 0.16848,-0.40246 0.34164,-0.80494 0.55224,-1.18401 0.0421,6.87009 -1.46014,13.69339 -3.93581,20.08614 -0.11232,0.29015 -0.25271,0.57094 -0.40715,0.84238 -0.69262,-1.03894 -1.50693,-1.98896 -2.19487,-3.02322 0.42587,-2.1902 1.20742,-4.30551 1.92812,-6.41614 1.23549,-3.47717 2.61607,-6.90286 4.05747,-10.30515 z m 0,0 z m -33.264729,3.14958 c 4.319543,-0.31824 8.695249,-0.29483 12.963319,0.50075 0.40247,0.11232 0.90323,0.0936 1.22614,0.39311 0.72538,0.9313 1.4414,1.87197 2.17147,2.79858 -3.10277,0.0983 -6.20087,-0.33696 -9.210044,-1.07169 -2.461627,-0.62711 -4.881136,-1.4695 -7.150885,-2.62075 z m 0,0 z m 36.540669,11.8495 c 1.32909,-3.52864 2.66755,-7.05728 4.19319,-10.50637 0.14508,5.48017 -0.73475,10.96032 -2.19955,16.22989 -0.74879,2.66755 -1.66606,5.29297 -2.76582,7.83416 -0.86111,-1.09509 -1.60054,-2.27443 -2.40079,-3.41165 0.78153,-3.46312 1.96555,-6.81393 3.17297,-10.14603 z m 0,0 z m 8.63441,2.81731 c 1.01554,-2.57394 1.95152,-5.18065 3.11682,-7.68907 0.0749,6.76713 -1.06234,13.5015 -2.96238,19.98785 -0.82834,2.82198 -1.82516,5.59716 -2.97642,8.30682 -0.73473,-0.92661 -1.28697,-1.97959 -1.97492,-2.93898 -0.26674,-0.44926 -0.78622,-0.88917 -0.55222,-1.46012 1.33845,-5.53633 3.33676,-10.89013 5.34912,-16.2065 z m 0,0 z m -41.608996,-6.80458 c 3.631599,-0.37907 7.305326,-0.37439 10.946286,-0.0655 1.8392,0.16379 3.67372,0.43991 5.4708,0.88451 0.32759,0.0421 0.49139,0.35097 0.68327,0.5803 0.71134,0.97808 1.48821,1.9094 2.15743,2.91557 -4.07151,0.1404 -8.14302,-0.51011 -12.06478,-1.57712 -2.46631,-0.70667 -4.904538,-1.57245 -7.193006,-2.73775 z m 0,0 z m 2.821973,7.93711 c 2.981103,-0.29015 5.980923,-0.28546 8.966693,-0.19187 3.62224,0.14975 7.25385,0.50543 10.76845,1.40397 0.47267,0.0842 0.65519,0.57094 0.92662,0.9079 0.65987,0.9781 1.45545,1.87664 2.03576,2.91558 -3.21977,0.117 -6.44422,-0.22464 -9.61251,-0.78154 -4.52547,-0.82367 -8.94329,-2.24636 -13.085013,-4.25404 z m 0,0 z m 3.678403,8.94797 c 4.23064,-0.28548 8.48467,-0.26208 12.7153,0.0515 3.34144,0.25739 6.68757,0.71602 9.92607,1.61456 0.43991,0.0749 0.61306,0.51479 0.84705,0.8377 0.66456,1.03895 1.39462,2.03109 2.02641,3.09343 -5.79372,0.20123 -11.58276,-0.702 -17.12845,-2.31656 -2.87345,-0.8845 -5.71416,-1.90472 -8.38638,-3.28061 z m 0,0 z m 3.25254,9.196 c 3.24317,-0.37906 6.52377,-0.40246 9.79034,-0.39778 5.24618,0.10295 10.54383,0.51478 15.61216,1.9562 0.42119,0.0702 0.56627,0.51011 0.78155,0.81898 0.75346,1.29166 1.6052,2.52247 2.30718,3.84688 -6.03706,0.1872 -12.08351,-0.66924 -17.90062,-2.24636 -3.63629,-1.01085 -7.20705,-2.30251 -10.59061,-3.97792 z"
   id="path8" /><path
   style="fill:#bb7f81;fill-opacity:1;fill-rule:evenodd;stroke:none;stroke-width:0.124068"
   d="m 167.24645,141.84274 c 2.00769,-1.0249 4.01535,-2.0498 6.0324,-3.0513 -0.0234,21.27483 0.0234,42.55434 -0.0234,63.83384 -3.51461,1.41334 -6.99646,2.90623 -10.51106,4.31487 -0.005,-4.71265 0,-9.42532 0,-14.13797 -0.005,-1.06234 -0.234,-2.19488 -0.95938,-3.0045 -0.8611,-0.95469 -2.27443,-1.24017 -3.4912,-0.95469 -1.34782,0.30419 -2.50375,1.28697 -3.06066,2.54586 -0.80962,1.72687 -0.64114,3.68307 -0.65987,5.541 -0.0281,4.45527 0.0328,8.91053 0.0468,13.37048 -3.37421,1.418 -6.7531,2.85006 -10.16007,4.18851 -0.005,-20.15166 0.009,-40.29863 -0.005,-60.45028 2.003,-0.95938 4.01536,-1.91408 6.03707,-2.85006 -0.014,2.40547 -0.009,4.81562 -0.005,7.23045 1.73157,-0.82835 3.43505,-1.70349 5.1245,-2.60671 -0.0234,-2.58798 0,-5.17597 -0.014,-7.76395 l 0.0749,-0.12636 c 1.97024,-1.0015 3.9358,-2.01236 5.91071,-2.99981 0.014,2.62074 -0.005,5.2368 0.009,7.85286 1.89536,-0.94065 3.78136,-1.89535 5.658,-2.88281 -0.014,-2.68159 -0.009,-5.36317 -0.005,-8.04943 z m 0,0 z m 12.18179,8.08218 c 1.90939,-1.67072 3.7954,-3.38356 5.73755,-5.01685 -0.014,2.64882 -0.005,5.29765 -0.005,7.94647 -1.92344,-0.95002 -3.83285,-1.92811 -5.73288,-2.92962 z m 0,0 z m 11.70442,5.92476 c 1.73157,-1.50693 3.40698,-3.08405 5.15725,-4.57227 0.0281,2.41483 0.0187,4.83434 0.005,7.25385 -1.73623,-0.87046 -3.46312,-1.75496 -5.16192,-2.68158 z"
   id="path9" /></svg>
