<?xml version="1.0" encoding="utf-8"?>
<!-- Generator: Adobe Illustrator 26.5.0, SVG Export Plug-In . SVG Version: 6.00 Build 0)  -->
<svg version="1.1" id="affiliation" xmlns="http://www.w3.org/2000/svg" xmlns:xlink="http://www.w3.org/1999/xlink" x="0px"
	 y="0px" viewBox="0 0 256 256" style="enable-background:new 0 0 256 256;" xml:space="preserve">
<style type="text/css">
	.st0{fill:#FFFFFF;}
	.st1{fill:#BF2F38;}
</style>
<rect id="black" width="256" height="256"/>
<circle id="background" class="st0" cx="128" cy="128" r="128"/>
<g id="logo">
	<g>
		<path id="path3124" class="st1" d="M154.4,119.5c-0.1-5.5-1.9-16.7-15.1-23.1c13.4,4.3,19.8,15.5,20.4,24
			c14.1,2.8,26.5,9.4,46.7,2.4h0.1c0,0-26.6,0.2-37.7-7.8c5.7,0.2,12.3-1.1,14.5-4.3c2.3-3.5,2.5-7,8.3-7.2
			c3.2-0.1,14.1,0.7,15.2-15.2c-3.5,5.8-7.2,8.3-12.8,6.8c-3.6-0.9-10.2-3.7-15,1.9c-3.9,4.7-8.1,7-14.8,6.3
			c2.7-3.6,42.5-55.4,42.5-55.4s-51,41-53.8,43.3c-0.5-7.4,1.7-10.2,4.7-13.5c2.4-2.7,6.7-6.3,3.4-14c-2.8-6.2-2.3-10,5.1-15.9
			c-5.9,0.4-15.1,4.5-14,15.4c0.6,6.6-4.1,7.1-5.7,8.2c-4.5,2.4-5,9.6-5.2,15.2c-0.5-1.8-6.9-29.6-9.3-38.5V123h0.1
			C140.5,119.3,147.7,118.8,154.4,119.5"/>
		<path id="path3176" class="st1" d="M104.2,88.4c-0.6-3.1-0.3-9.3,2.8-15.3c-11.2,8.5-11.3,15.3-11.3,15.3S97.8,86.8,104.2,88.4z
			 M99,69.9c0,0-13.6,1.9-17.4,2.3c-2.7,1.6-5.8,6-5.8,6s-3.2,0.5-9.6,1.6c-4.4,2.9-7,9.6-1.6,15.1c-1.7-0.4-1.7-0.4-4.3-0.8
			c-5.4,3.5-2.9,9.9,8.4,7.6c-3.2-0.1-4.8-1.6-4.7-3.7c-0.1-2.2,4.2-5,9.5-3.6c-5-9.4,0.5-13.2,0.5-13.2s-3,7.8,3.5,14.2
			c0.6-0.9,2.4-3.6,7.9-3.7c5.4-0.1,8.8,2.5,8.8,5.6c0.1,2.7-3.4,5.5-7.8,5.5l-0.1-6.4c0,0-1.4,0.5-1.8,1.1v5.4
			c-1.7,0-5.3-0.7-7.1-3.7c-1.4-0.1-9.5-1.3-9.5-1.3l0.4,2.1c0,0,2.9,0.5,3.4,3.3c0.6,3.4,2.7,6.5,4.3,7.9c3.4-0.4,8.9-4.6,19.2-4.5
			c-9.4,1.3-19,11.3-32.6,7.5c21.8,7.4,24.1-9.1,51.4-3.9c-4.3-2.5-10.6-3.4-10.6-3.4s3.4-3.7,3.6-9.3c0.4,0,1-0.1,2.1-0.2
			c0.4-1.8,0.6-3.7,0.6-3.7H98.5C86.4,81.6,99,69.9,99,69.9L99,69.9z M68.6,69.7c3.5,0.2,7.6-1.9,7.9-2.1c0,0-1.4,3.7,1.8,3.5
			c3.6-0.2,7.5-2,8.2-2.3V64c-0.3,0.2-3.8,2.7-7.6,3.6c-1.4,0.3-0.9-0.9-0.8-1.6c0.1-0.7,0.2-1.3-2.3-0.2c-10.4,4.3-11,1.3-11,1
			C64.3,67.2,64.5,69.5,68.6,69.7L68.6,69.7z M123.9,48v74.7c-30.1-11.8-42.6,11.1-74.6,0V48h15.2v8.1h8.8V48h8.6v8.1h8.7V48h8.7
			v8.1h9.4V48H123.9"/>
		<path id="path3180" class="st1" d="M152.7,149.7c0,0-0.3-0.2,0.3-0.7c0.1-0.1,0.2,0.1,0.6,0.1c0.5,0,0.8-0.2,1.2-0.7
			c0.7-0.8-0.7-1.1-1.2-0.7c-0.5,0.4-0.8,0.8-1.2,1.2C152.4,148.9,151.7,149.5,152.7,149.7L152.7,149.7z M178.4,187.4
			c-1.2,1-4.9,2.9-5.8,3.3c-0.9,0.4-1.2,0.7-1.9,2c-0.8,1.6-1.6,4.6-1.4,4.8c2.2-0.4,3.9-2.2,3.9-2.2s0-0.5-0.5-1.2
			c-0.4-0.6,0.4-1.3,0.9-0.9c0.4,0.3,0.9,0.4,1.2,0.1c0.3-0.3,7.4-4.8,7.8-5.3c-1.4-1.4-2.5-2.9-2.5-2.9S179.6,186.5,178.4,187.4
			L178.4,187.4z M150.6,167.6c-3.1-1.2-3.7-2-4.3-2.2c-0.5-0.2-2.5,0.7-3,1.5c-0.9,2.4-3.1,6.3-3.4,6.9c-0.2,0.3-0.3,0.6-0.3,1
			c0,0.4,0.2,1.9,0.1,2.3c0,0.4,0,0.8,0.2,1.2c0.1,0.4,0.3,1.9,1.1,3.5c1.7-1.7,2-4.4,1.9-3.9c0,0,0.6-0.9-0.8-1.4
			c-0.4-0.1-0.3-1.1,0.1-1.3c0.5-0.2,0.8-0.3,1-1.2c0.2-0.9,1.2-4.3,1.5-5c0-0.1,0.1-0.3,0.3-0.3c0.3-0.1,0.6-0.2,0.8-0.3
			c0.1,0,0.4,0.1,0.5,0.2c0.5,0.5,3,2.5,3,2.5s1.1-0.1,1.8-0.4C150.9,170.2,150.7,168.4,150.6,167.6z M147.6,153.4
			c0,0-1,1.3,0.1,1.6c0,0.4,0.2,1.1,0.3,1.5c0.2,0.5,0.5,0.3,0.9-0.1c0.4-0.4,1-1.2,1.4-1.7c0.4-0.4,1.8-0.3,1.2,0.6
			c-0.4,0.6-0.7,0.7-1.1,0.8c-0.4,0.1-0.5-0.2-0.9,0.3c-0.4,0.6-0.9,1-0.1,1c0.4,0,1.2,0.4,1.7,0.3c0.5-0.1,0.5-0.4,0.6-0.8
			c0.1-0.4,0-0.7,0.5-1c0.6-0.4,1.6-1.2,1.9-1.5c0.3-0.3,0.7-0.3,1.2-0.3c0.4,0,2.5,0.2,3.8-1.6c0.9-1.3,1-3.2,0.6-4.7
			c0.6,0.6,1.4,2.4,1,4.2c-0.7,3.2-2.2,3.3-3.9,3.7c-0.6,0.9-2.3,3.3-3.2,7.5c-0.4,0.2-3.6,3.3-0.9,8.3c-0.7,0.2-2.7,1.1-3.9,1.3
			c-0.8,0.2-1.4,0.2-1.7,0.6c-0.4,0.4-1.2,1.8-0.7,2.5c0.3,0.5,2.2,4.9,2.4,6.2c0.2,1.3,0.6,1.6,1.1,2.1s0.9,0.5,1.6,1
			c0.8,0.6,1.4,1.6,2.1,2.1c0.7,0.6,1.6,0.9,2.2,0.8c-0.1-2.2-0.6-4.4-1.3-5.1c-0.7-0.7-1.6,0.3-1.8,0.4c-0.2,0.1-0.5-0.2-0.6-0.7
			c-0.1-0.6,0.4-1.1-0.1-1.9c-1-1.5-1.9-3.2-2-3.5c-0.7-1.4,0.5-1.7,0.8-1.6c0.7,0.2,4.9,0.7,5.6,0.8c0.6,0.1,1,0.2,1.3-0.2
			c0.9-1,1.4-1.7,1.9-2.8c0.9,0.7,0.3,2,0,3.7c0.3,0.2,6.4,3.4,14.8,1.1c3.5-0.9,3.2-0.2,3.5,0.4c2,4,3.5,5.5,5.9,7.4
			c0.7,0.6,1.2,1.5,1.5,2c0.3,0.5,0.4,1.5,0.1,2.1c-0.3,0.8-2.2,4.2-2.5,4.6c-0.6,0.9-1.4,1.6-2.1,2c-2.1,1.1-2.7,2.1-2.9,3h5.5
			c0,0,0.1-0.3,0.1-0.9c-0.1-0.9,0.8-1.1,1-1.2c0.3-0.1,0.7,0.2,1.2-0.8c0.8-1.9,4-7.3,4.3-7.9s1.2-1.8,0.3-2.3
			c-1.8-1.1-3-2.9-3.3-4.9c-0.1-0.8-0.1-2.1,1.7-4.3c3.9-4.8,1-14.6-7.5-14.4c-4.8,0.1-7.5-0.3-10.7-0.9c-1.1-0.2-1.3-0.8-1.1-1.5
			c0.2-0.7,0.5-2.1,0.5-2.8c-0.8-0.7-2.1-1.2-2.8-1.4c-0.6-0.2-1-0.7-0.3-0.8c0.7,0,3.2,0.2,3.2,0.2s0.1-1.3-0.3-3.4
			c-1.1-0.5-2.4-0.9-3.9-1c-0.4,0-0.7-0.5,0.2-0.6c1.2-0.2,2.4,0,3.4,0c0.1-0.1-0.4-2.7-1.3-3.7c-0.6-0.2-0.9-0.3-3.2-0.5
			c-0.7-0.1-0.8-0.3-0.3-0.5c0.6-0.2,1.5-0.4,2.8-0.3c-0.5-0.6-3.6-6.4-10.1-4.7c0.7,0.9,1.1,1.3,1.3,1.9c0.2,0.5-0.4,0.7-0.9,0.2
			c-2-2.1-3.2-2.1-4.5-2.3c0.9,0.8,1.2,1.6,1.5,2.5c-1.5,1-3.6,3.6-3.9,4.1c-0.6,0.9,0.2,1.4,0.2,1.4L147.6,153.4L147.6,153.4z
			 M189.7,138.9c-6.6,2.3-5.7,9.5-3.9,12.2c2.3,3.6,4.3,3.7,5.8,8c1.1,3.3-0.9,5-3,5.8c3.6,2.1,7.1-0.1,8.5-2.2
			c2.3-3.2-0.3-7.3,2.2-9.5c0.7-0.6,1.8-1,3.4-1c-1.5-2.2-5.2-1.9-6.6,0.1c-1-2.3-3.9-4.5-2.9-8.2c0.7-2.4,4.5-3.4,5.9-1.3
			c0.8,1.1,0.9,3.3-1.4,4.3c1.4-0.1,4.2-2.7,2.3-6c-1.3-2.3-3.6-2.5-5.3-2.5c-3.3,0-8.8,3.8-5.3,11.8
			C187.5,148.6,184.2,142.3,189.7,138.9L189.7,138.9z M206.3,130.4v74.9c-41.4,10.1-42.6-11.9-74.6,0v-74.9
			C161.1,118.1,172.7,141.5,206.3,130.4"/>
		<path id="path3184" class="st1" d="M76.4,173.1c0,0-1.3,0.8,0.3,4.5c1.6,3.6,3.7,6.9,0.1,10.9c2,0,6.4-2.7,1.7-10.5
			C77.5,176.2,76.4,174.9,76.4,173.1L76.4,173.1z M72,174.9c1.1-0.1,1.2-1.4,1-2.1c-0.2-0.8-1.6-0.9-1.9,0.1s0,2,0,2
			c0.3,1,1.4,1.3,1.5,1.2C71.9,175.6,72.1,175.2,72,174.9z M73,179.7c-0.3,3.2-2,3.7-2,3.7c-3.2-1.4-4.9,2.5-2.2,3.7
			c3.4,1.5,5.4-2.9,5.6-3.7c0.6-2.2,0.6-3.9,0.4-7.6c-0.2-3.2,0.6-3.7,1.1-3.8c0.5-0.1,1.6-0.1,2.7,3.2c1.1,3.3,3.5,3.8,3.5,3.8
			s-3.4-5.5,1.3-10.6c2.2-2.3,6.6-3.7,5.8-7c0,0-0.7,1.2-2,1.5c-1.3,0.3-4,0.7-4,0.7s6.2-3,7.3-6.3c0,0,1.9,3.3-0.6,8.1
			c0,0,2.4-0.9,5.2,0.3c6.8,3.1,6.1,12.7-2.5,15.1c-12.2,3.3-7.9,12.7-0.8,13.4c-0.7-0.5-0.9-3.4,0.3-5c0.6-0.5,1.7-1.6,2.4,0.7
			c1.2,4.1,4.8,4.5,6.5,4c-0.4-0.4-1.2-1.6-1.1-2.3c0.2-1.4,2,0.1,2.7,0.2c4.8,1.3,7.4,0.2,7.6-0.5c-1.1-0.2-0.9-0.1-1.5-0.3
			s-1.8-1,0.4-1.5c4.3-1,6.6-5.4,3.8-8.8c-2.7-3.3-6-2.8-7.1-2.3c4.6,1,4.9,4.7,2.5,6.6c-2,1.5-7.1,2.1-8.9-1.2
			c-1.1,0.8-1.5,2-1.3,3.7c-0.5-0.2-2.4-3,0.5-5.2c13.4-8.6,11.2-23-0.1-29.1l-0.1-0.1c-10.3-5.9-19.3-0.5-19.3-0.5
			c6.3-6.3,17.3-2.5,18.9-1.8c0,0-1.2-1.1-1.9-2.1c-0.9-1.3-0.8-2.5-0.8-2.5c-4.4,2.4-5.5-1.3-5.5-1.3s-3.8,3.4-6.2,0.6
			c-2.1-2.4,1.3-5.7,1.3-5.7c-22,7.2-17.8,19.7-17.8,19.7s-3.2,3-3.9,10c-0.8,8.1,3.2,13.8,8.2,12.1C72.2,180.8,72.8,180.3,73,179.7
			L73,179.7z M123.9,130.4v74.9c-32-11.9-33.2,10.1-74.6,0v-74.9C82.9,141.5,94.4,118.1,123.9,130.4"/>
	</g>
</g>
</svg>
