<?xml version="1.0" encoding="utf-8"?>
<!-- Generator: Adobe Illustrator 26.5.0, SVG Export Plug-In . SVG Version: 6.00 Build 0)  -->
<svg version="1.1" id="affiliation" xmlns="http://www.w3.org/2000/svg" xmlns:xlink="http://www.w3.org/1999/xlink" x="0px"
	 y="0px" viewBox="0 0 256 256" style="enable-background:new 0 0 256 256;" xml:space="preserve">
<style type="text/css">
	.st0{fill:#FFFFFF;}
	.st1{clip-path:url(#SVGID_00000130644370839324756660000011374205268516409775_);}
	.st2{clip-path:url(#SVGID_00000167394015221203118780000001551654199753930151_);}
</style>
<rect id="black" width="256" height="256"/>
<circle id="background" class="st0" cx="128" cy="128" r="128"/>
<g id="logo">
	<g>
		<g>
			<g>
				<defs>
					<path id="SVGID_1_" d="M29.3,129.2v14h14.2v39.1h16v-39.1h14.1v-14L29.3,129.2L29.3,129.2z M77.2,129.2v53.1h40.1v-14H93.2
						v-5.8h23.5v-14H93.2v-5.3h24.1v-14L77.2,129.2L77.2,129.2z M210.7,129.2V148h-18.9v-18.8h-16v53.1h16V162h18.9v20.3h16v-53.1
						L210.7,129.2L210.7,129.2z M120,155.8c0,16.3,12.5,27.5,29,27.5c13.9,0,20.9-8.4,24-15.5l-13.8-6.4c-1.3,4.1-5.5,7.7-10.2,7.7
						c-7.7,0-12.8-5.9-12.8-13.3c0-7.4,5.1-13.3,12.8-13.3c4.8,0,8.9,3.6,10.2,7.7l13.8-6.5c-3.2-7.3-10.1-15.5-24-15.5
						C132.5,128.3,120,139.4,120,155.8 M29.3,72.7v14h14.2v39.1h16V86.7h14.1v-14H29.3z M93.9,88.5l5.2,17.1H88.7L93.9,88.5z
						 M83.9,72.7l-19.5,53.1h18.1l1.9-6.2h19l1.9,6.2h18.1L104,72.7H83.9z M126.3,72.7v53.1h36v-14h-20V72.7H126.3z"/>
				</defs>
				<clipPath id="SVGID_00000145772791759038218140000007108533594517309594_">
					<use xlink:href="#SVGID_1_"  style="overflow:visible;"/>
				</clipPath>
				<g style="clip-path:url(#SVGID_00000145772791759038218140000007108533594517309594_);">
					<g>
						<g>
							<defs>
								
									<rect id="SVGID_00000158736380981937698600000005285102120821351328_" x="-107.9" y="-149.7" transform="matrix(0.9951 -9.934140e-02 9.934140e-02 0.9951 -6.0304 20.6022)" width="623.5" height="441.1"/>
							</defs>
							<clipPath id="SVGID_00000039840667148970401360000005717573905404403591_">
								<use xlink:href="#SVGID_00000158736380981937698600000005285102120821351328_"  style="overflow:visible;"/>
							</clipPath>
							
								<g transform="matrix(1 7.450581e-09 7.450581e-09 1 0 -7.629395e-06)" style="clip-path:url(#SVGID_00000039840667148970401360000005717573905404403591_);">
								
									<image style="overflow:visible;enable-background:new    ;" width="470" height="285" xlink:href="341E8CC509521128.jpg"  transform="matrix(0.4581 0 0 0.4581 19.6982 61.7668)">
								</image>
							</g>
						</g>
					</g>
				</g>
			</g>
		</g>
	</g>
</g>
</svg>
