<?xml version="1.0" encoding="utf-8"?>
<!-- Generator: Adobe Illustrator 26.3.1, SVG Export Plug-In . SVG Version: 6.00 Build 0)  -->
<svg version="1.1" id="affiliation" xmlns="http://www.w3.org/2000/svg" xmlns:xlink="http://www.w3.org/1999/xlink" x="0px"
	 y="0px" viewBox="0 0 256 256" style="enable-background:new 0 0 256 256;" xml:space="preserve">
<style type="text/css">
	.st0{fill:#FFFFFF;}
	.st1{display:none;fill:#FFFFFF;}
	.st2{fill:#914A0F;}
</style>
<rect id="black" width="256" height="256"/>
<circle id="background_x5F_circle" class="st0" cx="128" cy="128" r="128"/>
<path id="background_x5F_rectangle" class="st1" d="M206.9,256H49.1C22.1,256,0,233.9,0,206.9V49.1C0,22.1,22.1,0,49.1,0H207
	c27,0,49.1,22.1,49.1,49.1V207C256,233.9,233.9,256,206.9,256z"/>
<g id="logo">
	<g>
		<path class="st2" d="M110.1,193.6v8.8c0,0.4,2,1.2,2,1.2h-6.3c0,0,1.9-0.8,1.9-1.1V195l-2,0.3l0-0.4L110.1,193.6z"/>
		<path class="st2" d="M150.3,193.8c-2.8,0.6-4.3,2.4-4.7,4.3c0.7-0.4,1.3-0.5,2.1-0.5c2.1,0,3.4,1.2,3.4,2.9c0,1.9-1.6,3.3-4,3.3
			c-2.6,0-4.3-1.6-4.3-4.1c0-3,3-6.1,7.5-6.1L150.3,193.8z M147.1,198.3c-0.7,0-1.2,0.3-1.6,0.5c0,0.2-0.1,0.7-0.1,1.5
			c0,1.1,0.1,2.9,1.7,2.9c1.5,0,1.5-1.4,1.5-2.5C148.6,199.7,148.5,198.3,147.1,198.3"/>
		<path class="st2" d="M137.1,193.8c-2.8,0.6-4.3,2.4-4.7,4.3c0.7-0.4,1.3-0.5,2.1-0.5c2.1,0,3.4,1.2,3.4,2.9c0,1.9-1.6,3.3-4,3.3
			c-2.6,0-4.3-1.6-4.3-4.1c0-3,3-6.1,7.5-6.1L137.1,193.8z M133.9,198.3c-0.7,0-1.2,0.3-1.6,0.5c0,0.2-0.1,0.7-0.1,1.5
			c0,1.1,0.1,2.9,1.7,2.9c1.5,0,1.5-1.4,1.5-2.5C135.4,199.7,135.3,198.3,133.9,198.3"/>
		<path class="st2" d="M123.8,193.8c-2.8,0.6-4.3,2.4-4.7,4.3c0.7-0.4,1.3-0.5,2.1-0.5c2.1,0,3.4,1.2,3.4,2.9c0,1.9-1.6,3.3-4,3.3
			c-2.6,0-4.3-1.6-4.3-4.1c0-3,3-6.1,7.5-6.1L123.8,193.8z M120.6,198.3c-0.7,0-1.2,0.3-1.6,0.5c0,0.2-0.1,0.7-0.1,1.5
			c0,1.1,0.1,2.9,1.7,2.9c1.5,0,1.5-1.4,1.5-2.5C122.1,199.7,122,198.3,120.6,198.3"/>
		<path class="st2" d="M37.2,109.8c0.9,0.3,2.3,1,3.1,1.6c-0.1,0.3-0.2,0.6-0.3,1c-0.1,0.9,0,1.8-0.2,3.2c-0.6,3.7-3.6,6.2-6.9,5.6
			c-3.3-0.5-5.4-4-4.8-7.9c0.3-1.9,1.3-3,1.3-3.4c0-0.1,0-0.8,0-0.8l3.2,0.4c0,0-3.2,2.1-3.5,3.8c-0.4,2.6,1.2,4.7,4.1,5.2
			c2.9,0.5,5.5-1.1,5.9-3.7C39.4,113.1,37.2,109.8,37.2,109.8"/>
		<path class="st2" d="M67,62.5l-6.8,7.1c0,0,0.5-2.1-0.2-2.7l-5.3-5.1C54,61,52,61.7,52,61.7l4.3-4.5c0,0-0.5,2.1,0.1,2.7l5.4,5.2
			c0.5,0.5,0.7,0.4,1.2-0.1l1.6-1.7c0.9-0.9,0.9-4.1,0.9-4.1L67,62.5z"/>
		<path class="st2" d="M61.5,52.2l4.5-3.7c0,0-0.6,2,0,2.7l4.6,5.6c0.6,0.7,2.6,0.5,2.6,0.5l-4.5,3.7c0,0,0.5-1.9,0-2.5L64,52.9
			C63.4,52.1,61.5,52.2,61.5,52.2"/>
		<path class="st2" d="M76.7,52.2c0.6,1,2.7,0.9,2.7,0.9l-3.8,2.3c0,0,0.7-1.7,0.3-2.4l-4.4-7.2c-0.5,0-1.8-0.2-1.8-0.2l3.2-2
			l10.5,2.8l-2.9-4.7c-0.7-1.1-2.8-0.9-2.8-0.9l4-2.5c0,0-0.9,1.7-0.6,2.3l5.1,8.4l-0.9,0.5l-12.3-3.2L76.7,52.2z"/>
		<path class="st2" d="M143.4,36.7c0,0,1.8,3.2,3.2,3.5c1.2,0.3,2.2-0.3,2.5-1.3c0.6-2.7-5.2-3.8-4.5-7.4c0.4-1.7,2.1-2.6,4.3-2.2
			c1.4,0.3,2.4,1,2.6,1c0.1,0,0.2,0,0.4-0.1l0.4,0.1l-0.3,3c0,0-1.8-2.9-3.1-3.2c-1-0.2-1.9,0.2-2,0.9c-0.3,1.7,2.6,2.6,4.1,5
			c0.6,0.9,0.7,1.7,0.5,2.6c-0.4,1.9-2.4,3-4.5,2.5c-1.4-0.3-2.6-1.2-2.9-1.2c-0.2,0-0.3,0-0.4,0.2l-0.5-0.1L143.4,36.7z"/>
		<path class="st2" d="M158.1,32.1l5.5,1.9c0,0-2,0.5-2.3,1.4l-2.3,6.9c-0.3,0.9,1,2.5,1,2.5l-5.5-1.9c0,0,1.9-0.6,2.1-1.4l2.3-7
			C159.3,33.7,158.1,32.1,158.1,32.1"/>
		<path class="st2" d="M174.9,47.7l-1.2,2.4c-1.5-0.1-3.4-0.4-4.8-1.1c-4.1-2.1-5-5.4-3.4-8.5c1.5-3,5.1-4,8.6-2.2
			c1.7,0.9,2.7,2.1,3.3,2.4c0.2,0.1,0.4,0.1,0.6,0l0.4,0.2l-1.5,3l-0.7-0.3c0.4-1.9-0.3-3.5-2-4.4c-2.3-1.2-4.9-0.1-6.2,2.5
			c-1.4,2.7-0.7,5.5,1.6,6.7c0.6,0.3,1.4,0.5,2,0.5l1.1-2.3c0.4-0.8-1.2-2.7-1.2-2.7l5.4,2.7C176.9,46.7,175.3,47,174.9,47.7"/>
		<path class="st2" d="M183.4,44.1l4.8,3.3c0,0-2,0-2.6,0.7l-4.1,6c-0.5,0.7,0.2,2.7,0.2,2.7l-4.8-3.3c0,0,2-0.1,2.4-0.7l4.2-6
			C184,45.9,183.4,44.1,183.4,44.1"/>
		<path class="st2" d="M200.5,76l-6.2-7.6c0,0,2,0.7,2.7,0.1l5.7-4.6c0.8-0.7,0.5-2.7,0.5-2.7l3.9,4.8c0,0-2.1-0.8-2.7-0.2l-5.9,4.7
			c-0.5,0.4-0.5,0.7-0.1,1.2l1.5,1.8c0.8,1,3.9,1.4,3.9,1.4L200.5,76z"/>
		<path class="st2" d="M192.3,66.1l-7.2-6.7c0,0,2.1,0.4,2.7-0.3l5-5.4c0.7-0.8,0.1-2.7,0.1-2.7l4.6,4.2c0,0-2.2-0.4-2.7,0.2
			l-5.1,5.6c-0.5,0.5-0.4,0.8,0.1,1.2l1.7,1.6c0.9,0.8,4.1,0.8,4.1,0.8L192.3,66.1z"/>
		<path class="st2" d="M210.1,73.7c0.8-1.2,0.9-2.9,0.9-2.9l3.3,5.5c0,0-2.1-1.2-2.8-0.2l-3.6,5.4l6.9-0.6c0.7-0.1,0.8-2.5,0.8-2.5
			l2.4,4c0,0-1.9-0.8-3.4-0.5l-10.7,0.9L210.1,73.7z"/>
		<path class="st2" d="M218,88.6L218,88.6l-6.3,1.8c-1.2,0.3-1.9,2.3-1.9,2.3l-1.4-3.8c0,0,1.6,1,3,0.6l6.4-1.9
			c0.9-0.3,1.6-1.9,1.6-1.9l1.3,3.6l-6,6l8.4,0.6l1.3,3.7c0,0-1.2-1.1-2.4-0.5l-6.2,2.7c-1.4,0.6-1.8,2.4-1.8,2.4l-1.9-5.4
			c0,0,1.3,1.4,2.4,1c0.3-0.1,0.5-0.2,0.8-0.3l6-2.6l0,0L211,96l-0.1-0.4L218,88.6z"/>
		<path class="st2" d="M219.1,129.5c-1.1,0-2.3,1.7-2.3,1.7l0.2-4.4c0,0,1.1,1.5,1.8,1.6l8.4,0.3c0.3-0.4,1.2-1.4,1.2-1.4l-0.2,3.8
			l-8.1,7.2l5.5,0.2c1.3,0.1,2.4-1.8,2.4-1.8l-0.2,4.7c0,0-0.9-1.7-1.6-1.8l-9.8-0.4l0-1l9.5-8.4L219.1,129.5z"/>
		<path class="st2" d="M227,145.1l-1.1,5.7c0,0-0.8-1.9-1.7-2.1l-7.1-1.4c-0.9-0.2-2.3,1.3-2.3,1.3l1.1-5.7c0,0,0.8,1.8,1.6,2
			l7.2,1.4C225.6,146.4,227,145.1,227,145.1"/>
		<path class="st2" d="M215.2,176l1.8-3.6l-3.7-1.9l-1.4,2.6c-0.5,0.9,0.2,2.5,0.2,2.5L209,174c0,0,1.6-0.3,2.3-1.5l1.2-2.4
			l-2.9-1.5c-0.7-0.4-0.9-0.3-1.2,0.2l-1.4,2.7c-0.5,1.1,0.4,3.3,0.4,3.3l-2.5-1.5l5-9.8c0,0,0,2.5,0.8,2.9l6.5,3.3
			c0.9,0.5,2.6-0.6,2.6-0.6l-4.6,9l-2.5-1C212.8,177,214.8,176.7,215.2,176"/>
		<path class="st2" d="M196.3,190.5c0,0-3.6-0.2-4.7,0.8c-0.9,0.9-0.9,2.1-0.2,2.8c1.9,1.9,6-2.3,8.6,0.2c1.3,1.2,1,3.2-0.5,4.7
			c-1,1-2.1,1.5-2.3,1.6c-0.1,0.1-0.4,0.7-0.4,0.7l-2.4-1.8c0,0,3.4,0.1,4.4-0.9c0.7-0.7,0.9-1.7,0.4-2.2c-1.2-1.2-3.6,0.8-6.5,0.8
			c-1.1,0-1.8-0.3-2.5-1c-1.4-1.3-1.2-3.6,0.3-5.2c1-1,2.4-1.6,2.6-1.8c0.1-0.1,0.1-0.3,0.1-0.5l0.3-0.3L196.3,190.5z"/>
		<path class="st2" d="M192.4,205.2l-4.6,3.6c0,0,0.6-1.9,0.1-2.7l-4.5-5.7c-0.6-0.7-2.6-0.6-2.6-0.6l4.6-3.6c0,0-0.5,1.9,0,2.5
			l4.5,5.8C190.5,205.2,192.4,205.2,192.4,205.2"/>
		<path class="st2" d="M142.2,227.7l-5.8,0.6c0,0,1.6-1.3,1.5-2.3l-0.7-7.2c-0.1-0.9-1.9-1.9-1.9-1.9l5.8-0.6c0,0-1.5,1.3-1.4,2.1
			l0.8,7.3C140.5,226.7,142.2,227.7,142.2,227.7"/>
		<path class="st2" d="M130.7,220.4c0,0-2.4-2.8-3.8-2.8c-1.2,0-2.1,0.7-2.2,1.8c0,2.7,5.9,2.7,5.8,6.3c0,1.8-1.6,3-3.8,2.9
			c-1.4,0-2.5-0.5-2.8-0.5c-0.1,0-0.8,0.2-0.8,0.2l-0.3-3c0,0,2.3,2.5,3.7,2.5c1,0,1.8-0.5,1.8-1.2c0-1.7-3-2-5-4.1
			c-0.7-0.8-1-1.6-1-2.4c0-1.9,1.8-3.4,4-3.4c1.5,0,2.8,0.6,3.1,0.6c0.2,0,0.9-0.3,0.9-0.3L130.7,220.4z"/>
		<path class="st2" d="M98.8,216.3l0.7-2.6c1.4-0.2,3.4-0.3,4.9,0.1c4.5,1.2,6,4.3,5,7.7c-0.9,3.2-4.2,4.9-8,3.9
			c-1.8-0.5-3.1-1.5-3.7-1.7c-0.3-0.1-1,0-1,0l0.9-3.2c0,0,1.7,3.6,3.6,4.1c2.5,0.7,4.8-0.8,5.6-3.7c0.8-2.9-0.4-5.6-2.9-6.2
			c-0.7-0.2-1.5-0.2-2-0.1l-0.7,2.4c-0.4,1.6,1.7,2.4,1.7,2.4l-5.9-1.6C97.1,217.7,98.6,217.1,98.8,216.3"/>
		<path class="st2" d="M62.7,192.1l-2.3,2.4l4.4,4.2l2.3-2.4c0.7-0.7,0.2-2.7,0.2-2.7l4.3,4.1c0,0-2-0.3-2.6,0.3l-5,5.3
			c-0.6,0.7-0.2,2.6-0.2,2.6l-4.3-4.1c0,0,1.9,0.4,2.6-0.3l2-2.1l-4.4-4.2l-1.9,2c-0.7,0.7-0.3,2.7-0.3,2.7l-4.2-4.1
			c0,0,2,0.4,2.7-0.3l5-5.3c0.7-0.7,0.2-2.7,0.2-2.7l4.2,4.1C65.3,191.6,63.4,191.3,62.7,192.1"/>
		<path class="st2" d="M31.2,146.6L31.2,146.6l6.5-0.4c1.2-0.1,2.3-1.8,2.3-1.8l0.5,4c0,0-1.3-1.3-2.8-1.2l-6.6,0.5
			c-0.9,0.1-1.9,1.5-1.9,1.5l-0.5-3.8l7.2-4.6l-8.1-2.4l-0.5-3.9c0,0,1,1.3,2.3,1l6.6-1.3c1.5-0.3,2.3-1.9,2.3-1.9l0.8,5.7
			c0,0-0.9-1.6-2.1-1.5c-0.3,0-0.6,0.1-0.8,0.1l-6.4,1.3l0,0l9.7,2.9l0.1,0.4L31.2,146.6z"/>
		<path class="st2" d="M225.3,113.8c1.3-0.7,2.1-2.2,2.1-2.2l0.6,6.3c0,0-1.4-2-2.4-1.4l-5,2.9l6,2.7c0.6,0.2,1.6-1.7,1.6-1.7
			l0.4,4.6c0,0-1.3-1.5-2.8-2l-9.4-4.1L225.3,113.8z"/>
		<path class="st2" d="M222.4,155.1c1.4-0.2,2.8-1.3,2.8-1.3l-1.9,6.1c0,0-0.6-2.4-1.7-2.2l-5.7,0.8l4.5,4.8c0.5,0.4,2.1-1,2.1-1
			l-1.4,4.5c0,0-0.7-1.9-1.9-2.9l-7.1-7.4L222.4,155.1z"/>
		<path class="st2" d="M35.4,162.4c-1.1,1-1.5,2.7-1.5,2.7l-2.1-6c0,0,1.8,1.6,2.7,0.7l4.2-4l-6.5-1.2c-0.7,0-1.2,2.1-1.2,2.1
			l-1.5-4.4c0,0,1.7,1.1,3.2,1.2l10.1,1.8L35.4,162.4z"/>
		<path class="st2" d="M75.9,202.8c0.5-0.8-0.5-2.9-0.5-2.9l5.4,3.8c0,0-2.3-0.2-2.9,0.6l-5.1,7.4l1.8,1.2c1.2,0.8,3.5-0.2,3.5-0.2
			l-1.9,2.3l-9.6-6.6l1.3-2.6c0,0-0.1,2.5,1,3.3l1.8,1.2L75.9,202.8z"/>
		<path class="st2" d="M148.2,216.9c-0.2-0.9-2.5-1.6-2.5-1.6l6.4-1.5c0,0-1.7,1.6-1.5,2.5l2,8.5l2.1-0.5c1.4-0.3,2.2-2.7,2.2-2.7
			l0.4,2.9l-11.4,2.7l-1.1-2.8c0,0,1.8,1.8,3.2,1.5l2.1-0.5L148.2,216.9z"/>
		<path class="st2" d="M173.4,207c-0.5-0.8-2.8-0.8-2.8-0.8l5.7-3.3c0,0-1.2,2-0.7,2.8l4.5,7.7l1.9-1.1c1.2-0.7,1.3-3.2,1.3-3.2
			l1.2,2.7l-10.1,5.9l-1.8-2.3c0,0,2.2,1.2,3.4,0.5l1.9-1.1L173.4,207z"/>
		<path class="st2" d="M219,108.3c0-1,0.8-1.8,1.8-1.8c1,0,1.8,0.8,1.8,1.8c0,1-0.8,1.8-1.8,1.8C219.8,110.1,219,109.3,219,108.3"/>
		<path class="st2" d="M114.1,221.6c0-1,0.8-1.8,1.8-1.8c1,0,1.8,0.8,1.8,1.8c0,1-0.8,1.8-1.8,1.8
			C114.9,223.4,114.1,222.6,114.1,221.6"/>
		<path class="st2" d="M31.4,127.6c0-1,0.8-1.8,1.8-1.8c1,0,1.8,0.8,1.8,1.8c0,1-0.8,1.8-1.8,1.8C32.1,129.4,31.3,128.6,31.4,127.6"
			/>
		<path class="st2" d="M47.5,76.1c-2.2-1.6-2.8-3.9-1.4-5.8c1.6-2.3,4.7-1.8,7.1-0.1c2,1.5,3.1,3.7,1.6,5.8
			C53.3,78.1,50.3,78.1,47.5,76.1z M46.6,78.8c2.5,1.8,6.1,1.4,8.6-2c2.6-3.5,1.7-7.3-0.9-9.2c-2.8-2-6.3-1.2-8.6,1.9
			C43.3,72.7,43.7,76.7,46.6,78.8"/>
		<path class="st2" d="M94.4,40.8l-3.6,1.1l0.2-5.3L94.4,40.8z M96.7,39.3l3.2-1.2c1.3-0.5,3.1,0.1,3.1,0.1l-2.5-2.9
			c0,0-0.2,1.6-1.1,1.9L96,38.6L93,35l4.9-1.6c0.8-0.3,2.8,0.4,2.8,0.4l-2.1-2l-10.4,3.6c0,0,1.3,0.4,1.1,2.1l-0.1,7.8
			c-0.2,1.4-1,2.8-1,2.8l4-1.5c0,0-1.7-0.7-1.6-1.6l0.2-2.2l4.3-1.3l2.4,3l9.6-3.7l-2-2.2c0,0,0.7,1.6-0.4,2.1l-5.1,2L96.7,39.3z"/>
		<path class="st2" d="M45.1,90.1c0.8,0.4,2.7-0.9,2.7-0.9L45.1,95c0,0-0.1-2.1-1.1-2.6l-6.6-3.1c-0.8-0.4-2.7,0.8-2.7,0.8
			c0.3-0.9,0.6-1.5,0.9-2.2c0.4-1,0.9-2.2,1.2-2.8c1.1-2.4,2.1-3.6,3.3-4.1c0.8-0.3,1.6-0.2,2.3,0.1c1.3,0.6,1.8,2,1.5,3.7
			c1.4-0.7,3-0.6,4.7-1.3c1-0.4,2.7-1.4,2.7-1.4c-0.2,0.4-0.2,0.5-0.5,1c-1,2.1-1.7,2.8-2.8,3.2c-1.2,0.4-3.4,0.6-4.8,1.2l-0.6,1.3
			L45.1,90.1z M41.9,88.6l0.3-0.6c0.9-2,0.9-3.5-0.9-4.3c-1.8-0.8-3,0.2-3.8,1.8l-0.4,0.9L41.9,88.6z"/>
		<path class="st2" d="M38.4,104.2l1.6,1.3c0.7,0.6,2.2-1.2,2.2-1.2l-1.4,4.8c0,0-0.5-1.9-1.4-2.6L30.6,99l11.5-1.8
			c1.2-0.2,2.5-1.2,2.5-1.2l-1.8,5.9c0,0-0.4-2.2-1.3-2.1l-2,0.3L38.4,104.2z M34.7,101l3.1,2.6l0.9-3.2L34.7,101z"/>
		<path class="st2" d="M47,170.3c0.8-0.4,0.9-2.7,0.9-2.7l3,5.7c0,0-1.8-1.2-2.7-0.7l-6.4,3.4c-0.8,0.4-1,2.6-1,2.6
			c-0.5-0.8-0.8-1.4-1.2-2c-0.5-0.9-1.2-2-1.5-2.6c-1.3-2.4-1.6-3.8-1.3-5.1c0.3-0.8,0.7-1.4,1.4-1.8c1.2-0.7,2.7-0.3,3.9,1
			c0.3-1.5,1.3-2.8,1.8-4.5c0.3-1,0.5-3,0.5-3c0.2,0.3,0.3,0.5,0.5,1c1.1,2,1.2,3,0.9,4.2c-0.4,1.2-1.6,3.1-1.9,4.6l0.7,1.3
			L47,170.3z M43.9,171.8l-0.3-0.6c-1-2-2.2-2.8-4-1.9c-1.7,0.9-1.6,2.6-0.8,4.1l0.4,0.8L43.9,171.8z"/>
		<path class="st2" d="M46.1,187.3c-2.3-3.1-2-6.7,0.8-8.7c2.6-1.9,6.5-1.7,9.1,1.9c2.5,3.4,1.8,7-0.7,8.8
			C52.4,191.4,48.5,190.6,46.1,187.3z M55.1,180.6c-1.5-2-4-1.7-6-0.2c-2.4,1.8-3.7,4.6-2.1,6.8c1.4,1.9,3.7,2,6,0.4
			C55.8,185.5,56.6,182.6,55.1,180.6"/>
		<path class="st2" d="M85.3,219.5c-3.5-1.6-4.9-4.9-3.5-8c1.4-3,4.9-4.5,8.9-2.7c3.8,1.8,4.9,5.3,3.6,8
			C92.8,220.1,89,221.2,85.3,219.5L85.3,219.5z M90,209.3c-2.3-1.1-4.3,0.4-5.4,2.7c-1.2,2.7-1.1,5.8,1.5,7c2.1,1,4.2,0,5.4-2.5
			C92.9,213.2,92.3,210.4,90,209.3"/>
		<path class="st2" d="M202.2,180.7c-0.7-0.6-2.8,0.4-2.8,0.4l3.8-5.1c0,0-0.3,2.1,0.5,2.7l5.8,4.3c0.7,0.5,2.8-0.2,2.8-0.2
			c-0.5,0.8-0.9,1.3-1.3,2c-0.6,0.9-1.3,2-1.7,2.5c-1.6,2.2-2.8,3.1-4.1,3.3c-0.8,0.1-1.6-0.1-2.2-0.5c-1.1-0.8-1.4-2.3-0.7-3.9
			c-1.5,0.4-3.1,0-4.9,0.3c-1.1,0.2-2.9,0.9-2.9,0.9c0.2-0.3,0.3-0.5,0.7-0.9c1.4-1.8,2.2-2.4,3.4-2.5c1.3-0.2,3.5,0.1,5-0.2
			l0.9-1.2L202.2,180.7z M205,182.9l-0.4,0.6c-1.3,1.8-1.6,3.2,0,4.4c1.6,1.2,3,0.4,4.1-1l0.6-0.8L205,182.9z"/>
		<path class="st2" d="M165.4,212.8l0-2c0-0.9-2.3-1-2.3-1l4.7-1.8c0,0-1.2,1.5-1.2,2.7l-0.4,11.5l-8.5-8c-0.9-0.8-2.5-1.2-2.5-1.2
			l5.7-2.3c0,0-1.5,1.7-0.8,2.3l1.5,1.4L165.4,212.8z M165.2,217.6l0.1-4.1l-3.1,1.2L165.2,217.6z"/>
		<path class="st2" d="M129.1,53.7c-0.5-1.3-1.8-2.3-1.8-2.3l6.2,0.4c0,0-2.1,1.1-1.7,2.1l2,5.2l3.6-5.4c0.3-0.6-1.4-1.8-1.4-1.8
			l4.5,0.3c0,0-1.6,1.1-2.3,2.4l-5.4,8.4L129.1,53.7z"/>
		<path class="st2" d="M78.4,72.6c-1.3-0.6-2.9-0.5-2.9-0.5l4.8-3.8c0,0-0.9,2.2,0.2,2.7l5,2.5l-1-6.4c-0.2-0.6-2.3-0.4-2.3-0.4
			l3.5-2.8c0,0-0.5,1.9-0.1,3.4l1.6,9.9L78.4,72.6z"/>
		<path class="st2" d="M173.5,69.2c0.4-1.3,0-2.9,0-2.9l4.6,4.2c0,0-2.3-0.5-2.6,0.6l-1.7,5.6l6.2-2.3c0.6-0.3,0-2.3,0-2.3l3.3,3
			c0,0-1.9-0.2-3.3,0.5l-9.4,3.2L173.5,69.2z"/>
		<path class="st2" d="M97.9,68c0.4,0.8,2.7,1,2.7,1l-5.8,2.7c0,0,1.3-1.8,0.9-2.7l-3.7-7.9L90,62.1c-1.2,0.6-1.5,3-1.5,3l-1-2.7
			l10.3-4.8l1.6,2.4c0,0-2.1-1.4-3.3-0.8l-1.9,0.9L97.9,68z"/>
		<path class="st2" d="M144.4,55.7L144.4,55.7l-2.2,5.9c-0.4,1.1,0.7,2.8,0.7,2.8l-3.8-1.1c0,0,1.7-0.6,2.2-2l2.2-6.1
			c0.3-0.9-0.5-2.3-0.5-2.3l3.6,1.1l1.2,8.2l5.4-6.2l3.7,1.1c0,0-1.5,0.3-1.8,1.6l-1.5,6.4c-0.3,1.5,0.8,2.8,0.8,2.8l-5.4-1.6
			c0,0,1.8-0.2,2.1-1.3c0.1-0.3,0.1-0.6,0.2-0.8l1.4-6.2l0,0l-6.4,7.5l-0.4-0.1L144.4,55.7z"/>
		<path class="st2" d="M188.3,82.8l-2.4-3.1l-3.2,2.5l1.8,2.3c0.6,0.8,2.3,0.8,2.3,0.8l-2.8,2.2c0,0,0.4-1.5-0.4-2.6l-1.6-2.1
			l-2.5,2c-0.6,0.5-0.6,0.7-0.3,1.1l1.8,2.3c0.7,0.9,3.1,1,3.1,1l-2.3,1.6l-6.6-8.5c0,0,2.2,1,2.9,0.5l5.6-4.4
			c0.8-0.6,0.5-2.6,0.5-2.6l6,7.7l-1.9,1.7C188.2,85.2,188.8,83.4,188.3,82.8"/>
		<path class="st2" d="M118.8,61.3c0.1,0.9,2.1,1.8,2.1,1.8l-6.2,0.6c0,0,1.7-1.1,1.6-2.2l-0.7-7c-0.1-0.9-2-1.9-2-1.9
			c0.9-0.1,1.5-0.3,2.3-0.4c1-0.2,2.3-0.4,2.9-0.4c2.6-0.3,4.1-0.1,5,0.7c0.6,0.5,1,1.2,1.1,1.9c0.1,1.3-0.7,2.5-2.3,3.1
			c1.3,0.9,2,2.2,3.4,3.3c0.8,0.7,2.5,1.5,2.5,1.5c-0.4,0.1-0.6,0.1-1.1,0.1c-2.2,0.2-3.1,0-4.1-0.7c-1-0.8-2.2-2.5-3.4-3.4
			l-1.4,0.1L118.8,61.3z M118.5,57.9l0.7-0.1c2.1-0.2,3.3-1,3.1-2.9c-0.2-1.9-1.7-2.4-3.4-2.2l-0.9,0.1L118.5,57.9z"/>
		<path class="st2" d="M62,88.8c0.5-0.8,1.1-1.7,1.5-2.4c0.5-0.8,0.8-1.3,1.3-2c2.1-2.9,3.4-4,5.2-4.3c1.3-0.2,2.7,0.1,3.9,0.9
			c1.3,0.9,2.1,2.3,2.3,3.7c0.2,1.3,0.1,3-2,6L71,95.2c0,0,0.2-1.9-0.6-2.5l-5.6-4C63.7,88,62,88.8,62,88.8z M71.7,90.6
			c1,0.7,1.2,0.6,2-0.5c2.3-3.3,0.7-5.7-1.1-6.9c-1.2-0.9-2.6-1.2-3.7-1c-1.2,0.2-2.2,0.9-3.3,2.4c-0.3,0.4-0.5,0.7-0.7,1.2
			L71.7,90.6z"/>
		<path class="st2" d="M63.2,103.9l1.4,1.4c0.6,0.6,2.3-0.9,2.3-0.9l-1.9,4.5c0,0-0.3-1.9-1.1-2.7l-7.7-8.1l11.3-0.6
			c1.1-0.1,2.6-0.9,2.6-0.9l-2.3,5.5c0,0-0.2-2.2-1.1-2.1l-2,0.1L63.2,103.9z M59.9,100.5l2.8,2.8l1.2-3L59.9,100.5z"/>
		<path class="st2" d="M166.6,61.4c3.3,1.8,4.5,5.1,2.9,8c-1.5,2.8-5,4.1-8.8,2.1c-3.6-2-4.4-5.4-3-8
			C159.4,60.4,163.1,59.5,166.6,61.4L166.6,61.4z M161.4,71c2.2,1.2,4.2-0.1,5.4-2.3c1.4-2.5,1.4-5.5-1-6.8c-2-1.1-4.1-0.3-5.4,2.1
			C158.8,67,159.2,69.8,161.4,71"/>
		<path class="st2" d="M166.9,79.7c-3.8-3.1-2.5-2.6-3.5-5.9c-1-3.2-0.3-7.8-1.1-8.4c-0.7-0.5,1.6-0.7,2.4,6.3
			C165.6,78.7,166.9,79.7,166.9,79.7"/>
		<path class="st2" d="M73.7,220.2C42.2,201.6,21,167.2,21,128C21,69,69,21,128,21s107,48,107,107s-48,107-107,107
			c-19.5,0-37.9-5.3-53.6-14.4l-1.7-0.9l-1.2,1.8l1.8,1.1c16.1,9.4,34.9,14.8,54.8,14.8c60.3,0,109.3-49,109.3-109.3
			S188.3,18.7,128,18.7c-60.3,0-109.3,49-109.3,109.3c0,40.1,21.7,75.1,53.9,94.2l1.3,0.7l1-1.9L73.7,220.2z"/>
		<path class="st2" d="M85.1,197.5c-23.2-14.4-38.8-40.2-38.8-69.5c0-37.9,26.1-70,61.3-79.1l0.6-1.9c-36.4,8.9-63.5,41.8-63.5,81
			c0,29.9,15.9,56.2,39.6,70.9l1.3,0.7l0.8-1.3L85.1,197.5z"/>
		<path class="st2" d="M85,199.4c12.6,7.6,27.3,11.9,43,11.9c45.9,0,83.3-37.4,83.3-83.3c0-45.9-37.4-83.3-83.3-83.3
			c-5.3,0-10.5,0.5-15.6,1.5l-0.3,1.7c5.1-1,10.4-1.5,15.9-1.5c45,0,81.7,36.7,81.7,81.7c0,45-36.7,81.6-81.7,81.6
			c-15.4,0-29.9-4.3-42.2-11.8l-1.3-0.7l-1.3,1.1L85,199.4z"/>
		<path class="st2" d="M127.2,38.3c-0.7,0-1.5-0.2-2.2-0.6c-0.7-0.4-1.2-0.9-1.6-1.5"/>
		<path class="st2" d="M128.4,31.6l2.8-2.7c0.6,0.5,1.1,1.1,1.4,1.8c0.3,0.7,0.4,1.4,0.4,2.1l-3.9,0.3l3.5,1.8
			c-0.3,0.7-0.7,1.3-1.3,1.9c-0.6,0.5-1.2,0.9-1.9,1.1l-1.5-3.6l-0.7,3.9c-0.7,0-1.5-0.2-2.2-0.6c-0.7-0.4-1.2-0.9-1.6-1.5l3-2.7
			l-3.8,0.6c-0.2-0.7-0.2-1.5-0.1-2.3c0.2-0.7,0.5-1.4,0.9-2l3.2,2l-1.7-3.3c0.6-0.4,1.4-0.7,2.1-0.8c0.8-0.1,1.5,0,2.2,0.3
			L128.4,31.6z"/>
		<path class="st2" d="M168.1,105.4c-0.7,0-1.7-0.7-2-1.5c-0.3-0.9,0.5-1.4,0.5-1.4c0,0,0.1,0.1,0.1,0.1c0.1,0.1,0.1,0.1,0.1,0.1
			l0,0c0.2,0.1,0.4,0,0.6,0c0.5,0,0.6-0.2,0.6-0.7c0-0.5-0.4-0.9-0.9-0.7c-0.4,0.1-1.1,0.2-1.5,0c-0.1-0.1-0.2-0.5-0.1-0.9
			c0-0.2,0.2-0.6,0.2-0.7c0-0.3-0.4-0.5-0.7-0.5c-0.3,0-0.7,0.3-0.7,0.6c0,0.4,0.3,0.6,0.5,0.9c0.3,0.3,0.2,0.6,0.1,0.8
			c-0.1,0.1-0.9,0.4-0.9,0.4l0,0c-0.1,0-0.1,0-0.2,0c-0.5,0-0.9,0.3-0.8,0.7c0,0.5,0.3,0.8,0.8,0.8c0.3,0,0.6-0.2,0.8-0.4
			c0,0,0.7,0.6,0.6,1.3c-0.1,0.7-0.2,1.3-1.5,1.7c-1.1,0.3-1.8-0.3-1.8-0.3s-0.3,1-1.3,0.8c-1.5-0.2-1.8-2-1.8-2s0.6,0,0.9-0.8
			c0.3-0.7-0.2-1.1-0.9-1.2c-0.4-0.1-1,0.6-1.6,0.4c-0.6-0.3,0.3-1.5-0.5-2c-0.8-0.4-1.2,0.6-1.2,0.6s1.2,1.2,2.7,3.4
			c1.2,1.7,2.9,3.8,2.9,3.8l-0.9,0.6c0,0-1.2-1.8-3-4.3c-1.6-2.1-2.8-3.5-2.8-3.5s0-0.2,0.4-0.6c0.6-0.6,1.4-1.4,2.4-0.9
			c1,0.5,0.5,2.1,0.5,2.1s0.6-0.6,1.5-0.5c1,0.1,1.9,1.1,1.7,1.9c-0.2,1.2-1,1.5-1,1.5s-0.1,0.5,0.8,0.4c0.6-0.1,1-0.9,1-0.9
			c0,0,1.4,1.3,2.2,0.3c0.1-0.1,0.1-0.2,0.2-0.3c-0.1,0-0.2,0-0.4,0c-0.9,0-1.7-0.8-1.7-1.7c0-1,0.7-1.8,1.7-1.8
			c0.4,0,0.1,0,0.6,0.1c-0.4-0.2-0.9-0.6-0.9-1.3c0-0.8,0.9-1.6,1.7-1.6c0.8,0,1.8,0.7,1.8,1.5c0,0.5-0.3,0.9-0.5,1.1
			c0.2-0.2,0.5-0.4,1-0.4c0.9,0,1.7,0.8,1.7,1.7c0,1-0.7,1.8-1.7,1.8c-0.1,0-0.2,0-0.2,0c0,0,0,0,0,0c0.3,0.3,0.8,0.4,1.1,0.5
			c1.2,0.2,1.3-0.7,1.3-0.7s0.6,0.5,1.1,0.3c0.9-0.3,0.7-0.9,0.7-0.9s-0.8,0.1-1.5-0.9c-0.5-0.7-0.5-1.6,0.4-2.1
			c0.8-0.5,1.8-0.2,1.8-0.2s-1-1.2-0.2-2c0.7-0.8,1.8-0.5,2.6-0.2c0.6,0.2,1,0.4,1,0.4s-0.8,1.3-1.4,3.9c-0.7,3.4-1.2,5.2-1.2,5.2
			l-0.9-0.3c0,0,0.5-2.9,1-5.1c0.6-2.4,1.1-3.2,1.1-3.2s-0.9-0.8-1.4-0.1c-0.6,0.8,0.7,1.3,0.3,1.8c-0.5,0.5-1.3,0-1.7,0.2
			c-0.6,0.4-0.6,0.6-0.2,1.2c0.4,0.5,1.1,0.3,1.1,0.3s0.6,1.8-0.7,2.6c-0.9,0.5-1.7-0.1-1.7-0.1S169.7,105.4,168.1,105.4"/>
		<path class="st2" d="M160.1,108.6c-0.1-0.9,2.7-2,6.3-2.4c3.6-0.4,6.6,0,6.7,0.9c0.1,0.9-2.7,2-6.3,2.4
			C163.2,110,160.2,109.6,160.1,108.6z M166.1,108.7c2.2-0.2,3.6-0.6,3.5-1.2c-0.1-0.4-1.8-0.5-4-0.3c-2.2,0.2-3.9,0.7-3.9,1.1
			C161.8,108.7,163.9,108.9,166.1,108.7"/>
		<path class="st2" d="M190.4,102.2c-0.7,0-1.7-0.7-2-1.5c-0.3-0.9,0.5-1.4,0.5-1.4c0,0,0.1,0.1,0.1,0.1c0.1,0.1,0.1,0.1,0.1,0.1
			l0,0c0.2,0.1,0.4,0,0.6,0c0.5,0,0.6-0.2,0.6-0.7c0-0.5-0.4-0.9-0.9-0.7c-0.4,0.1-1.1,0.2-1.5,0c-0.1-0.1-0.2-0.5-0.1-0.9
			c0-0.2,0.2-0.6,0.2-0.7c0-0.3-0.4-0.5-0.7-0.5c-0.3,0-0.7,0.3-0.7,0.6c0,0.4,0.3,0.6,0.5,0.8c0.3,0.3,0.2,0.6,0.1,0.8
			c-0.1,0.1-0.9,0.4-0.9,0.4l0,0c-0.1,0-0.1,0-0.2,0c-0.5,0-0.9,0.3-0.8,0.7c0,0.5,0.3,0.8,0.8,0.8c0.3,0,0.6-0.2,0.8-0.4
			c0,0,0.7,0.6,0.6,1.3c-0.1,0.7-0.2,1.3-1.5,1.7c-1.1,0.3-1.8-0.3-1.8-0.3s-0.3,1-1.3,0.8c-1.5-0.2-1.8-2-1.8-2s0.6,0,0.9-0.8
			c0.3-0.7-0.2-1.1-0.9-1.2c-0.4-0.1-1,0.6-1.6,0.4c-0.6-0.3,0.3-1.5-0.5-2c-0.8-0.4-1.2,0.6-1.2,0.6s1.2,1.2,2.7,3.4
			c1.2,1.7,2.9,3.8,2.9,3.8l-0.9,0.6c0,0-1.2-1.8-3-4.3c-1.6-2.1-2.8-3.5-2.8-3.5s0-0.2,0.4-0.6c0.6-0.6,1.4-1.4,2.4-0.9
			c1,0.5,0.5,2.1,0.5,2.1s0.6-0.6,1.5-0.5c1,0.1,1.9,1.1,1.7,1.9c-0.2,1.2-1,1.5-1,1.5s-0.1,0.5,0.8,0.4c0.6-0.1,1-0.9,1-0.9
			c0,0,1.4,1.3,2.2,0.3c0.1-0.1,0.1-0.2,0.2-0.3c-0.1,0-0.2,0-0.4,0c-0.9,0-1.7-0.8-1.7-1.7c0-1,0.7-1.8,1.7-1.8
			c0.4,0,0.1,0,0.6,0.1c-0.4-0.2-0.9-0.6-0.9-1.3c0-0.8,0.9-1.6,1.7-1.6c0.8,0,1.8,0.7,1.8,1.5c0,0.5-0.3,0.9-0.5,1.1
			c0.2-0.2,0.5-0.4,1-0.4c0.9,0,1.7,0.8,1.7,1.7c0,1-0.7,1.8-1.7,1.8c-0.1,0-0.2,0-0.2,0c0,0,0,0,0,0c0.3,0.3,0.8,0.4,1.1,0.5
			c1.2,0.2,1.3-0.7,1.3-0.7s0.6,0.5,1.1,0.3c0.9-0.3,0.7-0.9,0.7-0.9s-0.8,0.1-1.5-0.9c-0.5-0.7-0.5-1.6,0.4-2.1
			c0.8-0.5,1.8-0.2,1.8-0.2s-1-1.2-0.2-2c0.7-0.8,1.8-0.5,2.6-0.2c0.6,0.2,1,0.4,1,0.4s-0.8,1.3-1.4,3.9c-0.7,3.4-1.2,5.2-1.2,5.2
			l-0.9-0.3c0,0,0.5-2.9,1-5.1c0.6-2.4,1.1-3.2,1.1-3.2s-0.9-0.8-1.4-0.1c-0.6,0.8,0.7,1.3,0.3,1.8c-0.5,0.5-1.3,0-1.7,0.2
			c-0.6,0.4-0.6,0.6-0.2,1.2c0.4,0.5,1.1,0.3,1.1,0.3s0.6,1.8-0.7,2.6c-0.9,0.5-1.7-0.1-1.7-0.1S192,102.2,190.4,102.2"/>
		<path class="st2" d="M182.4,105.4c-0.1-0.9,2.7-2,6.3-2.4c3.6-0.4,6.6,0,6.7,0.9c0.1,0.9-2.7,2-6.3,2.4
			C185.5,106.8,182.5,106.3,182.4,105.4z M188.4,105.5c2.2-0.2,3.6-0.6,3.5-1.2c-0.1-0.4-1.8-0.5-4-0.3c-2.2,0.2-3.9,0.7-3.9,1.1
			C184.1,105.5,186.2,105.7,188.4,105.5"/>
		<path class="st2" d="M181.2,117.4c-0.7,0-1.7-0.7-2-1.5c-0.3-0.9,0.5-1.4,0.5-1.4c0,0,0.1,0.1,0.1,0.1c0.1,0.1,0.1,0.1,0.1,0.1
			l0,0c0.2,0.1,0.4,0,0.6,0c0.5,0,0.6-0.2,0.6-0.7c0-0.5-0.4-0.9-0.9-0.7c-0.4,0.1-1.1,0.2-1.5,0c-0.1-0.1-0.2-0.5-0.1-0.9
			c0-0.2,0.2-0.6,0.2-0.7c0-0.3-0.4-0.5-0.7-0.5s-0.7,0.3-0.7,0.6c0,0.4,0.3,0.6,0.5,0.9c0.3,0.3,0.2,0.6,0.1,0.8
			c-0.1,0.1-0.9,0.4-0.9,0.4l0,0c-0.1,0-0.1,0-0.2,0c-0.5,0-0.9,0.3-0.8,0.7c0,0.5,0.3,0.8,0.8,0.8c0.3,0,0.6-0.2,0.8-0.4
			c0,0,0.7,0.6,0.6,1.3c-0.1,0.7-0.2,1.3-1.5,1.7c-1.1,0.3-1.8-0.3-1.8-0.3s-0.3,1-1.3,0.8c-1.5-0.2-1.8-2-1.8-2s0.6,0,0.9-0.8
			c0.3-0.7-0.2-1.1-0.9-1.2c-0.4-0.1-1,0.6-1.6,0.4s0.3-1.5-0.5-2c-0.8-0.4-1.2,0.6-1.2,0.6s1.2,1.2,2.7,3.4
			c1.2,1.7,2.9,3.8,2.9,3.8l-0.9,0.6c0,0-1.2-1.8-3-4.3c-1.6-2.1-2.8-3.5-2.8-3.5s0-0.2,0.4-0.6c0.6-0.6,1.4-1.4,2.4-0.9
			c1,0.5,0.5,2.1,0.5,2.1s0.6-0.6,1.5-0.5c1,0.1,1.9,1.1,1.7,1.9c-0.2,1.2-1,1.5-1,1.5s-0.1,0.5,0.8,0.4c0.6-0.1,1-0.9,1-0.9
			c0,0,1.4,1.3,2.2,0.3c0.1-0.1,0.1-0.2,0.2-0.3c-0.1,0-0.2,0-0.4,0c-0.9,0-1.7-0.8-1.7-1.7c0-1,0.7-1.8,1.7-1.8
			c0.4,0,0.1,0,0.6,0.1c-0.4-0.2-0.9-0.6-0.9-1.3c0-0.8,0.9-1.6,1.7-1.6c0.8,0,1.8,0.7,1.8,1.5c0,0.5-0.3,0.9-0.5,1.1
			c0.2-0.2,0.5-0.4,1-0.4c0.9,0,1.7,0.8,1.7,1.7c0,1-0.7,1.8-1.7,1.8c-0.1,0-0.2,0-0.2,0c0,0,0,0,0,0c0.3,0.3,0.8,0.4,1.1,0.5
			c1.2,0.2,1.3-0.7,1.3-0.7s0.6,0.5,1.1,0.3c0.9-0.3,0.7-0.9,0.7-0.9s-0.8,0.1-1.5-0.9c-0.5-0.7-0.5-1.6,0.4-2.1
			c0.8-0.5,1.8-0.2,1.8-0.2s-1-1.2-0.2-2c0.7-0.8,1.8-0.5,2.6-0.2c0.6,0.2,1,0.4,1,0.4s-0.8,1.3-1.4,3.9c-0.7,3.4-1.2,5.2-1.2,5.2
			l-0.9-0.3c0,0,0.5-2.9,1-5.1c0.6-2.4,1.1-3.2,1.1-3.2s-0.9-0.8-1.4-0.1c-0.6,0.8,0.7,1.3,0.3,1.8c-0.5,0.5-1.3,0-1.7,0.2
			c-0.6,0.4-0.6,0.6-0.2,1.2c0.4,0.5,1.1,0.3,1.1,0.3s0.6,1.8-0.7,2.6c-0.9,0.5-1.7-0.1-1.7-0.1S182.8,117.4,181.2,117.4"/>
		<path class="st2" d="M173.1,120.6c-0.1-0.9,2.7-2,6.3-2.4c3.6-0.4,6.6,0,6.7,0.9c0.1,0.9-2.7,2-6.3,2.4
			C176.2,122,173.2,121.6,173.1,120.6z M179.2,120.7c2.2-0.2,3.6-0.6,3.5-1.2c-0.1-0.4-1.9-0.5-4-0.3c-2.2,0.2-3.9,0.7-3.9,1.1
			C174.8,120.7,177,120.9,179.2,120.7"/>
		<path class="st2" d="M135.4,97.9c-2.9,3.2-1,7.9-1.7,11.9c-1.1,3.3-4.7,5.4-5.7,8.8c-0.3,2-0.5,4.7,0.9,6.2
			c0.1-0.3-0.2-0.4-0.2-0.6c-0.6-4,0.7-6.9,4.2-10.3c5.3-6-0.9-10.9,4.1-15.4L135.4,97.9z"/>
		<path class="st2" d="M147.8,135.7c2.4-0.1,4-0.4,6.4-1c2.3-0.7,4.2-1.4,6.4-2.1c4.7-1.4,7.3-2.6,12.2-2.6l0.6,0
			c1.4,0,2.6,0.2,3.9,0.6c0.6,0.2,1.4,0.8,2.1,1.1c3.1,2.7,3.3,4.2,7.3,6.7c1.8,0.7,3.4,2.6,4.9,2.9c-0.6-0.6-1.2-0.8-2.5-2.1
			c-1.9-1.6-5-5.8-8.5-8.4c-1.9-1.1-3.9-1.8-6.1-2c-4.3-0.7-9.3,0.5-12.9,2c-3.9,1.3-5.3,1.5-9.5,2.2c-1.5,0.3-2.7,0.1-4-0.2
			c-0.5-4.2-2-3.4-1.5-8.4c1.6-6,1-11.1-1-15.8c0.5-1.7,0.6-4.1-0.8-5.4c-1.2-1.2-4.3-1.4-4.9,0.6c0.4,1.6,2.5,0.6,3.6,1.4
			c1.2,0.3,1.1,1.8,0.9,2.6c-0.3,2.4-3.1,3.7-5,4.1c0.7,1.4,3.5,0.5,4.4-0.3c1,2.2,1.6,2.5,2,5.3c0.2,4.8-1.2,4.6-3,7.7
			c-0.8,1.7-0.8,3.8,0.5,7.1c-0.4-5.1,0.3-5.4,1.7-7.6c0,0-0.5,2.1-0.5,4c0.1,2.4,1.3,3,1.4,5.1c-0.4,1.9-0.4,2.5-1.6,4
			c-2.2,2.9-6.1,2.6-7.7,10c2.9-4.2,3.5-5.4,6.2-6.9C146.4,139.1,146.9,137.9,147.8,135.7"/>
		<path class="st2" d="M120.5,111.2c1.3,0.9,1.6,2.1,2.7,3.1c-0.5-0.1-3.7-2.5-5.4-1.8c-2.4,0.2-5.6,2.4-7.8,0.1
			c-1.4-0.6-2.4-3.1-2.7-4.6c1.4,2.3,3.7,4.6,6.8,4c1.6-0.3,2.5-0.6,3.9-0.5c0.7,0,1.8,0.1,2.7,0.9c-1-1-2.3-1.8-3.9-1.8
			c-3.6,0.1-7.3,1.7-9.5-2.6c2.1,1.6,6.3,1.8,9.8,1.7C118.5,110,119.7,110.3,120.5,111.2L120.5,111.2z M115,105.2
			c-0.2,0.6-0.9,1.3-0.5,1.9l1-1.3C115.4,105.6,115.2,105.4,115,105.2L115,105.2z M117.3,106.6c0.4,0.4,0.5,0.9,0.7,1.3
			c0.5,0.1,0.6-0.7,1-0.7L117.3,106.6z M118,109.4c-0.3-1-0.6-2-1.7-2.3c-1.1-0.6-2.1,2.2-2.5,0c-0.4-1.3,1-2.2-0.4-3.3
			c-1.2-1.8,0.6-2.2,0.1-4.1c-0.1-1.4-0.3-3.2,1.6-3.3c2.9-0.7,5.9-0.7,8.7,0.2c0.8-0.7,1-1.1,1.2-1.6c0,0,1.3-0.2,2.2,0.2
			c0.9,0.4,1.8,0.9,1.8,0.9c-0.8,0.1-2.3,0.3-2.2,1.4c0.6,1.4,1.9-0.5,5.3,1.7c0.3,0.3,0.8,0.5,0.9,1.3c-1.6-0.7-2.5-0.5-3.9-1.1
			c-1.1-0.4-1.4-0.4-2.5-0.2c-0.4,0.1-2.1,1.3-2.1,0.4c0,0,0-0.4-0.2-1.4c-0.3-0.8-0.6-0.7-1.4-1c-3.5-0.9-5.4-0.6-7.3-0.3
			c-0.8,0.2-1.1,1.3-0.8,2.2c0.7,1.3,0.9,1.1,1.6,1.1c0.6-0.4,1-1.2,2-1.3c0.8,0,1.4,0,1.6,0.8l0,0.5c-0.3-0.6-1.1-0.3-1.5-0.1
			c-0.2,0.2-0.3,0.4-0.2,0.6c0.3,0.5,0.6,0.2,1,0.3c-0.4,0.6-2.1,0.8-3.2,0.7c-0.4-0.1-0.4,0.5-0.6,0.7c-0.4,0.5-0.2,1,0,1.6
			c1.7,2,4.6,2.2,6.8,3.6c0.6,0.3,1,1.3,1.2,1.7c-1-0.5-1.3,1.1-1.3,1.4l0.5-0.3c0.3-0.1,1.2-0.6,1.3-0.6c0.6,0.6,0.4,1.4,0.5,2.2
			c0.2-0.6,0.1-1.3,0.4-2.1c0.8,2.6,2.3,7.3-1.6,13.3c-2,4-1.7,4.9-1.5,10.4c-2.7-5.7-0.7-8.5-0.1-12c0-0.3,0-0.8-0.4-1.1
			c0.1,1.5-0.2,2.5-1.3,4c-1.8,2.3-2.1,5.3-1.1,7.5c0.9,2.5,1.6,3.5,1.3,6.2c-0.4,2.5-1.1,4-0.2,7.4c-2-4-1.4-5.4-1.3-7.7
			c0.1-2-0.3-3.9-1.5-5.4l0.7,0.6c-0.7,4.7-7.1,5.1-4.7,11.4c0.8,1.4,2.6,4.2,2.7,5.5c-1.3-2.3-3-2.4-4.1-4.9
			c-3.1-0.6-5.5,1.6-8.5,2.6c-1.7,0.5-3.5,1.3-6.3-1.2c5.4,2,9.1-1.6,12.5-2.9c1.9-0.9,1.1-2.3,1.4-3.5c0.6-3.7,4.1-3.5,5.1-7.1
			c0.1-3-0.4-4.8,0.5-6.8c0.9-2,2.3-1.4,2.5-3.9c0.9-2.9-3.5-3.2-2.6-6.8c0.5,0.7,1.5,1.1,2.3,1.5c1.5,0.7,3.1,1.9,4.1,3.1
			c-0.1-0.6-1.2-2.3-1.8-2.8l-1.5-1.1c0.1-0.6,0.8-0.9,1.4-1.3c-0.2,1.7,1.9,2.4,2.7,3.4c0.6-2.3-0.1-4.7-0.6-6.8
			c0,0-0.8-0.1-1.2,0.6c-0.7-1.6-0.2-2.4,0-3.5c0-0.6-0.5-0.2-0.8-0.2c-0.6,0.3-0.8,0.5-0.8,0.5l-0.8-1.4
			C118.9,107.9,118.1,108.7,118,109.4"/>
		<path class="st2" d="M142.7,106.9c0.2,0.7-0.2,1.5-0.6,2.1c-0.2,0.4-0.7,0.5-1.1,0.6c0-0.6,1.4-1.3,0.6-2.1l-1.4-1.1
			C140.8,105.9,142.4,105.8,142.7,106.9"/>
		<path class="st2" d="M119.4,116c-0.4,0-0.7,0-1-0.2c-1.3-0.6,0.2-1.1,0.2-1.8C119.1,114.4,119,115.4,119.4,116"/>
		<path class="st2" d="M124.8,130.5c0.1,2.6-0.2,4.5-0.7,6c-0.5,1.6-0.7,2-1.9,4c1-2.4,1.4-4.3,1.7-7.1c0.3-2.5,0.2-6.1,1.2-8.1
			l0.9-2.4C124.9,127,124.9,128.8,124.8,130.5"/>
		<path class="st2" d="M92.8,157.9c0.6-0.8,1-0.6,1.4-0.7c0.4,0.5,0.3,1,1,1.3c1,0.5,2.4-0.5,3.1-1c0,0,1.9,1.3,3.1,1.3
			c1.1,0,1.5-1.1,2.5-1.1s1.6,1.3,1.6,1.3s1-0.1,6.4-1c5.3-0.9,4,2.6,4,2.6s2,0.4,4.2-1.9c1.6-1.7,3.3-4.1,3.7-6.5
			s0.6-11.1,0.6-11.1s-1.5,3.9-1.7,6.2c-0.2,2.3-0.6,5-2.6,7.9c-0.4,0.6-2.1,1.4-2.1,1.4c0.2,0-0.6-1.3-1.2-1.8
			c-0.9-0.7-1.7-0.8-1.7-0.8s-3.9,2.7-5.4,2.6c-1.5-0.1,0.1-2.6,0.1-2.6s-4.4,1.7-6.7,2.3c-2.3,0.7-2.7-0.5-2.7-0.5
			c-1.1,0.4-3.5,1.4-4.9,0.9c-1.3-0.7-1.9-1.4-2.4-0.6l-1.3,1.4c-1.3-2.9,2.1-3.9,3.1-4.9l-2.1-0.2c-0.9-0.3-1.3-1.2-1.1-1.9
			c-1.2,0-2.3,0.6-3.2,0.8c0.2-2.4,3.1-1.3,4.2-2.9c0.3-0.4,1.1-0.8,2-0.3c0,0-2.6-1.7-2.4-2.4c0.7-2.5,5,1.3,6,1.8
			c-0.3-0.5-0.7-0.7-1.1-1.3c-1.8-3.9-6.4-3.2-8,0.1c0.2,0.4,1.7-0.8,1.9,0.2c0.3,0.5,0.7,1,0.8,1.2c-1,0.6-2,0.6-2.7,1
			c-2.8,1-2.8,4.7-2.8,4.7s2.8-0.5,3.7-0.9c0.1,0,0.3-0.1,0.4-0.1c0.4,1.4,1.7,0.5,0.2,3.2c-0.8,1.4,0.7,4.1,0.7,4.1
			S92.2,159,92.8,157.9"/>
		<path class="st2" d="M130,137.4c-0.7,1.1-3.2,5.6-3.4,9.7c-0.8-3.7,0.1-6.7,3-11.6c4.2-6.1,2-12.1,2.2-14
			C135.1,132.7,131.2,135.3,130,137.4"/>
		<path class="st2" d="M116.6,143.8c0.2,0.8,0.6,2.1,1.4,3.7c0.6,1,1.4,3,0.6,6.7c-0.8-5.2-1.4-5.3-2.3-7.2
			c-0.7-1.4-1.4-3.8-0.9-5.8c0.1-0.6,1-2.2,1.4-2.5C116.3,139.9,116.1,142.3,116.6,143.8"/>
		<path class="st2" d="M128.2,150.8c-1.4,2.1-2.5,3.5-3.4,4.2c0.8-6,4.5-6.8,6.1-14.1C130.9,143.7,129.6,149,128.2,150.8"/>
		<path class="st2" d="M153.1,159.1c0.8,0.2,1.6,0.4,2.2,0.7c-0.9-0.3-2.9-0.7-3.6-0.7c-0.5,0-0.8,0-1.2,0c-2.7-0.2-5.8-0.9-7.9-0.2
			c-3.4,1.4-7.2,4.3-7.9,6.2c-1.8,3.8-6.4,0.7-9.4,4.3c-0.8-0.9,0.4-2.2,2.1-3.3c1.3-0.7,4.4,0.3,5.6-1.2c0.7-0.8-0.9-2.5-3-1.7
			c-2.7,1.1-2.7,2.4-4.3,3.3c0.1-1.9,1.9-4.4,4.5-4.6c1.4-0.3,2.7,0.4,4.2,0.1c1.6-1.1,2.5-1.6,4.8-2.8c1.4-0.7,2.5-1,4.2-1.2
			C146.9,157.8,149.9,158.7,153.1,159.1"/>
		<path class="st2" d="M120.6,116.6c0,0-0.3,0-1-0.3c-0.8-0.3-1.7-0.7-1.9-0.7c-0.4-0.1-0.6-0.2-0.6-0.2s0.2-0.3,0.4-0.3
			c0.3,0,1.3,0.2,2.1,0.6s1.3,0.8,1.3,0.8L120.6,116.6z"/>
		<path class="st2" d="M143.8,100.9c0,0-0.1,0.4,0.2,1c0.3,0.7,0.5,1.2,0.5,1.2s-3.2,0.1-3-0.4c0.3-0.5,0.5-0.9,0.4-1.2
			c-0.2-0.3-0.6-0.9-0.6-0.9L143.8,100.9z"/>
		<path class="st2" d="M125,110c-0.4-1.1-0.7-1.7-2.8-2.8c-2.2-1.2-3.9-1.5-4.7-1.8c-0.8-0.3-2-0.7-1.8-0.6c0.2,0.1,4.3,2.5,5.2,2.8
			c0.8,0.4,2,0.8,2.4,1.2c0.4,0.4,0.5,0.4,0.7,1c0.2,0.6,0,1.3,0.4,2c0.4,0.7,0.7,0.7,0.7,0.7S125.4,111.4,125,110"/>
		<path class="st2" d="M119.2,102.3c1.2,0,1.8,0.1,2.8,0.4s1.2,1.8,1.9,2.5c0,0-2.2-2.4-4-2.3C119.5,103,118.6,102.3,119.2,102.3"/>
		<path class="st2" d="M118.1,103.7c0.7-0.2,1.1,0,1.7,0.2c0.6,0.2,0.9,0.7,1.4,1.4l-0.5-0.3c0,0,0.1,0-0.6-0.4
			c-0.9-0.5-1.1-0.4-1.5-0.6C118.2,103.9,117.8,103.7,118.1,103.7"/>
		<path class="st2" d="M138,100.8c0,0-1.4,1.3-1.6,3.6c-0.2,2.3,0.4,5,0.8,7.6c0.4,2.6,0.1,4.5-1,6.3c-0.8,1.4-1.5,3.3-1.4,5.4
			c0.1,2.5,2,4.9,2,4.9s-1.6-3.2-1-6.1c0.6-3,2.4-4.7,2.6-6.8c0.2-2.1-0.1-4.2-0.7-6.7C136.8,105.3,136.8,103,138,100.8"/>
		<path class="st2" d="M135.3,137.8c0,0,1.6-2.6,1.7-4.9c0.1-2.3-1.5-4.7-1.9-7.1c-0.5-2.4-0.6-2.8-0.1-4.6c0.5-1.8,2-2.7,2-2.7
			s-1.2,2.3-1.3,3.8c-0.1,1.5-0.2,2.3,0.7,5.1c0.9,2.8,1.9,5.5,1.2,7.4c-0.7,2-1.6,3-2.2,3.9C134.8,139.6,134.4,139.6,135.3,137.8"
			/>
		<path class="st2" d="M130.9,155.4c-0.3,0.3-0.7,0.5-1.2,0.8c-0.4,0.3-1.1,0.4-1.1,0.4s0.6-0.7,2-2.7c2.3-3.4,2.1-6.9,2.9-10.5
			c0.6-2.6,2.7-5.6,3.5-7c0.8-1.4,0.3-5.8,0.3-5.8c-0.2,7.4-4.1,7.1-5.1,13c-0.3,3.3-1.4,6.7-4.1,10c-2,2.8-5.6,5.7-9.2,7.1
			c4.1,0.8,7-0.4,10.6-0.5c0.9,0,2.5,0.1,3.6,0.3c0.8,0.4,1-0.6,3.2-1.7c1.6-0.8,2.8-1.3,4.2-1.8c2-0.5,3.5-0.9,5-0.7
			c-0.3-0.2,5.9-0.3,5-0.8c-0.3-1.4-2.5-0.2-1.9-0.9c-2.2,1.1-2.6,0.3-5.3,0.8c0,0-2.1,0.3-3.8,0.2c0,0-1.1,0-1.9-0.4
			c-1.5-0.7-1.3-2-1.3-2c0-0.8,0-1.2,0.1-2.2c0.1-1-0.2-2.6-0.2-2.6S134.2,153.5,130.9,155.4"/>
		<path class="st2" d="M180.4,139.6c0,0-3.2-3.7-6.6-4.6c-3.4-0.8-9.8,0.2-13.7,2.1c-3.9,2-5.4,4.8-7.4,8.4c0,0-0.9,1.3-1.4,2.8
			c-0.7,2-0.7,2.8,0.4,3.4c0.6,0.3,3.3-1.1,3.3-1.1c-0.6-0.9-2.9-0.4-2.9-0.4s1.1-1.5,2.2-2.1c1.1-0.6,2.7-0.3,2.7-0.3l-1.3-0.9
			c0,0-0.1-0.9,1.2-3.8c1.3-2.9,2.6-5.2,7.6-6.4s7.5-1.6,10.5-0.2C178.1,138,180.4,139.6,180.4,139.6"/>
		<path class="st2" d="M177.2,158.9c0,0-1.6-1-3.5-1.8c-1.7-0.7-4-1.4-4-1.4s5.5-1,8.5-1.6c1.9-0.4,2.8-0.7,3.9-1.3
			c1.2-0.6,1.7-1.2,1.7-1.2s0.7-0.3,1.7-2.9c0.8-2.1-0.3-5.8,0.2-6.4c0.9-1.2,6.8,0.3,9.4,4.3c1.9,3,0.2,7.8,0.2,7.8
			s1.7-0.7,1.9-5.1c0.2-5.2-5.7-8.1-5.7-8.1s3.6,0.7,5.8,4.5c2.2,3.7,0.9,8.3-2.3,12.4c-3.1,4-10.2,3.9-13,3.3c0,0,1.4,1.6,1.7,2.9
			c0.7,2.7-0.3,4.3-1.3,4.9c-0.9,0.5-6,0.9-7.6,0.9c-1.6,0.1-2.3,0-4.7,0.2s-5-0.3-6.1-0.3c-0.6,0-1.1,0.2-2.6,0.6
			c-2.4,0.6-2.3-0.1-2.3-0.1s0.4-1.2-2.6-0.7c-2.1,0.3-3.7,0.3-3.7,0.3s-1.7,1-4.7,0.5c-3-0.6-3.2-2.4-3.2-2.4s2.3,1.1,4.7,1
			c2.4-0.1,3.6-1.4,3.6-1.4s0.6,1,3.1,0.2c1.4-0.5,2-1,2-1s4.8,0.3,5.3,0.4c1.7,0.2,5.3,0.5,5.3,0.5s0.4,0,3.4,0.2
			c2.1,0.1,3.7,0.3,3.8-0.3c0.1-0.5-1.5-1.1-1.5-1.1s2.9,0.4,4.3,0.4c1,0,1.9-0.2,2.5-0.5c0.6-0.4,0.7-2,0.1-2.7
			c-0.8-0.9-0.5-0.8-1.6-1.3c-2.6-1.2-2.2-1.7-2.2-1.7s-0.7-1,0.9-0.2c0.8,0.4-0.2-1.1-0.2-1.1S178,159.2,177.2,158.9L177.2,158.9z
			 M188.2,144.7c0,0,0.4,5.4-1.2,7.9c-1.6,2.5-5.4,5.6-5.4,5.6c4.1,1.6,11.6-0.6,12.8-4.8c1.2-4-0.6-7.4-2.4-8.5
			C190,143.8,188.2,144.7,188.2,144.7"/>
		<path class="st2" d="M165.8,154.5c0,0,0.5,0.2,1.4,0.5c0.7,0.2,3.6,1.3,3.6,1.3s1.2,0.2,1.9-0.6c1-1-2.6,0.1-2.4-1.1
			c0-0.4-0.6-0.8-0.6-0.8s-1.1-0.2-1.9-0.2C166.1,153.8,165.8,154.5,165.8,154.5"/>
		<path class="st2" d="M140.2,155.8c0,0,2.9-0.1,5.9-0.9c2.9-0.8,3.5-1.5,4.8-1.9c1-0.3,2.9-0.2,2.9-0.2s-0.5,0.2-0.7,1
			c-0.2,0.8,0.2,1.4,0.2,1.4s1.1-0.4,1.9-0.3c0.8,0.2,1,0.7,1,0.7s-0.8,1.3,0.3,1.7c1.1,0.4,2.5,0.4,4.8,1.1c2.3,0.8,3.7,1,5.5,1.4
			c1.8,0.4,3.7,1,3.7,1s0.3,0.3-0.4,0.6c-0.7,0.4,1.7,1.1,1.7,1.1s0.2,0.2-1.4,0c-1.4-0.1-1.6,0-3.4-0.4c-2.7-0.6-3.6-0.6-3.6-0.6
			s-1.1-0.2-2.5-0.3c-0.8,0-3.3-0.2-5.9-0.5c-2.6-0.3-4.7-0.8-6.1-1.3c-1.5-0.6-3.2,0-3.2,0s-0.7-0.7-2-0.2c-1.4,0.6-1.9,2-1.9,2
			s0.7-0.4,1.4-0.4c0.7,0,1.2,0.2,1.2,0.2s0.4,0.8-0.3,1.4c-0.7,0.6-1.8,1.1-1.8,1.1s-0.1-0.4-2.8-0.4c-2.8,0-3.1-0.4-4,1
			c-1,1.4-0.5-2.2-0.5-2.2s0.7-1.1,4.4-2.8c3.7-1.8,6.7-1.6,8.1-1.6c1.4-0.1,3.2,0.1,5.1,0.4c1.1,0.2,4,1.2,4,1.2s-1.3-1.2-3.9-2.1
			c-2.2-0.8-8.2-0.8-11.1-0.1c-2.9,0.7-4,0.1-3.7-0.4S140.2,155.8,140.2,155.8"/>
		<path class="st2" d="M141.7,161.2c0,0,1.3-0.5,2.2-0.2c0.4,0.1,0.5,0.2,0.8,0.5c0.3,0.3,0.9,0.8,0.9,0.8s-3.2,0.3-2.5,1.8
			c0.7,1.5,2.4,1.3,2.4,1.3s-0.9,0.4-1.2,1.4c-0.3,1,0.7,1.5,0.7,1.5l2.6,1l-1.6,0.6c0,0-1.1-0.5-1.3,0.2c-0.3,0.7-0.4,1.3-0.4,1.3
			s-1.1-1.1-1.2-2.5c-0.2-1.4,0.9-2.5,0.9-2.5s-0.8-0.7-1.5,0.1c-0.7,0.7-0.8,1.6-0.8,1.6s-1.1-1-1.3-2.4c-0.2-1.4,0.9-2.4,0.9-2.4
			L141.7,161.2z"/>
		<path class="st2" d="M118.4,126.8c-0.8,5.5-2.8,8-3.3,9.9c0,0-0.5-1-1.6-1.8c-1.1-0.7-2.9,0.4-2.9,0.4s-1.7-2.2-5.5-3.8
			c-3.1-1.3-2.7,1.4-2.7,1.4s-2.5-2.8-3.5-3.9c-1.3-1.4-2.7-0.8-3.9-0.5c-1.2,0.4-4.8-0.2-4.8-0.2s-2.7-0.2-2.7-2.8
			c0-1.8,2-2.5,2-2.5s-1.7-1-1.5-2.9s2.2-1.8,2.2-1.8s-1.5-1.2-1.4-2.2c0.1-1,1.7-2.6,2.8-2.7c1.1-0.2,5.2,2,7.1,2.5
			c1.7,0.4,0.9,2.6,4,3.9c1.3,0.5,3.5,1.1,6.3,1.1c2.8,0,3.8,1.1,7,1.8c3.2,0.8,3.5-0.5,3.5-0.5S118.6,124.8,118.4,126.8
			L118.4,126.8z M93,114.4c-1-0.4-1.8-0.3-2.6,0.4c-0.3,0.6-0.3,1.8,0.4,2c2.2,0.4,1.8-1.4,4-1.1C94.1,115.4,93.5,115,93,114.4
			L93,114.4z M90.7,123.5c-0.8,0.2-2,1.3-1.9,2.5c0.4,1.1,0.7,1.4,2,1.6c0.6-0.2,1.1-0.3,1.2-0.7c0-0.5-0.3-0.3-0.1-0.5
			c0.8-0.7,1.6-0.5,2.3-0.6c-1.1-1.1-1.6-1-2.1-1.4c-1.3-1.2-0.4-1.8,0.2-2.3c0.4-0.2,1.8-0.1,2.5,0.2l-2.3-2.7
			c-1-0.6-2.7-0.9-3.2,0.6c-0.1,0.4-0.2,1.4,0.3,1.7C90.4,122.7,90.8,122.9,90.7,123.5L90.7,123.5z M116,131c0,0-0.5-2,0.3-3.7
			c0.7-1.7,2.2-3,2.2-3c-1.6,0.9-2.3,0-6.3-1.1c-4-1.2-6.1-0.8-7.7-0.9c-1.6-0.1-5.3-2.3-5.9-2.8s-0.5-0.9-0.8-2.1
			c-0.3-0.8-1.4-1.2-2.1-1c-0.8,0.2-1,0.7-1,0.7s-0.4,0.1-1.2,0.3c-0.8,0.2-1.3,1.2-1.3,1.2s0.7-0.3,1.4-0.3
			c0.6,0.1,1.1,0.6,1.1,0.6c0.1,1.8-0.1,1.8,0.6,3c0.9,1.6,3,3.4,3,3.4c2,1.3,4.7,2.4,5.1,2.6c0.3,0.1,1.9,0.9,3.3,1.4
			c1.6,0.6,2.9,2.3,2.9,2.3s0-1.7,2.4-1C113.7,131.1,116,131,116,131"/>
		<path class="st2" d="M141.1,112.1c0,0,0.6,3,0,4.4c-1,2.6-2.5,3.2-3,5.7c-0.5,3,0.4,6.4,0.9,8.1c0.5,1.7,1.1,3.8,0.5,5.2
			c-0.6,1.4-1.8,2.9-2.6,4.6s-1.3,4-1.3,4s1.2-2.7,2-4c1-1.5,2.5-3.3,3.1-4.9c1.3-3.8-0.7-6.2-1.1-8.4c-0.5-2.7,0.2-4.9,1.7-6.8
			c1.4-1.8,1.8-3.1,2.1-4.9c0.4-2.1,0.4-3.8,0.4-3.8L141.1,112.1z"/>
		<path class="st2" d="M79.1,190.1c0,0,60.6-1.5,76-2.9c4.2-0.4,11.5-0.6,16.1-1.1c4.6-0.5,11.4-0.8,11.4-0.8s-2.1,1-7.3,1.4
			c-5.9,0.5-16.9,1.9-22,1.9c-6.2,0-26.9,1.5-33.1,1.8C94.7,191.7,79.1,190.1,79.1,190.1"/>
		<path class="st2" d="M114.5,42.1l-15.5,69.2c0,0-0.1,0.9,0.4,1.1c0.5,0.2,0.8,0.3,1.3,0.6c0.6,0.3,1,0.8,1,0.8s-1.2,0-2.5-0.5
			c-1.3-0.4-1.5-1.3-1.5-1.3l15.8-69.7c0.5-3,1.6-9.3,1.7-10.8c0.2-1.6-0.2-1.2-0.8-0.5c-0.6,0.8-2.5,5.6-3.4,9.7
			c0,0-15.2,63.6-15.5,65.4c-0.3,1.8-0.1,2.6-0.9,4c-0.9,1.5-1.6,1.7-2.7,1.6c-0.8-0.1-1.8-0.1-2,0.5c-0.1,0.4,0.5,0.7,1.4,0.8
			c0.9,0.1,2,0.1,2.9-0.2c1.1-0.3,1.6-0.5,1.6-0.5s0.3,0.6,0.6,0.9c0.5,0.5,1,0.9,1.6,1.2c0.5,0.2,2.1,0.7,3,0.6
			c1-0.1,1.2,0.5,1.3,0.9c0.2,0.4,0.9,0.8,1.9,0.4c0.7-0.3,0.7-1.6,0.1-2.1c-0.8-0.7-1.9,0.1-2.1-0.3c-0.2-0.4,0.8-1.4,2.3-0.9
			c1.2,0.4,2,1.6,1.4,3.2c-0.6,1.7-2.4,1.7-3.4,1.5c-1-0.2-1.6-0.9-1.9-1c-0.4-0.1-1.1-0.2-1.1-0.2s-6.7-2.7-7.2-2.8
			c-0.6-0.1-2,0.2-2.5,0.3c-0.5,0.1-0.9,0.7-2.1,0.5c-0.7-0.1-3-1-2.3-3.1c0.5-1.5,1.6-2.2,3.1-1.9c0.8,0.1,0.9,0.9,1.6,1
			c0.9,0.1,1.6,0.1,1.9-0.9c0.3-1,16.6-65.8,16.6-65.8c2.3-7.7,4.1-12.4,5.7-14.4c1.6-2,2.3-3.7,2,0.7
			C115.9,34.5,115.5,37.5,114.5,42.1L114.5,42.1z M87.7,112.7c0.5,0,0.9-0.4,0.9-0.8c0-0.5-0.4-0.8-0.9-0.8c-0.5,0-0.9,0.4-0.9,0.8
			C86.8,112.3,87.2,112.7,87.7,112.7"/>
		<path class="st2" d="M122.7,148.6c0,0,0.3-5,2.3-10.8c0.8-2.4,2.5-5.2,2.9-7.7c0.4-2.8-0.4-6.2-0.2-7.9c0.2-1.7,0.3-3.3,0.3-3.3
			h1.1c0,0-0.5,3.8-0.2,5.4c0.3,1.6,0.8,4.5,0.2,6.6c-0.9,3.3-2.7,5.5-3.4,8.2c-0.9,3.3-1.4,7.1-1.5,10.7L122.7,148.6z"/>
		<path class="st2" d="M84.6,112.3c0.6,0,1-0.4,1-1c0-0.5-0.5-1-1-1c-0.6,0-1,0.4-1,1C83.5,111.9,84,112.3,84.6,112.3"/>
		<path class="st2" d="M92,134.8c0.7,0,1.3-0.6,1.3-1.3c0-0.7-0.6-1.3-1.3-1.3s-1.3,0.6-1.3,1.3C90.6,134.2,91.2,134.8,92,134.8"/>
		<path class="st2" d="M90.4,128.1c0,0,0.4-0.3,0,0.2c-0.4,0.5-1.2,1.4-1,2.4c0.2,1,1,2.2,2.7,2.4c1.7,0.2,3-0.5,3.4-2
			c0.3-1.5-0.2-2.1-0.6-2.5c-0.4-0.4-2.1,0.2-2.1,0.2c0.7,0.5,1.1,1.2,1,1.9c-0.1,0.7-0.8,1.1-1.4,1c-0.6-0.1-1.4-0.6-1.1-1.5
			c0.3-1,1.4-1.4,1.4-1.4s0-0.5,0.3-0.7C93.2,127.7,90.4,128.1,90.4,128.1"/>
		<path class="st2" d="M106.6,117.6c0.8,0,1.4-0.6,1.4-1.4c0-0.8-0.6-1.4-1.4-1.4s-1.4,0.6-1.4,1.4
			C105.2,116.9,105.9,117.6,106.6,117.6"/>
		<path class="st2" d="M99.9,159.2c0,0,1.6,3.5,3.3,5.6c1.6,2.1,2.7,3.7,3.7,5.5c1,1.7,4.1,6.4,6.5,9.7c2.4,3.2,6.7,8.1,6.7,8.1
			s-5.6-8.9-7.4-11.2c-1.7-2.3-3.3-5.1-5-7.2C106.2,167.6,100.9,160.1,99.9,159.2"/>
		<path class="st2" d="M114.2,159c0,0,6.7,8.1,10,12c3.3,3.9,5.1,7.1,6.7,9c1.6,1.9,6.3,7.4,6.3,7.4s-2.3-5.2-5.1-8.2
			c-2.6-2.8-4.8-6.3-6.9-8.8c-2.1-2.5-5.4-6.9-6.8-8.1C117,161.2,114.9,158.9,114.2,159"/>
		<path class="st2" d="M135.5,165.5c0,0,8.3,10.3,9.7,11.7c1.4,1.4,5.9,7.7,5.9,7.7s4.8,4.8,1.7,0.3c-0.8-1.1-4.9-6.4-6.7-8.7
			s-3.9-4.8-5.7-6.8C138.4,167.5,135.8,165.9,135.5,165.5"/>
		<path class="st2" d="M155.9,170.1c0,0,1.3,2.5,2.7,3.8c1.4,1.3,4.1,4.4,5.1,5.6c0.9,1.1,6.3,5.7,6.3,5.7s-2.1-3-3.6-4.5
			c-1.5-1.5-3.1-3.1-4.3-4.6C160.7,174.8,156.7,170.8,155.9,170.1"/>
		<path class="st2" d="M170.6,169.6c0,0,4.1,4.4,6.1,6.7c2,2.3,6.8,6.3,6.8,6.3s-1-2.3-2.5-3.6c-1.5-1.3-4.4-4.5-5.5-5.9
			c-1.2-1.5-3-3.2-3-3.2L170.6,169.6z"/>
		<path class="st2" d="M103.6,180.1c0,0,6.5-0.7,9.4-0.8c2.9-0.2,13.2-0.3,17-0.3c3.8,0,19-1.2,24.3-1.4c5.3-0.2,13.9-1.2,16-1.2
			s19.9-0.4,19.9-0.4s-2.8,0.8-8.3,1.2c-1.2,0.1-12.6,1-14.4,1c-1.8,0-6.9,0.1-6.9,0.1s-5,0.5-7.6,0.3c-2.5-0.2-7.4,0.6-7.4,0.6
			s-2.4,0-5.5,0.3c-3.1,0.3-8.6,0-9.2,0.2c-0.6,0.2-4.9,0.6-8.6,0.7c-3.8,0.1-7.1-0.1-7.6-0.2c-0.4-0.2-3.4,0.2-5.2,0.2
			S103.6,180.1,103.6,180.1"/>
		<path class="st2" d="M141.1,168.7c0,0-8.2,0-9.9,0c-1.7,0-7.7,0.5-7.7,0.5s-5.3-0.2-8-0.2c-2.7,0-14.8,0.7-14.8,0.7
			s3.9,0.5,14.9,0.2c2.7-0.1,8.1,0,9.2,0c1.1,0,6.1-0.1,7.7-0.2C141,169.2,141.1,168.7,141.1,168.7"/>
		<path class="st2" d="M121.5,161c0,0-8.3,0.1-11.6,0.3c-3.3,0.2-9.9,0.2-9.9,0.2s2-0.5,5.2-0.6c3.2-0.2,6.1,0,7.9-0.2
			C116.2,160.5,121.5,161,121.5,161"/>
		<path class="st2" d="M68.2,132.3c-0.1-0.1-0.3,0-0.4,0l-0.2,0c-0.1,0-0.1,0.1-0.1,0.2l0,0.1c-0.3,0.4-0.4,1-0.1,1.4
			c0.4,0.4,1.1,0.4,1.1,1.2l0,0.1l0.1-0.3l-0.1,0.1c-0.1,0.1-0.1,0.3-0.2,0.4l-0.1,0.2c-0.1,0.2,0,0.3,0,0.5l0,0.1
			c0.3,0.8,1.1,1.1,1.9,1.4c-0.2,0.4-0.5,0.8-0.5,1.2l0,0.2c0,0.1,0,0.3,0.1,0.4l0.1,0.1c0.2,0.5,0.8,0.7,1.3,1.1
			c0.1,0.1,0,0.3-0.1,0.5c-0.4,0.7-0.1,1.4,0.5,1.9c0.4,0.3,0.8,0.4,1,0.8c0.3,0.6-0.2,1.2-0.2,1.8c0.1,0.9,0.8,1.6,1.7,1.6
			c0.1,0,0.2,0.1,0.2,0.1c-0.1,0.5-0.5,0.9-0.4,1.5c0.1,0.9,0.9,1.2,1.5,1.6c-0.1,0.2,0.1,0.5-0.2,0.7c-0.2,1,0.5,2.2,1.7,2.2
			c0.1,0,0.2,0.2,0.5,0.2c0.1,0.1,0.2,0,0.3-0.1c0-0.1,0-0.2-0.1-0.2c-0.4-0.5-1-0.9-1.1-1.6c0.5-1,0.2-2.3-1-2.7
			c-0.1,0-0.1-0.1-0.1-0.2c0.3-0.7,0.5-1.4,0.2-2.1c-0.3-0.5-0.8-0.7-1.4-0.8c0,0-0.1-0.2-0.1-0.3c0.1-0.6,0.3-1.2,0.1-1.8
			c-0.2-0.9-0.9-1.3-1.6-1.7c0,0-0.1,0-0.2,0.1c0.6-1.1,0.2-2.7-1.1-3l-0.3-0.3l0.1,0.4l0-0.2c0.3-0.7,0.6-1.6-0.2-2.2
			c-0.4-0.3-1-0.3-1.4-0.7l-0.2-0.4l0.1,0.3l0.1-0.2c0,0,0,0,0,0l0.2-0.3c0-0.1,0.1-0.2,0.1-0.3l0-0.2c-0.1-0.8-0.7-1.3-1.5-1.5
			c-0.2,0-0.2-0.4-0.2-0.6l0.1-0.3l-0.1,0.1l0.2-0.1c-0.2-0.3,0.1-0.2,0.2-0.3C68.2,132.5,68.2,132.4,68.2,132.3
			C68.2,132.4,68.2,132.3,68.2,132.3L68.2,132.3z"/>
		<path class="st2" d="M74.9,131c-0.1-0.1-0.1,0.1-0.3,0.2l-0.2,0c-0.1,0-0.1,0.1-0.1,0.2l0,0.1c-0.3,0.4-0.4,1-0.1,1.4
			c0.4,0.4,1,0.2,0.9,1l0,0.1l0.1-0.3l-0.1,0.1c-0.1,0.1-0.1,0.3-0.2,0.4l-0.1,0.2c-0.1,0.2,0,0.3,0,0.5l0,0.1
			c0.3,0.8,1.1,1.1,1.9,1.4c-0.2,0.4-0.5,0.8-0.5,1.2l0,0.2c0,0.1,0,0.3,0.1,0.4l0.1,0.1c0.2,0.5,0.8,0.7,1.3,1.1
			c0.1,0.1,0,0.3-0.1,0.5c-0.4,0.7-0.1,1.4,0.5,1.9c0.4,0.3,0.8,0.4,1,0.8c0.3,0.6-0.2,1.2-0.2,1.8c0.1,0.9,0.8,1.6,1.7,1.6
			c0.1,0,0.2,0.1,0.2,0.1c-0.1,0.5-0.5,0.9-0.4,1.5c0.1,0.9,0.9,1.2,1.5,1.6c-0.1,0.2,0.1,0.5-0.2,0.7c-0.2,1,0.5,2.2,1.6,2.2
			c0.1,0,0.2,0.2,0.5,0.2c0.1,0.1,0.2,0,0.3-0.1c0-0.1,0-0.2-0.1-0.2c-0.4-0.5-1-0.9-1.1-1.6c0.5-1,0.2-2.3-1-2.7
			c-0.1,0-0.1-0.1-0.1-0.2c0.3-0.7,0.5-1.4,0.2-2.1c-0.3-0.5-0.8-0.7-1.4-0.8c0,0-0.1-0.2-0.1-0.3c0.1-0.6,0.3-1.2,0.1-1.8
			c-0.2-0.9-0.9-1.3-1.6-1.7c0,0-0.1,0-0.2,0.1c0.6-1.1,0.2-2.7-1.1-3l-0.3-0.3l0.1,0.4l0-0.2c0.3-0.7,0.6-1.6-0.2-2.2
			c-0.4-0.3-1-0.3-1.4-0.7l-0.2-0.4l0.1,0.3l0.1-0.2c0,0,0,0,0,0l0.2-0.3c0-0.1,0.1-0.2,0.1-0.3l0-0.2c-0.1-0.8-0.6-1.2-1.4-1.3
			c-0.2,0-0.2-0.4-0.2-0.6l0.1-0.3l-0.1,0.1l0.2-0.1c-0.2-0.3,0.1-0.2,0.2-0.3c0,0,0,0,0-0.1C75.2,131.1,75,131,74.9,131"/>
		<path class="st2" d="M81.1,130.2c-0.8,0.9-0.3,2.4,0.8,2.7c0.4,0.5-0.1,0.6-0.2,1.1l0,0.1c0,0.1,0,0.2,0.1,0.3l0,0.1
			c0.1,0.6,0.6,1,1.1,1.3l0.2,0l-0.2-0.1l0,0c0.3,0.2,0.8,0.6,0.6,0.9c-0.6,1,0,2.2,0.9,2.6l0.1,0.1l-0.3-0.3l0.3,0.3
			c0.2,0,0.3,0.2,0.3,0.4c0,0.2-0.1,0.4-0.2,0.7c-0.4,1,0.5,1.9,1.3,2.5c0.1,0.1,0.2,0.2,0.2,0.4c-0.2,0.9-0.6,1.9,0.3,2.5
			c0.6,0.4,0.9,0.9,1.2,1.5c0,0.2,0.2,0.3,0.3,0.3c0.2,0,0.3-0.1,0.3-0.3c0.2-0.6,0.2-1.4-0.3-1.9c-0.3-0.3-0.6-0.5-1-0.7
			c-0.1-0.1-0.2-0.4-0.1-0.6c0.3-0.8,0.3-1.7-0.2-2.4c-0.3-0.3-0.8-0.5-1.1-0.9c-0.4-0.7,0.1-1.4,0.1-2.1c0-0.2-0.1-0.4-0.2-0.5
			l0.1,0.1c-0.1-0.1-0.2-0.2-0.3-0.3l-0.3-0.2c-0.4-0.2-0.8-0.5-0.9-0.9c-0.2-0.7,0.4-1.3,0.1-1.9l0-0.2c-0.1-0.1-0.2-0.2-0.3-0.2
			l-0.2-0.1c0,0,0.1,0,0.1,0c-0.2-0.2-0.4-0.1-0.6-0.3l-0.3-0.3l0.1,0.3v-0.2c-0.1,0-0.2-0.1-0.2-0.2c0.3-0.9,0.1-1.5-0.8-2
			c-0.4-0.2-0.3-0.8-0.1-1.3c0.1-0.2,0-0.3-0.2-0.4C81.4,130,81.2,130,81.1,130.2L81.1,130.2z"/>
		<path class="st2" d="M61.8,133.5c-0.8,0.9-0.3,2.4,0.8,2.7c0.4,0.5,0,1-0.2,1.5l0,0.1c0,0.1,0,0.2,0.1,0.3l0,0.1
			c0.1,0.6,0.6,1,1.1,1.3l0.2,0l-0.2-0.1l0,0c0.3,0.2,0.8,0.6,0.6,0.9c-0.6,1,0,2.2,0.9,2.6l0.1,0.1l-0.3-0.3l0.3,0.3
			c0.2,0,0.3,0.2,0.3,0.4c0,0.2-0.1,0.4-0.2,0.7c-0.4,1,0.5,1.9,1.3,2.5c0.1,0.1,0.2,0.2,0.2,0.4c-0.2,0.9-0.6,1.9,0.3,2.5
			c0.6,0.4,0.9,0.9,1.2,1.5c0,0.2,0.2,0.3,0.3,0.3c0.2,0,0.3-0.1,0.3-0.3c0.2-0.6,0.2-1.4-0.3-1.9c-0.3-0.3-0.6-0.5-1-0.7
			c-0.1-0.1-0.2-0.4-0.1-0.6c0.3-0.8,0.3-1.7-0.2-2.4c-0.3-0.3-0.8-0.5-1.1-0.9c-0.4-0.7,0.1-1.4,0.1-2.1c0-0.2-0.1-0.4-0.2-0.5
			l0.1,0.1c-0.1-0.1-0.2-0.2-0.3-0.3l-0.3-0.2c-0.4-0.2-0.8-0.5-0.9-0.9c-0.2-0.7,0.4-1.3,0.1-1.9l0-0.2c-0.1-0.1-0.2-0.2-0.3-0.2
			l-0.2-0.1c0,0,0.1,0,0.1,0c-0.2-0.2-0.4-0.1-0.6-0.3l-0.3-0.3l0.1,0.3v-0.2c-0.1,0-0.2-0.1-0.2-0.2c0.3-0.9,0.1-1.9-0.8-2.4
			c-0.4-0.2-0.3-0.8-0.1-1.3c0.1-0.2,0-0.3-0.2-0.4C62.1,133.3,61.9,133.3,61.8,133.5L61.8,133.5z"/>
		<path class="st2" d="M68.4,150.6c-0.2,0.6,0.1,1.2,0.6,1.5c0.2,0.2,0.3,0.5,0.4,0.9c0-0.1-0.1-0.2-0.2-0.2c0,0.1-0.1,0.3-0.1,0.4
			l-0.1,0.2c0,0.1,0,0.2,0,0.3l0.1,0.2c0.3,0.7,0.9,1.1,1.5,1.6c0.2,0.2,0.6,0.2,0.8-0.1c0.2-0.2,0.2-0.6-0.1-0.8
			c-0.3-0.3-0.7-0.6-1-0.9l-0.2-0.4l0,0.3l0.1-0.2c0.4-0.8-0.1-2.1-1-2.2c-0.1,0-0.2,0.2-0.4-0.1c-0.1-0.2-0.2-0.4-0.2-0.7
			C68.5,150.5,68.5,150.5,68.4,150.6C68.4,150.5,68.4,150.5,68.4,150.6L68.4,150.6z"/>
		<path class="st2" d="M73.2,159.3c-0.1,0-0.2,0-0.2-0.1l0-0.1c-0.1,0-0.1,0-0.2,0.1l-0.2,0.2c-0.8,0.9,0,1.9,0.4,2.7
			c0,0.1-0.2,0.3-0.4,0.4c-0.6,0.4-0.7,1.4-0.1,1.9c0.4,0.4,1,0.7,0.7,1.2c-0.3,0.6-1,1-0.9,1.8c0,0.5,0.4,0.9,0.7,1.4
			c0.4,0.7-0.5,1.3-0.7,2c-0.1,0.6,0.1,1.3,0.7,1.6c0.3,0.8-0.6,1.2-0.8,1.9l-0.1,0.1c-0.1,0.1-0.1,0.2-0.1,0.3l0,0.2
			c0,0.2,0.2,0.4,0.3,0.6c0.2,0.3,0.7,0.5,0.6,0.9c-0.1,0.7-0.6,1.1-1.1,1.5c-0.2,0.2-0.3,0.5-0.2,0.7c0.2,0.2,0.5,0.3,0.7,0.1
			c1-0.4,1.7-1.3,1.7-2.4c0-0.6-0.4-1.2-0.9-1.5l-0.1-0.3l-0.1,0.3l0.1-0.3c0.3-0.6,0.9-1.2,0.9-1.9c0-0.7-0.4-1.2-0.8-1.7
			c0.5-0.7,0.8-1.5,0.7-2.3c0-0.7-0.8-1-0.8-1.7c0-0.4,0.5-0.7,0.6-1.2c0.3-0.9-0.4-1.7-0.5-2.5c0.3-0.5,0.6-1,0.3-1.6
			c-0.3-0.6-1-1.1-0.7-1.9l0.1-0.2l-0.2,0.1l0.1,0c0.1,0,0.1-0.1,0.2-0.1C73.3,159.5,73.3,159.3,73.2,159.3
			c-0.1-0.2-0.2-0.2-0.3-0.1L73.2,159.3z"/>
		<path class="st2" d="M79.7,158.8c-0.3-0.1-0.5,0-0.7,0.2c-0.8,0.9-0.4,2.1,0.3,3c0.1,0.1,0,0.3,0,0.4c-0.6,0.8-1,1.7-0.6,2.7
			c0.2,0.5,0.6,0.8,0.9,1.3c0.1,0.1,0,0.3-0.1,0.4c-1,0.9-1.1,2.5,0,3.3c0.2,0.5,0.1,1-0.3,1.2l-0.1,0.2c-0.1,0.1-0.1,0.2-0.1,0.3
			l0,0.2c-0.1,0.9,0.3,1.5,0.8,2.2c0.1,0.1,0.1,0.4,0,0.4c-0.7,0.7-1.4,1.4-1.1,2.4c0,0.3,0.3,0.6,0.6,0.6c0.3,0,0.6-0.3,0.6-0.6
			c0-0.2-0.1-0.4,0-0.5c0.3-0.6,1-1,1.1-1.7c0.1-0.8-0.3-1.3-0.7-1.9c-0.1-0.2-0.1-0.4-0.1-0.6l0-0.2l-0.1,0.3l0.1-0.1
			c0.7-0.5,0.8-1.4,0.6-2.2c-0.1-0.5-0.6-0.8-0.8-1.3c-0.2-0.8,0.3-1.4,0.5-2.2c0-0.1,0-0.3,0-0.4c-0.2-0.6-0.5-1.2-0.4-1.9
			c0.1-0.6,0.6-1.1,0.7-1.7c0.1-0.9-0.5-1.5-1-2.2c-0.3-0.4-0.1-0.9,0.2-1.3C79.8,158.9,79.8,158.9,79.7,158.8
			C79.7,158.8,79.7,158.8,79.7,158.8L79.7,158.8z"/>
		<path class="st2" d="M85.9,157.9c-0.3,0-0.5,0-0.7,0.3c-0.9,1.3-0.1,2.7,0.5,3.8c-0.2,0.2-0.2,0.5-0.4,0.6c-1,1-0.5,2.7,0.3,3.6
			l0-0.1v0l0,0c0.1,0.2,0.3,0.3,0.2,0.6c-0.2,0.7-0.8,1.2-0.9,2c0,0.6,0.3,1,0.5,1.5c0.2,0.3,0.4,0.7,0.2,1
			c-1.2,1.1-0.3,2.7,0.4,3.7c0,0.7-0.2,1.3-0.7,1.8c-0.2,0.1-0.2,0.4-0.1,0.5c0.1,0.2,0.4,0.2,0.5,0.1c0.4-0.1,0.7-0.3,1-0.6
			c0.8-0.9,0.7-2.3-0.1-3.2c-0.7-0.7,0-1.5,0.1-2.3c0.1-0.7-0.4-1.4-0.8-2c-0.2-0.3-0.3-0.7-0.1-1c0.3-0.8,0.9-1.5,0.7-2.3l0-0.1
			c-0.1-0.1-0.2-0.3-0.3-0.3l0-0.1c-0.1-0.5-0.5-1-0.2-1.5c-0.1,0.1-0.1,0.1-0.2,0.2c0.9-0.6,1.4-1.8,1-2.8
			c-0.4-1.1-1.9-2.1-1.1-3.3c0,0,0-0.1,0-0.1C86,157.9,86,157.9,85.9,157.9L85.9,157.9z"/>
		<path class="st2" d="M93.3,159.8c-0.7,0-0.9,0.7-1,1.3c-0.1,0.6,0.2,1.1,0.6,1.6c0.1,0.1,0.2,0.3,0.1,0.4c-0.2,0.6-0.8,1-0.9,1.6
			c-0.1,0.9,0.5,1.6,1.1,2.2l0.1,0.1l-0.3-0.3l0,0.1c0.1,0.8-0.8,1.2-1,1.9c-0.3,0.9,0.4,1.5,0.8,2.2c0,0.1,0.1,0.2,0,0.2
			c-0.5,0.6-0.9,1.1-0.8,1.9c0.1,0.9,0.8,1.4,1.2,2.1c-0.1,0.9-0.3,1.8-1.2,2.3c-0.1,0.1-0.1,0.2,0,0.2c0.1,0.1,0.2,0.1,0.2,0.1
			c0.6-0.3,1.2-0.6,1.6-1.1c0.5-0.6,0.8-1.5,0.4-2.3c-0.3-0.5-0.7-0.8-1-1.3c-0.1-0.1-0.1-0.3,0-0.5c0.3-0.5,0.6-0.9,0.7-1.5
			c0.1-0.7-0.5-1.1-0.8-1.7c-0.1-0.1-0.2-0.3-0.1-0.4c0.6-0.8,1.3-1.6,1-2.6l0,0c0-0.1-0.1-0.2-0.3-0.3l0-0.1
			c-0.2-0.3-0.1-0.7-0.6-0.8c0.5-0.7,1.2-1.4,1.1-2.3c-0.1-0.7-0.6-1.2-1.1-1.7c-0.3-0.3-0.1-0.8,0-1.2c0,0,0-0.1,0-0.1
			C93.4,159.8,93.3,159.8,93.3,159.8L93.3,159.8z"/>
		<path class="st2" d="M64,180.6c0,0,5-0.4,7.9-0.7c3.1-0.4,9.2,0,14.5-0.2c5.8-0.2,13.4-0.9,13.4-0.9s0.7-5.7,0-9.3
			c-0.6-3.6-0.2-11.5-0.2-11.5s1.2,4.8,1.4,7.7c0.2,2.9,0.5,6.8,0.7,8.6c0.2,1.8,0.1,1.7,0.4,3.6c0.3,1.9,0.4,4.5,0.4,4.5
			s-3.4,1.2-5.7,1c-2.3-0.1-8.2-0.5-10.9,0c-2.7,0.5-4.7,0.8-8.4,0.6c-3.7-0.2-7.4-0.1-8,0.4c-0.6,0.5-2-1.4-2-1.4s5.5-0.8,8.6-0.6
			c3.1,0.2,10.1-0.4,12.1-0.6c2-0.2,5.6,0.4,7.3,0.3c4.2-0.4,4.8-1.4,4.8-1.4s-3.3-0.2-7.7,0c-4.3,0.2-7.9,0.4-11.2,0.4
			c-3.3,0-8.5,0-10.6,0.2c-2,0.2-4.9,0.6-4.9,0.6L64,180.6z"/>
		<path class="st2" d="M79.7,183.7c0,0,0.3,1.5,0.6,2.9c0.6,3.1,4.1,5.7,4.1,5.7l1.9,0.6l-0.5-1.4c0,0-3.3-2.8-3.8-4.8
			c-0.3-1.1,0-3.1,0-3.1L79.7,183.7z"/>
		<path class="st2" d="M96.4,182.8c0,0,0.2,1.6,0.8,3.9c0.6,2.4,4.5,5.6,4.1,5c0.5,0.8,1.7,1.4,1.7,1.4l1.1-0.1l-0.4-1.3
			c0,0-3.8-3.1-4.4-4.6c-1.5-3.5-0.3-3.5-0.8-4.4C98.1,182.1,96.4,182.8,96.4,182.8"/>
		<path class="st2" d="M53.2,131.9l0.2,0.7c0,0,5.4-1.2,8.6-1.8c3.3-0.6,4.6-0.5,10-1.6c5.4-1.1,12.2-1.7,12.2-1.7s2.7,5.4,3.9,8
			c1.2,2.6,4.6,8.8,4.6,8.8s-0.7-4.6-1.7-6c-1-1.5-3-5.6-3.7-7.3c-0.7-1.7-2.2-5.8-2.2-5.8s-4,1.1-4.3,1.1c-0.3,0-0.4-0.2-0.4-0.2
			s0.1-2.2-0.2-3.1c-0.3-1-4.1-7-4.1-7l-1.5-1l0.6,2.2c0,0,2.4,3.3,2.9,5c0.6,1.6,0.6,4.4,0.6,4.4l-15,2.7c0,0-1.1-3.5-2.5-6.1
			c-0.5-0.8-3.3-2.1-3.6-2.6c-0.3-0.4-0.8-1.1-0.8-1.1l-0.8-0.6c0,0-0.6,1.7,0,2.5c1.1,1.5,2.6,1.3,3.6,2.7c1.7,2.6,2.1,5.4,2.1,5.4
			l-7.5,1.7L53.2,131.9z"/>
		<path class="st2" d="M83.8,129.2l0.4-0.7c0,0-3.1,0.4-4.4,0.5c-1.3,0.1-6.3,1-8.8,1.6c-2.6,0.6-7.3,0.8-10.1,1.4
			c-2.8,0.5-7.8,2-7.8,2s3.2,6.5,4.2,9.6c1,3.2,1.4,8.4,3.1,11.5c1.9,3.5,5.3,4,5.3,4s3.1-1.4,6.9-1.7c3.9-0.3,7.5-1.7,11.1-2
			c3.6-0.3,6.4-1.4,6.4-1.4s-1.7-1.4-4.1-0.9c-2.4,0.5-8.2,2.2-9.6,2.5c-1.6,0.3-5,0.6-6.5,1.1c-1.1,0.3-3.7,0.8-3.7,0.8
			s-2.8-0.6-4.4-4.8c-1.5-3.9-1.6-5.4-3.4-9.5c-1.4-3.1-3.7-8.6-3.7-8.6s3-0.7,5-1.2c2-0.5,2.4-0.1,7.7-1.2
			c5.4-1.1,10.5-2.1,12.9-2.4C81.4,129.6,83.7,129.3,83.8,129.2"/>
		<path class="st2" d="M66.3,158.7c0,0-0.4,3.2-0.3,5.4c0.2,4.6,2.1,7.4,1.6,10.4c-0.5,3-2.2,6.2-2.2,6.2l-1.1-0.6
			c0,0,1.5-4.1,1.3-6.5c-0.2-2.3-1.3-6.8-1.2-9.2c0.1-2.4,0.7-5.5,0.7-5.5L66.3,158.7z"/>
		<path class="st2" d="M139.9,87c0.7-0.4,1.2-1.2,1.2-2.1c0-1.3-1.1-2.4-2.4-2.4c-1.3,0-2.4,1.1-2.4,2.4c0,0.2,0,0.5,0.1,0.7
			c-0.5-0.3-1.4-0.4-2.4-0.1c-1,0.3-1.9,1-1.9,2.5c0,1.5,0.7,2.7,2.3,2.7c0.2,0-0.2,0,0,0c-0.1,0.1,0-0.1,0,0
			c-0.2,0.6-1,1.5-2.3,1.1c-2-0.5-1.7-2.4-1.7-2.4s-1.8,1.3-3.1,0.6c-1.5-0.9-0.7-1.5-0.7-1.5c1.9,0.2,3.4-1.9,2.8-3.5
			c-0.6-1.5-2.5-2.4-3.9-1.7c0,0,0.3-1.8-2.6-2.1c-2.1-0.3-3.4,2.4-2.8,3.7c0.3,0.6,0.5,0.8,2.4,4c1.9,3.2,2.4,5,2.4,5
			c0,0.1,0.1,0.3,0.1,0.6c0,0.4,0.1,0.7,0.1,0.7s2.7,0.3,8.8,2.4s10.3,4.4,10.3,4.4s0.1-0.2,0.1-0.6c0-0.1,0-0.2,0-0.2
			c0.1-0.4,1.3-1.7,2.6-2.5c4-2.6,5.7-3.2,7.7-4.3c1.3-0.8,0.8-3.2-0.5-3.9c-2.6-1.2-3.4,0.2-3.4,0.2c-0.9-1.2-3-1.3-4.3-0.4
			c-1.4,1-1.2,3.4,0.5,4.1c0,0,0,0.5-1.6,0.9c-1.5,0.4-2-1.9-2-1.9s-1.2,1.3-3.6,0.7c-0.7-0.2-1.4-1-1.2-2.4c0.5,0.8,1,0.7,1.9,0.6
			c1.4-0.1,2.4-1,2.4-2.5c0-1.2-0.9-2.4-2-2.7 M140.7,87.1c-0.3-0.1-0.5-0.1-0.8-0.1 M124.4,90.2c-0.6-1.4-2.7-4.5-3.1-5.5
			c-0.3-0.8,0.8-2,1.9-1.7c1,0.3,1.2,2.3,1.2,2.3s1.1-1.4,2.7-0.6c1.1,0.6,0.8,1.6,0.3,2.2c-0.7,0.7-2.4,0.2-2.4,0.2s-1.3,2,1.5,3.9
			c2.1,1.4,3.2,0,3.2,0s0.1,1.4,1.7,1.9c0.7,0.2,2.5,1.3,4-1.6c0.4-0.7,0.5-1.8,0.3-1.9c-0.2,0-0.5,0-0.9,0c-0.7,0-1.3-0.6-1.3-1.3
			c0-0.7,0.5-1.4,1.2-1.4c0.4,0,0.7,0.1,0.9,0.4l0,0c0,0,0.8,1,1.8-0.1c0.4-0.4,0-1.5,0-1.5c0,0,0,0,0,0c0-0.1-0.1-0.3-0.1-0.4
			c0-0.6,0.5-1.1,1.2-1.1c0.6,0,1.2,0.5,1.2,1.1c0,0.5-0.3,0.9-0.8,1c-0.2,0.2-0.6,0.6-0.6,1.1c-0.2,1.1,1.5,1.2,1.5,1.2l0,0.1
			c0,0,0,0,0.1,0c0.7,0,1.3,0.6,1.3,1.3c0,0.7-0.6,1.3-1.3,1.3c-0.9-0.1-1.4-1-1.9-0.9c0,0-2.7,3.5,0.9,5.1c2.1,0.9,3.5,0,3.5,0
			s0.9,1.5,2.6,1.6c2.6,0.1,3.8-2.7,3.8-2.7s-1.7-0.3-1.9-1.2c-0.2-0.7,0.2-1.6,1.4-1.7c1.9,0,2.3,1.7,2.3,1.7s0.5-1,1.5-1.2
			c1-0.2,1.8,1.3,1.1,1.8c-0.7,0.5-4.1,2.4-5.9,3.5c-2,1.3-2.3,1.5-3.2,2.2c-0.5,0.4-0.8,0.9-1.1,1.1l-1.1-0.4c0,0,0.1,0-1.9-0.8
			c-2-0.8-2.2-1-2.2-1s-1-0.5-3.3-1.3c-2.3-0.8-4-1.4-4-1.4s0.3,0.2-1.7-0.4c-2-0.7-1.9-0.6-1.9-0.6l-1.1-0.3c0-0.1-0.1-0.1-0.1-0.2
			C125.7,93.9,125.1,92,124.4,90.2"/>
		<path class="st2" d="M127.7,98.8c0.3,0.1,1.6,1.1,2.2,1.7c0.7,0.7,1.3,1.9,1.3,1.9s-1.5-0.6-3.4,0c-1.8,0.6-2.4,0-2.5-0.6
			c-0.1-0.7,0.5-1.3,0.5-1.3s-0.5,0.8,0.5,1.1c1,0.3,1.5-0.1,1.5-0.1s-1.1-0.1-1.1-0.7c-0.1-0.6,0.3-0.9,0.7-1.1
			c0,0-0.4-0.3-1.6,0.1c-0.9,0.3-1,1.1-1.1,1.3c-0.2,0.2-0.2,0.1-0.2-0.6C124.6,99.3,124.2,97.9,127.7,98.8"/>
		<path class="st2" d="M136.6,79.1c0.9,0,1.6-0.7,1.6-1.6c0-0.9-0.7-1.6-1.6-1.6c-0.9,0-1.6,0.7-1.6,1.6
			C135.1,78.4,135.8,79.1,136.6,79.1"/>
		<path class="st2" d="M125.5,80c0-1.3,1.1-2.4,2.4-2.4c1.3,0,2.4,1.1,2.4,2.4c0,1.3-1.1,2.4-2.4,2.4
			C126.6,82.4,125.5,81.3,125.5,80z M127.9,81c0.6,0,1.1-0.5,1.1-1s-0.5-1-1.1-1c-0.6,0-1.1,0.5-1.1,1C126.8,80.6,127.3,81,127.9,81
			"/>
		<path class="st2" d="M130.6,78.3c0-1.1,0.9-1.9,2-1.9c1.1,0,2,0.9,2,1.9c0,1.1-0.9,1.9-2,1.9C131.5,80.2,130.6,79.4,130.6,78.3z
			 M132.6,79.1c0.4,0,0.8-0.3,0.8-0.8c0-0.4-0.4-0.8-0.8-0.8s-0.8,0.3-0.8,0.8C131.8,78.7,132.2,79.1,132.6,79.1"/>
		<path class="st2" d="M139.7,69.5c0,0-0.4,0.4-0.7,1.1c-0.3,0.7-0.3,1.7-0.3,1.7s2.9-0.5,3,0.2c0.1,0.7-0.3,1.1-0.3,1.1l1.7,0.6
			c0,0-0.1-1.2,0.3-1.3c0.4-0.1,2.4,1.7,2.4,1.7s0.5-0.1,1-1.2c0.4-0.9-0.1-1.7-0.1-1.7s-2.9,0.6-2.9-0.2c0-0.8,2-2.7,2-2.7
			s-0.6-0.8-1.5-1.1c-1.2-0.3-1.5-0.1-1.5-0.1s-0.1,3.3-0.6,3.4C141.9,71.2,139.7,69.5,139.7,69.5"/>
		<path class="st2" d="M126.3,83.2c0,0,1.9-1.7,5.4-3c3.5-1.3,5.5-1.3,6.7-1.6c1.1-0.3,2.1-0.5,2.1-0.5s1,1.8,0.3,2
			c-0.7,0.2-1.7-0.2-3.7-0.1c-2,0.1-3.7,1-5.9,1.9c-2.2,0.9-3,2.5-3,2.5L126.3,83.2z"/>
		<path class="st2" d="M144,81.2c-0.8-0.4-1-1.4-0.5-2.2c0.4-0.8,1.4-1,2.2-0.6c0.7,0.4,1,1.4,0.5,2.2
			C145.7,81.4,144.7,81.7,144,81.2"/>
		<path class="st2" d="M150.2,91.3c0,0-0.8-3.5-3-6.5c-2.2-3-3.9-4.1-4.7-5c-0.8-0.9-1.5-1.6-1.5-1.6s-1.8,0.9-1.3,1.5
			c0.5,0.5,1.6,0.8,3.2,2c1.6,1.2,2.6,2.9,3.9,4.8c1.3,1.9,1.3,4.3,1.3,4.3L150.2,91.3z"/>
		<path class="st2" d="M149.5,89c-1.1-0.7-1.5-2.1-0.9-3.3c0.7-1.1,2.1-1.5,3.3-0.8c1.1,0.7,1.5,2.1,0.9,3.3
			C152.1,89.3,150.7,89.6,149.5,89z M150.7,88c0.6,0,1.1-0.5,1.1-1c0-0.6-0.5-1-1.1-1c-0.6,0-1.1,0.5-1.1,1
			C149.6,87.5,150.1,88,150.7,88"/>
		<path class="st2" d="M138.8,76.3c0-1.4,1.2-2.6,2.6-2.6c1.4,0,2.6,1.2,2.6,2.6c0,1.4-1.2,2.6-2.6,2.6
			C140,79,138.8,77.8,138.8,76.3z M141.4,77.7c0.7,0,1.3-0.6,1.3-1.3c0-0.7-0.6-1.3-1.3-1.3c-0.7,0-1.3,0.6-1.3,1.3
			C140.1,77.1,140.7,77.7,141.4,77.7"/>
		<path class="st2" d="M146.9,84.4c-0.9-0.6-1.3-1.8-0.7-2.7c0.5-0.9,1.8-1.2,2.7-0.7c0.9,0.6,1.3,1.8,0.7,2.7
			C149,84.7,147.8,85,146.9,84.4z M147.9,83.5c0.4,0,0.8-0.3,0.8-0.8c0-0.4-0.4-0.8-0.8-0.8s-0.8,0.3-0.8,0.8
			C147.1,83.2,147.4,83.5,147.9,83.5"/>
		<path class="st2" d="M135.2,96c0.5,0,0.9-0.6,0.9-1.1c0-0.5-0.4-0.9-1-0.9c-0.5,0-1,0.4-1,0.9C134,95.4,134.6,96,135.2,96"/>
	</g>
</g>
</svg>
