<?xml version="1.0" encoding="utf-8"?>
<!-- Generator: Adobe Illustrator 26.3.1, SVG Export Plug-In . SVG Version: 6.00 Build 0)  -->
<svg version="1.1" id="affiliation" xmlns="http://www.w3.org/2000/svg" xmlns:xlink="http://www.w3.org/1999/xlink" x="0px"
	 y="0px" viewBox="0 0 256 256" style="enable-background:new 0 0 256 256;" xml:space="preserve">
<style type="text/css">
	.st0{fill:#FFFFFF;}
	.st1{display:none;fill:#FFFFFF;}
	.st2{fill:#001158;}
</style>
<rect id="black" width="256" height="256"/>
<circle
   id="background"
   class="st0"
   cx="128"
   cy="128"
   r="128" />
<g id="logo">
	<path class="st2" d="M73.4,74.8c1.1-0.2,2.5-0.5,3.7-0.8v7.9c0,1,0,1,1.2,1.1v0.6h-4.8v-0.6c1.2-0.1,1.2-0.2,1.2-1.1v-5.8
		c0-0.6-0.1-0.7-0.5-0.8l-0.8,0V74.8z M169.3,74.2c-0.1,0.7-0.2,1.4-0.4,2.8h0.7c0.3-0.9,0.4-0.9,1.4-0.9h3.1
		c-1.3,2.5-2.9,5-4.6,7.6l0.1,0.2l2.2-0.2c1.3-3,2.6-6.2,4.1-9.2l-0.2-0.2L169.3,74.2z M177.6,74.2l-0.6,5c0.5-0.1,1-0.2,1.5-0.3
		c1.1,0,2,0.8,2.1,1.9c0,0.1,0,0.2,0,0.3c0,1.2-0.4,1.8-1.1,1.8c-0.7,0-1.5-0.8-1.9-1.1c-0.2-0.1-0.4-0.1-0.6,0
		c-0.3,0.2-0.5,0.5-0.6,0.8c-0.1,0.2,0,0.5,0.2,0.7c0.6,0.4,1.3,0.6,2,0.6c0.9-0.1,1.8-0.4,2.6-0.9c0.9-0.6,1.5-1.6,1.5-2.7
		c-0.1-1.5-1.4-2.7-3-2.6c-0.1,0-0.1,0-0.2,0c-0.6,0-1.2,0.2-1.7,0.4l0.3-2h3.9l0.3-1.7H177.6z M80.9,74.2l-0.6,5
		c0.5-0.1,1-0.2,1.5-0.3c1.1,0,2,0.8,2.1,1.9c0,0.1,0,0.2,0,0.3c0,1.2-0.4,1.8-1.1,1.8s-1.5-0.8-1.9-1.1c-0.2-0.1-0.4-0.1-0.6,0
		c-0.3,0.2-0.5,0.5-0.6,0.8c-0.1,0.2,0,0.5,0.2,0.7c0.6,0.4,1.3,0.6,2,0.6c0.9-0.1,1.8-0.4,2.6-0.9c0.9-0.6,1.5-1.6,1.5-2.7
		c-0.1-1.5-1.4-2.7-3-2.6c-0.1,0-0.1,0-0.2,0c-0.6,0-1.2,0.2-1.7,0.4l0.3-2h3.9l0.3-1.7H80.9z M224.2,128
		c0,61.8-43.2,112.1-96.2,112.1S31.8,189.8,31.8,128c0-61.8,43.2-112.1,96.2-112.1S224.2,66.2,224.2,128z M225.7,128
		c0-62.6-43.8-113.5-97.7-113.5c-53.9,0-97.7,50.9-97.7,113.5c0,62.6,43.8,113.5,97.7,113.5C181.9,241.5,225.7,190.6,225.7,128z
		 M124.6,59.6c0.3,0.5,0.9,0.7,1.5,0.6c0.6-0.2,1.1-0.6,1.4-1.2c-0.4,0-0.8,0-1.2,0.1c-0.3,0-0.3,0.4-0.7,0.2
		C125.2,59.1,125,59.3,124.6,59.6 M124.9,57.5c-0.3,0-0.6,0.4-0.3,0.6c0.2,0.2,0.2-0.3,0.6-0.1c0.2,0.1,0.4,0.1,0.6-0.1
		c0.2-0.1,0.4-0.2,0.6-0.1c0.2,0.1,0.4-0.5-0.1-0.5c-0.2,0-0.5,0-0.7,0.2c-0.3,0.2-0.2,0.1-0.4,0.1
		C125.2,57.5,125.1,57.5,124.9,57.5 M126.6,54.3L126.6,54.3L126.6,54.3L126.6,54.3z M129,53c-1.1,0-2.1,0.3-3,0.8
		c-0.1,0.1-0.1,0.4,0,0.5s0.4,0.1,0.5,0c0,0,0,0,0,0c0,0-0.1,0,0.2-0.2c0,0.1,0,0.1,0,0.2c0,0.4,0.4,0.6,0.7,0.6
		c0.4,0,0.6-0.4,0.6-0.7c0-0.2-0.1-0.4-0.3-0.5c0.4-0.1,0.9-0.2,1.4-0.2c0.2,0,0.4-0.1,0.3-0.3C129.4,53,129.2,53,129,53
		 M124.8,52.9c1.7-1.1,3.7-1.7,5.8-1.8c1.1-0.2,2.2,0.5,2.5,1.6c0.7-0.8,0.3-2.8-2.3-2.7C128.5,49.9,126.2,51,124.8,52.9
		 M127.7,107.6c-4.3-0.5-4.8-3.4-4.8-4.6c0-1,1-0.5-0.8-1.5c-1.9-1.1-4.2-1.3-6.2-0.5l0.5,0.4c1.5-0.1,2.9,0.3,4.1,1.2
		c-0.5,7.5,4.6,7.1,4.6,7.1c0.7,1.2,2,2,3.4,2.1c0.4-0.1,0.9-0.3,1.6-0.5C128.7,110.6,127.8,109.2,127.7,107.6 M140.1,109
		c0-0.1,2.1-0.6,2.1-0.7c0.2-0.8,0.7-1.5,1.4-1.8c0.3-0.1,0.5-0.4,0.6-0.7c0.2-0.9-0.1-1.8-0.7-2.4c-1.4-1.9-2.4-4.2-2.7-6.6
		c-0.1-0.4-0.4,0.1-0.4,0.1s1.3,6.7-1,6.9c0.2,1.9-1.1,3.6-2.9,3.9c-0.4,0.1-0.6,0.3-0.6,0.6c-0.1,0.6-0.3,1.2-0.6,1.8
		c1.7-0.4,3.3-0.6,5-0.7C140.3,109.2,140.2,109.1,140.1,109 M140.4,93.9c0.8-0.3,1.6-0.4,2.5-0.4c0.8,0,1.5,0.4,2,1l0.5,1.4
		c0,0,1.4,0.7,1.9,0c0.4-0.6,0.2-1.3-0.4-2c-0.8-1.1-2.1-1.7-3.4-1.5c-1.1,0-2.3,0.4-3.1,1.2L140.4,93.9 M107.6,84.4
		c-1.9,2-2.7,4.8-2.3,7.6c0.2,5.1,2.7,5.7,4.9,3c1.7-2.1,2.4-4.4,2-4.2c-1.1,0.4-3.2,0.5-4.1-0.6c-0.9-1.7-0.9-3.8,0.2-5.4
		L107.6,84.4 M138.4,168c-2.7-1.9-4.9-4.3-6.7-7.1c-5-8.1-5.8-14.9-5.7-33.5c0-0.7,0-1.5,0-2.2l-2.7-0.3c0,0-0.6,19.5-0.6,21.6
		c0,2.9,0.8,5.7,1.3,0.2c0.2-2.7-0.4-11.5,0.3-11.5c1,0,1.2,33.2,0.1,33.2c-2-0.2-4.1-0.4-6.1-0.4c-1.3-1-3.1-1.4-4.7-1
		c0.7,0.5,1.4,0.9,2.2,1.2l-35.2,9.1l-2.1-1.3l-14.4,6l16-1.6l0.9-2.4l35.8-9.5c1.6,0.7,3.1,1.3,3.2,1.4c0.4,0.4,4.9-0.3,4.8,1.4
		c-0.1,0.9-1.3,1.7-2.6,2.2c-1.2,0.5-3,0-2.9,0.3c1.3,0.6,2.7,0.7,4.1,0.3c2.5-0.8,4.7-2.1,6.7-3.8c0,0,7.7-0.5,8.7-2.1
		C138.6,168.3,138.5,168.2,138.4,168 M79.3,179.3l-9.5,1.5l10-2.7L79.3,179.3z M82,117.8c0,0,4.5,0.7,4.8-1.8
		c0.1-1.2-0.6-1.6-1.3-1.5c-0.6,0.1-1.1,0.6-0.6,1.4C85.3,116.4,85.9,117.3,82,117.8 M78.2,115.6c0,0.3,0.2,0.6,0.4,0.6
		s0.6-0.2,0.6-0.4c0-0.1,0-0.1,0-0.2c0-0.1,0-0.2-0.1-0.3l0.4,0c0.1,0,0.3-0.1,0.2-0.3c0-0.1-0.1-0.3-0.3-0.3l-1.9,0.1
		c-0.1,0-0.2,0-0.2,0.2c0,0.1,0.1,0.2,0.3,0.1l0.6,0C78.3,115.3,78.2,115.5,78.2,115.6 M92.1,133.5c0.8-0.9,2.3-1,3.2-0.2
		c0.2,0.2,0.4,0.4,0.5,0.7c-0.7-0.1-1.5,0-2.2,0.2c0,0,2.3,0.8,1.7,2.2c-0.5-0.6-1.1-0.9-1.8-1c0,0,0.6,2.1-0.6,2.6
		c0,0-0.2-1.8-1.5-1.8c-0.7,0.1-1.2,0.7-1.2,1.4c0,0,0,0.1,0,0.1c0,0-0.7-0.4-0.7-2c0.1-0.5-0.3-0.9-0.7-1c-2.5-0.7-4.8-2.1-6.5-4.1
		c-1.6,0.8-3.2,1.3-5,1.5c0,0-0.6,0.7,0.4,0.8c2.6,0,5.1,1.3,6.6,3.5c0.4,0.5,1,1,2.8,1c0,0,0,2-3.5,2.1c0,0,2.1,1.6,3.5,2.8
		c0.6,0.5,0.8,0.2,1.3-0.1c0.5-0.4,3-2,3.9,0.5c0,0-1.5-0.3-2.1,0.1c0.8,0.8,1.2,1.8,1.1,3c0,0-1-1.3-1.8-1
		c-0.4,0.2,0.7,1.5-0.7,2.1c0,0,0.2-1.8-1.6-1.8c0,0,0.2,1.1-1.2,1.4c0,0,0.9-2.3-0.7-2.7c-0.4-0.1-7.3-0.9-8.2-3.8
		c0.6-0.3,1.2-0.5,1.9-0.7c0,0-4-2.9-4.6-4.9c0,0-0.8-0.2-0.5,0.3c0.3,0.4,1.1,1,0.7,5c-0.2,1.1,0.4,2.3,1.5,2.8
		c-1.7,0.5-3.6-0.2-4.5-1.7c0,0-0.1,5.4,3,5.6c1.2,0.1,3.7,0.1,3.6,3.2c0,0-1.2-1.5-2.2-1.2c0,0,0.9,1,0.5,2c0,0-1.2-1.5-1.8-1.2
		c0,0,0.5,1,0.1,1.7c0,0-1-2.3-1.6-2.3c-0.5,0.1-1.1,1.1-1,2.1c-0.7-0.1-1.1-0.7-1-1.4c0-0.2,0.1-0.4,0.2-0.5c0.4-0.7,0.7-0.6,0.9-1
		c0.3-0.4-7.9-3.4-6.9-9.4c0,0,1.3,1.1,2.3,0.2c0.8-0.7,0.4-2.7-1.3-4.1c0,0,1.5-0.6,2.1-0.8c0.5-0.2,0.2-0.9,0.5-1.4
		c-1.3,0.1-2.5-0.3-3.4-1.2c-0.8-1-1-2.3-0.6-3.4c0.7-1.9,1.8-3.6,3-5.1c0.4-0.5,0.7-0.9,0.9-1.3c0.7-1,1.5-2.9,0.9-3.9
		c-0.3-0.5-0.9-0.8-1.5-0.8c-0.3,0-0.6,0-0.9,0.1c0.6,1.3-0.4,3-1.9,4c-2.3,1.5-2,3.2-2,3.2c-0.5-2-0.6-4.1-0.3-6.1
		c0.5-1.9,2-4,3.8-2.3c0,0,0.9-0.1,1.2-0.1c1.1,0,2.1,0.5,2.7,1.4c1.2,2-0.9,5.1-1,5.3c-0.3,0.4-0.6,0.8-1,1.3
		c-1.2,1.4-2.1,3-2.8,4.7c-0.2,1.1-0.2,1.9,0.3,2.3c0.9,0.6,1.9,0.9,3,0.7c1.7-1.5,3.6-2.8,5.6-3.7c1-0.3,1.1-1.3,0.4-1.1
		c-0.6,0.1-3.6,0.6-4.6-1.2c0,0,3.4-0.9,3.6-2.8c-0.9,0.7-2.2,0.8-3.2,0.2c0,0,2.8-2,2.2-3.8c-0.2-0.6-0.7-2.8,0-3.3
		c0.3-0.2-0.7-1-1.3-0.9c0.7-0.7,1.9-0.7,2.6,0c0.1,0.2,0.6,0.1,0.9,0c0.7-0.3,1.5-0.5,2.3-0.6c0.8,0,1.3-0.4,2.2,0.8
		c0.5,0.3,1,0.5,1.5,0.7c0.4,0.1,0.2,0.6,0.2,1.3c0,0.3-0.2,0.2-2.2,0.6c-0.5,0.1-1.3,2.2-1,2.3c0.3,0.1,2.3-0.7,2.7-0.6
		c0.4,0.3,0.5,0.9,0.2,1.4c-0.2,0.3-0.8,0.1-1.3,0.2c-0.7,0.2-1.6,0.9-0.3,2c0.7,0.6,3.1,1.6,5.2-2.4c0.5,0.9,0.7,1.9,0.5,2.9
		l5.3-4.4c0,0-0.5-2.9,1.7-4.1c0,0-0.7,1.3-0.4,1.9c0.7-0.6,1.5-0.9,2.3-1.1c0,0-1.5,1.7-1.4,2c0,0,2-0.6,2.5-0.2
		c0,0-2.1,0.9-2.1,1.5c0,0.5,1.5,0.6,2.2,0.4c0,0-0.3,1.5-2.8,1.2c-1.5,2.1-3.4,3.9-5.5,5.4c-0.9,0.6,0.1,1.8,2,1.2
		c0.6-0.2,1.2-0.6,1.6-1.2c0,0,1.7,3.7-4.1,3.9c1.4,1.4,2.7,2.8,4,4.4C91.6,134.5,91.9,133.9,92.1,133.5 M187.7,149.9
		c-0.1,0.3-0.1,0.7-0.4,0.8c-0.3,0.1-0.5,0.2-0.8,0.4c-0.3,0.3-0.3,0.4,0.2,0.4c0.7,0,1.5-1.1,1.6-1.4c0.1-0.2,0.7-0.6,0.9-0.7
		c0.4-0.2,0-0.6,0-0.6l-0.7-0.2c0.1-0.4,0-0.9-0.2-1.3c1,0.1,2-0.2,2.8-0.7c0.2-0.2,0.7-0.6,0.6-0.8c-0.1-0.3-0.2-0.5-0.4-0.7
		c-0.8-0.3-1.7-0.4-2.5-0.1c-1.4,0.5-2.1-0.1-2.3-0.3c-0.1-0.1,0-0.3,0.1-0.5c0.2,0.2,0.9,0,1.2-0.1c0.4-0.2,0.5-0.7,0.1-0.8
		c-1.2-0.3-1.5,0.5-1.5,0.5c-0.3,0.6-0.4,1-0.2,1.2c0.8,0.6,1.8,0.8,2.7,0.4c0.7-0.2,1.5-0.2,2.2,0.1c0.1,0.1,0,0.5,0,0.5
		c0,0.1-0.2,0.3-0.3,0.4c-0.5,0.6-2.3,0.6-3.1,0.6c-0.9-0.2-1.9,0-2.7,0.6c-0.6,0.4-1,0.6-1.3,0.4c-0.6-0.3,0.7-1.6,0.9-1.8
		c0.2-0.3,0.1-0.5-0.2-0.4c-1.3,0.4-1.3-0.4-1.5-0.6c-0.2-0.4-0.3-0.1-0.4,0.1c-0.2,0.3,0.3,1.9-0.9,2.1c-1.2,0.3-2.4-0.3-2.9-1.4
		l-0.3,0.1c0.2,0.7,0.7,1.3,1.4,1.7c0.6,0.3,0.5,0.5,0.6,0.8l0.5,0.5c-0.1,0.2-0.5,1-0.5,1c-0.1,0.4-1.5,1.6-1.5,1.6
		c-0.4,0-1.3,0.3-1.1,0.5c0.5,0.7,1.6,0.1,1.6,0.1c0.7-0.9,1.5-1.6,2.4-2.3c0,0,2.2-0.6,2.8-0.9c0.6-0.2,0.4,0.1,0.4,0.1
		c-0.5,0.7-0.9,1.5-1.2,2.2c-0.6,0.1-1.3,0.6-1.1,0.8c0.6,0.5,1.5-0.4,1.5-0.4c-0.1-0.2,0.6-1,0.6-1l0.9-2l0.9-0.4
		c0.1,0.4,0.4,0.8,0.8,1C188.2,149.7,187.7,149.9,187.7,149.9 M188.7,114.5l0.7-1.5l-1.8,0.9l-0.2-1.4l-0.9,1.1l-1.2-1.3l0,1.4
		L188.7,114.5z M165.3,115.1c-1.9-0.3-1.7-0.7-1.5-1c0.3-0.4,0-0.7-0.3-0.7c-0.3,0-0.7,0.2-0.6,0.8
		C163.1,115.5,165.3,115.1,165.3,115.1 M162,111h-0.9v1.9h0.9V111z M172.6,111.2h-0.9v1.9h0.9V111.2z M159.6,118.4h-0.9v1.9h0.9
		V118.4z M158.8,127.9h-0.9v1.9h0.9V127.9z M165.4,130.3h-0.9v1.9h0.9V130.3z M143.4,132.1c0.1-0.5,0.1-1.5-0.8-1.6
		c-0.7,0-1.6,0.1-1.7,4.1c0.7-0.1,1.5-0.2,2.2-0.1C143.2,133.8,143.3,132.9,143.4,132.1 M144.8,115.3c-0.9,0-1.5,0.8-1.7,2.1
		c-0.2,1.4-0.4,2.5-0.4,3.3c0.2,0,0.5,0,0.7,0.1c0.4-1.3,1.1-2.5,2-3.5c0-0.1,0-0.1,0-0.2C145.5,115.8,145.1,115.3,144.8,115.3
		 M140.5,120.8c0.2,0,0.4-0.1,0.6-0.1c0.1-1.3,0-2.5-0.3-3.7c-0.3-1.4-1-1.8-1.5-2c-0.4,0.4-1,0.2-1.7,1.3c1.2,1.3,2.1,2.8,2.7,4.5
		L140.5,120.8 M150.9,127.9c0-1.5,0-2.9,0-4.4c-0.2,0.6-0.4,1.3-0.7,2C150.5,126.2,150.7,127,150.9,127.9 M143,143.5
		c0.1,0.1,0.2,0.2,0.2,0.4c0.1,0.2,0.3,0.4,0.4,0.6c0.5,2,0.5,4.1,0.1,6c1.3-2.1,1.8-4.6,1.1-7c-0.2-0.5-0.4-0.9-0.7-1.3
		C144.1,142.2,142.8,143.4,143,143.5 M145.7,126c0.6-1.2,0.3-2.6-0.7-3.4c0-0.2-0.1-0.5-0.1-0.7c0.2-1.6,1.2-3.1,2.7-3.9
		c0.4-0.2,1-0.5,1.3-0.1c0.7,1.2,0.9,2.6,0.5,3.9c-0.1-0.5-0.3-1-0.5-1.5c-0.3-0.7-1.1-1-1.7-0.7c-0.7,0.3-1,1-0.7,1.7
		c1,2.5,1.8,5.1,2.5,7.8l0.5,1.6c0.4,3.8-0.3,7.6-2,11.1c-1.7,5.2-2.4,10.6-2.1,16c0.8-5.5,2.1-10.9,3.9-16.2
		c0.5-1.1,0.9-2.3,1.3-3.4c-0.2,7.7-1.3,15.4-3.1,22.9c-0.6,2.3-1.7,4.5-3.1,6.4c-0.5,0.7-1.2,1.4-1.8,2l-0.1-0.1l0,0
		c-0.1,0-0.1-0.1-0.2-0.1l0,0c-2.5-1.6-4.8-3.6-6.8-5.9c-1-1.1-1.8-2.4-2.6-3.7c-3.5-6.1-4.5-10.7-4.9-21.3
		c-0.1-2.3-0.1-4.9-0.2-7.8c0-1,0-2,0-3.1c-0.1-4.6,0.1-9.1,0.7-13.6c2.1-0.7,4.3-1.3,6.4-1.7c2.6-0.6,5.2-0.8,7.9-0.6
		c-0.1,0.2-0.1,0.5,0.1,0.6c0.3,0.4,0.7,0.7,1.1,0.9c-0.7,0.4-1.4,1-1.9,1.7c-0.4-1-1.3-1.7-2.3-2c-1.4-0.3-2.9,0-4,2.3
		c-1.3-0.6-2.9-0.5-4.1,0.3c-1.9,1.5-2.3,5.6,0.5,10.8c-0.3,0.8-0.5,1.5-0.7,2.1c-2.3,7.6,1,11.9,3.1,16c1.8,4.5,3.4,9.1,4.7,13.8
		c0-5.1-0.9-10.2-2.7-15c-1.5-3.2-4.5-8.1-2.8-13.6c0.7-2.2,1.9-4.9,2.5-7.5c0.1-1.5-1.8-3.1-2.4-1.3c-0.2,0.8-0.4,1.6-0.6,2.4
		c-1.2-2.8-1.4-5.1-0.4-5.9c0.8-0.4,1.8-0.3,2.6,0.2c1.2,1,2.1,2.3,2.6,3.8h0c0.3,1,0.3,2.1,0,3.2c-0.5,1.8-1.3,2.6-0.1,3.7
		c0.6,0.5,1.3,0.9,2,1.2c0,0-3.7,7.9,1.8,8.8c1.2,0.2,2.6-0.3,2.6-1.2c-0.2-1.4,0-2.8,0.7-4c0.3-0.7,1.5-3,1-4
		c-0.3-0.7-0.4-1.4-0.4-2.2 M141.8,144c0.5-0.7,1.9-2.4,1.9-2.4c1.7-1.8,3.1-2.4,3.8-4.7c0.6-2.1,0.6-2.3,1.2-4.5c0.6-2.4-1-5-1.6-3
		c-0.7,2.3-0.6,4.9-1.3,6.7c-0.6,1.6-1.6,3-3,4c-0.2,0.2-0.3,0.4-0.5,0.6c-0.2-0.1-0.3-0.2-0.5-0.3c-3.2-1.4-4.5-2.1-5-5.1
		c-0.6-3.4,0.4-3.8-1-7.1c-0.3-0.6-0.9,0.5-1.2,1.3c-0.1,0.6-0.2,1.2-0.1,1.8c0,2,0.1,4,0.5,6c1,2.8,3,3.7,6,5
		c-0.5,0.8-0.9,1.8-1.1,2.7c-0.2,2.1,0.4,4.2,1.6,6C140.8,148.6,140.9,146.2,141.8,144 M150.3,116.5c0.1,0.1,0.1,0.2,0.2,0.2
		c0-0.3-0.1-0.6-0.1-0.8c-0.3-1.1-1-2-2-2.6c-0.6,0.3-1.2,0.5-1.9,0.5c0.4,0.7,0.7,1.4,0.8,2.2C148.4,115.7,149.5,115.9,150.3,116.5
		 M141.3,126.8c0-0.3-0.1-0.5-0.2-0.7c0.3-0.1,0.6-0.3,0.8-0.5c0.1-0.1,0.1-0.3,0-0.4c-0.1-0.1-0.2-0.2-0.4-0.1c0,0,0,0,0,0
		c-0.9,0.6-1.9,1-2.9,1.2c-0.2,0-0.3,0.2-0.2,0.4c0,0.2,0.2,0.3,0.3,0.3c0,0,0,0,0,0c0.5-0.1,1-0.2,1.5-0.4c0,0.1-0.1,0.3-0.1,0.4
		c0,0.5,0.2,0.9,0.5,0.9C141.1,127.7,141.3,127.3,141.3,126.8 M145.7,126c-0.9-0.2-1.7-0.5-2.5-0.9c-0.1-0.1-0.3,0-0.4,0.1
		c0,0,0,0,0,0c-0.1,0.2,0,0.3,0.1,0.4c0.3,0.1,0.5,0.2,0.8,0.3c-0.2,0.2-0.4,0.5-0.3,0.8c0,0.5,0.2,0.8,0.5,0.8
		c0.3,0,0.5-0.4,0.5-0.8c0-0.2,0-0.4-0.1-0.6c0.4,0.2,0.8,0.3,1.3,0.4 M142.6,130.5c-0.7,0-1.6,0.1-1.7,4.1c0.7-0.1,1.5-0.2,2.2-0.1
		c0-0.8,0.1-1.7,0.3-2.5C143.5,131.6,143.5,130.6,142.6,130.5 M142.4,128.9c-0.1,0-0.2-0.1-0.4-0.1c-0.3,0-0.6,0.3-0.4,0.6
		c0.2,0.2,0.3-0.3,0.6,0c0.2,0.1,0.4,0.2,0.6,0c0.2-0.1,0.4-0.1,0.6,0c0.2,0.1,0.5-0.5,0-0.6c-0.2-0.1-0.5,0-0.7,0.1
		C142.6,129.1,142.6,128.9,142.4,128.9 M90.7,166.6L90.7,166.6l0.1,0C90.8,166.6,90.8,166.6,90.7,166.6 M67.2,166.6L67.2,166.6
		l0.1,0C67.3,166.6,67.2,166.6,67.2,166.6 M108.9,205.3c0,10.5,8.5,19.1,19,19.1c10.5,0,19.1-8.5,19.1-19c0,0,0-0.1,0-0.1V179h-38.1
		V205.3 M190.9,184.5c-12.2,19.5-30.5,33.2-51.4,36.9c-6.9,5-16.2,5-23.1,0c-20.9-3.7-39.1-17.4-51.3-36.9h43.1v-6.2h39.6v6.2H190.9
		 M141,206c0.1-0.8,0.3-2.6-1.5-3c-2.1-0.4-3.3,2.2-3.3,2.3c-0.1,0.3-0.4,0.5-0.7,0.5c-0.2,0-2.9,0.5-3.1,2.6
		c-0.1,1.8,1.7,2.1,2.5,2.2c1,0.1,1.9-0.1,2.9-0.4c0.4-0.1,1-0.1,1.5-0.2c0.2-0.4,0.3-1,0.6-1.4C140.4,207.9,140.8,207,141,206
		 M142.4,209.9c0.5,0.1,0.8,0.6,0.7,1.1c-0.1,0.5-0.6,0.8-1.1,0.7c-0.5-0.1-1.1-0.2-1.7-0.1c-0.2,0.5-0.3,1.1-0.3,1.7
		c0,0.5-0.4,0.9-0.9,0.9c-0.5,0-0.9-0.4-0.9-0.9c0,0,0,0,0,0c0-0.4,0.1-0.8,0.1-1.2c0,0-0.1,0-0.1,0c-1.1,0.4-2.3,0.6-3.5,0.5
		c-2.6-0.2-4.3-1.8-4.1-4.1c0.2-1.8,1.5-3.4,3.3-3.8l-6.2-8l-6.2,8c1.8,0.4,3.1,1.9,3.3,3.8c0.1,2.3-1.5,3.8-4.1,4.1
		c-1.2,0.1-2.4-0.1-3.5-0.5c0,0-0.1,0-0.1,0c0.1,0.4,0.1,0.8,0.1,1.2c0,0.5-0.4,0.9-0.8,1c-0.5,0-0.9-0.4-1-0.9
		c0-0.6-0.1-1.1-0.3-1.7c-0.6,0-1.1,0-1.7,0.1c-0.5,0.1-1-0.2-1.1-0.7c-0.1-0.5,0.2-1,0.7-1.1l0,0c0.4-0.1,0.8-0.1,1.1-0.2
		c0,0,0-0.1-0.1-0.1c-0.7-1-1.2-2.1-1.4-3.3c-0.7-2.1,0.5-4.3,2.6-4.9c0.1,0,0.2-0.1,0.3-0.1c1.8-0.3,3.7,0.6,4.5,2.3l6.5-8.4
		l-3.8-4.8l0,0l-6.4,5l-1.2-1.6l3.2-2.5l-1.3-1.6l-3.2,2.5l-2.5-3.2l1.6-1.3l1.2,1.6l1.6-1.3l-1.3-1.6l1.6-1.3l2.5,3.2l1.6-1.2
		l-2.5-3.2l1.4-1.1l8.5,10.9l8.5-10.9l1.4,1.1l-2.5,3.2l1.6,1.2l2.5-3.2l1.6,1.3l-1.3,1.6l1.6,1.3l1.2-1.6l1.6,1.3l-2.5,3.2
		l-3.2-2.5l-1.2,1.6l3.2,2.5l-1.2,1.6l-6.4-5l0,0l-3.8,4.8l6.5,8.4c0.8-1.7,2.6-2.6,4.5-2.3c2.1,0.5,3.5,2.6,3,4.7
		c0,0.1-0.1,0.2-0.1,0.3c-0.2,1.2-0.7,2.3-1.4,3.3c0,0,0,0.1-0.1,0.1C141.7,209.8,142,209.9,142.4,209.9 M123.1,208.6
		c-0.1-2.2-2.8-2.6-3.1-2.6c-0.3-0.1-0.5-0.3-0.7-0.5c0-0.1-1.2-2.7-3.3-2.3c-1.7,0.3-1.6,2.2-1.5,3c0.2,1,0.6,1.9,1.1,2.7
		c0.2,0.4,0.4,0.9,0.6,1.4c0.5,0.1,1.1,0.1,1.5,0.2c0.9,0.4,1.9,0.5,2.9,0.4C121.3,210.7,123.2,210.3,123.1,208.6 M116.4,231.1
		c-0.3-0.2-0.7-0.3-1-0.4c-0.6-0.1-2.1,0-2.5,2.1c-0.2,1.1,0.4,2.2,1.5,2.4c0.1,0,0.2,0,0.3,0c1,0.2,1,0.1,1.1-0.6L116.4,231.1z
		 M116.8,228.5c0.3-1.7,0.2-1.8-1.4-2.2l0.1-0.6l5.7,1l-0.1,0.6c-1.4-0.1-1.6-0.1-1.9,1.6l-0.9,5.2c-0.3,1.7-0.2,1.8,1.2,2.1
		l-0.1,0.6l-5.7-1c-2.3-0.4-3.7-1.6-3.4-3.6c0.3-1.9,2-2.7,4-2.7c0.4,0,0.7,0.1,1,0.1l1.1,0.5L116.8,228.5z M103.1,227.8l-0.7-0.3
		c-0.5-0.2-1-0.3-1.5-0.2c-0.7,0.2-1.3,0.7-1.5,1.5c-0.5,1,0,2.2,1,2.7c0.1,0,0.2,0.1,0.3,0.1c0.9,0.3,1,0.3,1.2-0.3L103.1,227.8z
		 M104,225.3c0.6-1.6,0.5-1.8-0.8-2.4l0.2-0.6l5.2,1.9l-0.2,0.6c-1.4-0.4-1.6-0.4-2.2,1.2l-1.8,5c-0.6,1.6-0.5,1.8,0.8,2.3L105,234
		l-5.5-2c-0.9-0.3-1.7-0.8-2.3-1.4c-0.5-0.7-0.7-1.6-0.3-2.5c0.5-1.2,1.8-1.9,3-1.7c-0.1-0.6-0.4-1.9-0.6-2.7
		c-0.1-0.7-0.4-1.3-0.7-1.9c-0.2-0.4-0.5-0.7-0.9-1l0.3-0.6l0.9,0.3c1.9,0.7,2.3,1.5,2.6,2.5c0.3,0.9,0.4,2.2,0.6,2.9
		c0.1,0.6,0.2,0.7,0.9,1l0.4,0.1L104,225.3z M91.1,221.3l-2.3-1.3l-0.6,3.5l0.1,0L91.1,221.3z M90.6,216.8l-0.4-0.2
		c-0.6-0.3-0.8-0.2-1,0.9L89,219l2.8,1.6c0.2-0.2,0.8-0.7,1.3-1.2c0.5-0.5,0.5-0.7,0-1.1l-0.4-0.3l0.3-0.6l3.6,2.2l-0.3,0.6
		c-0.9-0.4-1.3-0.6-2.6,0.4l-7.2,5.3l-0.8-0.3l1.3-9.3c0.3-0.9-0.1-1.9-1-2.2l0.3-0.6l4.6,2.7L90.6,216.8z M81.5,213
		c1.1-1.3,1.3-1.4,2.6-0.4l0.4-0.5l-7-5.8c-0.4,0.3-1.8,1.4-2.3,1.8l0.5,0.5c0.5-0.4,1-0.6,1.6-0.7c0.7,0.1,1.3,0.4,1.8,0.9
		c0.5,0.3,0.8,0.7,1.1,1.2c0.1,0.3-0.1,0.8-0.7,1.5l-1.5,1.8l-1.2-1c-1-0.9-1-1-0.4-2l-0.5-0.4l-2.2,2.7l0.5,0.4c0.9-0.8,1-0.9,2,0
		l1.2,1l-2,2.4c-0.4,0.5-0.4,0.4-0.9,0l-0.7-0.6c-0.9-0.7-1.1-1.2-1.2-1.5c0-0.6,0.2-1.1,0.5-1.6l-0.5-0.4c-0.7,1-1.3,1.9-1.6,2.2
		l6.6,5.5l0.4-0.5c-1.1-1-1.1-1.1,0-2.5L81.5,213z M72.3,205.9c0.7-0.9,1.5-2,1.7-2.3c-0.2-1.1-0.7-2-1.4-2.8
		c-1.7-1.9-3.9-2.4-5.4-1c-1.1,1.3-1.3,3.2-0.4,4.6L67,205c0.5,0.7,0.4,1.7-0.2,2.3c-0.6,0.6-1.6,0.5-2.2-0.1c0,0,0,0-0.1-0.1
		c-0.7-1-0.7-2.4,0.1-3.4l-0.6-0.5c-0.8,0.9-1.3,1.5-1.7,2c0.4,0.8,0.8,1.5,1.3,2.1c1.8,2,3.8,2.1,5.3,0.8c1.2-1.1,0.8-2.7,0.3-4.1
		l-0.3-0.6c-0.5-0.9-0.3-2,0.4-2.7c0.7-0.6,1.7-0.5,2.3,0.2c0,0,0,0.1,0.1,0.1c0.8,1.3,0.8,3,0,4.3L72.3,205.9z M58.7,196.7
		c-1.4,1-1.6,1-2.5-0.1l-0.5,0.4l3.3,4.6l0.5-0.4c-0.8-1.2-0.8-1.4,0.6-2.4l4.3-3.1c1.4-1,1.6-1,2.5,0.1l0.5-0.4l-3.3-4.6l-0.5,0.4
		c0.8,1.2,0.8,1.4-0.6,2.4L58.7,196.7z M57.8,185.4c1.2-0.7,1.4-1,0.9-2c-1-1.9-3.3-2.6-5.1-1.6c-0.2,0.1-0.4,0.3-0.6,0.4
		c-2.6,1.5-3.1,3.4-1.9,5.5c0.4,0.7,0.5,0.9,0.7,0.9c0.1,0,0.4-0.1,0.8-0.3L57.8,185.4z M50.1,187.9c-1-1.5-1.3-3.2-1.1-4.9
		c0.3-1.2,1.1-2.3,2.3-2.9c3.5-1.9,6.5,0,8.3,3.3l2.4,4.4l-0.6,0.3c-0.8-1.3-1-1.3-2.5-0.5l-4.6,2.6c-1.5,0.8-1.5,1-1,2.2l-0.6,0.3
		L50.1,187.9z M46,173.2c-1.6,0.7-1.7,0.6-2.4-0.8l-0.6,0.3l2.1,5.2l0.6-0.2c-0.5-1.4-0.4-1.5,1.2-2.2l4.9-2
		c1.6-0.6,1.7-0.6,2.4,0.7l0.6-0.2l-2.1-5.2L52,169c0.5,1.4,0.4,1.5-1.2,2.2L46,173.2z M41.5,168.8l0.6-0.2
		c-0.3-1.5-0.2-1.6,1.4-2.1l3.4-1c1.4-0.2,2.5-1,3.2-2.2c0.4-1.1,0.3-2.3,0-3.3c-0.3-1.2-1-2.3-2.1-2.9c-1.3-0.6-2.8-0.6-4.1-0.1
		l-1.2,0.3c-0.9,0.3-1.9,0.5-2.8,0.6c-0.6,0.1-1-0.3-1.2-1.2l-0.6,0.2l1.3,4.4l0.6-0.2c-0.3-1-0.2-1.6,0.3-1.9
		c0.9-0.4,1.8-0.7,2.7-1l1-0.3c2.4-0.7,4.2-0.4,4.8,1.6c0.5,1.8-0.7,3.1-3.2,3.8l-2.8,0.8c-1.7,0.5-1.8,0.4-2.3-1l-0.6,0.2
		L41.5,168.8z M35.7,142.1l7.3,2.2l-6.4,4.2l0.5,3.9l0.6-0.1c-0.1-1.6-0.1-1.8,1.9-1.9l3.5-0.2c0.9-0.1,1.8-0.1,2.7-0.1
		c0.6,0.1,0.9,0.4,1.1,1.3l0.6-0.1l-0.6-4.4l-0.7,0.1c0.1,1.1-0.1,1.6-0.7,1.8c-1,0.2-2,0.3-2.9,0.4l-3.5,0.3l0,0l7.3-4.5l-0.1-0.6
		l-8.9-2.7l0-0.1l6.2-0.9c1.6-0.2,1.7-0.1,2,1.4l0.6-0.1l-0.8-5.7l-0.7,0.1c0.1,1.6,0.1,1.7-1.5,2l-5.6,0.9c-1.6,0.3-1.7,0.2-2-1.4
		l-0.7,0.1L35.7,142.1z M39.6,127.9c-1.4,0.1-2.5,1.2-2.5,2.7c0.1,1.4,1.2,2.5,2.7,2.5c1.4-0.1,2.5-1.2,2.5-2.6
		C42.3,129,41.1,127.9,39.6,127.9C39.6,127.9,39.6,127.9,39.6,127.9 M41.3,120.7l0.2-2.6l-3.4,1v0.1L41.3,120.7z M45.1,118.3l0-0.4
		c0-0.7-0.2-0.8-1.2-0.5l-1.4,0.5l-0.2,3.2c0.3,0.1,1,0.4,1.6,0.7c0.7,0.3,0.9,0.1,1-0.5l0.1-0.5l0.7,0l-0.3,4.2l-0.7,0
		c0-1-0.1-1.4-1.6-2.2l-7.9-4.1l-0.1-0.9l8.9-2.9c1.3-0.4,1.4-0.9,1.6-1.9l0.7,0l-0.4,5.3L45.1,118.3z M41,100.4
		c-1.2,0-2-0.1-2.9-0.2c-0.5,1-0.8,2.1-1.1,3.2c-1,3.1,0.8,6.5,4,7.4c0.1,0,0.3,0.1,0.4,0.1c3,0.5,5.8-1.5,6.3-4.5
		c0-0.2,0.1-0.5,0.1-0.7c0.2-1.2,0.2-2.4,0.1-3.5c-0.9-0.5-1.9-1-2.8-1.4l-0.2,0.7c1.6,1.2,2.4,2.3,2.1,3.8
		c-0.4,2.2-2.5,3.4-5.5,2.9c-2.5-0.5-4.1-2.1-3.7-4.5c0.2-1.5,1.5-2.7,3.1-2.6L41,100.4z M45.7,95.1l0.8-2.5l-3.6,0.3l0,0.1
		L45.7,95.1z M49.9,93.5l0.1-0.4c0.1-0.6,0-0.8-1.1-0.7l-1.5,0.1l-0.9,3.1c0.2,0.2,0.9,0.6,1.4,1c0.6,0.4,0.8,0.3,1.1-0.3l0.2-0.5
		l0.6,0.2l-1.2,4.1L48,99.9c0.2-1,0.3-1.4-1-2.5l-6.8-5.7l0.1-0.9l9.3-0.9c0.9,0.1,1.8-0.6,1.9-1.5l0.6,0.2l-1.6,5.1L49.9,93.5z
		 M52.1,82.1c1.2,0.6,1.6,0.5,2.1-0.5c1-2.3,0-4.2-2.5-5.3c-2.7-1.2-4.5-0.5-5.6,1.8c-0.3,0.7-0.4,1-0.3,1.1
		c0.1,0.1,0.3,0.3,0.7,0.5L52.1,82.1z M45.5,77.4c0.6-1.6,1.7-3,3.3-3.8c1.2-0.5,2.5-0.5,3.7,0.1c3.6,1.6,3.9,5.2,2.3,8.7l-2.1,4.6
		l-0.6-0.3c0.5-1.4,0.5-1.6-1.1-2.3l-4.8-2.2c-1.6-0.7-1.7-0.6-2.4,0.6l-0.6-0.3L45.5,77.4z M57.2,71.6c1.5,0.9,1.5,1.1,0.8,2.5
		l0.6,0.3l4.7-7.8c-0.3-0.4-1.6-1.6-2.1-2l-0.4,0.6c0.4,0.4,0.7,0.9,0.9,1.5c0,0.7-0.2,1.4-0.6,1.9c-0.2,0.5-0.6,0.9-1,1.3
		c-0.3,0.2-0.8,0-1.6-0.5l-2-1.2l0.8-1.3c0.7-1.2,0.8-1.2,1.9-0.7l0.4-0.6l-3-1.8l-0.4,0.6c0.9,0.8,1,0.9,0.3,2l-0.8,1.3L53,66.2
		c-0.5-0.3-0.5-0.3-0.1-0.9l0.5-0.8c0.6-1,1-1.3,1.3-1.4c0.6-0.1,1.1,0,1.7,0.3l0.3-0.6c-1.1-0.5-2-1.1-2.4-1.3l-4.4,7.3l0.6,0.3
		c0.8-1.2,1-1.2,2.4-0.3L57.2,71.6z M57.2,71.6c1.5,0.9,1.5,1.1,0.8,2.5l0.6,0.3l4.7-7.8c-0.3-0.4-1.6-1.6-2.1-2l-0.4,0.6
		c0.4,0.4,0.7,0.9,0.9,1.5c0,0.7-0.2,1.4-0.6,1.9c-0.2,0.5-0.6,0.9-1,1.3c-0.3,0.2-0.8,0-1.6-0.5l-2-1.2l0.8-1.3
		c0.7-1.2,0.8-1.2,1.9-0.7l0.4-0.6l-3-1.8l-0.4,0.6c0.9,0.8,1,0.9,0.3,2l-0.8,1.3L53,66.2c-0.5-0.3-0.5-0.3-0.1-0.9l0.5-0.8
		c0.6-1,1-1.3,1.3-1.4c0.6-0.1,1.1,0,1.7,0.3l0.3-0.6c-1.1-0.5-2-1.1-2.4-1.3l-4.4,7.3l0.6,0.3c0.8-1.2,1-1.2,2.4-0.3L57.2,71.6z
		 M63.4,49.4l3.3,6.8l-7.4-1.9l-2.5,3l0.5,0.4c1.1-1.2,1.2-1.3,2.6,0.1l2.5,2.4c0.7,0.6,1.3,1.2,1.9,1.9c0.4,0.5,0.4,0.9-0.2,1.7
		l0.5,0.4l2.8-3.4l-0.5-0.4c-0.8,0.8-1.3,1-1.8,0.7c-0.8-0.6-1.6-1.2-2.3-1.9l-2.6-2.4l0,0l8.3,2.4l0.4-0.5l-4-8.4l0-0.1l4.8,3.9
		c1.2,1,1.2,1.1,0.3,2.4l0.5,0.4l3.7-4.4l-0.5-0.4c-1.1,1.2-1.2,1.2-2.5,0.2L66.9,49c-1.3-1-1.3-1.1-0.3-2.4l-0.5-0.4L63.4,49.4z
		 M73.8,42.7c-1.2-1.3-1.1-1.5-0.1-2.5l-0.4-0.5L69,43.5l0.4,0.5c1.1-0.9,1.3-0.9,2.5,0.4l3.5,3.9c1.1,1.3,1.1,1.4,0.1,2.5l0.4,0.5
		l4.2-3.8L79.8,47c-1.1,0.9-1.3,0.9-2.5-0.4L73.8,42.7z M82.3,40.5l2.2-1.5l-3-2l-0.1,0L82.3,40.5z M86.6,41.9l0.3-0.3
		c0.5-0.4,0.5-0.6-0.4-1.2l-1.3-0.8l-2.6,1.8c0.1,0.3,0.3,1,0.5,1.7c0.2,0.7,0.5,0.8,1,0.5l0.5-0.3l0.4,0.5l-3.5,2.4l-0.4-0.5
		c0.7-0.7,1.1-0.9,0.7-2.6l-1.8-8.7l0.6-0.6l7.8,5.1c0.7,0.6,1.7,0.6,2.4,0l0.4,0.5l-4.4,3L86.6,41.9z M94.8,31.2
		c-0.6-1.3-2.2-1.8-3.5-1.2c-1.3,0.7-1.7,2.3-1.1,3.5c0.6,1.3,2.2,1.8,3.4,1.2C95,34.2,95.5,32.6,94.8,31.2
		C94.8,31.3,94.8,31.3,94.8,31.2 M109.3,31.8c-0.1-0.6-0.3-2.3-0.4-3.1l-0.7,0.2c0,0.7,0,1.4-0.3,2c-0.2,0.5-0.7,0.8-1.6,1.1
		c-0.4,0.2-0.9,0.3-1.4,0.2c-0.4-0.1-0.6-0.5-0.9-1.4l-1.7-4.9c-0.6-1.6-0.5-1.8,1-2.4l-0.2-0.6l-5.5,1.9l0.2,0.6
		c1.4-0.4,1.6-0.3,2.1,1.3l1.7,5c0.6,1.6,0.5,1.8-1,2.4l0.2,0.6L109.3,31.8z M108.8,21l0.1,0.6c1.5-0.1,1.6,0,1.9,1.7l0.6,3.5
		c0,1.4,0.7,2.7,1.9,3.4c1,0.5,2.2,0.6,3.3,0.4c1.2-0.1,2.4-0.8,3.1-1.7c0.7-1.2,0.9-2.7,0.6-4l-0.2-1.2c-0.2-1-0.3-1.9-0.3-2.9
		c0-0.6,0.4-0.9,1.3-1.1L121,19l-4.5,0.8l0.1,0.6c1.1-0.1,1.6,0,1.8,0.5c0.3,0.9,0.5,1.9,0.7,2.8l0.2,1c0.4,2.4-0.1,4.3-2.1,4.6
		c-1.8,0.3-3-1.1-3.4-3.6l-0.5-2.9c-0.3-1.7-0.2-1.9,1.2-2.2l-0.1-0.6L108.8,21z M134.5,22.2c-0.1-1.5-0.2-2.4-0.2-3
		c-1.1-0.3-2.2-0.5-3.4-0.6c-3.3-0.5-6.3,1.8-6.8,5.1c0,0.1,0,0.3,0,0.4c-0.1,3.2,2.5,5.4,6.5,5.5c1.3,0,2.7-0.2,4-0.6
		c-0.1-0.5-0.1-1-0.1-1.5l0-1.1c0-1.1,0.1-1.2,1-1.3l0-0.7l-5.4-0.1l0,0.7c1.9,0.2,2,0.3,1.9,1.4l0,1.4c0,0.9-0.7,1-1.2,1
		c-2.8-0.1-3.9-2.5-3.9-4.9c0.1-3.1,1.8-4.4,3.7-4.4c1.6-0.1,3.1,1.1,3.2,2.7L134.5,22.2z M142,28.2c-0.3,1.3-0.2,1.7,0.9,1.9
		c2.5,0.6,4.1-0.9,4.7-3.5c0.7-2.9-0.5-4.5-2.8-5.1c-0.7-0.2-1-0.2-1.1-0.1c-0.1,0.1-0.2,0.3-0.3,0.8L142,28.2z M145.3,20.8
		c1.7,0.2,3.3,1.1,4.4,2.4c0.7,1.1,1,2.4,0.7,3.6c-0.9,3.9-4.3,4.9-8,4l-4.9-1.1l0.1-0.6c1.5,0.2,1.6,0.2,2-1.5l1.1-5.2
		c0.4-1.7,0.3-1.8-1-2.2l0.1-0.6L145.3,20.8z M154.7,23.2l-0.3,0.6c1.3,0.7,1.4,0.8,0.7,2.4l-1.4,3.3c-0.7,1.2-0.8,2.6-0.3,3.9
		c0.6,1,1.5,1.7,2.6,2.1c1.1,0.6,2.4,0.6,3.6,0.2c1.3-0.6,2.2-1.7,2.7-3.1l0.5-1.1c0.4-0.9,0.8-1.8,1.3-2.6c0.3-0.5,0.9-0.5,1.7-0.2
		l0.3-0.6l-4.2-1.8l-0.3,0.6c1,0.5,1.4,0.9,1.2,1.4c-0.2,0.9-0.6,1.9-1,2.8l-0.4,1c-1,2.3-2.4,3.5-4.3,2.7c-1.7-0.7-1.9-2.5-0.9-4.9
		l1.2-2.7c0.7-1.6,0.9-1.7,2.2-1.2l0.3-0.6L154.7,23.2z M175.5,39.6c0.5-0.9,1.1-1.7,1.8-2.4c0.4-0.4,0.9-0.4,1.8,0.2l0.4-0.6
		l-3.9-2.6l-0.4,0.5c1,0.7,1.2,1.2,1,1.7c-0.5,0.9-1,1.8-1.5,2.6l-1.3,2l0,0l-1.4-9.3l-3-2l-0.4,0.5c1.3,1,1.4,1.5,0.3,3l-1.6,2.5
		c-0.5,0.8-1.1,1.7-1.8,2.4c-0.4,0.4-1,0.4-1.8-0.1l-0.4,0.6l3.9,2.6l0.4-0.5c-0.9-0.7-1.2-1.2-1-1.7c0.5-0.9,1-1.7,1.5-2.6l1.7-2.6
		l0,0l1.4,10.3l0.9,0.6L175.5,39.6z M180.6,44.3c-1.9,2.1-2.5,4.5-1,5.9c1.1,1,2.9,1.1,5-1.2c1.7-1.8,2.6-4.4,1.1-5.9
		C184.6,42.1,182.5,42.3,180.6,44.3 M186.4,42.7c2.3,1.9,2.7,5.3,0.8,7.6c-0.1,0.1-0.2,0.2-0.3,0.3c-2,2.3-5.5,2.5-7.8,0.5
		c-0.1-0.1-0.2-0.2-0.3-0.3c-2.3-1.9-2.7-5.3-0.8-7.7c0.1-0.1,0.1-0.1,0.2-0.2c2.1-2.3,5.6-2.5,7.9-0.4
		C186.3,42.5,186.3,42.6,186.4,42.7 M193.1,57.3c1.1-0.9,1.2-2.5,0.3-3.6c-0.9-1.1-2.5-1.2-3.6-0.3c-1.1,0.9-1.2,2.5-0.3,3.6
		C190.3,58.1,192,58.2,193.1,57.3 M197.3,62.8l0.5,0.7c0.4,0.9,1.5,1.3,2.4,0.9c0.9-0.4,1.3-1.5,0.9-2.4c-0.1-0.1-0.1-0.3-0.2-0.4
		c-0.5-0.8-0.6-0.8-1-0.5L197.3,62.8z M196.7,63.2l-2.2,1.4c-1.3,0.9-1.2,1.5-0.7,2.2c0.6,0.9,1.8,1.2,2.7,0.6
		c0.1,0,0.1-0.1,0.2-0.1c1.1-0.7,1.4-2.2,0.7-3.2c-0.1-0.1-0.2-0.2-0.2-0.3L196.7,63.2z M197.6,59.8c1.4-0.9,1.4-1.1,0.7-2.3
		l0.6-0.4l3.2,4.9c1.1,1.7,1.3,3.3-0.1,4.2c-1.1,0.5-2.4,0.3-3.1-0.6l0,0c0.9,1.3,0.6,3-0.7,3.9c-2.1,1.4-4-0.6-5.1-2.4l-2.9-4.4
		l0.5-0.4c0.9,1.2,1.1,1.2,2.5,0.3L197.6,59.8z M202.1,74.3l1.2,2.4l2.4-2.6l0-0.1L202.1,74.3z M200.1,78.3l0.2,0.4
		c0.4,0.6,0.6,0.6,1.3-0.2l1-1.1l-1.4-2.9c-0.3,0-1.1,0.1-1.8,0.2c-0.7,0.1-0.8,0.3-0.6,1l0.2,0.5l-0.6,0.3l-1.9-3.8l0.6-0.3
		c0.5,0.8,0.8,1.2,2.5,1.1l8.9-0.5l0.6,0.7l-6.2,7c-0.7,0.6-0.9,1.6-0.4,2.4l-0.6,0.3l-2.4-4.8L200.1,78.3z M213.1,86l0.3,0.9
		c0.3,0.5,0.4,1.2,0.2,1.8c-0.1,0.3-0.5,0.7-1.3,1.2l0.3,0.6c0.8-0.4,2.2-1,2.9-1.3l-0.1-0.4c-0.4-0.1-0.5-0.2-0.7-0.7l-2.5-6.8
		c-0.2-0.5-0.2-0.7,0-1.1l-0.1-0.3c-0.8,0.3-1.9,0.6-3.1,0.9l0.2,0.6c0.6-0.1,1.1-0.1,1.7,0.1c0.3,0.1,0.7,0.5,1.2,1.8l0.2,0.5
		l-6.6,2.5c-1.6,0.6-1.8,0.5-2.4-0.9l-0.6,0.2l2.1,5.6l0.6-0.2c-0.5-1.6-0.4-1.7,1.2-2.3L213.1,86z M210.6,96l0.7,2.5l2.9-2.1l0-0.1
		L210.6,96z M207.8,99.5l0.2,0.4c0.2,0.6,0.4,0.7,1.3,0l1.2-0.9l-0.8-3.1c-0.3,0-1.1-0.1-1.8-0.1c-0.7,0-0.9,0.2-0.8,0.8l0.1,0.5
		l-0.6,0.2l-1.1-4.1l0.6-0.2c0.4,0.9,0.5,1.3,2.2,1.6l8.8,1.3l0.4,0.8l-7.5,5.6c-0.8,0.4-1.2,1.4-0.9,2.3l-0.6,0.2l-1.3-5.2
		L207.8,99.5z M209.1,109.9c3.4,0.8,8.1,2.1,8.5,2.2c1.6,0.5,1.9,0.7,2.2,1.9l0.6-0.1l-0.7-4.3l-0.6,0.1l0,0.5
		c0,0.8-0.2,0.9-1.1,0.7c-0.8-0.2-4.6-0.9-5.8-1.2l5.2-3.3c0.7-0.4,0.9-0.5,1.1,0.2l0.2,0.6l0.7-0.1l-0.8-5.3l-0.6,0.1
		c0.2,0.9-0.2,1.8-1.1,2.1l-7.9,5L209.1,109.9z M214.5,117.7l0.2,2.6l3.2-1.5l0-0.1L214.5,117.7z M211.1,120.7l0.1,0.4
		c0.1,0.6,0.3,0.8,1.3,0.3l1.4-0.7l-0.2-3.2c-0.3-0.1-1-0.3-1.7-0.4c-0.7-0.2-0.9,0-0.9,0.7l0,0.5l-0.7,0l-0.3-4.2l0.7,0
		c0.2,1,0.3,1.4,1.8,1.9l8.4,2.9l0.2,0.9l-8.4,4.1c-0.9,0.3-1.4,1.2-1.3,2.1l-0.7,0l-0.4-5.3L211.1,120.7z M216.3,133.2
		c1.4,0,2.6-1.1,2.6-2.6c0-1.4-1.1-2.6-2.6-2.6c-1.4,0-2.6,1.1-2.6,2.5C213.7,132,214.9,133.2,216.3,133.2
		C216.3,133.2,216.3,133.2,216.3,133.2 M209.5,145.1c0.6,0.2,2.2,0.7,3,0.9l0.2-0.7c-0.6-0.3-1.2-0.6-1.7-1.1
		c-0.4-0.6-0.5-1.2-0.3-1.9c0-0.5,0.1-1,0.4-1.4c0.2-0.3,0.7-0.4,1.6-0.3l5.2,0.6c1.7,0.2,1.8,0.3,1.7,1.9l0.7,0.1l0.6-5.7l-0.7-0.1
		c-0.2,1.4-0.4,1.6-2.1,1.4l-5.2-0.6c-1.7-0.2-1.8-0.3-1.8-1.9l-0.7-0.1L209.5,145.1z M215.6,155.2c1.7,0.4,1.8,0.5,1.5,1.9l0.6,0.1
		l1.2-5.5l-0.6-0.1c-0.4,1.4-0.5,1.5-2.2,1.2l-5.2-1.1c-1.7-0.3-1.8-0.5-1.6-1.9l-0.6-0.1l-1.2,5.5l0.6,0.1c0.4-1.4,0.5-1.5,2.2-1.2
		L215.6,155.2z M210.8,165.8l-0.3,0.8c-0.5,0.9-0.1,2,0.8,2.5c0.9,0.5,2,0.1,2.5-0.8c0.1-0.1,0.1-0.3,0.1-0.4
		c0.3-0.9,0.3-0.9-0.3-1.1L210.8,165.8z M210,165.5l-2.4-0.8c-1.5-0.5-1.9,0-2.2,0.8c-0.4,1,0.1,2.2,1.2,2.5c0.1,0,0.1,0,0.2,0.1
		c1.6,0.5,2.6-0.5,3-1.8L210,165.5z M213.3,164.1c1.6,0.5,1.8,0.4,2.3-0.8l0.6,0.2l-1.9,5.6c-0.7,2-1.8,3.1-3.4,2.5
		c-1.1-0.5-1.7-1.7-1.4-2.9l-0.1,0c-0.5,1.5-2,2.3-3.5,1.9c-2.3-0.8-2-3.5-1.3-5.5l1.7-5l0.6,0.2c-0.4,1.4-0.3,1.6,1.3,2.2
		L213.3,164.1z M202.7,177c-1.6-0.8-1.6-0.9-1-2.4l-0.6-0.3l-4.1,8.2c0.3,0.3,1.8,1.4,2.3,1.8l0.4-0.6c-0.4-0.4-0.8-0.9-1.1-1.4
		c-0.1-0.7,0.1-1.4,0.4-2c0.2-0.5,0.5-1,0.9-1.4c0.3-0.2,0.8-0.1,1.6,0.3l2.1,1l-0.7,1.4c-0.6,1.2-0.7,1.2-1.8,0.9l-0.3,0.6l3.1,1.6
		l0.3-0.6c-1-0.7-1-0.8-0.4-2l0.7-1.4l2.8,1.4c0.5,0.3,0.5,0.3,0.2,0.9l-0.4,0.8c-0.5,1-0.9,1.4-1.2,1.5c-0.6,0.1-1.1,0.1-1.7-0.2
		l-0.3,0.6c1.1,0.5,2.1,0.9,2.5,1l3.8-7.6l-0.6-0.3c-0.7,1.2-0.9,1.3-2.4,0.5L202.7,177z M196.5,193.1l-0.4,0.6
		c-0.3,0.4-0.5,0.9-0.6,1.4c0,0.8,0.4,1.5,1,1.9c0.9,0.7,2.2,0.6,2.9-0.3c0.1-0.1,0.1-0.2,0.2-0.3c0.5-0.8,0.6-0.9,0-1.2
		L196.5,193.1z M194.4,191.6c-1.4-1-1.6-0.9-2.5,0.2l-0.5-0.4l3.2-4.6l0.5,0.4c-0.8,1.3-0.8,1.4,0.6,2.4l4.3,3
		c1.4,1,1.6,0.9,2.5-0.2l0.5,0.4l-3.4,4.8c-0.5,0.8-1.1,1.4-2,1.9c-0.8,0.3-1.8,0.2-2.5-0.3c-1-0.8-1.4-2.2-0.9-3.4
		c-0.6,0-1.9-0.1-2.8-0.1c-0.7,0-1.4,0-2,0.1c-0.4,0.1-0.9,0.3-1.2,0.6l-0.5-0.4l0.5-0.8c1.2-1.7,2.1-1.9,3.1-1.9
		c0.9,0,2.2,0.1,3,0.2c0.6,0.1,0.7-0.1,1.1-0.6l0.2-0.3L194.4,191.6z M188.6,209.8l-0.6,0.7c-0.6,0.6-1.1,1-1.5,1
		c-0.6-0.1-1.2-0.3-1.6-0.7l-0.4,0.5c0.7,0.6,1.9,1.5,2.5,2.1l0.3-0.3c-0.1-0.3,0-0.7,0.3-0.9l5-5.3c0.4-0.4,0.5-0.5,1-0.5l0.3-0.3
		c-0.6-0.6-1.3-1.5-2.2-2.4l-0.5,0.5c0.3,0.5,0.6,1,0.7,1.5c0,0.4-0.2,0.9-1.1,1.9l-0.4,0.4l-5.1-4.9c-1.2-1.2-1.2-1.4-0.2-2.6
		l-0.5-0.4l-4.1,4.3l0.5,0.5c1.2-1.1,1.4-1.1,2.6,0L188.6,209.8z M177.2,212.9l-2.1,1.6l3.1,1.8l0.1,0L177.2,212.9z M172.9,211.8
		l-0.3,0.3c-0.5,0.5-0.5,0.7,0.5,1.2l1.3,0.8l2.5-2c-0.1-0.3-0.3-1-0.6-1.7c-0.3-0.7-0.5-0.7-1-0.4l-0.5,0.3l-0.4-0.5l3.3-2.6
		l0.4,0.5c-0.7,0.7-1,1-0.6,2.6l2.3,8.6l-0.6,0.7l-8.1-4.7c-0.7-0.6-1.8-0.6-2.5,0.1l-0.4-0.5l4.2-3.3L172.9,211.8z M165.3,227.2
		l-0.8,0.4c-0.8,0.4-1.3,0.6-1.7,0.5c-0.4-0.1-0.7-0.4-1.3-1.1l-0.6,0.4c0.5,0.8,1.3,2,1.7,2.7l0.3-0.2c0.1-0.4,0.1-0.5,0.6-0.8
		l6.4-3.4c0.5-0.3,0.7-0.3,1.1-0.1l0.3-0.2c-0.4-0.7-0.8-1.8-1.4-3l-0.6,0.3c0.2,0.5,0.3,1.1,0.2,1.7c-0.1,0.4-0.4,0.8-1.6,1.4
		l-0.5,0.3l-3.3-6.2c-0.8-1.5-0.7-1.7,0.6-2.5l-0.3-0.6l-5.2,2.8l0.3,0.6c1.5-0.7,1.7-0.7,2.5,0.9L165.3,227.2z M151.9,230.9
		c0.6,1.6,0.4,1.8-0.9,2.3l0.2,0.6l5.3-1.8l-0.2-0.6c-1.4,0.4-1.6,0.3-2.1-1.3l-1.7-5c-0.5-1.6-0.4-1.8,0.9-2.3l-0.2-0.6l-5.3,1.8
		l0.2,0.6c1.4-0.4,1.6-0.3,2.1,1.3L151.9,230.9z M143.6,228.6c-0.3-0.9-0.6-1.8-1-2.7c-1-0.4-2.1-0.5-3.1-0.3c-2.5,0.4-4.1,2-3.8,4
		c0.3,1.9,1.9,2.5,3.6,2.8l0.6,0.1c1,0.2,1.7,0.6,1.9,1.4c0.1,0.9-0.5,1.7-1.3,1.8c0,0,0,0,0,0c-1.3,0.1-2.4-0.7-2.8-1.9L137,234
		c0.4,1.1,0.6,1.9,0.8,2.5c0.8,0.1,1.7,0.1,2.5,0.1c2.7-0.4,3.9-2.1,3.6-4c-0.3-1.6-1.8-2.1-3.2-2.4l-0.7-0.1
		c-1.3-0.3-1.9-0.9-2.1-1.8c-0.1-0.9,0.5-1.7,1.4-1.8c0,0,0.1,0,0.1,0c1.5,0,2.9,0.9,3.6,2.4L143.6,228.6z M125.4,232.5
		c0,1.4,1.2,2.5,2.6,2.5c1.4,0,2.5-1.2,2.5-2.6c0-1.4-1.2-2.5-2.6-2.5C126.6,229.9,125.4,231,125.4,232.5 M99,110.3L99,110.3
		 M197.8,99.2c0.6-0.6,1.5-0.9,2.4-0.8c0-0.1-0.1-0.1-0.1-0.2c-0.9-0.9-2.3-0.9-3.2,0c-0.9,0.9-0.9,2.3,0,3.2c0.1,0,0.1,0.1,0.2,0.1
		C196.9,100.7,197.2,99.8,197.8,99.2 M186.5,64.9c13.4,18.3,20.5,40.5,20.2,63.1c0,13.1-2.3,26.1-6.8,38.3c-0.1,0.4-0.3,0.8-0.4,1.1
		l-8.5,0c0.9,0.6,1.4,1.6,1.5,2.6c0,1.9-1.3,1.9-3.5,1.9l-0.9,0h-24.2c-1.6,0-2.8,0-3.4-0.6c-0.3-0.3-0.5-0.8-0.5-1.3
		c0.1-1.1,0.6-2,1.5-2.7h-15.8c1.3-1.9,2.2-4,2.8-6.2c3.3-11.2,3-23.5,3.1-33.4c0.1-5.9,0.1-5.4-0.2-10.9c0,0,1.1-0.4,0.4-2.7
		c-0.4-1.2-1.1-2.2-2.1-2.8c0.1-0.5-0.1-1.1-0.5-1.4l-0.7-0.7c0-0.1,0-0.2-0.1-0.3c-0.3-0.8-0.5-1.7-0.5-2.6
		c-0.3-3.4-1.1-6.8-2.3-10c0.4,0.1,0.9,0.2,1.3,0.1c1.6-0.3,1.3-2.1,0.5-3.2c-0.4-0.5-1.5-2.1-2-2.9c-0.6-1.3-1.2-2.7-1.6-4
		c-0.2-2.5-0.2-4.9,0-7.4c0.6-11.5-4.6-12.2-6.4-13c-0.6-0.3-1.2-0.6-1.7-1.1c-0.1,2.1-3.2,3.5-6.4,3.5c-3.3,0-6.4-1.3-6.4-3.5
		c0-0.1-0.1-0.3,0.3-0.7l-1.6,0.2c-2,0.5-2.4,0.3-3.2,0.6c-1.7,0.7-2.9,2.1-3.3,3.8c-1,2.3-2,5-2,5c-0.2,0.6-0.6,1.6-0.6,1.6
		s-0.7-0.8-1-1.2c-0.6-0.8-4.6-4.4-5.2-5c-0.3-0.3-2.8,0.5-2.8,0.5c3.6,2.9,6.9,6.3,9.6,10.1c0.3,0.6,0.1,0.4-0.3,0.2
		c-4-1.6-8.4-2.1-12.7-1.7l-1.6,2.3c7.5-0.7,13.3,0.1,14.8,2.2c0.4,0.5,1.1,0.8,1.7,0.7c0.6-0.1,1-0.7,1-1.3c0-0.4,0.1-0.7,0.2-1
		c3-5.1,7.7-8.9,13.2-11l3.8,11.9c0.9,0.1,1.9,0.3,2.8,0.5c-0.3-0.7-1.9-2.1-1.4-2.9c0.1-0.2,1.8,0,2.6-0.5c0.9-0.6,2.3-1.9,1-5.3
		c-0.2-0.6-0.5-1.4-0.6-1.7l0.7-0.2c0.1,0.2,0.3,0.9,0.6,1.6c1.8,4.5-0.3,5.8-1.2,6.6c-0.1,0.1-0.3,0.3-0.4,0.4
		c-0.4,0.8-0.3,1.6,0.2,2.3c0.8,0.3,0.8,0.6,0.8,0.6l0,2.5c-3.3-0.9-6.6-1.4-10-1.5c0.4-0.1,1.6-0.7,1.2-1.1
		c-0.2-0.2-1.2,0.1-1.8,0.2c-0.5,0-0.4-0.3-0.2-0.5c0.3-0.1,0.6-0.3,0.9-0.5c0.9-0.5,1.6-1.3,2.1-2.2c0.2-0.5-0.5-0.6-0.5-0.6
		c0.1-0.5-0.4-0.7-0.9-0.5c-0.9,0.5-1.9,0.9-2.9,1.2c-0.4,0.1-0.6-0.3-0.4-0.5c0.7-0.7,1.3-1.5,1.8-2.4c0.8-1.2-0.4-1.1-0.8-0.7
		c-1.3,1.3-2.8,2.4-4.3,3.4c-0.6,0.3-0.8,0.2-0.7-0.3c0.1-0.6,0.1-1.2,0-1.8c0-0.6-1.2-1.1-1.2-0.4c0.1,0.8-0.2,1.6-0.7,2.2
		c-0.8,1.1-0.5,2.4-0.8,2.7c-2,1.8-4.8,2.4-7.4,1.8c-1.2-1.5-3.3-1.8-4.9-0.9c-4,3.6-2.3,11.8-2,12.4c1.8,4.6,4.5,2.2,5,1.7
		c2-2.1,3.5-4.8,4.2-7.6c1.5-0.4,2.9-1.1,4.1-2c1.1-0.9,2.2-1.6,3.5-2.1c0.8,0,2.1-0.6,2.6-0.5v0.5c-1.9,1.1-3.7,2.4-5.3,3.8
		c-0.4,2.3-6.2,10.3-4,11.9c1,0.7,0.4,2,0,3.7c-1,4.8-1.8,9.6-2.3,14.5c0,0-0.7,2.5,0.5,3.3c2,0.6,4.2,0.9,6.3,0.7
		c0.7-0.1,2,0.7,2.5,0.6c0,0-0.2,4.1-0.8,4c-0.7-0.1-0.6-2.9-0.7-2.7c-0.1,0.3-0.6-0.4-0.8-0.3c-1.6,0.2-3.2,0.1-4.7-0.2
		c-0.5,0-1,0.3-1.2,0.8c-0.2,1.7-0.3,3.4-0.3,5.1c-0.1,1.3-0.3,2.2-0.4,3.7c-0.1,0.7-0.1,5.7-0.2,7.8c-0.3,4.3-0.8,15.7-0.9,19.5
		c-7.5,0.2-14.8-0.8-11.9-3.7c0.5-0.5,1-0.9,1.6-1.4c2.1-2,2.2-0.2,4.5-3.7c1.8-3.4,3.1-7,3.8-10.8c0.7-2.5-0.2-3.5-2.1-0.2
		c-0.5,1.1-1.1,2.3-1.7,3.3c-0.7,1-1.5,1.7-2.5,2.3c-2.2,0.9-3.8-3.1-0.8-6.7c1.1-1.3,2.4-1,2.6-0.3c0.1,0.3,0.4,0.5,0.7,0.4
		c0.1-0.1,0.3-0.2,0.3-0.3c0.4-0.6,0.7-1.2,1-1.9c2.4-4,3.9-8.5,4.3-13.1c0-0.6,0-1.2,0-1.7c0-2.9-1.8-3.9-2.5-2
		c-0.6,1.6-1.9,1.2-1.5-0.9c1.3-5.8,3.1-11.5,5.4-17c0.3-1-0.4-1.2-0.7-1.4c-0.4-0.3-0.6-0.4-0.4-1.3c1.1-3.7,2.6-7.2,4.4-10.6
		c0.5-0.8-0.2-1.2-0.8-0.2c-7.9,12.4-11.2,33.1-11.2,34.5c0.2,5.4,3.3,2.6,3.3,2.6c-0.7,2.6-2,5.1-3.8,7.2c-7,10.2-4.1,15-4.1,15
		c1.1,2.1,3,3.9-1.2,7.2c-1.4,1.1-5.8,4.3-0.8,7.6c1.5,1,2.6,1.7,3.4,2.1h-7.3c0.9,0.6,1.4,1.6,1.5,2.7c0,1.9-1.3,1.9-3.5,1.9
		l-25.1,0c-1.5,0-2.8,0-3.4-0.6c-0.3-0.3-0.5-0.8-0.5-1.3c0.1-1.1,0.6-2,1.5-2.6l-7.6,0c-0.1-0.4-0.3-0.8-0.4-1.1
		c-4.5-12.3-6.8-25.3-6.8-38.3c-0.2-22.7,6.9-44.8,20.2-63.1c0-0.1,0.1-0.1,0.1-0.2v33.2c-0.9-0.4-1.9-0.3-2.6,0.4
		c-0.1,0.1-0.1,0.1-0.1,0.2c0.9-0.1,1.8,0.1,2.4,0.8c0.6,0.6,0.9,1.5,0.8,2.3c-0.1,0.1-0.3,0.2-0.4,0.3v0.9c0.9,1.6,2.6,2.6,4.5,2.5
		c2.3,0,4.2-1.9,4.3-4.2c-0.2-0.3-0.4-0.5-0.7-0.6c-0.3,1.2-1.6,1.9-2.8,1.6c-1.2-0.3-1.9-1.6-1.6-2.8c0.3-1.2,1.6-1.9,2.8-1.6
		c0.9,0.3,1.6,1.1,1.6,2c0.3,0,1,0,1-1.3c-1.2-0.2-2.1-1.4-1.9-2.6c0.2-1.2,1.4-2.1,2.6-1.9c1.2,0.2,2.1,1.4,1.9,2.6
		c-0.2,1-0.9,1.7-1.9,1.9c0.1,1.3,0.8,1.3,1,1.3c0.1-1.2,1.1-2.2,2.4-2.1c1.2,0.1,2.2,1.1,2.1,2.4c-0.1,1.2-1.1,2.2-2.4,2.1
		c-0.9-0.1-1.8-0.7-2-1.6c-0.3,0.1-0.6,0.3-0.7,0.6c0.1,2.3,2,4.2,4.3,4.2c2.2,0.1,4.1-1.2,4.8-3.3c-0.9-0.3-1.5-1.2-1.5-2.1
		c0-0.5,0.2-1,0.5-1.4c0.9-0.1,1.7,0.2,2.3,0.8c0.6,0.6,0.9,1.5,0.8,2.4c0.1-0.1,0.1-0.1,0.2-0.1c0.9-0.9,0.9-2.3,0-3.2
		c-0.6-0.6-1.4-0.8-2.1-0.6V61.3c0,0-3.1-26.9,37.8-27.4c39-0.3,38.5,27.5,38.5,27.5v36.2c-0.7-0.1-1.4,0.2-1.9,0.6
		c-0.9,0.9-0.9,2.3,0,3.2c0,0,0,0,0,0c0.1,0,0.1,0.1,0.2,0.1c-0.2-0.9,0.1-1.8,0.8-2.4c0.6-0.6,1.5-0.9,2.4-0.8
		c0.4,0.4,0.6,0.9,0.6,1.5c0,0.9-0.6,1.8-1.5,2.1c0.7,2.1,2.7,3.4,4.8,3.3c2.3,0,4.2-1.9,4.3-4.2c-0.2-0.3-0.4-0.5-0.7-0.6
		c-0.3,1.2-1.6,1.9-2.8,1.6c-1.2-0.3-1.9-1.6-1.6-2.8c0.3-1.2,1.6-1.9,2.8-1.6c0.9,0.3,1.6,1.1,1.7,2c0.3,0,1,0,1-1.3
		c-1.2-0.2-2.1-1.4-1.9-2.6s1.4-2.1,2.6-1.9c1.2,0.2,2.1,1.4,1.9,2.6c-0.2,1-0.9,1.7-1.9,1.9c0.1,1.3,0.8,1.3,1,1.3
		c0.1-1.2,1.1-2.2,2.4-2.1c1.2,0.1,2.2,1.1,2.1,2.4c-0.1,1.2-1.1,2.2-2.4,2.1c-1-0.1-1.8-0.7-2-1.6c-0.3,0.1-0.5,0.3-0.7,0.6
		c0.1,2.3,1.9,4.2,4.3,4.2c2.2,0.1,4.1-1.2,4.9-3.3c-0.3-0.1-0.5-0.2-0.7-0.4c-0.2-1.5,0.8-2.9,2.3-3.2c0.3,0,0.6,0,0.9,0
		c0-0.1-0.1-0.1-0.1-0.2c-0.5-0.5-1.3-0.8-2-0.6V64.7C186.4,64.7,186.4,64.8,186.5,64.9 M89.8,102.6c0.1,2.1,1.9,3.8,4.1,3.7
		c0,0,0,0,0,0c0.8,0,1.6-0.3,2.3-0.9c-0.5,0.3-1,0.4-1.6,0.4c-1.9,0.2-3.7-1.2-4-3.1c-0.1-0.2-0.1-0.4-0.1-0.7L89.8,102.6z
		 M60.3,100.1c-0.1,0.1-0.1,0.1-0.1,0.2c1.5-0.2,2.9,0.8,3.2,2.3c0,0.3,0,0.6,0,0.9c0.1,0,0.1-0.1,0.2-0.1c0.9-0.9,0.9-2.3,0-3.2
		C62.6,99.2,61.2,99.2,60.3,100.1 M58.5,101.5c0.9-0.9,0.9-2.3,0-3.2c-0.9-0.9-2.3-0.9-3.2,0c0,0.1-0.1,0.1-0.1,0.2
		c1.5-0.2,2.9,0.8,3.2,2.3c0,0.3,0,0.6,0,0.9C58.4,101.6,58.5,101.6,58.5,101.5 M59.9,103.9c0.7,1.4,2.1,2.3,3.6,2.4
		c0.9,0.1,1.9-0.2,2.6-0.8c-0.6,0.3-1.3,0.4-1.9,0.3c-1.5-0.1-2.9-1-3.6-2.4L59.9,103.9z M94.6,170.1c-0.2-1.2-0.9-2.2-2-2.7
		c-0.6-0.3-1.2-0.6-1.8-0.9h0.1c0,0-0.1,0-0.1,0l0.1,0H67.3l0.1,0c0,0-0.1,0-0.1,0h0.1c-0.6,0.2-1.2,0.5-1.8,0.9
		c-1.1,0.5-1.8,1.5-2,2.7c0,0.1,0,0.3,0.1,0.4h31C94.6,170.4,94.6,170.3,94.6,170.1 M100,98.4c-0.1,0.1-0.1,0.1-0.1,0.2
		c1.5-0.3,2.9,0.8,3.2,2.3c0.1,0.3,0.1,0.6,0,0.9c0.1,0,0.1-0.1,0.2-0.1c0.9-0.9,0.9-2.3,0-3.2C102.3,97.5,100.9,97.5,100,98.4
		C100,98.4,100,98.4,100,98.4 M100.5,102.8c-1,0.4-2.3,1.8-2.2,5.8c0,1,0,1.4,0,1.7H60.1V137c0,6.9,3.7,13.3,9.6,16.8
		c5.1,3,11.3,3.5,16.9,1.3c-2.9,1.7-6.2,2.6-9.6,2.6c-2.5,0-4.9-0.5-7.3-1.4v9.6h19.7v-12.1c5.9-3.5,9.6-9.9,9.6-16.8v-26.7h0
		c0-0.7,0-1.4,0-2.1C98.6,106.3,99.2,104.3,100.5,102.8 M98.3,100.1c-0.9-0.9-2.3-0.9-3.2,0c0,0.1-0.1,0.1-0.1,0.2
		c0.9-0.1,1.8,0.1,2.4,0.8c0.6,0.6,0.9,1.5,0.8,2.4c0.1,0,0.1-0.1,0.2-0.1C99.2,102.4,99.2,101,98.3,100.1 M141.4,43.4
		c0-1.7-0.1-4-3.4-4c0.9,0-2.4-0.2-2.4,1.4c0.1,1.4-1,2.6-2.4,2.6c-0.1,0-0.2,0-0.3,0c0,0-3.8-1.2-1.8-1.9c1.5-0.6,2.3-2.3,1.7-3.8
		c0-0.1,0-0.1-0.1-0.2c-0.8-1.3-2.6-1.8-3.9-0.9c-0.2,0.1-0.4,0.3-0.6,0.5c-0.4,0.4-0.1,1.7-1,1.7c-1,0-1-1-1-1.6
		c0-0.7-0.3-1.7-2.1-1.7c-1.1-0.1-2.1,0.6-2.2,1.7c0,0,0,0.1,0,0.1c-0.1,0.7,0.2,1.4,0.9,1.7c0.6,0.4,0.3,1.7-0.8,0.9
		c-0.4-0.2-4.1-3.7-7.8-1.4c-1.6,1.1-1.6,2.5-0.5,3.2c0.4,0.3,0.6,0.8,0,1.1c-1.1,1.5-0.9,3.5,0.5,4.7c1.3,1.2,3.3,1.1,4.5-0.2
		c0.2-0.2,0.3-0.4,0.5-0.7c0.4-1.2,0.6-2.4,0.4-3.6c0-0.5,0.3-1.9,2.4-1.5c0.9,0.2,1,0.8,0.5,1.3c-2,1.5-3.1,3.9-3.1,6.4
		c0,1.2-0.7,2.4-1.8,3c-0.9,0.6-3.1,2-1.1,4.3c1.1,1.3,1.4,1.7-1.2,4.1c-0.4,0.4-1.4,0.9,0.4,1.1c2.5,0,5-0.1,7.5-0.4l-0.5-1
		c-1.9,0.2-3.9,0.3-5.8,0.2c2-1,2.8-3.4,1.8-5.4c0-0.1-0.1-0.2-0.1-0.3c-1-1.3-0.1-2.3,1.8-2.5c1.5-0.3,3.1-0.1,4.5,0.6
		c0,0-2.8-0.3-3.9,0.6l0,0.3c0,0.1,0.1,0.4,0.2,0.7c1-0.3,2.1-0.5,3.2-0.7c0.2,0.1,0.2,0.3,0.1,0.5c-0.1,0.2-0.3,0.2-0.5,0.1
		c-0.3,0.1-0.5,0.1-0.8,0.1c0,0.1,0.5,0.3,0.5,0.3c0.1,0.3-0.1,0.7-0.5,0.8c-0.3,0.1-0.7-0.1-0.8-0.5c0,0,0,0,0,0
		c-0.1-0.2,0-0.4,0.1-0.6c-0.4,0-0.9,0.1-1.3,0.3c0,0.1,0,0.2,0.1,0.2c0,0.1,0.1,0.3,0.2,0.4c0.2,0.5,0.4,1,0.4,1.6
		c0,0.3,0.1,0.6,0.2,0.9c0.1,0.2,0.2,0.4,0.3,0.6c0.7,1.6,1.7,4,4.8,3.2c0.2,0,0.3,0.1,0.4,0.2c0,0,0,0,0,0c0,0.2-0.1,0.3-0.2,0.4
		c-0.2,0.1-0.4,0.2-0.6,0.2c-0.5,0.2-1.1,0.3-1.7,0.2c0.1,0.5,0.2,0.9,0.2,0.9s-1.1,0.2-1.6,0.3c-0.1,0.2-0.1,0.1-0.1,0.3
		c0,1.9,2.4,3.4,5.4,3.4c3,0,5.4-1.5,5.4-3.4c0-0.2,0-0.3-0.1-0.5l0,0c-0.2-0.3-0.3-0.5-0.5-0.8c-1.4-2.3-1.1-2.9-1.1-2.9
		c0.1-0.3-0.1-0.3,0.2-0.3c2.4-0.1,4.7-0.4,7.1-0.9c0.5-0.1,1.1-0.6,0.5-0.9c-0.5-0.3-4.5-0.7-4.4-3.1c0-1.8,0.5-4.1-2.9-5.2
		c-0.3-0.1-0.3-0.2-0.3-0.6c0-1.2-0.4-2.4-1.1-3.4c-0.6-0.7-1.4-1.4-1.3-1.7l0.5-0.2c0.9,0.4,1.7,1.1,2.2,2c0.5,0.9,1.4,1.7,4.2,1.7
		C139.7,47.5,141.4,45.7,141.4,43.4 M192,100c-0.9,0.9-0.9,2.3,0,3.2c0.1,0,0.1,0.1,0.2,0.1c-0.1-0.9,0.1-1.8,0.8-2.4
		c0.6-0.6,1.5-0.9,2.4-0.8c0-0.1-0.1-0.1-0.1-0.2C194.3,99.2,192.9,99.2,192,100C192,100,192,100,192,100 M191.3,105.8
		c-0.7,0.1-1.3-0.1-2-0.3c0.7,0.6,1.7,0.9,2.6,0.8c1.5-0.1,2.9-1,3.6-2.4l-0.7-0.4C194.2,104.8,192.9,105.7,191.3,105.8 M177,127.6
		h2.2v-1.7c0-0.9-0.7-1-1.6-1v-0.4h4.4v0.4c-0.8,0.1-1.6,0.1-1.6,1v1.7h1v2.3c0.3,0.1,0.5,0.1,0.8,0.1c1.3,0,1.9-0.8,1.9-2.3
		c0-0.5,0-0.9-0.1-1.3h0.7c-0.1,0.6-0.1,1.1-0.1,1.7v-0.3c0.1,0.8-0.2,1.5-0.8,2.1c-0.6,0.4-1.3,0.7-2,0.6c-0.2,0-0.3,0-0.5-0.1v2.5
		h4.4v-10.8H177L177,127.6z M186.6,115.6C186.6,115.5,186.6,115.5,186.6,115.6C186.6,115.5,186.6,115.5,186.6,115.6
		c0-0.1,0-0.2,0-0.2c0,0,0,0,0,0l-0.9-0.4c-0.1,0-0.1,0-0.1,0.1c0,0.1,0,0.1,0.1,0.1l0.4,0.2c-0.1,0-0.1,0.1-0.1,0.1
		c0,0.1,0.1,0.3,0.3,0.3C186.4,115.8,186.6,115.7,186.6,115.6 M186.4,116.6c-0.4-0.1-0.8,0.2-1,0.6c1.4-0.6,1.5,0.5,1.5,0.5
		C187,117.5,187.3,116.8,186.4,116.6 M186.8,115.5C186.8,115.6,186.9,115.6,186.8,115.5C186.9,115.6,186.8,115.6,186.8,115.5
		c0,0.2,0.1,0.4,0.3,0.4c0.2,0,0.4,0,0.4-0.2c0-0.1,0-0.1-0.1-0.2l0.4,0c0.1,0,0.1-0.1,0.1-0.1c0-0.1,0-0.1-0.1-0.1l-1,0
		C186.9,115.4,186.8,115.5,186.8,115.5 M187.5,122.5c-0.3,0-0.6-0.1-0.9-0.1v0.7c0.2-0.1,0.4-0.2,0.7-0.2
		C187.8,122.9,187.5,122.5,187.5,122.5 M184.8,139.6c0.7-1.4,1.1-2.9,1.1-4.5v-1.4h-4.4v0.5c0,0.4,0,0.8-0.1,1.1L184.8,139.6z
		 M177.9,138.9c-0.3,0.1-0.6,0.1-0.9,0.2v5.4c1.5-0.1,3-0.5,4.3-1.3L177.9,138.9z M175,131v-2.7h-2.7v2.7H175v3h-2.7v0.2
		c0,1.7,1.1,3.3,2.7,3.9V134h3v4.1c1.5-0.6,2.5-1.9,2.7-3.5c0-0.1,0-0.3,0-0.4V134h-2.7v-3L175,131z M178.1,131h2.7v-2.7h-2.7V131z
		 M166.9,114.1C166.9,114.1,166.9,114.1,166.9,114.1c0,0.2,0.1,0.3,0.2,0.3c0.1,0,0.3-0.1,0.3-0.2c0,0,0-0.1,0-0.1c0,0,0,0,0-0.1
		l0.4,0c0.1,0,0.1,0,0.1-0.1c0-0.1,0-0.1-0.1-0.1l-0.6,0l0,0l0,0l-0.3,0c-0.1,0-0.1,0.1-0.1,0.1
		C166.7,114.1,166.8,114.1,166.9,114.1L166.9,114.1z M167.2,125.6v7.4h4.4v-1.8L167.2,125.6z M175.1,127.6h1.2v-5.4h-5.6
		L175.1,127.6z M167.2,133.7v1.4c0,5.1,4,9.2,9.1,9.4v-5.4c-0.3,0-0.7-0.1-1-0.2c0,0.1,0,0.3,0,0.4V139c0.1,0.8-0.2,1.5-0.8,2.1
		c-0.6,0.4-1.3,0.7-2,0.7c-0.7,0-1.3-0.1-1.9-0.5c-0.6-0.5-0.9-1.2-0.8-2v-2.2c0-0.9-0.7-1-1.6-1v-0.4h3.6c-0.1-0.5-0.2-1-0.2-1.5
		v-0.5L167.2,133.7z M172,136.1c-0.6,0.1-1,0.3-1,1v2c0,1.4,0.6,2.1,1.8,2.1c1.3,0,1.9-0.8,1.9-2.2v-0.2
		C173.5,138.3,172.5,137.3,172,136.1 M164.9,102.8c-0.3,1.9-2,3.3-4,3.1c-0.6,0-1.1-0.2-1.6-0.4c1.7,1.4,4.1,1.1,5.5-0.6
		c0.5-0.6,0.8-1.4,0.9-2.3l-0.7-0.4C165,102.3,165,102.5,164.9,102.8 M157.1,100.1c-0.9,0.9-0.9,2.3,0,3.2c0.1,0.1,0.1,0.1,0.2,0.1
		c-0.1-0.9,0.1-1.8,0.8-2.4c0.6-0.6,1.5-0.9,2.4-0.8c0-0.1-0.1-0.1-0.1-0.2C159.4,99.2,158,99.2,157.1,100.1
		C157.1,100.1,157.1,100.1,157.1,100.1 M153.1,99.2c0.6-0.6,1.5-0.9,2.4-0.8c0-0.1-0.1-0.1-0.1-0.2c-0.9-0.9-2.3-0.9-3.2,0
		c-0.9,0.9-0.9,2.3,0,3.2c0,0,0,0,0,0c0.1,0,0.1,0.1,0.2,0.1C152.2,100.7,152.5,99.8,153.1,99.2 M155.5,102.8
		c1.3,1.5,1.8,3.5,1.5,5.4c0,1.4,0,1.9,0,2l0,0.1V133h9.4v-5.3c-0.8,0.2-1.7,0.4-2.5,0.5c-0.8,0.2-0.3,1.5-0.3,1.5
		c-0.7-0.1-0.7-0.9-0.7-0.9c-0.9,0-0.7,1.1-0.7,1.1c-0.7-0.3-0.1-1.1-0.3-1.2c-0.4-0.2-1,0.6-1,0.6c0-0.6,0.2-1.1,0.6-1.5
		c-0.3-0.2-0.8,0.1-0.8,0.1c0.4-1.3,1.4-0.6,1.7-0.4c0.2,0.2,0.3,0.3,0.6,0.1c0.6-0.5,1.3-0.9,2-1.2c-0.7,0.1-1.2-0.8-1.2-0.8
		c0.9,0,1-0.3,1.2-0.5c0.3-0.6,0.8-1.1,1.3-1.5v-1.4c-0.5-0.2-1-0.4-1.4-0.7c-0.8,0.9-1.7,1.8-2.8,2.4c-0.2,0-0.4,0.3-0.4,0.5
		c0,0.8-0.4,1-0.4,1c0.1-0.3-0.2-0.7-0.5-0.7c0,0,0,0-0.1,0c-0.6,0-0.7,0.9-0.7,0.9c-0.6-0.3-0.1-1.3-0.1-1.3
		c-0.4,0.1-0.8,0.2-1.1,0.5c-0.3-0.7,0.8-1.1,0.8-1.1c-0.4-0.1-0.7-0.1-1.1-0.1c0.3-0.6,1-0.8,1.5-0.5c0.1,0.1,0.2,0.2,0.3,0.3
		c0.1,0.2,0.2,0.5,0.5,0.1c0.3-0.5,2.1-2.2,2.4-2.5c-0.3-0.1-1.2,0.1-1.7-0.4c0.7,0,1.3-0.2,1.9-0.6c0-0.2-0.1-0.3-0.3-0.4
		c-1.2-0.8-2.3-1.8-3.3-2.9c-1.2,0.1-1.4-0.6-1.4-0.6c0.3,0.1,1.1,0,1.1-0.2c0-0.3-1-0.7-1-0.7c0.2-0.2,1.2,0.1,1.2,0.1
		c0-0.1-0.6-1-0.6-1c0.5,0,1.1,0.7,1.1,0.7c0.2-0.3-0.2-1.1-0.2-1.1c1.1,0.6,0.9,2,0.9,2l3.4,2.4c0.7,0.5,1.7,0.3,2.2-0.3
		c0.3-0.2,0.3-0.6,0.1-0.9c-0.1-0.1-0.2-0.2-0.3-0.2c-0.1,0-0.6,0.1-0.7-0.1c-0.2-0.3-0.1-0.6,0.1-0.7c0.4,0,0.8,0,1.1,0
		c0.2,0,0.3-0.3,0.1-0.4c-1-0.4-1.4-0.6-1.4-0.7c0-0.4-0.1-0.6,0.1-0.7c0.5,0,0.6-0.1,0.6-0.1c0.5-0.6,0.8-0.6,0.9-0.6
		c0.5,0,1,0.1,1.5,0.3c0.1,0,0.4,0.1,0.4,0c0.4-0.4,1-0.4,1.3,0c0,0,0,0,0,0c-0.3,0-0.8,0.3-0.6,0.5c0.4,0.3-0.1,1.3-0.2,1.6
		c-0.3,0.9,0.6,1.8,0.6,1.8c-0.5,0.3-1.1,0.2-1.5-0.2c0,1.6,2.4,1.6,2.4,1.6c-0.5,0.9-2,0.7-2.3,0.6c-0.4-0.1-0.3,0.4,0.2,0.6
		c0.8,0.3,1.5,0.8,2.2,1.3h2.2c0.1-0.3,0.2-0.7,0.1-1c-0.3-0.9-0.8-1.6-1.4-2.4c-0.2-0.2-0.4-0.5-0.5-0.7c0-0.1-1.1-1.7-0.5-2.6
		c0.4-0.7,1.2-0.9,1.9-0.6c0.6-0.7,1.7-0.5,2.1,0.7c0.5,1.3-0.8,1.5,0,3.5c-1.5-0.3-2.5-1.8-2.2-3.3c0-0.1,0-0.1,0.1-0.2
		c-0.2,0-0.4,0-0.6,0c-0.3,0-0.6,0.1-0.7,0.4c-0.3,0.5,0.1,1.5,0.5,2c0.1,0.2,0.3,0.4,0.5,0.6c0.6,0.8,1.2,1.6,1.5,2.6
		c0.1,0.4,0.1,0.8,0,1.2h2.1v-11.2h-18.3l-0.2-0.1c0-0.3,0-0.7,0-1.6C157.8,104.6,156.5,103.3,155.5,102.8 M157,137
		c0,1.1,0.1,2.2,0.3,3.3h10.5c-0.9-1.6-1.4-3.3-1.4-5.1v-1.4H157V137 M160.7,148.3c1.4,1.9,3,3.5,5,4.8l0,12.7h20.7l0-9.7
		c-5.5,2.3-11.8,1.8-16.9-1.1c2.2,0.9,4.5,1.3,6.9,1.3v-8.1L160.7,148.3 M191.7,170.1c0-1.3-1.4-2.6-3.8-3.5h-23.5
		c-2.4,0.9-3.8,2.2-3.8,3.5c0,0.1,0,0.3,0.1,0.4h31C191.7,170.4,191.7,170.3,191.7,170.1 M195.9,133.7h-9.3v1.4
		c0,0.9-0.1,1.8-0.4,2.7c0.6,0,1.2,0,1.8-0.1c0,0,1.4-0.1,2.1,0c0.3,0,0.6,0.1,0.9,0.2c0.7-0.1,2-0.5,2.2-1c0.1-0.1,0.2-0.3,0.2-0.4
		c0,0,0-0.4-0.1-0.5c-0.6-0.1-1.3,0-1.8,0.4c-0.7,0.5-1.6,0.5-2.3,0.2c-0.2-0.2-0.3-0.5-0.1-1.1c0,0,0.1-0.7,1.1-0.7
		c0.4,0,0.4,0.4,0.1,0.7c-0.2,0.2-0.7,0.5-1,0.3c0,0.2,0,0.4,0,0.4c0.6,0.3,1.4,0.2,1.9-0.2c0.6-0.4,1.4-0.5,2.1-0.4
		c0.2,0.1,0.4,0.4,0.5,0.5c0.1,0.2-0.2,0.6-0.3,0.8c-0.3,0.6-1.4,0.9-2.1,1.1c0.2,0.1,0.3,0.3,0.4,0.4c0.1,0.2,0.1,0.4,0.2,0.5
		c0.2,0.9,1.4,0.4,1.4,0.4c-0.1,0.7-0.3,1.3-0.5,2c-0.1,0.4-0.9,0.2-1.2,0.2c-0.4,0,0-0.2,0.1-0.3c0.1-0.1,0.6,0.1,0.6,0.1l0.3-1.2
		c-0.9,0.1-1.8-0.4-2.2-1.2c-0.7,0.9-1.5,1.8-2.4,2.5c-0.3,0.2-0.7,0.2-1,0c-0.2-0.2,0.3-0.2,0.3-0.2c0.9-0.3,2.2-2.3,2.2-2.3
		s0.3-0.7-1.6,0.2c-0.9,0.5-1.8,0.7-2.8,0.7c0,0.1-0.1,0.1-0.1,0.2c-0.8,1.4-2,2.7-3.4,3.5c-1.5,0.9-3.1,1.4-4.8,1.5v11.2
		c3.9-0.1,7.6-1.4,10.7-3.6v0c5.1-3.7,8.2-9.6,8.2-15.9L195.9,133.7z M195.9,110.3H177v11.2h5.3c0.1-0.1,0.2-0.2,0.2-0.2
		c-0.4-0.2-0.9-0.5-1.2-0.8c0.7,0,1.3-0.2,1.9-0.6c0-0.2-0.1-0.3-0.3-0.4c-1.2-0.8-2.3-1.8-3.3-2.9c-1.2,0.1-1.4-0.6-1.4-0.6
		c0.3,0.1,1.1,0,1.1-0.2c0-0.3-1-0.7-1-0.7c0.3-0.2,1.2,0,1.2,0c-0.2-0.3-0.4-0.7-0.6-1c0.5,0,1.1,0.7,1.1,0.7
		c0.2-0.3-0.2-1.1-0.2-1.1c0.7,0.4,1,1.2,0.9,2l2.7,1.9c0.8,0.4,1.4,0.6,1.6-0.5c-0.5-0.1-0.9-0.4-1.2-0.7c0.4,0,0.8-0.1,1.1-0.4
		c0.5-0.4,0-1.7,0.7-1.8l3,0.6c0.1,0.6,0,1.3-0.3,1.8c0,0,0.1,1,0.5,1.2c0,0-1,0.2-1.2-0.1l-0.2,0.4c0,0.8,0.5,1.6,1.2,1.9
		c1,0.5,2,1.1,2.8,1.9c0.5,0.1,1.1,0,1.5-0.4c0.2-0.3,0.3-0.8,0.2-1.2c-0.4-0.8-0.8-1.6-1.4-2.3c-0.2-0.2-0.4-0.5-0.5-0.7
		c0-0.1-1.1-1.7-0.5-2.6c0.4-0.7,1.2-0.9,2-0.6c0.6-0.7,1.7-0.5,2.1,0.7c0.5,1.3-0.8,1.5,0,3.5c-1.5-0.3-2.5-1.8-2.2-3.3
		c0-0.1,0-0.1,0.1-0.2c-0.2,0-0.4,0-0.6,0c-0.3,0-0.6,0.1-0.7,0.4c-0.3,0.5,0.1,1.5,0.5,2c0.1,0.2,0.3,0.4,0.5,0.6
		c0.7,0.8,1.2,1.6,1.5,2.6c0.2,0.6,0.1,1.2-0.3,1.7c-0.5,0.4-1.1,0.6-1.7,0.6c0.1,0.3,0.1,0.5,0.2,0.7c0.1,0.3,0.3,0.5,0.6,0.7
		c-0.9,0.7-0.6,1.4-0.1,1.7c0.5,0.5,1.1-0.1,1.1-0.1c0.5,3-3.6,4.5-3.4,4.7c0.1,0.2,0.3,0.2,0.5,0.5c0.2,0.3,0.1,0.6-0.1,0.8
		c-0.1,0.1-0.2,0.1-0.3,0.1c0.1-0.5-0.2-0.9-0.5-0.9c-0.3,0-0.8,1-0.8,1c-0.2-0.3,0.2-1.1,0.2-1.1c-0.3-0.1-1.1,0.9-1.1,0.9
		c-0.2-0.5,0.4-1.1,0.4-1.1c-0.5-0.2-1.2,0.7-1.2,0.7c0-1.5,1.2-1.6,1.8-1.6c2.3,0,1.6-2.5,1.6-2.5c-1.1,1-2,0.6-2,0.6
		c0.5-0.3,0.8-0.8,0.8-1.4c-0.2-2-0.3-2.3-0.1-2.5c0.2-0.2-0.2-0.1-0.2-0.1c-0.3,1-2.3,2.5-2.3,2.5c0.3,0.1,0.6,0.2,1,0.4
		c-0.2,0.4-0.5,0.8-1,0.9v5.6h9.3L195.9,110.3z"/>
</g>
</svg>
