<?xml version="1.0" encoding="utf-8"?>
<!-- Generator: Adobe Illustrator 26.3.1, SVG Export Plug-In . SVG Version: 6.00 Build 0)  -->
<svg version="1.1" id="affiliation" xmlns="http://www.w3.org/2000/svg" xmlns:xlink="http://www.w3.org/1999/xlink" x="0px"
	 y="0px" viewBox="0 0 256 256" style="enable-background:new 0 0 256 256;" xml:space="preserve">
<style type="text/css">
	.st0{fill:#FFFFFF;}
	.st1{display:none;fill:#FFFFFF;}
	.st2{fill:#E31B1D;}
	.st3{fill:#1BA5DB;}
</style>
<rect id="black" width="256" height="256"/>
<circle
   id="background"
   class="st0"
   cx="128"
   cy="128"
   r="128" />
<g id="logo">
	<g>
		<path class="st2" d="M122.9,97.4c3.1,0,5.8-1.8,7.1-4.5h0.9v69.9c0,4.4-3.6,8-8,8c-4.4,0-8-3.6-8-8V92.9h0.9
			C117.1,95.6,119.8,97.4,122.9,97.4 M116.2,81.3c0,3.7,3,6.7,6.7,6.7c3.7,0,6.7-3,6.7-6.7c0-3.7-3-6.7-6.7-6.7
			C119.2,74.6,116.2,77.5,116.2,81.3 M116.2,81.3c0,3.7,3,6.7,6.7,6.7c3.7,0,6.7-3,6.7-6.7c0-3.7-3-6.7-6.7-6.7
			C119.2,74.6,116.2,77.5,116.2,81.3 M36,170.9v-70c0-4.4-3.6-8-8-8c-4.4,0-8,3.6-8,8v61.9c0,4.4,3.6,8,8,8l0,0L36,170.9L36,170.9z
			 M40.3,170.9h3.4c4.4,0,8-4.3,8-8.7h0c0,4.3,0.9,8.7,4.7,8.7h0v-70c0-4.4-3.6-8-8-8s-8,3.6-8,8L40.3,170.9L40.3,170.9 M87.8,92.9
			v70c0,4.4,3.6,8,8,8c4.4,0,8-3.6,8-8V101c0-4.4-3.6-8-8-8l0,0H87.8z M80.1,92.9c-4.4,0-8,4.3-8,8.7h0c0-4.3-0.9-8.7-4.7-8.7h0v70
			c0,4.4,3.6,8,8,8c4.4,0,8-3.6,8-8v-70h0H80.1z"/>
		<path class="st3" d="M180.6,77.5c3.1,0,5.8-1.7,7.1-4.4h0.9v89.8c0,4.4-3.6,8-8,8c-4.5,0-8-3.6-8-8V73.1h0.9
			C174.8,75.8,177.5,77.5,180.6,77.5 M215.7,170.9v-70c0-4.4-3.6-8-8-8c-4.4,0-8,3.6-8,8v61.9c0,4.4,3.6,8,8,8l0,0L215.7,170.9
			L215.7,170.9z M223.4,170.9c4.4,0,8-4.3,8-8.7h0c0,4.3,0.9,8.7,4.7,8.7h0v-70c0-4.4-3.6-8-8-8c-4.4,0-8,3.6-8,8v70h0H223.4z
			 M143.7,162.9c0,4.4,3.6,8,8,8c4.4,0,8-3.6,8-8s-3.6-8-8-8C147.3,154.8,143.7,158.4,143.7,162.9"/>
	</g>
</g>
</svg>
