<?xml version="1.0" encoding="utf-8"?>
<!-- Generator: Adobe Illustrator 26.3.1, SVG Export Plug-In . SVG Version: 6.00 Build 0)  -->
<svg version="1.1" id="affiliation" xmlns="http://www.w3.org/2000/svg" xmlns:xlink="http://www.w3.org/1999/xlink" x="0px"
	 y="0px" viewBox="0 0 256 256" style="enable-background:new 0 0 256 256;" xml:space="preserve">
<style type="text/css">
	.st0{fill:#FFFFFF;}
	.st1{display:none;fill:#FFFFFF;}
	.st2{fill:#002D60;}
	.st3{fill:#68AFDF;}
	.st4{fill:#96AFCA;}
</style>
<rect id="black" width="256" height="256"/>
<circle
   id="background"
   class="st0"
   cx="128"
   cy="128"
   r="128" />
<g id="logo">
	<g id="nGq13D_1_">
		<g>
			<path class="st2" d="M165.6,165.14c-0.17,0-0.33,0-0.5,0c-22.24,0-44.48,0-66.72,0c-2.05,0-2.05,0-2.05-2.08
				c0-33.86,0-67.71,0-101.57c23.09,0,46.18,0,69.27,0C165.6,96.04,165.6,130.59,165.6,165.14z"/>
			<path class="st3" d="M96.33,61.49c0,33.86,0,67.71,0,101.57c0,2.07,0,2.08,2.05,2.08c22.24,0,44.48,0,66.72,0
				c0.17,2.75,0.4,5.5,0.48,8.25c0.08,2.9,0.02,5.81,0.02,8.71c0,2.82,0,5.64,0,8.46s0,5.64,0,8.46c-0.17,0.17-0.33,0.33-0.5,0.5
				c-33.63,0-67.25,0-100.88,0c-2.27,0-2.27,0-2.27-2.36c0-44.34,0.01-88.67-0.02-133.01c0-2.67,0.18-2.69,2.77-2.68
				C75.25,61.51,85.79,61.49,96.33,61.49z"/>
			<path class="st4" d="M165.6,165.14c0-34.55,0-69.1,0-103.65c11.04,0,22.09,0,33.13,0c1.23,0,1.23,0.01,1.25,1.13
				c0.01,0.42,0,0.83,0,1.25c0,32.96,0,65.93,0,98.89c0,0.58-0.02,1.16,0.01,1.74c0.03,0.59-0.28,0.67-0.76,0.64
				c-0.58-0.03-1.16-0.01-1.74-0.01C186.86,165.14,176.23,165.14,165.6,165.14z"/>
			<path class="st4" d="M165.1,199.52c0.17-0.17,0.33-0.33,0.5-0.5C165.43,199.19,165.27,199.36,165.1,199.52z"/>
		</g>
	</g>
</g>
</svg>
