<?xml version="1.0" encoding="utf-8"?>
<!-- Generator: Adobe Illustrator 26.3.1, SVG Export Plug-In . SVG Version: 6.00 Build 0)  -->
<svg version="1.1" id="affiliation" xmlns="http://www.w3.org/2000/svg" xmlns:xlink="http://www.w3.org/1999/xlink" x="0px"
	 y="0px" viewBox="0 0 256 256" style="enable-background:new 0 0 256 256;" xml:space="preserve">
<style type="text/css">
	.st0{fill:#FFFFFF;}
	.st1{display:none;fill:#FFFFFF;}
	.st2{fill:#EEB302;}
	.st3{fill:#010102;}
	.st4{fill:#020202;}
	.st5{fill:#BA033B;}
</style>
<rect id="black" width="256" height="256"/>
<circle
   id="background"
   class="st0"
   cx="128"
   cy="128"
   r="128" />
<g id="logo">
	<g id="mh47VB.tif">
		<g>
			<path class="st2" d="M141.03,228.39c-0.92,0.19-1.84,0.38-2.76,0.57c-3.56-20.27-7.12-40.54-10.67-60.81
				c-0.1-0.01-0.21-0.02-0.31-0.04c-3.59,20.26-7.18,40.52-10.77,60.78c-0.99-0.1-1.99-0.19-2.98-0.29
				c0.12-2.07,0.24-4.14,0.38-6.21c0.38-5.61,0.76-11.22,1.15-16.82c0.45-6.54,0.95-13.07,1.37-19.61c0.37-5.7,0.65-11.4,0.97-17.11
				c0.03-0.57,0.07-1.14,0.11-1.71c-0.06-0.01-0.11-0.02-0.17-0.03c-8.37,18.7-16.74,37.4-25.11,56.1c-0.9-0.27-1.8-0.54-2.7-0.81
				c6.21-19.42,12.42-38.84,18.62-58.26c-0.13-0.08-0.26-0.15-0.39-0.23c-0.17,0.24-0.32,0.49-0.51,0.72
				c-3.45,4.36-6.94,8.69-10.35,13.08c-8.93,11.48-17.82,23-26.73,34.5c-0.77-0.55-1.54-1.09-2.3-1.64
				c0.16-0.29,0.31-0.58,0.48-0.86c10.34-16.87,20.68-33.74,31.02-50.61c0.27-0.45,0.54-0.9,0.8-1.35
				c-0.27,0.04-0.43,0.16-0.59,0.28C86.78,168.13,74,178.22,61.21,188.3c-3.28,2.58-6.57,5.15-9.86,7.72
				c-0.68-0.72-1.37-1.44-2.05-2.15c8.97-8.76,17.94-17.5,26.89-26.28c5.49-5.39,10.94-10.83,16.4-16.24
				c0.22-0.22,0.42-0.47,0.63-0.7c-0.04-0.07-0.09-0.13-0.13-0.2c-0.29,0.1-0.59,0.18-0.88,0.31c-10.81,4.92-21.61,9.84-32.42,14.76
				c-7.59,3.45-15.17,6.91-22.76,10.36c-0.36,0.12-0.67,0.23-0.77-0.34c-0.14-0.76-0.35-1.5-0.54-2.25
				c15.65-9.28,31.3-18.55,46.93-27.85c1.82-1.08,3.57-2.29,5.35-3.44c-0.27-0.16-0.47-0.18-0.66-0.14
				c-3.31,0.58-6.63,1.12-9.93,1.75c-12.62,2.38-25.23,4.79-37.85,7.17c-3.89,0.73-7.79,1.4-11.69,2.1
				c-0.24-0.94-0.47-1.88-0.71-2.81c19.85-6.02,39.69-12.04,59.54-18.06c-0.02-0.09-0.05-0.18-0.07-0.27
				c-8.22-0.42-16.45-0.84-24.67-1.27c-5.04-0.26-10.09-0.52-15.13-0.79c-7.41-0.4-14.83-0.81-22.24-1.21
				c0.01-0.98,0.01-1.96,0.02-2.95c3.06-0.18,6.12-0.36,9.18-0.53c8.22-0.46,16.44-0.94,24.66-1.36c7.11-0.36,14.23-0.66,21.34-0.98
				c2.29-0.11,4.58-0.23,6.86-0.34c-1.85-0.84-3.72-1.55-5.63-2.14c-11.7-3.57-23.41-7.12-35.12-10.65
				c-6.26-1.88-12.53-3.71-18.8-5.57c-0.22-0.09-0.44-0.17-0.7-0.28c0.79-0.85,1.55-1.67,2.31-2.49c2.66,0.47,5.31,0.95,7.97,1.4
				c1.74,0.29,3.49,0.54,5.23,0.81l-0.02-0.02c0.05,0.05,0.1,0.11,0.15,0.16c0.22,0.01,0.43,0.02,0.65,0.03
				c0.49,0.13,0.97,0.28,1.46,0.37c12.46,2.38,24.93,4.77,37.4,7.13c2.11,0.4,4.24,0.69,6.36,1.04c-1.18-1.04-2.41-1.93-3.71-2.71
				c-5.23-3.13-10.47-6.23-15.72-9.33c-10.95-6.48-21.9-12.96-32.86-19.44c0.22-0.81,0.47-1.61,0.66-2.43
				c0.11-0.47,0.34-0.49,0.71-0.34c0.21,0.11,0.42,0.22,0.64,0.32c16.31,7.47,32.62,14.94,48.94,22.4c2.22,1.02,4.48,1.97,6.71,2.95
				c0.03-0.04,0.05-0.09,0.08-0.13C78.8,88.9,64.22,74.4,49.64,59.89c-0.26-1.63,0.09-2.02,1.73-1.92c0.15,0.14,0.3,0.29,0.47,0.42
				c15.17,11.97,30.34,23.93,45.52,35.89c0.9,0.71,1.8,1.4,2.71,2.1c-1.19-2.34-2.48-4.57-3.83-6.77
				c-7-11.38-14.03-22.74-21.01-34.14c-2.48-4.04-4.84-8.15-7.26-12.24c-0.09-0.25-0.18-0.49-0.31-0.86c0.83-0.1,1.6-0.2,2.38-0.29
				c1.31,1.48,2.71,2.9,3.93,4.46c9.44,12.15,18.83,24.33,28.25,36.48c1.87,2.41,3.83,4.74,5.92,7.32c-0.13-0.5-0.18-0.73-0.25-0.96
				c-1.57-5.1-3.09-10.22-4.71-15.3c-4.52-14.17-9.08-28.32-13.63-42.47c0.57-0.36,1.16-0.68,1.7-1.08c0.42-0.31,0.62-0.1,0.83,0.21
				c0.54,1.07,1.13,2.12,1.62,3.21c3.5,7.76,6.99,15.53,10.48,23.3c4.21,9.38,8.42,18.77,12.63,28.15c0.13,0.28,0.29,0.54,0.44,0.82
				c0.01-3.52-0.13-6.99-0.35-10.46c-0.37-6.12-0.78-12.23-1.19-18.35c-0.3-4.56-0.65-9.11-0.96-13.66
				c-0.42-6.14-0.82-12.29-1.23-18.43c0.99-0.12,1.98-0.24,2.98-0.35c3.58,20.23,7.17,40.47,10.75,60.7
				c0.26-0.1,0.32-0.17,0.33-0.25c1.76-9.78,3.53-19.55,5.26-29.33c1.83-10.37,3.62-20.75,5.43-31.13c0.92,0.12,1.84,0.25,2.76,0.37
				c0.01,0.15,0.02,0.3,0.02,0.45c-0.37,6.84-0.71,13.68-1.13,20.52c-0.4,6.36-0.93,12.71-1.32,19.06
				c-0.4,6.51-0.71,13.02-1.06,19.53c-0.01,0.25,0,0.5,0,0.74c0.08,0.02,0.15,0.03,0.23,0.05c0.78-1.51,1.63-2.99,2.32-4.54
				c5.61-12.6,11.21-25.21,16.78-37.83c1.88-4.25,3.68-8.54,5.51-12.81c0.9,0.12,1.8,0.27,2.7,0.37c0.57,0.06,0.35,0.4,0.3,0.7
				c-0.04,0.11-0.1,0.22-0.13,0.34c-6.21,19.39-12.41,38.77-18.61,58.16c-0.04,0.14-0.03,0.3-0.05,0.64
				c0.25-0.32,0.39-0.47,0.51-0.63c10.03-12.9,20.05-25.81,30.08-38.71c2.49-3.2,4.98-6.39,7.48-9.59c0.71,0.31,1.44,0.59,2.13,0.96
				c0.18,0.09,0.21,0.44,0.32,0.67c-0.21,0.28-0.45,0.55-0.63,0.85c-2.37,3.9-4.73,7.8-7.11,11.7
				c-7.89,12.91-15.78,25.81-23.67,38.72c-0.18,0.29-0.33,0.6-0.49,0.9c0.33-0.03,0.55-0.16,0.75-0.31
				c2.44-1.85,4.91-3.67,7.31-5.57c9.59-7.58,19.15-15.21,28.75-22.78c3.84-3.03,7.77-5.96,11.65-8.94c0.23-0.12,0.46-0.25,0.8-0.44
				c0.16,0.77,0.31,1.49,0.46,2.21c-2.65,2.87-5.2,5.84-7.96,8.58c-11.71,11.63-23.48,23.19-35.24,34.77
				c-0.24,0.23-0.53,0.41-0.8,0.61c0.07,0.08,0.14,0.15,0.2,0.23c0.29-0.13,0.59-0.26,0.88-0.39c7.88-3.61,15.77-7.19,23.64-10.83
				c10.72-4.96,21.43-9.97,32.14-14.95c0.5,0.69,0.98,1.4,1.5,2.08c0.29,0.38,0.13,0.57-0.2,0.75
				c-17.42,10.65-35.28,20.56-52.63,31.59c0.23,0.03,0.29,0.05,0.35,0.04c7.79-1.41,15.59-2.8,23.38-4.25
				c8.32-1.56,16.62-3.17,24.93-4.77c3.95-0.76,7.89-1.54,11.84-2.32c0.26,0,0.52,0,0.82,0c0,1.03,0,2.05,0,3.06
				c-13.09,3.93-26.19,7.83-39.27,11.81c-6.74,2.05-13.43,4.24-20.14,6.37c-0.17,0.05-0.32,0.16-0.63,0.33
				c21.01,0.64,41.8,1.81,62.58,3.14c-0.01,0.94-0.01,1.89-0.02,2.83c-4.38,0.26-8.76,0.53-13.14,0.76
				c-6.21,0.34-12.43,0.65-18.64,0.98c-7.53,0.4-15.07,0.8-22.6,1.21c-2.44,0.13-4.87,0.27-7.57,0.43c0.49,0.19,0.72,0.3,0.97,0.38
				c3.85,1.24,7.7,2.52,11.57,3.7c15.55,4.74,31.1,9.44,46.66,14.16c0.07,0.95,0.15,1.9,0.23,2.91c-0.31,0-0.57,0-0.82,0
				c-2.97-0.57-5.95-1.15-8.92-1.71c-11.03-2.1-22.05-4.19-33.08-6.28c-6.37-1.21-12.74-2.41-19.33-3.66
				c0.44,0.29,0.68,0.45,0.93,0.61c4.1,2.5,8.18,5.04,12.31,7.49c13.42,7.97,26.86,15.91,40.29,23.87c-0.42,0.9-0.85,1.8-1.27,2.7
				c-2.87-1.3-5.73-2.61-8.6-3.91c-15.38-6.98-30.76-13.96-46.14-20.94c-0.37-0.17-0.75-0.32-1.13-0.48
				c0.07,0.27,0.19,0.43,0.33,0.57c4.32,4.4,8.59,8.84,12.97,13.18c9.93,9.84,19.92,19.62,29.88,29.43
				c-0.43,0.82-0.88,1.62-1.26,2.46c-0.21,0.46-0.45,0.33-0.75,0.17c-0.82-0.83-1.58-1.73-2.48-2.47
				c-4.03-3.28-8.09-6.52-12.16-9.75c-10.93-8.65-21.87-17.29-32.8-25.93c-0.29-0.23-0.59-0.44-0.89-0.65
				c-0.06,0.29,0.01,0.45,0.1,0.59c10.79,17.39,21.58,34.79,32.37,52.18c-0.67,0.62-1.32,1.27-2.03,1.85
				c-0.12,0.1-0.46-0.08-0.7-0.12c-0.05-0.08-0.09-0.16-0.14-0.23c-11.53-14.86-23.06-29.71-34.6-44.57
				c-1.03-1.33-2.09-2.63-3.13-3.94c-0.09,0.23-0.06,0.37-0.01,0.51c4.45,13.97,8.91,27.94,13.33,41.92
				c1.73,5.46,3.37,10.95,5.06,16.42c-0.84,0.37-1.68,0.73-2.52,1.1c-0.92-1.99-1.84-3.98-2.76-5.97c-0.76-1.67-1.53-3.33-2.29-5
				c-0.58-1.38-1.12-2.77-1.73-4.13c-6-13.44-12.01-26.88-18.02-40.32c-0.13-0.29-0.28-0.57-0.42-0.86
				c0.12,4.3,0.37,8.52,0.66,12.75c0.38,5.57,0.79,11.15,1.18,16.72c0.33,4.82,0.69,9.65,0.97,14.48
				C140.46,216.81,140.73,222.6,141.03,228.39z M109.89,109.19c-0.03,0.2-0.05,0.32-0.05,0.43c-0.02,9.14-0.08,18.28-0.03,27.42
				c0.02,3.91,2.81,6.87,6.7,7.36c1.07,0.13,2.16,0.13,3.24,0.18c1.76,0.07,3.41,0.37,4.91,1.46c2.93,2.12,3.13,2.04,5.84-0.33
				c0.46-0.41,1.11-0.76,1.71-0.83c1.76-0.19,3.54-0.21,5.31-0.34c1.64-0.12,3.18-0.55,4.52-1.59c2.25-1.73,3.03-4.14,3.04-6.82
				c0.02-8.24-0.03-16.48-0.05-24.72c0-0.74,0-1.48,0-2.23C133.23,109.19,121.6,109.19,109.89,109.19z"/>
			<path class="st3" d="M217.76,77.77c-10.71,4.99-21.42,9.99-32.14,14.95c-7.87,3.64-15.76,7.22-23.64,10.83
				c-0.29,0.13-0.59,0.26-0.88,0.39c-0.07-0.08-0.14-0.15-0.2-0.23c0.27-0.2,0.56-0.38,0.8-0.61
				c11.76-11.58,23.53-23.14,35.24-34.77c2.77-2.75,5.32-5.72,7.96-8.58c2.03,2.4,4.26,4.67,6.06,7.23
				C213.39,70.46,215.51,74.17,217.76,77.77z M202.08,72.87c-0.01,2.35,1.41,3.9,3.63,3.94c2.44,0.05,3.99-1.52,4-4.06
				c0.01-1.98-1.78-3.65-3.91-3.65C203.64,69.09,202.1,70.66,202.08,72.87z"/>
			<path class="st3" d="M49.64,59.89C64.22,74.4,78.8,88.9,93.38,103.4c-0.03,0.04-0.05,0.09-0.08,0.13
				c-2.24-0.98-4.49-1.94-6.71-2.95c-16.32-7.46-32.63-14.93-48.94-22.4c-0.22-0.1-0.43-0.22-0.64-0.32
				c3.34-6.2,7.24-12.01,11.95-17.26C49.17,60.35,49.41,60.13,49.64,59.89z M52.79,73.04c-0.03-2.33-1.69-3.95-4.01-3.93
				c-2.09,0.02-3.77,1.79-3.72,3.94c0.05,2.2,1.71,3.84,3.85,3.82C51,76.86,52.82,75.05,52.79,73.04z"/>
			<path class="st3" d="M138.27,24.96c-1.81,10.38-3.59,20.76-5.43,31.13c-1.73,9.78-3.5,19.55-5.26,29.33
				c-0.01,0.08-0.07,0.15-0.33,0.25c-3.58-20.23-7.16-40.47-10.75-60.7C123.75,24.12,131.01,24.12,138.27,24.96z M127.28,35.76
				c2.31,0.02,4.05-1.68,4.04-3.92c-0.01-2.01-1.91-3.85-3.99-3.87c-2-0.01-3.73,1.79-3.77,3.93
				C123.52,33.94,125.27,35.75,127.28,35.76z"/>
			<path class="st3" d="M116.51,228.89c3.59-20.26,7.18-40.52,10.77-60.78c0.1,0.01,0.21,0.02,0.31,0.04
				c3.56,20.27,7.12,40.54,10.67,60.81c-6.84,0.81-13.68,0.89-20.52,0.1C117.34,229.01,116.93,228.95,116.51,228.89z M127.3,218.15
				c-2.11,0-3.74,1.72-3.73,3.92c0.01,2.16,1.69,3.86,3.81,3.85c2.19-0.01,3.94-1.76,3.96-3.96
				C131.35,219.98,129.42,218.15,127.3,218.15z"/>
			<path class="st3" d="M205.16,193.83c-9.96-9.81-19.95-19.59-29.88-29.43c-4.38-4.34-8.65-8.78-12.97-13.18
				c-0.14-0.14-0.27-0.3-0.33-0.57c0.38,0.16,0.76,0.31,1.13,0.48c15.38,6.98,30.76,13.96,46.14,20.94c2.87,1.3,5.73,2.61,8.6,3.91
				c-1.45,2.5-2.9,5-4.4,7.59c-4.17-2.79-8.17-5.47-12.31-8.24c-0.82,0.98-1.65,1.97-2.49,2.98c4.13,2.99,8.16,5.91,12.4,8.99
				C209.03,189.53,207.1,191.68,205.16,193.83z"/>
			<path class="st3" d="M165.05,222.27c-1.68-5.47-3.33-10.96-5.06-16.42c-4.42-13.98-8.88-27.95-13.33-41.92
				c-0.04-0.14-0.08-0.28,0.01-0.51c1.05,1.31,2.1,2.62,3.13,3.94c11.54,14.85,23.07,29.71,34.6,44.57
				c0.05,0.07,0.09,0.15,0.14,0.23c-2.39,1.6-4.78,3.19-7.27,4.86c-2.5-4.51-4.91-8.86-7.34-13.24c-1.16,0.63-2.26,1.23-3.38,1.85
				c2.21,4.41,4.41,8.77,6.69,13.32c-2.02,0.9-4,1.81-6,2.65C166.56,221.9,165.79,222.05,165.05,222.27z"/>
			<path class="st3" d="M92.22,223.22c8.37-18.7,16.74-37.4,25.11-56.1c0.06,0.01,0.11,0.02,0.17,0.03
				c-0.04,0.57-0.08,1.14-0.11,1.71c-0.32,5.7-0.61,11.41-0.97,17.11c-0.42,6.54-0.91,13.07-1.37,19.61
				c-0.39,5.61-0.77,11.21-1.15,16.82c-0.14,2.07-0.25,4.14-0.38,6.21c-2.83-0.44-5.66-0.88-8.55-1.33
				c1.13-5.04,2.22-9.88,3.32-14.81c-1.36-0.14-2.57-0.26-3.84-0.4c-1.23,4.66-2.46,9.3-3.71,14
				C97.78,225.33,94.88,224.63,92.22,223.22z"/>
			<path class="st3" d="M226.93,100.89c-3.94,0.77-7.89,1.56-11.84,2.32c-8.31,1.6-16.61,3.22-24.93,4.77
				c-7.79,1.46-15.59,2.84-23.38,4.25c-0.06,0.01-0.12-0.01-0.35-0.04c17.35-11.03,35.21-20.94,52.63-31.59
				c1.22,2.44,2.43,4.87,3.65,7.31c0.07,0.13,0.12,0.27,0.23,0.54c-4.6,1.86-9.2,3.72-13.87,5.61c0.44,1.18,0.86,2.32,1.32,3.55
				c2.14-0.77,4.21-1.52,6.3-2.26c2.18-0.76,4.38-1.47,6.53-2.28c0.7-0.26,1.15-0.09,1.39,0.48c0.53,1.26,1.01,2.55,1.42,3.85
				C226.4,98.54,226.64,99.72,226.93,100.89z"/>
			<path class="st3" d="M203.63,57.98c-3.89,2.98-7.81,5.91-11.65,8.94c-9.6,7.57-19.16,15.2-28.75,22.78
				c-2.4,1.9-4.87,3.72-7.31,5.57c-0.2,0.15-0.42,0.28-0.75,0.31c0.16-0.3,0.32-0.61,0.49-0.9c7.89-12.91,15.78-25.81,23.67-38.72
				c2.38-3.89,4.73-7.8,7.11-11.7c0.18-0.3,0.42-0.57,0.63-0.85c1.63,1.13,3.26,2.25,5.02,3.47c-3.15,3.89-6.27,7.75-9.41,11.63
				c2.5,2.22,4.94,4.39,7.39,6.57c0.8-0.78,1.56-1.53,2.38-2.33c-1.45-1.51-2.86-3-4.38-4.58c2.48-2.84,4.87-5.57,7.42-8.5
				C198.24,52.47,200.94,55.23,203.63,57.98z"/>
			<path class="st3" d="M51.34,196.02c3.29-2.57,6.58-5.13,9.86-7.72c12.79-10.08,25.57-20.17,38.36-30.26
				c0.16-0.12,0.32-0.24,0.59-0.28c-0.27,0.45-0.53,0.9-0.8,1.35c-10.34,16.87-20.68,33.74-31.02,50.61
				c-0.17,0.28-0.32,0.57-0.48,0.86c-1.66-1.17-3.33-2.33-5.06-3.54c3.18-3.92,6.27-7.72,9.39-11.57c-2.52-2.25-4.99-4.46-7.52-6.72
				c-0.81,0.85-1.61,1.69-2.45,2.58c1.57,1.43,3.1,2.82,4.71,4.28c-2.49,2.84-4.96,5.66-7.49,8.54
				C56.62,201.5,53.69,199.05,51.34,196.02z"/>
			<path class="st3" d="M70.16,212.21c8.91-11.5,17.8-23.01,26.73-34.5c3.41-4.39,6.9-8.72,10.35-13.08
				c0.18-0.23,0.34-0.48,0.51-0.72c0.13,0.08,0.26,0.15,0.39,0.23c-6.21,19.42-12.42,38.84-18.62,58.26
				c-1.86-0.74-3.71-1.49-5.6-2.25c2.12-4.57,4.19-9.05,6.26-13.54c-2.96-1.58-5.83-3.11-8.73-4.66c-0.58,0.95-1.17,1.92-1.81,2.97
				c1.83,1.05,3.63,2.08,5.51,3.17c-1.74,3.37-3.45,6.68-5.26,10.19C76.59,216.22,73.37,214.22,70.16,212.21z"/>
			<path class="st3" d="M187.29,210.44c-10.79-17.39-21.58-34.79-32.37-52.18c-0.09-0.14-0.16-0.29-0.1-0.59
				c0.3,0.22,0.6,0.43,0.89,0.65c10.94,8.64,21.88,17.28,32.8,25.93c4.07,3.23,8.13,6.47,12.16,9.75c0.9,0.73,1.66,1.64,2.48,2.47
				c-0.84,0.9-1.68,1.8-2.58,2.76c-2.06-1.38-4.18-1.02-6.27-0.06c-2.35-2.6-4.66-5.15-7.04-7.78c-0.96,0.79-1.89,1.57-2.96,2.45
				c2.42,2.86,4.81,5.69,7.32,8.66c-0.86,0.76-1.74,1.52-2.6,2.28c0.59,1.22,1.1,2.29,1.66,3.45
				C189.53,208.98,188.41,209.71,187.29,210.44z"/>
			<path class="st3" d="M219.12,173.27c-13.43-7.95-26.87-15.9-40.29-23.87c-4.13-2.45-8.21-4.99-12.31-7.49
				c-0.25-0.15-0.5-0.32-0.93-0.61c6.59,1.25,12.96,2.45,19.33,3.66c11.03,2.09,22.05,4.19,33.08,6.28
				c2.98,0.57,5.95,1.14,8.92,1.71c-0.37,1.51-0.74,3.02-1.12,4.58c-1.21-0.23-2.34-0.44-3.55-0.67c-0.4,1.06-0.79,2.12-1.22,3.25
				c-3.56-1.27-7.1-2.54-10.71-3.82c-0.39,1.25-0.77,2.43-1.16,3.65c3.47,1.39,6.88,2.76,10.38,4.17c-0.48,1.16-0.94,2.28-1.43,3.46
				c1.08,0.49,2.13,0.96,3.3,1.49C220.63,170.51,219.88,171.89,219.12,173.27z"/>
			<path class="st3" d="M24.59,128.47c7.41,0.4,14.83,0.81,22.24,1.21c5.04,0.27,10.09,0.53,15.13,0.79
				c8.22,0.42,16.45,0.84,24.67,1.27c0.02,0.09,0.05,0.18,0.07,0.27c-19.85,6.02-39.69,12.04-59.54,18.06
				c-0.38-1.48-0.75-2.96-1.16-4.53c1.15-0.28,2.27-0.56,3.44-0.85c-0.11-1.21-0.22-2.4-0.33-3.67c3.66-0.5,7.28-0.99,10.89-1.48
				c0-1.21,0-2.4,0-3.73c-2.07,0.18-4.03,0.36-6,0.52c-1.56,0.13-3.11,0.22-4.67,0.36c-0.49,0.04-0.69-0.13-0.77-0.61
				c-0.15-0.85-0.12-1.96-0.65-2.46c-0.47-0.45-1.58-0.24-2.41-0.33c-0.27-0.03-0.53-0.08-0.9-0.13
				C24.59,131.58,24.59,130.03,24.59,128.47z"/>
			<path class="st4" d="M27.87,152.88c3.9-0.7,7.8-1.37,11.69-2.1c12.62-2.38,25.23-4.79,37.85-7.17c3.3-0.62,6.62-1.17,9.93-1.75
				c0.19-0.03,0.39-0.02,0.66,0.14c-1.78,1.15-3.52,2.36-5.35,3.44c-15.64,9.3-31.29,18.57-46.93,27.85
				c-1.17-2.24-2.35-4.49-3.63-6.94c1.05,0.26,1.82,0.47,2.6,0.63c3.16,0.69,5.34-1.04,5.39-4.28c0.03-1.47,0-2.93,0-4.38
				c1.33-0.36,2.11-0.05,2.55,1.16c0.34,0.92,0.48,1.91,0.71,2.87c0.08,0.32,0.15,0.63,0.24,1c1.11-0.06,2.18-0.12,3.31-0.18
				c-0.37-2.26-0.65-4.43-1.78-6.36c-1.42-2.44-3.97-3.37-6.48-2.37c-1.43,0.57-2.28,1.58-2.35,3.19c-0.07,1.62-0.19,3.24-0.33,4.85
				c-0.04,0.46-0.25,0.9-0.46,1.64c-0.61-1.05-1.1-1.85-1.55-2.68c-0.49-0.89-0.74-2.11-1.49-2.61c-0.71-0.48-1.92-0.24-3.09-0.33
				C28.88,156.74,28.38,154.81,27.87,152.88z"/>
			<path class="st4" d="M113.52,25.32c0.41,6.14,0.81,12.29,1.23,18.43c0.31,4.56,0.65,9.11,0.96,13.66
				c0.41,6.11,0.81,12.23,1.19,18.35c0.21,3.47,0.35,6.94,0.35,10.46c-0.15-0.27-0.32-0.53-0.44-0.82
				c-4.21-9.38-8.42-18.77-12.63-28.15c-3.49-7.77-6.98-15.54-10.48-23.3c-0.49-1.09-1.08-2.14-1.62-3.21
				c2.57-0.96,5.14-1.92,7.71-2.88c-0.45,1.35-1.01,2.54-1.23,3.79c-0.4,2.24,0.73,3.8,2.93,4.28c1.35,0.29,2.73,0.42,4.07,0.72
				c0.71,0.16,1.37,0.54,2.16,0.86c-1.96,1.69-4.22,2.02-6.51,2.4c-0.04,0.95-0.09,1.87-0.13,2.87c2.55,0.02,5.03-0.01,7.3-1.25
				c2.08-1.14,2.97-3.04,2.52-5.27c-0.36-1.76-1.33-2.91-3.17-3.22c-1.74-0.3-3.48-0.61-5.22-0.92c-0.11-0.02-0.22-0.07-0.33-0.11
				c0.55-1.48,1.79-2.02,5.72-2.49c0.08-0.93,0.14-1.89,0.27-2.83c0.04-0.25,0.28-0.63,0.48-0.67
				C110.25,25.76,111.89,25.55,113.52,25.32z"/>
			<path class="st4" d="M162.36,30.52c-1.84,4.27-3.64,8.55-5.51,12.81c-5.57,12.62-11.17,25.23-16.78,37.83
				c-0.69,1.55-1.54,3.03-2.32,4.54c-0.08-0.02-0.15-0.03-0.23-0.05c0-0.25-0.01-0.5,0-0.74c0.35-6.51,0.65-13.02,1.06-19.53
				c0.39-6.36,0.93-12.71,1.32-19.06c0.43-6.84,0.76-13.68,1.13-20.52c0.01-0.15-0.01-0.3-0.02-0.45c1.93,0.24,3.86,0.49,5.79,0.73
				c0.77,0.1,1.55,0.2,2.45,0.31c-0.86,0.72-1.67,1.36-2.43,2.05c-0.99,0.9-1.48,1.99-1.34,3.37c0.11,1.12,0.57,2.01,1.46,2.68
				c0.82,0.61,1.68,1.16,2.49,1.77c0.91,0.7,1.6,1.54,1.43,3.02c-2.07-0.52-4.08-1.02-6.17-1.55c-0.42,0.86-0.85,1.76-1.33,2.75
				c2.44,0.97,4.72,2.25,7.42,1.98c2.97-0.3,4.86-2.71,4.4-5.66c-0.07-0.44-0.3-0.95-0.62-1.25c-0.91-0.86-1.91-1.64-2.88-2.44
				c-0.82-0.69-1.64-1.37-2.52-2.11c1.78-0.81,3.05-0.65,6.36,0.73c0.36-0.48,0.74-0.98,1.1-1.48c0.37-0.51,0.73-1.02,1.13-1.58
				C159.32,29.29,160.84,29.9,162.36,30.52z"/>
			<path class="st4" d="M227.52,150.04c-15.55-4.72-31.11-9.42-46.66-14.16c-3.87-1.18-7.71-2.46-11.57-3.7
				c-0.25-0.08-0.48-0.19-0.97-0.38c2.7-0.15,5.13-0.3,7.57-0.43c7.53-0.41,15.06-0.81,22.6-1.21c6.21-0.33,12.43-0.64,18.64-0.98
				c4.38-0.24,8.76-0.51,13.14-0.76c0.01,0.63,0.02,1.25,0.02,1.88c0,2.11,0,4.22,0,6.13c-0.65-0.57-1.37-1.24-2.12-1.86
				c-1.42-1.17-2.96-1.64-4.76-0.86c-0.95,0.41-1.52,1.13-1.96,2.01c-0.42,0.86-0.79,1.75-1.26,2.58c-0.47,0.84-1.19,1.33-2.25,1.16
				c-0.8-2.05,0.22-3.94,0.53-5.92c-0.93-0.44-1.81-0.86-2.81-1.34c-1.02,2.81-2.09,5.55-1.04,8.55c0.81,2.34,3.37,3.58,5.76,2.9
				c1.38-0.39,2.07-1.47,2.68-2.62c0.4-0.74,0.63-1.58,1.12-2.24c0.35-0.48,1-0.75,1.51-1.11c0.27,0.57,0.73,1.14,0.77,1.73
				c0.05,0.78-0.21,1.59-0.37,2.38c-0.11,0.52-0.26,1.04-0.41,1.6c1.09,0.54,2.13,1.06,3.23,1.61
				C228.43,146.7,227.97,148.37,227.52,150.04z"/>
			<path class="st3" d="M37.03,175.89c7.59-3.45,15.17-6.91,22.76-10.36c10.81-4.92,21.61-9.84,32.42-14.76
				c0.28-0.13,0.58-0.21,0.88-0.31c0.04,0.07,0.09,0.13,0.13,0.2c-0.21,0.23-0.41,0.48-0.63,0.7c-5.46,5.42-10.91,10.86-16.4,16.24
				c-8.95,8.78-17.92,17.52-26.89,26.28c-0.63-0.76-1.29-1.5-1.85-2.3c-0.12-0.18,0.01-0.66,0.17-0.9c1.93-2.79,3.9-5.55,5.84-8.33
				c0.7-1.01,1.39-2.03,2-3.1c0.2-0.35,0.29-0.97,0.12-1.3c-0.5-0.98-1.14-1.9-1.79-2.79c-0.11-0.16-0.59-0.15-0.86-0.08
				c-4.47,1.15-8.93,2.32-13.4,3.49c-0.32,0.08-0.64,0.16-1.06,0.27C37.99,177.86,37.51,176.88,37.03,175.89z"/>
			<path class="st4" d="M27.1,103.97c6.27,1.85,12.54,3.68,18.8,5.57c11.71,3.53,23.42,7.08,35.12,10.65
				c1.91,0.58,3.78,1.3,5.63,2.14c-2.29,0.11-4.57,0.23-6.86,0.34c-7.11,0.33-14.23,0.62-21.34,0.98
				c-8.22,0.42-16.44,0.9-24.66,1.36c-3.06,0.17-6.12,0.35-9.18,0.53c0-1.52,0-3.04,0-4.66c4.99,0.29,9.87,0.57,14.84,0.86
				c0.12-1.21,0.23-2.39,0.35-3.6c-2.08-0.33-4.09-0.65-6.1-0.97c-0.04-0.1-0.08-0.19-0.12-0.29c1.06-0.63,2.09-1.31,3.18-1.89
				c0.63-0.33,1.33-0.63,2.02-0.72c1.25-0.17,1.8-0.77,1.82-2.02c0.01-0.83,0.21-1.65,0.36-2.8c-2.47,1.11-4.74,2.13-7.11,3.19
				c-0.32-0.46-0.73-1.03-1.12-1.62c-1.23-1.87-3.79-2.58-5.7-0.62c-0.41,0.42-0.86,0.8-1.29,1.2c-0.07-0.03-0.15-0.07-0.22-0.1
				C26.05,108.98,26.58,106.48,27.1,103.97z"/>
			<path class="st3" d="M230.28,125.59c-20.78-1.33-41.56-2.5-62.58-3.14c0.31-0.16,0.46-0.27,0.63-0.33
				c6.71-2.13,13.41-4.32,20.14-6.37c13.08-3.98,26.18-7.88,39.27-11.81c0.07,0.41,0.16,0.83,0.19,1.24c0.21,2.24,0.2,2.24-1.83,3.3
				c-3.48,1.82-6.95,3.65-10.45,5.44c-0.66,0.34-0.93,0.82-0.9,1.5c0.05,1.08,0.15,2.15,0.24,3.31c2.02,0.49,4.02,0.98,6.03,1.45
				c2.83,0.66,5.67,1.33,8.51,1.95c0.48,0.1,0.66,0.29,0.67,0.76C230.21,123.79,230.26,124.69,230.28,125.59z"/>
			<path class="st4" d="M67.96,43.25c2.42,4.08,4.78,8.19,7.26,12.24c6.98,11.39,14.01,22.76,21.01,34.14
				c1.35,2.19,2.64,4.42,3.83,6.77c-0.9-0.7-1.81-1.39-2.71-2.1C82.18,82.32,67.01,70.36,51.84,58.39
				c-0.16-0.13-0.31-0.28-0.47-0.42c0.69-0.87,1.38-1.73,2.16-2.71c3.6,3.48,7.14,6.92,10.71,10.37c0.8-0.83,1.63-1.69,2.42-2.51
				c-1.85-1.99-3.74-4.03-5.63-6.07c0.04-0.07,0.08-0.14,0.13-0.21c0.71,0.21,1.43,0.42,2.13,0.65C64,57.72,64.7,58,65.41,58.22
				c1.6,0.48,3.21,0.96,4.83,1.36c0.34,0.08,0.83-0.05,1.12-0.26c0.85-0.62,1.63-1.32,2.45-2c-2.95-3.99-5.87-7.94-8.88-12
				C65.96,44.62,66.96,43.93,67.96,43.25z"/>
			<path class="st4" d="M141.03,228.39c-0.3-5.79-0.57-11.58-0.91-17.37c-0.28-4.83-0.63-9.65-0.97-14.48
				c-0.39-5.57-0.8-11.14-1.18-16.72c-0.29-4.23-0.53-8.45-0.66-12.75c0.14,0.29,0.29,0.57,0.42,0.86
				c6.01,13.44,12.02,26.88,18.02,40.32c0.61,1.36,1.16,2.76,1.73,4.13c-1.24,1.88-3.25,2.43-5.29,3.04
				c-0.43-1.27-0.84-2.51-1.27-3.79c-3.04,0.7-6.03,1.39-9.1,2.1c0.25,1.07,0.5,2.11,0.75,3.17c2.28-0.04,4.66-1.5,6.85,0.78
				c-2.03,0.61-3.93,1.17-5.87,1.75c0.11,0.96,0.22,1.9,0.34,3.02c1.16-0.26,2.25-0.51,3.35-0.75c0.32-0.07,0.65-0.14,0.97-0.16
				c1.31-0.08,1.76,0.38,1.77,1.92c-1.94,0.42-3.91,0.86-5.97,1.31c0.11,1.15,0.22,2.34,0.33,3.6
				C143.23,228.39,142.13,228.39,141.03,228.39z"/>
			<path class="st3" d="M35.64,80.63c10.95,6.48,21.91,12.96,32.86,19.44c5.24,3.1,10.49,6.2,15.72,9.33
				c1.3,0.78,2.53,1.67,3.71,2.71c-2.12-0.34-4.25-0.64-6.36-1.04c-12.47-2.36-24.93-4.74-37.4-7.13c-0.49-0.09-0.97-0.25-1.46-0.37
				c0.28-1.19,0.6-2.38,0.82-3.58c0.06-0.34-0.08-0.78-0.27-1.09c-0.23-0.37-0.61-0.65-0.94-0.96c-1.1-1.03-1.11-1.03-0.6-2.43
				c0.08-0.23,0.19-0.45,0.23-0.68c0.24-1.64,1.26-2.3,2.82-2.25c1.38,0.04,2.22-0.53,2.54-1.91c0.14-0.63,0.46-1.22,0.75-1.96
				c-5.33-0.17-10.57-0.34-15.96-0.51C33.11,85.54,34.24,83.02,35.64,80.63z"/>
			<path class="st4" d="M184.63,41.77c-2.49,3.2-4.99,6.39-7.48,9.59c-10.03,12.9-20.05,25.81-30.08,38.71
				c-0.13,0.16-0.26,0.32-0.51,0.63c0.03-0.34,0.01-0.5,0.05-0.64c6.2-19.39,12.41-38.77,18.61-58.16c0.04-0.11,0.09-0.22,0.13-0.34
				c2.25,0.88,4.5,1.77,6.86,2.7c-0.97,0.2-1.84,0.3-2.65,0.57c-4.46,1.49-6.77,5.44-5.67,10.05c0.89,3.71,5.21,6.3,9.37,5.81
				c3.43-0.4,6.32-3.72,6.52-7.44c0.1-1.81-0.34-3.5-0.95-5.17c0.04-0.04,0.08-0.09,0.11-0.14
				C180.85,39.23,182.74,40.5,184.63,41.77z"/>
			<path class="st4" d="M89.53,31.61c4.55,14.16,9.11,28.31,13.63,42.47c1.62,5.08,3.14,10.2,4.71,15.3
				c0.07,0.23,0.12,0.46,0.25,0.96c-2.09-2.58-4.05-4.91-5.92-7.32C92.78,70.88,83.39,58.7,73.95,46.55
				c-1.21-1.56-2.61-2.98-3.93-4.46c1.82-1.34,3.64-2.69,5.6-4.14c-0.23,1.62-0.49,2.95-0.59,4.28c-0.2,2.82,0.77,5.22,3,6.99
				c2.41,1.9,5.12,1.92,7.84,0.85c2.76-1.08,4.76-2.98,5.24-6.03c0.67-4.26-2.05-8.15-6.4-9.37c-0.62-0.17-1.26-0.28-2.09-0.46
				C85.06,33.3,87.3,32.46,89.53,31.61z"/>
			<path class="st4" d="M41.92,103.41c-1.74-0.27-3.49-0.51-5.23-0.81c-2.66-0.45-5.32-0.93-7.97-1.4
				c-0.28-0.08-0.57-0.16-0.97-0.27c0.84-2.75,1.67-5.48,2.54-8.36c0.72,0.65,1.34,1.19,1.95,1.74c2.8,2.5,5.61,4.99,8.38,7.51
				C41.12,102.27,41.49,102.87,41.92,103.41z"/>
			<path class="st4" d="M78.9,42.29c-0.02-1.95,0.83-3,2.16-3.71c1.24-0.66,2.45-0.49,3.56,0.28c1.58,1.09,2.43,2.65,2.51,4.55
				c0.07,1.55-0.7,2.69-2.05,3.43c-1.27,0.7-2.5,0.5-3.64-0.29C79.85,45.44,79.02,43.87,78.9,42.29z"/>
			<path class="st4" d="M167.66,43.09c0.13-1.81,1.12-3.49,2.98-4.58c1.17-0.68,2.38-0.42,3.49,0.27c1.23,0.77,1.8,1.92,1.73,3.34
				c-0.09,1.85-0.93,3.33-2.44,4.4c-1.17,0.82-2.42,0.94-3.72,0.24C168.36,46.05,167.63,44.99,167.66,43.09z"/>
			<path class="st4" d="M229.2,111.51c0.28,2.33,0.54,4.47,0.81,6.73c-3.56-0.71-6.95-1.39-10.35-2.07
				c-0.03-0.08-0.05-0.17-0.08-0.25C222.74,114.47,225.9,113.02,229.2,111.51z"/>
			<path class="st4" d="M44.46,187.91c-1.31-1.94-2.49-3.69-3.76-5.58c3.38-0.97,6.67-1.91,9.95-2.84c0.06,0.08,0.12,0.16,0.18,0.24
				C48.75,182.4,46.66,185.08,44.46,187.91z"/>
			<path class="st4" d="M66.78,54.73c-3.08-1.01-6.15-2.02-9.38-3.08c1.48-1.32,2.8-2.49,4.23-3.75c1.79,2.23,3.54,4.42,5.3,6.61
				C66.88,54.59,66.83,54.66,66.78,54.73z"/>
			<path class="st4" d="M159.78,217.39c0.92,1.99,1.84,3.98,2.76,5.97c-0.87,0.39-1.73,0.8-2.61,1.17
				c-0.46,0.19-0.96,0.39-1.45,0.43c-0.87,0.08-1.21-0.36-0.93-1.16C158.27,221.67,159.03,219.53,159.78,217.39z"/>
			<path class="st4" d="M27.29,116.47c0.79-1.29,1.52-2.49,2.32-3.8c0.83,0.8,1.59,1.54,1.85,2.63c0.29,1.21-0.48,2-1.68,1.76
				c-0.53-0.11-1.06-0.22-1.58-0.34C27.93,116.67,27.68,116.58,27.29,116.47z"/>
			<path class="st4" d="M39.57,92.09c-0.34,0.98-0.65,1.91-1.01,2.96c-1.27-1.03-2.49-2.02-3.7-3.02c0.02-0.06,0.03-0.12,0.05-0.19
				C36.43,91.93,37.96,92,39.57,92.09z"/>
			<path class="st4" d="M152.89,218.66c0.98-0.38,1.86-0.73,2.9-1.13c-0.51,1.88-0.99,3.61-1.53,5.6
				C153.76,221.51,153.33,220.12,152.89,218.66z"/>
			<path class="st4" d="M42.05,103.55c-0.05-0.05-0.1-0.11-0.15-0.16C41.95,103.44,42,103.5,42.05,103.55z"/>
			<path class="st4" d="M230.41,136.85c0,0.02,0,0.04,0,0.06c-0.03-0.01-0.07-0.02-0.1-0.03c0.02-0.02,0.03-0.04,0.05-0.05
				C230.37,136.82,230.4,136.84,230.41,136.85z"/>
			<path class="st4" d="M178.85,38.1c-0.03-0.06-0.06-0.12-0.1-0.18c0.07,0.01,0.14,0.03,0.2,0.04
				C178.92,38.01,178.89,38.06,178.85,38.1z"/>
			<path class="st4" d="M109.89,109.19c11.71,0,23.34,0,35.13,0c0,0.76,0,1.5,0,2.23c0.02,8.24,0.08,16.48,0.05,24.72
				c-0.01,2.68-0.79,5.09-3.04,6.82c-1.34,1.03-2.87,1.47-4.52,1.59c-1.77,0.12-3.55,0.14-5.31,0.34c-0.6,0.07-1.25,0.42-1.71,0.83
				c-2.71,2.37-2.91,2.45-5.84,0.33c-1.5-1.09-3.15-1.39-4.91-1.46c-1.08-0.04-2.17-0.04-3.24-0.18c-3.89-0.49-6.68-3.45-6.7-7.36
				c-0.05-9.14,0.01-18.28,0.03-27.42C109.83,109.5,109.86,109.39,109.89,109.19z M140.38,139.86c0.9-1.66,1.13-3.45,1.13-5.31
				c-0.02-6.94-0.01-13.89-0.02-20.83c0-0.26-0.02-0.52-0.03-0.82c-1.51,0-2.95,0-4.39,0c-6.85,0.02-13.7,0.04-20.56,0.09
				c-1.04,0.01-2.07,0.19-3.11,0.3c-0.06,1.17-0.17,2.34-0.17,3.51c-0.03,4.51-0.05,9.02-0.03,13.52c0.01,2.25,0.03,4.5,0.19,6.74
				c0.2,2.76,1.7,4.06,4.47,4.06c2.74,0,5.43,0.37,8.03,1.25c1.04,0.35,1.97,0.27,3.03,0.05c3.18-0.65,6.4-1.12,9.61-1.66
				c0.74-0.12,1.48-0.22,2.32-0.35C140.61,140.13,140.5,140,140.38,139.86z"/>
			<path class="st5" d="M140.38,139.86c0.11,0.14,0.23,0.27,0.45,0.55c-0.84,0.13-1.58,0.22-2.32,0.35
				c-3.21,0.54-6.43,1.01-9.61,1.66c-1.06,0.22-1.99,0.3-3.03-0.05c-2.6-0.88-5.29-1.25-8.03-1.25c-2.77,0-4.27-1.3-4.47-4.06
				c-0.16-2.24-0.18-4.49-0.19-6.74c-0.02-4.51,0-9.02,0.03-13.52c0.01-1.17,0.11-2.34,0.17-3.51c0.31,0.28,0.63,0.55,0.92,0.85
				c6.25,6.22,12.49,12.46,18.76,18.67C135.48,135.18,137.94,137.51,140.38,139.86z"/>
		</g>
	</g>
</g>
</svg>
