<?xml version="1.0" encoding="UTF-8" standalone="no"?>
<!-- Generator: Adobe Illustrator 26.5.0, SVG Export Plug-In . SVG Version: 6.00 Build 0)  -->

<svg
        version="1.1"
        id="affiliation"
        x="0px"
        y="0px"
        viewBox="0 0 256 256"
        style="enable-background:new 0 0 256 256;"
        xml:space="preserve"
        xmlns="http://www.w3.org/2000/svg"
        xmlns:svg="http://www.w3.org/2000/svg"><defs
   id="defs1" />
    <style
            type="text/css"
            id="style1">	.st0{fill:#FFFFFF;}	.st1{fill:#006AB3;}</style>
    <rect
            id="black"
            width="256"
            height="256"/>
    <circle
            id="background"
            class="st0"
            cx="128"
            cy="128"
            r="128"/>
    <g
            id="logo"
            transform="matrix(0.40677521,0,0,0.40677521,236.97407,0.30061054)">    <g
            id="g1"
            transform="matrix(1.4395788,0,0,1.4395788,-546.60925,206.74663)"><path
   id="path0"
   d="M 69.667,0.7 C 68.521,0.78 66.608,1.004 65.417,1.198 64.225,1.392 62.813,1.607 62.28,1.675 60.937,1.848 56.249,2.988 54,3.69 53.404,3.876 52.542,4.144 52.083,4.287 51.625,4.43 51.179,4.611 51.092,4.69 c -0.087,0.079 -0.298,0.143 -0.469,0.143 -0.171,0 -0.721,0.188 -1.222,0.417 -0.501,0.229 -0.981,0.417 -1.068,0.417 -0.086,0 -0.566,0.187 -1.067,0.416 -0.501,0.229 -0.962,0.417 -1.023,0.417 -0.226,0 -5.266,2.468 -6.576,3.221 -0.413,0.237 -0.938,0.524 -1.167,0.638 -0.229,0.115 -0.641,0.362 -0.916,0.55 -0.275,0.187 -0.755,0.479 -1.067,0.647 -0.312,0.168 -0.867,0.505 -1.233,0.75 -0.366,0.244 -0.786,0.52 -0.933,0.613 -1.28,0.809 -4.057,2.78 -4.448,3.157 -0.1,0.096 -0.393,0.324 -0.651,0.507 -0.258,0.184 -0.594,0.446 -0.746,0.584 -0.152,0.137 -0.685,0.582 -1.183,0.989 -1.356,1.105 -3.777,3.325 -4.881,4.475 -0.289,0.301 -1.018,1.051 -1.62,1.666 -0.603,0.616 -1.9,2.095 -2.883,3.286 -2.16,2.618 -2.033,2.461 -2.673,3.311 -0.602,0.8 -1.227,1.699 -2.167,3.117 -0.266,0.403 -0.585,0.832 -0.708,0.956 -0.124,0.123 -0.224,0.298 -0.224,0.389 0,0.092 -0.169,0.405 -0.376,0.697 -0.727,1.028 -3.188,5.433 -3.788,6.78 -0.061,0.138 -0.229,0.475 -0.373,0.75 -0.143,0.275 -0.503,1.063 -0.798,1.75 -0.295,0.688 -0.678,1.555 -0.851,1.928 -0.173,0.373 -0.314,0.769 -0.314,0.88 0,0.112 -0.188,0.573 -0.417,1.026 -0.229,0.452 -0.417,0.916 -0.417,1.032 0,0.115 -0.18,0.699 -0.401,1.297 -5.18,14.043 -5.18,34.298 0,48.341 0.221,0.599 0.401,1.18 0.401,1.293 0,0.113 0.188,0.594 0.417,1.069 0.229,0.475 0.417,0.938 0.417,1.03 0,0.091 0.141,0.471 0.314,0.843 0.173,0.373 0.556,1.241 0.851,1.928 0.295,0.688 0.655,1.475 0.798,1.75 0.401,0.766 0.504,0.979 0.606,1.25 0.052,0.138 0.504,1 1.006,1.917 0.502,0.916 1.072,1.981 1.266,2.366 0.195,0.385 0.46,0.788 0.59,0.896 0.129,0.107 0.235,0.273 0.235,0.367 0,0.095 0.188,0.418 0.417,0.719 0.229,0.3 0.417,0.621 0.417,0.712 0,0.091 0.1,0.267 0.224,0.39 0.123,0.123 0.442,0.553 0.708,0.955 0.266,0.402 0.597,0.893 0.734,1.09 0.138,0.198 0.401,0.58 0.586,0.849 0.901,1.314 1.491,2.072 1.613,2.072 0.074,0 0.135,0.08 0.135,0.177 0,0.56 5.66,6.776 8.611,9.457 0.534,0.486 1.16,1.055 1.389,1.265 1.091,0.999 3.491,2.935 3.639,2.935 0.091,0 0.191,0.06 0.222,0.134 0.121,0.292 5.317,3.886 6.889,4.764 0.275,0.154 0.868,0.507 1.319,0.786 0.451,0.278 1.651,0.919 2.667,1.424 1.016,0.506 2.035,1.029 2.264,1.163 0.229,0.135 0.754,0.393 1.166,0.574 0.855,0.376 1.352,0.599 2.712,1.217 0.529,0.241 1.096,0.438 1.259,0.438 0.163,0 0.367,0.065 0.454,0.144 0.087,0.08 0.534,0.277 0.992,0.437 2.508,0.879 3.095,1.079 4.083,1.389 2.247,0.705 6.905,1.836 8.334,2.023 0.504,0.065 1.929,0.278 3.166,0.472 5.956,0.935 15.374,0.939 21.167,0.01 1.146,-0.183 2.533,-0.396 3.083,-0.471 1.459,-0.2 5.605,-1.197 8.084,-1.944 2.102,-0.633 4.793,-1.559 5.302,-1.825 0.246,-0.128 0.54,-0.234 0.652,-0.234 0.189,-0.001 0.66,-0.2 2.962,-1.251 1.419,-0.647 4.957,-2.417 5.834,-2.918 0.458,-0.262 0.984,-0.548 1.17,-0.635 0.628,-0.298 3.663,-2.248 3.719,-2.39 0.03,-0.077 0.156,-0.141 0.279,-0.141 0.124,0 0.324,-0.098 0.445,-0.219 0.121,-0.12 0.672,-0.514 1.225,-0.875 4.148,-2.707 11.886,-9.867 15.209,-14.074 0.759,-0.962 1.603,-2.025 1.875,-2.362 0.272,-0.338 0.494,-0.694 0.494,-0.792 0,-0.098 0.065,-0.178 0.143,-0.178 0.119,0 0.863,-1.013 1.605,-2.184 0.223,-0.353 1.01,-1.552 1.612,-2.454 0.264,-0.397 0.632,-0.997 0.816,-1.334 0.184,-0.336 0.558,-0.986 0.832,-1.444 0.273,-0.459 1.178,-2.221 2.01,-3.917 0.833,-1.696 1.582,-3.214 1.665,-3.373 0.083,-0.159 0.151,-0.366 0.151,-0.46 0,-0.094 0.146,-0.489 0.325,-0.877 0.355,-0.769 0.474,-1.089 1.471,-3.957 0.721,-2.074 1.204,-3.618 1.204,-3.852 0,-0.085 -7.285,-0.148 -17.087,-0.148 h -17.087 l -0.198,0.459 c -0.296,0.687 -1.768,3.343 -2.378,4.291 -0.582,0.905 -1.353,2.084 -1.75,2.677 -1.315,1.963 -4.629,5.691 -6.359,7.154 -1.781,1.504 -2.541,2.129 -3.513,2.883 -0.617,0.478 -1.156,0.87 -1.198,0.87 -0.042,0 -0.549,0.323 -1.128,0.718 -0.866,0.591 -2.453,1.507 -3.949,2.278 -1.227,0.633 -4.009,1.837 -4.244,1.837 -0.102,0 -0.674,0.183 -1.272,0.406 -5.879,2.194 -15.348,2.625 -21.837,0.993 -0.505,-0.126 -1.255,-0.316 -1.667,-0.421 -0.413,-0.105 -1.22,-0.368 -1.793,-0.585 C 62.633,119.177 62.054,119 61.92,119 c -0.134,0 -0.489,-0.138 -0.79,-0.307 -0.301,-0.169 -0.809,-0.394 -1.13,-0.5 -0.844,-0.28 -4.824,-2.367 -6.018,-3.156 -2.519,-1.665 -2.906,-1.957 -5.151,-3.878 -3.233,-2.766 -7.2,-7.504 -8.925,-10.659 C 39.731,100.179 39.5,99.804 39.394,99.667 39.11,99.299 37.501,96.178 37.245,95.5 37.124,95.179 36.774,94.317 36.466,93.583 31.909,82.705 31.83,70.167 36.241,57.833 c 0.292,-0.818 0.303,-0.844 1.138,-2.666 0.315,-0.688 0.621,-1.363 0.681,-1.5 0.059,-0.138 0.331,-0.625 0.604,-1.084 0.273,-0.458 0.686,-1.17 0.918,-1.583 2.069,-3.677 6.214,-8.574 9.585,-11.324 0.687,-0.56 1.425,-1.167 1.639,-1.348 C 51.02,38.148 51.235,38 51.284,38 c 0.049,0 0.333,-0.206 0.632,-0.458 0.656,-0.553 2.572,-1.76 4.167,-2.626 6.874,-3.73 13.829,-5.309 22,-4.995 4.775,0.183 9.567,1.213 13.667,2.938 0.945,0.397 2.542,1.108 2.917,1.297 1.203,0.609 2.991,1.616 3.314,1.868 0.218,0.17 0.5,0.309 0.625,0.309 0.125,0 0.227,0.062 0.227,0.136 0,0.075 0.282,0.296 0.625,0.49 0.633,0.359 0.845,0.512 2.097,1.513 2.087,1.669 3.492,2.898 4.505,3.94 1.006,1.034 3.601,4.103 4.19,4.955 0.875,1.265 2.212,3.315 2.425,3.716 0.146,0.275 0.478,0.875 0.739,1.334 0.664,1.171 0.678,1.197 1.288,2.538 l 0.548,1.205 16.875,0.003 c 13.39,0.003 16.875,-0.039 16.876,-0.205 0.002,-0.61 -2.2,-7.116 -3.011,-8.896 -0.178,-0.391 -0.323,-0.793 -0.323,-0.895 0,-0.101 -0.142,-0.462 -0.315,-0.801 -0.174,-0.339 -0.503,-1.029 -0.733,-1.533 -0.954,-2.091 -1.523,-3.255 -1.629,-3.333 -0.062,-0.046 -0.263,-0.383 -0.446,-0.75 -0.619,-1.24 -1.24,-2.332 -1.476,-2.596 -0.129,-0.145 -0.235,-0.326 -0.235,-0.401 0,-0.076 -0.187,-0.384 -0.416,-0.684 C 140.188,35.768 140,35.448 140,35.356 c 0,-0.091 -0.094,-0.266 -0.208,-0.388 -0.115,-0.122 -0.657,-0.896 -1.205,-1.72 -1.157,-1.74 -2.593,-3.684 -3.081,-4.171 -0.186,-0.186 -0.339,-0.43 -0.339,-0.541 0,-0.112 -0.06,-0.203 -0.133,-0.203 -0.073,0 -0.404,-0.356 -0.737,-0.791 -0.333,-0.436 -0.986,-1.199 -1.451,-1.696 C 132.381,25.348 132,24.914 132,24.881 c 0,-0.158 -4.783,-4.79 -6.159,-5.964 -0.859,-0.734 -1.699,-1.465 -1.868,-1.625 C 123.805,17.131 123.605,17 123.53,17 c -0.075,0 -0.291,-0.169 -0.479,-0.375 -0.188,-0.206 -0.882,-0.75 -1.541,-1.208 -0.66,-0.459 -1.393,-1.002 -1.629,-1.209 -0.236,-0.206 -0.525,-0.375 -0.641,-0.375 -0.117,0 -0.237,-0.06 -0.268,-0.134 -0.03,-0.073 -0.808,-0.617 -1.729,-1.208 -2.258,-1.45 -2.121,-1.367 -3.91,-2.348 -0.871,-0.477 -1.621,-0.911 -1.666,-0.964 -0.293,-0.337 -6.446,-3.082 -8.834,-3.94 C 98.537,3.693 97.766,3.465 92.417,2.16 91.592,1.958 90.429,1.734 89.833,1.661 89.237,1.587 87.85,1.379 86.75,1.196 82.834,0.548 75.058,0.322 69.667,0.7"
   stroke="none"
   fill="#048ce4"
   fill-rule="evenodd" />
        <path
                id="path1"
                d="m 167.767,35.875 c 0.067,0.115 0.221,0.321 0.343,0.458 0.409,0.461 0.995,1.242 1.69,2.25 0.589,0.856 2.232,3.055 3.112,4.167 0.145,0.183 0.675,0.896 1.176,1.583 0.502,0.688 1.043,1.41 1.204,1.605 0.16,0.195 0.366,0.464 0.458,0.599 0.487,0.713 1.867,2.545 2.082,2.766 0.137,0.14 0.325,0.385 0.417,0.544 0.141,0.245 2.107,2.882 2.535,3.403 0.076,0.092 0.433,0.579 0.793,1.083 0.361,0.504 0.847,1.15 1.081,1.435 0.234,0.284 0.575,0.726 0.759,0.982 0.183,0.256 0.651,0.886 1.039,1.399 0.388,0.514 1.231,1.647 1.873,2.518 1.132,1.533 3.044,4.069 3.583,4.75 0.145,0.183 0.675,0.896 1.176,1.583 0.502,0.688 1.043,1.41 1.204,1.605 0.16,0.195 0.366,0.464 0.458,0.598 0.487,0.713 1.867,2.546 2.082,2.767 0.137,0.14 0.325,0.385 0.417,0.545 0.092,0.16 0.636,0.902 1.209,1.648 0.573,0.747 1.042,1.423 1.042,1.504 0,0.08 -0.469,0.757 -1.042,1.503 -0.573,0.747 -1.117,1.488 -1.209,1.648 -0.092,0.16 -0.28,0.406 -0.417,0.546 -0.226,0.231 -1.676,2.163 -2.082,2.773 -0.092,0.138 -0.279,0.375 -0.417,0.528 -0.137,0.152 -0.662,0.857 -1.166,1.566 -0.505,0.709 -1.067,1.469 -1.25,1.689 -0.184,0.22 -0.543,0.684 -0.799,1.031 -0.255,0.348 -0.818,1.091 -1.25,1.652 -0.431,0.56 -1.01,1.337 -1.285,1.726 -0.275,0.389 -0.612,0.837 -0.75,0.995 -0.137,0.159 -0.325,0.404 -0.416,0.545 -0.092,0.141 -0.617,0.839 -1.167,1.551 -0.55,0.711 -1.075,1.414 -1.167,1.562 -0.091,0.147 -0.295,0.418 -0.453,0.601 -0.157,0.184 -0.699,0.896 -1.203,1.584 -0.505,0.687 -1.036,1.4 -1.182,1.583 -0.145,0.183 -0.709,0.933 -1.253,1.667 -0.544,0.733 -1.107,1.483 -1.25,1.666 -0.857,1.097 -2.57,3.386 -3.559,4.757 -0.632,0.875 -1.269,1.69 -1.416,1.812 -0.147,0.122 -0.267,0.319 -0.267,0.438 0,0.118 -0.059,0.241 -0.132,0.271 -0.109,0.046 -0.597,0.66 -1.237,1.556 -0.066,0.091 -0.332,0.429 -0.592,0.75 -0.26,0.32 -0.768,0.995 -1.128,1.5 -0.36,0.504 -0.713,0.941 -0.783,0.972 -0.07,0.03 -0.128,0.149 -0.128,0.263 0,0.113 -0.187,0.383 -0.417,0.598 -0.229,0.215 -0.416,0.453 -0.416,0.529 0,0.076 7.718,0.138 17.152,0.138 h 17.152 l 0.8,-1.125 c 0.44,-0.619 0.858,-1.2 0.929,-1.292 0.684,-0.887 0.952,-1.254 1.305,-1.791 0.227,-0.343 0.468,-0.624 0.537,-0.625 0.068,0 0.125,-0.1 0.125,-0.222 0,-0.121 0.187,-0.397 0.416,-0.612 0.23,-0.215 0.417,-0.453 0.417,-0.527 0,-0.075 0.108,-0.268 0.24,-0.429 0.331,-0.406 1.996,-2.672 2.462,-3.35 0.21,-0.307 0.569,-0.794 0.798,-1.084 0.229,-0.29 0.492,-0.648 0.583,-0.795 0.22,-0.352 1.681,-2.333 1.942,-2.634 0.113,-0.129 0.541,-0.729 0.952,-1.333 0.411,-0.604 0.79,-1.136 0.843,-1.181 0.053,-0.046 0.172,-0.203 0.263,-0.349 0.194,-0.308 1.716,-2.379 2.084,-2.833 0.137,-0.17 0.42,-0.555 0.629,-0.856 0.388,-0.559 2.324,-3.227 3.69,-5.085 0.42,-0.572 0.952,-1.31 1.181,-1.64 0.229,-0.33 0.623,-0.847 0.875,-1.149 0.252,-0.302 0.458,-0.598 0.458,-0.659 0,-0.06 0.14,-0.26 0.31,-0.443 0.171,-0.183 0.601,-0.761 0.956,-1.284 0.355,-0.524 0.741,-1.012 0.857,-1.086 0.116,-0.073 0.21,-0.206 0.21,-0.296 0,-0.09 0.357,-0.633 0.792,-1.208 0.435,-0.575 0.867,-1.161 0.958,-1.304 0.092,-0.143 0.505,-0.71 0.917,-1.26 0.412,-0.55 0.9,-1.208 1.083,-1.462 0.184,-0.254 0.491,-0.658 0.684,-0.899 0.644,-0.804 0.765,-1.149 0.547,-1.562 -0.108,-0.207 -0.354,-0.572 -0.547,-0.813 -0.193,-0.24 -0.5,-0.645 -0.684,-0.899 -0.183,-0.254 -0.671,-0.912 -1.083,-1.462 -0.412,-0.55 -0.825,-1.117 -0.917,-1.259 -0.091,-0.143 -0.523,-0.73 -0.958,-1.305 -0.435,-0.574 -0.792,-1.118 -0.792,-1.208 0,-0.089 -0.095,-0.223 -0.212,-0.296 -0.117,-0.073 -0.581,-0.677 -1.03,-1.342 -0.449,-0.664 -0.878,-1.208 -0.954,-1.208 -0.075,0 -0.137,-0.077 -0.137,-0.171 0,-0.095 -0.356,-0.642 -0.792,-1.217 -0.435,-0.574 -0.866,-1.16 -0.958,-1.302 -0.171,-0.263 -1.44,-2 -2.333,-3.192 -0.275,-0.367 -0.575,-0.783 -0.667,-0.925 -0.092,-0.141 -0.542,-0.761 -1,-1.377 -0.458,-0.616 -0.983,-1.33 -1.167,-1.586 -0.183,-0.256 -0.722,-0.994 -1.197,-1.639 -0.475,-0.646 -1.037,-1.421 -1.25,-1.723 -0.212,-0.302 -0.573,-0.801 -0.803,-1.111 -0.229,-0.309 -0.829,-1.141 -1.333,-1.848 -0.504,-0.708 -1.048,-1.406 -1.208,-1.552 -0.161,-0.145 -0.292,-0.322 -0.292,-0.393 0,-0.114 -0.788,-1.222 -1.428,-2.008 -0.131,-0.161 -0.239,-0.338 -0.239,-0.392 0,-0.055 -0.188,-0.335 -0.419,-0.623 -0.23,-0.289 -0.482,-0.603 -0.559,-0.7 -0.077,-0.096 -0.348,-0.49 -0.603,-0.875 -0.255,-0.385 -0.528,-0.699 -0.607,-0.699 -0.08,0 -0.145,-0.083 -0.145,-0.185 0,-0.101 -0.169,-0.396 -0.375,-0.655 -0.206,-0.259 -0.562,-0.745 -0.792,-1.08 -0.229,-0.336 -0.623,-0.857 -0.875,-1.159 C 204.206,38.786 204,38.467 204,38.379 c 0,-0.088 -0.148,-0.295 -0.329,-0.459 -0.182,-0.164 -0.613,-0.737 -0.959,-1.274 l -0.629,-0.976 -17.218,-0.002 c -13.728,-10e-4 -17.194,0.041 -17.098,0.207"
                stroke="none"
                fill="#fcfcfc"
                fill-rule="evenodd"
                style="fill:#515151;fill-opacity:1"/>
        <path
                id="path2"
                d="m 321.309,0.574 c -0.1,0.105 -3.151,0.29 -4.768,0.289 -0.495,0 -0.674,0.058 -0.593,0.193 0.064,0.107 -0.011,0.091 -0.166,-0.035 -0.239,-0.194 -0.282,-0.194 -0.285,0 -0.002,0.192 -0.025,0.193 -0.145,0.003 -0.079,-0.124 -0.185,-0.159 -0.236,-0.077 -0.051,0.083 -0.342,0.172 -0.646,0.198 -1.065,0.094 -1.227,0.122 -1.431,0.248 -0.113,0.07 -0.281,0.08 -0.372,0.024 -0.092,-0.057 -0.261,-0.044 -0.375,0.028 -0.115,0.073 -0.396,0.151 -0.625,0.173 -0.229,0.023 -0.698,0.068 -1.042,0.101 -0.345,0.033 -0.67,0.103 -0.723,0.157 -0.053,0.053 -0.273,0.065 -0.489,0.026 -0.215,-0.039 -0.439,0.005 -0.497,0.099 -0.058,0.094 -0.176,0.128 -0.261,0.075 -0.085,-0.053 -0.155,-0.023 -0.155,0.065 0,0.089 -0.15,0.122 -0.334,0.074 -0.184,-0.048 -0.44,0 -0.57,0.108 -0.129,0.107 -0.504,0.21 -0.832,0.228 -0.329,0.018 -0.597,0.09 -0.597,0.16 0,0.07 -0.207,0.115 -0.459,0.099 -0.252,-0.016 -0.735,0.089 -1.073,0.234 -0.338,0.145 -0.788,0.225 -1,0.179 -0.319,-0.071 -0.342,-0.052 -0.135,0.11 0.208,0.163 0.187,0.182 -0.125,0.114 C 303.169,3.402 303,3.428 303,3.505 c 0,0.077 -0.187,0.106 -0.417,0.064 -0.229,-0.042 -0.416,10e-4 -0.416,0.094 0,0.094 -0.057,0.158 -0.125,0.142 -0.309,-0.069 -1.487,0.262 -1.75,0.492 -0.161,0.14 -0.292,0.196 -0.292,0.125 0,-0.071 -0.113,-0.036 -0.25,0.078 -0.138,0.114 -0.25,0.146 -0.25,0.07 0,-0.075 -0.09,-0.047 -0.2,0.063 -0.11,0.11 -0.414,0.2 -0.677,0.2 -0.275,0 -0.432,0.071 -0.373,0.167 0.09,0.145 -0.248,0.246 -0.625,0.186 -0.069,-0.01 -0.125,0.043 -0.125,0.12 0,0.076 -0.094,0.145 -0.208,0.152 -0.354,0.023 -2.127,0.818 -2.034,0.911 0.049,0.049 -0.046,0.088 -0.21,0.087 -0.61,-0.003 -0.733,0.047 -0.614,0.252 0.065,0.115 0.058,0.153 -0.017,0.085 -0.075,-0.068 -0.251,-0.03 -0.392,0.083 -0.204,0.165 -0.23,0.165 -0.13,-0.001 0.185,-0.309 -0.127,-0.253 -0.581,0.104 -0.42,0.331 -0.478,0.353 -0.939,0.357 -0.251,0.002 -0.257,0.026 -0.042,0.174 0.204,0.14 0.186,0.163 -0.099,0.122 -0.192,-0.027 -0.473,0.054 -0.625,0.18 -0.152,0.126 -0.276,0.168 -0.276,0.093 0,-0.074 -0.118,0.01 -0.262,0.188 -0.144,0.178 -0.206,0.211 -0.138,0.074 0.08,-0.161 -0.015,-0.131 -0.266,0.083 -0.215,0.183 -0.337,0.24 -0.27,0.127 0.081,-0.139 0.036,-0.174 -0.137,-0.108 -0.142,0.055 -0.22,0.161 -0.173,0.236 0.084,0.137 -0.401,0.361 -0.615,0.285 -0.062,-0.022 -0.292,0.129 -0.513,0.337 -0.22,0.207 -0.451,0.325 -0.513,0.263 -0.062,-0.062 -0.113,-0.02 -0.113,0.092 0,0.112 -0.075,0.158 -0.166,0.101 C 288.075,9.527 288,9.564 288,9.667 c 0,0.102 -0.074,0.14 -0.165,0.084 -0.091,-0.056 -0.298,-0.026 -0.459,0.068 -0.161,0.094 -0.218,0.173 -0.126,0.176 0.188,0.006 -0.686,0.505 -1.625,0.927 -0.344,0.154 -0.625,0.352 -0.625,0.439 0,0.087 -0.07,0.115 -0.155,0.063 -0.086,-0.053 -0.254,0.044 -0.375,0.214 -0.121,0.171 -0.506,0.405 -0.856,0.52 -0.479,0.157 -0.611,0.276 -0.533,0.479 0.057,0.148 0.052,0.218 -0.012,0.155 -0.063,-0.064 -0.322,0.032 -0.576,0.213 -0.254,0.181 -0.546,0.328 -0.649,0.328 -0.103,0 -0.231,0.112 -0.283,0.249 -0.053,0.137 -0.16,0.21 -0.239,0.161 -0.079,-0.049 -0.29,0.058 -0.469,0.237 -0.179,0.179 -0.369,0.282 -0.422,0.228 -0.054,-0.053 -0.098,0.036 -0.098,0.199 0,0.203 -0.083,0.263 -0.268,0.192 -0.189,-0.072 -0.241,-0.031 -0.175,0.141 0.062,0.163 0.014,0.213 -0.148,0.15 -0.133,-0.051 -0.242,-0.009 -0.242,0.092 0,0.102 -0.113,0.185 -0.25,0.185 -0.138,0 -0.25,0.079 -0.25,0.176 0,0.097 -0.075,0.13 -0.167,0.074 -0.152,-0.095 -0.241,0.133 -0.182,0.47 0.013,0.076 -0.046,0.094 -0.132,0.042 -0.206,-0.128 -0.706,0.069 -0.602,0.238 0.082,0.133 -0.396,0.408 -0.625,0.359 -0.069,-0.014 -0.125,0.086 -0.125,0.224 0,0.137 -0.142,0.25 -0.316,0.25 -0.287,0 -0.606,0.41 -0.546,0.702 0.013,0.066 -0.1,0.072 -0.251,0.014 -0.2,-0.077 -0.238,-0.045 -0.139,0.115 0.094,0.152 0.072,0.181 -0.069,0.094 -0.194,-0.12 -0.843,0.406 -0.86,0.697 -0.005,0.07 -0.11,0.107 -0.234,0.082 -0.125,-0.025 -0.275,0.106 -0.334,0.292 -0.059,0.185 -0.219,0.337 -0.356,0.337 -0.136,0 -0.202,0.075 -0.145,0.167 0.056,0.092 0.019,0.167 -0.083,0.167 -0.102,0 -0.417,0.243 -0.699,0.541 -0.282,0.298 -0.452,0.429 -0.378,0.292 0.087,-0.162 0.006,-0.138 -0.228,0.067 -0.399,0.351 -0.479,0.521 -0.154,0.331 0.115,-0.067 0.065,0.041 -0.109,0.24 -0.352,0.402 -0.512,0.474 -0.34,0.154 0.061,-0.115 -0.142,0.054 -0.453,0.375 -0.343,0.354 -0.497,0.631 -0.393,0.705 0.101,0.073 0.063,0.124 -0.093,0.125 -0.343,0.004 -1.993,1.635 -1.754,1.734 0.101,0.042 0.019,0.082 -0.181,0.089 -0.201,0.007 -0.419,0.1 -0.485,0.206 -0.079,0.128 -0.04,0.149 0.116,0.063 0.128,-0.071 -0.095,0.179 -0.496,0.557 -0.401,0.378 -0.626,0.69 -0.5,0.692 0.139,0.003 0.097,0.082 -0.104,0.198 -0.381,0.22 -0.853,0.664 -0.791,0.744 0.023,0.029 0.04,0.11 0.039,0.178 -0.002,0.069 -0.083,0.013 -0.181,-0.125 -0.145,-0.202 -0.164,-0.181 -0.1,0.113 0.06,0.276 0.017,0.339 -0.181,0.263 -0.189,-0.073 -0.232,-0.027 -0.156,0.17 0.069,0.18 0.031,0.243 -0.113,0.188 -0.127,-0.049 -0.33,0.145 -0.488,0.466 -0.149,0.303 -0.274,0.475 -0.279,0.384 -0.004,-0.092 -0.126,0.074 -0.271,0.369 -0.146,0.294 -0.313,0.519 -0.372,0.5 -0.058,-0.02 -0.107,0.017 -0.107,0.082 0,0.065 -0.15,0.239 -0.333,0.387 -0.183,0.148 -0.221,0.214 -0.083,0.146 0.137,-0.069 -0.013,0.132 -0.334,0.446 -0.595,0.582 -0.885,0.978 -1.149,1.57 -0.082,0.183 -0.344,0.515 -0.583,0.737 -0.239,0.222 -0.433,0.485 -0.432,0.583 0.002,0.099 0.073,0.069 0.158,-0.066 0.085,-0.134 0.198,-0.201 0.252,-0.148 0.053,0.054 -0.173,0.303 -0.502,0.554 -0.371,0.282 -0.564,0.55 -0.507,0.699 0.051,0.133 0.024,0.199 -0.06,0.147 -0.085,-0.052 -0.201,-0.019 -0.258,0.074 -0.058,0.093 -0.023,0.17 0.078,0.17 0.118,0 0.106,0.083 -0.032,0.232 -0.118,0.128 -0.271,0.199 -0.34,0.157 -0.068,-0.042 -0.125,0.079 -0.125,0.267 0,0.189 -0.072,0.344 -0.161,0.344 -0.089,0 -0.117,0.115 -0.063,0.256 0.062,0.163 0.016,0.239 -0.126,0.209 -0.129,-0.028 -0.251,0.123 -0.286,0.353 -0.047,0.31 -0.095,0.348 -0.21,0.167 -0.119,-0.188 -0.149,-0.175 -0.151,0.068 -0.002,0.167 -0.119,0.421 -0.262,0.563 -0.143,0.143 -0.218,0.37 -0.166,0.504 0.058,0.152 -0.032,0.277 -0.241,0.331 -0.296,0.078 -0.421,0.354 -0.349,0.769 0.013,0.076 -0.053,0.09 -0.147,0.032 -0.094,-0.058 -0.177,-0.045 -0.183,0.029 -0.055,0.591 -0.212,1.008 -0.494,1.308 -0.182,0.194 -0.28,0.403 -0.218,0.465 0.062,0.062 0.021,0.112 -0.091,0.112 -0.113,0 -0.163,0.067 -0.112,0.15 0.05,0.082 -0.02,0.192 -0.157,0.244 -0.137,0.053 -0.252,0.229 -0.255,0.393 -0.003,0.163 -0.113,0.439 -0.244,0.613 -0.132,0.174 -0.2,0.38 -0.152,0.458 0.048,0.078 0.009,0.142 -0.088,0.142 -0.098,0 -0.177,0.104 -0.177,0.23 0,0.126 -0.119,0.328 -0.263,0.448 -0.149,0.124 -0.233,0.38 -0.193,0.589 0.054,0.283 0.009,0.346 -0.195,0.27 -0.238,-0.089 -0.24,-0.067 -0.016,0.213 0.228,0.285 0.223,0.303 -0.05,0.2 -0.19,-0.071 -0.261,-0.048 -0.192,0.063 0.06,0.096 -0.019,0.316 -0.174,0.487 -0.156,0.172 -0.233,0.393 -0.173,0.491 0.061,0.098 0.004,0.219 -0.126,0.269 -0.137,0.053 -0.218,0.267 -0.191,0.509 0.026,0.237 -0.053,0.457 -0.182,0.506 -0.298,0.115 -0.685,1.176 -0.724,1.985 -0.012,0.235 -0.085,0.387 -0.164,0.338 -0.079,-0.049 -0.123,0.097 -0.098,0.323 0.025,0.226 -0.035,0.461 -0.133,0.521 -0.115,0.071 -0.128,0.028 -0.036,-0.124 0.119,-0.199 0.098,-0.2 -0.138,-0.008 -0.212,0.172 -0.238,0.301 -0.108,0.544 0.126,0.235 0.113,0.34 -0.051,0.403 -0.121,0.046 -0.238,0.285 -0.258,0.53 -0.02,0.244 -0.121,0.497 -0.224,0.56 -0.103,0.064 -0.129,0.21 -0.057,0.327 0.082,0.133 0.064,0.17 -0.05,0.1 -0.222,-0.138 -0.369,0.325 -0.293,0.923 0.037,0.289 -0.034,0.482 -0.201,0.546 -0.142,0.054 -0.21,0.146 -0.152,0.204 0.058,0.058 0.023,0.206 -0.078,0.328 -0.101,0.121 -0.143,0.329 -0.092,0.461 0.051,0.132 -0.016,0.33 -0.148,0.439 -0.132,0.11 -0.239,0.359 -0.237,0.554 0.002,0.29 0.032,0.309 0.164,0.105 0.089,-0.138 0.162,-0.166 0.164,-0.062 0.001,0.103 -0.106,0.277 -0.238,0.387 -0.132,0.109 -0.202,0.298 -0.155,0.42 0.047,0.122 0.005,0.27 -0.093,0.331 -0.098,0.06 -0.178,0.289 -0.178,0.507 0,0.218 -0.075,0.443 -0.167,0.5 -0.092,0.057 -0.167,0.183 -0.167,0.28 0,0.109 0.113,0.092 0.292,-0.043 0.248,-0.188 0.261,-0.186 0.083,0.013 -0.114,0.128 -0.213,0.425 -0.22,0.658 -0.01,0.388 -0.024,0.396 -0.156,0.092 -0.118,-0.27 -0.144,-0.222 -0.139,0.25 0.005,0.541 -0.327,2.141 -0.605,2.917 -0.096,0.267 -0.084,0.284 0.06,0.083 0.112,-0.155 0.181,-0.174 0.183,-0.052 0.001,0.11 -0.067,0.242 -0.153,0.295 -0.085,0.053 -0.12,0.288 -0.077,0.523 0.048,0.268 0.013,0.388 -0.095,0.321 -0.095,-0.059 -0.173,-0.027 -0.173,0.07 0,0.097 0.08,0.176 0.177,0.176 0.099,0 0.12,0.091 0.046,0.209 -0.071,0.114 -0.145,0.283 -0.163,0.375 -0.157,0.789 -0.258,1.571 -0.281,2.171 -0.015,0.393 -0.086,0.678 -0.158,0.634 -0.071,-0.044 -0.098,0.262 -0.058,0.682 0.05,0.542 0.015,0.731 -0.121,0.654 -0.118,-0.066 -0.111,-0.02 0.017,0.118 0.247,0.266 0.28,0.722 0.041,0.574 -0.091,-0.057 -0.166,0.051 -0.166,0.24 0,0.189 0.079,0.343 0.176,0.343 0.097,0 0.133,0.071 0.08,0.157 -0.164,0.265 -0.254,2.282 -0.254,5.677 0,3.394 0.09,5.411 0.254,5.677 0.053,0.086 0.017,0.156 -0.08,0.156 -0.097,0 -0.176,0.154 -0.176,0.343 0,0.189 0.075,0.297 0.166,0.24 0.239,-0.147 0.206,0.308 -0.041,0.575 -0.168,0.181 -0.165,0.199 0.018,0.096 0.171,-0.098 0.199,-0.044 0.113,0.225 -0.071,0.226 -0.04,0.354 0.086,0.354 0.141,0 0.132,0.08 -0.03,0.277 -0.163,0.198 -0.174,0.296 -0.038,0.342 0.122,0.041 0.163,0.321 0.112,0.765 -0.046,0.409 -0.02,0.617 0.063,0.501 0.087,-0.122 0.153,0.101 0.173,0.583 0.017,0.43 0.042,1.063 0.056,1.406 0.013,0.343 0.094,0.581 0.179,0.528 0.086,-0.053 0.12,0.095 0.076,0.335 -0.048,0.263 -0.001,0.431 0.119,0.433 0.139,0.001 0.134,0.042 -0.016,0.138 -0.118,0.075 -0.166,0.26 -0.108,0.413 0.059,0.153 0.167,0.24 0.24,0.195 0.074,-0.046 0.092,0.079 0.04,0.277 -0.072,0.275 -0.039,0.328 0.14,0.226 0.183,-0.105 0.192,-0.087 0.041,0.076 -0.149,0.161 -0.143,0.384 0.025,0.943 0.121,0.402 0.181,0.883 0.132,1.069 -0.051,0.196 0.036,0.475 0.209,0.665 0.172,0.191 0.215,0.328 0.102,0.328 -0.133,0 -0.144,0.091 -0.035,0.292 0.135,0.25 0.371,1.047 0.414,1.403 0.008,0.061 0.07,0.167 0.139,0.236 0.068,0.069 0.125,0.337 0.125,0.597 0,0.26 0.068,0.472 0.151,0.472 0.083,0 0.109,0.162 0.057,0.36 -0.06,0.228 -0.03,0.32 0.081,0.251 0.097,-0.06 0.217,-0.002 0.267,0.13 0.05,0.131 0.017,0.263 -0.075,0.293 -0.092,0.031 -0.117,0.185 -0.057,0.344 0.061,0.158 0.171,0.25 0.245,0.204 0.074,-0.046 0.113,0.048 0.087,0.209 -0.026,0.161 0.037,0.401 0.14,0.533 0.143,0.184 0.138,0.211 -0.021,0.115 -0.115,-0.069 -0.209,-0.087 -0.209,-0.04 0,0.211 0.4,0.935 0.517,0.935 0.071,0 0.18,0.337 0.242,0.75 0.062,0.412 0.183,0.75 0.27,0.75 0.087,0 0.116,0.067 0.065,0.149 -0.05,0.082 0.02,0.192 0.157,0.245 0.137,0.052 0.249,0.177 0.249,0.277 0,0.1 -0.093,0.134 -0.208,0.076 -0.115,-0.058 -0.093,-0.006 0.048,0.115 0.141,0.122 0.229,0.352 0.196,0.513 -0.033,0.16 0.033,0.291 0.147,0.291 0.113,0 0.157,0.05 0.097,0.11 -0.061,0.06 -0.027,0.209 0.074,0.331 0.101,0.122 0.14,0.335 0.087,0.474 -0.053,0.139 -0.024,0.252 0.065,0.252 0.088,0 0.161,0.098 0.161,0.217 0,0.306 0.392,1.113 0.542,1.115 0.068,0.001 0.125,0.114 0.125,0.251 0,0.138 0.093,0.251 0.208,0.253 0.147,0.002 0.139,0.046 -0.027,0.151 -0.2,0.127 -0.194,0.191 0.035,0.419 0.148,0.149 0.227,0.381 0.175,0.515 -0.051,0.135 -0.011,0.246 0.091,0.246 0.101,0 0.175,0.056 0.165,0.125 -0.051,0.318 0.044,0.551 0.333,0.827 0.173,0.163 0.367,0.542 0.43,0.841 0.064,0.299 0.18,0.504 0.256,0.457 0.077,-0.048 0.193,0.153 0.257,0.446 0.064,0.293 0.277,0.674 0.472,0.848 0.195,0.173 0.262,0.268 0.15,0.211 -0.125,-0.064 -0.094,0.09 0.078,0.39 0.157,0.272 0.361,0.449 0.456,0.393 0.094,-0.056 0.058,0.039 -0.079,0.212 -0.146,0.183 -0.163,0.261 -0.042,0.188 0.131,-0.078 0.208,-0.028 0.208,0.135 0,0.143 0.132,0.261 0.292,0.263 0.236,0.002 0.247,0.031 0.056,0.151 -0.199,0.126 -0.192,0.192 0.044,0.428 0.153,0.153 0.235,0.347 0.183,0.431 -0.052,0.085 -0.02,0.154 0.071,0.154 0.091,0 0.213,0.15 0.271,0.333 0.058,0.183 0.211,0.333 0.339,0.333 0.139,0 0.195,0.101 0.138,0.25 -0.053,0.138 -0.009,0.25 0.098,0.25 0.107,0 0.152,0.07 0.099,0.155 -0.053,0.086 0.091,0.358 0.32,0.605 0.229,0.247 0.376,0.515 0.326,0.595 -0.049,0.08 0.026,0.145 0.167,0.145 0.141,0 0.304,0.189 0.362,0.419 0.058,0.23 0.228,0.491 0.378,0.578 0.181,0.106 0.199,0.162 0.054,0.165 -0.12,0.003 0.03,0.24 0.334,0.527 0.303,0.287 0.439,0.463 0.302,0.39 -0.138,-0.073 -0.082,0.053 0.125,0.28 0.206,0.227 0.375,0.506 0.375,0.62 0,0.114 0.075,0.161 0.166,0.105 0.16,-0.099 0.244,0.146 0.173,0.5 -0.019,0.091 0.018,0.115 0.081,0.051 0.142,-0.141 0.574,0.234 0.469,0.407 -0.042,0.069 0.001,0.125 0.096,0.125 0.094,0 0.123,0.126 0.064,0.279 -0.081,0.211 -0.04,0.253 0.172,0.172 0.186,-0.071 0.279,-0.022 0.279,0.147 0,0.14 0.074,0.209 0.164,0.153 0.095,-0.058 0.123,0.008 0.066,0.156 -0.058,0.151 0.012,0.299 0.169,0.359 0.147,0.057 0.267,0.207 0.267,0.335 0,0.128 0.067,0.232 0.148,0.232 0.081,0 0.273,0.265 0.426,0.588 0.154,0.322 0.352,0.542 0.44,0.487 0.089,-0.055 0.241,0.128 0.338,0.406 0.097,0.278 0.326,0.553 0.508,0.611 0.183,0.058 0.29,0.148 0.238,0.199 -0.051,0.052 0.118,0.296 0.377,0.544 0.259,0.247 0.525,0.59 0.59,0.761 0.101,0.264 0.144,0.274 0.275,0.066 0.123,-0.195 0.156,-0.17 0.158,0.122 10e-4,0.201 0.098,0.426 0.215,0.5 0.116,0.073 0.338,0.331 0.492,0.574 0.154,0.243 0.415,0.43 0.58,0.417 0.185,-0.015 0.299,0.089 0.3,0.274 0.002,0.337 0.401,0.647 0.641,0.498 0.088,-0.054 0.113,-0.023 0.056,0.069 -0.137,0.221 0.49,0.884 0.836,0.884 0.149,0 0.224,0.048 0.166,0.106 -0.058,0.058 0.079,0.251 0.305,0.429 0.226,0.177 0.411,0.434 0.411,0.571 0,0.136 0.075,0.201 0.167,0.144 0.092,-0.056 0.167,0.017 0.167,0.162 0,0.146 0.129,0.315 0.288,0.376 0.158,0.061 0.463,0.319 0.678,0.574 0.215,0.255 0.479,0.447 0.587,0.426 0.108,-0.021 0.176,0.062 0.151,0.183 -0.025,0.121 0.013,0.184 0.085,0.14 0.224,-0.139 0.754,0.351 0.618,0.571 -0.09,0.146 -0.023,0.177 0.234,0.11 0.197,-0.052 0.319,-0.029 0.271,0.049 -0.049,0.079 0.12,0.264 0.374,0.412 0.255,0.148 0.329,0.227 0.163,0.177 -0.174,-0.054 -0.257,-0.024 -0.198,0.072 0.056,0.091 0.179,0.165 0.274,0.165 0.272,0 0.976,0.61 0.849,0.737 -0.063,0.063 0.015,0.064 0.172,0.004 0.195,-0.075 0.287,-0.027 0.287,0.148 0,0.362 0.342,0.533 0.516,0.257 0.144,-0.227 0.237,0.002 0.166,0.408 -0.013,0.076 0.054,0.09 0.148,0.031 0.095,-0.058 0.216,0.008 0.27,0.148 0.054,0.14 0.242,0.3 0.418,0.356 0.177,0.056 0.27,0.183 0.207,0.285 -0.072,0.117 -0.014,0.145 0.162,0.077 0.177,-0.068 0.337,0.011 0.45,0.222 0.096,0.18 0.257,0.327 0.358,0.327 0.1,0 0.304,0.139 0.452,0.309 0.148,0.171 0.42,0.358 0.603,0.416 0.183,0.059 0.596,0.332 0.917,0.607 0.32,0.275 0.642,0.501 0.715,0.501 0.073,0 0.29,0.148 0.484,0.328 0.193,0.18 0.415,0.288 0.494,0.239 0.078,-0.048 0.187,0.029 0.242,0.172 0.055,0.143 0.163,0.22 0.24,0.172 0.078,-0.047 0.225,0.07 0.328,0.262 0.159,0.297 0.227,0.316 0.457,0.13 0.149,-0.121 0.219,-0.134 0.157,-0.03 -0.063,0.104 -0.002,0.282 0.135,0.396 0.136,0.113 0.25,0.14 0.253,0.06 0.003,-0.08 0.107,-0.011 0.231,0.153 0.125,0.163 0.328,0.276 0.453,0.25 0.125,-0.027 0.209,0.045 0.186,0.16 -0.023,0.115 0.033,0.208 0.125,0.208 0.091,0 0.166,-0.091 0.166,-0.203 0,-0.112 0.111,-0.046 0.246,0.147 0.136,0.193 0.436,0.399 0.667,0.457 0.231,0.058 0.421,0.184 0.421,0.279 0,0.095 0.063,0.134 0.141,0.086 0.078,-0.048 0.303,0.063 0.5,0.247 0.197,0.183 0.36,0.274 0.361,0.202 0.002,-0.072 0.065,-0.033 0.142,0.088 0.076,0.121 0.244,0.24 0.372,0.266 0.743,0.147 1.135,0.321 1.103,0.49 -0.02,0.105 0.133,0.185 0.339,0.178 0.206,-0.007 0.375,0.037 0.375,0.098 0,0.165 0.88,0.563 1.142,0.516 0.124,-0.022 0.178,0.036 0.121,0.128 -0.057,0.092 0.029,0.171 0.192,0.176 0.669,0.018 0.868,0.079 0.949,0.29 0.047,0.122 0.2,0.222 0.341,0.222 0.14,0 0.255,0.075 0.255,0.167 0,0.091 0.056,0.149 0.125,0.128 0.069,-0.021 0.462,0.104 0.875,0.279 0.412,0.174 0.844,0.3 0.958,0.281 0.115,-0.02 0.209,0.055 0.209,0.165 0,0.111 0.05,0.152 0.111,0.091 0.062,-0.062 0.287,0.002 0.5,0.142 0.214,0.14 0.389,0.217 0.389,0.17 0,-0.046 0.262,0.063 0.583,0.244 0.398,0.223 0.584,0.262 0.586,0.122 0.002,-0.145 0.045,-0.138 0.148,0.024 0.085,0.134 0.234,0.175 0.356,0.099 0.138,-0.085 0.17,-0.063 0.093,0.062 -0.074,0.119 -10e-4,0.193 0.19,0.193 0.171,0 0.411,0.093 0.535,0.208 0.182,0.169 0.199,0.162 0.088,-0.042 -0.084,-0.153 0.014,-0.121 0.254,0.084 0.215,0.183 0.336,0.239 0.269,0.125 -0.067,-0.115 -0.051,-0.209 0.037,-0.209 0.087,0 0.202,0.113 0.254,0.25 0.053,0.138 0.253,0.25 0.446,0.25 0.192,0 0.49,0.076 0.662,0.167 0.199,0.107 0.348,0.11 0.411,0.007 0.056,-0.09 0.248,-0.013 0.436,0.174 0.226,0.227 0.448,0.3 0.681,0.226 0.19,-0.06 0.304,-0.042 0.253,0.04 -0.051,0.082 0.199,0.161 0.555,0.176 0.355,0.014 0.837,0.15 1.07,0.303 0.233,0.152 0.534,0.235 0.669,0.183 0.136,-0.052 0.287,-0.029 0.336,0.05 0.049,0.08 0.22,0.125 0.38,0.1 0.16,-0.024 0.553,0.047 0.874,0.158 0.321,0.111 0.715,0.182 0.875,0.157 0.161,-0.024 0.292,0.028 0.292,0.117 0,0.089 0.07,0.119 0.155,0.066 0.085,-0.053 0.203,-0.019 0.261,0.075 0.058,0.094 0.288,0.138 0.511,0.097 0.224,-0.04 0.406,-0.022 0.406,0.04 0,0.063 0.244,0.125 0.542,0.139 1.281,0.057 1.792,0.134 1.792,0.269 0,0.079 0.131,0.122 0.291,0.096 0.161,-0.026 0.389,0.013 0.508,0.087 0.125,0.078 0.331,0.042 0.49,-0.087 0.231,-0.188 0.253,-0.186 0.135,0.009 -0.11,0.183 -0.045,0.215 0.301,0.149 0.243,-0.047 0.441,-0.022 0.441,0.056 0,0.077 0.223,0.114 0.495,0.082 0.272,-0.031 0.54,-0.012 0.595,0.043 0.11,0.11 1.754,0.216 3.869,0.25 0.756,0.012 1.375,0.078 1.375,0.148 0,0.146 6.902,0.052 9,-0.123 0.779,-0.065 1.885,-0.13 2.458,-0.144 0.708,-0.018 1.042,-0.093 1.042,-0.235 0,-0.236 0.354,-0.209 0.539,0.042 0.076,0.104 0.123,0.091 0.125,-0.036 10e-4,-0.131 0.272,-0.196 0.771,-0.186 0.446,0.009 0.822,-0.071 0.896,-0.191 0.09,-0.147 0.16,-0.153 0.241,-0.021 0.063,0.101 0.189,0.184 0.281,0.184 0.091,0 0.131,-0.057 0.089,-0.126 -0.086,-0.139 0.606,-0.228 1.672,-0.214 0.384,0.004 0.743,-0.064 0.797,-0.152 0.055,-0.088 0.2,-0.122 0.322,-0.074 0.123,0.047 0.275,-0.048 0.337,-0.211 0.094,-0.245 0.14,-0.256 0.26,-0.061 0.12,0.194 0.225,0.199 0.601,0.028 0.251,-0.114 0.762,-0.249 1.137,-0.299 0.375,-0.051 0.83,-0.216 1.012,-0.367 0.308,-0.255 0.316,-0.255 0.116,0.005 -0.188,0.242 -0.171,0.267 0.126,0.189 0.187,-0.049 0.309,-0.14 0.271,-0.201 -0.038,-0.062 0.076,-0.128 0.252,-0.148 0.177,-0.02 0.471,-0.052 0.655,-0.071 0.183,-0.02 0.333,-0.088 0.333,-0.151 0,-0.064 0.142,-0.079 0.315,-0.034 0.173,0.046 0.364,0.001 0.426,-0.098 0.062,-0.1 0.3,-0.182 0.529,-0.182 0.229,0 0.374,-0.068 0.323,-0.151 -0.051,-0.083 0.048,-0.114 0.221,-0.069 0.173,0.046 0.365,0.001 0.427,-0.098 0.062,-0.1 0.3,-0.182 0.529,-0.182 0.229,0 0.378,-0.062 0.331,-0.139 -0.048,-0.076 0.02,-0.138 0.149,-0.138 0.129,0 0.197,0.061 0.151,0.137 -0.047,0.075 0.031,0.092 0.174,0.037 0.142,-0.054 0.258,-0.166 0.258,-0.248 0,-0.082 0.057,-0.14 0.125,-0.129 0.359,0.057 0.55,-0.041 0.444,-0.228 -0.091,-0.162 -0.07,-0.164 0.096,-0.011 0.165,0.153 0.302,0.14 0.607,-0.06 0.216,-0.141 0.505,-0.214 0.643,-0.161 0.14,0.053 0.397,-0.062 0.584,-0.263 0.184,-0.198 0.335,-0.306 0.335,-0.24 0,0.065 0.215,0.007 0.479,-0.129 0.263,-0.136 0.531,-0.196 0.594,-0.132 0.064,0.064 0.259,-0.07 0.434,-0.298 0.175,-0.228 0.32,-0.316 0.322,-0.197 0.003,0.168 0.09,0.158 0.374,-0.041 0.204,-0.143 0.504,-0.26 0.667,-0.26 0.163,0 0.296,-0.078 0.296,-0.174 0,-0.095 0.132,-0.152 0.292,-0.125 0.176,0.03 0.272,-0.041 0.243,-0.179 -0.03,-0.144 0.045,-0.193 0.203,-0.133 0.138,0.053 0.294,0.028 0.346,-0.055 0.051,-0.084 0.216,-0.105 0.366,-0.048 0.18,0.069 0.232,0.039 0.152,-0.089 -0.078,-0.126 -0.029,-0.158 0.14,-0.094 0.142,0.055 0.258,0.019 0.258,-0.08 0,-0.098 0.113,-0.136 0.25,-0.083 0.161,0.062 0.25,-0.003 0.25,-0.182 0,-0.161 0.078,-0.229 0.186,-0.163 0.102,0.063 0.233,0.041 0.291,-0.05 0.13,-0.2 1.643,-0.878 1.961,-0.878 0.126,0 0.229,-0.075 0.229,-0.167 0,-0.091 0.101,-0.166 0.224,-0.166 0.124,0 0.4,-0.152 0.615,-0.338 0.214,-0.186 0.563,-0.382 0.775,-0.435 0.212,-0.053 0.386,-0.164 0.386,-0.245 0,-0.082 0.094,-0.13 0.208,-0.107 0.115,0.023 0.191,-0.05 0.169,-0.161 -0.024,-0.122 0.066,-0.162 0.225,-0.101 0.146,0.056 0.314,0.033 0.373,-0.051 0.184,-0.261 1,-0.729 1.269,-0.729 0.151,0 0.256,-0.148 0.256,-0.361 0,-0.199 0.044,-0.317 0.098,-0.264 0.284,0.285 1.866,-0.672 1.6,-0.967 -0.063,-0.071 -0.024,-0.076 0.088,-0.012 0.111,0.064 0.357,-0.039 0.547,-0.229 0.19,-0.19 0.43,-0.294 0.532,-0.231 0.106,0.066 0.14,0.041 0.079,-0.058 -0.102,-0.165 0.47,-0.444 0.793,-0.387 0.084,0.015 0.054,-0.091 -0.066,-0.235 -0.185,-0.224 -0.177,-0.248 0.051,-0.16 0.278,0.106 0.778,-0.269 0.778,-0.584 0,-0.098 0.186,-0.179 0.413,-0.179 0.256,0 0.516,-0.157 0.685,-0.415 0.149,-0.228 0.331,-0.379 0.403,-0.334 0.072,0.044 0.174,-0.031 0.226,-0.168 0.053,-0.137 0.244,-0.249 0.425,-0.249 0.18,0 0.382,-0.087 0.447,-0.193 0.079,-0.127 0.045,-0.147 -0.099,-0.057 -0.144,0.089 -0.178,0.069 -0.099,-0.058 0.065,-0.106 0.229,-0.192 0.364,-0.192 0.135,0 0.288,-0.112 0.341,-0.249 0.053,-0.137 0.163,-0.208 0.245,-0.157 0.082,0.051 0.149,0.01 0.149,-0.09 0,-0.1 0.269,-0.341 0.598,-0.535 0.329,-0.194 0.656,-0.51 0.727,-0.702 0.071,-0.192 0.271,-0.349 0.443,-0.35 0.173,0 0.316,-0.076 0.317,-0.167 0.005,-0.271 0.261,-0.596 0.401,-0.509 0.072,0.044 0.23,-0.106 0.352,-0.334 0.122,-0.227 0.265,-0.348 0.317,-0.268 0.052,0.08 0.245,-0.005 0.428,-0.189 0.184,-0.184 0.221,-0.271 0.084,-0.194 -0.215,0.121 -0.218,0.102 -0.023,-0.139 0.125,-0.154 0.294,-0.239 0.375,-0.189 0.081,0.05 0.148,-0.026 0.148,-0.168 0,-0.143 0.112,-0.26 0.25,-0.26 0.137,0 0.25,-0.08 0.25,-0.177 0,-0.097 0.077,-0.129 0.17,-0.071 0.094,0.058 0.161,0.044 0.147,-0.032 -0.064,-0.37 0.039,-0.581 0.246,-0.501 0.29,0.111 0.604,-0.191 0.494,-0.476 -0.05,-0.132 0.068,-0.238 0.305,-0.272 0.213,-0.03 0.388,-0.165 0.388,-0.3 0,-0.135 0.176,-0.333 0.392,-0.441 0.376,-0.187 0.736,-0.662 0.955,-1.26 0.062,-0.171 0.204,-0.241 0.363,-0.18 0.172,0.066 0.22,0.033 0.141,-0.095 -0.067,-0.108 -0.042,-0.195 0.055,-0.195 0.098,0 0.177,-0.121 0.177,-0.268 0,-0.17 0.092,-0.233 0.25,-0.172 0.137,0.053 0.25,0.021 0.25,-0.071 0,-0.092 0.229,-0.391 0.508,-0.664 0.28,-0.273 0.463,-0.571 0.407,-0.661 -0.056,-0.09 0.02,-0.164 0.168,-0.164 0.149,0 0.224,-0.075 0.167,-0.167 -0.057,-0.092 0.014,-0.167 0.157,-0.167 0.143,0 0.26,-0.109 0.26,-0.243 0,-0.134 0.377,-0.597 0.839,-1.028 0.549,-0.514 0.772,-0.827 0.644,-0.905 -0.127,-0.079 -0.071,-0.16 0.164,-0.234 0.197,-0.063 0.322,-0.172 0.278,-0.243 -0.044,-0.071 0.062,-0.283 0.237,-0.47 0.175,-0.188 0.285,-0.374 0.245,-0.414 -0.041,-0.04 0.114,-0.174 0.343,-0.296 0.229,-0.123 0.416,-0.313 0.416,-0.422 0,-0.11 0.198,-0.397 0.44,-0.639 0.279,-0.279 0.355,-0.441 0.208,-0.445 -0.129,-0.003 -0.07,-0.095 0.133,-0.208 0.352,-0.196 0.386,-0.251 0.386,-0.629 0,-0.097 0.067,-0.135 0.149,-0.084 0.082,0.05 0.194,-0.024 0.248,-0.166 0.065,-0.168 0.027,-0.223 -0.107,-0.158 -0.114,0.055 -0.038,-0.025 0.168,-0.178 0.362,-0.268 0.546,-0.696 0.211,-0.489 -0.095,0.059 -0.123,-0.008 -0.066,-0.157 0.119,-0.309 0.396,-0.344 0.4,-0.05 0.001,0.147 0.046,0.14 0.151,-0.027 0.082,-0.129 0.11,-0.335 0.063,-0.458 -0.047,-0.123 -0.009,-0.223 0.084,-0.223 0.225,0 1.056,-1.494 0.938,-1.685 -0.051,-0.082 0.016,-0.149 0.147,-0.149 0.307,0 0.592,-0.344 0.662,-0.8 0.03,-0.197 0.106,-0.41 0.17,-0.473 0.063,-0.064 0.115,-0.251 0.115,-0.416 0,-0.212 0.082,-0.269 0.278,-0.194 0.172,0.067 0.236,0.04 0.168,-0.069 -0.06,-0.097 0.002,-0.269 0.138,-0.381 0.135,-0.112 0.205,-0.271 0.155,-0.352 -0.051,-0.081 -0.01,-0.148 0.089,-0.148 0.18,0 0.475,-0.613 0.602,-1.25 0.036,-0.183 0.194,-0.427 0.35,-0.542 0.156,-0.114 0.23,-0.208 0.165,-0.208 -0.066,0 -0.004,-0.225 0.139,-0.5 0.142,-0.275 0.207,-0.5 0.145,-0.5 -0.062,0 0.03,-0.131 0.204,-0.292 0.175,-0.16 0.338,-0.479 0.364,-0.708 0.025,-0.229 0.057,-0.51 0.069,-0.625 0.013,-0.115 0.057,-0.174 0.099,-0.133 0.135,0.136 0.559,-0.402 0.453,-0.574 -0.057,-0.092 -0.027,-0.168 0.067,-0.168 0.094,0 0.128,-0.112 0.076,-0.25 -0.053,-0.137 -0.009,-0.25 0.098,-0.25 0.107,0 0.145,-0.08 0.084,-0.178 -0.06,-0.098 0.029,-0.283 0.199,-0.411 0.17,-0.129 0.233,-0.237 0.142,-0.242 -0.092,-0.004 -0.054,-0.08 0.083,-0.169 0.222,-0.144 0.222,-0.162 0,-0.167 -0.191,-0.004 -0.2,-0.036 -0.038,-0.139 0.206,-0.131 0.387,-0.653 0.424,-1.224 0.011,-0.154 0.086,-0.266 0.169,-0.25 0.083,0.017 0.174,-0.112 0.203,-0.287 0.029,-0.174 0.129,-0.363 0.222,-0.42 0.092,-0.058 0.144,-0.253 0.115,-0.434 -0.028,-0.181 0.02,-0.419 0.107,-0.53 0.088,-0.111 0.104,-0.298 0.036,-0.417 -0.069,-0.118 -0.064,-0.16 0.011,-0.093 0.263,0.238 0.712,-0.932 0.739,-1.924 0.008,-0.313 0.077,-0.428 0.207,-0.347 0.13,0.08 0.16,0.03 0.091,-0.152 -0.058,-0.15 -0.033,-0.316 0.055,-0.37 0.087,-0.055 0.159,-0.32 0.159,-0.589 0,-0.27 0.084,-0.49 0.186,-0.49 0.104,0 0.148,-0.147 0.099,-0.334 -0.048,-0.183 -0.014,-0.333 0.076,-0.333 0.09,0 0.14,-0.177 0.111,-0.393 -0.028,-0.217 0.051,-0.517 0.175,-0.667 0.125,-0.15 0.171,-0.273 0.103,-0.273 -0.068,0 -0.051,-0.094 0.038,-0.209 0.09,-0.114 0.153,-0.483 0.141,-0.82 -0.012,-0.336 0.028,-0.582 0.087,-0.545 0.06,0.037 0.166,-0.25 0.237,-0.638 0.07,-0.388 0.155,-0.817 0.189,-0.955 0.128,-0.515 0.374,-2.296 0.45,-3.25 0.022,-0.275 0.12,-0.65 0.218,-0.833 0.098,-0.184 0.144,-0.43 0.102,-0.548 -0.042,-0.117 0.008,-0.316 0.113,-0.442 0.142,-0.171 0.14,-0.244 -0.009,-0.294 -0.151,-0.05 -0.151,-0.152 0.003,-0.439 0.11,-0.205 0.153,-0.52 0.096,-0.7 -0.057,-0.18 -0.041,-0.327 0.036,-0.327 0.078,0 0.152,-0.394 0.165,-0.875 0.06,-2.17 0.144,-3.216 0.265,-3.306 0.073,-0.053 0.054,-0.301 -0.041,-0.551 -0.104,-0.273 -0.108,-0.415 -0.012,-0.355 0.101,0.063 0.152,-1.346 0.137,-3.824 -0.013,-2.157 -0.067,-3.923 -0.119,-3.923 -0.087,0 -0.116,-0.426 -0.222,-3.291 -0.018,-0.482 -0.096,-0.875 -0.173,-0.875 -0.077,0 -0.093,-0.148 -0.036,-0.327 0.057,-0.18 0.014,-0.495 -0.096,-0.701 -0.154,-0.287 -0.154,-0.388 -0.003,-0.439 0.15,-0.05 0.151,-0.122 0.006,-0.297 -0.106,-0.128 -0.152,-0.338 -0.102,-0.468 0.05,-0.13 -0.011,-0.374 -0.134,-0.543 -0.173,-0.237 -0.18,-0.363 -0.031,-0.549 0.124,-0.152 0.128,-0.2 0.012,-0.131 -0.122,0.073 -0.193,-0.198 -0.213,-0.825 -0.017,-0.514 -0.075,-1.006 -0.129,-1.094 -0.054,-0.087 -0.125,-0.395 -0.159,-0.684 -0.034,-0.289 -0.09,-0.638 -0.124,-0.776 -0.034,-0.137 -0.119,-0.567 -0.189,-0.955 -0.071,-0.388 -0.177,-0.675 -0.237,-0.638 -0.059,0.037 -0.099,-0.208 -0.087,-0.545 0.012,-0.336 -0.051,-0.705 -0.141,-0.82 -0.089,-0.115 -0.106,-0.208 -0.038,-0.208 0.068,0 0.022,-0.123 -0.103,-0.274 -0.124,-0.15 -0.203,-0.45 -0.175,-0.666 0.029,-0.217 -0.021,-0.394 -0.111,-0.394 -0.09,0 -0.124,-0.15 -0.076,-0.333 0.049,-0.186 0.005,-0.333 -0.099,-0.333 -0.102,0 -0.186,-0.221 -0.186,-0.49 0,-0.27 -0.072,-0.535 -0.159,-0.589 -0.088,-0.054 -0.113,-0.221 -0.055,-0.371 0.069,-0.181 0.039,-0.232 -0.091,-0.151 -0.13,0.08 -0.199,-0.035 -0.207,-0.348 -0.027,-0.992 -0.476,-2.162 -0.739,-1.924 -0.075,0.068 -0.08,0.026 -0.011,-0.093 0.068,-0.119 0.052,-0.306 -0.036,-0.417 -0.087,-0.11 -0.135,-0.349 -0.107,-0.53 0.029,-0.181 -0.023,-0.376 -0.115,-0.433 -0.093,-0.058 -0.193,-0.247 -0.222,-0.421 -0.029,-0.174 -0.12,-0.303 -0.203,-0.287 -0.083,0.016 -0.158,-0.096 -0.169,-0.25 -0.037,-0.571 -0.218,-1.092 -0.424,-1.223 -0.162,-0.103 -0.153,-0.136 0.038,-0.14 0.222,-0.005 0.222,-0.023 0,-0.167 -0.137,-0.089 -0.175,-0.165 -0.083,-0.169 0.091,-0.004 0.028,-0.113 -0.142,-0.242 -0.17,-0.128 -0.259,-0.313 -0.199,-0.411 0.061,-0.098 0.023,-0.178 -0.084,-0.178 -0.107,0 -0.151,-0.112 -0.098,-0.25 0.052,-0.137 0.025,-0.25 -0.061,-0.25 -0.086,0 -0.115,-0.105 -0.066,-0.235 0.053,-0.136 -0.039,-0.276 -0.219,-0.333 -0.175,-0.055 -0.323,-0.275 -0.342,-0.507 -0.057,-0.677 -0.111,-0.83 -0.388,-1.091 -0.246,-0.233 -0.547,-1.069 -0.446,-1.242 0.025,-0.043 -0.087,-0.174 -0.249,-0.293 -0.161,-0.118 -0.324,-0.365 -0.36,-0.549 -0.127,-0.637 -0.422,-1.25 -0.602,-1.25 -0.099,0 -0.14,-0.066 -0.089,-0.147 0.05,-0.082 -0.02,-0.24 -0.155,-0.353 -0.136,-0.112 -0.198,-0.283 -0.138,-0.38 0.068,-0.11 0.004,-0.136 -0.168,-0.07 -0.153,0.059 -0.287,0.034 -0.298,-0.055 -0.029,-0.217 -0.097,-0.485 -0.138,-0.536 -0.018,-0.023 -0.067,-0.224 -0.107,-0.446 -0.096,-0.518 -0.37,-0.845 -0.713,-0.849 -0.236,-0.002 -0.239,-0.023 -0.022,-0.164 0.238,-0.154 0.107,-0.244 -0.25,-0.172 -0.091,0.018 -0.113,-0.02 -0.048,-0.084 0.154,-0.155 -0.489,-1.41 -0.723,-1.41 -0.099,0 -0.142,-0.101 -0.095,-0.224 0.047,-0.123 0.019,-0.329 -0.063,-0.458 -0.105,-0.166 -0.15,-0.174 -0.151,-0.027 -0.004,0.294 -0.281,0.26 -0.4,-0.05 -0.057,-0.148 -0.029,-0.215 0.066,-0.157 0.242,0.15 0.202,-0.014 -0.142,-0.58 -0.168,-0.277 -0.356,-0.453 -0.416,-0.393 -0.106,0.106 -0.157,-0.171 -0.069,-0.375 0.023,-0.053 -0.146,-0.2 -0.375,-0.327 -0.229,-0.127 -0.313,-0.234 -0.186,-0.237 0.147,-0.004 0.071,-0.166 -0.208,-0.445 -0.242,-0.242 -0.44,-0.529 -0.44,-0.639 0,-0.109 -0.187,-0.299 -0.416,-0.422 -0.229,-0.122 -0.385,-0.254 -0.347,-0.292 0.038,-0.038 -0.075,-0.231 -0.251,-0.43 -0.733,-0.829 -0.794,-0.925 -0.627,-0.981 0.094,-0.031 -0.211,-0.414 -0.677,-0.85 -0.467,-0.436 -0.848,-0.903 -0.848,-1.037 0,-0.134 -0.117,-0.243 -0.26,-0.243 -0.143,0 -0.214,-0.075 -0.157,-0.167 0.057,-0.091 -0.018,-0.166 -0.167,-0.166 -0.148,0 -0.226,-0.07 -0.174,-0.154 0.052,-0.085 -0.131,-0.402 -0.407,-0.704 -0.276,-0.303 -0.502,-0.606 -0.502,-0.674 0,-0.069 -0.113,-0.081 -0.25,-0.029 -0.158,0.061 -0.25,-0.002 -0.25,-0.172 0,-0.147 -0.079,-0.267 -0.177,-0.267 -0.097,0 -0.122,-0.088 -0.055,-0.195 0.078,-0.128 0.032,-0.162 -0.133,-0.098 -0.176,0.067 -0.357,-0.108 -0.593,-0.573 -0.187,-0.368 -0.517,-0.758 -0.733,-0.865 -0.216,-0.108 -0.392,-0.306 -0.392,-0.441 0,-0.135 -0.175,-0.27 -0.388,-0.3 -0.237,-0.033 -0.355,-0.139 -0.305,-0.271 0.11,-0.286 -0.204,-0.588 -0.494,-0.476 -0.152,0.058 -0.23,-0.035 -0.23,-0.273 0,-0.199 -0.075,-0.315 -0.167,-0.258 -0.091,0.056 -0.166,0.023 -0.166,-0.074 0,-0.097 -0.113,-0.176 -0.25,-0.176 -0.138,0 -0.25,-0.113 -0.25,-0.25 0,-0.138 -0.091,-0.232 -0.201,-0.209 -0.111,0.023 -0.204,-0.038 -0.208,-0.137 -0.012,-0.279 -0.591,-0.809 -0.592,-0.541 -10e-4,0.121 -0.151,-0.005 -0.333,-0.28 -0.182,-0.275 -0.331,-0.429 -0.332,-0.342 -10e-4,0.087 -0.095,0.065 -0.209,-0.05 -0.115,-0.114 -0.209,-0.298 -0.209,-0.408 0,-0.11 -0.142,-0.2 -0.315,-0.201 -0.172,0 -0.372,-0.158 -0.443,-0.35 -0.071,-0.192 -0.398,-0.508 -0.727,-0.702 -0.329,-0.194 -0.598,-0.434 -0.598,-0.535 0,-0.1 -0.067,-0.14 -0.149,-0.089 -0.082,0.05 -0.192,-0.02 -0.245,-0.157 -0.053,-0.137 -0.206,-0.249 -0.341,-0.249 -0.135,0 -0.299,-0.087 -0.364,-0.193 -0.079,-0.127 -0.045,-0.147 0.099,-0.057 0.146,0.09 0.178,0.069 0.097,-0.062 -0.067,-0.109 -0.248,-0.176 -0.401,-0.151 -0.16,0.026 -0.26,-0.049 -0.234,-0.175 0.026,-0.121 -0.031,-0.173 -0.125,-0.115 -0.093,0.058 -0.17,0.022 -0.17,-0.081 0,-0.102 -0.067,-0.145 -0.149,-0.094 -0.081,0.05 -0.271,-0.095 -0.42,-0.324 C 368.929,15.158 368.669,15 368.413,15 368.186,15 368,14.92 368,14.821 c 0,-0.315 -0.5,-0.69 -0.778,-0.583 -0.228,0.087 -0.236,0.063 -0.051,-0.16 0.12,-0.145 0.15,-0.251 0.066,-0.236 -0.323,0.058 -0.895,-0.221 -0.793,-0.387 0.065,-0.104 0.026,-0.123 -0.098,-0.046 -0.121,0.075 -0.339,-0.018 -0.535,-0.228 -0.182,-0.195 -0.403,-0.31 -0.492,-0.256 -0.088,0.055 -0.14,0 -0.115,-0.121 0.025,-0.121 -0.053,-0.2 -0.175,-0.175 -0.121,0.025 -0.173,-0.031 -0.115,-0.125 0.107,-0.172 -0.58,-0.51 -1.122,-0.552 -0.167,-0.013 -0.292,-0.158 -0.292,-0.339 0,-0.214 -0.082,-0.284 -0.254,-0.218 -0.139,0.054 -0.396,-0.032 -0.571,-0.19 -0.696,-0.631 -0.869,-0.73 -1.109,-0.638 -0.143,0.055 -0.206,0.025 -0.147,-0.07 C 361.475,10.405 361.174,10.182 360.75,10 360.326,9.818 359.866,9.556 359.728,9.418 359.589,9.28 359.369,9.167 359.238,9.167 359.107,9.167 359,9.092 359,9 c 0,-0.092 -0.103,-0.167 -0.229,-0.167 -0.318,0 -1.831,-0.678 -1.961,-0.878 -0.058,-0.09 -0.189,-0.113 -0.291,-0.05 -0.108,0.067 -0.186,-0.002 -0.186,-0.163 0,-0.178 -0.089,-0.243 -0.25,-0.182 -0.137,0.053 -0.25,0.016 -0.25,-0.083 0,-0.099 -0.116,-0.135 -0.258,-0.08 -0.149,0.057 -0.216,0.029 -0.157,-0.066 0.095,-0.153 -0.375,-0.244 -0.893,-0.173 -0.124,0.017 -0.181,-0.041 -0.127,-0.128 0.054,-0.087 -0.028,-0.261 -0.182,-0.386 -0.193,-0.156 -0.241,-0.162 -0.155,-0.019 0.069,0.115 0.046,0.208 -0.051,0.208 -0.097,0 -0.177,-0.087 -0.177,-0.194 0,-0.107 -0.047,-0.148 -0.104,-0.09 -0.058,0.057 -0.327,-0.011 -0.599,-0.151 -0.272,-0.141 -0.537,-0.213 -0.589,-0.161 -0.052,0.052 -0.203,-0.06 -0.335,-0.249 -0.132,-0.189 -0.338,-0.306 -0.457,-0.261 -0.119,0.046 -0.355,-0.022 -0.524,-0.15 -0.17,-0.128 -0.407,-0.235 -0.529,-0.238 -0.121,-0.003 -0.329,-0.115 -0.463,-0.249 -0.133,-0.133 -0.354,-0.2 -0.489,-0.148 -0.136,0.052 -0.423,-0.021 -0.639,-0.163 -0.305,-0.199 -0.442,-0.213 -0.607,-0.06 -0.166,0.153 -0.187,0.151 -0.096,-0.011 0.106,-0.187 -0.085,-0.284 -0.444,-0.228 -0.068,0.011 -0.125,-0.047 -0.125,-0.129 0,-0.082 -0.116,-0.193 -0.258,-0.248 -0.174,-0.067 -0.221,-0.031 -0.143,0.107 0.091,0.161 0.068,0.161 -0.108,-0.002 C 347.201,4.094 346.932,4 346.727,4 346.521,4 346.303,3.918 346.241,3.819 346.179,3.719 345.987,3.675 345.814,3.72 345.641,3.765 345.542,3.734 345.593,3.651 345.644,3.568 345.499,3.5 345.27,3.5 345.041,3.5 344.803,3.418 344.741,3.319 344.679,3.219 344.488,3.175 344.315,3.22 344.142,3.265 344,3.25 344,3.187 c 0,-0.064 -0.15,-0.132 -0.333,-0.151 -0.184,-0.02 -0.478,-0.052 -0.655,-0.072 -0.176,-0.019 -0.29,-0.086 -0.252,-0.147 0.038,-0.062 -0.084,-0.153 -0.271,-0.202 -0.297,-0.077 -0.314,-0.053 -0.126,0.19 0.2,0.26 0.193,0.26 -0.116,10e-4 -0.182,-0.152 -0.668,-0.302 -1.08,-0.333 -0.413,-0.031 -0.849,-0.15 -0.971,-0.265 C 340.075,2.094 339.869,2 339.738,2 c -0.131,0 -0.24,0.094 -0.243,0.208 -0.003,0.122 -0.103,0.081 -0.239,-0.1 -0.129,-0.169 -0.309,-0.262 -0.4,-0.205 -0.091,0.056 -0.213,0.026 -0.271,-0.067 -0.058,-0.093 -0.18,-0.169 -0.271,-0.169 -0.092,0 -0.113,0.086 -0.048,0.192 0.076,0.123 0.045,0.147 -0.086,0.066 -0.196,-0.121 -0.759,-0.221 -1.706,-0.302 -0.244,-0.021 -0.408,-0.095 -0.365,-0.164 0.042,-0.069 0.002,-0.126 -0.089,-0.126 -0.092,0 -0.218,0.083 -0.281,0.185 -0.081,0.13 -0.146,0.132 -0.225,0.005 -0.061,-0.098 -0.351,-0.197 -0.646,-0.22 -0.294,-0.022 -0.535,-0.109 -0.535,-0.192 0,-0.084 -0.112,-0.058 -0.25,0.056 -0.201,0.167 -0.25,0.163 -0.252,-0.022 -0.002,-0.137 -0.051,-0.162 -0.125,-0.062 -0.185,0.251 -0.539,0.279 -0.539,0.042 0,-0.142 -0.334,-0.217 -1.042,-0.235 -0.573,-0.014 -1.679,-0.072 -2.458,-0.129 -2.414,-0.176 -8.245,-0.307 -8.358,-0.187 m 6.441,29.311 c 1.408,0.129 2.26,0.264 2.792,0.443 0.252,0.085 0.458,0.094 0.458,0.02 0,-0.074 0.188,-0.099 0.417,-0.055 0.229,0.043 0.416,0.151 0.416,0.238 0,0.087 0.154,0.109 0.342,0.05 0.187,-0.06 0.449,-0.019 0.581,0.091 0.132,0.109 0.351,0.156 0.487,0.104 0.135,-0.052 0.294,-0.018 0.352,0.075 0.057,0.094 0.304,0.155 0.547,0.136 0.243,-0.019 0.554,0.011 0.691,0.067 0.788,0.323 1.276,0.502 1.472,0.542 0.121,0.025 0.346,0.1 0.5,0.166 0.153,0.067 0.389,0.144 0.525,0.171 0.136,0.027 0.274,0.128 0.306,0.225 0.032,0.096 0.132,0.175 0.221,0.175 0.089,0 0.113,-0.08 0.052,-0.179 -0.061,-0.098 0.2,-0.02 0.579,0.173 0.38,0.194 0.774,0.3 0.877,0.237 0.113,-0.07 0.14,-0.04 0.068,0.077 -0.106,0.17 0.199,0.277 0.609,0.212 0.068,-0.011 0.125,0.06 0.125,0.157 0,0.097 0.075,0.13 0.166,0.073 0.092,-0.056 0.167,-0.026 0.167,0.069 0,0.094 0.112,0.128 0.25,0.075 0.157,-0.06 0.25,0.002 0.25,0.167 0,0.172 0.092,0.227 0.267,0.16 0.147,-0.056 0.315,-0.035 0.375,0.047 0.166,0.229 0.824,0.566 1.104,0.566 0.138,0 0.34,0.142 0.449,0.316 0.109,0.175 0.297,0.279 0.418,0.233 0.121,-0.047 0.22,0.002 0.22,0.109 0,0.107 0.067,0.153 0.15,0.102 0.082,-0.05 0.195,0.028 0.251,0.175 0.057,0.149 0.21,0.225 0.346,0.172 0.134,-0.051 0.349,0.013 0.479,0.142 0.129,0.129 0.278,0.191 0.332,0.138 0.053,-0.053 0.184,0.094 0.29,0.328 0.128,0.281 0.299,0.404 0.506,0.364 0.197,-0.038 0.313,0.035 0.313,0.198 0,0.165 0.093,0.222 0.259,0.159 0.142,-0.055 0.224,-0.043 0.181,0.025 -0.042,0.069 0.21,0.265 0.561,0.435 0.35,0.171 0.676,0.459 0.724,0.641 0.047,0.182 0.185,0.298 0.306,0.258 0.12,-0.041 0.407,0.127 0.636,0.371 0.229,0.245 0.515,0.412 0.636,0.372 0.122,-0.041 0.261,0.086 0.313,0.287 0.059,0.224 0.184,0.326 0.331,0.269 0.132,-0.05 0.192,-0.017 0.135,0.075 -0.056,0.09 0.074,0.232 0.29,0.314 0.215,0.082 0.501,0.283 0.635,0.448 0.198,0.244 0.199,0.273 0.009,0.158 -0.16,-0.096 -0.196,-0.079 -0.114,0.054 0.067,0.108 0.182,0.158 0.257,0.111 0.075,-0.046 0.229,0.027 0.341,0.162 0.112,0.136 0.283,0.198 0.378,0.139 0.1,-0.061 0.124,-0.026 0.056,0.083 -0.066,0.107 0.14,0.447 0.474,0.781 0.326,0.326 0.592,0.548 0.592,0.494 0,-0.053 0.197,0.113 0.437,0.37 0.24,0.257 0.502,0.448 0.583,0.425 0.081,-0.023 0.147,0.063 0.147,0.191 0,0.127 0.112,0.275 0.25,0.328 0.137,0.052 0.25,0.215 0.25,0.361 0,0.145 0.075,0.218 0.166,0.162 0.092,-0.057 0.167,0.014 0.167,0.156 0,0.143 0.117,0.26 0.26,0.26 0.143,0 0.215,0.073 0.16,0.161 -0.054,0.088 0.073,0.332 0.282,0.542 0.21,0.209 0.36,0.443 0.335,0.52 -0.026,0.077 0.105,0.179 0.29,0.227 0.185,0.049 0.295,0.155 0.245,0.236 -0.051,0.081 -0.017,0.148 0.073,0.148 0.091,0 0.191,0.168 0.222,0.375 0.032,0.206 0.15,0.356 0.262,0.333 0.112,-0.023 0.204,0.038 0.204,0.135 0,0.097 0.074,0.131 0.165,0.075 0.095,-0.059 0.122,0.009 0.064,0.161 -0.063,0.165 0.077,0.428 0.377,0.706 0.263,0.243 0.481,0.523 0.485,0.62 0.004,0.098 0.107,0.156 0.229,0.13 0.139,-0.031 0.184,0.047 0.123,0.208 -0.055,0.141 -0.026,0.257 0.063,0.257 0.088,0 0.161,0.112 0.161,0.25 0,0.137 0.083,0.25 0.184,0.25 0.102,0 0.14,0.116 0.086,0.258 -0.055,0.143 -0.037,0.221 0.039,0.174 0.076,-0.047 0.31,0.147 0.52,0.431 0.211,0.285 0.298,0.465 0.194,0.401 -0.253,-0.157 -0.239,-0.01 0.054,0.557 0.134,0.259 0.358,0.515 0.497,0.569 0.145,0.055 0.212,0.206 0.156,0.352 -0.057,0.149 0.013,0.297 0.168,0.357 0.147,0.056 0.225,0.169 0.175,0.251 -0.051,0.083 -0.009,0.15 0.094,0.15 0.102,0 0.14,0.075 0.083,0.166 -0.057,0.092 -0.019,0.167 0.083,0.167 0.103,0 0.146,0.067 0.095,0.148 -0.05,0.081 0.016,0.237 0.147,0.345 0.131,0.109 0.193,0.317 0.137,0.463 -0.056,0.146 -0.033,0.226 0.051,0.178 0.085,-0.049 0.321,0.243 0.527,0.647 0.205,0.405 0.298,0.69 0.208,0.634 -0.248,-0.153 -0.198,0.183 0.059,0.396 0.123,0.103 0.277,0.133 0.342,0.068 0.065,-0.066 0.068,0.013 0.006,0.174 -0.068,0.178 0.002,0.419 0.178,0.614 0.169,0.186 0.246,0.438 0.183,0.6 -0.059,0.154 10e-4,0.445 0.134,0.648 0.354,0.54 0.78,1.613 0.596,1.499 -0.21,-0.13 -0.005,0.453 0.236,0.669 0.101,0.092 0.201,0.386 0.222,0.654 0.02,0.268 0.124,0.542 0.232,0.608 0.108,0.067 0.15,0.241 0.094,0.388 -0.06,0.154 -0.017,0.268 0.1,0.27 0.131,10e-4 0.116,0.058 -0.042,0.157 -0.209,0.133 -0.202,0.172 0.049,0.268 0.161,0.062 0.282,0.235 0.267,0.384 -0.059,0.618 0.016,0.873 0.221,0.749 0.156,-0.094 0.154,-0.058 -0.008,0.142 -0.148,0.183 -0.16,0.302 -0.039,0.377 0.098,0.06 0.137,0.174 0.089,0.253 -0.049,0.079 -0.007,0.195 0.094,0.257 0.1,0.062 0.139,0.288 0.085,0.501 -0.053,0.214 -0.022,0.435 0.071,0.492 0.092,0.057 0.129,0.324 0.081,0.594 -0.049,0.281 -0.013,0.49 0.086,0.49 0.098,0 0.13,0.17 0.074,0.392 -0.057,0.226 -0.005,0.492 0.122,0.625 0.23,0.244 0.26,0.502 0.321,2.816 0.021,0.788 0.118,1.471 0.218,1.539 0.123,0.083 0.114,0.123 -0.027,0.125 -0.141,0.002 -0.201,0.262 -0.187,0.794 0.021,0.748 0.028,0.76 0.127,0.209 0.058,-0.321 0.096,0.429 0.085,1.666 -0.012,1.238 -0.063,2.363 -0.114,2.5 -0.05,0.138 -0.087,0.625 -0.081,1.084 0.009,0.724 -0.111,2.287 -0.292,3.787 -0.03,0.249 -0.099,0.525 -0.153,0.613 -0.055,0.088 -0.026,0.205 0.063,0.26 0.205,0.127 0.044,0.608 -0.295,0.881 -0.174,0.14 -0.19,0.209 -0.05,0.209 0.114,0 0.155,0.085 0.09,0.19 -0.065,0.105 -0.144,0.386 -0.177,0.625 -0.081,0.603 -0.149,0.871 -0.338,1.336 -0.09,0.22 -0.151,0.611 -0.136,0.867 0.018,0.289 -0.071,0.505 -0.232,0.567 -0.204,0.078 -0.213,0.128 -0.043,0.233 0.17,0.105 0.144,0.251 -0.121,0.687 -0.186,0.305 -0.299,0.616 -0.253,0.691 0.047,0.075 -0.004,0.137 -0.112,0.137 -0.145,0 -0.149,0.058 -0.013,0.222 0.138,0.166 0.109,0.302 -0.117,0.545 -0.166,0.178 -0.272,0.411 -0.237,0.519 0.036,0.108 -0.03,0.368 -0.148,0.58 -0.117,0.211 -0.218,0.421 -0.225,0.467 -0.006,0.046 -0.106,0.254 -0.222,0.462 -0.115,0.208 -0.157,0.464 -0.093,0.568 0.075,0.121 0.042,0.142 -0.093,0.059 -0.157,-0.097 -0.18,-0.034 -0.092,0.245 0.088,0.277 0.065,0.341 -0.089,0.246 -0.154,-0.095 -0.187,-0.013 -0.126,0.307 0.046,0.24 0.028,0.402 -0.04,0.36 -0.068,-0.042 -0.226,0.05 -0.351,0.204 -0.156,0.193 -0.162,0.241 -0.019,0.155 0.115,-0.069 0.209,-0.046 0.209,0.051 0,0.097 -0.08,0.177 -0.177,0.177 -0.097,0 -0.13,0.075 -0.073,0.166 0.056,0.092 0.019,0.167 -0.084,0.167 -0.102,0 -0.14,0.075 -0.083,0.167 0.057,0.091 0.019,0.166 -0.083,0.166 -0.103,0 -0.14,0.075 -0.084,0.167 0.057,0.092 0.021,0.167 -0.08,0.167 -0.102,0 -0.162,0.131 -0.135,0.291 0.027,0.161 -0.042,0.274 -0.154,0.252 -0.117,-0.023 -0.162,0.065 -0.107,0.209 0.053,0.136 0.004,0.248 -0.109,0.248 -0.122,0 -0.168,0.134 -0.116,0.333 0.048,0.184 0.019,0.292 -0.064,0.24 -0.083,-0.051 -0.151,0.028 -0.151,0.177 0,0.171 -0.076,0.224 -0.209,0.144 -0.141,-0.085 -0.135,-0.035 0.021,0.157 0.159,0.197 0.169,0.282 0.033,0.282 -0.108,0 -0.31,0.273 -0.45,0.608 -0.139,0.334 -0.36,0.714 -0.491,0.845 -0.235,0.235 -0.309,0.475 -0.244,0.797 0.019,0.092 -0.016,0.117 -0.077,0.055 -0.159,-0.159 -0.753,0.388 -0.633,0.583 0.055,0.09 -0.005,0.245 -0.133,0.346 -0.423,0.33 -0.78,0.853 -0.484,0.707 0.137,-0.068 0.081,0.002 -0.125,0.155 -0.206,0.153 -0.375,0.376 -0.375,0.495 0,0.119 -0.185,0.437 -0.412,0.706 -0.227,0.27 -0.358,0.55 -0.292,0.623 0.067,0.073 -0.013,0.085 -0.176,0.026 -0.216,-0.077 -0.34,0.006 -0.455,0.307 -0.086,0.228 -0.226,0.414 -0.311,0.414 -0.085,0 -0.235,0.23 -0.333,0.512 -0.099,0.282 -0.256,0.465 -0.35,0.407 -0.151,-0.093 -0.201,0.018 -0.157,0.352 0.007,0.057 -0.186,0.235 -0.431,0.395 -0.244,0.161 -0.448,0.357 -0.452,0.438 -0.005,0.08 -0.149,0.244 -0.32,0.363 -0.171,0.12 -0.311,0.331 -0.311,0.469 0,0.137 -0.076,0.203 -0.168,0.146 -0.093,-0.057 -0.299,0.126 -0.459,0.407 -0.159,0.281 -0.422,0.554 -0.584,0.606 -0.162,0.053 -0.251,0.165 -0.198,0.25 0.052,0.085 0.011,0.155 -0.091,0.155 -0.102,0 -0.141,0.074 -0.085,0.164 0.061,0.098 -0.014,0.121 -0.184,0.055 -0.194,-0.074 -0.247,-0.047 -0.165,0.086 0.072,0.117 0.016,0.195 -0.139,0.195 -0.143,0 -0.26,0.075 -0.26,0.166 0,0.092 -0.117,0.167 -0.26,0.167 -0.143,0 -0.216,0.072 -0.161,0.16 0.054,0.087 -0.124,0.274 -0.397,0.415 -0.272,0.141 -0.551,0.35 -0.62,0.465 -0.077,0.127 0.002,0.111 0.197,-0.04 0.301,-0.232 0.308,-0.229 0.091,0.047 -0.129,0.164 -0.314,0.271 -0.412,0.238 -0.099,-0.033 -0.353,0.115 -0.566,0.328 -0.213,0.213 -0.454,0.387 -0.535,0.387 -0.082,0 -0.195,0.148 -0.253,0.33 -0.058,0.181 -0.194,0.313 -0.303,0.292 -0.109,-0.021 -0.18,0.052 -0.158,0.164 0.023,0.117 -0.065,0.162 -0.211,0.106 -0.306,-0.118 -0.783,0.247 -0.635,0.486 0.063,0.101 0.027,0.124 -0.087,0.054 -0.113,-0.07 -0.369,0.088 -0.614,0.38 -0.232,0.275 -0.587,0.525 -0.79,0.556 -0.203,0.031 -0.353,0.142 -0.333,0.245 0.02,0.104 -0.093,0.17 -0.25,0.146 -0.393,-0.059 -1.036,0.386 -1.039,0.719 -0.002,0.212 -0.034,0.223 -0.144,0.05 -0.109,-0.173 -0.244,-0.126 -0.611,0.214 -0.259,0.24 -0.572,0.398 -0.696,0.35 -0.124,-0.047 -0.27,0.029 -0.324,0.17 -0.055,0.142 -0.199,0.219 -0.322,0.172 -0.287,-0.111 -0.471,0.174 -0.193,0.298 0.115,0.051 0.059,0.08 -0.124,0.065 -0.478,-0.04 -1.105,0.2 -0.994,0.38 0.052,0.084 -0.031,0.104 -0.185,0.045 -0.173,-0.066 -0.338,-0.002 -0.434,0.169 -0.084,0.152 -0.291,0.276 -0.459,0.276 -0.167,0 -0.4,0.116 -0.518,0.258 -0.171,0.206 -0.242,0.214 -0.351,0.041 -0.106,-0.166 -0.138,-0.168 -0.14,-0.008 -0.002,0.115 -0.115,0.209 -0.253,0.209 -0.137,0 -0.251,0.093 -0.252,0.208 -0.002,0.139 -0.057,0.125 -0.164,-0.042 -0.133,-0.206 -0.162,-0.208 -0.164,-0.014 -0.002,0.13 -0.05,0.19 -0.107,0.133 -0.057,-0.058 -0.402,0.048 -0.767,0.234 -0.365,0.186 -0.611,0.252 -0.546,0.147 0.075,-0.12 -0.011,-0.11 -0.232,0.028 -0.193,0.121 -0.351,0.274 -0.351,0.341 0,0.066 -0.1,0.083 -0.221,0.036 -0.122,-0.047 -0.441,0.001 -0.709,0.107 -0.267,0.105 -0.749,0.228 -1.07,0.274 -0.321,0.045 -0.675,0.157 -0.787,0.248 -0.112,0.092 -0.468,0.166 -0.791,0.166 -0.323,0 -0.551,0.06 -0.506,0.133 0.045,0.072 -0.086,0.132 -0.292,0.133 -0.527,10e-4 -1.997,0.221 -3.624,0.543 -1.113,0.22 -6.967,0.332 -8.101,0.155 -0.449,-0.07 -1.191,-0.186 -1.649,-0.257 -0.458,-0.072 -1.04,-0.136 -1.292,-0.143 -0.252,-0.008 -0.458,-0.071 -0.458,-0.142 0,-0.07 -0.187,-0.081 -0.417,-0.023 -0.273,0.068 -0.416,0.034 -0.416,-0.099 0,-0.133 -0.144,-0.167 -0.417,-0.098 -0.229,0.058 -0.417,0.041 -0.417,-0.037 0,-0.149 -0.225,-0.193 -1.125,-0.217 -0.298,-0.007 -0.585,-0.083 -0.637,-0.167 -0.052,-0.084 -0.164,-0.11 -0.249,-0.057 -0.086,0.053 -0.155,0.012 -0.155,-0.09 0,-0.103 -0.084,-0.135 -0.186,-0.072 -0.102,0.063 -0.235,0.033 -0.296,-0.066 -0.062,-0.099 -0.386,-0.199 -0.721,-0.221 -0.337,-0.023 -0.565,-0.113 -0.511,-0.201 0.057,-0.092 -0.051,-0.12 -0.255,-0.067 -0.2,0.052 -0.338,0.018 -0.317,-0.08 0.05,-0.24 -0.847,-0.478 -0.925,-0.245 -0.035,0.106 -0.194,0.047 -0.383,-0.142 -0.178,-0.178 -0.417,-0.33 -0.531,-0.34 -0.115,-0.009 -0.363,-0.028 -0.552,-0.041 -0.189,-0.014 -0.297,-0.1 -0.24,-0.192 0.093,-0.15 -0.126,-0.239 -0.458,-0.186 -0.069,0.01 -0.125,-0.068 -0.125,-0.175 0,-0.107 -0.05,-0.145 -0.11,-0.085 -0.06,0.06 -0.225,0.017 -0.365,-0.097 -0.212,-0.172 -0.232,-0.164 -0.115,0.043 0.078,0.138 -0.095,0.03 -0.385,-0.24 -0.289,-0.269 -0.525,-0.428 -0.525,-0.354 0,0.074 -0.112,0.042 -0.248,-0.071 -0.137,-0.113 -0.365,-0.161 -0.509,-0.106 -0.15,0.058 -0.217,0.031 -0.159,-0.064 0.056,-0.091 -0.007,-0.165 -0.14,-0.165 -0.133,0 -0.284,-0.109 -0.335,-0.241 -0.051,-0.133 -0.404,-0.325 -0.784,-0.428 -0.381,-0.102 -0.647,-0.231 -0.593,-0.286 0.148,-0.147 -1.096,-0.856 -1.338,-0.763 -0.114,0.043 -0.305,-0.077 -0.424,-0.268 -0.12,-0.191 -0.316,-0.347 -0.437,-0.347 -0.125,0 -0.168,-0.084 -0.099,-0.195 0.08,-0.129 0.031,-0.161 -0.144,-0.094 -0.168,0.065 -0.46,-0.1 -0.807,-0.455 -0.325,-0.332 -0.644,-0.518 -0.791,-0.461 -0.153,0.058 -0.204,0.025 -0.134,-0.088 0.063,-0.103 -0.036,-0.231 -0.225,-0.291 -0.202,-0.064 -0.291,-0.186 -0.22,-0.303 0.074,-0.125 0.02,-0.118 -0.15,0.02 -0.284,0.23 -0.797,-0.262 -0.797,-0.764 0,-0.122 -0.078,-0.174 -0.174,-0.115 -0.215,0.133 -0.689,-0.237 -0.564,-0.44 0.051,-0.082 -0.096,-0.22 -0.325,-0.307 -0.229,-0.087 -0.5,-0.314 -0.602,-0.504 -0.101,-0.19 -0.261,-0.299 -0.354,-0.241 -0.093,0.057 -0.211,-0.052 -0.261,-0.244 -0.05,-0.191 -0.147,-0.313 -0.217,-0.27 -0.069,0.042 -0.296,-0.146 -0.506,-0.419 -0.209,-0.273 -0.479,-0.496 -0.6,-0.496 -0.127,0 -0.179,-0.106 -0.124,-0.25 0.059,-0.154 0,-0.25 -0.154,-0.25 -0.137,0 -0.293,-0.112 -0.346,-0.25 -0.052,-0.138 -0.194,-0.25 -0.314,-0.25 -0.319,0 -0.824,-0.628 -0.573,-0.714 0.109,-0.037 -0.065,-0.238 -0.386,-0.445 -0.321,-0.207 -0.448,-0.332 -0.283,-0.277 0.177,0.058 0.259,0.031 0.199,-0.066 -0.056,-0.091 -0.215,-0.165 -0.352,-0.165 -0.138,0 -0.209,-0.067 -0.158,-0.149 0.051,-0.082 -0.024,-0.194 -0.167,-0.249 -0.145,-0.055 -0.207,-0.185 -0.14,-0.293 0.066,-0.106 0.052,-0.154 -0.031,-0.106 -0.083,0.049 -0.301,-0.064 -0.484,-0.25 -0.184,-0.185 -0.234,-0.28 -0.113,-0.211 0.183,0.105 0.183,0.066 0.002,-0.224 -0.121,-0.193 -0.322,-0.351 -0.447,-0.351 -0.131,0 -0.188,-0.103 -0.135,-0.242 0.065,-0.169 0.012,-0.21 -0.176,-0.138 -0.172,0.066 -0.228,0.037 -0.156,-0.08 0.063,-0.101 -0.054,-0.301 -0.26,-0.445 -0.205,-0.144 -0.285,-0.262 -0.177,-0.262 0.108,0 0.016,-0.193 -0.203,-0.43 -0.246,-0.265 -0.358,-0.536 -0.294,-0.708 0.091,-0.244 0.069,-0.25 -0.181,-0.046 -0.245,0.199 -0.272,0.197 -0.19,-0.015 0.052,-0.136 -0.021,-0.343 -0.163,-0.461 -0.141,-0.118 -0.257,-0.347 -0.257,-0.509 0,-0.162 -0.118,-0.34 -0.261,-0.395 -0.143,-0.055 -0.214,-0.176 -0.157,-0.268 0.057,-0.092 -0.025,-0.168 -0.184,-0.168 -0.158,0 -0.238,-0.049 -0.178,-0.109 0.061,-0.061 0.017,-0.225 -0.097,-0.366 -0.171,-0.211 -0.163,-0.233 0.043,-0.128 0.149,0.076 0.133,0.032 -0.039,-0.109 -0.159,-0.131 -0.251,-0.275 -0.204,-0.322 0.047,-0.047 -0.03,-0.18 -0.169,-0.296 -0.14,-0.116 -0.254,-0.314 -0.254,-0.44 0,-0.126 -0.117,-0.23 -0.26,-0.23 -0.143,0 -0.211,-0.079 -0.151,-0.177 0.061,-0.097 -0.01,-0.309 -0.156,-0.471 -0.146,-0.161 -0.281,-0.486 -0.301,-0.721 -0.025,-0.305 -0.108,-0.401 -0.292,-0.336 -0.141,0.051 -0.201,0.03 -0.133,-0.044 0.068,-0.075 0.04,-0.237 -0.063,-0.36 -0.139,-0.169 -0.129,-0.225 0.044,-0.227 0.179,-0.002 0.175,-0.037 -0.022,-0.164 -0.137,-0.089 -0.175,-0.164 -0.083,-0.166 0.092,-0.003 0.054,-0.077 -0.083,-0.164 -0.138,-0.088 -0.25,-0.33 -0.25,-0.54 0,-0.209 -0.086,-0.363 -0.192,-0.344 -0.117,0.022 -0.155,-0.1 -0.098,-0.317 0.06,-0.231 0.029,-0.315 -0.089,-0.242 -0.1,0.062 -0.229,0.036 -0.286,-0.057 -0.058,-0.093 -0.027,-0.17 0.068,-0.17 0.115,0 0.109,-0.139 -0.017,-0.416 -0.104,-0.229 -0.272,-0.418 -0.371,-0.42 -0.1,-0.001 -0.072,-0.072 0.063,-0.157 0.21,-0.133 0.203,-0.172 -0.046,-0.267 -0.186,-0.072 -0.258,-0.22 -0.199,-0.406 0.055,-0.173 -0.007,-0.332 -0.149,-0.387 -0.144,-0.055 -0.207,-0.224 -0.157,-0.418 0.047,-0.178 0.011,-0.37 -0.081,-0.427 -0.091,-0.056 -0.128,-0.271 -0.083,-0.477 0.059,-0.27 0.038,-0.312 -0.077,-0.15 -0.152,0.214 -0.485,-0.809 -0.392,-1.201 0.019,-0.078 -0.045,-0.237 -0.141,-0.353 -0.097,-0.117 -0.129,-0.334 -0.072,-0.483 0.058,-0.149 0.029,-0.271 -0.062,-0.271 -0.092,0 -0.212,-0.116 -0.266,-0.259 -0.066,-0.17 -0.029,-0.223 0.107,-0.154 0.113,0.057 0.075,-0.003 -0.085,-0.135 -0.292,-0.239 -0.414,-0.547 -0.153,-0.386 0.076,0.047 0.139,-0.023 0.139,-0.157 0,-0.133 -0.081,-0.242 -0.181,-0.243 -0.099,0 -0.197,-0.318 -0.217,-0.708 C 281.799,84.373 281.752,84 281.634,84 c -0.068,0 -0.08,-0.113 -0.027,-0.252 0.053,-0.139 0.004,-0.364 -0.109,-0.5 C 281.385,83.112 281.344,83 281.406,83 c 0.063,0 0.055,-0.094 -0.016,-0.208 -0.071,-0.115 -0.109,-0.37 -0.083,-0.568 0.025,-0.197 -0.041,-0.413 -0.148,-0.479 -0.144,-0.088 -0.135,-0.158 0.032,-0.266 0.143,-0.092 0.165,-0.191 0.059,-0.271 -0.196,-0.147 -0.208,-0.415 -0.238,-5.541 -0.026,-4.388 0.07,-6.393 0.33,-6.917 0.046,-0.092 0.079,-0.41 0.073,-0.708 -0.005,-0.298 0.043,-0.542 0.108,-0.542 0.065,0 0.097,-0.244 0.071,-0.542 -0.026,-0.298 -0.003,-0.616 0.05,-0.708 0.113,-0.196 0.179,-0.48 0.269,-1.167 0.036,-0.275 0.071,-0.518 0.076,-0.541 0.006,-0.023 0.015,-0.098 0.019,-0.167 0.005,-0.069 0.119,-0.294 0.254,-0.5 0.17,-0.26 0.185,-0.375 0.049,-0.375 -0.113,0 -0.062,-0.153 0.122,-0.362 0.174,-0.199 0.223,-0.307 0.109,-0.24 -0.279,0.163 -0.27,0.118 0.183,-0.919 0.216,-0.493 0.436,-1.179 0.491,-1.526 0.054,-0.346 0.206,-0.846 0.338,-1.111 0.18,-0.36 0.193,-0.533 0.051,-0.686 -0.14,-0.153 -0.14,-0.178 10e-4,-0.099 0.171,0.095 0.317,-0.169 0.483,-0.874 0.031,-0.128 0.145,-0.288 0.255,-0.356 0.109,-0.068 0.149,-0.204 0.088,-0.302 -0.061,-0.099 0.048,-0.338 0.241,-0.532 0.194,-0.194 0.312,-0.459 0.262,-0.589 -0.05,-0.131 -0.014,-0.237 0.08,-0.237 0.094,0 0.125,-0.075 0.068,-0.167 -0.056,-0.092 -0.023,-0.167 0.074,-0.167 0.097,0 0.176,-0.192 0.176,-0.426 0,-0.239 0.073,-0.382 0.165,-0.325 0.098,0.061 0.12,-0.014 0.055,-0.184 -0.074,-0.193 -0.047,-0.247 0.083,-0.167 0.127,0.078 0.159,0.03 0.094,-0.139 -0.054,-0.143 -0.012,-0.259 0.095,-0.259 0.107,0 0.155,-0.064 0.107,-0.142 -0.048,-0.078 0.028,-0.284 0.169,-0.458 0.141,-0.174 0.202,-0.211 0.136,-0.082 -0.082,0.158 -0.056,0.193 0.079,0.11 0.155,-0.096 0.155,-0.178 0.002,-0.363 -0.163,-0.196 -0.144,-0.218 0.104,-0.123 0.236,0.091 0.279,0.055 0.195,-0.163 -0.059,-0.154 -0.026,-0.279 0.073,-0.279 0.098,0 0.136,-0.112 0.083,-0.25 -0.058,-0.15 -0.001,-0.25 0.143,-0.25 0.131,0 0.324,-0.159 0.428,-0.353 0.13,-0.243 0.133,-0.319 0.008,-0.241 -0.111,0.068 -0.145,0.016 -0.087,-0.134 0.052,-0.135 0.209,-0.29 0.349,-0.344 0.147,-0.056 0.212,-0.206 0.155,-0.354 -0.056,-0.148 -0.028,-0.214 0.066,-0.156 0.091,0.056 0.165,-0.015 0.165,-0.158 0,-0.143 0.094,-0.261 0.208,-0.262 0.156,-0.002 0.153,-0.038 -0.014,-0.144 -0.177,-0.112 -0.167,-0.162 0.053,-0.246 0.151,-0.058 0.228,-0.18 0.172,-0.271 -0.059,-0.094 0.004,-0.125 0.143,-0.072 0.176,0.068 0.262,-0.041 0.301,-0.377 0.032,-0.284 0.141,-0.453 0.274,-0.425 0.122,0.025 0.174,-0.031 0.116,-0.125 -0.059,-0.094 -0.029,-0.171 0.065,-0.171 0.094,0 0.131,-0.105 0.082,-0.233 -0.049,-0.128 0.066,-0.341 0.254,-0.473 0.189,-0.132 0.29,-0.294 0.225,-0.359 -0.065,-0.066 0.003,-0.073 0.151,-0.016 0.148,0.057 0.326,0.012 0.396,-0.1 0.087,-0.141 0.053,-0.163 -0.109,-0.07 -0.128,0.074 0.029,-0.155 0.35,-0.508 0.32,-0.354 0.433,-0.534 0.25,-0.4 -0.308,0.224 -0.316,0.22 -0.105,-0.049 0.126,-0.161 0.314,-0.292 0.418,-0.292 0.231,0 0.639,-0.615 0.472,-0.711 -0.065,-0.037 -0.025,-0.045 0.089,-0.017 0.115,0.028 0.339,-0.153 0.498,-0.402 0.159,-0.249 0.396,-0.536 0.526,-0.636 0.13,-0.101 0.188,-0.261 0.129,-0.356 -0.058,-0.095 0.118,-0.265 0.391,-0.379 0.324,-0.134 0.498,-0.326 0.498,-0.547 0,-0.187 0.048,-0.294 0.106,-0.236 0.159,0.16 0.696,-0.179 0.907,-0.573 0.147,-0.274 0.142,-0.322 -0.022,-0.221 -0.135,0.084 -0.167,0.062 -0.09,-0.063 0.065,-0.106 0.227,-0.192 0.359,-0.192 0.132,0 0.24,-0.08 0.24,-0.177 0,-0.097 0.075,-0.13 0.167,-0.073 0.092,0.056 0.167,0.028 0.167,-0.063 0,-0.09 0.151,-0.213 0.335,-0.271 0.185,-0.059 0.298,-0.168 0.252,-0.243 -0.046,-0.074 0.066,-0.174 0.248,-0.222 0.182,-0.048 0.331,-0.206 0.331,-0.352 0,-0.164 0.144,-0.267 0.375,-0.269 0.261,-10e-4 0.309,-0.044 0.159,-0.139 -0.231,-0.147 0.103,-0.565 0.407,-0.511 0.383,0.069 0.541,-0.035 0.442,-0.291 -0.071,-0.186 -0.042,-0.238 0.089,-0.157 0.107,0.066 0.195,0.037 0.195,-0.066 0,-0.102 0.07,-0.143 0.155,-0.09 0.085,0.052 0.205,-0.066 0.268,-0.263 0.089,-0.28 0.145,-0.308 0.259,-0.127 0.116,0.183 0.147,0.17 0.149,-0.061 10e-4,-0.161 0.096,-0.273 0.211,-0.25 0.114,0.023 0.19,-0.05 0.168,-0.161 -0.023,-0.117 0.065,-0.162 0.209,-0.107 0.136,0.052 0.248,0.012 0.248,-0.09 0,-0.101 0.056,-0.175 0.125,-0.164 0.332,0.052 0.551,-0.037 0.458,-0.187 -0.057,-0.091 0,-0.166 0.125,-0.166 0.126,0 0.38,-0.141 0.565,-0.313 0.184,-0.172 0.489,-0.362 0.676,-0.421 0.187,-0.06 0.474,-0.256 0.638,-0.437 0.164,-0.181 0.358,-0.329 0.431,-0.329 0.073,0 0.404,-0.184 0.734,-0.408 0.331,-0.224 0.695,-0.372 0.81,-0.327 0.115,0.044 0.345,-0.071 0.512,-0.256 0.167,-0.184 0.369,-0.295 0.448,-0.246 0.079,0.05 0.144,0.01 0.144,-0.087 0,-0.097 0.117,-0.176 0.26,-0.176 0.143,0 0.224,-0.059 0.179,-0.131 -0.044,-0.072 0.045,-0.141 0.199,-0.153 0.577,-0.044 1.482,-0.344 1.939,-0.644 0.26,-0.17 0.592,-0.328 0.737,-0.349 0.145,-0.021 0.291,-0.121 0.325,-0.221 0.041,-0.126 0.144,-0.115 0.326,0.032 0.201,0.163 0.236,0.165 0.141,0.007 -0.083,-0.138 -0.01,-0.215 0.218,-0.229 0.189,-0.011 0.399,-0.037 0.468,-0.056 0.297,-0.084 0.814,-0.293 1.09,-0.441 0.164,-0.088 0.371,-0.115 0.458,-0.061 0.088,0.054 0.16,0.024 0.16,-0.067 0,-0.091 0.207,-0.131 0.459,-0.089 0.347,0.057 0.397,0.035 0.208,-0.092 -0.285,-0.191 -0.305,-0.182 0.583,-0.268 1.139,-0.11 1.381,-0.167 1.653,-0.393 0.211,-0.176 0.264,-0.177 0.264,-0.007 0,0.148 0.096,0.126 0.314,-0.071 0.214,-0.194 0.451,-0.249 0.749,-0.174 0.24,0.06 0.568,0.055 0.728,-0.012 0.428,-0.177 1.611,-0.289 3.122,-0.295 0.809,-0.003 1.201,-0.056 1,-0.135 -0.353,-0.139 4.675,-0.086 6.337,0.067 m 39.122,47.282 c 0,0.32 0.034,0.452 0.076,0.291 0.042,-0.16 0.042,-0.423 0,-0.583 -0.042,-0.16 -0.076,-0.029 -0.076,0.292 m -43.914,44.289 c 0.482,0.034 1.269,0.034 1.75,0 0.482,-0.033 0.088,-0.061 -0.875,-0.061 -0.962,0 -1.356,0.028 -0.875,0.061"
                stroke="none"
                fill="#e44434"
                fill-rule="evenodd"/>
        <path
                id="path3"
                d="m 319.583,0.662 c -0.207,0.086 0.042,0.111 0.659,0.066 0.546,-0.04 1.027,-0.108 1.07,-0.151 0.134,-0.134 -1.38,-0.06 -1.729,0.085 m 7.334,-0.079 c 0.4,0.137 1.927,0.193 1.722,0.063 -0.122,-0.077 -0.597,-0.136 -1.056,-0.13 -0.458,0.006 -0.758,0.036 -0.666,0.067 M 312.734,1.36 c -0.052,0.083 0.108,0.115 0.356,0.07 0.606,-0.11 0.688,-0.222 0.164,-0.222 -0.235,0 -0.469,0.069 -0.52,0.152 m -7.067,1.307 c -0.202,0.13 -0.179,0.162 0.125,0.164 0.206,10e-4 0.375,-0.073 0.375,-0.164 0,-0.209 -0.177,-0.209 -0.5,0 m -10,3.263 -0.417,0.251 0.417,-0.111 c 0.604,-0.16 1.001,-0.393 0.666,-0.392 -0.137,0 -0.437,0.113 -0.666,0.252 m 56.528,0.054 c 0.113,0.18 0.263,0.292 0.333,0.248 0.071,-0.043 0.356,0.039 0.634,0.182 0.277,0.144 0.505,0.223 0.505,0.176 0,-0.046 -0.377,-0.275 -0.838,-0.509 -0.755,-0.383 -0.818,-0.392 -0.634,-0.097 m 7.972,3.766 c 0.229,0.131 0.491,0.238 0.583,0.238 0.092,0 -0.021,-0.107 -0.25,-0.238 -0.229,-0.131 -0.492,-0.238 -0.583,-0.238 -0.092,0 0.021,0.107 0.25,0.238 m 3.333,1.944 c 0,0.129 0.158,0.247 0.352,0.262 0.194,0.014 0.325,0.009 0.292,-0.012 -0.033,-0.021 -0.192,-0.139 -0.352,-0.262 -0.246,-0.187 -0.292,-0.186 -0.292,0.012 m 2.333,1.459 c 0,0.169 0.649,0.59 0.748,0.486 0.029,-0.031 -0.127,-0.19 -0.347,-0.355 -0.221,-0.165 -0.401,-0.224 -0.401,-0.131 M 368,14.75 c 0,0.137 0.122,0.25 0.27,0.25 0.222,0 0.233,-0.045 0.063,-0.25 -0.114,-0.138 -0.235,-0.25 -0.27,-0.25 -0.035,0 -0.063,0.112 -0.063,0.25 m 8.5,6.961 c 0,0.152 0.856,0.989 0.933,0.912 0.035,-0.035 -0.161,-0.279 -0.435,-0.541 -0.274,-0.263 -0.498,-0.43 -0.498,-0.371 m -106.842,1.747 -0.575,0.625 0.625,-0.574 c 0.582,-0.535 0.702,-0.676 0.575,-0.676 -0.028,0 -0.309,0.282 -0.625,0.625 m 109.511,0.98 c 0.005,0.287 0.288,0.599 0.392,0.432 0.056,-0.091 -0.01,-0.258 -0.146,-0.372 -0.137,-0.113 -0.247,-0.14 -0.246,-0.06 M 267.2,26.033 c -0.11,0.11 -0.199,0.279 -0.197,0.375 0.001,0.117 0.043,0.115 0.125,-0.006 0.067,-0.099 0.272,-0.266 0.455,-0.37 0.248,-0.14 0.267,-0.19 0.075,-0.194 -0.142,-0.002 -0.348,0.085 -0.458,0.195 m 114.972,1.925 c 0.003,0.069 0.209,0.269 0.458,0.445 l 0.453,0.32 -0.404,-0.445 c -0.424,-0.467 -0.516,-0.525 -0.507,-0.32 m -60.712,1.827 c 0.208,0.039 0.508,0.038 0.667,-0.004 0.159,-0.042 -0.01,-0.074 -0.377,-0.072 -0.367,0.002 -0.497,0.036 -0.29,0.076 m 1.665,0.004 c 0.39,0.035 1.027,0.035 1.417,0 0.389,-0.035 0.07,-0.064 -0.709,-0.064 -0.779,0 -1.098,0.029 -0.708,0.064 m 2.389,-0.062 c 0.038,0.033 0.407,0.105 0.819,0.159 0.501,0.066 0.64,0.05 0.417,-0.048 -0.318,-0.141 -1.381,-0.237 -1.236,-0.111 m -5.806,0.221 c 0.161,0.042 0.423,0.042 0.584,0 0.16,-0.042 0.029,-0.076 -0.292,-0.076 -0.321,0 -0.452,0.034 -0.292,0.076 m 7.75,0.003 c 0.207,0.04 0.544,0.04 0.75,0 0.207,-0.04 0.038,-0.072 -0.375,-0.072 -0.412,0 -0.581,0.032 -0.375,0.072 m 56.546,0.142 c -0.005,0.241 0.448,0.844 0.554,0.738 0.047,-0.047 -0.057,-0.272 -0.232,-0.5 -0.175,-0.228 -0.32,-0.335 -0.322,-0.238 m -68.171,0.324 c -0.143,0.172 -0.149,0.25 -0.02,0.25 0.103,0 0.187,-0.083 0.187,-0.185 0,-0.116 0.17,-0.145 0.458,-0.078 0.34,0.079 0.394,0.062 0.209,-0.063 -0.35,-0.237 -0.592,-0.215 -0.834,0.076 M 331,30.337 c 0,0.068 0.188,0.16 0.417,0.204 0.229,0.044 0.416,0.024 0.416,-0.045 0,-0.068 -0.187,-0.16 -0.416,-0.203 C 331.188,30.249 331,30.269 331,30.337 m -18.172,0.753 c -0.108,0.13 -0.007,0.163 0.343,0.112 0.272,-0.04 0.496,-0.124 0.496,-0.185 0,-0.185 -0.674,-0.127 -0.839,0.073 m 21.513,-0.095 c -0.117,0.072 0.115,0.209 0.569,0.337 0.421,0.117 0.814,0.166 0.873,0.108 0.058,-0.059 0,-0.107 -0.13,-0.108 -0.13,0 -0.434,-0.104 -0.675,-0.23 -0.242,-0.126 -0.528,-0.174 -0.637,-0.107 m -72.089,1.291 -0.292,0.464 0.386,-0.37 c 0.212,-0.204 0.344,-0.413 0.292,-0.464 -0.051,-0.051 -0.225,0.116 -0.386,0.37 m 47.884,-0.289 c -0.247,0.074 -0.49,0.093 -0.542,0.041 -0.052,-0.051 -0.094,-0.005 -0.094,0.104 0,0.215 0.794,0.094 1.075,-0.164 0.18,-0.165 0.169,-0.164 -0.439,0.019 m -3.864,1.539 c 0.045,0.072 -0.036,0.131 -0.179,0.131 -0.143,0 -0.26,0.077 -0.26,0.171 0,0.097 0.216,0.059 0.5,-0.088 0.587,-0.303 0.609,-0.345 0.179,-0.345 -0.176,0 -0.284,0.059 -0.24,0.131 m -2.339,1.214 c -0.338,0.229 -0.677,0.417 -0.753,0.417 -0.077,0 -0.238,0.119 -0.359,0.265 -0.152,0.182 -0.042,0.157 0.355,-0.084 0.315,-0.191 0.78,-0.43 1.032,-0.531 0.252,-0.101 0.459,-0.251 0.459,-0.333 0,-0.216 -0.052,-0.197 -0.734,0.266 M 387,34.726 c 0,0.032 0.188,0.261 0.417,0.508 0.229,0.248 0.416,0.385 0.416,0.306 0,-0.079 -0.153,-0.308 -0.339,-0.509 C 387.179,34.693 387,34.583 387,34.726 m 2.608,3.941 c 0.073,0.137 0.148,0.35 0.166,0.473 0.048,0.314 0.175,0.411 0.292,0.222 0.054,-0.088 -0.056,-0.337 -0.246,-0.553 -0.19,-0.216 -0.286,-0.28 -0.212,-0.142 m -92.131,0.327 c -0.324,0.27 -0.343,0.329 -0.108,0.334 0.157,0.003 0.366,-0.145 0.464,-0.328 0.225,-0.419 0.142,-0.42 -0.356,-0.006 M 257.6,39.85 c -0.195,0.391 -0.202,0.471 -0.03,0.328 0.205,-0.17 0.479,-0.845 0.343,-0.845 -0.03,0 -0.171,0.233 -0.313,0.517 m 93.439,0.025 c 0.126,0.115 0.46,0.421 0.743,0.68 0.374,0.343 0.55,0.416 0.642,0.266 0.075,-0.121 0.059,-0.163 -0.039,-0.103 -0.091,0.056 -0.417,-0.157 -0.725,-0.474 -0.307,-0.318 -0.624,-0.577 -0.705,-0.577 -0.08,0 -0.042,0.093 0.084,0.208 m -55.706,1.078 c 0,0.096 -0.157,0.216 -0.35,0.266 -0.213,0.056 -0.303,0.168 -0.23,0.287 0.085,0.137 0.223,0.092 0.466,-0.151 0.19,-0.19 0.294,-0.398 0.23,-0.461 -0.064,-0.064 -0.116,-0.037 -0.116,0.059 m 58.167,1.17 c 0,0.077 0.375,0.509 0.833,0.96 0.459,0.452 0.834,0.728 0.834,0.614 0,-0.114 -0.113,-0.251 -0.25,-0.303 -0.138,-0.053 -0.25,-0.201 -0.25,-0.328 0,-0.128 -0.066,-0.214 -0.147,-0.191 -0.081,0.023 -0.343,-0.168 -0.583,-0.425 -0.24,-0.257 -0.437,-0.404 -0.437,-0.327 m -60.314,0.942 c -0.219,0.122 -0.331,0.259 -0.25,0.307 0.081,0.047 0.292,-0.055 0.468,-0.227 0.375,-0.364 0.327,-0.382 -0.218,-0.08 m 99.525,1.745 c 0.014,0.191 0.124,0.386 0.245,0.432 0.174,0.067 0.179,0.009 0.025,-0.287 -0.271,-0.523 -0.3,-0.538 -0.27,-0.145 m -103.178,2.557 c -0.248,0.248 -0.261,0.515 -0.021,0.434 0.099,-0.032 0.168,-0.124 0.153,-0.203 -0.015,-0.079 0.073,-0.208 0.196,-0.285 0.122,-0.078 0.144,-0.142 0.047,-0.144 -0.096,-10e-4 -0.265,0.088 -0.375,0.198 m -0.528,0.877 c -0.112,0.135 -0.175,0.331 -0.139,0.436 0.035,0.105 0.153,-0.005 0.262,-0.244 0.222,-0.489 0.179,-0.556 -0.123,-0.192 m -35.756,1.124 c -0.171,0.518 -0.227,0.999 -0.101,0.873 0.056,-0.056 0.106,-0.152 0.11,-0.213 0.005,-0.061 0.068,-0.286 0.14,-0.499 0.073,-0.213 0.098,-0.422 0.055,-0.465 -0.043,-0.042 -0.134,0.095 -0.204,0.304 m 106.624,0.878 c 0.208,0.319 0.467,0.616 0.578,0.659 0.111,0.043 -0.002,-0.215 -0.25,-0.573 -0.558,-0.808 -0.845,-0.883 -0.328,-0.086 m -73.675,2.533 c 0.022,0.076 -0.054,0.306 -0.168,0.513 -0.279,0.502 -0.136,0.479 0.199,-0.033 0.169,-0.258 0.205,-0.447 0.098,-0.513 -0.093,-0.057 -0.151,-0.042 -0.129,0.033 m -0.671,1.479 c -0.107,0.233 -0.194,0.508 -0.194,0.611 0,0.233 0.22,0.028 0.267,-0.249 0.019,-0.112 0.087,-0.335 0.152,-0.495 0.183,-0.455 -0.009,-0.342 -0.225,0.133 m 77.914,2.702 c -0.043,0.07 0.025,0.314 0.151,0.542 0.166,0.3 0.231,0.337 0.235,0.133 0.004,-0.155 -0.07,-0.329 -0.163,-0.387 -0.093,-0.057 -0.126,-0.174 -0.074,-0.26 0.053,-0.085 0.059,-0.155 0.013,-0.155 -0.046,0 -0.119,0.058 -0.162,0.127 m -79.559,1.371 c -0.048,0.183 -0.165,0.284 -0.26,0.225 -0.102,-0.063 -0.124,-0.027 -0.053,0.088 0.066,0.107 0.181,0.157 0.256,0.111 0.155,-0.095 0.353,-0.755 0.227,-0.755 -0.046,0 -0.122,0.149 -0.17,0.331 m -33.349,0.202 c -0.11,0.11 -0.189,0.392 -0.177,0.625 l 0.023,0.425 0.076,-0.416 c 0.042,-0.229 0.154,-0.511 0.248,-0.625 0.218,-0.266 0.094,-0.272 -0.17,-0.009 m 147.851,5.254 c 0.029,0.204 0.104,0.423 0.167,0.486 0.177,0.177 0.132,-0.323 -0.054,-0.606 -0.131,-0.199 -0.154,-0.174 -0.113,0.12 m 0.285,2.005 c 0.008,0.365 0.326,0.607 0.328,0.25 0.002,-0.207 -0.072,-0.375 -0.164,-0.375 -0.091,0 -0.165,0.056 -0.164,0.125 m -117.015,0.416 c -0.106,0.345 -0.093,0.625 0.027,0.625 0.084,0 0.152,-0.15 0.152,-0.333 0,-0.268 -0.124,-0.471 -0.179,-0.292 m 117.295,0.524 c -0.068,0.174 -0.084,0.355 -0.036,0.403 0.152,0.152 0.286,-0.097 0.222,-0.414 -0.059,-0.29 -0.067,-0.289 -0.186,0.011 m -150.204,1.951 c -0.061,0.193 -0.034,0.428 0.061,0.523 0.119,0.119 0.168,0.011 0.158,-0.35 -0.017,-0.613 -0.067,-0.652 -0.219,-0.173 m -0.078,1.65 c 0,0.275 0.029,0.5 0.064,0.5 0.036,0 0.098,-0.225 0.138,-0.5 0.04,-0.275 0.011,-0.5 -0.065,-0.5 -0.075,0 -0.137,0.225 -0.137,0.5 m -0.125,3.084 c 0.002,0.366 0.036,0.497 0.076,0.289 0.04,-0.207 0.038,-0.507 -0.003,-0.666 -0.042,-0.16 -0.075,0.01 -0.073,0.377 m 118.426,0.333 c -0.037,0.321 -0.008,0.583 0.065,0.583 0.074,0 0.134,-0.262 0.134,-0.583 0,-0.321 -0.03,-0.583 -0.065,-0.583 -0.036,0 -0.096,0.262 -0.134,0.583 M 248.56,75.667 c 0,0.87 0.028,1.227 0.063,0.791 0.034,-0.435 0.034,-1.148 0,-1.583 -0.035,-0.435 -0.063,-0.079 -0.063,0.792 m 118.427,1.541 c -0.05,0.358 -0.024,0.563 0.06,0.479 0.08,-0.081 0.119,-0.362 0.086,-0.625 -0.055,-0.441 -0.067,-0.429 -0.146,0.146 m -118.445,0.709 c 0.002,0.366 0.036,0.497 0.076,0.289 0.04,-0.207 0.038,-0.507 -0.003,-0.666 -0.042,-0.16 -0.075,0.01 -0.073,0.377 M 248.667,81 c 0,0.275 0.062,0.5 0.137,0.5 0.076,0 0.105,-0.225 0.065,-0.5 -0.04,-0.275 -0.102,-0.5 -0.138,-0.5 -0.035,0 -0.064,0.225 -0.064,0.5 m 0.064,1.24 c -0.051,0.132 -0.023,0.364 0.063,0.516 0.122,0.219 0.157,0.169 0.169,-0.24 0.016,-0.551 -0.082,-0.668 -0.232,-0.276 m 117.67,1.401 c 0.065,0.106 0.055,0.192 -0.022,0.192 -0.078,0 -0.153,0.152 -0.167,0.337 -0.014,0.186 0.036,0.299 0.111,0.253 0.229,-0.141 0.324,-0.749 0.136,-0.865 -0.104,-0.064 -0.128,-0.03 -0.058,0.083 m 32.435,0.651 c 0.007,0.365 0.326,0.607 0.328,0.25 0.002,-0.207 -0.072,-0.375 -0.164,-0.375 -0.092,0 -0.166,0.056 -0.164,0.125 m -0.053,0.94 c -0.068,0.174 -0.085,0.355 -0.037,0.403 0.152,0.152 0.286,-0.097 0.222,-0.414 -0.058,-0.29 -0.067,-0.289 -0.185,0.011 m -116.719,1.8 c -0.068,0.109 -0.034,0.228 0.074,0.264 0.109,0.036 0.164,0.119 0.124,0.185 -0.04,0.065 -0.003,0.227 0.083,0.36 0.135,0.21 0.121,-0.312 -0.019,-0.674 -0.018,-0.046 -0.023,-0.14 -0.012,-0.209 0.03,-0.191 -0.113,-0.149 -0.25,0.074 M 398.507,87 c -0.161,0.424 -0.159,0.885 0.004,0.722 0.103,-0.102 0.151,-0.326 0.107,-0.496 -0.043,-0.17 -0.094,-0.272 -0.111,-0.226 m -33.073,0.597 c -0.136,0.355 -0.127,0.57 0.024,0.57 0.069,-0.001 0.136,-0.188 0.149,-0.417 0.028,-0.48 -0.028,-0.529 -0.173,-0.153 m -82.618,1.99 c 0.285,0.894 0.355,1.005 0.266,0.418 -0.049,-0.318 -0.164,-0.654 -0.256,-0.746 -0.113,-0.113 -0.117,-0.005 -0.01,0.328 m 2.495,6.637 c 0.103,0.123 0.146,0.263 0.097,0.312 -0.049,0.049 0.023,0.133 0.161,0.185 0.209,0.081 0.22,0.03 0.064,-0.312 C 285.53,96.184 285.374,96 285.286,96 c -0.09,0 -0.079,0.098 0.025,0.224 m 76.798,0.479 c -0.125,0.479 -0.06,0.524 0.186,0.13 0.109,-0.174 0.133,-0.358 0.054,-0.407 -0.079,-0.049 -0.187,0.076 -0.24,0.277 m -0.736,1.461 c -0.262,0.421 -0.26,0.513 0.009,0.41 0.118,-0.046 0.226,-0.231 0.239,-0.412 0.031,-0.409 0.009,-0.409 -0.248,0.002 m -0.69,1.262 c -0.413,0.7 -0.444,0.858 -0.1,0.515 0.24,-0.24 0.642,-1.108 0.513,-1.108 -0.035,0 -0.22,0.267 -0.413,0.593 m -107.75,1.761 c 0.144,0.228 0.173,0.316 0.213,0.656 0.011,0.097 0.104,0.125 0.205,0.063 0.102,-0.063 0.12,-0.161 0.042,-0.218 -0.079,-0.058 -0.143,-0.211 -0.143,-0.341 0,-0.13 -0.104,-0.271 -0.232,-0.313 -0.162,-0.054 -0.188,-0.009 -0.085,0.153 m 105.324,2.124 c -0.054,0.172 -0.247,0.446 -0.428,0.61 -0.369,0.334 -0.426,0.579 -0.135,0.579 0.107,0 0.147,-0.048 0.088,-0.106 -0.058,-0.059 0.079,-0.327 0.306,-0.597 0.227,-0.269 0.412,-0.558 0.412,-0.643 0,-0.261 -0.139,-0.171 -0.243,0.157 m -68.567,0.35 c 0.216,0.18 0.332,0.33 0.256,0.333 -0.075,0.004 -0.024,0.118 0.114,0.256 0.428,0.429 0.459,0.275 0.067,-0.331 -0.208,-0.32 -0.479,-0.582 -0.604,-0.584 -0.133,-10e-4 -0.065,0.133 0.167,0.326 m -35.19,1.506 c 0.098,0.183 0.27,0.327 0.381,0.32 0.152,-0.01 0.151,-0.034 -0.006,-0.097 -0.115,-0.047 -0.208,-0.191 -0.208,-0.321 0,-0.129 -0.078,-0.236 -0.173,-0.236 -0.117,0 -0.115,0.108 0.006,0.334 m 36.61,0.333 c 0.26,0.275 0.493,0.5 0.518,0.5 0.146,0 -0.524,-0.822 -0.736,-0.903 -0.14,-0.054 -0.042,0.128 0.218,0.403 m 1.679,2.167 c 0.157,0.183 0.377,0.333 0.49,0.333 0.112,0 0.281,0.131 0.374,0.292 0.094,0.16 0.172,0.212 0.175,0.114 0.003,-0.097 -0.205,-0.379 -0.462,-0.625 -0.55,-0.526 -1.008,-0.617 -0.577,-0.114 m -35.956,2.466 c 0,0.11 0.08,0.2 0.177,0.2 0.097,0 0.133,0.07 0.08,0.155 -0.052,0.086 -0.026,0.199 0.059,0.251 0.219,0.136 0.122,-0.368 -0.117,-0.607 -0.154,-0.154 -0.199,-0.153 -0.199,10e-4 m 133,1.99 c 0,0.171 -0.093,0.411 -0.208,0.535 -0.165,0.177 -0.165,0.2 -10e-4,0.107 0.33,-0.186 0.57,-0.728 0.376,-0.848 -0.091,-0.057 -0.167,0.036 -0.167,0.206 m -91.988,-0.03 c -0.018,0.283 0.418,0.794 0.716,0.838 0.151,0.022 0.232,-0.029 0.18,-0.112 -0.052,-0.084 -0.191,-0.152 -0.309,-0.152 -0.118,0 -0.296,-0.169 -0.395,-0.375 -0.1,-0.207 -0.186,-0.296 -0.192,-0.199 m 49.104,2.329 c -0.257,0.226 -0.401,0.411 -0.321,0.411 0.081,0 0.323,-0.187 0.539,-0.416 0.498,-0.531 0.388,-0.528 -0.218,0.005 m 40.535,1.58 c -0.414,0.436 -0.529,0.672 -0.281,0.576 0.219,-0.084 0.702,-0.741 0.6,-0.816 -0.029,-0.022 -0.173,0.086 -0.319,0.24 m -127.143,0.179 c 0.102,0.191 0.219,0.314 0.26,0.274 0.116,-0.117 -0.12,-0.622 -0.291,-0.622 -0.086,0 -0.071,0.157 0.031,0.348 m 83.409,0.152 c -0.275,0.182 -0.425,0.33 -0.333,0.329 0.167,-0.003 1.073,-0.652 0.916,-0.657 -0.046,-0.002 -0.308,0.146 -0.583,0.328 m -35.492,2.154 c -0.048,0.078 0.118,0.181 0.369,0.229 0.595,0.115 0.641,0.05 0.13,-0.183 -0.227,-0.103 -0.451,-0.124 -0.499,-0.046 m -45.925,0.474 c 0,0.262 0.524,0.873 0.746,0.87 0.113,-0.002 0.111,-0.045 -0.005,-0.125 -0.097,-0.068 -0.304,-0.308 -0.459,-0.535 -0.155,-0.226 -0.282,-0.321 -0.282,-0.21 m 121.872,1.872 c -0.114,0.184 -0.15,0.334 -0.08,0.334 0.071,0 0.222,-0.15 0.336,-0.334 0.115,-0.183 0.151,-0.333 0.081,-0.333 -0.071,0 -0.222,0.15 -0.337,0.333 m -64.287,0.64 c 0.108,0.109 6.229,0.139 7.249,0.036 0.504,-0.051 -0.936,-0.095 -3.201,-0.098 -2.264,-0.004 -4.086,0.025 -4.048,0.062 m 62.6,1.537 c -0.219,0.182 -0.363,0.367 -0.32,0.41 0.043,0.043 0.254,-0.109 0.469,-0.337 0.468,-0.498 0.401,-0.531 -0.149,-0.073 m -113.487,4.167 c 0.04,0.12 0.172,0.252 0.292,0.292 0.125,0.041 0.187,-0.021 0.146,-0.146 -0.04,-0.12 -0.172,-0.252 -0.292,-0.292 -0.125,-0.041 -0.187,0.021 -0.146,0.146 m 2.058,2.162 c 0.352,0.36 0.682,0.612 0.734,0.56 0.051,-0.052 -0.108,-0.267 -0.354,-0.479 -0.246,-0.212 -0.412,-0.421 -0.368,-0.465 0.043,-0.044 -0.085,-0.122 -0.286,-0.175 -0.297,-0.077 -0.245,0.027 0.274,0.559 m 105.661,-0.045 c -0.092,0.068 -0.277,0.273 -0.412,0.456 -0.181,0.246 -0.126,0.228 0.209,-0.071 0.408,-0.363 0.532,-0.517 0.411,-0.51 -0.023,0.002 -0.116,0.058 -0.208,0.125 m -103.074,2.318 c 0.005,0.076 0.23,0.312 0.5,0.526 0.27,0.213 0.487,0.325 0.481,0.25 -0.005,-0.076 -0.23,-0.312 -0.5,-0.526 -0.269,-0.213 -0.486,-0.325 -0.481,-0.25 m 3.824,3.07 c 0,0.131 0.169,0.341 0.375,0.468 l 0.375,0.231 -0.332,-0.399 c -0.182,-0.219 -0.351,-0.43 -0.375,-0.468 -0.023,-0.038 -0.043,0.037 -0.043,0.168 m 90.5,1.922 c 0,0.221 0.045,0.233 0.25,0.063 0.137,-0.114 0.25,-0.236 0.25,-0.271 0,-0.034 -0.113,-0.063 -0.25,-0.063 -0.137,0 -0.25,0.122 -0.25,0.271 m -87.336,0.339 c 0.094,0.047 0.131,0.15 0.082,0.23 -0.049,0.079 0.082,0.227 0.291,0.328 0.37,0.179 0.371,0.177 0.046,-0.082 -0.183,-0.147 -0.309,-0.318 -0.279,-0.38 0.03,-0.063 -0.028,-0.129 -0.129,-0.147 -0.114,-0.021 -0.118,-0.001 -0.011,0.051 m 85.431,0.986 c -0.396,0.396 -0.313,0.499 0.113,0.14 0.207,-0.173 0.407,-0.335 0.445,-0.359 0.038,-0.024 -0.013,-0.043 -0.113,-0.043 -0.101,0 -0.301,0.118 -0.445,0.262 m -2.595,1.71 c 0,0.198 0.046,0.2 0.292,0.012 0.16,-0.123 0.319,-0.241 0.352,-0.262 0.033,-0.021 -0.098,-0.026 -0.292,-0.011 -0.194,0.014 -0.352,0.132 -0.352,0.261 m -3.333,1.944 c -0.229,0.131 -0.342,0.239 -0.25,0.239 0.091,0 0.354,-0.108 0.583,-0.239 0.229,-0.131 0.342,-0.238 0.25,-0.238 -0.092,0 -0.354,0.107 -0.583,0.238 m -70.834,0.829 c 0,0.146 0.829,0.564 0.898,0.452 0.045,-0.073 -0.139,-0.215 -0.408,-0.317 -0.269,-0.102 -0.49,-0.162 -0.49,-0.135 m 3.167,1.495 c 0,0.046 0.223,0.2 0.496,0.341 0.447,0.231 0.485,0.231 0.396,-0.003 -0.055,-0.143 -0.138,-0.221 -0.185,-0.175 -0.046,0.047 -0.224,0.01 -0.396,-0.082 -0.171,-0.091 -0.311,-0.128 -0.311,-0.081 m 59.669,1.423 c -0.144,0.268 -0.13,0.311 0.077,0.232 0.14,-0.054 0.254,-0.202 0.254,-0.33 0,-0.325 -0.125,-0.289 -0.331,0.098 m -18.336,4.837 c 0,0.195 0.128,0.195 0.584,0 0.295,-0.127 0.281,-0.145 -0.125,-0.155 -0.252,-0.007 -0.459,0.063 -0.459,0.155 m -14.25,0.507 c 0.43,0.175 1.084,0.196 1.083,0.034 -10e-4,-0.068 -0.32,-0.135 -0.709,-0.147 -0.51,-0.016 -0.614,0.015 -0.374,0.113 m 8.5,-0.007 c -0.461,0.117 -0.467,0.128 -0.083,0.144 0.229,0.01 0.529,-0.055 0.667,-0.144 0.283,-0.184 0.137,-0.184 -0.584,0"
                stroke="none"
                fill="#dc4434"
                fill-rule="evenodd"/>
        <path
                id="path4"
                d=""
                stroke="none"
                fill="#38a0f4"
                fill-rule="evenodd"/>
    </g>
    </g>
</svg>
