<?xml version="1.0" encoding="utf-8"?>
<!-- Generator: Adobe Illustrator 27.8.0, SVG Export Plug-In . SVG Version: 6.00 Build 0)  -->
<svg version="1.1" id="affiliation" xmlns="http://www.w3.org/2000/svg" xmlns:xlink="http://www.w3.org/1999/xlink" x="0px"
	 y="0px" viewBox="0 0 256 256" style="enable-background:new 0 0 256 256;" xml:space="preserve">
<style type="text/css">
	.st0{fill:#FFFFFF;}
	.st1{fill:#FFD100;}
</style>
<rect id="black" y="0" width="256" height="256"/>
<circle id="background" class="st0" cx="128" cy="128" r="128"/>
<g id="logo" transform="matrix(2.8577466,0,0,2.8882615,25.893776,17.53449)">
	<g id="g2">
		<path id="path1" class="st1" d="M47.2,16.7h16.4v-1.2c-4.8-1-9.5-2.4-14-4.2c-1.9-0.7-4.1-0.5-5.9,0.5c-3,1.8-6.6,2.3-10,1.5v1.3
			c2.5,0.5,5.1,0.4,7.5-0.3c-0.7,1.1-1,2.3-1,3.6c0,2.1,0.8,3.2,2.2,5.7l4.6,8.1c0.8,1.4,0.3,3.2-1.1,4.1c-0.5,0.3-1,0.4-1.5,0.4
			c-3,0-4.9-5.6-11.9-5.6c-3.2,0-6.3,1.3-8.4,3.7L5.1,53.1c1.2,0.2,6.6,0.9,9.3,1.1l-3.6,7.6c7.9-1.4,15.6-4,22.8-7.6v21.3h1.2v-22
			c1.1-0.6,2.1-1.1,3.1-1.7c3.5-2,5.8-5.7,5.8-9.8c0.4,0,0.8,0,1.2,0c4.8-0.4,8.5-4.6,8.1-9.4c-0.1-1.3-0.5-2.6-1.2-3.8l-5.9-10.3
			c-0.1-0.2-0.2-0.4-0.2-0.6c0-0.7,0.5-1.2,1.1-1.2c0,0,0,0,0,0L47.2,16.7L47.2,16.7z M41.2,36.8c0.7,1.2,1.2,2.4,1.4,3.8
			c-2.2-0.6-3.3-2.1-4.6-3.1c0.8-0.5,1.8-0.7,2.8-0.7L41.2,36.8z M32.6,31.9c3,0,5.8,1.3,7.7,3.6c-1.2,0.1-2.4,0.5-3.4,1.1
			c-3.1-2.5-7.3-3.3-11.1-2.1C27.6,32.9,30,31.9,32.6,31.9L32.6,31.9z M7.8,52.3l13.7-13.5L14.9,53C12.6,52.9,10.1,52.6,7.8,52.3
			L7.8,52.3z M13,60.1l2.7-5.8c1.4,0.1,2.8,0.1,4.2,0.1c4.1,0,8.3-0.3,12.4-0.9C26.2,56.4,19.7,58.7,13,60.1L13,60.1z M33.7,42.2V52
			c-4.5,0.8-9.1,1.2-13.8,1.2c-1.2,0-2.5,0-3.7-0.1l7.6-16.3c1.7-1,3.6-1.5,5.6-1.5c2.3,0,4.6,0.8,6.5,2.2
			C34.5,38.7,33.8,40.4,33.7,42.2L33.7,42.2z M34.9,51.7v-9.1c0-1.6,0.7-3.1,1.9-4.2c1.9,1.4,3,3,5.8,3.6
			C42.6,46.6,39.4,50.6,34.9,51.7L34.9,51.7z M51,29.6c2.1,3.6,0.8,8.2-2.8,10.3c-1,0.5-2,0.9-3.1,1c-0.4,0-0.8,0-1.2,0
			c-0.1-1.3-0.5-2.5-1-3.6c2.2,0.9,4.6-0.1,5.5-2.3c0.5-1.2,0.4-2.6-0.2-3.7l0,0l-4.6-8.1c-1.1-1.9-0.6-4.4,1.2-5.6
			c-0.1,0.6,0,1.2,0.3,1.7L51,29.6z M41.8,19.9c-1.1-3,0.5-6.3,3.4-7.3c0.6-0.2,1.3-0.3,2-0.3c0.7,0,1.3,0.1,1.9,0.3
			c3.2,1.1,5.9,2.1,8.7,2.9H47.2C44.5,15.5,42.3,17.4,41.8,19.9L41.8,19.9z"/>
		<path id="path2" class="st1" d="M47.2,9.4c1.2,0,2.4,0.4,3.4,1.1l2-3.4l-1.1-0.6l-1.3,2.3c-0.7-0.3-1.5-0.5-2.3-0.6V7.3
			c1-0.3,1.5-1.4,1.1-2.4s-1.4-1.5-2.4-1.1c-1,0.3-1.5,1.4-1.1,2.4c0.2,0.5,0.6,0.9,1.1,1.1v0.9c-0.8,0.1-1.6,0.3-2.3,0.6L43,6.5
			l-1.1,0.6l1.9,3.3C44.8,9.8,46,9.4,47.2,9.4z M46.5,5.5c0-0.3,0.3-0.6,0.6-0.6c0.3,0,0.6,0.3,0.6,0.6s-0.3,0.6-0.6,0.6
			C46.8,6.1,46.5,5.8,46.5,5.5L46.5,5.5z"/>
	</g>
</g>
</svg>
