<?xml version="1.0" encoding="UTF-8" standalone="no"?>
<!-- Generator: Adobe Illustrator 26.5.0, SVG Export Plug-In . SVG Version: 6.00 Build 0)  -->

<svg
        version="1.1"
        id="affiliation"
        x="0px"
        y="0px"
        viewBox="0 0 256 256"
        style="enable-background:new 0 0 256 256;"
        xml:space="preserve"
        xmlns="http://www.w3.org/2000/svg"><style
   type="text/css"
   id="style1">	.st0{fill:#FFFFFF;}	.st1{fill:#006AB3;}    .cls-1{fill:#ffd100;}</style>
    <rect
            id="black"
            width="256"
            height="256"/>
    <circle
            id="background"
            class="st0"
            cx="128"
            cy="128"
            r="128"/>
    <g
            id="logo"
            transform="matrix(2.8577466,0,0,2.8882615,25.893776,17.53449)">	<g
            id="g2">    <path
            class="cls-1"
            d="M 46.43,15.25 H 64.11 V 14 A 88.81,88.81 0 0 1 49,9.42 7.61,7.61 0 0 0 42.62,9.98 14.83,14.83 0 0 1 31.83,11.61 V 13 a 16.3,16.3 0 0 0 8.08,-0.37 7.49,7.49 0 0 0 -1.08,3.9 c 0,2.31 0.84,3.49 2.42,6.21 l 5,8.72 a 3.21,3.21 0 0 1 -2.79,4.81 c -3.24,0 -5.33,-6.09 -12.91,-6.09 a 12.5,12.5 0 0 0 -9.13,4 L 1,54.57 c 1.31,0.24 7.15,1 10,1.16 L 7.16,63.9 a 91,91 0 0 0 24.69,-8.17 v 23 H 33.2 V 55 q 1.72,-0.9 3.39,-1.86 a 12.28,12.28 0 0 0 6.29,-10.55 9.13,9.13 0 0 0 1.29,0 9.48,9.48 0 0 0 7.52,-14.2 L 45.26,17.28 a 1.34,1.34 0 0 1 -0.18,-0.67 1.29,1.29 0 0 1 1.23,-1.35 h 0.12 z M 40,36.9 a 11,11 0 0 1 1.5,4.1 c -2.39,-0.67 -3.55,-2.22 -5,-3.32 a 6.23,6.23 0 0 1 3,-0.81 z m -9.36,-5.27 a 10.88,10.88 0 0 1 8.36,3.91 7.61,7.61 0 0 0 -3.71,1.23 12.77,12.77 0 0 0 -12,-2.28 10.88,10.88 0 0 1 7.33,-2.86 z M 3.93,53.63 18.79,39 11.58,54.46 C 9.08,54.27 6.37,54 3.91,53.64 Z m 5.62,8.43 2.91,-6.23 c 1.52,0.08 3,0.11 4.57,0.11 a 90.7,90.7 0 0 0 13.36,-1 90.78,90.78 0 0 1 -20.87,7.13 z M 31.87,42.73 V 53.38 A 89.56,89.56 0 0 1 17,54.63 c -1.32,0 -2.65,0 -4,-0.09 l 8.19,-17.61 a 11.54,11.54 0 0 1 6,-1.64 11.39,11.39 0 0 1 7,2.4 7.32,7.32 0 0 0 -2.32,5.04 z M 33.22,53 v -9.86 a 6.24,6.24 0 0 1 2,-4.57 c 2,1.52 3.2,3.24 6.27,3.93 A 10.9,10.9 0 0 1 33.21,53 Z M 50.53,29.11 a 8.17,8.17 0 0 1 -6.47,12.18 7.72,7.72 0 0 1 -1.25,0 12.06,12.06 0 0 0 -1.08,-3.91 4.57,4.57 0 0 0 5.75,-6.47 v 0 l -5,-8.72 a 4.57,4.57 0 0 1 1.31,-6.09 2.69,2.69 0 0 0 0.33,1.84 z M 40.59,18.69 a 6.19,6.19 0 0 1 5.88,-8.3 6.09,6.09 0 0 1 2.07,0.37 C 52,12 54.93,13.06 57.91,13.9 H 46.43 a 6,6 0 0 0 -5.84,4.81 z"
            id="path1"/>
        <path
                class="cls-1"
                d="m 46.43,7.28 a 6.42,6.42 0 0 1 3.7,1.17 L 52.28,4.81 51.11,4.13 49.68,6.59 A 7.61,7.61 0 0 0 47.18,5.92 V 5 A 2,2 0 1 0 45.83,5 V 5.93 A 7.61,7.61 0 0 0 43.33,6.6 L 41.9,4.13 40.73,4.81 42.82,8.43 A 6.42,6.42 0 0 1 46.43,7.28 Z M 45.75,3.09 a 0.68,0.68 0 1 1 0.68,0.68 0.68,0.68 0 0 1 -0.68,-0.68 z"
                id="path2"/>    </g>    </g></svg>
