<?xml version="1.0" encoding="utf-8"?>
<!-- Generator: Adobe Illustrator 26.3.1, SVG Export Plug-In . SVG Version: 6.00 Build 0)  -->
<svg version="1.1" id="affiliation" xmlns="http://www.w3.org/2000/svg" xmlns:xlink="http://www.w3.org/1999/xlink" x="0px"
	 y="0px" viewBox="0 0 256 256" style="enable-background:new 0 0 256 256;" xml:space="preserve">
<style type="text/css">
	.st0{fill:#FFFFFF;}
	.st1{display:none;fill:#FFFFFF;}
</style>
<rect id="black" width="256" height="256"/>
<circle
   id="background"
   class="st0"
   cx="128"
   cy="128"
   r="128" />
<g id="logo">
	<g id="Segl">
		<g>
			<g>
				<path d="M12.2,128c0-28,9.9-53.6,26.4-73.7l0,0C59.9,28.6,92,12.2,128,12.2l0,0c64,0,115.8,51.9,115.8,115.8l0,0
					c0,64-51.9,115.8-115.8,115.8l0,0C64,243.8,12.2,192,12.2,128L12.2,128z M13.9,128c0,31.5,12.8,60,33.4,80.7l0,0
					c20.6,20.6,49.2,33.4,80.7,33.4l0,0c31.5,0,60-12.8,80.7-33.4l0,0c20.6-20.6,33.4-49.2,33.4-80.7l0,0c0-31.5-12.8-60-33.4-80.7
					l0,0C188,26.7,159.5,13.9,128,13.9l0,0c-35.4,0-67.1,16.2-88,41.5l0,0l0,0C23.7,75.2,13.9,100.4,13.9,128L13.9,128z"/>
			</g>
			<g>
				<path d="M37.6,175c0-1.5,1.3-2.7,2.8-2.7c1.5,0,2.7,1.3,2.7,2.8c0,1.5-1.3,2.7-2.8,2.7C38.8,177.7,37.6,176.5,37.6,175z"/>
				<path d="M211.9,176.6c0-1.5,1.3-2.7,2.8-2.7c1.5,0,2.7,1.3,2.7,2.8c0,1.5-1.3,2.7-2.8,2.7C213.1,179.4,211.9,178.1,211.9,176.6z
					"/>
			</g>
			<g>
				<g>
					<g>
						<path d="M207.2,94.7c-4.3-10.2-10.5-19.4-18.4-27.3c-7.9-7.9-17-14-27.2-18.4c-10.6-4.5-21.8-6.7-33.4-6.7
							c-11.6,0-22.8,2.3-33.4,6.7c-10.2,4.3-19.4,10.5-27.3,18.4c-7.9,7.9-14,17-18.4,27.3c-4.5,10.6-6.8,21.8-6.8,33.4
							c0,11.6,2.3,22.8,6.8,33.4c4.3,10.2,10.5,19.4,18.4,27.2c7.9,7.9,17,14.1,27.3,18.4c3.2,1.4,6.5,2.5,9.8,3.5c0,0,0.1,0,0.1,0
							c1.7,0.5,3.4,0.9,5,1.3c6,1.3,12.2,2,18.5,2c3.8,0,7.6-0.2,11.4-0.7c0,0,0,0,0,0c2.2-0.1,3.7-0.5,4.7-0.8
							c5.9-1.1,11.7-2.9,17.3-5.2c10.2-4.3,19.4-10.5,27.2-18.4l-0.6-0.6l0.6,0.6c7.9-7.9,14-17,18.4-27.2
							c4.5-10.6,6.7-21.8,6.7-33.4C213.9,116.5,211.7,105.3,207.2,94.7z M75,193.1c-0.1-0.1-0.4-0.5-0.2-0.8c0-0.1,0.1-0.2,0.2-0.4
							c0.4-0.7,1-1.5,1.5-2.1c0.9,1.9,3,5.6,7.6,9.6C80.9,197.6,77.9,195.5,75,193.1z M74.3,142.3c1.8,1.7,2.1,3.2,2.1,4.2
							c0,0.4-0.1,0.7-0.1,1c0,0.1,0,0.2-0.1,0.2c0,0,0,0,0,0c-0.1,0.1-0.8,1.4-2.7,1.4c-0.3,0-0.6,0-1-0.1c-3.3-0.6-6.6-1.9-9.4-2.3
							c0,0-0.1,0-0.1,0l6.5-9C71.6,139.8,73.4,141.5,74.3,142.3z M60.6,127.3l42.6-43.1l-25.5,60c-0.4-1-1-2.1-2.2-3.2
							C73.1,138.7,63.3,129.8,60.6,127.3z M72.1,150.7c0.5,0.1,0.9,0.1,1.4,0.1c1.5,0,2.6-0.6,3.3-1.2s1-1.2,1-1.2v0v0c0,0,0,0,0,0
							l0-0.1L104,87c0.1,0.4,0.2,1.2,0.3,1.6c0.4,6.9,2,11.7,3.6,15.4c1,2.1,1.9,3.8,2.7,4.9c0.4,0.6,0.7,1,1,1.4
							c0.1,0.1,0.2,0.2,0.2,0.3l-6.1,21.1c-0.1,0.3,0,0.7,0.3,0.9l1.5,1.2c0,0,0.2,0.2,0.1,0.5c-0.1,0.3-6.8,25.1-6.8,25.1
							l-21.3,24.5c-1.6-1.3-6.2-5.6-12.3-15.1c-5.3-8.3-6.9-13.5-6.9-16.5c0-1.5,0.4-2.4,0.8-2.9c0,0,0,0,0,0l0,0c0,0,0-0.1,0.1-0.1
							c0.5-0.5,1.1-0.7,1.5-0.7c0.1,0,0.1,0,0.2,0C65.2,148.8,68.6,150,72.1,150.7z M117.3,60.5c-0.1-0.4-0.6-0.7-1.1-0.5
							c0.4-0.3,0.8-0.7,1.1-1l3.7-0.5c0.5-0.1,0.8-0.5,0.7-1s-0.5-0.8-1-0.7l-0.6,0.1c1.2-0.7,2.3-1.2,3.3-1.6
							c0.7-0.3,1.2-0.5,1.6-0.6c0.4-0.1,0.6-0.2,0.6-0.2c0.5-0.1,0.7-0.6,0.6-1.1c-0.1-0.5-0.6-0.7-1.1-0.6c0,0-1.5,0.4-3.3,1.3
							c0.3-0.4,0.2-0.9-0.2-1.2c-0.4-0.3-0.9-0.2-1.2,0.2l-2,2.8c-0.2,0.1-0.4,0.2-0.5,0.4c-0.2,0.2-0.5,0.4-0.8,0.6l0.2-0.4
							c0.2-0.4,0-0.9-0.4-1.2c-0.4-0.2-0.9,0-1.2,0.4l-2.2,4.2c-0.5,0.5-1,1-1.5,1.4c0.1-2.2,0.7-6.2,3.2-8.1
							c2.5-1.9,4.5-2.3,6.3-2.3c1,0,1.9,0.1,2.7,0.3c0.4,0,1.7,0.4,2.9,0.7c1.2,0.3,2.2,0.6,2.2,0.6l0.2,0c1.3,0,1.9,0.3,2.2,0.7
							c0.3,0.3,0.5,0.8,0.5,1.3c0,0.4-0.2,0.9-0.4,1.3c-0.1,0.1-0.1,0.2-0.2,0.3l-6.4,0.7c-0.2,0-0.5,0.1-0.6,0.3l-4,5.3l-2,0
							l-0.2,0c-0.1,0-0.4,0.1-0.8,0.4c-0.4,0.3-0.8,1-0.8,1.8c0,1.6,0.5,2.7,1.2,3.4c0.1,0.1,0.1,0.1,0.2,0.2l-2.6,2.6
							c-0.4-0.1-1.1-0.3-1.7-0.8c-0.8-0.6-1.5-1.4-1.8-2.8c-0.1-0.8-0.2-1.5-0.2-2.1c0-0.6,0-1,0.1-1.3c0,0,0,0,0,0c0,0,0.4-0.4,1-1
							l3.6-1.2C117.2,61.5,117.4,61,117.3,60.5z M130.5,67.1c0,0,0,0.3-0.2,0.4c-0.2,0.1-0.4,0.4-0.4,0.6c0,0.3,0.1,0.5,0.2,0.7
							c0,0,0,0.2,0,0.3c-0.1,0.1-0.2,0.3-0.2,0.3c-0.1,0.2-0.1,0.5-0.1,0.7c0,0,0,0,0,0c0,0.1,0.1,0.4,0.1,0.7
							c0,0.2-0.1,0.6-0.5,0.8c-0.3,0.1-0.9,0.2-1.6,0.3l-1.8,0c-0.4,0-0.8,0.3-0.9,0.7c0,0,0,0.3,0,0.6c0,0.5,0.1,1.2,0.5,1.9
							c0.1,0.3,0.4,0.5,0.6,0.8c0,0,0,0,0,0l0,0l3.1,3.4l-7.9,0.5l-5.4-4.2c0.3-0.1,0.4-0.2,0.4-0.2c0.3-0.1,0.5-0.4,0.5-0.8v-2.5
							l3.5-3.5c0.2-0.2,0.3-0.5,0.2-0.8c-0.1-0.3-0.3-0.5-0.6-0.6l0,0c-0.2-0.1-1.2-0.4-1.2-2.6c0-0.4,0.1-0.4,0.2-0.5
							c0,0,0.1,0,0.1-0.1l2.3,0c0.3,0,0.5-0.1,0.7-0.3c0,0,3.6-4.8,3.9-5.1c0.2-0.3,0.6-0.3,0.6-0.3l4.9-0.5c0,0,0.2,0,0.3,0.3
							c0,0.5,0.1,1,0.1,1.6c0,0.2-0.1,0.3-0.2,0.4c-0.6,0-1.3,0-2,0.1c-0.7,0-1.5,0.4-2,0.8c-0.4,0.3-0.4,0.9,0,1.3
							c0.2,0.2,0.6,0.3,1.1,0.4c0.6,0.2,1.2,0.4,1.6,0.3c0.4-0.1,0.6-0.5,0.6-0.9c0-0.5,0.3-0.8,0.8-0.8c0.2,0,0.3,0.2,0.3,0.3
							c0.1,0.9,0.2,1.9,0.3,2.6c0,0.3,0,0.6,0.1,0.8c0,0.3-0.3,0.3-0.4,0.4c-0.3,0-0.5,0-0.5,0c-0.2,0-0.5,0.1-0.6,0.3
							c-0.2,0.2-0.2,0.4-0.2,0.6L130.5,67.1z M120.5,81.4c0.1,0.1,0.3,0.2,0.5,0.2c0,0,0,0,0.1,0l10-0.7c0.3,0,0.6-0.2,0.7-0.5
							c0.1-0.3,0.1-0.6-0.1-0.9l-1.8-2c1,0.3,2,0.6,2.6,0.8c0.5,0.1,1.5,1,2.4,2.1c0.8,1,1.5,2.2,2,3.2c-0.4,1.8-0.9,3.5-1.4,5.3
							l-4.4,3.4l-9.7-6.5c-0.5-0.7-2.7-4-4.9-6.2c-1.1-1.1-2.8-1.6-4.4-1.6c-0.3,0-0.6,0-0.9,0c0.4-0.2,0.9-0.5,1.3-0.7
							c0.6-0.3,1.2-0.6,1.8-0.9L120.5,81.4z M112,79.7c1.3,0,2.5,0.4,3.2,1.1c1.1,1.1,2.3,2.6,3.2,3.9c0.9,1.2,1.5,2.2,1.5,2.2
							c0.1,0.1,0.1,0.2,0.2,0.2l10.3,7c0.3,0.2,0.7,0.2,1,0l13.1-10l0.1,0c0,0,0.3-0.3,0.7-0.6c0.4-0.3,0.9-0.7,1.1-0.9
							c0.7-0.5,3.6-2.2,5.4-2.2c0.2,0,0.3,0,0.5,0c0.9,0,1.5,0.1,1.9,0.4c0.3,0.2,0.5,0.4,0.5,1c0,1,0,2.6,0,2.6
							c0,0.4,0.3,0.7,0.7,0.8c0.3,0,0.8,0.1,0.8,0.6c0,0.6-0.4,0.6-0.6,0.7c-0.3,0-0.6,0.1-0.7,0.1h-0.8l-0.2,0c0,0-1.1,0.3-2.3,0.6
							c-0.6,0.1-1.2,0.3-1.7,0.4c-0.2,0-0.5,0.1-0.6,0.1c-0.1,0-0.1,0-0.2,0c0,0-0.1,0-0.1,0c-0.8,0-1.9,0.1-2,0.1
							c-0.2,0-0.5,0.2-0.6,0.4c0,0-1.5,2.1-3.3,4.5s-4,5.2-5.4,6.7c-1.5,1.5-2.7,2.6-3.5,3.3c-0.3,0.2-0.5,0.4-0.7,0.6
							c-0.1,0.1-0.3,0.2-0.6,0.1c-1.3-0.5-4-1.6-7.2-3c-4.5-1.9-10.1-4.4-14.4-6.7c-0.8-0.4-2.3-1.4-3.6-2.7
							c-0.1-0.1-0.3-0.3-0.4-0.4c0,0-0.1-0.1-0.1-0.1c-0.1-0.1-0.2-0.2-0.3-0.4c-0.1-0.1-0.1-0.2-0.2-0.3c-0.1-0.1-0.1-0.2-0.2-0.2
							c-0.1-0.1-0.1-0.2-0.2-0.3c0,0,0-0.1-0.1-0.1c-0.1-0.2-0.2-0.4-0.3-0.6c0,0,0-0.1,0-0.1c0-0.1-0.1-0.3-0.1-0.4l0,0
							c0,0,0,0,0,0c-0.1-0.2-0.1-0.5-0.2-0.7c0-0.1,0-0.2-0.1-0.3c0-0.1,0-0.2,0-0.2c0-0.2,0-0.4,0-0.6c0-0.1,0-0.3,0-0.4
							c0-0.1,0-0.2,0-0.4c0,0,0,0,0-0.1c0-0.3,0.1-0.6,0.2-0.9l0,0l0,0c0-0.2,0.1-0.4,0.2-0.5c0,0,0,0,0,0c0.1-0.2,0.1-0.3,0.2-0.5
							c0,0,0,0,0-0.1c0.1-0.2,0.1-0.3,0.2-0.5c0,0,0-0.1,0.1-0.1c0.1-0.2,0.2-0.4,0.3-0.6l0,0C107.7,80.7,110,79.7,112,79.7z
							 M139,66.6c0-0.4,0.1-0.4,0.2-0.4c1.3,0.2,2,0.8,2.5,1.3c0.3,0.3,0.5,0.7,0.5,0.9c0,0.1,0.1,0.2,0.1,0.3c0,0,0,0.1,0,0.1l0,0
							c0.1,0.4,0.4,0.7,0.9,0.7H160c0.4,0,0.8-0.3,0.9-0.7c0-0.1,0.1-0.6,0.7-1.1c0.5-0.4,1.2-0.9,2.5-1c0.2,0,0.2,0.1,0.2,0.3
							c0,1.8-0.1,5.5-0.1,10.9c0,4.4,1.1,7.9,2.2,11.4c1.1,3.5,2.1,7,2.1,11.4c0,2.4-0.5,4.6-1.3,6.7c-0.8-0.4-1.4-0.7-1.8-0.8
							c-0.1,0-0.2,0-0.4,0c-0.7,0-1.1,0.3-1.5,0.6c-0.4,0.3-0.8,0.6-1,1.1c-0.1,0.2-0.1,0.4-0.1,0.5c0,0.5,0.2,0.8,0.3,1
							c-0.2,0.1-0.4,0.3-0.6,0.5c-0.3,0.2-0.6,0.5-0.8,0.8s-0.5,0.6-0.6,1c-0.1,0.3-0.1,0.5-0.1,0.8c0,0.5,0.1,1,0.4,1.5
							c-2.6,1.5-5.9,2.4-9.8,2.4c-5.8,0-9.9-2-12.6-4.8c-2-2.1-3.3-4.8-3.8-7.6c0.9-0.7,2.3-2,4.2-3.9c0.3-0.3,0.7-0.7,1-1.1
							c0.6,2.2,1.8,4,3.4,5.3c2.2,1.9,5.1,2.9,8.1,3c0,0,0.1,0,0.2,0c0,0,0,0,0.1,0c0.1,0,0.1,0,0.2,0c6.5,0,11.3-5.8,11.3-12.1
							c0-2.9-0.7-4.8-1.3-7.9c-0.6-3.1-1.2-7.4-1.2-14.9c0-0.2-0.1-0.5-0.2-0.6c-0.2-0.2-0.4-0.2-0.6-0.2h-16.6
							c-0.2,0-0.5,0.1-0.6,0.2c-0.2,0.2-0.2,0.4-0.2,0.6c0,5.4-0.4,8.9-0.8,11.4l-3.9,3c0.3-1.1,0.6-2.3,0.8-3.4c0,0,0-0.1,0-0.1
							c0.3-1.5,0.5-3,0.5-4.6C139.1,73.3,139,68.8,139,66.6z M162.9,114.3c-0.5-0.7-0.6-1.1-0.6-1.4c0-0.1,0-0.2,0-0.3l0,0
							c0.1-0.2,0.6-0.7,1-1.1c0.5-0.4,0.9-0.7,0.9-0.7c0.2-0.1,0.4-0.5,0.4-0.8c0-0.3-0.1-0.5-0.2-0.6c-0.1-0.1-0.1-0.2-0.2-0.3
							c-0.1-0.1-0.1-0.4,0.2-0.7c0.3-0.3,0.7-0.2,0.8-0.1c0.3,0.1,0.8,0.4,1.4,0.7c0.8,0.4,1.5,1,1.8,1.6c0.3,0.5,0.5,1.1,0.5,1.5
							c0,0.3-0.1,0.5-0.3,0.7c-0.3,0.3-2.8,2.4-3.1,2.6c-0.3,0.2-1.4,0.6-2.3,1c-0.3,0.1-0.5,0.2-0.8,0.3c-0.3,0.1-0.4-0.1-0.4-0.1
							s-0.1-0.2,0.1-0.3c0.1-0.1,0.3-0.2,0.4-0.4c0.1-0.2,0.4-0.4,0.4-0.9C163.1,114.7,163.1,114.5,162.9,114.3z M165.5,174.1
							c0,0,0,0.2-0.2,0.4c-0.2,0.1-6.3,3.5-6.3,3.5l-0.7-60.5c0.7-0.2,1.4-0.5,2-0.8L165.5,174.1z M137.8,202.1c0,0,2.2,2.9,2.3,3
							c0.1,0.1,0,0.3,0,0.3c-3.4,2.8-8.9,4.7-15.1,5.4c1-4.5,4.8-22.5,7.6-40.7c2.9-18.8,4.2-36.7,4.5-40.4c0,0,2.3-0.1,2.7-0.2
							c0.4,0,0.4,0.2,0.4,0.4c0,0.2-2.5,71.6-2.5,71.6C137.6,201.7,137.6,201.9,137.8,202.1z M107.7,131c0,0,5.6-19.4,5.7-19.6
							c0.1-0.3,0.3-0.3,0.3-0.3s4.1-1.1,4.8-1.4s1.7-0.3,1.7-0.3l14.1-0.9c0.7,1.6,1.8,3.2,3,4.6c1.1,1.2,2.5,2.3,4.1,3.1
							c0,0,0,10.7,0,10.9s-0.1,0.4-0.5,0.5c-0.5,0-14.2,1-17.6,1.2c-0.5,0-1.1,0.1-1.6,0.3c-0.5,0.1-12.5,3.4-12.5,3.4
							s-0.4,0.1-0.6-0.1c-0.2-0.2-0.3-0.2-0.7-0.5C107.5,131.6,107.7,131,107.7,131z M113,109.3c-1.4-1.9-5.3-7.4-6.7-17.5
							c0.1,0.1,0.2,0.2,0.3,0.3c1.4,1.5,3.1,2.5,4,3c8.6,4.6,22.5,10.1,22.5,10.1c0,0,0,0,0,0c0.1,0.6,0.3,1.1,0.5,1.7l-13,0.8
							c0,0-1.5,0.1-2.6,0.4c-1.3,0.4-4.4,1.2-4.6,1.3C113.2,109.4,113,109.3,113,109.3z M141.8,129.2l0.6-0.1
							c0.4-0.1,0.7-0.4,0.7-0.8l0-11.2c2.3,0.9,5,1.5,8,1.5c0,0,0,0,0,0c2,0,3.8-0.2,5.5-0.6l0.8,69.2v0c0,0,0,0,0,0.2
							c0,0.7-0.2,3.2-2.2,4.6c-2.5,1.8-8.2,4.8-15.8,5L141.8,129.2z M141.5,97.7c2-2.5,4.2-5.5,5.5-7.2v14.4
							c-0.9-0.4-1.7-0.9-2.4-1.5C142.9,102,141.8,100.1,141.5,97.7z M148.7,105.5V89.3c0.1,0,0.3,0,0.4,0c0.4,0,0.7-0.1,1.3-0.2
							c0.2,0,0.3-0.1,0.5-0.1v16.9C150.1,105.8,149.4,105.7,148.7,105.5z M152.6,105.9V88.6c0.8-0.2,1.5-0.4,1.7-0.4h0.3v17.4
							C154,105.7,153.3,105.9,152.6,105.9z M157.9,84.7c-0.1-0.3-0.3-0.8-0.9-1c-0.1,0-0.3-0.1-0.5-0.1c0-0.5,0-1.3,0-1.9
							c0-0.4-0.1-0.8-0.2-1.2v-6.9h2.7c0,7.1,0.7,11.3,1.3,14.4c0.6,3.2,1.3,5,1.2,7.6c0,2.7-1,5.4-2.8,7.3c-0.7,0.8-1.5,1.5-2.5,2
							V88c0.1,0,0.1,0,0.2,0c0.1,0,0.2,0,0.2,0s0.1,0,0.1,0c0.3,0,0.5-0.2,0.7-0.3c0.4-0.4,0.4-0.6,0.5-1c0.1-0.3,0.1-0.7,0.1-1
							C158,85.3,158,85,157.9,84.7z M154.6,73.6v5.3c-0.6-0.2-1.3-0.3-2.1-0.3v-5H154.6z M150.8,73.6v5.1c-0.8,0.2-1.5,0.4-2.2,0.7
							v-5.9L150.8,73.6L150.8,73.6z M146.9,73.6v6.7c-0.6,0.3-1,0.6-1.3,0.8c-0.8,0.5-1.8,1.4-2,1.6v0c0.3-2.3,0.5-5.2,0.5-9.1
							H146.9z M78.8,187.2c0.2-0.2,23.4-26.9,23.4-26.9c0.1-0.1,0.1-0.2,0.2-0.3c0,0,6.9-25.4,6.9-25.5c0-0.2,0.2-0.2,0.2-0.2
							s12.2-3.3,12.6-3.5c0.5-0.1,1.1-0.2,1.1-0.2l6.8-0.5c-0.1,0.8-0.2,2.1-0.4,3.7c-1.1,8.6-4.7,27-13.2,37.1
							c-12.8,15.1-30.4,16.6-37,16.6c-0.1,0-0.3,0-0.4,0C78.7,187.5,78.5,187.5,78.8,187.2z M78.3,189.3c0.3,0,0.7,0,1,0
							c6.8,0,25-1.6,38.3-17.2c10.9-13,13.7-37.7,14.1-42l3.4-0.2c-0.1,1.8-0.4,6-1,11.6c-0.7,7.6-1.8,17.9-3.5,28.4
							s-3.6,21-5.1,28.8c-1.1,5.8-2.1,10.1-2.5,12c0,0.2-0.2,0.5-0.6,0.5c-1,0-1.9,0.1-2.9,0.1c-3.1,0-6.4-0.3-9.6-0.9
							c-1.7-0.4-3.3-0.8-5-1.3c-11.9-3.7-18.8-9-22.7-13.3c-2-2.1-3.2-4.1-3.9-5.4c-0.1-0.2-0.2-0.4-0.3-0.6
							C78.1,189.4,78.2,189.2,78.3,189.3z M127.8,212.1c4.9-0.9,9.3-2.5,12.5-4.8l2.7,0.8c0.1,0,0.2,0,0.3,0c0,0,2.5-0.1,2.7-0.1
							c0.7,0,1,0.4,1,0.5s0,0.3,0,0.3s0,0.5-0.3,0.7c-0.3,0.3-2.2,0.8-2.9,1c-5.1,1-10.4,1.5-15.7,1.5
							C128.1,212.1,128,212.1,127.8,212.1z M205.6,160.8c-4.2,10-10.3,19-18,26.7c-7.7,7.7-16.7,13.8-26.7,18c-3.9,1.7-8,3-12.1,4
							l-0.1-1.7c0-1-1.1-1.5-1.8-1.5l-3.6,0.1c0,0-1.1-0.3-1.2-0.3s-0.1-0.2-0.1-0.2c0.2-0.3,0.3-0.8,0-1.1l-2.8-3.6l0.1-2.6
							c8.1-0.2,14.1-3.3,16.9-5.3c2.7-2,2.9-5.1,2.9-6c0-0.1,0-0.2,0-0.3l-0.1-7.2c0,0,0,0,0.1,0l0,0l7.7-4.3
							c0.3-0.2,0.5-0.5,0.4-0.8l-5-56.2c0.2-0.1,0.9-0.3,1.7-0.6c1-0.4,2-0.8,2.6-1.2c0.5-0.4,2.9-2.3,3.4-2.9
							c0.5-0.5,0.7-1.2,0.7-1.8c0-0.9-0.4-1.8-0.7-2.4c-0.3-0.5-0.8-1-1.2-1.4c1.1-2.4,1.6-5,1.6-7.7c0-4.7-1.1-8.4-2.2-11.9
							c-1.1-3.5-2.1-6.8-2.1-10.9c0-7.6,0.1-12.1,0.1-12.1c0-0.2-0.1-0.5-0.2-0.6c-0.2-0.2-0.4-0.3-0.6-0.3c-2.5,0-4.1,0.8-5,1.8
							c-0.4,0.4-0.6,0.9-0.8,1.2h-15.5c-0.1-0.4-0.4-0.9-0.8-1.4c-0.8-1-2.4-2-4.9-2c-0.2,0-0.5,0.1-0.6,0.3
							c-0.2,0.2-0.2,0.4-0.2,0.6c0,0,0,5.7,0,13.7c0,0.6,0,1.2-0.1,1.9c-0.3-0.5-0.7-1-1-1.5c-1-1.2-2-2.3-3.2-2.7
							c-1.1-0.3-2.8-0.9-4.8-1.5c-0.7-0.2-1-0.5-1.2-0.9c-0.1-0.2-0.2-0.5-0.2-0.7l1,0h0c0.9,0,1.6-0.1,2.2-0.4
							c0.6-0.2,1.2-0.7,1.4-1.4c0.1-0.4,0.1-0.7,0.1-1c0-0.3,0-0.6-0.1-0.9l0.4-0.7c0.1-0.2,0.1-0.5,0-0.8c0.2-0.2,0.3-0.4,0.3-0.7
							l-0.1-0.9c0,0,0.1,0,0.1,0c0.3,0,0.5-0.1,0.8-0.2c0.1-0.1,0.3-0.1,0.5-0.3c0.2-0.1,0.3-0.4,0.3-0.8c0-0.2,0-0.8-0.1-1.6
							c-0.2-2.1-0.5-5.7-0.6-6.8c0.4-0.5,1-1.4,1-2.7c0-0.8-0.2-1.8-1-2.5c-0.7-0.7-1.9-1.2-3.4-1.2c-0.7-0.2-4.1-1.1-5.1-1.2
							c-0.8-0.1-1.8-0.3-2.9-0.3c-2,0-4.5,0.5-7.3,2.7c-3.6,2.8-3.9,7.8-3.9,10.1c0,0.4,0,0.8,0,1c-0.1,0.4-0.3,1.1-0.3,2.3
							c0,0.6,0,1.4,0.2,2.4c0.4,2.2,1.7,3.6,3,4.3c0.6,0.4,1.2,0.6,1.6,0.7v1.6c-0.7,0.3-5,2.2-9.1,5.1c-0.1,0.1-0.4,0.3-0.8,0.6
							c0,0,0,0,0,0l-46.4,47c-0.2,0.2-0.2,0.4-0.2,0.6c0,0.2,0.1,0.5,0.3,0.6c0,0,3.2,2.9,6.7,6.1c0.9,0.8,1.8,1.6,2.7,2.4
							l-8.5,11.7c-0.7,0.9-1.2,2.2-1.2,4c0,3.6,1.8,9,7.2,17.4c6.2,9.6,10.9,14,12.6,15.5l-2.2,2.6c-0.1,0.1-0.8,0.8-1.5,1.8
							c-0.4,0.5-0.8,1.1-1.1,1.7c-0.1,0.1-0.1,0.3-0.2,0.4c-1.5-1.3-3-2.7-4.4-4.1c-7.7-7.7-13.8-16.7-18-26.7
							c-4.4-10.3-6.6-21.4-6.6-32.7c0-11.3,2.2-22.3,6.6-32.7c4.2-10,10.3-19,18-26.7c7.7-7.7,16.7-13.8,26.7-18
							c10.4-4.4,21.4-6.6,32.7-6.6c11.3,0,22.3,2.2,32.7,6.6c10,4.2,19,10.3,26.7,18c7.7,7.7,13.8,16.7,18,26.7
							c4.4,10.4,6.6,21.4,6.6,32.7C212.2,139.4,210,150.5,205.6,160.8z"/>
					</g>
				</g>
			</g>
			<g>
				<path d="M30,135.3c1-0.1,1.8-0.1,2.5,0c0.7,0.1,1.3,0.4,1.8,0.9s0.9,1,1.2,1.7c0.3,0.7,0.5,1.6,0.6,2.6c0.1,0.9,0.1,1.7,0,2.4
					c-0.1,0.7-0.3,1.4-0.7,1.9s-0.8,1-1.4,1.4c-0.6,0.4-2.1,0.7-2.1,0.7c-0.1,0-0.4,0.1-0.5,0.1l-7.6,1c-0.1,0-0.3,0.1-0.3,0.3
					l-0.1,1.1c0,0.1-0.1,0.3-0.3,0.3l-0.3,0c-0.1,0-0.3-0.1-0.3-0.2l-0.7-5.1c0-0.1,0.1-0.3,0.2-0.3l0.3,0c0.1,0,0.3,0.1,0.3,0.2
					l0.4,1c0,0.1,0.2,0.2,0.3,0.2l8.5-1.1c1-0.1,1.8-0.5,2.3-1.3c0.5-0.7,0.7-1.7,0.5-2.9c-0.2-1.3-0.6-2.1-1.3-2.6
					c-0.7-0.5-2.8-0.5-2.8-0.5c-0.1,0-0.4,0-0.5,0l-7.7,1c-0.1,0-0.3,0.1-0.3,0.3l-0.1,1.1c0,0.1-0.1,0.3-0.3,0.3l-0.3,0
					c-0.1,0-0.3-0.1-0.3-0.2l-0.6-4.6c0-0.1,0.1-0.3,0.2-0.3l0.3,0c0.1,0,0.3,0.1,0.3,0.2l0.4,1.1c0,0.1,0.2,0.2,0.3,0.2L30,135.3z"
					/>
				<path d="M20.8,123.4c0-0.1,0.1-0.3,0.2-0.4l10.7-6.4l-9-0.7c-0.1,0-0.3,0.1-0.3,0.2l-0.3,1.1c0,0.1-0.2,0.2-0.3,0.2l-0.3,0
					c-0.1,0-0.2-0.1-0.2-0.3l0.3-4.4c0-0.1,0.1-0.2,0.3-0.2l0.3,0c0.1,0,0.3,0.1,0.3,0.3l0.1,1.1c0,0.1,0.1,0.3,0.3,0.3l12.7,1
					c0.1,0,0.2,0.1,0.2,0.3l-0.1,1.2c0,0.1-0.1,0.3-0.2,0.4l-12.4,7.3l10.4,0.8c0.1,0,0.3-0.1,0.3-0.2l0.3-1.1
					c0-0.1,0.2-0.2,0.3-0.2l0.3,0c0.1,0,0.2,0.1,0.2,0.3l-0.3,4.4c0,0.1-0.1,0.2-0.3,0.2l-0.3,0c-0.1,0-0.3-0.1-0.3-0.3l-0.1-1.1
					c0-0.1-0.1-0.3-0.3-0.3L22,126c-0.1,0-0.3,0.1-0.3,0.2l-0.3,1.1c0,0.1-0.2,0.2-0.3,0.2l-0.3,0c-0.1,0-0.2-0.1-0.2-0.3
					L20.8,123.4z"/>
				<path d="M25.2,99.6c0.1,0,0.2,0.2,0.2,0.3l-0.1,1.1c0,0.1,0.1,0.3,0.2,0.3l11.1,2.8c0.1,0,0.3,0,0.4-0.2l0.5-1
					c0.1-0.1,0.2-0.2,0.4-0.2l0.3,0.1c0.1,0,0.2,0.2,0.2,0.3l-1.2,5c0,0.1-0.2,0.2-0.3,0.2l-0.3-0.1c-0.1,0-0.2-0.2-0.2-0.3l0.1-1.1
					c0-0.1-0.1-0.3-0.2-0.3L25,103.8c-0.1,0-0.3,0-0.4,0.2l-0.5,1c-0.1,0.1-0.2,0.2-0.4,0.2l-0.3-0.1c-0.1,0-0.2-0.2-0.2-0.3l1.2-5
					c0-0.1,0.2-0.2,0.3-0.2L25.2,99.6z"/>
				<path d="M42.7,91.1c0.1,0.1,0.1,0.3,0.1,0.4L42.1,93c-0.1,0.1-0.2,0.2-0.4,0.2l-13.5-0.9c-0.1,0-0.3,0.1-0.4,0.2l-0.5,0.7
					c-0.1,0.1-0.3,0.2-0.4,0.1l-0.3-0.1c-0.1,0-0.2-0.2-0.1-0.3l1.9-4.4c0.1-0.1,0.2-0.2,0.3-0.1l0.3,0.1c0.1,0,0.2,0.2,0.2,0.4
					L29,89.7c0,0.1,0.1,0.3,0.2,0.3l10.9,0.8l-8-7.6c-0.1-0.1-0.2-0.1-0.3,0l-0.6,0.9c-0.1,0.1-0.2,0.2-0.4,0.1l-0.3-0.1
					c-0.1-0.1-0.2-0.2-0.1-0.3l1.7-3.9c0.1-0.1,0.2-0.2,0.3-0.1l0.3,0.1c0.1,0.1,0.2,0.2,0.2,0.4l-0.2,1c0,0.1,0,0.3,0.1,0.4
					L42.7,91.1z"/>
				<path d="M69.8,54.1c0.3-0.1,0.7-0.2,1-0.4c0.4-0.2,0.6-0.3,0.9-0.5c0.8-0.6,1.3-1.2,1.5-1.9s0-1.3-0.4-1.9
					c-0.3-0.4-0.6-0.6-1-0.8c-0.4-0.1-0.7-0.2-1.1-0.2c-0.4,0-0.8,0-1.2,0.1s-0.9,0.1-1.3,0.2c-0.6,0.1-1.2,0.2-1.8,0.2
					s-1,0.1-1.4,0c-0.4,0-0.8-0.2-1.2-0.4c-0.4-0.2-0.7-0.5-1-1c-0.4-0.5-0.6-1-0.6-1.5s0-1.1,0.2-1.6c0.2-0.5,0.5-1.1,0.9-1.6
					c0.4-0.5,1-1,1.6-1.5c0.2-0.2,0.5-0.4,0.8-0.5c0.3-0.2,0.6-0.3,0.9-0.5c0.3-0.1,0.6-0.3,0.9-0.4s0.6-0.2,0.6-0.2
					c0.1,0,0.3,0,0.3,0c0,0,0.1,0.2,0.2,0.3l1.1,1.9c0.1,0.1,0,0.3-0.1,0.4l-0.7,0.5c-0.1,0.1-0.3,0.1-0.4,0L67,41.7
					c-0.2,0-0.5,0.1-0.8,0.2c-0.3,0.1-0.7,0.3-1,0.6c-0.7,0.5-1.1,1-1.2,1.6c-0.2,0.6,0,1.2,0.4,1.7c0.3,0.4,0.5,0.6,0.8,0.7
					c0.3,0.1,0.6,0.2,1,0.2s0.7,0,1.1-0.1c0.4-0.1,0.8-0.1,1.1-0.2c0.5-0.1,1.1-0.2,1.7-0.3c0.6-0.1,1.1-0.1,1.7-0.1
					c0.5,0,1.1,0.1,1.6,0.3c0.5,0.2,0.9,0.6,1.3,1.1c0.5,0.7,0.7,1.3,0.8,1.9c0.1,0.6,0,1.2-0.2,1.8c-0.2,0.5-0.6,1.1-1.1,1.6
					c-0.5,0.5-1.1,1-1.7,1.5c-0.6,0.4-1.2,0.8-1.9,1.1S68.9,56,68.9,56c-0.1,0-0.3,0.1-0.3,0s-0.1-0.2-0.2-0.3l-1.1-1.9
					c-0.1-0.1,0-0.3,0.1-0.4l0.7-0.5c0.1-0.1,0.3-0.1,0.4,0L69.8,54.1z"/>
				<path d="M80.1,32.9c0.1,0.1,0,0.3-0.1,0.4L79.1,34c-0.1,0.1-0.1,0.3-0.1,0.4l5.4,10.1c0.1,0.1,0.2,0.2,0.4,0.1l1-0.3
					c0.1,0,0.3,0,0.4,0.1l0.2,0.3c0.1,0.1,0,0.3-0.1,0.4l-4.5,2.4c-0.1,0.1-0.3,0-0.4-0.1l-0.2-0.3c-0.1-0.1,0-0.3,0.1-0.4l0.9-0.7
					c0.1-0.1,0.1-0.3,0.1-0.4l-5.4-10.1c-0.1-0.1-0.2-0.2-0.4-0.1l-1,0.3c-0.1,0-0.3,0-0.4-0.1l-0.2-0.3c-0.1-0.1,0-0.3,0.1-0.4
					l4.5-2.4c0.1-0.1,0.3,0,0.4,0.1L80.1,32.9z"/>
				<path d="M85.7,29.6c0-0.1,0.2-0.2,0.3-0.2l10.6-3.9c0.1-0.1,0.3-0.1,0.4-0.1s0.2,0.1,0.2,0.3l0.9,2.3c0,0.1,0,0.3-0.1,0.3
					l-0.9,0.3c-0.1,0.1-0.3,0-0.4-0.1L96,27.4c-0.1-0.1-0.3-0.2-0.4-0.1l-1.1,0.3c-0.1,0-0.4,0.1-0.5,0.2l-1.1,0.4l4,11
					c0,0.1,0.2,0.2,0.4,0.2l1.1-0.2c0.1,0,0.3,0.1,0.4,0.2l0.1,0.3c0,0.1,0,0.3-0.2,0.3l-4.9,1.8c-0.1,0-0.3,0-0.3-0.2l-0.1-0.3
					c0-0.1,0-0.3,0.1-0.4l1-0.6c0.1-0.1,0.2-0.2,0.1-0.4l-4-11l-1.1,0.4c-0.1,0.1-0.4,0.1-0.5,0.2l-1.1,0.5
					c-0.1,0.1-0.2,0.2-0.2,0.4l0.1,1.3c0,0.1-0.1,0.3-0.2,0.4l-0.9,0.3c-0.1,0.1-0.3,0-0.3-0.2L85.7,30
					C85.7,29.9,85.7,29.7,85.7,29.6z"/>
				<path d="M111.7,31.1L107,32l-0.7,4.3c0,0.1,0.1,0.3,0.2,0.3l1,0c0.1,0,0.3,0.1,0.3,0.3l0.1,0.3c0,0.1-0.1,0.3-0.2,0.3l-4.1,0.8
					c-0.1,0-0.3-0.1-0.3-0.2l-0.1-0.3c0-0.1,0.1-0.3,0.2-0.4l0.9-0.4c0.1-0.1,0.3-0.2,0.3-0.4l2.6-13.6c0-0.1,0.2-0.3,0.3-0.3
					l1.8-0.3c0.1,0,0.3,0.1,0.4,0.2l6.8,11.9c0.1,0.1,0.2,0.2,0.4,0.2l0.9,0c0.1,0,0.3,0.1,0.3,0.3l0.1,0.3c0,0.1-0.1,0.3-0.2,0.3
					l-4.8,0.9c-0.1,0-0.3-0.1-0.3-0.2l-0.1-0.3c0-0.1,0.1-0.3,0.2-0.4l0.9-0.4c0.1-0.1,0.2-0.2,0.1-0.3L111.7,31.1z M108.3,24.9
					l-1.1,6l4-0.8L108.3,24.9z"/>
				<path d="M124.8,34c0.3,0.1,0.7,0.2,1,0.3c0.4,0.1,0.7,0.1,1,0.1c1,0,1.7-0.2,2.3-0.6c0.5-0.4,0.8-1,0.8-1.8
					c0-0.5-0.1-0.9-0.3-1.2c-0.2-0.3-0.5-0.6-0.8-0.9s-0.7-0.5-1.1-0.6c-0.4-0.2-0.8-0.4-1.2-0.6c-0.6-0.3-1.1-0.6-1.6-0.9
					c-0.5-0.3-0.9-0.5-1.2-0.8s-0.6-0.6-0.7-1c-0.2-0.4-0.3-0.9-0.3-1.4c0-0.6,0.1-1.2,0.4-1.6c0.3-0.5,0.6-0.9,1.1-1.2
					s1-0.6,1.7-0.7c0.7-0.2,1.4-0.2,2.2-0.3c0.3,0,0.6,0,1,0.1s0.7,0.1,1,0.1c0.4,0.1,0.7,0.1,1,0.2c0.3,0.1,0.6,0.2,0.6,0.2
					c0.1,0.1,0.3,0.1,0.3,0.2c0,0.1,0,0.2,0,0.3l-0.3,2.2c0,0.1-0.1,0.3-0.3,0.3h-0.9c-0.1,0-0.3-0.1-0.3-0.2l-0.4-1.7
					c-0.2-0.1-0.5-0.2-0.8-0.3c-0.3-0.1-0.7-0.1-1.2-0.1c-0.8,0-1.5,0.2-2,0.6c-0.5,0.4-0.7,0.9-0.7,1.6c0,0.4,0.1,0.8,0.2,1.1
					s0.4,0.5,0.7,0.7c0.3,0.2,0.6,0.4,0.9,0.5c0.3,0.2,0.7,0.3,1,0.5c0.5,0.3,1,0.5,1.5,0.8c0.5,0.3,1,0.6,1.4,0.9
					c0.4,0.4,0.8,0.7,1.1,1.2c0.3,0.4,0.4,1,0.4,1.6c0,0.8-0.2,1.5-0.5,2s-0.7,0.9-1.2,1.3c-0.5,0.3-1.1,0.5-1.8,0.7
					c-0.7,0.1-1.5,0.2-2.3,0.2c-0.7,0-1.5-0.1-2.2-0.2c-0.7-0.1-1.6-0.4-1.6-0.4c-0.1,0-0.3-0.1-0.3-0.1c0,0,0-0.2,0-0.3l0.2-2.2
					c0-0.1,0.1-0.3,0.3-0.3h0.9c0.1,0,0.3,0.1,0.3,0.2L124.8,34z"/>
				<path d="M161.9,39.8c-1.6,0.8-3.4,0.9-5.5,0.2c-1-0.3-1.9-0.8-2.6-1.3s-1.2-1.2-1.6-2c-0.4-0.8-0.6-1.6-0.6-2.6s0.2-2,0.5-3.1
					c0.4-1.2,0.9-2.2,1.5-3c0.6-0.8,1.3-1.4,2.1-1.8c0.8-0.4,1.6-0.6,2.5-0.7c0.9,0,1.9,0.1,2.9,0.4c1,0.3,1.9,0.8,2.6,1.3
					c0.7,0.6,1.3,1.2,1.6,2s0.6,1.6,0.6,2.6c0,1-0.2,2-0.5,3.2C164.6,37.4,163.4,39,161.9,39.8z M163.2,29.5c-0.4-1.2-1.2-2-2.5-2.4
					c-1.3-0.4-2.5-0.3-3.5,0.4c-1,0.7-1.8,2.1-2.5,4.1c-0.7,2.1-0.8,3.7-0.4,4.9s1.2,2,2.5,2.4c1.3,0.4,2.5,0.3,3.5-0.5
					c1-0.7,1.8-2.1,2.5-4.1C163.4,32.4,163.5,30.7,163.2,29.5z"/>
				<path d="M170.3,44.1c0.2,0.3,0.5,0.5,0.8,0.8s0.6,0.4,0.8,0.6c0.9,0.5,1.6,0.6,2.3,0.5c0.7-0.1,1.2-0.5,1.6-1.2
					c0.2-0.4,0.3-0.8,0.3-1.2c0-0.4-0.1-0.8-0.3-1.1c-0.2-0.4-0.4-0.7-0.6-1.1c-0.3-0.4-0.5-0.7-0.7-1.1c-0.4-0.5-0.7-1-1-1.5
					s-0.5-0.9-0.6-1.3c-0.1-0.4-0.2-0.8-0.1-1.3c0-0.4,0.2-0.9,0.5-1.4c0.3-0.5,0.7-1,1.1-1.2c0.5-0.3,1-0.5,1.5-0.5
					c0.6-0.1,1.2,0,1.8,0.2s1.3,0.4,2,0.8c0.3,0.1,0.5,0.3,0.8,0.5c0.3,0.2,0.6,0.4,0.8,0.6c0.3,0.2,0.5,0.4,0.8,0.7
					c0.2,0.2,0.5,0.4,0.5,0.4c0.1,0.1,0.2,0.2,0.1,0.3c0,0-0.1,0.2-0.2,0.3l-1.3,1.8c-0.1,0.1-0.3,0.2-0.4,0.1l-0.8-0.4
					c-0.1-0.1-0.2-0.2-0.2-0.4l0.5-1.7c-0.1-0.2-0.3-0.4-0.5-0.7c-0.2-0.2-0.6-0.5-1-0.7c-0.7-0.4-1.4-0.5-2-0.4s-1.1,0.5-1.4,1.1
					c-0.2,0.4-0.3,0.7-0.3,1.1s0.1,0.6,0.2,1s0.3,0.6,0.5,0.9c0.2,0.3,0.5,0.6,0.7,0.9c0.3,0.5,0.6,0.9,1,1.4c0.3,0.5,0.6,1,0.8,1.5
					s0.3,1,0.4,1.5c0,0.5-0.1,1.1-0.5,1.6c-0.4,0.7-0.9,1.2-1.4,1.5s-1.1,0.5-1.7,0.5s-1.2-0.1-1.9-0.3c-0.7-0.2-1.4-0.5-2.1-0.9
					c-0.6-0.4-1.2-0.8-1.8-1.2s-1.2-1.1-1.2-1.1c-0.1-0.1-0.2-0.2-0.2-0.3c0,0,0.1-0.2,0.2-0.3l1.3-1.8c0.1-0.1,0.2-0.1,0.4-0.1
					l0.8,0.4c0.1,0.1,0.2,0.2,0.2,0.4L170.3,44.1z"/>
				<path d="M185.2,53.5c-0.1,0.1-0.1,0.3,0,0.4l1.8,1.4c0.1,0.1,0.3,0.2,0.4,0.3l0.9,0.6c0.1,0.1,0.3,0.1,0.4,0l1.1-0.9
					c0.1-0.1,0.3-0.1,0.4,0l0.7,0.6c0.1,0.1,0.1,0.2,0,0.4l-1.5,1.8c-0.1,0.1-0.2,0.2-0.3,0.3c0,0-0.2,0-0.3-0.1l-7.6-6
					c-0.1-0.1-0.1-0.2,0-0.4l0.2-0.3c0.1-0.1,0.3-0.1,0.4-0.1l1,0.5c0.1,0.1,0.3,0,0.4-0.1l7.1-9c0.1-0.1,0.1-0.3,0-0.4l-0.7-0.8
					c-0.1-0.1-0.1-0.3,0-0.4l0.2-0.3c0.1-0.1,0.2-0.1,0.4,0l4,3.2c0.1,0.1,0.1,0.2,0,0.4l-0.2,0.3c-0.1,0.1-0.3,0.1-0.4,0.1l-1-0.5
					c-0.1-0.1-0.3,0-0.4,0.1L185.2,53.5z"/>
				<path d="M202.1,69.5c-1.8-0.1-3.4-1-4.9-2.6c-0.7-0.8-1.2-1.6-1.5-2.5c-0.3-0.8-0.5-1.7-0.4-2.5s0.4-1.7,0.8-2.5
					c0.5-0.8,1.2-1.6,2-2.4c0.9-0.8,1.9-1.4,2.8-1.8c0.9-0.4,1.8-0.5,2.7-0.5c0.9,0,1.7,0.3,2.5,0.7c0.8,0.4,1.6,1,2.3,1.9
					c0.7,0.8,1.2,1.6,1.5,2.5c0.3,0.9,0.5,1.7,0.4,2.5c-0.1,0.9-0.4,1.7-0.8,2.5c-0.5,0.8-1.2,1.6-2.1,2.5
					C205.7,68.8,203.9,69.6,202.1,69.5z M208.5,61.3c0.3-1.2,0-2.3-0.9-3.4c-0.9-1-2-1.5-3.2-1.4c-1.2,0.1-2.6,0.9-4.2,2.3
					c-1.6,1.4-2.6,2.8-2.9,4c-0.3,1.2,0,2.3,0.9,3.4c0.9,1,2,1.5,3.2,1.4c1.2-0.1,2.6-0.9,4.2-2.3C207.2,63.9,208.2,62.5,208.5,61.3
					z"/>
				<path d="M214.3,78.5c0.1-0.1,0.1-0.3,0.1-0.4l-1.5-2.6l-5.1,3.1l1.7,2.8c0.1,0.1,0.2,0.3,0.3,0.4l0.6,0.9
					c0.1,0.1,0.3,0.2,0.4,0.1l1.4-0.5c0.1,0,0.3,0,0.4,0.1l0.5,0.8c0.1,0.1,0,0.3-0.1,0.4l-2.1,1.1c-0.1,0.1-0.3,0.1-0.3,0.2
					c-0.1,0-0.2-0.1-0.2-0.2l-5.4-9c-0.1-0.1,0-0.3,0.1-0.4l0.3-0.2c0.1-0.1,0.3,0,0.4,0.1l0.7,0.8c0.1,0.1,0.3,0.1,0.4,0.1l9.9-5.9
					c0.1-0.1,0.2-0.2,0.1-0.4l-0.4-1c0-0.1,0-0.3,0.1-0.4l0.3-0.2c0.1-0.1,0.3,0,0.4,0.1l5.1,8.6c0.1,0.1,0.1,0.3,0.1,0.4
					c0,0.1-0.1,0.2-0.2,0.3l-2.1,1.3c-0.1,0.1-0.3,0-0.4-0.1l-0.5-0.8c-0.1-0.1,0-0.3,0.1-0.4l1.1-1c0.1-0.1,0.1-0.3,0.1-0.4l-0.5-1
					c-0.1-0.1-0.2-0.3-0.2-0.5l-1.5-2.5l-4.5,2.7l1.6,2.6c0.1,0.1,0.2,0.2,0.4,0.1l1-0.4c0.1,0,0.3,0,0.4,0.1l0.4,0.7
					c0.1,0.1,0,0.3-0.1,0.4l-3.3,2c-0.1,0.1-0.3,0-0.4-0.1l-0.4-0.7c-0.1-0.1,0-0.3,0.1-0.4L214.3,78.5z"/>
				<path d="M45.4,72.4c-0.1-0.1-0.3,0-0.4,0.1l-1.7,2.6l5,3.2l1.8-2.7c0.1-0.1,0.2-0.3,0.3-0.5l0.6-1c0.1-0.1,0-0.3,0-0.4l-1-1
					c-0.1-0.1-0.1-0.3,0-0.4l0.5-0.8c0.1-0.1,0.2-0.1,0.4-0.1l1.9,1.4c0.1,0.1,0.2,0.2,0.3,0.2c0,0,0,0.2,0,0.3l-5.7,8.8
					c-0.1,0.1-0.2,0.1-0.4,0.1L46.5,82c-0.1-0.1-0.2-0.2-0.1-0.4l0.4-1c0-0.1,0-0.3-0.1-0.4L37.1,74c-0.1-0.1-0.3-0.1-0.4,0
					l-0.8,0.8c-0.1,0.1-0.3,0.1-0.4,0l-0.3-0.2c-0.1-0.1-0.1-0.2-0.1-0.4l5.5-8.4c0.1-0.1,0.2-0.2,0.3-0.3c0.1,0,0.2,0,0.4,0.1
					l2.1,1.3c0.1,0.1,0.2,0.2,0.1,0.4l-0.5,0.8c-0.1,0.1-0.2,0.2-0.4,0.1l-1.4-0.5c-0.1,0-0.3,0-0.4,0.1L40,68.8
					c-0.1,0.1-0.2,0.3-0.3,0.4l-1.6,2.5l4.4,2.9l1.7-2.6c0.1-0.1,0.1-0.3,0-0.4l-0.8-0.8c-0.1-0.1-0.1-0.3,0-0.4l0.4-0.6
					c0.1-0.1,0.2-0.2,0.4-0.1l3.2,2.1c0.1,0.1,0.2,0.2,0.1,0.4L47,72.8C46.9,73,46.7,73,46.6,73L45.4,72.4z"/>
				<path d="M228.1,89.8c0,0.1,0,0.3-0.1,0.5l-7.3,10.1l8.5-3c0.1,0,0.2-0.2,0.2-0.3l-0.2-1.1c0-0.1,0.1-0.3,0.2-0.3l0.3-0.1
					c0.1,0,0.3,0,0.3,0.2l1.5,4.2c0,0.1,0,0.3-0.2,0.3l-0.3,0.1c-0.1,0-0.3,0-0.4-0.1l-0.6-1c-0.1-0.1-0.2-0.2-0.4-0.1l-12.1,4.2
					c-0.1,0-0.3,0-0.3-0.2l-0.4-1.2c0-0.1,0-0.3,0.1-0.5l8.5-11.6l-9.9,3.4c-0.1,0-0.2,0.2-0.2,0.3l0.2,1.1c0,0.1-0.1,0.3-0.2,0.3
					l-0.3,0.1c-0.1,0-0.3,0-0.3-0.2l-1.5-4.2c0-0.1,0-0.3,0.2-0.3l0.3-0.1c0.1,0,0.3,0,0.4,0.1l0.6,1c0.1,0.1,0.2,0.2,0.4,0.1
					l10.8-3.8c0.1,0,0.2-0.2,0.2-0.3l-0.2-1.1c0-0.1,0.1-0.3,0.2-0.3l0.3-0.1c0.1,0,0.3,0,0.3,0.2L228.1,89.8z"/>
				<path d="M220.6,111.7c-0.1,0.3-0.1,0.7-0.1,1.1c0,0.4,0,0.7,0,1c0.1,1,0.5,1.7,0.9,2.1c0.5,0.5,1.1,0.7,1.9,0.6
					c0.5-0.1,0.8-0.2,1.1-0.5c0.3-0.2,0.5-0.5,0.7-0.9c0.2-0.4,0.4-0.7,0.5-1.2s0.3-0.8,0.4-1.2c0.2-0.6,0.4-1.2,0.6-1.7
					c0.2-0.5,0.4-0.9,0.7-1.3c0.2-0.4,0.6-0.6,0.9-0.9c0.4-0.2,0.8-0.4,1.4-0.5c0.6-0.1,1.2,0,1.7,0.1s1,0.5,1.3,0.9
					c0.4,0.4,0.7,0.9,1,1.6c0.3,0.6,0.4,1.4,0.6,2.1c0,0.3,0.1,0.6,0.1,1c0,0.4,0,0.7,0,1c0,0.4,0,0.7-0.1,1c0,0.3-0.1,0.6-0.1,0.6
					c0,0.1-0.1,0.3-0.1,0.3c0,0-0.2,0-0.3,0l-2.2,0c-0.1,0-0.3-0.1-0.3-0.2l-0.1-0.9c0-0.1,0.1-0.3,0.2-0.4l1.6-0.6
					c0.1-0.2,0.2-0.5,0.2-0.8c0-0.3,0-0.7,0-1.2c-0.1-0.8-0.4-1.5-0.9-1.9s-1-0.6-1.7-0.5c-0.4,0.1-0.8,0.2-1,0.4
					c-0.3,0.2-0.5,0.5-0.6,0.8c-0.2,0.3-0.3,0.6-0.4,1c-0.1,0.4-0.2,0.7-0.4,1.1c-0.2,0.5-0.4,1-0.6,1.6c-0.2,0.6-0.4,1.1-0.7,1.6
					c-0.3,0.5-0.6,0.9-1,1.2c-0.4,0.3-0.9,0.5-1.5,0.6c-0.8,0.1-1.5,0-2-0.2s-1-0.6-1.4-1c-0.4-0.5-0.7-1-0.9-1.7
					c-0.2-0.7-0.4-1.4-0.5-2.2c-0.1-0.7-0.1-1.5-0.1-2.2c0-0.7,0.1-1.6,0.1-1.6c0-0.1,0.1-0.3,0.1-0.3c0,0,0.2,0,0.3,0l2.2-0.1
					c0.1,0,0.3,0.1,0.3,0.2l0.1,0.9c0,0.1-0.1,0.3-0.2,0.4L220.6,111.7z"/>
				<path d="M234.3,131c-0.1,0-0.3-0.1-0.3-0.2l-0.2-1.1c0-0.1-0.2-0.2-0.3-0.2l-11.5,0c-0.1,0-0.3,0.1-0.3,0.3l-0.2,1.1
					c0,0.1-0.2,0.3-0.3,0.3h-0.3c-0.1,0-0.3-0.1-0.3-0.3l0-5.2c0-0.1,0.1-0.3,0.3-0.3h0.3c0.1,0,0.3,0.1,0.3,0.2l0.2,1.1
					c0,0.1,0.2,0.2,0.3,0.2l11.5,0c0.1,0,0.3-0.1,0.3-0.3l0.2-1.1c0-0.1,0.2-0.3,0.3-0.3h0.3c0.1,0,0.3,0.1,0.3,0.3l0,5.2
					c0,0.1-0.1,0.3-0.3,0.3H234.3z"/>
				<path d="M221.2,139.8c-0.2,0.3-0.3,0.6-0.5,1c-0.1,0.4-0.2,0.7-0.3,1c-0.1,1-0.1,1.7,0.3,2.3c0.3,0.6,0.9,1,1.6,1.1
					c0.5,0.1,0.9,0,1.2-0.1s0.7-0.4,1-0.6c0.3-0.3,0.6-0.6,0.8-1s0.5-0.7,0.8-1.1c0.4-0.5,0.8-1,1.1-1.4c0.3-0.4,0.7-0.8,1-1
					s0.7-0.5,1.1-0.6c0.4-0.1,0.9-0.1,1.4,0c0.6,0.1,1.1,0.3,1.5,0.6c0.4,0.3,0.8,0.8,1,1.3c0.2,0.5,0.4,1.1,0.5,1.8
					c0.1,0.7,0,1.4-0.1,2.2c0,0.3-0.1,0.6-0.2,1c-0.1,0.3-0.2,0.7-0.3,1c-0.1,0.3-0.2,0.6-0.4,1c-0.1,0.3-0.3,0.6-0.3,0.6
					c-0.1,0.1-0.2,0.2-0.2,0.2c0,0-0.2,0-0.3-0.1l-2.1-0.6c-0.1,0-0.2-0.2-0.2-0.3l0.1-0.9c0-0.1,0.2-0.3,0.3-0.3l1.7-0.1
					c0.2-0.2,0.3-0.4,0.5-0.7c0.1-0.3,0.2-0.7,0.3-1.1c0.1-0.8,0-1.5-0.3-2c-0.3-0.5-0.8-0.9-1.5-1c-0.4-0.1-0.8,0-1.1,0.1
					c-0.3,0.1-0.6,0.3-0.8,0.5s-0.5,0.5-0.7,0.8s-0.4,0.6-0.7,1c-0.3,0.4-0.7,0.9-1,1.4c-0.4,0.5-0.7,0.9-1.1,1.3s-0.9,0.6-1.4,0.9
					c-0.5,0.2-1,0.2-1.6,0.1c-0.8-0.2-1.4-0.4-1.9-0.8c-0.5-0.4-0.8-0.9-1-1.4c-0.2-0.5-0.4-1.2-0.4-1.9c0-0.7,0-1.5,0.2-2.3
					c0.1-0.7,0.3-1.4,0.5-2.1s0.6-1.5,0.6-1.5c0.1-0.1,0.1-0.2,0.2-0.2c0,0,0.2,0,0.3,0.1l2.1,0.6c0.1,0,0.2,0.2,0.2,0.3l-0.1,0.9
					c0,0.1-0.2,0.3-0.3,0.3L221.2,139.8z"/>
			</g>
			<g>
				<path d="M66.5,213.6c0.1,0.1,0.3,0,0.4-0.1l5.9-8.5l-11,6.2c-0.1,0.1-0.3,0-0.4,0l-0.4-0.4c-0.1-0.1-0.2-0.3-0.1-0.4l3.2-11.9
					l-6.7,7.3c-0.1,0.1-0.1,0.3,0,0.4l0.7,0.9c0.1,0.1,0.1,0.3,0,0.4l-0.2,0.2c-0.1,0.1-0.3,0.1-0.4,0l-3.2-3
					c-0.1-0.1-0.1-0.3,0-0.4l0.2-0.2c0.1-0.1,0.3-0.1,0.4,0l0.9,0.6c0.1,0.1,0.3,0,0.4,0l7.5-8.4c0.1-0.1,0.1-0.3,0-0.4l-0.7-0.9
					c-0.1-0.1-0.1-0.3,0-0.4l0.2-0.3c0.1-0.1,0.3-0.1,0.4,0l3.4,2.8c0.1,0.1,0.2,0.3,0.1,0.4l-2.7,10.5l9.3-5.1c0.1-0.1,0.3,0,0.4,0
					l3.3,2.6c0.1,0.1,0.1,0.2,0,0.4l-0.2,0.3c-0.1,0.1-0.3,0.1-0.4,0.1l-1-0.5c-0.1-0.1-0.3,0-0.4,0.1l-6.4,9.1
					c-0.1,0.1-0.1,0.3,0,0.4l0.8,0.8c0.1,0.1,0.1,0.3,0,0.4l-0.2,0.3c-0.1,0.1-0.2,0.1-0.4,0.1l-4.2-3.1c-0.1-0.1-0.1-0.2-0.1-0.4
					l0.2-0.3c0.1-0.1,0.3-0.2,0.4-0.1L66.5,213.6z"/>
				<path d="M91.1,212.9c1,0.5,1.9,1.1,2.6,1.7c0.8,0.6,1.3,1.4,1.7,2.2c0.4,0.8,0.5,1.7,0.5,2.7c0,1-0.4,2-1,3.2
					c-0.6,1.1-1.2,2-2,2.6s-1.6,1.1-2.5,1.3s-1.8,0.2-2.8,0.1s-2.9-1-2.9-1c-0.1-0.1-0.3-0.1-0.5-0.2l-5-2.5
					c-0.1-0.1-0.2-0.2-0.1-0.4l0.1-0.3c0.1-0.1,0.2-0.2,0.4-0.2l1.1,0.3c0.1,0,0.3,0,0.4-0.2l5.2-10.2c0.1-0.1,0-0.3-0.1-0.4
					l-0.9-0.7c-0.1-0.1-0.1-0.3-0.1-0.4l0.1-0.3c0.1-0.1,0.2-0.2,0.4-0.1L91.1,212.9z M93.4,218.9c0.1-0.8,0.1-1.5,0-2.1
					c-0.2-0.6-0.5-1.2-1-1.7c-0.5-0.5-1.7-1.2-1.7-1.2c-0.1-0.1-0.3-0.2-0.5-0.2l-1.3-0.7l-5.5,10.8l1.2,0.6
					c0.6,0.3,1.2,0.5,1.7,0.7c0.6,0.2,1.1,0.3,1.6,0.3c0.8-0.1,1.6-0.4,2.4-1c0.8-0.6,1.5-1.5,2.2-2.8
					C93,220.6,93.3,219.7,93.4,218.9z"/>
				<path d="M115.5,223c0-0.5,0-0.6,0-0.9c0-0.4-0.1-0.6-0.6-0.8c-0.2-0.1-0.4-0.2-0.5-0.3c-0.3-0.1-0.7-0.2-1-0.3
					c-0.7-0.1-1.4-0.1-2,0c-0.6,0.1-1.2,0.4-1.7,0.8c-0.5,0.4-0.9,1-1.3,1.7c-0.4,0.7-0.6,1.5-0.8,2.5c-0.4,2.1-0.2,3.7,0.4,4.9
					s1.8,1.9,3.5,2.2c0.5,0.1,1,0.1,1.6,0.1c0.5,0,1-0.1,1.7-0.2c0.3,0,0.4,0.2,0.4,0.2l0,0.3c0,0,0,0.3-0.2,0.4
					c-0.6,0.2-1.2,0.4-1.9,0.5c-0.8,0.1-1.7,0.1-2.7-0.1c-0.9-0.2-1.8-0.5-2.6-0.9c-0.8-0.4-1.4-0.9-1.9-1.6c-0.5-0.7-0.9-1.5-1-2.5
					c-0.2-1-0.2-2.1,0.1-3.4c0.2-1.3,0.6-2.4,1.2-3.2c0.5-0.9,1.2-1.5,2-2c0.8-0.5,1.7-0.8,2.6-0.9s2-0.1,3.1,0.1
					c0.7,0.1,1.4,0.3,2,0.6c0.4,0.2,0.8,0.4,1.2,0.5c0.5,0.3,0.4,0.7,0.4,0.7l-0.6,1.9c0,0-0.1,0.4-0.5,0.4
					c-0.3-0.1-0.5-0.1-0.5-0.1S115.6,223.4,115.5,223z"/>
				<path d="M137.3,223.4c-0.1-0.5-0.1-0.5-0.2-0.9c-0.1-0.4-0.3-0.5-0.8-0.7c-0.2-0.1-0.4-0.1-0.6-0.1c-0.3-0.1-0.7-0.1-1.1-0.1
					c-0.7,0-1.4,0.2-2,0.5c-0.6,0.3-1,0.7-1.4,1.2s-0.7,1.2-0.9,1.9c-0.2,0.8-0.2,1.6-0.2,2.6c0.1,2.1,0.6,3.6,1.6,4.6
					c0.9,1,2.2,1.4,3.9,1.3c0.5,0,1-0.1,1.6-0.3c0.5-0.1,1-0.3,1.6-0.6c0.3-0.1,0.4,0.1,0.4,0.1l0.1,0.2c0,0,0.1,0.3-0.1,0.4
					c-0.5,0.3-1.1,0.6-1.8,0.9c-0.8,0.3-1.7,0.5-2.7,0.5c-1,0.1-1.9,0-2.7-0.2c-0.9-0.2-1.6-0.6-2.2-1.1s-1.2-1.2-1.6-2.1
					c-0.4-0.9-0.6-2-0.7-3.3c-0.1-1.3,0-2.5,0.4-3.4c0.3-1,0.8-1.8,1.5-2.5s1.4-1.2,2.4-1.5c0.9-0.4,1.9-0.6,3-0.6
					c0.8,0,1.5,0,2.1,0.1c0.5,0.1,0.9,0.1,1.3,0.2c0.6,0.1,0.5,0.6,0.5,0.6l-0.1,2c0,0,0,0.4-0.4,0.5c-0.3,0-0.5,0-0.5,0
					S137.5,223.9,137.3,223.4z"/>
				<path d="M158.6,219c-0.2-0.4-0.3-0.5-0.4-0.8c-0.2-0.4-0.4-0.5-0.9-0.5c-0.2,0-0.4,0-0.6,0c-0.3,0-0.7,0.1-1.1,0.2
					c-0.7,0.2-1.3,0.5-1.8,0.9c-0.5,0.4-0.9,0.9-1.1,1.5c-0.3,0.6-0.4,1.3-0.4,2.1c0,0.8,0.1,1.7,0.4,2.6c0.6,2,1.4,3.4,2.5,4.2
					c1.1,0.8,2.5,0.9,4.1,0.5c0.5-0.1,1-0.3,1.5-0.6c0.4-0.2,0.9-0.5,1.4-0.9c0.3-0.2,0.4,0,0.4,0l0.1,0.2c0,0,0.2,0.2,0,0.5
					c-0.4,0.4-0.9,0.8-1.5,1.2c-0.7,0.5-1.5,0.8-2.5,1.1c-0.9,0.2-1.8,0.4-2.7,0.3s-1.7-0.2-2.4-0.6c-0.8-0.4-1.4-1-2-1.8
					s-1.1-1.8-1.4-3.1c-0.4-1.3-0.5-2.4-0.4-3.4s0.4-1.9,0.9-2.7c0.5-0.8,1.1-1.4,2-2c0.8-0.5,1.8-1,2.8-1.2
					c0.7-0.2,1.4-0.3,2.1-0.4c0.5,0,0.9,0,1.3,0c0.6,0,0.7,0.5,0.7,0.5l0.3,1.9c0,0,0.1,0.4-0.3,0.5c-0.3,0.1-0.5,0.1-0.5,0.1
					S158.8,219.4,158.6,219z"/>
				<path d="M176.3,215.5l-6.3-2.9c-0.1-0.1-0.4-0.1-0.5,0l-1,0.3c-0.1,0-0.3,0-0.4-0.1l-0.2-0.3c-0.1-0.1,0-0.3,0.1-0.4l4.5-2.6
					c0.1-0.1,0.3,0,0.4,0.1l0.2,0.3c0.1,0.1,0,0.3-0.1,0.4l-0.6,0.5c-0.1,0.1-0.1,0.2,0,0.3l4.5,2.1l0.5-5c0-0.1-0.1-0.2-0.2-0.2
					l-0.8,0.2c-0.1,0-0.3,0-0.4-0.1l-0.2-0.3c-0.1-0.1,0-0.3,0.1-0.4l3.6-2c0.1-0.1,0.3,0,0.4,0.1l0.2,0.3c0.1,0.1,0,0.3-0.1,0.4
					l-0.8,0.7c-0.1,0.1-0.2,0.3-0.2,0.4l-0.7,6.4l7,3.2c0.1,0.1,0.4,0.1,0.5,0l1-0.3c0.1,0,0.3,0,0.4,0.1l0.2,0.3
					c0.1,0.1,0,0.3-0.1,0.4l-4.6,2.6c-0.1,0.1-0.3,0-0.4-0.1l-0.2-0.3c-0.1-0.1,0-0.3,0.1-0.4l0.6-0.5c0.1-0.1,0.1-0.2,0-0.3
					l-5.2-2.5l-0.6,5.9c0,0.1,0.1,0.2,0.2,0.2l0.8-0.2c0.1,0,0.3,0,0.4,0.1l0.2,0.3c0.1,0.1,0,0.3-0.1,0.4l-3.6,2.1
					c-0.1,0.1-0.3,0-0.4-0.1l-0.2-0.3c-0.1-0.1,0-0.3,0.1-0.4l0.8-0.7c0.1-0.1,0.2-0.3,0.2-0.4L176.3,215.5z"/>
				<path d="M191.9,196.3c0.1,0.1,0.1,0.3,0,0.4l-0.7,0.9c-0.1,0.1-0.1,0.3,0,0.4l7.6,8.6c0.1,0.1,0.3,0.1,0.4,0.1l1-0.6
					c0.1-0.1,0.3,0,0.4,0.1l0.2,0.2c0.1,0.1,0.1,0.3,0,0.4l-3.9,3.4c-0.1,0.1-0.3,0.1-0.4,0l-0.2-0.2c-0.1-0.1-0.1-0.3,0-0.4
					l0.7-0.9c0.1-0.1,0.1-0.3,0-0.4l-7.6-8.6c-0.1-0.1-0.3-0.1-0.4-0.1l-1,0.6c-0.1,0.1-0.3,0-0.4-0.1l-0.2-0.2
					c-0.1-0.1-0.1-0.3,0-0.4l3.9-3.4c0.1-0.1,0.3-0.1,0.4,0L191.9,196.3z"/>
			</g>
			<g>
				<path d="M62.9,61.9c0.1,0,0.3,0,0.4-0.1l2.2-2.3c0.1-0.1,0.1-0.3,0-0.4l-0.2-0.2c-0.1-0.1-0.3-0.1-0.4,0L64,59.4
					c-0.1,0.1-0.3,0.1-0.5,0.1l-6.5-1c-0.1,0-0.2-0.1-0.1-0.3c0,0,0.8-1.7,0.8-2.6c0-0.9-0.4-1.7-1.2-2.4c-0.5-0.5-1.1-0.8-1.6-0.9
					c-0.5-0.1-1.1,0-1.6,0.2s-1,0.5-1.5,0.9s-1.2,1.1-1.2,1.1c-0.1,0.1-0.3,0.3-0.4,0.4l-3.8,4c-0.1,0.1-0.1,0.3,0,0.4l0.2,0.2
					c0.1,0.1,0.3,0.1,0.4,0l0.9-0.7c0.1-0.1,0.3-0.1,0.4,0l8.3,7.9c0.1,0.1,0.1,0.3,0,0.4L56.1,68c-0.1,0.1-0.1,0.3,0,0.4l0.2,0.2
					c0.1,0.1,0.3,0.1,0.4,0l3.6-3.7c0.1-0.1,0.1-0.3,0-0.4l-0.2-0.2c-0.1-0.1-0.3-0.1-0.4,0l-0.9,0.6c-0.1,0.1-0.3,0.1-0.4,0
					l-3.8-3.6l0.6-0.6c0.1-0.1,0.3-0.2,0.4-0.1L62.9,61.9z M54.1,60.4c-0.1,0.1-0.2,0.2-0.2,0.2l-4.1-3.9l0.7-0.8
					c0.1-0.1,0.3-0.3,0.4-0.4c0,0,0.5-0.4,0.8-0.7c0.3-0.2,0.6-0.4,1-0.5c0.3-0.1,0.7,0,1,0.1c0.4,0.1,0.7,0.4,1.1,0.7
					c0.8,0.8,1.2,1.5,1.2,2.3c0,0.7-1,2-1,2c-0.1,0.1-0.2,0.3-0.3,0.4L54.1,60.4z"/>
			</g>
		</g>
	</g>
</g>
</svg>
