<?xml version="1.0" encoding="UTF-8" standalone="no"?>
<!-- Generator: Adobe Illustrator 26.3.1, SVG Export Plug-In . SVG Version: 6.00 Build 0)  -->

<svg
        version="1.1"
        id="affiliation"
        x="0px"
        y="0px"
        viewBox="0 0 256 256"
        style="enable-background:new 0 0 256 256;"
        xmlns="http://www.w3.org/2000/svg">
  <defs
          id="defs1" />
  <style
          type="text/css"
          id="style1"> .st0{fill:#FFFFFF;} .st1{display:none;fill:#FFFFFF;}        .st2{fill:#BF0028;}</style>

  <rect
          id="black"
          width="256"
          height="256" />
  <circle
          id="background"
          class="st0"
          cx="128"
          cy="128"
          r="128" />
  <g       id="logo">
    <g>
      <path
              d="m 50.45033,113.12432 h 77.83303 0.12002 v 7.83728 a 9.0768547,9.0768547 0 0 0 -7.83728,-1.79938 c -5.35814,1.61944 -6.9176,-0.65977 -6.95759,-0.69975 a 7.217499,7.217499 0 0 1 -4.87831,3.99861 l -0.12002,2.23923 h -9.81661 l -0.81971,6.15786 h 9.99654 v 0 l -0.3199,3.35883 H 97.574 l -0.95966,6.85763 h 10.47637 l -0.39987,4.49844 h 19.91311 a 2.7990302,2.7990302 0 0 0 1.73938,1.55946 v 83.691 c -8.65699,-6.47776 -29.9896,-6.21784 -29.9896,-6.21784 a 178.43817,178.43817 0 0 1 -18.87346,-0.81972 41.985451,41.985451 0 0 1 -18.35364,-5.53809 l -0.459841,-0.27989 A 42.665216,42.665216 0 0 1 52.029782,210.4106 42.945118,42.945118 0 0 1 41.373474,189.3579 v -0.12002 a 58.879598,58.879598 0 0 1 -1.4395,-14.395 77.633099,77.633099 0 0 1 1.999307,-19.69319 v 0 c 3.078933,-11.33606 4.278516,-16.95412 4.278516,-16.95412 a 175.45919,175.45919 0 0 0 3.858664,-22.63216 c 0,-0.81972 0.139946,-1.61944 0.219924,-2.41916 z"
              fill="#e82c2e"
              stroke-width="1.9993"
              id="path51" />
      <path
              d="m 132.36195,113.14431 h 77.97298 c 0,0.77973 0.13991,1.63943 0.21993,2.45915 a 175.45919,175.45919 0 0 0 3.77867,22.69213 c 0,0 1.19959,5.59807 4.27852,16.95413 v 0 a 78.072946,78.072946 0 0 1 1.99932,19.69318 57.759986,57.759986 0 0 1 -1.39952,14.35502 v 0.12002 a 42.985104,42.985104 0 0 1 -10.63632,21.13268 43.804821,43.804821 0 0 1 -8.65699,7.55738 l -0.45984,0.27991 a 41.985451,41.985451 0 0 1 -18.35364,5.53807 178.71807,178.71807 0 0 1 -18.91344,0.8997 c 0,0 -21.29263,-0.25991 -29.98962,6.21785 V 147.1326 a 2.8390162,2.8390162 0 0 0 1.77939,-1.57945 v 0 h 19.99307 l -0.39986,-4.43847 h 10.47636 l -0.91968,-6.79764 H 152.9748 l -0.37987,-3.4588 v 0 h 9.99655 l -0.81973,-6.17786 h -9.63666 l -0.19992,-2.27921 a 7.1975059,7.1975059 0 0 1 -4.83833,-3.99862 c 0,0 -1.65942,2.3192 -6.95759,0.69976 a 9.0968477,9.0968477 0 0 0 -7.99723,1.85936 v -7.75732 z"
              fill="#003660"
              stroke-width="1.9993"
              id="path52" />
      <path
              d="m 131.22234,139.37522 v -15.43465 c 3.73871,-3.57876 6.59772,-3.53878 8.81695,-2.91899 a 10.436384,10.436384 0 0 0 5.31816,0.33988 l 0.93967,15.49463 v 0 a 7.8172912,7.8172912 0 0 1 -6.19785,0 9.8565845,9.8565845 0 0 0 -8.87693,2.35918"
              fill="#ffffff"
              stroke-width="1.9993"
              id="path53" />
      <polygon
              fill="#ffcb05"
              points="36.45,52.55 36.31,54.13 32.24,54.13 32.45,52.56 "
              transform="matrix(1.9993072,0,0,1.9993072,34.63581,30.892814)"
              id="polygon53" />
      <polygon
              fill="#ffcb05"
              points="33.08,47.82 36.87,47.82 36.76,49.12 32.92,49.12 "
              transform="matrix(1.9993072,0,0,1.9993072,34.63581,30.892814)"
              id="polygon54" />
      <path
              d="m 147.25678,121.8413 a 7.3974366,7.3974366 0 0 0 2.87901,1.83936 v 0 l 1.51947,17.77384 a 7.3774436,7.3774436 0 0 1 -3.33885,-3.07894 l -1.03963,-16.59424 z"
              fill="#ffcb05"
              stroke-width="1.9993"
              id="path54" />
      <path
              d="m 115.24787,121.36146 a 10.416391,10.416391 0 0 0 5.35815,-0.31989 c 2.19924,-0.61978 5.07823,-0.67976 8.83694,2.91899 v 15.43465 a 9.8565845,9.8565845 0 0 0 -8.83694,-2.39916 7.8372843,7.8372843 0 0 1 -6.19785,0 z"
              fill="#ffffff"
              stroke-width="1.9993"
              id="path55" />
      <path
              d="m 110.46954,123.72064 v 0 a 7.5173952,7.5173952 0 0 0 2.87899,-1.83936 l -1.03964,16.57425 a 7.3774436,7.3774436 0 0 1 -3.35883,3.07893 z"
              fill="#ffcb05"
              stroke-width="1.9993"
              id="path56" />
      <path
              d="m 126.60395,143.57377 h -17.99377 a 8.7369724,8.7369724 0 0 0 5.53807,-4.71838 l 1.09962,0.2999 a 10.496363,10.496363 0 0 0 5.35815,-0.2999 c 2.19924,-0.63977 5.07823,-0.69974 8.81694,2.87901 v 0 a 3.7187113,3.7187113 0 0 0 -2.73905,1.77939"
              fill="#ffcb05"
              stroke-width="1.9993"
              id="path57" />
      <path
              d="m 130.30265,145.45312 v 0 c -1.1396,0 -1.9993,-0.43986 -1.9993,-0.93968 0,-0.49983 0.91967,-0.93967 1.9993,-0.93967 1.07963,0 1.99932,0.43984 1.99932,0.93967 0,0.49982 -0.8997,0.93968 -1.99932,0.93968"
              fill="#ffcb05"
              stroke-width="1.9993"
              id="path58" />
      <polygon
              fill="#231f20"
              points="62.2,48.18 61.15,48.18 61.23,48.77 62.26,48.77 "
              transform="matrix(1.9993072,0,0,1.9993072,34.63581,30.892814)"
              id="polygon58" />
      <polygon
              fill="#231f20"
              points="62.85,53.01 61.82,53.01 61.89,53.63 62.92,53.63 "
              transform="matrix(1.9993072,0,0,1.9993072,34.63581,30.892814)"
              id="polygon59" />
      <path
              d="m 215.51314,117.66274 c 0,0 -1.25957,-11.63596 -1.39952,-17.833816 v -0.39986 C 213.47384,69.77934 226.10946,53.445 226.10946,53.445 l -22.4722,-22.552186 c 0,0 -12.23577,6.89761 -32.48875,6.737666 A 66.856833,66.856833 0 0 1 147.89656,34.271643 54.401149,54.401149 0 0 0 130.40263,31.972441 49.082991,49.082991 0 0 0 112.90869,34.271643 66.83684,66.83684 0 0 1 89.65674,37.63048 C 69.40376,37.790424 57.168002,30.892814 57.168002,30.892814 L 34.63581,53.385021 c 0,0 12.695601,16.394319 11.995842,45.984063 v 0.39986 c 0,6.257836 -1.359528,17.893796 -1.359528,17.893796 a 225.6618,225.6618 0 0 1 -7.857278,37.04717 c 0,0 -8.577027,35.34775 9.336764,56.46043 9.656655,11.39606 18.4736,17.71386 44.30465,17.99377 30.38946,0.21991 34.9079,3.99861 39.26639,10.77626 v 0 0 h 0.17994 v 0 0 c 4.33849,-6.85762 8.85693,-10.55635 39.2464,-10.77626 25.83104,-0.17995 34.64799,-6.49775 44.30465,-17.99377 17.99377,-21.11268 9.33676,-56.46043 9.33676,-56.46043 a 224.62217,224.62217 0 0 1 -7.87726,-37.04717 z M 40.453793,54.104771 v 0 h -0.439847 0.439847 v 0 L 58.047697,36.53086 v 0 c 20.572873,8.597021 44.844463,4.798338 44.844463,4.798338 a 39.066462,39.066462 0 0 0 8.67698,-1.999307 55.460782,55.460782 0 0 1 18.67354,-2.839017 h 0.23992 a 55.520761,55.520761 0 0 1 18.69351,2.898996 39.106448,39.106448 0 0 0 8.69699,1.999307 c 0,0 24.27159,3.738704 44.70452,-5.038253 v 0 l 17.5739,17.533924 v 0.159938 c -0.77973,1.219576 -7.17751,11.496015 -9.99654,29.449795 a 103.6041,103.6041 0 0 0 -0.21991,25.651109 H 50.630268 A 105.56342,105.56342 0 0 0 50.410344,83.494588 C 47.631306,65.500822 41.173544,55.224384 40.453793,54.104771 Z M 151.87519,143.55378 h -17.8938 a 3.7786906,3.7786906 0 0 0 -2.73905,-1.77939 c 0,0 0,0 0,0 v 0 0 c 3.71871,-3.57876 6.59771,-3.51878 8.79695,-2.879 a 10.436384,10.436384 0 0 0 5.31816,0.31988 l 1.0996,-0.29988 a 8.8369379,8.8369379 0 0 0 5.41814,4.63839 z m -0.21993,-1.99931 a 7.3374575,7.3374575 0 0 1 -3.33885,-3.07893 l -1.03963,-16.57426 a 7.4174297,7.4174297 0 0 0 2.879,1.83936 v 0 z m -5.35814,-4.69838 a 7.8172912,7.8172912 0 0 1 -6.19785,0 9.8565845,9.8565845 0 0 0 -8.87693,2.35918 v -15.2747 c 3.73871,-3.57876 6.61771,-3.53878 8.81695,-2.91899 a 10.396397,10.396397 0 0 0 5.31816,0.33988 l 0.95966,15.49463 z m -32.14887,1.99932 1.09962,0.29988 a 10.436384,10.436384 0 0 0 5.35815,-0.29988 c 2.21923,-0.63979 5.07823,-0.69976 8.81694,2.87899 a 3.7387045,3.7387045 0 0 0 -2.73905,1.77939 h -17.99376 a 8.7369724,8.7369724 0 0 0 5.4581,-4.65838 z m -3.65872,-15.21474 v 0 a 7.4774089,7.4774089 0 0 0 2.87899,-1.83936 l -1.03962,16.57425 a 7.3974366,7.3974366 0 0 1 -3.35884,3.07894 z m 9.99653,13.27539 a 7.8572773,7.8572773 0 0 1 -6.21784,0 l 0.93967,-15.57459 a 10.396397,10.396397 0 0 0 5.39813,-0.2999 c 2.21923,-0.61978 5.07823,-0.67976 8.83694,2.91899 v 15.43465 a 9.8565845,9.8565845 0 0 0 -8.83694,-2.37917 z m 7.87727,93.96744 c -8.65699,-6.47775 -29.98961,-6.21784 -29.98961,-6.21784 a 178.43817,178.43817 0 0 1 -18.87346,-0.81971 41.985451,41.985451 0 0 1 -18.353637,-5.53807 l -0.45984,-0.27991 A 42.665216,42.665216 0 0 1 52.049776,210.47058 42.945118,42.945118 0 0 1 41.373474,189.3579 v -0.12002 a 58.879598,58.879598 0 0 1 -1.4395,-14.395 77.633099,77.633099 0 0 1 1.999307,-19.69319 v 0 c 3.078933,-11.33606 4.278516,-16.95412 4.278516,-16.95412 a 175.45919,175.45919 0 0 0 3.858664,-22.63216 c 0,-0.81972 0.139946,-1.61944 0.219924,-2.41916 h 0.159938 77.833037 0.12002 v 7.83728 a 9.0768547,9.0768547 0 0 0 -7.8373,-1.79937 c -5.35814,1.61943 -6.9176,-0.65978 -6.95758,-0.69976 a 7.217499,7.217499 0 0 1 -4.87832,3.99861 l -0.12002,2.21923 h -9.81659 l -0.81971,6.15787 h 9.99654 v 0 l -0.3199,3.35882 H 97.574 l -0.95966,6.85763 h 10.47637 l -0.39987,4.49845 h 19.91311 a 2.7990302,2.7990302 0 0 0 1.73938,1.55945 z m -19.99307,-104.40381 -0.21992,2.5991 h -7.69733 l 0.31988,-2.5991 z m -0.83971,9.45672 -0.27991,3.15891 h -8.15717 l 0.41986,-3.13891 z m 22.7921,9.49672 c -1.13961,0 -1.99931,-0.43985 -1.99931,-0.93969 0,-0.49982 0.91969,-0.93966 1.99931,-0.93966 1.07962,0 1.99932,0.43984 1.99932,0.93966 0,0.49984 -0.87971,0.95968 -2.01932,0.95968 z m 88.98916,43.8448 v 0.12002 a 42.985104,42.985104 0 0 1 -10.73628,21.15267 43.804821,43.804821 0 0 1 -8.65699,7.55738 l -0.45984,0.27989 a 41.985451,41.985451 0 0 1 -18.35364,5.53809 178.71807,178.71807 0 0 1 -18.91346,0.8997 c 0,0 -21.29261,-0.25991 -29.9896,6.21785 V 147.1326 a 2.8390162,2.8390162 0 0 0 1.77939,-1.57945 v 0 h 19.99307 l -0.39986,-4.43847 h 10.47636 l -0.91968,-6.79764 H 152.9748 l -0.37987,-3.4588 v 0 h 9.99655 l -0.81973,-6.17786 h -9.63666 l -0.19992,-2.27921 a 7.1975059,7.1975059 0 0 1 -4.83833,-3.99862 c 0,0 -1.65942,2.3192 -6.95759,0.69976 a 9.0968477,9.0968477 0 0 0 -7.99723,1.85936 v -7.75732 h 0.13991 77.97298 c 0,0.77973 0.13991,1.63944 0.21993,2.45915 a 175.45919,175.45919 0 0 0 3.77869,22.69214 c 0,0 1.19958,5.59806 4.27852,16.95412 v 0 a 78.072946,78.072946 0 0 1 1.9993,19.69319 57.759986,57.759986 0 0 1 -1.21957,14.27505 z m -62.11848,-59.97922 h -4.5984 l -0.2599,-2.69906 h 7.99723 l 0.2599,2.5991 h -3.37883 z m -4.11856,6.75766 h 8.37709 l 0.37987,3.1589 h -8.45707 z"
              fill="#231f20"
              stroke-width="1.9993"
              id="path59" />
      <path
              d="m 133.96139,143.57377 v 0 a 3.7586976,3.7586976 0 0 0 -2.73905,-1.77939 c 0,0 0,0 0,0 v 0 0 c 3.7187,-3.57876 6.57772,-3.51878 8.79696,-2.87899 a 10.516356,10.516356 0 0 0 5.31816,0.31987 l 1.0996,-0.29988 a 8.8369379,8.8369379 0 0 0 5.41812,4.6184 z"
              fill="#ffcb05"
              stroke-width="1.9993"
              id="path60" />
      <path
              d="m 152.59493,129.19875 -0.23991,-2.69907 h 7.99723 l 0.23991,2.69907 z m 6.59772,-0.79973 -0.12002,-1.17959 h -1.99932 l 0.15998,1.17959 z"
              fill="#ffcb05"
              stroke-width="1.9993"
              id="path61" />
      <path
              d="m 153.09477,135.95641 h 8.3771 l 0.37986,3.1589 h -8.47706 z m 5.13821,0.93966 0.13991,1.25958 h 1.9993 l -0.0799,-1.29956 z"
              fill="#ffcb05"
              stroke-width="1.9993"
              id="path62" />
      <path
              d="M 50.630268,109.24566 H 210.15498 a 103.96397,103.96397 0 0 1 0.21993,-25.651108 c 2.73905,-17.993764 9.13684,-28.230218 9.99654,-29.449795 V 53.984819 L 202.71756,36.39091 v 0 c -20.49289,8.776957 -44.78448,4.978274 -44.78448,4.978274 a 39.04647,39.04647 0 0 1 -8.69698,-1.999307 55.520761,55.520761 0 0 0 -18.7535,-2.879003 h -0.23992 a 55.440789,55.440789 0 0 0 -18.67354,2.898996 39.006484,39.006484 0 0 1 -8.67698,1.999307 c 0,0 -24.27159,3.738704 -44.764491,-5.038253 v 0 l -17.593904,17.57391 v 0 h -0.439847 l 0.439847,0.09996 v 0 c 0.719751,1.119612 7.157521,11.396051 9.996537,29.449794 a 105.36349,105.36349 0 0 1 0.09996,25.731082 z"
              fill="#ffcb05"
              stroke-width="1.9993"
              id="path63" />
      <path
              d="m 89.53678,87.273278 v 0 l -2.09927,-25.731084 1.1796,-3.538774 h 0.53981 l 2.55911,-7.657347 h -5.55807 l -0.67977,1.899343 h -3.7587 v -1.899343 h -8.23714 v 1.899343 h -3.73871 l -0.67976,-1.899343 h -5.538081 l 2.53912,7.657347 h 0.559807 l 1.139604,3.538774 -2.099274,25.77107 v 0 a 2.6590786,2.6590786 0 0 0 -2.219229,2.659078 2.4991339,2.4991339 0 0 0 1.839363,2.419162 v 0 l -0.659773,9.116836 H 76.16142 v -6.357796 0 c 0,-0.61978 0.8597,-1.11961 1.47949,-1.11961 v 0 c 0.63978,0 1.49948,0.49983 1.49948,1.11961 v 6.337806 h 11.47602 l -0.71975,-9.196806 v 0 a 2.5191271,2.5191271 0 0 0 1.81937,-2.419166 2.6590786,2.6590786 0 0 0 -2.23922,-2.65908 M 67.42445,56.084085 66.164885,52.245416 h 1.539465 l 0.67976,1.859355 h 6.99758 v -1.839363 h 4.47845 v 1.839363 h 6.99757 l 0.65977,-1.859355 h 1.55947 l -1.25956,3.838669 H 87.43751 67.78432 Z m 19.27332,1.999307 -0.63978,2.099273 H 69.16385 l -0.65978,-2.099273 z m -17.05409,3.998614 h 15.99446 l 1.9993,25.251252 H 67.54441 Z m 19.49324,28.670067 h -8.637 a 16.414312,16.414312 0 0 0 1.47948,1.799381 h 5.99793 l 0.63978,7.07754 h -7.63736 v -4.47845 a 3.3188499,3.3188499 0 0 0 -3.37883,-2.97896 v 0 a 3.338843,3.338843 0 0 0 -3.37883,2.97896 v 4.47845 h -7.597364 l 0.579794,-7.17751 h 5.99793 a 12.315732,12.315732 0 0 0 1.4195,-1.799377 H 66.064919 A 0.73974366,0.73974366 0 0 1 65.325176,89.932356 0.81971596,0.81971596 0 0 1 66.064919,89.11264 H 89.11693 a 0.81971596,0.81971596 0 0 1 0.75974,0.819716 0.73974366,0.73974366 0 0 1 -0.75974,0.719751 M 74.92185,73.298121 h 5.53808 v -7.657347 a 2.7190578,2.7190578 0 0 0 -2.79903,-2.33919 2.6390855,2.6390855 0 0 0 -2.73905,2.33919 z m 1.69941,-7.497403 a 1.0796259,1.0796259 0 0 1 1.99931,0 v 5.997923 h -1.99931 z m -6.25783,19.353295 h 5.53808 v -7.717326 a 2.7390509,2.7390509 0 0 0 -2.79903,-2.359183 2.6390855,2.6390855 0 0 0 -2.73905,2.359183 z m 1.69941,-7.53739 a 1.0196467,1.0196467 0 0 1 1.03964,-0.739743 0.99965361,0.99965361 0 0 1 1.03964,0.739743 v 5.997923 h -1.99931 z m 12.85555,-0.159937 a 2.6390855,2.6390855 0 0 0 -2.71906,-2.359182 2.7390509,2.7390509 0 0 0 -2.79903,2.359182 v 7.697333 h 5.53808 z m -1.69942,6.177859 h -1.9993 v -5.997921 a 1.0796259,1.0796259 0 0 1 1.9993,0 z"
              fill="#231f20"
              stroke-width="1.9993"
              id="path64" />
      <path
              d="m 67.42445,56.084085 -1.259565,-3.838669 h 1.539465 l 0.65977,1.859355 h 6.99758 v -1.839363 h 4.47845 v 1.839363 h 6.99757 l 0.65977,-1.859355 h 1.55946 L 87.7974,56.084085 H 87.41752 67.76433 Z m 19.27332,1.999307 -0.63978,2.099273 H 69.16385 l -0.65978,-2.099273 z m -17.07408,3.998614 h 15.99445 l 1.99931,25.251252 H 67.54441 Z m 19.49324,28.670067 h -8.61701 a 16.574257,16.574257 0 0 0 1.47948,1.799381 h 5.99793 l 0.63978,7.07754 h -7.63736 v -4.47845 a 3.338843,3.338843 0 0 0 -3.37883,-2.95897 v 0 a 3.338843,3.338843 0 0 0 -3.37883,2.95897 v 4.49845 h -7.597364 l 0.559804,-7.17752 h 5.99792 a 11.855892,11.855892 0 0 0 1.41951,-1.799373 H 66.064919 A 0.73974366,0.73974366 0 0 1 65.325176,89.95235 0.79972289,0.79972289 0 0 1 66.064919,89.132634 H 89.11693 a 0.81971596,0.81971596 0 0 1 0.75974,0.819716 0.73974366,0.73974366 0 0 1 -0.75974,0.719751 M 74.90186,73.298121 h 5.53808 v -7.657347 a 2.7190578,2.7190578 0 0 0 -2.79903,-2.33919 2.6390855,2.6390855 0 0 0 -2.73905,2.33919 z m -4.55842,11.815905 h 5.53808 v -7.677339 a 2.7390509,2.7390509 0 0 0 -2.79903,-2.359183 2.6590786,2.6590786 0 0 0 -2.73905,2.359183 z m 14.55495,-7.697333 a 2.6390855,2.6390855 0 0 0 -2.71906,-2.359182 2.7390509,2.7390509 0 0 0 -2.79903,2.359182 v 7.697333 h 5.53809 z"
              fill="#e82c2e"
              stroke-width="1.9993"
              id="path65" />
      <path
              d="m 171.02856,87.273278 a 2.6590786,2.6590786 0 0 0 -2.21924,2.659078 2.5191271,2.5191271 0 0 0 1.77937,2.419158 v 0 l -0.71975,9.196816 h 11.51601 v -6.377786 c 0,-0.61979 0.87971,-1.11961 1.49948,-1.11961 v 0 c 0.61979,0 1.47949,0.49982 1.47949,1.11961 v 0 6.357786 h 11.536 l -0.73974,-9.196806 v 0 a 2.5191271,2.5191271 0 0 0 1.83936,-2.41916 2.6590786,2.6590786 0 0 0 -2.21923,-2.659078 v 0 L 192.801,61.542194 193.9406,58.00342 h 0.63979 l 2.53911,-7.657347 h -5.59805 l -0.67977,1.899343 h -3.7587 v -1.899343 h -8.23714 v 1.899343 h -3.7587 l -0.67977,-1.899343 h -5.51808 l 2.55912,7.657347 h 0.5398 l 1.13961,3.538774 -2.09928,25.77107 v 0 m 21.75247,-31.189193 h -19.6332 -0.37987 l -1.25956,-3.838669 h 1.55946 l 0.65976,1.859355 h 6.99759 v -1.839361 h 4.47844 v 1.839361 h 6.99759 l 0.67975,-1.859355 h 1.53946 l -1.25956,3.838669 z m -0.71976,1.879349 -0.65976,2.099273 h -16.81417 l -0.63979,-2.099273 z m 0.95968,29.249866 h -20.09305 l 1.99932,-25.251252 h 15.99445 z m -21.57252,3.398821 a 0.73974366,0.73974366 0 0 1 -0.75974,-0.719751 0.81971596,0.81971596 0 0 1 0.75974,-0.819716 h 23.13198 a 0.81971596,0.81971596 0 0 1 0.73974,0.819716 0.73974366,0.73974366 0 0 1 -0.73974,0.719751 h -8.63702 a 12.315732,12.315732 0 0 0 1.41952,1.799377 h 5.99792 l 0.57979,7.17751 h -7.59737 v -4.47845 a 3.338843,3.338843 0 0 0 -3.37881,-2.97896 v 0 a 3.3188499,3.3188499 0 0 0 -3.37883,2.97896 v 4.47845 h -7.63736 l 0.63978,-7.15752 h 5.99791 a 16.154402,16.154402 0 0 0 1.47949,-1.799373 h -8.617 M 185.64349,65.68076 a 2.6390855,2.6390855 0 0 0 -2.73907,-2.33919 2.7190578,2.7190578 0 0 0 -2.79902,2.33919 v 7.697333 h 5.51808 z m -1.69942,6.177859 h -1.9993 v -5.997921 a 1.0796259,1.0796259 0 0 1 1.9993,0 z m 6.25783,5.618054 a 2.6590786,2.6590786 0 0 0 -2.73905,-2.359183 2.7390509,2.7390509 0 0 0 -2.879,2.319197 v 7.697332 h 5.53808 z m -1.61944,6.137873 h -1.9993 v -5.997923 a 0.99965361,0.99965361 0 0 1 1.03964,-0.739743 1.0196467,1.0196467 0 0 1 1.03963,0.739743 z m -12.85554,1.519473 h 5.45811 v -7.697332 a 2.7390509,2.7390509 0 0 0 -2.79903,-2.359183 2.6390855,2.6390855 0 0 0 -2.71905,2.359183 z m 1.69941,-7.537388 a 1.0796259,1.0796259 0 0 1 1.9993,0 v 5.997921 h -1.9993 z"
              fill="#231f20"
              stroke-width="1.9993"
              id="path66" />
      <path
              d="m 192.801,56.124071 h -19.65319 -0.37987 l -1.25956,-3.838669 h 1.55946 l 0.63977,1.859355 h 7.01758 v -1.839361 h 4.47844 v 1.839361 h 6.99759 l 0.65975,-1.859355 h 1.53947 l -1.25956,3.838669 z m -0.71975,1.879349 -0.65976,2.099273 h -16.83417 l -0.63979,-2.099273 z m 0.93968,29.249866 h -20.09305 l 1.99932,-25.251252 h 15.99445 z m -21.57252,3.398821 a 0.73974366,0.73974366 0 0 1 -0.75974,-0.719751 0.81971596,0.81971596 0 0 1 0.75974,-0.819716 h 23.13198 a 0.79972289,0.79972289 0 0 1 0.73974,0.819716 0.73974366,0.73974366 0 0 1 -0.73974,0.719751 h -8.63702 a 11.855892,11.855892 0 0 0 1.41952,1.799377 h 5.99792 l 0.5598,7.17751 h -7.57738 v -4.47845 a 3.338843,3.338843 0 0 0 -3.37881,-2.95897 v 0 a 3.338843,3.338843 0 0 0 -3.37883,2.95897 v 4.49845 h -7.63736 l 0.63978,-7.17752 h 5.99791 a 16.594251,16.594251 0 0 0 1.47949,-1.799373 h -8.617 M 185.66348,65.68076 a 2.6390855,2.6390855 0 0 0 -2.73906,-2.33919 2.7190578,2.7190578 0 0 0 -2.79903,2.33919 v 7.697333 h 5.5181 z m 4.55841,11.795913 a 2.6590786,2.6590786 0 0 0 -2.73905,-2.359183 2.7390509,2.7390509 0 0 0 -2.79903,2.359183 v 7.697332 h 5.53808 z m -14.55494,7.697332 h 5.51808 v -7.737318 a 2.7390509,2.7390509 0 0 0 -2.79903,-2.359183 2.6390855,2.6390855 0 0 0 -2.71905,2.359183 z"
              fill="#e82c2e"
              stroke-width="1.9993"
              id="path67" />
      <path
              d="m 142.79833,81.215377 a 1.4395012,1.4395012 0 0 0 -1.05964,0.439848 l -1.29954,1.339536 a 1.4794873,1.4794873 0 0 1 -1.07963,0.439847 h -5.4581 l -0.8997,-15.134756 v 0 a 15.994458,15.994458 0 0 0 8.15718,-9.036868 3.2988569,3.2988569 0 0 0 0.81972,0.09996 5.538081,5.538081 0 0 0 5.67803,-5.997923 4.5384274,4.5384274 0 0 0 -0.45985,-1.999307 l 1.61945,-0.779729 -0.81973,-1.699412 -15.67455,7.837285 v 0 l -0.55982,-10.756269 a 0.77972982,0.77972982 0 0 0 -0.75974,-0.759735 0.75973673,0.75973673 0 0 0 -0.73974,0.759735 v 0 l -0.1,1.999307 v 0 c -0.75974,-0.359874 -2.75904,-1.079625 -5.55807,1.09962 a 5.6580394,5.6580394 0 0 1 -5.99793,0.999653 c 0.19994,0.439849 1.83937,5.997921 6.85763,5.498095 a 12.415698,12.415698 0 0 1 4.19855,0 v 0 l -0.15997,2.559113 -17.83383,8.896918 0.81971,1.679418 1.49948,-0.719751 v 0 a 5.6180532,5.6180532 0 0 0 5.19821,3.258871 6.3977831,6.3977831 0 0 0 4.63839,-2.359182 v 0 a 4.2785174,4.2785174 0 0 0 2.67907,0.639777 4.5784134,4.5784134 0 0 0 1.01965,0 l 1.1596,-0.139945 -0.8397,13.995151 h -4.57844 a 2.8190232,2.8190232 0 0 1 -1.47948,-0.579806 c -0.77973,-0.499827 -1.47949,-1.599444 -3.19889,-1.599444 h -15.97447 c -3.13891,0 -3.03895,5.178205 -0.19992,5.178205 3.21887,0 2.95896,2.719057 4.41846,2.719057 H 108.93 l 5.85796,8.417088 v 0 a 3.1589053,3.1589053 0 0 0 2.71906,1.35953 h 8.19715 l 3.65874,4.938276 a 0.53981294,0.53981294 0 0 0 0.47983,0.25991 c 0.31989,0 0.75974,-0.25991 0.75974,-0.5598 a 0.51981987,0.51981987 0 0 0 -0.15997,-0.37987 l -3.1589,-4.278516 h 3.99861 l 3.63874,4.938286 v 0 a 0.51981987,0.51981987 0 0 0 0.47983,0.25991 c 0.31989,0 0.77973,-0.25991 0.77973,-0.5598 a 0.57979908,0.57979908 0 0 0 -0.17993,-0.37987 l -3.15892,-4.278516 h 3.99863 l 3.7587,5.078236 a 0.55980601,0.55980601 0 0 0 0.49982,0.25991 c 0.31989,0 0.75974,-0.25991 0.75974,-0.55981 a 0.57979908,0.57979908 0 0 0 -0.15997,-0.39986 v 0 l -3.09893,-4.238526 h 3.99861 l 3.63875,4.938286 v 0 a 0.51981987,0.51981987 0 0 0 0.47983,0.25991 c 0.2999,0 0.75973,-0.25991 0.75973,-0.55981 a 0.51981987,0.51981987 0 0 0 -0.17994,-0.39986 v 0 l -3.1789,-4.298506 h 0.47983 a 3.2988569,3.2988569 0 0 0 3.37884,-3.27886 v -5.178209 c 0,-1.859356 0.43984,-3.418815 3.41881,-3.418815 h 3.99863 V 81.23537 Z M 126.38402,54.004806 a 6.9775822,6.9775822 0 0 1 -3.03895,-0.159937 4.8183304,4.8183304 0 0 1 -2.13925,-1.839363 h 0.43984 a 7.3774436,7.3774436 0 0 0 4.37848,-1.999307 3.05894,3.05894 0 0 1 3.99862,-0.259911 v 0 l -0.21993,4.378483 a 10.356411,10.356411 0 0 0 -3.39882,0 m -4.29851,11.695947 v 0 a 4.3384967,4.3384967 0 0 0 0.65978,1.799377 v 0 a 3.7387045,3.7387045 0 0 1 -6.81765,-0.499827 v 0 l 29.98961,-14.89484 v 0 a 3.6387392,3.6387392 0 0 1 0,0.479835 c 0,3.118919 -0.63978,5.518088 -5.4781,5.518088 a 5.4581087,5.4581087 0 0 1 -2.13926,-0.399862 v 0 a 4.9582818,4.9582818 0 0 0 1.37953,0.919681 12.415698,12.415698 0 0 1 -8.35711,8.317118 8.317118,8.317118 0 0 1 -9.19682,-1.29955 m 9.99654,17.793835 h -2.3192 l 0.55982,-14.335033 0.8597,-0.199931 h 0.19992 z m -14.27505,13.675261 a 1.9993072,1.9993072 0 0 1 -1.23957,-0.47983 l -5.37813,-7.477413 c -0.13992,-0.179938 0.2999,-0.499826 0.51981,-0.279902 l 5.778,5.598065 a 3.7586976,3.7586976 0 0 0 2.63909,1.09961 h 3.09892 l 1.07963,1.49948 z m 8.13718,0 -1.07963,-1.49948 h 3.99862 l 1.09962,1.49948 z m 5.63805,0 -1.03965,-1.53947 h 3.99861 l 1.07963,1.49948 z m 5.61804,0 -1.07961,-1.49948 h 3.99861 l 1.09962,1.49948 z m 8.83694,-1.7394 a 1.8593558,1.8593558 0 0 1 -1.65942,1.7394 h -1.53947 l -1.11961,-1.53947 a 2.9189885,2.9189885 0 0 0 2.39916,-1.9993 v -0.13995 l 2.19925,-4.678378 a 5.0582473,5.0582473 0 0 0 -0.2999,1.75939 z m 7.35746,-10.616317 h -7.19751 c -0.93968,0 -4.13857,2.67907 -4.13857,2.67907 a 0.75973673,0.75973673 0 0 1 -0.51981,0.199932 h -19.99307 a 1.6794181,1.6794181 0 0 1 -0.39986,-0.119953 l -5.23819,-2.639098 a 1.2995497,1.2995497 0 0 0 -0.71976,-0.199932 h -12.3957 c -0.91969,0 -0.95967,-1.619438 0,-1.619438 h 15.75454 a 1.5794527,1.5794527 0 0 1 0.75974,0.19993 l 2.13925,1.539468 a 3.3788292,3.3788292 0 0 0 1.71941,0.479833 h 16.87416 a 1.5194735,1.5194735 0 0 0 1.09962,-0.519819 v 0 c 0,0 1.9993,-1.759391 2.35918,-1.759391 h 9.85659 z m -12.9955,9.176817 c 0,0 -0.91969,-1.19958 -1.05963,-1.4395 -0.13992,-0.23992 0,-0.2999 0.15997,-0.2999 a 0.33988223,0.33988223 0 0 1 0.2799,0.15994 c 0.21992,0.2799 0.21992,0.41986 0.43985,0.41986 a 0.3598753,0.3598753 0 0 0 0.31989,-0.41986 c 0,-1.17959 -1.11961,-1.799375 -2.23923,-1.799375 -1.11961,0 -1.9993,0.559805 -1.9993,1.799375 a 0.51981987,0.51981987 0 0 0 0.51982,0.37987 c 0.41985,0 0.19993,-0.55981 0.5798,-0.55981 a 0.29989609,0.29989609 0 0 1 0.27989,0.13995 l 0.73975,0.97966 0.41985,0.59979 h -4.07858 c 0,0 -0.91969,-1.19958 -1.05963,-1.4395 -0.13991,-0.23992 0,-0.2999 0.15997,-0.2999 a 0.33988223,0.33988223 0 0 1 0.27991,0.15996 c 0.21991,0.2799 0.21991,0.41985 0.43984,0.41985 a 0.37986837,0.37986837 0 0 0 0.41985,-0.37987 c 0,-1.179588 -1.11961,-1.799373 -2.23922,-1.799373 -1.11962,0 -1.99931,0.559805 -1.99931,1.799373 a 0.4998268,0.4998268 0 0 0 0.51982,0.37987 c 0.41985,0 0.21993,-0.5598 0.57981,-0.5598 a 0.29989609,0.29989609 0 0 1 0.27989,0.13994 l 0.73974,0.97966 0.41987,0.59979 h -4.17855 c 0,0 -0.91969,-1.19958 -1.07963,-1.4395 -0.15997,-0.23992 0,-0.2999 0.15997,-0.2999 a 0.33988223,0.33988223 0 0 1 0.2999,0.15996 c 0.21991,0.2799 0.21991,0.41985 0.43984,0.41985 0.21992,0 0.41986,-0.29989 0.41986,-0.37987 0,-1.179587 -1.11962,-1.799372 -2.23923,-1.799372 -1.11961,0 -1.9993,0.559805 -1.9993,1.799372 a 0.51981987,0.51981987 0 0 0 0.51981,0.37987 c 0.41985,0 0.19994,-0.5598 0.57981,-0.5598 a 0.29989609,0.29989609 0 0 1 0.27989,0.13994 l 0.73974,0.97966 0.41986,0.59979 h -3.9986 c 0,0 -1.11961,-1.1396 -1.11961,-1.4395 0,-0.29989 0,-0.29989 0.15997,-0.29989 a 0.33988223,0.33988223 0 0 1 0.27991,0.15995 c 0.21993,0.2799 0.21993,0.41985 0.43984,0.41985 a 0.3598753,0.3598753 0 0 0 0.41986,-0.37986 c 0,-1.179595 -1.11962,-1.79938 -2.23923,-1.79938 -1.11961,0 -1.9993,0.559805 -1.9993,1.79938 a 0.4998268,0.4998268 0 0 0 0.51983,0.37986 c 0.39986,0 0.19992,-0.5598 0.57979,-0.5598 a 0.29989609,0.29989609 0 0 1 0.27991,0.13994 l 0.73974,0.97966 0.41985,0.5998 h -2.41917 c -0.41985,0 -0.8597,-0.41986 -1.15958,-0.69976 l -5.61806,-5.338149 a 2.8390162,2.8390162 0 0 0 -1.23957,-0.239917 h -4.19854 c -1.05964,0 -1.09962,-1.279556 0,-1.279556 h 7.03755 a 1.6194388,1.6194388 0 0 1 0.73975,0.179937 l 5.1982,2.759044 a 2.1992379,2.1992379 0 0 0 1.1596,0.31989 h 19.99307 a 2.0992725,2.0992725 0 0 0 1.57945,-0.45984 v 0 l 1.81938,-1.799377 -2.65908,5.418118 v 0.11996 a 1.399515,1.399515 0 0 1 -1.19959,1.01964 h -0.73974 z"
              fill="#231f20"
              stroke-width="1.9993"
              id="path68" />
      <path
              d="m 126.38402,54.004806 a 6.9975752,6.9975752 0 0 1 -3.03895,-0.159937 4.7983373,4.7983373 0 0 1 -2.11926,-1.839363 h 0.43984 a 7.3774436,7.3774436 0 0 0 4.37848,-1.999307 3.05894,3.05894 0 0 1 3.99862,-0.259911 v 0 l -0.21993,4.378483 a 10.356411,10.356411 0 0 0 -3.39882,0 m -4.29851,11.695947 v 0 a 4.438462,4.438462 0 0 0 0.65978,1.799377 v 0 a 3.5587669,3.5587669 0 0 1 -3.29887,1.9993 3.598753,3.598753 0 0 1 -3.51877,-2.479141 v 0 l 29.9896,-14.894838 v 0 a 4.7983373,4.7983373 0 0 1 0,0.479833 c 0,3.11892 -0.65977,5.518088 -5.47809,5.518088 a 5.4381157,5.4381157 0 0 1 -2.11928,-0.399861 v 0 a 4.9382888,4.9382888 0 0 0 1.35954,0.919681 12.395705,12.395705 0 0 1 -8.35711,8.317119 8.317118,8.317118 0 0 1 -9.19681,-1.29955 m 9.99653,17.793834 h -2.33919 l 0.55982,-14.335033 0.8597,-0.19993 h 0.19992 z m -14.27505,13.675264 a 1.9993072,1.9993072 0 0 1 -1.23956,-0.47984 l -5.39813,-7.497399 c -0.13992,-0.179938 0.27989,-0.499827 0.5398,-0.279903 l 5.778,5.598062 a 3.7387045,3.7387045 0 0 0 2.63909,1.09962 h 3.09892 l 1.07963,1.49948 z m 8.13718,0 -1.07963,-1.49948 h 3.99862 l 1.09962,1.49948 z m 5.63805,0 -1.05964,-1.55946 h 3.99861 l 1.07963,1.49948 z m 5.63805,0 -1.07963,-1.49948 h 3.99861 l 1.09962,1.49948 z m 8.83694,-1.7394 a 1.8593558,1.8593558 0 0 1 -1.65944,1.7394 h -1.53946 l -1.11962,-1.53947 a 2.9189885,2.9189885 0 0 0 2.39918,-1.99931 v -0.13994 l 2.15925,-4.698373 a 5.0582473,5.0582473 0 0 0 -0.2999,1.75939 z m 7.31746,-10.636314 h -7.19751 c -0.93968,0 -4.13857,2.67907 -4.13857,2.67907 a 0.75973673,0.75973673 0 0 1 -0.51981,0.199932 h -19.99307 a 1.6794181,1.6794181 0 0 1 -0.39986,-0.119953 l -5.23819,-2.639091 a 1.2995497,1.2995497 0 0 0 -0.71976,-0.199932 h -12.3957 c -0.91969,0 -0.95967,-1.619438 0,-1.619438 h 15.75454 a 1.5794527,1.5794527 0 0 1 0.75974,0.19993 l 2.11926,1.539468 a 3.3988223,3.3988223 0 0 0 1.71941,0.479833 h 16.87415 a 1.5194735,1.5194735 0 0 0 1.11962,-0.519819 v 0 c 0,0 1.9993,-1.759391 2.35918,-1.759391 h 9.85659 z m -12.9955,9.176824 c 0,0 -0.91969,-1.19959 -1.05963,-1.43951 -0.13992,-0.23991 0,-0.29989 0.15997,-0.29989 a 0.33988223,0.33988223 0 0 1 0.2799,0.15994 c 0.21992,0.2799 0.21992,0.41985 0.43985,0.41985 0.21991,0 0.41985,-0.2999 0.41985,-0.37987 0,-1.179591 -1.11961,-1.799376 -2.23922,-1.799376 -1.11962,0 -1.99931,0.559806 -1.99931,1.799376 a 0.51981987,0.51981987 0 0 0 0.51982,0.37987 c 0.41985,0 0.19993,-0.55981 0.5798,-0.55981 a 0.29989609,0.29989609 0 0 1 0.27991,0.13995 l 0.73973,0.97966 0.41987,0.59979 h -4.17856 c 0,0 -0.91969,-1.19958 -1.05963,-1.4395 -0.13991,-0.23992 0,-0.2999 0.15997,-0.2999 a 0.33988223,0.33988223 0 0 1 0.2999,0.15994 c 0.21991,0.2799 0.21991,0.41985 0.43984,0.41985 a 0.3598753,0.3598753 0 0 0 0.41986,-0.37986 c 0,-1.179595 -1.11962,-1.79938 -2.23923,-1.79938 -1.11961,0 -1.9993,0.559805 -1.9993,1.79938 a 0.4998268,0.4998268 0 0 0 0.51981,0.37986 c 0.41985,0 0.19994,-0.5598 0.57981,-0.5598 a 0.31988916,0.31988916 0 0 1 0.2799,0.13994 l 0.73975,0.97966 0.41985,0.5998 h -4.19854 c 0,0 -0.91969,-1.19959 -1.07963,-1.43951 -0.15997,-0.23991 0,-0.29989 0.15997,-0.29989 a 0.33988223,0.33988223 0 0 1 0.2999,0.15994 c 0.21991,0.2799 0.21991,0.41985 0.43984,0.41985 a 0.37986837,0.37986837 0 0 0 0.41986,-0.37987 c 0,-1.17959 -1.11962,-1.799375 -2.23923,-1.799375 -1.11961,0 -1.9993,0.559805 -1.9993,1.799375 a 0.51981987,0.51981987 0 0 0 0.51981,0.37987 c 0.41985,0 0.19994,-0.55981 0.57981,-0.55981 a 0.29989609,0.29989609 0 0 1 0.27989,0.13995 l 0.73974,0.97966 0.39986,0.59979 h -3.9986 c 0,0 -1.09963,-1.17959 -1.09963,-1.47949 0,-0.29989 0,-0.29989 0.13992,-0.29989 a 0.33988223,0.33988223 0 0 1 0.2799,0.15995 c 0.21992,0.2799 0.21992,0.41985 0.43985,0.41985 a 0.3598753,0.3598753 0 0 0 0.41985,-0.37986 c 0,-1.179595 -1.11961,-1.79938 -2.23922,-1.79938 -1.11962,0 -1.99931,0.559805 -1.99931,1.79938 a 0.51981987,0.51981987 0 0 0 0.51982,0.37986 c 0.39987,0 0.19993,-0.5598 0.5798,-0.5598 a 0.29989609,0.29989609 0 0 1 0.27991,0.13994 l 0.73975,0.97966 0.41985,0.5998 h -2.41917 c -0.41986,0 -0.8597,-0.41986 -1.1596,-0.69976 l -5.61803,-5.338109 a 2.8590093,2.8590093 0 0 0 -1.23956,-0.239917 h -4.19855 c -1.05964,0 -1.09962,-1.279556 0,-1.279556 h 7.05755 a 1.6194388,1.6194388 0 0 1 0.73974,0.179937 l 5.19821,2.759044 a 2.1792448,2.1792448 0 0 0 1.1596,0.31989 h 19.99307 a 2.0992725,2.0992725 0 0 0 1.57945,-0.45984 v 0 l 1.81937,-1.799377 -2.65908,5.418118 v 0.11996 a 1.399515,1.399515 0 0 1 -1.19958,1.01964 z"
              fill="#e82c2e"
              stroke-width="1.9993"
              id="path69" />
      <path
              d="m 57.02805,163.38689 c -0.299895,0 -2.359182,-0.75973 -2.359182,-0.75973 -1.09962,-0.2799 -2.239225,-3.11892 -2.239225,-3.11892 a 5.8579701,5.8579701 0 0 1 2.679072,-1.39951 c 0,0 2.539121,-0.23992 2.759044,-1.37952 a 3.9986144,3.9986144 0 0 0 0,-0.59979 c 0,0 0.279904,0.39985 7.437423,0.39985 7.157518,0 7.437418,-0.43985 7.437418,-0.43985 v 0.15997 c 0,1.4595 3.51879,1.85936 3.51879,1.85936 a 2.6990648,2.6990648 0 0 1 1.73939,1.23957 c 0.19993,0.55981 -0.49982,0.97967 -2.41916,3.09894 -0.51982,0.59978 -1.99931,0.35987 -2.63908,0.47983 l -0.1,0.19992 a 19.573217,19.573217 0 0 1 1.21958,2.65908 1.9993072,1.9993072 0 0 0 -0.8797,0.25992 2.1392588,2.1392588 0 0 0 -0.79972,0.93966 19.193349,19.193349 0 0 1 0.81972,1.99932 2.2992032,2.2992032 0 0 0 -1.4595,0.39986 4.138566,4.138566 0 0 1 0,3.69871 3.9986144,3.9986144 0 0 0 -2.11926,-0.61977 h -0.65977 c 0,3.13891 -1.13961,3.1589 -1.13961,3.1589 -1.07962,-1.43951 -3.438806,0.15997 -3.438806,0.15997 -1.319542,-0.49982 -2.099273,-2.99897 -2.099273,-2.99897 a 2.8989955,2.8989955 0 0 0 -1.739397,1.07963 8.876924,8.876924 0 0 1 -1.139606,-3.99862 3.3988223,3.3988223 0 0 0 -1.879348,1.11961 c -1.819369,-1.9993 0.379868,-5.1582 0.379868,-5.1582 a 9.3767508,9.3767508 0 0 1 -1.339536,0 c -1.019646,-0.25992 -1.29955,-0.12002 -1.359528,0 a 19.613203,19.613203 0 0 1 1.719405,-2.77904 m -3.89865,37.7869 a 2.4591479,2.4591479 0 0 1 0,-1.19958 v 0 a 2.5591132,2.5591132 0 0 0 -1.859355,1.01965 4.6783789,4.6783789 0 0 1 1.999307,0.19992 z m 0.659771,3.63875 a 2.2392241,2.2392241 0 0 1 -0.479833,-1.11961 2.4591479,2.4591479 0 0 0 -1.259564,1.63942 v 0 a 5.2381848,5.2381848 0 0 1 1.739397,-0.61979 m 33.32845,-1.03963 a 3.8186767,3.8186767 0 0 1 0,-0.55981 3.1988916,3.1988916 0 0 1 0,-0.59978 2.4991339,2.4991339 0 0 0 -1.63943,1.05962 7.4574159,7.4574159 0 0 1 1.67942,0 m 23.99168,0.17996 a 2.2992032,2.2992032 0 0 1 0,-1.1596 2.4391548,2.4391548 0 0 0 -1.69941,1.21958 6.4777554,6.4777554 0 0 1 1.73939,0 M 67.22449,146.47275 c 2.69906,-0.21991 4.25852,0.49984 5.1982,2.49915 a 1.8193695,1.8193695 0 0 0 0.51982,-1.09962 c 0,-0.5998 -0.41986,-1.63943 -2.83902,-2.35918 -2.41916,-0.71976 -2.879,0.77973 -2.879,0.95965 m -7.457419,8.71699 a 16.614243,16.614243 0 0 0 4.118573,0.19994 c 0.379868,0 0.759737,-0.21993 0.759737,-0.97967 a 0.69975752,0.69975752 0 0 0 -0.759737,-0.73975 26.310883,26.310883 0 0 0 -3.998614,0 c -0.419855,0.19994 -0.399863,1.29955 0,1.55946 m -0.179939,-2.91899 c 0.239917,0.23992 1.539467,0.15997 1.539467,0.15997 a 1.5394666,1.5394666 0 0 0 -1.579453,-1.65944 c 0,0 -0.19993,1.25956 0,1.49948 m 6.577722,2.13927 c 0,0.75974 0.379869,0.89968 0.739743,0.97965 a 16.434305,16.434305 0 0 0 4.11857,-0.19992 c 0.31989,-0.25992 0.33988,-1.35954 0,-1.55946 a 26.150939,26.150939 0 0 0 -3.99861,0 0.69975752,0.69975752 0 0 0 -0.739745,0.73975 m 4.878305,-3.55878 a 1.5394666,1.5394666 0 0 0 -1.57945,1.65943 c 0,0 1.29955,0 1.53947,-0.15997 0.23991,-0.15997 0,-1.49948 0,-1.49948 m -4.778346,-3.07893 -0.559806,1.9993 1.999312,-0.65977 v 2.35918 l -1.999312,-0.63977 0.519819,1.77937 h 1.999303 a 2.5990994,2.5990994 0 0 1 2.55912,-2.89898 c 0.87969,0 -0.8597,-1.99931 -3.09893,-1.99931 a 4.4784481,4.4784481 0 0 0 -1.439499,0.21992 m -3.558767,-0.21992 c -2.239223,0 -3.998614,1.99931 -3.098926,1.99931 a 2.5990994,2.5990994 0 0 1 2.579105,2.89898 h 1.999309 l 0.519819,-1.77937 -1.999307,0.63977 v -2.61908 l 1.999307,0.65976 -0.559805,-1.99931 a 4.458455,4.458455 0 0 0 -1.439502,-0.21991 m -4.518435,1.49946 c 0.939676,-1.9993 2.499134,-2.71905 5.1982,-2.49912 0,-0.15997 -0.619785,-1.63943 -2.879002,-0.95968 -2.259218,0.67977 -2.839017,1.7594 -2.839017,2.3592 a 1.8193695,1.8193695 0 0 0 0.519819,1.0996 m 4.898304,33.58837 a 7.6373536,7.6373536 0 0 1 0.779729,1.61944 c 1.099619,-0.79972 1.539466,-1.17959 1.539466,-0.93967 0,0.23991 -0.479833,1.03963 1.759392,3.63873 3.13891,-1.31953 2.35918,-4.99827 2.15925,-5.99793 1.75939,-0.12002 3.99862,2.11928 3.99862,2.11928 a 8.9768894,8.9768894 0 0 0 1.25956,-3.11892 22.212303,22.212303 0 0 0 -0.1,-2.45916 6.2778246,6.2778246 0 0 1 3.19889,-1.23956 c -1.05964,-3.05894 0.41985,-3.99861 0.41985,-3.99861 0,0 -1.27955,-1.19958 -0.33988,-3.99863 a 4.6783789,4.6783789 0 0 1 1.25956,-2.17923 l -0.65977,-0.2999 A 2.8390162,2.8390162 0 0 1 77.181,164.28657 l -0.39987,-0.49983 c -0.89968,0.49983 -1.29954,0.39986 -1.29954,0.39986 1.21957,2.15926 1.05963,3.05894 1.05963,3.05894 -1.23957,-0.45984 -1.75939,0.12002 -1.75939,0.12002 v 0.23992 c 0.91968,2.23923 0.37987,3.05894 0.19993,2.97897 -0.59979,-0.25991 -0.79972,-0.13991 -0.79972,-0.13991 0,0.69976 0,0.67977 0,0.67977 a 5.4381157,5.4381157 0 0 1 -2.53912,4.8583 1.6794181,1.6794181 0 0 0 -1.29955,-1.55946 4.438462,4.438462 0 0 1 -2.63909,3.67874 c -0.67976,-2.43915 -3.77869,0.15997 -3.77869,0.15997 a 29.329837,29.329837 0 0 0 -2.259218,-3.03895 c -0.439846,0.35988 -0.639777,1.9993 -0.639777,1.9993 a 6.8176375,6.8176375 0 0 1 -2.639086,-4.37847 1.5394666,1.5394666 0 0 0 -0.639778,1.11961 c -1.699411,-0.57981 -2.219232,-2.95898 -2.219232,-2.95898 a 5.9979215,5.9979215 0 0 1 -1.739396,3.51878 c 0.339882,1.4595 2.359181,0.81971 2.359181,0.81971 a 7.9972289,7.9972289 0 0 1 -0.239916,3.99863 c 1.659424,0.21991 1.999307,-0.23993 1.999307,-0.23993 a 6.1178801,6.1178801 0 0 1 3.238878,4.69837 6.6177068,6.6177068 0 0 0 1.999307,-1.55946 m -6.817638,24.79142 a 2.1592518,2.1592518 0 0 1 -0.679764,-0.99966 2.4991339,2.4991339 0 0 0 -0.859702,1.9993 v 0 a 5.7380117,5.7380117 0 0 1 1.49948,-0.99964 m 6.957589,-7.99723 a 11.575989,11.575989 0 0 1 3.998615,-1.81938 c -1.339535,-1.17959 1.23957,-4.93829 1.23957,-4.93829 a 6.7176722,6.7176722 0 0 0 0.67977,0.77973 c 0.69975,-1.17959 1.4395,-2.2992 1.4395,-2.2992 a 12.175781,12.175781 0 0 0 -1.99931,-2.879 c 0,0 -1.49948,1.09963 -1.49948,1.07963 -1.779384,-2.11927 -2.819024,-3.65874 -2.819024,-3.65874 a 10.696294,10.696294 0 0 1 0.19993,2.35918 16.874153,16.874153 0 0 1 -2.779038,9.17682 15.094769,15.094769 0 0 1 -4.358488,3.5188 12.975504,12.975504 0 0 0 -1.019648,-0.8997 c -1.139605,-0.77973 -1.599446,-0.19992 -1.599446,-0.19992 a 0.79972289,0.79972289 0 0 0 -0.299895,1.01963 c 0.09996,0.67977 0.97966,0.73975 0.97966,0.73975 a 3.3788292,3.3788292 0 0 1 1.879349,1.1596 3.2188846,3.2188846 0 0 0 -1.55946,-0.19993 c -0.839708,0 -0.91968,0.65976 -0.91968,0.65976 a 1.1595982,1.1595982 0 0 0 0.19993,1.07963 1.119612,1.119612 0 0 0 1.199584,0 c 1.539467,-0.75973 1.879349,0 1.879349,0 -0.759737,0.25992 -1.599446,1.13961 -0.879695,1.99931 0.719751,0.85971 2.938982,-1.4195 2.938982,-1.4195 a 3.9986144,3.9986144 0 0 1 1.999307,-1.43951 c -1.339536,-1.9993 1.199584,-3.9986 1.199584,-3.9986 m 2.978968,5.73801 -0.119953,-0.17995 a 1.0796259,1.0796259 0 0 1 -0.179938,-0.31989 3.7986837,3.7986837 0 0 1 0,-0.61977 v 0 a 2.6190925,2.6190925 0 0 0 -1.339536,1.51947 c 0,0 0,0 0,0.1 a 8.4170833,8.4170833 0 0 1 1.779383,-0.49984 m 2.519125,2.33919 v 0 l -0.67976,-0.1 h -0.13995 l -0.45984,-0.35988 a 2.2992032,2.2992032 0 0 0 0,1.99932 v 0 a 5.8379771,5.8379771 0 0 1 1.05963,-1.4395 m 3.99862,0.73974 a 2.5391202,2.5391202 0 0 1 -0.81972,-0.53982 c 0,0 0,0 0,0 h -0.11995 a 2.4591479,2.4591479 0 0 0 0,1.99932 v 0 a 5.9979215,5.9979215 0 0 1 0.83971,-1.41951 m 18.79347,-21.79257 a 12.155788,12.155788 0 0 1 7.99723,-2.57909 7.9972289,7.9972289 0 0 0 -4.59841,-1.05964 9.9965361,9.9965361 0 0 0 -4.67837,1.9993 z m -2.11926,13.67527 a 1.5794527,1.5794527 0 0 1 0.13991,-0.47983 c 0,-0.17995 0.19993,-0.31989 0.33987,-0.55982 H 89.4767 a 2.2792102,2.2792102 0 0 0 -1.75939,0.37987 6.2178454,6.2178454 0 0 1 1.61943,0.75974 m -0.19992,7.43743 -0.31989,-0.37987 c 0,0 0,0 0,0 a 2.4791409,2.4791409 0 0 1 -0.23992,-0.47984 2.3791755,2.3791755 0 0 0 -0.8597,1.69942 8.317118,8.317118 0 0 1 1.41951,-0.77973 z m 12.3957,-15.31469 a 2.5791062,2.5791062 0 0 1 -1.63943,0 c 1.99931,-5.41812 1.09961,-5.99793 1.09961,-5.99793 -0.17993,-0.45984 -1.25956,-0.79972 -1.25956,-0.79972 a 9.8765777,9.8765777 0 0 0 -7.71733,2.39916 2.6190925,2.6190925 0 0 0 -0.55979,2.87901 9.0168754,9.0168754 0 0 1 1.03962,-0.61979 c 2.17925,-1.05964 1.51948,1.65944 5.07826,2.39918 0,0 2.41915,1.09961 2.61908,2.99895 a 4.8983027,4.8983027 0 0 1 -0.79973,3.65874 3.2588707,3.2588707 0 0 1 -3.07893,1.73939 8.856931,8.856931 0 0 1 -1.77937,-0.12002 6.3777899,6.3777899 0 0 1 -2.63909,-1.03965 c -1.1396,-0.41985 -0.93968,1.23959 -0.93968,1.23959 1.77939,0.81971 1.63944,1.63942 1.63944,1.63942 -3.29886,-1.49948 -3.99862,0.15997 -3.99862,0.15997 a 0.81971596,0.81971596 0 0 0 0.49984,0.99965 11.655961,11.655961 0 0 0 2.73904,0.55981 c -1.49948,0.77973 -1.45949,1.67942 -1.45949,1.67942 0,0.93968 1.27955,0.41985 1.27955,0.41985 a 5.5580741,5.5580741 0 0 0 2.23922,-2.17924 2.1992379,2.1992379 0 0 1 1.63943,1.65942 c 1.31955,-2.13925 2.11928,-2.45914 2.11928,-2.45914 a 17.194042,17.194042 0 0 1 3.53877,-1.87935 4.3584897,4.3584897 0 0 1 1.9993,0.61979 7.777305,7.777305 0 0 0 -0.79972,-3.17891 7.9972289,7.9972289 0 0 1 1.89934,0.35988 5.6980255,5.6980255 0 0 1 -0.33988,-3.43881 3.8186767,3.8186767 0 0 1 -2.17924,-3.81866 m 10.67629,6.91759 a 2.5391202,2.5391202 0 0 0 -1.9993,0.73974 6.9375959,6.9375959 0 0 1 1.7394,0.43986 v 0 a 0.77972982,0.77972982 0 0 1 0,-0.19994 1.0396397,1.0396397 0 0 1 0,-0.25991 2.9789678,2.9789678 0 0 1 0,-0.35988 1.0596328,1.0596328 0 0 1 0.1,-0.17993 m 1.67941,7.93726 a 2.3391895,2.3391895 0 0 1 -0.65976,-0.63979 l -0.13991,-0.19994 a 2.4191618,2.4191618 0 0 0 -0.53982,1.99933 5.4980948,5.4980948 0 0 1 1.33954,-1.13961 m 0.33987,-4.39849 c 0,0 -0.69974,-0.51981 -1.15958,-0.37986 0,0 -0.75974,0.15997 -0.77973,0.79972 a 1.1396051,1.1396051 0 0 0 0.45984,0.8397 l 0.2399,0.13992 c 0,0 0.43987,-1.23957 1.23957,-1.37952 m 9.99655,-3.85866 a 2.7790369,2.7790369 0 0 1 -0.75973,-1.9993 9.7566191,9.7566191 0 0 1 0.63976,-4.89831 12.375712,12.375712 0 0 1 -2.25922,0 6.1378731,6.1378731 0 0 0 -1.0996,-3.05894 6.6177068,6.6177068 0 0 0 -0.87971,2.27921 c -4.37847,-1.4395 -5.1782,-3.99862 -5.1782,-3.99862 a 10.47637,10.47637 0 0 1 -0.41985,-4.27852 c 0.27989,-3.51877 -0.61979,-3.9986 -0.61979,-3.9986 -0.65978,-1.31956 -1.29954,-1.47949 -1.9993,-1.31956 -0.69976,0.15997 -1.85936,1.73941 -1.85936,1.73941 a 5.4980948,5.4980948 0 0 1 0.73974,-2.23923 c 0.93967,-1.57945 3.39883,-1.27955 3.39883,-1.27955 a 6.4377692,6.4377692 0 0 0 5.51808,-6.45776 6.0978871,6.0978871 0 0 0 -4.21854,-6.25783 8.597021,8.597021 0 0 0 -2.99896,-0.27991 24.691445,24.691445 0 0 1 -2.99897,-0.17993 c -1.9993,-0.31982 -2.49912,-2.83896 -2.51911,-2.73898 a 3.4188153,3.4188153 0 0 0 -0.43985,3.03895 5.7180187,5.7180187 0 0 1 -2.899,-0.5998 2.4991339,2.4991339 0 0 1 -1.59945,-1.7594 14.51497,14.51497 0 0 0 -0.13991,2.97897 c -3.9986,-0.19992 -13.81521,-0.59978 -13.81521,-5.25816 0,-3.01896 6.85763,-3.99863 11.09616,-2.3592 0,0 0.33988,-1.9993 0,-2.41916 0,0 4.53843,3.05894 7.85728,1.39952 a 6.3178108,6.3178108 0 0 0 1.83935,-1.15959 c 0,0 -0.57979,0.33988 -3.99861,-0.15997 -1.53946,-0.23991 -1.17959,-0.67976 -0.5398,-1.99931 -1.57945,0 -1.05964,-0.2799 -3.59877,-0.89968 a 6.9975752,6.9975752 0 0 0 -4.97827,1.01964 c -0.35988,-2.15925 -1.29954,-2.63908 -1.29954,-2.63908 a 3.3788292,3.3788292 0 0 1 -1.47949,2.93898 8.8369379,8.8369379 0 0 1 -2.93899,1.37952 c -1.75938,0.59979 -4.33849,1.59945 -4.33849,4.9183 0,5.23818 6.13787,6.45775 10.51635,6.79764 a 40.505964,40.505964 0 0 0 4.37849,-0.0201 c 0,0.21993 0.21991,1.41951 0.21991,1.41951 a 2.9589746,2.9589746 0 0 1 4.13857,0 c 0,0 0.67977,-1.79938 2.29921,-1.79938 a 3.6987183,3.6987183 0 0 1 2.95898,1.7394 3.4388083,3.4388083 0 0 1 3.4588,-1.9993 4.6402131,4.6402131 0 0 1 -0.25992,9.27678 15.994458,15.994458 0 0 1 -6.15786,-0.55981 14.834859,14.834859 0 0 0 -5.09823,-1.55946 17.314,17.314 0 0 0 -6.25783,0.85971 39.166428,39.166428 0 0 1 -10.31643,0 l -0.8997,-0.19994 a 11.675954,11.675954 0 0 1 -5.27817,-2.97897 3.1589053,3.1589053 0 0 0 0,1.47949 6.3178108,6.3178108 0 0 0 1.51948,2.3192 c -1.53947,-0.13991 -1.7394,0.77973 -1.7394,0.77973 a 2.4191618,2.4191618 0 0 0 0,1.9993 c 0.83971,1.39952 1.59945,3.05894 1.59945,3.05894 a 4.438462,4.438462 0 0 0 -1.7394,-0.73973 c -2.41916,-0.21993 -2.77904,0.53981 -2.77904,0.53981 a 2.6590786,2.6590786 0 0 1 0.13995,0.77973 6.5777208,6.5777208 0 0 1 -1.23957,4.11858 16.754195,16.754195 0 0 0 -0.93968,1.9993 7.5573812,7.5573812 0 0 0 -2.99896,-2.53913 3.878656,3.878656 0 0 1 -1.1396,3.87866 19.553225,19.553225 0 0 1 3.83866,7.01758 c 1.63944,4.69837 0.91969,6.29781 0.91969,6.29781 a 3.5787599,3.5787599 0 0 1 -3.09893,2.47913 3.8386699,3.8386699 0 0 1 -1.99931,-0.2399 1.2595635,1.2595635 0 0 0 -2.11926,1.17959 c 0.25991,0.61979 1.1596,0.19992 1.1596,0.19992 0.8397,-0.33987 1.09961,0.19994 1.09961,0.19994 -0.79972,0 -0.8597,1.01965 -0.8597,1.01965 0,0.69974 0.49983,0.77973 0.49983,0.77973 a 1.9993072,1.9993072 0 0 0 1.83936,-0.47985 c 0.39986,-0.17993 0.39986,-0.87969 1.13961,-1.27955 a 1.9993072,1.9993072 0 0 1 1.4195,0 c -0.59979,0 -0.99965,1.13961 -0.99965,1.13961 -0.33988,1.31953 1.13961,1.29954 1.13961,1.29954 0.77973,0 1.01964,-1.27955 1.01964,-1.27955 a 2.9789678,2.9789678 0 0 1 1.99931,-1.17959 c 0.73974,-0.25992 0.69976,-0.5998 0.8797,-1.99931 a 17.553918,17.553918 0 0 1 2.21923,-4.77835 c -2.65908,-0.41985 -2.45915,-2.2992 -2.45915,-2.2992 a 1.4794873,1.4794873 0 0 0 1.27956,-0.73975 5.9979215,5.9979215 0 0 1 -1.85936,-2.859 8.2771319,8.2771319 0 0 1 0.67976,-4.77835 10.596328,10.596328 0 0 1 2.97897,-4.41846 11.036176,11.036176 0 0 0 -1.29955,4.23853 4.3584897,4.3584897 0 0 0 4.67838,-5.87796 5.3781364,5.3781364 0 0 1 0.39986,5.53807 c 5.33815,-1.19958 3.65874,-6.75764 3.65874,-6.75764 a 3.7187113,3.7187113 0 0 1 1.51947,3.49878 7.2374922,7.2374922 0 0 1 4.3185,-1.79938 7.0775475,7.0775475 0 0 0 -1.11961,-1.1596 c 7.75731,-0.39986 9.61666,4.59841 9.61666,4.59841 a 6.1978524,6.1978524 0 0 1 0.39986,4.95828 c 0.81972,-0.37987 3.45881,-2.23922 3.45881,-2.23922 a 18.413619,18.413619 0 0 0 1.27956,4.83832 c 0,-2.49914 3.15891,-0.79973 3.15891,-0.79973 1.37951,0.75973 6.79764,2.73906 6.79764,2.73906 a 3.0189539,3.0189539 0 0 1 1.83935,1.77937 4.9582818,4.9582818 0 0 1 0.12002,3.39883 2.7790369,2.7790369 0 0 1 -2.45914,1.9993 c -0.47983,0 -1.31953,-0.77973 -1.31953,-0.77973 a 11.995843,11.995843 0 0 1 -1.01966,-0.97965 c -0.19993,-0.15997 -0.53982,0 -0.85969,0.15997 -0.3199,0.15997 -0.15997,0.79972 -0.15997,0.79972 a 0.99965361,0.99965361 0 0 0 0.51981,0.63977 2.3991686,2.3991686 0 0 1 1.41951,1.43951 2.2192309,2.2192309 0 0 1 2.21922,1.61943 1.9993072,1.9993072 0 0 0 -2.83901,0 0.99965361,0.99965361 0 0 0 -0.23992,1.09962 c 0.57981,0.83971 1.11961,0.51983 2.21923,0 a 10.6763,10.6763 0 0 1 3.4788,-0.49982 c 0.65977,0 1.03964,-0.19994 1.1396,-0.41985 a 16.834167,16.834167 0 0 0 0.12002,-1.9993 c 0.12002,-1.83937 2.5991,-3.4788 2.5991,-3.4788"
              fill="#ffcb05"
              stroke-width="1.9993"
              id="path70" />
      <path
              d="m 125.40436,196.65537 a 22.212303,22.212303 0 0 1 -0.12002,-3.13891 c 0,-1.31955 1.99931,-2.3192 1.99931,-2.3192 -0.97967,-1.09962 -3.69873,-0.85969 -3.69873,-0.85969 0,-0.63979 -1.39952,-2.43917 -1.87935,-4.13857 -1.9993,0 -2.79902,2.37917 -2.79902,2.37917 a 5.9979215,5.9979215 0 0 1 -1.99931,-1.67941 c -0.97966,-1.13961 -0.53982,-4.81834 -0.53982,-4.81834 0,-5.11822 -1.57945,-4.79833 -1.57945,-4.79833 7.13753,-1.25958 6.6577,-8.65701 6.6577,-8.65701 a 7.9972289,7.9972289 0 0 0 -8.83695,-7.7773 h -1.9993 c -2.67908,0 -2.57911,-3.29886 -2.57911,-3.29886 -2.63909,0.21993 -3.09893,3.27887 -3.09893,3.27887 -2.27921,-0.35988 -1.9993,-3.17889 -1.9993,-3.17889 -2.47914,0.27989 -2.67907,3.9986 -2.67907,3.9986 -3.61874,0 -10.6963,-0.87969 -10.6963,-3.41881 0,-1.03965 0.8997,-1.83937 6.23783,-1.83937 a 6.4977485,6.4977485 0 0 1 4.3785,1.9993 8.856931,8.856931 0 0 0 0.17993,-2.79902 7.5773743,7.5773743 0 0 0 6.95758,0.71975 7.3574505,7.3574505 0 0 0 4.27853,-4.57841 c 0,0 -1.21959,1.1396 -6.15786,0.5798 a 8.9768894,8.9768894 0 0 0 1.17959,-2.93898 4.2185383,4.2185383 0 0 1 -3.55878,0.45984 7.3374575,7.3374575 0 0 0 -6.65769,-0.23991 c 0,0 -1.17959,-2.85902 -3.39882,-3.09894 0,0 1.53947,3.43881 -3.51878,5.35814 -0.99966,0.37987 -5.45811,1.69942 -5.45811,6.23785 0,4.53842 4.19855,8.37709 15.3147,8.37709 a 9.7766122,9.7766122 0 0 0 0.47983,1.99932 c 0,0 1.9993,-3.11892 5.61806,-0.17995 0,0 0.67975,-2.35918 2.17923,-2.35918 1.49948,0 2.27921,2.31919 2.99897,2.57911 a 2.7790369,2.7790369 0 0 1 2.33918,-2.47915 c 0,0 2.97898,-0.49982 3.13891,3.01896 0,0 0.1,2.69906 -3.55876,2.83902 a 14.934825,14.934825 0 0 1 -6.25782,-1.03964 14.834859,14.834859 0 0 0 -9.99654,-0.25992 28.430148,28.430148 0 0 1 -11.05617,0 c -3.1989,-0.65976 -5.05825,-1.79936 -5.05825,-3.07893 0,-1.27955 1.81937,-0.79972 1.69941,-1.13961 -0.25991,-0.77973 -0.93968,-1.25955 -1.99931,-1.71939 -2.49913,-0.97967 -2.99896,-1.55946 0.23992,-4.67838 0,0 0.21992,-1.53946 -1.87935,-2.97897 a 3.9986144,3.9986144 0 0 0 -1.99931,-0.57981 5.6580394,5.6580394 0 0 0 0.63978,-2.65908 c 0,0 -2.81902,0.17995 -3.39882,1.43951 0,0 -0.77973,0 -0.77973,-0.65978 0,-0.65976 0,-1.9993 0,-1.9993 0,-1.79938 0.17994,-1.73939 0.63978,-2.39917 a 3.4388083,3.4388083 0 0 0 0.47983,-3.55876 6.1178801,6.1178801 0 0 0 -5.23818,-2.19924 3.4388083,3.4388083 0 0 0 -1.81937,1.25956 v 0 l -0.639781,-2.17923 2.099271,0.69974 v -2.53911 l -2.139257,0.71975 0.559806,-2.31919 H 64.22549 l 0.639779,2.21921 -2.139259,-0.71975 v 2.53913 l 2.099273,-0.69976 -0.639779,2.17925 v 0 a 3.4388083,3.4388083 0 0 0 -1.819369,-1.25956 6.1178801,6.1178801 0 0 0 -5.238186,2.19922 3.4188153,3.4188153 0 0 0 0.479833,3.55878 c 0.459841,0.65976 0.639779,0.51982 0.639779,2.33919 0,0 0,1.37951 0,1.99931 0,0.61979 -0.759737,0.65977 -0.759737,0.65977 -0.579799,-1.25957 -3.398821,-1.4395 -3.398821,-1.4395 a 5.6180532,5.6180532 0 0 0 0.539812,2.69906 l 0.119954,0.25992 c -3.758698,1.19958 -5.118226,2.63908 -3.818678,4.17855 a 35.307765,35.307765 0 0 1 2.299204,3.11892 1.9993072,1.9993072 0 0 0 1.079625,0.5398 7.2974713,7.2974713 0 0 0 -1.599444,3.99861 2.5791062,2.5791062 0 0 1 2.399167,-0.53981 h 0.139946 a 3.618746,3.618746 0 0 0 -0.139946,1.21958 0.99965361,0.99965361 0 0 0 -0.719749,0.33988 2.9589746,2.9589746 0 0 0 -0.559807,1.55946 6.9975752,6.9975752 0 0 1 -0.959667,2.47915 v 0 a 1.9993072,1.9993072 0 0 1 -1.219578,1.07961 3.1389123,3.1389123 0 0 0 2.978969,2.49915 c 0.899687,0.85969 -0.579799,3.61873 -0.579799,3.61873 2.219231,1.25958 3.198891,0.27991 3.198891,0.27991 2.958974,1.21958 2.359183,5.83797 2.359183,5.83797 a 8.4970556,8.4970556 0 0 1 2.759044,-1.41949 c 0.679763,1.57945 0,6.87762 -1.539468,9.57668 a 9.0768547,9.0768547 0 0 1 -3.51878,3.57875 2.7790369,2.7790369 0 0 0 -2.539121,-0.77972 1.9993072,1.9993072 0 0 0 -1.479486,1.05963 c 0,0 -2.918989,0 -3.198891,2.65908 a 4.2585243,4.2585243 0 0 1 3.078932,0.1 l 0.279903,0.13992 0.219924,0.19992 a 4.5584204,4.5584204 0 0 0 -0.279902,0.55981 h -0.179939 a 3.2588707,3.2588707 0 0 0 -1.839362,3.73869 4.158559,4.158559 0 0 1 2.839016,-1.17959 1.6394319,1.6394319 0 0 0 1.019646,0.41986 3.1389123,3.1389123 0 0 0 -0.679764,3.99862 4.138566,4.138566 0 0 1 2.47914,-1.83936 h 0.399863 c 0.25991,0 0.499826,0 0.799723,0 1.479486,0 3.058939,-2.11928 3.058939,-2.11928 a 4.5984066,4.5984066 0 0 1 2.739051,-1.03963 2.7790369,2.7790369 0 0 0 -0.159937,1.99931 4.3784827,4.3784827 0 0 1 2.898993,-1.09962 h 0.63978 c 0,0 0,0.1 0,0.15997 l -0.13995,0.21993 a 3.2388776,3.2388776 0 0 0 0.69976,4.09857 4.0985797,4.0985797 0 0 1 1.65943,-2.5791 l 0.31989,-0.23992 a 1.9993072,1.9993072 0 0 0 1.37952,-0.81971 v 0.13991 0.19992 c 0,0 -1.17959,2.71906 1.01965,3.99862 a 4.158559,4.158559 0 0 1 1.35952,-2.65908 h 0.27991 a 1.9993072,1.9993072 0 0 0 2.15925,-1.59944 1.1396051,1.1396051 0 0 1 0.87969,-0.77973 c 1.99931,-0.27991 1.87935,-0.75974 2.09928,-1.29956 a 15.414659,15.414659 0 0 0 0.25991,-2.53911 19.453259,19.453259 0 0 1 2.79903,-5.99793 5.0782403,5.0782403 0 0 1 -2.37918,-0.31989 1.9993072,1.9993072 0 0 0 0.81972,-0.45983 1.5994458,1.5994458 0 0 1 1.23957,-0.49983 14.195081,14.195081 0 0 0 -1.49948,-1.37953 3.5387737,3.5387737 0 0 1 -1.4395,-4.81832 c 7.23749,0.43985 9.99653,-2.57911 9.99653,-2.57911 l 1.33953,1.63943 a 5.0982334,5.0982334 0 0 0 1.7194,6.33783 1.9993072,1.9993072 0 0 1 1.1396,-2.45914 c 0.55982,1.55946 3.83867,2.81902 3.83867,2.81902 a 2.1392588,2.1392588 0 0 1 1.41952,2.69906 2.8790023,2.8790023 0 0 1 -2.75905,2.49912 3.7986837,3.7986837 0 0 1 -1.9993,-0.29988 3.9986144,3.9986144 0 0 0 -1.99932,-0.8397 2.1792448,2.1792448 0 0 0 -0.89968,0.15997 H 90.4364 a 3.2788639,3.2788639 0 0 0 -3.99861,1.45948 4.2385313,4.2385313 0 0 1 2.67907,0.97967 2.3591825,2.3591825 0 0 0 -1.9993,0.95965 v 0 c 0,0 -2.91899,0.2999 -2.99896,2.919 a 4.178552,4.178552 0 0 1 3.07893,-0.12002 h 0.13995 a 2.5791062,2.5791062 0 0 0 1.39952,0.77973 c 0,0 0,0 0,0 a 1.8393626,1.8393626 0 0 0 -0.39986,0.25991 3.2588707,3.2588707 0 0 0 -1.07964,3.99861 4.2385313,4.2385313 0 0 1 2.5791,-1.67941 h 0.13991 a 2.5591132,2.5591132 0 0 0 0.71976,0.13991 c 1.17959,0.27991 2.83902,-1.47949 2.83902,-1.47949 0.71975,1.25958 0.97965,1.19958 0.97965,1.19958 1.03965,0.73975 2.29921,-0.91967 2.29921,-0.91967 a 14.994804,14.994804 0 0 1 1.9993,-1.9993 c 2.43917,-1.83937 3.4988,-0.93969 3.4988,-0.93969 a 2.5791062,2.5791062 0 0 1 1.33953,1.25958 c 1.47949,-0.91969 1.03964,-4.21854 1.03964,-4.21854 a 11.2561,11.2561 0 0 1 2.25922,1.35952 5.8579701,5.8579701 0 0 0 -1.19958,-3.63873 3.5587669,3.5587669 0 0 1 0.35988,-3.67873 9.6566538,9.6566538 0 0 1 -1.99932,-0.97965 c -1.07963,-0.6198 -0.75974,-2.73907 -0.75974,-2.73907 a 9.9965361,9.9965361 0 0 0 1.57945,-0.97965 c 1.57945,4.27851 3.31886,4.49844 3.31886,4.49844 0,-0.69976 0,-2.21923 0.5598,-2.35919 a 75.073986,75.073986 0 0 1 7.75732,3.31885 c 1.19958,0.43985 1.09962,2.15926 1.09962,2.15926 a 1.379522,1.379522 0 0 1 -1.21959,1.49948 2.4591479,2.4591479 0 0 0 -3.69871,-1.07963 h -0.25991 c 0,0 -2.919,-0.29989 -3.53877,2.21924 a 4.1185729,4.1185729 0 0 1 3.03895,0.51981 v 0 a 4.178552,4.178552 0 0 0 -1.01966,0.79972 h -0.15997 c 0,0 -2.87899,0.45984 -2.83901,3.05895 a 4.2585243,4.2585243 0 0 1 3.05894,-0.2999 v 0 a 3.3788292,3.3788292 0 0 0 1.4195,0.91969 3.2188846,3.2188846 0 0 0 0.15997,4.03859 4.2185383,4.2185383 0 0 1 2.23923,-2.15924 v 0 a 3.1189192,3.1189192 0 0 0 1.55946,0 7.2974713,7.2974713 0 0 1 3.37883,-0.85972 c 3.37883,0 3.77869,-1.27955 3.73871,-3.67871 -0.04,-2.39918 3.9986,-3.37884 3.9986,-3.37884 -0.39986,-0.43984 -1.93932,-1.61943 -2.11925,-2.61909 z m -72.394917,4.17855 a 4.6783789,4.6783789 0 0 0 -1.999308,-0.19992 2.5591132,2.5591132 0 0 1 1.859356,-1.01965 v 0 a 2.4991339,2.4991339 0 0 0 0,1.19958 z m -1.059633,4.27852 v 0 a 2.4791409,2.4791409 0 0 1 1.259564,-1.63943 2.2192309,2.2192309 0 0 0 0.479833,1.11961 5.2981641,5.2981641 0 0 0 -1.739397,0.41986 z m 33.38843,-1.73939 a 2.4991339,2.4991339 0 0 1 1.63943,-1.05964 3.2188846,3.2188846 0 0 0 0,0.59979 3.2588707,3.2588707 0 0 0 0,0.53982 7.2774782,7.2774782 0 0 0 -1.63943,-0.19994 z m 23.87172,0.31989 a 2.4391548,2.4391548 0 0 1 1.69942,-1.21959 2.3391895,2.3391895 0 0 0 0,1.1596 6.4577622,6.4577622 0 0 0 -1.69942,-0.06 z M 70.10352,145.71302 c 2.39917,0.71975 2.83902,1.7594 2.83902,2.35918 a 1.8193695,1.8193695 0 0 1 -0.51982,1.09962 c -0.93968,-1.9993 -2.49914,-2.71906 -5.1982,-2.49913 0,-0.37986 0.61978,-1.81937 2.879,-1.15959 z m -10.256446,8.09719 a 26.170931,26.170931 0 0 1 3.998614,0 0.69975752,0.69975752 0 0 1 0.739743,0.73975 c 0,0.75973 -0.359875,0.89969 -0.739743,0.97966 a 16.434305,16.434305 0 0 1 -4.118573,-0.19994 c -0.279904,-0.47983 -0.299896,-1.51947 0.119954,-1.71939 z m -0.299897,-2.95896 a 1.5594596,1.5594596 0 0 1 1.579453,1.65942 c 0,0 -1.29955,0 -1.539467,-0.15997 -0.239916,-0.15997 -0.03998,-1.49949 -0.03998,-1.49949 z m 7.377443,2.87899 a 26.230911,26.230911 0 0 1 3.99862,0 c 0.41985,0.19994 0.37986,1.29956 0,1.55946 a 16.414312,16.414312 0 0 1 -4.11858,0.19994 c -0.379866,0 -0.739741,-0.21993 -0.739741,-0.97967 a 0.69975752,0.69975752 0 0 1 0.839711,-0.8597 z m 4.29851,-1.37951 c -0.23992,0.23991 -1.53947,0.15997 -1.53947,0.15997 a 1.5394666,1.5394666 0 0 1 1.57946,-1.65944 c 0,0 0.17993,1.17959 -0.06,1.41952 z m -3.31885,-4.79835 c 2.23923,0 3.99862,1.99931 3.09893,1.99931 a 2.5990994,2.5990994 0 0 0 -2.57911,2.899 h -1.999306 l -0.519819,-1.77939 1.999305,0.63978 v -2.45915 l -1.999305,0.65977 0.559805,-1.9993 a 4.4784481,4.4784481 0 0 1 1.4395,-0.0399 z m -3.578758,0.21993 0.559805,1.99931 -1.999307,-0.65978 v 2.35918 l 1.999307,-0.63976 -0.519819,1.77937 h -1.999307 a 2.5990994,2.5990994 0 0 0 -2.579107,-2.89899 c -0.879696,0 0.859703,-1.9993 3.098926,-1.9993 a 4.438462,4.438462 0 0 1 1.439502,-0.0201 z m -6.457763,0.17993 c 0,-0.59978 0.419854,-1.63942 2.839016,-2.35918 2.419162,-0.71975 2.879002,0.77973 2.879002,0.95968 -2.699064,-0.21993 -4.258524,0.49982 -5.198198,2.49913 a 1.8193695,1.8193695 0 0 1 -0.51982,-1.17959 z m -3.238877,14.67492 c -1.09962,-0.2799 -2.239225,-3.11892 -2.239225,-3.11892 a 5.8779632,5.8779632 0 0 1 2.679072,-1.39951 c 0,0 2.539119,-0.23992 2.759044,-1.37952 a 3.8186767,3.8186767 0 0 0 0,-0.59979 c 0,0 0.279902,0.39985 7.437423,0.39985 7.157524,0 7.437424,-0.43985 7.437424,-0.43985 v 0.15997 c 0,1.4595 3.49879,1.85936 3.49879,1.85936 a 2.7190578,2.7190578 0 0 1 1.75939,1.23957 c 0.19993,0.55981 -0.49983,0.97967 -2.41917,3.11893 -0.51982,0.59978 -2.09927,0.35988 -2.63908,0.47983 v 0.19992 a 20.292968,20.292968 0 0 1 1.21958,2.65908 1.9993072,1.9993072 0 0 0 -0.8797,0.23993 2.1192656,2.1192656 0 0 0 -0.79972,0.93966 17.533924,17.533924 0 0 1 0.81972,1.99932 2.2992032,2.2992032 0 0 0 -1.4595,0.39986 4.138566,4.138566 0 0 1 0,3.69871 3.9986144,3.9986144 0 0 0 -2.09927,-0.61977 h -0.65977 c 0,3.13891 -1.13961,3.1589 -1.13961,3.1589 -1.07962,-1.43951 -3.438807,0.15997 -3.438807,0.15997 -1.339536,-0.49982 -2.099272,-2.99897 -2.099272,-2.99897 a 2.9189885,2.9189885 0 0 0 -1.739398,1.05964 8.876924,8.876924 0 0 1 -1.139606,-3.89865 3.3988223,3.3988223 0 0 0 -1.879349,1.11962 c -1.819368,-1.99932 0.359877,-5.13823 0.359877,-5.13823 a 9.3967438,9.3967438 0 0 1 -1.339536,0 c -1.019648,-0.2599 -1.29955,-0.12002 -1.35953,0 a 19.993072,19.993072 0 0 1 1.719404,-2.77903 c -0.239916,0.17993 -2.359181,-0.51982 -2.359181,-0.51982 z m 6.457762,21.31262 a 6.1378731,6.1378731 0 0 0 -3.258871,-4.69837 c 0,0 -0.339883,0.45984 -1.999307,0.23991 a 7.9972289,7.9972289 0 0 0 0.239916,-3.99861 c 0,0 -1.999307,0.61979 -2.339189,-0.81971 a 5.9979215,5.9979215 0 0 0 1.719404,-3.51878 c 0,0 0.519821,2.37917 2.219231,2.95896 a 1.5194735,1.5194735 0 0 1 0.659771,-1.11961 6.7976445,6.7976445 0 0 0 2.679072,4.29852 c 0,0 0.199931,-1.57945 0.639779,-1.99932 a 29.329837,29.329837 0 0 1 2.259218,3.03895 c 0,0 3.118922,-2.59909 3.778692,-0.15997 a 4.438462,4.438462 0 0 0 2.63908,-3.67872 1.6594251,1.6594251 0 0 1 1.29955,1.55946 5.4381157,5.4381157 0 0 0 2.53912,-4.85832 c 0,0 0,0 0,-0.67977 0,0 0.19993,-0.1 0.79973,0.15997 0.17993,0 0.71975,-0.73973 -0.19993,-2.97895 v -0.23993 c 0,0 0.51981,-0.57979 1.77938,-0.12002 0,0 0.15994,-0.89968 -1.05963,-3.05894 0,0 0.39986,0.1 1.29954,-0.39986 l 0.37987,0.49982 a 2.8989955,2.8989955 0 0 0 1.31955,1.23959 l 0.65977,0.29988 a 4.6783789,4.6783789 0 0 0 -1.25957,2.17925 c -0.93967,2.73905 0.33989,3.99861 0.33989,3.99861 0,0 -1.47949,0.91969 -0.41986,3.99862 a 6.2778246,6.2778246 0 0 0 -3.19889,1.23957 21.992379,21.992379 0 0 1 0.21992,2.47913 8.856931,8.856931 0 0 1 -1.31954,3.03895 c 0,0 -2.27921,-2.23921 -3.99861,-2.11926 0.21992,0.99965 0.97966,4.67838 -2.15926,5.99791 -2.239219,-2.59908 -1.759386,-3.4588 -1.759386,-3.63873 0,-0.17993 -0.439847,0.13992 -1.539466,0.93967 a 7.4374229,7.4374229 0 0 0 -0.779729,-1.61944 6.6376999,6.6376999 0 0 1 -2.119266,1.53947 z m -6.317812,23.99169 v 0 a 2.4991339,2.4991339 0 0 1 0.859703,-1.99932 2.1392588,2.1392588 0 0 0 0.679765,0.99966 5.7180187,5.7180187 0 0 0 -1.479488,1.09962 z m 7.317465,-5.09824 a 3.9986144,3.9986144 0 0 0 -1.999307,1.4395 c 0,0 -1.999307,2.53913 -2.918988,1.41951 -0.919682,-1.11961 0.119953,-1.75939 0.879695,-1.9993 0,0 -0.339883,-0.71975 -1.879349,0 a 1.1396051,1.1396051 0 0 1 -1.219578,0 1.1396051,1.1396051 0 0 1 -0.19993,-1.07963 c 0,0 0,-0.55981 0.919681,-0.65977 a 3.2388776,3.2388776 0 0 1 1.559461,0.19992 3.3788292,3.3788292 0 0 0 -1.879349,-1.1596 c 0,0 -0.879695,0 -0.979662,-0.73974 a 0.79972289,0.79972289 0 0 1 0.279903,-1.01964 c 0,0 0.459841,-0.57981 1.599446,0.19992 a 13.495324,13.495324 0 0 1 1.019648,0.8997 15.134756,15.134756 0 0 0 4.43846,-3.49878 16.914139,16.914139 0 0 0 2.739052,-9.2968 10.576335,10.576335 0 0 0 -0.219924,-2.35918 c 0,0 1.03964,1.53947 2.819024,3.65874 0,0 1.51947,-1.07962 1.51947,-1.07962 a 12.195774,12.195774 0 0 1 1.99931,2.87899 c 0,0 -0.73974,1.1396 -1.4395,2.2992 a 6.8776168,6.8776168 0 0 1 -0.67977,-0.77973 c 0,0 -2.599095,3.73871 -1.23957,4.93829 a 11.536003,11.536003 0 0 0 -3.998611,1.81938 c 0,0 -2.459148,1.91933 -1.119612,3.91864 z m 2.399169,2.2992 c 0,0 0,0 0,-0.1 a 2.6190925,2.6190925 0 0 1 1.339536,-1.51948 v 0 a 4.138566,4.138566 0 0 0 0,0.6198 1.0396397,1.0396397 0 0 0 0.179937,0.31989 l 0.119953,0.19992 a 8.2771319,8.2771319 0 0 0 -1.639431,0.55982 z m 1.519473,-2.89899 c 0,0.13992 0,0.23991 0,0.33989 a 3.9986144,3.9986144 0 0 0 -1.679417,1.07961 c -3.998616,-3.59875 4.518438,-5.57806 4.858318,-5.63803 a 2.4191618,2.4191618 0 0 1 -0.19993,-3.37884 c 0.91968,0.93967 1.67942,0.65978 1.67942,0.65978 -0.69976,-2.21924 0.79972,-2.95898 0.79972,-2.95898 a 17.214036,17.214036 0 0 1 1.65942,5.63805 2.3591825,2.3591825 0 0 1 -2.73905,2.87899 2.5791062,2.5791062 0 0 0 -4.378481,1.4595 z m 1.719401,6.15787 v 0 a 2.2792102,2.2792102 0 0 1 0,-1.9993 4.3384967,4.3384967 0 0 0 0.43985,0.35986 h 0.13995 l 0.41985,0.15997 v 0 a 5.7180187,5.7180187 0 0 0 -0.99965,1.57946 z m 4.21854,0.69976 v 0 a 2.4591479,2.4591479 0 0 1 0,-1.99932 h 0.11995 c 0,0 0,0 0,0 a 2.5391202,2.5391202 0 0 0 0.81972,0.53982 5.9979215,5.9979215 0 0 0 -0.91968,1.55946 z m 18.35364,-24.79142 a 9.9965361,9.9965361 0 0 1 4.65838,-1.9993 7.9972289,7.9972289 0 0 1 4.59841,1.05962 12.135795,12.135795 0 0 0 -7.99723,2.57911 z m -2.45914,14.53497 a 2.2792102,2.2792102 0 0 1 1.77937,-0.37987 h 0.33989 a 5.9979215,5.9979215 0 0 0 -0.33989,0.5598 1.6794181,1.6794181 0 0 0 -0.13991,0.47983 6.1178801,6.1178801 0 0 0 -1.63943,-0.65976 z m 1.3995,8.19715 a 8.597021,8.597021 0 0 0 -1.41949,0.77973 2.3591825,2.3591825 0 0 1 0.8597,-1.6994 2.4591479,2.4591479 0 0 0 0.25989,0.47983 c 0,0 0,0 0,0 l 0.3199,0.37987 z m 14.59495,-11.49601 a 5.7180187,5.7180187 0 0 0 0.33988,3.4388 7.9972289,7.9972289 0 0 0 -1.9993,-0.35987 7.7972982,7.7972982 0 0 1 0.79972,3.1989 4.3784827,4.3784827 0 0 0 -1.99931,-0.61979 17.214036,17.214036 0 0 0 -3.53877,1.87935 c 0,0 -0.81971,0.33988 -2.11927,2.45914 a 2.1992379,2.1992379 0 0 0 -1.63943,-1.65942 5.538081,5.538081 0 0 1 -2.23922,2.17925 c 0,0 -1.37953,0.49982 -1.27955,-0.41987 0,0 0,-0.89968 1.45948,-1.67941 a 11.536003,11.536003 0 0 1 -2.73905,-0.5598 0.81971596,0.81971596 0 0 1 -0.51982,-0.99966 c 0,0 0.79973,-1.63943 3.99861,-0.15997 0,0 0.13991,-0.79972 -1.63943,-1.63943 0,0 -0.19992,-1.65943 0.93969,-1.23956 a 6.4377692,6.4377692 0 0 0 2.63909,1.03962 8.7769587,8.7769587 0 0 0 1.77937,0.12002 3.2588707,3.2588707 0 0 0 3.31885,-1.67941 4.9382888,4.9382888 0 0 0 0.91968,-3.7587 c -0.19992,-1.9993 -2.6191,-2.99896 -2.6191,-2.99896 -3.55876,-0.73975 -2.91898,-3.43881 -5.07823,-2.39917 a 9.0368686,9.0368686 0 0 0 -1.03965,0.61979 2.6190925,2.6190925 0 0 1 0.53982,-2.87901 9.9965361,9.9965361 0 0 1 7.73732,-2.39916 c 0,0 1.07963,0.33988 1.25956,0.79972 0,0 0.87969,0.5598 -1.09962,5.99791 a 2.5791062,2.5791062 0 0 0 1.63944,0 3.8186767,3.8186767 0 0 0 2.17924,3.7787 z m 8.39709,3.29886 a 2.7390509,2.7390509 0 0 0 0,0.35988 5.1182264,5.1182264 0 0 0 0,0.47982 v 0 a 6.9975752,6.9975752 0 0 0 -1.73939,-0.43984 2.5391202,2.5391202 0 0 1 1.9993,-0.73975 z m 0.39986,9.07684 a 2.4391548,2.4391548 0 0 1 0.53982,-1.9993 l 0.13991,0.19994 a 2.3591825,2.3591825 0 0 0 0.65976,0.63977 5.4980948,5.4980948 0 0 0 -1.35952,1.19959 z m 0.43984,-4.15854 -0.2399,-0.13991 a 1.1396051,1.1396051 0 0 1 -0.47985,-0.83973 c 0,-0.63976 0.77975,-0.79972 0.77975,-0.79972 0.45983,-0.12002 1.17959,0.37987 1.17959,0.37987 -0.79972,0.19994 -1.25958,1.43951 -1.25958,1.43951 z m 8.63702,-1.77939 a 16.754195,16.754195 0 0 1 -0.13991,1.9993 c -0.1,0.21993 -0.47983,0.39986 -1.13961,0.41986 a 10.716287,10.716287 0 0 0 -3.47879,0.49983 c -1.09962,0.51982 -1.63943,0.83971 -2.21924,0 a 0.97966054,0.97966054 0 0 1 0.23993,-1.09962 1.9993072,1.9993072 0 0 1 2.83901,0 2.1992379,2.1992379 0 0 0 -2.21924,-1.61945 2.4391548,2.4391548 0 0 0 -1.41949,-1.43949 0.97966054,0.97966054 0 0 1 -0.49984,-0.63978 c 0,0 -0.15997,-0.5598 0.15997,-0.79972 0.31989,-0.23993 0.65977,-0.2999 0.8597,-0.15997 a 11.735933,11.735933 0 0 0 1.01965,0.97965 c 0,0 0.81971,0.81973 1.31955,0.77974 a 2.7790369,2.7790369 0 0 0 2.45914,-1.99932 4.9182957,4.9182957 0 0 0 -0.12002,-3.39882 2.9989609,2.9989609 0 0 0 -1.83936,-1.77937 c 0,0 -5.41812,-1.99931 -6.79765,-2.73905 0,0 -3.21888,-1.67943 -3.15891,0.79972 a 18.473599,18.473599 0 0 1 -1.27955,-4.83833 c 0,0 -2.67907,1.89934 -3.47879,2.2992 a 6.1978524,6.1978524 0 0 0 -0.39986,-4.95828 c 0,0 -1.87935,-4.99827 -9.61667,-4.59841 a 7.0375613,7.0375613 0 0 1 1.11962,1.1596 7.2374922,7.2374922 0 0 0 -4.31852,1.77937 3.7187113,3.7187113 0 0 0 -1.51947,-3.49878 c 0,0 1.67942,5.55808 -3.65873,6.75766 a 5.3781364,5.3781364 0 0 0 -0.39986,-5.53807 4.3584897,4.3584897 0 0 1 -4.67838,5.87796 11.016183,11.016183 0 0 1 1.27955,-4.21854 10.616321,10.616321 0 0 0 -3.05893,4.33849 8.2971249,8.2971249 0 0 0 -0.67977,4.77835 5.9979215,5.9979215 0 0 0 1.7394,2.859 1.4594943,1.4594943 0 0 1 -1.27956,0.73975 c 0,0 -0.19993,1.87935 2.45915,2.2992 a 17.593904,17.593904 0 0 0 -2.21923,4.77834 c -0.17994,1.31955 -0.13995,1.65943 -0.8797,1.99932 a 2.9789678,2.9789678 0 0 0 -1.9993,1.17959 c 0,0 -0.23992,1.19958 -1.01965,1.27955 0,0 -1.4595,0 -1.13961,-1.27955 0,0 0.37987,-1.07963 0.99966,-1.1596 a 1.9993072,1.9993072 0 0 0 -1.41951,0 c -0.73974,0.39986 -0.73974,1.09962 -1.13961,1.27955 a 1.9993072,1.9993072 0 0 1 -1.81936,0.47983 c 0,0 -0.53982,0 -0.49983,-0.75974 0,0 0,-1.03962 0.8597,-1.03962 0,0 -0.25991,-0.53983 -1.09962,-0.19994 0,0 -0.89969,0.41985 -1.1596,-0.19992 a 1.2595635,1.2595635 0 0 1 2.09928,-1.17959 3.8586629,3.8586629 0 0 0 2.09927,0.2399 3.5787599,3.5787599 0 0 0 3.1589,-2.49912 c 0,0 0.71975,-1.59945 -0.93967,-6.29783 a 19.533231,19.533231 0 0 0 -3.83867,-7.01756 3.8586629,3.8586629 0 0 0 1.19958,-3.7787 7.5773743,7.5773743 0 0 1 3.09893,2.55912 16.734201,16.734201 0 0 1 0.91968,-1.9993 6.5977138,6.5977138 0 0 0 1.23957,-4.11858 2.7590439,2.7590439 0 0 0 -0.13994,-0.75974 c 0,0 0.35987,-0.77973 2.77903,-0.55981 a 4.458455,4.458455 0 0 1 1.7394,0.73974 c 0,0 -0.75974,-1.65942 -1.59945,-3.05894 a 2.4191618,2.4191618 0 0 1 0,-1.9993 c 0,0 0.19994,-0.91968 1.7394,-0.77973 a 6.3577969,6.3577969 0 0 1 -1.49948,-2.27921 3.2188846,3.2188846 0 0 1 0,-1.47949 11.675954,11.675954 0 0 0 5.27817,2.97897 l 0.89969,0.19994 a 39.30638,39.30638 0 0 0 10.31643,0 17.274014,17.274014 0 0 1 6.25783,-0.85971 14.874846,14.874846 0 0 1 5.11822,1.55945 15.994458,15.994458 0 0 0 6.13787,0.55982 4.6402131,4.6402131 0 0 0 0.25991,-9.27678 3.4388083,3.4388083 0 0 0 -3.4588,1.9993 3.6987183,3.6987183 0 0 0 -2.95898,-1.73941 c -1.61943,0 -2.2992,1.79939 -2.2992,1.79939 a 2.9389816,2.9389816 0 0 0 -4.13855,0 c 0,0 -0.21993,-1.19959 -0.21993,-1.41952 a 41.305687,41.305687 0 0 1 -4.43847,-0.06 c -4.37848,-0.31987 -10.51635,-1.53946 -10.51635,-6.79763 0,-3.31885 2.57911,-4.31851 4.33849,-4.9183 a 8.9568963,8.9568963 0 0 0 2.919,-1.37953 3.3788292,3.3788292 0 0 0 1.49948,-2.89898 c 0,0 0.91967,0.49982 1.29954,2.63907 a 6.9775822,6.9775822 0 0 1 4.99827,-1.1196 c 2.53912,0.61978 1.99932,0.81972 3.61875,0.89968 -0.65977,1.31954 -0.99966,1.75938 0.51982,1.99931 3.37883,0.49982 3.99862,0.15997 3.99862,0.15997 a 6.2978178,6.2978178 0 0 1 -1.85936,1.1596 c -3.31885,1.65942 -7.85728,-1.39952 -7.85728,-1.39952 0.33988,0.43984 0,2.41917 0,2.41917 -4.21854,-1.57947 -11.07617,-0.63979 -11.07617,2.35918 0,4.65838 9.8366,5.05824 13.81522,5.23817 a 14.31504,14.31504 0 0 1 0.13991,-2.95896 2.5191271,2.5191271 0 0 0 1.59944,1.75938 5.7779978,5.7779978 0 0 0 2.87901,0.61979 3.4588015,3.4588015 0 0 1 0.43985,-3.05894 c 0,-0.1 0.47983,2.39917 2.51913,2.73905 a 24.891375,24.891375 0 0 0 3.01896,0.17995 8.6769933,8.6769933 0 0 1 2.99894,0.27989 6.0978871,6.0978871 0 0 1 4.29853,6.23785 6.4377692,6.4377692 0 0 1 -5.5181,6.45775 c 0,0 -2.45914,-0.27989 -3.39882,1.27956 a 5.5780671,5.5780671 0 0 0 -0.75974,2.33919 c 0,0 1.09962,-1.55946 1.85936,-1.7394 0.75973,-0.17993 1.25956,0 1.9993,1.31955 0,0 0.8997,0.39986 0.61979,3.99861 a 10.536349,10.536349 0 0 0 0.27991,4.17855 c 0,0 0.81971,2.63909 5.19819,3.99861 a 6.5577276,6.5577276 0 0 1 0.87971,-2.27921 6.1378731,6.1378731 0 0 1 1.0996,3.05894 12.175781,12.175781 0 0 0 2.25922,0 9.7966054,9.7966054 0 0 0 -0.63977,4.8983 2.7990302,2.7990302 0 0 0 0.75974,1.99931 c 0,0 -2.49914,1.67943 -2.5991,3.4988 z M 56.628189,160.60786 a 1.119612,1.119612 0 0 0 -0.819716,-1.03963 3.3988223,3.3988223 0 0 0 -1.999308,0 2.5191271,2.5191271 0 0 1 1.179591,-0.51983 3.0789332,3.0789332 0 0 1 1.079626,0 1.099619,1.099619 0 0 1 0.999654,0.71975 c 0,0 0.219924,0.53981 -0.439847,0.83971 z m 10.496361,0 a 3.9986144,3.9986144 0 0 0 2.83902,0.69976 1.5394666,1.5394666 0 0 0 1.35953,-1.21957 v 0 c 0,-0.71976 1.21957,-2.21924 1.21957,-2.21924 a 1.2195774,1.2195774 0 0 1 -0.25991,0.17995 4.1185729,4.1185729 0 0 1 -2.13925,0.65976 l -1.61944,0.1 a 1.7593904,1.7593904 0 0 0 -1.37953,0.5798 3.7387045,3.7387045 0 0 0 -0.599788,1.49949 l 0.259908,-0.2999 a 0.19993072,0.19993072 0 0 1 0.25991,0.0201 z m -2.67907,2.23923 c 0,0 -1.539466,1.9993 0.899688,1.9993 v 0 c 2.419162,0 0.879695,-1.9993 0.879695,-1.9993 0,0 2.978967,2.27921 0.879697,2.97897 h 0.17994 c 3.55876,0 1.9993,-3.41882 1.9993,-3.41882 0,0 2.73905,3.07893 0.33989,4.33849 h 0.11995 a 0.57979908,0.57979908 0 0 1 0.19993,0.79972 c -0.21992,0.37987 -3.998614,3.89865 -3.998614,3.89865 -0.339883,0.65978 -0.959668,0.65978 -1.29955,0 0,0 -3.698718,-3.51878 -3.998614,-3.89865 a 0.59979215,0.59979215 0 0 1 0.19993,-0.79972 0.15994458,0.15994458 0 0 0 0.119953,0 c -2.379175,-1.25956 0.359875,-4.33849 0.359875,-4.33849 0,0 -1.599445,3.41882 1.999309,3.41882 h 0.179936 c -2.019299,-0.63979 0.939675,-2.97897 0.939675,-2.97897 z m 2.47914,6.33779 c 0,0 1.99931,-1.9993 2.11927,-2.17923 v 0 a 8.6769933,8.6769933 0 0 1 -1.35953,0.2999 c 0,0 -0.27991,0.8597 -0.75974,1.95932 z m -3.098925,0 c -0.479834,-1.0996 -0.779731,-1.87933 -0.779731,-1.87933 a 9.2767854,9.2767854 0 0 1 -1.359528,-0.2999 v 0 c 0,0 2.139259,2.25922 2.139259,2.25922 z m 0.139946,-1.87933 c 0,0 0.499827,2.5591 1.399516,2.5591 0.899687,0 1.419503,-2.5591 1.419503,-2.5591 h -0.279899 a 1.1595982,1.1595982 0 0 1 -0.71975,-0.25992 h -0.839709 a 1.2595635,1.2595635 0 0 1 -0.719751,0.25992 h -0.279902 z m -3.078933,-6.17788 c 0,0 1.699411,0.53983 1.999307,-0.89968 v 0 a 0.41985451,0.41985451 0 0 1 0.359875,-0.23991 0.39986144,0.39986144 0 0 1 0.279904,0.12002 v 0 a 4.3185036,4.3185036 0 0 1 0.739743,0.73973 3.7786906,3.7786906 0 0 0 -0.599793,-1.49946 1.7194042,1.7194042 0 0 0 -1.399514,-0.57981 13.875192,13.875192 0 0 1 -2.219231,0 c 0,0 -0.619785,0.1 -1.539466,-0.77973 a 1.1595982,1.1595982 0 0 0 -0.239917,-0.17993 c 0,0 1.319542,3.19889 2.619092,3.39881 z m 13.255402,-0.59978 a 1.1595982,1.1595982 0 0 1 0.81972,-1.13961 2.6790716,2.6790716 0 0 1 1.99931,-0.1 c 0,0 0,-0.25991 -1.01965,-0.51981 a 3.7786906,3.7786906 0 0 0 -1.4395,0 1.0796259,1.0796259 0 0 0 -0.75974,0.87969 c 0,0 -0.31989,0.65978 0.39986,0.95966 z"
              fill="#231f20"
              stroke-width="1.9993"
              id="path71" />
      <path
              d="m 142.21852,171.66403 -4.43845,-14.81487 c 0,0 6.81764,8.43708 7.11753,8.85694 0.53982,0.73973 1.31955,0.37986 1.29956,-0.35987 -0.0201,-0.73975 -0.77973,-10.81627 -0.83971,-11.99586 0,0 5.01826,11.09616 5.29815,11.77593 0.27991,0.67977 1.17959,0.69976 1.33954,-0.13991 0.15998,-0.83971 2.11926,-12.63563 2.11926,-12.63563 0,0 1.99932,11.65596 2.11927,12.63563 0.12002,0.97965 0.99965,0.89968 1.33953,0.13991 0.33989,-0.75974 5.29817,-11.77593 5.29817,-11.77593 0,1.25958 -0.83971,11.43604 -0.83971,11.99586 0,0.5598 0.75974,1.1196 1.29955,0.35987 0.2999,-0.41986 7.11754,-8.85694 7.11754,-8.85694 l -4.45846,14.91483 z"
              fill="#ffcb05"
              stroke-width="1.9993"
              id="path72" />
      <path
              d="m 156.35363,178.60163 0.19994,-0.19993 v -3.31885 l -0.19994,-0.17995 h -4.47844 l -0.19994,0.17995 v 3.31885 l 0.19994,0.19993 z m -3.41882,-2.53911 h 2.43917 v 1.41949 h -2.43917 z"
              fill="#231f20"
              stroke-width="1.9993"
              id="path73" />
      <path
              d="m 161.77175,178.6616 a 1.9993072,1.9993072 0 1 0 0,-3.81868 1.9993072,1.9993072 0 1 0 0,3.81868 z m 0,-2.859 a 0.919685,0.919685 0 1 1 0,1.83937 0.919685,0.919685 0 1 1 0,-1.83937 z"
              fill="#231f20"
              stroke-width="1.9993"
              id="path74" />
      <path
              d="m 146.47705,178.6616 a 1.9993072,1.9993072 0 1 0 -1.99931,-1.9993 1.9993072,1.9993072 0 0 0 1.99931,1.9993 z m 0,-2.859 a 0.919685,0.919685 0 1 1 0,1.83937 0.919685,0.919685 0 1 1 0,-1.83937 z"
              fill="#231f20"
              stroke-width="1.9993"
              id="path75" />
      <path
              d="m 172.30811,153.2704 a 1.1795913,1.1795913 0 0 0 -1.39952,0.45984 l -7.03756,8.71699 0.71975,-11.31608 c 0,-1.03964 -0.31989,-1.31955 -0.79972,-1.45949 a 1.1795913,1.1795913 0 0 0 -1.37953,0.81971 c -0.43984,0.97965 -5.17821,11.37605 -5.17821,11.37605 l -1.99931,-12.41569 c -0.2999,-1.23957 -0.67975,-1.57945 -1.11961,-1.57945 -0.43984,0 -0.79972,0.33988 -1.09962,1.57945 l -1.9993,12.41569 c 0,0 -4.73836,-10.3964 -5.1782,-11.37605 a 1.1795913,1.1795913 0 0 0 -1.37953,-0.81971 c -0.47983,0.13991 -0.75974,0.41985 -0.79972,1.45949 l 0.71975,11.33607 -7.03755,-8.71699 a 1.1795913,1.1795913 0 0 0 -1.39953,-0.45983 c -0.49982,0.17994 -0.5798,0.81971 -0.41985,1.37952 0.27991,0.8797 4.89831,17.0341 4.89831,17.0341 h -0.97967 a 0.93967438,0.93967438 0 1 0 0,1.85935 h 0.91969 v 6.3378 h -0.91969 a 0.93967438,0.93967438 0 0 0 -0.95966,0.91969 0.91968131,0.91968131 0 0 0 0.95966,0.89968 h 29.36983 a 0.91968131,0.91968131 0 0 0 0.95966,-0.89968 0.93967438,0.93967438 0 0 0 -0.95966,-0.91969 h -0.91969 v -6.3378 h 0.91969 a 0.93967438,0.93967438 0 1 0 0,-1.85935 h -0.97967 c 0,0 4.63839,-16.13441 4.89831,-17.0341 0.15997,-0.5798 0.0799,-1.23956 -0.41985,-1.39952 z m -5.99793,26.59078 h -24.25159 v -6.3178 h 24.2116 z m -0.21992,-8.19715 h -23.87174 l -4.43845,-14.81487 c 0,0 6.81764,8.43708 7.11753,8.85694 0.53982,0.73973 1.31955,0.37986 1.29956,-0.35987 -0.0201,-0.73975 -0.77973,-10.81627 -0.83971,-11.99586 0,0 5.01826,11.09616 5.29815,11.77593 0.27991,0.67977 1.17959,0.69976 1.33954,-0.13991 0.15998,-0.83971 2.11926,-12.63563 2.11926,-12.63563 0,0 1.99932,11.65596 2.11927,12.63563 0.12002,0.97965 0.99965,0.89968 1.33953,0.13991 0.33989,-0.75974 5.29817,-11.77593 5.29817,-11.77593 0,1.25958 -0.83971,11.43604 -0.83971,11.99586 0,0.5598 0.75974,1.1196 1.29955,0.35987 0.2999,-0.41986 7.11754,-8.85694 7.11754,-8.85694 z"
              fill="#231f20"
              stroke-width="1.9993"
              id="path76" />
      <path
              d="m 156.35363,178.60163 0.19994,-0.19993 v -3.31885 l -0.19994,-0.17995 h -4.47844 l -0.19994,0.17995 v 3.31885 l 0.19994,0.19993 z m -3.41882,-2.53911 h 2.43917 v 1.41949 h -2.43917 z m 8.83694,2.59908 a 1.9993072,1.9993072 0 1 0 0,-3.81868 1.9993072,1.9993072 0 1 0 0,3.81868 z m 0,-2.859 a 0.919685,0.919685 0 1 1 0,1.83937 0.919685,0.919685 0 1 1 0,-1.83937 z m -15.33469,2.859 a 1.9993072,1.9993072 0 1 0 -1.9993,-1.9993 1.9993072,1.9993072 0 0 0 2.03929,1.9993 z m 0,-2.859 a 0.919685,0.919685 0 1 1 0,1.83937 0.919685,0.919685 0 1 1 0,-1.83937 z m 19.77316,3.99861 h -24.15163 v -6.25783 h 24.2116 z"
              fill="#ffcb05"
              stroke-width="1.9993"
              id="path77" />
      <path
              d="m 184.58385,171.66403 -4.43847,-14.81487 c 0,0 6.81764,8.43708 7.11754,8.85694 0.5598,0.73973 1.31954,0.37986 1.29955,-0.35987 -0.0201,-0.73975 -0.77973,-10.81627 -0.83971,-11.99586 0,0 5.01826,11.09616 5.29817,11.77593 0.27991,0.67977 1.17959,0.69976 1.33953,-0.13991 0.15997,-0.83971 2.21923,-12.83557 2.21923,-12.83557 0,0 1.99931,11.65598 2.11927,12.63563 0.12002,0.97966 0.99965,0.8997 1.33953,0.13991 0.33989,-0.75974 5.29817,-11.77591 5.29817,-11.77591 0,1.25956 -0.83971,11.43602 -0.83971,11.99584 0,0.5598 0.75974,1.11961 1.29955,0.35988 0.2999,-0.41986 7.11754,-8.85693 7.11754,-8.85693 l -4.45846,14.91483 z"
              fill="#ffcb05"
              stroke-width="1.9993"
              id="path78" />
      <path
              d="m 198.73895,178.60163 0.19992,-0.19993 v -3.31885 l -0.19992,-0.23993 h -4.47845 l -0.19994,0.17995 v 3.31884 l 0.19994,0.19994 z m -3.41882,-2.53911 h 2.43915 v 1.41949 h -2.45914 z"
              fill="#231f20"
              stroke-width="1.9993"
              id="path79" />
      <path
              d="m 204.15707,178.6616 a 1.9993072,1.9993072 0 1 0 0,-3.81868 1.9993072,1.9993072 0 1 0 0,3.81868 z m 0,-2.859 a 0.919685,0.919685 0 1 1 0,1.83937 0.919685,0.919685 0 1 1 0,-1.83937 z"
              fill="#231f20"
              stroke-width="1.9993"
              id="path80" />
      <path
              d="m 188.86237,178.6616 a 1.9993072,1.9993072 0 1 0 -1.99931,-1.9993 1.9993072,1.9993072 0 0 0 1.99931,1.9993 z m 0,-2.859 a 0.919685,0.919685 0 1 1 0,1.83937 0.919685,0.919685 0 1 1 0,-1.83937 z"
              fill="#231f20"
              stroke-width="1.9993"
              id="path81" />
      <path
              d="m 214.69341,153.2704 a 1.1795913,1.1795913 0 0 0 -1.3995,0.45984 l -7.01758,8.71699 0.71975,-11.33608 c 0,-1.03963 -0.31989,-1.31954 -0.79972,-1.45948 a 1.1795913,1.1795913 0 0 0 -1.37951,0.81971 c -0.43987,0.97965 -5.17822,11.37605 -5.17822,11.37605 l -1.9993,-12.4157 c -0.2999,-1.23956 -0.67977,-1.57945 -1.11962,-1.57945 -0.43984,0 -0.79972,0.33989 -1.09962,1.57945 l -1.9993,12.4157 c 0,0 -4.73837,-10.3964 -5.17821,-11.37605 a 1.1795913,1.1795913 0 0 0 -1.37952,-0.81971 c -0.47984,0.13991 -0.75973,0.41985 -0.79972,1.45948 l 0.69975,11.33608 -7.01757,-8.71699 a 1.1795913,1.1795913 0 0 0 -1.3995,-0.45984 c -0.49984,0.17995 -0.57981,0.81972 -0.41987,1.37953 0.25991,0.87969 4.89831,17.03409 4.89831,17.03409 h -0.97966 a 0.93967438,0.93967438 0 1 0 0,1.85936 h 0.91968 v 6.3378 h -0.91968 a 0.93967438,0.93967438 0 0 0 -0.95967,0.91969 0.91968131,0.91968131 0 0 0 0.95967,0.89968 h 29.32983 a 0.91968131,0.91968131 0 0 0 0.95968,-0.89968 0.93967438,0.93967438 0 0 0 -0.95968,-0.91969 h -0.91967 v -6.31781 h 0.91967 a 0.93967438,0.93967438 0 1 0 0,-1.85935 h -0.97965 c 0,0 4.63839,-16.13441 4.89829,-17.0341 0.17995,-0.5798 0.0799,-1.23958 -0.39986,-1.39952 z m -5.99791,26.59078 h -24.2716 v -6.3178 h 24.15163 z m -0.21993,-8.19715 h -23.89172 l -4.43847,-14.81487 c 0,0 6.81764,8.43708 7.11754,8.85694 0.5598,0.73973 1.31954,0.37986 1.29955,-0.35987 -0.0201,-0.73975 -0.77973,-10.81627 -0.83971,-11.99586 0,0 5.01826,11.09616 5.29817,11.77593 0.27991,0.67977 1.17959,0.69976 1.33953,-0.13991 0.15997,-0.83971 2.21923,-12.83557 2.21923,-12.83557 0,0 1.99931,11.65598 2.11927,12.63563 0.12002,0.97966 0.99965,0.8997 1.33953,0.13991 0.33989,-0.75974 5.29817,-11.77591 5.29817,-11.77591 0,1.25956 -0.83971,11.43602 -0.83971,11.99584 0,0.5598 0.75974,1.11961 1.29955,0.35988 0.2999,-0.41986 7.11754,-8.85693 7.11754,-8.85693 z"
              fill="#231f20"
              stroke-width="1.9993"
              id="path82" />
      <path
              d="m 198.73895,178.60163 0.19992,-0.19993 v -3.31885 l -0.19992,-0.23993 h -4.47845 l -0.19994,0.17995 v 3.31884 l 0.19994,0.19994 z m -3.41882,-2.53911 h 2.43915 v 1.41949 h -2.45914 z m 8.83694,2.59908 a 1.9993072,1.9993072 0 1 0 0,-3.81868 1.9993072,1.9993072 0 1 0 0,3.81868 z m 0,-2.859 a 0.919685,0.919685 0 1 1 0,1.83937 0.919685,0.919685 0 1 1 0,-1.83937 z m -15.33469,2.859 a 1.9993072,1.9993072 0 1 0 -1.9993,-1.9993 1.9993072,1.9993072 0 0 0 2.03929,1.9993 z m 0,-2.859 a 0.919685,0.919685 0 1 1 0,1.83937 0.919685,0.919685 0 1 1 0,-1.83937 z m 19.77314,3.99861 H 184.4239 v -6.25783 h 24.15163 z"
              fill="#ffcb05"
              stroke-width="1.9993"
              id="path83" />
      <path
              d="m 163.3912,206.49197 -4.45846,-14.91484 c 0,0 6.81764,8.43708 7.11752,8.85693 0.55982,0.73975 1.31956,0.37987 1.29956,-0.37987 -0.0201,-0.75973 -0.77973,-10.81625 -0.8397,-11.99584 0,0 5.01826,11.09616 5.29815,11.77591 0.27991,0.67977 1.1796,0.69976 1.33954,-0.13991 0.15997,-0.83971 2.11926,-12.63562 2.11926,-12.63562 0,0 1.99932,11.65597 2.11927,12.63562 0.12002,0.97967 0.99966,0.8997 1.33955,0.13991 0.33986,-0.75973 5.29815,-11.77591 5.29815,-11.77591 0,1.25956 -0.83971,11.41604 -0.83971,11.99584 0,0.57979 0.75974,1.11962 1.29956,0.37987 0.29988,-0.41985 7.11753,-8.85693 7.11753,-8.85693 l -4.45847,14.91484 z"
              fill="#ffcb05"
              stroke-width="1.9993"
              id="path84" />
      <path
              d="m 177.52629,213.42956 0.19994,-0.17995 v -3.33883 l -0.17995,-0.17994 h -4.49843 l -0.19994,0.17994 v 3.31884 l 0.19994,0.17995 z m -3.41882,-2.5991 h 2.47915 v 1.41951 h -2.47915 z"
              fill="#231f20"
              stroke-width="1.9993"
              id="path85" />
      <path
              d="m 182.94443,213.48954 a 1.9993072,1.9993072 0 1 0 0,-3.81868 1.9993072,1.9993072 0 1 0 0,3.81868 z m 0,-2.83901 a 0.91968136,0.91968136 0 1 1 0,1.83935 0.91968136,0.91968136 0 1 1 0,-1.83935 z"
              fill="#231f20"
              stroke-width="1.9993"
              id="path86" />
      <path
              d="m 167.64972,213.48954 a 1.9993072,1.9993072 0 1 0 -1.9993,-1.99931 1.9993072,1.9993072 0 0 0 1.9993,1.99931 z m 0,-2.83901 a 0.91968136,0.91968136 0 1 1 0,1.83935 0.91968136,0.91968136 0 1 1 0,-1.83935 z"
              fill="#231f20"
              stroke-width="1.9993"
              id="path87" />
      <path
              d="m 193.48077,188.09834 a 1.1795913,1.1795913 0 0 0 -1.39952,0.45984 l -7.03756,8.71698 0.69976,-11.33608 c 0,-1.03964 -0.31989,-1.31953 -0.79972,-1.4595 a 1.1795913,1.1795913 0 0 0 -1.37953,0.81972 c -0.43984,0.97967 -5.1782,11.37606 -5.1782,11.37606 l -1.99932,-12.41569 c -0.29988,-1.23957 -0.67975,-1.57945 -1.11961,-1.57945 -0.43985,0 -0.79972,0.33988 -1.09961,1.57945 l -1.99932,12.41569 c 0,0 -4.73835,-10.39639 -5.17819,-11.37606 a 1.1795913,1.1795913 0 0 0 -1.37953,-0.81972 c -0.47983,0.13992 -0.75974,0.41986 -0.79972,1.4595 l 0.69976,11.33608 -6.91761,-8.71698 a 1.1795913,1.1795913 0 0 0 -1.39952,-0.45984 c -0.49982,0.17993 -0.57979,0.81971 -0.41985,1.37951 0.25992,0.87971 4.89831,17.03411 4.89831,17.03411 h -1.07963 a 0.93967438,0.93967438 0 1 0 0,1.85936 h 0.91969 v 6.33779 h -0.91969 a 0.93967438,0.93967438 0 0 0 -0.95966,0.91969 0.91968131,0.91968131 0 0 0 0.95966,0.89969 h 29.38982 a 0.91968131,0.91968131 0 0 0 0.95966,-0.89969 0.93967438,0.93967438 0 0 0 -0.95966,-0.91969 h -0.91969 v -6.3178 h 0.91969 a 0.93967438,0.93967438 0 1 0 0,-1.85936 h -0.99966 c 0,0 4.63839,-16.13441 4.89831,-17.03411 0.17993,-0.65976 0.1,-1.21957 -0.39986,-1.3995 z m -5.99793,26.59078 h -24.25159 v -6.3178 h 24.19161 z m -0.21992,-8.19715 H 163.3912 l -4.45846,-14.91484 c 0,0 6.81764,8.43708 7.11752,8.85693 0.55982,0.73975 1.31956,0.37987 1.29956,-0.37987 -0.0201,-0.75973 -0.77973,-10.81625 -0.8397,-11.99584 0,0 5.01826,11.09616 5.29815,11.77591 0.27991,0.67977 1.1796,0.69976 1.33954,-0.13991 0.15997,-0.83971 2.11926,-12.63562 2.11926,-12.63562 0,0 1.99932,11.65597 2.11927,12.63562 0.12002,0.97967 0.99966,0.8997 1.33955,0.13991 0.33986,-0.75973 5.29815,-11.77591 5.29815,-11.77591 0,1.25956 -0.83971,11.41604 -0.83971,11.99584 0,0.57979 0.75974,1.11962 1.29956,0.37987 0.29988,-0.41985 7.11753,-8.85693 7.11753,-8.85693 z"
              fill="#231f20"
              stroke-width="1.9993"
              id="path88" />
      <path
              d="m 177.52629,213.42956 0.19994,-0.17995 v -3.33883 l -0.17995,-0.17994 h -4.49843 l -0.19994,0.17994 v 3.31884 l 0.19994,0.17995 z m -3.41882,-2.5991 h 2.47915 v 1.41951 h -2.47915 z m 8.83696,2.5991 a 1.9993072,1.9993072 0 1 0 0,-3.81868 1.9993072,1.9993072 0 1 0 0,3.81868 z m 0,-2.83903 a 0.919685,0.919685 0 1 1 0,1.83937 0.919685,0.919685 0 1 1 0,-1.83937 z m -15.33469,2.83903 a 1.9993072,1.9993072 0 1 0 -1.99932,-1.9993 1.9993072,1.9993072 0 0 0 2.0393,2.05928 z m 0,-2.83903 a 0.919685,0.919685 0 1 1 0,1.83937 0.919685,0.919685 0 1 1 0,-1.83937 z m 19.77314,3.99863 h -24.15163 v -6.21784 h 24.19161 z"
              fill="#ffcb05"
              stroke-width="1.9993"
              id="path89" />
    </g>
  </g>
</svg>
