<?xml version="1.0" encoding="utf-8"?>
<!-- Generator: Adobe Illustrator 27.8.0, SVG Export Plug-In . SVG Version: 6.00 Build 0)  -->
<svg version="1.1" id="affiliation" xmlns="http://www.w3.org/2000/svg" xmlns:xlink="http://www.w3.org/1999/xlink" x="0px"
	 y="0px" viewBox="0 0 256 256" style="enable-background:new 0 0 256 256;" xml:space="preserve">
<style type="text/css">
	.st0{fill:#FFFFFF;}
	.st1{fill:#E82C2E;}
	.st2{fill:#003660;}
	.st3{fill:#FFCB05;}
	.st4{fill:#231F20;}
</style>
<rect id="black" y="0" width="256" height="256"/>
<circle id="background" class="st0" cx="128" cy="128" r="128"/>
<g id="logo">
	<g>
		<path id="path51" class="st1" d="M55.3,117.1h70.8h0.1v7.1c-2-1.6-4.6-2.2-7.1-1.6c-4.9,1.5-6.3-0.6-6.3-0.6
			c-0.8,1.8-2.5,3.2-4.4,3.6l-0.1,2h-8.9l-0.7,5.6h9.1l0,0l-0.3,3.1h-9.2l-0.9,6.2h9.5l-0.4,4.1h18.1c0.3,0.7,0.9,1.2,1.6,1.4v76.2
			c-7.9-5.9-27.3-5.7-27.3-5.7c-5.7,0.1-11.5-0.2-17.2-0.7c-5.9-0.4-11.6-2.1-16.7-5l-0.4-0.3c-2.9-1.9-5.6-4.2-7.9-6.9
			c-5-5.4-8.3-12-9.7-19.2v-0.1c-1-4.3-1.4-8.7-1.3-13.1c-0.2-6,0.5-12.1,1.8-17.9l0,0c2.8-10.3,3.9-15.4,3.9-15.4
			c1.6-6.8,2.8-13.7,3.5-20.6c0-0.7,0.1-1.5,0.2-2.2L55.3,117.1z"/>
		<path id="path52" class="st2" d="M129.8,117.1h71c0,0.7,0.1,1.5,0.2,2.2c0.7,7,1.8,13.9,3.4,20.7c0,0,1.1,5.1,3.9,15.4l0,0
			c1.4,5.9,2,11.9,1.8,17.9c0.1,4.4-0.3,8.8-1.3,13.1v0.1c-1.4,7.2-4.7,13.9-9.7,19.2c-2.3,2.6-5,4.9-7.9,6.9l-0.4,0.3
			c-5.1,2.9-10.8,4.7-16.7,5c-5.7,0.6-11.5,0.9-17.2,0.8c0,0-19.4-0.2-27.3,5.7v-76.4c0.7-0.2,1.3-0.7,1.6-1.4l0,0h18.2l-0.4-4h9.5
			l-0.8-6.2h-9.2l-0.3-3.1l0,0h9.1l-0.7-5.6h-8.8l-0.2-2.1c-1.9-0.5-3.6-1.8-4.4-3.6c0,0-1.5,2.1-6.3,0.6c-2.6-0.6-5.3,0-7.3,1.7
			v-7.1L129.8,117.1z"/>
		<path id="path53" class="st0" d="M128.8,141v-14c3.4-3.3,6-3.2,8-2.7c1.6,0.5,3.2,0.6,4.8,0.3l0.9,14.1l0,0
			c-1.8,0.8-3.8,0.8-5.6,0c-2.9-0.7-5.9,0.1-8.1,2.1"/>
		<polygon id="polygon53" class="st3" points="107.2,137.9 106.9,140.8 99.5,140.8 99.9,137.9 		"/>
		<polygon id="polygon54" class="st3" points="101.1,129.3 108,129.3 107.8,131.7 100.8,131.7 		"/>
		<path id="path54" class="st3" d="M143.4,125.1c0.7,0.8,1.6,1.3,2.6,1.7l0,0l1.4,16.2c-1.3-0.6-2.3-1.6-3-2.8L143.4,125.1
			L143.4,125.1z"/>
		<path id="path55" class="st0" d="M114.2,124.6c1.6,0.3,3.3,0.2,4.9-0.3c2-0.6,4.6-0.6,8,2.7v14c-2.2-2-5.2-2.8-8-2.2
			c-1.8,0.8-3.8,0.8-5.6,0L114.2,124.6z"/>
		<path id="path56" class="st3" d="M109.9,126.8L109.9,126.8c1-0.3,1.9-0.9,2.6-1.7l-0.9,15.1c-0.7,1.2-1.8,2.2-3.1,2.8L109.9,126.8
			z"/>
		<path id="path57" class="st3" d="M124.6,144.8h-16.4c2.2-0.6,4.1-2.2,5-4.3l1,0.3c1.6,0.3,3.3,0.2,4.9-0.3c2-0.6,4.6-0.6,8,2.6
			l0,0C126.1,143.3,125.2,143.9,124.6,144.8"/>
		<path id="path58" class="st3" d="M127.9,146.6L127.9,146.6c-1,0-1.8-0.4-1.8-0.9c0-0.5,0.8-0.9,1.8-0.9c1,0,1.8,0.4,1.8,0.9
			C129.8,146.2,128.9,146.6,127.9,146.6"/>
		<polygon id="polygon58" class="st4" points="154,130 152.1,130 152.3,131 154.2,131 		"/>
		<polygon id="polygon59" class="st4" points="155.2,138.7 153.4,138.7 153.5,139.9 155.4,139.9 		"/>
		<path id="path59" class="st4" d="M205.5,121.3c0,0-1.1-10.6-1.3-16.2v-0.4c-0.6-27,10.9-41.9,10.9-41.9l-20.5-20.5
			c0,0-11.1,6.3-29.6,6.1c-7.2,0.2-14.3-0.8-21.2-3.1c-5.2-1.6-10.5-2.3-15.9-2.1c-5.4-0.3-10.8,0.4-15.9,2.1
			c-6.8,2.3-14,3.3-21.2,3.1c-18.4,0.1-29.6-6.1-29.6-6.1L40.9,62.8c0,0,11.6,14.9,10.9,41.9v0.4c0,5.7-1.2,16.3-1.2,16.3
			c-1.4,11.4-3.8,22.7-7.2,33.7c0,0-7.8,32.2,8.5,51.4c8.8,10.4,16.8,16.1,40.3,16.4c27.7,0.2,31.8,3.6,35.7,9.8l0,0l0,0h0.2l0,0
			l0,0c3.9-6.2,8.1-9.6,35.7-9.8c23.5-0.2,31.5-5.9,40.3-16.4c16.4-19.2,8.5-51.4,8.5-51.4C209.3,144,206.9,132.7,205.5,121.3
			L205.5,121.3z M46.2,63.4L46.2,63.4h-0.4H46.2L46.2,63.4l16-16l0,0c18.7,7.8,40.8,4.4,40.8,4.4c2.7-0.3,5.3-0.9,7.9-1.8
			c5.5-1.8,11.2-2.7,17-2.6h0.2c5.8-0.1,11.5,0.8,17,2.6c2.6,0.9,5.2,1.5,7.9,1.8c0,0,22.1,3.4,40.7-4.6l0,0l16,16v0.1
			c-0.7,1.1-6.5,10.5-9.1,26.8c-1,7.7-1.1,15.6-0.2,23.3h-145c0.9-7.8,0.8-15.6-0.2-23.3C52.7,73.8,46.8,64.4,46.2,63.4z
			 M147.6,144.8h-16.3c-0.5-0.9-1.5-1.5-2.5-1.6l0,0l0,0l0,0c3.4-3.3,6-3.2,8-2.6c1.6,0.5,3.2,0.6,4.8,0.3l1-0.3
			C143.6,142.6,145.4,144.2,147.6,144.8L147.6,144.8z M147.4,143c-1.3-0.6-2.3-1.6-3-2.8l-0.9-15.1c0.7,0.8,1.6,1.3,2.6,1.7l0,0
			L147.4,143z M142.5,138.7c-1.8,0.8-3.8,0.8-5.6,0c-2.9-0.7-5.9,0.1-8.1,2.1V127c3.4-3.3,6-3.2,8-2.7c1.6,0.5,3.2,0.6,4.8,0.3
			L142.5,138.7L142.5,138.7z M113.2,140.5l1,0.3c1.6,0.3,3.3,0.2,4.9-0.3c2-0.6,4.6-0.6,8,2.6c-1,0.1-2,0.7-2.5,1.6h-16.4
			C110.5,144.1,112.3,142.6,113.2,140.5L113.2,140.5z M109.9,126.7L109.9,126.7c1-0.3,1.9-0.9,2.6-1.7l-0.9,15.1
			c-0.7,1.2-1.8,2.2-3.1,2.8L109.9,126.7z M119,138.8c-1.8,0.8-3.9,0.8-5.7,0l0.9-14.2c1.6,0.3,3.3,0.2,4.9-0.3c2-0.6,4.6-0.6,8,2.7
			v14c-2.2-2-5.2-2.8-8-2.2L119,138.8z M126.2,224.3c-7.9-5.9-27.3-5.7-27.3-5.7c-5.7,0.1-11.5-0.2-17.2-0.7
			c-5.9-0.4-11.6-2.1-16.7-5l-0.4-0.3c-2.9-1.9-5.6-4.2-7.9-6.9c-5-5.4-8.3-12-9.7-19.2v-0.1c-1-4.3-1.4-8.7-1.3-13.1
			c-0.2-6,0.5-12.1,1.8-17.9l0,0c2.8-10.3,3.9-15.4,3.9-15.4c1.6-6.8,2.8-13.7,3.5-20.6c0-0.7,0.1-1.5,0.2-2.2h0.1h70.8h0.1v7.1
			c-2-1.6-4.6-2.2-7.1-1.6c-4.9,1.5-6.3-0.6-6.3-0.6c-0.8,1.8-2.5,3.2-4.4,3.6l-0.1,2h-8.9l-0.7,5.6h9.1l0,0l-0.3,3.1h-9.2l-0.9,6.2
			h9.5l-0.4,4.1h18.1c0.3,0.7,0.9,1.2,1.6,1.4L126.2,224.3z M108,129.3l-0.2,2.4h-7l0.3-2.4H108z M107.2,137.9l-0.3,2.9h-7.4
			l0.4-2.9L107.2,137.9z M128,146.5c-1,0-1.8-0.4-1.8-0.9c0-0.5,0.8-0.9,1.8-0.9s1.8,0.4,1.8,0.9S129,146.6,128,146.5L128,146.5z
			 M208.9,186.4v0.1c-1.4,7.2-4.8,13.9-9.8,19.3c-2.3,2.6-5,4.9-7.9,6.9l-0.4,0.3c-5.1,2.9-10.8,4.7-16.7,5
			c-5.7,0.6-11.5,0.9-17.2,0.8c0,0-19.4-0.2-27.3,5.7v-76.4c0.7-0.2,1.3-0.7,1.6-1.4l0,0h18.2l-0.4-4h9.5l-0.8-6.2h-9.2l-0.3-3.1
			l0,0h9.1l-0.7-5.6h-8.8l-0.2-2.1c-1.9-0.5-3.6-1.8-4.4-3.6c0,0-1.5,2.1-6.3,0.6c-2.6-0.6-5.3,0-7.3,1.7v-7.1h0.1h71
			c0,0.7,0.1,1.5,0.2,2.2c0.7,7,1.8,13.9,3.4,20.7c0,0,1.1,5.1,3.9,15.4l0,0c1.4,5.9,2,11.9,1.8,17.9
			C210.2,177.8,209.9,182.2,208.9,186.4L208.9,186.4z M152.4,131.8h-4.2l-0.2-2.5h7.3l0.2,2.4L152.4,131.8L152.4,131.8z M148.7,138
			h7.6l0.3,2.9h-7.7L148.7,138z"/>
		<path id="path60" class="st3" d="M131.3,144.8L131.3,144.8c-0.5-0.9-1.5-1.5-2.5-1.6l0,0l0,0l0,0c3.4-3.3,6-3.2,8-2.6
			c1.6,0.5,3.2,0.6,4.8,0.3l1-0.3c1,2,2.8,3.6,4.9,4.2L131.3,144.8z"/>
		<path id="path61" class="st3" d="M148.2,131.8l-0.2-2.5h7.3l0.2,2.5H148.2z M154.2,131l-0.1-1.1h-1.8l0.1,1.1H154.2z"/>
		<path id="path62" class="st3" d="M148.7,137.9h7.6l0.3,2.9h-7.7L148.7,137.9z M153.4,138.8l0.1,1.1h1.8l-0.1-1.2L153.4,138.8z"/>
		<path id="path63" class="st3" d="M55.4,113.6h145.2c-0.9-7.8-0.8-15.6,0.2-23.3c2.5-16.4,8.3-25.7,9.1-26.8v-0.1l-16.1-16l0,0
			c-18.7,8-40.8,4.5-40.8,4.5c-2.7-0.3-5.4-0.9-7.9-1.8c-5.5-1.8-11.3-2.7-17.1-2.6h-0.2c-5.8-0.1-11.5,0.8-17,2.6
			c-2.6,0.9-5.2,1.5-7.9,1.8c0,0-22.1,3.4-40.7-4.6l0,0l-16,16l0,0h-0.4l0.4,0.1l0,0c0.7,1,6.5,10.4,9.1,26.8
			C56.3,97.9,56.3,105.8,55.4,113.6L55.4,113.6z"/>
		<path id="path64" class="st4" d="M90.8,93.6L90.8,93.6l-1.9-23.4L90,67h0.5l2.3-7h-5.1l-0.6,1.7h-3.4V60h-7.5v1.7h-3.4L72.2,60h-5
			l2.3,7H70l1,3.2l-1.9,23.5l0,0c-1.2,0.2-2,1.2-2,2.4c0,1,0.7,1.9,1.7,2.2l0,0l-0.6,8.3h10.5v-5.8l0,0c0-0.6,0.8-1,1.3-1l0,0
			c0.6,0,1.4,0.5,1.4,1v5.8h10.4l-0.7-8.4l0,0c1-0.3,1.7-1.2,1.7-2.2C92.8,94.8,92,93.7,90.8,93.6 M70.7,65.2l-1.1-3.5H71l0.6,1.7
			h6.4v-1.7H82v1.7h6.4l0.6-1.7h1.4l-1.1,3.5h-0.3H71H70.7z M88.2,67l-0.6,1.9H72.3L71.7,67H88.2z M72.7,70.7h14.6l1.8,23H70.8
			L72.7,70.7z M90.5,96.8h-7.9c0.4,0.6,0.9,1.1,1.3,1.6h5.5l0.6,6.4h-7v-4.1c-0.2-1.6-1.5-2.7-3.1-2.7l0,0c-1.6,0-2.9,1.1-3.1,2.7
			v4.1H70l0.5-6.5H76c0.5-0.5,0.9-1.1,1.3-1.6h-7.8c-0.4,0-0.7-0.3-0.7-0.7c0-0.4,0.3-0.7,0.7-0.7h21c0.4,0,0.7,0.4,0.7,0.7
			C91.1,96.4,90.8,96.7,90.5,96.8C90.5,96.7,90.5,96.7,90.5,96.8 M77.5,80.9h5v-7c-0.2-1.3-1.3-2.2-2.5-2.1
			c-1.3-0.1-2.4,0.9-2.5,2.1V80.9z M79.1,74.1c0.2-0.5,0.8-0.7,1.3-0.5c0.2,0.1,0.4,0.3,0.5,0.5v5.5h-1.8V74.1z M73.4,91.7h5v-7
			c-0.2-1.3-1.3-2.2-2.5-2.1c-1.3-0.1-2.4,0.9-2.5,2.1V91.7z M74.9,84.8c0.1-0.4,0.5-0.7,0.9-0.7c0.4,0,0.8,0.3,0.9,0.7v5.5H75
			L74.9,84.8z M86.6,84.7c-0.1-1.3-1.2-2.2-2.5-2.1c-1.3,0-2.4,0.9-2.5,2.1v7h5L86.6,84.7z M85.1,90.3h-1.8v-5.5
			c0.2-0.5,0.8-0.7,1.3-0.5c0.2,0.1,0.4,0.3,0.5,0.5V90.3z"/>
		<path id="path65" class="st1" d="M70.7,65.2l-1.1-3.5H71l0.6,1.7h6.4v-1.7H82v1.7h6.4l0.6-1.7h1.4l-1.1,3.5h-0.3H71H70.7z
			 M88.2,67l-0.6,1.9H72.3L71.7,67H88.2z M72.7,70.7h14.6l1.8,23H70.8L72.7,70.7z M90.5,96.8h-7.8c0.4,0.6,0.9,1.1,1.3,1.6h5.5
			l0.6,6.4h-7v-4.1c-0.2-1.6-1.5-2.7-3.1-2.7l0,0c-1.6,0-2.9,1.1-3.1,2.7v4.1H70l0.5-6.5h5.5c0.5-0.5,0.9-1.1,1.3-1.6h-7.8
			c-0.4,0-0.7-0.3-0.7-0.7c0-0.4,0.3-0.7,0.7-0.7h21c0.4,0,0.7,0.4,0.7,0.7C91.1,96.4,90.8,96.7,90.5,96.8
			C90.5,96.7,90.5,96.7,90.5,96.8 M77.5,80.9h5v-7c-0.2-1.3-1.3-2.2-2.5-2.1c-1.3-0.1-2.4,0.9-2.5,2.1V80.9z M73.4,91.6h5v-7
			c-0.2-1.3-1.3-2.2-2.5-2.1c-1.3,0-2.4,0.9-2.5,2.1V91.6z M86.6,84.6c-0.1-1.3-1.2-2.2-2.5-2.1c-1.3,0-2.4,0.9-2.5,2.1v7h5
			L86.6,84.6z"/>
		<path id="path66" class="st4" d="M165,93.6c-1.2,0.2-2,1.2-2,2.4c0,1,0.7,1.9,1.6,2.2l0,0l-0.7,8.4h10.5v-5.8c0-0.6,0.8-1,1.4-1
			l0,0c0.6,0,1.3,0.5,1.3,1l0,0v5.8h10.5l-0.7-8.4l0,0c1-0.3,1.7-1.2,1.7-2.2c0-1.2-0.8-2.2-2-2.4l0,0l-1.8-23.4l1-3.2h0.6l2.3-7
			h-5.1l-0.6,1.7h-3.4V60h-7.5v1.7h-3.4l-0.6-1.7h-5l2.3,7h0.5l1,3.2L165,93.6L165,93.6 M184.8,65.2h-17.9h-0.3l-1.1-3.5h1.4
			l0.6,1.7h6.4v-1.7h4.1v1.7h6.4l0.6-1.7h1.4l-1.1,3.5H184.8z M184.1,67l-0.6,1.9h-15.3l-0.6-1.9H184.1z M185,93.6h-18.3l1.8-23
			h14.6L185,93.6z M165.4,96.7c-0.4,0-0.7-0.3-0.7-0.7c0,0,0,0,0,0c0-0.4,0.3-0.7,0.7-0.7h21.1c0.4,0,0.7,0.4,0.7,0.7
			c0,0.4-0.3,0.7-0.7,0.7h-7.9c0.4,0.6,0.8,1.1,1.3,1.6h5.5l0.5,6.5h-6.9v-4.1c-0.2-1.6-1.5-2.7-3.1-2.7l0,0c-1.6,0-2.9,1.1-3.1,2.7
			v4.1h-7l0.6-6.5h5.5c0.5-0.5,0.9-1.1,1.3-1.6L165.4,96.7 M178.3,73.9c-0.1-1.3-1.2-2.2-2.5-2.1c-1.3,0-2.4,0.9-2.5,2.1v7h5
			L178.3,73.9z M176.8,79.6h-1.8v-5.5c0.2-0.5,0.8-0.7,1.3-0.5c0.2,0.1,0.4,0.3,0.5,0.5V79.6z M182.5,84.7c-0.1-1.3-1.2-2.2-2.5-2.1
			c-1.3-0.1-2.4,0.8-2.6,2.1v7h5L182.5,84.7z M181,90.3h-1.8v-5.5c0.1-0.4,0.5-0.7,0.9-0.7c0.4,0,0.8,0.3,0.9,0.7L181,90.3z
			 M169.3,91.7h5v-7c-0.2-1.3-1.3-2.2-2.5-2.1c-1.3,0-2.3,0.9-2.5,2.1L169.3,91.7z M170.8,84.8c0.2-0.5,0.8-0.7,1.3-0.5
			c0.2,0.1,0.4,0.3,0.5,0.5v5.5h-1.8V84.8z"/>
		<path id="path67" class="st1" d="M184.8,65.2h-17.9h-0.3l-1.1-3.5h1.4l0.6,1.7h6.4v-1.7h4.1v1.7h6.4l0.6-1.7h1.4l-1.1,3.5H184.8z
			 M184.2,67l-0.6,1.9h-15.3l-0.6-1.9H184.2z M185,93.6h-18.3l1.8-23h14.6L185,93.6z M165.4,96.7c-0.4,0-0.7-0.3-0.7-0.7
			c0,0,0,0,0,0c0-0.4,0.3-0.7,0.7-0.7h21.1c0.4,0,0.7,0.4,0.7,0.7c0,0.4-0.3,0.7-0.7,0.7h-7.9c0.4,0.6,0.8,1.1,1.3,1.6h5.5l0.5,6.5
			h-6.9v-4.1c-0.2-1.6-1.5-2.7-3.1-2.7l0,0c-1.6,0-2.9,1.1-3.1,2.7v4.1h-7l0.6-6.5h5.5c0.5-0.5,0.9-1.1,1.3-1.6L165.4,96.7
			 M178.3,73.9c-0.1-1.3-1.2-2.2-2.5-2.1c-1.3,0-2.4,0.9-2.5,2.1v7h5L178.3,73.9z M182.5,84.7c-0.1-1.3-1.2-2.2-2.5-2.1
			c-1.3,0-2.4,0.9-2.5,2.1v7h5L182.5,84.7z M169.2,91.7h5v-7c-0.2-1.3-1.3-2.2-2.5-2.1c-1.3,0-2.3,0.9-2.5,2.1V91.7z"/>
		<path id="path68" class="st4" d="M139.3,88.1c-0.4,0-0.7,0.1-1,0.4l-1.2,1.2c-0.3,0.3-0.6,0.4-1,0.4h-5l-0.8-13.8l0,0
			c3.5-1.7,6.1-4.6,7.4-8.2c0.2,0.1,0.5,0.1,0.7,0.1c2.8,0.1,5.1-2.1,5.2-4.9c0-0.2,0-0.4,0-0.6c0-0.6-0.1-1.3-0.4-1.8l1.5-0.7
			l-0.7-1.5l-14.3,7.1l0,0l-0.5-9.8c0-0.4-0.3-0.7-0.7-0.7c-0.4,0-0.7,0.3-0.7,0.7l0,0l-0.1,1.8l0,0c-0.7-0.3-2.5-1-5.1,1
			c-1.5,1.3-3.6,1.7-5.5,0.9c0.2,0.4,1.7,5.5,6.2,5c1.3-0.2,2.6-0.2,3.8,0l0,0l-0.1,2.3L111,75.2l0.7,1.5l1.4-0.7l0,0
			c0.9,1.8,2.7,3,4.7,3c1.6-0.1,3.2-0.9,4.2-2.1l0,0c0.7,0.5,1.6,0.7,2.4,0.6c0.3,0,0.6,0,0.9,0l1.1-0.1L125.7,90h-4.2
			c-0.5,0-1-0.2-1.3-0.5c-0.7-0.5-1.3-1.5-2.9-1.5h-14.5c-2.9,0-2.8,4.7-0.2,4.7c2.9,0,2.7,2.5,4,2.5h1.9l5.3,7.7l0,0
			c0.6,0.8,1.5,1.3,2.5,1.2h7.5l3.3,4.5c0.1,0.2,0.3,0.2,0.4,0.2c0.3,0,0.7-0.2,0.7-0.5c0-0.1-0.1-0.3-0.1-0.3l-2.9-3.9h3.6l3.3,4.5
			l0,0c0.1,0.2,0.3,0.2,0.4,0.2c0.3,0,0.7-0.2,0.7-0.5c0-0.1-0.1-0.3-0.2-0.3l-2.9-3.9h3.6l3.4,4.6c0.1,0.2,0.3,0.2,0.5,0.2
			c0.3,0,0.7-0.2,0.7-0.5c0-0.1-0.1-0.3-0.1-0.4l0,0l-2.8-3.9h3.6l3.3,4.5l0,0c0.1,0.2,0.3,0.2,0.4,0.2c0.3,0,0.7-0.2,0.7-0.5
			c0-0.1-0.1-0.3-0.2-0.4l0,0l-2.9-3.9h0.4c1.7,0,3-1.3,3.1-2.9c0,0,0,0,0-0.1v-4.7c0-1.7,0.4-3.1,3.1-3.1h3.6v-5.3L139.3,88.1z
			 M124.4,63.3c-0.9,0.2-1.9,0.1-2.8-0.1c-0.8-0.4-1.5-0.9-1.9-1.7h0.4c1.5-0.1,2.9-0.8,4-1.8c1-1,2.5-1.1,3.6-0.2l0,0l-0.2,4
			c-1-0.2-2.1-0.2-3.1,0 M120.5,74.1L120.5,74.1c0.1,0.6,0.3,1.1,0.6,1.6l0,0c-0.9,1.7-2.9,2.3-4.6,1.4c-0.7-0.4-1.3-1.1-1.6-1.9
			l0,0l27.3-13.6l0,0c0,0.1,0,0.3,0,0.4c0,2.8-0.6,5-5,5c-0.7,0-1.3-0.1-1.9-0.4l0,0c0.4,0.3,0.8,0.6,1.3,0.8
			c-1.1,3.6-4,6.5-7.6,7.6C126.1,76.5,122.8,76.1,120.5,74.1 M129.6,90.2h-2.1l0.5-13l0.8-0.2h0.2L129.6,90.2z M116.6,102.7
			c-0.4,0-0.8-0.2-1.1-0.4l-4.9-6.8c-0.1-0.2,0.3-0.5,0.5-0.3l5.3,5.1c0.6,0.6,1.5,1,2.4,1h2.8l1,1.4L116.6,102.7z M124,102.7
			l-1-1.4h3.6l1,1.4H124z M129.2,102.7l-0.9-1.4h3.6l1,1.4L129.2,102.7z M134.3,102.7l-1-1.4h3.6l1,1.4H134.3z M142.3,101.1
			c0,0.8-0.7,1.5-1.5,1.6h-1.4l-1-1.4c1-0.1,1.9-0.8,2.2-1.8v-0.1l2-4.3c-0.2,0.5-0.3,1.1-0.3,1.6L142.3,101.1z M149,91.4h-6.6
			c-0.9,0-3.8,2.4-3.8,2.4c-0.1,0.1-0.3,0.2-0.5,0.2H120c-0.1,0-0.2-0.1-0.4-0.1l-4.8-2.4c-0.2-0.1-0.4-0.2-0.7-0.2H103
			c-0.8,0-0.9-1.5,0-1.5h14.3c0.2,0,0.5,0.1,0.7,0.2l1.9,1.4c0.5,0.3,1,0.4,1.6,0.4h15.4c0.4,0,0.7-0.2,1-0.5l0,0
			c0,0,1.8-1.6,2.1-1.6h9L149,91.4z M137.2,99.8c0,0-0.8-1.1-1-1.3c-0.1-0.2,0-0.3,0.1-0.3c0.1,0,0.2,0.1,0.3,0.1
			c0.2,0.3,0.2,0.4,0.4,0.4c0.2,0,0.3-0.2,0.3-0.4c0,0,0,0,0,0c0-1.1-1-1.6-2-1.6c-1,0-1.8,0.5-1.8,1.6c0.1,0.2,0.3,0.4,0.5,0.3
			c0.4,0,0.2-0.5,0.5-0.5c0.1,0,0.2,0,0.3,0.1l0.7,0.9l0.4,0.5H132c0,0-0.8-1.1-1-1.3c-0.1-0.2,0-0.3,0.1-0.3c0.1,0,0.2,0.1,0.3,0.1
			c0.2,0.3,0.2,0.4,0.4,0.4c0.2,0,0.4-0.1,0.4-0.3c0,0,0,0,0,0c0-1.1-1-1.6-2-1.6s-1.8,0.5-1.8,1.6c0.1,0.2,0.3,0.4,0.5,0.3
			c0.4,0,0.2-0.5,0.5-0.5c0.1,0,0.2,0,0.3,0.1l0.7,0.9l0.4,0.5h-3.8c0,0-0.8-1.1-1-1.3c-0.1-0.2,0-0.3,0.1-0.3
			c0.1,0,0.2,0.1,0.3,0.1c0.2,0.3,0.2,0.4,0.4,0.4c0.2,0,0.4-0.3,0.4-0.3c0-1.1-1-1.6-2-1.6c-1,0-1.8,0.5-1.8,1.6
			c0.1,0.2,0.3,0.4,0.5,0.3c0.4,0,0.2-0.5,0.5-0.5c0.1,0,0.2,0,0.3,0.1l0.7,0.9l0.4,0.5h-3.6c0,0-1-1-1-1.3c0-0.3,0-0.3,0.1-0.3
			c0.1,0,0.2,0.1,0.3,0.1c0.2,0.3,0.2,0.4,0.4,0.4c0.2,0,0.3-0.1,0.4-0.3c0,0,0-0.1,0-0.1c0-1.1-1-1.6-2-1.6c-1,0-1.8,0.5-1.8,1.6
			c0.1,0.2,0.3,0.4,0.5,0.3c0.4,0,0.2-0.5,0.5-0.5c0.1,0,0.2,0,0.3,0.1l0.7,0.9l0.4,0.5h-2.2c-0.4,0-0.8-0.4-1.1-0.6l-5.1-4.9
			c-0.4-0.2-0.7-0.2-1.1-0.2h-3.8c-1,0-1-1.2,0-1.2h6.4c0.2,0,0.5,0.1,0.7,0.2l4.7,2.5c0.3,0.2,0.7,0.3,1.1,0.3h18.2
			c0.5,0.1,1-0.1,1.4-0.4l0,0l1.7-1.6l-2.4,4.9v0.1c-0.1,0.5-0.6,0.9-1.1,0.9L137.2,99.8L137.2,99.8z"/>
		<path id="path69" class="st1" d="M124.4,63.3c-0.9,0.2-1.9,0.1-2.8-0.1c-0.8-0.4-1.5-0.9-1.9-1.7h0.4c1.5-0.1,2.9-0.8,4-1.8
			c1-1,2.5-1.1,3.6-0.2l0,0l-0.2,4c-1-0.2-2.1-0.2-3.1,0 M120.5,74.1L120.5,74.1c0.1,0.6,0.3,1.1,0.6,1.6l0,0
			c-0.6,1.1-1.7,1.9-3,1.8c-1.4,0-2.8-0.9-3.2-2.3l0,0l27.3-13.6l0,0c0,0.1,0,0.3,0,0.4c0,2.8-0.6,5-5,5c-0.7,0-1.3-0.1-1.9-0.4l0,0
			c0.4,0.3,0.8,0.6,1.2,0.8c-1.1,3.6-4,6.5-7.6,7.6C126.1,76.6,122.8,76.1,120.5,74.1 M129.6,90.2h-2.1l0.5-13l0.8-0.2h0.2
			L129.6,90.2z M116.6,102.7c-0.4,0-0.8-0.2-1.1-0.4l-4.9-6.8c-0.1-0.2,0.3-0.5,0.5-0.3l5.3,5.1c0.6,0.6,1.5,1,2.4,1h2.8l1,1.4
			L116.6,102.7z M124,102.7l-1-1.4h3.6l1,1.4H124z M129.2,102.7l-1-1.4h3.6l1,1.4L129.2,102.7z M134.3,102.7l-1-1.4h3.6l1,1.4H134.3
			z M142.3,101.1c0,0.8-0.7,1.5-1.5,1.6h-1.4l-1-1.4c1-0.1,1.9-0.8,2.2-1.8v-0.1l2-4.3c-0.2,0.5-0.3,1.1-0.3,1.6L142.3,101.1z
			 M149,91.4h-6.6c-0.9,0-3.8,2.4-3.8,2.4c-0.1,0.1-0.3,0.2-0.5,0.2H120c-0.1,0-0.2-0.1-0.4-0.1l-4.8-2.4c-0.2-0.1-0.4-0.2-0.7-0.2
			H103c-0.8,0-0.9-1.5,0-1.5h14.3c0.2,0,0.5,0.1,0.7,0.2l1.9,1.4c0.5,0.3,1,0.4,1.6,0.4h15.4c0.4,0,0.8-0.2,1-0.5l0,0
			c0,0,1.8-1.6,2.1-1.6h9L149,91.4z M137.2,99.8c0,0-0.8-1.1-1-1.3c-0.1-0.2,0-0.3,0.1-0.3c0.1,0,0.2,0.1,0.3,0.1
			c0.2,0.3,0.2,0.4,0.4,0.4s0.4-0.3,0.4-0.3c0-1.1-1-1.6-2-1.6s-1.8,0.5-1.8,1.6c0.1,0.2,0.3,0.4,0.5,0.3c0.4,0,0.2-0.5,0.5-0.5
			c0.1,0,0.2,0,0.3,0.1l0.7,0.9l0.4,0.5H132c0,0-0.8-1.1-1-1.3c-0.1-0.2,0-0.3,0.1-0.3c0.1,0,0.2,0.1,0.3,0.1
			c0.2,0.3,0.2,0.4,0.4,0.4c0.2,0,0.3-0.1,0.4-0.3c0,0,0-0.1,0-0.1c0-1.1-1-1.6-2-1.6c-1,0-1.8,0.5-1.8,1.6c0.1,0.2,0.3,0.4,0.5,0.3
			c0.4,0,0.2-0.5,0.5-0.5c0.1,0,0.2,0,0.3,0.1l0.7,0.9l0.4,0.5h-3.8c0,0-0.8-1.1-1-1.3c-0.1-0.2,0-0.3,0.1-0.3
			c0.1,0,0.2,0.1,0.3,0.1c0.2,0.3,0.2,0.4,0.4,0.4c0.2,0,0.4-0.1,0.4-0.3c0,0,0,0,0,0c0-1.1-1-1.6-2-1.6c-1,0-1.8,0.5-1.8,1.6
			c0.1,0.2,0.3,0.4,0.5,0.3c0.4,0,0.2-0.5,0.5-0.5c0.1,0,0.2,0,0.3,0.1l0.7,0.9l0.4,0.5h-3.6c0,0-1-1.1-1-1.3c0-0.3,0-0.3,0.1-0.3
			c0.1,0,0.2,0.1,0.3,0.1c0.2,0.3,0.2,0.4,0.4,0.4c0.2,0,0.3-0.1,0.4-0.3c0,0,0-0.1,0-0.1c0-1.1-1-1.6-2-1.6c-1,0-1.8,0.5-1.8,1.6
			c0.1,0.2,0.3,0.4,0.5,0.3c0.4,0,0.2-0.5,0.5-0.5c0.1,0,0.2,0,0.3,0.1l0.7,0.9l0.4,0.5h-2.2c-0.4,0-0.8-0.4-1.1-0.6l-5.1-4.9
			c-0.4-0.2-0.7-0.2-1.1-0.2h-3.8c-1,0-1-1.2,0-1.2h6.4c0.2,0,0.5,0.1,0.7,0.2l4.7,2.5c0.3,0.2,0.7,0.3,1.1,0.3h18.2
			c0.5,0.1,1-0.1,1.4-0.4l0,0l1.7-1.6l-2.4,4.9v0.1c-0.1,0.5-0.6,0.9-1.1,0.9L137.2,99.8z"/>
		<path id="path70" class="st3" d="M61.2,162.9c-0.3,0-2.1-0.7-2.1-0.7c-1-0.3-2-2.8-2-2.8c0.7-0.6,1.5-1.1,2.4-1.3
			c0,0,2.3-0.2,2.5-1.3c0-0.2,0-0.4,0-0.5c0,0,0.3,0.4,6.8,0.4c6.5,0,6.8-0.4,6.8-0.4v0.1c0,1.3,3.2,1.7,3.2,1.7
			c0.7,0.1,1.2,0.6,1.6,1.1c0.2,0.5-0.5,0.9-2.2,2.8c-0.5,0.5-1.8,0.3-2.4,0.4l-0.1,0.2c0.4,0.8,0.8,1.6,1.1,2.4
			c-0.3,0-0.6,0.1-0.8,0.2c-0.3,0.2-0.6,0.5-0.7,0.9c0.3,0.6,0.5,1.2,0.7,1.8c-0.5,0-0.9,0.1-1.3,0.4c0.5,1.1,0.5,2.3,0,3.4
			c-0.6-0.4-1.2-0.6-1.9-0.6h-0.6c0,2.9-1,2.9-1,2.9c-1-1.3-3.1,0.1-3.1,0.1c-1.2-0.5-1.9-2.7-1.9-2.7c-0.6,0.1-1.2,0.5-1.6,1
			c-0.6-1.1-1-2.4-1-3.6c-0.7,0.1-1.3,0.5-1.7,1c-1.7-1.8,0.3-4.7,0.3-4.7c-0.4,0-0.8,0-1.2,0c-0.9-0.2-1.2-0.1-1.2,0
			c0.5-0.9,1-1.7,1.6-2.5 M57.6,197c-0.1-0.4-0.1-0.7,0-1.1l0,0c-0.7,0.1-1.3,0.4-1.7,0.9c0.6-0.1,1.2,0,1.8,0.2L57.6,197z
			 M58.2,200.3c-0.2-0.3-0.4-0.6-0.4-1c-0.6,0.3-1,0.9-1.1,1.5l0,0C57.1,200.5,57.6,200.3,58.2,200.3 M88.5,199.2c0-0.2,0-0.3,0-0.5
			c0-0.2,0-0.4,0-0.5c-0.6,0.1-1.1,0.5-1.5,1C87.6,199.1,88.1,199.1,88.5,199.2 M110.4,199.3c-0.1-0.3-0.1-0.7,0-1.1
			c-0.7,0.1-1.2,0.5-1.5,1.1C109.4,199.3,109.9,199.3,110.4,199.3 M70.5,147.5c2.5-0.2,3.9,0.5,4.7,2.3c0.3-0.3,0.4-0.6,0.5-1
			c0-0.5-0.4-1.5-2.6-2.1C70.9,146,70.5,147.3,70.5,147.5 M63.7,155.4c1.2,0.2,2.5,0.3,3.7,0.2c0.3,0,0.7-0.2,0.7-0.9
			c0-0.4-0.2-0.7-0.6-0.7c0,0-0.1,0-0.1,0c-1.2-0.1-2.4-0.1-3.6,0c-0.4,0.2-0.4,1.2,0,1.4 M63.7,152.8c0.2,0.2,1.4,0.1,1.4,0.1
			c0.1-0.8-0.5-1.4-1.3-1.5c-0.1,0-0.1,0-0.2,0C63.6,151.4,63.5,152.6,63.7,152.8 M69.6,154.7c0,0.7,0.3,0.8,0.7,0.9
			c1.3,0.1,2.5,0,3.7-0.2c0.3-0.2,0.3-1.2,0-1.4c-1.2-0.1-2.4-0.1-3.6,0c-0.4,0-0.7,0.2-0.7,0.6c0,0,0,0.1,0,0.1 M74.2,151.5
			c-0.8,0-1.4,0.6-1.4,1.4c0,0.1,0,0.1,0,0.2c0,0,1.2,0,1.4-0.1S74.1,151.5,74.2,151.5 M69.8,148.7l-0.5,1.8l1.8-0.6v2.1l-1.8-0.6
			l0.5,1.6h1.8c-0.2-1.3,0.8-2.5,2.1-2.6c0.1,0,0.2,0,0.3,0c0.8,0-0.8-1.8-2.8-1.8c-0.4,0-0.9,0.1-1.3,0.2 M66.5,148.6
			c-2,0-3.6,1.8-2.8,1.8c1.3,0,2.4,1.1,2.4,2.4c0,0.1,0,0.2,0,0.3h1.8l0.5-1.6l-1.8,0.6v-2.4l1.8,0.6l-0.5-1.8
			c-0.4-0.1-0.9-0.2-1.3-0.2 M62.4,149.6c0.9-1.8,2.3-2.5,4.7-2.3c0-0.1-0.6-1.5-2.6-0.9c-2.1,0.6-2.6,1.6-2.6,2.1
			C62,149,62.2,149.3,62.4,149.6 M66.9,180.2c0.3,0.5,0.5,1,0.7,1.5c1-0.7,1.4-1.1,1.4-0.9c0,0.2-0.4,0.9,1.6,3.3
			c2.9-1.2,2.1-4.5,2-5.5c1.6-0.1,3.6,1.9,3.6,1.9c0.6-0.9,0.9-1.8,1.1-2.8c0-0.7,0-1.5-0.1-2.2c0.8-0.6,1.9-1,2.9-1.1
			c-1-2.8,0.4-3.6,0.4-3.6s-1.2-1.1-0.3-3.6c0.2-0.8,0.6-1.4,1.1-2l-0.6-0.3c-0.5-0.2-0.9-0.6-1.2-1.1l-0.4-0.5
			c-0.8,0.5-1.2,0.4-1.2,0.4c1.1,2,1,2.8,1,2.8c-1.1-0.4-1.6,0.1-1.6,0.1v0.2c0.8,2,0.3,2.8,0.2,2.7c-0.5-0.2-0.7-0.1-0.7-0.1
			c0,0.6,0,0.6,0,0.6c0.1,1.8-0.8,3.5-2.3,4.4c0-0.7-0.5-1.3-1.2-1.4c-0.1,1.5-1,2.8-2.4,3.3c-0.6-2.2-3.4,0.1-3.4,0.1
			c-0.6-1-1.3-1.9-2.1-2.8c-0.4,0.3-0.6,1.8-0.6,1.8c-1.3-1-2.1-2.4-2.4-4c-0.3,0.2-0.5,0.6-0.6,1c-1.5-0.5-2-2.7-2-2.7
			c-0.2,1.2-0.7,2.3-1.6,3.2c0.3,1.3,2.1,0.7,2.1,0.7c0.2,1.2,0.2,2.5-0.2,3.6c1.5,0.2,1.8-0.2,1.8-0.2c1.6,0.9,2.7,2.5,2.9,4.3
			c0.7-0.4,1.3-0.8,1.8-1.4 M60.6,202.6c-0.3-0.2-0.5-0.6-0.6-0.9c-0.5,0.5-0.8,1.1-0.8,1.8l0,0C59.6,203.1,60.1,202.8,60.6,202.6
			 M66.9,195.3c1.1-0.8,2.3-1.3,3.6-1.7c-1.2-1.1,1.1-4.5,1.1-4.5c0.2,0.3,0.4,0.5,0.6,0.7c0.6-1.1,1.3-2.1,1.3-2.1
			c-0.5-1-1.1-1.8-1.8-2.6c0,0-1.4,1-1.4,1c-1.6-1.9-2.6-3.3-2.6-3.3c0.1,0.7,0.2,1.4,0.2,2.1c0,3-0.9,5.9-2.5,8.4
			c-1.1,1.3-2.5,2.4-4,3.2c-0.3-0.3-0.6-0.6-0.9-0.8c-1-0.7-1.5-0.2-1.5-0.2c-0.3,0.2-0.4,0.6-0.3,0.9c0.1,0.6,0.9,0.7,0.9,0.7
			c0.7,0.2,1.3,0.5,1.7,1.1c-0.5-0.2-0.9-0.2-1.4-0.2c-0.8,0-0.8,0.6-0.8,0.6c-0.1,0.3,0,0.7,0.2,1c0.3,0.2,0.8,0.2,1.1,0
			c1.4-0.7,1.7,0,1.7,0c-0.7,0.2-1.5,1-0.8,1.8c0.7,0.8,2.7-1.3,2.7-1.3c0.5-0.6,1.1-1.1,1.8-1.3c-1.2-1.8,1.1-3.6,1.1-3.6
			 M69.7,200.4l-0.1-0.2c-0.1-0.1-0.1-0.2-0.2-0.3c0-0.2,0-0.4,0-0.6l0,0c-0.6,0.3-1,0.8-1.2,1.4c0,0,0,0,0,0.1
			c0.5-0.2,1.1-0.4,1.6-0.5 M72.1,202.5L72.1,202.5l-0.6-0.1h-0.1l-0.4-0.3c-0.3,0.6-0.3,1.2,0,1.8l0,0c0.3-0.5,0.6-0.9,1-1.3
			 M75.6,203.3c-0.3-0.1-0.5-0.3-0.7-0.5l0,0h-0.1c-0.3,0.6-0.3,1.2,0,1.8l0,0C74.9,204.1,75.2,203.7,75.6,203.3 M92.6,183.5
			c2.1-1.6,4.7-2.5,7.3-2.3c-1.3-0.7-2.7-1.1-4.2-1c-1.6,0.2-3,0.9-4.3,1.8L92.6,183.5z M90.7,195.9c0-0.2,0.1-0.3,0.1-0.4
			c0-0.2,0.2-0.3,0.3-0.5h-0.3c-0.6-0.1-1.1,0-1.6,0.3C89.7,195.5,90.2,195.7,90.7,195.9 M90.5,202.8l-0.3-0.3l0,0
			c-0.1-0.1-0.2-0.3-0.2-0.4c-0.5,0.4-0.7,0.9-0.8,1.5C89.6,203.3,90,203,90.5,202.8L90.5,202.8z M101.8,188.8c-0.5,0.2-1,0.2-1.5,0
			c1.8-4.9,1-5.5,1-5.5c-0.2-0.4-1.1-0.7-1.1-0.7c-2.5-0.3-5.1,0.5-7,2.2c-0.7,0.7-0.9,1.7-0.5,2.6c0.3-0.2,0.6-0.4,0.9-0.6
			c2-1,1.4,1.5,4.6,2.2c0,0,2.2,1,2.4,2.7c0.2,1.2-0.1,2.4-0.7,3.3c-0.5,1-1.6,1.7-2.8,1.6c-0.5,0-1.1,0-1.6-0.1
			c-0.9-0.1-1.7-0.5-2.4-0.9c-1-0.4-0.9,1.1-0.9,1.1c1.6,0.7,1.5,1.5,1.5,1.5c-3-1.4-3.6,0.1-3.6,0.1c-0.1,0.4,0.1,0.8,0.5,0.9
			c0.8,0.3,1.6,0.4,2.5,0.5c-1.4,0.7-1.3,1.5-1.3,1.5c0,0.9,1.2,0.4,1.2,0.4c0.9-0.5,1.6-1.1,2-2c0.7,0.2,1.3,0.8,1.5,1.5
			c1.2-1.9,1.9-2.2,1.9-2.2c1-0.7,2.1-1.3,3.2-1.7c0.6,0,1.3,0.2,1.8,0.6c0-1-0.3-2-0.7-2.9c0.6,0,1.2,0.1,1.7,0.3
			c-0.4-1-0.5-2.1-0.3-3.1c-1.3-0.6-2.1-2-2-3.5 M111.7,195c-0.7-0.1-1.3,0.2-1.8,0.7c0.5,0.1,1.1,0.2,1.6,0.4l0,0
			c0-0.1,0-0.1,0-0.2c0-0.1,0-0.2,0-0.2c0-0.1,0-0.2,0-0.3c0-0.1,0.1-0.1,0.1-0.2 M113.1,202.4c-0.2-0.2-0.4-0.4-0.6-0.6l-0.1-0.2
			c-0.4,0.5-0.6,1.2-0.5,1.8C112.2,203.1,112.6,202.7,113.1,202.4 M113.4,198.4c0,0-0.6-0.5-1.1-0.3c0,0-0.7,0.1-0.7,0.7
			c0,0.3,0.2,0.6,0.4,0.8l0.2,0.1C112.3,199.7,112.7,198.6,113.4,198.4 M122.5,194.9c-0.5-0.5-0.7-1.1-0.7-1.8c-0.2-1.5,0-3,0.6-4.5
			c-0.7,0.1-1.4,0.1-2.1,0c-0.1-1-0.4-2-1-2.8c-0.4,0.6-0.7,1.3-0.8,2.1c-4-1.3-4.7-3.6-4.7-3.6c-0.4-1.3-0.5-2.6-0.4-3.9
			c0.3-3.2-0.6-3.6-0.6-3.6c-0.6-1.2-1.2-1.3-1.8-1.2c-0.6,0.1-1.7,1.6-1.7,1.6c0.1-0.7,0.3-1.4,0.7-2c0.9-1.4,3.1-1.2,3.1-1.2
			c2.9-0.4,5.1-2.9,5-5.9c0.2-2.6-1.4-4.9-3.8-5.7c-0.9-0.2-1.8-0.3-2.7-0.3c-0.9,0-1.8-0.1-2.7-0.2c-1.8-0.3-2.3-2.6-2.3-2.5
			c-0.6,0.8-0.7,1.8-0.4,2.8c-0.9,0.1-1.8-0.1-2.6-0.5c-0.7-0.3-1.3-0.9-1.5-1.6c-0.1,0.9-0.2,1.8-0.1,2.7
			c-3.6-0.2-12.6-0.5-12.6-4.8c0-2.7,6.2-3.6,10.1-2.1c0,0,0.3-1.8,0-2.2c0,0,4.1,2.8,7.2,1.3c0.6-0.3,1.2-0.6,1.7-1.1
			c0,0-0.5,0.3-3.6-0.1c-1.4-0.2-1.1-0.6-0.5-1.8c-1.4,0-1-0.3-3.3-0.8c-1.6-0.3-3.2,0.1-4.5,0.9c-0.3-2-1.2-2.4-1.2-2.4
			c0,1.1-0.5,2.1-1.3,2.7c-0.8,0.6-1.7,1-2.7,1.3c-1.6,0.5-3.9,1.5-3.9,4.5c0,4.8,5.6,5.9,9.6,6.2c1.3,0.1,2.7,0.1,4,0
			c0,0.2,0.2,1.3,0.2,1.3c1-1,2.7-1,3.8,0c0,0,0.6-1.6,2.1-1.6c1.1,0.1,2.1,0.6,2.7,1.6c0.6-1.2,1.8-1.9,3.1-1.8
			c2.3,0.1,4.2,2,4.1,4.3c-0.1,2.3-2,4.2-4.3,4.1c-1.9,0.2-3.8,0-5.6-0.5c-1.4-0.7-3-1.2-4.6-1.4c-1.9-0.1-3.9,0.2-5.7,0.8
			c-3.1,0.4-6.3,0.4-9.4,0l-0.8-0.2c-1.8-0.5-3.5-1.4-4.8-2.7c-0.1,0.4-0.1,0.9,0,1.3c0.3,0.8,0.8,1.5,1.4,2.1
			c-1.4-0.1-1.6,0.7-1.6,0.7c-0.3,0.6-0.3,1.2,0,1.8c0.8,1.3,1.5,2.8,1.5,2.8c-0.5-0.3-1-0.6-1.6-0.7c-2.2-0.2-2.5,0.5-2.5,0.5
			c0.1,0.2,0.1,0.5,0.1,0.7c0.1,1.3-0.3,2.7-1.1,3.7c-0.3,0.6-0.6,1.2-0.9,1.8c-0.7-1-1.6-1.8-2.7-2.3c0.3,1.3-0.1,2.6-1,3.5
			c1.6,1.9,2.8,4,3.5,6.4c1.5,4.3,0.8,5.7,0.8,5.7c-0.4,1.3-1.5,2.1-2.8,2.3c-0.6,0.1-1.2,0-1.8-0.2c-0.4-0.4-1.2-0.5-1.6,0
			c-0.3,0.3-0.4,0.7-0.3,1.1c0.2,0.6,1.1,0.2,1.1,0.2c0.8-0.3,1,0.2,1,0.2c-0.7,0-0.8,0.9-0.8,0.9c0,0.6,0.5,0.7,0.5,0.7
			c0.6,0.1,1.2,0,1.7-0.4c0.4-0.2,0.4-0.8,1-1.2c0.4-0.2,0.9-0.2,1.3,0c-0.5,0-0.9,1-0.9,1c-0.3,1.2,1,1.2,1,1.2
			c0.7,0,0.9-1.2,0.9-1.2c0.4-0.6,1.1-1,1.8-1.1c0.7-0.2,0.6-0.5,0.8-1.8c0.5-1.5,1.1-3,2-4.3c-2.4-0.4-2.2-2.1-2.2-2.1
			c0.5,0,0.9-0.3,1.2-0.7c-0.8-0.7-1.4-1.6-1.7-2.6c-0.2-1.5,0-3,0.6-4.3c0.5-1.5,1.5-2.9,2.7-4c-0.7,1.2-1.1,2.5-1.2,3.9
			c2.2,0.3,4.2-1.2,4.5-3.4c0.1-0.7,0-1.3-0.2-2c1,1.5,1.2,3.4,0.4,5c4.9-1.1,3.3-6.2,3.3-6.2c1,0.7,1.5,1.9,1.4,3.2
			c1.1-1,2.5-1.5,3.9-1.6c-0.3-0.4-0.6-0.7-1-1.1c7.1-0.4,8.8,4.2,8.8,4.2c0.7,1.4,0.9,3,0.4,4.5c0.7-0.3,3.1-2,3.1-2
			c0.2,1.5,0.6,3,1.2,4.4c0-2.3,2.9-0.7,2.9-0.7c1.3,0.7,6.2,2.5,6.2,2.5c0.8,0.3,1.4,0.9,1.7,1.6c0.4,1,0.4,2.1,0.1,3.1
			c-0.3,1-1.2,1.7-2.2,1.8c-0.4,0-1.2-0.7-1.2-0.7c-0.3-0.3-0.6-0.6-0.9-0.9c-0.2-0.1-0.5,0-0.8,0.1c-0.3,0.1-0.1,0.7-0.1,0.7
			c0.1,0.3,0.2,0.5,0.5,0.6c0.6,0.2,1.1,0.7,1.3,1.3c0.9,0,1.8,0.6,2,1.5c-0.7-0.7-1.9-0.7-2.6,0c0,0,0,0,0,0
			c-0.3,0.3-0.4,0.7-0.2,1c0.5,0.8,1,0.5,2,0c1-0.3,2.1-0.5,3.2-0.5c0.6,0,0.9-0.2,1-0.4c0.1-0.6,0.1-1.2,0.1-1.8
			C120.2,196.4,122.4,194.9,122.5,194.9"/>
		<path id="path71" class="st4" d="M123.5,193.2c-0.1-0.9-0.1-1.9-0.1-2.9c0-1.2,1.8-2.1,1.8-2.1c-0.9-1-3.4-0.8-3.4-0.8
			c0-0.6-1.3-2.2-1.7-3.8c-1.8,0-2.5,2.2-2.5,2.2c-0.7-0.4-1.3-0.9-1.8-1.5c-0.9-1-0.5-4.4-0.5-4.4c0-4.7-1.4-4.4-1.4-4.4
			c6.5-1.1,6.1-7.9,6.1-7.9c-0.1-4-3.4-7.2-7.4-7.1c-0.2,0-0.4,0-0.6,0H110c-2.4,0-2.3-3-2.3-3c-2.4,0.2-2.8,3-2.8,3
			c-2.1-0.3-1.8-2.9-1.8-2.9c-2.3,0.3-2.4,3.6-2.4,3.6c-3.3,0-9.7-0.8-9.7-3.1c0-0.9,0.8-1.7,5.7-1.7c1.5,0.1,2.9,0.7,4,1.8
			c0.2-0.8,0.2-1.7,0.2-2.5c1.9,1.2,4.2,1.5,6.3,0.7c1.9-0.7,3.3-2.3,3.9-4.2c0,0-1.1,1-5.6,0.5c0.5-0.8,0.9-1.7,1.1-2.7
			c-1,0.6-2.2,0.8-3.2,0.4c-1.9-1-4.1-1.1-6.1-0.2c0,0-1.1-2.6-3.1-2.8c0,0,1.4,3.1-3.2,4.9c-0.9,0.3-5,1.5-5,5.7
			c0,4.1,3.8,7.6,13.9,7.6c0.1,0.6,0.2,1.2,0.4,1.8c0,0,1.8-2.8,5.1-0.2c0,0,0.6-2.1,2-2.1s2.1,2.1,2.7,2.3c0.1-1.2,1-2.1,2.1-2.3
			c0,0,2.7-0.5,2.9,2.7c0,0,0.1,2.5-3.2,2.6c-1.9,0.1-3.9-0.2-5.7-0.9c-2.9-1.1-6.1-1.2-9.1-0.2c-3.3,0.7-6.7,0.7-10.1,0
			c-2.9-0.6-4.6-1.6-4.6-2.8s1.7-0.7,1.5-1c-0.2-0.7-0.9-1.1-1.8-1.6c-2.3-0.9-2.7-1.4,0.2-4.3c0,0,0.2-1.4-1.7-2.7
			c-0.5-0.3-1.2-0.5-1.8-0.5c0.4-0.7,0.6-1.6,0.6-2.4c0,0-2.6,0.2-3.1,1.3c0,0-0.7,0-0.7-0.6c0-0.6,0-1.8,0-1.8
			c0-1.6,0.2-1.6,0.6-2.2c0.7-0.9,0.9-2.2,0.4-3.2c-1.2-1.4-2.9-2.2-4.8-2c-0.7,0.2-1.2,0.6-1.7,1.1l0,0l-0.6-2l1.9,0.6v-2.3
			l-1.9,0.7l0.5-2.1h-2.2l0.6,2l-1.9-0.7v2.3l1.9-0.6l-0.6,2l0,0c-0.4-0.6-1-1-1.7-1.1c-1.8-0.2-3.6,0.6-4.8,2
			c-0.5,1.1-0.3,2.3,0.4,3.2c0.4,0.6,0.6,0.5,0.6,2.1c0,0,0,1.3,0,1.8s-0.7,0.6-0.7,0.6c-0.5-1.1-3.1-1.3-3.1-1.3
			c0,0.8,0.1,1.7,0.5,2.5l0.1,0.2c-3.4,1.1-4.7,2.4-3.5,3.8c0.7,0.9,1.4,1.9,2.1,2.8c0.3,0.3,0.6,0.4,1,0.5c-0.8,1-1.3,2.3-1.5,3.6
			c0.6-0.5,1.4-0.7,2.2-0.5h0.1c-0.1,0.4-0.1,0.7-0.1,1.1c-0.3,0-0.5,0.1-0.7,0.3c-0.3,0.4-0.5,0.9-0.5,1.4
			c-0.1,0.8-0.4,1.6-0.9,2.3l0,0c-0.2,0.5-0.6,0.8-1.1,1c0.3,1.3,1.4,2.2,2.7,2.3c0.8,0.8-0.5,3.3-0.5,3.3c2,1.1,2.9,0.3,2.9,0.3
			c2.7,1.1,2.1,5.3,2.1,5.3c0.8-0.6,1.6-1,2.5-1.3c0.6,1.4,0,6.3-1.4,8.7c-0.7,1.4-1.9,2.5-3.2,3.3c-0.6-0.6-1.5-0.9-2.3-0.7
			c-0.6,0.1-1.1,0.4-1.3,1c0,0-2.7,0-2.9,2.4c0.9-0.3,1.9-0.3,2.8,0.1l0.3,0.1l0.2,0.2c-0.1,0.2-0.2,0.3-0.3,0.5h-0.2
			c-1.3,0.6-2,2-1.7,3.4c0.7-0.7,1.6-1.1,2.6-1.1c0.3,0.2,0.6,0.4,0.9,0.4c-1.1,0.9-1.3,2.4-0.6,3.6c0.5-0.8,1.3-1.4,2.3-1.7h0.4
			c0.2,0,0.5,0,0.7,0c1.3,0,2.8-1.9,2.8-1.9c0.7-0.6,1.6-0.9,2.5-0.9c-0.3,0.6-0.3,1.2-0.1,1.8c0.7-0.6,1.7-1,2.6-1h0.6
			c0,0,0,0.1,0,0.1l-0.1,0.2c-0.7,1.2-0.5,2.8,0.6,3.7c0.2-0.9,0.7-1.8,1.5-2.3l0.3-0.2c0.5-0.1,1-0.3,1.3-0.7v0.1v0.2
			c0,0-1.1,2.5,0.9,3.6c0.1-0.9,0.5-1.8,1.2-2.4h0.3c0.9,0.1,1.8-0.5,2-1.5c0.1-0.4,0.4-0.6,0.8-0.7c1.8-0.3,1.7-0.7,1.9-1.2
			c0.1-0.8,0.2-1.5,0.2-2.3c0.5-2,1.4-3.8,2.5-5.5c-0.7,0.1-1.5,0-2.2-0.3c0.3-0.1,0.5-0.2,0.7-0.4c0.3-0.3,0.7-0.5,1.1-0.5
			c-0.4-0.5-0.9-0.9-1.4-1.3c-1.6-0.8-2.2-2.8-1.3-4.4c0,0,0,0,0,0c6.6,0.4,9.1-2.3,9.1-2.3l1.2,1.5c-1,2-0.3,4.5,1.6,5.8
			c-0.3-0.9,0.2-1.9,1-2.2c0.5,1.4,3.5,2.6,3.5,2.6c1,0.3,1.6,1.4,1.3,2.4c0,0,0,0,0,0c-0.2,1.3-1.2,2.2-2.5,2.3
			c-0.6,0.1-1.2,0-1.8-0.3c-0.5-0.4-1.2-0.7-1.8-0.8c-0.3,0-0.6,0-0.8,0.1h-0.3c-1.4-0.5-2.9,0.1-3.6,1.3c0.9,0,1.8,0.3,2.4,0.9
			c-0.7,0-1.4,0.3-1.8,0.9l0,0c0,0-2.7,0.3-2.7,2.7c0.9-0.4,1.9-0.4,2.8-0.1h0.1c0.3,0.4,0.8,0.6,1.3,0.7l0,0
			c-0.1,0.1-0.3,0.1-0.4,0.2c-1.2,0.8-1.6,2.3-1,3.6c0.6-0.8,1.4-1.3,2.3-1.5h0.1c0.2,0.1,0.4,0.1,0.7,0.1c1.1,0.3,2.6-1.3,2.6-1.3
			c0.7,1.1,0.9,1.1,0.9,1.1c0.9,0.7,2.1-0.8,2.1-0.8c0.5-0.7,1.2-1.3,1.8-1.8c2.2-1.7,3.2-0.9,3.2-0.9c0.5,0.2,1,0.6,1.2,1.1
			c1.3-0.8,0.9-3.8,0.9-3.8c0.7,0.3,1.4,0.7,2.1,1.2c0-1.2-0.4-2.4-1.1-3.3c-0.5-1.1-0.4-2.4,0.3-3.3c-0.6-0.2-1.2-0.5-1.8-0.9
			c-1-0.6-0.7-2.5-0.7-2.5c0.5-0.3,1-0.6,1.4-0.9c1.4,3.9,3,4.1,3,4.1c0-0.6,0-2,0.5-2.1c2.4,0.9,4.8,1.9,7.1,3c1.1,0.4,1,2,1,2
			c0.1,0.7-0.4,1.3-1.1,1.4c-0.5-1.1-1.8-1.7-2.9-1.2c-0.2,0.1-0.3,0.1-0.4,0.2h-0.2c0,0-2.7-0.3-3.2,2c0.9-0.2,1.9,0,2.8,0.5l0,0
			c-0.3,0.2-0.7,0.4-0.9,0.7h-0.1c0,0-2.6,0.4-2.6,2.8c0.9-0.4,1.9-0.5,2.8-0.3l0,0c0.4,0.4,0.8,0.7,1.3,0.8
			c-0.8,1.1-0.8,2.6,0.1,3.7c0.4-0.9,1.1-1.6,2-2l0,0c0.5,0.1,1,0.1,1.4,0c0.9-0.5,2-0.8,3.1-0.8c3.1,0,3.4-1.2,3.4-3.3
			c0-2.2,3.6-3.1,3.6-3.1C125,195.1,123.6,194.1,123.5,193.2L123.5,193.2z M57.6,197c-0.6-0.2-1.2-0.3-1.8-0.2
			c0.4-0.5,1-0.9,1.7-0.9l0,0c-0.1,0.4-0.1,0.7,0,1.1L57.6,197z M56.6,200.9L56.6,200.9c0.1-0.6,0.6-1.2,1.1-1.5
			c0,0.4,0.2,0.7,0.4,1C57.7,200.4,57.1,200.5,56.6,200.9L56.6,200.9z M87,199.3c0.3-0.5,0.9-0.9,1.5-1c0,0.2,0,0.4,0,0.5
			c0,0.2,0,0.3,0,0.5c-0.5-0.1-1-0.2-1.5-0.2V199.3z M108.7,199.6c0.3-0.6,0.9-1,1.5-1.1c-0.1,0.3-0.1,0.7,0,1.1
			c-0.5-0.1-1-0.1-1.5-0.1V199.6z M73.1,146.8c2.2,0.7,2.6,1.6,2.6,2.1c0,0.4-0.2,0.7-0.5,1c-0.9-1.8-2.3-2.5-4.7-2.3
			c0-0.3,0.6-1.7,2.6-1.1L73.1,146.8z M63.8,154.2c1.2-0.1,2.4-0.1,3.6,0c0.4,0,0.7,0.2,0.7,0.6c0,0,0,0.1,0,0.1
			c0,0.7-0.3,0.8-0.7,0.9c-1.3,0.1-2.5,0-3.7-0.2c-0.3-0.4-0.3-1.4,0.1-1.6L63.8,154.2z M63.5,151.5c0.8,0,1.4,0.6,1.4,1.4
			c0,0,0,0.1,0,0.1c0,0-1.2,0-1.4-0.1C63.4,152.7,63.5,151.5,63.5,151.5L63.5,151.5z M70.3,154.1c1.2-0.1,2.4-0.1,3.6,0
			c0.4,0.2,0.3,1.2,0,1.4c-1.2,0.2-2.5,0.3-3.7,0.2c-0.3,0-0.7-0.2-0.7-0.9c-0.1-0.3,0.1-0.7,0.5-0.8C70,154,70.1,154,70.3,154.1
			L70.3,154.1z M74.2,152.8c-0.2,0.2-1.4,0.1-1.4,0.1c-0.1-0.8,0.5-1.4,1.3-1.5c0.1,0,0.1,0,0.2,0C74.2,151.5,74.4,152.5,74.2,152.8
			L74.2,152.8z M71.1,148.5c2,0,3.6,1.8,2.8,1.8c-1.3,0-2.4,1.1-2.4,2.4c0,0.1,0,0.2,0,0.3h-1.8l-0.5-1.6l1.8,0.6v-2.2l-1.8,0.6
			l0.5-1.8C70.3,148.3,70.7,148.3,71.1,148.5L71.1,148.5z M67.9,148.7l0.5,1.8l-1.8-0.6v2.1l1.8-0.6l-0.5,1.6h-1.8
			c0.2-1.3-0.8-2.5-2.1-2.6c-0.1,0-0.2,0-0.3,0c-0.8,0,0.8-1.8,2.8-1.8C67,148.5,67.5,148.5,67.9,148.7L67.9,148.7z M62,148.8
			c0-0.5,0.4-1.5,2.6-2.1c2.2-0.7,2.6,0.7,2.6,0.9c-2.5-0.2-3.9,0.5-4.7,2.3C62.2,149.5,62,149.2,62,148.8L62,148.8z M59.1,162.2
			c-1-0.3-2-2.8-2-2.8c0.7-0.6,1.5-1.1,2.4-1.3c0,0,2.3-0.2,2.5-1.3c0-0.2,0-0.4,0-0.5c0,0,0.3,0.4,6.8,0.4c6.5,0,6.8-0.4,6.8-0.4
			v0.1c0,1.3,3.2,1.7,3.2,1.7c0.7,0.1,1.2,0.5,1.6,1.1c0.2,0.5-0.5,0.9-2.2,2.8c-0.5,0.5-1.9,0.3-2.4,0.4v0.2
			c0.4,0.8,0.8,1.6,1.1,2.4c-0.3,0-0.6,0.1-0.8,0.2c-0.3,0.2-0.6,0.5-0.7,0.9c0.3,0.6,0.5,1.2,0.7,1.8c-0.5,0-0.9,0.1-1.3,0.4
			c0.5,1.1,0.5,2.3,0,3.4c-0.6-0.4-1.2-0.6-1.9-0.6h-0.6c0,2.9-1,2.9-1,2.9c-1-1.3-3.1,0.1-3.1,0.1c-1.2-0.5-1.9-2.7-1.9-2.7
			c-0.6,0.1-1.2,0.5-1.6,1c-0.6-1.1-1-2.3-1-3.5c-0.7,0.1-1.3,0.5-1.7,1c-1.7-1.8,0.3-4.7,0.3-4.7c-0.4,0-0.8,0-1.2,0
			c-0.9-0.2-1.2-0.1-1.2,0c0.5-0.9,1-1.7,1.6-2.5C61,162.8,59.1,162.2,59.1,162.2L59.1,162.2z M64.9,181.6c-0.2-1.8-1.3-3.4-3-4.3
			c0,0-0.3,0.4-1.8,0.2c0.4-1.2,0.5-2.4,0.2-3.6c0,0-1.8,0.6-2.1-0.7c0.9-0.9,1.4-2,1.6-3.2c0,0,0.5,2.2,2,2.7c0-0.4,0.3-0.8,0.6-1
			c0.3,1.6,1.2,3,2.4,3.9c0,0,0.2-1.4,0.6-1.8c0.7,0.9,1.4,1.8,2.1,2.8c0,0,2.8-2.4,3.4-0.1c1.4-0.6,2.3-1.9,2.4-3.3
			c0.7,0.1,1.2,0.7,1.2,1.4c1.5-0.9,2.4-2.6,2.3-4.4c0,0,0,0,0-0.6c0,0,0.2-0.1,0.7,0.1c0.2,0,0.7-0.7-0.2-2.7v-0.2
			c0,0,0.5-0.5,1.6-0.1c0,0,0.1-0.8-1-2.8c0,0,0.4,0.1,1.2-0.4l0.3,0.5c0.3,0.5,0.7,0.9,1.2,1.1l0.6,0.3c-0.6,0.5-1,1.2-1.1,2
			c-0.9,2.5,0.3,3.6,0.3,3.6s-1.3,0.8-0.4,3.6c-1.1,0.1-2.1,0.5-2.9,1.1c0.1,0.7,0.2,1.5,0.2,2.3c-0.2,1-0.6,1.9-1.2,2.8
			c0,0-2.1-2-3.6-1.9c0.2,0.9,0.9,4.3-2,5.5c-2-2.4-1.6-3.1-1.6-3.3c0-0.2-0.4,0.1-1.4,0.9c-0.2-0.5-0.4-1-0.7-1.5
			C66.4,180.8,65.7,181.2,64.9,181.6L64.9,181.6z M59.2,203.4L59.2,203.4c0-0.7,0.3-1.4,0.8-1.8c0.1,0.4,0.3,0.7,0.6,0.9
			C60.1,202.8,59.6,203.1,59.2,203.4L59.2,203.4z M65.8,198.8c-0.7,0.2-1.4,0.7-1.8,1.3c0,0-1.8,2.3-2.7,1.3s0.1-1.6,0.8-1.8
			c0,0-0.3-0.7-1.7,0c-0.3,0.2-0.8,0.2-1.1,0c-0.2-0.3-0.3-0.6-0.2-1c0,0,0-0.5,0.8-0.6c0.5-0.1,1,0,1.4,0.2c-0.4-0.5-1-0.9-1.7-1.1
			c0,0-0.8,0-0.9-0.7c-0.2-0.3-0.1-0.7,0.3-0.9c0,0,0.4-0.5,1.5,0.2c0.3,0.3,0.6,0.5,0.9,0.8c1.5-0.8,2.9-1.9,4-3.2
			c1.6-2.5,2.5-5.5,2.5-8.5c0-0.7-0.1-1.4-0.2-2.1c0,0,0.9,1.4,2.6,3.3l1.4-1c0.7,0.8,1.3,1.7,1.8,2.6c0,0-0.7,1-1.3,2.1
			c-0.2-0.2-0.4-0.5-0.6-0.7c0,0-2.4,3.4-1.1,4.5c-1.3,0.3-2.5,0.9-3.6,1.7C66.9,195.2,64.6,197,65.8,198.8L65.8,198.8z M68,200.9
			C68,200.9,68,200.9,68,200.9c0.2-0.7,0.6-1.2,1.2-1.5l0,0c0,0.2,0,0.4,0,0.6c0,0.1,0.1,0.2,0.2,0.3l0.1,0.2
			C69,200.6,68.5,200.7,68,200.9L68,200.9z M69.4,198.2c0,0.1,0,0.2,0,0.3c-0.6,0.2-1.1,0.5-1.5,1c-3.6-3.3,4.1-5.1,4.4-5.1
			c-0.9-0.8-1-2.2-0.2-3.1c0.8,0.9,1.5,0.6,1.5,0.6c-0.6-2,0.7-2.7,0.7-2.7c0.8,1.6,1.3,3.3,1.5,5.1c0.3,1.2-0.4,2.3-1.6,2.6
			c-0.3,0.1-0.6,0.1-0.9,0c-0.9-0.9-2.4-0.9-3.3,0C69.7,197.3,69.5,197.8,69.4,198.2L69.4,198.2z M71,203.8L71,203.8
			c-0.3-0.6-0.3-1.2,0-1.8c0.1,0.1,0.3,0.2,0.4,0.3h0.1l0.4,0.1l0,0C71.5,202.9,71.2,203.4,71,203.8L71,203.8z M74.8,204.5
			L74.8,204.5c-0.3-0.6-0.3-1.2,0-1.8h0.1l0,0c0.2,0.2,0.5,0.4,0.7,0.5C75.3,203.6,75,204.1,74.8,204.5L74.8,204.5z M91.5,181.9
			c1.2-1,2.7-1.6,4.2-1.8c1.5-0.1,2.9,0.2,4.2,1c-2.6-0.1-5.2,0.7-7.3,2.3L91.5,181.9z M89.3,195.1c0.5-0.3,1.1-0.5,1.6-0.3h0.3
			c-0.1,0.2-0.2,0.3-0.3,0.5c-0.1,0.1-0.1,0.3-0.1,0.4C90.3,195.5,89.8,195.3,89.3,195.1L89.3,195.1z M90.6,202.6
			c-0.5,0.2-0.9,0.4-1.3,0.7c0-0.6,0.3-1.2,0.8-1.5c0.1,0.2,0.1,0.3,0.2,0.4l0,0L90.6,202.6L90.6,202.6z M103.8,192.1
			c-0.2,1.1-0.1,2.1,0.3,3.1c-0.6-0.2-1.2-0.3-1.8-0.3c0.4,0.9,0.7,1.9,0.7,2.9c-0.6-0.3-1.2-0.5-1.8-0.6c-1.1,0.4-2.2,1-3.2,1.7
			c0,0-0.7,0.3-1.9,2.2c-0.2-0.7-0.7-1.3-1.5-1.5c-0.5,0.8-1.2,1.5-2,2c0,0-1.3,0.5-1.2-0.4c0,0,0-0.8,1.3-1.5
			c-0.8-0.1-1.7-0.2-2.5-0.5c-0.4-0.1-0.6-0.5-0.5-0.9c0,0,0.7-1.5,3.6-0.1c0,0,0.1-0.7-1.5-1.5c0,0-0.2-1.5,0.9-1.1
			c0.7,0.5,1.5,0.8,2.4,0.9c0.5,0.1,1.1,0.1,1.6,0.1c1.2,0.2,2.4-0.4,3-1.5c0.7-1,1-2.2,0.8-3.4c-0.2-1.8-2.4-2.7-2.4-2.7
			c-3.2-0.7-2.7-3.1-4.6-2.2c-0.3,0.2-0.6,0.4-0.9,0.6c-0.4-0.9-0.2-1.9,0.5-2.6c1.9-1.7,4.5-2.5,7-2.2c0,0,1,0.3,1.1,0.7
			c0,0,0.8,0.5-1,5.5c0.5,0.2,1,0.2,1.5,0C101.7,190.2,102.5,191.6,103.8,192.1L103.8,192.1z M111.5,195.1c0,0.1,0,0.2,0,0.3
			c0,0.1,0,0.3,0,0.4l0,0c-0.5-0.2-1-0.3-1.6-0.4c0.5-0.5,1.1-0.7,1.8-0.7L111.5,195.1z M111.9,203.4c-0.1-0.6,0.1-1.3,0.5-1.8
			l0.1,0.2c0.2,0.2,0.4,0.4,0.6,0.6C112.6,202.6,112.2,203,111.9,203.4L111.9,203.4z M112.3,199.6l-0.2-0.1
			c-0.3-0.2-0.4-0.5-0.4-0.8c0-0.6,0.7-0.7,0.7-0.7c0.4-0.1,1.1,0.3,1.1,0.3C112.7,198.5,112.2,199.7,112.3,199.6L112.3,199.6z
			 M120.1,198c0,0.6,0,1.2-0.1,1.8c-0.1,0.2-0.4,0.4-1,0.4c-1.1,0-2.1,0.1-3.2,0.5c-1,0.5-1.5,0.8-2,0c-0.1-0.3-0.1-0.7,0.2-1
			c0.7-0.7,1.9-0.7,2.6,0c0,0,0,0,0,0c-0.2-0.9-1.1-1.5-2-1.5c-0.2-0.6-0.7-1.1-1.3-1.3c-0.2-0.1-0.4-0.3-0.5-0.6
			c0,0-0.1-0.5,0.1-0.7c0.3-0.2,0.6-0.3,0.8-0.1c0.3,0.3,0.6,0.6,0.9,0.9c0,0,0.7,0.7,1.2,0.7c1.1-0.1,1.9-0.8,2.2-1.8
			c0.3-1,0.3-2.1-0.1-3.1c-0.3-0.8-0.9-1.4-1.7-1.6c0,0-4.9-1.8-6.2-2.5c0,0-2.9-1.5-2.9,0.7c-0.6-1.4-1-2.9-1.2-4.4
			c0,0-2.4,1.7-3.2,2.1c0.5-1.5,0.4-3.1-0.4-4.5c0,0-1.7-4.5-8.8-4.2c0.4,0.3,0.7,0.7,1,1.1c-1.5,0.1-2.8,0.7-3.9,1.6
			c0.2-1.2-0.4-2.5-1.4-3.2c0,0,1.5,5.1-3.3,6.2c0.8-1.6,0.7-3.6-0.4-5c0.8,2-0.2,4.3-2.3,5.1c-0.6,0.2-1.3,0.3-2,0.2
			c0.1-1.3,0.5-2.7,1.2-3.8c-1.2,1.1-2.2,2.4-2.8,3.9c-0.6,1.4-0.8,2.9-0.6,4.3c0.3,1,0.8,1.9,1.6,2.6c-0.2,0.4-0.7,0.7-1.2,0.7
			c0,0-0.2,1.7,2.2,2.1c-0.9,1.3-1.6,2.8-2,4.3c-0.2,1.2-0.1,1.5-0.8,1.8c-0.7,0.1-1.4,0.5-1.8,1.1c0,0-0.2,1.1-0.9,1.2
			c0,0-1.3,0-1-1.2c0,0,0.3-1,0.9-1.1c-0.4-0.2-0.9-0.2-1.3,0c-0.7,0.4-0.7,1-1,1.2c-0.4,0.4-1.1,0.6-1.7,0.4c0,0-0.5,0-0.5-0.7
			c0,0,0-0.9,0.8-0.9c0,0-0.2-0.5-1-0.2c0,0-0.8,0.4-1.1-0.2c-0.1-0.6,0.3-1.2,0.9-1.4c0.4-0.1,0.8,0,1,0.3c0.6,0.2,1.3,0.3,1.9,0.2
			c1.3-0.1,2.5-1,2.9-2.3c0,0,0.7-1.5-0.9-5.7c-0.7-2.3-1.9-4.5-3.5-6.4c1-0.9,1.4-2.2,1.1-3.4c1.1,0.5,2.1,1.3,2.8,2.3
			c0.2-0.6,0.5-1.2,0.8-1.8c0.8-1.1,1.2-2.4,1.1-3.7c0-0.2-0.1-0.5-0.1-0.7c0,0,0.3-0.7,2.5-0.5c0.6,0.1,1.1,0.3,1.6,0.7
			c0,0-0.7-1.5-1.5-2.8c-0.3-0.6-0.3-1.2,0-1.8c0,0,0.2-0.8,1.6-0.7c-0.6-0.6-1.1-1.3-1.4-2.1c-0.1-0.4-0.1-0.9,0-1.3
			c1.3,1.3,3,2.2,4.8,2.7l0.8,0.2c3.1,0.4,6.3,0.4,9.4,0c1.8-0.6,3.8-0.9,5.7-0.8c1.6,0.2,3.2,0.7,4.7,1.4c1.8,0.5,3.7,0.7,5.6,0.5
			c2.3,0.1,4.3-1.8,4.3-4.1c0.1-2.3-1.8-4.3-4.1-4.3c-1.3-0.1-2.6,0.6-3.1,1.8c-0.6-0.9-1.6-1.5-2.7-1.6c-1.5,0-2.1,1.6-2.1,1.6
			c-1-1-2.7-1-3.8,0c0,0-0.2-1.1-0.2-1.3c-1.3,0.1-2.7,0-4-0.1c-4-0.3-9.6-1.4-9.6-6.2c0-3,2.3-3.9,3.9-4.5c1-0.3,1.9-0.7,2.7-1.3
			c0.9-0.6,1.4-1.6,1.4-2.6c0,0,0.8,0.5,1.2,2.4c1.3-0.9,3-1.3,4.5-1c2.3,0.6,1.8,0.7,3.3,0.8c-0.6,1.2-0.9,1.6,0.5,1.8
			c3.1,0.5,3.6,0.1,3.6,0.1c-0.5,0.4-1.1,0.8-1.7,1.1c-3,1.5-7.2-1.3-7.2-1.3c0.3,0.4,0,2.2,0,2.2c-3.8-1.4-10.1-0.6-10.1,2.1
			c0,4.2,9,4.6,12.6,4.8c-0.1-0.9,0-1.8,0.1-2.7c0.2,0.7,0.7,1.3,1.5,1.6c0.8,0.4,1.7,0.6,2.6,0.6c-0.3-0.9-0.2-2,0.4-2.8
			c0-0.1,0.4,2.2,2.3,2.5c0.9,0.1,1.8,0.2,2.7,0.2c0.9-0.1,1.8,0,2.7,0.3c2.5,0.8,4.1,3.1,3.9,5.7c0,2.9-2.1,5.5-5,5.9
			c0,0-2.2-0.3-3.1,1.2c-0.4,0.6-0.6,1.4-0.7,2.1c0,0,1-1.4,1.7-1.6c0.7-0.2,1.1,0,1.8,1.2c0,0,0.8,0.4,0.6,3.6
			c-0.2,1.3-0.1,2.6,0.3,3.8c0,0,0.7,2.4,4.7,3.6c0.1-0.7,0.4-1.4,0.8-2.1c0.6,0.8,0.9,1.8,1,2.8c0.7,0.1,1.4,0.1,2.1,0
			c-0.6,1.4-0.8,2.9-0.6,4.5c0,0.7,0.2,1.3,0.7,1.8C122.5,194.8,120.2,196.4,120.1,198L120.1,198z M60.9,160.3
			c0-0.4-0.3-0.8-0.7-0.9c-0.6-0.2-1.2-0.2-1.8,0c0.3-0.2,0.7-0.4,1.1-0.5c0.3-0.1,0.7-0.1,1,0c0.4,0,0.8,0.3,0.9,0.7
			C61.3,159.6,61.5,160.1,60.9,160.3z M70.4,160.3c0.8,0.5,1.7,0.8,2.6,0.6c0.6-0.1,1.1-0.5,1.2-1.1l0,0c0-0.7,1.1-2,1.1-2
			c-0.1,0.1-0.2,0.1-0.2,0.2c-0.6,0.4-1.3,0.6-1.9,0.6l-1.5,0.1c-0.5,0-0.9,0.2-1.3,0.5c-0.3,0.4-0.5,0.9-0.5,1.4l0.2-0.3
			C70.2,160.3,70.3,160.3,70.4,160.3L70.4,160.3z M68,162.4c0,0-1.4,1.8,0.8,1.8l0,0c2.2,0,0.8-1.8,0.8-1.8s2.7,2.1,0.8,2.7h0.2
			c3.2,0,1.8-3.1,1.8-3.1s2.5,2.8,0.3,3.9h0.1c0.3,0.1,0.3,0.5,0.2,0.7c0,0,0,0,0,0c-0.2,0.3-3.6,3.5-3.6,3.5
			c-0.3,0.6-0.9,0.6-1.2,0c0,0-3.4-3.2-3.6-3.5c-0.1-0.3-0.1-0.6,0.2-0.7c0,0,0.1,0,0.1,0c-2.2-1.1,0.3-3.9,0.3-3.9
			s-1.5,3.1,1.8,3.1h0.2C65.3,164.5,68,162.4,68,162.4L68,162.4z M70.3,168.2c0,0,1.8-1.8,1.9-2l0,0c-0.4,0.1-0.8,0.2-1.2,0.3
			C70.9,166.4,70.7,167.2,70.3,168.2L70.3,168.2z M67.4,168.2c-0.4-1-0.7-1.7-0.7-1.7c-0.4-0.1-0.8-0.2-1.2-0.3l0,0L67.4,168.2
			L67.4,168.2z M67.6,166.4c0,0,0.5,2.3,1.3,2.3s1.3-2.3,1.3-2.3h-0.3c-0.2,0-0.5-0.1-0.7-0.2h-0.8c-0.2,0.1-0.4,0.2-0.7,0.2H67.6
			L67.6,166.4z M64.8,160.8c0,0,1.5,0.5,1.8-0.8l0,0c0.1-0.1,0.2-0.2,0.3-0.2c0.1,0,0.2,0,0.3,0.1l0,0c0.3,0.2,0.5,0.4,0.7,0.7
			c-0.1-0.5-0.3-1-0.5-1.4c-0.3-0.4-0.8-0.6-1.3-0.5c-0.7,0.1-1.3,0.1-2,0c0,0-0.6,0.1-1.4-0.7c-0.1-0.1-0.1-0.1-0.2-0.2
			C62.4,157.8,63.6,160.7,64.8,160.8L64.8,160.8z M76.8,160.3c0-0.5,0.3-0.9,0.7-1c0.6-0.3,1.2-0.3,1.8-0.1c0,0,0-0.2-0.9-0.5
			c-0.4-0.1-0.9-0.1-1.3,0c-0.4,0.1-0.6,0.4-0.7,0.8C76.5,159.5,76.2,160.1,76.8,160.3L76.8,160.3z"/>
		<path id="path72" class="st3" d="M138.8,170.4l-4-13.5c0,0,6.2,7.7,6.5,8.1c0.5,0.7,1.2,0.3,1.2-0.3c0-0.7-0.7-9.8-0.8-10.9
			c0,0,4.6,10.1,4.8,10.7c0.3,0.6,1.1,0.6,1.2-0.1c0.1-0.8,1.9-11.5,1.9-11.5s1.8,10.6,1.9,11.5c0.1,0.9,0.9,0.8,1.2,0.1
			c0.3-0.7,4.8-10.7,4.8-10.7c0,1.1-0.8,10.4-0.8,10.9c0,0.5,0.7,1,1.2,0.3c0.3-0.4,6.5-8.1,6.5-8.1l-4.1,13.6L138.8,170.4z"/>
		<path id="path73" class="st4" d="M151.6,176.7l0.2-0.2v-3l-0.2-0.2h-4.1l-0.2,0.2v3l0.2,0.2H151.6z M148.5,174.4h2.2v1.3h-2.2
			V174.4z"/>
		<path id="path74" class="st4" d="M156.6,176.8c1,0.3,2-0.2,2.3-1.2c0.3-1-0.2-2-1.2-2.3c-0.4-0.1-0.7-0.1-1.1,0
			c-1-0.3-2,0.2-2.3,1.2c-0.3,1,0.2,2,1.2,2.3C155.9,176.9,156.2,176.9,156.6,176.8z M156.6,174.2c0.5,0,0.8,0.4,0.8,0.8
			c0,0.5-0.4,0.8-0.8,0.8s-0.8-0.4-0.8-0.8C155.7,174.5,156.1,174.2,156.6,174.2z"/>
		<path id="path75" class="st4" d="M142.7,176.8c1,0,1.8-0.8,1.8-1.8c0-1-0.8-1.8-1.8-1.8s-1.8,0.8-1.8,1.8l0,0
			C140.8,176,141.7,176.8,142.7,176.8z M142.7,174.2c0.5,0,0.8,0.4,0.8,0.8c0,0.5-0.4,0.8-0.8,0.8s-0.8-0.4-0.8-0.8
			C141.8,174.5,142.2,174.2,142.7,174.2z"/>
		<path id="path76" class="st4" d="M166.2,153.7c-0.5-0.2-1,0-1.3,0.4l-6.4,7.9l0.7-10.3c0-0.9-0.3-1.2-0.7-1.3
			c-0.5-0.1-1.1,0.2-1.3,0.7c-0.4,0.9-4.7,10.4-4.7,10.4l-1.8-11.3c-0.3-1.1-0.6-1.4-1-1.4c-0.4,0-0.7,0.3-1,1.4l-1.8,11.3
			c0,0-4.3-9.5-4.7-10.4c-0.2-0.5-0.7-0.9-1.3-0.7c-0.4,0.1-0.7,0.4-0.7,1.3l0.7,10.3l-6.4-7.9c-0.3-0.4-0.8-0.6-1.3-0.4
			c-0.5,0.2-0.5,0.7-0.4,1.3c0.3,0.8,4.5,15.5,4.5,15.5h-0.9c-0.5-0.1-0.9,0.3-1,0.7c-0.1,0.5,0.3,0.9,0.7,1c0.1,0,0.2,0,0.2,0h0.8
			v5.8h-0.8c-0.5,0-0.9,0.4-0.9,0.8c0,0,0,0,0,0c0,0.5,0.4,0.8,0.9,0.8c0,0,0,0,0,0H163c0.5,0,0.9-0.3,0.9-0.8c0,0,0,0,0,0
			c0-0.5-0.4-0.8-0.9-0.8c0,0,0,0,0,0h-0.8v-5.8h0.8c0.5,0.1,0.9-0.3,1-0.7c0.1-0.5-0.3-0.9-0.7-1c-0.1,0-0.2,0-0.2,0h-0.9
			c0,0,4.2-14.7,4.5-15.5C166.7,154.4,166.6,153.8,166.2,153.7L166.2,153.7z M160.7,177.9h-22.1v-5.8h22L160.7,177.9z M160.5,170.4
			h-21.7l-4-13.5c0,0,6.2,7.7,6.5,8.1c0.5,0.7,1.2,0.3,1.2-0.3c0-0.7-0.7-9.8-0.8-10.9c0,0,4.6,10.1,4.8,10.7
			c0.3,0.6,1.1,0.6,1.2-0.1c0.1-0.8,1.9-11.5,1.9-11.5s1.8,10.6,1.9,11.5c0.1,0.9,0.9,0.8,1.2,0.1c0.3-0.7,4.8-10.7,4.8-10.7
			c0,1.1-0.8,10.4-0.8,10.9c0,0.5,0.7,1,1.2,0.3c0.3-0.4,6.5-8.1,6.5-8.1L160.5,170.4z"/>
		<path id="path77" class="st3" d="M151.6,176.7l0.2-0.2v-3l-0.2-0.2h-4.1l-0.2,0.2v3l0.2,0.2H151.6z M148.5,174.4h2.2v1.3h-2.2
			V174.4z M156.6,176.8c1,0.3,2-0.2,2.3-1.2c0.3-1-0.2-2-1.2-2.3c-0.4-0.1-0.7-0.1-1.1,0c-1-0.3-2,0.2-2.3,1.2c-0.3,1,0.2,2,1.2,2.3
			C155.9,176.9,156.2,176.9,156.6,176.8z M156.6,174.2c0.5,0,0.8,0.4,0.8,0.8c0,0.5-0.4,0.8-0.8,0.8s-0.8-0.4-0.8-0.8
			C155.7,174.5,156.1,174.2,156.6,174.2z M142.6,176.8c1,0,1.8-0.8,1.8-1.8c0-1-0.8-1.8-1.8-1.8c-1,0-1.8,0.8-1.8,1.8v0
			C140.8,176,141.6,176.8,142.6,176.8C142.6,176.8,142.6,176.8,142.6,176.8L142.6,176.8z M142.6,174.2c0.5,0,0.8,0.4,0.8,0.8
			c0,0.5-0.4,0.8-0.8,0.8c-0.5,0-0.8-0.4-0.8-0.8C141.8,174.5,142.2,174.2,142.6,174.2z M160.6,177.8h-22v-5.7h22L160.6,177.8z"/>
		<path id="path78" class="st3" d="M177.3,170.4l-4-13.5c0,0,6.2,7.7,6.5,8.1c0.5,0.7,1.2,0.3,1.2-0.3c0-0.7-0.7-9.8-0.8-10.9
			c0,0,4.6,10.1,4.8,10.7s1.1,0.6,1.2-0.1c0.1-0.8,2-11.7,2-11.7s1.8,10.6,1.9,11.5c0.1,0.9,0.9,0.8,1.2,0.1
			c0.3-0.7,4.8-10.7,4.8-10.7c0,1.1-0.8,10.4-0.8,10.9s0.7,1,1.2,0.3c0.3-0.4,6.5-8.1,6.5-8.1l-4.1,13.6L177.3,170.4z"/>
		<path id="path79" class="st4" d="M190.2,176.7l0.2-0.2v-3l-0.2-0.2h-4.1l-0.2,0.2v3l0.2,0.2L190.2,176.7z M187.1,174.4h2.2v1.3
			h-2.2L187.1,174.4z"/>
		<path id="path80" class="st4" d="M195.2,176.8c1,0.3,2-0.2,2.3-1.2c0.3-1-0.2-2-1.2-2.3c-0.4-0.1-0.7-0.1-1.1,0
			c-1-0.3-2,0.2-2.3,1.2c-0.3,1,0.2,2,1.2,2.3C194.4,176.9,194.8,176.9,195.2,176.8z M195.2,174.2c0.5,0,0.8,0.4,0.8,0.8
			c0,0.5-0.4,0.8-0.8,0.8c-0.5,0-0.8-0.4-0.8-0.8C194.3,174.5,194.7,174.2,195.2,174.2z"/>
		<path id="path81" class="st4" d="M181.2,176.8c1,0,1.8-0.8,1.8-1.8c0-1-0.8-1.8-1.8-1.8c-1,0-1.8,0.8-1.8,1.8l0,0
			C179.4,176,180.2,176.8,181.2,176.8z M181.2,174.2c0.5,0,0.8,0.4,0.8,0.8c0,0.5-0.4,0.8-0.8,0.8l0,0c-0.5,0-0.8-0.4-0.8-0.8
			C180.4,174.5,180.8,174.2,181.2,174.2z"/>
		<path id="path82" class="st4" d="M204.7,153.7c-0.5-0.2-1,0-1.3,0.4l-6.4,7.9l0.7-10.3c0-0.9-0.3-1.2-0.7-1.3
			c-0.5-0.1-1.1,0.2-1.3,0.7c-0.4,0.9-4.7,10.4-4.7,10.4l-1.8-11.3c-0.3-1.1-0.6-1.4-1-1.4s-0.7,0.3-1,1.4l-1.8,11.3
			c0,0-4.3-9.5-4.7-10.4c-0.2-0.5-0.7-0.9-1.3-0.7c-0.4,0.1-0.7,0.4-0.7,1.3l0.6,10.3l-6.4-7.9c-0.3-0.4-0.8-0.6-1.3-0.4
			c-0.5,0.2-0.5,0.7-0.4,1.3c0.2,0.8,4.5,15.5,4.5,15.5h-0.9c-0.5-0.1-0.9,0.3-1,0.7c-0.1,0.5,0.3,0.9,0.7,1c0.1,0,0.2,0,0.2,0h0.8
			v5.8h-0.8c-0.5,0-0.9,0.4-0.9,0.8c0,0,0,0,0,0c0,0.5,0.4,0.8,0.9,0.8c0,0,0,0,0,0h26.7c0.5,0,0.9-0.3,0.9-0.8c0,0,0,0,0,0
			c0-0.5-0.4-0.8-0.9-0.8c0,0,0,0,0,0h-0.8v-5.8h0.8c0.5,0.1,0.9-0.3,1-0.7c0.1-0.5-0.3-0.9-0.7-1c-0.1,0-0.2,0-0.2,0h-0.9
			c0,0,4.2-14.7,4.5-15.5C205.3,154.4,205.2,153.8,204.7,153.7L204.7,153.7z M199.3,177.9h-22.1v-5.8h22L199.3,177.9z M199.1,170.4
			h-21.7l-4-13.5c0,0,6.2,7.7,6.5,8.1c0.5,0.7,1.2,0.3,1.2-0.3c0-0.7-0.7-9.8-0.8-10.9c0,0,4.6,10.1,4.8,10.7s1.1,0.6,1.2-0.1
			c0.1-0.8,2-11.7,2-11.7s1.8,10.6,1.9,11.5c0.1,0.9,0.9,0.8,1.2,0.1c0.3-0.7,4.8-10.7,4.8-10.7c0,1.1-0.8,10.4-0.8,10.9
			s0.7,1,1.2,0.3c0.3-0.4,6.5-8.1,6.5-8.1L199.1,170.4z"/>
		<path id="path83" class="st3" d="M190.2,176.7l0.2-0.2v-3l-0.2-0.2h-4.1l-0.2,0.2v3l0.2,0.2L190.2,176.7z M187.1,174.4h2.2v1.3
			h-2.2L187.1,174.4z M195.2,176.8c1,0.3,2-0.2,2.3-1.2c0.3-1-0.2-2-1.2-2.3c-0.4-0.1-0.7-0.1-1.1,0c-1-0.3-2,0.2-2.3,1.2
			c-0.3,1,0.2,2,1.2,2.3C194.4,176.9,194.8,176.9,195.2,176.8z M195.2,174.2c0.5,0,0.8,0.4,0.8,0.8c0,0.5-0.4,0.8-0.8,0.8
			c-0.5,0-0.8-0.4-0.8-0.8C194.3,174.5,194.7,174.2,195.2,174.2z M181.2,176.8c1,0,1.8-0.8,1.8-1.8c0-1-0.8-1.8-1.8-1.8
			c-1,0-1.8,0.8-1.8,1.8v0C179.4,176,180.2,176.8,181.2,176.8C181.2,176.8,181.2,176.8,181.2,176.8L181.2,176.8z M181.2,174.2
			c0.5,0,0.8,0.4,0.8,0.8c0,0.5-0.4,0.8-0.8,0.8s-0.8-0.4-0.8-0.8C180.4,174.5,180.7,174.2,181.2,174.2z M199.2,177.8h-22v-5.7h22
			L199.2,177.8z"/>
		<path id="path84" class="st3" d="M158.1,202.1l-4.1-13.6c0,0,6.2,7.7,6.5,8.1c0.5,0.7,1.2,0.3,1.2-0.3c0-0.7-0.7-9.8-0.8-10.9
			c0,0,4.6,10.1,4.8,10.7c0.3,0.6,1.1,0.6,1.2-0.1c0.1-0.8,1.9-11.5,1.9-11.5s1.8,10.6,1.9,11.5c0.1,0.9,0.9,0.8,1.2,0.1
			c0.3-0.7,4.8-10.7,4.8-10.7c0,1.1-0.8,10.4-0.8,10.9s0.7,1,1.2,0.3c0.3-0.4,6.5-8.1,6.5-8.1l-4.1,13.6H158.1z"/>
		<path id="path85" class="st4" d="M170.9,208.4l0.2-0.2v-3l-0.2-0.2h-4.1l-0.2,0.2v3l0.2,0.2L170.9,208.4z M167.8,206.1h2.3v1.3
			h-2.3V206.1z"/>
		<path id="path86" class="st4" d="M175.8,208.5c1,0.3,2-0.2,2.3-1.2c0.3-1-0.2-2-1.2-2.3c-0.4-0.1-0.7-0.1-1.1,0
			c-1-0.3-2,0.2-2.3,1.2c-0.3,1,0.2,2,1.2,2.3C175.1,208.6,175.5,208.6,175.8,208.5z M175.8,205.9c0.5,0,0.8,0.4,0.8,0.8
			c0,0.5-0.4,0.8-0.8,0.8c0,0,0,0,0,0c-0.5,0-0.8-0.4-0.8-0.8C175,206.3,175.4,205.9,175.8,205.9
			C175.8,205.9,175.8,205.9,175.8,205.9z"/>
		<path id="path87" class="st4" d="M161.9,208.5c1,0,1.8-0.8,1.8-1.8c0-1-0.8-1.8-1.8-1.8c-1,0-1.8,0.8-1.8,1.8l0,0
			C160.1,207.7,160.9,208.5,161.9,208.5z M161.9,205.9c0.5,0,0.8,0.4,0.8,0.8c0,0.5-0.4,0.8-0.8,0.8c0,0,0,0,0,0
			c-0.5,0-0.8-0.4-0.8-0.8C161.1,206.3,161.5,205.9,161.9,205.9C161.9,205.9,161.9,205.9,161.9,205.9z"/>
		<path id="path88" class="st4" d="M185.4,185.4c-0.5-0.2-1,0-1.3,0.4l-6.4,7.9l0.6-10.3c0-0.9-0.3-1.2-0.7-1.3
			c-0.5-0.1-1.1,0.2-1.3,0.7c-0.4,0.9-4.7,10.4-4.7,10.4l-1.8-11.3c-0.3-1.1-0.6-1.4-1-1.4c-0.4,0-0.7,0.3-1,1.4l-1.8,11.3
			c0,0-4.3-9.5-4.7-10.4c-0.2-0.5-0.7-0.9-1.3-0.7c-0.4,0.1-0.7,0.4-0.7,1.3l0.6,10.3l-6.3-7.9c-0.3-0.4-0.8-0.6-1.3-0.4
			c-0.5,0.2-0.5,0.7-0.4,1.3c0.2,0.8,4.5,15.5,4.5,15.5h-1c-0.5-0.1-0.9,0.3-1,0.7c-0.1,0.5,0.3,0.9,0.7,1c0.1,0,0.2,0,0.2,0h0.8
			v5.8h-0.8c-0.5,0-0.9,0.4-0.9,0.8c0,0,0,0,0,0c0,0.5,0.4,0.8,0.9,0.8c0,0,0,0,0,0h26.7c0.5,0,0.9-0.3,0.9-0.8c0,0,0,0,0,0
			c0-0.5-0.4-0.8-0.9-0.8c0,0,0,0,0,0h-0.8v-5.8h0.8c0.5,0.1,0.9-0.3,1-0.7s-0.3-0.9-0.7-1c-0.1,0-0.2,0-0.2,0h-0.9
			c0,0,4.2-14.7,4.5-15.5C186,186,185.9,185.5,185.4,185.4L185.4,185.4z M180,209.6h-22.1v-5.8h22L180,209.6z M179.8,202.1h-21.7
			l-4.1-13.6c0,0,6.2,7.7,6.5,8.1c0.5,0.7,1.2,0.3,1.2-0.3c0-0.7-0.7-9.8-0.8-10.9c0,0,4.6,10.1,4.8,10.7c0.3,0.6,1.1,0.6,1.2-0.1
			c0.1-0.8,1.9-11.5,1.9-11.5s1.8,10.6,1.9,11.5c0.1,0.9,0.9,0.8,1.2,0.1c0.3-0.7,4.8-10.7,4.8-10.7c0,1.1-0.8,10.4-0.8,10.9
			s0.7,1,1.2,0.3c0.3-0.4,6.5-8.1,6.5-8.1L179.8,202.1z"/>
		<path id="path89" class="st3" d="M170.9,208.4l0.2-0.2v-3l-0.2-0.2h-4.1l-0.2,0.2v3l0.2,0.2L170.9,208.4z M167.8,206.1h2.3v1.3
			h-2.3V206.1z M175.8,208.4c1,0.3,2-0.2,2.3-1.2c0.3-1-0.2-2-1.2-2.3c-0.4-0.1-0.7-0.1-1.1,0c-1-0.3-2,0.2-2.3,1.2
			c-0.3,1,0.2,2,1.2,2.3C175.1,208.5,175.5,208.5,175.8,208.4z M175.8,205.8c0.5,0,0.8,0.4,0.8,0.8s-0.4,0.8-0.8,0.8
			c-0.5,0-0.8-0.4-0.8-0.8S175.4,205.8,175.8,205.8z M161.9,208.4c1,0,1.8-0.8,1.8-1.8c0-1-0.8-1.8-1.8-1.8c-1,0-1.8,0.8-1.8,1.8
			l0,0C160,207.6,160.8,208.4,161.9,208.4C161.9,208.5,161.9,208.5,161.9,208.4L161.9,208.4z M161.9,205.8c0.5,0,0.8,0.4,0.8,0.8
			s-0.4,0.8-0.8,0.8s-0.8-0.4-0.8-0.8S161.4,205.8,161.9,205.8z M179.9,209.5h-22v-5.7h22L179.9,209.5z"/>
	</g>
</g>
</svg>
