<?xml version="1.0" encoding="utf-8"?>
<!-- Generator: Adobe Illustrator 27.8.0, SVG Export Plug-In . SVG Version: 6.00 Build 0)  -->
<svg version="1.1" id="affiliation" xmlns="http://www.w3.org/2000/svg" xmlns:xlink="http://www.w3.org/1999/xlink" x="0px"
	 y="0px" viewBox="0 0 256 256" style="enable-background:new 0 0 256 256;" xml:space="preserve">
<style type="text/css">
	.st0{fill:#FFFFFF;}
	.st1{fill:#003B49;}
</style>
<rect id="black" y="0" width="256" height="256"/>
<circle id="background" class="st0" cx="128" cy="128" r="128"/>
<g id="logo" transform="matrix(2.8302176,0,0,2.8302176,-26.314463,24.470688)">
	<g id="g1">
		<path id="path1" class="st1" d="M25.1,44.1c0,9.4,4.1,14.6,13.1,14.6c6.5,0,11.5-3.8,13.9-9.6c0-0.1,0.1-0.1,0.1-0.1v0.1
			c3.1,5.9,9.4,9.6,18.3,9.6c9.4,0,16.8-4.8,16.8-12c0-5.2-3.2-8.3-9.8-11.3c-1-0.4-3-1.4-3.8-1.8c-3.4-1.7-5.4-3.1-5.4-6.2
			c0-3.2,2.9-5.4,6.7-5.4c6,0,8.4,4.5,10.1,9.4h1.5l-0.8-10.7h-1.1l-0.2,0.2c-0.8,1-1.7,1-3.3,0.4c-1.8-0.6-3.9-1.1-6.3-1.1
			c-7.3,0-12.7,4.5-12.7,10.3c0,4.9,2.9,8,8.6,10.6c0.8,0.3,2.7,1.3,3.8,1.7c3.3,1.6,6,3.1,6,6.7c0,4.6-4.7,7.2-9.9,7.2
			c-8.2,0-12.8-5.3-12.8-14.4V21.2H43.4v1.5h0.4c5.5,0.5,6.2,1.5,6.2,7.2v12.3c0,8.7-3.6,13.9-9.5,13.9c-5.4,0-7.4-4.2-7.4-11.5
			V21.2H18.9v1.5h0.3c5.2,0.5,5.9,1.1,5.9,7L25.1,44.1L25.1,44.1z"/>
	</g>
</g>
</svg>
