<?xml version="1.0" encoding="UTF-8" standalone="no"?>
<!-- Generator: Adobe Illustrator 26.3.1, SVG Export Plug-In . SVG Version: 6.00 Build 0)  -->

<svg
        version="1.1"
        id="affiliation"
        x="0px"
        y="0px"
        viewBox="0 0 256 256"
        style="enable-background:new 0 0 256 256;"
        xmlns="http://www.w3.org/2000/svg"
>
    <defs
            id="defs1"/>
    <style
            type="text/css"
            id="style1">.st0{fill:#FFFFFF;} .st1{display:none;fill:#FFFFFF;} .st2{fill:#BF0028;}
    </style>
    <rect
            id="black"
            width="256"
            height="256"/>
    <circle
            id="background"
            class="st0"
            cx="128"
            cy="128"
            r="128"/>
    <g
            id="logo"
            transform="matrix(2.8302176,0,0,2.8302176,-26.314463,24.470688)">
        <g
                id="g1">
            <path
                    fill="#003b49"
                    d="m 22.5,41.8 c 0,10.7 4.7,16.7 15,16.7 7.4,0 13.2,-4.3 15.9,-11 0,-0.1 0.1,-0.1 0.1,-0.1 v 0.1 c 3.5,6.8 10.8,11 20.9,11 10.7,0 19.2,-5.5 19.2,-13.7 0,-5.9 -3.7,-9.5 -11.2,-12.9 -1.1,-0.5 -3.4,-1.6 -4.4,-2.1 -3.9,-1.9 -6.2,-3.6 -6.2,-7.1 0,-3.7 3.3,-6.2 7.7,-6.2 6.9,0 9.6,5.1 11.5,10.7 h 1.7 L 91.8,15 h -1.3 l -0.2,0.2 c -0.9,1.1 -2,1.1 -3.8,0.5 -2.1,-0.7 -4.5,-1.3 -7.2,-1.3 -8.3,0 -14.5,5.2 -14.5,11.8 0,5.6 3.3,9.2 9.8,12.1 0.9,0.4 3.1,1.5 4.3,2 3.8,1.8 6.9,3.6 6.9,7.7 0,5.3 -5.4,8.2 -11.3,8.2 -9.4,0 -14.7,-6.1 -14.7,-16.5 V 15.6 H 43.4 v 1.7 h 0.5 c 6.3,0.6 7.1,1.7 7.1,8.2 v 14.1 c 0,10 -4.1,15.9 -10.9,15.9 -6.2,0 -8.5,-4.8 -8.5,-13.1 V 15.6 H 15.4 v 1.7 h 0.4 c 5.9,0.6 6.8,1.3 6.8,8 v 16.5 z"
                    id="path1"/>
        </g>
    </g>
</svg>
