<?xml version="1.0" encoding="utf-8"?>
<!-- Generator: Adobe Illustrator 26.3.1, SVG Export Plug-In . SVG Version: 6.00 Build 0)  -->
<svg version="1.1" id="affiliation" xmlns="http://www.w3.org/2000/svg" xmlns:xlink="http://www.w3.org/1999/xlink" x="0px"
	 y="0px" viewBox="0 0 256 256" style="enable-background:new 0 0 256 256;" xml:space="preserve">
<style type="text/css">
	.st0{fill:#FFFFFF;}
	.st1{display:none;fill:#FFFFFF;}
	.st2{fill:#1D1D1B;}
	.st3{fill:#0080C9;}
</style>
<rect id="black" width="256" height="256"/>
<circle
   id="background"
   class="st0"
   cx="128"
   cy="128"
   r="128" />
<g id="logo">
	<g>
		<polygon class="st2" points="49.03,167.59 26.09,105.58 39.87,105.58 57.66,153.56 74.91,105.58 84.17,105.58 61.93,167.59 		"/>
		<path class="st2" d="M91.67,105.58h12.91v38.03c0,6.88,1.17,11.43,3.5,13.67c2.33,2.24,5.36,3.36,9.07,3.36
			c3.66,0,6.57-1.1,8.73-3.31c2.16-2.21,3.25-6.47,3.25-12.79v-38.95h11.23v38.08c0,7.18-0.9,12.32-2.7,15.44
			c-1.8,3.11-4.41,5.56-7.81,7.36c-3.41,1.79-7.73,2.68-12.95,2.68c-5.14,0-9.55-0.83-13.24-2.49c-3.69-1.66-6.61-4.14-8.76-7.42
			c-2.15-3.28-3.23-8.51-3.23-15.69V105.58z"/>
		<path class="st0" d="M158.03,152.42v1.64l0.48-0.43c-0.12-0.46-0.21-0.92-0.29-1.39L158.03,152.42z"/>
		<path class="st3" d="M166.31,134.15c0-0.27,0.21-0.54,0.48-0.54c0.28,0,0.48,0.27,0.48,0.54c0,0.27-0.2,0.48-0.48,0.48
			C166.51,134.63,166.31,134.43,166.31,134.15"/>
		<path class="st3" d="M196.89,149.21c-0.75-2.05-2.73-3.42-5.47-3.21c-1.5-2.87-3.9-1.52-4.58-0.68c0.75,0.68,1.36,0.96,2.26,1.09
			v0.61c-1.71-0.07-2.26-0.75-3.42-1.99c-0.48,4.11,4.31,5.56,5.81,2.2c2.26-0.07,3.63,0.95,4.11,2.39c0.47,1.43,0,3.02-0.75,3.76
			c-1.37,1.64-3.56,1.64-5.54,0.62c-1.23-0.62-2.53-1.92-3.69-3.14c-1.7-1.92-2.67-2.74-3.98-3.42c-0.71-0.34-1.43-0.51-2.12-0.62
			c-0.41-0.07-0.82-0.13-1.22-0.14c-0.39,0-0.76,0.04-1.09,0.11c-2.93,0.32-5.9,1.76-9.45,2.08h-1.92
			c-1.19,1.03-2.24,1.96-3.15,2.77l-2.25,1.95c0,0.02,0.02,0.03,0.02,0.05c-0.96,0.88-1.52,1.39-1.52,1.39
			c0.27,2.12,0.33,3.15,0.33,5.06c0,1.58-0.07,2.34-0.07,3.02c-0.07,0.68-0.21,1.23-0.41,1.77c-0.14,0.48-0.55,0.89-1.23,0.96
			c-0.61,0.13-2.06-0.96-2.53-0.28c-0.41,0.55,0.07,1.85,0.47,2.19h4.04c0.48-1.02,0.69-1.64,0.96-2.25
			c0.35-0.48,0.62-1.24,0.89-1.72c0.28-0.47,0.55-1.16,0.69-1.64c0.07-0.48,0.27-0.97,0.34-1.3c0.28-0.76,0.68-1.45,0.96-1.85
			c0.07-0.13,0.15-0.23,0.22-0.34c0.18,0.27,0.35,0.53,0.46,0.74c0.96,1.51,1.78,2.68,3.15,3.22c0.54,0.27,0.89,0.48,1.09,0.69
			c0.2,0.2,0.2,0.82,0.14,1.22c0,0.55-0.21,1.03-0.75,1.23c-0.9,0.35-2.32-0.95-2.88-0.27c-0.48,0.54,0.07,1.57,0.55,2.25h3.69
			c0.9-1.43,1.24-3.42,1.24-5.06c0-1.71,0-2.12-1.03-2.53c-0.34-0.21-0.68-1.03-0.96-1.92c0-0.1,0.01-0.27,0.01-0.47
			c1.76-0.58,3.71-1.61,5.84-3.18c0.01,0.28,0.02,0.56,0.05,0.85c0.34,2.33,0.61,4.45,2.39,6.16c0.47,0.48,0.88,0.96,0.95,1.24
			c0,0.2-0.27,0.95-0.48,1.3c-0.4,0.89-1.3,1.64-1.98,1.71c-0.89,0.13-1.92-1.03-2.61-0.34c-0.61,0.61,0.21,1.91,0.62,2.25h3.76
			c1.23-2.25,2.94-4.17,3.56-5.4c0.34-0.89,0.34-1.23-0.35-1.5c-1.23-0.69-1.09-2.2-0.75-3.9c0.09-0.29,0.23-0.57,0.38-0.85
			c0.93,2.59,2.14,5.01,4.96,5.77c0.47,0.06,1.16,0.41,1.23,0.56c0,0.13,0,0.68-0.07,1.09c-0.13,0.82-0.62,1.78-1.23,2.26
			c-0.67,0.55-2.39-1.23-2.94-0.2c-0.4,0.82,0.28,1.92,0.62,2.19h3.63c1.02-2.25,1.92-4.24,2.19-5.67c0.27-1.72,0.27-2.33-1.03-2.6
			c-0.68-0.08-1.23-0.35-1.44-1.3c-0.48-1.71-0.41-4.58-1.7-6.57c1.43,1.7,3,2.94,4.37,3.63c3.15,1.71,6.43,1.09,8-1.17
			C197.3,152.35,197.3,150.44,196.89,149.21"/>
		<path class="st3" d="M228.31,105.83c-2.81-0.34-9.18,0.34-14.65,1.57c3.42-1.71,4.38-1.98,5.61-2.74c0.34-0.2,0.55-0.68,0.55-1.44
			c0-0.82-0.75-0.95-1.64-0.82c-0.9,0.07-2.81,0.75-5.14,1.58c-4.65,1.92-11.35,5.06-19.29,10.41c-6.98,4.79-11.63,8.89-16.7,14.02
			c-1.32,1.35-2.84,3.03-4.42,4.9c-0.35-0.62-0.57-0.76-1.19-0.59c1.78-4.04,1.98-4.25,2.94-6.57c0.41-1.1,0.2-1.93-0.2-2.39
			c-0.55-0.97-1.31-0.28-1.78,0.07c-0.75,0.89-0.96,1.09-2.6,3.14c2.05-6.84,3.15-7.39,5.06-11.29c0.21-0.48,0.21-1.29-0.07-1.91
			c-0.2-0.48-0.48-0.76-0.89-0.54c-0.76,0.34-0.96,0.75-2.4,2.46c2.05-3.9,4.86-8.48,5.14-9.23c0.34-0.82,0.81-0.96-0.07-2.19
			c-0.69-1.03-1.3-0.28-1.78,0.2c-0.41,0.2-1.24,1.17-2.67,2.88c3.01-5.61,5.82-8.21,6.36-9.17c0.68-1.09,0.75-1.37,0.21-2.6
			c-0.48-1.09-1.44-0.62-1.92,0c-2.13,2.05-1.99,1.58-5.55,5.68c1.85-4.86,5.07-8.56,6.22-10.47c0.49-0.75,0.55-1.03,0.07-2.88
			c-0.27-0.82-0.95-1.1-1.64-1.03c-1.03,0.21-1.98,0.76-3.9,2.39c-3.9,3.5-9.1,8.56-13.34,17.66c-4.11,8.55-4.99,16.63-4.99,22.17
			c0,8.61,2.25,16.06,4.33,20.75c0-0.17-0.02-0.32-0.03-0.5c-0.13-2.32,0.28-4.99,0.69-6.29c0.87-3.43,2-5.26,2.95-6.75l-1.66-2.28
			l2.2,0.68l-1.3-2.87c0,0,1.65,0.19,2.93,1.89c0.8-0.72,2.42-1.36,3.98-0.11c1.03-0.07,1.65,0.14,2.19,0.41
			c1.16,0.68,1.02,1.91,0.95,2.19c-0.61-0.55-2.33-1.65-4.17-0.21l3.42,1.17l-4.31,0.33v4.46l-5.14,4.57v1.75l3.51-3.09v1.62
			l-6.19,5.56v1.69l7.81-7.02v0.02l1.97-1.76l0.02,0.02c1.16-0.96,1.64-1.44,2.33-1.78c0.82-0.55,0.96,0.06,1.09,0.95
			c0.21,0.75,1.09,1.51,2.95-0.2c5.47-4.93,11.22-7.6,17.3-10.53c-3.29,2.25-9.37,5.6-11.43,7.87c-0.89,1.02,0,3.55,1.44,2.46
			c2.6-1.71,6.02-1.98,7.73-1.92c0.82,0,1.71-0.54,2.19-1.23c0.48-0.62,0.48-1.3-0.61-1.37c5.61-1.7,7.05-2.18,11.7-2.6
			c1.23-0.07,1.98-0.75,2.19-1.78c0.21-0.95-0.27-1.23-1.43-1.36c-1.37-0.2-3.77,0.21-6.16,0.61c5.41-2.32,11.97-3.56,17.18-5.06
			c1.64-0.48,1.85-0.96,1.92-1.92c0.2-1.03-0.62-1.03-2.47-1.03c-3.76,0.2-9.37,0.55-17.92,3.01c8.07-4.04,12.58-5.96,19.92-7.8
			c1.98-0.55,2.32-1.03,2.46-2.06c0.34-1.17-0.62-1.17-1.3-1.03c-1.03,0.07-3.49,0-8.49,1.5c4.87-2.12,10.19-4.58,14.03-5.81
			c0.83-0.28,1.31-0.82,1.31-1.72c0-0.68-0.2-0.75-1.02-0.75c-1.65,0-4.32,0.55-7.53,1.51c6.57-2.8,8.55-3.77,12.93-4.52
			c1.44-0.34,1.71-0.82,1.78-1.71C230.09,105.83,229.26,105.89,228.31,105.83 M163.16,128.13c-0.07-0.55-0.34-0.88-0.82-1.16
			c0.96-2.33,1.91-4.18,3.76-6.64C164.39,123.76,163.57,126.63,163.16,128.13 M157.21,126.22c1.3-13.97,7.67-24.22,11.98-28.94
			C162.96,106.45,159.4,119.17,157.21,126.22 M180.47,130.18c8.15-7.73,19.3-15.94,33.4-19.43
			C201.96,114.99,185.61,126.15,180.47,130.18"/>
	</g>
</g>
</svg>
