<?xml version="1.0" encoding="utf-8"?>
<!-- Generator: Adobe Illustrator 26.3.1, SVG Export Plug-In . SVG Version: 6.00 Build 0)  -->
<svg version="1.1" id="affiliation" xmlns="http://www.w3.org/2000/svg" xmlns:xlink="http://www.w3.org/1999/xlink" x="0px"
	 y="0px" viewBox="0 0 256 256" style="enable-background:new 0 0 256 256;" xml:space="preserve">
<style type="text/css">
	.st0{fill:#FFFFFF;}
	.st1{display:none;fill:#FFFFFF;}
	.st2{fill:#00407A;}
	.st3{fill:#54BCEB;}
</style>
<rect id="black" width="256" height="256"/>
<circle id="background_x5F_circle" class="st0" cx="128" cy="128" r="128"/>
<path id="background_x5F_rectangle" class="st1" d="M206.94,256H49.06C22.08,256,0,233.92,0,206.94V49.06C0,22.08,22.08,0,49.06,0
	h157.87C233.92,0,256,22.08,256,49.06v157.87C256,233.92,233.92,256,206.94,256z"/>
<g id="logo">
	<g>
		<rect x="28.51" y="98" class="st2" width="202.49" height="67.5"/>
		<polygon class="st3" points="21,90.5 21,165.49 28.51,165.49 28.51,98 230.98,98 230.98,90.5 		"/>
		<polygon class="st0" points="43.5,120.5 50.2,120.5 50.2,128.24 50.27,128.24 56.24,120.5 64.52,120.5 56.62,129.29 65.8,142.99 
			57.44,142.99 52.06,134.24 50.2,136.35 50.2,142.99 43.5,142.99 		"/>
		<path class="st0" d="M85.92,134.28c0,6.23-3.26,9.22-9.92,9.22c-6.65,0-9.95-3-9.95-9.22v-13.8h6.72v12.25c0,2.3,0,5.16,3.26,5.16
			c3.17,0,3.17-2.87,3.17-5.16v-12.25h6.72C85.92,120.48,85.92,134.28,85.92,134.28z"/>
		<polygon class="st0" points="95.77,120.5 102.47,120.5 102.47,137.23 111.95,137.23 111.95,142.99 95.77,142.99 		"/>
		<polygon class="st0" points="114,120.5 131.85,120.5 131.85,126.26 120.64,126.26 120.64,129.06 130.83,129.06 130.83,134.43 
			120.64,134.43 120.64,137.23 132.18,137.23 132.18,142.99 114,142.99 		"/>
		<path class="st0" d="M153.77,134.28c0,6.23-3.26,9.22-9.92,9.22c-6.65,0-9.93-3-9.93-9.22v-13.8h6.7v12.25c0,2.3,0,5.16,3.26,5.16
			c3.17,0,3.17-2.87,3.17-5.16v-12.25h6.72V134.28z"/>
		<polygon class="st0" points="196.39,120.5 203.25,120.5 209.59,132.53 209.65,132.53 209.65,120.5 215.99,120.5 215.99,142.99 
			209.46,142.99 202.79,130.7 202.73,130.7 202.73,142.99 196.39,142.99 		"/>
		<polygon class="st0" points="176.46,120.5 194.31,120.5 194.31,126.26 183.11,126.26 183.11,129.06 193.28,129.06 193.28,134.43 
			183.11,134.43 183.11,137.23 194.65,137.23 194.65,142.99 176.46,142.99 		"/>
		<polygon class="st0" points="168.72,142.99 161.21,142.99 154.71,120.5 161.48,120.5 165.06,134.14 165.1,134.14 168.62,120.5 
			175.51,120.5 		"/>
	</g>
</g>
</svg>
