<?xml version="1.0" encoding="utf-8"?>
<!-- Generator: Adobe Illustrator 26.3.1, SVG Export Plug-In . SVG Version: 6.00 Build 0)  -->
<svg version="1.1" id="affiliation" xmlns="http://www.w3.org/2000/svg" xmlns:xlink="http://www.w3.org/1999/xlink" x="0px"
	 y="0px" viewBox="0 0 256 256" style="enable-background:new 0 0 256 256;" xml:space="preserve">
<style type="text/css">
	.st0{fill:#FFFFFF;}
	.st1{display:none;fill:#FFFFFF;}
	.st2{fill:#707070;}
	.st3{fill:#C51137;}
</style>
<rect id="black" width="256" height="256"/>
<circle
   id="background"
   class="st0"
   cx="128"
   cy="128"
   r="128" />
<g id="logo_00000169557994799884142440000017718490564280908447_">
	<g id="layer1" transform="translate(0,-981.52969)">
		<g id="g4276" transform="translate(-321.43694,498.87344)">
			<g id="g4284">
				<path id="path4229" class="st2" d="M392.2,521.4L392.2,521.4L392.2,521.4l-0.2,0.1H392l-0.1,0.1h-0.1l-0.1,0.1h-0.1v0.1h-0.1
					l-0.1,0.1c-0.2,0.2-0.3,0.6-0.3,1.1v66.2c0,0.5,0.1,0.9,0.3,1.1c0.2,0.2,0.6,0.3,1.1,0.3h17.3c6.7,0,10.9-1.5,13.4-4.7
					c3.7-4.4,3.8-11.6,3.8-22.4v-14.9c0-10.9-0.1-18-3.8-22.3c-2.5-3.2-6.6-4.8-13.4-4.8h-17.3h-0.1h-0.1H392.2L392.2,521.4z
					 M402.1,529.5h6c2.7,0,4.3,0.4,5.5,1.9c1.9,2.3,2.1,7,2.1,16.4v16.4c0,9.4-0.2,14.1-2.1,16.4c-1.2,1.5-2.8,1.9-5.5,1.9h-6V529.5
					z"/>
				<path id="path4233" class="st2" d="M507.4,522.9L507.4,522.9L507.4,522.9l0-0.1l0,0l0,0l0,0l0,0l0,0l0,0l0,0l0,0l0,0l0,0l0,0
					l0,0l0,0l0,0l0,0l0,0l0,0l0,0l0,0l0,0l0,0l0,0l0,0l0,0l0,0l0,0c-0.2-0.2-0.5-0.4-1.1-0.4h-8.1c-0.5,0-0.8,0.2-1.1,0.4
					c-0.2,0.2-0.4,0.6-0.4,1.1v48.9c0,5.1-0.4,8.1-2,10c-1.1,1.2-2.7,1.8-5,1.8c-2,0-3.5-0.6-4.7-1.9c-1.6-1.7-2.1-4.7-2.1-10v-48.9
					c0-0.5-0.1-0.8-0.4-1.1c-0.2-0.2-0.5-0.4-1.1-0.4h-8.1c-0.5,0-0.8,0.2-1.1,0.4c-0.2,0.2-0.4,0.6-0.4,1.1v48.9
					c0,7.1,1,11.6,3.8,14.7c2.9,3.2,7.4,5,14.1,5c6.8,0,11.2-1.8,13.9-5c3.2-3.7,4-8.1,4-14.7V522.9z"/>
				<path id="path4235" class="st2" d="M455.1,589.2L455.1,589.2L455.1,589.2l0,0.1l0,0l0,0l0,0l0,0l0,0l0,0l0,0l0,0l0,0l0,0l0,0
					l0,0l0,0l0,0l0,0l0,0l0,0l0,0l0,0l0,0l0,0l0,0l0,0l0,0l0,0l0,0l0,0c-0.2,0.2-0.5,0.4-1.1,0.4h-8.9c-0.5,0-0.8-0.2-1-0.4
					c-0.2-0.2-0.4-0.6-0.4-1.1v-59h-10.4c-0.5,0-0.8-0.2-1.1-0.4c-0.2-0.2-0.4-0.5-0.4-1.1v-5.8c0-0.5,0.1-0.8,0.4-1.1
					c0.2-0.2,0.6-0.4,1.1-0.4h32.6c0.5,0,0.8,0.2,1.1,0.4c0.2,0.2,0.4,0.6,0.4,1.1v5.8c0,0.5-0.2,0.8-0.4,1.1
					c-0.2,0.2-0.6,0.4-1.1,0.4h-10.4V589.2z"/>
				<path id="path4237" class="st3" d="M514.7,625.2l-27.8,14.6c-36-14-39-14-75,0l-27.8-14.6l27.8-14.6c36,14,39,14,75,0
					L514.7,625.2z"/>
				<path id="path4239" class="st3" d="M514.7,661.3l-27.8,14.6c-36-14-39-14-75,0l-27.8-14.6l27.8-14.6c36,14,39,14,75,0
					L514.7,661.3z"/>
				<path id="path4241" class="st3" d="M514.7,697.3l-27.8,14.6c-36-14-39-14-75,0l-27.8-14.6l27.8-14.6c36,14,39,14,75,0
					L514.7,697.3z"/>
			</g>
		</g>
	</g>
</g>
</svg>
