<?xml version="1.0" encoding="utf-8"?>
<!-- Generator: Adobe Illustrator 26.3.1, SVG Export Plug-In . SVG Version: 6.00 Build 0)  -->
<svg version="1.1" id="affiliation" xmlns="http://www.w3.org/2000/svg" xmlns:xlink="http://www.w3.org/1999/xlink" x="0px"
	 y="0px" viewBox="0 0 256 256" style="enable-background:new 0 0 256 256;" xml:space="preserve">
<style type="text/css">
	.st0{fill:#FFFFFF;}
	.st1{display:none;fill:#FFFFFF;}
	.st2{fill:#6C2382;}
	.st3{fill:#FFD400;}
</style>
<rect id="black" width="256" height="256"/>
<circle id="background_x5F_circle" class="st0" cx="128" cy="128" r="128"/>
<path id="background_x5F_rectangle" class="st1" d="M206.9,256H49.1C22.1,256,0,233.9,0,206.9V49.1C0,22.1,22.1,0,49.1,0h157.9
	c27,0,49.1,22.1,49.1,49.1v157.9C256,233.9,233.9,256,206.9,256z"/>
<g id="logo">
	<g>
		<g>
			<rect x="25.8" y="96.3" class="st2" width="204.4" height="63.5"/>
		</g>
		<g>
			<path class="st3" d="M156.9,141.6c2.8,1.2,4.1,2.4,4.1,4.3c0,2.6-2.3,4.5-5.3,4.5c-2.9,0-5.2-1.8-5.2-4c0-1.7,1.3-3.1,4-4.1
				c-2.5-1-3.7-2.2-3.7-3.9c0-2.2,2.2-4,4.9-4s4.8,1.6,4.8,3.5C160.4,139.6,159.3,140.8,156.9,141.6 M154.9,142.6
				c-1.8,0.9-2.9,2.2-2.9,3.8c0,2.1,1.6,3.5,3.7,3.5c2,0,3.7-1.3,3.7-3.2C159.4,145,158.1,143.9,154.9,142.6 M155.6,135.1
				c-1.9,0-3.4,1.1-3.4,2.6c0,1.4,0.8,2.3,4.3,3.6c1.5-0.9,2.6-1.9,2.6-3.3C159,136.2,157.4,135.1,155.6,135.1z M172.2,145.8v-0.6
				l7.8-10.6h0.7v10h2v1.2h-2v4.4H179v-4.4H172.2 M179,137l-5.5,7.6h5.5V137z M142.8,150.2v-0.6c2.3,0,2.4-0.4,2.4-1.6h0v-11.5
				c-0.8,0.7-2.3,1.6-3.2,2l-0.2-0.3c1.5-1,3.6-2.8,4.3-3.6h0.9v13.1c0,1.6,0.3,1.9,2.6,1.9v0.6H142.8z M172,146.8h-0.5
				c-0.3,1.5-0.8,1.9-2,1.9h-5.8c3.1-2.7,7.8-6.2,7.8-9.9c0-2.5-1.9-4.3-4.4-4.3c-2.6,0-4.6,1.9-4.9,4.7h0.4c0.6-2,2.1-3.3,3.8-3.3
				c1.8,0,3.2,1.4,3.2,3.3c0,4.4-7.1,9.8-7.8,10.4v0.7h9.7l0,0v0h0l0.2-1.5h0L172,146.8z M157,115.7c-0.4-2.6-1.2-2.7-2.3-2.7h-6.9
				v7.5h5.4c1.1,0,1.6-0.1,1.8-1.9h0.6v5.2H155c-0.2-2.2-0.8-2.1-2.1-2.1h-5.1v6.6c0,1.4,0.7,1.7,1.8,1.7h4.6c2.1,0,2.8-0.5,3.6-3.1
				h0.6l-0.5,4.2h-15.3v-0.6c2.5-0.1,2.6-0.4,2.6-2.3l0-13.5c0-1.9-0.2-2.2-2.6-2.3v-0.6l14.7,0l0.2,3.8H157z M170.5,115.1h13.1
				l0.4,3.5h-0.5c-0.4-2.2-0.8-2.5-1.9-2.5h-3.5v12.7c0,1.4,0.5,1.9,2,1.9h0.6v0.5h-7.4v-0.5h0.6c1.5,0,2-0.5,2-1.9v-12.7h-3.5
				c-1,0-1.5,0.3-1.9,2.5h-0.5L170.5,115.1z M161.3,117.8c0-1.4,1.3-2.3,3.1-2.3c1.9,0,3.7,1.2,4.5,3.1h0.4l-0.4-2.7
				c-1-0.4-3-1.1-4.8-1.1c-2.8,0-4.9,1.8-4.9,4c0,4.5,8.9,5.5,8.9,9.2c0,2-2,2.9-3.8,2.9c-2.2,0-4.2-1.3-4.8-3.9H159l0.6,3.8
				c1.4,0.4,3.4,0.9,4.9,0.9c3.3,0,5.6-2.1,5.6-4.6C170.2,122.3,161.3,121.5,161.3,117.8z"/>
			<path class="st0" d="M217.1,127.6l-2.5-2.4c-1.5-1.5-2.4-2.1-3.5-3c2.6-0.7,4.1-2.7,4.1-5c0-3.2-2.6-5.5-8.3-5.5
				c-2,0-2.6,0-3.9,0.1c-1.3,0.1-3.2,0.2-3.9,0.2v0.6h0.7c1.8,0,2.3,0.6,2.3,2.5v13c0,2.1-0.7,2.6-2.5,2.6H199v0.6h8.8v-0.6h-0.7
				c-1.7,0-2.5-0.5-2.5-2.3v-5.2c0.5,0,0.9,0.1,1.6,0.1c0.8,0,1.3,0,2-0.1c2.4,1.4,4.2,3.4,5.3,4.5c2.8,2.7,3.5,3.8,8.9,3.6v-0.6
				C220.2,130.4,218.9,129.4,217.1,127.6z M206.6,122.4c-0.7,0-1.2,0-1.9-0.1v-9.9c0.6-0.1,1-0.1,1.6-0.1c4.8,0,6.1,2.1,6.1,5
				C212.3,121.1,210,122.4,206.6,122.4z M217.1,127.6l-2.5-2.4c-1.5-1.5-2.4-2.1-3.5-3c2.6-0.7,4.1-2.7,4.1-5c0-3.2-2.6-5.5-8.3-5.5
				c-2,0-2.6,0-3.9,0.1c-1.3,0.1-3.2,0.2-3.9,0.2v0.6h0.7c1.8,0,2.3,0.6,2.3,2.5v13c0,2.1-0.7,2.6-2.5,2.6H199v0.6h8.8v-0.6h-0.7
				c-1.7,0-2.5-0.5-2.5-2.3v-5.2c0.5,0,0.9,0.1,1.6,0.1c0.8,0,1.3,0,2-0.1c2.4,1.4,4.2,3.4,5.3,4.5c2.8,2.7,3.5,3.8,8.9,3.6v-0.6
				C220.2,130.4,218.9,129.4,217.1,127.6z M206.6,122.4c-0.7,0-1.2,0-1.9-0.1v-9.9c0.6-0.1,1-0.1,1.6-0.1c4.8,0,6.1,2.1,6.1,5
				C212.3,121.1,210,122.4,206.6,122.4z M112.2,111.4c3.2,0,5.6,1.1,7.1,1.7l0.2,3.8h-0.6c-1-2.9-3.2-4.8-6.5-4.8
				c-5.2,0-7.7,4-7.7,9.2c0,5.6,3.4,9.4,8.1,9.4c1.4,0,4.9-0.9,7-4.7h0.6l-1.5,3.6c-1.8,0.9-3.3,1.9-7,1.9c-6.3,0-10-4.1-10-9.9
				C101.9,115.8,105.7,111.4,112.2,111.4z M142.1,130.6v0.6h-7.7v-0.6c2.3-0.1,2.6-0.4,2.6-2v-6.8h-11.4v6.5h0
				c0,1.9,0.2,2.2,2.6,2.3v0.6h-7.7v-0.6c2.3,0,2.4-0.4,2.4-1.6h0v-14.8l0,0c0-1.2-0.1-1.6-2.4-1.6v-0.6h7.7v0.6
				c-2.5,0.1-2.6,0.4-2.6,2.3l0,0l0,5.8h11.4l0-6c0-1.6-0.3-2-2.6-2v-0.6h7.7v0.6c-2.3,0-2.4,0.4-2.4,1.6h0v14.8l0,0
				C139.7,130.2,139.8,130.6,142.1,130.6z M95.2,111.9v0.6c2.5,0.1,2.6,0.4,2.6,2.3v12.3l-12.9-15.2h-4.6v0.6c1.1,0,1.7,0.3,2.4,0.8
				v15.2c0,1.2-0.5,2-1.5,2c-0.8,0-1.2-0.9-1.7-1.9l-7.2-16.7h-2.2l-6.6,15.6c-1.2,2.6-1.4,3-2,3c-0.8,0-1.1-0.7-1.2-2.8l-0.9-13.6
				c0-1.2,0.4-1.6,2.7-1.6v-0.6l-5.2,0l-6.8,15.6l-6.8-15.6h-5.4v0.6c2.3,0,2.7,0.4,2.7,1.6l-0.8,13.1c-0.2,2.8-0.4,3.3-2.7,3.3v0.6
				h6.4v-0.6c-1.4-0.1-2.6-0.4-2.5-2l0.8-13.9h0.1l7.3,16.5h0.7l7.1-16.5h0.1l0.9,13.9c0.1,1.6-1.3,2-2.8,2v0.6h11.9v-0.6h-0.1
				c-1.7,0-2.5-0.3-2.5-1.1c0-0.4,0.4-1.4,0.6-2l1.7-4.1h8.1l2,4.8c0.1,0.3,0.3,0.8,0.3,1.3c0,0.9-0.6,1.1-2.4,1.1h-0.4v0.6h12.6
				v-0.6c-2.6,0-2.7-0.5-2.7-2.7v-13.3l14.4,16.8h0.8v-17.3c0-1.2,0.1-1.6,2.4-1.6v-0.6H95.2z M67.1,122.2l3.5-8.4l3.5,8.4H67.1z
				 M198,115.7l-0.2-3.8l-14.7,0v0.6c2.5,0.1,2.6,0.4,2.6,2.3l0,13.5c0,1.9-0.2,2.2-2.6,2.3v0.6h15.3l0.5-4.2h-0.6
				c-0.7,2.6-1.4,3.1-3.6,3.1h-4.6c-1.1,0-1.8-0.3-1.8-1.7v-6.6h5.1c1.3,0,1.9-0.1,2.1,2.1h0.6v-5.2h-0.6c-0.2,1.8-0.7,1.9-1.8,1.9
				h-5.4V113h6.9c1.1,0,1.9,0.2,2.3,2.7H198z"/>
		</g>
	</g>
</g>
</svg>
