<?xml version="1.0" encoding="utf-8"?>
<!-- Generator: Adobe Illustrator 26.3.1, SVG Export Plug-In . SVG Version: 6.00 Build 0)  -->
<svg version="1.1" id="affiliation" xmlns="http://www.w3.org/2000/svg" xmlns:xlink="http://www.w3.org/1999/xlink" x="0px"
	 y="0px" viewBox="0 0 256 256" style="enable-background:new 0 0 256 256;" xml:space="preserve">
<style type="text/css">
	.st0{fill:#FFFFFF;}
	.st1{display:none;fill:#FFFFFF;}
	.st2{fill-rule:evenodd;clip-rule:evenodd;fill:#F9B500;}
	.st3{fill:#F9B500;}
</style>
<rect id="black" width="256" height="256"/>
<circle
   id="background"
   class="st0"
   cx="128"
   cy="128"
   r="128" />
<g id="logo">
	<g>
		<path id="DCU_2_" class="st2" d="M192.3,136.2v24c-0.3,7.3-0.3,14.1-7,18.8c-3.5,2.6-8.4,3.5-12.8,3.5c-7.6,0-16.9-2.3-19.3-10.8
			c-0.6-2.6-0.9-5.6-0.9-8.2v-19.8l9.7-7.3v19.2c0,3.5,0,8.8,0.6,12.3c0.6,3.2,0.9,5.3,3.2,7.3c2.1,2.1,5.2,2.9,8.1,2.9
			c5.9,0,9.6-2.3,12-7.9c1.2-2.9,1.2-10.3,1.2-13.5v-17.1L192.3,136.2z M143.5,174.1c-3.5,2.3-8.6,4.6-13.9,4.6l0,0l0,0
			c-9.1-0.9-14.1-8.5-14.1-19.1c0-9.7,4.1-20,15-20c4.2,0,10.6,2.3,13,4.5v-5c-3.2-2-8.6-3.3-13-3.3c-14.1,0-25.8,7.6-25.8,24.7
			c0,13.5,10.6,22,24.4,22c4.4,0,9-1,14.4-3.6L143.5,174.1z M55.4,137h22.3c14.1,0.6,19.6,10.3,19.6,20.8
			c0,14.7-10.3,23.5-23.8,23.5H55.4V137L55.4,137z M65.3,140.8v36.7h5.3c9.1,0,15.8-4.4,15.8-19.6c0-12.3-5.6-17-15-17H65.3
			L65.3,140.8z"/>
		<path class="st3" d="M89.4,88.6c-22,10.2-42.3,23.1-57.7,36l0.1,0.1l0.3,0.3c14.9-12.1,34.6-23.7,55.3-33.1
			c52.1-23.9,100.9-29.5,108.8-12.5c4,9.2-4,23.6-22.4,39.2l0.4,0.6c17.3-14,26.8-26.8,26.8-36.7c0-2-0.4-3.9-1.2-5.6v0
			C191.5,59.3,142,64.5,89.4,88.6"/>
		<path class="st3" d="M95.2,91.5c-10.5,4.7-19.9,10.4-28.7,15.6l0.3,0.6c7.7-4.2,14.1-7.2,20.1-9.9c41.6-19.1,80.5-23.5,86.7-9.9
			c4.6,9.7-9.1,27.2-35.1,44.2l0.4,0.6c28.2-16.4,45.4-34,45.4-45.9c0-1.6-0.3-3.2-1-4.6c-1.3-2.9-4-5.1-8-6.6
			C160.1,70,127.8,76.4,95.2,91.5"/>
		<path class="st3" d="M123.9,67l0.2,0.8c14.9-4.4,27.3-7.2,37.7-8.8c26.9-4.1,43.7-0.9,48.5,9.3c2.2,4.4,2.3,9.5,0.3,15.6
			c-5.2,15.2-23.2,34.5-49.5,52.9c-2.6,2-28.8,19.4-40.4,25.2l0.3,0.8c10.5-5,21.6-11,32.9-17.7l9.6-6.1
			c34.6-22.6,54.8-45.6,54.8-61.4c0-2.7-0.6-5.1-1.8-7.3C206.9,51.7,173.2,50.8,123.9,67"/>
	</g>
</g>
</svg>
