<?xml version="1.0" encoding="utf-8"?>
<!-- Generator: Adobe Illustrator 26.3.1, SVG Export Plug-In . SVG Version: 6.00 Build 0)  -->
<svg version="1.1" id="affiliation" xmlns="http://www.w3.org/2000/svg" xmlns:xlink="http://www.w3.org/1999/xlink" x="0px"
	 y="0px" viewBox="0 0 256 256" style="enable-background:new 0 0 256 256;" xml:space="preserve">
<style type="text/css">
	.st0{fill:#FFFFFF;}
	.st1{display:none;fill:#FFFFFF;}
	.st2{fill:#1D1D1B;}
</style>
<rect id="black" width="256" height="256"/>
<circle
   id="background"
   class="st0"
   cx="128"
   cy="128"
   r="128" />
<g id="logo">
	<g>
		<path class="st2" d="M62.3,143.6l-0.4,1l-12.6-0.3l-0.8-1.1l-0.8,0v7.7c-0.2,3.5,3.4,7.8,8.2,7.8c4.5-0.2,6.7-4.5,7-8.5l0.5-6.7
			L62.3,143.6 M60.7,151.3c-0.3,1.7-2.4,4-4.9,4.2c-3.4,0.1-6.3-2.7-6.5-5.1c-0.1-2.3,0-2.8,0-2.8L61,148
			C60.9,149.3,61.1,149.9,60.7,151.3z"/>
		<polyline class="st2" points="52.9,180.2 55.3,185.2 55.9,184.9 55.6,183.6 67.1,178.4 67.7,179.2 68.7,178.7 66.6,174.3 
			65.9,174.6 65.9,175.9 54.6,180.9 53.6,180.1 52.9,180.2 		"/>
		<path class="st2" d="M56.6,175.1v0.5l-3.3,0.7c-1.9-1.3-2.8-2.6-3.3-4.8c-1.1-4.3,0-8.3,5.6-9.9c5.9-1.8,8.4,2,9.6,6.5
			c0.4,1.3,0.4,2.3,0.6,3.7l-3.1,0.9l-0.4-0.6c1.2-1.1,1.6-2.8,1.2-4.4c-0.6-2.4-3.4-3.8-5.7-2.9l1.6,7.2l1.3,0.5l0.2,0.7l-3.3,0.9
			l-0.2-0.7l0.5-0.8l-1.8-7.2c-2.8,0.2-4.8,3-4.3,5.8C52.2,172.9,54.3,174.8,56.6,175.1"/>
		<path class="st2" d="M54.1,140.3c-0.4-0.9,0-1.9,0.9-2.3c0.9-0.4,1.9-0.1,2.3,0.6c0.5,0.9,0,1.9-0.8,2.6
			C55.6,141.6,54.6,141.2,54.1,140.3"/>
		<path class="st2" d="M64.1,186.2c-0.4-0.9-0.1-1.9,0.6-2.3c0.8-0.4,1.9,0,2.6,0.9c0.4,0.9,0,1.9-0.9,2.3
			C65.5,187.5,64.5,187.1,64.1,186.2"/>
		<path class="st2" d="M151.6,220c-0.4-0.9,0-1.9,0.9-2.3c0.9-0.4,2,0,2.3,0.9c0.3,0.9,0,1.9-0.9,2.4
			C153.1,221.3,152.1,220.9,151.6,220"/>
		<polyline class="st2" points="57.7,111.6 55.2,116.6 55.8,116.8 56.9,115.9 68,121.6 67.8,122.6 68.8,123 70.8,118.6 70.1,118.3 
			69.1,119 58.4,113.3 58.3,112.1 57.7,111.6 		"/>
		<polyline class="st2" points="64.7,133.3 64,133.1 63.3,133.6 55,131.8 66.9,127.2 68,124.5 67.1,124.3 66.3,124.6 55.1,120.1 
			55,119.1 54.2,118.8 52.8,122.7 53.8,123.1 54.8,122.6 62.8,125.7 50,130.6 49.4,132.5 62.8,135.4 63.3,136.1 63.8,136.3 
			64.7,133.3 		"/>
		<path class="st2" d="M90.2,207.9L90.2,207.9c0.1-2.1-0.3-3.9-1.7-5.3l-0.2-0.2l-0.1-0.1l-0.1-0.1l-0.1-0.1l-0.2-0.2
			c-1.5-1.3-3.3-1.7-5.4-1.5c-2.2,0.2-4.4,1.4-5.7,3.4c-2.4,3-2.4,7,0.5,9.8l0.1,0.1h0l0,0l0,0c3.1,2.5,7,2.4,10,0
			C89,212.2,90.1,210.1,90.2,207.9 M85.4,210.8c-0.5,0.5-2.4,2.3-4.3,2.3c-0.8,0-1.6-0.3-2.2-0.9l-0.2-0.2c-0.6-0.5-0.9-1-1-1.9
			c0-1.6,1.4-3.8,2.4-4.9c0.9-0.9,4-4.2,6.5-1.9l0.4,0.3C89.3,205.9,86.1,210,85.4,210.8z"/>
		<polyline class="st2" points="108.4,228.9 113.6,230.1 113.7,229.5 112.5,228.6 115,216.4 116.1,216.4 116.2,215.3 111.5,214.4 
			111.3,215.2 112.5,216.1 110,227.9 108.8,228.3 108.4,228.9 		"/>
		<path class="st2" d="M148,223.3l0.5,0l1.1,3.2c-1.4,1.8-2.7,2.7-4.9,3.1c-4.4,0.9-8.3,0-9.6-5.5c-1.9-6,1.9-8.3,6.4-9.6
			c1.4-0.4,2.3-0.4,3.8-0.6l0.8,3.2l-0.6,0.4c-1.1-1.3-2.7-1.7-4.4-1.4c-2.4,0.6-3.9,3.5-3.1,5.8l7.2-1.6l0.6-1.3l0.7-0.2l0.8,3.4
			l-0.7,0.2l-0.7-0.5l-7.1,1.7c0.1,2.7,2.9,4.7,5.7,4.2C146.2,227.6,148.2,225.6,148,223.3"/>
		<g>
			<polyline class="st2" points="78.7,193.7 78.2,194.1 78.2,195 72.1,201.2 74.8,188.8 73.1,186.4 72.5,187 72.3,187.9 62.3,194.8 
				61.3,194.3 60.7,194.9 63.3,198.2 64.2,197.5 64.3,196.4 71.2,191.5 68.4,204.7 69.7,206.3 79.5,196.5 80.3,196.4 80.8,196.1 
				78.7,193.7 			"/>
			<polyline class="st2" points="128.3,216.5 128.3,217.2 129,217.7 129.9,226.3 121.8,216 119,215.7 119.1,216.6 119.6,217.3 
				118.6,229.5 117.6,230 117.6,230.8 121.7,230.9 121.7,229.7 121,229 121.6,220.5 130.1,231.3 132,231.3 130.9,217.8 131.4,217 
				131.5,216.5 128.3,216.5 			"/>
		</g>
		<polyline class="st2" points="85.9,219.5 86.2,218.7 87.4,218.7 95.5,209.5 95.1,208.6 95.7,207.8 98.2,208.9 97.8,218 103,212 
			102.7,211.5 103.2,211.2 106.8,212.7 106.8,213.6 106.1,213.9 104.5,226.4 105.4,227.4 105.1,228.1 100.9,226.2 101.1,225.3 
			101.9,225.2 103.1,215.3 95.5,224.4 94,223.9 95,212.5 88.9,219.9 89.4,220.9 89.2,221.5 85.9,219.5 		"/>
		<path class="st2" d="M181.7,203.4l0.5-0.2l2.2,2.6c-0.3,2.3-1,3.7-2.7,5.2c-3.4,3.2-7.4,4.1-11.4-0.1c-4.2-4.5-2-8.5,1.4-11.7
			c1-1,1.8-1.5,3-2.3l2.3,2.4l-0.3,0.7c-1.6-0.6-3.3-0.1-4.5,1c-1.9,1.6-1.8,4.8,0.1,6.4l5.6-4.8l-0.2-1.4l0.5-0.5l2.3,2.3l-0.5,0.5
			l-0.9,0l-5.7,5.3c1.4,2.4,4.9,2.9,7,0.9C181.9,208.3,182.6,205.5,181.7,203.4"/>
		<path class="st2" d="M199.5,127.5V127l3.3-0.7c1.9,1.4,2.7,2.7,3.2,4.9c1.1,4.3-0.1,8.3-5.6,9.8c-5.8,1.8-8.4-2-9.6-6.5
			c-0.4-1.3-0.4-2.3-0.6-3.7l3.2-0.8l0.4,0.7c-1.3,1.1-1.7,2.7-1.3,4.4c0.6,2.4,3.3,3.8,5.7,2.9l-1.6-7.2l-1.3-0.5l-0.2-0.7l3.4-0.9
			l0.1,0.6l-0.5,0.9l1.8,7.3c2.8-0.1,4.9-3,4.3-5.8C203.9,129.7,201.8,127.8,199.5,127.5"/>
		<path class="st2" d="M201.3,118.3l-3.7,1.9c0-2.9,0.7-6.1,0.4-7.7c-0.5-2.3-1.3-3-3.1-4.5l-0.5,0.4c0.5,0.9,0.8,0.9,1.1,2.3
			c0.5,2,0.4,3.3-0.1,5.3c-1.1-2-3.5-2.9-6-2.1c-3.1,0.8-4.9,4.1-3.5,7.1l3.1,7.3l1.1-0.5l0.3-0.7l11.2-5.8l0.8,0.5l0.6-0.2
			L201.3,118.3 M188.6,124.7c-1.4-3-2.2-7.3,1.7-8.3c3.2-0.9,5.1,2.2,5.6,4.7L188.6,124.7z"/>
		<path class="st2" d="M193.1,156.8l0.1-11.6l-1-3.2l4,2.5c-0.4,0.1-0.7,0.2-1,0.4c-0.4,0.4-0.4,2.2-0.5,4.8l12.8-0.2l0.2-0.6l0.7,0
			l0,4.6l-0.4,0l-0.6-1.1l-12.7,0.2c0,1.4-0.2,3.4,0.2,3.7c0.1,0.1,0.4,0.3,0.7,0.4l-3.3,2.2L193.1,156.8"/>
		<polyline class="st2" points="206.5,167.8 207.5,162.6 206.9,162.5 206,163.6 193.7,161.4 193.6,160.5 192.5,160.4 191.9,165.2 
			192.6,165.3 193.4,164.4 205.4,166.4 205.8,167.5 206.5,167.8 		"/>
		<path class="st2" d="M201.1,170.5l0.5-0.6l2.9,1.3c0.6,2.4,0.5,4.1-0.5,6.2c-2.1,4.1-5.1,6.8-10.9,4.4c-5.6-2.5-5-7.1-3.1-11.5
			c0.6-1.3,1.1-2,1.9-3.3l3.2,1.2l-0.2,0.9c-1.7,0.1-2.9,0.9-3.6,2.3c-1.2,2.4,0.7,4.5,2.9,6.3c2.2,1.7,7,1,8.3-1.5
			C203.1,174.7,202.7,172.2,201.1,170.5"/>
		<polyline class="st2" points="196.8,192.6 199.5,188 198.9,187.9 197.8,188.6 186.4,182.3 186.6,181.4 185.7,181 183.9,185.3 
			184.6,185.7 185.7,185 196.3,191 196.4,192.1 196.8,192.6 		"/>
		<path class="st2" d="M188,204.5l7.4-8.5l-1.6-4.1l-1.1,1.1c0,0,0.4,1.7,0.2,2.7c-0.3,2.1-3.1,4.5-3.1,4.5l-9.6-8l0.4-1l-0.9-0.6
			l-3.3,4.2l0.9,0.6l1.1-0.5l9.3,7.8l-0.2,1.1L188,204.5"/>
		<path class="st2" d="M162.3,224l4-2.2l-0.4-0.5l-1.1-0.2l-2.9-5.8c0,0,2.4-1.7,3.9-2c0.8-0.2,2-0.2,2-0.2l-1.5-2.9
			c0,0-0.7,0.9-1.2,1.4c-1.1,1.1-4,2.1-4,2.1l-2-4.2c0,0,2.8-2,4.7-2.6c0.6-0.2,1.7-0.4,1.7-0.4s0.1-0.8,0.2-1.3
			c0.3-0.8,1-1.9,1-1.9l-11.7,6.9l0.2,0.9l1.2,0l5.7,11.3l-0.3,1L162.3,224"/>
		<path class="st2" d="M176,77.1l-0.7-1.9h-13.8V62.5c0-3.5-1.8-7.2-6.5-8.7c-3.4-4.1-8.1-7.5-13.3-9.7V32.5c0,0-5.6,0-7.9,0
			c0-2.3,0-7.8,0-7.8H122c0,0,0,5.6,0,7.8c-2.1,0-7.8,0-7.8,0v11.6c-5.2,2.2-10,5.6-13.2,9.7c-4.6,1.4-6.4,5.1-6.4,8.7v12.7H80.9
			l-0.6,1.9c-1.7,5.1-2.4,10.6-2.4,16.7c0,18.7,6.9,40.6,13.7,57.7c10.3,25.8,23.9,49.2,30.9,56.9c1.7,1.7,3,3.2,5.3,3.3
			c0,0,0.1,0,0.1,0c0,0,0,0,0,0c0.1,0,0.1,0,0.2,0c2.3-0.1,3.7-1.6,5.3-3.3c7.2-7.8,20.9-31.1,31.2-56.9c6.8-17.1,13.7-39,13.7-57.7
			C178.3,87.7,177.7,82.2,176,77.1 M156,62.5c0,0,0,8.2,0,12.7h-12.5c0-4.6,0-13.3,0-13.3c0-1.7,0.5-2,0.7-2.2
			c0.7-0.5,2.3-1.1,6.2-1.1C155.5,58.6,156,60.8,156,62.5z M147,53.4c-1.9,0.2-3.7,0.6-5.3,1.5c-1.8-2.8-4.5-4.7-7.9-5.7
			c0-0.6,0-1.2,0-1.8C138.7,48.3,143.3,50.4,147,53.4z M138.1,61.9v13.3h-20.2l0-13.3c0-3.8,2.5-8.2,10-8.2c0,0,0,0,0,0
			C135.5,53.7,138.1,58.1,138.1,61.9z M118.5,36.8c2.2,0,7.8,0,7.8,0s0-5.6,0-7.8c0.6,0,1.1,0,1.6,0h0c0.5,0,1,0,1.7,0
			c0,2.2,0,7.8,0,7.8s5.6,0,7.9,0c0,1.4,0,2.1,0,3.5c-2.3,0-7.9,0-7.9,0s0,5.7,0,7.9c-0.7,0-1.2,0-1.7,0h0c-0.4,0-0.9,0-1.6,0
			c0-2.3,0-7.9,0-7.9s-5.6,0-7.8,0C118.5,38.8,118.5,38.1,118.5,36.8z M122,47.4c0,0.6,0,1.2,0,1.8c-3.2,1-5.9,2.9-7.8,5.7
			c-1.5-0.9-3.3-1.3-5.2-1.5C112.7,50.4,117.3,48.3,122,47.4z M100.1,62.5c0-1.7,0.5-3.9,5.4-3.9c3.9,0,5.5,0.6,6.2,1.1
			c0.3,0.2,0.8,0.5,0.8,2.2c0,0,0,8.7,0,13.3h-12.3C100.1,70.7,100.1,62.5,100.1,62.5z M127.9,80.7L127.9,80.7c20.7,0,41.5,0,43.4,0
			c0.2,0.8,0.4,1.7,0.6,2.6h-20.4c-8.7,0-12.4,2.1-12.4,7.2c0,1.6,0.9,3.2,2.3,4.4c-1,0.4-5.1,1.9-5.7,2.1c-0.5-0.6-1.4-1.4-1.6-2.8
			c0.4-0.7,1.3-2,1.3-4c0-3.1-2.1-6.3-7.6-6.4c-2.5,0.1-4.1,0.8-5.4,1.8c-0.1,0.1-0.1,0.2-0.2,0.2c-2.3,0.6-3.7,2.2-3.7,4.2v2.2
			c0,0,1,0.1,1.6,0.3c0.7,0.3,1,0.7,1.2,1c0.6,0.9,0.1,2.9-1.2,3.5c-0.6-0.3-4.7-1.7-5.8-2.1c1.4-1.2,2.3-2.9,2.3-4.4
			c0-5.1-3.7-7.2-12.5-7.2h-20c0.2-0.9,0.3-1.8,0.6-2.6C86.9,80.7,107.4,80.7,127.9,80.7z M88,123.7c-0.8-3-1.5-5.7-2.1-8.5
			c6.1-1,20.9-3.3,31.3-4.9L88,123.7z M120,115l-5.8,8.8h-12.6L120,115z M89.6,129.2h26.3c0,3.6,0,9.9,0,12.7c-3.6,0-17.4,0-22.2,0
			C92.1,137.5,90.8,133.3,89.6,129.2z M115.9,189.2c-4-6.7-8.3-14.9-12.5-23.8c4.1,0,10,0,12.5,0
			C115.9,168.3,115.9,180.4,115.9,189.2z M140.1,189.2c0-8.8,0-20.9,0-23.8c2.5,0,8.3,0,12.5,0C148.4,174.3,144.1,182.5,140.1,189.2
			z M159.5,149.4c-1.5,3.6-3,7.1-4.5,10.6h-20.3v37.8c-2,2.9-3.8,5.2-5.3,6.8c-0.4,0.4-1.1,1.1-1.5,1.4c-0.4-0.3-1-1-1.4-1.4
			c-1.5-1.6-3.3-3.9-5.3-6.8V160h-20.1c-1.6-3.5-3.1-7-4.5-10.6c-0.3-0.7-0.6-1.4-0.8-2.1h25.4v-18.1h13.5v18.1h25.7
			C160.1,148,159.8,148.7,159.5,149.4z M120.6,123.7l4.6-6.9v6.9H120.6z M130.7,123.7v-6.9l4.6,6.9H130.7z M162.4,141.9
			c-4.8,0-18.7,0-22.3,0c0-2.7,0-9,0-12.7h26.5C165.4,133.3,164,137.5,162.4,141.9z M136,115l18.6,8.8h-12.8L136,115z M168.2,123.7
			L168.2,123.7l-29.4-13.4c10.3,1.6,25.3,4,31.4,4.9C169.7,118,169,120.8,168.2,123.7z M171.3,109.9l-34.8-5.5
			c0.4,1.1,0.7,2.3,0.7,3.5c0,5-4,9-9,9c-0.1,0-0.2,0-0.3,0c0,0,0,0,0,0c-0.1,0-0.2,0-0.3,0c-4.9,0-8.8-4-8.8-9
			c0-1.2,0.3-2.4,0.7-3.5l-34.6,5.5c-1-5.9-1.5-11.4-1.5-16.3c0-1.8,0.1-3.4,0.2-5.1h20.7c5.7,0,6.2,0.6,6.4,0.9
			c0.4,0.4,0.5,1.3,0,1.7c-1.2,0.8-3.1,1.7-3.1,4.5c0,0.1,0,0.1,0,0.2c0,2.2,2,3.1,6.7,4.9c1.4,0.5,6.1,2.4,6.1,2.4l1-0.6
			c1.7-0.8,5.2-3.2,5.2-7.3c0-0.5-0.1-0.9-0.1-1.3c-0.1-0.5-0.4-1-0.6-1.4c0,0,0,0,0,0c-0.8-1.4-1.7-1.8-1.7-1.8s0.4-1.9,3.2-2.2
			l0,0c0.1,0,0.2-0.1,0.3-0.1c0,0,0.2,0,0.2,0c1.4,0,2.3,1.2,2.3,2.5c0,1.7-1.1,2-1.1,4.3c0,4.1,3.5,6.4,5.1,7.3l1.1,0.6
			c0,0,4.9-1.9,6.2-2.4c4.8-1.9,6.7-2.7,6.7-4.9c0-0.1,0-0.1,0-0.2c0-2.8-1.9-3.7-3.1-4.5c-0.6-0.4-0.5-1.3-0.1-1.7
			c0.3-0.3,0.8-0.9,6.4-0.9h21.2c0.1,1.7,0.2,3.3,0.2,5.1C172.9,98.5,172.3,104,171.3,109.9z"/>
	</g>
</g>
</svg>
