<?xml version="1.0" encoding="utf-8"?>
<!-- Generator: Adobe Illustrator 26.5.0, SVG Export Plug-In . SVG Version: 6.00 Build 0)  -->
<svg version="1.1" id="affiliation" xmlns="http://www.w3.org/2000/svg" xmlns:xlink="http://www.w3.org/1999/xlink" x="0px"
	 y="0px" viewBox="0 0 256 256" style="enable-background:new 0 0 256 256;" xml:space="preserve">
<style type="text/css">
	.st0{fill:#FFFFFF;}
	.st1{fill:#8A8A8C;}
	.st2{fill:#F8971C;}
</style>
<rect id="black" width="256" height="256"/>
<circle id="background" class="st0" cx="128" cy="128" r="128"/>
<g id="logo">
	<g>
		<path class="st1" d="M110.7,119.6l0-61.1l51.7,18.8V100h5.1V77.1l51.4-18.7v128.1l-5.2-5.2V65.8l-41,14.9V115h-15.4V80.8l-41.3-15
			l0,53.3L110.7,119.6"/>
		<path class="st2" d="M188.3,197.6H217c-21.3-19.7-40.9-47.7-9-53l-3.5-1.3C171.5,147.8,175.4,172.8,188.3,197.6 M56.6,165.4H86
			c16.7-25.1,47.5-31.3,86.1-33.9l-3.5-1.3C121.4,130.8,75.1,141.5,56.6,165.4"/>
		<path class="st2" d="M99.6,176.1h29.5c4.2-24.3,23.8-36.5,55.1-40.2l-3.5-1.3C139.9,138.2,106.6,150,99.6,176.1"/>
		<path class="st2" d="M143.3,186.6l27.7,0.2c-7.5-22-5.3-42.9,25-46.6l-3.6-1.3C159.5,142.1,141.6,161.5,143.3,186.6 M15.2,154.7
			c18.5-15.6,75.8-29.1,140.9-29.1l3.9,1.5c-62.5,0.7-91.4,12.5-115.4,27.8L15.2,154.7"/>
	</g>
</g>
</svg>
