<?xml version="1.0" encoding="utf-8"?>
<!-- Generator: Adobe Illustrator 27.5.0, SVG Export Plug-In . SVG Version: 6.00 Build 0)  -->
<svg version="1.1" id="affiliation" xmlns="http://www.w3.org/2000/svg" xmlns:xlink="http://www.w3.org/1999/xlink" x="0px"
	 y="0px" viewBox="0 0 256 256" style="enable-background:new 0 0 256 256;" xml:space="preserve">
<style type="text/css">
	.st0{fill:#FFFFFF;}
	.st1{fill:#6F0205;}
	.st2{fill:#FD0000;}
	.st3{fill:#080808;}
	.st4{fill:#FEFEFE;}
	.st5{fill:#F6F6F6;}
</style>
<rect id="black" width="256" height="256"/>
<path id="background" class="st0" d="M206.9,256H49.1C22.1,256,0,233.9,0,206.9V49.1C0,22.1,22.1,0,49.1,0H207
	c27,0,49.1,22.1,49.1,49.1V207C256,233.9,233.9,256,206.9,256z"/>
<g id="logo">
	<g>
		<path class="st1" d="M156,75.7c-0.1,0-0.3,0-0.4-0.1c-0.8-0.7-1.6-1.3-2.5-2.1c0.3-0.2,0.9-0.5,1.3-0.9c0.2-0.1,0.4-0.4,0.5-0.6
			c0.7-1.1,1.3-2.3,2.1-3.5c2.2-3.3,2.2-4.9,0.1-8.2c-1.1-1.8-2.3-3.6-3.4-5.4c-0.3-0.5-0.3-1.1-0.6-1.9c0.7,0.2,1.2,0.2,1.5,0.4
			c2.9,1.8,6.4,2.2,9.6,3.2c1.7,0.5,3.4,1.2,5.1,1.8c0.2,0.1,0.5,0.1,0.8,0.1c0.3,0.2,0.6,0.4,0.9,0.6c0.1,0.3,0.1,0.7,0.2,0.8
			c1.7,1.7,3.4,3.4,5.2,5.1c1,1.5,0.4,3.1,0.5,4.7c-0.2,0.1-0.4,0.2-0.5,0.4c-2.2,4.6-5.9,6.5-10.9,6.6c-0.6,0-1.3,0.3-1.9,0.4
			c0,0.1,0,0.3,0,0.4c3,1.1,6.6,0.9,8.6,4.2c1.1-1.1,1.5-2,1-3.3c-0.1-0.2,0.1-0.5,0.2-0.8c0.1,0,0.2,0,0.3,0c0.1,0,0.2,0,0.3,0
			c0.5,0,0.9,0,1.4,0c0.5,0.2,1.1,0.4,1.6,0.6c0.2,0.1,0.4,0.2,0.6,0.3c0.1,0.1,0.2,0.2,0.3,0.2c0.2,0.1,0.4,0.2,0.6,0.3l0,0
			c0.1,0.1,0.2,0.2,0.3,0.3c1.5,1.5,3,3,4.4,4.5c1,1.1,2,2.4,3,3.6c0.1,0.1,0.2,0.2,0.2,0.3c0.8,0.9,1.6,1.7,2.4,2.6
			c0.1-0.1,0.1-0.2,0.2-0.2c-0.1-0.6-0.2-1.2-0.2-1.8c-0.1-0.1-0.1-0.2-0.2-0.3c0-0.4,0-0.9-0.1-1.3c-0.1-0.1-0.1-0.2-0.2-0.3
			c-0.2-0.4-0.3-0.9-0.6-1.2c-0.9-1-2-1.9-2.9-3c-0.3-0.4-0.4-1-0.5-1.5c0.4-0.4,0.9-0.9,1.3-1.3c1-0.3,2-0.6,2.9-0.9
			c0.8,0.1,1.6,0.2,2.5,0.3c0.4,0.1,0.9,0.2,1.3,0.3c0.2,0,0.4,0,0.5,0c0.4,0.1,0.9,0.2,1.3,0.4c0.2,0.1,0.4,0.1,0.6,0.2
			c0.1,0,0.2,0.1,0.2,0.1c0,0,0,0,0,0c0.2,0.1,0.4,0.2,0.6,0.3l0,0c0.1,0.1,0.2,0.1,0.3,0.2c0.1,0,0.2,0,0.3,0.1
			c0.2,0.1,0.4,0.2,0.5,0.3l0,0c0.1,0.1,0.2,0.1,0.3,0.2l0.1,0.1l0.1,0c0.1,0.1,0.2,0.2,0.3,0.3c1.4,1.4,2.9,2.9,4.3,4.3
			c0,0.1,0.1,0.1,0.1,0.2c0.1-0.1,0.1-0.1,0.2-0.2c0.2,0,0.3,0,0.5-0.1c0.1-0.1,0.1-0.1,0.2-0.2c0.1-0.1,0.2-0.2,0.3-0.3
			c0.4-0.1,0.8-0.2,1.3-0.3c1.7,0,3.3,0,5,0c0.1,0.7,0.3,1.5,0.2,2.2c-0.3,4.9-0.7,9.8-1,14.7c-0.3,6.3-0.6,12.7-0.9,19
			c-0.1,2-0.4,3.9-0.5,5.9c-0.1,0.9,0,1.8,0,2.7c0.2,0,0.4,0.1,0.5,0.1c0.2-0.4,0.4-0.7,0.6-1.1c0.5-1.7,0.9-3.3,1.3-5
			c0.9-3.4,1.6-6.8,2.5-10.1c0.8-3,1.9-5.9,2.6-8.8c0.8-3.8,2.6-7.3,4.1-10.9c1.2-3,2.7-6,4-9c1.9-4.2,3.8-8.4,6.6-12.1
			c1.1-1.4,1.3-3,0.8-4.8c-1-3.3-3.1-5.8-5.2-8.4c-1.9-2.3-4.7-3.4-7.5-4.4c-2.3-0.8-4.6-1.3-7.3-1c0.7,0.5,1.2,0.9,1.7,1.2
			c1.8,1.2,3,2.8,2.6,5c-0.6,3.3-1.3,6.6-2,9.9c0,0.1-0.3,0.2-0.4,0.3c-0.1-0.3-0.2-0.6-0.4-0.8c0.5-1.6,0.9-3.3,1.4-4.9
			c0.1-0.6,0.1-1.1,0.2-1.7c0.2-1.3,0.8-2.7,0.5-3.9c-0.3-1.1-1.5-2-2.3-2.9c-0.6-0.7-1.4-1.2-2-1.9c-0.3-0.3-0.4-0.7-0.7-1.4
			c1,0.2,1.8,0.3,2.5,0.4c3.9,0.3,7.7,1.2,11.1,3.1c0.7,0.4,1.4,0.8,1.9,1.4c3.1,3,6.4,5.9,8.8,9.6c1.5,2.3,3.1,4.7,3.4,7.6
			c0.1,0.7-0.1,1.5-0.5,2.1c-4.5,6.6-7.9,13.8-10.9,21.2c-0.6,1.5-1.2,2.9-1.8,4.4c-0.1,0.4-0.2,0.7-0.3,1.1
			c-0.6,1.5-1.3,2.9-1.9,4.4c-0.2,0.6-0.2,1.3-0.3,1.9c0.1,0.5-1.5,1.4,0.3,1.5c1.7,1.6,3.3,3.3,5,4.9c0.7,0.7,0.7,1.3-0.1,1.9
			c-2.2,1.9-4.3,3.8-6.5,5.6c-0.8,0.6-1.6,1.2-2.4,1.8c-1.2,0.9-1.6,2.2-1.9,3.7c-0.3,1.9-1,3.8-1.5,5.7c0.8,0.2,1.5,0.4,2.1,0.4
			c1.7,0,3.1,0.9,4.2,2c2.8,2.8,5.9,5.3,7.9,8.7c1.1,1.9,2,3.9,1.4,6.2c-0.4,1.8-1.8,2.8-3.1,3.8c-2.3,1.7-4.8,3.2-7.6,4
			c-2.9,0.9-5.5,0.7-7.6-1.7c-1.2-1.3-2.5-2.6-3.8-3.8c-3-2.8-3.4-5.5-1.7-9.2c0.8-1.8,1.8-3.5,2.8-5.3c1.2-2.1,0.9-3.4-0.5-5
			c-0.5-0.6-0.9-0.6-1.4,0.1c-1.1,1.4-2.5,2.6-4.4,2.7c-1.3,0.1-2.4-0.5-3.3-1.4c-0.7-0.6-1.5-1.2-2.3-1.9c-0.2-0.2-0.4-0.4-0.6-0.6
			c-0.4-0.8-0.9-1.6-2-1.9c-0.3,0.6-0.5,1.1-0.7,1.6c-1,2.4-3.5,3.7-6,3c-1-0.3-1.9-0.7-2.7-1.3c-0.7-0.4-1.1-0.4-1.6,0.1
			c-0.2,0.2-0.4,0.4-0.7,0.7c-2.4,2.1-6.1,3.1-8.8-0.2c-0.3-0.3-0.6-0.7-0.9-1c-0.3,0.4-0.7,0.7-0.9,1.1c-2.1,3-5.6,3.3-8.1,0.7
			c-1.1-1.1-2.2-2.3-3.3-3.5c-1.1,1.7-2,3.3-3.2,4.7c-1.7,2-3.4,3.3-5.9,1.9c-0.1-0.1-0.2-0.2-0.3-0.3l0,0c-0.1-0.1-0.2-0.2-0.3-0.3
			l0,0c-0.1-0.1-0.2-0.2-0.3-0.3c-0.5-0.5-0.9-0.9-1.4-1.4c-0.1-0.1-0.2-0.2-0.3-0.3c-0.1-0.1-0.2-0.2-0.3-0.3
			c-0.1-0.1-0.2-0.2-0.2-0.3c-0.2-0.2-0.4-0.4-0.6-0.6c-0.3-0.3-0.7-0.6-1.2-1c-0.3,2.1-0.6,3.9-0.9,5.6c-0.1,0.3-0.2,0.5-0.4,0.8
			c-0.1,0.3-0.2,0.5-0.3,0.8l0,0c-0.2,0.4-0.4,0.7-0.5,1.1c-0.1,0.2-0.2,0.4-0.3,0.5c-0.1,0.2-0.2,0.4-0.3,0.5
			c-0.5,0.5-1.1,1.1-1.6,1.6c-0.2,0.1-0.4,0.2-0.5,0.3c0,0,0,0,0,0c-0.2,0.1-0.4,0.2-0.6,0.3c-0.3,0.1-0.7,0.2-1,0.3
			c-0.4,0-0.9,0-1.3,0c-0.3,0-0.5,0-0.8-0.1c-0.1-0.1-0.2-0.1-0.3-0.2c-1.2-0.6-2.3-1.1-3.5-1.7c-0.1-0.1-0.2-0.1-0.3-0.2
			c-0.5-0.4-1.1-0.8-1.6-1.2c-0.1-0.1-0.2-0.2-0.3-0.3l0,0c-0.1-0.1-0.2-0.2-0.3-0.3c-0.2-0.2-0.5-0.3-0.7-0.5c-0.2,0-0.6,0-0.6,0
			c-0.2,0.8-0.4,1.6-0.5,2.4c0,0.1,0,0.2,0,0.3c-0.4,1.3-0.8,2.5-1.1,3.8c-0.1,0.2-0.2,0.4-0.3,0.5c-0.1,0.3-0.2,0.5-0.3,0.8l0,0
			c-0.1,0.2-0.2,0.4-0.3,0.6c0,0,0,0,0,0c-0.1,0.2-0.2,0.4-0.3,0.6l0,0c-0.1,0.1-0.1,0.2-0.2,0.3c-0.1,0.1-0.1,0.1-0.1,0.2
			c-0.1,0.1-0.2,0.2-0.3,0.3c0,0,0,0,0,0c-0.1,0.1-0.1,0.2-0.2,0.3c-0.1,0.1-0.1,0.1-0.1,0.2c-0.1,0.1-0.2,0.2-0.3,0.3
			c-0.6,0.6-1.3,1.3-1.9,1.9c-0.1,0.1-0.2,0.2-0.3,0.3l0,0c-0.2,0.1-0.4,0.2-0.6,0.3c0,0,0,0,0,0c-0.2,0.1-0.4,0.2-0.6,0.3
			c0,0,0,0,0,0c-0.1,0-0.2,0-0.2,0.1c-0.2,0.1-0.4,0.2-0.6,0.3c-0.3,0.1-0.5,0.1-0.8,0.2c-0.4,0-0.9,0-1.3,0.1c-0.2,0-0.4,0-0.5,0
			c-0.3,0-0.5,0-0.8-0.1c-0.2-0.1-0.4-0.1-0.5-0.2c-0.3,0-0.5,0-0.8-0.1c-0.1-0.1-0.2-0.1-0.3-0.2c-0.2,0-0.4-0.1-0.5-0.1
			c-0.8-0.2-1-0.1-0.8,0.4c0.2,0.6,0.5,1.1,0.8,1.6c0,0.1,0,0.2,0.1,0.2c0.1,0.3,0.1,0.5,0.2,0.8c0,0.1,0,0.2,0.1,0.3
			c0.1,0.1,0.1,0.2,0.2,0.3c0,0,0,0,0,0c0.1,0.3,0.2,0.6,0.3,0.9c0,0.1,0,0.2,0.1,0.2c0.1,0.4,0.1,0.8,0.2,1.2c1,4.1,2.8,8,2,12.4
			c-0.1,0.1-0.1,0.1-0.1,0.2c-0.1,0.2-0.2,0.4-0.3,0.6c-0.1,0.2-0.2,0.4-0.3,0.5c-0.1,0.2-0.2,0.4-0.3,0.5l0,0
			c-0.1,0.2-0.2,0.4-0.3,0.5c-0.1,0.1-0.1,0.2-0.2,0.3c-0.1,0.2-0.2,0.4-0.3,0.6l0,0c-0.1,0.1-0.2,0.2-0.3,0.3
			c-0.1,0.1-0.2,0.2-0.3,0.3c-0.1,0.2-0.2,0.4-0.3,0.5c-0.2,0.2-0.3,0.3-0.5,0.5c-0.5,0.6-0.9,1.3-1.4,1.9c-0.4,0.4-0.9,0.9-1.3,1.3
			c-1.6,1.7-3.4,3.2-4.9,5.1c-2.4,2.9-4.4,6.1-6.8,9.1c-1.6,2-3.4,3.8-5.2,5.8c-0.2,0.2-0.2,0.5-0.3,0.7c-0.8,0.5-1.7,1.1-2.5,1.6
			c-1.3,0.8-2.6,1.9-4,2.3c-1.9,0.5-3.9,0.7-5.8,0.3c-4.7-1-8.3-3.8-11.3-7.5c-1.2-1.5-2.8-2.8-4.3-4.2c-0.1-0.1-0.7-0.1-0.8,0.1
			c-1.9,2.4-4,4.6-6.9,5.8c-1.3,0.6-2.7,1-4.1,1.2c-4.5,0.5-8.5-0.9-12-3.6c-1.2-1-2.3-2.1-3.5-3.2c-0.4-0.3-0.8-0.6-1.2-0.8
			c-0.3-0.4-0.6-0.7-0.9-1.1c-1.7-1.9-3.4-3.8-5.1-5.7c-0.3-0.4-0.5-0.7-0.8-1.1c-0.8-1.5-1.7-3-2.5-4.5c-2.2-4.1-3.9-8.4-5.1-12.8
			c-1.2-4.4-2.3-8.9-3.2-13.4c-0.8-4.3-1.4-8.6-1.9-12.9c-0.4-2.9-0.7-5.7-0.8-8.6c-0.2-4,0-7.9-0.2-11.9c-0.2-5.1,0.6-10.1,2-15
			c1.4-5,3.4-9.8,5.6-14.6c0.2-0.4,0.3-0.9,0.5-1.4c0.2-0.4,0.4-0.9,0.5-1.3c0.5-0.9,1-1.8,1.6-2.7c0.2-0.4,0.4-0.9,0.6-1.3
			c0.3-1,0.6-2,0.8-3c0.1-0.9,0.2-1.3,1.3-1c2.5,0.7,4.2,2.5,6,4.2c1.4,1.3,2.7,2.7,4.1,4c0.5,0.5,0.9,0.9,1.4,1.4
			c1.2,2.4,2.3,4.9,3.5,7.3c0.2,0.5,0.5,1,0.9,1.3c3.4,2,5.7,5,8.4,7.7c0.9,0.9,1.6,2,2.4,3c0.1-0.6,0.1-1.2-0.2-1.7
			c-2.1-5.2-4.3-10.4-6.4-15.5c-0.2-0.5-0.6-1-0.8-1.5c-0.3-0.4-0.5-0.7-0.8-1.1c0-0.4,0.1-1-0.1-1.3C48.6,84.8,46,79.4,43.4,74
			c-1.3-2.9-2.3-5.9-3.8-8.7c-1.3-2.5-2.9-4.7-4.4-7.1c-0.2-0.2-0.3-0.5-0.6-1.1c1,0.3,1.7,0.4,2.4,0.7c7.6,2.8,15.2,5.9,22.4,9.7
			c0.5,0.2,1,0.4,1.5,0.5c0.4,0.3,0.9,0.6,1.3,0.8c0.1,0.1,0.2,0.2,0.3,0.3c0.2,0.1,0.4,0.2,0.5,0.3c0,0,0,0,0,0
			c0.2,0.1,0.4,0.2,0.6,0.3l0,0c0.1,0.1,0.2,0.2,0.3,0.3l0,0c0.2,0.1,0.4,0.2,0.5,0.3l0,0c0.1,0.1,0.2,0.2,0.3,0.3l0,0
			c0.2,0.1,0.4,0.2,0.5,0.3l0,0c0.1,0.1,0.2,0.2,0.3,0.3c0.2,0.2,0.4,0.3,0.5,0.5c0.2,0.1,0.4,0.2,0.5,0.3c0.1,0.1,0.2,0.2,0.3,0.2
			c0.1,0.1,0.2,0.2,0.3,0.3c0.1,0.1,0.2,0.2,0.3,0.3c0.1,0.1,0.2,0.2,0.3,0.3c0.1,0.1,0.2,0.2,0.3,0.3c0.5,0.5,0.9,0.9,1.4,1.4l0,0
			c0.5,0.5,1.1,1.1,1.6,1.6c0,0.1,0.1,0.2,0.1,0.3c0.5,0.5,1,1.1,1.5,1.6c0.1,0.1,0.2,0.2,0.3,0.3c0.2,0.7,0.4,1.4,0.6,2.1
			c0.2,0.8,0.4,1.7,0.6,2.5c0.1,1.5,0.2,2.9,0.2,4.4c0.1,5.2,0.2,10.3,0.3,15.5c0,0.1,0.1,0.2,0.1,0.5c0.3-0.2,0.5-0.3,0.7-0.5
			c0.9-0.9,1.7-2,2.6-2.9c1.8-1.7,3.9-2.2,6.4-1.7c2,0.4,3.4,1.5,4.7,2.8c0.5,0.5,1,1,1.6,1.4c0.1-0.1,0.2-0.2,0.3-0.2
			c-0.8-2.8-1.4-5.7-2.4-8.4c-1-2.8-2.4-5.5-3.7-8.4c2.4,0,4.7,0,7,0c-0.3-0.4-0.7-0.6-1-0.8c-2.6-2.4-5.3-4.8-7.8-7.3
			c-2.1-2-2.2-3.1-1-5.3c0.1-0.2,0.1-0.4,0.2-0.6c0-0.4,0-0.7,0-1.1c0-0.1,0-0.2,0-0.3c-0.1-0.6-0.1-1.3-0.2-1.9
			c-0.1-3.5-1.1-6.8-2.4-10c-0.6-1.6-1.4-3.2-2-4.9c-0.1-0.3,0-0.7,0-1.4c0.8,0.6,1.3,0.9,1.7,1.4c2.5,2.7,5.6,4.1,9.2,4.4
			c2.7,0.2,4.9,1.2,6.7,3.3c2,2.4,4.3,4.5,6.1,7c2.9,3.9,4.4,8.3,3.9,13.3c0,0,0.1,0.1,0.1,0.1c-0.1,0.3-0.2,0.5-0.3,0.8
			c-0.3,0.3-0.6,0.7-0.9,1c-0.5,0.6-0.9,1.3-1.5,1.6c-1.3,0.8-2.7,1.4-4.2,2.1c0.4,0.3,1,0.6,1.5,1c1.9,1.9,3.9,3.7,5.7,5.7
			c0.9,1.1,1.6,2.4,2.2,3.7c0.4,0.9,0.5,1.9,0.7,3c0.3-0.4,0.5-0.6,0.7-0.9c1.4-2.2,3.2-4.1,5.2-5.6c2.8-2.2,8.5-2.7,11,0.6
			c0.5,0.7,1.2,1.3,1.8,2c0.2,0,0.3-0.1,0.5-0.1c0.1-1.1,0.5-2.3,0.4-3.4c-0.1-1.1-0.6-2.2-0.9-3.3c2.4-0.1,4.4,1.4,6.6,2.7
			c0-2.1,0-3.9,0-6c1.2,0.8,2.2,1.5,3.2,2.3c0.4-7.2-3-13.2-5-20c2.3,0.5,4.2,1,6.2,1.5c2.3,0.6,4.7,1.1,7,1.7
			c0.8,0.3,1.7,0.5,2.5,0.8c1.5,0.7,2.9,1.3,4.3,2c0.3,0.5,0.5,1.1,0.9,1.6c1,1.2,2.1,2.3,3.2,3.4c0.1-0.1,0.3-0.1,0.4-0.2
			c-0.1-0.8-0.1-1.6-0.2-2.4c0.3,0.8,1,1.6,1,2.4c-0.2,3.4-0.5,6.7-0.9,10.1c-0.1,1.1-0.5,2.2-0.6,3.3c-0.4,3.2-0.8,6.4-1.2,9.6
			c-0.3,2.7-0.8,5.4-0.9,8.1c-0.2,4,0.5,8,1.4,11.9c0.6,2.4,1.1,4.9,2.3,7.1c2.4,4.6,4.6,3.9,7.8,1.6c1.1-0.8,1.2-1.9,0.7-3.2
			c-1-2.8-1.9-5.6-2.8-8.4c-1-3.1-1.6-6.2-1.6-9.4c0-0.2,0-0.4,0-0.5c-0.7-4.1-0.1-8.3,0.5-12.3c0.8-4.5,3.2-8.2,6.6-11.3
			c0.8-0.8,1.4-1.9,1.9-2.9c0.6-1.1,0.2-2.1-0.9-2.6c-0.9-0.5-2-0.9-3-1.1c-2.5-0.4-4.6-1.7-6.7-2.9c-1.2-0.6-2.4-1.2-3.7-1.9
			C156.1,75,156,75.4,156,75.7z M76.3,167.8c-0.1,0-0.4,0.1-0.4,0.1c-0.2,1.6-0.3,3.2-0.5,4.8c-0.5,0.1-1,0.4-1.4,0.2
			c-1.7-0.6-3.3-1.2-4.9-2c-1.5-0.7-2.9-1.7-4.5-2.5c-0.8-0.4-1.7-0.3-2.6-0.5c-0.1,0.1-0.1,0.3-0.2,0.4c1.5,1.4,2.5,3,2.7,5
			c0.1,1,0.4,1.9,0.5,2.9c0.3,3,0.8,6,0.9,9c0.2,4.3,1.6,7.9,4.5,11c2.3,2.5,5.3,3.9,8.5,4.8c2.3,0.7,4.6,0.3,6.7-0.9
			c3.6-2,6.6-4.6,9.2-7.8c1.6-2,3-4,4.5-6c1.4-1.9,2.7-3.8,4.2-5.6c2.5-3,5.2-5.8,7.7-8.8c2.4-2.7,2.7-5.8,1.8-9.2
			c-0.8-2.9-1.8-5.8-2.5-8.7c-0.4-1.8-0.8-3.5-2.3-4.7c0,0,0-0.2,0.1-0.3c0.3,0,0.6,0,0.9,0.1c1,0.4,2.1,0.9,3.1,1.1
			c1.9,0.3,4,0.5,5.6-0.8c1.4-1.2,2.7-2.7,3.5-4.3c1.1-2.3,1.6-4.8,2.3-7.2c0.5-1.7,0.3-2-1.2-3c-0.1,0.1-0.3,0.2-0.4,0.3
			c-0.3,0.3-0.6,0.5-0.8,0.9c-1.5,2.2-4.7,2.6-6.9,1c-2.3-1.6-4.2-3.6-5.7-6c-0.5-0.7-0.4-1.1,0.3-1.7c2-1.8,4.2-3.5,6-5.5
			c1.5-1.6,3-3.3,3.4-5.7c0.4-2.3,0.7-4.8,1.6-6.9c1.5-3.8,3.4-7.4,5.3-11c0.7-1.4,0.7-4.1-0.3-5.4c-1.4-1.9-4.8-2.8-7.2-2
			c-2.3,0.8-4.1,2.2-5.7,4c-2.5,2.7-4.4,5.8-5.5,9.2c-0.7,2.1-1.6,4.1-2.1,6.3c-0.8,3.1-1.4,6.2-1.8,9.3c-0.4,2.7-0.7,5.5-0.9,8.3
			c-0.2,3,0.3,6,1,8.9c0.8,3.4,2.3,6.3,4.9,8.6c0.3,0.2,0.4,0.6,0.6,0.9c-0.5,0.1-0.8,0.1-0.9,0c-1.2-1.4-2.5-2.6-3.3-4.2
			c-2.6-5.1-3.1-10.7-2.7-16.3c0.3-4.5,0.8-9,0.5-13.6c-0.3-4.8,0.3-9.7,0.4-14.5c0.1-2.3,0.3-4.7-0.1-7c-0.3-1.9-1.2-3.8-3.1-4.8
			c-1.4-0.7-3-1.3-4.5-1.5c-2.8-0.4-5.6-0.4-8.7-0.6c0.4,0.9,0.7,1.4,0.9,1.8c0.9,2,2,4,2.7,6.2c2,5.8,2.8,11.9,3.6,18
			c0.8,6.3,1.6,12.6,2.4,18.9c0.6,3.9,1.2,7.9,2,11.8c0.5,2.6,1.2,5.3,2,7.9c0.9,3.1,1.9,6.1,2.7,9.2c0.3,1.2,0.3,2.4-0.7,3.4
			c-1.2,1.1-2.3,2.3-3.6,3.2c-3.6,2.5-7.7,4.1-11.9,5.4c-2.5,0.8-5.1,1.4-7.8,1.1c-0.3-0.5-0.6-1-0.9-1.5c-0.3-0.5-1.1-0.8-0.5-1.5
			c0.4,0.2,0.9,0.6,1.3,0.5c3.1-0.5,5.7-2.3,6.9-5c1.7-3.7,2.7-7.7,3.7-11.7c0.9-3.6,1.4-7.3,2-10.9c0.4-2.8,0.7-5.6,1.1-8.4
			c0.4-2.9,0.8-5.7,1.2-8.6c0.2-1.9,0.4-3.7,0.3-5.6c-0.1-2.4-0.5-4.7-0.7-7.1c-0.3-4.2-1.5-8.1-4.1-11.6c-2.1-2.8-5.8-3.3-8.4-1.9
			c-2,1.1-3.4,2.8-4.7,4.6c-1.2,1.7-2,3.8-3.8,5.1c-1,0.7-1.5,0.6-1.8-0.6c-0.2-1.1-0.5-2.3-0.5-3.4c-0.3-4.8-0.6-9.7-0.8-14.6
			C68,86.4,68,82.2,67.9,78c-0.1-2.3-0.3-4.6-2.5-6.1c-2.2-1.4-4.4-2.9-6.8-4.1c-3.5-1.8-7.2-3.4-10.8-5c-2.7-1.2-5.5-2.4-8.3-3.6
			c-0.8-0.3-1.8-0.4-2.8-0.7c0.2,0.4,0.2,0.6,0.3,0.8c1.8,2.3,3,5,4.1,7.7c1.3,3.2,2.9,6.2,4.4,9.4c1.8,3.9,3.6,7.8,5.4,11.8
			c2.3,5.1,4.6,10.2,6.7,15.4c2.1,5.3,3.9,10.7,5.6,16.1c1.7,5.6,3.2,11.3,4.8,16.9c1.2,4.5,2.4,9.1,3.6,13.6
			c1,3.9,2.1,7.7,3.2,11.6C75.2,163.9,75.8,165.8,76.3,167.8z M60.3,167.7c0.1-0.1,0.2-0.2,0.2-0.3c2-0.2,4,0.1,5.9,0.7
			c0.8,0.3,1.4,1.6,2.3,0.9c0.6-0.5,0.5-1.6,0.8-2.4c0-0.1,0.1-0.3,0.1-0.4c0.2-5,0.4-10,0.5-15c0-2.2-0.1-4.4-0.6-6.6
			c-0.8-3.4-2-6.8-2.9-10.2c-1.2-4.3-2.5-8.5-3.6-12.8c-0.7-2.5-1.7-4.8-3.2-6.9c-2.4-3.3-4.8-6.5-7.3-9.8c-1.5-2-3.4-3.7-6-4.3
			c-0.8-0.2-1.7-0.9-2-1.6c-1.6-2.9-3.5-5.7-4.2-9.1c-0.1-0.5-0.4-0.9-0.7-1.3c-1-1.1-1.9-2.2-3-3.1c-1.1-1-2.2-2.1-3.9-2.2
			c-0.2,0.7-0.2,1.4-0.5,2c-0.9,2-1.9,3.9-2.8,5.9c-1.6,3.6-3.1,7.2-4.5,10.9c-1.1,2.9-2,5.9-2.8,8.9c-1,3.4-1.5,6.9-1.4,10.5
			c0.2,6.2,0.4,12.3,0.8,18.5c0.3,3.8,0.7,7.6,1.4,11.4c0.8,4.4,1.8,8.7,2.8,13c1.5,6.7,3.8,13.2,7.2,19.2c2.4,4.3,5.3,8.1,9.7,10.6
			c3.9,2.3,8.2,3.1,12.5,1.3c2-0.9,3.8-2.2,5.4-3.7c1.1-1,1.9-2.4,2.7-3.7c1.4-2.2,2.7-4.4,2.2-7.2c-0.5-2.6-0.9-5.3-1.3-7.9
			c-0.3-1.9-1.4-3.3-2.6-4.6C60.8,168.3,60.5,168,60.3,167.7z M206.4,118.8c-2.6-0.1-3.6-1.7-2.5-3.9c0.6-1.3,1.7-2.4,2.6-3.7
			c0.2-0.3,0.6-0.7,0.7-1.1c0.2-2.2,0.4-4.5,0.5-6.7c0.2-4.5,0.2-8.9,0.4-13.4c0-0.5,0.1-1.1,0.2-1.6c0.1-1.1,0.2-2.2,0.3-3.2
			c-3.9-0.7-6.9,1.7-10.3,2.7c0-0.5,0-0.8,0.1-1c0.7-2.9-0.7-5.4-3.6-6.2c-0.8-0.2-1.7-0.3-2.5-0.6c-2.2-0.7-4.3-0.4-6.3,0.2
			c-0.4,0.1-0.7,0.6-1,1c0.4,0.3,0.7,0.7,1.1,0.8c1.4,0.2,2.1,1.2,2.3,2.3c0.4,2.2,0.9,4.5,0.9,6.7c-0.2,4.2-1.7,8.2-3,12.2
			c-1,3.1-2.3,6.2-3.3,9.4c-1.4,4.2-3,8.2-6.2,11.3c-0.4,0.4-0.8,1.5-0.5,2c1.4,2.7,3.8,4.2,6.6,4.8c1.7,0.4,2.9-0.8,3.8-2.1
			c1.8-2.5,2-5.5,2.1-8.3c0.2-3.9,1-7.7,2.4-11.4c1.8-4.8,3.8-9.4,5.8-14.1c0.4-0.9,0.9-1.8,1.5-2.7c0.5-0.7,1.1-0.8,1.9-0.4
			c1.6,1,2.7,2.3,2.6,4.4c0,2.4-1,4.6-2,6.6c-1.2,2.4-2.7,4.7-4,7c-1.5,2.7-3.1,5.3-4.5,8.1c-2.3,4.7-2.7,7.8,0.6,11.9
			c1.6,2,4.5,2.2,6.3,0.4c2.3-2.3,4.6-4.6,6.8-6.9c0.2-0.2,0.3-0.5,0.3-0.7C206.4,121.4,206.4,120.2,206.4,118.8z M153.3,118.5
			c-0.3,0-0.8-0.1-1.1,0c-1.3,0.7-2.2,0.1-3.2-0.6c-0.7-0.5-1.4-1.1-2.1-1.7c-2.3-2-2.7-4.9-2.7-7.6c-0.1-3.8,0.3-7.6,0.5-11.4
			c0.1-0.8,0.4-1.7,0.9-2.3c1.8-1.8,3.2-3.7,4.4-5.9c1.5-2.7,3.8-5,5.8-7.5c0.2-0.3,0.3-0.6,0.5-1c-0.1-0.1-0.2-0.2-0.4-0.4
			c-2.7,1.4-5.5,2.7-8.3,4.1c-1.2-0.7-0.6-1.8-0.1-2.6c0.8-1.4,1.7-2.6,2.7-3.9c2.2-2.9,1-2.9-1.2-3.6c-4.7-1.6-9.6-2.9-14.4-4.3
			c-0.4-0.1-0.9,0-1.6,0c2.2,6.5,5.2,12.7,4.6,20.1c-1.3-0.9-2.2-1.7-3.4-2.5c0,4.2,0,8.1,0,12c0,0.4,0.3,1,0.6,1.2
			c1.1,0.7,2.3,1.2,3.7,1.9c0,0,0,0.2,0,0.4c-0.4,4.1-0.4,8.1,0.3,12.2c0.8,4.5,1.6,8.9,3.2,13.2c0.8,2.1,1.7,4.3,3.8,5.6
			c0.6,0.4,1.5,0.8,1.9,0.6c1.1-0.5,2.3-1.3,3.1-2.2c1.3-1.7,2.4-3.7,3.5-5.6c0.3-0.5,0.5-1.3,0.4-1.9
			C154.4,122.6,153.8,120.7,153.3,118.5z M180.4,85.2c-0.1-0.9,0-2.1-0.5-2.7c-1.2-1.4-2.7-2.6-4.1-3.8c-0.6-0.5-1.3-0.2-1.6,0.7
			c-0.4,1.1-0.9,2.3-1.6,3.3c-1.6,2.3-3.5,4.5-4.8,6.9c-1.7,3.2-3.2,6.5-3.9,10.2c-0.8,4.3-1.5,8.6-1,13c0.6,5.5,1.8,10.9,4.5,15.9
			c0.8,1.5,1.9,2.9,4,3.1c2,0.2,3.7-0.4,5.3-1.7c1-0.8,1-0.9,0.2-2c-2.1-2.7-2.1-2.7-0.2-5.1c1.8-2.2,3.4-4.3,4.3-7
			c1.1-3.3,2.5-6.4,3.6-9.7c0.8-2.4,1.5-4.8,2.3-7.1c1.1-3.5,1.3-6.9-0.9-10C184.5,87.4,183.3,84.9,180.4,85.2z M128.7,90.7
			c0,0.1-0.1,0.3-0.1,0.4c0.9,3.1-0.6,5.7-1.9,8.3c-1.9,3.8-3.9,7.4-5.6,11.3c-1.3,3-2,6.2-2.4,9.5c-0.4,3-0.1,5.8,1.2,8.5
			c2.3,4.8,5.6,8.9,10.3,11.5c1.8,1,3.6,1.1,5.5,0.3c1.4-0.5,1.7-1.9,2.4-2.9c1.3-2.1,1.7-4.5,1.6-7c0-2.5,0.1-5.1-0.1-7.6
			c-0.1-1.4-0.5-2.7-0.8-4.1c-1.2,1.6-2,3.3-3.1,4.7c-0.7,0.9-1.6,1.7-2.7,2.1c-1.6,0.5-3.1,0.3-4.8-0.3c-2.7-1.1-4-2.9-4.4-5.7
			c-0.7-6,5.3-13.2,10.9-12.6c0.9,0.1,1.5-0.4,1.8-1.3c0.3-0.9,0.8-1.9-0.2-2.6c-2.7-1.9-3.4-4.4-3-7.5c0-0.3,0-0.5,0-0.8
			C133.5,92.8,130.8,90.5,128.7,90.7z M79.3,54.7c-0.1,0.1-0.2,0.2-0.3,0.3c0.5,1.4,1.2,2.8,1.6,4.2c0.7,2.5,1.4,5,1.9,7.5
			c0.4,2.3,0.7,4.7-0.3,7c-0.2,0.5-0.1,1.4,0.2,1.8c0.5,0.8,1.2,1.4,1.9,2c2.9,2.4,6.1,3.9,10.1,2.6c2.8-0.9,5.1-4.2,4.9-7.2
			c-0.3-3.1-1.3-6-2.8-8.6c-1.8-3.2-3.9-5.9-8.2-6c-2.2,0-4.5-0.7-6.4-2.1C81.1,55.7,80.2,55.3,79.3,54.7z M207.7,133.1
			c-0.1,0.1-0.1,0.2-0.2,0.3c0.3,0.3,0.6,0.6,0.9,1c1.6,1.8,1.8,3.4,0.6,5.6c-1.4,2.6-3.3,5.1-3.7,8.2c-0.4,3.6,1.9,6.6,5.4,6.2
			c4.5-0.5,8.5-2.5,11.6-5.9c1.1-1.2,1.8-2.5,1.2-4.3c-0.5-1.6-1.3-3-2.3-4.4c-1.7-2.5-3.9-3.9-6.9-4c-0.8,0-1.7-0.5-2.5-0.9
			C210.4,134.3,209.1,133.7,207.7,133.1z M155.6,71.8c0.1,0.1,0.2,0.2,0.3,0.3c0.2,0,0.4,0,0.5-0.1c1.4-1.2,3.2-1.4,4.9-1.5
			c4.4-0.2,7.3-2.6,9.2-6.4c0.7-1.5,0.8-3.2-0.5-4.3c-0.9-0.8-2.1-1.4-3.2-1.8c-3.8-1.3-8-1.6-11.6-3.6c-0.2-0.1-0.4-0.1-0.9-0.2
			c0.4,0.6,0.6,1.1,0.8,1.5c1.3,2.2,2.7,4.4,4,6.7c0.3,0.6,0.6,1.4,0.5,2c-0.4,1.4-1,2.8-1.7,4C157.2,69.7,156.3,70.8,155.6,71.8z
			 M92.4,168.5c3.4-1.6,6.5-3.3,8.6-6.3c0.4-0.5,0.4-1.4,0.2-2.1c-0.7-2.8-1.6-5.6-2.4-8.4c-0.5-1.8-1-3.6-1.5-5.3
			c-0.1,0-0.1,0-0.2,0C95.6,153.7,94,161,92.4,168.5z M138,113.4c-2.2,0.4-3.8,1.8-5.1,3.4c-1.8,2.1-2.9,4.5-3,7.3
			c0,0.9,0.3,1.1,1.2,1.2c1.9,0.2,3.2-0.6,4.2-2.2c0.9-1.5,1.9-3,2.8-4.5c0.3-0.5,0.6-1.1,0.6-1.6
			C138.5,115.8,138.2,114.6,138,113.4z M154.2,98.3c-2,1.2-3.1,2.7-3.5,4.3c-0.1,0.6-0.3,1.1-0.3,1.7c-0.1,3.5-0.3,7.1-0.3,10.6
			c0,0.9,0.3,1.7,0.5,2.6c0.1,0.3,0.4,0.7,0.6,0.7c0.9,0.2,2.1-0.8,2.1-1.8c0-0.8-0.2-1.5-0.2-2.2c-0.2-4,0.1-8,0.8-12
			C154,100.9,154,99.7,154.2,98.3z M120.1,130.8c-1.6,1.5-3.1,2.8-4.6,4.2c-0.3,0.3-1,0.9-0.9,1c0.3,0.5,0.7,0.9,1.2,1.2
			c2.2,1,5.3-0.4,6.2-2.8c0.1-0.2,0.1-0.5,0-0.7C121.3,132.6,120.7,131.7,120.1,130.8z M219,113.5c-0.1-0.2-0.2-0.4-0.3-0.5
			c-0.5,0.2-1,0.3-1.5,0.5c-1.3,0.6-2.6,1.4-3.9,2c-1.4,0.6-2.1,2-1.4,3.7C214.3,117.3,216.6,115.4,219,113.5z"/>
		<path class="st2" d="M156,75.7c0-0.3,0.1-0.7,0.1-1.2c1.3,0.7,2.5,1.2,3.7,1.9c2.2,1.1,4.2,2.4,6.7,2.9c1,0.2,2.1,0.6,3,1.1
			c1.1,0.5,1.5,1.5,0.9,2.6c-0.5,1-1.1,2.1-1.9,2.9c-3.4,3.1-5.8,6.8-6.6,11.3c-0.7,4.1-1.3,8.2-0.5,12.3c0,0.2,0,0.4,0,0.5
			c0.1,3.2,0.6,6.4,1.6,9.4c0.9,2.8,1.8,5.6,2.8,8.4c0.4,1.2,0.3,2.4-0.7,3.2c-3.2,2.3-5.4,2.9-7.8-1.6c-1.1-2.2-1.7-4.7-2.3-7.1
			c-0.9-3.9-1.6-7.9-1.4-11.9c0.1-2.7,0.6-5.4,0.9-8.1c0.4-3.2,0.8-6.4,1.2-9.6c0.1-1.1,0.5-2.2,0.6-3.3c0.4-3.4,0.7-6.7,0.9-10.1
			c0-0.8-0.6-1.6-1-2.4C156.2,76.4,156.1,76.1,156,75.7z"/>
		<path class="st3" d="M96.6,203c0.1-0.2,0.1-0.5,0.3-0.7c1.7-1.9,3.6-3.8,5.2-5.8c2.3-3,4.4-6.1,6.8-9.1c1.5-1.8,3.2-3.4,4.9-5.1
			c0.4-0.4,0.9-0.9,1.3-1.3c0.7-0.4,1.3-0.9,2-1.3c0.4-0.2,0.8-0.3,1.1-0.6c1.8-1.1,3.7-2,5.9-2.2c1.1,0,2.2,0,3.3,0
			c0.3,0,0.5,0.1,0.8,0.1c0.5,0.1,0.9,0.3,1.4,0.4c0.4,0.1,0.7,0.2,1.1,0.3c0.1,0.1,0.2,0.1,0.3,0.2c0.4,0.2,0.9,0.4,1.3,0.6
			c0.1,0.1,0.2,0.1,0.3,0.2c0.1,0,0.2,0.1,0.3,0.1c0.1,0.1,0.2,0.1,0.3,0.2c0.1,0,0.2,0.1,0.2,0.1c0.1,0.1,0.2,0.1,0.3,0.2
			c9.4,6.2,16.2,15,23,23.7c0-2.4-0.2-4.8-0.2-7.2c0-2.9,0.2-5.8,0.2-8.7c0-4.5,0.3-9,0.8-13.5c0.4-3.8,1.1-7.5,2.8-11
			c1-2.2,2.8-3.7,5.5-3.6c0.8,0,1.5,0,2.3,0c0.5,0,1.1,0,1.6,0c0.3,0,0.7,0,1,0.1c0.8,0.9,1.8,0.8,2.8,0.7c0.4,0.1,0.9,0.2,1.3,0.3
			c0.5,0.2,0.9,0.3,1.4,0.5c0.1,0,0.2,0,0.3,0.1c0.4,0.2,0.7,0.4,1.1,0.5c0.1,0.1,0.2,0.1,0.3,0.2c0.2,0,0.4,0.1,0.5,0.1
			c0.1,0.1,0.2,0.1,0.3,0.2c0.2,0,0.4,0,0.5,0c0.1,0,0.2,0,0.3,0.1c0.4,0.2,0.7,0.4,1.1,0.6c0.1,0.1,0.2,0.1,0.3,0.2
			c0.4,0.1,0.7,0.2,1.1,0.3c0.3,0.2,0.5,0.4,0.8,0.5c0.5,0.2,1.1,0.4,1.6,0.6c0.2,0.1,0.4,0.2,0.5,0.3c0.4,0.2,0.7,0.4,1.1,0.5l0,0
			c1.4,0.7,2.8,1.4,4.2,2.1c0.5,0.2,1,0.4,1.5,0.6c0.1,0,0.2,0.1,0.2,0.1c0.1,0.1,0.2,0.1,0.3,0.2c0.1,0,0.2,0.1,0.2,0.1
			c0.1,0.1,0.2,0.1,0.3,0.2c0.7,0.4,1.4,0.8,2.1,1.1c0.1,0.1,0.2,0.1,0.3,0.2c0.1,0,0.2,0.1,0.3,0.1c0.1,0.1,0.2,0.1,0.3,0.2
			c0.1,0,0.2,0.1,0.2,0.1c0.1,0.1,0.2,0.1,0.3,0.2c1.2,0.6,2.3,1.3,3.5,1.9c0.1,0.1,0.2,0.1,0.3,0.2c0.4,0.2,0.7,0.4,1.1,0.6
			c0.1,0.1,0.2,0.1,0.3,0.2c0.1,0,0.2,0.1,0.3,0.1c0.1,0.1,0.2,0.1,0.3,0.2c0.4,0.2,0.7,0.4,1.1,0.6c0.1,0.1,0.2,0.1,0.3,0.2
			c0.4,0.2,0.7,0.4,1.1,0.6c0.1,0.1,0.2,0.1,0.3,0.2c0.1,0,0.2,0.1,0.2,0.1c0.1,0.1,0.2,0.1,0.3,0.2c0.2,0.1,0.3,0.2,0.5,0.3
			c0.1,0.1,0.2,0.1,0.3,0.2c0.4,0.2,0.7,0.4,1.1,0.6c0.1,0.1,0.2,0.1,0.3,0.2c0.6,0.4,1.2,0.8,1.9,1.1c0.1,0.1,0.2,0.1,0.3,0.2
			c0.6,0.4,1.3,0.8,1.9,1.1c0.1,0.1,0.2,0.1,0.3,0.2c0.9,0.6,1.8,1.1,2.7,1.7c0.1,0.1,0.2,0.1,0.3,0.2c0.2,0.1,0.4,0.2,0.5,0.3
			c0.3,0.1,0.6,0.2,0.9,0.2c-0.1-0.3-0.2-0.5-0.3-0.8c-1-1.3-2-2.5-2.9-3.8c-2.9-4-5.7-8.1-8.6-12.2c-0.1-0.1-0.1-0.2-0.2-0.3
			c-3.1-4.9-6-9.9-8.1-15.2c-1.4-3.6-2.7-7.2-2.1-11.1c0.2-1.6,0.7-3.2,2.1-4.3c0.2,0.2,0.4,0.4,0.6,0.6c-2.3,2.9-2,6.1-1.3,9.4
			c1.3,6,4.2,11.3,7.5,16.4c4,6.2,8.3,12.1,12.6,18.1c1.6,2.3,3.5,4.3,5.4,6.5c0.5,0.6,0.8,1.1,0,1.7c-3.6-2.3-7.1-4.7-10.7-6.9
			c-4.9-3-9.7-5.9-14.7-8.7c-4.4-2.4-8.8-4.8-13.3-6.7c-3.9-1.6-7.9-2.8-12-3.8c-1.7-0.4-3.6-0.3-5.4,0c-2,0.3-3.1,1.8-3.8,3.5
			c-1.3,3.4-1.7,7-2.2,10.5c-1.3,9.1-0.6,18.3-0.8,27.5c0,0.8,0.2,1.6,0.2,2.4c0,0.7,0.3,1.7-0.8,1.8c-2.5-3.3-4.9-6.5-7.4-9.7
			c-0.5-0.7-1.3-1.1-1.9-1.7c-0.4-0.4-0.6-0.9-1-1.3c-2.2-2.4-4.5-4.8-6.7-7.2c-0.5-0.5-1-1.1-1.6-1.5c-0.2-0.1-0.5-0.1-0.7-0.2
			c-0.6-0.6-1.2-1.3-1.9-1.9c-2.5-1.8-5-3.6-8.1-4.2c-3-0.6-5.7-0.2-8.3,1.4c-4.7,2.8-8.6,6.5-11.9,10.8c-2.9,3.8-5.7,7.6-8.5,11.4
			c-0.3,0.4-0.4,0.8-0.7,1.1c-0.3,0.4-0.6,0.7-0.9,1C97.3,203.7,97,203.3,96.6,203z M216,182.3c0.2-0.3,0.3-0.4,0.3-0.5
			c0-0.1-0.2-0.2-0.2-0.2c-0.1,0-0.3,0.1-0.3,0.2C215.7,181.8,215.9,182,216,182.3z"/>
		<path class="st3" d="M147.6,72.4c-0.8-0.3-1.7-0.5-2.5-0.8c-0.1-0.2-0.2-0.5-0.3-0.7c-2.7-3.3-4.7-7.2-6.3-11.1
			c-1.1-2.6-2.1-5.3-3.2-7.9c0-0.3-0.1-0.5-0.1-0.8c-0.1,0-0.2,0-0.3-0.1c-0.1,0.3-0.3,0.6-0.4,0.9c-2.1,3.5-4.1,7.1-6.2,10.6
			c-0.2,0.3-0.4,0.5-0.5,0.8l0,0c-0.2,0.3-0.4,0.5-0.5,0.8l0,0c-0.2,0.3-0.4,0.5-0.5,0.8c-0.5,0.6-0.9,1.3-1.4,1.9
			c-0.2,0.3-0.4,0.5-0.6,0.8c-1.5,1.9-3.1,3.8-4.6,5.7c-0.2,0.3-0.4,0.5-0.6,0.8c-2.3,2.1-4.5,4.3-6.9,6.2c-2.2,1.6-4.6,3.3-7.7,2
			c0.1-0.3,0.2-0.5,0.3-0.8c3.3,0.5,5.9-1,8.1-3c2.3-1.9,4.4-4.1,6.4-6.4c3.3-3.9,6.3-8,8.8-12.5c1.9-3.4,3.8-6.9,5.7-10.3
			c0.2-0.3,0.6-0.7,0.8-0.6c0.3,0,0.6,0.5,0.7,0.8c1.1,2.9,2.1,5.9,3.3,8.8C141.2,63.4,143.7,68.3,147.6,72.4z"/>
		<path class="st3" d="M82,68.3c0.1,0.6,0.1,1.3,0.2,1.9c-0.1,0-0.1,0-0.2,0c-0.1-0.1-0.2-0.2-0.3-0.3c-0.1-0.1-0.2-0.1-0.3-0.2
			c-0.8-0.6-1.6-1.1-2.4-1.7c-0.1-0.1-0.2-0.1-0.3-0.2c-1.2-0.8-2.3-1.7-3.5-2.5c-0.1-0.1-0.2-0.1-0.3-0.2
			c-5.5-4.2-11-8.4-16.5-12.5c-0.1-0.1-0.3-0.3-0.4-0.4c-0.2,0-0.4,0-0.6,0c0.1,0.1,0.1,0.2,0.2,0.4c0.2,0.5,0.3,1,0.5,1.5
			c0,0.2,0,0.3,0.1,0.5c0.1,0.1,0.1,0.2,0.2,0.3c0,0.2,0,0.3,0.1,0.5c0.1,0.1,0.1,0.2,0.2,0.3c0,0.2,0,0.3,0.1,0.5
			c0.1,0.2,0.2,0.3,0.3,0.5c0.1,0.4,0.2,0.8,0.3,1.2c0.1,0.1,0.1,0.2,0.2,0.3c0,0.2,0,0.3,0.1,0.5c0.1,0.1,0.1,0.2,0.2,0.3
			c0,0.2,0,0.3,0.1,0.5c0.1,0.1,0.1,0.2,0.2,0.3c0.1,0.5,0.2,1.1,0.3,1.6c0.1,0.1,0.1,0.2,0.2,0.3c0,0.2,0,0.3,0.1,0.5
			c0.1,0.3,0.2,0.5,0.3,0.8c0,0.1,0,0.2,0,0.3c0.1,0.1,0.1,0.2,0.2,0.3c0.2,0.9,0.4,1.8,0.6,2.7c0.1,0.4,0.2,0.7,0.3,1.1
			c0,0.1,0,0.2,0,0.3c0.1,0.2,0.1,0.4,0.2,0.6c0,0.3,0,0.5,0,0.8c-0.4-0.3-0.9-0.6-1.3-0.8c-1-3.6-1.9-7.2-3-10.7
			c-0.7-2.4-1.7-4.8-2.5-7.2c-0.1-0.3,0.1-0.6,0.1-1c0.3,0.1,0.7,0,0.9,0.2c1.8,1.3,3.5,2.7,5.2,4.1c3.4,2.6,6.7,5.2,10.1,7.8
			c2.2,1.7,4.5,3.5,6.8,5.1C79.6,67.2,80.8,67.7,82,68.3z"/>
		<path class="st3" d="M176.8,69.7c-0.1-1.6,0.5-3.2-0.5-4.7c0-4,0-8.1,0-12.2c-1.8,2.1-3.6,4.2-5.4,6.3c-0.3-0.2-0.6-0.4-0.9-0.6
			c2.2-2.7,4.4-5.5,6.6-8.2c0.2-0.3,0.8-0.4,1.4-0.7c-0.2,2.8-0.5,5.3-0.6,7.8c-0.1,2.1,0.1,4.3,0.2,6.4c0.1,1.6,0.2,3.1,0.3,4.7
			c0.3,2.6,0.8,5.1,1.9,7.4c1.1,2.3,2.7,3.7,5.4,3.5c-0.4,0.4-0.9,0.9-1.3,1.3c-1.2-0.6-2.5-1.1-3.4-2c-1.6-1.5-2.3-3.5-2.8-5.5
			C177.4,72.1,177.1,70.9,176.8,69.7z"/>
		<path class="st3" d="M33.6,187c0.3,0.4,0.5,0.7,0.8,1.1c-3.2,4.7-6.4,9.5-9.5,14.2c0.1,0,0.1,0.1,0.2,0.1
			c4.8-2.9,9.7-5.8,14.5-8.6c0.3,0.4,0.6,0.7,0.9,1.1c-2.3,1.3-4.7,2.5-7,3.9c-3.6,2.2-7.2,4.6-10.7,6.9c-0.3,0.2-0.8,0.1-1.1,0.2
			c0.1-0.4,0.1-0.8,0.3-1.2c3.7-5.6,7.5-11.1,11.3-16.7C33.2,187.6,33.4,187.3,33.6,187z"/>
		<path class="st3" d="M213.1,62.6c-0.1,0.6-0.1,1.1-0.2,1.7c-0.5,0.2-1,0.4-1.4,0.7c-1.8,1.3-3.5,2.7-5.3,3.9
			c-4.7,3.1-9.5,6.1-14.2,9.1c-0.4,0.3-0.9,0.5-1.3,0.8c-0.8-0.1-1.6-0.2-2.5-0.3c0.4-0.2,0.7-0.5,1.1-0.6c5-2.2,9.6-5.2,14.1-8.4
			c3-2.2,5.9-4.5,8.9-6.7C212.5,62.7,212.8,62.7,213.1,62.6z"/>
		<path class="st3" d="M222.9,103.3c0.1-0.4,0.2-0.7,0.3-1.1c2.6-0.3,5.2-0.5,7.8-0.8c0.6,0,1.1,0.1,1.7,0.2c0,0.1,0.1,0.3,0.1,0.4
			c-1.3,1-2.6,1.9-3.9,2.9c-2.4,1.8-4.9,3.7-7.3,5.5c-0.2,0.2-0.4,0.5-0.6,0.7c-1.8-0.2-0.2-1-0.3-1.5c2.9-2.1,5.7-4.3,8.4-6.3
			C227.2,103.3,225,103.3,222.9,103.3z"/>
		<path class="st3" d="M28.4,90.6c-0.2,0.4-0.4,0.9-0.5,1.3c-1.6-1.8-3.2-3.6-4.8-5.4c-0.9-1-1.9-1.8-2.8-2.8
			c-0.3-0.3-0.5-0.7-0.7-1c0.1-0.1,0.1-0.2,0.2-0.3c0.6,0.1,1.2,0.1,1.7,0.3c2.6,1.1,5.2,2.3,7.7,3.5c0.4,0.2,0.9,0.2,1.4,0.4
			c-0.2,0.4-0.4,0.9-0.6,1.3c-2-0.9-4-1.7-6-2.6c0,0.1-0.1,0.2-0.1,0.2C25.4,87.2,26.9,88.9,28.4,90.6z"/>
		<path class="st3" d="M51.2,91.6c0.3,0.4,0.5,0.7,0.8,1.1c-2.6-0.2-5.2-0.3-7.8-0.5c-0.5-0.5-0.9-0.9-1.4-1.4
			c2.4,0.3,4.8,0.5,7.2,0.8C50.3,91.7,50.8,91.6,51.2,91.6z"/>
		<path class="st2" d="M60.3,167.7c0.3,0.3,0.5,0.6,0.8,0.9c1.2,1.3,2.3,2.7,2.6,4.6c0.4,2.7,0.9,5.3,1.3,7.9c0.5,2.8-0.8,5-2.2,7.2
			c-0.8,1.3-1.6,2.7-2.7,3.7c-1.6,1.4-3.4,2.8-5.4,3.7c-4.3,1.9-8.5,1-12.5-1.3c-4.3-2.5-7.3-6.3-9.7-10.6c-3.4-6-5.7-12.5-7.2-19.2
			c-1-4.3-2-8.7-2.8-13c-0.7-3.8-1.1-7.6-1.4-11.4c-0.4-6.2-0.7-12.3-0.8-18.5c-0.1-3.5,0.5-7.1,1.4-10.5c0.8-3,1.7-6,2.8-8.9
			c1.4-3.7,2.9-7.3,4.5-10.9c0.9-2,1.9-3.9,2.8-5.9c0.3-0.6,0.4-1.3,0.5-2c1.7,0.1,2.8,1.3,3.9,2.2c1.1,0.9,2.1,2,3,3.1
			c0.3,0.3,0.6,0.8,0.7,1.3c0.7,3.4,2.6,6.2,4.2,9.1c0.4,0.7,1.3,1.4,2,1.6c2.6,0.7,4.4,2.3,6,4.3c2.5,3.2,4.9,6.5,7.3,9.8
			c1.5,2.1,2.5,4.4,3.2,6.9c1.2,4.3,2.4,8.5,3.6,12.8c1,3.4,2.1,6.7,2.9,10.2c0.5,2.1,0.6,4.4,0.6,6.6c-0.1,5-0.3,10-0.5,15
			c0,0.1,0,0.3-0.1,0.4c-0.2,0.8-0.2,2-0.8,2.4c-0.9,0.7-1.5-0.6-2.3-0.9c-1.9-0.6-3.9-0.9-5.9-0.7
			C60.4,167.4,60.3,167.6,60.3,167.7z M47.7,108.5c-0.1,0-0.2,0-0.4,0c-0.1,0.4-0.2,0.9-0.3,1.3c-0.1,1.1,0,2.3-0.2,3.3
			c-0.6,2.6-1.8,5-3.5,7.2c-2.7,3.4-4.6,7.3-6.3,11.2c-2.3,5-3.5,10.2-4.3,15.6c-0.7,4.6-0.8,9.1-0.3,13.7c0.4,3.7,1.2,7.3,3.5,10.3
			c2.4,3.1,4.6,4.4,8.6,3.2c2.6-0.8,4.4-2.6,6-4.7c2.8-3.6,4.9-7.7,6.4-12c0.8-2.2,1.7-4.4,2.2-6.8c0.7-3.4,0.7-6.9-0.3-10.3
			c-0.8-3.1-1.8-6.1-2.7-9.2c-0.7-2.4-1.4-4.8-2.3-7.2c-1.2-3.4-2.6-6.9-3.9-10.3C49.3,112.1,48.5,110.3,47.7,108.5z"/>
		<path class="st4" d="M130.5,177.8c-0.4-0.1-0.7-0.2-1.1-0.3c-0.5-0.1-0.9-0.3-1.4-0.4c-0.3,0-0.5-0.1-0.8-0.1
			c-0.8-0.7-2.5-0.7-3.3,0c-2.2,0.2-4,1.1-5.9,2.2c-0.4,0.2-0.8,0.4-1.1,0.6c-0.2-0.2-0.4-0.4-0.6-0.6c0.2-0.2,0.3-0.3,0.5-0.5
			c0.1-0.2,0.2-0.4,0.3-0.5c0.1-0.1,0.2-0.2,0.3-0.3c0.1-0.1,0.2-0.2,0.3-0.3l0,0c0.1-0.2,0.2-0.4,0.3-0.6c0.1-0.1,0.1-0.2,0.2-0.3
			c0.1-0.2,0.2-0.4,0.3-0.5l0,0c0.1-0.2,0.2-0.4,0.3-0.5c0.1-0.2,0.2-0.4,0.3-0.5c0.1-0.2,0.2-0.4,0.3-0.6c0-0.1,0-0.2,0.1-0.2
			c0.3-0.7,0.7-1.4,0.7-2.1c0-1.2-0.2-2.5-0.5-3.7c-0.7-2.6-1.6-5.2-2.4-7.8c-0.1-0.1-0.1-0.1-0.1-0.2c-0.1-0.3-0.2-0.6-0.3-0.9l0,0
			c-0.1-0.1-0.1-0.2-0.2-0.3c0-0.1-0.1-0.2-0.1-0.3c-0.1-0.3-0.1-0.5-0.2-0.8c-0.1-0.1-0.1-0.1-0.1-0.2c0-0.7,0-1.3,0-2
			c0.2,0,0.4,0.1,0.5,0.1c0.1,0.1,0.2,0.1,0.3,0.2c0.3,0,0.5,0,0.8,0.1c0.2,0.1,0.4,0.1,0.5,0.2c0.3,0,0.5,0,0.8,0.1
			c0.1,0.1,0.2,0.3,0.3,0.4c0.1-0.1,0.2-0.3,0.3-0.4c0.4,0,0.9,0,1.3-0.1c0.3-0.1,0.5-0.1,0.8-0.2c0.2-0.1,0.4-0.2,0.6-0.3
			c0.1,0,0.2-0.1,0.2-0.1l0,0c0.2-0.1,0.4-0.2,0.6-0.3c0,0,0,0,0,0c0.2-0.1,0.4-0.2,0.6-0.3l0,0c0.1-0.1,0.2-0.2,0.3-0.3
			c0.6-0.6,1.3-1.3,1.9-1.9c0.1-0.1,0.2-0.2,0.3-0.3c0-0.1,0-0.2,0.1-0.2c0.1-0.1,0.1-0.2,0.2-0.3l0,0c0.1-0.1,0.2-0.2,0.3-0.3
			c0-0.1,0-0.2,0.1-0.2c0.1-0.1,0.1-0.2,0.2-0.3l0,0c0.1-0.2,0.2-0.4,0.3-0.6c0,0,0,0,0,0c0.1-0.2,0.2-0.4,0.3-0.6l0,0
			c0.1-0.3,0.2-0.5,0.3-0.8c0.1-0.2,0.2-0.4,0.3-0.5c0.9-1.1,1.3-2.4,1.1-3.8c0-0.1,0-0.2,0-0.3c0.4-0.8,0.7-1.6,1.1-2.4
			c0.2,0.2,0.5,0.3,0.7,0.5c0.1,0.1,0.2,0.2,0.3,0.3l0,0c0.1,0.1,0.2,0.2,0.3,0.3c0.5,0.4,1.1,0.8,1.6,1.2c0.1,0.1,0.2,0.1,0.3,0.2
			c1.2,0.6,2.3,1.1,3.5,1.7c0.1,0.1,0.2,0.1,0.3,0.2c0.3,0,0.5,0,0.8,0.1c0.4,0,0.9,0,1.3,0c0.3-0.1,0.7-0.2,1-0.3
			c0.2-0.1,0.4-0.2,0.6-0.3c0,0,0,0,0,0c0.2-0.1,0.4-0.2,0.5-0.3c0.5-0.5,1.1-1.1,1.6-1.6c0.1-0.2,0.2-0.4,0.3-0.5
			c0.1-0.2,0.2-0.4,0.3-0.5c0.2-0.4,0.4-0.7,0.5-1.1l0,0c0.1-0.3,0.2-0.5,0.3-0.8c0.1-0.3,0.2-0.5,0.4-0.8c0.3-1.2,0.8-2.3,1-3.5
			c0.1-0.7,0.3-1.2,1.1-1.1c0.2,0.2,0.4,0.4,0.6,0.6c0.1,0.1,0.2,0.2,0.2,0.3c0.1,0.1,0.2,0.2,0.3,0.3c0.1,0.1,0.2,0.2,0.3,0.3
			c0.5,0.5,0.9,0.9,1.4,1.4c0.1,0.1,0.2,0.2,0.3,0.3c0,0,0,0,0,0c0.1,0.1,0.2,0.2,0.3,0.3l0,0c0.1,0.1,0.2,0.2,0.3,0.3
			c2.5,1.4,4.2,0.2,5.9-1.9c1.2-1.4,2.1-3,3.2-4.7c1.1,1.2,2.2,2.3,3.3,3.5c2.6,2.6,6,2.2,8.1-0.7c0.3-0.4,0.6-0.7,0.9-1.1
			c0.3,0.4,0.6,0.7,0.9,1c2.6,3.2,6.4,2.3,8.8,0.2c0.2-0.2,0.5-0.4,0.7-0.7c0.5-0.5,1-0.6,1.6-0.1c0.8,0.5,1.8,1,2.7,1.3
			c2.5,0.7,5-0.7,6-3c0.2-0.5,0.5-1,0.7-1.6c1.1,0.3,1.5,1.1,2,1.9c-1.4,1.1-1.9,2.7-2.1,4.3c-0.6,3.9,0.7,7.6,2.1,11.1
			c2.2,5.4,5,10.4,8.1,15.2c0.1,0.1,0.1,0.2,0.2,0.3c2.9,4.1,5.7,8.1,8.6,12.2c0.9,1.3,1.9,2.5,2.9,3.8c-0.2,0.2-0.4,0.4-0.6,0.6
			c-0.2-0.1-0.4-0.2-0.5-0.3c-0.1-0.1-0.2-0.1-0.3-0.2c-0.9-0.6-1.8-1.1-2.7-1.7c-0.1-0.1-0.2-0.1-0.3-0.2c-0.6-0.4-1.3-0.8-1.9-1.1
			c-0.1-0.1-0.2-0.1-0.3-0.2c-0.6-0.4-1.2-0.8-1.9-1.1c-0.1-0.1-0.2-0.1-0.3-0.2c-0.4-0.2-0.7-0.4-1.1-0.6c-0.1-0.1-0.2-0.1-0.3-0.2
			c-0.2-0.1-0.3-0.2-0.5-0.3c-0.1-0.1-0.2-0.1-0.3-0.2c-0.1,0-0.2,0-0.2-0.1c-0.1-0.1-0.2-0.1-0.3-0.2c-0.4-0.2-0.7-0.4-1.1-0.6
			c-0.1-0.1-0.2-0.1-0.3-0.2c-0.4-0.2-0.7-0.4-1.1-0.6c-0.1-0.1-0.2-0.1-0.3-0.2c-0.1,0-0.2,0-0.3-0.1c-0.1-0.1-0.2-0.1-0.3-0.2
			c-0.4-0.2-0.7-0.4-1.1-0.6c-0.1-0.1-0.2-0.1-0.3-0.2c-1.2-0.6-2.3-1.3-3.5-1.9c-0.1-0.1-0.2-0.1-0.3-0.2c-0.1,0-0.2,0-0.2-0.1
			c-0.1-0.1-0.2-0.1-0.3-0.2c-0.1,0-0.2,0-0.3-0.1c-0.1-0.1-0.2-0.1-0.3-0.2c-0.7-0.4-1.4-0.8-2.1-1.1c-0.1-0.1-0.2-0.1-0.3-0.2
			c-0.1,0-0.2,0-0.2-0.1c-0.1-0.1-0.2-0.1-0.3-0.2c-0.1,0-0.2,0-0.2-0.1c-1.8-0.9-3.6-1.9-5.3-2.8c-0.1,0-0.2,0.1-0.4,0.2l0,0
			c-0.1-0.8-0.5-0.9-1.1-0.5c-0.2-0.1-0.4-0.2-0.5-0.3c-0.6-1-1-1.1-1.6-0.6c-0.3-0.2-0.5-0.4-0.8-0.5c-0.3-0.5-0.5-1.2-1.1-0.3
			c-0.1-0.1-0.2-0.1-0.3-0.2c-0.1-0.6-0.4-1-1.1-0.6c-0.1,0-0.2,0-0.3-0.1c-0.1-0.1-0.2-0.3-0.3-0.4c-0.1,0.1-0.2,0.3-0.3,0.4
			c-0.1-0.1-0.2-0.1-0.3-0.2c-0.1-0.2-0.2-0.3-0.3-0.5c-0.1,0.1-0.2,0.2-0.2,0.4c-0.1-0.1-0.2-0.1-0.3-0.2c-0.1-0.6-0.4-1-1.1-0.5
			c-0.1,0-0.2,0-0.3-0.1c-0.5-0.2-0.9-0.3-1.4-0.5c-0.4-0.1-0.9-0.2-1.3-0.3c-0.9-0.2-1.8-0.5-2.8-0.7c-0.3,0-0.7,0-1-0.1
			c-0.5-0.8-1.1-0.8-1.6,0c-0.8,0-1.5,0.1-2.3,0c-2.7-0.1-4.5,1.4-5.5,3.6c-1.6,3.5-2.3,7.2-2.8,11c-0.5,4.5-0.8,9-0.8,13.5
			c0,2.9-0.2,5.8-0.2,8.7c0,2.4,0.2,4.7,0.2,7.2c-6.9-8.7-13.7-17.5-23-23.7c-0.1-0.1-0.2-0.1-0.3-0.2c-0.1,0-0.2,0-0.2-0.1
			c-0.1-0.1-0.2-0.1-0.3-0.2c-0.1,0-0.2-0.1-0.3-0.1c-0.1-0.1-0.2-0.1-0.3-0.2c-0.4-0.2-0.9-0.4-1.3-0.6
			C130.7,178,130.6,177.9,130.5,177.8z"/>
		<path class="st2" d="M77.9,172.9c2.7,0.3,5.3-0.3,7.8-1.1c4.2-1.3,8.3-2.9,11.9-5.4c1.3-0.9,2.4-2.1,3.6-3.2c1-1,1.1-2.2,0.7-3.4
			c-0.9-3.1-1.9-6.1-2.7-9.2c-0.7-2.6-1.4-5.2-2-7.9c-0.8-3.9-1.4-7.8-2-11.8c-0.9-6.3-1.7-12.6-2.4-18.9c-0.8-6.1-1.6-12.2-3.6-18
			c-0.7-2.1-1.8-4.1-2.7-6.2c-0.2-0.5-0.5-1-0.9-1.8c3.1,0.2,5.9,0.2,8.7,0.6c1.6,0.2,3.1,0.8,4.5,1.5c1.9,0.9,2.8,2.9,3.1,4.8
			c0.3,2.3,0.1,4.6,0.1,7c-0.1,4.9-0.7,9.7-0.4,14.5c0.2,4.6-0.2,9-0.5,13.6c-0.4,5.6,0.1,11.2,2.7,16.3c0.8,1.6,2.2,2.8,3.3,4.2
			c0.1,0.2,0.4,0.2,0.9,0c-0.2-0.3-0.3-0.6-0.6-0.9c-2.6-2.3-4.1-5.2-4.9-8.6c-0.7-3-1.2-5.9-1-8.9c0.2-2.8,0.5-5.5,0.9-8.3
			c0.5-3.1,1.1-6.2,1.8-9.3c0.5-2.1,1.4-4.2,2.1-6.3c1.2-3.5,3.1-6.5,5.5-9.2c1.6-1.8,3.4-3.2,5.7-4c2.4-0.8,5.8,0.1,7.2,2
			c1,1.3,1,4,0.3,5.4c-1.8,3.6-3.7,7.3-5.3,11c-0.9,2.2-1.2,4.6-1.6,6.9c-0.4,2.4-2,4-3.4,5.7c-1.8,2-3.9,3.7-6,5.5
			c-0.7,0.6-0.7,0.9-0.3,1.7c1.6,2.3,3.4,4.4,5.7,6c2.2,1.6,5.4,1.2,6.9-1c0.2-0.3,0.6-0.6,0.8-0.9c0.1-0.1,0.3-0.2,0.4-0.3
			c1.5,1,1.7,1.3,1.2,3c-0.7,2.4-1.3,5-2.3,7.2c-0.8,1.6-2.1,3.2-3.5,4.3c-1.6,1.3-3.7,1.1-5.6,0.8c-1.1-0.2-2.1-0.7-3.1-1.1
			c-0.3-0.1-0.6-0.1-0.9-0.1c0,0.2-0.1,0.3-0.1,0.3c1.4,1.3,1.8,3,2.3,4.7c0.7,2.9,1.8,5.8,2.5,8.7c0.9,3.3,0.5,6.5-1.8,9.2
			c-2.6,2.9-5.2,5.8-7.7,8.8c-1.5,1.8-2.8,3.7-4.2,5.6c-1.5,2-3,4.1-4.5,6c-2.5,3.2-5.6,5.8-9.2,7.8c-2.1,1.2-4.3,1.6-6.7,0.9
			c-3.2-0.9-6.2-2.3-8.5-4.8c-2.9-3.1-4.3-6.8-4.5-11c-0.1-3-0.6-6-0.9-9c-0.1-1-0.4-1.9-0.5-2.9c-0.2-2-1.2-3.6-2.7-5
			c0.1-0.1,0.1-0.3,0.2-0.4c0.9,0.1,1.8,0.1,2.6,0.5c1.5,0.7,2.9,1.7,4.5,2.5c1.6,0.8,3.3,1.4,4.9,2c0.4,0.1,0.9-0.2,1.4-0.2
			C76.3,172.7,77.1,172.8,77.9,172.9z M106.8,128c3-1.8,4.5-4.5,5.7-7.2c1.5-3.2,2.8-6.5,4.1-9.8c0.5-1.1,1.1-2.2,1.3-3.3
			c0.2-0.7,0-1.8-0.4-2.2c-0.5-0.5-1.6-0.6-2.3-0.5c-0.7,0.1-1.4,0.7-1.9,1.3c-2,2.2-3.6,4.8-4.4,7.6c-0.8,2.8-1.6,5.6-2.1,8.4
			C106.5,124.1,106.8,125.9,106.8,128z"/>
		<path class="st2" d="M76.3,167.8c-0.5-1.9-1.1-3.9-1.6-5.8c-1.1-3.9-2.2-7.7-3.2-11.6c-1.2-4.5-2.3-9.1-3.6-13.6
			c-1.5-5.7-3-11.3-4.8-16.9c-1.7-5.4-3.5-10.8-5.6-16.1c-2-5.2-4.4-10.3-6.7-15.4c-1.7-3.9-3.5-7.9-5.4-11.8
			c-1.4-3.1-3.1-6.2-4.4-9.4c-1.1-2.7-2.3-5.3-4.1-7.7c-0.1-0.2-0.2-0.4-0.3-0.8c1.1,0.2,2,0.3,2.8,0.7c2.8,1.1,5.5,2.3,8.3,3.6
			c3.6,1.6,7.3,3.2,10.8,5c2.3,1.2,4.6,2.7,6.8,4.1c2.2,1.4,2.4,3.8,2.5,6.1c0.2,4.2,0.1,8.5,0.3,12.7c0.2,4.9,0.5,9.7,0.8,14.6
			c0.1,1.2,0.3,2.3,0.5,3.4c0.3,1.2,0.7,1.3,1.8,0.6c1.9-1.2,2.6-3.3,3.8-5.1c1.3-1.9,2.7-3.5,4.7-4.6c2.6-1.4,6.3-0.9,8.4,1.9
			c2.6,3.5,3.7,7.4,4.1,11.6c0.2,2.4,0.6,4.7,0.7,7.1c0.1,1.9-0.1,3.7-0.3,5.6c-0.3,2.9-0.8,5.8-1.2,8.6c-0.4,2.8-0.7,5.6-1.1,8.4
			c-0.6,3.7-1.1,7.3-2,10.9c-1,4-2,8-3.7,11.7c-1.2,2.7-3.8,4.5-6.9,5c-0.4,0.1-0.9-0.4-1.3-0.5c0-0.4-0.1-0.7-0.1-1.1
			C76.4,168.5,76.4,168.1,76.3,167.8z M80.4,122.5c-0.3-0.2-0.5-0.4-0.8-0.5c0.1-0.6,0.4-1.2,0.2-1.7c-1.4-3.1-3.6-5.2-7-5.9
			c-0.3-0.1-0.7,0.1-1.4,0.2c0.5,0.6,0.9,1,1.2,1.5c0.4,0.6,0.8,1.3,0.9,2c0.3,2.4,0.3,4.9,0.6,7.3c0.4,3,1.1,6,1.8,9
			c0.9,4.2,2.8,8.1,4.8,11.9c0.6,1.2,1.5,2.2,2.5,3.2c1.1,1,2.1,0.8,2.6-0.4c0.2-0.8,0.4-1.6,0.5-2.5c-0.1-0.8,0-1.5-0.2-2.3
			c-0.4-2.2-0.9-4.4-1.4-6.5c-1-4.4-2-8.9-3-13.3C81.5,123.8,80.8,123.2,80.4,122.5z"/>
		<path class="st2" d="M206.4,118.8c0,1.3,0,2.6,0,3.9c0,0.2-0.1,0.6-0.3,0.7c-2.3,2.3-4.5,4.6-6.8,6.9c-1.8,1.8-4.6,1.6-6.3-0.4
			c-3.4-4.1-3-7.2-0.6-11.9c1.4-2.8,2.9-5.4,4.5-8.1c1.3-2.3,2.8-4.6,4-7c1-2.1,2-4.2,2-6.6c0-2.1-1.1-3.3-2.6-4.4
			c-0.7-0.5-1.4-0.3-1.9,0.4c-0.5,0.9-1.1,1.7-1.5,2.7c-2,4.7-4,9.4-5.8,14.1c-1.4,3.6-2.1,7.4-2.4,11.4c-0.2,2.9-0.3,5.9-2.1,8.3
			c-0.9,1.3-2.1,2.5-3.8,2.1c-2.8-0.6-5.2-2.2-6.6-4.8c-0.2-0.5,0.1-1.6,0.5-2c3.2-3.2,4.8-7.2,6.2-11.3c1-3.2,2.3-6.2,3.3-9.4
			c1.3-4,2.8-8,3-12.2c0.1-2.2-0.4-4.5-0.9-6.7c-0.2-1.1-0.9-2.2-2.3-2.3c-0.4,0-0.8-0.5-1.1-0.8c0.3-0.3,0.6-0.8,1-1
			c2.1-0.6,4.2-1,6.3-0.2c0.8,0.3,1.7,0.3,2.5,0.6c2.8,0.8,4.3,3.3,3.6,6.2c-0.1,0.2,0,0.5-0.1,1c3.4-1,6.4-3.4,10.3-2.7
			c-0.1,1.1-0.2,2.1-0.3,3.2c-0.1,0.5-0.2,1.1-0.2,1.6c-0.1,4.5-0.2,8.9-0.4,13.4c-0.1,2.2-0.3,4.5-0.5,6.7c0,0.4-0.4,0.7-0.7,1.1
			c-0.9,1.2-2,2.3-2.6,3.7C202.8,117.1,203.8,118.7,206.4,118.8z"/>
		<path class="st4" d="M135.4,51.8c1.1,2.6,2.1,5.3,3.2,7.9c1.6,4,3.5,7.8,6.3,11.1c0.2,0.2,0.2,0.5,0.3,0.7c-2.3-0.6-4.7-1.1-7-1.7
			c-2-0.5-3.9-0.9-6.2-1.5c2,6.7,5.4,12.8,5,20c-1-0.7-2-1.4-3.2-2.3c0,2.2,0,3.9,0,6c-2.2-1.2-4.2-2.7-6.6-2.7
			c0.3,1.1,0.8,2.2,0.9,3.3c0.1,1.1-0.2,2.3-0.4,3.4c-0.2,0-0.3,0.1-0.5,0.1c-0.6-0.6-1.3-1.3-1.8-2c-2.5-3.3-8.2-2.8-11-0.6
			c-2.1,1.6-3.8,3.5-5.2,5.6c-0.2,0.3-0.4,0.5-0.7,0.9c-0.2-1.1-0.3-2.1-0.7-3c-0.6-1.3-1.3-2.7-2.2-3.7c-1.8-2-3.7-3.8-5.7-5.7
			c-0.5-0.5-1.1-0.7-1.5-1c1.5-0.7,2.9-1.3,4.2-2.1c0.6-0.4,1-1.1,1.5-1.6c0.3-0.3,0.6-0.7,0.9-1c3.1,1.3,5.5-0.3,7.7-2
			c2.5-1.8,4.6-4.1,6.9-6.2c0.2-0.3,0.4-0.5,0.6-0.8c1.5-1.9,3.1-3.8,4.6-5.7c0.2-0.3,0.4-0.5,0.6-0.8c0.5-0.6,0.9-1.3,1.4-1.9
			c0.2-0.3,0.4-0.5,0.5-0.8l0,0c0.2-0.3,0.4-0.5,0.5-0.8l0,0c0.2-0.3,0.4-0.5,0.5-0.8c2.1-3.5,4.1-7.1,6.2-10.6
			C134.8,51.8,135.1,51.8,135.4,51.8z"/>
		<path class="st2" d="M211.8,70c0.1-0.1,0.4-0.2,0.4-0.3c0.7-3.3,1.4-6.6,2-9.9c0.4-2.2-0.8-3.9-2.6-5c-0.5-0.3-1-0.7-1.7-1.2
			c2.7-0.3,5,0.2,7.3,1c2.8,1,5.6,2,7.5,4.4c2.1,2.6,4.2,5.1,5.2,8.4c0.5,1.8,0.3,3.4-0.8,4.8c-2.8,3.7-4.7,7.9-6.6,12.1
			c-1.3,3-2.8,5.9-4,9c-1.4,3.6-3.2,7-4.1,10.9c-0.6,3-1.8,5.9-2.6,8.8c-0.9,3.4-1.7,6.7-2.5,10.1c-0.4,1.7-0.9,3.3-1.3,5
			c-0.1,0.4-0.4,0.7-0.6,1.1c-0.2,0-0.4-0.1-0.5-0.1c0-0.9-0.1-1.8,0-2.7c0.1-2,0.4-3.9,0.5-5.9c0.3-6.3,0.5-12.7,0.9-19
			c0.3-4.9,0.7-9.8,1-14.7c0-0.7-0.1-1.5-0.2-2.2c0.1-0.5,0.2-1,0.3-1.5c0.1-0.5,0.2-1,0.3-1.4c0.2-0.3,0.4-0.6,0.5-1
			c0.5-2.5,1.1-5,1.6-7.6c0.2-0.9,0.1-1.9,0.1-2.8C211.8,70.1,211.8,70.1,211.8,70z"/>
		<path class="st2" d="M153.3,118.5c0.5,2.1,1.1,4.1,1.5,6.1c0.1,0.6-0.1,1.4-0.4,1.9c-1.1,1.9-2.1,3.9-3.5,5.6
			c-0.8,1-2,1.7-3.1,2.2c-0.5,0.2-1.4-0.2-1.9-0.6c-2-1.3-2.9-3.5-3.8-5.6c-1.7-4.2-2.5-8.7-3.2-13.2c-0.7-4.1-0.7-8.1-0.3-12.2
			c0-0.2,0-0.4,0-0.4c-1.3-0.7-2.5-1.2-3.7-1.9c-0.3-0.2-0.6-0.8-0.6-1.2c0-3.9,0-7.8,0-12c1.2,0.9,2.2,1.6,3.4,2.5
			c0.6-7.4-2.4-13.5-4.6-20.1c0.7,0,1.2-0.1,1.6,0c4.8,1.4,9.6,2.7,14.4,4.3c2.2,0.7,3.4,0.8,1.2,3.6c-0.9,1.3-1.9,2.5-2.7,3.9
			c-0.5,0.8-1.1,1.9,0.1,2.6c2.8-1.4,5.5-2.7,8.3-4.1c0.1,0.1,0.2,0.2,0.4,0.4c-0.2,0.3-0.3,0.7-0.5,1c-2,2.5-4.3,4.8-5.8,7.5
			c-1.2,2.2-2.6,4.2-4.4,5.9c-0.5,0.5-0.9,1.5-0.9,2.3c-0.3,3.8-0.6,7.6-0.5,11.4c0.1,2.7,0.5,5.6,2.7,7.6c0.7,0.6,1.4,1.1,2.1,1.7
			c1,0.7,1.9,1.3,3.2,0.6C152.5,118.4,153,118.5,153.3,118.5z"/>
		<path class="st2" d="M180.4,85.2c2.9-0.3,4.1,2.1,5.5,4c2.2,3.1,2,6.5,0.9,10c-0.8,2.4-1.5,4.8-2.3,7.1c-1.2,3.2-2.6,6.4-3.6,9.7
			c-0.9,2.7-2.5,4.9-4.3,7c-1.9,2.3-1.9,2.4,0.2,5.1c0.8,1,0.8,1.1-0.2,2c-1.6,1.3-3.3,1.9-5.3,1.7c-2-0.2-3.1-1.5-4-3.1
			c-2.7-4.9-3.8-10.4-4.5-15.9c-0.5-4.3,0.2-8.7,1-13c0.7-3.7,2.1-7,3.9-10.2c1.3-2.5,3.2-4.6,4.8-6.9c0.7-1,1.2-2.2,1.6-3.3
			c0.4-0.9,1-1.2,1.6-0.7c1.5,1.1,2.9,2.3,4.1,3.8C180.4,83.2,180.3,84.3,180.4,85.2z M180.2,87.7c-0.2,0.1-0.3,0.1-0.5,0.2
			c0.7,3.3-1.4,4.8-3.6,6.2c-0.7,0.4-1.4,1-1.7,1.6c-1,1.8-2,3.7-2.7,5.7c-1.4,4-1.6,8.2-1.4,12.4c0.1,1.3,0.4,2.7,0.8,3.9
			c0.6,1.8,2.3,2.3,3.9,1.3c2.3-1.5,3.7-3.7,4.8-6.2c1.9-4.3,3.2-8.9,3.7-13.6c0.4-3.7,0.2-7.4-2.1-10.6
			C181.1,88.3,180.6,88,180.2,87.7z"/>
		<path class="st4" d="M60.9,63.2c0-0.1,0-0.2,0-0.3c-0.1-0.3-0.2-0.5-0.3-0.8c0-0.2,0-0.3-0.1-0.5c-0.1-0.1-0.1-0.2-0.2-0.3
			c-0.1-0.5-0.2-1.1-0.3-1.6c-0.1-0.1-0.1-0.2-0.2-0.3c0-0.2,0-0.3-0.1-0.5c-0.1-0.1-0.1-0.2-0.2-0.3c0-0.2,0-0.3-0.1-0.5
			c-0.1-0.1-0.1-0.2-0.2-0.3c-0.1-0.4-0.2-0.8-0.3-1.2c-0.1-0.2-0.2-0.3-0.3-0.5c0-0.2,0-0.3-0.1-0.5c-0.1-0.1-0.1-0.2-0.2-0.3
			c0-0.2,0-0.3-0.1-0.5c-0.1-0.1-0.1-0.2-0.2-0.3c0-0.2,0-0.3-0.1-0.5c0.1-0.5,0.2-0.9,0.3-1.4C64,56.8,69.5,61,75,65.1
			c0.1,0.1,0.2,0.1,0.3,0.2c1.2,0.8,2.3,1.7,3.5,2.5c0.1,0.1,0.2,0.1,0.3,0.2c0.8,0.6,1.6,1.1,2.4,1.7c0.1,0.1,0.2,0.1,0.3,0.2
			c0.1,0.1,0.2,0.2,0.3,0.3c0.1,0.1,0.1,0.2,0.2,0.3c0,0.4,0,0.7,0,1.1c-0.1,0.2-0.1,0.4-0.2,0.6c-1.3,2.3-1.1,3.3,1,5.3
			c2.6,2.5,5.2,4.9,7.8,7.3c0.3,0.3,0.7,0.4,1,0.8c-2.3,0-4.7,0-7,0c1.3,2.9,2.6,5.6,3.7,8.4c1,2.7,1.6,5.6,2.4,8.4
			c-0.1,0.1-0.2,0.2-0.3,0.2c-0.5-0.5-1.1-0.9-1.6-1.4c-1.3-1.3-2.7-2.5-4.7-2.8c-2.4-0.4-4.6,0.1-6.4,1.7c-1,0.9-1.8,1.9-2.6,2.9
			c-0.2,0.2-0.4,0.3-0.7,0.5c-0.1-0.2-0.1-0.4-0.1-0.5c-0.1-5.2-0.2-10.3-0.3-15.5c0-1.5-0.1-2.9-0.2-4.4c0.5-1.6-0.1-3.9-1.1-4.6
			c-0.1-0.1-0.2-0.2-0.3-0.3c0-1-0.6-1.5-1.5-1.6c0-0.1-0.1-0.2-0.1-0.3c-0.5-0.5-1.1-1.1-1.6-1.6l0,0c-0.5-0.5-0.9-0.9-1.4-1.4
			c-0.1-0.1-0.2-0.2-0.3-0.3c-0.1-0.1-0.2-0.2-0.3-0.3c-0.1-0.1-0.2-0.2-0.3-0.3c-0.1-0.1-0.2-0.2-0.3-0.3c-0.1-0.1-0.2-0.2-0.3-0.2
			c-0.2-0.1-0.4-0.2-0.5-0.3c-0.2-0.2-0.4-0.3-0.5-0.5c-0.1-0.1-0.2-0.2-0.3-0.3l0,0c-0.2-0.1-0.4-0.2-0.5-0.3l0,0
			c-0.1-0.1-0.2-0.2-0.3-0.3l0,0c-0.2-0.1-0.4-0.2-0.5-0.3l0,0c-0.1-0.1-0.2-0.2-0.3-0.3l0,0c-0.2-0.1-0.4-0.2-0.6-0.3l0,0
			c-0.2-0.1-0.4-0.2-0.5-0.3c-0.1-0.1-0.2-0.2-0.3-0.3c0-0.3,0-0.5,0-0.8c-0.1-0.2-0.1-0.4-0.2-0.6c0-0.1,0-0.2,0-0.3
			c-0.1-0.4-0.2-0.7-0.3-1.1c-0.2-0.9-0.4-1.8-0.6-2.7C61.1,63.4,61,63.3,60.9,63.2z"/>
		<path class="st2" d="M128.7,90.7c2.1-0.2,4.8,2.1,4.8,4.2c0,0.3,0,0.5,0,0.8c-0.4,3.1,0.3,5.6,3,7.5c1,0.7,0.5,1.7,0.2,2.6
			c-0.3,0.9-0.9,1.4-1.8,1.3c-5.6-0.6-11.6,6.6-10.9,12.6c0.3,2.8,1.7,4.6,4.4,5.7c1.7,0.7,3.2,0.9,4.8,0.3c1-0.4,2-1.2,2.7-2.1
			c1.1-1.5,1.9-3.1,3.1-4.7c0.3,1.4,0.7,2.7,0.8,4.1c0.1,2.5,0.1,5.1,0.1,7.6c0,2.5-0.4,4.8-1.6,7c-0.7,1.1-0.9,2.4-2.4,2.9
			c-1.9,0.7-3.7,0.7-5.5-0.3c-4.8-2.7-8-6.7-10.3-11.5c-1.3-2.7-1.6-5.5-1.2-8.5c0.4-3.3,1.1-6.5,2.4-9.5c1.7-3.9,3.7-7.6,5.6-11.3
			c1.3-2.6,2.8-5.1,1.9-8.3C128.6,91,128.7,90.8,128.7,90.7z"/>
		<path class="st2" d="M79.3,54.7c0.9,0.5,1.8,1,2.6,1.6c1.9,1.4,4.2,2.1,6.4,2.1c4.3,0.1,6.4,2.8,8.2,6c1.5,2.6,2.5,5.5,2.8,8.6
			c0.3,3-2,6.2-4.9,7.2c-3.9,1.3-7.1-0.2-10.1-2.6c-0.7-0.6-1.4-1.2-1.9-2c-0.3-0.5-0.5-1.4-0.2-1.8c1.1-2.3,0.8-4.7,0.3-7
			c-0.5-2.5-1.2-5-1.9-7.5c-0.4-1.4-1.1-2.8-1.6-4.2C79.1,54.9,79.2,54.8,79.3,54.7z"/>
		<path class="st2" d="M207.7,133.1c1.4,0.6,2.8,1.2,4.2,1.7c0.8,0.3,1.7,0.8,2.5,0.9c3,0.1,5.2,1.5,6.9,4c1,1.4,1.8,2.8,2.3,4.4
			c0.6,1.8-0.1,3.1-1.2,4.3c-3.1,3.4-7,5.4-11.6,5.9c-3.5,0.4-5.8-2.6-5.4-6.2c0.4-3.1,2.2-5.5,3.7-8.2c1.2-2.1,1-3.7-0.6-5.6
			c-0.3-0.3-0.6-0.7-0.9-1C207.6,133.4,207.6,133.3,207.7,133.1z"/>
		<path class="st2" d="M155.6,71.8c0.7-1.1,1.5-2.1,2.1-3.3c0.7-1.3,1.3-2.6,1.7-4c0.2-0.6-0.1-1.4-0.5-2c-1.3-2.3-2.7-4.4-4-6.7
			c-0.2-0.4-0.5-0.8-0.8-1.5c0.5,0.1,0.8,0.1,0.9,0.2c3.6,2,7.8,2.3,11.6,3.6c1.2,0.4,2.3,1,3.2,1.8c1.4,1.2,1.2,2.9,0.5,4.3
			c-1.8,3.8-4.7,6.2-9.2,6.4c-1.7,0.1-3.5,0.2-4.9,1.5c-0.1,0.1-0.3,0.1-0.5,0.1C155.8,72,155.7,71.9,155.6,71.8z"/>
		<path class="st4" d="M192,78.1c4.7-3,9.5-6,14.2-9.1c1.8-1.2,3.5-2.6,5.3-3.9c0.4-0.3,0.9-0.5,1.4-0.7c-0.5,1.6-0.9,3.3-1.4,4.9
			c-0.3,0.3-0.6,0.6-0.8,0.9c-1.2,2-2.4,4-3.5,6.1c-1.5,2.9-2.9,5.9-4.4,8.8c-0.1,0.1-0.2,0.2-0.3,0.3c-0.1,0.1-0.1,0.1-0.2,0.2
			c-0.2,0-0.3,0-0.5,0.1c-0.1,0-0.2,0-0.3,0c-1.4-1.4-2.9-2.9-4.3-4.3c-0.1-0.1-0.2-0.2-0.3-0.3l-0.1,0l-0.1-0.1
			c-0.1-0.1-0.2-0.1-0.3-0.2l0,0c-0.2-0.1-0.4-0.2-0.5-0.3c-0.1,0-0.2,0-0.3-0.1c-0.1-0.1-0.2-0.1-0.3-0.2l0,0
			c-0.2-0.1-0.4-0.2-0.6-0.3l0,0c-0.1,0-0.2-0.1-0.2-0.1c-0.2-0.1-0.4-0.1-0.6-0.2c-0.4-0.1-0.9-0.2-1.3-0.4c-0.2,0-0.4,0-0.5,0
			C192,78.8,192,78.4,192,78.1z"/>
		<path class="st4" d="M44.1,92.2c2.6,0.2,5.2,0.3,7.8,0.5c0.3,0.5,0.6,0.9,0.8,1.5c2.2,5.2,4.3,10.4,6.4,15.5
			c0.2,0.5,0.2,1.1,0.2,1.7c-0.8-1-1.5-2.1-2.4-3c-2.7-2.6-5-5.7-8.4-7.7c-0.4-0.2-0.7-0.8-0.9-1.3C46.4,97.1,45.3,94.7,44.1,92.2z"
			/>
		<path class="st4" d="M176.8,69.7c0.3,1.2,0.5,2.4,0.8,3.5c0.5,2.1,1.3,4.1,2.8,5.5c0.9,0.9,2.3,1.3,3.4,2c0.2,0.5,0.2,1.1,0.5,1.5
			c0.9,1,2,1.9,2.9,3c0.3,0.3,0.4,0.8,0.6,1.2c0.1,0.1,0.1,0.2,0.2,0.3c0,0.4,0,0.9,0.1,1.3c0.1,0.1,0.1,0.2,0.2,0.3
			c0.1,0.6,0.2,1.2,0.2,1.8c-0.1,0.1-0.1,0.2-0.2,0.2c-0.8-0.9-1.6-1.7-2.4-2.6c-0.1-0.1-0.2-0.2-0.2-0.3c-1-1.2-1.9-2.4-3-3.6
			c-1.4-1.5-2.9-3-4.4-4.5c-0.1-0.1-0.2-0.2-0.3-0.3l0,0c-0.2-0.1-0.4-0.2-0.6-0.3c-0.1-0.1-0.2-0.2-0.3-0.2
			c-0.2-0.1-0.4-0.2-0.6-0.3c-0.5-0.2-1.1-0.4-1.6-0.6c-0.5-0.8-0.9-0.8-1.4,0c-0.1,0-0.2,0-0.3,0c-0.1,0-0.2,0-0.3,0
			c-0.1,0.3-0.2,0.6-0.2,0.8c0.5,1.3,0,2.2-1,3.3c-1.9-3.3-5.6-3.1-8.6-4.2c0-0.1,0-0.3,0-0.4c0.6-0.2,1.3-0.4,1.9-0.4
			c4.9-0.1,8.7-2,10.9-6.6C176.4,70,176.7,69.9,176.8,69.7z"/>
		<path class="st4" d="M92.4,168.5c1.6-7.5,3.2-14.8,4.7-22.1c0.1,0,0.1,0,0.2,0c0.5,1.8,1,3.6,1.5,5.3c0.8,2.8,1.7,5.6,2.4,8.4
			c0.2,0.6,0.1,1.5-0.2,2.1C98.9,165.3,95.8,167,92.4,168.5z"/>
		<path class="st4" d="M39.5,193.8c-4.8,2.9-9.7,5.8-14.5,8.6c-0.1,0-0.1-0.1-0.2-0.1c3.2-4.7,6.4-9.5,9.5-14.2
			C36,190,37.7,191.9,39.5,193.8z"/>
		<path class="st4" d="M138,113.4c0.2,1.2,0.5,2.4,0.6,3.6c0,0.5-0.3,1.1-0.6,1.6c-0.9,1.5-1.9,3-2.8,4.5c-0.9,1.6-2.2,2.4-4.2,2.2
			c-0.9-0.1-1.2-0.3-1.2-1.2c0-2.8,1.2-5.2,3-7.3C134.3,115.2,135.8,113.8,138,113.4z"/>
		<path class="st4" d="M154.2,98.3c-0.1,1.4-0.2,2.6-0.4,3.8c-0.6,4-0.9,8-0.8,12c0,0.8,0.2,1.5,0.2,2.2c0,1-1.1,2-2.1,1.8
			c-0.2,0-0.5-0.4-0.6-0.7c-0.2-0.8-0.5-1.7-0.5-2.6c0-3.5,0.2-7.1,0.3-10.6c0-0.6,0.1-1.1,0.3-1.7C151,101,152.2,99.6,154.2,98.3z"
			/>
		<path class="st4" d="M170.9,59.2c1.8-2.1,3.6-4.2,5.4-6.3c0,4.1,0,8.2,0,12.2c-1.7-1.7-3.5-3.4-5.2-5.1
			C171,59.9,171,59.5,170.9,59.2z"/>
		<path class="st4" d="M120.1,130.8c0.6,0.9,1.2,1.8,1.8,2.8c0.1,0.2,0.1,0.5,0,0.7c-0.9,2.4-4,3.8-6.2,2.8
			c-0.5-0.2-0.9-0.7-1.2-1.2c-0.1-0.1,0.5-0.7,0.9-1C117,133.6,118.5,132.3,120.1,130.8z"/>
		<path class="st5" d="M222.9,103.3c2.1,0,4.3,0,6.2,0c-2.7,2-5.6,4.2-8.4,6.3c0.1-0.6,0.1-1.3,0.3-1.9
			C221.6,106.2,222.3,104.7,222.9,103.3z"/>
		<path class="st3" d="M210.2,74c-0.8,1.2-1.7,2.4-2.4,3.6c-1.3,2.3-2.5,4.6-3.7,7c-0.4,0.1-0.8,0.2-1.3,0.3
			c1.5-2.9,2.9-5.9,4.4-8.8c1.1-2.1,2.3-4,3.5-6.1c0.2-0.3,0.5-0.6,0.8-0.9c0.1,0.3,0.2,0.6,0.4,0.8c0,0.1,0,0.1,0,0.2
			C211.3,71.5,210.7,72.7,210.2,74z"/>
		<path class="st2" d="M219,113.5c-2.3,1.9-4.7,3.7-7.1,5.6c-0.7-1.7,0-3.1,1.4-3.7c1.3-0.6,2.6-1.3,3.9-2c0.5-0.2,1-0.3,1.5-0.5
			C218.8,113.2,218.9,113.4,219,113.5z"/>
		<path class="st5" d="M28.4,90.6c-1.5-1.7-3-3.4-4.5-5.1c0-0.1,0.1-0.2,0.1-0.2c2,0.9,4,1.7,6,2.6C29.5,88.8,28.9,89.7,28.4,90.6z"
			/>
		<path class="st5" d="M76.3,167.8c0.1,0.4,0.1,0.7,0.2,1.1c0,0.4,0.1,0.7,0.1,1.1c-0.6,0.7,0.2,1,0.5,1.5c0.3,0.5,0.6,1,0.9,1.5
			c-0.8-0.1-1.6-0.2-2.5-0.2c0.1-1.6,0.3-3.2,0.5-4.8C75.9,167.8,76.2,167.8,76.3,167.8z"/>
		<path class="st5" d="M117.3,160.8c0.8,2.6,1.6,5.2,2.4,7.8c0.3,1.2,0.5,2.5,0.5,3.7c0,0.7-0.5,1.4-0.7,2.1c0.8-4.4-1-8.3-2-12.4
			C117.4,161.5,117.3,161.1,117.3,160.8z"/>
		<path class="st5" d="M147.3,136.4c-0.8-0.1-1,0.4-1.1,1.1c-0.2,1.2-0.7,2.3-1,3.5c0.3-1.8,0.6-3.6,0.9-5.6
			C146.6,135.7,147,136,147.3,136.4z"/>
		<path class="st5" d="M72.8,78.4c1.1,0.7,1.6,3,1.1,4.6c-0.2-0.8-0.4-1.7-0.6-2.5C73.2,79.8,73,79.1,72.8,78.4z"/>
		<path class="st5" d="M116.4,179.1c0.2,0.2,0.4,0.4,0.6,0.6c-0.7,0.4-1.3,0.9-2,1.3C115.5,180.4,116,179.8,116.4,179.1z"/>
		<path class="st5" d="M129.5,145.6c0.2,1.4-0.2,2.7-1.1,3.8C128.7,148.1,129.1,146.8,129.5,145.6z"/>
		<path class="st5" d="M130.6,142.9c-0.4,0.8-0.7,1.6-1.1,2.4c0.2-0.8,0.3-1.6,0.5-2.4C130,142.9,130.4,142.9,130.6,142.9z"/>
		<path class="st5" d="M69.3,74.6c0.5,0.5,1.1,1.1,1.6,1.6C70.4,75.7,69.8,75.1,69.3,74.6z"/>
		<path class="st5" d="M116.4,156.1c0,0.7,0,1.3,0,2c-0.3-0.5-0.6-1-0.8-1.6C115.5,156,115.7,155.9,116.4,156.1z"/>
		<path class="st5" d="M192,78.1c0,0.4,0,0.7,0,1.1c-0.4-0.1-0.9-0.2-1.3-0.3C191.1,78.6,191.6,78.3,192,78.1z"/>
		<path class="st5" d="M71,76.5c1,0.1,1.5,0.6,1.5,1.6C72,77.5,71.5,77,71,76.5z"/>
		<path class="st5" d="M67.9,73.2c0.5,0.5,0.9,0.9,1.4,1.4C68.8,74.1,68.4,73.7,67.9,73.2z"/>
		<path class="st5" d="M173.9,77.8c0.5-0.8,0.9-0.8,1.4,0C174.8,77.8,174.3,77.8,173.9,77.8z"/>
		<path class="st5" d="M192.6,79.1c0.4,0.1,0.9,0.2,1.3,0.4C193.5,79.4,193,79.3,192.6,79.1z"/>
		<path class="st5" d="M144.6,142.6c-0.2,0.4-0.4,0.7-0.5,1.1C144.2,143.3,144.4,142.9,144.6,142.6z"/>
		<path class="st5" d="M122.1,156.5c-0.3,0.1-0.5,0.1-0.8,0.2C121.6,156.6,121.8,156.5,122.1,156.5z"/>
		<path class="st5" d="M144.8,141.8c-0.1,0.3-0.2,0.5-0.3,0.8C144.7,142.3,144.8,142,144.8,141.8z"/>
		<path class="st5" d="M139.7,147.3c-0.4,0-0.9,0-1.3,0C138.8,147.2,139.3,147.3,139.7,147.3z"/>
		<path class="st5" d="M120,156.7c-0.1,0.1-0.2,0.3-0.3,0.4c-0.1-0.1-0.2-0.3-0.3-0.4C119.6,156.7,119.8,156.7,120,156.7z"/>
		<path class="st5" d="M118.9,175.7c-0.1,0.2-0.2,0.4-0.3,0.5C118.7,176,118.8,175.8,118.9,175.7z"/>
		<path class="st5" d="M116.9,159.7c0.1,0.3,0.2,0.6,0.3,0.9C117.1,160.3,117,160,116.9,159.7z"/>
		<path class="st5" d="M128.1,149.9c-0.1,0.3-0.2,0.5-0.3,0.8C127.9,150.4,128,150.2,128.1,149.9z"/>
		<path class="st5" d="M116.5,158.3c0.1,0.3,0.1,0.5,0.2,0.8C116.6,158.9,116.6,158.6,116.5,158.3z"/>
		<path class="st5" d="M62.5,69.2c0.2,0.1,0.4,0.2,0.5,0.3C62.8,69.4,62.7,69.3,62.5,69.2z"/>
		<path class="st5" d="M127.5,151.2c-0.1,0.2-0.2,0.4-0.3,0.6C127.3,151.6,127.4,151.4,127.5,151.2z"/>
		<path class="st5" d="M143.8,144.2c-0.1,0.2-0.2,0.4-0.3,0.5C143.6,144.6,143.7,144.4,143.8,144.2z"/>
		<path class="st5" d="M63,69.5c0.2,0.1,0.4,0.2,0.6,0.3C63.4,69.6,63.2,69.5,63,69.5z"/>
		<path class="st5" d="M63.8,70c0.2,0.1,0.4,0.2,0.5,0.3C64.2,70.2,64,70.1,63.8,70z"/>
		<path class="st5" d="M117.2,178.1c-0.1,0.2-0.2,0.4-0.3,0.5C117,178.4,117.1,178.3,117.2,178.1z"/>
		<path class="st5" d="M118,177c-0.1,0.2-0.2,0.4-0.3,0.6C117.9,177.4,117.9,177.2,118,177z"/>
		<path class="st5" d="M118.6,176.2c-0.1,0.2-0.2,0.4-0.3,0.5C118.4,176.5,118.5,176.4,118.6,176.2z"/>
		<path class="st5" d="M64.7,70.5c0.2,0.1,0.4,0.2,0.5,0.3C65,70.7,64.8,70.6,64.7,70.5z"/>
		<path class="st5" d="M119.4,174.5c-0.1,0.2-0.2,0.4-0.3,0.6C119.2,174.9,119.3,174.7,119.4,174.5z"/>
		<path class="st5" d="M66,71.6c0.2,0.1,0.4,0.2,0.5,0.3C66.4,71.8,66.2,71.7,66,71.6z"/>
		<path class="st5" d="M82,72.2c0.1-0.2,0.1-0.4,0.2-0.6C82.2,71.8,82.1,72,82,72.2z"/>
		<path class="st5" d="M176.8,78.4c0.2,0.1,0.4,0.2,0.6,0.3C177.2,78.6,177,78.5,176.8,78.4z"/>
		<path class="st5" d="M177.6,78.9c0.2,0.1,0.4,0.2,0.6,0.3C178,79.1,177.8,79,177.6,78.9z"/>
		<path class="st5" d="M141.9,146.4c-0.2,0.1-0.4,0.2-0.5,0.3C141.5,146.6,141.7,146.5,141.9,146.4z"/>
		<path class="st5" d="M141.4,146.6c-0.2,0.1-0.4,0.2-0.6,0.3C141,146.8,141.2,146.7,141.4,146.6z"/>
		<path class="st5" d="M194.7,79.8c0.2,0.1,0.4,0.2,0.6,0.3C195.1,79.9,194.9,79.8,194.7,79.8z"/>
		<path class="st5" d="M195.8,80.3c0.2,0.1,0.4,0.2,0.5,0.3C196.2,80.5,196,80.4,195.8,80.3z"/>
		<path class="st5" d="M118.6,156.7c-0.2-0.1-0.4-0.1-0.5-0.2C118.2,156.5,118.4,156.6,118.6,156.7z"/>
		<path class="st5" d="M123.5,155.8c-0.2,0.1-0.4,0.2-0.6,0.3C123.1,156,123.3,155.9,123.5,155.8z"/>
		<path class="st5" d="M124,155.6c-0.2,0.1-0.4,0.2-0.6,0.3C123.6,155.8,123.8,155.7,124,155.6z"/>
		<path class="st5" d="M127.8,150.7c-0.1,0.2-0.2,0.4-0.3,0.6C127.6,151.1,127.7,150.9,127.8,150.7z"/>
		<path class="st5" d="M133.8,145.3c-0.1-0.1-0.2-0.1-0.3-0.2C133.6,145.2,133.7,145.2,133.8,145.3z"/>
		<path class="st5" d="M127,152.3c-0.1,0.1-0.2,0.2-0.3,0.3C126.8,152.5,126.9,152.4,127,152.3z"/>
		<path class="st5" d="M126.7,152.6c-0.1,0.1-0.1,0.2-0.2,0.3C126.6,152.8,126.6,152.7,126.7,152.6z"/>
		<path class="st5" d="M126.4,153.1c-0.1,0.1-0.2,0.2-0.3,0.3C126.3,153.3,126.3,153.2,126.4,153.1z"/>
		<path class="st5" d="M124.3,155.3c-0.1,0.1-0.2,0.2-0.3,0.3C124.1,155.5,124.2,155.4,124.3,155.3z"/>
		<path class="st5" d="M185.8,87.6c0.1,0.1,0.2,0.2,0.2,0.3C186,87.8,185.9,87.7,185.8,87.6z"/>
		<path class="st5" d="M188.2,86.8c-0.1-0.1-0.1-0.2-0.2-0.3C188,86.6,188.1,86.7,188.2,86.8z"/>
		<path class="st5" d="M188.4,88.4c-0.1-0.1-0.1-0.2-0.2-0.3C188.3,88.2,188.4,88.3,188.4,88.4z"/>
		<path class="st5" d="M117.3,156.4c-0.1-0.1-0.2-0.1-0.3-0.2C117.1,156.3,117.2,156.3,117.3,156.4z"/>
		<path class="st5" d="M122.9,156.1c-0.1,0-0.2,0.1-0.2,0.1C122.7,156.1,122.8,156.1,122.9,156.1z"/>
		<path class="st5" d="M201.5,85.4c0.1,0,0.2,0,0.3,0c-0.1,0.1-0.1,0.1-0.2,0.2C201.6,85.6,201.5,85.5,201.5,85.4z"/>
		<path class="st5" d="M202.3,85.4c0.1-0.1,0.1-0.1,0.2-0.2C202.5,85.2,202.4,85.3,202.3,85.4z"/>
		<path class="st5" d="M196.9,80.8c0.1,0.1,0.2,0.2,0.3,0.3C197.1,81,197,80.9,196.9,80.8z"/>
		<path class="st5" d="M196.3,80.6c0.1,0.1,0.2,0.1,0.3,0.2C196.5,80.7,196.4,80.6,196.3,80.6z"/>
		<path class="st5" d="M116.7,159.4c0.1,0.1,0.1,0.2,0.2,0.3C116.9,159.6,116.8,159.5,116.7,159.4z"/>
		<path class="st5" d="M195.3,80c0.1,0.1,0.2,0.1,0.3,0.2C195.5,80.1,195.4,80.1,195.3,80z"/>
		<path class="st5" d="M137.6,147.2c-0.1-0.1-0.2-0.1-0.3-0.2C137.4,147,137.5,147.1,137.6,147.2z"/>
		<path class="st5" d="M194.5,79.7c0.1,0,0.2,0.1,0.2,0.1C194.6,79.8,194.5,79.7,194.5,79.7z"/>
		<path class="st5" d="M178.2,79.2c0.1,0.1,0.2,0.2,0.3,0.3C178.4,79.4,178.3,79.3,178.2,79.2z"/>
		<path class="st5" d="M173.3,77.8c0.1,0,0.2,0,0.3,0C173.5,77.8,173.4,77.8,173.3,77.8z"/>
		<path class="st5" d="M67.4,72.7c0.1,0.1,0.2,0.2,0.3,0.3C67.6,72.9,67.5,72.8,67.4,72.7z"/>
		<path class="st5" d="M66.8,72.1c0.1,0.1,0.2,0.2,0.3,0.3C67,72.3,66.9,72.2,66.8,72.1z"/>
		<path class="st5" d="M131.9,143.9c-0.1-0.1-0.2-0.2-0.3-0.3C131.7,143.8,131.8,143.9,131.9,143.9z"/>
		<path class="st5" d="M65.2,70.8c0.1,0.1,0.2,0.2,0.3,0.3C65.4,71,65.3,70.9,65.2,70.8z"/>
		<path class="st5" d="M131.6,143.7c-0.1-0.1-0.2-0.2-0.3-0.3C131.4,143.5,131.5,143.6,131.6,143.7z"/>
		<path class="st5" d="M82.2,70.5c-0.1-0.1-0.1-0.2-0.2-0.3c0.1,0,0.1,0,0.2,0C82.2,70.3,82.2,70.4,82.2,70.5z"/>
		<path class="st5" d="M64.4,70.3c0.1,0.1,0.2,0.2,0.3,0.3C64.6,70.4,64.5,70.4,64.4,70.3z"/>
		<path class="st5" d="M150.9,139.9c-0.1-0.1-0.2-0.2-0.3-0.3C150.7,139.7,150.8,139.8,150.9,139.9z"/>
		<path class="st5" d="M117.8,177.5c-0.1,0.1-0.2,0.2-0.3,0.3C117.6,177.7,117.7,177.6,117.8,177.5z"/>
		<path class="st5" d="M150.6,139.6c-0.1-0.1-0.2-0.2-0.3-0.3C150.4,139.4,150.5,139.5,150.6,139.6z"/>
		<path class="st5" d="M150.3,139.3c-0.1-0.1-0.2-0.2-0.3-0.3C150.1,139.2,150.2,139.2,150.3,139.3z"/>
		<path class="st5" d="M63.5,69.7c0.1,0.1,0.2,0.2,0.3,0.3C63.7,69.9,63.6,69.8,63.5,69.7z"/>
		<path class="st5" d="M148.7,137.7c-0.1-0.1-0.2-0.2-0.3-0.3C148.5,137.5,148.6,137.6,148.7,137.7z"/>
		<path class="st5" d="M148.1,137.2c-0.1-0.1-0.2-0.2-0.2-0.3C147.9,137,148,137.1,148.1,137.2z"/>
		<path class="st5" d="M127.2,151.8c-0.1,0.1-0.1,0.2-0.2,0.3C127.1,152,127.2,151.9,127.2,151.8z"/>
		<path class="st5" d="M185.8,164.8c0.1-0.1,0.3-0.2,0.4-0.2c1.8,0.9,3.6,1.9,5.3,2.8c-0.5-0.2-1-0.4-1.5-0.6
			C188.6,166.2,187.2,165.5,185.8,164.8z"/>
		<path class="st5" d="M124,177c0.8-0.7,2.5-0.7,3.3,0C126.2,177,125.1,177,124,177z"/>
		<path class="st5" d="M170.6,159.1c0.9,0.2,1.8,0.5,2.8,0.7C172.3,160,171.3,160,170.6,159.1z"/>
		<path class="st5" d="M182.5,163.4c0.6-0.5,1-0.3,1.6,0.6C183.6,163.8,183.1,163.6,182.5,163.4z"/>
		<path class="st5" d="M167.9,159.1c0.5-0.8,1.1-0.8,1.6,0C169,159.1,168.5,159.1,167.9,159.1z"/>
		<path class="st5" d="M174.7,160.2c0.5,0.2,0.9,0.3,1.4,0.5C175.6,160.5,175.1,160.4,174.7,160.2z"/>
		<path class="st5" d="M180.6,162.6c0.6-0.9,0.8-0.2,1.1,0.3C181.4,162.8,181,162.7,180.6,162.6z"/>
		<path class="st5" d="M179.3,161.8c0.7-0.5,0.9-0.1,1.1,0.6C180,162.2,179.6,162,179.3,161.8z"/>
		<path class="st5" d="M128.1,177c0.5,0.1,0.9,0.3,1.4,0.4C129,177.3,128.5,177.2,128.1,177z"/>
		<path class="st5" d="M184.7,164.3c0.6-0.4,1-0.2,1.1,0.5C185.4,164.6,185.1,164.5,184.7,164.3z"/>
		<path class="st5" d="M176.3,160.8c0.7-0.5,0.9-0.1,1.1,0.5C177,161.1,176.7,160.9,176.3,160.8z"/>
		<path class="st5" d="M215,181.3c0.2-0.2,0.4-0.4,0.6-0.6c0.1,0.3,0.2,0.5,0.3,0.8C215.6,181.5,215.3,181.4,215,181.3z"/>
		<path class="st5" d="M178.5,161.8c0.1-0.1,0.2-0.3,0.3-0.4c0.1,0.1,0.2,0.3,0.3,0.4C178.8,161.8,178.7,161.8,178.5,161.8z"/>
		<path class="st5" d="M177.7,161.5c0.1-0.1,0.2-0.2,0.2-0.4c0.1,0.2,0.2,0.3,0.3,0.5C178,161.6,177.8,161.5,177.7,161.5z"/>
		<path class="st5" d="M216,182.3c-0.1-0.3-0.3-0.4-0.3-0.5c0-0.1,0.2-0.2,0.3-0.2c0.1,0,0.2,0.2,0.2,0.2
			C216.3,181.9,216.2,182,216,182.3z"/>
		<path class="st5" d="M204.2,164.8c-0.1-0.1-0.1-0.2-0.2-0.3C204,164.6,204.1,164.7,204.2,164.8z"/>
		<path class="st5" d="M191.7,167.5c0.1,0.1,0.2,0.1,0.3,0.2C191.9,167.7,191.8,167.6,191.7,167.5z"/>
		<path class="st5" d="M192.3,167.8c0.1,0.1,0.2,0.1,0.3,0.2C192.5,167.9,192.4,167.9,192.3,167.8z"/>
		<path class="st5" d="M194.7,169.2c0.1,0.1,0.2,0.1,0.3,0.2C194.9,169.3,194.8,169.2,194.7,169.2z"/>
		<path class="st5" d="M195.3,169.4c0.1,0.1,0.2,0.1,0.3,0.2C195.5,169.6,195.4,169.5,195.3,169.4z"/>
		<path class="st5" d="M195.8,169.7c0.1,0.1,0.2,0.1,0.3,0.2C196,169.8,195.9,169.8,195.8,169.7z"/>
		<path class="st5" d="M199.6,171.9c0.1,0.1,0.2,0.1,0.3,0.2C199.8,172,199.7,171.9,199.6,171.9z"/>
		<path class="st5" d="M200.9,172.7c0.1,0.1,0.2,0.1,0.3,0.2C201.1,172.8,201,172.7,200.9,172.7z"/>
		<path class="st5" d="M201.5,172.9c0.1,0.1,0.2,0.1,0.3,0.2C201.7,173.1,201.6,173,201.5,172.9z"/>
		<path class="st5" d="M202.9,173.8c0.1,0.1,0.2,0.1,0.3,0.2C203,173.9,202.9,173.8,202.9,173.8z"/>
		<path class="st5" d="M204.2,174.6c0.1,0.1,0.2,0.1,0.3,0.2C204.4,174.7,204.3,174.6,204.2,174.6z"/>
		<path class="st5" d="M204.7,174.9c0.1,0.1,0.2,0.1,0.3,0.2C204.9,175,204.8,174.9,204.7,174.9z"/>
		<path class="st5" d="M205.5,175.4c0.1,0.1,0.2,0.1,0.3,0.2C205.7,175.5,205.6,175.5,205.5,175.4z"/>
		<path class="st5" d="M206.9,176.2c0.1,0.1,0.2,0.1,0.3,0.2C207.1,176.3,207,176.3,206.9,176.2z"/>
		<path class="st5" d="M209.1,177.6c0.1,0.1,0.2,0.1,0.3,0.2C209.3,177.7,209.2,177.6,209.1,177.6z"/>
		<path class="st5" d="M130.5,177.8c0.1,0.1,0.2,0.1,0.3,0.2C130.7,178,130.6,177.9,130.5,177.8z"/>
		<path class="st5" d="M132.1,178.6c0.1,0.1,0.2,0.1,0.3,0.2C132.3,178.8,132.2,178.7,132.1,178.6z"/>
		<path class="st5" d="M132.7,178.9c0.1,0.1,0.2,0.1,0.3,0.2C132.9,179,132.8,179,132.7,178.9z"/>
		<path class="st5" d="M211.3,178.9c0.1,0.1,0.2,0.1,0.3,0.2C211.4,179.1,211.3,179,211.3,178.9z"/>
		<path class="st5" d="M133.2,179.2c0.1,0.1,0.2,0.1,0.3,0.2C133.4,179.3,133.3,179.3,133.2,179.2z"/>
		<path class="st5" d="M214.2,180.8c0.1,0.1,0.2,0.1,0.3,0.2C214.4,181,214.3,180.9,214.2,180.8z"/>
		<path class="st5" d="M135.4,51.8c-0.3,0-0.6,0-0.8,0c0.1-0.3,0.3-0.6,0.4-0.9c0.1,0,0.2,0,0.3,0.1
			C135.3,51.3,135.3,51.5,135.4,51.8z"/>
		<path class="st5" d="M127.3,64c-0.2,0.3-0.4,0.5-0.5,0.8C126.9,64.6,127.1,64.3,127.3,64z"/>
		<path class="st5" d="M127.8,63.2c-0.2,0.3-0.4,0.5-0.5,0.8C127.5,63.7,127.6,63.5,127.8,63.2z"/>
		<path class="st5" d="M125.4,66.7c-0.2,0.3-0.4,0.5-0.6,0.8C125,67.3,125.2,67,125.4,66.7z"/>
		<path class="st5" d="M120.2,73.3c-0.2,0.3-0.4,0.5-0.6,0.8C119.8,73.8,120,73.5,120.2,73.3z"/>
		<path class="st5" d="M128.3,62.4c-0.2,0.3-0.4,0.5-0.5,0.8C128,62.9,128.2,62.7,128.3,62.4z"/>
		<path class="st5" d="M58.4,52.6c-0.1,0.5-0.2,0.9-0.3,1.4c-0.2-0.5-0.3-1-0.5-1.5c0.1-0.1,0.3-0.2,0.4-0.4
			C58.2,52.3,58.3,52.5,58.4,52.6z"/>
		<path class="st5" d="M61.7,66.2c0.1,0.4,0.2,0.7,0.3,1.1C61.9,66.9,61.8,66.5,61.7,66.2z"/>
		<path class="st5" d="M60.7,62.1c0.1,0.3,0.2,0.5,0.3,0.8C60.8,62.7,60.7,62.4,60.7,62.1z"/>
		<path class="st5" d="M62,67.5c0.1,0.2,0.1,0.4,0.2,0.6C62.1,67.9,62.1,67.7,62,67.5z"/>
		<path class="st5" d="M58.8,56.2c0.1,0.2,0.2,0.3,0.3,0.5C58.9,56.5,58.9,56.3,58.8,56.2z"/>
		<path class="st5" d="M57.7,52.5c-0.1-0.1-0.1-0.2-0.2-0.4c0.2,0,0.4,0,0.6,0C57.9,52.3,57.8,52.4,57.7,52.5z"/>
		<path class="st5" d="M58.2,54.5c0.1,0.1,0.1,0.2,0.2,0.3C58.4,54.7,58.3,54.6,58.2,54.5z"/>
		<path class="st5" d="M60.9,63.2c0.1,0.1,0.1,0.2,0.2,0.3C61.1,63.4,61,63.3,60.9,63.2z"/>
		<path class="st5" d="M75.2,65.4c-0.1-0.1-0.2-0.1-0.3-0.2C75.1,65.2,75.2,65.3,75.2,65.4z"/>
		<path class="st5" d="M60.4,61.3c0.1,0.1,0.1,0.2,0.2,0.3C60.5,61.5,60.5,61.4,60.4,61.3z"/>
		<path class="st5" d="M79,68.1c-0.1-0.1-0.2-0.1-0.3-0.2C78.9,67.9,79,68,79,68.1z"/>
		<path class="st5" d="M59.9,59.4c0.1,0.1,0.1,0.2,0.2,0.3C60,59.6,59.9,59.5,59.9,59.4z"/>
		<path class="st5" d="M59.6,58.6c0.1,0.1,0.1,0.2,0.2,0.3C59.7,58.8,59.7,58.7,59.6,58.6z"/>
		<path class="st5" d="M59.3,57.8c0.1,0.1,0.1,0.2,0.2,0.3C59.4,58,59.4,57.9,59.3,57.8z"/>
		<path class="st5" d="M58.5,55.3c0.1,0.1,0.1,0.2,0.2,0.3C58.6,55.5,58.6,55.4,58.5,55.3z"/>
		<path class="st5" d="M81.8,70c-0.1-0.1-0.2-0.1-0.3-0.2C81.6,69.8,81.7,69.9,81.8,70z"/>
		<path class="st1" d="M47.7,108.5c0.8,1.8,1.6,3.7,2.3,5.5c1.3,3.4,2.7,6.8,3.9,10.3c0.8,2.4,1.5,4.8,2.3,7.2
			c0.9,3.1,1.8,6.1,2.7,9.2c0.9,3.4,1,6.9,0.3,10.3c-0.5,2.3-1.4,4.5-2.2,6.8c-1.5,4.3-3.6,8.4-6.4,12c-1.6,2-3.4,3.9-6,4.7
			c-4,1.1-6.2-0.1-8.6-3.2c-2.3-3-3.1-6.6-3.5-10.3c-0.5-4.6-0.4-9.2,0.3-13.7c0.8-5.4,2-10.6,4.3-15.6c1.8-3.9,3.7-7.8,6.3-11.2
			c1.7-2.2,2.9-4.5,3.5-7.2c0.2-1.1,0.1-2.2,0.2-3.3c0-0.4,0.2-0.9,0.3-1.3C47.5,108.5,47.6,108.5,47.7,108.5z M47.1,172.1
			L47.1,172.1c0.1-0.1,0.2-0.2,0.3-0.3c0.8-0.8,1.6-1.6,2.4-2.4c0.1-0.1,0.2-0.2,0.3-0.3c0,0,0,0,0,0c0.1-0.1,0.1-0.2,0.2-0.3
			c0.3-0.4,0.6-0.9,0.9-1.3c0.1-0.1,0.2-0.2,0.3-0.3c2.5-3.4,4.1-7.3,5.4-11.3c0.9-3,1.8-6,2.1-9.1c0.4-3.4-0.7-6.7-1.7-10
			c-1.1-3.6-2.2-7.3-3.4-10.9c-0.4-1.3-1.1-2.6-1.8-4.2c-0.5,0.8-0.7,1.3-1,1.8c-1.4,2.1-2.8,4.1-4.2,6.1c-2.5,4-4.4,8.3-6,12.8
			c-0.6,1.8-0.9,3.6-1.4,5.5c0,0.4,0,0.9-0.1,1.3c-0.4,2.6-1.1,5.2-1.3,7.9c-0.2,2.9,0,5.8,0.3,8.7c0.2,2.3,0.9,4.5,1.5,6.8
			c0.3,1.3,1,1.5,2.3,1.1c0.4,0,0.8,0,1.1,0c0.5-0.1,0.9-0.2,1.4-0.2c0.7-0.4,1.4-0.8,2.2-1.2C46.9,172.3,47,172.2,47.1,172.1z"/>
		<path class="st1" d="M106.8,128c0-2.1-0.2-3.9,0.1-5.6c0.5-2.8,1.2-5.7,2.1-8.4c0.9-2.9,2.4-5.4,4.4-7.6c0.5-0.6,1.2-1.1,1.9-1.3
			c0.8-0.1,1.8,0,2.3,0.5c0.4,0.4,0.6,1.5,0.4,2.2c-0.3,1.2-0.9,2.2-1.3,3.3c-1.4,3.3-2.6,6.6-4.1,9.8
			C111.2,123.5,109.8,126.2,106.8,128z"/>
		<path class="st1" d="M85.8,149.1c-0.5,1.2-1.5,1.5-2.6,0.4c-0.9-0.9-1.9-2-2.5-3.2c-2-3.8-3.9-7.7-4.8-11.9c-0.7-3-1.3-6-1.8-9
			c-0.4-2.4-0.3-4.9-0.6-7.3c-0.1-0.7-0.5-1.4-0.9-2c-0.3-0.5-0.6-0.8-1.2-1.5c0.6-0.1,1-0.3,1.4-0.2c3.4,0.6,5.6,2.8,7,5.9
			c0.2,0.4-0.1,1.1-0.2,1.7c-0.5,4.1,0.2,8.1,0.8,12.1c0.8,4.7,2.3,9.3,4.3,13.7C85,148.3,85.4,148.7,85.8,149.1z"/>
		<path class="st5" d="M85.8,149.1c-0.4-0.5-0.8-0.9-1-1.4c-2-4.4-3.5-9-4.3-13.7c-0.6-4-1.3-8-0.8-12.1c0.3,0.2,0.5,0.4,0.8,0.5
			c0.3,0.9,0.6,1.8,0.8,2.7c1.4,6.3,2.7,12.6,4.1,18.9c0.2,0.9,0.7,1.6,1,2.5C86.1,147.5,86,148.3,85.8,149.1z"/>
		<path class="st1" d="M86.3,146.7c-0.3-0.8-0.8-1.6-1-2.5c-1.4-6.3-2.7-12.6-4.1-18.9c-0.2-0.9-0.5-1.8-0.8-2.7
			c0.4,0.7,1.1,1.3,1.3,2c1.1,4.4,2,8.9,3,13.3c0.5,2.2,1,4.4,1.4,6.5C86.3,145.1,86.3,145.9,86.3,146.7z"/>
		<path class="st1" d="M210.2,74c0.6-1.3,1.1-2.5,1.7-3.8c0,0.9,0,1.9-0.1,2.8c-0.5,2.5-1,5.1-1.6,7.6c-0.1,0.3-0.3,0.6-0.5,1
			c-0.1-0.5-0.3-1-0.2-1.5c0.3-1.6,0.7-3.1,1-4.7C210.5,75,210.3,74.5,210.2,74z"/>
		<path class="st1" d="M180.2,87.7c0.4,0.3,0.9,0.6,1.2,1c2.4,3.2,2.6,6.9,2.1,10.6c-0.6,4.7-1.8,9.2-3.7,13.6
			c-1.1,2.4-2.5,4.6-4.8,6.2c-1.5,1-3.3,0.5-3.9-1.3c-0.4-1.3-0.7-2.6-0.8-3.9c-0.2-4.2,0-8.4,1.4-12.4c0.7-2,1.7-3.8,2.7-5.7
			c0.4-0.7,1.1-1.2,1.7-1.6c2.2-1.5,4.3-2.9,3.6-6.2C179.9,87.8,180.1,87.8,180.2,87.7z M176.5,116.7c4.1-4.9,5.2-10.9,6.2-17
			c-0.9,0.5-1.8,1-2.3,1.8C177.3,106.1,176.3,111.3,176.5,116.7z"/>
		<path class="st4" d="M51.1,167.6c-0.3,0.4-0.6,0.9-0.9,1.3c-0.1,0.1-0.1,0.2-0.2,0.3c0,0,0,0,0,0c-0.1,0.1-0.2,0.2-0.3,0.3
			c-0.8,0.8-1.6,1.6-2.4,2.4c-0.1,0.1-0.2,0.2-0.3,0.3c0,0,0,0,0,0c-0.1,0.1-0.2,0.1-0.3,0.2c-0.7,0.4-1.4,0.8-2.2,1.2
			c-1.1,0.1-0.4-0.7-0.6-1.1c0-0.1,0-0.2,0-0.3c2.1-3.6,4-7.2,5.5-11.1c0.8-2,1.4-4.1,0.8-6.2c-0.8-2.7-3.1-3.9-5.4-4.9
			c-1.8-0.8-3.7-1.3-5.5-1.9c0.4-1.8,0.8-3.7,1.4-5.5c1.5-4.5,3.4-8.8,6-12.8c1.3-2.1,2.8-4.1,4.2-6.1c0.3-0.5,0.5-0.9,1-1.8
			c0.7,1.6,1.4,2.9,1.8,4.2c1.2,3.6,2.3,7.2,3.4,10.9c1,3.3,2,6.6,1.7,10c-0.3,3.1-1.2,6.1-2.1,9.1c-1.2,4-2.9,7.8-5.4,11.3
			C51.3,167.4,51.2,167.5,51.1,167.6z"/>
		<path class="st3" d="M42.2,173.7c0.6-1.2,1.1-2.3,1.7-3.5c1.7-3.6,3.6-7.1,5.1-10.7c1.4-3.8,1-5.4-2.6-7.6
			c-1.8-1.1-4.1-1.5-6.1-2.3c-0.2-0.1-0.5-0.2-0.7-0.3c0-0.4,0-0.9,0.1-1.3c1.8,0.6,3.7,1.2,5.5,1.9c2.4,1,4.6,2.2,5.4,4.9
			c0.6,2.1-0.1,4.2-0.8,6.2c-1.5,3.9-3.4,7.6-5.5,11.1c0,0.1,0,0.2,0,0.3c-0.3,0.5-0.5,0.9-0.8,1.4
			C42.9,173.7,42.5,173.7,42.2,173.7z"/>
		<path class="st5" d="M43.3,173.7c0.3-0.5,0.5-0.9,0.8-1.4c0.1,0.4-0.5,1.2,0.6,1.1C44.2,173.6,43.7,173.7,43.3,173.7z"/>
		<path class="st5" d="M51.1,167.6c0.1-0.1,0.2-0.2,0.3-0.3C51.3,167.4,51.2,167.5,51.1,167.6z"/>
		<path class="st5" d="M50.1,169.2c0.1-0.1,0.1-0.2,0.2-0.3C50.2,169,50.1,169.1,50.1,169.2z"/>
		<path class="st5" d="M49.8,169.4c0.1-0.1,0.2-0.2,0.3-0.3C50,169.3,49.9,169.3,49.8,169.4z"/>
		<path class="st5" d="M47.1,172.2c0.1-0.1,0.2-0.2,0.3-0.3C47.3,172,47.2,172.1,47.1,172.2z"/>
		<path class="st5" d="M46.8,172.3c0.1-0.1,0.2-0.1,0.3-0.2C47,172.2,46.9,172.3,46.8,172.3z"/>
		<path class="st4" d="M176.5,116.7c-0.2-5.5,0.9-10.6,3.9-15.2c0.5-0.8,1.4-1.3,2.3-1.8C181.6,105.8,180.5,111.8,176.5,116.7z"/>
	</g>
</g>
</svg>
