<?xml version="1.0" encoding="utf-8"?>
<!-- Generator: Adobe Illustrator 27.5.0, SVG Export Plug-In . SVG Version: 6.00 Build 0)  -->
<svg version="1.1" id="affiliation" xmlns="http://www.w3.org/2000/svg" xmlns:xlink="http://www.w3.org/1999/xlink" x="0px"
	 y="0px" viewBox="0 0 256 256" style="enable-background:new 0 0 256 256;" xml:space="preserve">
<style type="text/css">
	.st0{fill:#FFFFFF;}
	.st1{fill:#666666;}
	.st2{fill:#CCCCCC;}
	.st3{fill:#DEAA87;}
	.st4{fill:#C79A7D;}
	.st5{fill:#999999;}
	.st6{fill:#FFD42A;fill-opacity:0.9949;stroke:#000000;stroke-width:1.5107;stroke-linecap:round;stroke-miterlimit:15.1181;}
	.st7{fill:#FFD42A;stroke:#000000;stroke-width:1.5107;stroke-linecap:round;stroke-miterlimit:15.1181;}
	.st8{fill:#552200;}
	.st9{fill:#784421;}
</style>
<rect id="black" width="256" height="256"/>
<path id="background" class="st0" d="M206.9,256H49.1C22.1,256,0,233.9,0,206.9V49.1C0,22.1,22.1,0,49.1,0H207
	c27,0,49.1,22.1,49.1,49.1V207C256,233.9,233.9,256,206.9,256z"/>
<g id="logo">
	<g id="layer1" transform="translate(0,-19.71665)">
		<path id="rect4682" class="st1" d="M181.2,134.8c0,0,14.7-19.4,23.4-5.4c15.7,25.4-18.1,80.3-58.8,99.1l-10.3-11.1L181.2,134.8z
			 M76.6,134.8c0,0-14.7-19.4-23.4-5.4c-15.7,25.4,18.1,80.3,58.8,99.1l10.3-11.1L76.6,134.8z"/>
		<path id="rect4585" class="st2" d="M128.9,71.5c19.3-0.2,39.4-2.1,55.4,16.5c8.7,10.1,7.9,24.9,7.1,39.4
			c-1.2,21.7-8.7,42.4-20,60.2c-13.5,21.3-24.3,32.2-42.6,42v0l0,0c-18.3-9.8-29.1-20.6-42.6-42c-11.2-17.8-18.8-38.5-20-60.2
			c-0.8-14.5-1.6-29.3,7.1-39.4C89.5,69.3,109.6,71.2,128.9,71.5z"/>
		<g id="g4674">
			<path id="rect4653" class="st3" d="M26.3,216.8c0,0,0.1,0.1,0.1,0.1c0,0,0,0,0.1,0c0.1,0,0.1,0.1,0.2,0.1
				c0.2,0.2,0.5,0.3,0.8,0.5h0c1,0.6,2.1,1.2,2.7,1.6c0.3,0.2,0.6,0.3,0.6,0.3c0.6,0.3,0.4,1-0.1,1.7l0,0c-0.7,1.3-1.9,2.8-0.6,3.6
				c0.2,0.1,0.9,0.3,1.7,0.5c1.8,0.5,4.1,1.3,3.4,2.6c-0.1,0.1-1.2,1-2.1,2.1c-0.9,1.1-1.6,2.2-0.8,2.7c0.6,0.3,1.1,0.5,1.7,0.6
				c1.1,0.2,2.2,0.1,3.4,0.8c0.4,0.3,0.9,0.5,1.4,0.8c1.2-0.3,2.4-0.6,3.6-1c8.5-2.2,17-4.3,25.5-6.3c10.5-2.4,21-4.5,31.5-6.2h0
				c9.6-1.5,19-2.8,28-2.8l0,0c21.4,0,42.9,1.4,64.4,3.7l26.8,3.5c-0.7-1.4-4.7-1.4-5.3-2.2c-2.6-3.5,10.5-0.8,7.9-4.3
				c-1.3-1.7-7.8-2.4-8.7-5c-0.8-2.5,10.1,0.9,8.9-2.7c-0.8-2.5-5.1-3.2-5.8-5.2c-0.2-0.7,1.1-1.3,2.5-1.7c-8-1.1-16-2.1-24-3.2
				c-22.1-2.4-44.5-3.9-66.9-3.9c-10.9,0-21.3,1.4-31.3,3c-11.1,1.8-22,4-32.8,6.5h0c-8.8,2-17.5,4.1-26.2,6.4
				c-2.6,0.7-5.2,1.4-7.9,2.1c0,0,0,0,0,0c-0.7,0.2-1.4,0.4-2.2,0.6c0,0,0,0,0,0c-0.2,0.1-0.4,0.1-0.6,0.2c0,0,0,0,0,0
				c0,0-0.1,0-0.2,0c0,0,0,0,0,0L26.3,216.8z"/>
			<path id="path4670" class="st4" d="M31.4,225.2c0.2,0.1,0.3,0.1,0.5,0.2c1.3,0.4,3,0.6,3.4,2c-0.3,1.1-1.3,1.8-2.1,2.7
				c-0.6,0.6-1.1,1.3-1,2.3c0.5,0.5,1.2,0.7,1.9,0.9c0.8,0.2,1.7,0.2,2.4,0.5c1.5,0.2,2.5,1.8,4,0.8c0.7-0.2,1.3-0.4,2-0.5
				c8.5-2.2,17-4.3,25.5-6.3c10.5-2.4,21-4.5,31.5-6.2c9.6-1.5,19-2.8,28-2.8h0c21.4,0,42.9,1.4,64.4,3.6c7.7,1,15.3,1.9,23,2.9
				c1.1-0.1,2.5,0.6,3.4,0.2c-1.5-1.1-4-0.7-5.1-2.3c1.3-1.4,3.7-0.9,5.4-1.3c1.1-0.1,3.4-0.2,3-1.8c-1.2-1.8-3.7-2.2-5.5-3.1
				c-1-0.5-9.8-1.3-23.2-2.5c-17.6-1.2-40.2-2.2-65.4-2c-3.1,0-6.1,0.2-9.2,0.4c-6.6,0.5-13.3,1.3-19.9,2.1
				c-11.6,1.5-22.9,3.3-32.3,4.8c-11.6,1.9-23.5,3.9-26.3,4.4l0,0c-0.5,0.1-1.4,0.2-1.8,0.3c-2.1,0.3-4.3-0.2-6.3,0.5l0,0
				c-0.1,0-0.2,0.1-0.3,0.1C31.4,225.1,31.4,225.2,31.4,225.2L31.4,225.2z"/>
		</g>
		<path id="rect854" class="st5" d="M101.7,77.3H156c17.3,0,31.4,14.1,31.4,31.4v0c0,17.3-14.1,31.4-31.4,31.4h-54.3
			c-17.3,0-31.4-14.1-31.4-31.4v0C70.3,91.4,84.4,77.3,101.7,77.3z"/>
		<g id="g4617" transform="translate(-1.5117873)">
			<path id="path4603" class="st6" d="M182.9,108.6c0,14.5-11.8,26.3-26.3,26.3c-14.5,0-26.3-11.7-26.3-26.2
				c0-14.5,11.7-26.3,26.2-26.3C171.1,82.3,182.9,94.1,182.9,108.6"/>
			<path id="path4605" d="M168.9,108.6c0,6.7-5.5,12.2-12.2,12.2c-6.7,0-12.2-5.5-12.2-12.2c0-6.7,5.4-12.2,12.2-12.2
				S168.9,101.9,168.9,108.6"/>
			<path id="path4607" class="st0" d="M155.1,103.1c0,2.6-2.1,4.7-4.7,4.7c-2.6,0-4.7-2.1-4.7-4.7c0-2.6,2.1-4.7,4.7-4.7
				C153,98.3,155.1,100.4,155.1,103.1"/>
		</g>
		<g id="g4625" transform="translate(0.13410183)">
			<path id="path817" class="st7" d="M128.7,108.6c0,14.5-11.8,26.3-26.3,26.3c-14.5,0-26.3-11.7-26.3-26.2s11.7-26.3,26.2-26.3
				C116.9,82.3,128.7,94.1,128.7,108.6"/>
			<path id="path4594" d="M114.7,108.6c0,6.7-5.5,12.2-12.2,12.2c-6.7,0-12.2-5.5-12.2-12.2c0-6.7,5.4-12.2,12.2-12.2
				C109.2,96.4,114.6,101.9,114.7,108.6"/>
			<path id="path4596" class="st0" d="M100.9,103.1c0,2.6-2.1,4.7-4.7,4.7c-2.6,0-4.7-2.1-4.7-4.7c0-2.6,2.1-4.7,4.7-4.7
				C98.8,98.3,100.9,100.4,100.9,103.1"/>
		</g>
		<path id="rect825" d="M135.2,74.7c18.2-12.8,46.4-3,58.8-14.1c-0.3,11.8-8.1,20.7-14,23.9c-14.9,8.1-42.8-4.5-51.1,24.1
			c-8.3-28.7-36.2-16.1-51.1-24.1c-5.9-3.2-13.7-12-14-23.9c12.4,11.2,40.6,1.4,58.8,14.1c3,2.1,5.1,6.3,6.3,11.5
			C130,80.9,132.1,76.8,135.2,74.7z"/>
		<path id="rect856" class="st8" d="M128.9,127.9c4.2,0.3,8.1,3.3,8.7,5.2c0.7,2.2-0.6,6.8-3.2,11.2c-2.6,4.3-5.5,6.3-5.5,6.3v0l0,0
			c0,0-2.9-2-5.5-6.3c-2.6-4.3-3.9-9-3.2-11.2C120.7,131.2,124.7,128.2,128.9,127.9L128.9,127.9z"/>
		<path id="rect4643" class="st9" d="M153.3,193.1c1.7,0,3.1,1.4,3.1,3.1v7.1c0,1.7-1.4,3.1-3.1,3.1c-1.7,0-3.1-1.4-3.1-3.1v-7.1
			C150.2,194.5,151.6,193.1,153.3,193.1z M147,191.8c1.7,0,3.1,1.4,3.1,3.1v9.8c0,1.7-1.4,3.1-3.1,3.1s-3.1-1.4-3.1-3.1v-9.8
			C143.9,193.2,145.3,191.8,147,191.8z M140.7,193.1c1.7,0,3.1,1.4,3.1,3.1v7.1c0,1.7-1.4,3.1-3.1,3.1c-1.7,0-3.1-1.4-3.1-3.1v-7.1
			C137.6,194.5,139,193.1,140.7,193.1z M104.4,193.1c-1.7,0-3.1,1.4-3.1,3.1v7.1c0,1.7,1.4,3.1,3.1,3.1s3.1-1.4,3.1-3.1v-7.1
			C107.6,194.5,106.2,193.1,104.4,193.1z M110.7,191.8c-1.7,0-3.1,1.4-3.1,3.1v9.8c0,1.7,1.4,3.1,3.1,3.1c1.7,0,3.1-1.4,3.1-3.1
			v-9.8C113.9,193.2,112.5,191.8,110.7,191.8z M117,193.1c-1.7,0-3.1,1.4-3.1,3.1v7.1c0,1.7,1.4,3.1,3.1,3.1c1.7,0,3.1-1.4,3.1-3.1
			v-7.1C120.1,194.5,118.7,193.1,117,193.1z"/>
	</g>
</g>
</svg>
