<?xml version="1.0" encoding="utf-8"?>
<!-- Generator: Adobe Illustrator 26.3.1, SVG Export Plug-In . SVG Version: 6.00 Build 0)  -->
<svg version="1.1" id="affiliation" xmlns="http://www.w3.org/2000/svg" xmlns:xlink="http://www.w3.org/1999/xlink" x="0px"
	 y="0px" viewBox="0 0 256 256" style="enable-background:new 0 0 256 256;" xml:space="preserve">
<style type="text/css">
	.st0{display:none;fill:#FFFFFF;}
	.st1{fill:#FFFFFF;}
	.st2{fill:#CB0101;}
</style>
<rect id="black" width="256" height="256"/>
<path id="background" class="st1" d="M206.9,256H49.1C22.1,256,0,233.9,0,206.9V49.1C0,22.1,22.1,0,49.1,0h157.9
	c27,0,49.1,22.1,49.1,49.1v157.9C256,233.9,233.9,256,206.9,256z"/>
<g id="logo">
	<g id="mjmEOR.tif">
		<g>
			<path class="st2" d="M47,128.1c0-22.1,0-44.1,0-66.2c0-4.4,2.5-6.9,6.4-6.1c1.2,0.2,2.4,1.1,3.3,1.9c2.9,2.6,5.6,5.4,8.4,8.1
				c3.4,3.3,7.9,3.6,11.3,0.4c28.8-26.3,86.5-26.7,117.2,14.9c25.1,34,18.8,82.7-14.6,108.7c-26.8,20.7-56.2,23.4-87,10
				c-5.4-2.3-10.2-6.2-14.9-9.8c-4.4-3.4-8.6-3.5-12.6,0.5c-2.5,2.5-5.1,5-7.6,7.5c-1.9,2-4.1,2.8-6.7,1.7c-2.6-1.1-3.2-3.3-3.2-5.9
				C47,171.9,47,150,47,128.1z M175.5,128c0-13.6,0-27.2,0-40.8c0-1.6-0.3-3-1.9-3.6c-1.6-0.7-3-0.1-4.2,1.1c-1.6,1.7-3.3,3.3-5,4.9
				c-2.3,2.1-4.8,2.1-7.1,0.2c-12.4-10.3-26.7-13.2-42.1-10.1c-28.9,5.8-46,34.8-37.4,63c10.1,33,52.9,45.7,79.3,23.5
				c2.4-2,5.2-1.9,7.5,0.3c1.5,1.5,3.1,2.9,4.5,4.4c1.2,1.3,2.5,2.2,4.3,1.5c1.9-0.8,2.1-2.4,2.1-4.2
				C175.4,154.7,175.5,141.4,175.5,128z"/>
			<path class="st2" d="M126.7,149.2c-11.4,0-20.3-9.4-20.3-21.3c0-11.9,9-21.3,20.4-21.3c11.3,0,20.5,9.6,20.4,21.4
				C147.2,139.7,138,149.2,126.7,149.2z"/>
		</g>
	</g>
</g>
</svg>
