<?xml version="1.0" encoding="utf-8"?>
<!-- Generator: Adobe Illustrator 26.3.1, SVG Export Plug-In . SVG Version: 6.00 Build 0)  -->
<svg version="1.1" id="affiliation" xmlns="http://www.w3.org/2000/svg" xmlns:xlink="http://www.w3.org/1999/xlink" x="0px"
	 y="0px" viewBox="0 0 256 256" style="enable-background:new 0 0 256 256;" xml:space="preserve">
<style type="text/css">
	.st0{display:none;fill:#FFFFFF;}
	.st1{fill:#FFFFFF;}
	.st2{fill:#3E5AFF;}
</style>
<rect id="black" width="256" height="256"/>
<path id="background" class="st1" d="M206.9,256H49.1C22.1,256,0,233.9,0,206.9V49.1C0,22.1,22.1,0,49.1,0h157.9
	c27,0,49.1,22.1,49.1,49.1v157.9C256,233.9,233.9,256,206.9,256z"/>
<g id="logo_00000029004921855638880850000003084163963237851569_">
	<g>
		<path class="st2" d="M166.2,178.1c-10.9,7.3-23.8,10.9-36.9,10c-18.9,0.7-37.4-4.9-52.8-15.9l17-29.5c11.2,7,24,11.2,37.2,12.1
			c3.1,0,6.5-0.5,6.5-3.6c0-3.1-14.3-7-19-8.5c-4.6-1.3-9.1-2.9-13.4-4.7c-13.4-4.4-22-17.3-20.9-31.3c0-23.7,20.9-38.2,48-38.2
			c17.1-0.6,33.9,4,48.3,13.2l-13.9,27.9c-10-6.2-21.4-9.7-33.1-10.2c-4.5,0-6.3,1.3-6.3,3.8c0,2.4,5.6,4.2,12.3,6.1
			c5.5,1.4,10.8,3.1,16.1,5.2c6.1,2.2,11.7,5.5,16.6,9.8c13.4,14.8,12.4,37.6-2.4,51c-1,0.9-2.1,1.8-3.3,2.6L166.2,178.1z"/>
		<path class="st2" d="M126.1,26.7h12v31.2h-12V26.7z"/>
		<path class="st2" d="M150.4,58.9l8.4-30l11.6,3.1l-8.4,30.1L150.4,58.9z"/>
		<path class="st2" d="M172.9,66.1l16.4-26.5l10.2,6.3l-16.4,26.5L172.9,66.1z"/>
		<path class="st2" d="M94.9,34l11.5-3.2l8.4,30L103.2,64L94.9,34z"/>
		<path class="st2" d="M66.3,50.8l9.7-7l18,25.6l-9.7,6.9L66.3,50.8z"/>
		<path class="st2" d="M122.1,198.1h12v31.2h-12V198.1z"/>
		<path class="st2" d="M87.5,223.5l8.3-30.1l11.6,3.2L99,226.7L87.5,223.5z"/>
		<path class="st2" d="M56.5,207.7l16.4-26.5l10.2,6.3l-16.4,26.5L56.5,207.7z"/>
		<path class="st2" d="M146,198.1l11.3-4.2l10.7,29.5l-11.3,4L146,198.1z"/>
		<path class="st2" d="M167.9,188.4l9.8-7l18,25.5l-9.7,7L167.9,188.4z"/>
	</g>
</g>
</svg>
