<?xml version="1.0" encoding="utf-8"?>
<!-- Generator: Adobe Illustrator 26.3.1, SVG Export Plug-In . SVG Version: 6.00 Build 0)  -->
<svg version="1.1" id="affiliation" xmlns="http://www.w3.org/2000/svg" xmlns:xlink="http://www.w3.org/1999/xlink" x="0px"
	 y="0px" viewBox="0 0 256 256" style="enable-background:new 0 0 256 256;" xml:space="preserve">
<style type="text/css">
	.st0{fill:#FFFFFF;}
	.st1{display:none;fill:#FFFFFF;}
	.st2{fill:none;stroke:#000000;stroke-width:1.9417;stroke-linecap:round;stroke-linejoin:round;stroke-miterlimit:4.1827;}
</style>
<rect id="black" width="256" height="256"/>
<circle
   id="background"
   class="st0"
   cx="128"
   cy="128"
   r="128" />
<g id="logo_00000169557994799884142440000017718490564280908447_">
	<g>
		<path d="M101,72c0,1.1-0.9,2-2,2c-1.1,0-2-0.9-2-2c0-1.1,0.9-2,2-2C100.1,70,101,70.9,101,72"/>
		<path d="M133.1,76.8c-0.8,0.2-1.7,0.6-2.6,0.6c-0.3,0-2.4-0.3-2.1,0.3c0.7,1.8,2.7,2.1,4.5,2.6C132.9,80.2,133,77.9,133.1,76.8"/>
		<path d="M144.7,83.7L144.7,83.7c-1-0.5-2.3-0.9-3.1-1.7c-0.2-0.2-1-1.6-1.2-0.7c-0.4,2,0.2,4.7,1.8,6.1
			C142.2,87.4,143.9,84.9,144.7,83.7"/>
		<path d="M156.5,89.4c0,0.9-0.7,1.6-1.6,1.6s-1.6-0.7-1.6-1.6c0-0.9,0.7-1.6,1.6-1.6S156.5,88.5,156.5,89.4"/>
		<path d="M166.7,76.9c0,1.1-0.9,2-2,2c-1.1,0-2-0.9-2-2c0-1.1,0.9-2,2-2C165.8,74.9,166.7,75.8,166.7,76.9"/>
		<path d="M161.5,82.9c0,1-0.8,1.8-1.8,1.8c-1,0-1.8-0.8-1.8-1.8c0-1,0.8-1.8,1.8-1.8C160.7,81.1,161.5,81.9,161.5,82.9"/>
		<path d="M180,66.9c-1.7,0.6-3.6-0.3-4.2-2.1c-0.6-1.7,0.3-3.6,2.1-4.2l0.9-0.2l2.1,6.1C180.9,66.5,180,66.9,180,66.9z"/>
		<path d="M182.7,126.4c0.3,2.9-1.1,5.5-3,5.6c-1.9,0.2-3.7-2.1-4-5c-0.3-2.9,1.1-5.4,3-5.6C180.7,121.3,182.4,123.5,182.7,126.4"/>
		<path class="st2" d="M156.2,56.3l16.3-27C69.9-6.4-14.9,117.5,59.6,199.1l15.1-18C21.1,109,92.5,31.5,156.2,56.3z M160.5,63.5
			C100.9,42.8,61.4,89.1,63,131.2c1.6,42.1,29.5,44.8,26.4,68 M86.3,183.8c-42.4,27.6,36,69.4,99.7,38.2 M175.1,49.6
			c-38.4,30.6-55.3,89.1-98,121.6 M175.1,49.6l9.4,27.6 M177.3,55.9c-38.6,32.8-56.5,95-96.9,119.6 M182,69.7
			c-39.6,29.8-55.4,82.9-97.8,110.7 M184.5,77.1c-35.6,23.3-54.2,84.2-97.2,108.6 M160,31.9l-11.3,21.9 M154.4,24.6l-12,27.9
			 M142.5,30l-6.8,21.7 M135.9,23l-7.4,28.6 M125.8,30.4l-3.3,21.7 M117.2,24.9l-1.9,28.5 M108.2,33.2l0.7,22 M98.9,30.1l3.7,27.5
			 M91.8,40.1l4.9,20.4 M82.7,38.3l8.6,25.5 M77.2,49l8.2,19 M67.8,49.5L80.8,72 M64.2,60.6L76,76.8 M55.2,62.6l16.6,19.2
			 M53.8,74.4l13.9,13.3 M44.9,77.9L64.7,93 M45.5,89.3l16.2,9.9 M37.4,94.3l22,11 M40.1,105.8l17.7,5.6 M32.6,112.7l24,4.9
			 M37.5,123.2l18.4,2 M31.3,131.2l24.6,0.5 M38,140.5l18.6-1.7 M33.6,150.4l24.1-5.1 M42.1,157.7l17.6-5.2 M39.5,168.5l22.2-10.3
			 M48.4,173.4l15.8-9.6 M48.1,184.4L67.4,170 M56.8,189.6l14.1-13.9 M156.2,56.3c-6-1.1-9.8-0.6-12.3,3.1 M74.2,167.2
			c-2.3,5.5-3.1,9,0.4,13.9 M78.8,84c10.6,15.8,32.8,3.3,57.7,12 M77,86.3c1.5,30.3,31.9,26.7,42.5,36 M132.7,101.8
			c-14.7-6.8-44.6,3.8-55.1-10.3 M129.1,107.4c-10.8-4.3-34.7,0.9-46.4-4.2 M125.1,113.8c-7-2.4-24.8,0-29.1-1.2 M117.8,72.3
			l-1.1-12.2 M118.8,84.1l-0.7-7.5 M112,67.1l5.6,4 M118.3,77.7c-0.7,0.3-1.6,0.5-2.4,0.5c-3.2,0-5.8-2.6-5.8-5.8
			c0-2,1.1-3.8,2.7-4.9 M118.8,84.1c-10.4,1.8-21.4-10.3-10.9-21.4 M106.5,79.5c-7,2.2-13.3-3.8-14.9-7.9 M89.9,81.3l-7.1-1.9
			 M89.9,81.3c5.8,6.8,20.8,6.3,23.9,2.6 M112.5,84.9c0.2,2.2,1.2,5.1,4,7.6 M88.6,81c-1.3,2-1.1,8-0.3,10.2 M127.2,72.2l-5.1,20.7
			 M141.2,77.1L126,93.4 M133.6,72.9c-0.5,4-1.3,8.6-0.2,12.5 M133,64.6c7.9-1.6,8.8,10,0.5,9.4 M129.7,67.4
			c-9.1-7.8,8.7-14.6,7.6-2.1 M127.2,64c-7,0.2-5,9.1-0.3,9.3 M146.4,73.6c-1.9-7.8,5.8-10.3,9.6-4.8 M146.3,69.5
			c-6-2.8-10.4,3.4-5.8,8.4 M171.5,61.2l-1.2,10.4l7.4,1.5 M182.9,78.2c0,0,15.2,45.9,19.7,57.6c4.3,11.4,7.7,17-3,17.6
			c-8.5-2.1-12.5,2.5-12.5,2.5s-5.9-4,0-9.5 M194.8,167.5c4.9-3.9,4.7-4.7,2.8-7.3c-2-2.6-0.9-4.1,1.9-6.8 M178.9,170.3
			c5.4-1.1,11.6-3.3,15.9-2.9 M147.2,118.5c1.8,8.2-1.9,20.1-16.8,24.4 M152.1,111.6c7.4,20.8-8.8,39.2-26.7,38.2 M129.2,177
			c0,2.5-2,4.5-4.5,4.5c-2.5,0-4.5-2-4.5-4.5c0-2.5,2-4.5,4.5-4.5C127.2,172.6,129.2,174.6,129.2,177z M135.8,177
			c0,6.1-5,11.1-11.1,11.1s-11.1-5-11.1-11.1c0-6.1,5-11.1,11.1-11.1S135.8,170.9,135.8,177z M96.2,217.4
			c-12.5-3.9-24.2-18.1-7.4-27.6 M93.5,181.9c2.7,3.9,6.4,17.7-13.1,19.4 M99.3,177.6c9,14.3-2.5,29.4-17.2,29.3 M104.3,173.3
			c8.9,15.8,4.8,33.9-16.5,39.8 M96.2,217.4c26.5-13.1,18.9-40.8,13-48.7 M121.8,187.8c0.6,9.1-4.1,29.3-26.1,36.9 M104.4,220.5
			c10.2,1.9,32.2,9,39.2,12.3 M110.7,215.6c11.3,2.7,39.7,11.6,49.5,15.1 M131.8,185.6c34.8,21.8,78.8,8.5,60.1-8.7
			c1.6-2.3,2.6-3.5,5.5-3.6c0.8-2.7-0.3-4.8-2.5-5.8 M167.5,197.8c-4,12.6-4,24.2-2.2,31.7 M164.4,214.1c9,2.5,19.4,5.7,21.7,7.8
			 M178.3,225.3c-1.6-1.3-8-3.2-14.1-4.7 M115.4,162.1c0.3,2.1,0.8,4.4,2,6.6 M120.8,155.7c0.1,4.1,1.1,7.7,2.2,10.4 M121.7,162.4
			c3.6-4.7,12-2.8,8.9,5.3 M127.2,153.5c9.9,0.3,13.7,12.4,7.6,18.8 M129.2,149.7l-0.5,3.9 M153.7,118.4c6.8-6,8.2-12.8,7.6-19
			 M166.4,93.2c3,13.1,0.9,24.1-12.9,33.3 M176,83.7c0.8,6.9-1.5,12.1-8.4,17.2 M182.4,78.6c1.6,12.6-3.1,25.3-15.4,30 M164,116.3
			c9.4-4.3,22-6.4,30.8-2.7 M160.3,129.2c0,0,8.1,3.7,19.3,1.8 M171.4,123.7c-0.4,3.4,0,5.8,0.9,7.8 M94.9,112.2
			c-18.6,8-27.2,38.4,0.8,41.7 M104.1,115.6c-32.5,10.3-19.1,39.5-1.2,30 M117.4,120.8c-31.1,2.4-28.9,20.3-21.4,20.3
			c7.4,0,7-11-2.6-11 M99.9,125c7.1,2.9,8.4,9.1,7.7,14.4 M108,122.2c2.9,2.3,5.5,6.5,5.7,8.7 M89,109c-25.6,18.1-13.6,30.1-21.1,37
			c6.1,0,7-1,10.4-4.4 M84.4,112.5c-4.2-3.2-9.7-7.4-10.5-12.9c-3.1,8.5,1.6,15.6,4,19.3 M73.1,145.5c4.7,9.7,10.9,11.7,16.6,14.7
			 M74.6,148.3c0,3.3,0.8,9.7,0,12.5c5.6,0.1,7.4-2.7,8.7-4 M63.4,137c2.4-1.8,7-5,8.2-4.8 M63,132.7c0.8-1.9,6.9-9.6,12.7-10.9
			 M63.8,117.8l5,8 M72.5,123.1l-2.8-6l5.5-2.8 M64.6,113.5c2.9-2.2,6.8-3.8,8.7-4 M159.7,129.9c0,0,7.1-8.5,24.3-7.5 M181.1,124
			c1-0.3,2.9-0.9,2.9-1.5l-5.2,0 M179.7,167.3c-0.4,0.4-1.2,3-0.9,3.6"/>
	</g>
</g>
</svg>
