<?xml version="1.0" encoding="utf-8"?>
<!-- Generator: Adobe Illustrator 26.3.1, SVG Export Plug-In . SVG Version: 6.00 Build 0)  -->
<svg version="1.1" id="affiliation" xmlns="http://www.w3.org/2000/svg" xmlns:xlink="http://www.w3.org/1999/xlink" x="0px"
	 y="0px" viewBox="0 0 256 256" style="enable-background:new 0 0 256 256;" xml:space="preserve">
<style type="text/css">
	.st0{fill:#FFFFFF;}
	.st1{display:none;fill:#FFFFFF;}
	.st2{fill:#0B4DC7;}
</style>
<rect id="black" width="256" height="256"/>
<circle id="background_x5F_circle" class="st0" cx="128" cy="128" r="128"/>
<path id="background_x5F_rectangle" class="st1" d="M206.9,256H49.1C22.1,256,0,233.9,0,206.9V49.1C0,22.1,22.1,0,49.1,0H207
	c27,0,49.1,22.1,49.1,49.1V207C256,233.9,233.9,256,206.9,256z"/>
<g id="logo_00000169557994799884142440000017718490564280908447_">
	<g>
		<polygon class="st2" points="84.6,41.8 84.6,209.1 55.1,179.6 55.1,71.2 		"/>
		<polygon class="st2" points="146.4,235.6 172.9,209.1 84.6,209.1 111.1,235.6 		"/>
		<polygon class="st2" points="129.8,69.5 158.1,43.1 200.9,43.1 200.9,181.2 172.9,209.1 172.9,69.5 		"/>
	</g>
</g>
</svg>
