<?xml version="1.0" encoding="utf-8"?>
<!-- Generator: Adobe Illustrator 26.3.1, SVG Export Plug-In . SVG Version: 6.00 Build 0)  -->
<svg version="1.1" id="affiliation" xmlns="http://www.w3.org/2000/svg" xmlns:xlink="http://www.w3.org/1999/xlink" x="0px"
	 y="0px" viewBox="0 0 256 256" style="enable-background:new 0 0 256 256;" xml:space="preserve">
<style type="text/css">
	.st0{fill:#FFFFFF;}
	.st1{display:none;fill:#FFFFFF;}
	.st2{fill:#B00C36;}
	.st3{fill:#F89C0E;}
	.st4{fill:#E25617;}
</style>
<rect id="black" width="256" height="256"/>
<circle id="background_x5F_circle" class="st0" cx="128" cy="128" r="128"/>
<path id="background_x5F_rectangle" class="st1" d="M206.9,256H49.1C22.1,256,0,233.9,0,206.9V49.1C0,22.1,22.1,0,49.1,0H207
	c27,0,49.1,22.1,49.1,49.1V207C256,233.9,233.9,256,206.9,256z"/>
<g id="logo_00000169557994799884142440000017718490564280908447_">
	<g>
		<path class="st2" d="M46,210h143.5V66.5H46C46,66.5,46,210,46,210z"/>
		<path class="st3" d="M87,169h123V46H87C87,46,87,169,87,169z"/>
		<path class="st4" d="M87,169h102.5V66.5H87C87,66.5,87,169,87,169z"/>
		<path class="st0" d="M128.7,82.4H124c-0.5,0-1,0.4-1,0.9v13.2h-13.6V83.3c0-0.5-0.4-0.9-1-0.9h-4.7c-0.5,0-1,0.4-1,0.9v33.6
			c0,0.5,0.4,1,1,1h4.7c0.5,0,1-0.4,1-1v-14.6H123v14.6c0,0.5,0.4,1,1,1h4.7c0.5,0,1-0.4,1-1V83.3C129.6,82.8,129.2,82.4,128.7,82.4
			L128.7,82.4z M147.8,82c-3.5,0-6.9,0.2-9.4,0.6c-1,0.1-1.5,0.5-1.5,1.4v32.8c0,0.5,0.4,1,1,1h4.8c0.5,0,0.9-0.4,0.9-1v-12.5
			c1.1,0,3,0.2,4.2,0.2c7.4,0,13.7-2.7,13.7-11.2v-0.4C161.5,84.6,155.1,82,147.8,82L147.8,82z M154.9,93.5c0,3.8-2,5.7-7.2,5.7
			c-0.8,0-3.5-0.1-4.2-0.1V87.7c0.9-0.1,3.2-0.2,4.2-0.2c4.8,0,7.2,1.5,7.2,5.5V93.5z M172.7,82.4H168c-0.5,0-1,0.4-1,0.9v33.6
			c0,0.5,0.4,1,1,1h4.7c0.5,0,1-0.4,1-1V83.3C173.7,82.8,173.2,82.4,172.7,82.4"/>
	</g>
</g>
</svg>
