<?xml version="1.0" encoding="utf-8"?>
<!-- Generator: Adobe Illustrator 26.3.1, SVG Export Plug-In . SVG Version: 6.00 Build 0)  -->
<svg version="1.1" id="affiliation" xmlns="http://www.w3.org/2000/svg" xmlns:xlink="http://www.w3.org/1999/xlink" x="0px"
	 y="0px" viewBox="0 0 256 256" style="enable-background:new 0 0 256 256;" xml:space="preserve">
<style type="text/css">
	.st0{fill:#FFFFFF;}
	.st1{display:none;fill:#FFFFFF;}
	.st2{display:none;}
	.st3{display:inline;}
	.st4{fill:#0064CB;}
	.st5{display:inline;fill:#0064CB;}
</style>
<rect id="black" width="256" height="256"/>
<circle
   id="background"
   class="st0"
   cx="128"
   cy="128"
   r="128" />
<g id="logo">
	<g class="st2">
		<g class="st3">
			<g>
				<rect x="78.74" y="72.97" class="st4" width="3.78" height="24.54"/>
				<rect x="71.18" y="72.97" class="st4" width="3.78" height="24.54"/>
				<rect x="63.62" y="72.97" class="st4" width="3.78" height="24.54"/>
				<rect x="56.06" y="72.97" class="st4" width="3.78" height="24.54"/>
				<rect x="86.3" y="72.97" class="st4" width="3.78" height="24.54"/>
				<rect x="93.86" y="72.97" class="st4" width="3.78" height="24.54"/>
				<rect x="101.42" y="72.97" class="st4" width="3.78" height="24.54"/>
				<rect x="52.19" y="101.29" class="st4" width="56.88" height="3.78"/>
				<polygon class="st4" points="105.2,69.19 56.06,69.19 52.28,65.41 108.98,65.41 				"/>
				<rect x="48.41" y="108.85" class="st4" width="64.44" height="3.78"/>
			</g>
		</g>
		<polygon class="st5" points="112.85,59.3 80.63,47.89 48.41,59.3 48.41,63.31 80.63,51.9 112.85,63.31 		"/>
		<g class="st3">
			<path class="st4" d="M79.69,142.35h-8.14v12.13h-3.78v-26.73h3.78v11.39h8.14v-11.39h3.78v26.73h-3.78V142.35z"/>
		</g>
		<path class="st5" d="M162.53,168.21c1.67-0.01,3.24,0.54,3.97,1.11v-3.41c-0.72-0.44-2.5-0.94-4.3-0.94
			c-5.02,0-7.78,2.85-7.78,6.99c0,3.45,1.46,5.11,3.82,7.14l2.15,1.86c1.78,1.49,2.88,2.63,2.88,4.85c0,2.6-1.72,3.63-4.3,3.63
			c-1.95,0-3.58-0.54-4.51-1.19v3.47c0.82,0.47,2.54,0.96,4.85,0.96c5.01-0.01,7.77-2.86,7.77-6.99c0-3.45-1.46-5.11-3.82-7.14
			l-2.15-1.86c-1.78-1.52-2.89-2.63-2.88-4.85C158.24,169.24,159.94,168.22,162.53,168.21z"/>
		<path class="st5" d="M135.52,165.47h6.17c4.93,0,8.47,1.85,8.47,7.9c0,4.23-2.05,6.29-4.64,7.23l5.67,11.6h-4.32l-5.02-10.9h-2.55
			v10.9h-3.78L135.52,165.47L135.52,165.47z M139.3,168.67v9.42h2.02c2.96,0,4.93-0.62,4.93-4.73c0-4.07-1.97-4.69-4.93-4.69H139.3z
			"/>
		<g class="st3">
			<path class="st4" d="M48.41,184.14v-18.67h3.78v18.83c0,3.95,1.36,5.1,4.11,5.1c2.76,0,4.11-1.15,4.11-5.1v-18.83h3.78v18.67
				c0,6.09-2.55,8.55-7.89,8.55C50.88,192.69,48.41,190.3,48.41,184.14z"/>
			<path class="st4" d="M69.09,165.47h4.36l8.43,21.3c-0.29-2.18-0.53-4.73-0.53-7.11v-14.18h3.62v26.73H80.6l-8.51-21.38
				c0.33,2.18,0.62,4.77,0.62,7.2v14.18h-3.62V165.47z"/>
			<path class="st4" d="M90.32,165.47h3.78v26.73h-3.78V165.47z"/>
			<path class="st4" d="M97.62,165.47h3.95l3.37,13.9c0.49,2.1,1.11,5.63,1.48,8.43c0.37-2.8,0.99-6.33,1.56-8.43l3.33-13.9h3.82
				l-6.78,26.73h-3.95L97.62,165.47z"/>
			<path class="st4" d="M118.65,165.47h12.5v3.21h-8.72v8.18h7.03v3.16h-7.03v8.97h8.72v3.21h-12.5
				C118.65,192.2,118.65,165.47,118.65,165.47z"/>
			<path class="st4" d="M171.57,165.47h3.78v26.73h-3.78V165.47z"/>
			<path class="st4" d="M47.59,141.12c0-10.53,2.8-13.86,9.74-13.86c1.97,0,4.07,0.54,4.97,1.07v3.49
				c-0.99-0.57-2.88-1.19-4.69-1.19c-4.44,0-6.13,1.65-6.13,10.49c0,8.76,1.19,10.56,5.06,10.56c1.19,0,2.18-0.16,2.92-0.37v-8.92
				h-3.95v-3.21h7.73v14.43c-0.78,0.49-3.91,1.36-6.66,1.36C49.36,154.98,47.59,151.19,47.59,141.12z"/>
			<path class="st4" d="M88.83,127.75h12.5v3.21h-8.72v8.18h7.03v3.16h-7.03v8.97h8.72v3.21h-12.5V127.75z"/>
			<path class="st4" d="M105.7,127.75h4.36l8.43,21.3c-0.29-2.18-0.53-4.73-0.53-7.11v-14.18h3.62v26.73h-4.36l-8.51-21.38
				c0.33,2.18,0.62,4.77,0.62,7.2v14.18h-3.62v-26.74L105.7,127.75L105.7,127.75z"/>
			<path class="st4" d="M125.03,127.75h15.34v3.21h-5.8v23.52h-3.78v-23.52h-5.76C125.03,130.96,125.03,127.75,125.03,127.75z"/>
		</g>
		<g class="st3">
			<path class="st4" d="M203.09,181.1l-7.32-15.63h4.15l3.17,7.2c0.74,1.73,1.44,3.58,1.89,5.22c0.49-1.65,1.23-3.5,1.97-5.22
				l3.17-7.2h4.03l-7.28,15.63v11.1h-3.78L203.09,181.1L203.09,181.1z"/>
			<path class="st4" d="M178.94,165.47h15.34v3.21h-5.8v23.52h-3.78v-23.52h-5.76V165.47z"/>
		</g>
	</g>
	<g>
		<g>
			<g>
				<rect x="124.07" y="108.84" class="st4" width="7.86" height="51.03"/>
				<rect x="108.35" y="108.84" class="st4" width="7.86" height="51.03"/>
				<rect x="92.63" y="108.84" class="st4" width="7.86" height="51.03"/>
				<rect x="76.91" y="108.84" class="st4" width="7.86" height="51.03"/>
				<rect x="139.79" y="108.84" class="st4" width="7.86" height="51.03"/>
				<rect x="155.51" y="108.84" class="st4" width="7.86" height="51.03"/>
				<rect x="171.23" y="108.84" class="st4" width="7.86" height="51.03"/>
				<rect x="68.86" y="167.73" class="st4" width="118.28" height="7.86"/>
				<polygon class="st4" points="179.09,100.98 76.91,100.98 69.05,93.12 186.95,93.12 				"/>
				<rect x="61" y="183.45" class="st4" width="134" height="7.86"/>
			</g>
		</g>
		<polygon class="st4" points="195,80.41 128,56.69 61,80.41 61,88.75 128,65.03 195,88.75 		"/>
	</g>
</g>
</svg>
