<?xml version="1.0" encoding="utf-8"?>
<!-- Generator: Adobe Illustrator 26.3.1, SVG Export Plug-In . SVG Version: 6.00 Build 0)  -->
<svg version="1.1" id="affiliation" xmlns="http://www.w3.org/2000/svg" xmlns:xlink="http://www.w3.org/1999/xlink" x="0px"
	 y="0px" viewBox="0 0 256 256" style="enable-background:new 0 0 256 256;" xml:space="preserve">
<style type="text/css">
	.st0{fill:#FFFFFF;}
	.st1{display:none;fill:#FFFFFF;}
	.st2{fill:#10099F;}
</style>
<rect id="black" width="256" height="256"/>
<circle id="background_x5F_circle" class="st0" cx="128" cy="128" r="128"/>
<path id="background_x5F_rectangle" class="st1" d="M206.9,256H49.1C22.1,256,0,233.9,0,206.9V49.1C0,22.1,22.1,0,49.1,0H207
	c27,0,49.1,22.1,49.1,49.1V207C256,233.9,233.9,256,206.9,256z"/>
<g id="logo_00000169557994799884142440000017718490564280908447_">
	<g>
		<path class="st2" d="M108.2,240.3c-1.5-0.2-2.9-0.7-4.2-1.5l0.7-3.8c1.1,0.9,2.4,1.5,3.8,1.7c1.5,0.3,2.5-0.1,2.7-0.9
			c0.1-0.8-0.7-1.4-2.5-2.5c-2.5-1.5-4.2-3-3.7-5.9c0.5-3,3.1-4.4,7.1-3.7c1.7,0.3,3.3,0.9,4.7,1.7l-0.7,3.9
			c-1.1-0.8-2.3-1.5-3.6-1.8c-0.4-0.1-0.8-0.2-1.3-0.2c-1.3-0.1-2.1,0.1-2.3,0.8c-0.1,0.9,0.8,1.5,2.6,2.5c2.5,1.5,4.1,2.9,3.6,5.9
			C114.6,239.4,111.8,240.9,108.2,240.3z"/>
		<path class="st2" d="M97.9,220.5l-5.4,15.5l-3.9-1.4l5.4-15.5L97.9,220.5z"/>
		<path class="st2" d="M70.4,226.3c-1.6-0.9-3-2.1-4-3.6l1.9-3.3c1,1.4,2.2,2.5,3.7,3.4c2.7,1.6,5.3,0.6,6.6-1.6
			c1.3-2.1,0.7-5-1.4-6.3c-0.1-0.1-0.2-0.1-0.3-0.2c-0.5-0.3-1-0.5-1.6-0.7l-2,3.5l-3.4-2l3.4-5.9c2,0.2,3.8,0.8,5.5,1.8
			c4.6,2.6,5.8,7.7,3.5,11.8C79.8,227.4,74.8,228.8,70.4,226.3L70.4,226.3z"/>
		<path class="st2" d="M66.9,203.5L56.3,216l-3.2-2.7l10.6-12.5L66.9,203.5z"/>
		<path class="st2" d="M57.1,194.5l-12.5,10.6l-2.7-3.2l9.8-8.3l-3.8-4.5l2.7-2.3L57.1,194.5z"/>
		<path class="st2" d="M46.1,180.2l-14.2,8.1l-2.1-3.6l11.2-6.4l-2.9-5.1l3-1.7L46.1,180.2z"/>
		<path class="st2" d="M22.3,169.5l-1.3-4l9.4-3c1.8-0.6,2.6-1.9,2-3.7c-0.6-1.8-2-2.5-3.8-1.9l-9.4,3l-1.3-4l9.8-3.1
			c3.7-1.2,6.9,0.6,8.3,4.9s-0.3,7.6-3.9,8.7L22.3,169.5z"/>
		<path class="st2" d="M15.3,143.3L15.3,143.3l6.8-8.5l-7.7-7.6v-0.1l16.6-1l0.2,4l-8.3,0.5l0.9,1c1,1,2.1,1.9,3.1,2.9
			c-0.9,1.1-1.8,2.1-2.7,3.2l-0.8,1.1l8.3-0.5l0.2,4L15.3,143.3z"/>
		<path class="st2" d="M18.2,100.1l1.3-4l9.4,3c1.8,0.6,3.2,0,3.8-1.9s-0.2-3.1-2-3.7l-9.4-3l1.3-4l9.8,3.2c3.7,1.2,5.3,4.5,3.9,8.7
			c-1.4,4.3-4.6,6-8.3,4.8L18.2,100.1z"/>
		<path class="st2" d="M27.9,74.8l10.6-3.2c0.6-0.2,1.1-0.3,1.7-0.6l-7-4.3l2.1-3.5l14.1,8.7L49.4,72l-10.7,3.3L37,75.8l7,4.3
			l-2.1,3.5l-14.2-8.7L27.9,74.8z"/>
		<path class="st2" d="M55.1,64.8L43,53.7l2.8-3.1l12.1,11L55.1,64.8z"/>
		<path class="st2" d="M56.6,40.6l4.4,2.3c1.5,0.8,2.9,1.6,3.9,2.3c-0.1-0.6-0.8-3.2-1.1-4.4l-1.2-4.8l3.6-2.8l3.4,18.3l-0.1,0.1
			l-16.7-8.2L56.6,40.6z"/>
		<path class="st2" d="M75.5,28l9.7-4.5l1.5,3.2l-6,2.8L82,32l5.1-2.4l1.4,3L83.4,35l1.3,2.8L91,35l1.5,3.2l-10,4.7L75.5,28z"/>
		<path class="st2" d="M100.2,35.4l-3.7-16l5.8-1.4c3.8-0.9,6.9,0.3,7.7,3.9c0.6,2-0.2,4.1-1.8,5.3l4.6,5.2l-4.2,1l-3.8-4.6
			l-1.8,0.4l1.2,5.3L100.2,35.4z M102.2,26l2-0.5c1.2-0.3,2-1.1,1.7-2.5c-0.4-1.5-1.4-1.8-2.6-1.5l-2,0.5L102.2,26z"/>
		<path class="st2" d="M125.7,14.9c1.5,0,3,0.2,4.4,0.7l0.1,3.8c-1.2-0.7-2.6-1-4.1-0.9c-1.5,0-2.4,0.6-2.4,1.4c0,0.8,1,1.3,2.9,2
			c2.8,1,4.7,2.1,4.8,5.1c0.1,3-2.2,4.9-6.2,5c-1.7,0.1-3.4-0.2-5-0.8l-0.1-4c1.2,0.6,2.5,1,3.9,1.1c0.4,0,0.9,0,1.3,0
			c1.3-0.1,2.1-0.5,2.1-1.2c0-0.9-1.1-1.3-3.1-2c-2.8-1-4.6-2.1-4.7-5.1C119.6,17,122,15,125.7,14.9z"/>
		<path class="st2" d="M139.7,32.2L142,16l4.1,0.6l-2.3,16.2L139.7,32.2z"/>
		<path class="st2" d="M156.5,18.6l12.3,3.9l-1.1,3.3l-4.2-1.3l-3.9,12.3l-4-1.3l3.9-12.3l-4.2-1.3L156.5,18.6z"/>
		<path class="st2" d="M169.4,40.4l15.4-10.3l0.2,0.1l-1.3,18.5l-3.8-2.2l0.2-2.8l-4.8-2.8l-2.2,1.6L169.4,40.4z M180.5,40.7
			c0.2-1.4,0.4-3.1,0.6-4.2c-0.5,0.4-2.4,1.9-3.3,2.6L180.5,40.7z"/>
		<path class="st2" d="M199.3,40.1l9.6,8.7l-2.3,2.6l-3.3-2.9l-8.6,9.5l-3.1-2.8l8.6-9.5l-3.2-2.9L199.3,40.1z"/>
		<path class="st2" d="M203,66.9l12.9-10.1l2.6,3.3l-12.9,10.1L203,66.9z"/>
		<path class="st2" d="M228.1,74.5c0.7,1.3,1.2,2.7,1.4,4.2l-3.4,1.8c0-1.4-0.3-2.8-1-4c-0.7-1.3-1.7-1.9-2.4-1.5
			c-0.7,0.4-0.7,1.5-0.4,3.5c0.4,2.9,0.3,5.2-2.3,6.6c-2.7,1.5-5.3,0.3-7.3-3.2c-0.8-1.5-1.4-3.1-1.6-4.8l3.5-1.9
			c0,1.4,0.3,2.7,0.8,4c0.2,0.4,0.4,0.8,0.6,1.2c0.7,1.1,1.4,1.6,2,1.3c0.8-0.4,0.6-1.5,0.3-3.6c-0.4-2.9-0.3-5,2.4-6.5
			C223.4,70,226.3,71.2,228.1,74.5z"/>
		<path class="st2" d="M222.6,106.7l16.1-3.3l0.8,4.1l-16.1,3.3L222.6,106.7z"/>
		<path class="st2" d="M241.6,124.6c0.1,1.5-0.1,3-0.6,4.4l-3.8,0.1c0.6-1.3,0.9-2.7,0.9-4.1c-0.1-1.5-0.6-2.4-1.4-2.4s-1.3,1-2,2.9
			c-1,2.8-2.1,4.7-5,4.8c-3,0.1-4.9-2.1-5.1-6.2c-0.1-1.7,0.2-3.4,0.7-5l4-0.1c-0.6,1.2-1,2.6-1,3.9c0,0.4,0,0.9,0,1.3
			c0.1,1.3,0.6,2.1,1.2,2.1c0.9,0,1.3-1.1,1.9-3.1c0.9-2.8,2-4.6,5-4.7S241.5,120.9,241.6,124.6L241.6,124.6z"/>
		<path class="st2" d="M224.5,138.7l16.2,2.5l-0.6,4.1l-12.7-1.9l-0.9,5.8l-3.5-0.5L224.5,138.7z"/>
		<path class="st2" d="M221.8,154.6l12.7,13.5l-0.1,0.2l-18.4,1.8l1.5-4.1l2.8-0.2l1.9-5.2l-1.9-1.9L221.8,154.6z M223.3,165.7
			c1.4-0.1,3.2-0.1,4.2-0.1c-0.4-0.4-2.3-2-3.1-2.8L223.3,165.7z"/>
		<path class="st2" d="M226.2,185.9l-10.7,2.8c-0.6,0.2-1.1,0.3-1.7,0.5l6.9,4.6l-2.3,3.4l-13.8-9.2l0.1-0.1l10.8-2.9l1.7-0.5
			l-6.9-4.6l2.3-3.4l13.8,9.2L226.2,185.9z"/>
		<path class="st2" d="M198.9,194.9l11.1,12l-4,3.7c-4.2,3.9-9.2,3.8-12.4,0.3s-3-8.4,1.2-12.3L198.9,194.9z M197.3,201.2
			c-2.4,2.3-2.3,5-0.6,6.9s4.5,2.2,6.9,0l0.9-0.9l-6.4-6.9L197.3,201.2z"/>
		<path class="st2" d="M181.2,209.5l8.7,13.9l-3.5,2.2l-8.7-13.9L181.2,209.5z"/>
		<path class="st2" d="M171.4,215.5l-1.5,18.4l-0.2,0.1L156,221.6l4-1.6l2,1.9l5.1-2l0.1-2.8L171.4,215.5z M164.2,224
			c1,1,2.2,2.3,2.9,3.1c0-0.6,0-3.1,0-4.2L164.2,224z"/>
		<path class="st2" d="M151.5,239.4l-10.6,1.7l-0.6-3.5l6.5-1.1l-0.5-2.9l-5.5,0.9l-0.6-3.3l5.5-0.9l-0.5-3.1l-6.8,1.1l-0.6-3.5
			l10.9-1.8L151.5,239.4z"/>
		<path class="st2" d="M83.1,162.7c1.5-0.1,0.6-4,1.9-4.8c1.4-0.8,4.2-1.6,4.9,0.8c1.4-0.1,3.3-0.8,3.8-1.4c4-4.5-0.8-8.2-1.5-8.7
			c-1.1-0.7-4.2-1.6-4.7-0.1c0.4,0.7,1.5,0.3,2.4,0.6c0.8,0.3,1.6,0.8,2.1,1.6c0.5,0.9,0.3,2.2-0.9,2.3c-0.7,0.1-2.5-1-4.3-1
			c-3.3-0.1-8.9,2-10.1-0.9c-0.8-2,2.6-12.4,4.3-16.6c0.2-0.6,1.1-2.5,0.3-2.6c-0.2,0-0.4,0-0.5,0.2c-0.9,2-6.5,17-7.1,19.5
			c-0.5,2.1-0.4,3.8,0.6,4.9c1,1.1,2.3,1.1,3.7,1c2.5-0.2,3.7,0.2,4.3,2.2C82.8,160.7,82.8,161.4,83.1,162.7L83.1,162.7z"/>
		<path class="st2" d="M90.3,177.5c1.5-1.6,5.6-2.4,6.6-5.4c0.1-0.2,0-1.3-0.4-1.4c-0.7-0.1-0.7,0.6-1.3,0.9c-1.3,0.5-2.8,0-4.5,0
			c-2.5,0-5.1,0.4-5.3,2.2c1.6,1.5,3.6,1.6,3.9,5.1C90,178.9,90,178.1,90.3,177.5z"/>
		<path class="st2" d="M89.7,135c-1.3,2,1.8,3,3.1,3.5c2.1,0.8,4.8-0.4,6.1-2.1c0.4-0.6,0.7-1.2,0.9-1.8c0.2-0.6,0.2-0.9-0.2-1.1
			l-1.6-0.8C95.9,134,93,136.6,89.7,135L89.7,135z"/>
		<path class="st2" d="M90.6,168.3c1.6,0,3,0.9,4.5,0.9c1.1,0,3.8-0.4,4.3-2.8c-2.8,0.1-5.7-0.4-8.3-1.6c-1.1-0.5-2.3-1.6-3.4-1.3
			c-1.4,0.4-3,2-5.5,1.9c0.3,1.5,1.4,3.2,3.1,3.5C87,169.4,88.7,168.3,90.6,168.3z"/>
		<path class="st2" d="M86,127.5c0.1,0.3,0.2,0.6,0.3,0.9c1.7-0.6,3.7,0.2,3.4,2.3c0,0.5-0.3,0.9-0.7,1.1c0.3,1,0.3,1.1,1.1,1.7
			c-0.1-0.3-0.1-0.6,0-0.9c0.8-0.5,1.9-0.8,2.2-2.3c1.6,1,1,2.7,0.7,3.3c1.4-0.2,2.7-0.8,3.8-1.8c-2.1-0.9-3.8-4.2-6.6-4.9
			C89,126.7,87.2,126.7,86,127.5z"/>
		<path class="st2" d="M133,43.7c-2.3-0.1-4.5-0.2-6.7-0.1H126c-1,0-2,0.1-3,0.1c-0.2,0-0.5,0-0.7,0c-1,0.1-1.9,0.1-2.9,0.2
			l-0.5,0.1c-1.7,0.2-3.3,0.4-5,0.7c-0.5,0.1-1,0.2-1.5,0.3c-0.6,0.1-1.3,0.3-1.9,0.4c-0.6,0.1-1.3,0.3-1.9,0.4
			c-0.6,0.2-1.2,0.3-1.8,0.4c-0.7,0.2-1.4,0.4-2,0.6c-0.6,0.2-1.1,0.3-1.7,0.5c-0.7,0.2-1.4,0.4-2.1,0.7c-0.5,0.2-1.1,0.3-1.6,0.6
			c-0.8,0.3-1.5,0.6-2.3,0.9c-1.1,0.4-2.1,0.9-3.2,1.3c-0.3,0.2-0.7,0.3-1.1,0.5c-0.8,0.4-1.6,0.8-2.4,1.2l-0.7,0.4
			c-0.9,0.5-1.8,0.9-2.6,1.4l-0.3,0.2c-1.9,1.1-3.9,2.3-5.7,3.5c-0.4,0.3-0.6,0.6-0.8,1c-0.2,0.6-0.2,1.3,0.2,1.8l7.1,11.8
			c-11.2,10-20.4,13.4-26.3,17.2c-0.5,2.1,2.8,8.2,12,3.9c-8.4,6.8-14.4,16.1-14.3,18.5c0.1,2,0.7,2.5,6.1,3.6
			c3.4,0.7,7.9,1.2,9.7,4.2c3.7,6.2,6.6,7.7,9.7,7c0.7-0.2,1.3-0.6,1.9-1.1c4.8-3.6,7.9,0,10.4,2.3c2.2,2,2.4,2.6,5.3,3.7
			c3.8,1.5,9.4-1.1,13.7,0.2c0.5,0.1,1,0.2,1.1-1c0-0.4,0-0.6-1-1c-8.2-2.1-15.4-9.8-23-10.6c-3.5-0.3-5.1,1.3-7.8,2.3
			c-1.7,0.6-5.3,1.4-5.9-2.1c-0.1-4.4,3.8-7,6.9-7.1c7.1-0.1,13.4-0.4,17.8-1.1c0,0,3-0.4,3.1-0.6c5-0.4,15.1,7.1,19.3,13.1
			c6.6,9.5,17.6,19.4,26.5,19.2c-9.6,2.6-18.7-0.6-25.7-11.7c-0.2-0.3-0.5-0.5-0.8-0.7c1.8,3.7,2.4,8.7,1.8,16.3
			c0,2.1,0.3,3.2,1.9,5.4c8.9,12.1,0.1,21.6,0,21.6c-8.1,8-24.4,11.2-26.2,11.8c-13.6,4.1-13.2-4.5-13.6-5s-1.1-0.4-1.2,0
			c-0.4,1.1-0.6,3.8-0.3,4.6c0.6,1.9,1,2.9,4.1,4.4c2.8,1.4,7.9,1.3,10.1,1.1c5.8-0.5,12.8-1.1,19.6-3c6-1.7,9.7-2.4,3.5,6.6
			c-5,5.7-16.1,10.9-22.6,14.9c4.2,1.3,8.5,2.2,12.8,2.8c19.4-8.7,20.8-39.8,24.7-46.2c1.8-3,9.6-2.8,13.3-1.7l-0.2,1.4
			c-1.8,10.2,2,13.3,0.1,18.6c-6.2,17.5-12.9,24.4-22,28.8c5.3-0.3,10.5-1,15.6-2.2c2.6-3.7,4.9-7.5,7.1-11.5
			c3.6-6.8,5.8-14.2,6.6-21.9c2.6,1.5,5.1,3,7.5,4.7c2.4,5.7,1.5,13.9-0.9,21c1.4-0.7,3-1.7,4.3-2.5c0.4-0.3,0.8-0.5,1.2-0.8
			c1.6-3.9,2.4-8,2.5-12.2l1.7,1.3c1.7,1.4,3.5,2.6,5.4,3.8c3.6-3.1,6.9-6.5,10-10.1c-12.9-4.4,1.7-15.6-18.5-20.4
			c21,1.6,14.2,11.1,21,17.3c2.6-3.5,5-7.1,7.1-10.9c0,0,0,0,0-0.1c5.9-10.9,9.3-22.9,10-35.2C215.4,86.7,179.7,46.5,133,43.7
			L133,43.7z M65.7,110.7c-1.5-0.7-0.1-2.6,2.9-6.8c22-30.2,80.7-13.5,84.5-14.1c2.8-0.4-37.5-21.2-67.1-5.6
			c-5.2,2.7-17.4,7.8-18.1,5.6c0,0,14.3-7.2,20.6-12.9c0.4-0.3,0.8-0.6,1.3-0.9c0.9-0.7,1.9-1.5,2.9-2.1c11.3-6.8,24.4-10,37.5-9.1
			c35.6,2.1,62.8,32.2,60.8,67.1c-0.1,2.3-0.4,4.6-0.8,6.9c-1.2-1.5-2.3-3-3.3-4.6c0,0,4.6-56.3-54.9-65.3
			c-10.8-1.7-22.3,0.1-30.2,4.7c2.5-0.1,4.9-0.3,7.3-0.6c27.5-4.7,74.1,11.7,72.4,54.4c-0.1,1.4-18.1-27.5-46.8-32.9
			c-32.1-6-47,3.1-47,3.1s21.2-2.7,44,1.8c26.1,5.2,46,25.6,56.4,45.5c-0.7,1.4-9.3,0.7-11.4-1.9c-6.7-8.2-24.5-29.7-47.6-35.2
			C81.8,96.6,67.6,111.5,65.7,110.7L65.7,110.7z M154,132c-8.2,0.7-13.4-15.1-28-19.8C143.4,113.3,147.2,127.3,154,132z
			 M116.5,111.7c14.2,0.7,30.6,25.4,38,27.1C143.9,139.6,127.7,115.6,116.5,111.7z M130,139.1c9.3,19.5,17.8,4.9,25.6,19.7
			C148.8,153.3,132.1,164.4,130,139.1z M184,186.2c-8.8-12.5-25.4-10.2-23.1-23.7C164.1,171.5,179.7,162.7,184,186.2L184,186.2z
			 M175.1,165.7c-35.7-14.9-7.1-25.8-19.5-37.5C173.3,142.4,151.1,152.4,175.1,165.7z M195.4,167.8c-3.1-16.1-31.3-5.6-27.3-26.9
			C173,160,198.4,139.4,195.4,167.8L195.4,167.8z M208.4,133.1c-0.6,9.9-3,19.5-7.1,28.5c-1.6-6.2-4.4-12.5-8.6-19
			c0.8-3.5,1.3-7,1.5-10.5c2.2-36.7-26.5-68.4-64-70.6c-13.5-0.8-26.9,2.3-38.6,9.1l-0.5,0.1L85,60.2c14.2-9.1,31-13.4,47.8-12.3
			C177.1,50.6,211.1,88.8,208.4,133.1L208.4,133.1z"/>
	</g>
</g>
</svg>
