<?xml version="1.0" encoding="utf-8"?>
<!-- Generator: Adobe Illustrator 26.3.1, SVG Export Plug-In . SVG Version: 6.00 Build 0)  -->
<svg version="1.1" id="affiliation" xmlns="http://www.w3.org/2000/svg" xmlns:xlink="http://www.w3.org/1999/xlink" x="0px"
	 y="0px" viewBox="0 0 256 256" style="enable-background:new 0 0 256 256;" xml:space="preserve">
<style type="text/css">
	.st0{fill:#FFFFFF;}
	.st1{display:none;fill:#FFFFFF;}
	.st2{fill:#E12726;}
	.st3{fill-rule:evenodd;clip-rule:evenodd;fill:#FFFFFF;}
</style>
<rect id="black" width="256" height="256"/>
<circle id="background_x5F_circle" class="st0" cx="128" cy="128" r="128"/>
<path id="background_x5F_rectangle" class="st1" d="M206.9,256H49.1C22.1,256,0,233.9,0,206.9V49.1C0,22.1,22.1,0,49.1,0H207
	c27,0,49.1,22.1,49.1,49.1V207C256,233.9,233.9,256,206.9,256z"/>
<g id="logo_00000169557994799884142440000017718490564280908447_">
	<g>
		<path class="st2" d="M41,61.7h174v132.5H41V61.7z"/>
		<path class="st3" d="M191.5,121.2c-1.4,0.4-3,0.8-3.7,0.8c0.9-1.7,2.1-3.1,3.3-4.3c0.7-0.7,1.9-1.6,3-1.6c1,0,1.4,0.4,1.4,1.4
			C195.5,119.4,193.6,120.5,191.5,121.2L191.5,121.2z M193.6,127.5c0.2-0.3-0.2-0.7-0.5-0.3c-1,1.1-2.7,2.5-4.5,2.5
			c-1.5,0-2.4-1-2.4-2.8c0-1.3,0.7-2.9,1.2-3.7c1.1-0.2,3.4-0.7,4.5-1c3.7-1.1,5.8-2.4,5.8-4.8c0-1.6-1.1-2.2-2.6-2.2
			c-4.5,0-11.1,6.4-11.1,12.4c0,1.9,1.2,3.4,3.4,3.4C189.9,131,192.1,129.3,193.6,127.5L193.6,127.5z M195.3,86.1
			c0.2,0,0.3-0.1,0.3-0.3l-0.7-4.5c-0.1-0.3-0.2-0.4-0.4-0.4c-0.1,0-0.2,0.1-0.3,0.3c-0.2,0.4-0.5,0.7-1.1,0.7c-1,0-1.9-0.7-4.3-0.7
			c-3.1,0-7.3,1.4-7.3,5.9c0,4.5,3.6,6,6.8,7.2c3.3,1.2,5.9,2.1,5.9,5.5c0,3.8-2.7,5.1-5.3,5.1c-2.8,0-6.2-1.4-7.4-5.8
			c-0.1-0.4-0.2-0.5-0.5-0.5c-0.2,0-0.4,0.2-0.4,0.6v5.8c0,0.3,0.2,0.5,0.4,0.5c0.2,0,0.3-0.1,0.4-0.3c0.2-0.3,0.5-0.7,1.2-0.7
			c1.3,0,2.8,1.5,6.5,1.5c3.2,0,8.7-1,8.7-7.4c0-2.5-1-5.8-7.2-7.5c-4.3-1.2-5.7-3-5.7-5.3c0-1.9,1.1-3.8,4.3-3.8
			c1.5,0,4.1,0.4,5.8,3.7C195.1,86.1,195.2,86.1,195.3,86.1L195.3,86.1z M176.7,85c0.5,0,0.9-0.1,1-0.2c0,0.7-0.6,1.7-2.2,2
			c-0.1,0-0.2,0.2-0.2,0.3c0,0.2,0.1,0.3,0.3,0.3c2.3,0,3.6-2.1,3.6-3.8c0-1.5-1-2.5-2.3-2.5c-0.9,0-2.1,0.5-2.1,2
			C174.8,84.5,175.8,85,176.7,85L176.7,85z M180.7,117.2c0,1-0.4,2.3-1.2,3.7c-1.6,2.6-2.8,3.1-3.9,3.1c-0.9,0-1.3-0.7-1.3-1.8
			c0-0.9,0.4-2.2,1.1-3.3c1.1-1.7,2.6-3.1,4-3.1C180.3,115.7,180.7,116.2,180.7,117.2L180.7,117.2z M173.3,137.2
			c-3.7,0-4.8-2.2-4.8-3.2c0-1,0.4-1.7,1.4-2.4c0.7-0.5,1.7-1,2.6-1.3c0.9,0.4,2.3,1.2,2.8,1.6c2,1.4,2.4,2.2,2.4,2.9
			C177.6,136.7,174.8,137.2,173.3,137.2L173.3,137.2z M185.1,116.6c0.4,0,0.8-0.2,0.8-0.9c0-0.6-0.6-0.8-1.1-0.8
			c-0.6,0-1.4,0.2-2.2,0.7c-0.2,0.2-0.7,0.4-1,0.2c-0.6-0.4-1.2-0.7-2.7-0.7c-1.5,0-3.7,0.9-5.2,2.8c-1,1.4-1.2,2.4-1.2,3.4
			s0.4,1.7,0.7,2.2c0.1,0.1,0.1,0.2,0.1,0.3c0,0.2-0.3,0.4-0.8,0.5c-0.9,0.3-2.4,1.2-2.4,2.7c0,1,0.8,2,1.7,2.6c0,0-1.9,0.5-3.3,1.3
			c-1.2,0.6-2.4,1.6-2.4,3c0,1.6,1.4,4.3,7.1,4.3c3.3,0,5.4-1.2,6.2-2.1c0.6-0.7,0.7-1.5,0.7-2c0-1.8-2-3.5-4.2-4.8
			c-1.4-0.8-3.5-1.8-3.5-3.2c0-0.4,0.1-0.8,0.5-1c0.3-0.2,0.7-0.3,1.2-0.3c0.6,0,1.4,0.2,2,0.2c1.8,0,4.3-0.6,5.8-3.8
			c0.4-0.9,0.6-1.8,0.6-2.6c0-1-0.2-1.2-0.2-1.7c0-0.4,0.4-0.6,1.2-0.6C184.5,116.2,184.5,116.6,185.1,116.6L185.1,116.6z
			 M164.3,121.2c-1.4,0.4-3,0.8-3.7,0.8c1-1.7,2.1-3.1,3.3-4.3c0.7-0.7,1.9-1.6,3-1.6c1,0,1.4,0.4,1.4,1.4
			C168.4,119.4,166.4,120.5,164.3,121.2L164.3,121.2z M166.3,127.5c0.3-0.3-0.2-0.7-0.5-0.3c-1,1.1-2.7,2.5-4.5,2.5
			c-1.6,0-2.4-1-2.4-2.8c0-1.3,0.7-2.9,1.2-3.7c1.1-0.2,3.4-0.7,4.5-1c3.7-1.1,5.8-2.4,5.8-4.8c0-1.6-1.1-2.2-2.6-2.2
			c-4.5,0-11.1,6.4-11.1,12.4c0,1.9,1.3,3.4,3.4,3.4C162.7,131,164.9,129.3,166.3,127.5L166.3,127.5z M156.5,110.6
			c0,0.1,0,0.3-0.2,0.5c-2.7,5.9-5.4,11.8-8.1,17.7c-0.2,0.3-0.4,0.9-0.4,1.3c0,0.5,0.4,0.9,0.9,0.9c0.3,0,0.6-0.1,0.9-0.2
			c1.5-0.6,3-2.2,4-3.6c0.2-0.3-0.2-0.6-0.4-0.4c-0.4,0.3-1.4,1.7-2.5,2.4c-0.2,0.1-0.4,0.1-0.3-0.3l8.4-18.7
			c0.2-0.3,0.2-0.5,0.2-0.7c0-0.2-0.2-0.3-0.4-0.3c-0.4,0-0.9,0.1-1.5,0.2c-0.5,0-1.4,0.1-2.2,0.2c-0.2,0-0.3,0.2-0.3,0.3
			c0,0.2,0.2,0.3,0.4,0.3c0.4,0,0.8,0,1.2,0.1C156.5,110.4,156.5,110.5,156.5,110.6z M171.3,97.7c0-2.1,1.5-2.2,2.8-2.4
			c0.5-0.1,0.6-0.9-0.1-0.9h-10.2c-0.7,0-0.7,0.9,0,1c2,0.1,3.6,0.5,3.6,2.4v3.7c0,0.8-0.4,1.4-0.9,1.7c-1.8,1.5-4,1.6-5.3,1.6
			c-6.5,0-9.4-5.6-9.4-11.2c0-4.5,2.3-11.6,9.8-11.6c6.7,0,9.1,4.3,9.9,6c0.3,0.5,0.9,0.4,0.9,0v-5.3c0-0.5-0.7-0.6-0.9,0
			c-0.2,0.6-0.5,1-1,1c-0.4,0-0.9-0.3-1.1-0.4c-2-1.3-3.9-2.3-7.8-2.3c-6.2,0-13.8,3.1-13.8,12.5c0,9.5,7.2,12.4,13.4,12.4
			c6.2,0,9.4-3.1,10-3.5L171.3,97.7L171.3,97.7L171.3,97.7z M149,110.6c0,0.1,0,0.3-0.2,0.5c-2.7,5.9-5.4,11.8-8.1,17.7
			c-0.1,0.3-0.4,0.9-0.4,1.3c0,0.5,0.4,0.9,0.9,0.9c0.3,0,0.6-0.1,0.9-0.2c1.5-0.6,3-2.2,3.9-3.6c0.2-0.3-0.2-0.6-0.4-0.4
			c-0.3,0.3-1.4,1.7-2.5,2.4c-0.2,0.1-0.4,0.1-0.3-0.3l8.4-18.7c0.2-0.3,0.2-0.5,0.2-0.7c0-0.2-0.2-0.3-0.4-0.3
			c-0.4,0-0.9,0.1-1.5,0.2c-0.5,0-1.4,0.1-2.2,0.2c-0.2,0-0.3,0.2-0.3,0.3c0,0.2,0.2,0.3,0.4,0.3c0.4,0,0.8,0,1.2,0.1
			C148.9,110.4,149,110.5,149,110.6L149,110.6z M137,115.7c1.5,0,1.9,1.3,1.8,2.5c0,4.1-4.6,11.8-7.8,11.8c-1.3,0-1.8-0.9-1.8-2.1
			C129.2,123.3,133.8,115.7,137,115.7L137,115.7z M136.3,114.7c-4.5,0-8.7,5.7-8.7,11.5c0,2.4,1.1,4.8,4,4.8c4.6,0,8.5-6.7,8.5-10.8
			C140.2,117.6,139.5,114.7,136.3,114.7z M120.1,81.2c-0.7,0-0.7,0.7-0.3,0.8c0.8,0.2,2.4,0.3,2.4,2.4c0,5,0,11.6-0.2,16.9
			c0,1.9-0.6,3.5-2.2,3.7c-0.6,0-0.6,0.7-0.2,0.7h7.3c0.4,0,0.5-0.7,0-0.7c-1.1-0.2-2.9-0.2-3.1-3.7c-0.2-3.4-0.3-16.4-0.3-16.4
			l18.2,20.3h1.5c0,0,0-19,0.1-20.4c0.1-1.7,0.7-2.6,2.5-2.7c0.9-0.1,0.7-0.9,0.1-0.9h-7.4c-0.9,0-0.7,0.8-0.3,0.8
			c0.8,0.1,3.3,0.4,3.4,2.8c0.1,3.5,0.3,14.5,0.3,14.5l-16.2-18.2L120.1,81.2L120.1,81.2L120.1,81.2z M126.6,116.7
			c0.2,0,0.3-0.1,0.4-0.3l1.6-5.2c0.1-0.3,0-0.5-0.3-0.5c-0.1,0-0.2,0-0.3,0.2c-0.3,0.3-0.7,0.6-1,0.6c-0.2,0-0.3-0.1-0.5-0.2
			c-1.4-1.8-3.8-2.1-4.9-2.1c-5.2,0-9.6,3.4-12.2,7.5c-1.6,2.4-2.4,5.2-2.4,7.8c0,4.3,2.9,6.6,6.8,6.6c1.7,0,3-0.2,5.3-1.2
			c0.5-0.2,1.1-0.4,1.4-0.4c0.6,0,0.6,0.9,0.7,1.6c0,0.3,0.2,0.4,0.4,0.4c0.2,0,0.3-0.1,0.4-0.3l2.2-6.2c0.2-0.5,0-0.7-0.2-0.7
			c-0.3,0-0.5,0.1-0.7,0.5c-1,1.5-1.7,2.5-5,4.1c-1.4,0.7-3.1,1.1-4.4,1.1c-2.9,0-4-2.2-4-5c0-3.6,1.7-7.4,4.3-10.6
			c1.7-2.1,4.3-4.5,7.2-4.5c2.9,0,5,2.1,4.7,6C126.1,116.6,126.4,116.7,126.6,116.7L126.6,116.7z M113.6,101.9V84.8
			c0-2.1,1.5-2.7,3.1-2.8c0.6,0,0.7-0.8-0.1-0.8h-10.1c-0.7,0-0.8,0.8-0.1,0.8c1.5,0.2,3.3,0.9,3.3,2.8v17.1c0,1.9-0.7,3.1-2.9,3.1
			c-0.9,0-0.7,0.7,0,0.7h10c0.5,0,0.7-0.7-0.2-0.7C114.4,105.1,113.6,103.7,113.6,101.9L113.6,101.9z M89.7,84.9
			c0,0.6-0.2,1.2-0.5,1.4c-0.9,1.7-2.2,3.6-4.1,5.8c-4.8,5.4-11.3,11.8-13.5,13.3c-0.7,0.5-0.9,0-0.9-0.5c0-0.4,0-10,0.2-16.1
			c0.2-6.2,4.8-6.3,6-6.4c1.2-0.1,0.8-1.3,0.1-1.3H58c-0.8,0-0.9,1.2-0.2,1.2c4.5,0,6.2,2.8,6.2,4.8c0.1,2.9,0.3,29.8,0,36.1
			c-0.2,6.2-4.1,6.4-5.7,6.5c-1.1,0.1-1.1,1.2,0.1,1.2c0.7,0,5.8-0.2,9.4-0.2c4.2,0,6.8,0,10.2,0.2c1,0,0.6-1.3-0.1-1.3
			c-5.7,0-6.7-3.5-7-6c-0.3-2.4-0.2-13.5-0.1-14.8c0.1-1.4,1.3-1,1.8-0.7c2.8,1.9,20.1,22.8,20.1,22.8h13.9c0.8,0,0.6-1.2,0-1.2
			c-2.4-0.2-4.6-0.4-7.9-3c-3.1-2.5-21-23.8-21-23.8s7.9-8.4,14.1-14c6-5.5,9.3-6.3,10-6.5c0.7-0.2,0.6-1.3-0.4-1.2
			c-1.6,0.1-5,0.2-7.3,0.2c-4,0-7.4-0.3-8.1-0.3c-1.1,0-1.3,1.2-0.1,1.4c0.8,0.2,1.6,0.2,2.4,0.5C89.4,83.3,89.7,84.1,89.7,84.9z
			 M175.3,139.2c-0.4,0-0.5,0.7,0,0.7c0.6,0,1.9,0.2,1.9,2l-0.1,15c0,1.6-0.6,3-2.1,3c-0.5,0-0.5,0.7-0.1,0.7h6.2
			c0.4,0,0.4-0.7-0.1-0.7c-0.9,0-2.5-0.4-2.5-3l-0.2-15.2c0,0,16,18.7,16.1,18.9h1.1l0.1-18c0-1.8,0.8-2.7,2.7-2.7
			c0.4,0,0.4-0.6,0-0.6h-7c-0.4,0-0.4,0.6,0,0.6c0.7,0,2.9,0.1,2.9,2.4l0.2,13.1l-13.7-16.2L175.3,139.2L175.3,139.2z M156.1,149.7
			c0-5.5,2.5-9.6,7.2-9.6c4.1,0,7.3,4,7.3,9.6c0,7-2.8,10-7.3,10C158.9,159.7,156.1,155.5,156.1,149.7z M163.2,160.7
			c6.2,0,10.7-4.3,10.7-11c0-5.8-4.3-10.6-10.7-10.6c-6.2,0-10.6,4.8-10.6,10.6C152.6,156,156.8,160.7,163.2,160.7z M133.4,142
			c0-1.9,1.1-2,3.7-2c4.5,0,9.1,2.2,9.1,9.5c0,7-3.8,10-8.9,10h-1.1c-1.4,0-2.9-0.3-2.9-2.9V142z M128.2,139.1
			c-0.7,0-0.6,0.8-0.2,0.8c0.8,0,2.2,0.4,2.2,2v15.2c0,1.6-0.4,2.6-2.3,2.6c-0.5,0-0.5,0.8,0,0.8H138c4.5,0,11.8-2.1,11.8-10.9
			c0-8.9-6-10.5-11.9-10.5L128.2,139.1L128.2,139.1z M103.1,139.2c-0.4,0-0.5,0.7,0,0.7c0.6,0,1.9,0.2,1.9,2l-0.1,15
			c0,1.6-0.6,3-2.1,3c-0.5,0-0.5,0.7-0.1,0.7h6.2c0.4,0,0.4-0.7-0.1-0.7c-0.9,0-2.5-0.4-2.5-3l-0.2-15.2c0,0,16,18.7,16.1,18.9h1.1
			l0.1-18c0-1.8,0.8-2.7,2.7-2.7c0.4,0,0.4-0.6,0-0.6h-7c-0.4,0-0.4,0.6,0,0.6c0.7,0,2.9,0.1,2.9,2.4l0.2,13.1l-13.7-16.2
			L103.1,139.2L103.1,139.2z M83.7,149.7c0-5.5,2.5-9.6,7.2-9.6c4.1,0,7.3,4,7.3,9.6c0,7-2.8,10-7.3,10
			C86.5,159.7,83.7,155.5,83.7,149.7L83.7,149.7z M90.9,160.7c6.2,0,10.7-4.3,10.7-11c0-5.8-4.3-10.6-10.7-10.6
			c-6.2,0-10.7,4.8-10.7,10.6C80.2,156,84.4,160.7,90.9,160.7z M195.4,172.2H59.8v2.9h135.6V172.2L195.4,172.2z M195.4,168.1H59.8
			v1.3h135.6V168.1L195.4,168.1z M59.5,139.2c-0.5,0-0.5,0.7,0,0.7c1.8,0,2.9,0.8,2.9,2.6V157c0,2.2-1.5,2.8-2.7,2.8
			c-0.4,0-0.5,0.8,0.1,0.8h18.6l1.1-6c0.1-0.6-0.5-0.6-0.7-0.2c-1.7,4.8-5.1,5.2-8.7,5.2c-3.7,0-4.6-0.6-4.6-2.3v-15.1
			c0-1.8,1.7-2.2,2.6-2.2c0.5,0,0.4-0.7,0-0.7H59.5z"/>
	</g>
</g>
</svg>
