<?xml version="1.0" encoding="utf-8"?>
<!-- Generator: Adobe Illustrator 26.3.1, SVG Export Plug-In . SVG Version: 6.00 Build 0)  -->
<svg version="1.1" id="affiliation" xmlns="http://www.w3.org/2000/svg" xmlns:xlink="http://www.w3.org/1999/xlink" x="0px"
	 y="0px" viewBox="0 0 256 256" style="enable-background:new 0 0 256 256;" xml:space="preserve">
<style type="text/css">
	.st0{fill:#FFFFFF;}
	.st1{display:none;fill:#FFFFFF;}
	.st2{fill:#004B55;}
</style>
<rect id="black" width="256" height="256"/>
<circle
   id="background"
   class="st0"
   cx="128"
   cy="128"
   r="128" />
<g id="logo_00000169557994799884142440000017718490564280908447_">
	<g>
		<g id="g2857" transform="translate(340.8525,218.0205)">
			<path id="path2859" class="st2" d="M-145.2-102.8c-0.8,0-5.4,2.5-6.2,3.1c-3.7-3.9-1.2-2.8-4.5-1.9c-1.5-1.7-3-3.3-4.5-5
				c-0.4,0.1-0.7,0.3-1,0.4c0.1,0.9,3.1,6.8,2.5,7.3c-1.8-1.1-3.7-2.1-5.5-3.2c-0.3-6.4,6.3-7,9-11.4c-0.1-0.2-0.2-0.4-0.3-0.6
				c-8.9-1.4-19.3-4.2-27.3,0.5c-0.4,2.1-3.7,12-4.8,12c-0.8-0.3-1.6-0.6-2.4-0.9c0.2-0.6,1.8-0.4,2.3-0.5c-0.9-3.5-1.1-4.6-3.7-6.6
				c-4.4-5.2-7-11-10.1-16.7c-2.4-4.1-6.2-8.1-7.4-12.1c-0.4-0.1-0.8-0.3-1.2-0.4c-0.2-0.6-0.3-1.2-0.4-1.8
				c-1.1-6.5-5.4-9.9-1.1-16.2c-0.2-1.4-0.4-2.8-0.6-4.2c-1.5-1-1.4-0.9-2-2.4c1.4-1.1,3,0.6,4.2,1.8c11.9,1.6,4.2-13.6-2.4-5.7
				c-3.8-1.6,1.2-5.1,0.4-9.5c-2.8-1-5.1-2-7.5-0.2c-2.3,3.6,1.6,5.7,1.3,9.6c-3,0.3-5.2-5-9.1-1.5c-3.8,12.6,5,4.5,9.6,5.3
				c0.4,2.8-5.2,2.9-0.8,8.7c-6.7,1.8-13.7,2-20.4,3c-0.2,0.7-0.5,1.5-0.7,2.3c0.3,0.2,0.6,0.3,0.9,0.5c0,0.8-0.3,1.8-0.2,3l0.9,0.4
				c-0.6,1.3-1.7,0.9-0.1,2.7c4.3,0.6,11.5-1.4,16.3-1.9c0,8.1-21.9,24.2-14.5,29.6c1.4-1.6,2.4-4,2.8-4.6c0.7-1,6.1-9.4,7-10.3
				c0.2,0.1,0.4,0.1,0.6,0.2c0.9,2.9-3.5,13.5-4.6,17.3c-0.5,3.3-0.7,7.1-2.5,10.2c-1.4-1,0.6-1.7-1.8-2.4c1.3-3.1-0.2-2.2,2.7-4.5
				c-0.3-4.4-5.8-6.3-8.7-7.9c0.2-5.1-1.9-5.5-5.2-3.3c0.3,0.2,0.7,0.5,1,0.8v1c-2.5,1.8-5.3,3.7-7.7,5.3c-2.4-1.6,2-11.1,2.6-13.2
				c-0.3-8.1,0-14.3-7.7-15.3c-0.6,1.2,0.6,6.2,0.8,8.2c-3.3,4-6.8,6.5-3.5,11.3c0.5,4.5,1.4,5.1,5.7,6.2c0,0.2,0,0.5,0.1,0.8h-3.9
				c0,0.4,0,0.8,0,1.2c0.7,0.4,3.1-0.1,4.2-0.2c0,0.3,0,0.5,0,0.8c-0.9,0.5-3.3,0.2-4.4,0.5c-0.1,2.3-0.4,4.5-0.8,6.8
				c-0.5,0.9-3.5,5.8-4,5.2c2.6-5.2,4.3-9.7-1.9-3.9c-3.7,1.6-2.8-2.9-6.3,2.6c-2.5-2-2.4-2.2-4.9-2.1c-0.3-0.4-0.6-0.7-0.9-1.1
				c-0.9,0-1.7,0-2.6,0c-0.3,0.6-0.6,1.1-0.9,1.7c0.2,0.5,0.4,1.1,0.7,1.7c-0.2,5.8,3.9,6.1,8.2,8.6c-0.7,0.8-5.7-2.2-7.4-1.9
				c-0.2,0.4-0.4,0.8-0.6,1.2l1.3,1.8c2.5,0.2,6.8,4.5,9.3,6.4c-0.4,4.6-0.8,9.2-1.2,13.8c0.2,0.1,0.5,0.3,0.7,0.5
				c-0.4,2.1-1.6,5.8-1.6,7.9c2.2,1.9,0.1,2.8,0,6.5c2.4,2.6,1.7,4.7,1.7,8.6c0.3,0.3,0.7,0.6,1.1,0.9c0,2.2,0.1,4.5,0.1,6.8
				c0.5,0.5,1.1,0.9,1.6,1.4c0.1,2.8,0.3,4.8,0.9,7.8c-1.8,1-3.5,0.6-5.4,1.6l0.7,0.8c6,0.3,10.3-2.8,15.9-2.8
				c9.2,4.9,7.6,9.2,18.6,3c5.3-0.7,6.7,8.7,14.1,4.8c11.2-9.3,8.3-4.6,17.9,2.3c1.2,0,2.4,0,3.7,0c9.6-6.7,6.2-9.7,16.7-1
				c5,0.9,8.5-6,11.7-6c8.2,2.9,9.9,3.5,18.7-1c-2.8-3.6-3.4,1.5-6,1.5c-0.3-1.4,0.1-2.4,0.1-3.6c2.6-2.4,5.1-4.9,7.7-7.3v-0.1
				c-1.6-0.8-3.3-1.7-4.9-2.5c0.1-2.8-0.2-5.8,1.8-7.5c-1.8-9.8-1.1-20.6-0.4-30.4c0.7-1.1,1.4-2.1,2.1-3.2c2.8-3.3,6.3-4.1,9.1-7.4
				l-0.7-1c-2.9,0.6-4.4,1.2-6.8,2.5C-153.2-92-139.9-90.9-145.2-102.8 M-236.4-118.2l0.1,1.8c-0.1,0-0.2,0-0.3,0
				c-1.1-0.9-0.9-1.1-0.8-2C-237-118.4-237-118.4-236.4-118.2 M-235.3-118.4c-1.1-0.4-1.3-1.5-1.5-2.2c0.2-0.2,0.3-0.4,0.5-0.5
				C-234.5-120.8-235.3-118.4-235.3-118.4 M-234.4-123.2c0.5,1.1,0.6,1.4,0.6,3.3c-1.1-1.6-1.2-1.7-1.2-3.3
				C-235-123.2-234.4-123.2-234.4-123.2z M-233.4-125.4c0.3,0.6,0.6,1.2,1,1.8c-0.3,1.1-0.3,1.1-0.4,1.1c-0.5-0.8-1-1.5-1.5-2.2
				L-233.4-125.4z M-232-127.5c0.6,0.7,1.5,1.3,1.4,2.8c-0.2,0.1-0.5,0.3-0.7,0.4c-0.5-0.9-0.9-1.7-1.4-2.5
				C-232.5-127.1-232.3-127.3-232-127.5 M-229.5-128.6c0,0.5,0,1,0,1.5c-0.3,0.1-0.5,0.3-0.8,0.5c-1-1.7-0.8-1.6-0.9-3
				C-230.1-129.6-230.4-128.9-229.5-128.6 M-228-128.9c-0.2,0.2-0.4,0.5-0.7,0.5l-1-2.3c0.1-0.2,0.2-0.3,0.3-0.5
				C-228.4-131-228.2-130.5-228-128.9 M-227.5-131.2c-0.5-0.9-0.6-1.3-0.6-2.1c0.2-0.2,0.3-0.4,0.5-0.5
				C-226.9-133.2-227.2-130.8-227.5-131.2 M-171.8-30.4c0.2-0.3,0.4-0.6,0.7-0.9c4.1,0.9,5.8,0.4,10.1-0.7c0,1-0.1,2.1-0.1,3.2
				l-5.5,0.3C-171.7-30.2-171.7-30.2-171.8-30.4 M-192.1-54.5c-1.8-2.3-8.1-9-8.1-11.8c3.4-1.6,6.5,3.3,8.6,5.9
				c5.1,5.3,11.8,8.5,18.4,11.9c17.9,8.7,17.9,8.7,18.2,8.9c-4.1,5.6-6.2,6.9-12.4,7.8C-180.6-34.9-184.4-43.4-192.1-54.5
				 M-172.6-88.9c1.8,1,5.3,1.2,8,2.5c-0.3,0.6-0.7,2-1.2,2.5c-3.7-1.8-7.3-4.4-9.7-7.5c1.1-1.5,3.6-1.3,5.4-1.5c0,0.1,0,0.1,0,0.2
				c2.1-0.5,2.6-1.4,4.3,0l-0.8,1.2c-2.4,0-6.4-0.8-8,1c3.4,0,6.1,0.3,9.7,1.1c-0.8,2.5-6.4,0.1-7.7-0.2
				C-172.6-89.4-172.6-89.2-172.6-88.9 M-165.8-98.7c0.3,0.8,3.4,9.8,1.9,8.2C-165.4-94-167.5-95.7-165.8-98.7 M-171.9-94
				c-0.1-0.1-0.1-0.2-0.2-0.3c1.3-1.2,2.1-1.7,3.8-2.5c0.2,0.4,0.5,0.7,0.8,1.1C-168.2-94.5-170.9-94.1-171.9-94 M-218.8-137.6
				c-0.1,0.3-0.3,0.5-0.5,0.6c-0.3-0.3-0.7-0.5-1-0.7c0.1-0.2,0.2-0.4,0.3-0.6C-219.6-138.2-219.3-138-218.8-137.6 M-218.8-140.5
				c-0.2,0.1-0.4,0.2-0.5,0.3l-0.9-0.5v-0.3c0.6-0.5,0.4-0.5,1.4,0.1C-218.8-140.8-218.8-140.6-218.8-140.5 M-224.9-129.1
				c0.1-0.1,0.2-0.3,0.3-0.4c0.4,0.2,0.9,0.5,1.3,0.7c0,0.3-0.3,0.6-0.6,0.6C-224.4-128.5-224.9-128.9-224.9-129.1 M-223.3-125.4
				c-0.2,0-0.3,0.1-0.5,0.2c-0.7-0.7-1.3-1.4-2-2.1C-225-128.2-223.7-126.8-223.3-125.4 M-224.7-130.7c0-0.2,0-0.2,0.3-1
				c0.5,0.3,1.5,0.5,1.4,1.6c-0.1,0.1-0.3,0.1-0.4,0.2C-223.7-130.1-224.2-130.4-224.7-130.7 M-220.5-123c0,0.4-0.1,0.8-0.1,1.2
				c0,0-0.1,0-0.1,0.1c-1.1-0.6-1.5-1.5-2.1-1.8v2.4c0.8,0.2,1.8-0.1,1.7,1.7c-0.1,0.1-0.2,0.1-0.3,0.2l-1.7-1.5
				c-1.9,6.7-3,14.4-2.7,21.6c1.5-1.1,1.5-1,3.5-0.6c0.5-3.8,0.9-7.9,2.1-11.2c1,3.2,0.1,7.4-0.3,11c-3.2,0.7-4.9,1.7-7.5,2.7
				c-1.4,3.1-2.3,4.6-2.1,9.1c0.4,0.1,0.7,0.2,1.1,0.3v0.4c-1.4,0.2-1.7,1.4-2.1,2.8h-0.1c-0.1,0,0.2-4.2,0.1-4.6
				c-3.2-7.4,3.9-18.1,5.3-25.1c0.1-2.3,1.2-9,2.8-10C-222.3-124-221.4-123.5-220.5-123 M-232.9-77.4h0.9c0.6-3,1.2-4.9,2.5-7.5
				c0.8,0,1.6,0.1,2.4,0.1c-0.5,3.9-0.5,10-5.1,11.1c-3.4-0.6-1.7-12.9-1.1-14c0.3,0.2,0.7,0.5,1,0.7
				C-232.3-84-232.7-80.8-232.9-77.4 M-232.6-89.7c-0.1,0.2-0.3,0.5-0.5,0.5c-1.6-0.6-2.6-1.3-3.6-2.1c0-0.2,0-0.4,0-0.5
				C-235.2-91.7-233.9-91.5-232.6-89.7 M-233.8-93.8c-0.3-0.2-0.6-0.4-0.8-0.6c0-0.2,0-0.3,0-0.5c0.1,0.1,0.9,0.3,1.1,0.9
				C-233.6-93.9-233.7-93.9-233.8-93.8 M-239.6-92.5l0.1,0.6c0.2-0.1,0.3-0.2,0.5-0.4c1.5,1.8,1.6,5.9-1.6,5.9
				C-246.6-87.7-244.5-91.7-239.6-92.5 M-244.3-92.9c-2.2-0.6-3-2.2,0.3-2.2C-243.5-94.1-242.7-93.3-244.3-92.9 M-238.4-93.4
				c0.4-0.4,0.8-0.7,1.2-1c0.5,0.3,0.7,0.2,1.1,1.2c-0.5,0.4-1,0.4-1.3,0.5C-238.3-93.3-238.3-93.3-238.4-93.4 M-237.2-96.7
				c0.4-0.3,0.8-0.5,1.2-0.7c0.3,0.5,0.3,0.5,0.4,1.1c-0.1,0.2-0.2,0.4-0.3,0.6h-0.1c-0.4-0.1-0.7-0.1-1.1-0.2
				C-237.1-95.9-237.2-96.7-237.2-96.7z M-236.1-89.6c0.3,0.2,0.7,0.4,1.1,0.5c0,0.1-0.7,5.6-1.1,5.1
				C-237.9-87.6-237.9-86.2-236.1-89.6 M-221.5-93.9c0,1.2-2.7,1.8-3.6,2l-0.4-0.3C-224-93.3-223.4-93.5-221.5-93.9 M-222.7-94.6
				c-0.6,0.1-2.2,0.7-2.5,0.6c-0.1-0.1-0.1-0.3-0.2-0.4c1.2-0.6,1.5-1.2,3-1.1L-222.7-94.6z M-222.3-91c-0.7,0.9-2,1.5-2.9,1.5
				l-0.3-0.4C-224.5-90.7-223.6-92-222.3-91 M-225.4-88.2c0.3,0,0.5,0.1,1.1,0.5c-0.1,0-0.1,0-0.2,0l-1-0.4
				C-225.5-88.1-225.4-88.1-225.4-88.2 M-223.9-85.4c-0.2,0.2-0.3,0.3-0.5,0.3c-0.4-0.3-0.7-0.5-1-0.7v-0.6
				C-224.8-86.8-224.5-86.2-223.9-85.4 M-224.9-83.5c-0.1,0.1-0.3,0.2-0.4,0.3c-0.3-0.2-0.5-0.4-0.7-0.6c0-0.2,0-0.3,0-0.5
				C-225.6-84-225.3-83.8-224.9-83.5 M-226.2-82.7c1.9,0.8,1,2,0.9,1.9C-226.5-81.7-226.9-81.8-226.2-82.7 M-225-78.6
				c-0.1,0.1-0.1,0.3-0.2,0.5c-0.3-0.1-0.7-0.1-1-0.2c-0.1-0.3-0.2-0.5-0.3-0.8C-225.9-79.4-225.7-79.2-225-78.6 M-226.6-87.3
				c-0.1,0-0.1,0-0.2,0c-0.2-0.1-0.4-0.3-0.6-0.4c0-0.6,0.2-0.6,0.4-1c-0.5,0-0.9-0.1-1.3-0.1c-1.1-3.7-0.5-5.1,0.5-8.5
				c2.2-0.7,4.4-1.5,7-1.5c0.1,0.1,0.1,0.2,0.2,0.3c-2.2,3.6-6.3,0.6-5.9,6.3c-0.3,1.6-1.4,2,0.2,3
				C-226.4-88.5-226.2-88.1-226.6-87.3 M-227.1-86.3l0.1,0.6c-0.2,0.1-0.3,0.3-0.4,0.5c-0.2-0.3-0.4-0.6-0.5-1
				C-228-86.2-227.1-86.3-227.1-86.3z M-225.4-74c0,0.2,0,0.4,0,0.6c-0.2,0.1-0.2,0.1-0.4,0.1c-0.9-0.4-1.1-1-1.5-1.5
				c0-0.2,0.1-0.4,0.1-0.6C-226.3-75.1-226.3-74.5-225.4-74 M-225.7-71.5l-0.1,0.8c-0.2,0-0.3,0-0.5,0c-1-0.1-0.8-0.7-1-1.1
				C-226.6-72.8-226.6-72.4-225.7-71.5 M-226-67.9c-1.1-0.7-2.4-1.5-2.4-2.5C-227.5-70.4-225.8-69.4-226-67.9 M-226.8-65.8
				c-0.3,0-0.7,0-1,0c-0.2-0.3-0.5-0.5-0.7-0.7c0.2-0.3,0.5-0.6,0.7-0.8C-227.2-66.9-226.9-66.9-226.8-65.8 M-251.9-71.8
				c-0.1,0-0.3,0-0.4,0c-5.4-1-7.6-11.3-4.8-15.3C-252.6-91.5-249.9-75.7-251.9-71.8 M-256.7-89.8c-0.2-0.4-0.3-0.7-0.5-1
				c0.2-0.2,0.4-0.5,0.6-0.7C-256.6-91.3-256.2-89.2-256.7-89.8 M-257.8-88.3c-0.2-0.6-0.5-1.1-0.7-1.6c0.4-0.4,0.4-0.4,0.6-0.4
				C-257.5-89.9-257.5-87.9-257.8-88.3 M-237.3-60.4c-0.4,1.2-1.1,6.2-2.5,6.2c-6.6-1.9-13.1-6.1-18.4-9.9c1.3-1.9,2.5-3.6,4-5.3
				C-252.6-69.3-239.6-63.2-237.3-60.4 M-261.1-63.6c5.2,2.8,10.6,6.4,16.2,9.5c-0.1,1.3-0.5,2.6-1,4c-0.1,0-0.2,0-0.3,0
				c-6.1-2.7-11.8-5.1-17.1-8.6C-263.2-60.7-262-62.2-261.1-63.6 M-264.7-59.8c-2.4-2.2-3.6-3.2-4.9-5.9c1-1.5,0.7-2.8,1.4-4.2
				c2.2,1.4,3.9,2.7,6,4.7C-262.1-64-264.6-59.8-264.7-59.8 M-257.4-51.5c3.5-1.9,14.6,4.1,19.4,5.7c2.1,0.9,1.5,1.3,0.5,3.5h-0.2
				C-241.5-43.8-255.2-46.8-257.4-51.5 M-245.3-42.9c0,0.9-0.8,4.3-2,4.3c-4.7-1.2-9.4-3.9-13.2-6.3c0-1.3,0.6-3.1,1.1-4
				C-254.6-47.2-250.3-45.4-245.3-42.9 M-221.6-31.8c-0.1,0-0.2,0-0.3,0.1c-7.6-1.4-15.4-3.3-22.6-5.5c0.1-1.6,0.4-2.9,0.8-4.2
				c3.3,0,8.6,2.3,12.1,3.3C-227.1-37.6-218.7-39.5-221.6-31.8 M-234.7-41.4c-0.5-1-0.2-2.7-0.1-3.4c7.7,0,15.6,2,23.7,2.2
				c0.6,0.1,1.2,0.1,1.9,0.6c0,1,0,2.1,0,3.2c-0.8,0.1-1.5,0.3-2.3,0.5C-219.1-38.9-227.7-38.7-234.7-41.4 M-221.6-49.5
				c0,1.1,0.2,2.4,0,4c-0.1,0-0.2,0-0.3,0c-8-0.5-14.7-2.1-22.3-4.1c0.2-1.7,0.5-2.8,1.1-4.1C-235.9-51.9-229-50.9-221.6-49.5
				 M-237-53.6c0-2.2,1-4.7,2-6.4c6.3,0.2,13.2,0.9,19.7,1.8c0.9,0.5,0.2,7.6,0.1,7.5C-222.4-51.5-230.6-51.2-237-53.6 M-201.1-48.1
				c0.2,1,0.2,2.2,0.1,3.4c-1.5,0-3.1,0-4.6,0c-4.2,0-11.2,0.6-14.7-0.6l0.1-4C-215.2-49.5-205.6-50.3-201.1-48.1 M-183.9-40
				c-5.7,1.7-16.2,2.3-21.9,2.3c-2.6-0.8-1.8-2.6-1.7-4.9c6.4-0.7,13.1-0.4,19.7-0.2v-1.5c-3.4,0-11.5,2-11.5-2.9
				c0.7-0.5,1.6-0.2,2.7-0.1c-0.2,0.4-0.5,0.8-0.7,1.2c0.2,0.2,0.4,0.5,0.6,0.8c0.7,0,1.4,0,2.2,0l-0.2-1.9
				c-0.4-0.1-0.8-0.1-1.1-0.2C-187.9-48.7-188.9-48-183.9-40 M-192.6-50.7l-2.6-0.6c-0.6-1.9-1.9-4.6-0.9-4.7c0.4,0,3.5,3.6,3.9,4.9
				C-192.4-50.9-192.5-50.8-192.6-50.7 M-212.6-57.2c4.8,0,9.6-0.6,14.6,0.7c0,1.7,0.1,3.5,0.1,5.3c-0.9,0.1-1.7,0.3-2.5,0.5
				c-4.3-0.3-8.6-0.2-12.6-0.7C-213-53.3-213.2-56.1-212.6-57.2 M-206.7-87.1v-0.2c1.2-0.7,1.2-0.5,3,0.7v0.3l-0.6,0.4
				C-205.6-86.2-206.1-86.6-206.7-87.1 M-206.2-85.3c0.8,0.3,1.6,0.5,2.5,0.8c0,0.3,0,0.7,0,1.1c-0.2,0-0.4,0-0.7,0
				C-205.7-83.6-206.6-84.4-206.2-85.3 M-206.7-89.4c1.1,0,1.4-0.3,2.7,0.7c-0.3,0.2-0.5,0.4-0.7,0.6
				C-205.7-88.5-206.4-88.9-206.7-89.4 M-206.8-90.8l-0.5-1c1-0.3,1.8,0.3,3,0.9v0.6c-0.1,0-0.2,0-0.4,0.1
				C-205.3-90.4-206-90.6-206.8-90.8 M-207.4-93.6c0-0.3,0-0.6,0-0.9c0.9-0.2,1.6,0.4,2.5,1.2c-0.3,0.2-0.5,0.5-0.8,0.7
				C-206.4-92.8-206.9-93.2-207.4-93.6 M-207.8-95.6c0-0.3,0-0.6,0-0.9c0.9,0.3,1.8,0.5,2.8,0.8c-0.5,0.5-1.3,0.5-1.7,0.6
				C-207-95.3-207.4-95.5-207.8-95.6 M-208-98c-0.4-1.3,1.5-0.2,2,0c0,0.1,0,0.8-0.2,0.7C-206.9-97.6-207.4-97.8-208-98
				 M-208.3-100.4c0.6-0.2,1.5-1,2.5-0.3v0.5l-0.6,0.4C-207.2-99.8-208-99.9-208.3-100.4 M-208.4-103.1c0.6,0,1.1,0,1.7,0.1
				c0.1,0.3,0.3,0.5,0.4,0.8c-0.2,0.1-0.3,0.3-0.5,0.5l-1.1-0.2C-208.1-102.4-208.2-102.8-208.4-103.1 M-209.3-104.6v-0.6
				c0.8,0.2,1.7,0.4,2.6,0.6c-0.4,0.4-0.5,0.6-0.8,0.6C-208.2-104.3-208.8-104.5-209.3-104.6 M-210.2-107.5c0.1-0.2,0.2-0.3,0.3-0.5
				c0.8,0.6,1.5,1.2,2.2,1.8c-0.2,0.2-0.3,0.3-0.4,0.6h-0.3C-209.7-106.1-209.7-106.8-210.2-107.5 M-208.2-108
				c-0.6-0.4-1.2-0.9-1.8-1.3l1.6-0.3l0.9,0.8C-207.5-108.2-208-108-208.2-108 M-210.6-110.7c0-0.6,0.2-0.5,0.3-0.9
				c0.8,0.4,1.5,0.7,2.3,1.2c-0.5,0.5-1,0.4-1.5,0.4C-209.8-110.3-210.2-110.5-210.6-110.7 M-211-112.6c-0.1-0.3-0.1-0.5-0.1-0.7
				c0.7,0,1.4,0,2.1,0.1c0.1,0.3,0.2,0.5,0.4,0.9c-0.1,0-0.2,0-0.4,0.1C-209.7-112.4-210.3-112.5-211-112.6 M-211.7-114.7
				c0.9-0.3,1.6-0.5,2.6,0.2c-0.4,0.4-0.6,0.5-1,0.6L-211.7-114.7z M-211.9-117c0.7-0.7,1.6,0,2.6,0.7c-0.2,0.2-0.3,0.3-0.4,0.5
				c-0.4-0.1-0.9-0.1-1.3-0.1C-211.3-116.2-211.6-116.6-211.9-117 M-210.2-124.1c1,1.5,2.5,6.8,3.9,7.7c0.4,4.6,3.6,8.5,4.9,13.3
				c-1.1,0.6-3.1,2.5-3.8,2.6C-206.3-101.7-209.9-121.3-210.2-124.1 M-200.8-95.8c0,1.2-1.2,1.7-2,2.4c0,1.1-0.2,2.4-0.5,3.7
				c-0.1,0-0.2,0-0.2,0.1c-0.1,0-0.2-0.1-0.3-0.1c-0.1-1.7-1.3-6.2-0.3-7.3C-202.9-96.9-202.2-96.7-200.8-95.8 M-203.7-98.6
				c0-0.3-0.1-0.6-0.1-0.8c2.4,0.2,3.8,1.6,5.9,3.3c-0.1,0.1-0.3,0.3-0.5,0.3C-200.1-96.8-201.9-97.7-203.7-98.6 M-203.1-81.9
				c-0.1,0.2-0.5,0.5-0.8,0.6c-1.6-0.2-1.4-0.6-2.1-1.8C-204.8-82.9-204.5-83-203.1-81.9 M-204.1-80.3c0.3,0.2,0.6,0.5,1,0.7
				c-0.1,0.2-0.3,0.4-0.4,0.7h-1.3c-0.2-0.3-0.4-0.6-0.6-0.8C-205-79.9-204.5-80.1-204.1-80.3 M-202.6-77.4c0,0.2-0.5,1.2-0.7,1.1
				c-1-0.4-1.2-0.9-1.6-1.5C-204-77.9-203.8-78-202.6-77.4 M-202.2-75.2c0,0.1-0.1,0.1-0.1,0.2h-0.2c-0.5-0.1-1-0.3-1.5-0.4
				C-203.4-75.7-203-75.9-202.2-75.2 M-202.1-73.2c-0.1,0.3-0.3,1-0.5,0.9c-0.6-0.2-1.1-0.4-1.7-0.6c0-0.2,0-0.4,0-0.6
				C-203.8-73.9-202.7-74-202.1-73.2 M-204-71.6c0.3,0,0.5-0.1,1.1,0.4v0.2c-0.3,0.2-0.5,0.2-0.7,0.2c-0.1,0-0.3-0.1-0.4-0.1
				C-204.1-71.2-204.1-71.4-204-71.6 M-198.3-69.3c-0.4,0.5-6.6,4.5-6.6,4.4c-0.5-0.8-1-1.6-1.5-2.4
				C-204-68.7-201.1-71.4-198.3-69.3 M-206.4-65.8c0,0.3,0.1,0.5,0.1,0.7c-0.7,1-0.7,1-0.8,1c-0.4-0.2-0.8-0.4-1.2-0.6
				C-208.1-66.2-207.9-66.1-206.4-65.8 M-201.4-64.4c0.9,1.2,1.3,2,2,3.9c-2.2,0.7-4,0.8-6.1,0.8c-1.9-0.1-3.6-0.3-5.1-0.7l0.1-15.3
				c-0.3-6-3.9-42.3-2.3-44c0.4,0.8,2.3-0.1,2.7,1.1c-0.1,0.1-0.2,0.3-0.3,0.5c-1.1-0.6-1.4-0.5-2.4-0.5c0.6,6.4,2.9,12,3.3,18.9
				c0.2,1.7,1.1,2.3,0.7,4.7c0.2,0.3,0.4,0.5,0.6,0.7c-1.7,6.3,6.8,19,1.6,25.7c-0.9,0.7-1.7,1.4-2.5,2.1c0,1.1,0,2.1,0,3.2
				C-204.8-61.7-205.5-63.8-201.4-64.4 M-211.5-129.2c-0.1-0.1-0.8,0.2-0.9,0.2c-0.3-0.1-1.2-0.6-1.5-0.7
				C-213.6-129.9-212.8-130.4-211.5-129.2 M-212.8-131c-0.2-0.1-1-0.4-1-0.6c0.7-0.6,0.5-0.7,1.5,0.1
				C-212.4-131.4-212.7-131.1-212.8-131 M-225.2-104.7c0.7-0.7,2-0.2,2.8,0.7c-0.1,0.2-0.2,0.4-0.3,0.7h-1.1
				c-0.4-0.4-0.9-0.7-1.3-1.1V-104.7z M-222.8-101.4c0,0,0,0.1,0,0.1c-0.2,0.2-0.5,0.3-0.6,0.6l-2-1.2c0-0.4,0-0.4,0.1-0.7
				C-224.5-102.2-223.6-101.8-222.8-101.4 M-222.6-104.9c-1.4-0.7-2.2-1.5-1.4-2.6C-223.7-107.4-221.1-106-222.6-104.9 M-225-109.7
				c0.8-0.9,2.2,0.3,3.2,1.2c0,0.2-0.1,0.3-0.1,0.6c-0.2,0-0.4,0.1-0.6,0.1C-223.9-108.1-224.4-109-225-109.7 M-223.5-112.5
				c0.6,0.7,3.3,4,1.3,3C-222.6-109.9-225.3-112.5-223.5-112.5 M-222.3-112.1c-0.8-1.3-0.8-1.4-0.7-2.4c0.6,0.4,1.5,1.2,1.5,2.5
				C-221.8-112.1-222.1-112.1-222.3-112.1 M-223.3-115.8c0.2-0.2,0.4-0.5,0.6-0.6c0.6,0.5,1.2,0.9,1.9,1.4c0,0.1-0.3,0.8-0.5,0.8
				C-222-114.7-222.6-115.3-223.3-115.8 M-223.1-118.2c0.1-0.3,0.3-0.6,0.5-0.8c0.6,0.3,1.3,0.6,2,0.9c0,0.3-0.2,1.6-0.3,1.5
				C-221.7-117.2-222.4-117.7-223.1-118.2 M-220.1-115.5c0.5,1,0.8,2.6,0,3.5c0,0-0.1-0.1-0.1-0.1
				C-220.3-112.4-221.2-115.5-220.1-115.5 M-218.1-110.2c1.4,0.2,2.8,0.4,4.4,1.1c0,0.3,0,0.5,0,0.7c-0.9,0.1-1.7,0.2-2.5,0.3
				c-0.7-0.1-1.4-0.1-2.1-0.2C-218.9-109.4-218.5-109.4-218.1-110.2 M-213.4-106c0.3,11.3,1.2,22.9,0.8,34.4
				c-0.2,0.3-0.3,0.7-0.5,1.1c-1.4,0.5-3.3,0.2-4.6,0.3c-0.8-0.2-1.5-0.4-2.2-0.6c0.4-11.9,0.8-23.8,1.2-35.7
				C-216.7-106.6-215.6-106.6-213.4-106 M-210.9-127.8c-0.1,0.3-0.1,0.6-0.1,1c-0.2,0-0.3,0-0.5,0c-0.7-0.4-1.4-0.7-2-1.1
				c0.2-0.2,0.3-0.4,0.6-0.5C-211.8-128.4-211.2-127.9-210.9-127.8 M-210.6-125.2c-0.2,0.3-1.2,0.4-1.6,0.4c-0.1-0.2-0.9-0.4-1-0.5
				c0.3-0.2,1.6-0.6,2.2-0.6C-211.1-125.9-210.6-125.2-210.6-125.2z M-212.6-123.1c0.2-0.1,0.4-0.2,0.6-0.3c0.4,0.4,0.8,0.7,1.3,1.1
				c-0.2,0.1-0.3,0.3-0.5,0.5C-212.1-121.9-212.9-122.3-212.6-123.1 M-210.2-120.5c-0.1,0.4-0.9,0.8-1.1,0.8
				c-0.5-0.3-0.9-0.6-1.3-0.8c0.2-0.3,0.4-0.6,0.7-0.9C-211.4-121.2-210.8-120.9-210.2-120.5 M-219.8-66.5c-0.6-0.6-0.6-0.6-0.5-1
				c1.5-0.5,7.4-1.8,7.8,0.6C-214.9-66.9-217.7-66.5-219.8-66.5 M-222.2-126.7c0.2,0,1.2,0.9,1.7,1.3c0,0.3,0,0.7,0,1.1
				c-0.1,0-0.2,0-0.3,0C-221.4-124.4-222.1-126.6-222.2-126.7 M-222.1-128.7c0.6-0.6,0.7-0.2,1.8,0.3l0.2,1.6c-0.1,0-0.1,0-0.1,0.1
				C-222-128.4-222-128.4-222.1-128.7 M-219.5-129.8c-0.1,0-0.3,0-0.4,0c-0.6-0.5-1.1-1.1-1.7-1.6
				C-221.6-132.3-219.7-131.2-219.5-129.8 M-221.3-137.3h-0.2c-0.1,0-0.1-0.1-0.2-0.1c0.1-0.3,0.2-0.6,0.3-0.8
				C-220.9-138.2-221-137.9-221.3-137.3 M-221-134c0.1-0.1,0.3-0.2,0.5-0.3c0.5,0.4,0.8,0.9,1.7,1.3c-0.1,0.2-0.2,0.4-0.3,0.6h-0.2
				C-220.3-133.1-220.6-133.4-221-134 M-220.6-136.3h0.9c0.4,0.5,1.3,1.1,0.6,1.8C-220.3-135.1-220.3-135.5-220.6-136.3
				 M-217.7-141.2c0.8-0.3,1.1-0.5,2.2-0.4c1.4,6.3,2.4,22.3,0.8,30.5c-0.7,0-1.4,0-2.1,0c-0.5-0.2-1-0.4-1.5-0.6
				C-219.8-120.4-218.1-132.5-217.7-141.2 M-213.8-135.2c0.4,0.4,1.2,1.6,0.3,2.1C-213.8-134-214.3-134.7-213.8-135.2 M-213-135.6
				c0.5,0.2,1,0.5,1.6,0.7c0,0.2,0,0.5,0,0.8c-0.2,0-0.4,0-0.5,0C-212.5-134.1-213.7-134.9-213-135.6 M-210-132.7
				c-0.2,0.2-0.4,0.5-0.6,0.7c-0.6-0.4-1.2-0.8-1.8-1.1C-211.7-133.4-210.3-133.6-210-132.7 M-208.4-130.4c-0.4,0.3-0.4,0.3-1,0.5
				c-1.6-0.4-3.5-0.6-1.4-1.4C-209.8-130.9-209.2-130.8-208.4-130.4 M-208.1-129c-0.4,0.3-0.7,0.7-1.1,0.7c-0.9-0.2-1-0.5-1.3-1
				C-209.5-129.5-209-130-208.1-129 M-207.3-126.9c0,0.1,0,0.2,0,0.4l-1.4,0.4c-2-0.3-1.9-0.8-0.7-1.7
				C-208.8-127.5-208.4-127.1-207.3-126.9 M-206.4-124.3c0.1,0.2-0.6,0.2-0.9,0.2c-1-0.1-1.9-1.1-2.2-0.6
				C-208.6-126-207.2-125.5-206.4-124.3 M-205.5-122.9c0,0.3-0.1,0.7-0.1,1.1c-0.2,0-0.4,0-0.6,0c-1.2-0.2-1.6,0.1-2.1-0.4
				c0.2-0.5,0.6-1,0.9-1.4C-206.9-123.1-206.2-123.4-205.5-122.9 M-204.8-120.3v0.4c-0.5,0.6-1.2,0.4-1.8,0.3l-0.6-1.3
				C-206.5-121.2-205.7-120.8-204.8-120.3 M-203.9-117.8l-2.6,0l-0.3-0.4C-205.5-119-205.3-119.1-203.9-117.8 M-203.1-116.2
				c-0.3,0.4-1.5,0.4-1.7,0.4l-1.3-0.6c0-0.3,0.1-0.5,0.1-0.7C-205-116.9-204.1-116.6-203.1-116.2 M-202.6-114.2
				c-0.1,0.1-0.2,0.3-0.3,0.4h-0.4c-0.4-0.3-0.8-0.5-1.1-0.8C-204.1-115.2-203.2-115.4-202.6-114.2 M-201.6-112l-0.4,0.3
				c-1-0.1-1.2-0.4-1.6-0.8c0.2-0.3,0.6-1,1-1C-202.4-113.2-201.8-112.7-201.6-112 M-200.5-110.3c-0.2,0.2-0.3,0.4-0.4,0.6h-0.3
				c-0.8-0.3-1.5-0.6-2.3-0.8C-202.9-111.2-201.5-110.8-200.5-110.3 M-199.6-108.8c0,0.1,0,0.3,0,0.4c-0.2,0.3-0.5,0.6-0.9,0.6
				c-1-0.1-1.4-0.2-1.7-0.7C-201.3-108.8-200.7-109.3-199.6-108.8 M-199.3-106.5c-0.4,0.1-0.8,0.2-1.2,0.4c-0.6-0.4-1.5-0.8-1.3-1.3
				C-200.3-107.4-200.2-107.7-199.3-106.5 M-198.4-105.2l0.1,0.5h-2.7c0-0.2,0.1-0.3,0.1-0.4C-200-105.2-199.2-105.2-198.4-105.2
				 M-197.2-103c-0.1,0.2-0.1,0.2-0.9,0.6c-0.5-0.3-1-0.6-1.4-0.8c0.3-0.2,0.6-0.4,0.8-0.6C-198.2-103.7-197.7-103.3-197.2-103
				 M-191.4-85.6c-0.5,0.2-1,0.4-1.4,0.7c-3.1-0.7-3.7-1-5.3-3.8c0.4-0.9,0.8-1.8,1.2-2.7c0.2,0,0.4,0,0.7,0
				c-0.1,2.7-0.9,3.3,1.8,4.4c0.1-0.9-0.5-1.2-0.7-1.5c0.2-1.1,0.9-1.9,1.4-2.8c-1.3-1-1.7-1.8-3.1-2.5c-1.4,0.1-4.2,1.2-5.1,0.7
				c0-0.2,0-0.4,0-0.6c2.1-1.7,3.7-1.5,6.4-1.7c-1.3-3.3-4.3-3.9-7-5.3c0-0.2,0-0.2,0.1-0.6C-194.3-99-192.2-94.5-191.4-85.6
				 M-201-91.6c0.2,0,0.4,0.1,0.8,0.4c-0.7,0.8-1.1,1.6-1.6,2.6c-0.1,0-0.2,0-0.3,0h-0.2C-202-89.8-201.6-90.7-201-91.6
				 M-198.2-92.2c0,0,0.1,0,0.1,0c0,1.1-0.6,3-1.6,3.7c-0.2-0.1-0.3-0.3-0.5-0.4L-198.2-92.2z M-190.9-83.9
				c-1.3,1.1-2.4,1.5-3.5,2.1c0.7,1.3,1.5,2.6,2.3,3.9c-0.1,0.2-0.3,0.3-0.4,0.6c-2.6-0.1-3.8,0.5-5.8,0.7c0,0.9-1.9,2.2-2.7,2.4
				c0-4.7-1.3-8.9-2-13.2c2.5-2.7,6.6,2.5,8.6,4.5C-193.1-83.4-192.3-83.7-190.9-83.9 M-189.3-64.9h-0.3c-4.1-0.8-4.5-2.6-6.8-5.8
				l-3.5-0.1c0-0.1-0.1-0.1-0.1-0.1c5.5-2.5,2.1,0.6,6.5,0.4c-0.6-0.8-1.2-1.5-1.7-2.3c-1.7,0.1-3.4,0.3-5.1,0.5
				c-0.2-0.2-0.3-0.3-0.5-0.5c2.5-0.8,3.4-1.2,6.5-1.2l1.1,1.4c0.4,0,0.8,0,1.1,0c-2.6-2.5-2.8-2.4-5.8-2.8v-0.4
				c0.9-0.7,3.7-0.4,5.2-0.4C-190.6-72-188.6-70.3-189.3-64.9 M-170.3-48.2c-0.1,0-0.2,0-0.2,0c-2.8-1-4.1-1.9-6.2-3.6
				c6.4-3.9,5.8-5.1,7.3,1.6C-170.3-49.6-170.3-49.4-170.3-48.2 M-165.3-45.8h-0.3c-1.8-0.6-2.8-1.3-4-2.2
				C-169.6-50.3-162.1-50.2-165.3-45.8 M-178.9-52.9c-3.3-1.9-4.9-3.4-7.3-5.9c2.8-1.3,5.5-0.9,8.6-0.8c0.4,0.7,2.6,4.2,2.3,5.4
				C-176.4-53.9-178.3-52.9-178.9-52.9 M-188.7-60.8c-0.4-0.4-1.1-0.6-1.1-1.1c0.1-2.3,5.3-0.5,7.8-0.2
				C-184.7-61.6-188.4-60.8-188.7-60.8 M-183.7-67.6L-183.7-67.6c0.3,0.9-0.2,1.3-0.8,2.2l-0.3-0.5C-184.5-66.5-184.1-67-183.7-67.6
				 M-186.1-65c-0.1,0-0.1,0-0.1,0c-0.9-1.3,0.3-2.3,0.9-3.2c0.2,0.1,0.4,0.2,0.7,0.4C-184.7-67.6-185.9-65.6-186.1-65 M-187.9-64.2
				h-0.2c-0.1-0.1-0.3-0.2-0.4-0.2c0-1.2,0.7-2.4,1.1-3.4c0.1,0.1,0.3,0.2,0.4,0.3C-187.1-66.3-187.4-65.3-187.9-64.2 M-191.3-80.1
				c3.5-1.7,3.8,0.9,6.6,4.3c0,1.1-2.3,7-2.6,6.8c-1.2-0.9-0.6-1.5-0.3-2.3C-188.9-73.8-191.3-77.5-191.3-80.1 M-180.5-84.6
				c0.7,0.5,1.4,0.9,2.1,1.4c0,0-2.2,14.9-4.3,13.7c-1.4-1.5,5.5-12.7,2.9-14.4c-2,1.8-3.3,10.7-5,14.2c-0.5,0-0.4-0.1-0.5-0.3
				C-184.6-73.7-183.6-82.5-180.5-84.6 M-177.5-82.9c0.8,3.5,0.5,8.1,0.7,11.7c-0.9,0.4-1.7,0.7-2.5,1.1l-0.4-0.4
				C-179.5-73.9-179.6-80.3-177.5-82.9 M-179.7-86.3c0-2.8,1.4-4.4,4.1-4.3c1.2,1.5,1.4,2.7,1.6,5.2c-0.4,0.2-0.9,0.4-1.2,0.6
				C-177.6-85-178.2-85.1-179.7-86.3 M-175.6-83.4c2.4,1.3,2,6.6,0.5,9.1h-0.1c-0.8-2.3-0.7-6.4-0.8-8.7
				C-176-83-175.6-83.4-175.6-83.4z M-172.7-86.1c2.5,0,0.5,3.7-0.1,4.9h-0.4c-0.1,0-0.3-0.1-0.4-0.1
				C-173.8-83.8-173.6-84.1-172.7-86.1 M-166.9-81.5c-0.6,5.7-5.5,17.2-11.9,18.2c-1.3-0.2-2.6-0.4-3.9-0.5c0-5.7,5.9-4.6,9.1-9.3
				c1.2-3.6,2.1-7.2,3.7-10.4C-168.4-83.5-168.1-82.8-166.9-81.5 M-164-61.1c-2.9,2.1-6.3,5.1-9.7,5.6c-0.6-1.7-1.3-3.6-1.7-5
				C-172.6-62.3-164-70.1-164-61.1 M-158.7-62.4c0.3,1.4,0.9,2.8,0.6,4.7c-1.9,1.3-7.9,6.6-9.3,6.9c-0.9-1.7-1.5-3.2-2.2-4.7
				C-168.2-56.5-159.5-62.9-158.7-62.4 M-163.1-47c-3.7-4.7,0.2-5.4,4.1-8c0.3,0,0.6,0.6,0.9,1.2C-157.5-48.9-159.5-48.9-163.1-47
				 M-158.4-47.2l-0.1,3.7c-0.1,0-0.2,0-0.3,0c-1.9-0.1-3.1-0.4-4.7-1C-163.8-45.4-159.2-47.4-158.4-47.2 M-188.5-29.3
				c2.1-1.4,4.2-0.9,6.9-1.4c2.4-0.9,4.6-2.7,7.1-1.1c-3.8,2.8-6.3,5.9-10.9,5.9C-187.4-26.7-187.7-27.8-188.5-29.3 M-194.3-31.9
				c0-1.4,0.1-2.8,0.2-4.2c3.1-1.9,6.5-1.5,10.2-1.7c0.2-0.5,0.5-0.9,0.8-1.4c0.3,0,4.4,4.2,5.2,5c-5.6,1.9-9,3.1-14.5,3.3
				C-193-31.2-193.7-31.6-194.3-31.9 M-242-30.7c0.4-1,0.8-2.1,1.2-3c7,0.6,13.5,3,20.7,3.8c0-2.3,0.2-4.6,0.6-6.7
				c4.7,0.1,22-1.5,23.4,1.5c0.3,1.3,0.6,2.7,0.7,4.2c-2.8,2.9-4.7,5.8-8.5,6.5c-1-0.6-5.5-3.9-4.1-5.1l4.1,0.5
				c0.5,1.5-0.1,2.9,0.6,4.3c1-0.9,1-2.8,1.2-4.1c1.4-0.2,2.5-0.3,4.3-0.2c-0.1-0.5-0.1-1-0.2-1.5c-7.3-0.9-15-3.1-21.5,0.6
				c-10.6,9.1-7.7-1-17-2.3C-238.5-31.7-240.4-30.7-242-30.7 M-257.3-35c0.4-1.9,0.9-3.2,1.6-4.7c4.2,1.4,8.9,2.8,13,5.5
				c0.1,1.1,0.2,3.4-0.7,4.3C-247.3-31.5-253.8-35-257.3-35 M-265-38c1.7,0,4.4,2.4,6.1,3.5c-0.7,0.9-2.9,2.1-3.9,2.4
				C-265.1-33.7-264.8-35.5-265-38 M-266.5-45.9c0.8,0,8.1,4.1,9.2,5.3c-0.3,0.8-2,4-2.1,4C-262.4-39-268.7-41.6-266.5-45.9
				 M-268.1-53.4c0.1-0.1,0.3-0.3,0.4-0.4c2.2,2.1,3.9,3.3,6.8,4.8c-0.3,1.2-0.7,2.4-1,3.6c-0.1,0-0.1,0-0.1,0
				C-266.5-47.6-268-48.4-268.1-53.4 M-269.3-61.2c2.5,2.3,10.4,6,11.6,8.7c-1,1.2-1,1.4-2.3,1.6C-262.7-52.2-272.1-57.7-269.3-61.2
				 M-268.7-100.4c0,3,0,3-0.1,2.9c-1.3-0.8-2.7-1.9-2.7-3.3C-270.1-101.5-270.6-101.5-268.7-100.4 M-264.7-102.4
				c-2.4-1.1,0.9-3.4,1.6-3C-263.4-104.5-263.9-103.3-264.7-102.4 M-259.6-102.9c-0.4,3.6-2,6.3-3.7,9.7l0.8,0.1
				c0.3,1.3,3.9,14.6,3,16.5c-2-0.8-3.1-2-4.8-2.2c0,4.4,7.2,5.1,8.7,8.3c-1,1.4-2.4,3.9-3.9,4.5c-11-5.9-9.9-6.9-8.3-18.3
				c1.1-0.9,1.6-0.9,3.2-1.1c0.4,0.8,0.9,1.7,1.3,2.6c0,0,0.1,0,0.1,0c1-1.1-0.6-3.1-1-3.9c-4.8-0.5-7.3-3-11-5.8
				c0-0.2-0.1-0.4-0.1-0.6l-3-0.5c0-0.3,0-0.5,0-0.8c1.8,0.5,3.6,1,5.4,1.5c0,0.2,0,0.4,0.1,0.6c0.6,0.1,3.2,1.2,4.1,1
				c-3.9-5-13.5-6-10.2-13.3c1.3-0.6,1.1,1.5,1.7,2.5c0.6-0.6,1.1-1.2,1.7-1.8c0.3,0.2,0.7,0.4,1,0.6c0,0.5,0.1,1.1,0.1,1.6
				c-0.2,0.1-0.4,0.2-0.6,0.4v0.7c2.4,0,2.3-2.1,3.3,1.6c1,1.8,2.9,2.9,4.8,4.2c0.9-0.3-0.5-6.1-0.6-6.7c-1-0.5-2-1-2.9-1.4
				c0-0.5,0.6-0.9,0.9-1.2c2.1,0.6,3.4,3,5.3,5c1.9-0.5,2.7-2.3,3.9-3.8C-259.9-103-259.8-102.9-259.6-102.9 M-259.3-86.3h-0.2
				c-0.2-0.1-0.4-0.2-0.6-0.3c0.1-0.9,0.4-1.4,0.8-2h0.5C-258.8-87.8-258.7-87.1-259.3-86.3 M-258.1-92.8c0,0.5-1.2,3.5-1.8,2.8
				c-1.6-1.7-1-6.4,0.5-8C-258.5-97-255.7-94-258.1-92.8 M-259.9-124.7c0.7-0.8,2.5-3.2,3.4-3.4c0.2,0.1,0.3,0.3,0.5,0.5
				c-0.4,0.4-3.1,3.3-3.5,3.3C-259.6-124.5-259.7-124.6-259.9-124.7 M-258.1-129.4c-0.9,1.8-1.6,3-3.4,3.9
				C-261.5-127.1-259.8-129.8-258.1-129.4 M-254.2-132.1c-1.7-0.4-2.7-6.7-2.9-8c0.1-0.2,0.3-0.3,0.4-0.5
				C-255.2-139.4-253.8-134.1-254.2-132.1 M-255.1-117.3c-0.8-0.2-1.5-0.4-2.2-0.5c-0.8-1.7-1.7-3.8-1.7-5.3
				c0.1-0.1,3.5-3.2,3.5-1.8c-1.5,1.4-2.1,3.7-0.6,5.9c0.3-0.2,0.6-0.4,0.9-0.6c-0.1-2.2,0.3-3.6,0.8-5.5c0-2.6-2.2-4.2-3-6.2
				c0.2-0.1,0.3-0.2,0.5-0.4c1.4,0.5,4.1,4.4,4.4,4.4c0.1-0.2,0.3-0.4,0.4-0.5c-1.1-3.9-1.7-7.2-2.2-10.7l0.4-0.5h0.2
				C-250.9-133.3-250.9-122.8-255.1-117.3 M-244.8-91.3l-0.4,2.7c-1.4-0.7-2.9-1.5-4.3-2.2c0,0,0.5,1.4,0.6,1.6
				c1.4,2.3,7.4,4.9,10.2,3.8c0.7,0.5,1.3,1.5,2,2.5c0.2-0.2,0.4-0.3,0.7-0.5c1.3,1.8,0.1,14.2,2.6,19.6c0.6,0,1.3-0.3,1.9-0.5
				c-1.4-6.6-2.2-6,2.5-9c1.4,1.2-0.4,6.7-0.8,9c0.2,0.1,0.3,0.1,0.4,0.5c0.2,0,0.4,0,0.6,0c0.2-0.4,0.5-0.9,0.8-1.2
				c0.2,0,0.2,0,1.5,0.7l0.1,1.7c1.5-1,1.9-11.1,1.7-12.6c-0.6-0.3-1.3-0.6-1.8-0.8c0-0.4,0.1-0.8,0.2-1.2c0.6,0,1,0.7,1.6,1.5
				c0.2-0.1,0.4-0.1,0.7-0.2c1.3-3.9,0.6-9.2,1.3-13.1c1.2-1.3,1.7-2.2,2.4-3.7c0,0,0.1,0,0.1,0.1c-0.9,10.1-1.2,20.5-1.6,30.7h1.6
				l0.5-3.3c2.2,0,4.5,0,7,0.4l0.1,4c-0.2,0-0.3,0-0.5,0c-10.8-0.5-23.7-1.2-32.8-7.5c0-5.5,3.5-10.5,2.4-16.6c-0.4,0-0.7,0-1.1,0
				c-0.5,3-1.6,13.6-2.8,15.8c-0.5-0.1-0.9-0.2-1.3-0.3c-0.4-4.6,0.2-9.2-0.5-13.3c-2.9-6-5.8-12.2-8.3-18c-0.5-3.8-0.5-7.4-0.4-11
				c1-0.5,1-0.9,2.3-0.6c0.4,0.8,0.9,1.5,1.3,2.7C-253.1-99.9-252.6-97.8-244.8-91.3 M-242.2-117.5c-7.5,5.3-7.5,5.1-5.4,13.9
				c2.6,3,3.2,2.9,2.3,7.3c-1,0.3-1.9,0.8-2.8,1c-0.6-0.4-1.1-0.9-1.6-1.3c-0.3-2.7-1.4-4.6-2.4-6.8c-0.1,0-0.2-0.1-0.3-0.1
				c-0.1-2.6-0.3-4.7-0.7-6.9c2.4-2.3,9.1-6.4,8.5-9.9C-243.5-121.3-241.6-119.2-242.2-117.5 M-234.3-100.5
				c-1.1,1.1-2.9,2.7-4.6,2.3c-1.4-1-1.4-1-1.5-1c1,1.7,2.9,4.3-0.6,4.9c-2.7-0.8-1.6-4.6-2.6-6.3c-8.9-13.2,0.8-19.4,9.7-9.3
				c-0.7,1.5-3.9,2-4.3,2.7c0.8,0.5,1.5,1,2.3,1.6c0,0.3-2,2.9-2.3,3.2c1.9,0.9,0.9-1.7,3.1-1C-236.3-100.9-234.3-102-234.3-100.5
				 M-233.4-95.3c-0.3-0.5-0.7-0.9-1-1.3C-233.5-98.9-232.5-95-233.4-95.3 M-233-99.7c0.5,0.1,0.8,0.1,1.2,1
				c-0.1,0.2-0.3,0.4-0.4,0.6h-0.4c-0.2-0.2-0.5-0.5-0.7-0.7C-233.2-99.1-233.1-99.4-233-99.7 M-232.3-102.2c0.3,0.2,1.7,1,1.1,2
				C-232.1-100.9-232.7-101.2-232.3-102.2 M-232.1-104.3c0.7,0.2,1.1,0.5,1.7,1.6c-0.1,0.1-0.3,0.3-0.4,0.3
				C-231.4-103.1-232.3-103.7-232.1-104.3 M-230.9-107c0.5,0.2,0.8,0.2,1.1,1.4c-0.4,0.6-0.4,0.6-0.5,0.6c-0.3-0.3-0.7-0.6-1.1-0.8
				C-231.4-106.8-231.4-106.5-230.9-107 M-230.6-109.1l1.7,1.2c0,0,0,0.7-0.2,0.5c-0.7-0.3-1.4-0.6-2-0.9c0-0.2,0-0.3,0-0.5
				C-231-108.8-230.8-109-230.6-109.1 M-229.1-109.3l-1.5-1.9C-229.3-113.5-228.8-108.9-229.1-109.3 M-229.9-113.9
				c0.3-0.1,0.7-0.1,1.1-0.1c0.2,0.2,2,1.7,0.6,2.5C-229.7-112.5-229.5-112.8-229.9-113.9 M-229-115.2c0.1-0.3,0.3-0.7,0.4-0.9
				c0.4,0,1.9,1.1,1.1,2C-228-114.5-228.5-114.8-229-115.2 M-227-115.8c-0.6-0.5-1.2-0.9-1.7-1.4
				C-226.5-120.2-225.7-116.3-227-115.8 M-227.4-120.7c0.3,0,0.5,0.1,0.8,0.1c0.2,0.4,0,1.9-0.4,1.5c-0.4-0.6-0.7-1-0.8-1.2
				C-227.6-120.4-227.5-120.5-227.4-120.7 M-226.6-123.4c0.4,0.6,1.4,1.5,1.4,2.6c-0.2,0-0.3,0-0.4,0.1c-0.8-0.2-1.4-0.9-1.8-1.3
				c0.2-0.5,0.4-0.9,0.6-1.4H-226.6z M-226-125.2c0.4,0.2,0.8,0.4,1.2,0.7c0,0.2,0,0.4,0,0.6c-0.1,0-0.2,0-0.3,0
				c-1.1-0.6-1.1-0.6-1.3-0.9C-226.3-125-226.2-125.1-226-125.2 M-226.1-135.4c0.3,0.3,0.6,0.6,0.9,1c-0.1,0.4-0.1,0.8-0.1,1.3
				c-0.2,0-0.3,0-0.5,0c-1,0-0.7-1.6-0.7-2C-226.4-135.2-226.2-135.3-226.1-135.4 M-224.3-135.5c-0.8-0.7-0.9-0.9-1.1-1.7
				c0.1-0.1,0.2-0.2,0.3-0.3c0.3,0,0.7,0.1,1,0.2C-224.2-136.9-224.1-135.4-224.3-135.5 M-223.9-133.1c0.5-1,0.5-0.8,1.5,0.1
				c0,0.2,0,0.2-0.3,0.7h-0.2C-223.2-132.6-223.5-132.9-223.9-133.1 M-223-137.9c-0.3-0.5-0.6-0.9-0.8-1.4
				C-223-141.4-222.2-138.2-223-137.9 M-221.8-134.7c-0.3,0.2-0.3,0.2-0.4,0.1c-0.8-1-0.6-0.9-0.3-1.8
				C-222.2-136.3-221.7-135.3-221.8-134.7 M-222-141.4c0.1,0.3,0.3,0.7,0.4,1.3c-0.1,0-0.2,0.1-0.2,0.1
				C-222.4-140.6-222.1-141-222-141.4 M-226.5-145.6c1.2-1.7,4.4-2.8,5.9-0.4C-225.8-145.6-225.8-145.6-226.5-145.6 M-238-144.8
				c1-0.6,7.1-1.9,7.9-0.7c-2.6,0.6-5.1,1.1-7.5,1.3C-237.8-144.4-237.9-144.6-238-144.8 M-238.8-147.7c0.8-1.2,6.5-1.9,8.3-2.1l1,1
				c-3,1.4-6,1.3-8.9,1.5C-238.6-147.4-238.7-147.5-238.8-147.7 M-229.4-152c-0.1,0.3-0.3,0.5-0.4,0.8l-2.3,0.1
				c-0.1,0.1-0.1,0.2-0.1,0.3c-1.5-0.5-2.7,0.8-4.1,0.8c-2.1-0.1-2.1-0.1-2.5-0.2C-238.1-152-231.3-153.3-229.4-152 M-228.1-150.8
				c0.7,0.5,1.5,1,2.2,1.5v0.8c-0.8,0.6-1.5,1.1-2.2,1.7l-0.5-0.3C-228.7-148.3-229-150.2-228.1-150.8 M-220.7-152
				c-0.7,0.5-3.2,1.9-3.4,1.9c-1.2-0.7-2.4-1.3-3.5-2c0.6-0.6,5.6-0.2,6.9-0.2C-220.7-152.3-220.7-152-220.7-152z M-218.5-151.1
				c0,0.5-0.1,3.4-0.6,2.8c-0.8-0.3-1.5-0.6-2.3-0.9c0-0.3-0.1-0.5-0.1-0.7c0.8-0.6,1.6-1.1,2.4-1.7
				C-218.9-151.4-218.7-151.3-218.5-151.1 M-214.5-155.9c-0.7,0.3-1.4,0.6-2,0.9c-3.6-0.6-4-4.6-1-6c0-1.2,0-2.4,0-3.6
				c-1.6,0-3.3,0-4.9,0c-1.8,4.6-10-2.8-2.1-4.5c1.5,0.6,1.6,0.3,2.3,2.1c1.6,0,3.2,0,4.8,0c0-1.4-0.1-2.8-0.1-4.2
				c-7-2.8,6.9-10.2,3.3-0.4l-0.9,0.4c0,1.4,0,2.8,0,4.2c1.3,0,2.7,0,4,0c0.8-2.6,2.7-2.2,4.8-1.3c1.8,5-2.9,6.9-4.6,3.7
				c-1.4,0-2.8,0-4.2,0c0,1.2,0,2.5,0,3.8C-213-160-213.9-157.6-214.5-155.9 M-215.4-151c0.1,0.2,0.3,0.5,0.4,0.7
				c-0.3,0.3-0.6,0.7-0.9,0.7C-218.5-149.9-217.5-151.2-215.4-151 M-215.1-147.1l-2,0.5c-0.1-0.2-0.2-0.4-0.3-0.6
				C-217.2-147.2-214.7-148.4-215.1-147.1 M-215.9-152.6c-0.4-0.2-0.8-0.3-1.2-0.5C-217.5-155.5-214.1-153.5-215.9-152.6
				 M-213-144.9c0,0.7,0,0.9-0.5,1.7c-2.2,0-4.4,0-6.5,0c-0.2-0.9-0.1-1,0.1-1.6C-218.3-144.9-214.5-145.7-213-144.9 M-213-141.1
				c-0.3-0.1-0.6-0.1-0.8-0.1c0.1-0.2,0.2-0.5,0.3-0.7C-213.1-141.8-212.7-141-213-141.1 M-211.9-138.9c-1.1-0.4-1.8-0.9-1.6-1.6
				c0.5-0.1,0.8,0.1,1.6,0.4C-212.3-139.4-211.7-138.9-211.9-138.9 M-210.7-137.6c-0.1,0-0.2,0.1-0.2,0.1c-0.6-0.2-1.1-0.5-1.7-0.6
				c0.1-0.2,0.2-0.3,0.3-0.5c0.5,0.2,1,0.3,1.6,0.6V-137.6z M-209.5-136.3c0,0.1-0.1,0.3-0.1,0.5c-0.5,0-1,0.1-1.5,0.2l-1.5-1.1
				C-212.5-137.8-209.7-136.4-209.5-136.3 M-208.1-134.4l-0.2,0.3c-0.9,0-1.8,0-2.7,0l-0.4-0.4C-210.2-135-210-135.1-208.1-134.4
				 M-207.4-132.9c-0.4,0.3-0.9,0.7-1.2,0.7c-0.3-0.2-0.6-0.4-0.9-0.5c0.2-0.3,0.4-0.7,0.6-1C-208.7-133.7-208.1-133.3-207.4-132.9
				 M-206.1-131.1c-0.5,0.4-0.8,0.7-1.3,0.7c-0.5,0-0.7-0.7-0.7-0.8c0.8-0.4,0.9-0.7,2-0.5C-206.2-131.5-206.1-131.3-206.1-131.1
				 M-204.5-129.3c-1.8,1-1.8,1-1.9,1c-0.8-0.6-0.6-0.6-0.2-1.2c0.7,0,1.4,0,2.1,0.1C-204.5-129.4-204.5-129.4-204.5-129.3
				 M-203.5-127.4c-0.8,0.3-2.1,0.9-2.5,0.9c-0.2-0.3-0.3-0.6-0.4-0.9C-205.2-127.7-204.7-128.1-203.5-127.4 M-202.3-125.7
				c0,0.2-0.1,0.5-0.1,0.8c-0.8,0-1.6,0.1-2.3,0.2c-0.2-0.2-0.4-0.4-0.6-0.6C-204.5-126.2-203.6-126.1-202.3-125.7 M-201.1-122.9
				h-2.6l0.1-0.7c0.8-0.1,1.7-0.1,2.5-0.1V-122.9z M-200.2-122.1c-0.4,0.3-0.4,0.3-1.8,0.8c-0.3-0.2-0.7-0.4-1-0.6
				C-202.3-122.1-201.5-122.2-200.2-122.1 M-200-119c-0.5-0.3-1.1-0.6-1.5-0.9C-201.6-124.1-197.8-117.8-200-119 M-198-118.6
				c0,0.2-0.3,1.7-0.6,1.6c-0.8-0.3-1.2-0.7-1.5-1C-199.9-118.2-198.7-118.8-198-118.6 M-196.3-115.2c-0.5,0-0.9,0-1.4,0
				c-0.3-0.3-0.6-0.5-0.9-0.7c1.2-0.7,0.9-0.9,2.2,0.1C-196.4-115.6-196.4-115.4-196.3-115.2 M-195.2-113.8
				c-0.6,0.1-1.1,0.3-1.6,0.4c-0.6-0.2-1.1-0.4-1.6-0.5c0.1-0.3,0.2-0.6,0.4-0.8C-196.9-114.8-196.7-114.8-195.2-113.8
				 M-196.7-111.2l-0.9-1C-194.8-113.8-193.7-112.5-196.7-111.2 M-193.7-111.7c0,1.3-1.8,1-1.2,0.9c-0.2-0.1-1,0.2-1.2,0.2l1.3-1.2
				C-194.3-111.8-194.2-111.7-193.7-111.7 M-192.4-109.3c-0.6,0.3-0.6,0.3-1,0.3c-1.6-0.5-1.6-0.5-1.7-0.7
				C-194.7-110.1-192-110.9-192.4-109.3 M-191.3-108.1c-2.2,0.6-2.2,0.6-2.6,0.6c-0.1-0.1-0.3-0.3-0.4-0.4c0.8-0.2,1.9-1,3-0.8
				C-191.3-108.5-191.3-108.3-191.3-108.1 M-189.8-105.4c-1.5-0.2-2.2-0.5-2.9-1.1C-189.6-107.3-189.8-105.4-189.8-105.4
				 M-191-104.2c-0.1-0.1-0.2-0.2-0.3-0.4c1.1-0.4,1.3-0.6,2.8,0C-189.1-103.8-190.4-104.2-191-104.2 M-189.5-99.3
				c1.9,0,3.7-1.2,5.8-0.1c-0.3,2,0.7,3.9,0.1,6.2c-0.9,0-1.4-0.7-1.8-1v-0.3c0.7-0.6,0.7-0.6,1.7-0.7c-0.1-0.3-0.3-0.6-0.4-0.8
				c-1.3-0.2-2.7-0.5-3.6,0c1.5,1.5,3.4,5,4.9,7.3c0.5,0,1,0,1.5,0l-1-1l1.4-1.5c0.1,0,0.4,0.1,0.7,0.5c-1,2.4-0.1,2.9-2.4,4.4
				c-0.1,1.3-1,9.5-2.1,8.2c-2.3-3-4-6.5-6.9-2.9l-0.4-0.4c0.9-0.7,1.8-1.5,2.8-2.2c-0.4-0.3-0.7-0.6-1.1-0.9l0.9-0.6
				c-1.2-5.1-1.5-9.2-4.6-12.9c-1-0.7-5-3.6-5.2-4.1c0.7,0,1.9,0.6,2.9,0.6c-2-7.6-7.3-14.9-8.6-21.6c4,3,6.8,13.6,11.5,16.6
				c0,0.2-0.1,0.5-0.1,0.8C-191.7-104.5-191.2-101.7-189.5-99.3 M-183.2-91.6c-0.2-0.2-0.4-0.4-0.6-0.5c0.2-0.6,0.2-0.5,0.9-0.3
				c0,0.2,0,0.4,0.1,0.6C-183.1-91.7-183-91.6-183.2-91.6 M-187.2-100.6c-0.5,0.1-1,0.3-1.5,0.4c-0.1-0.2-0.3-0.4-0.4-0.5
				c0.4-0.2,0.7-0.5,1.1-0.7C-187.7-101.1-187.5-100.8-187.2-100.6 M-181.2-111.3c8.8,1.1,8.7,2.7,8.4,11.9
				c-0.5,4.3-3.1,6.6-6.8,7.2l-2-0.3c0-0.6,0-1.2,0-1.8c0.5-0.3,1-0.5,1.6-0.7c0-1.6-1.4-1.2-1.4-1.7c1.4-1.5,3.4,1.3,3-1.7h-3.2
				c0-1.7,0.9-1.3,0.7-2.6c-1.6-0.1-3.3-0.2-4.9-0.2C-185.8-105.7-183.5-107.8-181.2-111.3 M-164.9-107.9c-1.4,2.1-3,11.9-6.8,11.9
				h-0.1c0-11.2,2.1-14.8-8.9-16.3c-0.3-0.5-0.5-0.9-0.5-1.1c4.4-2.8,18-1.1,22.9,0.6C-160.6-111.3-162.8-109.7-164.9-107.9
				 M-156.9-100.6c-0.1,0-0.1,0-0.2,0c-0.7-1-1.2-1.8-1.5-2.5c0,0,0.1,0,0.1,0C-158.2-102.8-156.6-101.5-156.9-100.6 M-153-95v-0.9
				c-0.4-0.2-0.8-0.4-1.1-0.6v-0.4c0.5-0.1,0.9,0.1,1.5,0.5c-0.3,2.6-1.3,2.8-3.2,3.6c-0.1-0.1-0.3-0.1-0.4-0.2
				C-154.1-98-155.6-93.6-153-95 M-144.8-100.8c0.5,6.9-8.3,8.5-11.1,13.9c1.3,0,7.9-3.3,8.2-2.9c-3.2,2.6-7.4,6.7-11.4,7.2
				c-0.5-0.5-1-1-1.5-1.5c-1.1,0.7-3.6,9-3.6,10.6l1.1-0.1c0.7-2.4,1.4-4.9,2.1-7.3c0.8,0.1,1.7,0.2,2.5,0.4
				c0.6,4.5-0.1,10.6-0.4,15.6c-0.6,0.5-3.6,3-4.2,2.8c-0.7-1.2-1.4-2.5-2-3.7c1.5-1.3,3.1-2.9,4.5-4.4c-1.9-2.1-9,6.5-11,4.4
				c2.6-5.9,7.2-19.8,11.3-25.3c-0.6-3.5-5.4-7.3-4.4-9.2c1.7,0.9,5.1,4.1,6.9,4c0.9-1.9,1.6-3.6,3.4-4.6c0.3,0.2,0.7,0.4,1,0.6
				l0.2,1.8c-3,1.6-4,3.5-4.8,7.2c3.8,2.4,6.4-6.3,6.9-6.3c0.5,0.5,0.6,0.6,1.6,0.4c0.4-1.7-0.7-2.1,0.4-3.3l1.1,0.2
				c0,0.5,0,1,0,1.6c1-0.7,1.5-1.1,2.1-2.3C-145.3-101-145.1-100.9-144.8-100.8 M-160.6-95c0.3,0,0.6,0,0.9,0c-0.2-1.6-3-3.9-4-3.9
				C-162.8-97.7-161.7-96.6-160.6-95 M-160-66.1c-0.2-0.3-0.4-0.6-0.5-1c-1.4,0.2-1.5,0.2-2.1,1.7c0.2,0.3,0.4,0.5,0.6,0.8
				C-161.5-64.6-160.4-65.4-160-66.1 M-181.6-108.8v1c2.6,0,5.3-0.1,7.9-0.1C-176.8-110.1-178.5-109.4-181.6-108.8 M-181.7-106.1
				c0,0.3-0.1,0.6-0.1,1c1.4-0.1,1.8-1,2.6,0.5c-0.3,0.3-0.7,0.6-1,0.9c0.1,0.2,0.3,0.5,0.4,0.8c1.1,0,2.2,0,3.4,0.1v-0.8l-0.8-0.1
				c-0.6-0.9-0.2-1.2,0-1.9c0.4,0,0.8-0.1,1.3-0.1v-0.8C-178.9-107.2-179.1-107-181.7-106.1 M-179.4-102.4c-0.2,0.3-0.4,0.5-0.4,1.1
				c1.3,0,2.5-0.1,3.8-0.1C-177.2-101.8-178.3-102.1-179.4-102.4 M-185.2-99.2c-0.3,0.4-0.5,0.8-0.8,1.3l-2.2-0.1l-0.2,0.4l0.7,0.6
				c1.2-0.1,2.4-0.1,3.6-0.1l-0.9-2.1C-184.9-99.2-185.2-99.2-185.2-99.2z M-214.6-158.6c-2.2-4.3-6,0.4-1.9,1.9
				C-215.2-157.1-215.1-157.3-214.6-158.6 M-214.6-173.3c-1.2-2.2-2.7-2.3-3.8,0c0.5,1.1,0.4,1.1,1.9,1.7
				C-215.4-172-215.1-172.2-214.6-173.3 M-210.3-165.9c0.5,1.1,0.4,1.3,1.9,1.9C-204.2-165.1-208.6-170.4-210.3-165.9 M-223.2-165.6
				c0-4.4-6.6-0.3-1.7,1.7C-224-164.1-223.6-164.9-223.2-165.6 M-238.7-109.2c-0.6-0.3-0.8-0.1-1.1-0.1c-0.2-0.6-0.5-1.2-0.7-1.8
				c-1.7-0.6-3.4,1.5-3.4,3.2c0.3-0.3,0.6-0.6,0.9-0.8c0.3,0.2,0.5,0.5,0.8,0.7c0,0.3-0.5,0.8-0.8,1.2c0.3,0.1,0.6,0.3,1,0.5
				C-240.6-107.1-239.8-107.8-238.7-109.2 M-246.3-109.4c1.4,0,3.9-2.5,5.5-3.4c-0.2-0.4-0.4-0.7-0.6-1
				C-243.7-114-245.5-111.3-246.3-109.4 M-246.1-100.8c-3.4-5-3.7-5.5-3.8-11c-4.2,3.3,1.6,10.8,2.9,15.3c0,0,0,0.1,0,0.1
				C-246.1-96.8-246.1-100.1-246.1-100.8 M-242.4-83.6c-1.6,2.2-1.6,9.5-1.6,12.3c0,0,0.1,0,0.1,0c0,2.2-1.3,2.9,1.3,4.2
				c0.1,0,0.2,0,0.3,0c0.5-5.2,1.2-10.9,0.8-15.9C-241.8-83.1-242.1-83.3-242.4-83.6 M-240.3-83.6c0.1,5.7-0.2,11.8,0.5,17.7
				c0.4,0,0.8-0.1,1.3-0.1c-0.4-5.9-0.7-11.8-1.1-17.6H-240.3z M-239-83.9c0,6.1,1.2,12.4,2,18.7c0.3,0.1,0.6,0.3,1,0.5
				c0.1,0,0.1,0,0.2,0c-0.5-6.5-1-13.2-2.5-19.3C-238.6-84-238.8-84-239-83.9 M-263.7-95.1c1.3-1.5,2.7-2.7,2.3-4.7
				c-1.3,0.7-1.9,3.1-2.3,4.6C-263.8-95.2-263.8-95.2-263.7-95.1 M-269-100.1c-1.4-0.4-0.2-1.2-1.7,0.1c0.2,0.3,0.5,0.6,0.8,0.8
				C-269.7-99.2-269.2-99.9-269-100.1 M-254.6-38c0,1,0.2,1.4,0.9,2.5c0.3-0.2,0.6-0.4,1-0.6C-252.9-38.4-253.2-38.6-254.6-38
				 M-217.4-35.7c-0.4,0.4-0.7,0.9-1.1,1.3c0.4,0.3,0.8,0.7,1.2,1.1c0.2,0,0.2,0,1.6-0.7c0.1-0.5-0.2-1.2-0.2-1.3
				C-215.8-35.1-217.4-35.7-217.4-35.7z M-192-34.7c0,0.8,0.7,1.2,1.6,1.5c0.4-0.1,0.9-0.1,1.3-0.1c0.1-0.5,0.1-1,0.1-1.1
				C-190.2-35.1-191.2-35.3-192-34.7 M-161.1-49.3c0.3-1.2,0-1.1-0.5-1.8c-1.3,0.1-1.5,1.1-1.9,1.1c0.4,0.4,0.7,0.8,1.1,1.2
				C-162-49-161.5-49.2-161.1-49.3 M-164.9-53.6c0.7-1.6,0.6-1.2-0.2-2.3h-1.5c-0.3,0.4-0.5,0.9-0.7,1.3c0.3,0.4,0.6,0.7,0.9,1.1
				C-165.9-53.5-165.4-53.5-164.9-53.6 M-171.1-58c0.2-0.5,0.3-1,0.5-1.4c-1.3-1.9-1.1-0.9-2.9,0.3c0.3,0.3,0.6,0.7,0.9,1.1H-171.1z
				 M-178.1-89.1c-1.3,2-1.4,1.8,0.4,3.7c0.6-0.1,1.2,0.1,1.8,0c0.7-1.2,1.1-1.8,1-3.2C-176.4-89.4-176.7-89.3-178.1-89.1
				 M-175.1-88.3c-0.1,1.1-0.3,1.6-0.9,2.5l-1.9-0.1C-179.6-89-177.7-89.5-175.1-88.3 M-175.6-88.1l-2-0.5l-0.7,1.2
				c0.6,0.4,1.2,0.8,1.8,1.3h0.2C-175.7-87-175.6-87.2-175.6-88.1 M-177.5-88.3c0.6,0.1,1.1,0.3,1.7,0.4c0,0.5-0.2,0.9-0.5,1.4h-0.2
				l-1.5-1.1L-177.5-88.3z M-210.6-55.3c-0.2,0.5-0.4,1-0.6,1.5c0.5,0.4,1,0.7,1.5,1.1c0.4,0,1.3-0.5,1.9-0.7c0-0.6-1-1.7-1-1.8
				C-208.7-55.2-210.6-55.3-210.6-55.3z M-204.3-41.5c-0.5,0.1-1,0.3-1.4,0.5c-0.1,0.4-0.2,0.8-0.2,1.3c0.3,0.3,0.7,0.7,1,1
				C-202.7-38.9-203.5-40.4-204.3-41.5 M-215.8-47.5c-0.9,0-1.7-0.1-2.5-0.1c-0.1,0.5-0.1,0.8-0.1,1.5l1.2,0.3
				C-215.9-45.8-215.5-46.4-215.8-47.5 M-234.3-57.4c0,1.2,0.1,1.3,1.1,2.3c0.4,0,1.3-0.9,1.7-1.2C-231.4-59-233.3-57.7-234.3-57.4
				 M-240.3-51.8h-1.9c0.1,1.5,0.1,1.5,0.2,1.9c0.3,0.1,0.3,0.1,1.2,0.2C-239.3-49.7-240.1-51.1-240.3-51.8 M-232.6-43.2l-0.2,0.7
				c0.2,0.2,0.4,0.5,0.6,0.8c0.6,0,1.1,0,1.7,0.1c-0.1-1.1-0.1-1.2-0.5-1.8L-232.6-43.2z M-242-37.8c0.4,0,0.4,0,2.1-0.6l-1.6-1.9
				c-0.5,0-0.7,0.3-1.1,0.5v1.5C-242.4-38.1-242.2-38-242-37.8 M-256.8-46.1c-0.9-0.4-0.9-0.2-1.6,0c-0.1,1,0.3,1.4,0.9,2.5
				C-256-44.1-256.5-44.6-256.8-46.1 M-255.3-50.9c0,0.8,0.3,1.2,0.9,2.1c0.3-0.2,0.6-0.3,1-0.5C-253.5-51.1-254-51.5-255.3-50.9
				 M-260.9-60.7c0.1,1.2,0.2,1.4,1.2,2.6c0.3-0.2,0.6-0.4,1-0.5C-258.8-60.9-259.1-61.4-260.9-60.7 M-253.4-64.3
				c1.2-1.6,1.2-1.3,0.4-2.6c-0.4,0-0.8,0-1.2,0c-0.7,1.5-0.8,1.1,0.2,2.6H-253.4z M-240.3-91c0.6,0.3,0.8,1,0.4,2.4
				c-0.3,0.1-0.5,0.2-0.7,0.3c-1.6-0.2-1.8-1.1-1.6-2.3c0.5-0.3,0.9-0.5,1.4-0.5c-0.4,0-0.9,0-1.5,0.2c-0.5,1.5,0,2.6,1.6,2.9
				C-239-88.5-238.8-90.5-240.3-91 M-240.9-91.1c0.2,0,0.4,0,0.6,0.1C-240.5-91.1-240.7-91.1-240.9-91.1 M-168.4-34.1
				c3.5-0.6,7.3-2.9,10.2-5.4c-5.9-1.9-10.9-4.4-16.3-6.9c-3.4-2.7-10.1-7.5-14.2-7.5C-186.3-46.3-175.2-36.1-168.4-34.1
				 M-185.2-50.7c-0.8-0.9-1.9-1.8-2.1-2.3c3.2,0,9.2,4.8,11.4,6.3c1.6,1,2,1.2,3.9,2.2c4.3,1.2,8,4.7,12.8,5.1
				c-2.1-0.1-7.1,3.7-9.1,3.7c-2.3-0.3-7.8-2.7-8.2-4.2C-179.5-44.2-184.2-45.1-185.2-50.7 M-254.8-29.4c-5,0.6-9.8,2-14.1,4.4
				c0,0.3,0.4,0.6,0.7,1.1c2.8-0.6,9.8-3.4,12.4-2.8c2.4,2.7,4.1,4.3,7.2,6.5c6.3,2.2,8.8-4.4,13.2-4.4c9.5,10.2,8.9,5.7,20.2,0.9
				c0.1,0,8.3,6,12.2,6.3c4.4-0.3,7.1-4.3,11.5-4.3c8.9,3.8,10.2,3.2,18.3-2c4.8-1.4,10.3,2.6,16.5,0.5c-0.1-0.2-0.1-0.3-0.2-0.5
				c-5.8-0.7-11.7-2.9-17.2-2.7c-5.7,4.9-9.3,7.7-15.8,3.1c0-0.1,0.1-0.1,0.1-0.1c0,0-0.1-0.1-0.1-0.1c-0.1,0-0.3,0-0.4,0
				c-2.5-2.7-2.9-1.6-5.5-0.2c-6.6,6.3-11.3,5.2-16.8-1.4c-6.6-4.9-10.3,9.9-19.5,1.5c-4-4.5-3.3-4.2-8.6-0.7
				C-248.1-20.3-249.9-23.8-254.8-29.4 M-263.4-19.6c9-1.4,5.5-3.3,13.6,2.7c5.4,2.7,7.6-0.4,13.3-1.4c4.2,3.6,9.2,4.6,14.8,4.3
				c7.9-4.8,5.2-4.2,12.2,1.1c0.7,0.4,1.7,0.3,2.6,1c5.3,0,7.6-0.4,12.2-3.6c4.8-2.3,10,3,17,0.1c5.7-2.6,8.2-2,14.4-2.1
				c0-0.5-0.1-1-0.1-1.5c-9.6-1.7-8.6-3.4-16,1.8c-6.6,2.9-10.8-3.3-16.3-0.8c-10.9,8-10.9,0.2-20.7-1.7c-6.7,3.3-8.3,4.6-15.5,1.6
				c-1.4-1-3.7-3-4.9-3.3c-8,3.2-9.4,5.8-16.4,0.3C-256-23.3-262.7-24.6-263.4-19.6 M-244.7-13.2c0.2,0.4,0.4,0.8,0.6,1.2
				c1.8,0,2.8-0.1,4.8-0.8c0.1,0.1,0.1,0.1,0.2,0.3c5,0,5.8,1.2,10.6,2.7c3.9,0.8,8.4-1.6,12.4-2C-211.3-10-210-9-204-8.3
				c3.7-0.1,6.1-0.5,9.6-2.5c4-1.8,5.2,1.1,10.4,0.2c0.2-0.4,0.3-0.7,0.5-1c-3.5-1.2-10.5-4.6-12.7-0.5c-4.1,2.1-9,2.2-13.3,1.3
				c-2.5-1.2-4.1-3.3-6.6-3.3c-3.8,1-10.5,4.2-13.9,1.2C-237.8-16.6-236.6-16-244.7-13.2 M-222.6-7.7c-0.1,0.3-0.3,1-0.6,1.3
				c1.3,2.1,5.1-0.3,6.5-1.1c2.1,0,4.3,1.2,6.7,2.1c0.2-0.1,0.5-0.7,0.7-1C-214.6-10.6-216.7-8.9-222.6-7.7"/>
		</g>
		<g id="g2861" transform="translate(276.0478,150.829)">
			<path id="path2863" class="st2" d="M-181.1,68.8c1.2,0.4,2.4,0.9,3.3,1.5l-1.2,3.8l-1.5-0.5c-0.1-0.7-0.2-1.5-0.1-2.1
				c-0.4-0.4-1-0.8-1.8-1c-1-0.3-2-0.2-2.4,0.9c-0.9,2.7,5.8,3.7,4.4,8c-0.7,2.2-3.2,3.3-6.7,2.2c-1-0.3-2.2-0.9-3.1-1.4l1.2-3.7
				l1.5,0.5c0.1,0.7,0.2,1.6,0.1,2.1c0.3,0.2,0.9,0.6,1.4,0.7c1.1,0.4,2,0.1,2.3-0.9c0.8-2.4-5.9-3.7-4.6-7.9
				C-187.5,68.9-184.8,67.6-181.1,68.8"/>
		</g>
		<g id="g2865" transform="translate(269.03,153.3356)">
			<path id="path2867" class="st2" d="M-185,62.4l-0.6,1.1c-0.7,0.1-1.4,0-2-0.1l-4.6,8.2c0.4,0.4,0.9,1.1,1.2,1.7l-0.6,1.1l-6-3.4
				l0.6-1.1c0.6,0,1.4,0,2,0.1l4.6-8.2c-0.5-0.5-0.9-1.1-1.2-1.7l0.6-1.1L-185,62.4z"/>
		</g>
		<g id="g2869" transform="translate(254.144,160.5495)">
			<path id="path2871" class="st2" d="M-193.2,44l2.8-2.9c1.7,0.5,3.5,1.5,5.1,3c3.1,3,3.2,6.8,0.4,9.7c-3.1,3.2-7.3,3.2-10.9-0.3
				c-1-1-2.1-2.3-2.8-3.4l2.8-2.9l1.2,1.1c-0.2,0.7-0.4,1.3-0.8,1.9c0.3,0.7,0.9,1.4,1.6,2.2c1.9,1.9,4.3,1.3,6.2-0.7
				c1.8-1.9,2.2-4.4,0.2-6.4c-0.4-0.4-0.9-0.8-1.4-1.1l-1.9,2c0.2,0.4,0.4,1.1,0.5,1.6l-0.8,0.9l-4.2-4.1l0.8-0.9
				C-194.2,43.8-193.7,43.8-193.2,44"/>
		</g>
		<g id="g2873" transform="translate(254.0368,166.2586)">
			<path id="path2875" class="st2" d="M-193.3,29.4l-1.1,0.6c-0.6-0.3-1.2-0.7-1.7-1.1l-8,4.9c0.2,0.6,0.2,1.4,0.2,2l-1,0.6
				l-3.6-5.9l1-0.6c0.6,0.3,1.2,0.7,1.7,1.1l8-4.9c-0.2-0.7-0.2-1.4-0.2-2l1.1-0.6L-193.3,29.4z"/>
		</g>
		<g id="g2877" transform="translate(249.993,173.4411)">
			<path id="path2879" class="st2" d="M-195.5,11l-1.2,0.4c-0.5-0.4-1.1-0.8-1.5-1.4l-8.8,3.3c0,0.6,0,1.4-0.2,2l-1.1,0.4l-2.4-6.5
				l1.1-0.4c0.5,0.4,1.1,0.9,1.5,1.4l8.9-3.4l-1.2-2.8c-0.6,0-1.4,0-2.2,0l-0.6-1.5l3.8-1.4L-195.5,11z"/>
		</g>
		<g id="g2881" transform="translate(246.6323,183.346)">
			<path id="path2883" class="st2" d="M-197.4-14.3l-1.2,0.3c-0.4-0.4-0.9-1-1.3-1.6l-9.2,1.9c0,0.6-0.2,1.4-0.5,2l-1.2,0.2
				l-1.4-6.8l1.2-0.3c0.4,0.4,0.9,1.1,1.2,1.6l9.4-2l-0.7-3c-0.6-0.1-1.4-0.2-2.2-0.3l-0.3-1.5l4-0.8L-197.4-14.3z"/>
		</g>
		<g id="g2885" transform="translate(236.6602,200.9885)">
			<path id="path2887" class="st2" d="M-202.9-59.3l6.1-0.5c3.7-0.3,5.8,1.9,6.1,5.4c0.4,4.3-1.7,5.9-4.7,6.2l-6.5,0.6
				c-0.1,0.4-0.5,1-0.8,1.4l-1.2,0.1l-0.5-6.1l1.2-0.1c0.4,0.4,0.8,1,1,1.5l6-0.5c2.3-0.2,3.5-1.1,3.3-3.5c-0.2-1.9-1.4-2.8-3.4-2.6
				l-6.4,0.6c-0.1,0.6-0.5,1.2-0.7,1.6l-1.2,0.1l-0.5-5.4l1.2-0.1C-203.6-60.2-203.1-59.8-202.9-59.3"/>
		</g>
		<g id="g2889" transform="translate(243.9564,214.8157)">
			<path id="path2891" class="st2" d="M-198.9-94.6l-1.2,0c-0.4-0.4-0.8-1-0.8-1.4l-7.8,1.1v0l9.8,3.7l0,2.2l-10.1,3.5v0l7.8,1
				c0.2-0.5,0.6-1,0.9-1.4l1.2,0l-0.1,5.1l-1.2,0c-0.3-0.3-0.6-0.7-0.9-1.1l-9.4-1.7c-0.2,0.6-0.6,1.1-0.9,1.6l-1.2,0l0.1-5.3l9-3.2
				l0,0l-8.9-3.4l0.1-5.3l1.2,0c0.3,0.5,0.6,1,0.8,1.7l9.4-1.6c0.2-0.4,0.5-0.8,0.9-1.1l1.2,0L-198.9-94.6z"/>
		</g>
		<g id="g2893" transform="translate(240.9676,225.0501)">
			<path id="path2895" class="st2" d="M-200.6-120.8c-0.1,1-1.1,1.7-2.1,1.6c-1.1-0.1-1.8-1-1.7-2.1c0.1-1,1.1-1.7,2.1-1.6
				C-201.2-122.7-200.4-121.8-200.6-120.8"/>
		</g>
		<g id="g2897" transform="translate(240.1898,240.0937)">
			<path id="path2899" class="st2" d="M-201-159.2l5.9,1.4c3.6,0.9,4.9,3.6,4.1,7.1c-1,4.2-3.5,5.1-6.4,4.4l-6.4-1.5
				c-0.3,0.4-0.8,0.8-1.2,1.1l-1.2-0.3l1.4-5.9l1.2,0.3c0.2,0.5,0.4,1.2,0.5,1.7l5.9,1.4c2.2,0.5,3.7,0.1,4.3-2.3
				c0.5-1.9-0.5-3.1-2.4-3.6l-6.3-1.4c-0.3,0.5-0.8,1-1.2,1.3l-1.2-0.3l1.3-5.2l1.2,0.3C-201.3-160.3-201-159.7-201-159.2"/>
		</g>
		<g id="g2901" transform="translate(246.4281,254.6796)">
			<path id="path2903" class="st2" d="M-197.5-196.5l10.3,5.2l-1.3,2.5l-12.2,1.6l7.2,3.2c0.4-0.4,0.9-0.7,1.5-1.1l1.1,0.6l-2.6,5.2
				l-1.1-0.6c-0.1-0.7-0.1-1.4,0-1.9l-8.3-4.3c-0.5,0.5-1.1,0.9-1.6,1.2l-1.1-0.6l2.4-4.8l10.8-1.4l-6.3-2.9
				c-0.4,0.4-0.9,0.7-1.5,0.9l-1.1-0.6l2.3-4.5l1.1,0.6C-197.6-197.5-197.5-197-197.5-196.5"/>
		</g>
		<g id="g2905" transform="translate(256.2589,255.7383)">
			<path id="path2907" class="st2" d="M-192.1-199.2l-0.9-0.8c0.1-0.7,0.3-1.4,0.6-2l-6.9-6.3c-0.5,0.3-1.3,0.6-1.9,0.8l-0.9-0.8
				l4.6-5.1l0.9,0.8c-0.1,0.6-0.3,1.4-0.6,1.9l6.9,6.3c0.6-0.3,1.3-0.6,1.9-0.8l0.9,0.8L-192.1-199.2z"/>
		</g>
		<g id="g2909" transform="translate(265.7533,272.7708)">
			<path id="path2911" class="st2" d="M-186.8-242.7l2.2,12.3l-2.5,1.5l-9.9-7.6c-0.4,0-0.9-0.1-1.3-0.2l-0.6-1l5.1-3.1l0.6,1
				c-0.2,0.5-0.5,1-0.8,1.5l7,5.4l0,0l-2-8.5c-0.5,0.1-1.2,0-1.7,0l-0.6-1l4.4-2.7l0.6,1C-186.5-243.5-186.6-243-186.8-242.7"/>
		</g>
		<g id="g2913" transform="translate(274.3434,268.3577)">
			<path id="path2915" class="st2" d="M-182.1-231.4l-0.3-1.2c0.4-0.5,0.9-1,1.5-1.4l-2.6-9c-0.6,0-1.4-0.2-2-0.4l-0.3-1.2l9.9-2.8
				l0.9,3.3l-1.5,0.4c-0.4-0.3-0.9-0.9-1.2-1.4l-2.8,0.8l1.1,3.8l2.3-0.7c0-0.4,0.2-0.9,0.3-1.2l1.2-0.4l1.1,3.7l-1.2,0.4
				c-0.3-0.2-0.7-0.6-0.9-0.9l-2.3,0.7l1.2,4.1l2.8-0.8c0-0.6,0.1-1.3,0.3-1.9l1.5-0.4l1,3.4L-182.1-231.4z"/>
		</g>
		<g id="g2917" transform="translate(293.8708,271.8202)">
			<path id="path2919" class="st2" d="M-171.2-240.2l-0.2-1.5c-1.8,0.4-2-4.6-4.4-4.7c1.8-0.7,2.8-2,2.6-3.6
				c-0.2-2.6-2.2-3.6-5.6-3.3c-1.9,0.2-4.2,0.5-4.7,0.5l-1.7,0.1l0.1,1.2c0.6,0.3,1.2,0.6,1.9,0.7l0.8,9.3c-0.7,0.3-1.3,0.7-1.8,1.1
				l0.1,1.2l6.4-0.6l-0.1-1.2c-0.4-0.3-1-0.6-1.5-0.8l-0.3-3.5l0.8-0.1c2.3-0.2,2.3,5.6,5.4,5.4C-172.6-239.9-171.8-240-171.2-240.2
				 M-178.6-247.1l-1.1,0.1l-0.4-4.2c0.2-0.1,0.7-0.1,0.9-0.1c1.8-0.2,2.7,0.5,2.8,2C-176.3-248.2-176.9-247.2-178.6-247.1"/>
		</g>
		<g id="g2921" transform="translate(301.1321,271.5076)">
			<path id="path2923" class="st2" d="M-167.2-239.4c-1.3-0.1-2.6-0.3-3.6-0.6l0.2-4l1.6,0.1c0.3,0.6,0.5,1.4,0.6,2
				c0.4,0.2,1.1,0.5,2,0.5c1.1,0,2-0.3,2.1-1.5c0.1-2.8-6.6-2.1-6.4-6.6c0.1-2.3,2.3-4.1,5.9-3.9c1.1,0,2.4,0.3,3.3,0.5l-0.2,3.8
				l-1.6-0.1c-0.3-0.7-0.6-1.5-0.7-2c-0.3-0.2-1-0.3-1.6-0.3c-1.2-0.1-1.9,0.4-2,1.5c-0.1,2.5,6.7,2.1,6.5,6.5
				C-161-241.2-163.3-239.3-167.2-239.4"/>
		</g>
		<g id="g2925" transform="translate(309.746,270.9357)">
			<path id="path2927" class="st2" d="M-162.4-238l0.2-1.2c0.6-0.3,1.3-0.5,2-0.6l1.7-9.2c-0.6-0.3-1.2-0.7-1.7-1.2l0.2-1.2l6.8,1.2
				l-0.2,1.2c-0.6,0.2-1.3,0.5-2,0.5l-1.7,9.2c0.6,0.3,1.2,0.7,1.6,1.2l-0.2,1.2L-162.4-238z"/>
		</g>
		<g id="g2929" transform="translate(327.5402,272.1235)">
			<path id="path2931" class="st2" d="M-152.6-241c0-0.7-0.1-1.7,0-2.4l-2.1-0.8l-3.5,8.9c0.5,0.4,1,1,1.4,1.5l-0.5,1.2l-6.4-2.6
				l0.5-1.2c0.7-0.1,1.4-0.2,2.1-0.1l3.5-8.9l-2.1-0.8c-0.4,0.5-1.1,1.3-1.6,1.8l-1.4-0.5l1.5-3.8l11.6,4.6l-1.5,3.8L-152.6-241z"/>
		</g>
		<g id="g2933" transform="translate(339.1276,267.9153)">
			<path id="path2935" class="st2" d="M-146.1-230.3l-2.7-2.1l-10.6,6.5c-0.4-0.1-1-0.1-1.4-0.1l-0.8,1l4,3.1l0.8-1
				c-0.1-0.5-0.3-1-0.6-1.5l1.4-0.8l3.9,3l-0.5,1.6c-0.5-0.2-1.1-0.2-1.6-0.2l-0.8,1l4.7,3.7l0.8-1c-0.1-0.4-0.2-0.9-0.4-1.3
				L-146.1-230.3z M-149.7-229.5c-0.2,0.6-0.5,1.1-0.7,1.8l-1.3,3.9l-3-2.4l3.5-2.2C-150.5-228.9-150.1-229.2-149.7-229.5
				C-149.7-229.6-149.7-229.5-149.7-229.5z"/>
		</g>
		<g id="g2937" transform="translate(347.696,254.0116)">
			<path id="path2939" class="st2" d="M-141.4-194.8c0.4-0.6,0.9-1.5,1.3-2l-1.3-1.9l-7.9,5.5c0.2,0.6,0.3,1.4,0.3,2l-1,0.7
				l-3.9-5.7l1-0.7c0.6,0.3,1.3,0.6,1.8,1l7.9-5.5l-1.3-1.9c-0.6,0.3-1.7,0.5-2.3,0.6l-0.8-1.2l3.4-2.3l7.1,10.3l-3.4,2.3
				L-141.4-194.8z"/>
		</g>
		<g id="g2941" transform="translate(345.1914,245.5485)">
			<path id="path2943" class="st2" d="M-142.8-173.1l1.2-0.5c0.6,0.4,1.1,0.8,1.5,1.4l8.7-3.5c-0.1-0.6,0-1.4,0.1-2l1.1-0.5l2.6,6.4
				l-1.1,0.5c-0.5-0.4-1.1-0.9-1.5-1.4l-8.7,3.5c0.1,0.7,0,1.4-0.1,2l-1.2,0.5L-142.8-173.1z"/>
		</g>
		<g id="g2945" transform="translate(348.7008,234.312)">
			<path id="path2947" class="st2" d="M-140.8-144.4c-0.3-1.2-0.4-2.6-0.4-3.6l3.9-0.9l0.3,1.5c-0.5,0.4-1.2,0.9-1.7,1.2
				c-0.1,0.5-0.2,1.2,0,2.1c0.2,1,0.9,1.8,2,1.6c2.7-0.6,0.2-6.9,4.6-7.9c2.3-0.5,4.5,1.1,5.3,4.7c0.2,1,0.4,2.4,0.4,3.3l-3.7,0.9
				l-0.3-1.5c0.6-0.5,1.3-0.9,1.8-1.2c0.1-0.3,0-1-0.1-1.6c-0.3-1.2-0.9-1.7-1.9-1.5c-2.5,0.6-0.2,7-4.5,8
				C-137.5-138.9-140-140.7-140.8-144.4"/>
		</g>
		<g id="g2949" transform="translate(354.3246,225.0499)">
			<path id="path2951" class="st2" d="M-137.7-120.8c-0.1-1,0.6-1.9,1.7-2.1c1.1-0.1,2,0.6,2.1,1.6c0.1,1-0.6,1.9-1.7,2.1
				C-136.7-119-137.6-119.8-137.7-120.8"/>
		</g>
		<g id="g2953" transform="translate(351.1455,218.8444)">
			<path id="path2955" class="st2" d="M-139.5-104.9l1.2-0.1c0.4,0.5,0.7,1.1,1,1.8l9.3-0.4c0.1-0.6,0.5-1.3,0.8-1.9l1.2-0.1
				l0.3,6.9l-1.2,0.1c-0.4-0.5-0.8-1.2-0.9-1.8l-9.5,0.4l0.2,3c0.6,0.1,1.4,0.4,2.1,0.7l0.1,1.6l-4.1,0.2L-139.5-104.9z"/>
		</g>
		<g id="g2957" transform="translate(358.5165,199.5031)">
			<path id="path2959" class="st2" d="M-135.4-55.5l-6.1-0.3c-3.7-0.2-5.5-2.6-5.4-6.2c0.2-4.3,2.4-5.7,5.4-5.6l6.5,0.3
				c0.2-0.4,0.6-1,0.9-1.3l1.2,0.1l-0.3,6.1l-1.2-0.1c-0.3-0.5-0.7-1.1-0.8-1.6l-6-0.3c-2.3-0.1-3.6,0.6-3.7,3c-0.1,2,1,3,3.1,3
				l6.4,0.2c0.2-0.5,0.6-1.1,0.9-1.5l1.2,0.1l-0.2,5.4l-1.2-0.1C-134.9-54.5-135.3-55.1-135.4-55.5"/>
		</g>
		<g id="g2961" transform="translate(359.2734,193.1472)">
			<path id="path2963" class="st2" d="M-135-39.3l-1.2-0.2c-0.4,0.5-0.9,1.1-1.2,1.7l-9.2-1.5c-0.1-0.7-0.3-1.4-0.6-2l-1.2-0.2
				l-0.3,1.8c-0.3,1.8-0.6,3.4-0.8,4.6c-0.8,4.6,1.2,6.7,3.2,7.1c1.5,0.2,3-0.5,3.6-2.6c0.1,1.7,1.2,2.6,2.4,2.8
				c2.2,0.4,3.6-1.1,4.2-4.6c0.3-1.7,0.6-3.9,0.8-5.1L-135-39.3z M-143.2-35.6l-0.2,1.2c-0.3,2-1.2,3.2-2.6,3c-1.2-0.2-2-1.1-1.7-3
				c0.1-0.8,0.3-1.5,0.6-1.9C-147.1-36.3-143.2-35.6-143.2-35.6z M-137.6-34.7c0,0.5-0.1,0.9-0.2,1.5c-0.3,1.8-1.3,2.3-2.4,2.1
				c-1.1-0.2-1.9-0.9-1.5-2.9c0.1-0.5,0.2-0.9,0.2-1.3C-141.5-35.3-137.6-34.7-137.6-34.7z"/>
		</g>
		<g id="g2965" transform="translate(348.2726,182.425)">
			<path id="path2967" class="st2" d="M-141.1-11.9l1.2,0.4c0.1,0.6,0.3,1.3,0.3,2l8.8,3c0.4-0.5,1-1.1,1.4-1.5l1.2,0.4l-3.3,9.8
				l-3.3-1.1l0.5-1.5c0.5-0.1,1.3-0.2,1.8-0.2l0.9-2.8l-3.7-1.3l-0.8,2.3c0.3,0.3,0.6,0.7,0.8,1l-0.4,1.2l-3.7-1.2l0.4-1.2
				c0.3-0.1,0.9-0.3,1.3-0.3l0.8-2.3l-4.1-1.4l-0.9,2.8c0.5,0.3,1,0.9,1.4,1.3l-0.5,1.5l-3.4-1.2L-141.1-11.9z"/>
		</g>
		<g id="g2969" transform="translate(341.9861,168.3935)">
			<path id="path2971" class="st2" d="M-144.6,23.9c2.4-3.9,5.6-4.8,9.2-2.6c4.2,2.5,4.9,6.5,2.7,10.1c-0.8,1.3-1.6,2.3-2.4,3
				l-3.8-2.3l0.8-1.4c0.8,0.1,1.6,0.3,2.2,0.5c0.4-0.3,0.9-0.8,1.3-1.4c1.1-1.8,0.3-3.7-2.3-5.3c-2.4-1.5-4.6-1-6.2,1.6
				c-0.5,0.8-0.9,1.9-1,2.9l-1.9-0.6C-145.9,27.1-145.5,25.4-144.6,23.9"/>
		</g>
		<g id="g2973" transform="translate(338.0439,162.6459)">
			<path id="path2975" class="st2" d="M-146.7,38.6l0.9,0.9c-0.2,0.6-0.4,1.3-0.7,1.9l6.4,6.8c0.6-0.3,1.4-0.5,2-0.6l0.8,0.9
				l-7.5,7.1l-2.4-2.5l1.1-1.1c0.5,0.1,1.2,0.4,1.7,0.7l2.2-2l-2.7-2.9l-1.8,1.7c0.2,0.4,0.2,0.9,0.2,1.2l-0.9,0.9l-2.7-2.8l0.9-0.9
				c0.3,0.1,0.9,0.2,1.3,0.4l1.8-1.7l-3-3.1l-2.2,2c0.3,0.5,0.5,1.2,0.6,1.8l-1.1,1.1l-2.5-2.6L-146.7,38.6z"/>
		</g>
		<g id="g2977" transform="translate(325.3214,145.0898)">
			<path id="path2979" class="st2" d="M-153.8,83.5l-5.1-10.4l2.6-1.2l10.7,6.1l-3.8-6.9c-0.6,0.1-1.2,0-1.9-0.1l-0.5-1.1l5.2-2.6
				l0.5,1.1c-0.4,0.6-0.8,1.2-1.2,1.6l4,8.4c0.6-0.1,1.4-0.1,2,0l0.5,1.1l-4.8,2.4l-9.5-5.4l3.3,6.1c0.5-0.1,1.2,0,1.7,0.1l0.5,1.1
				l-4.6,2.2l-0.5-1.1C-154.3,84.3-154.1,83.9-153.8,83.5"/>
		</g>
		<g id="g2981" transform="translate(314.8244,149.8547)">
			<path id="path2983" class="st2" d="M-159.6,71.3c1.2-0.3,2.6-0.4,3.6-0.3l0.9,3.9l-1.5,0.3c-0.4-0.5-0.9-1.2-1.1-1.7
				c-0.5-0.1-1.2-0.2-2.1,0c-1,0.2-1.8,0.8-1.6,2c0.6,2.7,6.9,0.3,7.9,4.7c0.5,2.3-1.1,4.5-4.7,5.3c-1,0.2-2.4,0.4-3.3,0.4l-0.8-3.7
				l1.5-0.3c0.5,0.6,0.9,1.3,1.2,1.8c0.3,0.1,1,0,1.6-0.1c1.2-0.3,1.8-0.9,1.5-1.9c-0.5-2.5-7-0.2-7.9-4.6
				C-165.1,74.6-163.4,72.1-159.6,71.3"/>
		</g>
		<g id="g2985" transform="translate(306.8911,148.3182)">
			<path id="path2987" class="st2" d="M-164,75.2l0.1,1.2c-0.5,0.4-1.1,0.8-1.8,1l0.8,9.3c0.6,0.1,1.3,0.4,1.9,0.7l0.1,1.2l-6.9,0.6
				l-0.1-1.2c0.5-0.4,1.2-0.8,1.8-1l-0.8-9.3c-0.7-0.1-1.3-0.4-1.9-0.7l-0.1-1.2L-164,75.2z"/>
		</g>
		<g id="g2989" transform="translate(295.5035,148.045)">
			<path id="path2991" class="st2" d="M-170.3,75.9c1.3,0,2.6,0.2,3.6,0.5l-0.1,4l-1.6,0c-0.3-0.6-0.6-1.4-0.7-2
				c-0.4-0.2-1.2-0.5-2-0.5c-1.1,0-2,0.4-2,1.5c-0.1,2.8,6.6,1.9,6.5,6.4c-0.1,2.3-2.2,4.1-5.9,4c-1.1,0-2.4-0.2-3.3-0.4l0.1-3.8
				l1.6,0c0.3,0.7,0.6,1.5,0.7,2c0.3,0.2,1,0.3,1.6,0.3c1.2,0,1.9-0.5,1.9-1.5c0.1-2.5-6.7-1.9-6.6-6.3
				C-176.5,77.8-174.2,75.8-170.3,75.9"/>
		</g>
		<g id="g2993" transform="translate(284.5193,144.9343)">
			<path id="path2995" class="st2" d="M-176.4,83.9c1,0.1,1.7,1.1,1.5,2.2c-0.2,1.1-1.1,1.8-2.1,1.6c-1-0.1-1.7-1.1-1.6-2.2
				C-178.4,84.4-177.4,83.7-176.4,83.9"/>
		</g>
	</g>
</g>
</svg>
