<?xml version="1.0" encoding="utf-8"?>
<!-- Generator: Adobe Illustrator 26.3.1, SVG Export Plug-In . SVG Version: 6.00 Build 0)  -->
<svg version="1.1" id="affiliation" xmlns="http://www.w3.org/2000/svg" xmlns:xlink="http://www.w3.org/1999/xlink" x="0px"
	 y="0px" viewBox="0 0 256 256" style="enable-background:new 0 0 256 256;" xml:space="preserve">
<style type="text/css">
	.st0{fill:#FFFFFF;}
	.st1{display:none;fill:#FFFFFF;}
	.st2{fill:#002A53;}
</style>
<rect id="black" width="256" height="256"/>
<circle id="background_x5F_circle" class="st0" cx="128" cy="128" r="128"/>
<path id="background_x5F_rectangle" class="st1" d="M206.9,256H49.1C22.1,256,0,233.9,0,206.9V49.1C0,22.1,22.1,0,49.1,0H207
	c27,0,49.1,22.1,49.1,49.1V207C256,233.9,233.9,256,206.9,256z"/>
<g id="logo_00000169557994799884142440000017718490564280908447_">
	<g>
		<path class="st2" d="M107.9,100.1l1.4-1.3c0.4,0.2,0.8,0.3,1.2,0.4l0.4,1.8c0.2,0,0.5,0,0.7,0c0.2,0,0.5,0,0.7,0l0.5-1.8
			c0.4-0.1,0.8-0.2,1.2-0.3l1.3,1.4c0.4-0.2,0.9-0.4,1.3-0.7l-0.4-1.8c0.3-0.3,0.6-0.5,0.9-0.9l1.8,0.5c0.3-0.4,0.5-0.8,0.8-1.2
			l-1.3-1.4c0.2-0.4,0.3-0.8,0.4-1.2l1.8-0.4c0-0.2,0-0.5,0.1-0.7c0-0.2,0-0.5,0-0.7l-1.8-0.5c-0.1-0.4-0.2-0.8-0.3-1.2l1.4-1.3
			c-0.2-0.4-0.4-0.9-0.7-1.3l-1.8,0.4c-0.3-0.3-0.5-0.6-0.9-0.9l0.5-1.8c-0.4-0.3-0.8-0.5-1.2-0.8l-1.4,1.3
			c-0.4-0.2-0.8-0.3-1.2-0.4l-0.4-1.8c-0.2,0-0.5,0-0.7-0.1c-0.2,0-0.5,0-0.7,0l-0.5,1.8c-0.4,0.1-0.8,0.2-1.2,0.3l-1.3-1.4
			c-0.4,0.2-0.9,0.4-1.3,0.7l0.4,1.8c-0.3,0.3-0.6,0.5-0.9,0.9l-1.8-0.5c-0.3,0.4-0.5,0.8-0.8,1.2l1.3,1.4c-0.2,0.4-0.3,0.8-0.4,1.2
			l-1.8,0.4c0,0.2,0,0.5-0.1,0.7c0,0.2,0,0.5,0,0.7l1.8,0.5c0.1,0.4,0.2,0.8,0.3,1.2l-1.4,1.3c0.2,0.4,0.4,0.9,0.7,1.3l1.8-0.4
			c0.3,0.3,0.5,0.6,0.9,0.9l-0.5,1.8C107.1,99.7,107.5,99.9,107.9,100.1 M112.1,88.3c2.2,0.1,4,1.9,3.9,4.2c-0.1,2.2-1.9,4-4.2,3.9
			c-2.2-0.1-4-1.9-3.9-4.2C108,90,109.8,88.3,112.1,88.3"/>
		<path class="st2" d="M90.1,145c0,1-0.2,6.3,0.2,14.1c1.9-1.4,3.9-2.8,5.7-3.9c0.1-0.1,0.3-0.1,0.4-0.1s0.2,0,0.3,0
			c0.2,0.1,0.4,0.2,0.5,0.5l1.6,3.5c1.8-1,3.6-2,5.5-2.8l-2-3.2c-0.1-0.2-0.2-0.5-0.1-0.7c0.1-0.2,0.2-0.4,0.5-0.5
			c3.1-1.4,6.4-2.5,9.7-3.4c0.1,0,0.1,0,0.2,0c0.2,0,0.3,0.1,0.5,0.2c0.2,0.1,0.3,0.4,0.4,0.6l0.5,3.8c2.3-0.5,4.6-1,6.9-1.2
			L120,148c-0.6,0.2-1.3,0.3-1.9,0.4c-0.1,0-0.1,0-0.2,0c-0.3,0-0.6-0.2-0.8-0.5l0,0c-0.7-1-1.3-2-1.6-2.7H90.1V145z"/>
		<path class="st2" d="M104.3,152.9l4.6,7.6c1.2-0.5,2.5-0.9,3.9-1.4l-1.1-8.8C109.2,151,106.7,151.9,104.3,152.9"/>
		<path class="st2" d="M122,157.2l-0.8-3.8c-2.4,0.3-4.8,0.7-7.1,1.3l0.5,3.9C117,157.9,119.5,157.5,122,157.2"/>
		<path class="st2" d="M90.8,167.2c0.1,1.7,0.3,3.4,0.4,5c1.1-1.1,2.3-2.2,3.5-3.2l-3-2.8C91.4,166.6,91.1,166.9,90.8,167.2"/>
		<path class="st2" d="M163.1,172.2c0.2-1.6,0.3-3.3,0.4-4.9c-0.4-0.3-0.7-0.6-1-0.9l-2.8,2.8C160.9,170,162,171.1,163.1,172.2"/>
		<path class="st2" d="M119.2,211.1l8,16.6l8-16.6l-8-17L119.2,211.1z M127.9,206c-0.2,0.5-0.3,0.9-0.4,1.3c0.4-0.5,1.2-1,2.9-1.1
			c1.1,0,1.5-0.3,1.6-0.4c0.1-0.1,0.1-0.2,0.1-0.2l0,0l0.4-0.1c0,0,0.5,0.9,0,1.7c-0.4,0.6-1.1,0.9-2.3,0.9h-0.1c-0.3,0-0.5,0-0.7,0
			c-0.9,0-1.4,0.1-1.7,0.2c2.1,1.9,2.6,3.5,2.7,4.6v0.5l-0.3-0.3c-0.3-0.3-0.9-0.9-1.5-1.3c0.6,1,1.6,2.4,1.7,3.9v0.5l-0.4-0.4
			c0,0-0.9-0.9-1.6-1.5c0.5,1,1.3,2.8,1.4,4.3l-0.4,0.1c0,0-0.5-1-1-1.7c0.4,1.1,0.8,2.7,0.7,4.1l-0.4,0.1c0,0-0.3-0.8-0.6-1.5
			c0.1,1.1,0.2,2.8-0.5,4.2l-0.2,0.4l-0.2-0.4c-0.7-1.5-0.7-3.1-0.5-4.2c-0.3,0.7-0.6,1.4-0.6,1.4l-0.4-0.1c-0.1-1.4,0.3-3,0.7-4.2
			c-0.6,0.8-1.1,1.8-1.1,1.9l-0.4-0.1c0.1-1.6,0.9-3.4,1.4-4.4c-0.9,0.8-1.6,1.6-1.6,1.6l-0.4,0.4l0.1-0.6c0.1-1.4,1-2.9,1.7-3.8
			c-0.7,0.5-1.4,1.3-1.4,1.3l-0.3,0.3v-0.5c0-1,0.5-2.6,2.6-4.6c-0.3-0.1-0.8-0.2-1.7-0.2c-0.2,0-0.5,0-0.8,0h-0.1
			c-1.2,0-2-0.3-2.3-0.9c-0.5-0.7,0-1.6,0-1.7l0.3,0.2c0,0,0,0.1,0,0.2c0.1,0.2,0.4,0.4,1.5,0.4c1.3,0.1,2.1,0.5,2.6,0.8
			c-0.7-1.5-0.6-2.9,0-4.6c0.4-1.4,0.3-2,0.3-2.1l0.3-0.1C129,202.9,128.4,204.6,127.9,206"/>
		<path class="st2" d="M154.9,160.8c-1.8-1.1-3.7-2.1-5.7-3l-2.1,3.4c2.1,0.9,4.2,2,6.1,3.2L154.9,160.8z"/>
		<path class="st2" d="M142.6,150.3l-1.1,8.8c1.3,0.4,2.7,0.9,4,1.4l4.6-7.6C147.7,151.9,145.2,151,142.6,150.3"/>
		<path class="st2" d="M103.6,207.1L103.6,207.1c0.4-0.7,4.6-7.2,4.7-7.3c0.1-0.2,0.3-0.2,0.5-0.2c0,0,0.1,0,0.3,0.1l17.5-31.1
			c0.1-0.2,0.3-0.5,0.7-0.5c0,0,0,0,0.1,0s0.2,0,0.2,0c0.8,0,2.4-0.4,3-1.9l0,0l0,0c0.2-0.4,0.3-0.9,0.3-1.3c0-2-1.6-3.6-3.6-3.6
			c-2,0-3.6,1.6-3.6,3.6c0,0.4,0.1,0.9,0.3,1.3c0.1,0.2,0.1,0.3,0,0.5l-16.6,32l0,0c0.3,0.2,0.3,0.5,0.2,0.8
			C107.3,199.7,103.9,206.6,103.6,207.1 M127.3,162.7c1.1,0,1.9,0.9,1.9,1.9c0,1.1-0.9,1.9-1.9,1.9c-1.1,0-1.9-0.9-1.9-1.9
			C125.3,163.5,126.2,162.7,127.3,162.7"/>
		<path class="st2" d="M107.3,161.2l-2.1-3.5c-2,0.9-3.9,1.9-5.7,3l1.7,3.7C103.1,163.2,105.2,162.1,107.3,161.2"/>
		<path class="st2" d="M132.4,157.2c2.5,0.3,5,0.7,7.4,1.4l0.5-3.9c-2.3-0.6-4.7-1-7.1-1.3L132.4,157.2z"/>
		<path class="st2" d="M122.4,85.6c-0.6-0.6-0.8-1.3-1.6-2.2c-0.7-0.8-1.2-1.4-1.8-1.6c-2.1-0.7-3,0-3,0c-0.6-0.1-1.7-0.2-2.2,0.2
			c-0.2,0.2-0.3,0.3-0.1,0.3c0.6-0.1,1.3,0.2,1.8,0.3c0.8-0.2,1.5,0.1,2.2,0.4c0.2,0.1,0.4,0.5,0.1,0.4c-0.1,0-0.3,0-0.3,0
			c-1-0.3-1.5,0-1.8,0.2c0,0,0,0,0.1,0s0.2,0.1,0.3,0.1l0,0c0.5,0.2,1.2,0.2,1.5,0.4c0.7,0.3,1.1,0.4,2.7,2c0.8,0.8,1,1.5,2.1,2.1
			c0.1,0.1,0.3,0.2,0.5,0.3c0.2,0.1,0.5,0.2,0.8,0.3c1.1,0.5,2.2,1.1,2.2,1.1c0.7,0.2,1.4,0.7,1.8,0.3c0.3-0.4,0.5-1.1,0.5-1.4
			c0-0.4,0.1-0.7,0.2-1c-0.3,0.3-0.7,1-0.8,0.9c-0.4-1.2-1.4-2.1-1.4-2.1c-0.2,0.5-0.3,0.6-0.9,0.6
			C124.2,87.3,123.2,86.5,122.4,85.6"/>
		<path class="st2" d="M134.7,95c-0.8,0.2-1.9,0-3.3-0.5c-0.4-0.1-0.8-0.3-1.2-0.4c-0.6-0.3-1.2-0.1-1.8-0.2c-1-0.1-2,0.6-2.1,0.7
			c-0.1,0.1-0.1,0.1-0.2,0.1c-1.3,0.3-1.4,0.9-1.4,1.2l0,0c0,0.1,0,0.1,0,0.2c0.1,0.1,0.1,0.1,0.2,0c0.3-0.2,0.6-0.3,0.9-0.4
			c0.1,0,0.3,0,0.3,0h0.1c0.1,0,0.3,0,0.4,0c0,0,0.1,0,0.4,0l0.7-0.1c0.9-0.2,1.3-0.1,1.1,0c-0.3,0.1-0.5,0.3-0.5,0.3
			c-0.9,0.3-1.2,0.5-1.2,0.7c0,0,0,0.1,0,0.2l0.1,0.1c0.1,0,0.8-0.2,1.3-0.1c0.2,0,1,0.2,1.9,0.2c0.3,0,0.5,0,0.8,0
			c1.9,0.1,3.2,0.4,3.2,0.4l0,0c0.8,0.4,2,0.5,2.3,0.5c0.1,0,0.1,0,0.1,0h0.1c0.2,0,0.6,0,0.7-0.3c0.2-0.3,0.1-1.2-0.1-1.8
			c-0.1-0.3-0.2-0.5-0.2-0.8c-0.3-1.4-0.5-2.8-0.5-2.8c0-0.1,0-0.1-0.1-0.1c-0.7-0.4-1.3-1.2-1.7-1.8l-0.2-0.2c0,0-0.1-0.1-0.2-0.1
			c-0.1,0-0.1,0-0.1,0.1l-0.3,0.7c0,0,0.3,0.8,0.4,2.3c0.1,1.1,0.1,1.2,0,1.5C135,94.9,134.9,95,134.7,95"/>
		<path class="st2" d="M174.4,208.7l-0.4-0.3l0.4-0.1c2.6-0.6,3.1-2.8,3.2-4.1c0.2-3.2-1.5-6.2-3.5-7.2c0.9,2.3,0.5,4.3-1.1,5.6
			c-0.3,0.3-1.3,0.6-2.3,0.6c-1.1,0-3-0.4-3.6-2.8c-0.4-1.7-0.6-3.6,0.5-5.9c-1.3,1.3-2.5,2.9-3.4,4.4c-1.7,2.8-3,11.1-4.4,13.7
			c-1.6,2.8-4.4,3.2-5.8,3.2c-0.1,0-0.6,0-0.7,0l0,0l-1-0.2l0.5,0.9c1.4,2.3,3.6,3.7,6.2,3.7c1,0,2.1-0.2,3.1-0.6
			c3-1.2,4.5-3.3,5.3-4.7l0.2-0.4l0.2,0.4c0.6,1.5,1.5,2.5,2.6,3.7c0.7,0.7,1.4,1.6,2.3,2.7c1.7,2.4,1.8,4.6,1.5,6
			c-0.1,0.4-0.2,0.8-0.3,1.1c1.6-1.2,3.5-3.4,4.3-7.4c0.6-3,0.4-5.7-0.6-8.1C176.5,210.3,175,209.1,174.4,208.7"/>
		<path class="st2" d="M58.6,120.3c1.4,0,2.6,0.5,3.5,1.6s1.3,2.1,1.1,3c-0.2,1.1-1.4,2.2-1.8,2.6c0.3,0.3,1.2,0.9,2.6,0.9
			c2.4,0,3.8-1.7,4.5-2.7l0.1-0.2l0.2,0.2c1.9,2.1,4.4,3.2,7.5,3.2h0.2c3.5-0.1,5.7-1,6.7-1.4c-1.4-0.2-4.8-1.4-8.6-7.1
			c-1.5-2.3-2.7-3.6-3.6-4.2l-0.2-0.2l0.2-0.2c2.2-1.6,3.5-3.7,3.8-6c0.4-2.5-0.4-4.3-0.7-4.8c-0.1-0.3-0.4-0.8-0.6-1.1
			c-0.1,0.3-0.2,0.7-0.4,1.1v0.1c-0.3,0.7-1.1,2.6-5.7,3.6c-4.8,1-5.9,2.4-6.3,3.4l-0.1,0.1h-0.2c-0.5-0.1-1-0.1-1.6-0.1
			c-2.5,0-8.5,0.6-10.1,6.6c-1.3,4.9,0.2,10.2,1.4,12.1c-0.1-1.5-0.2-5,1.9-7.9C53.9,121.1,55.8,120.3,58.6,120.3"/>
		<path class="st2" d="M207,118c-1.6-5.9-7.6-6.6-10.1-6.6c-0.5,0-1.1,0-1.6,0.1h-0.2l-0.1-0.1c-0.4-1-1.4-2.4-6.3-3.4
			c-4.6-1-5.4-2.9-5.7-3.6v-0.1c-0.1-0.3-0.3-0.8-0.4-1.1c-0.2,0.3-0.5,0.8-0.6,1.1c-0.2,0.5-1,2.4-0.7,4.8c0.4,2.4,1.7,4.4,3.8,6
			l0.2,0.2l-0.2,0.2c-0.9,0.6-2.1,1.9-3.6,4.2c-3.8,5.6-7.2,6.8-8.6,7.1c1,0.5,3.3,1.4,6.7,1.4c0.1,0,0.2,0,0.2,0
			c3,0,5.6-1.1,7.5-3.2l0.2-0.2l0.1,0.2c0.7,1,2.1,2.7,4.5,2.7c1.4-0.1,2.3-0.7,2.6-0.9c-0.5-0.4-1.7-1.5-1.8-2.6
			c-0.2-0.9,0.2-1.9,1.1-3c0.7-0.8,2.1-1.4,3.7-1.6l0,0c0.1,0,0.2,0,0.3,0c1.3,0,3.6,0.4,5.4,1.9c1.9,1.5,2.7,4.2,2.9,4.8
			C207.2,124.1,207.7,121,207,118"/>
		<path class="st2" d="M138.6,137.7c0.5,0.8,1,1.7,1.3,2.7h7.7c0.1-0.2,1.1-2.2,0.6-3.9C147.2,133,139.3,136.2,138.6,137.7"/>
		<path class="st2" d="M197.9,121.5c-0.1,0-0.1,0-0.2,0c1.8,1.7,1.8,4.4,0.8,6.1c-3,4.6-9.1,5-15.5,5c-3.1,0-7.1-0.7-8.7-1
			c-5.2-1-9.5-3-12.8-5.8c-2.8-2.2-4.2-4.9-4.2-4.9l-0.2-0.3h0.3c0.5,0,1,0.1,1.5,0.1c6.1,0,8.8-3.2,9.6-4.5
			c0.4-0.6,0.6-1.3,0.8-2.2c-1.3,1.5-3.8,2.5-6.1,2.5c-0.2,0-0.4,0-0.6,0c-6.5-0.5-10.9-3.2-13.4-5.5c-0.1,0.8-0.3,1.4-0.3,1.5
			l-0.1,0.4c0.7,1.1,1.3,2.5,1.4,3.8c0,0.4-1.8-2.8-6.2-6.9c-0.9-0.7-1.9-1.4-3.1-2c-0.1,1.3-1.1,2.2-1.6,2.5
			c-0.7,0.5-1.5,0.8-2.5,0.8c-3,0-4.9-2.9-5-3.5c0,0-2.3,2.9,0.1,6.6c0.8,1.3,2.7,2.1,4.6,2.5h0.2c0,0-3,3.5-2.3,6.5
			c1,4.3,5.4,5.1,7,5.3c-0.2-0.2-0.4-0.5-0.6-1c-0.4-1.1-0.2-2.3,0.7-3.9c1.1-2.2,2.2-4.4,2.2-5.8v-0.6c0,0,1.5,1.1,3.2,3.9l0,0l0,0
			c1.1,2.2,5.4,9.6,11.9,15.6c0.5,0.5,1.3,1.1,2.1,1.7c0.6,0.5,1.2,1,1.6,1.3c0.9,0.8,1.7,1.6,2.5,2.3h-34.8c-0.6,0.5-1,0.9-1.5,1.3
			h37.4v0.2c0,0.6,0,1.3,0,1.9v0.1c0,11.6-0.4,20.7-1.2,28l0,0v0.1l0.1,0.1v0.5l0,0v0.1c-1.5,13.3-4.4,20.2-8.3,28.6
			c-1,2.3-2.4,4.6-3.9,6.9l0,0l-0.6,0.9l-0.2,0.2c-1.7,2.5-3.7,4.9-5.9,7.4l-0.2,0.2l-18.5-36.4l-18.5,36.4l-0.2-0.2
			c-2.3-2.6-4.4-5.2-6.2-7.7l0,0l-0.7-1l-0.1-0.1l0,0c-1.5-2.2-2.7-4.5-3.7-6.6c-5.9-12.8-9.5-22.3-9.6-56.4c0-1,0-2,0-3.1v-0.2
			h26.2c-0.2-0.4-0.3-0.9-0.4-1.3H88.8c1-0.9,2-1.7,3-2.3c0.5-0.3,1-0.6,1.6-0.9c2.5-1.5,5.3-3.2,6.3-4.4l0.2-0.3l0.1,0.3
			c1,2.8,3.9,4.2,5.1,4.3l0,0l0,0c0.1,0.1,0.4,0.1,0.6,0.1c0.1,0,0.2,0,0.2,0c-2.8-3.1-1.7-7.5-1.4-8.7c-2.1,0-2.8-2.3-2.8-2.3
			l-0.1-0.2h0.2c4.8-0.5,5.1-4.2,5.1-4.3l0.1-0.4l0.3,0.3c1.2,1.7-0.8,6.7-1.6,8.7c-0.5,1.7-0.3,3-0.1,3.7c0.2-1.4,0.7-2.8,1.4-4.6
			c1-2.6,2.6-6.1,1.8-8.9c-4.4,0.1-8.8-0.2-12.2-1.4c-0.2-0.1-0.5-0.3-0.5-0.3c0-0.1,2.6-3.8,8-6.9c-3.2,1.5-7.1,3.1-10.9,3.7
			c-0.4,0.1-0.9,0.1-1.4,0.1c-0.3,0-0.5,0-0.7,0c-0.2,0-0.3,0-0.4,0c-2.1,0-3.7-0.6-5-1.8c0,0,2.8,0.5,4.3,0.5c0.5,0,1,0,1.5-0.1
			c3.7-0.4,8.1-2.4,12.8-4.6c1-0.4,1.9-0.9,2.9-1.3c0-0.3-0.1-0.7-0.1-1c0-0.2,0-0.4,0-0.5c-1.2,0.5-2.6,1.2-3.6,1.7
			c-4.6,2.2-8.7,4.1-12.5,4.5c-0.7,0.1-1.3,0.1-1.9,0.1c-2.9,0-4.5-0.6-5.3-2.4c-0.1-0.2-0.1-0.4-0.2-0.6c-0.7-3.4,0.6-7,2.8-7.9
			c0.8-0.3,1.5-0.5,2.2-0.5c3,0,3.9,1.6,4.5,2.6c0.3,0.6,0.5,1.2,0.6,1.7c0.1-0.3,0.2-0.8,0.3-1.4c0.3-8.7-8.8-9.6-8.9-9.6h-0.3
			l0.1-0.3c0.4-0.9,1.9-2.9,7.1-6.9c3-2.4,5.2-5.2,5.7-7.5c0.3-2.7-2.3-4.9-3.9-5.5c-3.3-1.3-6.9-0.7-8,0.2c-0.2,3-1.9,5.9-6.6,11.3
			c-3.3,3.8-4.7,7.1-5.3,9.1l-0.1,0.5L73.6,97c-2.7-5.9-8-6.5-10.2-6.5h-0.1c-1.6,0-2.6,0.2-3.2,0.4c1.4,0.4,4.6,2.2,5.1,9.7
			c0.2,3.4,1,5.2,1.8,6.4c0,0,0.1,0,0.2,0c4.1-0.1,5.4-5.6,5.4-5.8l0.2-0.9l0.7,0.6c0,0,1.7,1.6,2.6,3.7v0.1c2,4.5,1.4,8.6-1.8,11.7
			c0.7,0.8,1.5,1.9,2.4,3.3v0.1c0.5,0.7,0.9,1.3,1.4,1.9c3.1,2.3,6.2,3.2,10.1,3.2c1.7,0,3.4-0.2,5.1-0.5l0.6-0.1l-0.4,0.4
			c-5.3,5.8-11.6,8.7-20,9.3c-1.1,0.1-2.1,0.1-3.1,0.1c-5.5,0-9.4-1.2-11.7-3.6c-2-2.1-2.1-4.6-2-5.5c0.1-1,0.3-1.8,0.5-2.3
			c-1.4,0.2-2.4,1-3.1,1.9c-1,1.6-1.9,4.1-1.2,6.8c0.5,2.1,1.9,3.7,4.1,4.9c1,0.4,2.1,0.7,3.2,1l0.4,0.1l0-0.1
			c-4.9,3.5-5.5,9.6-5.5,9.8l-0.1,1.6l1-1.2c0,0,2.9-3.5,8.5-4.3c4.2-0.6,8.7-2.8,9.3-3.2c0.5-0.3,0.6,0.1,0.3,0.4
			c-0.3,0.3-4.3,3.2-6.9,4.8c-1.2,0.8-2.2,1.4-3.3,2.1c-3,2.4-4.4,7.6-3.1,11.7c0.3,1,0.8,1.9,1.4,2.6c1.9-5.8,10.3-11,15.3-13.5
			l0.3-0.1v0.3c-0.1,3.9,0.4,6.3,1.7,8c1,1.4,2.7,1.6,4,1.6c0.7,0,1.3-0.1,1.7-0.2c-0.9-0.7-2.9-2.9-1.5-7.8
			c0.7-2.4,1.9-4.4,3.3-6.2c0,12.8,0.3,22.3,1.2,30c0.7,6.4,1.7,11.4,3.1,16.1c-2-4.6-6.5-10.7-17.1-15.3l-0.6-0.2l0.6-0.1
			c1.1-0.2,2.3-0.6,3.5-1.1c1.3-0.5,2.9-1.2,4.2-1.2c0.1,0,0.1,0,0.2,0c2.3,0.1,3.5,1.9,4.1,3c0-1.6-0.3-4.9-2.6-7.3
			c-1.6-1.7-3.9-2.5-6.8-2.5c-0.2,0-0.4,0-0.6,0H76v-0.2c0.2-1,0.2-2.6-0.5-4.2c-0.9-1.7-2.6-2.9-5.1-3.6l-1.2-0.3l0.7,1.1
			c0.1,0.1,1.5,2.3,0.7,4.3c-0.6,1.7-2,2.8-3.8,3c-0.4,0.1-0.9,0.1-1.3,0.1c-2.7,0-5-1.2-6.3-3.3c-1.9-2.9-2.3-5.8-1.3-9.6
			c0.2-0.9,0.6-1.6,0.8-2.1c-1.8,1.5-6.4,7.3-2.6,25.2c3.4,16,0.3,23.3-0.8,25.1l0,0c-0.2,0.3-0.4,0.6-0.6,0.8h1
			c0.5,0,5.2-0.1,8-3.4c1.6-1.9,2.3-4.4,2-7.5V190l0.7,0.4c1.7,1,4.4,2.4,5.5,5.9c0.2,0.5,0.2,0.9,0.3,1.2c0.2-0.2,0.4-0.6,0.6-1
			c0.5-1.1,3-7.1-1.2-13l-0.3-0.4l0.5,0.1c1.4,0.4,6.4,1.8,11.2,4.9c5.1,3.3,8.4,7.2,9.8,11.8c0-0.2,0-0.3,0-0.5
			c0.1-1.4,0.2-3.8-0.4-6.4c1.2,3.5,2.7,6.9,4.4,10.7c3.3,7.1,8.9,14.4,16.7,21.6c6.1,5.7,11.7,9.5,13.2,10.6l0.7,0.4l0.6-0.4l0,0
			c1.6-1,7.1-4.9,13.2-10.6c7.8-7.2,13.4-14.5,16.7-21.6c1.3-2.8,2.4-5.3,3.4-7.9c-0.2,1.7-0.1,3.2,0,4.2c0,0.2,0,0.4,0,0.5
			c1.3-4.6,4.6-8.5,9.8-11.8c4.8-3,9.8-4.5,11.2-4.9l0.5-0.1l-0.3,0.4c-4.2,5.9-1.7,11.9-1.2,13c0.2,0.4,0.4,0.8,0.6,1
			c0-0.3,0.1-0.7,0.3-1.2c1.1-3.5,3.7-5,5.5-5.9l0.7-0.4v0.4c-0.3,3.1,0.4,5.6,2,7.5c2.8,3.3,7.5,3.4,8,3.4h1
			c-0.2-0.2-0.4-0.5-0.6-0.8l0,0c-1.1-1.9-4.2-9.1-0.8-25.1c1.3-6.3,2.5-15,0.3-21.1c-0.8-2.3-1.9-3.5-2.6-4.1
			c0.2,0.4,0.4,0.9,0.6,1.7c1,3.9,0.3,7.9-1.9,10.3c-1.3,1.5-3.9,3-6.4,3c-1.4,0-3.4-0.5-4.5-3c-0.8-1.9,0.6-4.1,0.7-4.4l0.7-1.1
			l-1.3,0.3c-2.5,0.7-4.2,1.9-5.1,3.6c-0.8,1.5-0.7,3.1-0.5,4.2v0.2h-0.2c-0.2,0-0.4,0-0.6,0c-2.9,0-5.2,0.8-6.8,2.5
			c-2.3,2.4-2.6,5.8-2.6,7.3c0.5-1.1,1.8-2.8,4.1-3c0.1,0,0.1,0,0.2,0c1.3,0,2.9,0.7,4.2,1.2c1.2,0.5,2.4,0.9,3.5,1.1l0.6,0.1
			l-0.5,0.2c-8.7,3.8-13.3,8.6-15.8,12.8c2.5-9,3.6-19.9,3.6-39.4c0-1.3,0-2.7,0-4.1c2.4,3,3.6,5.9,3.2,9.6c0.2-0.4,0.5-1,0.6-1.9
			c0.8-7.7-8-13.9-9.5-15.1c-1.6-1.4-3.2-2.7-3.6-3.2c-5-5.2-6.2-8-7-9.3c3.5,3.5,9.8,5.3,9.9,5.3h0.2v0.2c0,1.4-0.7,2.6-1,3.1
			c7.9,4.4,12.3,9.4,13.1,14.7c0.8,5.4-2.4,9.5-3.9,11.2l1-0.2c3.9-0.8,5.2-2.3,6.1-4.6c0.6-1.6,0.6-3.5-0.2-5.7l-0.2-0.6l0.5,0.4
			c1.8,1.5,4.6,3.5,8.7,6.2c5.4,3.5,5.9,6,6,7.5c0.8-0.8,1.4-1.8,1.7-3c1.2-3.8,0.4-7.3-2.4-10.4c-1.3-1.4-2.4-2.2-3.9-3.3
			c-1.5-1.1-3.4-2.4-6-4.8c0,0-0.6-0.7,0.2-0.3c0.8,0.4,4.7,1.4,8.1,2.2l1.5,0.3c5.1,1.2,6.8,4.1,7.4,5.4c0.2-0.8,0.4-2.2,0.3-3.8
			c-0.2-3.1-1.6-5.4-4.2-6.7l-0.5-0.3l0.6-0.1c3.1-0.5,5.6-1.4,7.5-2.9c2.6-2.5,3.2-5.6,1.8-9.3
			C203.4,124.7,202.1,121.5,197.9,121.5 M136.8,211.5l-8.9,18.4c-0.1,0.3-0.4,0.4-0.7,0.4c-0.3,0-0.6-0.2-0.7-0.4l-8.8-18.4
			c-0.1-0.2-0.1-0.5,0-0.7l8.8-18.8c0.1-0.3,0.4-0.5,0.7-0.5s0.6,0.2,0.7,0.5l8.9,18.8C136.9,211.1,136.9,211.3,136.8,211.5"/>
		<path class="st2" d="M100.4,215.7c-0.1,0-0.5,0-0.7,0c-1.4,0-4.4-0.3-5.8-3.2c-1.7-3.5-0.6-7.7-4.2-13.9c-1.4-2.4-3-4.1-4.3-5.2
			c1.8,2.8,1.6,4.9,1.1,6.9c-0.6,2.5-2.5,2.8-3.6,2.8c-1,0-1.9-0.3-2.3-0.6c-1.6-1.3-2-3.3-1.1-5.6c-1.9,1-3.7,4-3.5,7.2
			c0.1,1.3,0.6,3.5,3.2,4.1l0.4,0.1l-0.4,0.3c-0.6,0.4-2.1,1.6-3.1,4s-1.2,5.1-0.6,8.1c0.8,4.1,2.7,6.3,4.3,7.4
			c-0.1-0.3-0.3-0.6-0.3-1.1c-0.3-1.5-0.2-3.7,1.5-6c0.8-1.1,1.6-1.9,2.3-2.7c1.1-1.2,2-2.2,2.6-3.7l0.2-0.4l0.2,0.4
			c0.8,1.5,2.3,3.5,5.3,4.7c1,0.4,2.1,0.6,3.1,0.6c2.5,0,4.8-1.3,6.1-3.7l0.5-0.9L100.4,215.7L100.4,215.7z"/>
		<path class="st2" d="M119.8,140c-0.5-3.2-1.6-6-2.8-8.3c-2.9,4.8-0.9,10.7,0.4,13.5L119.8,140z"/>
		<path class="st2" d="M149.3,84.2h-0.2l0.2,0.1c0.5,0.4,1.4,1.5,2,1.5c0.4,0,0.6-0.1,0.8-0.2l0,0l0,0c0.3-0.9-0.2-3.1-0.9-3.8
			l-0.2-0.2v0.3c0,0.4,0,0.9-0.3,1.4C150.4,83.8,149.9,84.1,149.3,84.2"/>
		<path class="st2" d="M98.1,166.4c0.5-0.3,1-0.7,1.5-1l-3.6-8.1c-1.8,1.2-3.8,2.6-5.6,4c0,0.5,0.1,1,0.1,1.5l5.6,5.3
			C96.8,167.4,97.5,166.8,98.1,166.4"/>
		<path class="st2" d="M163.9,161c-1.6-1.2-3.6-2.6-5.5-3.8l-3.7,8.1c1,0.7,2,1.3,2.9,2l0.8,0.6l5.5-5.5
			C163.9,162,163.9,161.5,163.9,161"/>
		<path class="st2" d="M164.2,145H135l-0.7,3.1l-0.7,3.7c2.3,0.3,4.6,0.7,6.9,1.2l0.5-3.9c0-0.2,0.2-0.5,0.4-0.6s0.3-0.2,0.5-0.2
			c0.1,0,0.1,0,0.2,0c3.3,0.8,6.6,2,9.7,3.4c0.2,0.1,0.4,0.3,0.5,0.5s0,0.5-0.1,0.7l-2,3.3c1.9,0.8,3.7,1.8,5.5,2.9l1.6-3.6
			c0.1-0.2,0.3-0.4,0.5-0.5c0.1,0,0.2,0,0.3,0c0.2,0,0.3,0,0.4,0.1c1.9,1.1,3.9,2.5,5.6,3.7C164.4,151.2,164.2,146,164.2,145"/>
		<path class="st2" d="M121.6,147.3l1.1,4.9v0.1l1,4.7c1.2-0.1,2.3-0.1,3.5-0.1c1.1,0,2.3,0,3.4,0.1l2-9.3l0.5-2.7h-6.9
			C124.8,146,123.2,146.8,121.6,147.3"/>
		<path class="st2" d="M145.4,199.5c0.2,0,0.4,0.1,0.5,0.3c0,0.1,2.6,4.3,4.2,6.9l0.7,1l-0.1-0.2c-1-2.1-3.9-8.1-3.9-8.1
			c-0.1-0.3,0-0.6,0.2-0.7h0.1l-15.7-30.5c-0.9,1.2-2.2,1.6-2.9,1.7l16.6,29.9C145.3,199.5,145.4,199.5,145.4,199.5"/>
		<path class="st2" d="M120.2,55.8c0.5,0.2,1.1,0.4,1.6,0.7c0.3,0.2,0.9,0.5,1.7,1l0.6-0.8c-0.6-0.4-1.2-0.7-1.8-1
			c-0.6-0.3-1.3-0.6-1.9-0.8L120.2,55.8z"/>
		<path class="st2" d="M123.7,54.8l0.9-1.5c-0.4-0.2-0.8-0.4-1.2-0.6c-0.4-0.2-0.8-0.4-1.2-0.6l-0.6,1.6c0.4,0.2,0.9,0.4,1.3,0.6
			C123.2,54.6,123.4,54.7,123.7,54.8"/>
		<path class="st2" d="M116.3,57c1.4,0.3,2.6,0.7,3.9,1.3l0.4-0.9c-1.9-0.8-3.5-1.2-4.3-1.3V57z"/>
		<path class="st2" d="M127.8,55.4l-1.2,1.3c0.5,0.4,1,0.9,1.4,1.3l1.6-1.1C128.9,56.4,128.4,55.9,127.8,55.4"/>
		<path class="st2" d="M121.4,58.9c1.1,0.6,2.1,1.3,3,2.1l0.7-0.6c-0.9-0.9-2.2-1.8-3.3-2.4L121.4,58.9z"/>
		<path class="st2" d="M118.9,55.4l0.2-1c-1.1-0.3-2.1-0.5-2.7-0.6v1C116.9,54.9,117.8,55.1,118.9,55.4"/>
		<path class="st2" d="M129.7,34.7c-0.2,0.5-0.3,0.8-0.4,1.2c-0.7,2.1-0.6,3.6-0.6,4.1c0.3,0.6,0.6,1.3,0.9,2
			c1.3,3.9,0.9,8.4-1.2,12.5c0.6,0.5,1.2,0.9,1.7,1.4l0,0c0.8-2.8,1.8-6.3,3.5-8.7c0.8-1.1,2.4-2.3,4.2-3.8l0.6-0.5
			c0.6-0.5,1.4-1.1,2.1-1.7c0-0.5-0.1-0.8-0.1-0.9l-1.7,0.7l0.7-1.7c1.3-3.3,1.1-6.1,0.8-7.3c-1.5,2.4-2.7,3.1-2.7,3.1l-0.4,0.2
			l0.1-0.4c0-0.1,2.1-6.3-0.5-10.7l0,0c0.2,2.8-1.1,5.3-1.2,5.4l-1.3,2.4H134v-2.8c0-1.2-0.2-7.5-4.8-9.5c1.6,2.3,2.6,6.4,2.3,7
			c0,0.1-0.1,0.1-0.1,0.1h-0.1c-0.3-0.2-0.6-0.3-0.7-0.3l0,0c0.7,2,0.4,3.7,0.1,4.8C130.5,32.7,130.1,33.8,129.7,34.7"/>
		<path class="st2" d="M118.3,52.8l0.3-1.8c-0.7-0.2-1.5-0.3-2.2-0.4v1.9C116.9,52.5,117.5,52.6,118.3,52.8"/>
		<path class="st2" d="M108.4,42.4C108.5,42.4,108.5,42.4,108.4,42.4c0.1,0,0.2-0.1,0.2-0.2c0.2-0.3,0.4-0.7,1.3-1
			c0.1,0,0.2,0,0.2,0c0.3,0,0.6,0.1,0.8,0.4c0.3,0.3,0.4,0.8,0.3,1.2c-0.1,0.8-0.9,1.2-1.6,1.2c-0.2,0-0.4,0-0.6-0.1
			c-0.2,0.2-0.1,0.5-0.1,0.7c0.2,0.8,0.8,1.6,1,1.6c2.1-0.4,2.8-1.7,3.5-3.1c0.2-0.3,0.3-0.7,0.5-1c1.1-1.9,2.5-2.3,3.2-2.5
			c0.8-0.2,1.6-0.4,2.3-0.4c0.9,0,1.8,0.2,2.5,0.6c2,1.1,2.5,3.3,2.5,3.3c0.7,3.1-0.1,5.9-1.5,8.1c0.3,0.1,0.5,0.3,0.8,0.4
			c0.6,0.3,1.2,0.6,1.8,1l0.5,0.3l-1.4,2.3c0.3,0.2,0.6,0.4,0.9,0.6c0.4-0.5,0.6-0.9,0.7-0.9c2.4-3.9,3-8.4,1.7-12.3
			c-1-2.8-2.8-5-5-5.8c-1.3-0.5-2.6-0.7-3.8-0.7c-2.1,0-3.8,0.7-4.8,1.2c-1.2,0.7-3,1.4-3.1,1.4c-2.2,0.6-3.8,1.4-4.6,2.4
			C107.6,41.4,108.2,42.1,108.4,42.4"/>
		<path class="st2" d="M125.3,57.4l-0.7,0.9c0.5,0.4,1,0.8,1.4,1.3l0.8-0.7C126.4,58.4,125.9,57.9,125.3,57.4"/>
		<path class="st2" d="M124.9,85.2c0.1,0.1,0.4,0.3,1.1,0.1c0.1-0.1,0.3-0.2,0.5-0.1c0.7,0.3,1,1.3,1.3,1.8l1-0.8
			c0.1-0.1,0.1-0.1,0.2-0.1c0.2,0.1,0.1,0.4,0.3,1c0.1,0.3,0.3,0.5,0.6,0.7c-0.1-1.3,0.1-1.8,0.5-2.2c-1.2-1-3-1.6-3.9-2
			C126.6,84.6,125.3,84.7,124.9,85.2"/>
		<path class="st2" d="M110.1,43.3c0.2,0,0.5-0.1,0.5-0.3c0.1-0.3,0-1.1-0.7-1c-0.2,0-0.2,0.2-0.1,0.2c0.2,0.1,0.4,0.6,0.2,1
			C110,43.2,110,43.2,110.1,43.3"/>
		<path class="st2" d="M135,48.2c-1.4,2-2.4,5.3-3.1,7.9l-0.2,0.7c-0.4,1.3-0.7,2.3-1,3.2c-1.4,3.6-5.7,4.3-5.8,4.4h-0.1
			c-0.3,0-0.5-0.1-0.7-0.4c-0.5-0.7-0.6-1.5-0.6-2.3c-1-0.8-2.1-1.5-3.3-2.1c-1.3-0.6-2.6-1.1-4-1.4c-0.4,0.3-0.7,0.6-0.9,0.8
			l-0.1,0.1c-2.2,2.2-3.3,4.4-3.6,6.8c0,0.1,0,0.2,0,0.3v0.1c0,0.7-0.3,2.1-0.9,3.2l0,0c0.2-0.1,0.5-0.3,0.8-0.5
			c0.1,0,0.1-0.1,0.2-0.1c0.3,0,0.5,0.5,0.5,0.7c0.8,4.4,4.3,7.7,7,8.1c0.1,0,0.2,0.1,0.4,0.3c0.7,0.7,2.6,2.4,7.1,4
			c4.2,1.5,4.9,2.3,6.5,4.7c0.7,1,1,1.9,1,2.7c0.2-0.4,0.4-0.9,0.5-1.3c0.2-0.5,0.2-0.6,0.3-0.6h0.1c0.1,0,0.1,0.1,0.2,0.3
			c0.1,0.3,0.4,1.2,0.4,1.4c0.5,1,1.3,1.5,2,1.9v-0.1c-0.3-0.5-0.7-1.1-0.8-2.3c-0.1-0.7-0.1-1.4-0.2-2c0-0.5-0.1-0.7-0.1-1
			c-0.1-0.4-0.2-0.8-0.2-1c-0.1-0.4-0.2-0.6-0.1-0.7c0,0,0.1-0.1,0.2-0.1l0,0c0.2,0,1.3,0.6,1.8,1.1c2.3,2.5,5.7,2.4,6.8,2.4
			c0.1,0,0.2,0,0.2,0l0,0c0.1,0,2.5,1.6,5.3-0.2c-0.9-0.2-2.2-1.4-3.1-2.3c-0.6-0.6-1-0.6-1.7-1.3c-0.2-0.2-0.3-0.3-0.5-0.5
			c-0.3-0.3-0.5-0.5-0.7-0.8c-0.4-0.4-0.6-0.6-0.8-0.7c-0.2-0.1-0.3-0.2-0.3-0.4V81l0.1-0.1c0.1-0.1,0.1-0.1,0.2-0.1h0.1
			c0.1,0,0.2,0,0.3,0c0.4,0,0.7,0,1.1-0.1h0.2c-1.4-0.4-2.7-1.6-3.5-2.3c-0.1-0.1-0.3-0.2-0.4-0.3c-0.3-0.2-0.6-0.4-0.5-0.6
			c0-0.2,0.2-0.3,0.6-0.4c-0.4-0.2-0.6-0.6-0.9-1.1c-0.7-1.1-1.3-2.1-4.3-3.4c-0.2-0.1-0.3-0.1-0.4-0.2c-0.3-0.1-0.4-0.2-0.4-0.3
			s0-0.2,0.2-0.2c4-1,7.7-4.3,9.3-6.9c1.6-2.6,2.4-5.5,2.4-5.6c0.1-0.2,0.2-0.4,0.3-0.5c3.3-2,6.5-4.2,7.9-6.2l0,0h-0.1
			c-0.6,0-2.1-0.2-2.2-0.6c0-0.2,0.1-0.3,0.4-0.5c0.7-0.5,2.3-1.5,3.4-4.5c-0.8,0.3-1.6,0.3-2,0.3c-0.1,0-0.2,0-0.3,0
			c-1.6-0.1-1.7-0.4-1.7-0.5c-0.1-0.2,0.1-0.3,0.5-0.5c0.9-0.6,3-2,3.9-5.4c0.2-0.6,0.2-1.3,0.1-1.6c-0.9,1.1-2,1.6-2.5,1.7
			c-0.1,0-0.4,0.1-0.6,0.1c-0.3,0-0.4-0.1-0.5-0.2c-0.1-0.1,0-0.3,0.3-0.7c0.7-1.1,2.2-3.6,2-7.6c0-0.6-0.2-1.3-0.3-1.5
			c-0.6,2.6-2.2,4.2-2.5,4.5l-0.1,0.1c-0.5,0.5-1,0.9-1.3,0.9h-0.1c-0.2-0.1-0.1-0.3,0.1-1c0-0.1,0.1-0.2,0.1-0.3
			c0.9-4.3-0.1-7.9-1.4-9.9c-0.2-0.3-0.4-0.5-0.5-0.6l0,0c0.6,1.8,0.7,3.8,0.2,6.1c-0.5,2.5-1.6,4.2-1.6,4.3c-0.4,0.6-0.7,1-1.1,1.1
			h-0.1l-0.1-0.1c-0.1-0.1,0-0.2,0-0.4c0-0.3,0.1-0.8,0.1-1.5c0-0.2,0-0.3-0.1-0.4l0,0c-0.6,2.5-2.5,5.2-5.6,8.1l-0.1,0.1
			c-1,0.9-2.1,1.9-3.2,2.7C137.1,46.1,135.6,47.3,135,48.2 M141.3,46.2c3.3-2,4.9-3.9,5.7-4.8c0.4-0.4,0.6-0.6,0.7-0.6l0,0l0,0
			c0,0,0.1,0.1,0.1,0.2c0,0.7-1.3,3.2-5.7,6c-0.9,0.6-1.7,1.1-2.2,1.6c-1.8,1.5-2.3,3-2.7,6.5c-0.1,0.6-0.1,1.1-0.2,1.7
			c-0.3,2.5-0.5,4.5-1.4,6.2c-0.5,0.8-1.4,1.1-1.7,1.1c-0.1,0-0.1,0-0.1,0c-0.2-0.2-0.1-0.4,0.1-0.8c0.1-0.2,0.3-0.5,0.4-0.8
			c0.6-1.6,1.2-4,1.6-7.5c0.5-3.7,0.8-5.2,3-7.1C139.6,47.3,140.5,46.7,141.3,46.2"/>
		<path class="st2" d="M125.2,62.2c1-0.3,3.2-1.1,4.1-3.2c0.1-0.2,0.1-0.3,0.2-0.5l-1.3,0.9l-3,2.6C125.1,62,125.1,62.1,125.2,62.2"
			/>
		<path class="st2" d="M101.3,47.7c0.1-0.2,0.4-0.5,1.5-0.7c1.4-0.2,1.9-0.3,2.3-0.4c0.9-0.3,3-0.7,3.5,0c-0.1,0.1-0.4,0.2-0.6,0.2
			s-0.3,0.2-0.3,0.2c-0.9,0.9-2.4,1.8-2.9,1.9c-0.5,0.1,0.3-0.5,0.9-1.1c0.3-0.3,0.9-1,1-1.2c0,0-0.3,0.1-0.4,0.1
			c-0.3,0.4-0.7,0.9-1.2,1.3c-1.5,1-1.7,1.5-1.8,1.5c-0.1,0.1-0.3,0.4,0.2,0.4h0.1c0.9,0,2.4-0.9,3.6-1.6c0.3-0.2,0.6-0.3,0.8-0.5
			c0.5-0.4,1-0.7,1.4-1c-1.5-1.3-1.4-3-1.4-3c0-0.6-1-1.9-2.3-1.8c-1.2,0.1-1.8,1.4-0.6,1.6c1.7,0.4,1.9,1.6,1.9,1.6
			s-0.7-0.4-1.4-0.6c-0.4-0.1-0.7-0.2-0.8-0.2c-0.5,0.4-1,0.8-2,1.1c-1.2,0.4-1.7,0.8-1.6,1.4C100.9,47.3,101.1,47.6,101.3,47.7"/>
		<path class="st2" d="M117.7,100.7c-0.4-0.2-1.1-0.1-1.3,0c-1.5,0.6-2.6,1.2-3.7,1.8c-0.3,0.2-0.4,0.5-0.3,0.5
			c0.2,0.1,0.5,0.3,0.7,0.5c0.7-0.4,2.7-1.3,5.5-2.2C118.2,101,117.9,100.9,117.7,100.7"/>
		<path class="st2" d="M125.8,99.1c-0.2-0.2-0.7-0.6-1.5-0.5c-1.6,0.2-3.5,0.5-5,1.1c-0.3,0.1-0.4,0.3-0.2,0.4
			c0.5,0.4,1.1,0.9,1.8,1.6c0.9,1.1,1.5,1.3,1.9,1.3c1.5-0.3,3-0.5,4.6-0.6c0.3,0,0.5,0,0.8,0c-0.2-0.3-0.4-0.6-0.7-1.1
			C126.7,99.8,126.3,99.4,125.8,99.1"/>
		<path class="st2" d="M110.3,104.1c-1.9,1.7-1.7,4.9-1.4,6.6c1.3-1.4,2.9-2.7,4.6-3.9c0.3-0.2,0.7-0.5,1.1-0.7
			c-0.4-0.2-0.8-0.5-1.2-0.9c-1-0.8-1.7-1.2-2.2-1.4C111,103.8,110.6,103.8,110.3,104.1"/>
		<path class="st2" d="M130.6,99.3c1.3,0.1,2.4,0.2,3.5,0.4c-0.3-0.6-0.6-0.9-0.7-0.9c-1.6-0.3-3.2-0.4-4.9-0.4h-0.2h-0.2
			c-0.4,0-0.8,0-1.2,0c0.2,0.2,0.5,0.6,0.7,0.9C128.6,99.2,129.6,99.2,130.6,99.3"/>
		<path class="st2" d="M70.5,84.1c0.5,0,2-0.1,2.4-0.2c-1.1-0.2-3.2-1-3.4-3.9c0-0.3-0.3-2.9,2.5-5.1l1.2-0.9h-1.4
			c0,0-2.6-0.1-4.6-1.1c0,0-3.1-1.4-4.5-3.7l-0.4-0.6l-0.4,0.6c-0.2,0.2-4.2,5.6-1,11.2C61.4,81.3,67,84.1,70.5,84.1"/>
		<path class="st2" d="M78.4,72.8c0.1,0.4-0.4,0.5-0.5,0.6c-5.5,3.2-6,5.2-5.8,6.8c0.2,1.8,1.8,1.9,2.5,1.9s1.6-0.2,2.2-0.6
			c0.5-0.6,1-1.2,1.4-1.8c2.2-2.9,4.8-5.4,7.9-6.2c1.4-0.4,3.4-0.7,5.1-0.5c4,0.5,6.4,2.6,7.2,4.1c-0.2-1.1-1.1-4-3.2-5.5
			c-2.1-1.5-4.3-2.9-8.1-4.3c-0.1-0.1-3.5-1.4-6.4-1.4c-0.7,0-1.4,0.1-1.9,0.2c-2.1,0.6-3.7,2-5.3,3.3c-1,0.9-2,1.7-3,2.3
			c1.1,0.4,2.9,0.6,5.1,0.6C76.3,72.3,78.3,72.4,78.4,72.8"/>
		<path class="st2" d="M102.3,118c0,0,0.7-1,2.7-2.4c0.3-0.8,0.7-1.5,1.1-2.1c-1.2,0.7-2.4,1.4-3.5,2.2c-2,1.5-3.3,2.9-4,3.6
			c9.7,2.7,24.4-1.5,31.7-3.9c-0.4-0.5-0.8-1.1-1.1-1.7C125.7,115,112.3,119.4,102.3,118"/>
		<path class="st2" d="M170.3,76.4c0,0.1,0,0.2,0.1,0.3c0.7,0.5,2,1.7,3.3,3.2l0.6,0.7c1.9,2.3,4.3,5.1,8.8,5.2
			c4.9,0,7.6-3.2,8.4-4.3c-0.2,0-0.5,0.1-0.9,0.1c-0.2,0-0.5,0-0.7,0c-2.6-0.2-5.4-3.7-8-7.5c-1.1-1.6-2.4-3.4-3.2-4.1
			c-0.1-0.1-1.3-0.6-2.8-0.6C173.9,69.3,169.3,70.6,170.3,76.4"/>
		<path class="st2" d="M141.4,101.2c-0.4-0.8-5-2.2-6.2-2.1c0.3,0.6,0.6,1.5,0.9,2.6c0.3,1.4,0.8,2,1,2.2c1.9,0.6,3.5,1.4,4.8,2.2
			c0-0.4,0-0.8,0-1.3C142.1,102.2,141.5,101.3,141.4,101.2"/>
		<path class="st2" d="M190.2,79.3c0.2,0,0.4,0.1,0.6,0.1c0.8,0,1.4-0.3,1.9-0.5c0.9-2.5,0.4-5.4-0.3-7.2c-0.3-0.6-0.6-1.3-0.7-1.6
			l-0.5,0.6c-1.8,1.9-4.6,2.8-6.8,3.2C186.8,77.1,188.8,79,190.2,79.3"/>
		<path class="st2" d="M163.6,90.8c2.4,1.7,5.1,3.9,5.7,5.3l0.1,0.3h-0.3c-0.3,0-0.6-0.1-0.9-0.1c-1.8,0-3.5,0.5-5.2,1.7
			c-3.8,2.6-3.6,6.7-3.4,8l0,0l0.3,1c0.6-1.1,2.5-4.1,5.3-4.1c0.9,0,1.9,0.3,2.8,1c1.3,0.7,2.6,2.9,3.2,5.6c0.8,3.4,0.3,6.6-1.3,8.7
			c-3.3,4.2-8.1,4.6-9.5,4.6c0.5,0.6,1.8,1.7,3.8,2c0.6,0.1,1.2,0.1,1.8,0.1c0.4,0,0.8,0,1.2,0c4.6-0.3,7.8-1.6,10.9-4.5
			c0.4-0.5,1.1-1.2,1.4-1.7c0.4-0.6,0.7-1.1,1-1.6c0.5-0.8,0.8-1.3,1.3-1.9c-2.3-2.2-4.4-6.3-1.8-11.8v-0.1c1-2.1,2.6-3.7,2.6-3.7
			l0.7-0.6l0.2,1.2c0.3,1,1.4,4.8,4.1,5.2c0.2-0.9,0.3-1.6,0.4-3.2c0.5-8.6,4-10.6,5.2-11c-0.5-0.3-1.6-0.8-3.1-0.8H190
			c-2.2,0-5.6,1-9.2,6l-0.2,0.3l-0.1-0.4c-0.4-1.7-1.7-5.1-5.8-8.6c-4.5-3.8-6.9-8.4-6.7-12.9c0.1-4.6,3.2-6.3,5-7c-0.1,0-0.9,0-1,0
			c-0.6,0-1.3,0.1-2.1,0.3c-1.7,0.5-10,4.1-11.9,8.2C154.8,83.2,160.2,88.4,163.6,90.8"/>
		<path class="st2" d="M146.2,103.9c-0.5-0.4-1.2-0.8-2.1-1.3c-0.3-0.2-0.6-0.4-1.1-0.4c0.1,0.3,0.1,0.7,0.2,1.1
			c1.8,1.1,2.9,2,3.6,2.7c0.2,0.3,0.4,0.7,0.6,1.1c0.2,0.5,0.4,1,0.5,1.5C148,106.9,147.6,105,146.2,103.9"/>
		<path class="st2" d="M166,104.8c-1,0.2-3.7,0.9-4.7,4.4c1.7,2.2,4.7,2.5,5.8,2.6l-0.7-0.9c-1.9-2.3-1.4-4.3-1-5.3
			C165.6,105.3,165.8,105,166,104.8"/>
		<path class="st2" d="M131.9,104.9c0.2,0,1.3,3.1,5,3.9c1.7,0.4,2.5-1.2,1.9-2.4c-3-1.4-6.9-2.5-11.4-2.3c-5,0.2-11,2.1-15.4,5.8
			c-0.1,0-0.1,0.1-0.2,0.1c0,0-0.1,0.1-0.2,0.1c-0.6,0.6-1,1-1.2,1.1l0,0c-2.3,2.5-2.5,4-2.5,4.4c0.9,0.5,11,0.1,21-3.7
			C128.6,106.8,131.7,104.9,131.9,104.9"/>
		<path class="st2" d="M145.6,123.7c0.1-0.4,0.3-0.7,0.4-1.1c0-0.1,0.1-0.2,0.1-0.3c-0.3-0.6-1-1.3-1.2-1.6c-0.3,1.2-0.8,2-1.3,3.2
			c-0.4,0.9-0.4,1.2-0.5,1.7c0.4,0,1.6,0,2,0.1C145.1,125.3,145.3,124.6,145.6,123.7"/>
		<path class="st2" d="M142.8,130.1c-1.7,0.1-3.8-0.2-5.5-0.7c-7.3,3.3-14.5,9.9-16,11.2l0,0l-2.4,5.6c5.2-1.4,8.8-4.7,12.3-7.9
			c2.3-2.1,4.7-4.3,7.5-5.8c4.2-2.4,7.5-2.5,9.7-0.6l0,0c2.3,2.5,1.6,6.4,0.9,8.4h0.4c1.3-2.3,1.8-6.5,0.3-9.4
			c-1.1-2-3.5-3.8-7.1-3.4c0.1,0.4,0.4,0.8,1.1,1.4C145,130,142.8,130.1,142.8,130.1"/>
		<path class="st2" d="M87.8,111.6c1.7,0.3,3.5-0.5,4.7-1.8c0-0.9-0.4-2.3-1.5-3.5c-0.8-0.8-1.8-1.3-3.1-1.3
			c0.3,0.3,0.6,0.7,0.7,1.1C90.2,109.9,87.8,111.6,87.8,111.6"/>
		<path class="st2" d="M131.8,116.8c-4.6,1.6-13.4,4.4-22,5c2.9,1.7,9.5,6.5,11.5,16.4c2.9-2.7,8.6-7.1,14.1-9.8l0,0
			c0.1,0,0.1-0.1,0.2-0.1c-0.3-0.3-5.5-4.1-2.1-10.5C133.3,117.8,132.6,117.4,131.8,116.8"/>
	</g>
</g>
</svg>
