<?xml version="1.0" encoding="utf-8"?>
<!-- Generator: Adobe Illustrator 26.3.1, SVG Export Plug-In . SVG Version: 6.00 Build 0)  -->
<svg version="1.1" id="affiliation" xmlns="http://www.w3.org/2000/svg" xmlns:xlink="http://www.w3.org/1999/xlink" x="0px"
	 y="0px" viewBox="0 0 256 256" style="enable-background:new 0 0 256 256;" xml:space="preserve">
<style type="text/css">
	.st0{fill:#FFFFFF;}
	.st1{display:none;fill:#FFFFFF;}
</style>
<rect id="black" width="256" height="256"/>
<circle id="background_x5F_circle" class="st0" cx="128" cy="128" r="128"/>
<path id="background_x5F_rectangle" class="st1" d="M206.9,256H49.1C22.1,256,0,233.9,0,206.9V49.1C0,22.1,22.1,0,49.1,0H207
	c27,0,49.1,22.1,49.1,49.1V207C256,233.9,233.9,256,206.9,256z"/>
<g id="logo_00000169557994799884142440000017718490564280908447_">
	<g>
		<path d="M105.1,172.5c0.9,4.1,1.7,7.8,2.9,11.3c0,0,0,0,0.3,0c3.2,0,6.1,2.6,6.1,6.1c0,1.7-0.9,3.5-2.3,4.6
			c4.6,10.2,9.9,15.7,15.4,15.7c8.4,0,17.4-14.5,22.3-38.6c-7-2.3-14.2-5.5-21.5-9C120.2,166.7,112.6,169.9,105.1,172.5"/>
		<path d="M112.3,154.5c-3.5-2-7.3-4.4-10.7-6.7c0.6,7.5,1.5,14.2,2.6,20.6c6.1-2.3,12.5-4.9,19.1-7.8
			C119.9,158.6,116.1,156.6,112.3,154.5"/>
		<path d="M142.8,102c3.5,2,6.7,4.1,10.2,6.1c-0.6-6.7-1.5-13.1-2.6-18.9c-5.8,2-11.6,4.4-17.7,7.3C135.8,98.2,139.3,100,142.8,102"
			/>
		<path d="M84.2,86.6c-2.9,0-5.2-2-5.8-4.6c-2.3-0.3-4.4-0.3-6.1-0.3c-7.8,0-13.1,2-15.4,5.8c-4.1,7.3,3.8,22.1,22.1,38.3
			c5.8-4.9,11.9-9.6,18.6-14.2c0.6-8.4,1.7-16.8,3.2-24.4c-4.1-1.2-7.8-2.3-11.6-3.2C88.3,85.8,86.2,86.6,84.2,86.6"/>
		<path d="M132.7,160.6c6.1,2.9,12.2,5.2,17.7,7.3c1.2-5.8,2-12.2,2.6-19.1c-3.5,2.3-7,4.4-10.4,6.4
			C139,157.1,135.8,158.9,132.7,160.6"/>
		<path d="M149.5,85.2c-0.9-4.6-2-9-3.5-13.1c-3.2-0.3-5.8-2.9-5.8-6.1c0-1.7,0.6-3.2,1.7-4.1c-4.4-9.3-9.6-14.5-14.8-14.5
			c-8.4,0-17.1,13.9-22.1,37.1c7.3,2.6,15.1,5.8,22.6,9.6C135.3,90.7,142.5,87.5,149.5,85.2"/>
		<path d="M81.9,128.4c4.6,3.8,9.6,7.8,15.4,11.6c-0.3-3.8-0.3-7.5-0.3-11.3c0-4.1,0-8.1,0.3-12.2C91.7,120.6,86.5,124.6,81.9,128.4
			"/>
		<path d="M123.4,96.5c-6.4-3.2-12.8-5.8-19.1-7.8c-1.2,6.1-2,13.1-2.6,20.3c3.5-2.3,7-4.4,10.4-6.4
			C115.8,100.6,119.6,98.2,123.4,96.5"/>
		<path d="M79,131c-3.2,2.9-6.4,5.8-9,8.7c0.6,0.9,0.9,2,0.9,2.9c0,3.2-2.6,6.1-6.1,6.1c-0.6,0-1.5,0-2-0.3
			c-6.7,9-8.7,16.5-6.1,21.2c3.2,5.8,13.9,7.3,29,4.1c4.6-0.9,9.6-2.3,14.8-4.1c-1.5-7.8-2.6-16.2-3.2-24.7
			C90.9,140.6,84.8,136,79,131"/>
		<path d="M119.3,143.2c0,1.7,2.9,4.1,7.3,4.6l0,0v-9C123.1,139.2,119.3,141.2,119.3,143.2"/>
		<path d="M173.6,128.4c-4.9-4.1-10.2-8.4-16.2-12.5c0.3,4.4,0.3,8.7,0.3,12.8s0,8.1-0.3,12.2C163.4,136.8,168.9,132.5,173.6,128.4"
			/>
		<path d="M176.5,131c-5.8,5.2-12.5,10.2-19.4,14.8c-0.6,8.1-1.5,16-2.9,23.2c4.4,1.5,8.7,2.6,13.1,3.5c0.9-2,2.9-3.2,5.2-3.2
			c2.9,0,5.5,2,5.8,4.9c10.2,0.9,17.1-1.2,19.7-5.5C202.3,161.8,194.5,147.3,176.5,131"/>
		<path d="M182.9,178.6c-1.7,0-3.2,0-4.9-0.3c-1.2,1.7-2.9,3.2-5.2,3.2c-2.9,0-5.2-2-5.8-4.9c-4.4-0.9-8.7-2-13.1-3.5
			c-4.9,23.5-13.9,41.2-26.1,41.2c-7.8,0-14.2-7.3-19.1-18.3l0,0c-3.2,0-6.1-2.6-6.1-6.1c0-1.7,0.9-3.5,2-4.6
			c-1.2-3.8-2-7.5-2.9-11.6c-5.2,1.7-10.2,2.9-14.8,4.1c-5.2,1.2-10.2,1.7-14.5,1.7c-9.3,0-16-2.6-18.9-7.5
			c-3.8-6.7-0.9-16,6.4-25.8c-0.6-0.9-0.9-2-0.9-3.2c0-3.2,2.6-6.1,6.1-6.1c0.9,0,1.5,0.3,2.3,0.6c2.6-2.9,5.8-5.8,9-8.7
			c-18-16-28.4-32.5-22.6-42.9c3.5-6.1,12.5-8.7,25.2-7.3c0.9-2,2.9-3.5,5.5-3.5c3.2,0,5.8,2.3,6.1,5.5c3.8,0.9,7.5,2,11.3,3.2
			c4.9-22.9,13.9-40,25.8-40c7.3,0,13.6,6.4,18.3,16.8c0.3,0,0.6,0,0.6,0c3.2,0,6.1,2.6,6.1,6.1c0,2-1.2,3.8-2.6,4.9
			c1.2,4.1,2.3,8.4,3.5,12.8c5.2-1.7,10.2-2.9,14.8-4.1c17.1-3.5,29-1.2,33.4,6.1c3.5,6.4,1.2,14.8-5.2,23.8c0.6,0.9,0.9,2,0.9,3.5
			c0,3.2-2.6,6.1-6.1,6.1c-0.9,0-1.5-0.3-2-0.3c-2.9,3.2-6.1,6.4-9.6,9.6c17.7,16,28.1,32.2,22.1,42.6
			C198.8,176,192.1,178.6,182.9,178.6 M127.4,37c-50.8,0-92,41.2-92,91.7c0,50.8,41.2,91.7,91.7,91.7s91.7-41.2,91.7-91.7
			C219.1,78.2,177.9,37,127.4,37"/>
		<path d="M176.5,125.8c3.5-3.2,6.7-6.4,9.6-9.6c-0.6-0.9-0.9-2-0.9-3.2c0-3.2,2.6-6.1,6.1-6.1c0.6,0,1.2,0,1.7,0.3
			c5.5-8.4,7.3-15.1,4.9-19.4c-2-3.8-7.5-5.8-15.4-5.8c-4.1,0-8.7,0.6-13.6,1.5c-4.6,0.9-9.6,2.3-14.8,4.1
			c1.5,7.3,2.3,15.1,2.9,22.9C164,115.7,170.7,120.9,176.5,125.8"/>
		<path d="M118.2,130.7c0,2,4.1,4.6,8.4,5.2v-10.2C122.2,126.4,118.2,128.7,118.2,130.7"/>
		<path d="M142.5,130.7c0,2.6-2.6,5.2-7,6.7c3.5,1.2,5.8,3.5,5.8,5.8c0,2.6-2.3,4.6-6.1,6.1c-0.6,0.3-2.9,0.9-4.9,0.9l0,0l0,0v3.2
			c0,0.9-0.6,1.7-1.7,1.7c-0.9,0-1.7-0.6-1.7-1.7v-3.2l0,0l0,0c-2,0-4.4-0.6-4.9-0.9c-3.8-1.2-6.1-3.5-6.1-6.1c0-2.3,2-4.4,5.8-5.8
			c-4.9-1.2-7.8-3.8-7.8-6.7c0-2.6,2.3-4.9,6.4-6.4c-4.9-1.5-8.1-4.4-8.1-7.3c0-2.6,2-4.9,5.8-6.4c0.3-0.9,1.2-1.7,2.3-2.3
			c0.9-0.3,1.7-0.3,2.6,0c0.9,0.3,1.5,0.6,1.5,1.5c0.3,0.6,0,1.5-0.3,2c-0.6,0.6-1.2,1.2-2,1.5c-0.6,0.3-1.2,0.3-1.7,0.3
			c-2,1.2-3.2,2.6-3.2,3.8c0,2.6,4.6,5.2,9.6,5.8v-18.3c0-1.2,0.6-1.7,1.5-2c1.2,0,1.7,0.9,1.7,2v18.3c5.2-0.6,9.6-3.2,9.6-5.8
			c0-1.2-1.2-2.6-3.2-3.8c-0.6,0-1.2,0-1.7-0.3c-0.9-0.3-1.5-0.9-2-1.5c-0.6-0.6-0.6-1.5-0.6-2c0.3-0.6,0.9-1.2,1.5-1.5
			c0.9-0.3,1.7-0.3,2.6,0c1.2,0.3,2,1.2,2.3,2.3c3.5,1.7,5.8,4.1,5.8,6.4c0,3.2-3.2,5.8-8.1,7.3
			C139.9,125.8,142.5,128.4,142.5,130.7 M140.8,105.5c-4.4-2.3-8.4-4.6-12.8-7c-4.6,2.3-9.3,4.6-13.9,7.5c-4.4,2.6-8.7,5.2-12.8,7.8
			c-0.3,4.6-0.6,9.9-0.6,14.8c0,4.9,0,9.6,0.3,14.2c4.1,2.6,8.4,5.5,13.1,8.1c4.6,2.6,9,4.9,13.6,7.3c4.1-2,8.4-4.4,12.5-6.7
			c4.4-2.6,8.7-5.2,12.8-7.8c0.3-4.6,0.6-9.9,0.6-14.8c0-5.5-0.3-10.7-0.6-15.7C149.2,110.7,145.1,108.1,140.8,105.5"/>
		<path d="M129.8,136c4.4-0.6,8.4-2.9,8.4-5.2c0-2-4.1-4.6-8.4-5.2V136z"/>
		<path d="M129.8,147.9L129.8,147.9c3.5-0.6,7.3-2.6,7.3-4.6s-3.8-4.1-7.3-4.6V147.9z"/>
		<path d="M29.7,89.5c0.9,0.3,1.7,0,2-0.9c0.3-0.9,0-1.7-0.9-1.7c-0.6-0.3-1.5,0-1.7,0.9C28.8,88.4,29.1,89.3,29.7,89.5 M22.4,110.1
			c4.9,1.5,9.3-0.6,10.7-5.8c1.5-4.9-1.5-9-6.4-10.2c-4.9-1.5-9.3,0.6-10.7,5.8C14.6,104.9,17.5,109,22.4,110.1 M23,107.8
			c-3.5-0.9-6.1-3.5-4.9-7.3c0.9-3.8,4.6-4.6,7.8-3.8s6.1,3.5,4.9,7.3C30,107.8,26.2,108.7,23,107.8 M14.6,125.8l0.3-2.9
			c0.3-3.5,2.6-6.1,6.7-5.8c4.4,0.3,6.4,2.6,6.1,7l-0.3,2.6L14.6,125.8z M29.4,129l0.3-4.9c0.3-5.5-2.3-9.3-8.1-9.6
			c-5.2-0.3-8.7,3.5-9,8.7l-0.3,4.9L29.4,129z M31.4,148.1l-0.3-2.3l-13.9,2l0,0l12.8-9.6l-0.3-3.2l-17.1,2.3l0.3,2.3l13.6-2l0,0
			L13.7,147l0.6,3.2L31.4,148.1z M27.6,158.9l2,6.7l-9.3-0.6L27.6,158.9z M37.5,168.2l-0.9-2.3l-4.6-0.3l-2.6-7.8l3.5-3.2l-0.9-2.6
			l-13.9,12.5l0.9,2.3L37.5,168.2z M30,185.9l-1.2-2c-1.2-2-0.9-3.5,0.6-4.4c1.5-0.9,2.9,0,4.1,2l0.9,1.7L30,185.9z M44.5,180.9
			l-1.2-2l-6.7,3.8l-0.6-1.2c-0.6-1.2-0.9-1.7,0-3.2l4.1-5.2l-1.5-2.3l-4.4,6.1c-0.6,0.9-0.9,1.5-0.6,2.3l0,0
			c-1.2-1.5-3.2-2.3-5.2-1.2c-3.5,2-2.6,5.2-0.9,8.1l1.7,2.9L44.5,180.9z M33.7,196.3l1.7,1.7L43,192c2.6-2,4.9-2.6,7-0.3
			c2,2.3,0.9,4.6-1.7,6.7l-7.5,6.1l1.5,2l7.8-6.4c3.8-3.2,4.1-6.7,1.5-9.9c-2.6-3.2-6.1-3.5-9.9-0.3L33.7,196.3z M47.6,211.4
			c0.6,1.2,1.5,2.3,2.3,3.2c4.1,3.5,9.3,3.2,12.5-0.9c3.5-4.1,3.2-9.3-1.2-12.8c-0.9-0.6-2-1.7-3.5-2l-1.2,1.7
			c0.9,0.3,2.3,0.9,3.5,1.7c2.6,2.3,3.2,6.4,0.6,9.3s-6.4,3.5-9.3,0.9c-0.9-0.9-1.7-1.7-2-2.9L47.6,211.4z M70.3,217.5
			c0.3-0.6,0.3-1.7-0.3-2c-0.6-0.6-1.5-0.3-2,0.6c-0.6,0.6-0.3,1.5,0.3,2C68.8,218.1,70,218.1,70.3,217.5 M89.4,228.5
			c2.3-4.6,1.2-9.3-3.8-11.6c-4.6-2.3-9-0.3-11.3,4.6c-2,4.6-0.9,9.3,3.8,11.6C83,235.2,87.4,233.2,89.4,228.5 M87.1,227.4
			c-1.5,3.2-4.6,5.2-7.8,3.8c-3.5-1.5-3.8-5.2-2.3-8.4c1.5-3.2,4.4-5.2,7.8-3.8C88.6,220.7,88.6,224.5,87.1,227.4 M102.8,239
			l-2.9-0.9c-3.5-0.9-5.5-3.8-4.4-7.8c1.2-4.4,4.1-5.5,8.1-4.6l2.6,0.6L102.8,239z M109.2,225l-4.9-1.2c-5.5-1.5-9.6,0.6-11,6.1
			c-1.5,5.2,1.7,9.3,6.7,10.4l4.9,1.5L109.2,225z M128,226.8h-2.6l-0.9,14.2l0,0l-7-14.5l-3.2-0.3l-0.9,17.1h2.3l0.9-13.9l0,0
			l6.7,14.2l3.5,0.3L128,226.8z M142.5,225.6l-9.6,1.2l0.3,2l7.3-0.9l0.6,5.5l-6.4,0.9l0.3,2l6.4-0.9l0.6,4.9l-7.3,0.9l0.3,2
			l9.6-1.2L142.5,225.6z M151.5,241c1.5,0.3,2.6,0,3.8-0.3c4.9-1.5,7.8-5.8,6.4-11c-1.5-5.2-6.1-7.5-11.3-6.1
			c-0.9,0.3-2.6,0.9-3.5,1.7l0.9,2.3c0.6-0.9,2-1.5,3.5-1.7c3.5-0.9,7,0.9,8.1,4.6c1.2,3.8-0.6,7.3-4.4,8.4c-1.2,0.3-2.3,0.3-3.8,0
			L151.5,241z M179.9,221.6c-2.3-4.6-6.7-6.7-11.3-4.4c-4.6,2.3-5.8,7-3.5,11.6c2.3,4.6,6.7,6.7,11.3,4.4
			C181.1,230.8,182,225.9,179.9,221.6 M177.6,222.7c1.5,3.2,1.2,7-2,8.4c-3.5,1.7-6.4-0.6-8.1-3.5c-1.5-3.2-1.5-6.7,2-8.4
			C173,217.5,175.9,219.5,177.6,222.7 M196.5,218.1l-2.3,1.7c-2.9,2-6.4,1.7-8.7-1.5c-2.6-3.5-1.7-6.7,1.7-9l2-1.5L196.5,218.1z
			 M189.8,204.1l-4.1,2.9c-4.6,3.2-5.8,7.8-2.3,12.5c3.2,4.4,8.1,4.6,12.5,1.5l4.1-2.9L189.8,204.1z M200.8,204.1
			c-0.6-0.6-1.5-0.6-2,0c-0.6,0.6-0.6,1.5,0,2c0.6,0.6,1.5,0.6,2,0C201.1,205.6,201.4,204.7,200.8,204.1 M215.9,187.9
			c-4.1-3.2-9-3.2-12.2,1.2c-3.2,4.1-2.3,8.7,2,11.9c4.1,3.2,9,3.2,12.2-1.2C221.1,195.7,220,191.1,215.9,187.9 M214.5,189.9
			c2.6,2,4.1,5.5,1.7,8.7c-2.3,2.9-6.1,2.6-8.7,0.3c-2.6-2-4.4-5.5-1.7-8.7C208.1,187,211.6,187.9,214.5,189.9 M229.3,176.9
			l-1.5,2.6c-1.7,3.2-4.9,4.4-8.7,2.6c-3.8-2-4.6-5.2-2.6-8.7l1.2-2.3L229.3,176.9z M217.1,167.9l-2.3,4.4
			c-2.6,4.9-1.7,9.6,3.5,12.2c4.6,2.6,9.3,0.3,11.6-4.1l2.3-4.4L217.1,167.9z M222.9,149.9l-0.6,2.3l13.6,4.1l0,0l-15.7,3.5
			l-0.9,2.9l16.5,4.9l0.6-2.3l-13.3-3.8l0,0l15.4-3.5l0.9-3.2L222.9,149.9z M224.6,135.1l-1.2,9.6l2,0.3l0.9-7.3l5.5,0.6l-0.6,6.4
			l2,0.3l0.6-6.4l4.9,0.6l-0.3,7.3l2,0.3l1.2-9.6L224.6,135.1z M224.6,126.1v2.3l17.1-0.3v-2.3L224.6,126.1z M241.2,119.1
			c0.3-1.2,0.3-2.6,0.3-4.1c-0.6-5.2-4.6-8.4-9.9-7.8c-5.5,0.9-8.4,4.9-7.5,10.2c0,0.9,0.3,2.6,1.2,3.8l2.3-0.6
			c-0.6-0.9-1.2-2.3-1.5-3.5c-0.6-3.5,1.7-6.7,5.8-7.3c3.8-0.6,7,1.7,7.5,5.5c0.3,1.2,0,2.6-0.6,3.8L241.2,119.1z M238,100
			c0-1.2,0-2.6-0.6-3.8c-0.9-2.9-3.2-4.9-6.1-4.1c-5.2,1.5-2,8.4-5.8,9.3c-2,0.6-3.2-1.2-3.8-2.3c-0.3-1.2-0.3-2.6-0.3-3.8l-2.3,0.3
			c0,1.2,0,2.3,0.3,3.5c0.9,3.2,3.2,5.5,6.7,4.6c5.5-1.5,2.6-8.4,5.8-9.3c1.7-0.6,2.6,0.9,2.9,2.3c0.3,1.2,0.3,2,0.3,3.2L238,100z
			 M223.2,86.4c-0.6,0.3-1.2,1.2-0.9,2c0.3,0.6,1.2,1.2,2,0.9c0.9-0.3,1.2-1.2,0.9-1.7C224.9,86.4,224,86.1,223.2,86.4 M204.3,68.4
			l1.5,2l12.5-8.1l0,0L208.7,75l1.2,2l15.7-3.2l0,0L213,82l1.5,2l14.5-9.3l-2.3-3.5l-14.8,3.2l9-12.2l-2.3-3.5L204.3,68.4z
			 M195.6,59.4l6.7,7l1.5-1.5l-4.9-5.2l10.7-10.4l-1.7-1.7L195.6,59.4z M202,42l-2-1.5l-6.1,7.5c-2,2.6-4.4,3.8-6.7,1.7
			c-2.6-2-2-4.4,0-7l6.4-7.5l-2-1.5l-6.1,7.8c-2.9,3.8-2.6,7.3,0.6,9.9c3.5,2.6,7,2,9.9-1.7L202,42z M166.9,39.9l2.3,1.2l6.4-13.6
			l4.6,2l0.9-2l-11.9-5.5l-0.9,2l4.9,2.3L166.9,39.9z M160.5,17.6l2.3,0.6l0.6-2.3l-2.3-0.6L160.5,17.6z M156.4,16.4l2.3,0.6
			l0.6-2.3l-2-0.6L156.4,16.4z M159.3,30.1l-6.7-2l5.8-7.3L159.3,30.1z M146,32.7l2.6,0.9l2.9-3.8l8.1,2.6l0.6,4.6l2.6,0.9l-2-18.6
			l-2.6-0.9L146,32.7z M138.8,32.1l2.3,0.3l2-14.8l5.2,0.6l0.3-2l-13.1-1.7l-0.3,2l5.2,0.6L138.8,32.1z M128.3,31.2h2.3l0.6-17.1
			h-2.3L128.3,31.2z M121.3,14.7c-1.2-0.3-2.6-0.3-3.8-0.3c-3.2,0.3-5.2,2-4.9,5.2c0.6,5.2,7.8,3.5,8.1,7.5c0.3,2-1.7,2.9-3.2,3.2
			c-1.2,0-2.9-0.3-3.5-0.6v2.3c1.2,0.3,2.3,0.6,3.5,0.3c3.5-0.3,6.1-2,5.8-5.5c-0.6-5.5-7.8-4.4-8.1-7.5c-0.3-1.7,1.5-2.3,2.9-2.6
			c1.2,0,2,0,3.2,0.3V14.7z M97.6,20.2l2.3-0.6c2.3-0.6,3.5,0.3,4.1,1.7c0.3,1.7-0.6,2.9-2.9,3.5l-2,0.6L97.6,20.2z M98.7,35.3
			l2.3-0.6l-1.7-7.3l1.5-0.3c1.5-0.3,2-0.6,3.2,0.9l4.1,5.2l2.6-0.6l-4.6-5.8c-0.9-0.9-1.2-1.2-2-1.2l0,0c1.7-0.9,2.9-2.6,2.6-4.6
			c-0.9-4.1-4.4-3.8-7.5-2.9L94.9,19L98.7,35.3z M85.1,40.8l8.7-3.8l-0.9-2l-6.7,2.9l-2.3-5.2l6.1-2.6l-0.9-2L83,30.6L81,26l6.7-2.9
			l-0.9-2l-8.7,3.8L85.1,40.8z M72.3,27.7l-2,1.5l3.5,15.7l0,0L61.3,35L59,36.4l14.8,11l2.6-1.7L72.3,27.7z M63.6,55l2-1.5l-11-13.3
			l-2,1.5L63.6,55z M50,68.9l1.7-1.7l-10.4-9.6l0,0l15.7,3.8l2-2.3L46.2,47.5l-1.7,1.7l10.2,9.3l0,0l-15.4-3.8l-2.3,2.6L50,68.9z
			 M32.3,64.3l-1.2,2l8.4,4.9c2.9,1.7,4.4,3.8,2.6,6.4c-1.7,2.6-4.1,2.3-7,0.9l-8.4-4.9l-1.2,2l8.7,5.2c4.1,2.6,7.5,1.7,9.9-2
			c2-3.8,1.2-7-2.9-9.6L32.3,64.3z"/>
	</g>
</g>
</svg>
