<?xml version="1.0" encoding="utf-8"?>
<!-- Generator: Adobe Illustrator 26.3.1, SVG Export Plug-In . SVG Version: 6.00 Build 0)  -->
<svg version="1.1" id="affiliation" xmlns="http://www.w3.org/2000/svg" xmlns:xlink="http://www.w3.org/1999/xlink" x="0px"
	 y="0px" viewBox="0 0 256 256" style="enable-background:new 0 0 256 256;" xml:space="preserve">
<style type="text/css">
	.st0{fill:#FFFFFF;}
	.st1{display:none;fill:#FFFFFF;}
</style>
<rect id="black" width="256" height="256"/>
<circle id="background_x5F_circle" class="st0" cx="128" cy="128" r="128"/>
<path id="background_x5F_rectangle" class="st1" d="M206.9,256H49.1C22.1,256,0,233.9,0,206.9V49.1C0,22.1,22.1,0,49.1,0H207
	c27,0,49.1,22.1,49.1,49.1V207C256,233.9,233.9,256,206.9,256z"/>
<g id="logo_00000169557994799884142440000017718490564280908447_">
	<g>
		<rect x="47.4" y="47.4" width="161.1" height="161.1"/>
		<g id="_x31_epbaB_00000067949191494270305750000016020196418210435486_">
			<g>
				<path class="st0" d="M142.8,104.3c3,0,5.7,0,8.8,0c0.1,1.3,0.2,3.8,0.2,3.8s0,15.4,0,23.2c0,2.1,0.3,4.2,0.7,6.2
					c1.1,4.6,4.2,6.9,8.9,6.8c4.6-0.1,7.5-2.2,8.5-6.8c0.5-2.2,0.7-4.6,0.7-6.9c0.1-8.6,0-17.3,0-26.1c3.2,0,6,0,9.3,0
					c0,4,0,7.8,0,11.6c0,6.3,0.1,12.6,0,18.9c-0.2,10.5-5.8,16.2-16.3,16.7c-2.4,0.1-4.9,0.1-7.3-0.2c-7.9-1-13.1-5.6-13.5-13.3
					C142.4,127,142.8,115.8,142.8,104.3z"/>
				<path class="st0" d="M97.1,104.4c11.7,0,23.4,0,35.2,0c0,2.3,0,4.6,0,7.2c-4.3,0-8.3,0-12.7,0c0,13.1,0,25.9,0,39.2
					c-3.3,0-6.1,0-9.2,0c0-12.9,0-25.7,0-39.2c-3.1,0-13.3,0-13.3,0"/>
				<path class="st0" d="M84.7,150.8c-3,0-5.8,0-8.9,0c0-15.5,0-30.8,0-46.4c2.9,0,5.8,0,8.9,0C84.7,119.8,84.7,135.1,84.7,150.8z"
					/>
			</g>
		</g>
	</g>
</g>
</svg>
