<?xml version="1.0" encoding="utf-8"?>
<!-- Generator: Adobe Illustrator 26.3.1, SVG Export Plug-In . SVG Version: 6.00 Build 0)  -->
<svg version="1.1" id="affiliation" xmlns="http://www.w3.org/2000/svg" xmlns:xlink="http://www.w3.org/1999/xlink" x="0px"
	 y="0px" viewBox="0 0 256 256" style="enable-background:new 0 0 256 256;" xml:space="preserve">
<style type="text/css">
	.st0{fill:#FFFFFF;}
	.st1{display:none;fill:#FFFFFF;}
	.st2{fill:#B30548;}
	.st3{fill:#87A2AB;}
</style>
<rect id="black" width="256" height="256"/>
<circle id="background_x5F_circle" class="st0" cx="128" cy="128" r="128"/>
<path id="background_x5F_rectangle" class="st1" d="M206.94,256H49.06C22.08,256,0,233.92,0,206.94V49.06C0,22.08,22.08,0,49.06,0
	h157.87C233.92,0,256,22.08,256,49.06v157.87C256,233.92,233.92,256,206.94,256z"/>
<g id="logo">
	<g>
		<path class="st2" d="M77.34,212.8c0-3.59,0-7.17,0-10.85c33.4,0,66.69,0,100.33,0c0,3.61,0,7.23,0,10.85
			C144.23,212.8,110.79,212.8,77.34,212.8z"/>
		<path class="st3" d="M160.93,57.2c5.78,0,11.33,0,17.05,0c0,0.62,0,1.16,0,1.7c0,26.25,0.07,52.49-0.07,78.74
			c-0.02,4.39-0.66,8.8-1.58,13.17c-1,4.72-2.81,9.04-5,13.24c-0.96,1.84-2.48,3.37-3.67,5.09c-2.41,3.45-5.76,5.78-9.24,7.98
			c-3.79,2.39-7.88,4-12.24,5.05c-4.24,1.02-8.46,1.87-12.86,1.79c-2.19-0.04-4.39,0.51-6.57,0.43c-3.59-0.13-7.23-0.25-10.74-0.92
			c-5.9-1.13-11.77-2.47-17.15-5.37c-4.72-2.54-8.65-5.95-12.01-10.1c-2.8-3.47-4.77-7.36-6.17-11.54
			c-0.67-2.02-1.04-4.14-1.55-6.21c-2-8.07-1.36-16.3-1.38-24.47c-0.05-22.19-0.02-44.38-0.02-66.58c0-0.6,0-1.2,0-1.94
			c5.73,0,11.37,0,17.19,0c0,0.67,0,1.31,0,1.96c0,27.06-0.09,54.11,0.07,81.17c0.04,6.16,1.96,11.97,5.59,17.1
			c3.81,5.37,9.03,8.77,15.24,10.6c2.54,0.75,5.23,1.01,7.88,1.32c2.48,0.29,4.99,0.58,7.48,0.5c6.03-0.21,11.82-1.68,16.88-4.99
			c3.34-2.18,6.15-5.08,8.14-8.71c2.46-4.49,3.96-9.2,4.24-14.32c1.17-21.49,0.2-42.99,0.5-64.48c0.09-6.13,0.01-12.26,0.01-18.39
			C160.93,58.46,160.93,57.91,160.93,57.2z"/>
	</g>
</g>
</svg>
