<?xml version="1.0" encoding="utf-8"?>
<!-- Generator: Adobe Illustrator 26.3.1, SVG Export Plug-In . SVG Version: 6.00 Build 0)  -->
<svg version="1.1" id="affiliation" xmlns="http://www.w3.org/2000/svg" xmlns:xlink="http://www.w3.org/1999/xlink" x="0px"
	 y="0px" viewBox="0 0 256 256" style="enable-background:new 0 0 256 256;" xml:space="preserve">
<style type="text/css">
	.st0{fill:#FFFFFF;}
	.st1{display:none;fill:#FFFFFF;}
	.st2{fill:#2360A3;}
</style>
<rect id="black" width="256" height="256"/>
<circle
   id="background"
   class="st0"
   cx="128"
   cy="128"
   r="128" />
<g id="logo_00000169557994799884142440000017718490564280908447_">
	<path class="st2" d="M26,117.9C25.5,79.2,61.4,35,112.4,27c55.3-8.6,107.8,29.7,116.3,84.7c1.7,11.2,1.7,22.4-0.1,33.6
		c-0.2,1,0,2.4-1.1,2.7c-1.1,0.3-1.6-1-2.3-1.8c-15.7-19.4-31.5-38.9-47.2-58.3c-2.3-2.8-2.5-2.9-4.8-0.2
		c-6.4,7.5-12.6,15.1-19,22.5c-1.5,1.7-1.3,2.9,0,4.5c3.3,3.9,6.6,8,9.8,12c2.4,3,2.6,3,5,0.2c4.4-5.2,8.7-10.5,13.1-15.7
		c2.5-3,3.2-3.1,5.7-0.1c12,14.2,23.9,28.5,36,42.6c1.8,2.1,2.1,3.9,1.2,6.4c-8.4,24.3-23.5,43.3-45.8,56.2
		c-41.8,24.1-93.4,16.4-126.2-19C34.9,177.8,26,154.4,26,117.9z M190.9,178.3c-1.7-8.1-4.6-14.2-7.9-18.3
		c-7.8-9.5-15.5-19.1-23.3-28.6c-11.7-14.5-23.4-28.9-35.1-43.4c-2.5-3.1-2.7-3-5.3,0c-3.7,4.4-7.5,8.8-11.2,13.3
		c-14.9,17.7-29.8,35.5-44.6,53.2c-5,6-5.9,14.1-2.5,20.3c2.8,5,7.1,5.9,11.6,2.4c1-0.8,1.8-1.7,2.6-2.6c17.6-21,35.2-42,52.7-63
		c3-3.6,3.6-3.6,6.6-0.1c12.5,14.8,24.9,29.6,37.3,44.4C178.3,163.3,184.6,170.8,190.9,178.3z"/>
</g>
</svg>
