<?xml version="1.0" encoding="utf-8"?>
<!-- Generator: Adobe Illustrator 26.3.1, SVG Export Plug-In . SVG Version: 6.00 Build 0)  -->
<svg version="1.1" id="affiliation" xmlns="http://www.w3.org/2000/svg" xmlns:xlink="http://www.w3.org/1999/xlink" x="0px"
	 y="0px" viewBox="0 0 256 256" style="enable-background:new 0 0 256 256;" xml:space="preserve">
<style type="text/css">
	.st0{fill:#FFFFFF;}
	.st1{display:none;fill:#FFFFFF;}
	.st2{fill:#DE0880;}
</style>
<rect id="black" width="256" height="256"/>
<circle id="background_x5F_circle" class="st0" cx="128" cy="128" r="128"/>
<path id="background_x5F_rectangle" class="st1" d="M206.9,256H49.1C22.1,256,0,233.9,0,206.9V49.1C0,22.1,22.1,0,49.1,0h157.9
	c27,0,49.1,22.1,49.1,49.1v157.9C256,233.9,233.9,256,206.9,256z"/>
<g id="logo">
	<g id="YzUp5J_1_">
		<g>
			<path class="st2" d="M87.3,84.1c0.4,1.9,0.7,3.2,1.1,5.1c2.6-2.2,4.7-4.1,6.9-5.8c16.1-12.3,38.1-3.5,41.1,16.4
				c0.5,3.5,0.8,7.1,0.8,10.7c0.1,29.8,0,59.7,0,89.5c0,1.5,0,2.9,0,5.1c-7.4-3.1-14.5-5.9-21.3-9c-1-0.5-1.5-2.9-1.5-4.4
				c0-24.8,0-49.5,0-74.3c0-2.9-0.1-5.9-0.6-8.8c-0.8-4.8-2.9-8.7-8.1-9.8c-5.2-1.1-9.8,0.1-13.4,4.3c-3.2,3.8-3.9,8.4-3.9,13.1
				c0,21.3,0,42.6,0,63.9c0,1.4,0,2.9,0,4.9c-7.1-3-13.8-5.7-20.3-8.6c-0.8-0.4-1.6-2.1-1.6-3.1c-0.1-26.4-0.1-52.7,0-79.1
				c0-1.2,0.9-3,1.8-3.4C74.8,88.5,80.9,86.4,87.3,84.1z"/>
			<path class="st2" d="M180.1,50.8c0,14,0,27.1,0,40.8c0.9-0.6,1.4-0.8,1.6-1.1c6.9-8.7,16.1-10.8,26.5-9.2
				c11.7,1.8,19.6,11.3,20.2,25.2c0.5,12.9,0.2,25.8,0.2,38.7c0,4,0,8,0,12.3c-7.7,0-15.1,0-23,0c-0.1-1.3-0.2-2.7-0.2-4.1
				c0-11.5,0-22.9,0-34.4c0-2.4,0-4.8-0.3-7.2c-0.8-5.8-3.7-9.3-8.5-10.4c-5.2-1.2-11.4,0.8-13.8,5.6c-1.8,3.7-2.8,8.1-3,12.2
				c-0.4,12.6-0.1,25.3-0.1,38.2c-7.7,0-15,0-23,0c-0.1-1.3-0.2-2.7-0.2-4.1c0-30,0-59.9-0.1-89.9c0-3.2,0.8-4.8,3.9-5.7
				C166.8,55.8,173,53.3,180.1,50.8z"/>
			<path class="st2" d="M48.4,98.1c0,23.6,0,46.5,0,70.1c-4.4-1.8-8.3-3.4-12.3-5c-8.8-3.7-8.8-3.7-8.8-13.2
				c0-13.6,0.1-27.2-0.1-40.8c0-2.7,0.8-4.1,3.4-4.9C36.5,102.5,42.2,100.3,48.4,98.1z"/>
		</g>
	</g>
</g>
</svg>
