<?xml version="1.0" encoding="utf-8"?>
<!-- Generator: Adobe Illustrator 26.3.1, SVG Export Plug-In . SVG Version: 6.00 Build 0)  -->
<svg version="1.1" id="affiliation" xmlns="http://www.w3.org/2000/svg" xmlns:xlink="http://www.w3.org/1999/xlink" x="0px"
	 y="0px" viewBox="0 0 256 256" style="enable-background:new 0 0 256 256;" xml:space="preserve">
<style type="text/css">
	.st0{fill:#FFFFFF;}
	.st1{display:none;fill:#FFFFFF;}
	.st2{fill:#004B93;}
	.st3{fill:#9EBBD6;}
</style>
<rect id="black" width="256" height="256"/>
<circle id="background_x5F_circle" class="st0" cx="128" cy="128" r="128"/>
<path id="background_x5F_rectangle" class="st1" d="M206.94,256H49.06C22.08,256,0,233.92,0,206.94V49.06C0,22.08,22.08,0,49.06,0
	h157.87C233.92,0,256,22.08,256,49.06v157.87C256,233.92,233.92,256,206.94,256z"/>
<g id="logo">
	<g id="GNRpTj.tif">
		<g>
			<path class="st2" d="M52.55,201.57c0-49.84,0-99.68,0-149.52c49.87,0,99.73,0,149.72,0c0,49.97,0,99.67,0,149.37
				c-0.82,0.04-1.63,0.12-2.45,0.12c-37.18,0.01-74.36,0-111.55,0.01C76.37,201.54,64.46,201.56,52.55,201.57z M134.63,142.46
				c-1.61,0-3.23,0-4.8,0c0-10.13,0-20.06,0-30.17c1.91,0,3.71,0,5.55,0c0-2.27,0-4.36,0-6.47c-7.17,0-14.21,0-21.32,0
				c0,2.19,0,4.28,0,6.53c1.76,0,3.37,0,5,0c0,10.19,0,20.23,0,30.43c-1.78,0-3.4,0-5,0c0,2.27,0,4.38,0,6.45
				c10.59,0,21.03,0,31.55,0c0-2.3,0-4.49,0-6.69c0-3.6,0-7.19,0-10.7C141.91,135.43,138.27,138.94,134.63,142.46z M149.73,149.33
				c8.07,0,16.02-0.06,23.96,0.03c3.77,0.04,6.88-1.37,9.54-3.86c5.11-4.79,5.02-12.59-0.23-17.22c-1.04-0.92-2.39-1.47-3.46-2.1
				c1.3-1.19,2.84-2.18,3.83-3.57c2.4-3.38,2.85-7.13,0.9-10.89c-1.99-3.84-5.28-5.9-9.61-5.94c-8.13-0.08-16.27-0.02-24.41-0.01
				c-0.23,0-0.46,0.08-0.71,0.12c0,2.15,0,4.21,0,6.49c1.73,0,3.39,0,5.04,0c0,10.17,0,20.1,0,30.18c-1.66,0-3.21,0-4.85,0
				C149.73,144.82,149.73,146.94,149.73,149.33z M97.37,112.54c0,8.35,0.1,16.48-0.04,24.61c-0.06,3.66-2.98,5.96-6.77,5.81
				c-3.46-0.14-5.45-2.34-5.45-6.13c-0.01-7.57-0.01-15.14,0-22.7c0-0.54,0.06-1.08,0.11-1.76c1.2,0,2.25,0,3.49,0
				c0-2.25,0-4.34,0-6.48c-6.27,0-12.55,0-19.01,0c0,2.19,0,4.28,0,6.56c1.59,0,3.14,0,4.87,0c0,0.85,0,1.53,0,2.21
				c0,7.38-0.02,14.76,0.02,22.14c0.01,1.44,0.06,2.92,0.37,4.32c0.93,4.3,3.28,7.48,7.66,8.75c4.26,1.24,8.59,1.35,12.87,0.11
				c6.09-1.76,9.22-6.46,9.25-13.73c0.03-7.25,0.01-14.51,0.01-21.76c0-0.66,0-1.32,0-2.16c1.96,0,3.64,0,5.35,0
				c0-2.24,0-4.3,0-6.45c-5.34,0-10.61,0-15.97,0c0,2.14,0,4.25,0,6.45C95.2,112.4,96.18,112.47,97.37,112.54z"/>
			<path class="st3" d="M202.27,201.42c0.06,0.18,0.12,0.35,0.18,0.53c-49.4,0-98.8,0-148.2-0.02c-0.57,0-1.13-0.24-1.7-0.36
				c11.91-0.01,23.82-0.03,35.73-0.03c37.18,0,74.36,0,111.55-0.01C200.64,201.54,201.45,201.46,202.27,201.42z"/>
			<path class="st3" d="M145.63,142.54c-3.67-0.03-7.33-0.06-11-0.09c3.64-3.52,7.29-7.03,11-10.61
				C145.63,135.35,145.63,138.95,145.63,142.54z"/>
			<path class="st2" d="M165.43,142.47c0-4.28,0-8.42,0-12.66c1.69,0,3.33-0.19,4.92,0.04c4.64,0.67,7.1,5.93,4.77,10.01
				c-1.05,1.83-2.82,2.45-4.77,2.59C168.78,142.56,167.2,142.47,165.43,142.47z"/>
			<path class="st2" d="M165.44,123.31c0-3.66,0-7.22,0-11.02c1.09,0,2.13-0.02,3.18,0c3.53,0.08,5.69,2.07,5.82,5.37
				c0.13,3.42-1.7,5.36-5.38,5.63C167.88,123.39,166.7,123.31,165.44,123.31z"/>
		</g>
	</g>
</g>
</svg>
