<?xml version="1.0" encoding="utf-8"?>
<!-- Generator: Adobe Illustrator 26.3.1, SVG Export Plug-In . SVG Version: 6.00 Build 0)  -->
<svg version="1.1" id="affiliation" xmlns="http://www.w3.org/2000/svg" xmlns:xlink="http://www.w3.org/1999/xlink" x="0px"
	 y="0px" viewBox="0 0 256 256" style="enable-background:new 0 0 256 256;" xml:space="preserve">
<style type="text/css">
	.st0{fill:#FFFFFF;}
	.st1{display:none;fill:#FFFFFF;}
	.st2{display:none;fill:#009C82;}
	.st3{fill:#009C82;}
</style>
<rect id="black" width="256" height="256"/>
<circle
   id="background"
   class="st0"
   cx="128"
   cy="128"
   r="128" />
<g id="logo_00000169557994799884142440000017718490564280908447_">
	<path class="st2" d="M46.3,149.6L62,109.5h9.5l15.7,40.1h-9l-4.2-10.7H57.6l-4.2,10.7H46.3z M59.2,133.6h12.6l-6.2-16
		C65.7,117.6,59.2,133.6,59.2,133.6z M16.6,149.3v-7c3.1,1.4,5.6,2.2,7,2.2c1.7,0.3,3.1,0.3,4.2,0.3c2.2,0,4.2-0.6,5.3-1.7
		c1.1-1.1,1.7-2.2,1.7-3.6c0-1.1-0.3-2.2-0.8-3.1c-0.6-0.8-2.2-2-4.8-3.4l-2.8-1.4c-3.9-2.2-6.5-4.2-7.9-5.9c-1.4-2-2-3.9-2-6.5
		c0-3.1,1.1-5.6,3.4-7.9s5.6-3.4,10.1-3.4c3.4,0,7,0.6,10.9,1.4v6.5c-4.2-1.1-7.6-2-9.8-2c-2,0-3.6,0.6-4.5,1.4
		c-1.1,0.8-1.7,2-1.7,3.1c0,0.8,0.3,2,0.8,2.5c0.6,0.8,2.2,2,4.8,3.4l2.8,1.7c4.5,2.5,7.3,4.8,8.4,6.5c1.4,2,2,3.9,2,6.2
		c0,3.4-1.1,6.2-3.6,8.4s-6.5,3.4-12.1,3.4C24.7,150.7,21.1,150.2,16.6,149.3z M141.5,149.6v-40.1h8.4v40.1H141.5z M178.5,150.7
		c-4.2,0-7.9-0.8-10.9-2.5c-3.1-1.7-5.3-4.2-7-7.6c-1.7-3.4-2.5-7-2.5-10.9c0-4.2,0.8-7.9,2.5-10.9c1.7-3.1,3.9-5.9,7-7.6
		c3.1-1.7,6.7-2.5,10.9-2.5s7.9,0.8,10.9,2.5c3.1,1.7,5.6,4.2,7,7.6c1.7,3.4,2.5,7,2.5,10.9c0,4.2-0.8,7.9-2.5,10.9
		c-1.7,3.4-3.9,5.6-7,7.6C186.4,149.9,182.7,150.7,178.5,150.7z M178.5,145.1c3.9,0,6.7-1.7,8.7-4.8c2-3.1,2.8-6.7,2.8-10.9
		c0-4.2-0.8-7.9-2.8-10.9c-2-3.1-4.8-4.5-8.7-4.5c-3.9,0-6.7,1.7-8.7,4.8c-2,3.1-2.8,6.7-2.8,10.9c0,4.2,0.8,7.6,2.8,10.9
		C171.8,143.4,174.6,145.1,178.5,145.1z M207.4,149.6v-40.1h7.9l17.7,26.4v-26.4h6.5v40.1h-7l-18.5-27.5v27.5
		C213.9,149.6,207.4,149.6,207.4,149.6z M94.9,115.1c-2.2,5.6-3.6,11.8-3.6,18c0,3.9,0.6,7.9,1.4,11.5l14.6-14.6
		C107.2,130,94.9,115.1,94.9,115.1z M139.2,84.8c-6.7,0-14,1.7-20.2,4.8c-9.3-9.5-21.3-14.9-34.2-14.9h-0.3v8.1h0.3
		c9.8,0,19.4,3.9,26.4,10.9l0.3,0.3h-0.3c-5.6,4.2-10.4,9.3-13.8,15.4h4.5l11.5,13.8l9.8-9.8h-3.4v-3.9h9.8c-1.1-4.5-3.1-9-5.9-12.9
		v-0.3h0.3c4.8-2,10.1-3.1,14.9-3.1h2.2v-8.4H139.2z M117.9,128.3l10.1,12.1c2.5-5.6,3.6-12.1,3.6-18.2c0-2.5-0.3-4.8-0.6-7
		C131.1,115.1,117.9,128.3,117.9,128.3z M139.2,173.2c-10.4,0-20.8-4.5-28.1-12.1l-0.3-0.3h0.3c4.8-3.4,8.7-7.3,12.1-11.8l-11.8-14
		l-11.2,11.5h3.4v3.4h-9.3c1.1,2.8,2.5,5.6,3.9,8.4v0.3H98c-4.2,1.7-8.7,2.5-13.5,2.5h-0.3v8.1h0.3c6.5,0,12.6-1.4,18.5-3.9
		c9.5,9.8,22.7,16,36.2,16h2.2v-8.1H139.2z"/>
	<path class="st3" d="M93.5,103.2c-4.3,10.8-7,22.6-7,34.5c0,7.5,1.1,15.1,2.7,22.1l28-28C117.2,131.8,93.5,103.2,93.5,103.2z
		 M178.6,45c-12.9,0-26.9,3.2-38.8,9.2c-17.8-18.3-41-28.6-65.7-28.6h-0.5v15.6h0.5c18.9,0,37.2,7.5,50.6,21l0.5,0.5h-0.5
		c-10.8,8.1-19.9,17.8-26.4,29.6h8.6l22.1,26.4l18.9-18.9h-6.5v-7.5h18.9c-2.2-8.6-5.9-17.2-11.3-24.8v-0.5h0.5
		c9.2-3.8,19.4-5.9,28.6-5.9h4.3V45H178.6z M137.7,128.5l19.4,23.2c4.8-10.8,7-23.2,7-35c0-4.8-0.5-9.2-1.1-13.5
		C163,103.2,137.7,128.5,137.7,128.5z M178.6,214.8c-19.9,0-39.9-8.6-53.9-23.2l-0.5-0.5h0.5c9.2-6.5,16.7-14,23.2-22.6l-22.6-26.9
		l-21.6,22.1h6.5v6.5H92.4c2.2,5.4,4.8,10.8,7.5,16.2v0.5h-0.5c-8.1,3.2-16.7,4.8-25.9,4.8H73v15.6h0.5c12.4,0,24.2-2.7,35.6-7.5
		c18.3,18.9,43.6,30.7,69.5,30.7h4.3v-15.6H178.6z"/>
</g>
</svg>
