<?xml version="1.0" encoding="utf-8"?>
<!-- Generator: Adobe Illustrator 26.3.1, SVG Export Plug-In . SVG Version: 6.00 Build 0)  -->
<svg version="1.1" id="affiliation" xmlns="http://www.w3.org/2000/svg" xmlns:xlink="http://www.w3.org/1999/xlink" x="0px"
	 y="0px" viewBox="0 0 256 256" style="enable-background:new 0 0 256 256;" xml:space="preserve">
<style type="text/css">
	.st0{fill:#FFFFFF;}
	.st1{display:none;fill:#FFFFFF;}
	.st2{fill:#EC184D;}
	.st3{fill:#FE8622;}
	.st4{fill:#24B902;}
	.st5{fill:#EC184E;}
</style>
<rect id="black" width="256" height="256"/>
<circle
   id="background"
   class="st0"
   cx="128"
   cy="128"
   r="128" />
<g id="logo">
	<g>
		<path class="st2" d="M122.1,115.8c6.6,7.1,13.2,14.2,19.7,21.2c6.9,7.4,13.8,14.8,20.6,22.2c1.2,1.3,1.8,1.2,3,0.1
			c5.6-5.3,11.2-10.5,16.7-15.8c1.1-1,1.7-1.3,2.8,0c4.6,5.2,9.4,10.3,14.2,15.4c1,1,0.9,1.6-0.1,2.5c-5.7,5.3-11.4,10.7-17.1,16
			c-1.3,1.2-1.1,1.7,0,2.8c3.3,3.4,6.4,6.9,9.7,10.2c0.9,0.9,1.1,1.4,0,2.4c-5.1,4.7-10.1,9.4-15.1,14.2c-1.3,1.3-2,1.2-3.3-0.1
			c-15-16.3-30-32.5-45-48.7c-7.5-8.1-15.1-16.3-22.6-24.4c-0.4-0.5-0.9-0.9-1.4-1.3c5.7-5.4,11.3-10.8,17-16.2
			C121.4,116,121.8,116,122.1,115.8z"/>
		<path class="st3" d="M122.1,115.8c-0.3,0.1-0.7,0.2-0.9,0.4c-5.7,5.4-11.4,10.8-17,16.2c-6.8,6.4-14.1,12.2-19.8,19.7
			c-4,5.2-6.9,10.9-7.3,17.6c-0.4,6.5,1.5,12.5,4.7,18.1c1.1,1.9,0.6,2.8-0.7,4c-3.6,3.2-7.1,6.5-10.6,9.9c-1.2,1.1-1.7,0.8-2.6-0.3
			c-6.2-7.7-9.8-16.6-11.1-26.4c-2.6-20.7,5.2-37.3,20.4-51c3.5-3.2,6.9-6.6,10.3-9.8c4.5-4.1,9-8.2,13.4-12.4
			c1.5-1.4,3.2-2.6,4.2-4.5c0.8,0,1.2-0.7,1.7-1.1c5.7-5.4,11.4-10.7,17.1-16.1c1.1-1,1.6-0.8,2.5,0.1c4.7,5.2,9.4,10.3,14.2,15.4
			c1.1,1.1,0.9,1.7-0.1,2.7c-5.5,5.1-10.9,10.2-16.3,15.3C123.3,114.3,122.5,114.8,122.1,115.8z"/>
		<path class="st4" d="M106.5,223.3c-9.4-0.4-21.1-4.7-31-13.6c-1.2-1.1-1.3-1.8,0-2.9c3.8-3.4,7.5-6.9,11.2-10.5
			c1-1,1.6-0.9,2.7-0.2c5.4,3.6,11.2,6.1,17.9,6.1c6.7,0,12.5-2.6,18-6.3c5.4-3.6,10-8.2,14.6-12.7c1.1-1,1.7-1.2,2.8,0.1
			c4.7,5.2,9.5,10.4,14.3,15.5c0.5,0.5,1.3,0.9,0.3,1.8c-5.6,5.1-10.9,10.6-17.4,14.6C130.7,220.8,120.9,223.7,106.5,223.3z"/>
		<path class="st5" d="M105,97.3c-1,1.8-2.7,3.1-4.2,4.5c-4.4,4.2-8.9,8.3-13.4,12.4c-4.2-4.6-8.5-9-11.9-14.2
			c-13.2-20.2-11.7-47,3.7-65.2c2.4-2.8,2.4-2.8,4.9-0.1c3.1,3.4,6.2,6.8,9.4,10.2c1,1,0.8,1.7,0.1,2.7c-2.9,4.4-5,9.1-5.9,14.3
			c-1,6.3,0.4,12.1,3.3,17.7c3.2,6.1,7.7,11.2,12.4,16.2C104.1,96.2,104.6,96.8,105,97.3z"/>
	</g>
</g>
</svg>
