<?xml version="1.0" encoding="utf-8"?>
<!-- Generator: Adobe Illustrator 26.3.1, SVG Export Plug-In . SVG Version: 6.00 Build 0)  -->
<svg version="1.1" id="affiliation" xmlns="http://www.w3.org/2000/svg" xmlns:xlink="http://www.w3.org/1999/xlink" x="0px"
	 y="0px" viewBox="0 0 256 256" style="enable-background:new 0 0 256 256;" xml:space="preserve">
<style type="text/css">
	.st0{fill:#FFFFFF;}
	.st1{display:none;fill:#FFFFFF;}
	.st2{fill:#663466;}
</style>
<rect id="black" width="256" height="256"/>
<circle
   id="background"
   class="st0"
   cx="128"
   cy="128"
   r="128" />
<g id="logo">
	<g id="KSb9AH_1_">
		<g>
			<path class="st2" d="M57.1,116.9c1.4-1.2,2.8-2.4,4.2-3.5c-11.5,1.6-21.9,5.4-31.4,12.3c0.9-1.3,1.7-2.6,2.7-3.8
				c8.7-10.9,20.3-17.5,33.3-22c3.4-1.2,3.6-1.4,3.1-5c-0.8-6.2-2.6-12.1-6.5-17.6c6.3,1.5,11.9,3.9,16.9,7.4
				c5.6,4,10.8,8.6,16.2,13c0.9,0.8,2,1.5,3.1,1.9c7.6,2.7,14.6,6.3,20.6,11.7c1,0.9,2.1,2,2.6,3.2c0.4,1,0.6,2.7,0,3.5
				c-0.6,0.8-2.1,1-3.3,1.1c-0.9,0.1-1.8-0.5-2.7-0.7c-11-3.4-22.2-6.2-33.7-5.2c-8,0.7-16,2.6-23.9,3.9c-0.3,0.1-0.6,0.1-0.9,0.2
				C57.2,117.1,57.2,117,57.1,116.9z"/>
			<path class="st2" d="M47.4,174.8c0.1-1.5,0.2-2.7,0.3-4c1.3-0.1,2.4-0.1,3.9-0.2c0.3-3.3,0.6-6.6,0.8-9.8
				c-4.1-1.1-8.2-1.9-12-3.2c-3.1-1.1-6.2-2.6-8.9-4.5c-9.2-6.2-10-14.9-2.2-22.8c1.2-1.3,2.6-2.5,4-3.6c1.6-1.2,3.3-2.3,5.3-3.2
				c-1.7,3-3.3,6-5,9.1c0-1.4,0-2.9,0-4.5c-7.9,5-8.3,14.8-1.1,20c6.1,4.4,13,6,20.5,6.7c0.4-4.5,0.9-8.7,1.3-13.2
				c-1.2-0.1-2.3-0.1-3.7-0.2c0.1-1.3,0.2-2.6,0.3-3.9c9.2,0,18.3,0,27.5,0c-0.3,2.3-0.5,4.5-0.7,6.6c-0.2,1.6-1,2.4-2.6,2.2
				c-1.6-0.2-1.9-1.4-1.7-2.8c0.1-0.6,0.2-1.2,0.3-1.9c-3.2,0-6.3,0-9.8,0c-0.5,4.4-0.9,8.9-1.4,13.5c1.4,0,2.7,0.2,3.9-0.1
				c0.7-0.1,1.6-0.8,1.8-1.4c0.5-1.5,1.2-2.3,3.1-1.5c-0.2,2.8-0.5,5.6-0.8,8.6c-2.8,0-5.5,0-8.4,0c-0.3,3.3-0.7,6.5-1,9.7
				c1.3,0.1,2.5,0.1,3.8,0.2c-0.2,1.4-0.3,2.6-0.5,4C58.8,174.8,53.2,174.8,47.4,174.8z"/>
			<path class="st2" d="M126.5,170.7c0.8,0.1,1.4,0.2,2.2,0.3c-0.1,1.3-0.2,2.4-0.3,3.8c-1.1,0-1.9,0-2.8,0c-4.1,0-8.1,0-12.1,0
				c-0.1-3.7-0.1-3.7,4-4.2c0.7-6.3,1.3-12.6,2-19.1c-1.3-0.1-2.5-0.1-3.8-0.2c0.1-1.3,0.2-2.5,0.4-3.8c4.2,0,8.3,0,12.6,0
				c0,0.8,0,1.6,0,2.3c2.5-1,4.9-2.2,7.4-2.9c5.4-1.4,9.2,1.5,9,7.1c-0.2,4.4-0.8,8.7-1.2,13c-0.1,1.1-0.2,2.3-0.3,3.5
				c1.2,0.1,2.3,0.2,3.5,0.3c-0.1,1.3-0.1,2.4-0.2,3.7c-5,0-9.9,0-15,0c0.4-1.5-0.9-3.7,2-4c0.3,0,0.6-1,0.7-1.6
				c0.5-4.6,1-9.2,1.4-13.7c0.2-2.8-1.2-3.9-3.9-3.2c-2.3,0.6-4,1.4-4.1,4.3C127.8,161.2,127.1,165.9,126.5,170.7z"/>
			<path class="st2" d="M95.5,146.7c7.5,0,13,4.2,13.9,10.6c1.1,8.1-4.8,16.3-12.9,17.5c-2.8,0.4-5.8,0.5-8.6-0.2
				c-9.9-2.4-13.1-13.8-6.3-21.9C85,148.8,89.9,146.7,95.5,146.7z M99.8,158.8c-0.2-1.8-0.4-3-0.6-4.2c-0.4-2-1.3-3.7-3.5-4.1
				c-2.3-0.3-4.2,0.7-5.2,2.7c-2.3,4.9-3.1,10.1-1.7,15.4c0.9,3.5,4.8,4.4,7.3,1.9c1-1,1.8-2.4,2.2-3.8
				C99,164,99.4,161.2,99.8,158.8z"/>
			<path class="st2" d="M199.6,147.6c3.4,0,6.5,0,9.9,0c-0.1,1.3-0.2,2.5-0.3,4c-3.4-1.2-4,1.4-5,3.5c-5.4,11.1-10.9,22.2-16.3,33.4
				c-0.7,1.5-1.5,1.9-3,1.8c-1.8-0.1-3.6,0-5.7,0c0.4-0.8,0.6-1.4,1-2c2.5-4.4,5.1-8.7,7.6-13.2c0.5-0.8,0.6-2,0.4-3
				c-1.4-5.8-3.2-11.6-4.5-17.4c-0.6-2.4-1.3-4.2-4.5-3.1c0.1-1.5,0.2-2.7,0.3-4c5.2,0,10.2,0,15.4,0c-0.1,1.2-0.2,2.3-0.3,3.6
				c-1,0.1-1.9,0.2-3.1,0.3c1.1,4.2,2.2,8.3,3.4,12.9c2.5-4.5,4.7-8.6,7.1-12.9c-1-0.1-1.8-0.2-2.9-0.2
				C199.3,150.1,199.4,148.9,199.6,147.6z"/>
			<path class="st2" d="M168.4,139.1c-0.3,2.9-0.5,5.5-0.8,8.4c1.3,0,2.5,0,3.7,0c3.6,0,3.6,0,3,3.8c-2.3,0-4.6,0-7.2,0
				c-0.5,5.5-1.1,10.8-1.4,16.1c-0.1,2.5,2.1,3.8,4.6,3.1c0.6-0.2,1.3-0.5,1.9-0.8c1.3,3.2,1.2,3.4-1.7,4.5
				c-1.2,0.5-2.5,0.7-3.9,0.9c-7.5,0.9-11.1-2.8-10.1-10.2c0.3-2.2,0.4-4.3,0.6-6.5c0.2-2.2,0.4-4.3,0.6-6.8c-1.4,0-2.6,0-4.1,0
				c0.1-1.5,0.2-2.7,0.3-4.1c1.5,0,2.8,0,4.6,0c-0.9-4.1,2.1-4.7,4.6-5.9C164.9,140.8,166.5,140,168.4,139.1z"/>
			<path class="st2" d="M231.3,154.9c-1.5,0.5-2.4,0.3-2.9-1.3c-0.5-1.6-1.9-2.9-3.8-2.5c-1.1,0.2-2.5,1-3.1,1.9
				c-0.3,0.5,0.5,2.2,1.2,2.8c1.9,1.7,4.1,3.1,6.1,4.6c5.1,4,3.2,10.6-1.4,13.3c-4.3,2.5-8.8,2.3-12.6,0.7c-1.5,0.5-2.6,0.9-4,1.4
				c0.3-3.4,0.6-6.3,0.9-9.3c0.8,0,1.6,0,2.4,0c0.6,1.1,1,2.3,1.7,3.3c1.1,1.6,2.8,2.4,4.7,1.8c0.9-0.3,2-1.2,2.2-2
				c0.2-0.7-0.3-2-1-2.6c-1.6-1.5-3.3-2.8-5-4.2c-2.7-2.1-4.3-4.8-3.5-8.3c0.8-3.7,3.2-6.1,6.8-7c1.9-0.5,4-0.4,6-0.4
				c1.4,0,2.6,1.1,4.2,0c0.9-0.6,1.9,0.2,1.7,1.6C231.7,150.8,231.5,152.9,231.3,154.9z"/>
			<path class="st2" d="M96.4,96.6c-1.2-1.3-2.4-2.6-3.5-3.9c-3.8-4.5-8.1-8.4-13.2-11.5c-0.6-0.4-1-1.4-1-2.2
				c-0.1-4.4,0-8.8,0-13.2c0,0,0.4,0.1,0.6,0.3c6.9,9,13.2,18.3,16.9,29.1C96.3,95.6,96.3,96.1,96.4,96.6L96.4,96.6z"/>
			<polygon class="st2" points="96.3,96.6 96.4,96.7 96.4,96.6 			"/>
		</g>
	</g>
</g>
</svg>
