<?xml version="1.0" encoding="utf-8"?>
<!-- Generator: Adobe Illustrator 26.3.1, SVG Export Plug-In . SVG Version: 6.00 Build 0)  -->
<svg version="1.1" id="affiliation" xmlns="http://www.w3.org/2000/svg" xmlns:xlink="http://www.w3.org/1999/xlink" x="0px"
	 y="0px" viewBox="0 0 256 256" style="enable-background:new 0 0 256 256;" xml:space="preserve">
<style type="text/css">
	.st0{fill:#FFFFFF;}
	.st1{display:none;fill:#FFFFFF;}
	.st2{fill-rule:evenodd;clip-rule:evenodd;}
</style>
<rect id="black" width="256" height="256"/>
<circle id="background_x5F_circle" class="st0" cx="128" cy="128" r="128"/>
<path id="background_x5F_rectangle" class="st1" d="M206.9,256H49.1C22.1,256,0,233.9,0,206.9V49.1C0,22.1,22.1,0,49.1,0H207
	c27,0,49.1,22.1,49.1,49.1V207C256,233.9,233.9,256,206.9,256z"/>
<g id="logo_00000169557994799884142440000017718490564280908447_">
	<g>
		<path class="st2" d="M235.4,104.2c-0.5-0.6-2.1-0.7-2.1,0.4C233.5,105.7,235.2,104.7,235.4,104.2c1.7,0.7,3.3,1.5,5,2.2
			c-0.4,2.8-1.6,4.8-5,4.4c2.5,0.9,5.6,1.2,5.9,4.4c-0.1,1.8-1.8,1.9-2.5,3.1c0.5,2.4,3.1,2.6,3.4,5.3c-0.3,1.9-2.3,2-2.9,3.5
			c-1.2,0-3.4-1.3-3.8,0.4c0.6,1.1,2.6,0.1,3.4,0c2.3,1.9,5.1,5.6,1.3,7.9c-1.8,0.3-5-0.8-5.5,0.9c0.6,1,2.9,0.2,4.2,0.4
			c1,1.6,2.6,2.6,2.1,5.7c-1.4,0.3-2.2,1.2-2.9,2.2c-1.6,0.1-2.3-2.3-3.8-0.9c2,2.2,6.4,1.7,6.3,5.3c-0.1,2.1-2,3.2-4.6,4
			c0.3,2,2.1,2.5,2.5,4.4c-0.5,4.6-5.1,3.3-8,3.5c0,1.6,2.7,0.4,3.4,1.3c0.2,2.5,2.2,3.6,1.3,6.2c-1,1-3,1-4.2,1.8
			c-1.3-0.4-1.6-1.8-3.4-1.8c0.7,2.4,3.1,2.9,4.6,4.4c0,1,0,2.1,0,3.1c-2.7,2.1-5.4,0.8-8.4,0c2.1,2,6.1,3,4.6,7.5
			c-1.5,0.6-3.1,1.1-5.5,0.9c-0.8-0.7-0.6-2.3-2.1-2.2c-0.7,0-1.1,0.3-1.3,0.9c1.7,2.1,4.9,2.5,4.2,7.1c-1.3,1.8-3.1,0.7-5,1.3
			c-1.1-0.9-1.3-2.8-3.8-2.2c0.5,3.1,4.3,3.4,4.2,6.2c-0.3,6.6-7.4,0.7-9.6,0.9c1,2.5,4.2,2.6,3.4,7.1c-2.8,3.1-6.5-0.4-8.8-1.8
			c1.7,2.4,4.9,7.5,0.8,9.7c-3.5,0.3-3.8-2.8-6.7-3.1c1.7,1.8,4.2,6.3,0.8,8.4c-4.1,0.6-4.9-2.2-6.7-4c-3,1,0.9,1.9,1.3,3.1
			c1.6,5.6-2.5,7.4-6.3,4.9c-0.5-1.4-0.2-3.6-2.5-3.1c-0.4,2.2,1.2,2.2,1.7,3.5c0.1,3.5-0.4,5.4-3.4,5.3c-3-0.1-2.6-3.9-5-4.9
			c-0.4,0-0.5,0.4-0.8,0.4c1.4,2,2.9,6.8,0,8.4c-2.5,0.5-2.7-1.5-4.6-1.8c0-2-0.1-3.8-2.1-3.5c-1.8,1.2,0.5,2.5,0.8,4
			c-0.5,1.5-0.8,3.3-1.7,4.4c-2.3,0.9-3.2-1-5-1.8c0-0.9,0-1.8,0-2.6c-0.3-0.9-2.2-1.2-2.9-0.4c1.4,2.9,1.6,7.2-1.3,7.9
			c-3.4,0.9-3.5-3.5-5.5-5.7c-1.2,2.9,0.8,8.5-3.4,8.4c-2.8,0-2.9-3.7-4.6-6.2c-2.2,1.3-0.3,5.9-2.9,7.5c-4.9,0.9-3.5-4.8-5.9-6.6
			c-1,1.5,0.6,5.6-1.7,7.5c-3.8,1.1-5.9-2.4-5.5-7.1c-2.8-0.3-1.2,2.2-1.3,4c-2,5.9-9.2,2.6-7.1-4c-0.4,0-0.8,0-1.3,0
			c-1,0.5-0.2,2.8-0.4,4c-2.4,0.4-1.8,4-5.5,3.1c-1.5-1.8-2.8-4.9-1.3-7.5c-2.4-1.8-2.9,1.5-2.5,4c-1,1-2.5,1.5-3.4,2.6
			c-3,0.1-2.9-3.1-3.8-5.3c0.4-0.8,1.1-1.2,1.3-2.2c-0.1-0.5-0.5-0.7-0.8-0.9c-1.8,3-2.8,8.4-7.5,5.7c-0.7-2.5,0.1-5.5,0-7.5
			c-2.5,0.9-2.8,4.1-4.6,5.7c-6,0.8-4.3-5.5-3.4-8.8c-2.5-0.6-2.1,1.9-2.5,3.5c-2,0.2-2.6,1.9-4.6,2.2c-3.7-1.8-0.9-6.3-1.3-9.3
			c-2.5,1.3-2.8,5-5.9,5.7c-1.3,0-1.6-0.9-2.5-1.3c-0.9-4,2-5.5,1.3-7.9c-3.2,0.8-4.4,6.8-8.8,3.5c-0.6-3.7,0.6-5.6,2.1-7.1
			c0-0.6-0.2-1-0.4-1.3c-2.2,1.9-5.3,6.4-8.8,3.1c-0.2-3.4,1.1-5.3,2.9-6.6c-1-2.3-2.9,0.3-2.9,1.8c-2,0.7-5.5,1.7-6.7-0.4
			c0.6-3.2,0.2-5.3,2.9-6.6c-0.2-0.6-0.7-1.1-1.3-1.3c-2.3,2.1-3.2,3-7.1,3.1c-3.2-3.4,1.2-6.3,2.5-8.8c0-0.6-0.7-0.4-0.8-0.9
			c-1.8,0.2-1.9,2.2-2.9,3.1c-1.4,0-2.8,0-4.2,0c-2.7-2.7,0.3-6.9,2.9-7.9c0-0.6-0.2-1-0.4-1.3c-3,0.5-3.1,3.6-6.3,3.1
			c-4.8-0.8-2.5-7.4,1.7-8.8c-2.6-2.6-3.9,3.1-8,1.8c-4.4-4.5,3.7-6.4,3.4-9.3c-2.6,1.1-7.7,2.4-8.8-1.3c0.7-3.1,3.5-3.9,5.5-5.7
			c-2.4-1-4.2,2-7.5,0.4c-3.6-3.9,1.5-7,4.6-7.9c0-0.6-0.2-1-0.4-1.3c-2.8,1.1-5.8,1.9-8-0.4c-0.9-5.2,4.3-4,5.9-6.6
			c-2.1-1.1-6,1.4-8.4-1.8c0-4,2.1-5.8,6.3-5.3c0-0.6,0.2-1,0.4-1.3c-1.6-1.8-5.8,0.5-8-1.3c-1.9-5.6,3.8-5.6,6.7-6.6
			c-2.4-0.7-7.6-0.2-8-3.5c-0.4-4,4.1-3.3,7.5-4.4c-2-3.2-9.6-1.1-7.1-6.6c0.5-1,2.2-0.7,2.9-2.2c1.5-0.3,1.6,1,2.9,0.9
			c0.5-0.2,0.9-0.6,0.8-1.3c-3.4-0.7-7.5-0.7-7.1-5.3c2-2,4.7-1.9,7.5-2.2c-0.1-2-2.7-0.2-3.8-0.4c-0.1-2-2.5-1.5-2.9-3.1
			c0.5-4.7,5-3.2,8-3.5c-1.8-1.2-5-1-5.9-3.1c0-0.7,0-1.5,0-2.2c2.2-2.1,5.2-1.2,7.5-1.3c-1.6-1.6-3.7-2.5-5.5-4
			c-0.3-1.7,0.5-2.1,0.4-3.5c2.6-0.8,5.1-1.2,7.5,0c-1.2-3.1-5.9-2.6-5.5-7.5c1.6-3.9,7-0.1,9.2-0.9c0.1-2.4-2.8-1.5-4.2-2.2
			c0-2.2-2.4-1.9-1.7-4.9c2.9-2.8,6.9,0.2,9.6-0.4c-3.3-2.5-8.9-9.2,0-9.3c1,1.2,2.3,3.2,4.2,2.2c-1-3.1-5.9-2-5-7.1
			c0.3-0.1,0.5-0.4,0.4-0.9c3.6-1.2,6.1-0.6,8,1.8c0.6-0.1,0.7-0.7,1.3-0.9c-1.5-2-4.8-2.9-4.6-5.7c0.5-5.5,6.4-2.1,9.6-0.4
			c0.1-1.9-1.2-2.3-2.5-2.6c-0.4-2-1.1-3.7-0.4-5.7c3.8-2.4,5.5,1.6,8.8,2.2c-0.9-2.6-3.5-3.4-3.4-7.1c2.8-3.1,7.3-0.4,8.4,2.2
			c1.9-1.7-4.5-6.7,0-8.8c4.2-0.5,4.7,2.7,7.5,3.5c-2.4-2.3-3.8-7.3-0.4-8.4c3.6-1.2,4.4,2.9,7.1,4.4c-1.5-3.1-1.9-3.3-1.7-7.1
			c4.7-3.8,5.9,2.4,9.2,3.5c-0.9-3-2.4-5.3,0-7.9c3.1-0.6,3.4,1.7,5.5,2.2c0.7-1.5,1.4-3,1.7-4.9c4.5-2,5.6,2.8,7.5,4.9
			c-0.7-3.2-1.4-8.3,2.5-8.4c3.2-0.1,3.1,4.3,5,6.6c1.4-2.1-0.4-4.2,0.8-7.5c0.9-0.6,2-1.1,3.8-0.9c1.7,1.6,2.1,4.5,3.4,6.6
			c0-2.6,0.5-5.5,2.1-7.5c3.8-0.4,5,2.1,5.5,5.3c2-1.4,6.8-3.8,7.5,0.4c1.4,0.5,0.3-1.4,1.7-0.9c-0.1,1.1-0.8,1.4,0.4,1.8
			c1.5,0.1,1-1.9,1.7-2.6c0.3-1.2-2,0.3-1.7-0.9c0-2.1,1.3-2.7,2.1-4c1.6,0.4,1.7,2.3,2.5,3.5c0.1,0.8-0.4,1-1.3,0.9
			c-0.3,1.4,0.7,1.3,0.4,2.6c1.8-0.9,2.8-2.8,4.6-1.3c0.9-0.2-0.5-0.7,0.4-1.3c2.7,0,4.1,0.5,5.5,2.6c-1.4,1.2,0,2.7-1.3,4
			c0.5,0.4,1.1,0.6,2.1,0.4c-0.5-1.4,2.3-1.5,3.8-2.2c1.6,1.3,4.5,3.4,7.5,1.8c4,2.5,9.4,3.3,15.1,4c1.2,2.3,3.8,4.3,7.1,3.1
			c2.2,1.1,3.2,5.8,6.7,4c1.9,2,3.3,4.5,7.1,4.4c0.8,3.2,3.2,4.5,6.7,4.9c0.5,3.5,2.7,5.1,5.9,5.7c-0.3,4,2.2,5.1,5.5,5.3
			c-0.2,3.7,1.4,5.6,4.2,6.2c0.5,3.4,1.6,6.2,5,6.6c0.4,3.6,1.1,6.8,4.2,7.5c-0.6,4.1,0.7,6.3,3.4,7.1c0,2.4-0.7,6.5,2.9,7.1
			c-1.1,3.7,0.2,6.9,2.5,8.4c-0.7,2.4-0.6,5.7,2.1,5.7c-1,2.8-1.1,6.1,0.8,7.9c-2.3,3.6,1,7.3,0,10.6c0.6,0.1,4.5-0.3,5.5-1.3
			c-0.1-3.3-2.5-4.1-5.5-4.4c-0.9-4,4.5-1.5,4.6-4.4c-0.1-1-1.8-0.2-2.5-0.4c-0.4-1.3,0.9-0.8,1.7-0.9c0.2-2.6-3.4-1.1-4.2-2.6
			c-0.1-2.8,3.9-1.2,4.2-3.5c-0.2-1-2.1-0.2-2.9-0.4c0.4-0.8,1.9-0.7,0.8-1.8c-0.7-1.1-3.2,1-3.8-0.9c0-1.8,1.2-2.2,2.9-2.2
			c2.7-2.3-0.5-6.3-4.2-4.4c-0.2-0.8-1.2-0.8-0.8-2.2c0.3-2,2.8-1.8,3.8-3.1c-0.3-4.4-4.3-2.1-6.7-2.6c0-0.7,0-1.5,0-2.2
			c0.9-0.4,1.4-1.1,2.9-0.9c1.1-3.8-2-5.1-5-3.5c-0.6-0.7-1.1-1.5-0.8-3.1c1-0.1,1.7-0.5,2.5-0.9c0.7-2.6-0.8-2.6-2.1-4.9
			c-1.8,0.1-3.3,1.8-4.6,0c0.1-1.6,1.2-2.3,2.5-2.6c1.6-7.3-6.1-0.9-7.1-5.3c1-1.1,2.7-1.6,2.9-3.5c-0.6-0.8-1.3-1.5-2.1-2.2
			c-2.1-0.2-2.3,1.7-4.6,1.3c-1.5-2.6,1.3-3,1.3-5.3c0.3-1.2-0.8-0.9-0.8-1.8c-3.3-0.5-3.9,2.2-6.3,0.4c-0.6-2.4,1.1-2.4,1.7-3.5
			c-0.6-1.6,0-1.6-0.4-3.1c-2.4-0.8-3.9-0.1-5.5,1.8c-0.9-0.1-0.8-1.2-1.7-1.3c0-2,1.7-2.4,1.3-4.9c-2.3-2.6-4.3,0.9-6.7,0.9
			c-1.5-1.7-0.1-3.8,0.8-5.3c-0.5-0.6-1.7-0.6-1.7-1.8c-1.9,1-2.5,1.7-5,2.6c-0.1-0.6-0.9-0.5-1.3-0.9c0.3-2.1,0.8-3.1,0.8-4.4
			c0.2-1.4-2.1-0.2-1.7-1.8c-2.3,0.4-4.2,4.3-6.7,1.8c0-2.3,1.3-2.6,0.4-4.9c-1.1,0.4-0.5,2.7-2.1,2.6c-1-1.1,0.9-2,1.3-3.1
			c-2.5-1.6-2.4,2.9-5,2.6c-0.1-0.3-0.4-0.5-0.8-0.4c-0.8-1.6,0.8-2.4,0-4c-2.3-2.2-4,1.4-6.7,1.3c-1.5-1.2,0.1-3-1.3-4.4
			c-1.7-0.3-0.1,2.9-2.1,2.2c-0.3-1.3,0.4-1.6,0.4-2.6c-0.8-0.5-2.9,1.3-2.9,3.1c-0.7,0-1.4,0-2.1,0c-1.1-1.8,1.1-4.8-1.7-5.3
			c-1.9-0.7,0.2,2.9-1.7,2.2c-0.3-1.5,0.8-1.9,0-2.6c-2.6-0.2-1.5,3.4-3.4,4c-3.1,0.2-1.8-4-2.1-4.9c-0.3-1-2.6,0.1-2.9-0.9
			c-1.9,0.5-1.5,3.4-3.4,4c0.4-1.1,0.5-2.4,0.4-4c2-0.6,2.4-3,5.9-2.2c1.3,1.7,2.3,4.3,0.8,6.6c2.2-1.1,1.5-4.4,4.2-4.9
			c2.7-0.4,3.3,1.3,5,3.5c0.3,1.8-1.4,1.5-0.8,3.5c1.7,0.3,1.2-1.7,1.3-3.1c3.4-3.1,8.7-1.3,6.7,4.4c2.6-2.9,9.8-5,7.5,2.6
			c1.4-1.7,4.1-3.6,7.1-2.2c-0.4,1.8,0.8,2.1,0.8,3.5c-0.8,0.5-1.4,1.2-2.1,1.8c-0.1,0.9,0.6,0.9,0.8,1.3c1.5-1.9,5-4.6,8-2.2
			c0.9,3.6,0.2,3.3-0.8,6.2c2.1-1.1,3-3.6,6.3-3.5c3.9,1.7,0.3,5.9,0.4,7.9c1.6,0.1,1.4-1.8,2.1-2.6c3.1-0.2,6.6,0.3,5.9,4
			c0.2,2-2.2,1.2-2.1,3.1c1.2,1.5,2-1.1,2.5-1.8c2.3,0.6,4.3-0.5,5.9,1.3c0.1,2.4-1.3,2.2-0.4,4.4c-0.9,0.7-2.6,0.5-2.1,2.6
			c1.8,0.1,2-1.5,2.9-2.2c1.3,0.6,3.3,0.3,4.6,0.9c1.1,2.7-0.5,5.4-2.1,6.6c1.8,0.2,5.5-2.8,7.5,0.4c0.1,3.2-1.3,4.8-3.4,5.7
			c2.2,0.2,5.8-1.9,8,0.9c0.4,3.8-1.8,4.9-3.4,6.6c0.8,1.1,1.9-1.2,2.9-1.3c1.2,1.5,3.9,1.5,5,3.1c-0.3,3-1.9,4.7-4.6,5.3
			c1.9,1.6,7.3-1.4,8.4,2.6c-0.7,1.3-1.8,2.2-2.1,4c-1.2,0.1-2.9-0.4-2.9,0.9c1.1,1.4,2.6-0.5,3.4-0.9c3.7,0.6,6.1,4.1,2.9,7.1
			c-1.7-0.2-3.1,0-3.4,1.3c3.2,0,4.7-0.1,7.5,1.8C238.7,101.8,236.7,102.7,235.4,104.2z M112.1,21.6c-0.2,1.4,1.3,1,0.8,2.6
			c-0.8,1.5-1.6,1.8-3.4,1.3c0-2-1.2-2.8-1.3-4.9c-1.5-0.4-1.6,0.7-2.9,0.4c-1.1,2.2,0.5,5.1-1.7,6.6c3.6-2.9,8.8,0.6,12.2-3.1
			c0.1,1,2,0.3,1.7,1.8c-0.6,0-3.4-0.2-2.1,0.4c1.3-0.3,3.6,0.6,4.2-0.4C118.4,24.3,116,17,112.1,21.6z M124.7,22.1
			C125,22.4,124.5,21.9,124.7,22.1L124.7,22.1z M138.5,22.5C138.8,22.8,138.3,22.3,138.5,22.5L138.5,22.5z M96.6,29.1
			c-3.8,0.8-2.6-3.7-5.5-4c-0.4,0.3-0.9,0.5-1.7,0.4c0,1.2,0.4,2.8-1.3,2.2c-0.4,1.7,1.8,0.7,1.3,2.6c-0.4,0.6-1.1,0.9-1.7,1.3
			c-1.5-1.9-4.1-5-7.1-2.6c0.3,1.6,0.8,2.6,0.8,5.3c-0.7-0.1-0.7,0.4-1.3,0.4c-2.3-1.6-3.4-5.4-7.1-3.1c-0.2,2.9,1.2,2.9,1.3,6.2
			c-0.5,0.5-1.5,0.5-2.5,0.4c0.1-2.6-2.5-2.4-3.4-4c-0.4,1.1-1,1.9-2.5,1.8c-0.1,2.4,1.3,3.4,1.7,5.3c-0.8,0-0.5,1.2-1.7,0.9
			c-1.4-1.9-5.1-3.3-7.1-0.9c0.6,1.7,2.1,2.4,2.1,5.7c-1-0.2-0.9,0.8-2.1,0.4c-1.2-0.5-1.6-1.8-2.1-3.1c-1.8,0.1-3.6,0.3-4.2,2.6
			c0.6,2,3.1,2,2.5,5.3c-0.3,0.1-0.4,0.4-0.8,0.4c-3,0.1-3-3-6.3-2.6c0.2,1.6-1.5,1.1-1.3,2.6c0.4,2.1,2.8,2,2.9,4.4
			C49.3,58,49,58.8,48,58.7c-2.3-0.2-2.9-2.2-5.5-2.2c0,1.6-1.5,1.7-2.1,2.6c0.9,2.1,3.3,2.7,3.8,5.3c-0.8,0-0.3,1.5-1.3,1.3
			c-3.3-0.2-3-2.4-6.3-1.8c0.1,1.3-0.8,1.5-1.3,2.2c1.3,1.9,4.2,2.1,4.6,4.9c0.6-0.6,0.4-1.9,0.4-3.1c2.8-1.2,5.3-2.7,5-7.1
			c2.3-0.2,3.6-1.5,5-2.6c-0.1-5.7,7-3.9,7.1-9.3c1.5,0,2.4-0.7,3.8-0.9c0.7-1.4,1.3-3.1,2.5-4c2.4,0.6,5.1-2.2,6.7-4
			c3.9,0.5,5.4-1.7,6.7-4c3.5,0.6,5.9-2.2,8.4-4C89.8,33.3,91.5,28.5,96.6,29.1c2.9-0.1,2.6-2.4,5.9-1.3c-0.1-1.6-1.8-1.6-1.3-4
			c-1.9,0.7-1.3-1.3-2.9-0.9c-0.8,0.6-1.4,1.4-1.7,2.6C97.5,26.8,97.5,28,96.6,29.1z M122.2,29.6c3.2,0.4,1.4-2.9,2.9-3.5
			c0.9,0.2,0,2.3,0.8,2.6c1.2-0.4,1.1,0.6,2.1,0.4c1.1-1.4-0.1-3.1,0-4.9c-2.2,0.1-3.1-1.2-5-1.3C121.6,24.4,121.8,27.3,122.2,29.6z
			 M132.7,24.7c0,1.5,0,2.9,0,4.4c2.9,0.7,1.7-2.9,3.8-3.1c1,1-0.1,1.7,0,3.1c2.9,1,3.4-2.3,2.9-5.3
			C136.2,23.6,135.1,23.7,132.7,24.7z M129.3,26C129.6,26.3,129.1,25.9,129.3,26L129.3,26z M131,26C131.3,26.3,130.8,25.9,131,26
			L131,26z M109.6,27.8c-0.6,0.2-2.2-0.5-2.1,0.4C108.1,28,109.7,28.8,109.6,27.8z M131.8,27.8c-0.3,0.1-0.8,0-0.8,0.4
			C131.3,28.2,131.8,28.2,131.8,27.8z M146.5,27.8c-0.5,0.1-1.2-0.1-1.3,0.4C145.7,28.2,146.4,28.3,146.5,27.8z M148.6,28.3
			C148.7,29.6,150.3,27.8,148.6,28.3C147.7,26.9,145.9,28.8,148.6,28.3z M106.7,28.3c-0.3,0.1-0.8,0-0.8,0.4
			C106.1,28.6,106.6,28.7,106.7,28.3z M122.2,31.3c-1-4.2-4.6-2.9-8-2.6c-28.3,2.4-48,15.1-62.9,31.8c-14.6,16.3-27.3,40.5-26,70.6
			c1.3,29.3,11.8,51.6,28.5,68c16.6,16.3,36.4,28.8,63.7,30.9c41.2,3.1,70.6-15.3,88.9-36.6c13.9-16.3,27.4-43.1,24.7-75
			c-1.9-22.5-12.7-42.4-23.9-55.6C194,47.1,175.3,34,152.4,30c-5.5-0.9-13.2-2.8-14.3,0.9c-1.4,4.8,8.1,9,10.1,10.2
			c6.2,7,14.5,9.6,21.8,13.7c7.4,4.2,14.1,9.6,20.1,15.9c11.2,11.7,21.8,28.2,23.1,49.9c1.9,32.3-12.6,58.3-32.3,73.7
			c-19,14.9-50.2,24.1-80.1,14.6c-17.6-5.6-32.6-18.1-42.8-32.7c-9.5-13.5-18.4-36.6-14.3-60.9C47.1,95.4,57,79.7,68.5,68.4
			C81.2,56,97.1,51.3,112.1,41.1C116.6,38.9,123.2,35.9,122.2,31.3z M97.9,30c2.3-0.1,4.1-0.6,5.9-1.3C101.4,28.7,99.1,28.8,97.9,30
			z M130.6,28.7c-0.3,0.1-0.8,0-0.8,0.4C130,29,130.5,29.1,130.6,28.7z M87,30.5c0.4,0,0.8,0,1.3,0c0-0.4,0-0.9,0-1.3
			c-0.4,0-0.8,0-1.3,0C87,29.6,87,30,87,30.5z M125.1,29.6C125.4,29.9,124.9,29.4,125.1,29.6L125.1,29.6z M125.1,30
			c0,0.6,0,1.2,0,1.8c1.8,0.2,0.5-1.2,1.3-1.3c1,0.8,6,1.8,6.7-0.4c0,0.6,0,1.2,0,1.8c1.6,0.6,0.1-2,1.7-1.3c0,0.6-0.2,1-0.4,1.3
			c1.3-0.8,1.4-1.1,2.5-1.3C133.6,29,129.1,29.8,125.1,30z M90.7,32.2c1.9-0.3,3.4-1.1,5-1.8C93.3,30.3,91.8,31,90.7,32.2z
			 M124.3,31.8C125.4,29.5,122.3,30.7,124.3,31.8L124.3,31.8z M136,33.1c-4.6-0.1-6.9,0-11.7,0c-1.5,2.2-6.2,5.5-5.5,7.1
			c9-1.1,16.5,0.5,24.7,0C140.6,38.3,138.6,35.4,136,33.1z M85.3,34.4c-0.8-0.2-1.3,0.1-1.3,0.9C84.7,35.3,85.1,35,85.3,34.4
			c1.2,0,2.6,0,2.5-1.3C86.9,33.5,85.5,33.4,85.3,34.4z M83.2,35.8C83.5,36,83,35.6,83.2,35.8L83.2,35.8z M80.7,36.6
			c-2.1-0.3-4.4,1.5-3.8,2.6C77.8,38,79.8,38,80.7,36.6C82.4,37.1,80.8,35.3,80.7,36.6z M177.1,36.6c-0.3-0.1-1.6-1.1-1.7,0
			C176.2,36.2,176.8,38,177.1,36.6z M181.7,40.2C182,40.5,181.5,40,181.7,40.2L181.7,40.2z M69.8,42.8
			C69.2,43.1,69.8,43.4,69.8,42.8c1.4-0.6,2.7-1.3,3.8-2.2C71.4,40.4,70.4,41.4,69.8,42.8z M138.1,41.5c3.2,0.4,7.5,1.8,10.1,1.3
			C144.8,41.5,142.7,41.5,138.1,41.5c-8-0.8-16.7-1.2-25.2,0.9C120.5,41.3,129.4,41.5,138.1,41.5z M185.1,41.1
			c-0.3-0.1-1.6-1.1-1.7,0C184.2,40.6,184.8,42.4,185.1,41.1z M122.6,42.8c-9.7,0.9-16.4,2.9-21.4,7.1c6-1.2,12.4-3.4,19.3-4
			c12.9-1,26.4,1.3,36.9,4C150.4,43.6,135.9,41.7,122.6,42.8z M189.3,44.6c0.1,0.9,1.1,0.9,1.7,1.3
			C191.1,44.7,190.3,44.5,189.3,44.6c0-0.1,0-0.3,0-0.4c-0.3-0.3-1.1-0.7-1.3,0C188.3,44.4,188.7,44.6,189.3,44.6z M67.2,44.6
			C67.5,44.9,67.1,44.4,67.2,44.6L67.2,44.6z M62.6,47.7C62,47.9,62.7,48.2,62.6,47.7c1.4-1,3.7-1.1,4.2-3.1
			C64.3,44.4,63.9,46.5,62.6,47.7z M96.6,56.1c-1.1,0.1-1.6,0.6-1.7,1.8c0.6,0,1.1,0,1.7,0C96.6,57.2,96.6,56.7,96.6,56.1
			c2.8-0.4,2.2-4.4,5.9-4c2.2,4.3,9.9,4.8,9.6-2.2c1.2-0.8,2.9-1,5-0.9c-0.1,2.9,3.9,1.5,3.8,4.4c1.4-0.1,2.4-0.7,4.2-0.4
			c-0.5-3.2,2.5-2.7,2.9-4.9c1.8,0,3.6,0,5.5,0c-0.2,2.7,3.1,1.7,2.5,4.9c1.6-0.2,2,0.8,3.8,0.4c2.2-2.2,4.1-4.1,8.8-3.1
			c0.1,1,0.7,1.7,0.4,3.1c1.8,0.2,2.8,1.2,2.9,3.1c2-0.3,2.7,0.7,4.6,0.4c0-2,2.3-1.4,2.5-3.1c1.2,0.5,3.4,0,3.8,1.3
			c0,1,0,2.1,0,3.1c2.5-0.9,0.6,2.9,2.9,2.2c0.4-1.3-1.7-3.3,0.4-4.9c-18.3-10.3-51.1-11.9-70.4-1.8C96.4,54.2,96.7,55,96.6,56.1z
			 M198.1,50.8c-1.2-0.7-2.4-3.7-4.2-2.2C195.8,48.5,196.3,52.1,198.1,50.8z M61.4,49c-0.5-0.1-0.7,0.1-0.8,0.4
			c-2.2-0.1-2.6,1.6-3.4,3.1c-0.6,0.3,0,0.5,0,0c1.5-0.7,2.5-1.8,3.4-3.1C61,49.5,61.3,49.3,61.4,49C62,48.7,61.3,48.5,61.4,49z
			 M127.2,51.6c1.3-0.2,0.9,1.4,2.5,0.9c-0.3-1.8-0.3-1.8,0-3.5c-0.4,0-0.8,0-1.3,0C128.1,49.9,127.8,51,127.2,51.6z M131,52.5
			c1.4,0.1,2-0.9,2.9-1.3c-1.5,0.4-0.4-1.9-1.3-2.2c-0.7,0-1.4,0-2.1,0C130.8,50.1,131.2,51,131,52.5z M157.8,50.8
			C158.1,51.1,157.6,50.6,157.8,50.8L157.8,50.8z M106.2,64c1.3-2.7,3.2-4.9,4.2-7.9c-6.1,1.5-8.6,9.2-15.1,8.8
			c0.8-1.1,2.2-1.5,3.8-1.8c0-3.9,2.1-5.5,2.1-9.3c-3.9-0.4-2.2,8.3-5.5,5.7c-1.4,1.8-2.2,4.2-2.9,6.6c1.6,3.6,4.7,1,7.5,0
			c-0.8,2.7-5,1.8-5.9,4.4c-0.2,1.9,2.3,0.8,2.9,1.8c-0.5,0.6-2.1,0.2-2.1,1.3c11.7-0.3,23-13.7,21-22.5c-1.5,5.3-2.8,10.9-6.7,13.7
			c1.8-3.7,6.5-9,4.2-14.1C112,55.7,110,62.7,106.2,64z M198.9,52.5c-0.1,0.4,0.2,0.4,0.4,0.4c1,1.4,2.3,2.6,3.8,3.5
			c-0.5-1.9-1.8-3.1-3.8-3.5C199.4,52.6,199.1,52.6,198.9,52.5C198.6,51.9,198.4,52.6,198.9,52.5z M146.5,58.3
			c-1.5-1.8-2.6,2.9-0.8,3.1C146,60.4,146,59.1,146.5,58.3c3.5,5,8,8.9,12.6,12.8c1.3-0.6,2.5,2,2.5,0c0.3,0,0.6,0,0.8,0
			c0.4-0.2,0.8-0.4,0.8-0.9c-0.3-1-1.6-1-1.7-2.2c3.1,0.4,4.6-0.8,5.5-2.6c-1.6-1.8-2.9-6.4-5-6.2c0.4,0.1,1.1,2,0.4,1.8
			c-2-0.9-1.2-4.6-3.4-5.3c-1.2,4.9,4,6.6,5.5,10.2c-4.6-0.8-5-8.1-10.1-7.1c-0.2,6.8,5.1,7.8,7.1,12.4c-6.1-2.9-8.3-10.1-12.2-15.4
			c-0.4,2.3,2.2,3.4,1.3,4.9c-2.8-1.8-2-7.3-5.9-7.9c-0.1,1.9-2.4,4.9-0.4,6.2c-0.1-1.3,0.1-2.2,0.8-2.6
			C146,56.5,146.7,56.9,146.5,58.3z M123.4,54.3c-0.4,1.9,0.7,2.2,1.7,2.6c-0.1-1.3-0.1-2.4,1.3-2.2c0.3,1,0.6,2.1,1.7,2.2
			c0.5-0.5,0.5-1.6,0.4-2.6C127.2,53,124.9,53.5,123.4,54.3z M131.8,56.9c2.2,0.6,1.1-2.4,3.4-1.8c0,0.9,0,1.8,0,2.6
			c1.7,0.2,1.7-1.5,2.5-2.2C136.9,52.5,129.9,52.9,131.8,56.9z M142.3,56.5c1.1,0.2,2.1-3.2,0.4-3.1C142.1,54,142.3,55.3,142.3,56.5
			z M84.9,69.3c-1.3-0.4-1.3,0.7-1.7,1.3C84.3,70.8,85,70.5,84.9,69.3c3.6-1.5,2.1-4.7,6.7-4.4c1.6-3,2.9-6.4,2.9-11
			c-4,0.8-6.7,3-9.6,4.9C90.1,60.6,87.3,66.5,84.9,69.3z M119.2,56.5c0.4-1.2-0.7-3.1-1.3-1.8C118.8,54.9,118.1,56.7,119.2,56.5z
			 M118,64c2-1.3,4-2.6,5.5-4.4c-0.2-2.5-2.1-3.1-2.5-5.3C120.6,58,117.1,60.4,118,64z M144,77.7C143.4,78,144,78.2,144,77.7
			c2.6-0.8,2.1-4.8,4.2-6.2c0.3,2.7-1.3,3.3-1.7,5.3c2.3-0.1,2.5-2.4,3.8-3.5c1.4,3.9-4.1,4.2-5.5,6.6c1.3,0.3,1.8-2.5,2.9-0.9
			c-3.6,3.6-7,7.3-13,8.4c2.8,3.2,4.1,8,5.5,12.8c2.2-2.9,5.5-9,10.9-5.7c0.3,1.6-0.3,2.4-0.8,3.1c1.5,0,1.8,1.3,1.7,3.1
			c-0.5,1.1-1.4,1.8-2.9,1.8c-0.7-0.4-1.1-1.2-0.8-2.6c1.3-0.6,2.3,1.3,2.9,0c-2.5-4.2-6.8,0.6-6.3,4.9c6.1,3.4,11.8,7.2,14.7,14.1
			c-0.4,1.5-0.9,2.9-1.7,4c3.4,0,2.4,4.5,2.5,7.9c1.4,0.3,2-0.3,2.9-0.4c0.4-15.2,0.7-33,0.8-47.7c-1.6,0-2.4-0.7-2.9-1.8
			c0.2-1.3,0.7-2.2,1.3-3.1c-11.2-4-17.2-13.6-23.1-23.4c0,3.1-2.7,3.3-2.9,6.2c1.9,1.3,3.3,3,5,4.4c0.2-0.9-0.5-2.9,0.4-3.1
			c1.9,2.8,2.5,7.1,2.9,11.5c0.9-1.3,0.5-3.8,1.3-5.3C147.5,71.9,144.9,74.8,144,77.7z M51.3,58.3c1.4-0.8,2.6-2,3.4-3.5
			C52.7,55,51.9,56.5,51.3,58.3z M100,61.8c2.5-0.1,4.8-5.6,2.5-6.6C101.7,57.5,100.7,59.5,100,61.8z M118.4,58.7
			c0-1.3,0-2.7-1.3-2.6C117.4,57.2,117.1,58.7,118.4,58.7z M161.2,56.9c0.3,0,0.6,0,0.8,0c0-0.3,0-0.6,0-0.9c-0.3,0-0.6,0-0.8,0
			C161.2,56.4,161.2,56.7,161.2,56.9z M104.1,58.7c0.1-0.5,1.7-1.7,0.4-2.2C104.6,57.2,103,58.3,104.1,58.7z M170,66.7
			c0.6-2.3,2.1-0.6,3.8-0.4c0.9-1.6,2.2-2.7,3.4-4c-3.2-1.9-6-4.3-9.6-5.7C166.3,60.3,167.5,65.2,170,66.7z M124.3,59.2
			c2.9-0.2,4.2-0.9,7.5-0.4C130.8,57.1,124.8,57.4,124.3,59.2z M135.2,60c1-1.3-1.2-2-2.9-1.8C132.4,59.7,134.6,59.1,135.2,60z
			 M117.1,60.5c-0.7,0-0.2-1.2-0.8-1.3C115.9,60.1,116.7,61.9,117.1,60.5z M208.1,61.8c-0.5-1.3-0.9-2.6-2.5-2.6
			C205.8,60.7,207.1,61.1,208.1,61.8z M87,61.4c-5.4-4.4-10.2,4.8-15.1,6.6c-1.3,3.1,0.9,5.6,4.2,5.3c-0.6-2.8,1.9,0.3,2.5-1.3
			c-0.6-0.1-0.4-1.1-0.4-1.8c0.7,0.4,1.1,1.2,2.5,0.9c-0.1-2.2-0.1-2.2,1.7-1.8c0.4-1.5-1.5-2.8-0.4-3.5c1.2,0.2,1,1.9,2.1,2.2
			c0-1.2-0.4-2.8,1.3-2.2c0.6-1.6-1.7-2.5-0.8-3.1c1.7-0.3,1,1.9,2.5,1.8C87,63.4,87,62.4,87,61.4z M40,73.3c-2,0.5-3.9,3.6-2.9,5.7
			c3.3-6.9,9.4-13.3,12.6-19C45.6,63.6,42,67.6,40,73.3z M124.7,60.9c-1.8,0.2-3,0.9-3.8,2.2c-7.1,2.8-6.8,18.2,0.4,20.7
			c0.4-0.9,0.7-1.9,1.7-2.2c0.7,1.5,4.4-1.2,6.3-1.3c0-2.1,0-4.1,0-6.2c-2.3,1.1-0.1,7-3.8,6.6c-1.2-0.3-1.7-1.4-2.5-2.2
			c-0.5-0.1-0.7,0.1-0.8,0.4c-7.2-8.6,4.8-19.7,13-13.7c4.6,3,5.4,12.3,0.4,15.4c0.2,1.9-0.9,3.1,0,4.9
			C149.9,80.3,141.9,53.8,124.7,60.9z M146.9,63.1c-0.6-1.4,1.2-2.4,0-3.1C146.5,60.4,146,62.8,146.9,63.1z M115.9,63.1
			c-0.2-0.6,0.5-2.3-0.4-2.2C114.9,61.5,114.8,63.1,115.9,63.1z M148.2,64.9c0.4-0.4,0.9-2.8,0-3.1
			C147.8,62.2,147.3,64.6,148.2,64.9z M114.2,65.3c0.7,0.1,0.8-2.9-0.4-2.2C113.5,63.4,112.7,65.8,114.2,65.3z M149.4,66.2
			c0.6-0.6,0.8-3.1-0.4-3.1C149.3,64,148.5,66,149.4,66.2z M175.4,66.7c0-1.1,1.4-0.1,1.3,0.4c-0.8,0.1-0.3,1.5-0.8,1.8
			c1.9-0.9,1.6,0.4,1.3,2.2c1.1,0.8,4.1-0.1,2.5,2.2c3.5,0.3,3.7-2.9,4.2-5.7C181.5,65.3,175.7,61.3,175.4,66.7z M116.3,65.8
			c0.1-0.5,0.7-1,0-1.3C116.2,65,115.6,65.4,116.3,65.8z M112.1,67.5c1.3,0.6,1.1-2.6,0.4-2.6C112,65.4,112.1,66.5,112.1,67.5z
			 M130.6,67.5c1.4-0.5,1.8-1.3,2.5,0.4c-0.6,1.2-1.5,1.7-2.9,0.9c-0.4,1.1-0.5,2.4-0.4,4c0.4,0.4,2.7,0.9,2.9,0
			c-1-0.3-0.4-2.7,0.8-2.2c1.1,0,0.8,1.5,0.8,2.6c1.3,0,2.5,0,3.8,0c0.1-2.3-0.2-4.2-1.7-4.9c-0.1,1-1.1,0.9-2.1,0.9
			c0-0.6-0.5-0.6-0.4-1.3c0.1-0.9,1.6-0.4,1.7-1.3c-1.8-0.6-2.8-2.1-5.5-1.8C130.1,66,130.1,67,130.6,67.5z M212.7,66.7
			c-1-0.3-1.1-1.5-2.1-1.8C210.6,66,212.1,67.7,212.7,66.7z M90.7,66.2c0.3,0,0.6,0,0.8,0c0.7-1.1-1.4-1.3-1.3-0.4
			C90.6,65.8,90.8,65.8,90.7,66.2z M151.1,68.4c0.3-1.1,1.6-3.3-0.4-3.1C150.9,66.2,150.2,68.2,151.1,68.4z M123.8,66.2
			c1.8,1.8,0.5,5.2-0.4,7.1c3.6,0.5,1.6-4.8,2.1-7.5C124.7,65.7,124.6,66.3,123.8,66.2z M127.2,66.2
			C125.5,65.8,127.1,67.5,127.2,66.2c0.1,0,0.3,0,0.4,0c0.3,0.6,0.5,0,0,0C127.5,65.7,127.2,66,127.2,66.2z M92,67.1
			C92.5,68.8,92.5,65.4,92,67.1L92,67.1z M111.3,69.3c-0.2-0.8,0.5-2.6-0.4-2.6C110.7,67.6,109.9,69,111.3,69.3z M153.2,70.2
			c0.1-0.7-0.1-1.6,0.4-1.8c0,0.9,0,1.8,0,2.6c1.4,0.2,0.7-1.9,1.3-2.6c-1.3-0.1-1.2-1.6-2.5-1.8C151.8,67.4,151.4,70.6,153.2,70.2z
			 M164.5,70.6c1.6-1,2.9-2.2,3.8-4C166,66.9,165.3,68.8,164.5,70.6z M88.6,67.5c-0.4,1.5,1.3,0.7,2.1,0.9
			C90.8,67.1,89.2,66.9,88.6,67.5z M127.2,68.9c0.3,0,0.6,0,0.8,0c0-0.4,0.3-0.5,0.4-0.9c-0.5,0-0.6-0.6-1.3-0.4
			C127.2,68,127.2,68.4,127.2,68.9z M175.4,71.1c0.1-1.6-0.8-4.4-2.1-3.1C174.9,68.1,173.7,71.1,175.4,71.1z M123.8,68.4
			c-0.8,0.1-0.9-0.5-1.7-0.4C121.5,69.2,124,69.2,123.8,68.4z M167.9,70.2c1.7-0.4,3.8-0.4,4.2-2.2
			C169.8,67.8,168.1,68.2,167.9,70.2z M92.8,68.9C93.1,69.2,92.6,68.7,92.8,68.9L92.8,68.9z M100,78.6C99,76,97.9,80,95.8,79
			c0,1.2-0.2,2.6,0.8,2.6C97.2,80.1,98.4,79.2,100,78.6c-1.3,2.5-3.8,3.7-5,6.2c0.1,15.5-0.2,30-0.8,43.3c4.1,2.6-0.8,9.3,1.3,13.7
			c0.7-5.1,1.5-10.2,3.8-13.7c-2.2-0.8-2.3-3.8-2.1-7.1c0.5-0.6,2-0.3,2.5-0.9c-1-5.8,1.7-11.9,0.8-14.6c0.3-0.7,2.1,0.1,1.7-1.3
			c-0.1-6.2,2.9-9.3,3.8-14.6c-1.5-1.3-2.6-3.1-2.5-6.2c1.6-0.1,3.8,0.5,4.2-0.9c0.7,1.6,2.8,1.8,3.4,3.5c-1.1,1.5-2,3.2-4.2,3.5
			c0.2,6.9-1.1,13.5-2.5,19.9c-0.8,3.7-3.5,7.9-2.5,11c1.6-1.2,1-4.8,2.9-5.7c0,0.3,0,0.6,0,0.9c6.1-1.9,20.7,1.2,23.9-5.3
			c-6,0.3-14.7,0.8-19.7,3.5c0.1-0.9-0.1-1.4-0.8-1.3c-1.6,0.2-1.8,1.9-3.4,2.2c1-2.5,3.6-3.3,6.3-4c-0.6-5.3,4.7-4.5,5.9-7.9
			c-1-2.8-3.5-6.3-7.5-4.4c0.5,2.4,2.5-1.5,2.9,1.3c-0.4,0.6-0.6,1.4-1.7,1.3c-1,0.1-1.3-0.7-1.7-1.3c0.9-2.8,0-4.8,1.7-6.6
			c5.2-2.3,8.2,7.7,10.5,7.5c2.7-0.2,4-11.2,5.5-13.2c-8.1-1.5-12.8-6.6-15.5-13.7c1.1-1.4,3.9-3.2,2.9-5.3
			C110.5,73.2,104.7,75.3,100,78.6z M109.6,71.1c-0.2-0.6,0.5-2.3-0.4-2.2C108.6,69.4,108.5,71,109.6,71.1z M86.1,69.7
			c0.9,2,3.9,1.8,6.3,2.2C92.6,69,88.3,68.8,86.1,69.7z M156.1,72.8c-0.1-1.7,1.2-3.2-0.8-3.5C155.4,70.6,154.8,72.7,156.1,72.8z
			 M182.1,75c3.3,2.1,6.1-4.7,2.9-5.7C184.6,71.8,182.5,72.5,182.1,75z M126.8,71.5c0.7-0.7,0.5-2-0.8-1.8
			C125.8,70.8,126,71.4,126.8,71.5z M107.9,72.4c0.9,0.1,0.2-1.6,0.4-2.2c-0.4,0-0.8,0-1.3,0C107.3,71,106.5,72.8,107.9,72.4z
			 M121.3,72c-0.7-1.9,2.3,0.1,1.7-1.8c-1.3,0.3-0.8,0.3-2.1,0C121,70.8,120.8,71.8,121.3,72z M165.8,72.8c0.8,1.6,5.4,1,6.3,0
			c-1-0.3-3,0.6-3.4-0.4c1.2-1,4.2-0.2,4.6-2.2C170.6,71.7,166.5,70,165.8,72.8z M35.4,80.3c-1,0.8-2.4,3.3-1.3,4.9
			c0.2-2.3,1.9-3,2.1-5.3c0.6-0.3,0-0.5,0,0C35.9,80,35.8,80.3,35.4,80.3c0.5-1.8,1.1-3.2,0.4-5.3c0.8-1.1,2.9-0.8,2.9-2.6
			c-3.3,0.7-2.9-2.6-6.3-1.8c-1.3,1.6,1.9,1.3,1.7,3.1c-0.9-0.3-1.2-1.1-2.5-0.9c0,2.7,3,2.1,3.8,4c0.5,2.3-1.2,2.2-2.1,3.1
			c-2.2-1.6-2.9-1.3-5.5-1.3c0.1,1.3-0.9,1.4-0.8,2.6c1.3,1.8,4.6,1.3,4.6,4.4C31.2,86.3,31,87,29.9,87c-2.6-1.2-3-0.9-5.5-0.9
			c0.3,1.6-0.9,1.7-0.8,3.1c1.4,1.7,4.4,1.8,5,4.4c-0.5,0.1-0.4,0.8-0.4,1.3c-2.9,0.2-4.4-0.8-6.3,0.4c-1.8,4.6,4.4,2.5,3.8,7.1
			c-2.5,1.1-6.1-1.2-6.3,2.6c0.4,2.1,4.1,0.7,4.2,3.1c-1.3,3.1-7-1-6.3,4.4c2.1,1.2,5-0.3,5.5,3.1c-1.8,1.7-3.6,0.7-5.9,1.8
			c0,0.9,0,1.8,0,2.6c1,0.8,2.3,1.1,4.2,0.9c0.5,1,1.1,1.8,0.8,3.5c-0.7,0.7-3.1,0.7-3.8,0c-1.4,0.9-1.7,3.5-0.4,4.9
			c1.9-0.6,3.4-0.2,4.6,0.9c-0.3-5.9-0.7-9.8,1.3-15.4c0.3-1.8-1.4-1.5-0.8-3.5c1.9-1.2,2.3-3.9,1.7-6.6c1.7-0.8,2.8-4.2,1.7-6.6
			c2.4-1.3,3.4-4.1,2.9-8.4c2.5-1.3,4.4-4.1,3.4-7.9C33.5,81.3,34.1,80.5,35.4,80.3z M74,103.7c-2.3-5.6-0.3-12.4,1.7-17.2
			c-3.3-2.9,1.4-8.7,0-11.5c-0.3-1.5-2.4-1-3.8-1.3c-0.9-0.9-0.5-3.3-2.5-3.1C67,74.8,60,79.3,58.9,84.3c-1.3,5.8-0.4,14.3-0.4,20.3
			c0,6.5,0.2,12.3,0,17.7c6.9,0.5,13.3,1.4,19.7,0.4C72.8,120.3,69.3,108.8,74,103.7z M158.2,74.2c-0.1-1.5,0.6-3.8-1.3-3.5
			C156.7,72.7,156.4,73.5,158.2,74.2z M106.2,73.3c0.6-0.6,0.6-2.2-0.4-2.2C106,71.7,105.3,73.4,106.2,73.3z M163.7,72.8
			c0.4-0.8,1.5-0.7,1.7-1.8C164.2,70.7,162.4,72,163.7,72.8z M81.1,72.8c0-0.8,1.4-0.3,1.3-1.3C81.3,71,80,72.4,81.1,72.8z M87,72.4
			c0.1,0.6,1,0.4,1.7,0.4c0,0.1,0,0.3,0,0.4c1.4-0.4,2.9,1.4,3.8,0c-0.7-0.7-2.5-0.4-3.8-0.4C88.5,72.2,87.6,72.5,87,72.4
			c-0.3-0.4-0.8-0.7-1.3-0.9C85.5,72.5,86.3,72.4,87,72.4z M159.9,75c-0.2-2.1,0.9-2.9-0.8-3.5C158.7,72.7,158.2,75,159.9,75z
			 M176.3,72.8c0-0.3,0.1-0.5,0.4-0.4c0-0.5-0.1-1-0.8-0.9C175.9,72,175.8,72.8,176.3,72.8z M104.6,74.2c0.3-0.3,1-2.2-0.4-1.8
			C104.2,73.1,104,74,104.6,74.2z M185.1,77.2c2.7,0,3.5-1.9,4.2-4c-0.8,0-0.5-1.2-1.7-0.9C186.9,74.1,185.7,75.5,185.1,77.2z
			 M79.8,73.3C80.1,73.6,79.7,73.1,79.8,73.3L79.8,73.3z M83.6,73.3c0.5,2,5,3.4,5.9,2.2c0,1.4,1.3,1.3,2.5,1.3c0-0.6,0-1.2,0-1.8
			c-1.6,0.9-0.9-0.4-2.1-0.9c-0.2,2.3-1.5-1.4-2.1,0.9C87.8,73,84.4,72.9,83.6,73.3z M177.1,73.3C177.6,75,177.6,71.5,177.1,73.3
			L177.1,73.3z M93.7,73.7C94.3,75.2,94.7,72,93.7,73.7L93.7,73.7z M100.8,75c1,0.8,3.1,0,2.9-1.8C102.4,73.5,100.8,73.4,100.8,75z
			 M161.6,75.9c0-1.2,0.2-2.6-0.8-2.6C161,74.2,160.1,76.3,161.6,75.9z M164.1,75.5c-0.5-1.4-0.2-1.2,0.4-2.2c-0.4,0-0.8,0-1.3,0
			C163,74.4,162.4,75.5,164.1,75.5z M216.9,73.7C217.4,75.5,217.4,72,216.9,73.7L216.9,73.7z M112.9,74.2c0.2,1.7,1.7,4.3,2.9,3.5
			c-0.7-0.9-0.5-2.8-0.8-4C113.9,73.4,114,74.3,112.9,74.2z M121.8,77.2c0.5-1.4-0.3-1.9,0.4-3.5C119.5,73.2,120.6,76.8,121.8,77.2z
			 M123,74.2C124.4,75.5,124.3,72.5,123,74.2L123,74.2z M128,73.7c-0.9,0.3-2.8-0.5-2.9,0.4C125.7,74.8,128,75,128,73.7z
			 M171.6,77.2c-1.5,0.3,0-2.6-1.7-2.2c-0.9,0.1-0.1,2-1.3,1.8c0-0.6,0-1.2,0-1.8c-1.7,0.6-1,0.9-2.5,0c0,0.7,0.2,1.7-0.4,1.8
			c0.5-0.9-0.7-2.1-0.8-0.9c0.8,0.1,0.3,1.5,0.8,1.8C168.2,77.6,169.6,78.3,171.6,77.2c1.7-0.5,4.1-0.4,5-1.8
			c-2.3-2.1-0.9-0.2-3.8-1.3c-0.4,0.8,1.3,1.5,0,1.8c-0.4-0.4-0.1-1.6-1.3-1.3C171.6,75.5,171.6,76.4,171.6,77.2z M97.9,75.9
			c0.7,1.5,3.3-0.9,1.7-1.8C100.2,76,97.2,74.1,97.9,75.9z M133.5,75.9c0-0.6,0.2-1,0.4-1.3c-0.5,0-0.6-0.6-1.3-0.4
			C132.5,75.2,132.8,75.8,133.5,75.9z M134.7,75c0.3,0,0.6,0,0.8,0c0-0.3,0-0.6,0-0.9c-0.3,0-0.6,0-0.8,0
			C134.7,74.5,134.7,74.7,134.7,75z M137.7,76.4c0.3-0.3,1.1-2.6-0.4-2.2C137.5,74.8,136.8,76.4,137.7,76.4z M179.2,75.9
			c0-0.6,0-1.2,0-1.8c-0.4,0-0.8,0-1.3,0C177.9,75.3,178.6,75.5,179.2,75.9z M97.4,76.8c0.1-1.1,0.1-2.1-0.8-2.2
			C96.3,75.7,95.8,76.9,97.4,76.8z M94.1,75.5c-1.8,0.6-2,2.9-2.5,4.9c1,0.8,2.5-0.9,3.8,0C95.2,78.4,94.2,77.4,94.1,75.5
			C94.7,75.2,94,75,94.1,75.5z M199.3,86.5c-2.9-4-4.9-9-9.2-11.5c-0.8,2.6-3.7,2.9-5.9,4c3.4,13.5,5.5,31.8,3.8,46.8
			c3.5,0,7,0,10.5,0C199.2,112,199,99,199.3,86.5z M76.1,84.8c4.4,0.2,4.2-6.7,4.6-9.3c-1.9,0.4-1.3,3.4-2.9,4c-0.9-1.1,1-1.9,0.4-4
			C75.7,76.8,75.5,81.7,76.1,84.8z M77.7,98.4c5.5-0.5,1.7-10.8,5-13.7c0.2,4.5-0.7,7.8-1.3,11.5c3.6,0.5,1.8-4.6,2.9-6.6
			c2,0.9-0.3,3.9,0.8,5.3c1.3,0.2,1.1-1.2,2.1-1.3c-1-5.3-3.8-13.4-2.5-15.9c0.6,1.2,0.1,3.4,1.3,4c0.6-1.5,1,0.9,2.1,0.4
			c-0.1-1.7-2.3-1.1-2.5-2.6c0.8-0.1,0.9,0.5,1.7,0.4c-1-1.9-2.3-1.9,0-2.2c-2.2-0.5-3.2-2.2-5.9-2.2C80.7,83.6,79,90.8,77.7,98.4z
			 M94.9,75.9C95.9,78.2,96,74.4,94.9,75.9L94.9,75.9z M180,75.9C181.1,77.6,180.6,74.5,180,75.9L180,75.9z M130.1,76.4
			C130.7,77.8,131.2,74.6,130.1,76.4L130.1,76.4z M122.6,77.2c0.3,0,0.6,0,0.8,0c0-0.3,0-0.6,0-0.9c-0.3,0-0.6,0-0.8,0
			C122.6,76.7,122.6,77,122.6,77.2z M124.7,77.7c0.6,0.1,0.7,0.7,1.3,0.9c-0.3-1.4,1.2-0.8,0.8-2.2C125.8,76.5,125,76.8,124.7,77.7z
			 M175,78.1c1.3,0,2.8,0.3,2.5-1.3C176.4,77,175.6,77.4,175,78.1z M132.2,77.7C132.5,78,132.1,77.5,132.2,77.7L132.2,77.7z
			 M130.1,78.6C130.7,80,131.2,76.9,130.1,78.6L130.1,78.6z M162.8,80.3c0.6-1.5,0.5,1.5,1.7,0.9c-0.2-2.1,0.5-0.8,1.3-0.4
			c0.3-2.2-0.9-2.9-2.9-2.6C162.6,78.4,161.9,80.2,162.8,80.3z M175.4,97.1c1,0,1.2,0.8,2.5,0.4c0.3-1.1-0.5-3.2,0.4-3.5
			c1.8,0.2-0.3,4.4,1.7,4.4c0.6-2.2-1.4-4.6,0.4-5.3c1.1,2.6,0.7,7,3.4,7.9c-0.4-7.2-1.4-17.7-5-23c-0.3,0-0.6,0-0.8,0
			C176.2,83.5,174.9,89.3,175.4,97.1z M135.2,80.3c0.2-0.7,0.6-1.1,0.8-1.8C134.9,78.1,134.1,80.1,135.2,80.3z M174.2,79.9
			c1.6,0.2,2.6-0.2,2.9-1.3C176.2,79.1,174.4,78.7,174.2,79.9z M127.2,79c-0.3,0.1-0.8,0-0.8,0.4C126.7,79.4,127.2,79.4,127.2,79z
			 M184.2,122.3c-1.3-2.9-0.7-7.8-0.8-11.9c-3,1.4-5,6.1-3.8,10.6c2.7,1.6,5,3.5,6.7,6.2c1.8-17,0.4-34.6-3.8-47.7
			c-0.1-0.3-0.4-0.5-0.8-0.4C185,92.4,185.4,107.2,184.2,122.3z M220.3,79.9C220.2,81.8,221.9,80,220.3,79.9
			C220.7,78.1,219,79.8,220.3,79.9z M132.7,79.9c-0.4-0.1-0.4,0.2-0.4,0.4c-0.6,0.3,0,0.5,0,0C132.6,80.4,132.6,80.2,132.7,79.9
			C134.9,80.4,133.1,78.6,132.7,79.9z M171.2,84.3c0.3-0.9,1.1-2,0.4-2.6c-1.2-0.5-1.6,2.1-2.1,0.9c0.2-0.9,1-1.3,0.8-2.6
			c-1.1,0-2.2,0-3.4,0C167,82.9,168.8,83.9,171.2,84.3z M173.3,82.1c1.4,0,2.2-0.6,2.9-1.3C174.8,80.7,173.7,81.1,173.3,82.1z
			 M92.4,83.4c1.3,0.1,2.5,0,2.9-0.9c-0.7-0.6-1.4-1.2-2.9-0.9C92.4,82.3,92.4,82.8,92.4,83.4z M126.4,83.9c2,0.2,1.8-0.4,3.8,0.9
			c0-1.4-0.5-2.1-0.8-3.1C127.4,81.5,126.2,81.9,126.4,83.9z M132.2,84.8c0.2-2.5,1.9-0.7,2.1,0.4c0.6-0.6,0.6-2.9,0-3.5
			C131.9,80.7,130.3,83.8,132.2,84.8z M87.8,85.2c-0.7,0-1.6-0.2-1.7,0.4c1.4,1.3,0.6,4.9,3.8,4.4c0.6-2.4-2.2-1.3-2.1-3.1
			c0.4,0.3,0.9,0.5,1.7,0.4C89.8,85.7,87.9,86.4,87.8,85.2c0.6,0,1.2,0.1,1.3-0.4c-0.8-1.2-2-2-3.4-2.6C85.6,84,87.4,83.8,87.8,85.2
			z M91.6,84.8c-2.9,2.1,0.6,6.7,0,10.2c-0.5,2.9-2.2,2.5-3.4,4.9c-0.3,6.2-0.6,20.3-0.4,29.1c1.9,0,4.1,0.2,5.5-0.4
			c-0.1-17.2,1.1-25.4,0.8-44.1C92.8,84,92.8,85.1,91.6,84.8c1-1.1-0.2-2.4-1.3-2.6C90.3,83.4,90.1,85,91.6,84.8z M164.5,130.2
			c2.1-0.3,2.9,0.7,5,0.4c0.8-12,0.6-24.9,0.8-36.6c-0.3-1.1-2.7-0.1-2.5-1.8c1.3-0.3,1.5,0.5,2.5,0.4c0-2.4,0-4.7,0-7.1
			c-2.2-0.6-2.8-2.9-5-3.5C165,97.6,164.8,114.9,164.5,130.2z M124.3,85.6c1.3-0.3,1.5,0.5,2.5,0.4c-0.2-1.6-0.7-2.7-1.7-3.5
			C125.8,84,125.4,85,124.3,85.6z M172.9,84.8c1.5-0.1,2.7-0.4,2.5-2.2C174.3,83,173,83.3,172.9,84.8z M122.2,85.2
			c1.2,0.6,1.2-2,0-1.3C122.2,84.3,122.2,84.8,122.2,85.2z M105.8,85.6c0.3,0,0.6,0,0.8,0c0-0.3,0-0.6,0-0.9c-0.3,0-0.6,0-0.8,0
			C105.8,85,105.8,85.3,105.8,85.6z M75.6,102c0.8-2.5,1.4-5.3,2.1-7.9c-1.2-0.5-1.6,2.1-2.1,0.9c0.9-2.7,4.3-7.1,2.5-9.7
			C75.4,88.1,71.6,97.7,75.6,102z M108.3,85.2c-0.3,0.1-0.8,0-0.8,0.4C107.8,85.5,108.3,85.6,108.3,85.2z M127.6,85.6
			c1.1,2.1,2.1-0.9,3.4,1.3c0-0.8,1.4-0.3,1.3-1.3C131.4,85,128.5,85,127.6,85.6z M172.9,87c1.4,0.1,2-0.5,2.1-1.8
			C174,85.4,172.8,85.6,172.9,87z M132.7,87.4c0.4,0,0.8,0,1.3,0c0.4-1.4-0.6-1.4-1.3-1.8C132.7,86.2,132.7,86.8,132.7,87.4z
			 M108.8,86.5C107.7,88,110.2,85.5,108.8,86.5L108.8,86.5z M171.6,86.1C171,92.3,173.2,87.7,171.6,86.1L171.6,86.1z M224,86.1
			c-0.3,0.1-0.8,0-0.8,0.4C223.5,86.4,224,86.5,224,86.1z M52.6,128c9.9,0.4,19.6,1.1,29.8,1.3c-1-9.7-18.4-2.1-25.2-5.7
			c-0.4-15.3,0.9-25.5,0-37.1C50.1,95.4,53.9,113.1,52.6,128z M127.2,88.3c-0.8,2.2,1.4,1.2,1.3,2.6c-0.6,0-1.1,0-1.7,0
			c-0.3,1.8,2-0.7,1.7,1.8c-0.7,0-1.4,0-2.1,0c0.4,2.3,1.1,4.1,2.1,5.7c6.6,1.7,6.2-7.2,4.2-10.6C130.9,88,128.3,87.4,127.2,88.3z
			 M172.9,89.6c1.4,0.3,1.5-0.7,1.7-1.8C173.3,87.6,172.7,88.2,172.9,89.6z M32,88.7c-0.1,0-0.3,0-0.4,0c-0.3,1.1-2.1,3-0.8,4.4
			C31,91.5,32.1,90.7,32,88.7C32.6,88.5,32,88.2,32,88.7z M199.7,127.1c-4.8,1-8.5,0-12.6,0c-0.2,1.4-0.8,2.4-0.8,4
			c6.3-0.3,12.2,0.5,17.6,0c-1.1-13.2,4.4-33.4-3.4-41.5C200.6,103.2,200.4,114.1,199.7,127.1z M89.9,92.7c0.3-1.7-0.9-2-2.1-2.2
			C87.4,92.3,89.2,92,89.9,92.7z M172.5,91.8c1-0.1,1.8-0.5,2.1-1.3C173.5,90.5,172.4,90.6,172.5,91.8z M172.5,93.6
			c0.6,0.1,1.5-0.2,1.7,0.4c-1.3-0.4-1.3,0.7-1.7,1.3c0.6,0,1.1,0,1.7,0c0.6-0.6,0.4-1.9,0.4-3.1C173.3,92,172.9,92.8,172.5,93.6z
			 M90.3,94.9c0.1-1.3-1.9-2.7-2.5-1.8C88.9,93.5,89.1,94.7,90.3,94.9z M227.4,96.2c-0.1-1.7-0.7-2.8-1.7-3.5
			C226.1,94,226,95.9,227.4,96.2z M136.8,93.6c-0.3,0.1-0.8,0-0.8,0.4C136.3,93.9,136.8,94,136.8,93.6z M72.7,110.8
			c2.3-0.1,2-2.7,1.7-4.4c2.9,1.1,0.7-3,2.5-3.1c0,0.7-0.1,1.5,0.8,1.3c0.2-0.8-0.5-2.6,0.4-2.6c0.8,3.1,1-2.1,2.5,0.4
			c-0.1-2.4,0.4-2.2,1.7-1.3c0.7-0.3,0-2.1,0.8-2.2c0,0.8,0.3,1.1,0.8,1.3c0.7-0.6,0-2.6,1.3-2.6c0,0.7-0.1,1.5,0.8,1.3
			c-0.2-2.6,0.6-1.3,1.7-0.9c0.5-1.2-0.8-2.6,0-2.6c1.3-0.2,0.2,2.2,1.7,1.8c0.1-1.9-0.8-2.7-2.1-3.1C81.9,99,73.3,100.7,72.7,110.8
			z M111.3,96.7c0.6,0,1.1,0,1.7,0c-0.5-1.4,0.7-1.1,0.8-1.8c-0.4-0.5-2.3-1.7-2.9-0.4C112.1,95,110.2,96.1,111.3,96.7z M146.9,94.9
			c-0.2,1.1,0.8,1,0.4,2.2c0.7,0,1.4,0,2.1,0c-0.5-1.4,0-1,0-2.6C148.1,94.1,148.2,95.2,146.9,94.9z M143.1,98
			c1.6-0.3,2,0.5,3.4,0.4c-0.3-1.2-0.7-2.2-1.3-3.1C144.3,96,143.7,97,143.1,98z M113.8,98c0.9,1,2.3,0.2,2.9-0.4
			c-0.1-1.1-0.6-1.7-1.7-1.8C115.2,97.2,113.9,97,113.8,98z M136.4,96.2C136.7,96.5,136.2,96,136.4,96.2L136.4,96.2z M177.1,100.2
			c0,0.6,0,1.2,0,1.8c1.6,0.4,0.5-2.1,2.1-1.8c0,1.1-0.8,1.4,0,2.2c1.5,0.7,0.3-1.5,1.3-1.3c0.8,0.5-0.2,2.9,1.7,2.2
			c0-1-0.7-1.3-0.4-2.6c-2.1-1.9-6.7-1.2-7.1-4.9c-0.9-0.2-1.1,0.3-1.7,0.4c1,1.5,0.5,1.3-0.4,2.6c1.4-0.3,2.2,0.4,1.3,1.3
			c1.6,0.5,0.7-1.7,2.1-1.3c-0.3,0.4-0.5,1-0.4,1.8C176.3,100.8,176.5,100.3,177.1,100.2z M103.3,103.3c1.8-0.7,1.9-5.3,1.3-7.1
			C104.4,98.9,102.9,100.1,103.3,103.3z M28.3,99.3c-0.1,0-0.3,0-0.4,0c0.1,0.4-0.2,0.4-0.4,0.4c0,0.3,0,0.6,0,0.9
			C28.3,100.8,28.2,100,28.3,99.3c0.9-0.4,0.7-1.9,1.3-2.6C28,96.4,28.2,98,28.3,99.3z M125.9,97.1
			C126.2,97.4,125.8,96.9,125.9,97.1L125.9,97.1z M125.1,97.6c-0.3,0.1-0.8,0-0.8,0.4C124.6,97.9,125.1,98,125.1,97.6z M45.4,127.6
			c1.3,0.7,5,0.7,6.3,0c-0.4-10,0.6-20.9,0-29.6C47.9,106,45.5,115.6,45.4,127.6z M125.9,98.9c0.7,0,1.5,0.1,1.3-0.9
			c-0.3,0-0.6,0-0.8,0C126.4,98.4,126,98.5,125.9,98.9z M136.8,98c-0.3,0.1-0.8,0-0.8,0.4C136.3,98.3,136.8,98.4,136.8,98z
			 M115.9,100.2c0.8,0.9,2,0.2,2.9,0C119.1,97.1,116.4,99.1,115.9,100.2z M135.2,98.9c-0.1-0.4-1.1-0.5-1.3,0
			C133.6,99.9,135.5,99.8,135.2,98.9z M138.5,98.4c-0.3,0.1-0.8,0-0.8,0.4C138,98.8,138.5,98.9,138.5,98.4z M141.9,100.6
			c0.9,0.3,2.1,1.3,2.9,0.4c0-1.7-1.3-2.1-2.5-2.6C142.5,99.5,141.5,99.4,141.9,100.6z M125.5,99.3C124.1,98,124.3,101,125.5,99.3
			L125.5,99.3z M126.4,100.6c2.8-0.7,1.1,3.5,0.8,5.7c2.9,1.8,4.3-2.1,5.9,0.4c0.5,0,0.6-0.6,1.3-0.4c-0.6-1.7-0.4-3.5-0.8-4.4
			c0.3-0.6,1.6-0.1,1.7-0.9c-1.1-0.2-1.5-1.1-2.5-1.3C131.9,103.7,128.3,99,126.4,100.6z M136.8,100.2c-0.5,0.1-1.2-0.1-1.3,0.4
			C136.1,100.6,136.8,100.7,136.8,100.2z M137.7,101.1c0.4,0,0.8,0,1.3,0c0-0.3,0-0.6,0-0.9c-0.4,0-0.8,0-1.3,0
			C137.7,100.5,137.7,100.8,137.7,101.1z M81.9,107.3c0.7-0.7,0.3-2.6,0.4-4c-2.2,0.6-1.5,4.3-2.5,6.2c-1-1.2-0.6-2.5,0-4
			c-5.9,3.1,2.3,9.5,4.6,12.4c0.1-6.2,1.5-11.1,1.7-17.2C82.7,100.7,84.1,105.9,81.9,107.3z M124.7,101.5
			C125,101.8,124.5,101.3,124.7,101.5L124.7,101.5z M205.2,131.1c2.2,0.8,3.1,0.1,5.5,0.4c0.8-8.9-0.3-23.4-5-30.5
			C205.6,112.1,205.7,122.8,205.2,131.1z M118.8,102C119.1,102.3,118.6,101.8,118.8,102L118.8,102z M171.6,102.8
			c0.2,3.9-0.5,7.1-0.4,10.6c0.1,2.5,0,7.1,2.1,7.9c-1.1-5.5,1.1-10.8,0.8-18.5c-0.7-0.4-1.2-1.1-2.1-1.3
			C172,102.1,171.5,102.1,171.6,102.8z M229.5,103.3c0.1-1-0.1-1.7-0.8-1.8C228.7,102.3,228.9,103,229.5,103.3z M127.2,102
			c-0.3,0.1-0.8,0-0.8,0.4C126.7,102.3,127.2,102.4,127.2,102z M136,102.8c0.7,0,1.1-0.3,1.3-0.9C136.6,102,135.8,101.9,136,102.8z
			 M25.7,106.8c1.7,0.1,2.2-3.3,1.3-4.4C26.4,103.7,26,105.2,25.7,106.8z M138.9,102.4c-0.3,0.1-0.8,0-0.8,0.4
			C138.4,102.8,138.9,102.8,138.9,102.4z M141,104.6c1.3-0.3,1.2,0.8,2.5,0.4c-1.3-1.2-1.1-1.8-2.1-2.6
			C141.6,103.5,140.7,103.4,141,104.6z M173.7,120.1c3-4.3,6.9-7.7,9.2-12.8c-2.7-1-2.7,3-3.8,2.2c0.1-2.1,2.6-4.5,0-5.7
			c-1.2,1.8-0.6,5.6-2.5,6.6c0.1-2.6,1.1-6.2-0.4-7.9c-0.4,0-0.8,0-1.3,0C175.5,109.2,174.2,114.2,173.7,120.1z M183.8,104.6
			c0-1.1-0.1-2.3-1.3-2.2C182.3,103.8,183.1,104.2,183.8,104.6z M120.1,103.3C120.3,103.6,119.9,103.1,120.1,103.3L120.1,103.3z
			 M122.6,103.3C122.9,103.6,122.4,103.1,122.6,103.3L122.6,103.3z M124.7,103.3C125,103.6,124.5,103.1,124.7,103.3L124.7,103.3z
			 M134.7,103.3C133.7,104.8,136.2,102.2,134.7,103.3L134.7,103.3z M143.1,103.3C143.4,103.6,143,103.1,143.1,103.3L143.1,103.3z
			 M123,105.5c-0.1-1.2-0.7-1.9-2.1-1.8C120.9,105.1,122,105.2,123,105.5z M126.8,103.7c-0.3,0.1-0.8,0-0.8,0.4
			C126.3,104.1,126.8,104.2,126.8,103.7z M136.4,104.6c0.7,0,1.1-0.3,1.3-0.9C137,103.8,136.2,103.7,136.4,104.6z M124.7,104.2
			c-0.3,0.1-0.8,0-0.8,0.4C124.2,104.5,124.7,104.6,124.7,104.2z M120.1,106.4c2.4,0.3,0.1-1.3-0.8-1.3
			C119,106,120,105.7,120.1,106.4c-2.1,0.6-1.2-2-2.9-1.8c-2.3,1.4-4.8,2.6-5,6.2c4.3,0.1,8.4,0,11.7-0.9
			C123.8,107.5,120.3,108.7,120.1,106.4z M138.1,105.9c0.8,1.2,3.7-0.8,1.7-1.3C139.7,105.5,138.2,105,138.1,105.9z M135.6,105.5
			c0-0.4-0.7-0.6-0.8,0C135.2,105.5,135.4,106.1,135.6,105.5z M123.8,105.9c-0.3,0.1-0.8,0-0.8,0.4
			C123.3,106.3,123.8,106.4,123.8,105.9z M139.8,107.7c1.2-0.2,2.1-0.8,2.5-1.8C141.1,106.1,140.2,106.7,139.8,107.7z M138.5,109.9
			c2.6,1.5,10,2.2,13,0.4C148.2,105.4,142.4,105.5,138.5,109.9z M124.3,107.3C122.5,106.8,124.2,108.6,124.3,107.3
			c0.3,0,0.6,0,0.8,0c0-0.3,0-0.6,0-0.9C124.4,106.2,124.3,106.7,124.3,107.3z M138.1,106.4c-0.3,0.1-0.8,0-0.8,0.4
			C137.6,106.7,138.1,106.8,138.1,106.4z M84.9,119.6c-0.2,3-0.7,8.1,0.8,9.3c2.2-1.2,1.3-4.8,1.3-7.5c0-5.6,0.1-10.8,0.4-14.1
			c-0.1-0.3-0.4-0.5-0.8-0.4C86.2,110.6,85.1,115.4,84.9,119.6z M123,106.8c-0.3,0.1-0.8,0-0.8,0.4C122.5,107.2,123,107.3,123,106.8
			z M128.5,107.3c-1.1,0.5-2-1.3-2.5,0C126.2,107.6,128.3,108.2,128.5,107.3z M136.8,106.8c-0.3,0.1-0.8,0-0.8,0.4
			C136.3,107.2,136.8,107.3,136.8,106.8z M132.7,108.1c1.2,0.1,2.1-0.1,2.5-0.9C134.3,107.5,132.3,106.6,132.7,108.1z M138.1,108.1
			c0.3,0,0.6,0,0.8,0c0-0.3,0-0.6,0-0.9c-0.3,0-0.6,0-0.8,0C138.1,107.6,138.1,107.9,138.1,108.1z M231.6,109.9
			c-0.2-1.1,0-2.7-1.3-2.6C230.9,108,230.2,110.1,231.6,109.9z M101.2,108.1c0.3,2.6-1.9,5.1-0.4,7.5c1-2.5,0.7-6.3,2.5-7.9
			C102.3,107.6,101.7,107.8,101.2,108.1z M129.3,109.9c0.9-0.3,2.9,0.7,2.5-0.9c-2.1,1.5-1-1.1-2.5-1.3
			C129.6,109.1,129.6,108.6,129.3,109.9z M130.6,108.6c0.4,0,0.8,0,1.3,0c0-0.3,0-0.6,0-0.9c-0.4,0-0.8,0-1.3,0
			C130.6,108,130.6,108.3,130.6,108.6z M22.8,127.1c0,4,0.4,8.3,1.7,11c-0.3-9.8-0.1-22.3,1.3-30C24,113.5,22.8,120.9,22.8,127.1z
			 M128.5,109.5c-0.8-0.8-2.1-1-3.4-1.3C125.1,109.5,127.8,110.3,128.5,109.5z M137.7,108.1c-0.3,0.1-0.8,0-0.8,0.4
			C137.2,108.5,137.7,108.6,137.7,108.1z M132.7,109.9c1.3,0.1,2.5,0,2.9-0.9C134.5,109.2,133.3,109.3,132.7,109.9z M74,116.5
			c3.4,3.6,7.3,6.7,9.6,11.5c0-1.8,1.2-4.6,0-6.2c-0.2,0.6-0.5,0.9-1.3,0.9c0.7-1.3,0.8-5.1-0.8-5.3c-1.2-0.1,0.3,2.7-0.8,2.6
			c0-3.6-0.9-6.1-2.9-7.5c-0.9,1.8-0.4,4.3-0.8,5.7c-1.7-1.3-0.7-6.3-0.4-8.4c-0.5,0-0.6-0.6-1.3-0.4
			C74.4,111.4,73.7,113.5,74,116.5z M136.8,113c1.5,1.3,4.1,1.6,6.3,2.2c0.5-1.1,0.4-2.8,2.5-2.2c-0.2,1.1-1,1.6-1.7,2.2
			c4.2,0.1,7.7-0.4,11.3-0.9c-2.7-4.9-12.8,0.3-17.2-3.1c0-0.1,0-0.3,0-0.4c-1.4-0.6-4.1-0.7-5,0.4
			C134.3,111.9,134.7,113.3,136.8,113z M128,115.2c2.2,0.6,2.5,0.9,5,0.4c0-1.4,0.5-2.1,0.8-3.1C131.4,111.3,127.5,110.2,128,115.2z
			 M120.5,121.4c2,2,4.3,3.7,8,4c1-2.2,0.9-5.5,0.8-8.8c-1.4-0.3-2.7-0.7-2.1-3.1C123.1,114.1,120.6,116.5,120.5,121.4z
			 M231.6,113.9C231.2,116.5,231.8,112.1,231.6,113.9L231.6,113.9z M134.7,114.3c-0.3,2.2-2.2,2.6-4.2,3.1c-0.4,2.9-0.9,5.5-1.3,8.4
			c1,0.3,2.5,2.3,3.8,0.9c-1.1-1.2-2.5-2.1-2.1-4.9c1.6-1.8,4.6-2.2,6.7-3.5c1.2,1.2-0.5,1-0.4,2.2c0.8,1.1,1.7,2.1,3.8,1.8
			c1-1.5,1-4.2,0.4-6.2C139.4,115.5,136.5,113.8,134.7,114.3z M112.9,127.6c3.9-7-2.7-16.4-8-9.7c2.1-0.6,4.7-0.4,6.3,0
			c-0.7,1.4-1,5.1,0.8,4.9c-0.2,0.6,0.5,2.3-0.4,2.2c-0.4-0.6-0.4-1.6-1.3-1.8c0,2.6-2.9,2.3-3.4,4.4
			C108.7,129.3,111.2,128.7,112.9,127.6z M114.6,122.7c2.6-1.1,3.6-3.9,4.2-7.1c-1.9-0.5-1.3,1.5-2.5,1.8c0.1-1-0.1-1.7-0.8-1.8
			c-0.7,2-1.8-0.8-2.5,0.4C114.1,117.7,114.4,120.2,114.6,122.7z M149,117c1.5,3,2,6.9,2.9,9.3c2.7-2.3,6.2-3.8,6.3-8.8
			C156.6,115.2,151.1,115,149,117z M231.6,117c0.3,0,0.6,0,0.8,0c0-0.3,0-0.6,0-0.9c-0.3,0-0.6,0-0.8,0
			C231.6,116.4,231.6,116.7,231.6,117z M144,118.7c0.9,2.2,3.4,2.6,2.9,6.2c0.8,0.7,3.1,0,2.5,2.2c-0.9,0.9-1.6-0.5-2.5-0.9
			c-0.2,1.4-1.9,1.3-1.7,3.1C153.8,133.7,150.7,113.2,144,118.7z M103.7,120.5c1.4,1.1,3.1,3.7,1.3,5.7
			C113.2,126.9,108.4,113.7,103.7,120.5z M235.8,119.6c1,0.1,1.6-0.1,1.7-0.9C236.7,118.8,235.4,118.3,235.8,119.6z M133.1,122.3
			c1.8,0.4,2.1-0.7,2.5-1.8C134.2,120.5,132.8,120.5,133.1,122.3z M142.3,127.6c4.3,1.7,4.9-4.2,2.5-6.6c-0.8,0-1.7,0-2.5,0
			C142,123,143.7,124.9,142.3,127.6z M102.5,124c-0.5,0.7-1.4,0.9-1.3,2.2c2.5,1.2,4.3-1,3.4-4c-1.1-0.8-4.4-1.5-5.9-0.4
			C100,122.6,101.7,122.8,102.5,124z M175.4,124c3.4,2.3,7.5,3.9,10.1,7.1c0.2-1.4-0.8-1.6-0.4-3.1c-1.2-0.1-2.1,0-1.7-2.6
			c-1.6-0.7-0.1,1.9-1.3,1.8c-0.6-0.6-0.4-2.3-0.4-3.5c-1.4-0.3-0.7,1.6-1.7,1.8c0-0.9,0-1.8,0-2.6c-1.7-0.4-0.2,2.5-1.7,2.2
			c0-0.9,0-1.8,0-2.6c-1.3-0.4-0.6,1.5-1.7,1.3c0.1-0.6,0.1-3.2-0.4-1.8C176.9,123.5,175.1,122.7,175.4,124z M170.8,130.2
			c2.1,0.9,6.7,1.4,9.2,0.4c-4-1.9-6.3-5.7-9.2-8.8C170.8,124.6,170.8,127.4,170.8,130.2z M174.6,122.3
			C174.9,122.6,174.4,122.1,174.6,122.3L174.6,122.3z M138.9,124.5c-1,0.9-3.8-0.1-4.6,0.9c1.3,0.4,1.3,0.9,0.8,2.2
			c3.1,0.6,8-0.5,6.7-4.4c-2,0.2-3-0.6-4.6-0.9C136.9,123.9,139.5,122.6,138.9,124.5z M232,134.6c1.3-3.1,1.8-9.8,0-12.4
			C232.5,126.6,231.3,131.5,232,134.6z M99.5,123.2c0.2,1.2-1.6,0.4-1.7,1.3c0.8,0,1.7,0,2.5,0C100.5,123.6,100.3,123.1,99.5,123.2
			C99.4,121.8,97.8,123.6,99.5,123.2z M122.6,135.5c0.1-0.4-0.2-0.4-0.4-0.4c0.2-1.3,1.9-2.3,2.9-1.3c0.1-1.3,0.8-1.8,0.8-3.1
			c-1.6,0.4-2.8,0.7-2.9-1.3c-0.1-2.1,2.4-1.5,2.5-3.5c-2.3-0.2-2.8-2.3-5-2.6c-4.2,5.2-10.4,8.2-12.6,15.4c9.4-2.1,12,6.7,19.7,7.9
			c1.2-5,0.2-10.9-0.8-15.9c-1.4,2.5,0.2,7-2.1,9.3c-0.1-2.2,0.7-3.3,0.4-5.7C123.6,133.9,124.1,135.8,122.6,135.5z M133.5,124.9
			c-0.1-1.1-0.6-1.7-1.7-1.8C132,124.2,132.1,125.2,133.5,124.9z M158.6,124.9C158.9,125.6,159.2,124.9,158.6,124.9
			c0-0.1,0-0.3,0-0.4c-0.3-0.3-2-1-2.1,0C157.6,124.3,157.5,125.3,158.6,124.9z M100.8,125.4C97.2,124.8,99,126.7,100.8,125.4
			L100.8,125.4z M157.8,125.8c-2.7-1.5-4.2,1.2-5.9,2.2c0.9,11.8-2.2,24.1-2.9,34c2.8-4,7.1-6.3,10.9-9.3c-0.4-3.7-0.9-7.3-2.9-9.3
			c0.2,4.4-1.4,6.8-2.5,9.7C153.2,143.9,163.2,135.3,157.8,125.8z M177.1,126.7c-0.1,0.4,0.2,0.4,0.4,0.4c0.1,0.5,0.8,0.4,1.3,0.4
			c-0.1,0.4,0.2,0.4,0.4,0.4c1.8,1.9,3.7,3.8,5.5,5.7c-0.6-3.2-2.8-4.7-5.5-5.7c0.1-0.4-0.2-0.4-0.4-0.4c-0.1-0.5-0.8-0.4-1.3-0.4
			C177.6,126.8,177.3,126.7,177.1,126.7C176.8,126,176.6,126.7,177.1,126.7z M93.2,160.2c0.6-8.2,0.9-14.8,0.8-25.2
			c-3.3,0.2-5.5-0.5-8,0c0.1,8.8-0.1,17.3-0.4,25.6C88.1,160.4,91.5,161.2,93.2,160.2c-0.3,1.9,3.2-0.1,2.5,2.2
			c-1,0.6-3.1-0.1-2.9,1.8c7.5,6.2,14-1.9,13.4-10.6c-0.6-8.6,1.9-19.6,0-25.6c-9.4-4.1-9.2,9-10.5,16.3c1.4,0,1.6,1.3,3.4,0.9
			c0.1-1.8-0.2-4.1,1.3-4.4c-0.2,4.1-0.7,7.8-2.5,10.2c0.8,4.3,8.9,5.2,5.9,10.6c-1.4-2.3-1.7,2.3-3.4,0c-0.1,1.2,0.4,3-0.8,3.1
			c-1.4-1.3-3.5,0.7-4.6-0.4c1.3-0.5,2.1-1.6,4.2-1.3c1.7-4.3,1.3-8.7-2.1-10.6C95.9,155.1,95.6,158.7,93.2,160.2z M124.7,129.3
			c1.7,0,2.4-1,2.9-2.2C125.9,127.1,124.5,127.4,124.7,129.3z M132.2,132c-0.1-2.6-1.6-3.9-3.8-4.4
			C127.8,129.5,129.3,132.4,132.2,132z M137.7,129.8c2.8,0.7,3.6,3.6,6.3,4.4C144.7,129.2,139.9,125.4,137.7,129.8z M145.6,137.3
			c2,1.4,2.3-2.2,3.8-2.6c2.2,2.2-0.5,4.8-2.1,5.7c7.2-0.4,1.3-7.1,3.8-10.2C148,131.2,146.2,133.5,145.6,137.3
			c-4.2-3.1-8.2-8.7-13.8-8.8c0.7,0.8,1.3,1.6,1.3,3.1c-2.4,0.8-1.5,4-2.5,5.3c-0.6-1.6-0.4-4-2.1-4.4c0.9,4.2,0.1,10.2,2.1,13.2
			c3.5-4.2,12.9-10.6,15.9-1.8C146.7,141.2,146.3,139.1,145.6,137.3z M45.9,129.8c2.7-0.8,5.8,1.7,7.1-0.4
			C50.2,129.6,47.8,128.2,45.9,129.8z M233.7,135.5c0.9-1.7,2.7-1.1,4.6-0.9c2.9-2.7-0.2-5.6-4.2-5.7
			C235.6,131.6,232.8,133.7,233.7,135.5z M56.8,130.2C57,130.9,57.3,130.2,56.8,130.2c0-0.1,0-0.3,0-0.4c-0.8,0-1.7,0-2.5,0
			c-0.7,0.7-0.3,2.6-0.4,4c9.7,0.8,23.8,0.5,30.6,0.4c0-1.2,0-2.4,0-3.5c-6.6-0.2-19.9-1.6-26.8,0c5.3-0.3,10.5,0.2,15.1,0.4
			c3.4,0.2,7.7-1.2,10.1,1.3c-6,1.4-11.7,0.5-21,0.4c-2,0-5.5,1.1-6.7-1.3C54.7,130.1,56.5,130.9,56.8,130.2z M92.4,130.7
			c0.7-0.1,2.9,0.1,1.7-0.4c-2.3-0.9-7.2-0.9-8.8,0.4C88,130.6,90.8,130.8,92.4,130.7z M171.6,132.4c-1.3-1.7-7.2-0.9-9.2-0.4
			C164.7,132.9,168.7,132.2,171.6,132.4z M45.4,132.9c1.6,0.5,6.6,1.2,7.5-0.4C50.9,132.3,47.4,131.7,45.4,132.9z M161.2,151.4
			c0.6-5.9,0.8-15.7-0.8-19C158.1,138.9,158.7,145.7,161.2,151.4z M172.9,136c9.4,0.9,21.1,0.1,29.3,0.9c-0.1-1.5,0.3-3.6-0.4-4.4
			c-1.8,0-3.6,0-5.5,0c0.1,2.2,5-0.5,4.6,2.2c-4.3,1.9-10.4,0.7-15.5,0.4c-4-0.2-8.8,1.3-11.3-1.3c1.6-2.3,6.6,0.4,8-1.3
			c-3.1-1-6.1,0.5-8.8-0.4C172.6,132.7,173,134.6,172.9,136z M188.4,132.4C185.7,131.9,187.5,133.8,188.4,132.4L188.4,132.4z
			 M194.3,132.4C191.6,131.9,193.4,133.8,194.3,132.4L194.3,132.4z M195.5,132.4c-0.3,0.1-0.8,0-0.8,0.4
			C195,132.8,195.5,132.9,195.5,132.4z M205.2,132.4C202.5,131.9,204.3,133.8,205.2,132.4L205.2,132.4z M207.3,132.4
			c-0.6,0.1-1.5-0.2-1.7,0.4C206.2,132.8,207.1,133,207.3,132.4z M85.3,133.7c2.5,1,6.8,0.2,10.1,0.4
			C94.4,132,86.8,132.4,85.3,133.7z M23.6,146.1C23.9,146.7,24.2,146.1,23.6,146.1c0.2-1.6-1.5-1.1-1.3-2.6c3.5-2.7-1.4-7.1-0.4-9.7
			c-2.1,1-4-0.5-5.5,0.9c0.1,1,0.7,1.7,0.4,3.1c1.7,1,3-0.1,5,0c2.9,3.7-2.2,4.5-4.6,5.3c-0.2,1.4,0.8,1.6,0.4,3.1
			C20.3,147.3,21.3,145.2,23.6,146.1z M45.9,135.1c-0.2,2.1,3.8-0.1,4.2,1.3c2.2,7.4-2.5,16.6,1.7,21.6c0-8.5,0.6-13.5,0.4-23.4
			C51,134.2,46.3,133.3,45.9,135.1z M53.4,135.1c-0.8,9.4-0.9,17.5-0.8,26.9c9,0.4,21.2,1.6,31.4,0.4c1.6-8.5,1.1-16.8,1.3-26.9
			C74.2,134.9,62.2,134.7,53.4,135.1z M172.1,134.6c-3.4,0.3-7.8-0.6-10.5,0.4C164.2,135.4,170.1,136.4,172.1,134.6z M210.2,135.5
			c-1.5-1-4.9-0.2-7.1-0.4C204,136.8,209.3,136.3,210.2,135.5z M162.8,136.4c-0.6,8.2-0.6,17-0.8,25.6c3-0.2,5.4,0.2,8,0.4
			c0.7-9.2,0.8-16.6,0.8-26C168.8,136.7,165.9,136.2,162.8,136.4z M45.9,137.3c0.9,5.1,1.3,10.7,3.4,14.6c0.9-4,0.2-9.8,0.4-14.6
			C48.2,136.5,47.6,137.3,45.9,137.3z M231.2,143c1-1.8,1.1-4.1,0.4-6.2C231,138.2,230.9,142.3,231.2,143z M172.1,137.3
			c0.2,9.4-2,20.1,0.4,27.4c11.6,0.1,17,0.5,29.8,0.4c0.9-10.1,0.2-17.6,0.8-27.4C191.9,137.9,181.8,137.6,172.1,137.3z
			 M203.9,137.7c0,7.8,0,16.4-0.4,22.5c1.9-0.9,1.6-3.8,1.7-5.3c0.3-4.6-0.4-9.8,0-15.9c1.5-0.5,4.9,1,5-0.9
			C209.8,136.4,205.1,137.3,203.9,137.7z M232.9,148.8c-2.6,1.3-3.8,5.2-1.7,7.9c-2.2,1.3-4.8,4.2-3.4,7.9c-1.5,2.1-3.6,3.5-2.9,7.9
			c-3.4,0.3-3.9,3.4-3.4,6.6c-1,0.9-2.7,0.9-2.9,2.6c3.2-1.4,6.8,3.1,8-1.8c-0.9-1.8-4.4-1-4.2-4c0.3-0.9,1.1-1.2,2.1-1.3
			c2.1,0.4,2.6,2.1,4.6,0.4c1.5-3.3-2.9-3.1-2.9-6.2c0.3-1,1.3-1.3,2.1-1.8c1.4,0,1.4,1.4,2.9,1.3c0.4-0.6,1.1-0.9,1.7-1.3
			c0.7-2.2-1.8-2.4-0.4-4c-1.5-0.5-3.8-0.1-3.4-2.6c1.5-2.6,7.2,0.9,6.7-4.4c-1.1-1.6-4.2-1.1-4.6-3.5c0.2-1.3,0.9-2,2.1-2.2
			c1,1.4,3.4,0.8,4.6,0c0-1,0-2.1,0-3.1c-1.7-1-4.8-0.5-5-3.1c0.3-2.2,2.8-1.9,4.6-1.3c0.2-0.6,0.7-1.1,1.3-1.3
			c0.5-2-0.7-2.2-0.8-3.5c-2.1,0.3-3.4-0.3-4.6-0.9C234.8,141.4,230.1,144.5,232.9,148.8z M108.3,139.9c-0.7,10.8,5.6,17.9,6.3,28.7
			c7.2-0.3,4-21.1,1.7-24.7c0-1.2,1.3-1,1.3-2.2C115.2,140.3,111.8,138.7,108.3,139.9z M205.6,154.5c2.7-3.4,3.4-9.1,4.2-14.6
			c-1.3,0-2.5,0-3.8,0C206.2,145.9,205.7,149.6,205.6,154.5z M136.4,143.5c0.6,0.1,0.4,1.1,0.4,1.8c-4.4,2-3.5,7.6-5,12.8
			c-1,3.4-3.7,5.5-3.8,8.8c3.4,1.4,3.4,6.4,7.5,7.1c1-4.3-3.3-6.8-5-9.7c1.6,0.4,1.9,2.1,3.8,2.2c0.6-10.6,13.1-14.5,9.2-25.6
			C140.5,139.5,137.4,141.2,136.4,143.5z M29.5,162.4c-1.5-5.7-3.2-16.2-5-21.6C25.3,147.3,25.8,157.6,29.5,162.4z M229.9,150.1
			c1.3-0.7,1.8-4.6,0.8-6.2C230.1,145.3,229,148.5,229.9,150.1z M94.9,154.9c1.2-2.5,2.5-4.8,2.5-8.4c-0.9-0.4-1.2-1.3-2.5-1.3
			C94.3,147.5,94.2,152.7,94.9,154.9z M19.9,150.1c-1.2,1.3-0.6,2.8-0.4,4.9c2.7,0.9,3.8-0.8,6.3,0c-1.8-0.8-0.4-4.8-2.1-5.7
			C23.1,150.5,21.2,150.7,19.9,150.1z M158.6,165.1c-1.8,0.7-4.4,3-5.9,2.6c1-1.7,3.1-2.3,5-3.1c0.7-2.3,0.5-6.5,0-8.8
			c-2.9,0-1,4.5-1.7,5.7c-1.7,3.1-7.2,4.1-6.3,8.4c3.1,1.2,4.1-2.1,5.5-1.3c-0.4,2.4-2.6,2.9-5.5,2.6c2.2,4.9,0.8,11.4-0.8,15.9
			c5.6-2,7.6-7.9,11.3-11.9c3.8-0.3,8.7,0.6,11.7-0.4c-2.2-2.1-3.3-5.3-5-7.9C163.4,166.3,160.2,167.9,158.6,165.1
			c3-1.5,3-8.6,2.1-12.8C157.2,154.5,160,160.6,158.6,165.1z M234.5,152.7c-0.5-0.4-1.1-0.6-2.1-0.4
			C231.8,153.6,234.6,153.4,234.5,152.7z M227.8,158.5c1.1-0.7,1.4-2.3,1.7-4c-0.5,0-0.6-0.6-1.3-0.4
			C228.8,155.9,226.6,157.3,227.8,158.5z M22,162.9c2.4,0.5,4.7-0.7,6.3-0.9c-1.4-1.1-2.9-2.1-2.1-4.4
			C23.6,158.5,19.7,159.4,22,162.9z M148.6,166.4c3-1.1,4.4-3.9,7.1-5.3c0.2-1.4-0.8-1.6-0.4-3.1
			C151.9,159.6,148.9,161.6,148.6,166.4z M84.4,163.8c2.4-0.7,7.7,1.6,7.5-1.8C90,161.4,84.1,160.4,84.4,163.8z M224.9,166.9
			c0.7-0.8,2.8-4.1,0.8-4.9C226,163.9,223.7,165.4,224.9,166.9z M32.5,169.5c-0.9-2.3-1-5.4-2.9-6.6
			C30.5,165.1,30.1,168.7,32.5,169.5z M160.7,165.1c3.7-0.2,8.9,0.3,11.3,0c-1.1-3.4-8-0.7-10.9-2.2
			C161.3,163.9,160.4,163.8,160.7,165.1z M55.1,166.9c3.5,0.2,6.6,0.2,6.7-3.1c-2.8,0-5.6,0-8.4,0C53.6,165.2,54.6,165.7,55.1,166.9
			z M62.6,164.2c-0.4,0.9-0.9,1.7-1.3,2.6c2.1,0,4.2,0,6.3,0c0.2-1.1,1.3-1.3,1.3-2.6C66.7,163.5,65.9,164.4,62.6,164.2z
			 M68.9,166.9c2.6,0.7,8.6,1.5,8-2.6C73.6,164.4,68.8,163.1,68.9,166.9z M76.9,166.9c1.7,0.7,4.4,0.3,6.7,0.4
			c-0.1-0.8,0.5-1,0.4-1.8C82.2,163.6,77.3,163.7,76.9,166.9z M38.7,185.4C39,186,39.2,185.3,38.7,185.4c-2.8-2.4-2.8-7.9-6.3-9.7
			c1.4-5-3.6-6.3-3.8-11c-0.7,2-3.4,2-4.6,3.5c-0.3,1.6,0.9,1.7,0.8,3.1c2.7,0.5,3.2-1.4,5.9-0.9c1.8,3.8-2.6,4.1-3.8,6.2
			c1.2,0.2,1.2,1.7,1.7,2.6c2.2,0.5,2.5-0.9,3.8-1.3c1.8,0,2.5,1.2,2.9,2.6c-1.1,0.7-1.2,2.2-3.4,1.8c-0.7,2.1-0.7,2.6,0.4,4.4
			c2.2-0.3,3.2-2,5.5-2.2C38.1,184.9,38.3,185.3,38.7,185.4z M84.4,167.3c1.6,0.3,2-0.5,2.1-1.8C84.9,165.2,84.9,166.5,84.4,167.3z
			 M94.1,167.7c-1.8-0.7-1.4-1.9-2.9-2.2c-4.5-0.9-6.7,6.3-7.5,8.8c3.4,0,6.7,0,10.1,0c1.9,4.5,2.6,10.3,8.8,10.2
			c-1.9-7.6,2.3-13,2.9-17.7C102.2,166.1,98.2,168,94.1,167.7z M170.4,166.9c-0.3,3.6,4.5,1.8,7.1,2.2
			C177.8,164.1,173.6,167.2,170.4,166.9z M104.1,173.5c0.5,3.5-1.3,4.5-0.8,7.9c0.6,0.7,2.1,0.4,3.4,0.4c0,1-0.7,1.3-0.4,2.6
			c13.1-0.5,26.6,0.3,39,1.8c1.9,0.2,1.7-3.5,3.4-2.2c0.2-5.6,1.6-12.1-2.5-15.9c-2.9,0.6-6.2-0.3-10.1,0c-0.6,1.6,2.1,3,1.3,6.2
			c-0.6,0.1-0.7,0.7-1.3,0.9c-7.3-0.4-5.4-10.5-15.5-7.9c-0.1,1.4,0.7,1.9,0.4,3.5c-2.6,2-6.3,8.8-10.5,4.9c0.6-1.9,1.9-3,2.5-4.9
			c-0.5-0.8-1.6-0.9-2.1-1.8c1.4-1.1,3.5,1.1,2.9-2.2C107,163.6,106.2,170.4,104.1,173.5z M185.5,168.2c-0.6-2.6-4.6-1.6-7.5-1.8
			C177.9,169.3,183.7,170.1,185.5,168.2z M187.2,169.1c1.8-0.5,5.5,1,5.9-0.9c-0.4-2.6-4.4-1.5-7.1-1.8
			C185.9,167.8,186.8,168.1,187.2,169.1z M193.9,167.3c0.5,0.1,0.5,0.7,0.4,1.3c1.2,0.2,5.4,1.4,5.9-0.4c0-0.4,0-0.9,0-1.3
			C197.7,167.6,194.9,165.2,193.9,167.3z M114.2,169.9c0.2,3.1-2.3,3.4-2.5,6.2c4.3-1.1,8.7-5.1,8-8.8
			C117.2,167.5,116.7,169.7,114.2,169.9z M170,168.2c-0.3-0.2-1.3-1.8-1.7-0.4C168.6,168,169.6,169.5,170,168.2z M57.6,170.8
			c0.5-1,1.4-1.5,1.7-2.6c-0.6-0.7-2.1-0.4-3.4-0.4C55.9,169.4,56.6,170.3,57.6,170.8z M58,172.6c2.8,0,2.5,0.5,5.5,0.4
			c1-1.6,2.4-2.8,2.9-4.9C62.1,167.3,58.8,167.8,58,172.6z M65.2,172.6c4.8,0.9,8.7,0.6,9.6-4.4C69.4,167.4,66.1,168.7,65.2,172.6z
			 M73.5,173c2.4-0.1,5.3,0.3,7.1-0.4c-0.1-2.2,1.7-2.3,1.7-4.4C77,167.3,74.3,169.2,73.5,173z M81.1,173c2.7,0,2.5-2.9,3.8-4.4
			c-0.6,0-1.1,0-1.7,0C83.1,170.7,81.5,171.2,81.1,173z M172.9,174.4c-0.2-1.8-1.4-5-2.9-4C171.2,171.4,171.6,173.4,172.9,174.4z
			 M175.4,174.8c2.2-0.5,3.1,0.1,5.9,0c-0.3-4.1-4.9-6.1-9.2-4.4C173,172.1,174.1,173.6,175.4,174.8z M180.4,170.8
			c1,0.8,1.8,2,2.1,3.5c1.6,0.2,3.4,0.5,6.3,0.4C189.2,170.6,183.5,168.5,180.4,170.8z M188.4,170.4c0.1,2.2,1.8,2.8,2.5,4.4
			c1.8,0,3.6,0,5.5,0c-0.2-2-1.3-3-2.1-4.4C192,170.9,189.8,169.5,188.4,170.4z M222.4,172.1c0.4-0.8,1-1.3,1.3-2.2
			C222.5,169.7,221.5,171.8,222.4,172.1z M197.6,172.6c0.5-0.7,1.2-1.1,1.3-2.2c-1,0-2,0-2.9,0C195.8,171.8,196.5,172.5,197.6,172.6
			z M36.2,176.6c-1.2-1.2-1.5-3.4-2.9-4.4C33.5,174.2,34.4,177.8,36.2,176.6z M61.4,176.6c0.9-0.4,1.3-1.3,1.3-2.6
			c-1.1,0-2.2,0-3.4,0C59.7,175.1,60,176.4,61.4,176.6z M62.2,178.3c0.6,1.9,3.6,1.2,5.9,1.3c0.7-2.1,2.4-3,2.9-5.3
			C66.3,173.6,61.6,174.9,62.2,178.3z M69.3,179.7c2.2,0,4.5,0,6.7,0c0.5-2.3,2.3-3.1,2.9-5.3C73.2,173.4,70.3,175.6,69.3,179.7z
			 M76.9,179.7c0.8,0,1.7,0,2.5,0c0.5-2,2.3-2.6,2.1-5.3C78.6,174.7,78.3,177.8,76.9,179.7z M176.3,176.1c1,4.1,3.8,6.3,9.6,5.3
			C184.2,177.1,182.4,174.9,176.3,176.1z M184.6,176.1c-0.5,1.5,2.2,3.2,2.5,5.3c1.4,0,2.8,0,4.2,0c0-0.8,0.3-1.1,0.8-1.3
			C192.4,176.1,187.8,175.1,184.6,176.1z M191.8,176.1c0,2.5,3.2,1.9,3.4,0C193.6,176,193.1,175.4,191.8,176.1z M177.5,181.4
			c-0.7-2.5-1.5-4.9-4.2-5.3C172.6,178.5,174.1,182,177.5,181.4z M217.8,180.1c-0.4,0-0.3,0.5-0.4,0.9c-1.3,0.1,0.4,1.8,0,0
			C217.7,181,217.7,180.4,217.8,180.1c1.9,0.2,3.1-2.6,2.1-4C219.2,177.4,218.2,178.5,217.8,180.1z M81.9,177
			c-0.5,1.3-2.4,2.8-1.7,4c4.3,0.2,7.3-0.2,10.5,0.4c3,15.6,25.3,21.8,44.4,19.4c14.3-1.8,24.3-9.8,28.9-18.5c3.4,0,6.7,0,10.1,0
			c-0.2-6.4-8.8-4-14.7-4.4c-1.6,4.4-4.2,7.6-8,9.7c0.2,1.9,2.5,1.5,2.1,4c-1.5,4.6-5.2,1.6-7.1-0.4c-11.3,6.5-34,5.2-44-1.8
			c-2.4,1.4-5.2,1.6-6.3-1.3c2.4-3.4-1.9-6.5-2.9-11C88.6,177,86.2,176.8,81.9,177z M45,191.1c2.5,4.6,5.3,8.8,10.1,11
			c-0.1,0.4,0.2,0.4,0.4,0.4c0.6,2.4,2.8,5.6,5.5,4.4c-2.3-0.9-3.4-3.2-5.5-4.4c0.1-0.4-0.2-0.4-0.4-0.4
			C51.6,198.6,48.7,194.4,45,191.1c-2.9-4.5-5.6-9.1-8.8-13.2C37.9,183.6,41.4,187.4,45,191.1z M66.8,180.5c-0.8,0-1.7,0-2.5,0
			C64,182.5,67.4,183.2,66.8,180.5z M66.4,184.1c1.2,1.2,4,0.8,6.3,0.9c0.4-1.7,1.9-2.1,1.7-4.4C70.2,180.1,66.9,180.6,66.4,184.1z
			 M73.5,184.9c2.4,0.4,3.5-0.4,4.6-1.3c0.2-1.4-0.3-2.1-0.4-3.1C75.2,180.8,74.5,183.1,73.5,184.9z M177.1,187.2c1.4,0,2.8,0,4.2,0
			c-0.1-2.4-2-2.9-2.5-4.9C174.2,181.5,175.5,185.6,177.1,187.2z M183.4,187.2c2.4,0,3.9-0.9,4.6-2.6c0-3.4-4.6-1.9-7.5-2.2
			C180.9,184.5,182.1,185.8,183.4,187.2z M188.4,182.7C189.8,184.1,189.7,181.1,188.4,182.7L188.4,182.7z M207.7,194.2
			c-0.4-0.1-0.4,0.2-0.4,0.4c-0.1,0-0.3,0-0.4,0c-0.8,0.8-1.5,1.7-2.1,2.6c-0.6,0.3,0,0.5,0,0c1.5-0.2,2.4-1,2.5-2.6
			C207.6,194.7,207.7,194.5,207.7,194.2c4.3-2.3,6-7.2,8.8-11C212.8,186,210.7,190.6,207.7,194.2z M217.3,185.8
			c-4.5,1-3.9,7.3-8,8.8c3-0.2,3.2,2.5,6.3,2.2c-0.1-1.1,0.6-1.4,1.3-1.8c0-3-2.4-2.1-2.9-5.3c0.4-0.6,0.6-1.4,1.7-1.3
			c2,0.1,2.5,1.8,5,1.3c2.7-2.8-1.4-4.9-3.4-6.6C217.3,184.1,217.3,184.9,217.3,185.8z M76.5,188c3.4,0.2,7.7-0.5,10.5,0.4
			c8.4,28.3,70.7,28.2,80.1,0.9c3.2-0.3,7.5,0.6,10.1-0.4c-0.8-5-8.8-4.4-13.4-4c-9.5,25-67.3,25.9-73.8-1.3c-3.6,0-7.3,0-10.9,0
			C78.4,185.2,75.4,186.1,76.5,188z M97.4,187.2c1.3,0.2,1.7,1.2,2.1,2.2c1.7-0.2,2-2,2.5-3.5C100.4,184.7,98,185.8,97.4,187.2z
			 M103.7,185.4c-0.3,0.1-0.5,0.4-0.4,0.9c-0.3,0.1-0.8,0-0.8,0.4c9.4,7.2,33.3,7.9,44.4,1.8C133.3,187.2,118.5,188.6,103.7,185.4z
			 M35.4,191.6c1.2,0.1,1.8,0.8,1.7,2.2c1.6,0,1.2-0.5,2.5,0c0.3-2.4,3.4-2,4.6-2.2c-2.4-1-3.2-3.7-5-5.3
			C38.8,189,35.8,188.9,35.4,191.6z M71,187.6c0-0.6,0.2-1,0.4-1.3c-0.6,0.2-2.2-0.5-2.1,0.4C70.2,186.7,69.9,187.9,71,187.6z
			 M71.4,188.5c1.3,2,5.7,5.4,8.8,2.6c-1.3-1-4.6,0.1-5-1.8c-0.7-1.5,0.3-1.5,0.4-3.1C73.3,186,71.6,186.5,71.4,188.5z M177.9,188.5
			c0.8,1.9,0,4.3-2.9,3.5c2.1,4,6.3-1.2,8-3.1C182.1,188,179.2,187.6,177.9,188.5z M149,192c1.3-0.3,0.8-0.3,2.1,0
			c-0.6-1.7,1.2-0.8,0.8-2.2c-0.9-0.4-1.4-1.1-2.9-0.9C148.4,189.5,148.4,191.4,149,192z M81.1,191.1c0.3,1.6,4.9,1,5.9,0.4
			C85.8,190.8,82.6,190.2,81.1,191.1z M172.9,193.8c-0.9,1.2-4.2-0.3-5,0.9c1.2,0.9,1.1,3.3,2.9,3.5c1.5-1.1,3.7-1.4,4.2-3.5
			c-0.9-0.6-1-1.9-1.7-2.6c-2.1,0-4.2,0-6.3,0C166.9,194.8,171.8,192.3,172.9,193.8z M41.3,197.3c0.8,5,5,1.1,6.7-0.4
			c-2.7,0.2-2.2-3-3.8-4C44.4,195.6,41.5,195.1,41.3,197.3z M77.7,193.8c0.3,0,0.6,0,0.8,0c0-0.3,0-0.6,0-0.9c-0.3,0-0.6,0-0.8,0
			C77.7,193.2,77.7,193.5,77.7,193.8z M79,194.7c1.8,1,3,2.7,5.5,3.1c1.1-1.4,2.3-2.6,2.5-4.9C83.9,193.1,79.8,192.1,79,194.7z
			 M85.7,197.7c1.3,0.1,3.1-0.3,3.8,0.4c0.5-1-1-2.9-2.1-3.5C87,195.9,86.1,196.5,85.7,197.7z M163.7,198.6c1.4-0.8,2.5,0.3,4.6,0
			c0.9-1.2-1.4-2.2-1.3-4C164.6,194.6,164.5,197,163.7,198.6z M206.4,198.6c-3.5,0.2-4.2,3.3-5.5,5.7c-3.5,0.4-4.9,3.1-6.3,5.7
			c-3.2,0.8-5.7,2.2-7.1,4.9c-3.5,0.2-5.2,2.2-6.7,4.4c-1.7,0-3.2,0.1-3.8,1.3c3.5-0.6,2.9,3.1,5.5,3.5c0.9-0.3,1.4-0.9,2.1-1.3
			c0-2.3-0.9-2.7-0.8-5.7c0.8-0.2,1.1-1,2.1-0.9c1.3,1.9,4.2,4.6,6.3,1.8c-0.7-1.6-1.3-2.6-2.1-4.9c0.8,0,0.3-1.5,1.3-1.3
			c3.2-0.3,2.8,3.3,6.3,2.6c2-2.5,0.4-3.7-0.4-6.2c0.7-0.6,0.8-1.8,2.5-1.3c1.3-0.2,0.2,2.2,1.7,1.8c2.1,0.4,2.8-0.5,3.8-1.3
			c0.4-2.7-3.9-4.3-1.3-6.6c2.6-0.1,3.1,2,5.5,2.2c0.3-1,1.4-1.2,1.7-2.2c-1.4-1.8-2.7-3.5-3.4-4.9
			C207.1,196.7,207.3,198.3,206.4,198.6z M86.5,199.5c2.9,1.2,6.4,4.1,9.2,4C92.9,201.7,91.2,196.9,86.5,199.5z M157.8,204.4
			C157.2,204.6,157.8,204.9,157.8,204.4c3.6-1.5,7.9-2.3,10.1-5.3C161.9,198.1,160.3,201.7,157.8,204.4z M61,209.7
			c0.2,0.8,0.9,1.1,0.8,2.2c-0.7,1.4-1.9,2.4-2.1,4.4c0.6,0.4,1.6,0.4,1.7,1.3c2.4-0.5,3.6-2.3,5-4c-1.3,0.1-1.8-0.8-3.4-0.4
			C62.4,212,62.7,209.8,61,209.7c-0.6-1.3-2.3-1.4-4.2-1.3c-0.2-5.1-5.3-5-7.1-8.4c-0.4,2.1-2.9,2-2.9,4.4c0.6,0.4,1.3,0.7,1.3,1.8
			c3.1,0.8,3.1-1.7,5-2.2c0.9,0.6,2.1,0.7,2.1,2.2c-1,2.3-2.1,2.6-2.1,5.3c1.6-0.4,1.5,1.1,2.5,1.3C57.8,212.3,57.9,209.4,61,209.7z
			 M201.4,200.8c-2,0.4-2.6,2.2-3.8,3.5C199.5,203.9,200.8,202.7,201.4,200.8C202,200.6,201.4,200.3,201.4,200.8z M189.7,210.5
			c2.6-0.4,6.1-2.1,5.5-4.4C193.5,207.8,191.3,208.9,189.7,210.5z M62.2,208.8c-0.1,0.4,0.2,0.4,0.4,0.4c0.6,1.9,1.9,3,4.2,3.1
			c-0.1,0.4,0.2,0.4,0.4,0.4c0,0.4,0.5,0.3,0.8,0.4c-0.1,0.4,0.2,0.4,0.4,0.4c0,0.4,0.5,0.3,0.8,0.4c0,1.9,1.5,2.2,3.4,2.2
			c0,0.1,0,0.3,0,0.4c0.3,0.3,1.1,0.7,1.3,0c-0.3-0.2-0.7-0.5-1.3-0.4c-0.9-1-1.7-2-3.4-2.2c0-0.4-0.5-0.3-0.8-0.4
			c0.1-0.4-0.2-0.4-0.4-0.4c0-0.4-0.5-0.3-0.8-0.4c0.1-0.4-0.2-0.4-0.4-0.4c-1.4-1.1-2.2-2.6-4.2-3.1
			C62.7,208.8,62.5,208.8,62.2,208.8C62,208.1,61.7,208.8,62.2,208.8z M188.8,211.4c-2,1-4.1,1.9-5.5,3.5c-4.1,2.2-8.3,4.3-12.2,6.6
			c4.6-1.6,9.6-2.8,12.2-6.6C185.8,214.4,188,213.7,188.8,211.4C190.6,211.9,188.9,210.1,188.8,211.4z M66.4,221.1
			c3.3,2.5,4.3-1.4,6.7-2.2c0.9,0.6,2.1,0.7,2.1,2.2c-0.9,1.7-1.3,2.5-0.8,4.9c3.5,1.7,4.4-2.5,6.3-4c-1.1,0-2.2,0-3.4,0
			c-0.9-2.4-3.7-4.8-6.7-3.5c-0.8-1.2-1.4-2.7-2.5-3.5C69,217.6,66.5,218.3,66.4,221.1z M80.7,220.7c0,0.1,0,0.3,0,0.4
			c2.4,0.2,2.4,2.7,5.5,2.2c0.5,1.3,2.2-0.5,0,0C85.1,221.7,82.9,221.2,80.7,220.7c-1.1-1.6-3.7-1.7-5-3.1
			C76.2,219.8,78.3,220.4,80.7,220.7z M161.6,226.9c-2.3,3.8-8.7,0.8-11.3,4.4c-4.5-1.2-7.7,1.4-11.3,1.3c2.2,0.7,1.2,4.6,3.4,5.3
			c3.5-0.5,0.6-7.6,5.9-6.2c1,1.4,0.6,4.3,2.9,4.4c0.4-0.3,0.9-0.5,1.7-0.4c0.6-2,0-2.6,0-4.9c0.9-0.4,1.2-1.3,2.5-1.3
			c1.7,1,1.8,3.7,3.8,4.4c1,0.1,1.3-0.7,2.1-0.9C161.1,230.7,160.2,228.4,161.6,226.9c3.3-0.5,3.6,2.1,4.6,4c1.3,0.6,1.5-0.2,3.4,0
			c0.6-2.7-1.3-2.8-0.8-5.3c0.4-1,1.3-1.6,2.5-1.8c2,0.9,1.6,4.2,4.6,4c3-1.7,0-4,0.8-6.6C170.6,221.9,168.1,226.5,161.6,226.9z
			 M162,225.6c1.1,0,2.2,0,3.4,0c-0.4-1.9,2.1-0.8,2.1-2.2C165.3,223.7,163.3,224.3,162,225.6z M81.9,229.5c3.5,1.9,4.2-2.2,6.3-3.1
			c1.6-0.2,2.5,0.4,2.5,1.8c-0.4,2.2-1,2.4-0.4,4.9c3.9,1.6,3.7-3,6.3-4c4.4,0-0.5,7.3,4.6,6.6c1.6-1.1,1.9-3.6,2.9-5.3
			c-4.6,1.3-5.7-3.6-11.7-2.2c-1-4.5-7.3-1.5-9.6-4C82.6,227.2,80.4,226.8,81.9,229.5z M96.6,226.9
			C96.9,227.5,97.1,226.8,96.6,226.9c0-0.1,0-0.3,0-0.4c-1.8,0.4-3.5-1.6-4.6-0.4C93.3,226.5,94.8,226.9,96.6,226.9z M153.2,228.2
			c4.1,0.5,6.3-1,8.4-2.6C158.7,226.4,155.4,226.7,153.2,228.2z M111.7,230.9c-3.3-1.6-8.9-3-12.6-2.6
			C103.5,228.9,106.7,230.8,111.7,230.9z M151.5,228.6c-1.7,0.1-3.8-0.2-4.2,1.3C149.2,230,150.6,229.6,151.5,228.6
			C153.7,229.1,152,227.3,151.5,228.6z M139.4,231.3c1.9,0.1,3.3-0.4,4.2-1.3C141.8,230.1,140,230,139.4,231.3z M119.2,230.9
			c-1.5,0.3-4.2-0.6-5,0.4C115.4,231.3,118.9,232.9,119.2,230.9z M132.7,231.7c1.6-0.1,3.7,0.3,4.2-0.9
			C135.7,231.1,132.1,231.1,132.7,231.7z M106.7,237c2,0.4,3-0.4,4.2-0.9c-0.8-3.2,1.5-3.1,2.5-4.4c-3.4,0.1-4.8,1.3-7.1-0.4
			C107.2,233.3,105.9,235,106.7,237z M128.9,231.3c-1.4,0.3-3.9-0.6-4.6,0.4C125.5,232.2,128.3,232.7,128.9,231.3z M114.6,232.6
			c0.7,2.2-0.4,3.8,0.8,5.7c5.8,1,2.8-4.6,6.7-5.3c1.8,0.9,1.2,4.3,2.5,5.7c0.8,0,1.7,0,2.5,0c1.2-1.8,0.6-5.5,3.4-5.7
			c2.3,0.5,1.9,3.8,2.9,5.7c1-0.3,2.1-0.4,2.9-0.9c0.3-2.1-0.5-5.2,2.1-5.7c-4.4,2.6-8.8-1.6-12.6,1.8
			C123,229.9,117.8,234.6,114.6,232.6z"/>
		<path class="st2" d="M114.6,21.6c0.3,0,0.6,0,0.8,0c0,0.6,0,1.2,0,1.8c-0.3,0-0.6,0-0.8,0C114.6,22.8,114.6,22.2,114.6,21.6z"/>
		<path class="st2" d="M147.3,22.1c1.4-0.5,1.2,3.2-0.4,2.2C146.6,23,147.5,23.1,147.3,22.1z"/>
		<path class="st2" d="M106.7,23c0.9-0.2,0.8,0.6,0.8,1.3c-0.3-0.1-0.4-0.4-0.8-0.4C106.7,23.5,106.7,23.3,106.7,23z"/>
		<path class="st2" d="M98.7,24.7c0.7-0.2,0.8,0.3,0.8,0.9c-0.4-0.1-0.4,0.2-0.4,0.4C98.6,26,98.8,25.2,98.7,24.7z"/>
		<path class="st2" d="M90.7,26.9c1.4-0.1,1.7,2.1,0,1.8C90.7,28.1,90.7,27.5,90.7,26.9z"/>
		<path class="st2" d="M171.6,29.1c1,0.1,0.1,1.5,0,1.8c-0.3-0.1-0.4-0.4-0.8-0.4c0-0.3,0-0.6,0-0.9
			C171.3,29.7,171.5,29.5,171.6,29.1z"/>
		<path class="st2" d="M83.2,29.6c0.5,0.2,0.9,0.6,0.8,1.3c-0.7,0.1-0.7-0.4-1.3-0.4C82.8,30.1,83.2,30,83.2,29.6z"/>
		<path class="st2" d="M129.7,30.5C130.9,29.2,128.5,31.7,129.7,30.5L129.7,30.5z"/>
		<path class="st2" d="M131,30c0.3,0,0.6,0,0.8,0c0,0.3,0,0.6,0,0.9c-0.3,0-0.6,0-0.8,0C131,30.6,131,30.3,131,30z"/>
		<path class="st2" d="M75.6,33.1c0.5,0.2,0.9,0.6,0.8,1.3c-0.7,0.1-0.7-0.4-1.3-0.4C75.3,33.6,75.6,33.6,75.6,33.1z"/>
		<path class="st2" d="M124.7,34.4c0.1-0.6,1-0.4,1.7-0.4c0.1,0.7-0.4,0.8-0.4,1.3c-0.3,0-0.6,0-0.8,0
			C125.2,34.8,125,34.5,124.7,34.4z"/>
		<path class="st2" d="M136,35.3c-1.5-0.1-3.7,0.4-4.6-0.4C131.8,33.3,135.8,33.9,136,35.3z"/>
		<path class="st2" d="M125.5,35.8c-0.1,1.6-1.5,1.2-2.5,0.9C123.1,35.5,124.4,35.8,125.5,35.8z"/>
		<path class="st2" d="M137.7,36.6c-1.3,1.6-3.6-0.1-6.3,0.4C132.6,35.2,135.7,36.1,137.7,36.6z"/>
		<path class="st2" d="M186.3,35.8c0.3,1.2-0.8,0.9-0.8,1.8C184.5,37.2,185.3,35.3,186.3,35.8z"/>
		<path class="st2" d="M68.1,37.1c0.5,0.2,0.9,0.6,0.8,1.3C68.4,38.2,68.1,37.8,68.1,37.1z"/>
		<path class="st2" d="M123.8,38c0.6,1.4-3.1,1.4-2.5,0C121.6,37.6,123.7,37,123.8,38z"/>
		<path class="st2" d="M137.7,39.3c-1.8-0.2-4.3,0.4-5.5-0.4C133,38,137.7,36.9,137.7,39.3z"/>
		<path class="st2" d="M85.3,42.4c-1.8-0.4-1.5-2.4-3.8-1.3c-0.2,2,1.5,2,1.7,3.5c0.5-0.1,0.4-0.8,0.4-1.3c1.7,0.1,1.9,1.8,2.1,3.5
			c-0.4-0.3-0.9-0.5-1.7-0.4c0.9,1.2,0.8,3.5,2.9,3.5c1.4-1.3,0-2.4,0-4.4c1.8,0.6,2.6,2.3,2.9,4.4c-2.2,0.7-3.5,2.2-5.9,2.6
			c-0.1-2-0.9-3.2-1.7-4.4c-2.2-0.1-3.9,4.8-1.3,5.7c-0.1,1.5-1.2,1.9-2.5,2.2c-0.7-5.1,1.7-11.7-2.1-12.8
			C78,41.1,84.9,36.7,85.3,42.4z M79.8,48.1c0.8,0.1,0.9-0.5,1.7-0.4c-0.2-1.9-0.5-3.6-2.1-4C79.1,45.7,80,46.4,79.8,48.1z"/>
		<path class="st2" d="M193.4,40.2c0.1,1.2-0.2,1.9-1.3,1.8C192.1,40.8,192.3,40,193.4,40.2z"/>
		<path class="st2" d="M61.4,41.9c0.3,0,0.6,0,0.8,0c0,0.3,0,0.6,0,0.9c-0.3,0-0.6,0-0.8,0C61.4,42.5,61.4,42.2,61.4,41.9z"/>
		<path class="st2" d="M133.1,44.6c3.8-0.6,11.2-1.2,13,1.8C141.8,45.7,137.1,45.5,133.1,44.6z"/>
		<path class="st2" d="M118,44.6c0,2.3-3.7,0.9-5,1.8C113.2,44.3,115.7,44.5,118,44.6z"/>
		<path class="st2" d="M185.1,46.8c0,1.7-0.9,2.6-2.5,2.6c-0.2-1.4,0.8-1.6,0.4-3.1c-3.4,0-0.5,4.1-1.3,6.6
			c-1.3,3.6-5.3,4.3-7.5,1.3c0.4-1.6,0.7-3.4,2.5-3.5c0.3,1.7-0.5,2.1-0.4,3.5c0.5-0.1,0.7,0.1,0.8,0.4c4-0.6-1.3-13.2,6.3-10.2
			C183.8,44.8,183.7,46.6,185.1,46.8z"/>
		<path class="st2" d="M198.9,44.6c1.9-0.1,0.3,1.8,0,2.2C197.7,46.4,199.1,45.4,198.9,44.6z"/>
		<path class="st2" d="M72.7,49.4c-1.6,0.1-1.6-1.6-3.4-1.3c2,3.5,4,7,7.1,9.3c-0.1,1.7-2.2,1.3-2.5,2.6c-1.6-3.9-4.5-6.5-6.7-9.7
			c-1.8,0.6,0,2.3,0,3.5c-1.5-0.2-1.9-1.5-2.5-2.6C66,48.4,71.6,43.6,72.7,49.4z"/>
		<path class="st2" d="M55.1,46.8c0.6,0.4,1.6,0.4,1.3,1.8C55.2,48.7,55,47.9,55.1,46.8z"/>
		<path class="st2" d="M122.6,48.1c1.3-0.1,1.4,1.1,1.7,2.2c-0.5,0.4-1.1,0.6-2.1,0.4C122.1,49.7,122.1,48.6,122.6,48.1z"/>
		<path class="st2" d="M138.1,48.6c1.5-0.1,2.2,0.6,2.1,2.2c-0.5,0.5-1.5,0.5-2.5,0.4C137.5,49.5,137.2,49.6,138.1,48.6z"/>
		<path class="st2" d="M188.8,49c1.5,0.2,2.1,1.3,2.9,2.2c-2.6,3.2-6,5.5-7.5,9.7c-1.6,0-2.4-0.7-2.9-1.8
			C184.1,56.1,187.4,53.6,188.8,49z"/>
		<path class="st2" d="M107.1,50.3c0.6,0,1.1,0,1.7,0c0.6,0.6,0.6,2.5,0,3.1c-0.6,0-1.1,0-1.7,0C106.2,52.6,106.9,51.3,107.1,50.3z"
			/>
		<path class="st2" d="M205.2,50.3c1,0.3,0.2,2.2-0.8,1.8C204,50.9,205.2,51.2,205.2,50.3z"/>
		<path class="st2" d="M153.6,52.1c1.3,0.1,1.8,1,1.7,2.6C153.1,55.9,152.1,53.4,153.6,52.1z"/>
		<path class="st2" d="M48.4,53c0.1-1.1,1.4-0.1,1.7,0C50,54.1,48.6,53.1,48.4,53z"/>
		<path class="st2" d="M63.1,56.9c-1.2,0-3.4-1.3-3.8,0.4c2.8,2.8,11.7,0,8.8,7.9c-1.1,0.1-2,0.6-2.5,1.3c-1.4-0.6-2.8-1.2-2.9-3.1
			c1.5,0.1,3,1.8,4.6,0.4c-0.6-5.4-10.8,0.8-9.6-7.1C59.1,55,62.4,52.9,63.1,56.9z"/>
		<path class="st2" d="M198.9,58.3c-0.3,1.3-0.9,2.3-2.5,2.2c-0.3-1.8,1.4-1.5,0.8-3.5c-4.2,1.1-7,3.5-8,7.9c2.3-0.2,3.5-1.6,3.8-4
			c1.3,0.2,2.1,1.1,2.5,2.2c-0.9,1.9-3,2.4-4.2,4c-1.5-0.5-2.5-1.5-3.8-2.2C187.1,58.6,195.8,51.2,198.9,58.3z"/>
		<path class="st2" d="M210.6,56.5c1,0.3,0.2,2.2-0.8,1.8C210,57.6,210.4,57.2,210.6,56.5z"/>
		<path class="st2" d="M42.9,58.7c0.6,0.2,0.7,0.8,1.3,0.9C44,60.7,42.6,59.6,42.9,58.7z"/>
		<path class="st2" d="M124.7,60.9c2.3,2.1,4.4-1.2,5.9,0.9c0,0.6-0.5,0.6-0.4,1.3C128.4,62.7,122.3,65.5,124.7,60.9z"/>
		<path class="st2" d="M53,61.4c2.4,3.9,9,5.4,8,11.5c-5.4,4.1-7.7-4.2-12.6-4.9c0-1.9,1.1-2.6,2.5-3.1c2,3.3,4.9,5.8,8.4,7.5
			c0.5-0.1,0.3-0.9,0.8-0.9c-1.8-3.7-4.7-6.3-8.4-7.9C52.1,62.8,52.7,62.3,53,61.4z"/>
		<path class="st2" d="M135.2,65.3c-0.1-1.3-1.3-1.6-2.1-2.2c0.4-0.4,0.1-1.6,1.3-1.3c1,1.2,2.8,2.3,3.8,2.2
			C138.4,66.5,136.6,65.5,135.2,65.3z"/>
		<path class="st2" d="M202.7,62.2c1.7,0.2,1.9,1.8,2.9,2.6c-3.5,2.3-7.3,4.4-9.2,8.4c-1.4-0.5-2.5-1.2-2.5-3.1
			C197.1,67.9,200.9,66.2,202.7,62.2z"/>
		<path class="st2" d="M215.7,62.7c1,0.2,0,1.7-0.8,1.3C214.6,63,215.6,63.4,215.7,62.7z"/>
		<path class="st2" d="M120.9,63.1c1.4,0,1.1,1.7,1.7,2.6c-1,0.6-1.7-1.3-2.1,0c1.4,0.6-0.9,3.4-1.3,4.9c-0.3-0.6-1.6-0.1-1.7-0.9
			c0.2-1.2,0.2-2.4,0.8-3.1c0.6-0.1,1.5,0.2,1.7-0.4C118,65.9,121.1,64.4,120.9,63.1z"/>
		<path class="st2" d="M123,64C122.8,63.8,123.3,64.3,123,64L123,64z"/>
		<path class="st2" d="M138.9,65.3c1.5,0.7-0.2,1.6,0,2.6c-1.1,0.1-1.4-0.6-1.3-1.8C138,65.8,138.8,66,138.9,65.3z"/>
		<path class="st2" d="M37.5,66.2c-0.2-0.9,1.9-0.6,1.3,0.4c-0.3,0-0.6,0-0.8,0C38,66.3,37.7,66.2,37.5,66.2z"/>
		<path class="st2" d="M101.6,68c-0.9,1.4-2.3,2.3-4.6,2.2C98.2,69.1,99.5,68.1,101.6,68z"/>
		<path class="st2" d="M139.8,68.4C140.3,66.7,140.3,70.2,139.8,68.4L139.8,68.4z"/>
		<path class="st2" d="M208.1,68.4c1.8-0.1,1.5,2,2.5,2.6c-3.3,2.3-6.6,4.5-9.6,7.1c1.1,1.9,2.4-0.5,4.2-0.4
			c0.8,1.5-1.9,2.6-3.4,3.1c-1.4-1.4-3-2.4-3.4-4.9C202.3,74,206.2,72.3,208.1,68.4z"/>
		<path class="st2" d="M141.5,68.9c0,0.6-0.1,1.2,0.4,1.3c-0.4,1.5-0.8,0.2-2.1,0.4c0-0.4,0-0.9,0-1.3
			C140.5,69.4,140.7,68.8,141.5,68.9z"/>
		<path class="st2" d="M220.3,69.3c1.8-0.2,0.6,2.5-0.8,1.8C219.4,70.2,220.6,70.5,220.3,69.3z"/>
		<path class="st2" d="M117.6,72.4C117.4,72.2,117.8,72.7,117.6,72.4L117.6,72.4z"/>
		<path class="st2" d="M47.5,75.5c-1.7-0.2-2.5-2.3-3.8-0.4c1.7,3.6,4.8,5.5,9.2,6.2c-0.1-2.6-2.3-2.9-4.2-3.5
			c0-1.3,0.9-1.7,1.3-2.6c2.1,0.8,3.1,2.9,5,4c0.2,8.5-12.7,2.6-12.6-2.6C42.6,74.6,45.2,70.1,47.5,75.5z"/>
		<path class="st2" d="M140.2,72.8c1-0.1,1.6,0.1,2.1,0.4c0.2,1.7-0.7,2.2-0.4,4c-1.2-0.4-2.1-0.6-2.5-0.9c0.1-1.6,0.6-1.1,1.7-0.9
			C141.2,74.1,139.8,74.5,140.2,72.8z"/>
		<path class="st2" d="M118.8,73.3c0,2.9,0.9,5.8,2.9,7.1c-0.1,1.1-0.6,1.7-1.7,1.8c0-1.5-0.7-2.2-2.1-2.2c0.2-2.5,0-4-1.3-5.7
			C117.1,73.5,117.8,73.2,118.8,73.3z"/>
		<path class="st2" d="M138.5,79c0.2-0.7,0.6-1.1,0.8-1.8c0.6,0.2,1.1,0.7,1.7,0.9C140.5,78.8,139.6,80.1,138.5,79z"/>
		<path class="st2" d="M224.9,77.2c1,0.2,0,1.7-0.8,1.3C223.8,77.6,224.8,77.9,224.9,77.2z"/>
		<path class="st2" d="M104.6,79c-1.2,0.4-1.1-0.6-2.1-0.4C102.5,77.3,105,77.4,104.6,79z"/>
		<path class="st2" d="M214.4,77.7c1.1,0.8,2,1.7,2.1,3.5c-4.4,0.3-6.4,2.9-9.6,4.4c0.8,1.3,2.6-0.2,3.8,0c-1.5,4.1-6.2,2.3-7.1-0.9
			C206.7,81.9,212,81.4,214.4,77.7z"/>
		<path class="st2" d="M155.3,78.6c0.5-0.1,0.7,0.1,0.8,0.4c-0.9,3.3-2.4,6.1-5.5,7.1C152.7,84.1,153.7,81,155.3,78.6z"/>
		<path class="st2" d="M122.2,79c0.7,0.6,1.6,0.9,1.7,2.2C123.1,80.7,122.2,80.3,122.2,79z"/>
		<path class="st2" d="M138.5,79c-0.3,1.5,1.7,0.6,1.3,2.2c-0.6,0-1.1,0-1.7,0c0.1-0.4-0.2-0.4-0.4-0.4
			C137.8,80,137.3,78.6,138.5,79z"/>
		<path class="st2" d="M29.1,80.3c1.1-0.1,2.1-0.1,1.7,1.3C29.7,81.8,29,81.5,29.1,80.3z"/>
		<path class="st2" d="M137.7,80.8c-0.1,0.4,0.2,0.4,0.4,0.4c0.1,0.6,0.6,0.8,0.4,1.8c-1.3,0.2-1.6-0.6-2.5-0.9
			c-0.3-1.2,0.8-0.9,0.8-1.8C137.3,80.3,137.3,80.7,137.7,80.8z"/>
		<path class="st2" d="M38.7,81.7c3.1,2.9,8.4,3.5,10.9,7.1c0,2.3-1.9,2.7-2.9,4c-3.6-1.2-6.3-3.4-10.5-4c-0.2-1.6,0.5-2.1,0.8-3.1
			c3.3,1.6,6.6,3.3,10.1,4.9c0.3-0.1,0.4-0.4,0.8-0.4c-1.2-4.1-7.1-4.9-10.1-5.7C37.8,83,38.9,83,38.7,81.7z"/>
		<path class="st2" d="M156.1,82.5c1.7,2.5-2.2,3-2.5,4.9C151.4,85.7,155.7,84.3,156.1,82.5z"/>
		<path class="st2" d="M97,83.9c1.6,1.4,0.8,5.4,1.3,7.9C96.2,90.8,97.1,85.7,97,83.9z"/>
		<path class="st2" d="M229.1,84.8c-0.1,0.8-0.7,1-1.7,0.9C227.5,84.9,228.1,84.6,229.1,84.8z"/>
		<path class="st2" d="M157.4,85.6c0.5-0.1,0.7,0.1,0.8,0.4c-0.6,2.4-2,3.8-2.5,6.2C154.6,90.1,156.5,87.2,157.4,85.6z"/>
		<path class="st2" d="M218.6,85.6c1,0.4,1.4,1.5,1.3,3.1c-4.1,0.7-6.9,2.7-10.1,4.4c3.5,3.3,9.6-4.5,11.7-1.3
			c-3.6,1.6-7.1,3.4-11.7,4C204.5,89.8,215.8,88.6,218.6,85.6z"/>
		<path class="st2" d="M24.9,87.4c1.3-0.2,1.6,0.6,2.5,0.9C27.2,89.9,24.7,88.9,24.9,87.4z"/>
		<path class="st2" d="M159.9,87.8c1.3,3.9-0.5,12.1-2.1,15.9C158,97.9,158.1,92,159.9,87.8z"/>
		<path class="st2" d="M132.7,90c-0.1,0.8-0.7,1-1.7,0.9C130.6,89.6,131.9,90.2,132.7,90z"/>
		<path class="st2" d="M132.2,92.7c-0.9,0.2-1.1-0.3-1.7-0.4C130.6,91,132.5,91.2,132.2,92.7z"/>
		<path class="st2" d="M230.3,92.7C231.6,91.1,231.7,94,230.3,92.7L230.3,92.7z"/>
		<path class="st2" d="M129.7,93.6c0.8-0.2,0.6,2-0.4,1.3c0-0.3,0-0.6,0-0.9C129.7,94.1,129.7,93.8,129.7,93.6z"/>
		<path class="st2" d="M46.3,96.2c-0.1,1.4-0.9,2-1.3,3.1c-1.3-0.7-2.9-1.5-4.2-0.9c-0.5,3,1.5,3.4,3.4,4c-0.2,0.8-0.2,1.8-0.8,2.2
			c-3.3-3.2-8.2-4.6-10.5-8.8C37,94.6,43,96.4,46.3,96.2z M39.6,99.8c0-0.6,0.2-1,0.4-1.3c-0.4-0.4-2.7-0.9-2.9,0
			C38.2,98.6,38.3,99.8,39.6,99.8z"/>
		<path class="st2" d="M130.6,95.8c-0.1,1-1.1,1-1.7,0.4C129,95.2,130,95.2,130.6,95.8z"/>
		<path class="st2" d="M22.4,96.2c1.2-0.1,2.3-0.1,2.1,1.3C23.3,97.6,22.2,97.6,22.4,96.2z"/>
		<path class="st2" d="M222.8,96.2c1.3,0,1.2,1.3,1.3,2.6c-2.5,0.8-4,2.5-6.3,3.5c2.8,1.9,5-0.2,8.4,1.3c-0.2,1.4,0.8,1.4,0,2.2
			c-4.5-1.2-8.6,1.4-13,1.8c0.3-1.2-0.6-1.1-0.4-2.2c2.7,0.3,4.1-0.7,6.3-0.9c-1.5-0.8-3.6-0.9-5.9-0.9c0.6-1.7,2.5-2.1,3.8-3.1
			c-1.3-0.9-4.4,0.1-4.6,1.8c-0.9-0.4-1.3-1.3-1.3-2.6C215.4,99,219.8,98.4,222.8,96.2z"/>
		<path class="st2" d="M177.1,100.2c0-0.2,0.3-0.5,0.4,0C177.4,100.2,177.2,100.2,177.1,100.2z"/>
		<path class="st2" d="M233.7,99.8c0.3,0,0.6,0,0.8,0c0.2,0.9-0.6,0.8-1.3,0.9C233.4,100.3,233.7,100.2,233.7,99.8z"/>
		<path class="st2" d="M22.4,104.6c-0.1,0.6-1,0.4-1.7,0.4C20.8,104,21.8,104,22.4,104.6z"/>
		<path class="st2" d="M118.4,107.3c-0.4,0.8-0.8,1.5-2.1,1.3c-0.2-0.4-0.4-0.7-0.4-1.3C116.4,106.7,117.9,106.7,118.4,107.3z"/>
		<path class="st2" d="M37.1,110.8c0.2,1.7-1.9,2.3-2.9,1.3C34,109.7,36,109.8,37.1,110.8z"/>
		<path class="st2" d="M19,111.2c-0.1-0.7,2.3-0.6,1.3,0.4C20.5,111.5,19,111.2,19,111.2z"/>
		<path class="st2" d="M122.2,111.2c0.4,0,0.8,0,1.3,0c0,0.4,0,0.9,0,1.3c-0.4,0-0.8,0-1.3,0C122.2,112.1,122.2,111.7,122.2,111.2z"
			/>
		<path class="st2" d="M138.1,111.2c0,0.9,1.1,0.6,0.8,1.8c-0.7,0-1.4,0-2.1,0C136.7,111.8,136.7,110.8,138.1,111.2z"/>
		<path class="st2" d="M118,113.4c-0.8,0-1.7,0-2.5,0C115.4,112.1,118.3,111.5,118,113.4z"/>
		<path class="st2" d="M220.3,112.1c1-0.1,2-0.1,2.5,0.4c-0.1,1-0.4,1.9-1.3,2.2c-1.1-0.1-1.6-0.6-1.7-1.8
			C220.3,113,220.2,112.5,220.3,112.1z"/>
		<path class="st2" d="M130.1,112.6c1.3,0.1,1.8,1,1.7,2.6c-0.5-0.4-1.1-0.6-2.1-0.4C129.4,113.5,130.3,113.6,130.1,112.6z"/>
		<path class="st2" d="M151.5,112.6c0,0.6,0,1.2,0,1.8c-0.7,0-1.4,0-2.1,0c0-0.4,0-0.9,0-1.3C149.9,112.6,150.5,112.4,151.5,112.6z"
			/>
		<path class="st2" d="M19.9,118.3C18.6,119.9,18.5,117,19.9,118.3L19.9,118.3z"/>
		<path class="st2" d="M228.2,119.6c0.3,1,0.8,2.7,0,3.5c-4.2-0.8-7.7-0.5-11.3,0.4c2.8,2.7,9.4,1.2,11.7,1.3c0,0.9,0,1.8,0,2.6
			c-3.4-1.9-10.7,0.4-13-2.6C214.8,117.8,224.6,121.9,228.2,119.6z"/>
		<path class="st2" d="M146.9,120.1c1.5-0.2,1.8,1.1,2.1,2.2C148.1,123,146.4,122,146.9,120.1z"/>
		<path class="st2" d="M32,123.2c-0.4,1-1.4,1.4-2.9,1.3c0,0.6,0,1.2,0,1.8c0.4,1,2.6,0.2,3.8,0.4c-0.2-0.9-1.6-0.3-1.3-1.8
			c1.3,0,2.5,0,3.8,0c0.8,0.9-0.2,0.9-0.4,1.8c1.3,0,2.5,0,3.8,0c0-2.8-2.9-2.5-4.6-3.5c0.9-1.8,5.1-0.7,6.3,0
			c-0.2,2.8-0.5,3.2-0.4,6.6c-0.9,0.7-2-1.1-4.2-0.4c-2.1,2.3,0.8,4.3,2.5,5.3c0.9-0.1,0.8-1.2,1.3-1.8c1.5,0.2,0.6,2.9,0.8,4.4
			c-4.3-1.6-7.6-6.2-13-5.3c0.1-4.7,0.3-4.5,0-8.8C28.6,121.9,30.6,122.4,32,123.2z M34.1,131.5c0-0.7,0-1.5,0-2.2
			c-1.4,0.3-3.9-0.6-4.6,0.4C31.4,130,32,131.6,34.1,131.5z"/>
		<path class="st2" d="M238.3,122.7c0,1.2-2,1-2.5,0.4C236.1,122.3,237.6,122,238.3,122.7z"/>
		<path class="st2" d="M18.2,126.7c0.4,0,0.8,0,1.3,0c0,0.3,0,0.6,0,0.9c-0.4,0-0.8,0-1.3,0C18.2,127.3,18.2,127,18.2,126.7z"/>
		<path class="st2" d="M100.4,128.9c1.6-0.4,1.5,2,0.8,2.6C100.1,131.5,100.4,130.1,100.4,128.9z"/>
		<path class="st2" d="M153.6,129.3c0.7-0.1,0.7,0.4,1.3,0.4c0.3,1.2-0.6,1.1-0.4,2.2C153.4,131.9,153.6,130.5,153.6,129.3z"/>
		<path class="st2" d="M215.7,129.3c4.5,1.4,9.1,1.6,13,0c0,4-3.3,4.5-6.3,5.3c0.5,1.7,4.2,0.8,5.5,0.4c0.5,0.5,0.5,1.6,0.4,2.6
			c-3.9-1.1-8.7-1.1-12.6-2.2c1.7-1.4,4.2-2,6.3-3.1c-1.8-1-4.1-0.9-6.3-0.4C215.2,130.6,215.6,131,215.7,129.3z"/>
		<path class="st2" d="M103.7,129.8c0.7-0.1,0.7,0.4,1.3,0.4c0.3,1.2-0.6,1.1-0.4,2.2C103.6,132.2,102.8,130.7,103.7,129.8z"/>
		<path class="st2" d="M145.6,137.3c0.5-3.7,2.3-6.1,5.5-7.1c-2.5,3.1,3.5,9.8-3.8,10.2c1.6-0.9,4.3-3.5,2.1-5.7
			C147.9,135.1,147.6,138.7,145.6,137.3z"/>
		<path class="st2" d="M156.5,131.1c1.7-0.5,1.7,3.1,0,2.6C155.7,132.9,156.4,132.1,156.5,131.1z"/>
		<path class="st2" d="M238.3,131.5c-0.1,0.8-0.7,1-1.7,0.9C236.4,131,237.7,130.8,238.3,131.5z"/>
		<path class="st2" d="M101.6,134.2c0.7-0.1,0.7,0.4,1.3,0.4c0,1.1-0.1,2.3-1.3,2.2C101.6,135.2,101.2,135.6,101.6,134.2z"/>
		<path class="st2" d="M122.2,135.1c-0.1,0.4,0.2,0.4,0.4,0.4C123,139,118.8,134.6,122.2,135.1z"/>
		<path class="st2" d="M153.6,135.1c1.1,0.1,1.6,0.6,1.7,1.8c-0.4,0.2-0.8,0.4-0.8,0.9C153.6,137.4,152.8,135.9,153.6,135.1z"/>
		<path class="st2" d="M19,136C18.9,135.8,19.3,136.2,19,136L19,136z"/>
		<path class="st2" d="M97.9,136c2.1-0.4,2.1,2.7,0,2.2C97.9,137.4,97.9,136.7,97.9,136z"/>
		<path class="st2" d="M119.2,136c1.2,0.2,1.9,0.9,2.1,2.2C120.2,137.9,119,137.7,119.2,136z"/>
		<path class="st2" d="M92.4,137.3c0,8.6,0,16.4-0.4,22.5c-1.6,0.8-3.5,0.1-5-0.4c-0.2-8.7,0.7-13.6,0.4-22.1
			C88.3,136.6,91.4,136.6,92.4,137.3z M88.2,137.7c-0.1,6.6-0.6,13.2-0.4,21.2c1.1,0,2.2,0,3.4,0c0.8-5.3,0.2-14,0.4-21.2
			C90.4,137.7,89.3,137.7,88.2,137.7z"/>
		<path class="st2" d="M118,137.7c1.7-0.1,2.6,0.8,2.5,2.6C119.3,139.9,118,139.5,118,137.7z"/>
		<path class="st2" d="M80.7,139c1.3,5,0.3,13.8,0,19.9c-8.4,0-16.9,0.1-24.3-0.9c0.2-6.4-0.6-13.8,0.8-19
			C63.7,137.4,72.6,139.5,80.7,139z M57.6,139.9c0.5,6-1.3,11.9,0,17.2c7.9-0.6,15.8,1,22.6,0c-0.1-5.6,0.2-12.5,0-16.8
			C72.8,139.6,63.6,139.8,57.6,139.9z"/>
		<path class="st2" d="M169.1,138.2c1.1,7.4-0.2,16.2-0.4,22.5c-1.9,0.2-3.6,0.3-5.5-0.4c1.1-6.5-0.3-15.6,0.8-22.1
			C165.8,138.2,167.4,138.2,169.1,138.2z M164.5,159.8c1.3,0,2.5,0,3.8,0c-0.2-4.7-0.1-13.7,0.4-20.3c-0.7-0.7-2.5-0.4-3.8-0.4
			C165,146.1,164.2,152.4,164.5,159.8z"/>
		<path class="st2" d="M103.7,138.6c0.7,0.4,1.5,0.8,1.3,2.2C103.3,141.3,102.9,139.5,103.7,138.6z"/>
		<path class="st2" d="M41.3,143c-3.4-1.6-9.2,0.6-12.6,1.8c0.1-1.9-0.8-2.5,0-4C31.7,144,42.3,134.7,41.3,143z"/>
		<path class="st2" d="M221.5,139.5C221.4,139.3,221.8,139.8,221.5,139.5L221.5,139.5z"/>
		<path class="st2" d="M215.2,139.9c3.3,1.4,8.8,2.3,12.2,2.2c0.2,1.4-0.8,1.6-0.4,3.1c-4.2-0.7-7.5-2.4-12.6-2.2
			C214.1,141.4,214.7,140.7,215.2,139.9z"/>
		<path class="st2" d="M199.3,140.8c-0.3,6.5,0.5,14.1-0.4,19.9c-7.8-0.3-16.7,0.6-23.9-0.4c0.5-6.2-1-14.6,0.8-19.4
			C183.9,139.8,189.9,141.1,199.3,140.8z M176.3,141.7c0.2,7.4-0.4,11.7,0,17.7c7.4-0.4,15.6,0.6,21.8,0c1-5.6,0-11.7,0.4-17.2
			C190.6,142.4,183.8,141.7,176.3,141.7z"/>
		<path class="st2" d="M235.8,140.8c-0.1-1,1.5-0.2,2.1-0.4C238.1,142.2,236.1,141.9,235.8,140.8z"/>
		<path class="st2" d="M154.5,140.8c0.6,0,1.1,0,1.7,0c0.1,1-0.1,1.7-0.4,2.2C154.4,143.2,154.4,142.1,154.5,140.8z"/>
		<path class="st2" d="M59.7,141.3c2.2-0.4,2.2,1.6,2.5,3.1c3.7,3.5,13.3,3,14.3-2.6c1-0.1,1.6,0.1,2.1,0.4
			c-1.8,4.4,0.1,9.2-0.8,13.7c-3.4-1.3-1.2-6.7-1.3-10.6c-2.5,1.7-4.3,4-7.5,4.9c-2.8-1.2-5.4-2.6-7.1-4.9c-1,3.5,1,8.4-1.7,10.6
			c-2.4-1.6-0.4-6.8-0.4-10.2C59.7,143.6,58.5,142.2,59.7,141.3z M60.1,143c0.3,0,0.6,0,0.8,0c0-0.3,0-0.6,0-0.9c-0.3,0-0.6,0-0.8,0
			C60.1,142.4,60.1,142.7,60.1,143z M77.7,142.6C75.5,142.1,77.2,143.9,77.7,142.6L77.7,142.6z"/>
		<path class="st2" d="M97.4,141.7c0.4,0,0.8,0,1.3,0c0,0.6,0,1.2,0,1.8C97.3,143.9,97.3,142.8,97.4,141.7z"/>
		<path class="st2" d="M19,143.5c0.9-0.2,1.1,0.3,1.7,0.4c-0.3,0.6-0.9,0.8-1.7,0.9C19,144.3,19,143.9,19,143.5z"/>
		<path class="st2" d="M101.2,143.5c1.9,0.2,1.7,2,0.8,3.1C101.4,145.9,100.2,144.6,101.2,143.5z"/>
		<path class="st2" d="M179.6,143.5c0.7,8,14.3,6.9,14.3,0c0.7,0,1.4,0,2.1,0c-1.3,3.3,1.8,12.3-1.7,14.6c-1.4-2.4-0.6-6.1-0.4-9.3
			c-4.1,3-11.5,4.5-13.8-1.3c-1.7,3.3,1.8,9.3-2.5,9.7C179.1,152.8,175.7,144.4,179.6,143.5z"/>
		<path class="st2" d="M151.9,146.1c1.6-0.3,1.6,2.1,0,1.8C151.9,147.3,151.9,146.7,151.9,146.1z"/>
		<path class="st2" d="M31.2,155.4c-0.3-1.6-1-3.1-0.4-4.4c1-0.4,1.8-1,3.4-0.9c0.5,2.1-1.6,1.6-2.1,2.6c2.2,2.9,7.8-0.1,9.6-1.8
			c-1-1.8-4.1,0.3-5,1.3c-0.8-0.7-1.1-2.1-1.3-3.5c2-0.6,4.3-0.8,6.3-1.3C46.9,153.8,37.1,158.3,31.2,155.4z"/>
		<path class="st2" d="M225.3,147.4c1.5,0.2,0.7,2.6,0.4,3.5c-1,0-4.4-0.8-7.1-0.4c1,2.3,6.2,2.5,5.9,4.9c-2.5,0.6-8-4.4-11.3-6.2
			C214.8,146.1,222.3,149.1,225.3,147.4z"/>
		<path class="st2" d="M103.3,148.3c1.8-0.2,1.6,1.1,1.3,2.2C103.3,150.7,103.2,149.6,103.3,148.3z"/>
		<path class="st2" d="M234.5,148.3c0.6,0.2,2.2-0.5,2.1,0.4C237.1,150.3,233.6,150.1,234.5,148.3z"/>
		<path class="st2" d="M100.4,149.6c1.7-0.5,1.7,3.1,0,2.6C100.3,150.6,99.9,151,100.4,149.6z"/>
		<path class="st2" d="M157,150.1c0.4,0,0.8,0,1.3,0c0.6,0.6,0.6,2.1,0,2.6C156.7,153,157,151.4,157,150.1z"/>
		<path class="st2" d="M21.1,152.7C22.2,151,21.7,154.2,21.1,152.7L21.1,152.7z"/>
		<path class="st2" d="M103.7,153.2c0.4,0,0.8,0,1.3,0c0,0.7,0,1.5,0,2.2C103.7,155.6,103.6,154.4,103.7,153.2z"/>
		<path class="st2" d="M152.8,155.4c-1.3,0.2-1.9-0.4-1.7-1.8C152.4,152.4,153.6,154.1,152.8,155.4z"/>
		<path class="st2" d="M211.1,155.4c3.9,1.5,7.4,3.4,11.7,4.4c-0.1,2.7-1.1,4.4-2.1,6.2c-1.4-0.2-2.7-0.4-2.9-1.8
			c1.2-0.3,2.6-0.5,3.4-1.3c-0.5-1.4-2.6-1.1-3.4-2.2c-1.3,0.5,0.6,1.7-0.4,2.2c-1.3,0.1-1.4-1.2-2.9-0.9c-0.5-1.4,0.7-1.1,0.8-1.8
			c-0.9-1-2.3-1.4-4.2-1.3c-0.2,2.3,2.5,1.4,2.1,4c-1.6-0.3-2.5-1.2-3.8-1.8C209.3,158.5,210.7,157.5,211.1,155.4z"/>
		<path class="st2" d="M44.2,156.7c0.6,0.2,0.7,0.8,1.3,0.9c0,3.2-3.8,2.5-4.6,4.9c1.4,2.1,4.1-1,5.5-1.8c0.3,1.3,1.5,1.7,1.3,3.5
			c-4.7,0.5-8.2,2.3-10.9,4.9c-2.2-2.6-3.4-6.1-0.8-8.4C40.6,161.4,41.6,158.2,44.2,156.7z M35.4,165.1c1.5,0.9,4.3,0,4.6-1.8
			C38.2,162.1,35.7,163.4,35.4,165.1z"/>
		<path class="st2" d="M233.3,156.7c0.3,0.2,0.7,0.5,1.3,0.4c-0.2,0.9-0.7,0.9-1.3,0.4C233.3,157.3,233.3,157,233.3,156.7z"/>
		<path class="st2" d="M24.1,160.7c-0.2,0.5-0.5,0.9-1.3,0.9C22.6,160.6,23.4,160.7,24.1,160.7z"/>
		<path class="st2" d="M229.9,165.1c1.1-0.1,1.8,0.2,1.7,1.3C230.5,166.5,229.5,166.6,229.9,165.1z"/>
		<path class="st2" d="M207.3,165.5c3.2,2.6,7.2,4.2,10.9,6.2c-0.2,5-6.4,8-8,2.2c-2.3,0.9-3.8-1.6-6.3-1.8
			c-0.1-1.3,0.8-1.5,1.3-2.2c2.6-0.3,2.6,2.3,5.5,1.8c0-2.6-2.8-2.4-4.6-3.1C205.8,167,206.8,166.5,207.3,165.5z M216.1,173.9
			c-0.9-1.1-2-2-4.2-1.8C211.4,174.6,215.1,175.9,216.1,173.9z"/>
		<path class="st2" d="M26.6,169.1C28,168,25.6,170.5,26.6,169.1L26.6,169.1z"/>
		<path class="st2" d="M50.9,169.9c0.7,6.9-5.6,8.4-10.9,7.5C37.1,171.7,46.4,166.5,50.9,169.9z M40.4,176.1
			c4.8-0.1,8.2-1.7,9.2-5.7C45.9,171.6,42.1,172.7,40.4,176.1z"/>
		<path class="st2" d="M227,173c1.1-0.1,1.8,0.2,1.7,1.3C227.6,174.5,226.9,174.2,227,173z"/>
		<path class="st2" d="M29.9,176.6C31,174.8,30.5,178,29.9,176.6L29.9,176.6z"/>
		<path class="st2" d="M205.2,178.8c-2,0.3-1.9-1.5-4.2-0.9c-0.2,4.1,5.9,1.5,8.8,2.2c2.1,2,1.2,6.6-1.7,7.1
			c-0.5-1.1-2.6-0.5-2.1-2.6c1.7-0.4,2.7,1.1,3.8,0c-1.7-3.9-9.9,1.1-10.9-4.9C198.9,176.1,204.7,174.6,205.2,178.8z"/>
		<path class="st2" d="M55.1,177c0.9,1.8,2.4,3,2.9,5.3c-3.7,1.5-6.7,3.9-9.2,6.6c-2.5-0.8-3.6-3-4.2-5.7c0.7-0.4,1.1-1.2,2.5-0.9
			c0.4,1.6-1,1.3-0.8,2.6c0.1,0.6,0.7,0.7,0.8,1.3c1.6-0.1,1.8-1.7,3.4-1.8c0.1-1.1-0.6-1.4-1.3-1.8c0.5-1.1,1.7-1.4,2.9-1.8
			c0.2,0.9-0.3,1.2-0.4,1.8c1.6-0.4,2.9-1.1,3.8-2.2c-0.7-1.8-2.3-1-4.2-0.9C51.7,177.9,52.9,176.9,55.1,177z"/>
		<path class="st2" d="M129.3,179.2c-3.6,1.3-11.1,2.3-13.8-0.4C119.5,179.8,124.8,177.6,129.3,179.2z"/>
		<path class="st2" d="M146.1,184.5c-2.4-2.3-6.5-2.8-9.6-4.4C139.7,178.1,144.7,181.6,146.1,184.5z"/>
		<path class="st2" d="M222.8,180.5c-0.1-0.8,2.3-0.8,1.7,0.4C223.6,181.2,223.4,180.7,222.8,180.5z"/>
		<path class="st2" d="M33.7,184.1C34.8,182.3,34.3,185.5,33.7,184.1L33.7,184.1z"/>
		<path class="st2" d="M195.5,183.6c3.4,2.4,6.1,5.6,10.1,7.5c0,1.8-2,1.5-2.1,3.1c-2.6-3.3-5.7-6.1-9.6-7.9
			C193.8,184.8,194.8,184.4,195.5,183.6z"/>
		<path class="st2" d="M55.5,197.7c-2.4-1.9-3.2-5.1,0.8-5.7c0.4,1.9-1.4,1.4-1.3,3.1c2.9,1.9,8.1-3.3,7.5-6.6
			c-1.8,0.7-3.4,1.7-3.8,4c-2,0-2.5-1.4-2.9-3.1c3.4-2.7,8.7-4.1,9.2,0.9C65.5,194,60.4,197.9,55.5,197.7z"/>
		<path class="st2" d="M218.6,186.7c1.1,0.1,1.6,0.6,1.7,1.8C219.2,188.4,218.6,187.8,218.6,186.7z"/>
		<path class="st2" d="M197.2,198.2c1.3-1.1-1.7-1.4-0.8-3.5c1.7,0.3,2.4,1.6,2.9,3.1c-1.3,1.8-3,3.1-4.6,4.4c-1.9-0.1-3-1-3.4-2.6
			c1.2-1.2,1.6,1.3,3.4,0.9c-1.7-3.5-4.4-5.9-7.5-7.9C190.5,186,193.1,197.4,197.2,198.2z"/>
		<path class="st2" d="M39.6,190.2c0.1,1.2-0.6,1.4-1.7,1.3C37.8,190.4,38.5,190.1,39.6,190.2z"/>
		<path class="st2" d="M213.1,194.2c0.3-1.1,2.1-0.2,1.7,0.9C213.7,195.4,214,194.2,213.1,194.2z"/>
		<path class="st2" d="M185.1,194.7c-0.6,5.8,5.3,8.9,2.9,13.7c-4.5-1.8-6-6.6-11.3-7.5c-0.2-2.1,2.3-1.4,2.9-2.6
			c1,0.7,1.5,2,2.5,2.6c2.6,0.5,2.9-4.5,0-4C182.4,195.4,183.2,194.5,185.1,194.7z M186.3,203.9c0-1.7-0.5-3-2.5-2.6
			C183.8,203,185.1,203.4,186.3,203.9z"/>
		<path class="st2" d="M44.6,196.9c0.2,1-0.8,0.6-0.8,1.3C42.7,198,43.7,196.5,44.6,196.9z"/>
		<path class="st2" d="M207.7,200c1.3-0.2,1.9,0.4,1.7,1.8C208.3,201.7,207.7,201.1,207.7,200z"/>
		<path class="st2" d="M69.3,201.3c1,0.4,2.1,0.8,1.7,2.6c-1.2,0.4-1.3,0.4-2.5,0C68.3,202.5,68.6,201.7,69.3,201.3z"/>
		<path class="st2" d="M49.6,202.6c1,0.1,0.1,1.5,0,1.8C48.4,204.1,50,203.4,49.6,202.6z"/>
		<path class="st2" d="M173.7,202.6c0.7,4.2,3.3,6.5,5,9.7c1.8-0.6,0.1-2.4,0.4-4c1.1,0.9,2.3,1.7,2.5,3.5c-1.6,1.9-4.7,2.2-6.3,4
			c-1.5-0.4-2.1-1.6-2.1-3.5c1.6-0.4,1.3,1.3,2.5,1.3c-0.6-2.5-3-6.8-5.5-8.8C170.7,203.3,171.9,202.6,173.7,202.6z"/>
		<path class="st2" d="M87.8,205.7c0,2.2-1.7,2.7-2.1,4.4c-0.2,1.4,1.1,1.2,1.7,1.8c2.2-0.8,3.5-2.2,3.4-4.4c1.7,0,1.9,1.5,3.4,1.8
			c-3.3,2.6-8.9,4.9-9.2,9.3c-3.5-0.6-5.7-2.5-8.4-4c0.4-1.4,0.4-3.1,2.1-3.1c-0.1,1.8,0,3.2,1.3,3.5c1.5,0,1.2-1.9,2.1-2.6
			c-0.1-0.6-1.3-0.6-1.3,0c-1.2-1.3,0.5-3.3,1.3-4c0.6,0.3,0.8,0.9,0.8,1.8c1.1-1.1,1.7-2.6,2.5-4c0-1.1-1.4-0.9-2.5-0.9
			c-1,0.7-1,2.5-2.9,2.2C80.2,201.6,84.7,203.5,87.8,205.7z M82.8,215.8c1.7-0.5,2.9-1.7,3.8-3.1C84.4,211.3,83.2,214.1,82.8,215.8z
			"/>
		<path class="st2" d="M202.2,206.1c0.9-0.1,1.3,0.4,1.3,1.3C202.6,207.5,202.2,207.1,202.2,206.1z"/>
		<path class="st2" d="M165.4,207c1,4.6,3.2,7.8,5.5,11c-1.2,0.5-2.4,1-3.8,1.3c0.3-4.2-4.4-8.3-4.6-11.9
			C163.7,207.7,163.9,206.7,165.4,207z"/>
		<path class="st2" d="M55.1,209.7c0.7-0.2,0.8,0.3,0.8,0.9c-0.4-0.1-0.4,0.2-0.4,0.4C55,210.9,55.2,210.2,55.1,209.7z"/>
		<path class="st2" d="M97,210.1c1.7-0.5,1.6,0.9,2.9,0.9c-1.2,3.9-3.8,8.1-3.8,11.9c-1.5,0-2.4-0.7-3.8-0.9
			C94.3,218.5,96.3,214.9,97,210.1z"/>
		<path class="st2" d="M158.2,210.1c-0.1,1.6,0.8,2.1,0.8,3.5c-2,0.2-1.9-1.9-3.8-1.8c-0.3,0.1-0.4,0.4-0.8,0.4
			c0.4,4.8,7.6,2.6,6.7,8.8c-1.1,1.4-3.5,1.6-5.5,2.2c-0.1-0.7-1.4-2.3-0.4-2.6c0.2-1.9,1.7,1.4,3.4,0.9c-1-4-8.2-3.6-5.5-10.2
			C155.1,211.3,155.8,209.8,158.2,210.1z"/>
		<path class="st2" d="M196,211.4c0.7,0.1,1,0.8,0.8,1.8C196.1,213.1,195.8,212.4,196,211.4z"/>
		<path class="st2" d="M104.1,213.2c11.4-2.4,5.1,17.2-2.1,11.9c0.4-1.3-0.1-3.6,1.7-3.5c0.8,0.7-0.6,1.7,0.4,2.6
			c3.4-0.9,3.4-5.2,3.4-9.7c-2.3,0.2-1,4.2-2.1,5.7c-1.5,0.4-1.6-0.7-2.9-0.4C102.8,217.4,104.1,216,104.1,213.2z"/>
		<path class="st2" d="M61.8,216.3C60.3,214.2,63.9,214.5,61.8,216.3L61.8,216.3z"/>
		<path class="st2" d="M114.2,214.5c2.6-0.1,5.1,0,6.7,0.9c-1.1,3.4-2.1,9.6-1.3,12.4c-3.2-0.2-4.6,0.2-6.7-0.9
			c0.1-1.4,0.4-2.5,0.8-3.5c1.1,0.3,0.4,2.5,1.7,2.6c1.7,0.3,1.2-1.7,1.3-3.1c-0.1-0.6-0.7,0-0.8,0.4c-1-0.5-0.2-2.8-0.4-4
			c0.9-0.9,0.8,0.2,1.7,0.4c0.6-0.6,0.4-2.3,0.4-3.5c-2.9-0.8-1.6,2.7-3.8,2.6C113.5,217,114.3,216.3,114.2,214.5z"/>
		<path class="st2" d="M125.5,215c3-0.1,1.4,4.7,2.9,6.2c1.6-0.7,0.9-4.9,0-5.7c1-0.4,2.2-0.6,3.8-0.4c-0.7,3.9-0.7,9.9,0.4,13.2
			c-2.2,0-4.5,0-6.7,0c-0.4-0.6-0.7-1.3-1.3-1.8C126.1,221.4,124.6,218.4,125.5,215z M127.2,226.4c0.7,0,1.4,0,2.1,0
			c0-1.3,0-2.6,0-4C127,222.1,127.1,224.3,127.2,226.4z"/>
		<path class="st2" d="M189.3,217.2c0.1-0.5,1.1-0.4,1.3,0C190.9,218.1,189,218.2,189.3,217.2z"/>
		<path class="st2" d="M143.6,219.4c0,0.6,0,1.2,0,1.8c-0.7-0.1-0.7,0.4-1.3,0.4c-1.2-0.1-1.8-0.8-1.7-2.2
			C141.2,218.7,143,218.7,143.6,219.4z"/>
		<path class="st2" d="M68.5,220.3C69,218.5,69,222,68.5,220.3L68.5,220.3z"/>
		<path class="st2" d="M181.7,220.7c0.9-0.2,0.6,0.8,1.3,0.9C182.8,222.7,181.3,221.6,181.7,220.7z"/>
		<path class="st2" d="M76.1,223.8c0.7-0.1,0.7,2.5-0.4,1.8C75.5,224.6,75.9,224.4,76.1,223.8z"/>
		<path class="st2" d="M174.6,224.2C176.5,224.5,174.2,226.9,174.6,224.2L174.6,224.2z"/>
		<path class="st2" d="M83.6,227.3c1.2-0.6,1.2,2,0,1.3C83.6,228.2,83.6,227.8,83.6,227.3z"/>
		<path class="st2" d="M167.4,228.6C167.9,226.9,167.9,230.4,167.4,228.6L167.4,228.6z"/>
		<path class="st2" d="M92,230.4c0.3,0,0.6,0,0.8,0c0,0.3,0,0.6,0,0.9c-0.3,0-0.6,0-0.8,0C92,231,92,230.7,92,230.4z"/>
		<path class="st2" d="M159.1,232.2C158.9,232,159.3,232.5,159.1,232.2L159.1,232.2z"/>
		<path class="st2" d="M100.4,233.5C100.2,233.3,100.6,233.8,100.4,233.5L100.4,233.5z"/>
		<path class="st2" d="M150.7,233.9c0-0.4,0.5-0.3,0.8-0.4C151.5,233.9,151,233.8,150.7,233.9z"/>
		<path class="st2" d="M108.8,233.9C110.3,235.3,107.5,235.4,108.8,233.9L108.8,233.9z"/>
		<path class="st2" d="M141.9,234.4c1.2-0.6,1.2,2,0,1.3C141.9,235.3,141.9,234.8,141.9,234.4z"/>
		<path class="st2" d="M134.3,235.3c1.2-0.6,1.2,2,0,1.3C134.3,236.1,134.3,235.7,134.3,235.3z"/>
		<path class="st2" d="M116.7,236.1c0.1-0.6,0.8-0.4,0.8,0C117.4,236.8,117.2,236.1,116.7,236.1z"/>
		<path class="st2" d="M125.9,236.6C127.4,235.5,124.9,238.1,125.9,236.6L125.9,236.6z"/>
	</g>
</g>
</svg>
