<?xml version="1.0" encoding="utf-8"?>
<!-- Generator: Adobe Illustrator 26.3.1, SVG Export Plug-In . SVG Version: 6.00 Build 0)  -->
<svg version="1.1" id="affiliation" xmlns="http://www.w3.org/2000/svg" xmlns:xlink="http://www.w3.org/1999/xlink" x="0px"
	 y="0px" viewBox="0 0 256 256" style="enable-background:new 0 0 256 256;" xml:space="preserve">
<style type="text/css">
	.st0{fill:#FFFFFF;}
	.st1{display:none;fill:#FFFFFF;}
	.st2{fill:#0061AA;}
</style>
<rect id="black" width="256" height="256"/>
<circle id="background_x5F_circle" class="st0" cx="128" cy="128" r="128"/>
<path id="background_x5F_rectangle" class="st1" d="M206.9,256H49.1C22.1,256,0,233.9,0,206.9V49.1C0,22.1,22.1,0,49.1,0H207
	c27,0,49.1,22.1,49.1,49.1V207C256,233.9,233.9,256,206.9,256z"/>
<g id="logo_00000169557994799884142440000017718490564280908447_">
	<g>
		<path class="st2" d="M120.8,11.5c1.2,0,2.1,1.1,2.1,2.2c0.1,1.2-0.9,2.2-2.1,2.2c-1.1,0-2.1-1-2.2-2.1c0-0.6,0.2-1.2,0.6-1.6
			C119.6,11.8,120.2,11.6,120.8,11.5 M126.4,11.3c-1.3,0-2.2,1-2.2,2.3c0,1.1,1,2.2,2.2,2.1c1.3-0.1,2.2-1,2.1-2.3
			C128.6,12.4,127.7,11.3,126.4,11.3 M210.9,206.3c1.9-0.1,3.9-1.2,5.4-3.1c0.3-0.4,0.6-0.8,0.8-1.2c0.8-1.4,1.3-3.1,1-4.7
			c0.4,0.4,1.4,1.1,1.4,1.1l2.8-3.9l-0.3-0.4c-1.2,0.7-2.4-0.4-3.4-1.2l-9.7-7.8c-1-0.8-2.9-2.2-2.5-3.5l-0.4-0.2l-3.4,4.7l0.3,0.3
			c1.1-0.7,2.6,0.6,3.6,1.4l7.5,6.1c0.9,0.7,1.4,1.1,1.7,2.1c0.4,1.5,0,3.2-1.1,4.6c-0.9,1.1-1.8,1.7-2.9,1.8
			c-1.3,0.1-2.8-0.5-4.5-1.8l-6.7-5.4c-1-0.8-2.6-2-2.2-3.2l-0.4-0.2l-4,4.2l0.3,0.3c1.1-0.6,2.8,0.8,4,1.7l6.8,5.5
			C206.8,205.1,208.4,206.4,210.9,206.3 M154.9,20.8c1,0.7,0.6,2.4,0.2,3.9l-3.3,12.1c-0.4,1.4-0.8,3.2-2.1,3.3l-0.1,0.4l5.7,1.5
			l0.2-0.4c-1.1-0.8-0.5-2.6-0.2-3.9l3.3-12c0.3-1.3,0.8-3.2,2.1-3.3l0.1-0.4l-5.6-1.5L154.9,20.8 M241.1,123.7
			c-0.4,1.1-2.1,1.2-3.6,1.3l-12.5,0.5c-1.4,0-3.3,0.2-3.8-1l-0.4,0.1l0.2,5.8l0.4,0.1c0.4-1.3,2.4-1.3,3.7-1.3l12.4-0.5
			c1.3-0.1,3.3-0.2,3.8,1l0.4-0.1l-0.2-5.8L241.1,123.7 M46.5,67.5c0.4-0.5,3-3.6,3.4-4.1c-0.6-0.2-5.9-2-6.9-2.3
			C43.5,62,46.2,66.9,46.5,67.5 M63.9,63.6l-4.6,4.7l-0.4-0.2c0.1-0.3,0.1-0.6,0-0.8c-0.1-0.5-0.4-0.7-1.8-1.1l-4.6-1.5l-4.7,5.7
			c0,0,2.2,3.8,2.2,3.8c0.5,0.9,1,1.6,1.5,1.8c0.3,0.1,0.6,0.1,1.1-0.1l0.3,0.3l-3.3,4.8l-0.4-0.2c0.4-1.4-0.6-2.9-1.7-5.1
			c0,0-6.9-12.6-7-12.7c-1.1-2-2.2-1.4-2.2-1.4l-0.3-0.4l3.1-3.8l17,5.3c2,0.6,3.9,1.2,5.4,0.6L63.9,63.6z M196.4,222.5
			c-1.7,0.4-3.2,0.1-7.1-1.3c0,0-5.9-2.1-6.5-2.4c1.6-1.6,2.6-4.7,1.2-7c-1.7-2.7-5-3.2-8.4-1.2l-6.4,3.5l0.2,0.4
			c1.3-0.2,2.2,1.3,2.9,2.5l6.1,11.5c0.7,1.4,1.3,2.6,0.5,3.6l0.3,0.3l5.2-2.9l-0.1-0.4c-1.3,0.3-2-1.1-2.8-2.5l-6.7-12.5l1.5-0.9
			c1.3-0.8,3.6-1.3,4.8,0.8c1.4,2.6-0.8,5-2.3,6.2l-0.2,0.2l9.9,3.9c2,0.7,4,0.4,6.1-0.4l2.1-1L196.4,222.5 M203.4,215.4
			c-1.7,0.3-2.4-0.6-3.5-1.9c0,0-8.7-10.2-9-10.6c0.3-0.3,1.9-1.6,1.9-1.6c1-0.9,2-1.3,2.6-0.9l0.3-0.3l-1.8-3.7
			c0,0-0.5,0.9-1.1,1.5c-0.7,0.6-8.8,7.5-9.3,7.9c-0.5,0.4-1.4,0.6-1.4,0.6l1.7,3.7l0.4,0c0,0,0.3-1.7,2.1-3.3l1.9-1.6l9,10.6
			c0.8,0.9,2,2.3,1.6,3.4c0,0.1-0.1,0.2-0.1,0.3l0.4,0.3l4.7-4L203.4,215.4 M152,241.5c-1.6-0.6-1.8-1.8-2.1-3.4
			c0,0-2.5-13.2-2.6-13.6c0.4-0.1,2.5-0.5,2.5-0.5c1.3-0.3,2.3-0.1,2.7,0.5l0.4-0.1l0.3-4.1c0,0-0.8,0.5-1.7,0.7
			c-0.9,0.2-11.4,2.2-12.1,2.3c-0.6,0.1-1.5-0.1-1.5-0.1l-0.4,4.1l0.3,0.2c0,0,1.1-1.3,3.4-1.9l2.4-0.5l2.6,13.6
			c0.2,1.2,0.6,3-0.3,3.7c-0.1,0-0.2,0.1-0.2,0.2l0.2,0.4l6-1.1L152,241.5 M48.6,81.7c-1.5,0.8-2.5,0.2-4-0.6c0,0-11.6-6.6-12.1-6.9
			c0.2-0.4,1.2-2.2,1.2-2.2c0.7-1.2,1.4-1.9,2.2-1.7l0.2-0.4L33.2,67c0,0-0.1,1-0.6,1.8c-0.4,0.8-5.7,10.1-6.1,10.6
			c-0.3,0.6-1.1,1.1-1.1,1.1l2.8,3l0.4-0.2c0,0-0.4-1.5,0.8-3.8l1.2-2.1l12.1,6.9c1.1,0.6,2.8,1.3,2.6,3.1c0,0,0.4,0.1,0.4,0.1
			l3.1-5.4L48.6,81.7 M84.1,48.4c-1.7,0-2.3-1.1-3.1-2.5c0,0-6.7-11.6-7-12c0.4-0.2,2.2-1.3,2.2-1.3c1.2-0.7,2.2-0.9,2.8-0.4
			l0.3-0.2l-1.1-4c0,0-0.6,0.8-1.4,1.3c-0.8,0.5-10,5.8-10.6,6.1c-0.6,0.3-1.5,0.4-1.5,0.4l1,4l0.4,0c0,0,0.4-1.5,2.6-2.9l2.1-1.2
			l7,12c0.6,1.1,1.8,2.6,0.7,3.9c0,0,0.3,0.3,0.3,0.3l5.4-3.1L84.1,48.4 M93.2,22.6l0.1,0.4c1.3,0,1.9,1.9,2.4,3.1l3,9.2
			c0.3,1.2,0.6,1.7,0.3,2.7c-0.4,1.5-1.5,2.7-3.2,3.3c-2.5,0.9-4.5,0.7-6.1-3.5l-3.1-8.5c-0.5-1.2-1.2-3-0.2-3.9l-0.2-0.4l-5.5,2.3
			l0.1,0.5c1.3,0,1.9,1.4,2.3,2.7l3.2,8.6c2.3,6.4,5.8,6.5,9.6,5.1c1.8-0.6,3.6-2,4.6-4c0.2,0.6,0.6,1.6,0.6,1.6l4.6-1.3l-0.1-0.4
			c-1.5-0.1-2.1-2.3-2.5-3.5l-3.9-11.8c-0.5-1.2-1.1-2.8-0.1-3.7l-0.2-0.4L93.2,22.6 M127.4,17.2l-0.1,0.4c1.2,0.4,1.3,2.4,1.3,3.7
			l0.1,9.7c0,1.2,0.1,1.8-0.5,2.7c-0.9,1.3-2.3,2.1-4.1,2.2c-2.7,0.1-4.5-0.7-4.8-5.2l-0.4-9c-0.1-1.3-0.2-3.2,1-3.8l-0.1-0.4
			L114,18l-0.1,0.5c1.3,0.4,1.3,1.9,1.4,3.3l0.5,9.1c0.3,6.8,3.6,7.9,7.6,7.7c1.9-0.1,4.1-0.8,5.6-2.4c0,0.6,0.1,1.7,0.1,1.7
			l4.8,0.2l0-0.4c-1.4-0.6-1.3-2.8-1.3-4.1l-0.2-12.4c-0.1-1.3-0.2-3,1-3.5l-0.1-0.4L127.4,17.2 M149.7,35.7c-1.8,1.2-3.7,1.3-5.6,1
			l-3.9-0.8l1.9-13.5c0.2-1.3,0.4-3.4,1.7-3.7l0-0.4l-5.8-0.7l-0.1,0.4c1.2,0.6,0.8,2.6,0.6,3.9l-1.8,12.3c-0.2,1.3-0.4,3.3-1.7,3.5
			l0,0.4l12.7,1.8l2.3-4L149.7,35.7 M216.9,90.7c-2.1-0.7-3.3-2.2-4.2-3.9l-1.7-3.6l11.9-6.6c1.1-0.6,2.9-1.7,3.9-0.9l0.3-0.3l-3-5
			l-0.4,0.2c0.2,1.3-1.5,2.2-2.7,2.8l-10.9,6c-1.2,0.7-2.9,1.7-3.8,0.8l-0.4,0.3l6.2,11.2l4.6-0.6L216.9,90.7 M194.5,51.9
			c2.4-3.4,2.8-8.5-1.1-11.3c-1.8-1.2-3.7-1.7-5.6-1.4c-2,0.3-3.8,1.6-5.1,3.4c-1.1,1.6-1.7,3.6-1.7,5.6c0.1,2.2,1,4.3,3,5.8
			c1.7,1.2,3.6,1.7,5.5,1.4C191.4,55,193.2,53.8,194.5,51.9 M198.2,53.8c-1.7,2.4-4.2,4-7,4.5c-3,0.5-6.3-0.2-8.9-2.1
			c-2.6-1.9-4.4-4.6-4.9-7.6c-0.5-2.8,0.2-5.6,1.9-8c1.6-2.3,4.1-3.8,7-4.3c3.1-0.5,6.3,0.3,8.9,2.3c2.6,1.8,4.3,4.4,4.8,7.4
			C200.4,48.7,199.8,51.5,198.2,53.8z M211.5,70.3c3.1-2.7,4.8-7.6,1.6-11.3c-1.4-1.6-3.2-2.6-5.1-2.7c-2-0.1-4.1,0.6-5.8,2.1
			c-1.5,1.3-2.5,3.1-3,5c-0.5,2.1-0.1,4.4,1.5,6.3c1.4,1.6,3.1,2.5,5,2.6C207.8,72.5,209.8,71.8,211.5,70.3 M214.6,72.9
			c-2.2,1.9-5,2.8-7.9,2.6c-3.1-0.2-6-1.7-8.1-4.2c-2.1-2.4-3.2-5.5-3-8.6c0.2-2.8,1.5-5.4,3.7-7.3c2.1-1.9,4.9-2.7,7.8-2.5
			c3.1,0.3,6,1.8,8.1,4.3c2.1,2.4,3.1,5.3,2.9,8.3C218,68.5,216.8,71.1,214.6,72.9z M232.9,105.5c-3.2,0.5-4.1,4-4.9,7
			c-0.7,2.5-1.3,4.8-3.1,5.1c-2.4,0.4-3-2.6-3.1-3.2c-0.3-1.7,0.1-3.6,1.1-4.9l0.4-0.5l-4.2,0.7l0,0.2c-0.2,1.5-0.2,3.1,0.1,4.7
			c0.5,2.8,1.6,5,3.2,6.1c1.1,0.7,2.3,1,3.6,0.8c3.6-0.6,4.5-4,5.3-7c0.7-2.6,1.2-4.8,3.3-5.2c1.9-0.3,3.3,1.9,3.6,3.6
			c0.4,2.3-0.1,4.9-1.4,6.9l-0.4,0.7l4.5-1.9l0-0.1c0.3-1.8,0.3-3.7,0-5.7c-0.4-2.6-1.8-4.8-3.6-6.2
			C235.9,105.6,234.3,105.2,232.9,105.5 M235.8,133.3c-3.2-0.3-5,2.8-6.5,5.5c-1.3,2.2-2.5,4.3-4.3,4.2c-2.4-0.2-2.3-3.3-2.2-3.9
			c0.2-1.7,1.1-3.5,2.3-4.5l0.5-0.4l-4.3-0.4l-0.1,0.2c-0.6,1.4-1,3-1.1,4.6c-0.3,2.8,0.3,5.3,1.5,6.8c0.8,1,1.9,1.6,3.3,1.7
			c3.7,0.3,5.4-2.7,6.9-5.4c1.3-2.3,2.4-4.3,4.5-4.1c1.9,0.2,2.7,2.7,2.5,4.4c-0.2,2.3-1.4,4.7-3.1,6.3l-0.6,0.5l4.8-0.7l0.1-0.1
			c0.8-1.6,1.3-3.5,1.5-5.5c0.2-2.6-0.5-5.1-1.9-6.9C238.6,134.2,237.3,133.4,235.8,133.3 M67.2,220c2-2.5,0.4-5.7-1-8.5
			c-1.2-2.3-2.3-4.5-1.2-5.9c1.5-1.9,4-0.1,4.5,0.3c1.4,1.1,2.3,2.8,2.5,4.4l0.1,0.6l2.7-3.4l-0.1-0.2c-0.9-1.3-1.9-2.4-3.2-3.4
			c-2.2-1.8-4.6-2.6-6.5-2.4c-1.3,0.1-2.4,0.8-3.2,1.8c-2.3,2.9-0.7,6,0.8,8.8c1.2,2.4,2.3,4.4,1,6c-1.2,1.5-3.7,0.8-5.1-0.3
			c-1.8-1.4-3.2-3.7-3.6-6l-0.2-0.8l-2.1,4.4l0.1,0.1c0.9,1.5,2.2,3,3.8,4.2c2.1,1.6,4.6,2.4,6.8,2.2
			C64.9,221.9,66.3,221.1,67.2,220 M128,238.6c0.2-3.2-2.9-4.9-5.6-6.4c-2.3-1.2-4.4-2.4-4.3-4.2c0.2-2.4,3.3-2.3,3.9-2.3
			c1.7,0.1,3.5,1,4.5,2.2l0.4,0.5l0.3-4.3l-0.2-0.1c-1.4-0.6-3-0.9-4.6-1c-2.8-0.2-5.3,0.4-6.7,1.7c-1,0.9-1.5,2-1.6,3.3
			c-0.3,3.7,2.9,5.3,5.6,6.8c2.4,1.3,4.4,2.3,4.2,4.4c-0.1,1.9-2.6,2.8-4.3,2.7c-2.3-0.2-4.7-1.3-6.4-3l-0.6-0.6l0.8,4.8l0.1,0.1
			c1.7,0.7,3.5,1.2,5.5,1.3c2.6,0.2,5.1-0.6,6.9-2.1C127.2,241.5,127.9,240.1,128,238.6 M223.6,149.9c-1.6-0.5-3.2-0.9-3.6-2.5
			l-0.4-0.1l-1.1,5.2l0.4,0.2c1.2-1.1,2.3-0.8,3.9-0.3c0.1,0,10.6,3.2,10.6,3.2s-15.2,6.1-15.4,6.2c-1.3,0.5-2.4,0.7-2.4,0.7
			l-1.7,4.4l0.4,0.2c1.1-1.1,2.8-0.6,4.4-0.1l11.8,3.7c1.6,0.5,2.7,0.8,2.9,2.4l0.4,0l1.9-5.1l-0.4-0.2c-1.2,1.1-2.4,0.7-4,0.3
			c0,0-9.5-3-10.8-3.4c1.3-0.5,15.2-6,15.2-6c2-0.8,3.4-1.7,4.7-3.8L223.6,149.9 M31.9,147.3c1.7-0.1,3.3-0.3,4.3,1.1l0.4-0.1
			l-0.8-5.3l-0.5-0.1c-0.7,1.5-1.9,1.6-3.5,1.7c-0.1,0-11,0.8-11,0.8s12.1-11.1,12.2-11.2c1-0.9,2-1.5,2-1.5l0.1-4.7l-0.4-0.1
			c-0.6,1.4-2.4,1.5-4.1,1.7l-12.3,0.7c-1.7,0.1-2.8,0.2-3.6-1.2l-0.4,0.1l0.1,5.4l0.4,0.1c0.8-1.5,2-1.5,3.6-1.7
			c0,0,10-0.6,11.3-0.7c-1,0.9-12,11.1-12,11.1c-1.6,1.4-2.6,2.9-3,5.2L31.9,147.3 M228.5,174.8l-0.3,0.2c0.5,2.1,0,4-1,5.5
			c0,0-2.1,3.2-2.4,3.7c-0.4-0.2-5.7-3.1-6.1-3.3c0.2-0.4,1.4-2.7,1.4-2.7c0.5-0.9,1-2.2,2.1-2.4l0.1-0.4l-3.1-1.6
			c0,0-0.1,1-0.5,1.5c0,0-2.4,4.3-2.4,4.3l-4.6-2.5l1.5-3.6c0.6-1.4,1.6-2.6,2.9-2.9l0.1-0.4l-3.4-1.9c0,0-0.1,0.9-0.5,1.7l-5.4,9.9
			l0.4,0.2c1-0.9,2.7,0.1,3.9,0.7L222,187c1.2,0.6,2.9,1.5,2.7,2.8l0.4,0.2l6.3-11.9L228.5,174.8 M160.4,229c0.6-0.2,4.4-1.6,5-1.8
			c-0.4-0.5-4.1-4.7-4.8-5.5C160.5,222.8,160.4,228.4,160.4,229 M177,233.5l-6,2.7l-0.2-0.4c0.6-0.9,0.4-1.5-0.5-2.6l-3.2-3.7
			l-6.9,2.6l0,4.4c0,2,0.2,2.3,1.4,2.6l0.1,0.4l-5.5,1.5l-0.2-0.4c1-1,1.1-1.6,1.3-4c0,0,0.4-14.4,0.4-14.5c0-2.3-1.2-2.3-1.2-2.3
			l0-0.5l4.7-1.7l11.9,13.1c1.5,1.5,2.3,2.2,3.9,2.3L177,233.5z M43.4,169.1l-0.4,0.1c0,1.6-2,1.8-4.7,1.8c0,0-10.2,0.1-11.4,0.1
			c0.9-0.8,10.4-9.1,10.4-9.1c0.6-0.5,1.7-1.3,2.6-1.6c0,0-1.5-4.8-1.5-4.8l-0.4,0c-0.3,1.2-1.8,2.5-2.9,3.4l-10.6,9.4
			c-1.8,1.6-2,2.4-2.4,4.4l-0.2,1l23.8-0.1L43.4,169.1 M222.2,95.6l4.7,2.2l2.2-4.7l-4.7-2.2L222.2,95.6 M33.9,95.6L31.8,91
			l-4.7,2.1l2.1,4.7L33.9,95.6 M173.3,45.6c1,4,1.7,5.4,3,6.5l-0.3,0.4l-2.1-1.1c-1.9-1.3-3.3-2.7-3.8-4.8l-2.6-11.7l7.3-3.3
			c2.8-1.3,2.2-2.8,1.9-3l0.2-0.4l5.2,2.6L171,36.3L173.3,45.6 M164.5,40.8c-0.6,1.3-1.4,2.9-0.4,3.9l-0.2,0.4l-5.6-2.1l0.1-0.4
			c1.4,0.1,2.2-1.9,2.7-3.2l5.1-11.3c0.5-1.2,1.3-2.7,0.3-3.7l0.2-0.4l5.5,2.2l-0.1,0.4c-1.3-0.1-2.1,1.7-2.6,2.9L164.5,40.8z
			 M79.5,52.1c-1.7,0.7-3.2,0.6-7.2-0.2c0,0-8.1-1.9-8.1-1.9c0.8-1.1,2.3-4.5,0-7.1c-2.1-2.4-5.4-2.4-8.5,0.2l-5.5,4.8l0.2,0.4
			c1.2-0.4,2.4,0.9,3.2,2l8,9.7c0.8,1,2.2,2.6,1.5,3.7l0.3,0.2l4.5-4.1l-0.2-0.4c-1.2,0.5-2.5-0.9-3.4-1.9l-8.9-10.8l1.3-1.3
			c0.9-0.9,3.3-1.7,4.9,0.1c1.9,2.2,0,5.1-1.4,6.6l11.6,3.1c2.1,0.4,4-0.2,6-1.3l1.9-1.4L79.5,52.1 M100.1,230.4
			c0.6,0.1,4.6,1.1,5.2,1.2c-0.1-0.6-0.8-6.2-1-7.2C103.7,225.3,100.5,229.9,100.1,230.4 M111.4,243.3l-6.4-1.1l0.1-0.4
			c1-0.4,1.2-1,1-2.4l-0.6-4.8l-7.2-1.7l-2.5,3.7c-1.1,1.7-1.1,2-0.3,2.9l-0.1,0.4l-5.4-1.8l0.1-0.4c1.4-0.3,1.8-0.7,3.3-2.7
			c0,0,8.4-11.8,8.4-11.8c1.3-1.9,0.3-2.6,0.3-2.6l0.2-0.4l4.8,1.2l2.7,17.5c0.4,2.1,0.6,3.1,2,4.1L111.4,243.3z M86.4,236.2
			c-1-1.4-0.5-2.5,0.2-4c0,0,5.2-12.3,5.4-12.8c0.4,0.2,2.3,1,2.3,1c1.3,0.5,2,1.2,2,2l0.4,0.1l2.6-3.3c0,0-1,0-1.9-0.3
			c-0.9-0.3-10.7-4.5-11.3-4.8c-0.6-0.3-1.2-0.9-1.2-0.9l-2.6,3.2l0.2,0.3c0,0,1.6-0.5,3.9,0.4l2.3,1l-5.4,12.8
			c-0.5,1.1-1.1,2.8-2.3,2.9c-0.1,0-0.2,0-0.3,0l-0.1,0.4l5.6,2.4L86.4,236.2 M72.6,229.7c-0.7-1,0.1-2.5,0.9-3.8l6.4-10.7
			c0.7-1.2,1.6-2.9,2.9-2.6l0.2-0.4l-5-3l-0.3,0.3c0.8,1-0.2,2.7-0.9,3.8L70.4,224c-0.7,1.1-1.6,2.9-2.9,2.6l-0.2,0.4l5,3
			L72.6,229.7 M51,215.4c-0.8-1.6-0.8-3.1-0.1-7.2c0,0,1-6.2,1.1-6.8c1.9,1.3,5.1,1.7,7.1-0.2c2.3-2.1,2.2-5.5-0.4-8.5l-4.7-5.6
			l-0.4,0.2c0.5,1.2-0.8,2.4-1.9,3.3l-10.1,8.1c-1.2,0.9-2.3,1.8-3.4,1.2l-0.2,0.4l3.8,4.6l0.4-0.2c-0.5-1.2,0.7-2.1,2-3.2l11-8.9
			l1.2,1.3c1,1.1,2,3.3,0.1,4.9c-2.3,1.9-5,0.1-6.5-1.1l-0.2-0.2l-2,10.4c-0.3,2.1,0.3,4,1.5,5.9l1.4,1.8L51,215.4 M38.9,194.8
			l0-0.4c-2-0.6-3.4-2-4.2-3.7c0,0-1.7-3.4-2-4c0.4-0.2,5.5-3.3,5.9-3.5c0.2,0.3,1.6,2.6,1.6,2.6c0.5,0.8,1.4,2,1,3.1l0.3,0.3l3-1.8
			c0,0-0.8-0.6-1.1-1.2c0,0-2.5-4.2-2.5-4.2l4.5-2.7l2.3,3.2c0.9,1.2,1.4,2.7,1,4l0.3,0.3l3.4-2c0,0-0.7-0.5-1.2-1.3l-5.7-9.7
			l-0.4,0.2c0.2,1.3-1.5,2.3-2.6,2.9L31.8,183c-1.1,0.7-2.8,1.8-3.8,0.9l-0.4,0.3l7,11.5L38.9,194.8 M18.5,159.6
			c0.2-1.2,1.9-1.6,3.3-2l12.1-2.9c1.4-0.3,3.2-0.8,3.9,0.3l0.4-0.1l-1.4-5.7l-0.4,0c-0.2,1.3-2.1,1.7-3.4,2L21,154.1
			c-1.3,0.3-3.2,0.8-3.9-0.3l-0.4,0.2l1.4,5.7L18.5,159.6 M18.2,107.6c-1.6,1.1-2.7,3.1-3,5.4c-0.1,0.5-0.1,0.9-0.1,1.4
			c0,1.6,0.5,3.3,1.5,4.6c-0.6-0.1-1.8-0.2-1.8-0.2l-0.4,4.7l0.5,0.1c0.6-1.2,2.2-0.9,3.5-0.7l12.3,1.8c1.3,0.2,3.6,0.4,3.9,1.7
			l0.4,0l0.5-5.8l-0.4-0.1c-0.6,1.1-2.5,0.8-3.8,0.6l-9.6-1.4c-1.1-0.2-1.8-0.3-2.5-1c-1.1-1.1-1.7-2.8-1.4-4.5
			c0.2-1.4,0.7-2.4,1.6-3c1.1-0.8,2.7-1,4.8-0.7l8.5,1.2c1.3,0.2,3.2,0.4,3.5,1.7l0.4,0l1.3-5.7l-0.4-0.1c-0.6,1.1-2.8,0.8-4.3,0.5
			l-8.6-1.2C22.3,106.5,20.2,106.2,18.2,107.6 M102.1,184.1L102.1,184.1c-2,2.4-4.8,3.6-7.8,4.5v0.1l2.8,0.7v9.7
			c0,1.7,0,2.9-1.7,3.9v0.1h8.1v-0.1c-1.5-0.8-1.4-2.4-1.4-3.8L102.1,184.1 M122.4,184.1c-3.7,0-6.9,1.2-9.3,3.2
			c-2.6,2.1-4.1,4.9-4.1,8.3c0,4.6,2.8,7.9,7.6,7.9c4,0,7.2-2.6,7.2-6.7c0-3.4-2.2-6.1-5.8-6.1l-1,0.1l-2.1,2.8h0.1
			c0.3-0.2,0.7-0.3,1.2-0.3c2,0,2.6,2.2,2.6,3.8c0,1.4-0.4,3.6-2.2,3.6c-2.2,0-2.7-3.2-2.7-4.8c0-5,2.5-8.1,7.3-9.4L122.4,184.1
			 M131.5,194.2h1.3c1.1,0,2.2,0.1,3.1,0.7c0.8,0.6,1.1,1.4,1.1,2.4c0,2.1-1.7,3.5-3.7,3.5c-1.5,0-3.1-0.5-4.4-1.2l0.8,3.4
			c1.4,0.3,2.8,0.5,4.3,0.5c3.8,0,8.4-1.8,8.4-6.2c0-2.6-1.8-4.4-4.3-4.9c1.8-0.5,3.1-2,3.1-3.9c0-1.5-1-2.7-2.3-3.4
			c-1.2-0.6-2.7-0.9-4-0.9c-1.6,0-3.1,0.3-4.7,0.7l-0.9,3.2c1.1-0.6,2.6-1.2,3.8-1.2c1.4,0,2.7,0.7,2.7,2.3c0,2.3-2.2,2.6-4,2.6
			h-0.6L131.5,194.2 M149.4,185l-1.2,3.9c1.3-0.9,2.9-1.9,4.5-1.9c1.1,0,2,0.7,2,1.9c0,1-0.7,2.3-1.2,3.2l-2.2,3.9l-4.3,7.1h13.3
			l1.3-4.1c-1.7,0.9-3.1,1.4-5,1.4c-0.8,0-1.5-0.1-2.2-0.2l0.3-0.5l3.3-5.2c0.9-1.7,2.2-3.8,2.2-5.7c0-3.1-3.2-4.7-5.9-4.7
			C152.7,184.1,150.9,184.4,149.4,185 M78.9,86.3h98.2L128,62.9L78.9,86.3 M76.6,95.6h102.9v-4.7H76.6V95.6z M76.6,177.4h28.1v-14
			H76.6V177.4z M151.4,177.4h28.1v-14h-28.1L151.4,177.4L151.4,177.4z M114,177.4h9.4v-14H114V177.4z M132.7,177.4h9.4v-14h-9.4
			V177.4z M84.8,100.3h-7l-1.2,58.4h9.4L84.8,100.3 M103.5,100.3h-7l-1.2,58.4h9.4L103.5,100.3 M122.2,100.3h-7l-1.2,58.4h9.4
			L122.2,100.3 M140.9,100.3h-7l-1.2,58.4h9.4L140.9,100.3 M159.6,100.3h-7l-1.2,58.4h9.4L159.6,100.3 M178.3,100.3h-7l-1.2,58.4
			h9.3L178.3,100.3 M128,51.2L76.6,75.7v5.8L128,57l51.4,24.5v-5.8L128,51.2"/>
	</g>
</g>
</svg>
