<?xml version="1.0" encoding="utf-8"?>
<!-- Generator: Adobe Illustrator 26.3.1, SVG Export Plug-In . SVG Version: 6.00 Build 0)  -->
<svg version="1.1" id="affiliation" xmlns="http://www.w3.org/2000/svg" xmlns:xlink="http://www.w3.org/1999/xlink" x="0px"
	 y="0px" viewBox="0 0 256 256" style="enable-background:new 0 0 256 256;" xml:space="preserve">
<style type="text/css">
	.st0{fill:#FFFFFF;}
	.st1{display:none;fill:#FFFFFF;}
	.st2{fill:#231F20;}
</style>
<rect id="black" width="256" height="256"/>
<circle id="background_x5F_circle" class="st0" cx="128" cy="128" r="128"/>
<path id="background_x5F_rectangle" class="st1" d="M206.9,256H49.1C22.1,256,0,233.9,0,206.9V49.1C0,22.1,22.1,0,49.1,0H207
	c27,0,49.1,22.1,49.1,49.1V207C256,233.9,233.9,256,206.9,256z"/>
<g id="logo_00000169557994799884142440000017718490564280908447_">
	<g id="g10" transform="matrix(1.3333333,0,0,-1.3333333,0,216.25333)">
		<g id="g12" transform="scale(0.1)">
			<path id="path14" class="st2" d="M810.4,212.9c0,16-10.1,30.3-34.2,30.3c-20.2,0-32.5-13.3-37.1-30.3l18-6.1
				c2.5,10.8,8.9,16.7,17,16.7c9.1,0,13-4.4,13-11.8c0-21.6-46-34.5-47.3-70.1l0.3-10.1h70.4v19h-44.8
				C771.6,173.2,810.4,175.4,810.4,212.9z M728.3,212.9c0,16-10.1,30.3-34.2,30.3c-20.2,0-32.5-13.3-37.1-30.3l18-6.1
				c2.5,10.8,8.9,16.7,17,16.7c9.1,0,13-4.4,13-11.8c0-21.6-46-34.5-47.3-70.1l0.3-10.1h70.4v19h-44.8
				C689.5,173.2,728.3,175.4,728.3,212.9z M609.5,223.5c9.1,0,13.3-4.2,13.3-14v-9.3c-0.4-6.4-7.8-8.6-14-8.6
				c-8.4,0-12.8,3.5-12.8,15.7C596,218.7,600.2,223.5,609.5,223.5z M604.4,173.3c7.6,0,13.6,1.9,18.4,5.6v-12.8
				c0-11.1-5.1-16.7-15.9-16.7c-8.8,0-14,3.5-17.7,13l-15-8.6c5.2-15.5,16.7-23.8,34-23.8c23.1,0,37.3,14.5,37.3,37.6v40.8
				c0,19.4-12.1,35-35.7,35c-23.8,0-36.9-13.5-36.9-36.9C572.9,183.8,585.2,173.3,604.4,173.3z M533.1,131.5h24.3v110.9h-19.2
				c-2-16.8-5.2-20-17.9-20H511v-16.5h22.1V131.5z M1170.8,416.8c32.3,0,59,10.8,79.5,32.3l2.8-27.3h56.2v288.3h-63V494.6
				c-10.8-14.8-30.1-27.3-55.1-27.3c-32.4,0-48.3,19.9-48.3,57.9v185h-63.5V525.8C1079.4,458.8,1112.3,416.8,1170.8,416.8z
				 M906.4,507c0-57.9,22.1-89.7,76.6-89.7c21,0,38,5.1,52.8,13.1l-5.7,39.2c-8-2.8-15.9-4.5-24.4-4.5c-21.6,0-35.2,11.9-35.2,39.2
				v147h65.3v47.7h-65.3v65.8h-44.3l-16.5-64.1l-38-2.8v-40.3l34.6-9.1V507z M673.2,505.3l36.9,39.7l75.5-123.1h71.5l-105,163.4
				L848,710.2h-68.7L673.2,569.5v223.6h-63.6V421.9h63.6V505.3z M1472.1,68.4H447.9v1187.1h1024.3V68.4z M384.6,1318.6V5.2h1150.7
				v1313.5H384.6"/>
		</g>
	</g>
</g>
</svg>
