<?xml version="1.0" encoding="utf-8"?>
<!-- Generator: Adobe Illustrator 26.3.1, SVG Export Plug-In . SVG Version: 6.00 Build 0)  -->
<svg version="1.1" id="affiliation" xmlns="http://www.w3.org/2000/svg" xmlns:xlink="http://www.w3.org/1999/xlink" x="0px"
	 y="0px" viewBox="0 0 256 256" style="enable-background:new 0 0 256 256;" xml:space="preserve">
<style type="text/css">
	.st0{fill:#FFFFFF;}
	.st1{display:none;fill:#FFFFFF;}
	.st2{fill:#ED7004;}
</style>
<rect id="black" width="256" height="256"/>
<circle id="background_x5F_circle" class="st0" cx="128" cy="128" r="128"/>
<path id="background_x5F_rectangle" class="st1" d="M206.9,256H49.1C22.1,256,0,233.9,0,206.9V49.1C0,22.1,22.1,0,49.1,0H207
	c27,0,49.1,22.1,49.1,49.1V207C256,233.9,233.9,256,206.9,256z"/>
<g id="logo_00000169557994799884142440000017718490564280908447_">
	<g>
		<path id="path4140" class="st2" d="M17,99.2c1.6-0.6,3.3-0.4,5-0.4c10.3,0,20.7,0,31,0c0.7,0,1.7,0.2,1.7,1c0.1,1.7,0.1,3.5,0,5.2
			c-0.1,1-1.3,1-2.1,1c-9,0-18,0-27,0c0,5.9,0,11.7,0,17.6c7.4,0,14.9,0,22.3,0c0.7,0,1.8,0.1,1.8,1c0.2,1.8,0.2,3.6,0,5.3
			c-0.2,1-1.4,0.9-2.1,0.9c-7.3,0-14.6,0-22,0c0,8,0,16,0,24c0,0.8,0,1.9-1,2.1c-2,0.2-4,0.1-6,0.1c-0.7,0.1-1.1-0.5-1.6-0.9V99.2z"
			/>
		<path id="path4142" class="st2" d="M94.7,98.8c1.4-0.2,2.9,0,4.4-0.1c1,0,2.1-0.1,3,0.3c0.4,1,0.2,2,0.3,3c0,17.7,0,35.3,0,53
			c0.1,0.7-0.2,1.6-1,1.7c-2.1,0.1-4.3,0.1-6.4,0c-0.8-0.1-1.1-1-1-1.7c0-8.1,0-16.2,0-24.3c-7.7,0-15.3,0-23,0c0,8.1,0,16.2,0,24.3
			c0.1,0.7-0.3,1.6-1.1,1.7c-2,0.1-4,0-6.1,0c-0.9,0.1-1.6-0.9-1.5-1.7c0-18.2,0-36.4,0-54.6c-0.1-0.7,0.2-1.7,1.1-1.7
			c2.2-0.1,4.4-0.1,6.6,0c0.8,0.1,0.9,1,0.9,1.7c0,7.7,0,15.4,0,23.1c7.7,0,15.3,0,23,0c0-7.7,0-15.4,0-23
			C94,99.9,93.9,98.9,94.7,98.8z"/>
		<path id="path4144" class="st2" d="M124.3,100.5c0.1-0.6-0.2-1.7,0.7-1.8c2.2-0.2,4.4-0.1,6.6-0.1c0.7-0.1,1.2,0.7,1.2,1.3
			c0.3,8.8,0.4,17.6,0.6,26.5c0.8,5.9,1.6,11.8,2.5,17.6c2.5-8.2,5-16.4,7.5-24.7c0.2-0.6,0.4-1.5,1.2-1.5c3.1,0,6.2-0.1,9.3,0.1
			c0.6,0.7,0.8,1.6,1.1,2.5c2.3,7.6,4.6,15.1,6.9,22.7c0.1,0.2,0.4,1.5,0.4,0.4c0.8-5.5,1.6-11,2.3-16.6c0.4-8.6,0.4-17.3,0.6-26
			c0.1-0.8-0.1-1.9,0.8-2.2c2.3-0.1,4.6-0.1,6.8,0c0.9,0,1,1.1,0.9,1.8c-0.6,9-0.8,18-1.4,26.9c-1.5,9.2-3.1,18.5-4.5,27.7
			c-0.1,0.7-0.4,1.3-0.7,1.9c-2.6,0-5.2,0-7.8,0c-0.8,0.1-1-0.8-1.2-1.4c-3.1-9.8-6.1-19.7-9.2-29.5c-2.7,9.4-5.8,18.7-8.6,28.1
			c-0.3,0.9-0.5,2-1.2,2.7c-2.6,0.2-5.1,0.1-7.7,0.1c-0.8,0.1-1.2-0.9-1.2-1.5c-1.5-9.1-3-18.3-4.5-27.4c-0.6-5.5-0.5-11.1-0.9-16.7
			C124.7,107.7,124.4,104.1,124.3,100.5z"/>
		<path id="path4146" class="st2" d="M212.1,98.6c2.7-0.1,5.4,0,8.1-0.1c1.8,0,3.6-0.2,5.4,0.3c3.6,0.8,6.9,2.8,9,5.9
			c1.8,2.6,2.7,5.8,3,8.9c-0.3,0.9-1.5,0.8-2.3,0.8c-1.8,0-3.6,0.1-5.4-0.1c-1-0.6-0.8-2.1-1.2-3.1c-0.7-3-3.6-5.1-6.6-5.6
			c-3.5-0.5-7.2-0.5-10.6,0.8c-2,0.8-3.9,2.4-4.3,4.6c-0.6,2.8-0.4,6.2,2,8.1c3.7,3.2,8.8,3.9,13.5,4.7c4.4,0.9,9.2,2,12.5,5.3
			c2.8,2.7,3.8,6.8,3.9,10.6c0.1,4-0.4,8.3-2.9,11.6c-2.4,3.1-6.2,4.8-10,5.4c-3.5,0.6-7,0.4-10.5,0.4c-4.3-0.1-8.7-1-12.1-3.8
			c-3.4-2.7-5.1-7-5.5-11.3c-0.1-1-0.5-2.5,0.6-3c2.2-0.1,4.4,0,6.6,0c0.8-0.1,1.1,0.8,1.2,1.4c0.2,1.9,0.5,3.8,1.5,5.4
			c1,1.7,2.8,2.9,4.7,3.4c2.9,0.8,5.9,0.6,8.9,0.6c2.6-0.2,5.6-0.6,7.5-2.7c2-2.4,1.7-5.7,1.6-8.7c0-2.2-1.5-4.2-3.5-5.2
			c-5.8-2.9-12.6-2.6-18.5-5.1c-4.2-1.6-8.2-4.8-9.4-9.3c-1.1-4.5-1-9.6,1.4-13.7C202.9,101.5,207.5,99.2,212.1,98.6z"/>
		<path id="path4148" class="st2" d="M111.3,121.8c0-0.6-0.1-1.6,0.8-1.5c1.7-0.1,3.4-0.2,5,0.1c0.3,0.5,0.2,1.2,0.2,1.8
			c-0.1,5.7,0,11.4-0.1,17.1c-2,0.1-4,0.2-6,0C111.3,133.4,111.4,127.6,111.3,121.8z"/>
		<path id="path4150" class="st2" d="M178.3,126.8c6,0.1,12-0.1,17.9,0.1c0.2,2,0.1,3.9,0,5.9c-6,0.1-12,0-18.1,0
			C178,130.8,177.9,128.8,178.3,126.8z"/>
	</g>
</g>
</svg>
