<?xml version="1.0" encoding="utf-8"?>
<!-- Generator: Adobe Illustrator 26.3.1, SVG Export Plug-In . SVG Version: 6.00 Build 0)  -->
<svg version="1.1" id="affiliation" xmlns="http://www.w3.org/2000/svg" xmlns:xlink="http://www.w3.org/1999/xlink" x="0px"
	 y="0px" viewBox="0 0 256 256" style="enable-background:new 0 0 256 256;" xml:space="preserve">
<style type="text/css">
	.st0{fill:#FFFFFF;}
	.st1{display:none;fill:#FFFFFF;}
	.st2{fill:#010101;}
</style>
<rect id="black" width="256" height="256"/>
<circle id="background_x5F_circle" class="st0" cx="128" cy="128" r="128"/>
<path id="background_x5F_rectangle" class="st1" d="M206.94,256H49.06C22.08,256,0,233.92,0,206.94V49.06C0,22.08,22.08,0,49.06,0
	h157.87C233.92,0,256,22.08,256,49.06v157.87C256,233.92,233.92,256,206.94,256z"/>
<g id="logo">
	<g id="fMNmFW_1_">
		<g>
			<path class="st2" d="M202,202c-49.33,0-98.67,0-148,0c0-49.33,0-98.67,0-148c49.33,0,98.67,0,148,0
				C202,103.33,202,152.67,202,202z M162.15,155.29c-2.08-19.05-1.6-37.9-0.81-56.97c-4.41,0.23-8.53,0.44-12.22,0.63
				c0.19,9.01,0.57,17.61,0.47,26.2c-0.05,4.32-0.88,8.64-1.51,12.94c-0.61,4.13-3.21,6.72-6.97,8.3
				c-5.15,2.17-10.58,2.65-16.07,2.59c-3.99-0.05-7.92-0.73-11.7-2.12c-3.99-1.47-6.51-4.14-7.04-8.46
				c-0.34-2.75-0.81-5.51-0.85-8.28c-0.17-9.73-0.17-19.47-0.25-29.2c-0.01-0.79-0.09-1.59-0.13-2.39c-4,0.19-7.75,0.36-11.67,0.54
				c0.21,4.29,0.5,8.35,0.6,12.41c0.24,9.27,0.47,18.53,0.56,27.8c0.05,5.25,1.81,9.64,6.03,12.79c1.97,1.47,4.17,2.74,6.44,3.69
				c4.12,1.74,8.51,2.61,12.98,2.54c9.98-0.15,19.29-2.23,26.45-9.96c0.84-0.91,1.82-1.69,3.19-2.95c0,4.86,0,9,0,13.48
				C153.87,157.68,157.82,156.54,162.15,155.29z M110.5,66.25c3.62,3.5,7.19,6.95,11.03,10.66c-3.85,3.8-7.65,7.55-11.33,11.19
				c1.98,2.1,3.87,4.1,5.89,6.25c3.84-3.97,7.56-7.82,11.8-12.21c4.04,4.21,7.73,8.06,11.16,11.64c1.98-1.93,3.95-3.84,6.16-5.99
				c-3.75-3.61-7.53-7.25-11.43-11c3.75-3.77,7.24-7.27,10.71-10.75c-2.19-2.22-4.12-4.17-6.14-6.21
				c-3.58,3.54-7.09,7.02-10.96,10.84c-3.67-3.78-7.14-7.35-10.54-10.85C114.86,61.84,112.93,63.8,110.5,66.25z M116.47,137.49
				c3.57-3.72,7.28-7.6,11.1-11.58c4.02,4,7.81,7.76,11.37,11.3c2.16-2.15,4.11-4.1,6.18-6.16c-3.69-3.55-7.49-7.19-11.42-10.97
				c3.8-3.85,7.29-7.38,10.62-10.74c-2.07-2.28-3.91-4.31-5.96-6.56c-3.57,3.76-6.95,7.32-10.78,11.36
				c-3.72-3.95-7.17-7.62-10.52-11.19c-2.15,2.11-4.12,4.04-6.33,6.21c3.61,3.44,7.22,6.88,10.93,10.42
				c-4.06,4.11-7.8,7.9-11.48,11.63C112.3,133.32,114.25,135.27,116.47,137.49z M138.35,160.55c-3.59,3.57-7.09,7.06-11.01,10.97
				c-3.69-3.75-7.16-7.29-10.61-10.8c-1.96,1.93-3.93,3.87-5.97,5.89c3.56,3.6,7.09,7.17,11.02,11.14c-4,3.94-7.78,7.67-11.47,11.3
				c1.88,1.98,3.78,3.99,5.85,6.17c3.82-3.89,7.58-7.7,11.6-11.79c3.81,3.95,7.45,7.72,11.1,11.5c2.19-2.15,4.19-4.11,6.68-6.56
				c-3.94-3.69-7.76-7.27-11.99-11.24c3.72-3.67,7.23-7.15,10.55-10.43C142.23,164.72,140.35,162.69,138.35,160.55z"/>
		</g>
	</g>
</g>
</svg>
