<?xml version="1.0" encoding="utf-8"?>
<!-- Generator: Adobe Illustrator 26.3.1, SVG Export Plug-In . SVG Version: 6.00 Build 0)  -->
<svg version="1.1" id="affiliation" xmlns="http://www.w3.org/2000/svg" xmlns:xlink="http://www.w3.org/1999/xlink" x="0px"
	 y="0px" viewBox="0 0 256 256" style="enable-background:new 0 0 256 256;" xml:space="preserve">
<style type="text/css">
	.st0{display:none;fill:#FFFFFF;}
	.st1{fill:#FFFFFF;}
	.st2{fill:#F2C800;}
</style>
<rect id="black" width="256" height="256"/>
<circle id="background_x5F_circle" class="st0" cx="128" cy="128" r="128"/>
<path id="background_x5F_rectangle" class="st1" d="M206.9,256H49.1C22.1,256,0,233.9,0,206.9V49.1C0,22.1,22.1,0,49.1,0H207
	c27,0,49.1,22.1,49.1,49.1V207C256,233.9,233.9,256,206.9,256z"/>
<g id="logo_00000029004921855638880850000003084163963237851569_">
	<path class="st2" d="M27.7,127c0-2.2,0.3-4.4,0.4-6.6c0.1-2.7,0.5-5.4,0.9-8.2c0.8-5.1,1.9-10.1,3.5-15
		c5.6-17.3,15.2-32.1,28.7-44.3c10.6-9.7,23.3-16.9,37-21.2c5.3-1.7,10.7-2.9,16.2-3.6c6.3-0.9,12.7-1.2,19.1-0.8
		c23.3,1.3,43.8,9.6,61.5,24.9c17.1,14.9,28.6,35.2,32.6,57.5c1.3,7,1.7,14.1,1.5,21.3c0,0.9,0,1.9,0,2.8c0,0.6-0.2,1.1-0.6,1.6
		c-5.9,7.7-11.8,15.5-17.6,23.3l-27.7,36.6c-8.3,11-16.6,22-25,33.1c-0.1,0.3-0.3,0.4-0.6,0.6L76.8,121.9h1c15.6,0,31.1,0,46.7,0
		c0.6,0,1.2,0.2,1.5,0.7c10.4,13.8,20.8,27.6,31.2,41.3c0.1,0.3,0.3,0.5,0.6,0.6c0.2-0.1,0.4-0.4,0.6-0.6
		c10.4-13.8,20.8-27.6,31.2-41.3c0.4-0.5,0.7-1.3,0.6-1.9c-0.7-5.6-2.1-11.1-4.2-16.3c-7.4-18.1-23.5-32-42.3-36.6
		c-5.4-1.4-11.1-2-16.7-1.8c-14.4,0.5-27.1,5.3-38.2,14.6c-10.3,8.7-17.1,19.7-20.3,32.8c-0.9,3.9-1.5,7.9-1.7,11.8
		c-0.5,10.8,1.6,21,6.6,30.6c8.6,16.6,22.1,27.4,40.2,32.2c0.5,0.1,0.9,0.4,1.2,0.8c6,7.9,11.9,15.7,17.8,23.6l10.8,14.3
		c0.2,0.2,0.4,0.5,0.4,0.7c-1.2,0.3-2.5,0.4-3.7,0.5c-3.9,0.4-7.9,0.6-11.8,0.6c-23.4-0.2-44.4-7.5-62.7-22.2
		c-19.1-15.2-31.9-36.9-36.2-60.9c-0.7-3.9-1.2-7.8-1.4-11.7c0-0.3,0.2-0.7-0.3-0.9C27.7,133.1,27.7,127,27.7,127z"/>
</g>
</svg>
