<?xml version="1.0" encoding="utf-8"?>
<!-- Generator: Adobe Illustrator 26.3.1, SVG Export Plug-In . SVG Version: 6.00 Build 0)  -->
<svg version="1.1" id="affiliation" xmlns="http://www.w3.org/2000/svg" xmlns:xlink="http://www.w3.org/1999/xlink" x="0px"
	 y="0px" viewBox="0 0 256 256" style="enable-background:new 0 0 256 256;" xml:space="preserve">
<style type="text/css">
	.st0{display:none;fill:#FFFFFF;}
	.st1{fill:#FFFFFF;}
	.st2{fill:#0768B1;}
	.st3{fill-rule:evenodd;clip-rule:evenodd;fill:#0768B1;}
</style>
<rect id="black" width="256" height="256"/>
<circle id="background_x5F_circle" class="st0" cx="128" cy="128" r="128"/>
<path id="background_x5F_rectangle" class="st1" d="M206.9,256H49.1C22.1,256,0,233.9,0,206.9V49.1C0,22.1,22.1,0,49.1,0H207
	c27,0,49.1,22.1,49.1,49.1V207C256,233.9,233.9,256,206.9,256z"/>
<g id="logo_00000029004921855638880850000003084163963237851569_">
	<g>
		<path id="Path_45" class="st2" d="M123.9,108.7c-2.2-2.2-5.3-3.4-8.5-3.3c-3.9-0.1-7.7,1.6-10.3,4.5c-2.9,3.2-4.4,7.4-4.3,11.7
			c0,2.1,0.5,4.1,1.4,5.9c0.9,1.8,2.4,3.4,4.2,4.4c1.9,1,3.9,1.6,6.1,1.5l0,0c2.1,0,4.1-0.4,6-1.3c1.5-0.7,2.8-1.7,4-2.8
			c1.3-1.3,2.3-2.7,3.1-4.4c1.1-2.3,1.7-4.8,1.6-7.3C127.4,114.3,126.2,111.1,123.9,108.7z M112.8,129.6c-1.3,0-2.7-0.4-3.8-1
			c-1.2-0.6-2.1-1.6-2.7-2.8c-0.6-1.3-0.9-2.6-0.9-4c-0.2-3.3,0.9-6.6,3.1-9.1c1.7-2.1,4.3-3.3,7.1-3.4c2,0,3.8,0.8,5.2,2.2
			c1.5,1.6,2.2,3.7,2.1,5.9c0,1.6-0.3,3.2-0.8,4.8c-0.5,1.5-1.2,2.9-2.2,4.1c-0.9,1.1-2,1.9-3.2,2.6
			C115.4,129.3,114.1,129.6,112.8,129.6L112.8,129.6z"/>
		<g id="Group_72" transform="translate(55.532 0.226)">
			<path id="Path_46" class="st2" d="M81.8,132.8c1.5,0,3-0.1,4.5-0.4c1.5-0.3,2.9-0.9,4.2-1.7c1.3-0.9,2.5-2,3.4-3.2
				c1.1-1.4,2-3,2.6-4.7c0.7-1.9,1-3.9,1-5.9c0-1.7-0.3-3.4-0.8-4.9c-0.5-1.4-1.3-2.7-2.4-3.7c-1.1-1-2.5-1.7-3.9-2.1
				c-1.5-0.3-3-0.5-4.5-0.4h-8.4l-5.8,27.2L81.8,132.8z M85.5,109.5c1.3,0,2.6,0.1,3.9,0.4c1.1,0.4,2,1.1,2.6,2.1
				c0.8,1.4,1.2,3,1,4.6c0,1.7-0.2,3.4-0.8,5c-0.5,1.4-1.2,2.7-2.1,3.9c-0.6,0.8-1.4,1.5-2.2,2c-0.7,0.4-1.4,0.7-2.2,0.9
				c-1.6,0.4-3.3,0.5-5,0.5H77l4.1-19.4H85.5z"/>
			<path id="Path_47" class="st2" d="M102.3,132.8l2.5-11.7h3.8c1-0.1,2,0.1,2.9,0.4c0.7,0.4,1.3,0.9,1.7,1.6
				c0.9,1.4,1.7,2.9,2.3,4.5l2,5.2h5l-2.3-5.6c-0.7-1.7-1.6-3.4-2.8-4.9c-0.4-0.6-0.9-1.1-1.5-1.5c2.3-0.3,4.4-1.2,6.1-2.7
				c1.5-1.5,2.3-3.5,2.3-5.6c0.1-1.4-0.3-2.8-1-4c-0.7-1.1-1.7-1.9-2.9-2.2c-1.7-0.4-3.4-0.6-5.2-0.6h-11.6l-5.8,27.2H102.3z
				 M119.3,114.7c-0.4,0.7-1.1,1.3-1.8,1.7c-1,0.5-2.1,0.8-3.1,0.8c-0.7,0.1-2.1,0.1-4.4,0.1h-4.4l1.7-7.9h8.3
				c0.9,0,1.9,0.1,2.8,0.3c0.5,0.2,0.9,0.5,1.1,1c0.3,0.5,0.5,1.1,0.5,1.8C120,113.2,119.8,114,119.3,114.7L119.3,114.7z"/>
		</g>
		<g id="Group_73" transform="translate(82.17 0.226)">
			<path id="Path_48" class="st2" d="M102.1,132.8l5.8-27.2h-4.5l-5.8,27.2H102.1z"/>
			<path id="Path_49" class="st2" d="M119.4,132.8l15.2-27.2h-4.7l-9.7,17.4c-0.6,1-1.3,2.4-2.1,4c-0.2-1.5-0.5-3.3-0.9-5.4l-3.2-16
				h-4.4l5.3,27.2L119.4,132.8z"/>
			<path id="Path_50" class="st2" d="M152,132.8l0.8-3.9H136l1.6-7.6h12.8l0.8-3.9h-12.8l1.7-7.8h15.4l0.8-3.9h-19.9l-5.8,27.2
				L152,132.8z"/>
		</g>
		<path id="Path_51" class="st3" d="M26.2,128.9l2.4-11.2h15.9l-4.6,21.3h72.5l-0.9,4.1H35.1l4.6-21.3h-7.9l-2.4,11.2H17.5l0.9-4.1
			L26.2,128.9z"/>
		<path id="Path_52" class="st2" d="M77.6,133l2.5-11.7h3.8c1-0.1,2,0.1,2.9,0.4c0.7,0.4,1.3,0.9,1.7,1.6c0.9,1.4,1.7,2.9,2.3,4.5
			l2,5.2h5l-2.3-5.6c-0.7-1.7-1.6-3.4-2.8-4.9c-0.4-0.6-0.9-1.1-1.5-1.5c2.3-0.3,4.4-1.2,6.1-2.7c1.5-1.5,2.3-3.5,2.3-5.6
			c0-1.4-0.3-2.8-1-4c-0.7-1.1-1.7-1.9-2.9-2.2c-1.7-0.4-3.4-0.6-5.2-0.6H78.8L73.1,133L77.6,133z M94.6,114.9
			c-0.4,0.7-1.1,1.3-1.8,1.7c-1,0.5-2.1,0.8-3.1,0.8c-0.7,0.1-2.1,0.1-4.4,0.1h-4.4l1.7-7.9h8.3c0.9,0,1.9,0.1,2.8,0.3
			c0.5,0.2,0.9,0.5,1.2,1c0.3,0.5,0.5,1.1,0.5,1.8C95.3,113.4,95,114.2,94.6,114.9L94.6,114.9z"/>
		<g id="Group_74" transform="translate(49.243 16.883)">
			<path id="Path_53" class="st2" d="M70.7,123.8l-2.1,9.7h-2l2.1-9.7h-3.2l0.4-1.8h8.5l-0.4,1.8H70.7z"/>
			<path id="Path_54" class="st2" d="M73.8,133.5l2.4-11.4h5.7l-0.4,1.9h-3.7l-0.6,2.9h3.2l-0.4,1.9h-3.3l-0.6,3h4.2l-0.4,1.9
				L73.8,133.5z"/>
			<path id="Path_55" class="st2" d="M90.2,132.9c-1.1,0.5-2.2,0.8-3.4,0.8c-3.2,0-4.5-2.4-3.8-5.8c0.5-3.4,3.3-6,6.8-6.1
				c0.9-0.1,1.8,0.2,2.5,0.7l-0.4,2.1c-0.6-0.7-1.5-1-2.4-1c-2.2,0.1-4.1,1.9-4.3,4.1c-0.5,2.2,0.3,4,2.5,4c1.2,0,2.3-0.3,3.3-1
				C90.6,131.5,90.4,132.2,90.2,132.9z"/>
			<path id="Path_56" class="st2" d="M99.8,133.5l1-4.9h-4.9l-1,4.9h-2l2.4-11.4h2l-1,4.6h4.9l1-4.6h2l-2.4,11.4H99.8z"/>
			<path id="Path_57" class="st2" d="M112.5,133.5l-3.8-7.8l-1.7,7.8h-1.8l2.4-11.4h1.9l3.7,7.4l1.5-7.4h1.8l-2.4,11.4H112.5z"/>
			<path id="Path_58" class="st2" d="M122,133.7c-3.3,0-4.7-2.3-4-5.8c0.5-3.4,3.3-5.9,6.7-6c3.4,0,4.7,2.3,4,5.8
				C128.2,131.1,125.4,133.6,122,133.7z M124.2,123.7c-2.2,0-3.5,2-3.9,4.1c-0.4,2.1,0,4,2.2,4c2.1,0,3.4-1.9,3.9-4
				C126.8,125.7,126.4,123.7,124.2,123.7L124.2,123.7z"/>
			<path id="Path_59" class="st2" d="M129.8,133.5l2.4-11.4h2l-2,9.6h4.2l-0.4,1.9L129.8,133.5z"/>
			<path id="Path_60" class="st2" d="M142.1,133.7c-3.3,0-4.7-2.3-4-5.8c0.5-3.4,3.3-5.9,6.7-6c3.4,0,4.7,2.3,4,5.8
				C148.3,131.1,145.5,133.6,142.1,133.7z M144.3,123.7c-2.2,0-3.5,2-3.9,4.1c-0.4,2.1,0,4,2.2,4c2.2,0,3.4-1.9,3.9-4
				C146.9,125.7,146.5,123.7,144.3,123.7L144.3,123.7z"/>
			<path id="Path_61" class="st2" d="M154.8,133.7c-3.3,0-5-2.1-4.2-5.8c0.6-3.4,3.6-6,7-6c0.8,0,1.7,0.1,2.4,0.5l-0.3,2.1
				c-0.7-0.6-1.5-0.9-2.4-0.8c-2.4,0.1-4.3,1.9-4.6,4.2c-0.5,2.5,0.3,4,2.7,4c0.5,0,0.9,0,1.4-0.2l0.5-2.2h-1.7l0.4-1.9h3.7
				l-1.1,5.4C157.3,133.5,156.1,133.7,154.8,133.7L154.8,133.7z"/>
			<path id="Path_62" class="st2" d="M161.5,133.5l2.4-11.4h2l-2.4,11.4H161.5z"/>
			<path id="Path_63" class="st2" d="M166.9,133.5l2.4-11.4h5.7l-0.4,1.9h-3.7l-0.6,2.9h3.3l-0.4,1.9h-3.2l-0.6,2.9h4.2l-0.4,1.9
				L166.9,133.5z"/>
			<path id="Path_64" class="st2" d="M177.7,133.7c-0.9,0.1-1.9-0.2-2.6-0.8l0.6-2.1c0.6,0.8,1.4,1.2,2.4,1.2c0.9,0.1,1.8-0.6,2-1.5
				c0.5-2.5-4.4-1.1-3.5-5.2c0.4-2.1,2.3-3.5,4.3-3.4c0.8-0.1,1.7,0.2,2.4,0.7l-0.6,2c-0.5-0.6-1.3-1-2.1-1
				c-0.8-0.1-1.6,0.5-1.8,1.3c-0.5,2.4,4.4,1.1,3.6,5.2C181.9,132.3,179.9,133.8,177.7,133.7z"/>
		</g>
		<path id="Path_65" class="st2" d="M53,133l2.3-10.6h6.3c1.8,0,3.6-0.2,5.3-0.6c0.8-0.2,1.6-0.5,2.4-0.9c0.8-0.5,1.6-1,2.2-1.7
			c0.8-0.9,1.4-1.8,1.8-2.9c0.5-1.1,0.7-2.3,0.7-3.5c0-1.3-0.3-2.6-1-3.8c-0.6-1.1-1.5-1.9-2.6-2.4c-1.5-0.5-3-0.8-4.5-0.7H54.3
			L48.5,133H53z M69.5,112.8c0,1-0.3,2-0.9,2.9c-0.6,0.9-1.4,1.6-2.4,2c-1.6,0.5-3.2,0.8-4.8,0.7h-5.3l1.9-8.9h6.5
			c1.1-0.1,2.3,0.1,3.4,0.3c0.5,0.2,0.9,0.6,1.2,1C69.4,111.5,69.6,112.2,69.5,112.8L69.5,112.8z"/>
	</g>
</g>
</svg>
