<?xml version="1.0" encoding="utf-8"?>
<!-- Generator: Adobe Illustrator 26.3.1, SVG Export Plug-In . SVG Version: 6.00 Build 0)  -->
<svg version="1.1" id="affiliation" xmlns="http://www.w3.org/2000/svg" xmlns:xlink="http://www.w3.org/1999/xlink" x="0px"
	 y="0px" viewBox="0 0 256 256" style="enable-background:new 0 0 256 256;" xml:space="preserve">
<style type="text/css">
	.st0{display:none;fill:#FFFFFF;}
	.st1{fill:#FFFFFF;}
	.st2{fill:#0B3678;}
	.st3{fill:#23A3DB;}
</style>
<rect id="black" width="256" height="256"/>
<circle id="background_x5F_circle" class="st0" cx="128" cy="128" r="128"/>
<path id="background_x5F_rectangle" class="st1" d="M206.9,256H49.1C22.1,256,0,233.9,0,206.9V49.1C0,22.1,22.1,0,49.1,0h157.9
	c27,0,49.1,22.1,49.1,49.1v157.9C256,233.9,233.9,256,206.9,256z"/>
<g id="logo_00000029004921855638880850000003084163963237851569_">
	<g id="fPbHJI_1_">
		<g>
			<path class="st2" d="M114.3,224c-25.9,0-51.9,0-77.8,0c-5.6,0-4.8,0.4-4.8-4.6c0-51,0.1-101.9-0.1-152.9
				C31.6,51.7,40.4,38,55.2,32.9c4-1.4,8.1-1.5,12.3-1.5c15.9-0.1,31.7,0,47.6,0c24.9,0,49.8,0.1,74.7,0c7.9,0,15.3,1.6,21.7,6.4
				c8.6,6.3,13.2,14.9,14.1,25.5c0.1,0.9,0,1.8,0,2.7c0,41,0.1,82.1,0,123.1c0,14.5-6.8,25.1-19.7,31.7c-4.8,2.5-10,3.3-15.4,3.3
				c-23.4-0.1-46.8,0-70.2,0C118.2,224,116.3,224,114.3,224z M148.5,137.6c-1.6-4.6-4.1-8.5-8.3-11.1c-1.2-0.8-2.3-1.7-3.5-2.6
				c1-1.1,2-2.1,3-3.1c8.6-8.5,9.3-24.3-0.3-33.5c-5.1-4.9-11.2-7.1-18-7.4c-9.2-0.3-18.4-0.2-27.5-0.1c-4.5,0-7.5,2.4-8.8,6.7
				c-0.4,1.4-0.7,2.9-0.7,4.3c0,26.5,0,53,0,79.5c0,3.7,0.1,3.7,3.7,3.7c9.5,0,18.9,0.1,28.4,0c3.5,0,7.1-0.2,10.6-0.9
				c9.4-2,16.9-6.6,21-15.9c2-4.6,2.2-9.4,1.9-14.3c0.2-0.3,0.1-0.5-0.2-0.7c-0.2-1-0.4-1.9-0.6-2.9
				C148.8,138.6,148.7,138.1,148.5,137.6z M182,163.2c0.2-7.5-6.2-11.4-11.5-11.3c-7.5,0.2-11.4,4.7-11.5,11.7
				c-0.1,6.4,5.2,11,11.6,11.3C176.4,175.2,182.7,169.6,182,163.2z"/>
			<path class="st3" d="M182,163.2c0.7,6.4-5.6,12.1-11.5,11.8c-6.4-0.3-11.7-4.9-11.6-11.3c0.1-7,4.1-11.5,11.5-11.7
				C175.8,151.7,182.2,155.7,182,163.2z"/>
			<path class="st3" d="M149,139.1c-0.2-0.5-0.4-1-0.5-1.5C148.7,138.1,148.8,138.6,149,139.1z"/>
			<path class="st3" d="M149.8,142.8c-0.1-0.2-0.3-0.3-0.4-0.5c0,0,0.2-0.2,0.3-0.2C149.9,142.2,150,142.5,149.8,142.8z"/>
			<path class="st2" d="M102.8,146.7c0-3-0.1-5.9,0-8.9c0.1-3.1,1.5-5.1,4.4-5.2c4.8-0.3,9.7-0.2,14.5,0.3c4.9,0.6,7.7,3.8,8.9,8.6
				c2.3,9.1-3.1,16.4-12.4,16.5c-4.3,0-8.6-0.1-12.8,0c-1.8,0-2.7-0.4-2.6-2.5C102.9,152.6,102.8,149.6,102.8,146.7z"/>
			<path class="st2" d="M102.8,108.2c0-2.5-0.1-5,0-7.5c0.2-3.2,1.2-4.4,4.3-5.1c4.6-1,9.1-0.8,13.6,0.3c5.2,1.2,8.2,7.6,6.6,13.7
				c-1.2,4.9-4.8,8-10.2,8.3c-4.1,0.3-8.3,0-12.4,0.1c-1.6,0-2.1-0.7-2-2.2C102.8,113.2,102.8,110.7,102.8,108.2
				C102.8,108.2,102.8,108.2,102.8,108.2z"/>
		</g>
	</g>
</g>
</svg>
