<?xml version="1.0" encoding="utf-8"?>
<!-- Generator: Adobe Illustrator 26.3.1, SVG Export Plug-In . SVG Version: 6.00 Build 0)  -->
<svg version="1.1" id="affiliation" xmlns="http://www.w3.org/2000/svg" xmlns:xlink="http://www.w3.org/1999/xlink" x="0px"
	 y="0px" viewBox="0 0 256 256" style="enable-background:new 0 0 256 256;" xml:space="preserve">
<style type="text/css">
	.st0{display:none;fill:#FFFFFF;}
	.st1{fill:#FFFFFF;}
	.st2{display:none;}
	.st3{display:inline;}
	.st4{fill:#E41B23;}
</style>
<rect id="black" width="256" height="256"/>
<circle id="background_x5F_circle" class="st0" cx="128" cy="128" r="128"/>
<path id="background_x5F_rectangle" class="st1" d="M206.9,256H49.1C22.1,256,0,233.9,0,206.9V49.1C0,22.1,22.1,0,49.1,0h157.9
	c27,0,49.1,22.1,49.1,49.1v157.9C256,233.9,233.9,256,206.9,256z"/>
<g id="logo_00000029004921855638880850000003084163963237851569_">
	<g id="sioux_x5F_logo_x5F_fullcolor_1_" class="st2">
		<g class="st3">
			<g>
				<path d="M26.5,155.3h-3.3v-2.1h9v2.1h-3.3v8.9h-2.4V155.3z"/>
				<path d="M34.8,153.2H43v2.1h-5.8v2.4h5.4v1.8h-5.4v2.7h5.9v2.1h-8.3V153.2z"/>
				<path d="M53.3,156.9c-0.1-1.1-1.3-1.9-2.4-1.9c-2.2,0-3,1.8-3,3.8c0,1.8,0.8,3.7,3,3.7c1.5,0,2.3-1,2.5-2.5h2.3
					c-0.2,2.7-2.2,4.4-4.8,4.4c-3.4,0-5.4-2.5-5.4-5.7c0-3.3,2.1-5.8,5.4-5.8c2.4,0,4.4,1.4,4.7,4h-2.3V156.9z"/>
				<path d="M58.4,153.2h2.4v4.2h4.4v-4.2h2.4v11h-2.4v-4.7h-4.4v4.7h-2.4V153.2z"/>
				<path d="M71.3,153.2h2.4l4.6,7.3l0,0v-7.3h2.3v11h-2.4l-4.6-7.3l0,0v7.3h-2.3V153.2z"/>
				<path d="M88.6,153c3.4,0,5.4,2.5,5.4,5.8c0,3.2-1.9,5.7-5.4,5.7s-5.4-2.5-5.4-5.7C83.3,155.5,85.2,153,88.6,153z M88.6,162.4
					c2.2,0,3-1.8,3-3.7c0-1.9-0.8-3.8-3-3.8c-2.2,0-3,1.8-3,3.8C85.7,160.5,86.5,162.4,88.6,162.4z"/>
				<path d="M96.9,153.2h2.4v8.9h5.4v2.1h-7.8C96.9,164.2,96.9,153.2,96.9,153.2z"/>
				<path d="M111.6,153c3.4,0,5.4,2.5,5.4,5.8c0,3.2-1.9,5.7-5.4,5.7s-5.4-2.5-5.4-5.7C106.1,155.5,108.2,153,111.6,153z
					 M111.6,162.4c2.2,0,3-1.8,3-3.7c0-1.9-0.8-3.8-3-3.8s-3,1.8-3,3.8C108.6,160.5,109.4,162.4,111.6,162.4z"/>
				<path d="M127.4,162.9c-0.8,1.1-1.9,1.5-3,1.5c-3.4,0-5.4-2.5-5.4-5.7c0-3.3,1.9-5.8,5.4-5.8c2.3,0,4.3,1.4,4.6,3.9h-2.3
					c-0.2-1.3-1.1-1.8-2.3-1.8c-2.2,0-3,1.8-3,3.8c0,1.8,0.8,3.7,3,3.7c1.6,0,2.5-0.8,2.6-2.4h-2.4v-1.8h4.6v5.9h-1.5L127.4,162.9z"
					/>
				<path d="M132.2,153.2h2.4v11h-2.4V153.2z"/>
				<path d="M137.7,153.2h8.2v2.1h-5.8v2.4h5.2v1.8H140v2.7h5.9v2.1h-8.3v-11.1H137.7z"/>
				<path d="M150.5,160.5c0,1.5,1.1,2.1,2.4,2.1c0.8,0,2.2-0.2,2.2-1.4s-1.6-1.4-3.3-1.8c-1.6-0.5-3.3-1-3.3-3.1
					c0-2.3,2.2-3.3,4.1-3.3c2.3,0,4.4,1,4.4,3.5h-2.3c-0.1-1.4-1-1.7-2.2-1.7c-0.8,0-1.7,0.3-1.7,1.3c0,0.8,0.6,0.9,3.3,1.7
					c0.8,0.2,3.3,0.7,3.3,3.2c0,2.1-1.6,3.5-4.6,3.5c-2.4,0-4.7-1.3-4.7-3.9h2.3V160.5z"/>
			</g>
		</g>
		<g class="st3">
			<path class="st4" d="M208.6,152.3c0.7,0.2,1.9,0.6,2.5-0.2c1.6-3.2-2.4-4.9-3.8-7.1c-0.7-1.1-1.6-2.2-1.5-3.5
				c0.5-1.8,2.3-2.7,3.8-3.3c3.2-0.9,3.2,2.6,5,4.2c1.6,0.7,2.4,2.5,4.4,2.4c1,0.1,1.8-0.5,2.2-1.3c0.6-2.5-1.4-3.7-3.1-4.9
				c-2.2-1.6-4.7-2.7-5.8-5.2c0.6-0.7,0.1-1.9,1.3-2.3c2.4-0.5,4,1.5,6.5,0.9c2.2-0.1,3.7-1.4,4.4-3.3c-0.8-3.5-4.1-0.7-6.2-2.4
				c-1.4-1.4-3.9-1.6-4.2-3.8c1.3-1.4,3.4-1.4,4.3-3.3c0.2-1,0.1-2.4-0.6-3.1c-1.9-0.6-3.2,0.6-5,0.6c-0.5,0.6-1.4,0.8-2.3,0.8
				c-0.6-0.6-1.6-1-1.7-1.9c1.4-1.9,3.1-2.7,4-4.9c0.2-1.5,0.7-3.4-0.8-4.2c-4.9-0.6-4.3,5.4-8.8,5.7c-0.7-0.2-1.1-0.8-1.5-1.4
				c-0.7-3,0.5-5.7-0.1-8.6c-0.3-0.7-1.1-1.5-1.9-1.5c-0.6,0.2-1.1,0.5-1.4,1c-0.9,2.5,0.7,5.9-1.4,8.1c-0.2,0.1-0.3,0.2-0.6,0.3
				c-0.7,0.3-1.4,0.5-2.1,0.2c-0.7-0.5-1.5-0.6-1.8-1.5c-0.2-2.7-2.3-4.7-3.5-7c-0.5-0.6-1,0-1.4,0.3c-1.5,3-0.5,6.7,0.3,9.7
				c-0.1,0.2-0.1,0.8-0.6,0.6c-2.7-1.9-5.2-3.9-8-5.6l-0.1-0.6c2.2-3.9,5.6-7.4,9.4-9.2c2.4-0.6,5.7,0.6,7.8-0.5
				c0.7-0.2,1.3-0.8,1.6-1.6c0.3-0.8,0.2-1.9-0.3-2.4c-0.5-0.2-0.9-0.3-1.4-0.5c-2.1-0.6-4.6-0.2-6.3,0.2c-6.4,1.3-11.3,6.2-15.5,11
				c-3,3.8-5.5,7.9-7.3,12.1c-2.1,5.6-2.9,12.6-1.4,18.6c0.7,3,2.1,5.5,2.6,8.6c1.3,1.9,0.9,5.1,3.8,5.6c0.8,0.5,1.4-0.2,2.1-0.6
				c-0.3-3.5-1.9-6.7-2.5-10.3c-0.1-1-1.4-2.2-0.3-3c5,1.9,10.5,0.3,15.9,0.2c0.9,0.2,1,1.3,1.5,1.9c0,4.9-5.2,5.8-8.1,8.8
				c-1.3,3-3.9,4.6-5.8,6.7l-0.1,1.3c0.7,0.7,1.4,1.7,2.4,1.3c4-2.3,5.7-7.2,9.8-9.7c0.6-0.5,0.8-1.5,1.5-1.6
				c0.2,0.1,0.2,0.3,0.2,0.6c-1.9,2.2-3.1,4.7-4.3,7.2c-0.8,2.3-3,3.8-2.9,6.3c0.9,0.6,2.3,1.5,3.7,0.8c1.1-0.8,0.7-2.4,1.3-3.5
				c2.2-4.1,3.3-8.8,6-12.7c0.8-0.5,1.4-0.9,2.3-0.5c0.8,0.6,1.5,1.4,1.5,2.4c-0.5,3.7-1.5,7.2-2.4,10.6c-0.1,1.3-1.3,3.1,0.2,4
				c0.7,0.3,1.5,0.3,2.2,0c0.1-0.2,0.2-0.3,0.2-0.6c1.5-3.2,1.7-6.8,3-10c0.5-1.5-1.1-4.1,1-4.8c1-0.3,1.9,0.1,2.6,0.8
				C205.7,146.4,205.8,150.3,208.6,152.3 M185.4,119.4c0,0.8-0.8,0.9-1.3,1.3c-3.5,0.3-7.2-1.7-10.5,0.1c-0.9,0.6-0.9,1.7-0.9,2.6
				c2.1,3.5,7,4.2,10.7,3.8c0.5,0,1,0.3,1.1,0.8c0,0.8,0.5,1.6-0.5,2.2c-1.4,0.7-2.7,0.5-4.3,0.6c-3.3,0.2-7.3,1.4-9.4-1.8
				c-1.6-5.7,0.6-11.5,4.2-15.7c0.6-0.9,1.3-2.2,2.5-2.6c2.2,2.6,4.4,4.6,7.2,6.6C185.2,117.5,185.5,118.4,185.4,119.4 M196.8,138.4
				c-0.2-0.1-0.3-0.2-0.6-0.3c-3.1-1.5-5.1-4.9-7.1-7.8c-1.9-3-1.5-7,0.5-9.7c1.5-2.3,4-3.7,6.6-4.2c0.7-0.1,1.5-0.2,2.2-0.2
				c5.2-0.6,8.6,3.2,11.4,6.5c1.3,2.7,1.4,6.8-0.1,9.4c-0.9,1.3-2.1,2.5-3.3,3.3C203.9,138.1,200.5,139.2,196.8,138.4"/>
			<path class="st4" d="M231.2,127.5c-0.1-3-1.8-5.2-2.6-7.9c-0.9-1.3-1.6-3-2.5-4.3c-0.6-0.6-1.1-0.3-1.8-0.1v3.4
				c0.3,1.1,0.6,2.3,0.9,3.3c1.1,2.1,2.1,4,2.5,6.4c1.1,6.4-2.1,11.2-4.7,16.1c-2.9,6.4-8.8,11.8-13.2,16.2
				c-0.9,0.6-2.4,0.8-2.4,2.2c0.1,0.9,0.5,1.3,1.3,1.7c1,0.1,2.1-0.2,3-0.6c1.7-1.3,4.2-1.3,5.1-3.5c4.7-4.6,8.3-10.6,11.2-16.4
				C231.2,139.1,232.2,133.4,231.2,127.5"/>
			<path class="st4" d="M210,103c1.9,0.1,5,1,6.2-0.7c0.3-1-0.1-2.1-0.7-2.7c-2.3-0.7-3.8-3.2-6.6-2.2c-0.7,0.8-1.7,1.7-1.5,3.2
				C207.7,101.8,208.8,102.7,210,103"/>
		</g>
		<rect x="23.1" y="95.1" class="st3" width="134.2" height="50.7"/>
		<g class="st3">
			<path class="st1" d="M60.9,101.9h5.2v36.9h-5.2V101.9z"/>
			<path class="st1" d="M75.6,110.7c0-6,4.6-9,8.9-9c4.3,0,8.9,3,8.9,9v19.5c0,6-4.6,9-8.9,9c-4.3,0-8.9-3-8.9-9V110.7z M81,130.1
				c0,2.5,1.7,3.8,3.5,3.8c1.8,0,3.5-1.1,3.5-3.8v-19.5c0-2.5-1.7-3.8-3.5-3.8c-1.8,0-3.5,1.1-3.5,3.8V130.1z"/>
			<path class="st1" d="M120.4,130.5c0,4.8-3.9,8.6-8.6,8.6c-4.7,0-8.6-3.8-8.6-8.6V102h5.2v28.1c0,2.6,1.4,3.9,3.3,3.9
				c1.8,0,3.3-1.3,3.3-3.9v-28.2h5.2V130.5z"/>
			<path class="st1" d="M135.1,119.5l-6.8-17.6h5.6l4,11l4-11h5.6l-7.1,17.6l7.6,19.3h-5.6l-4.6-12.4l-4.6,12.4h-5.6L135.1,119.5z"
				/>
			<path class="st1" d="M46,118.2l-4-1.6c-2.7-1.1-3-2.1-3-4.9c0-2.4,0.7-4.8,3.5-4.8c2.7,0,3.8,2.1,3.8,4.4v1.1l5.2-0.9v-1.7
				c0-4.1-3.5-8.3-8.8-8.3c-6,0-9,4.4-9,10c0,4.6,1.1,7.6,5.7,9.5l3.8,1.6c2.6,1,3.1,1.7,3.1,5.6c0,3.3-0.2,5.5-3.9,5.5
				c-2.7,0-3.8-1.8-3.8-3.8v-1.6l-5.2,0.9v1c0,5,3.9,8.8,9,8.8c6.8,0,9.1-4.6,9.1-10.8C51.4,122.9,50.5,119.9,46,118.2z"/>
		</g>
	</g>
	<g id="sioux_x5F_logo_x5F_fullcolor_00000106864170604262168560000010570423041106889626_">
		<g>
			<path class="st4" d="M154,189.2c1.7,0.6,4.9,1.4,6.4-0.6c4.1-8.1-6.1-12.5-9.6-18c-1.7-2.9-4.1-5.5-3.8-9c1.2-4.6,5.8-7,9.6-8.4
				c8.1-2.3,8.1,6.7,12.8,10.7c4.1,1.7,6.1,6.4,11.3,6.1c2.6,0.3,4.6-1.2,5.5-3.2c1.4-6.4-3.5-9.3-7.8-12.5
				c-5.5-4.1-11.9-7-14.8-13.3c1.4-1.7,0.3-4.9,3.2-5.8c6.1-1.2,10.1,3.8,16.5,2.3c5.5-0.3,9.3-3.5,11.3-8.4c-2-9-10.4-1.7-15.7-6.1
				c-3.5-3.5-9.9-4.1-10.7-9.6c3.2-3.5,8.7-3.5,11-8.4c0.6-2.6,0.3-6.1-1.4-7.8c-4.9-1.4-8.1,1.4-12.8,1.4c-1.2,1.4-3.5,2-5.8,2
				c-1.4-1.4-4.1-2.6-4.3-4.9c3.5-4.9,7.8-7,10.1-12.5c0.6-3.8,1.7-8.7-2-10.7c-12.5-1.4-11,13.6-22.3,14.5c-1.7-0.6-2.9-2-3.8-3.5
				c-1.7-7.5,1.2-14.5-0.3-21.7c-0.9-1.7-2.9-3.8-4.9-3.8c-1.4,0.6-2.9,1.2-3.5,2.6c-2.3,6.4,1.7,15.1-3.5,20.6
				c-0.6,0.3-0.9,0.6-1.4,0.9c-1.7,0.9-3.5,1.2-5.2,0.6c-1.7-1.2-3.8-1.4-4.6-3.8c-0.6-7-5.8-11.9-9-17.7c-1.2-1.4-2.6,0-3.5,0.9
				c-3.8,7.5-1.2,17.1,0.9,24.6c-0.3,0.6-0.3,2-1.4,1.4c-7-4.9-13.3-9.9-20.3-14.2l-0.3-1.4c5.5-9.9,14.2-18.8,23.8-23.5
				c6.1-1.4,14.5,1.4,19.7-1.2c1.7-0.6,3.2-2,4.1-4.1c0.9-2,0.6-4.9-0.9-6.1c-1.2-0.6-2.3-0.9-3.5-1.2c-5.2-1.4-11.6-0.6-15.9,0.6
				C90.8,40.5,78.3,53,67.6,65.2c-7.5,9.6-13.9,20-18.6,30.7c-5.2,14.2-7.2,31.9-3.5,47.2c1.7,7.5,5.2,13.9,6.7,21.7
				c3.2,4.9,2.3,13,9.6,14.2c2,1.2,3.5-0.6,5.2-1.4c-0.9-9-4.9-17.1-6.4-26.1c-0.3-2.6-3.5-5.5-0.9-7.5c12.8,4.9,26.7,0.9,40.3,0.6
				c2.3,0.6,2.6,3.2,3.8,4.9c0,12.5-13.3,14.8-20.6,22.3c-3.2,7.5-9.9,11.6-14.8,17.1l-0.3,3.2c1.7,1.7,3.5,4.3,6.1,3.2
				c10.1-5.8,14.5-18.3,24.9-24.6c1.4-1.2,2-3.8,3.8-4.1c0.6,0.3,0.6,0.9,0.6,1.4c-4.9,5.5-7.8,11.9-11,18.3
				c-2,5.8-7.5,9.6-7.2,15.9c2.3,1.4,5.8,3.8,9.3,2c2.9-2,1.7-6.1,3.2-9c5.5-10.4,8.4-22.3,15.4-32.2c2-1.2,3.5-2.3,5.8-1.2
				c2,1.4,3.8,3.5,3.8,6.1c-1.2,9.3-3.8,18.3-6.1,27c-0.3,3.2-3.2,7.8,0.6,10.1c1.7,0.9,3.8,0.9,5.5,0c0.3-0.6,0.6-0.9,0.6-1.4
				c3.8-8.1,4.3-17.4,7.5-25.5c1.2-3.8-2.9-10.4,2.6-12.2c2.6-0.9,4.9,0.3,6.7,2C146.7,174.1,147,184,154,189.2 M95.2,105.5
				c0,2-2,2.3-3.2,3.2c-9,0.9-18.3-4.3-26.7,0.3c-2.3,1.4-2.3,4.3-2.3,6.7c5.2,9,17.7,10.7,27.2,9.6c1.2,0,2.6,0.9,2.9,2
				c0,2,1.2,4.1-1.2,5.5c-3.5,1.7-7,1.2-11,1.4c-8.4,0.6-18.6,3.5-23.8-4.6c-4.1-14.5,1.4-29.3,10.7-40c1.4-2.3,3.2-5.5,6.4-6.7
				c5.5,6.7,11.3,11.6,18.3,16.8C94.6,100.8,95.4,103.1,95.2,105.5 M124.1,153.9c-0.6-0.3-0.9-0.6-1.4-0.9c-7.8-3.8-13-12.5-18-19.7
				c-4.9-7.5-3.8-17.7,1.2-24.6c3.8-5.8,10.1-9.3,16.8-10.7c1.7-0.3,3.8-0.6,5.5-0.6c13.3-1.4,21.7,8.1,29,16.5
				c3.2,7,3.5,17.4-0.3,23.8c-2.3,3.2-5.2,6.4-8.4,8.4C142.1,153,133.4,155.9,124.1,153.9"/>
			<path class="st4" d="M211.4,126c-0.3-7.5-4.6-13.3-6.7-20c-2.3-3.2-4.1-7.5-6.4-11c-1.4-1.4-2.9-0.9-4.6-0.3v8.7
				c0.9,2.9,1.4,5.8,2.3,8.4c2.9,5.2,5.2,10.1,6.4,16.2c2.9,16.2-5.2,28.4-11.9,40.9c-7.2,16.2-22.3,29.9-33.6,41.2
				c-2.3,1.4-6.1,2-6.1,5.5c0.3,2.3,1.2,3.2,3.2,4.3c2.6,0.3,5.2-0.6,7.5-1.4c4.3-3.2,10.7-3.2,13-9c11.9-11.6,21.2-27,28.4-41.7
				C211.4,155.6,214,141.1,211.4,126"/>
			<path class="st4" d="M157.8,64c4.9,0.3,12.8,2.6,15.7-1.7c0.9-2.6-0.3-5.2-1.7-7c-5.8-1.7-9.6-8.1-16.8-5.5
				c-1.7,2-4.3,4.3-3.8,8.1C151.7,60.8,154.6,63.1,157.8,64"/>
		</g>
	</g>
</g>
</svg>
