<?xml version="1.0" encoding="utf-8"?>
<!-- Generator: Adobe Illustrator 26.3.1, SVG Export Plug-In . SVG Version: 6.00 Build 0)  -->
<svg version="1.1" id="affiliation" xmlns="http://www.w3.org/2000/svg" xmlns:xlink="http://www.w3.org/1999/xlink" x="0px"
	 y="0px" viewBox="0 0 256 256" style="enable-background:new 0 0 256 256;" xml:space="preserve">
<style type="text/css">
	.st0{display:none;fill:#FFFFFF;}
	.st1{fill:#FFFFFF;}
	.st2{fill:#0F238C;}
</style>
<rect id="black" width="256" height="256"/>
<circle id="background_x5F_circle" class="st0" cx="128" cy="128" r="128"/>
<path id="background_x5F_rectangle" class="st1" d="M206.9,256H49.1C22.1,256,0,233.9,0,206.9V49.1C0,22.1,22.1,0,49.1,0h157.9
	c27,0,49.1,22.1,49.1,49.1v157.9C256,233.9,233.9,256,206.9,256z"/>
<g id="logo">
	<g id="layer1" transform="translate(0,-752.36216)">
		<g id="g3337" transform="translate(-353.3275,478.58303)">
			<g id="g3339">
				<polygon id="polygon3341" class="st2" points="518.7,431.5 526.4,394.4 529.3,431.5 545.8,431.5 538.2,372.6 520.5,372.6 
					512.2,408 504,372.6 486.3,372.6 478.7,431.5 495.2,431.5 498.1,394.4 505.8,431.5 				"/>
				<g id="g3343">
					<polygon id="polygon3345" class="st2" points="570,372.6 554.1,372.6 554.1,431.5 591.8,431.5 591.8,419.2 570,419.2 					"/>
				</g>
				<g id="g3347">
					<path id="path3349" class="st2" d="M408.6,372.6h-20l-17.7,58.9h17.7l2.4-10.6h15.3l2.4,10.6h17.7L408.6,372.6L408.6,372.6z
						 M398.6,385.6l5.3,24.1l-10.6,0L398.6,385.6z"/>
				</g>
			</g>
			<g id="g3351">
				<path id="path3353" class="st2" d="M468.7,389.1c-14.6-12.8-37.5-7.6-37.7,4.1c-3.3-21.7,23-26.3,37.7-19.4
					C468.9,377.3,469.2,381.1,468.7,389.1L468.7,389.1z"/>
				<path id="path3355" class="st2" d="M456.5,396.1c-3.7-1.4-9.1-2.7-9.1-6.9c0-1.7,0.7-3.6,4.1-4.7c-11.8,1.2-15.7,15.5-2.7,22.6
					c2.3,1.2,6.2,2.6,6.2,6.8c0,5-5.5,6.8-9.1,6.7c-6-0.1-10.8-2.2-16.3-6.1v14.1c6.5,2.8,17,6,27.6,2.8c8.6-2.6,16-9.8,16-17.5
					C473.4,401.4,462.6,398.4,456.5,396.1L456.5,396.1z"/>
			</g>
		</g>
	</g>
</g>
</svg>
