<?xml version="1.0" encoding="utf-8"?>
<!-- Generator: Adobe Illustrator 26.3.1, SVG Export Plug-In . SVG Version: 6.00 Build 0)  -->
<svg version="1.1" id="affiliation" xmlns="http://www.w3.org/2000/svg" xmlns:xlink="http://www.w3.org/1999/xlink" x="0px"
	 y="0px" viewBox="0 0 256 256" style="enable-background:new 0 0 256 256;" xml:space="preserve">
<style type="text/css">
	.st0{fill:#FFFFFF;}
	.st1{display:none;fill:#FFFFFF;}
	.st2{fill:#231F20;}
</style>
<rect id="black" width="256" height="256"/>
<circle id="background_x5F_circle" class="st0" cx="128" cy="128" r="128"/>
<path id="background_x5F_rectangle" class="st1" d="M206.9,256H49.1C22.1,256,0,233.9,0,206.9V49.1C0,22.1,22.1,0,49.1,0h157.9
	c27,0,49.1,22.1,49.1,49.1v157.9C256,233.9,233.9,256,206.9,256z"/>
<g id="logo">
	<path id="path862" class="st2" d="M80.7,178.2h30v-66.8h-30V178.2"/>
	<path id="path864" class="st2" d="M43.5,178.2h30V81.4h-30V178.2"/>
	<path id="path866" class="st2" d="M146.2,164.7c0-8.8-7.1-16-16-16c-8.7,0-15.8,7.2-15.8,16c0,8.8,7.1,15.9,15.8,15.9
		C139,180.6,146.2,173.5,146.2,164.7"/>
	<path id="path868" class="st2" d="M184.6,111.4v38.8c0,3.4-1.4,5.2-4.2,5.2c-2.9,0-4.3-1.7-4.3-5.2v-38.8h-29.9v31.3
		c0,11,2.6,19.6,7.8,25.9c6.7,8,15.5,11.6,26.4,11.6c10.9,0,19.7-3.6,26.4-11.6c5.2-6.2,7.8-14.8,7.8-25.9v-31.3H184.6"/>
</g>
</svg>
