<?xml version="1.0" encoding="utf-8"?>
<!-- Generator: Adobe Illustrator 26.3.1, SVG Export Plug-In . SVG Version: 6.00 Build 0)  -->
<svg version="1.1" id="affiliation" xmlns="http://www.w3.org/2000/svg" xmlns:xlink="http://www.w3.org/1999/xlink" x="0px"
	 y="0px" viewBox="0 0 256 256" style="enable-background:new 0 0 256 256;" xml:space="preserve">
<style type="text/css">
	.st0{fill:#FFFFFF;}
	.st1{display:none;fill:#FFFFFF;}
	.st2{fill:#92C4E0;}
	.st3{fill:#008DC7;}
</style>
<rect id="black" width="256" height="256"/>
<circle id="background_x5F_circle" class="st0" cx="128" cy="128" r="128"/>
<path id="background_x5F_rectangle" class="st1" d="M206.9,256H49.1C22.1,256,0,233.9,0,206.9V49.1C0,22.1,22.1,0,49.1,0h157.9
	c27,0,49.1,22.1,49.1,49.1v157.9C256,233.9,233.9,256,206.9,256z"/>
<g id="logo">
	<g>
		<path id="Fill-1" d="M127.9,108.5v13.4h1.2v-6.2h4.6v-1h-4.6v-5.2h5.2v-1H127.9z M153.2,109.3c-1.5,3.8-3,8.2-4.3,12.9h1.2
			c0.3-1.2,0.7-2.5,1-3.7h5.3c0.4,1.2,0.7,2.5,1,3.7h1.2c-1.2-4.3-2.6-8.6-4.3-12.9H153.2z M187.6,109.3v12.9h1.1v-5.9h4.3v-1h-4.3
			v-5h4.8v-1H187.6z M138.6,109.3v12.9h1.1v-6.1h1.6l3.1,6.1h1.3l-3.3-6.2c1.4-0.4,2.6-1.5,2.6-3.4c0-1.9-1.1-3.3-3.7-3.3
			L138.6,109.3z M162.8,109.3v12.9h1.1v-11.5h0l5.8,11.5h1.4v-12.9H170v11.1h0l-5.6-11.1L162.8,109.3z M175.7,109.3v12.9h1.1v-5.9
			l0.8-0.8l4.4,6.7h1.4l-5.1-7.5l5-5.4h-1.5c-1.7,1.9-3.4,3.8-5.1,5.7v-5.7H175.7z M197.2,109.3v8.4c0,3.1,1.7,4.7,4.1,4.7
			c2.5,0,4.2-1.6,4.2-4.9v-8.1h-1.1v8.2c0,2.6-1.2,3.8-3.1,3.8c-1.9,0-3.1-1.3-3.1-3.8v-8.2L197.2,109.3z M210.1,109.3v12.9h1.1
			v-6.1h1.6l3.1,6.1h1.3l-3.3-6.2c1.4-0.4,2.6-1.5,2.6-3.4c0-1.9-1.1-3.3-3.7-3.3L210.1,109.3z M219.4,109.3v0.9h3.6v11.9h1.1v-11.9
			h3.6v-0.9L219.4,109.3z M139.7,110.3h1.5c2,0,2.6,1.2,2.6,2.5c0,1.3-0.8,2.4-2.6,2.4h-1.5V110.3z M211.2,110.3h1.5
			c2,0,2.6,1.2,2.6,2.5c0,1.3-0.8,2.4-2.6,2.4h-1.5V110.3z M153.6,110.5L153.6,110.5c0.2,0.4,0.3,1,0.5,1.5c0.7,1.9,1.3,3.8,1.9,5.6
			h-4.7c0.6-1.8,1.2-3.8,1.8-5.6C153.3,111.5,153.5,110.9,153.6,110.5L153.6,110.5z"/>
		<path id="Fill-18" d="M197.3,132.1c-2.2,0-3.6,1.3-3.6,3.2c0,1.7,0.9,2.6,2.6,3.5c1.5,0.9,2.5,1.5,2.5,3c0,1.5-0.9,2.4-2.6,2.4
			c-0.9,0-1.6-0.1-2.4-0.4l-0.2,1c0.8,0.2,1.6,0.4,2.4,0.4c2.5,0,4-1.4,4-3.5c0-1.6-0.9-2.5-2.7-3.6c-1.4-0.8-2.4-1.5-2.4-2.9
			c0-1.2,0.7-2.2,2.3-2.2c0.6,0,1.3,0.1,1.8,0.3l0.2-1C198.7,132.2,197.9,132.1,197.3,132.1L197.3,132.1z M128.1,132.3v8.4
			c0,3.1,1.7,4.7,4.1,4.7c2.5,0,4.2-1.6,4.2-4.9v-8.1h-1.1v8.2c0,2.6-1.2,3.8-3.1,3.8c-1.9,0-3.1-1.3-3.1-3.8v-8.2H128.1z
			 M141,132.3v12.9h1.1v-11.5h0l5.8,11.5h1.4v-12.9h-1.1v11.1h0l-5.6-11.1H141z M154.6,132.3v12.9h1.1v-12.9H154.6z M159.7,132.3
			c1.2,4.3,2.6,8.6,4.3,12.9h1.1c1.7-4.3,3.1-8.5,4.3-12.9h-1.2c-0.9,3.5-2,7-3.1,10.2l-0.5,1.5h0l-0.5-1.5
			c-1.2-3.3-2.3-6.8-3.2-10.2H159.7z M173.4,132.3v12.9h6.1v-1h-5.1v-5.3h4.4v-1h-4.4v-4.7h5v-1H173.4z M183.7,132.3v12.9h1.1v-6.1
			h1.6l3.1,6.1h1.3l-3.3-6.2c1.4-0.4,2.6-1.5,2.6-3.4c0-1.9-1.1-3.3-3.7-3.3H183.7z M204.4,132.3v12.9h1.1v-12.9H204.4z
			 M208.6,132.3v0.9h3.6v11.9h1.1v-11.9h3.6v-0.9H208.6z M218.6,132.3c1.2,2.4,2.5,4.9,4.1,7.3v5.6h1.1v-5.6
			c1.7-2.5,2.9-4.9,4.1-7.3h-1.2c-0.9,2-2.1,4.4-3.3,6.4c-1.3-2-2.5-4.3-3.5-6.4H218.6z M184.8,133.2h1.5c2,0,2.6,1.2,2.6,2.5
			c0,1.3-0.8,2.4-2.6,2.4h-1.5V133.2z"/>
		<path id="Fill-31" d="M62.3,155.1c-3.5,0-5.4,2.8-5.4,6.7c0,3.7,1.7,6.5,5.2,6.5c3.5,0,5.4-2.8,5.4-6.7
			C67.5,157.9,65.8,155.1,62.3,155.1L62.3,155.1z M158.1,155.1c-2.2,0-3.6,1.3-3.6,3.2c0,1.7,0.9,2.6,2.6,3.5c1.5,0.9,2.5,1.5,2.5,3
			c0,1.5-0.9,2.4-2.6,2.4c-0.9,0-1.6-0.1-2.4-0.4l-0.2,1c0.8,0.2,1.6,0.4,2.4,0.4c2.5,0,4-1.4,4-3.5c0-1.6-0.9-2.5-2.7-3.6
			c-1.4-0.8-2.4-1.5-2.4-2.9c0-1.2,0.7-2.2,2.3-2.2c0.6,0,1.3,0.1,1.8,0.3l0.2-1C159.5,155.2,158.7,155.1,158.1,155.1z M225.3,155.1
			c-2.2,0-3.6,1.3-3.6,3.2c0,1.7,0.9,2.6,2.6,3.5c1.5,0.9,2.5,1.5,2.5,3c0,1.5-0.9,2.4-2.6,2.4c-0.9,0-1.6-0.1-2.4-0.4l-0.2,1
			c0.8,0.2,1.6,0.4,2.4,0.4c2.5,0,4-1.4,4-3.5c0-1.6-0.9-2.5-2.7-3.6c-1.4-0.8-2.4-1.5-2.4-2.9c0-1.2,0.7-2.2,2.3-2.2
			c0.6,0,1.3,0.1,1.8,0.3l0.2-1C226.7,155.2,225.9,155.1,225.3,155.1z M168.3,155.1c-3.3,0-5.3,2.7-5.3,6.7c0,4.1,2,6.4,5.2,6.4
			c1.1,0,2.1-0.3,3-0.7l-0.3-0.9c-0.7,0.3-1.6,0.6-2.5,0.6c-2.7,0-4.2-2-4.2-5.6c0-3.3,1.4-5.6,4-5.6c1,0,1.8,0.2,2.6,0.6l0.4-0.9
			C170.3,155.3,169.4,155.1,168.3,155.1L168.3,155.1z M206.6,155.1c-3.3,0-5.3,2.7-5.3,6.7c0,4.1,2,6.4,5.2,6.4c1.1,0,2.1-0.3,3-0.7
			l-0.3-0.9c-0.7,0.3-1.6,0.6-2.5,0.6c-2.7,0-4.2-2-4.2-5.6c0-3.3,1.4-5.6,4-5.6c1,0,1.8,0.2,2.6,0.6l0.4-0.9
			C208.6,155.3,207.6,155.1,206.6,155.1z M70.7,155.2v12.9h1.1v-5.9h4.3v-1h-4.3v-5h4.8v-1H70.7z M87.2,155.2
			c-1.5,3.8-3,8.2-4.3,12.9H84c0.3-1.2,0.7-2.5,1-3.7h5.3c0.4,1.2,0.7,2.5,1,3.7h1.2c-1.2-4.3-2.6-8.6-4.3-12.9H87.2z M95.7,155.2
			v12.9h1.1v-5.2h1.8c2.4,0,3.8-1.6,3.8-4c0-1.8-0.9-3.1-2.5-3.5c-0.4-0.1-0.9-0.2-1.4-0.2H95.7z M106.2,155.2v12.9h1.1v-5.2h1.8
			c2.4,0,3.8-1.6,3.8-4c0-1.8-0.9-3.1-2.5-3.5c-0.4-0.1-0.9-0.2-1.4-0.2H106.2z M116,155.2v12.9h5.8v-1h-4.7v-11.9H116z
			 M124.1,155.2v12.9h1.1v-12.9H124.1z M129,155.2v12.9h6.1v-1h-5.1v-5.3h4.4v-1h-4.4v-4.7h5v-1H129z M138.5,155.2v12.9h3.2
			c3.7,0,5.7-2.3,5.7-6.6c0-3.7-1.9-6.2-5.5-6.2H138.5z M174.8,155.2v12.9h1.1v-12.9H174.8z M180.1,155.2v12.9h6.1v-1h-5.1v-5.3h4.4
			v-1h-4.4v-4.7h5v-1H180.1z M189.9,155.2v12.9h1.1v-11.5h0l5.8,11.5h1.4v-12.9h-1.1v11.1h0l-5.6-11.1H189.9z M212.9,155.2v12.9h6.1
			v-1H214v-5.3h4.4v-1H214v-4.7h5v-1H212.9z M62.2,156c3,0,4.2,2.4,4.2,5.7c0,2.9-1.1,5.5-4,5.5c-3,0-4.2-2.4-4.2-5.7
			C58.1,158.6,59.3,156,62.2,156L62.2,156z M96.8,156.2h1.6c0.4,0,0.8,0,1.1,0.1c1.1,0.3,1.7,1.3,1.7,2.7c0,1.8-0.9,2.9-2.6,2.9
			h-1.9L96.8,156.2z M107.3,156.2h1.6c0.4,0,0.8,0,1.1,0.1c1.1,0.3,1.7,1.3,1.7,2.7c0,1.8-0.9,2.9-2.6,2.9h-1.9L107.3,156.2z
			 M139.6,156.2h2.2c3,0,4.3,2.3,4.3,5.3c0,3.9-1.4,5.6-4.4,5.6h-2.2V156.2z M87.6,156.4L87.6,156.4c0.2,0.4,0.3,1,0.5,1.5
			c0.7,1.9,1.3,3.8,1.9,5.6h-4.7c0.6-1.8,1.2-3.8,1.8-5.6C87.3,157.4,87.5,156.9,87.6,156.4L87.6,156.4z"/>
		<path id="Fill-48" class="st2" d="M77.2,85.7v59.4h12.2V85.7H77.2z M97.5,96.7v48.4h12.2V96.7H97.5z M56.9,107.2v37.9h12.2v-37.9
			H56.9z"/>
		<path id="Fill-50" class="st3" d="M91.8,86.3v58.2l2.8-0.7V87.1L91.8,86.3z M112.1,97.3v47.2l2.9-0.8V98.1L112.1,97.3z
			 M71.5,107.8v36.7l2.9-0.8v-35.1L71.5,107.8z"/>
		<path id="Fill-52" class="st2" d="M136.8,126.1c-6.4,0-13.2,0.1-20,0.4v2.7c17.4-1.4,34.3-2.4,49.2-2.2
			C157.5,126.5,147.6,126.1,136.8,126.1L136.8,126.1z M55.2,131.6c-28,4.9-40.3,11.2-29,15.6c10.1,4.4,40.5,5.4,73.3,3.3
			C78.7,150,61.2,150,50.5,148c-12.4-3.5-11.3-7.7,4.7-11.8L55.2,131.6z"/>
	</g>
</g>
</svg>
