<?xml version="1.0" encoding="utf-8"?>
<!-- Generator: Adobe Illustrator 26.3.1, SVG Export Plug-In . SVG Version: 6.00 Build 0)  -->
<svg version="1.1" id="affiliation" xmlns="http://www.w3.org/2000/svg" xmlns:xlink="http://www.w3.org/1999/xlink" x="0px"
	 y="0px" viewBox="0 0 256 256" style="enable-background:new 0 0 256 256;" xml:space="preserve">
<style type="text/css">
	.st0{fill:#FFFFFF;}
	.st1{display:none;fill:#FFFFFF;}
</style>
<rect id="black" width="256" height="256"/>
<circle id="background_x5F_circle" class="st0" cx="128" cy="128" r="128"/>
<path id="background_x5F_rectangle" class="st1" d="M206.9,256H49.1C22.1,256,0,233.9,0,206.9V49.1C0,22.1,22.1,0,49.1,0h157.9
	c27,0,49.1,22.1,49.1,49.1v157.9C256,233.9,233.9,256,206.9,256z"/>
<g id="logo">
	<path d="M225.2,157.9c-7-15.4-22.8-17.7-32.6-24.1c-4.7-3.1-6.6-9.3-7.4-14.4c-4.6,0.5-12.4,0.6-16.1-8.8
		c-2.9-7.4-1.7-19.6-11.4-30C148.9,71.1,138,68,128,68.7c12.2,8.2,7.4,20.5-1.5,20.5c-12.4,0-15.8-14.9-33.9-14.9
		c-4.1,0-7.8,1.3-10.1,2.8c10.1,1.3,12.6,9.6,15.7,17.1c2.5,6,7,9.5,13.6,11.3c-1.2,0.7-4,1.5-7.7,1.5c-8,0-13.6-4.2-19.3-10.1
		c-5-5.2-10.7-10.1-20.1-10.1c-4.6,0-8.2,1.5-9.4,2.3c5.2,0.8,12.8,3.9,12.8,9.4c0,4.7-5.2,6.5-9.4,2c-4.7-5-11.3-8.8-18.9-8.8
		c-3.7,0-7.5,1.2-9.1,2.7c9,1,14.3,6.8,19.9,19.7c3.1,7.3,7.6,14.1,18.9,14.3c5.1,0.1,12.4-2.4,16.7,1.7c4,3.9,2.7,9,4.5,13.1
		c2.3,5.2,7.1,7.9,16.6,8.3c-7.8,6.5-26.5,2.6-32.9-4.1c0.8,16.7,14,31.8,40.3,24.7c4.6-1.2,7.8-0.5,9.6,4.1
		c2.4,6.3,8.1,7.4,13.5,6.7c12.3-1.5,19.6,1,26.7,9.4c1.6-14-8.5-22.3-14.8-26.2c-6-3.8-6.6-7.7-6.7-10.7c4.3,5,10,7.1,15.9,7.9
		c10.2,1.4,17.5,4.3,21.3,9.7c1.1-15.4-15.1-18.9-17-25.4c5.1,3.3,8.8,4.5,14.1,4.1c7.1-0.5,15.7-6.1,22,4.8
		C207.5,151.4,218.1,153.3,225.2,157.9 M118.9,219.1h18.2v-18.2h-18.2V219.1z M118.9,55.1h18.2V36.9h-18.2V55.1z M137.1,137.1h-18.2
		v-18.2h18.2V137.1z"/>
</g>
</svg>
