<?xml version="1.0" encoding="utf-8"?>
<!-- Generator: Adobe Illustrator 26.3.1, SVG Export Plug-In . SVG Version: 6.00 Build 0)  -->
<svg version="1.1" id="affiliation" xmlns="http://www.w3.org/2000/svg" xmlns:xlink="http://www.w3.org/1999/xlink" x="0px"
	 y="0px" viewBox="0 0 256 256" style="enable-background:new 0 0 256 256;" xml:space="preserve">
<style type="text/css">
	.st0{fill:#FFFFFF;}
	.st1{display:none;fill:#FFFFFF;}
	.st2{fill:#C41F2C;}
</style>
<rect id="black" width="256" height="256"/>
<circle id="background_x5F_circle" class="st0" cx="128" cy="128" r="128"/>
<path id="background_x5F_rectangle" class="st1" d="M206.94,256H49.06C22.08,256,0,233.92,0,206.94V49.06C0,22.08,22.08,0,49.06,0
	h157.87C233.92,0,256,22.08,256,49.06v157.87C256,233.92,233.92,256,206.94,256z"/>
<g id="logo">
	<g id="g96d6W_1_">
		<g>
			<path class="st2" d="M139.57,104.71c-1.52,6.51-2.74,12.58-4.41,18.53c-0.86,3.07-3.06,5.28-6.17,6.6
				c-7.22,3.08-13.9,7-18.98,13.21c-5.29,6.46-7.57,13.92-7.3,22.15c0.24,7.11,4.5,11.84,11.82,13.39
				c6.96,1.47,13.85,0.91,20.68-0.92c1.57-0.42,2.39-1.16,2.73-2.93c1.64-8.61,3.47-17.19,5.25-25.78
				c3.53-16.98,7.09-33.95,10.63-50.93c0.1-0.48,0.17-0.97,0.26-1.45c1.79-9.52-1.85-15.01-11.48-16.23
				c-5.08-0.65-10.32-0.62-15.44-0.27c-10.6,0.72-20.49,4.45-30.37,8.05c-0.91,0.33-1.83,0.65-3.13,1.11
				c-1.13-8.2-2.98-16.15-0.02-24.13c1.5-4.02,4.61-6.47,8.58-7.89c9.94-3.56,20.22-5.58,30.7-6.64c9.4-0.95,18.84-1.66,28.21,0.04
				c4.3,0.78,8.44,2.41,12.66,3.63c4.65,1.34,8.59,3.86,12.09,7.13c7.01,6.56,9.93,14.95,10.37,24.24c0.2,4.19-0.14,8.48-0.85,12.63
				c-2.11,12.34-4.4,24.64-6.86,36.92c-3.5,17.48-7.21,34.92-10.84,52.38c-0.42,2-0.79,4.04-1.51,5.95
				c-0.32,0.86-1.3,1.76-2.19,2.09c-5.62,2.09-11.17,4.55-16.97,5.91c-22.68,5.33-45.55,6.87-68.5,1.71
				c-7.78-1.75-14.91-5.02-20.54-10.94c-6.82-7.16-8.66-16-8.27-25.47c0.91-22.15,11.96-37.82,31.21-48.02
				c13.88-7.35,28.86-11.27,44.32-13.52C136.44,105.09,137.63,104.96,139.57,104.71z"/>
		</g>
	</g>
</g>
</svg>
