<?xml version="1.0" encoding="utf-8"?>
<!-- Generator: Adobe Illustrator 26.3.1, SVG Export Plug-In . SVG Version: 6.00 Build 0)  -->
<svg version="1.1" id="affiliation" xmlns="http://www.w3.org/2000/svg" xmlns:xlink="http://www.w3.org/1999/xlink" x="0px"
	 y="0px" viewBox="0 0 256 256" style="enable-background:new 0 0 256 256;" xml:space="preserve">
<style type="text/css">
	.st0{fill:#FFFFFF;}
	.st1{display:none;fill:#FFFFFF;}
	.st2{fill:#BF0028;}
</style>
<rect id="black" width="256" height="256"/>
<circle id="background_x5F_circle" class="st0" cx="128" cy="128" r="128"/>
<path id="background_x5F_rectangle" class="st1" d="M206.9,256H49.1C22.1,256,0,233.9,0,206.9V49.1C0,22.1,22.1,0,49.1,0H207
	c27,0,49.1,22.1,49.1,49.1V207C256,233.9,233.9,256,206.9,256z"/>
<g id="logo">
	<g>
		<path id="path6376" class="st2" d="M50.1,205.8h155.7V50.2H50.1V205.8z"/>
		<path id="path6380" class="st0" d="M75.2,146.5c0,5.6-0.3,12.7-3.2,12.7c-1.7,0-2.2-1.2-2.6-2.5c-0.4-1.2-1-2.5-2.9-2.5
			c-1.5,0-3.2,1.2-2.9,2.9c0.6,3,3.6,4.3,6.5,4.3c7.7,0,10.3-7.8,10.3-14.4v-34.1c0-2.8,1.8-2.9,4-3.2h1.7l0.1-0.4v-1.1l-0.3-0.3
			c-2.3,0-5.8,0.3-8.5,0.3c-4,0-5.8-0.3-7.3-0.3c-0.4,0-1,0-1,0.7v0.8l0.3,0.3c4.8,0,5.8,0.8,5.8,4.1V146.5z"/>
		<path id="path6382" class="st0" d="M128.1,135.8c0-3,0.8-3.3,3.6-3.3h0.7c0.3,0,0.4-0.7,0.4-1.2c0-0.3,0-0.8-0.4-0.8h-16.5
			c-0.6,0-0.7,0.7-0.7,1.4c0,0.6,0.1,1,0.4,1h4.3c2.5,0,3.9,0.8,3.9,3.7v4c0,3.4-3.4,6.5-10.2,6.5c-8.9,0-16.5-8.9-16.5-19
			c0-13.8,10.6-18.7,17.3-18.7c7.7,0,11.1,4.4,11.8,8.7c0.1,0.3,0.4,0.3,0.7,0.3c0.3,0,1.2-0.1,1.2-0.6c0-2.5-0.3-7-0.4-7.4
			c-3.4-1.8-7.4-3.2-12.8-3.2c-6.6,0-24.3,3.4-24.3,22c0,8.7,7.3,20.1,23.8,20.1c2.6,0,9.4-0.8,13.8-3.6V135.8z"/>
		<path id="path6386" class="st0" d="M189.7,107.8h-5.9V131c0,7.8-2.5,13.2-10,13.2c-7.4,0-9.9-5.4-9.9-13.2v-23.2h-5.9v23.9
			c0,11.4,5.8,17.6,15.8,17.6c10.2,0,16-6.2,16-17.6V107.8z"/>
		<path id="path6388" class="st0" d="M143.5,175.6h3.1V78.9h-3.1V175.6z"/>
	</g>
</g>
</svg>
