<?xml version="1.0" encoding="utf-8"?>
<!-- Generator: Adobe Illustrator 26.3.1, SVG Export Plug-In . SVG Version: 6.00 Build 0)  -->
<svg version="1.1" id="affiliation" xmlns="http://www.w3.org/2000/svg" xmlns:xlink="http://www.w3.org/1999/xlink" x="0px"
	 y="0px" viewBox="0 0 256 256" style="enable-background:new 0 0 256 256;" xml:space="preserve">
<style type="text/css">
	.st0{fill:#FFFFFF;}
	.st1{display:none;fill:#FFFFFF;}
	.st2{fill:#231F20;}
</style>
<rect id="black" width="256" height="256"/>
<circle id="background_x5F_circle" class="st0" cx="128" cy="128" r="128"/>
<path id="background_x5F_rectangle" class="st1" d="M206.9,256H49.1C22.1,256,0,233.9,0,206.9V49.1C0,22.1,22.1,0,49.1,0H207
	c27,0,49.1,22.1,49.1,49.1V207C256,233.9,233.9,256,206.9,256z"/>
<g id="logo">
	<g>
		<path id="path22" class="st2" d="M27.8,98.6v58.9l72.8,0c-0.6-0.4-1.1-0.8-1.6-1.3c-4.2-4-4.2-8.7-4.3-13.1v-24.8H108v26.1
			c0,1.8,0.1,3.6,1.5,5c1.1,1.1,2.7,1.5,4.2,1.5c2.1,0,3.4-0.8,4.2-1.5c1.5-1.5,1.6-3.3,1.6-5.1v-26.1H133v22.2c0,4.8,0,11-4.9,15.7
			c-0.5,0.4-1,0.9-1.6,1.3h19.9c-5.9-4.2-8.6-11.2-8.6-18.1c0-11.2,7.5-22.7,21.7-22.7c6.4,0,12.4,2.2,16.8,6.7
			c1.8,1.8,2.6,3.3,3.5,4.9l-11.1,5.5c-1.1-2.5-3.1-6.9-8.7-6.9c-2.9,0-4.8,1.4-5.6,2.2c-3.1,3-3.1,7.7-3.1,9.4
			c0,6.2,2.3,12.1,8.9,12.1c6.2,0,8-5.4,8.5-6.9l11.3,5.4c-1.1,2-2.1,3.9-4.1,5.9c-0.9,0.8-1.8,1.6-2.8,2.3h12.2v-39.2h13.2V149
			h17.2v8.4l12.6,0V98.6L27.8,98.6"/>
		<path id="path24" class="st0" d="M88,127.6c0,0-7.2-1.5-7.2-1.5s-7.2,1.5-7.2,1.5c0,0,0,0,0,0l0.1,0.4l0,0l0,0c0,0,0.1,0,0.2,0.1
			l0.1,0.6c0,0,0,0,0,0c0,0,0.3,0,0.3,0h13c0,0,0.2,0,0.3,0c0,0,0,0,0,0l0.1-0.6c0.1-0.1,0.2-0.1,0.2-0.1l0,0l0,0L88,127.6
			C88,127.7,88,127.6,88,127.6"/>
		<path id="path26" class="st0" d="M87.2,129C87.2,129,87.2,128.9,87.2,129l0-0.2c0,0,0,0,0,0h-1.1c0,0,0,0,0,0v0.2c0,0,0,0,0,0l0,0
			c0,0,0,0,0,0c0,0,0,0.2,0.1,0.3c0,0,0,0,0,0c0,0,0,0,0,0c0,0,0,0,0,0c0,0,0,0.1,0,0.1c0,0,0,0.1,0,0.1c0,0,0,0,0,0c0,0,0,0,0,0
			c0,0,0,0,0,0c0,0,0,0,0,0v4c0,0-0.1,0.1-0.1,0.1c0,0,0,0,0,0v0.1c0,0,0,0,0,0c0,0,0,0,0,0h-0.1c0,0,0,0,0,0c0,0,0,0.1,0,0.1h1.1
			c0,0,0-0.1,0-0.1c0,0,0,0,0,0h-0.1c0,0,0,0,0,0c0,0,0,0,0,0v-0.1c0,0,0,0,0,0c0,0,0,0-0.1-0.1v-4c0,0,0,0,0,0c0,0,0,0,0,0
			c0,0,0,0,0,0c0,0,0,0,0,0c0,0,0-0.1,0-0.1c0,0,0-0.1,0-0.1c0,0,0,0,0,0c0,0,0,0,0,0c0,0,0,0,0,0C87.1,129.2,87.2,129,87.2,129
			C87.2,129,87.2,129,87.2,129L87.2,129"/>
		<path id="path28" class="st0" d="M84.9,129C84.9,129,84.9,128.9,84.9,129l0-0.2c0,0,0,0,0,0h-1.1c0,0,0,0,0,0v0.2c0,0,0,0,0,0l0,0
			c0,0,0,0,0,0c0,0,0,0.2,0.1,0.3c0,0,0,0,0,0c0,0,0,0,0,0c0,0,0,0,0,0c0,0,0,0.1,0,0.1c0,0,0,0.1,0,0.1c0,0,0,0,0,0h0c0,0,0,0,0,0
			c0,0,0,0,0,0v4c0,0-0.1,0.1-0.1,0.1c0,0,0,0,0,0v0.1c0,0,0,0,0,0c0,0,0,0,0,0h-0.1c0,0,0,0,0,0c0,0,0,0.1,0,0.1h1.1
			c0,0,0-0.1,0-0.1c0,0,0,0,0,0h-0.1c0,0,0,0,0,0c0,0,0,0,0,0v-0.1c0,0,0,0,0,0c0,0,0,0-0.1-0.1v-4c0,0,0,0,0,0c0,0,0,0,0,0
			c0,0,0,0,0,0c0,0,0,0,0,0c0,0,0-0.1,0-0.1c0,0,0-0.1,0-0.1c0,0,0,0,0,0c0,0,0,0,0,0c0,0,0,0,0,0C84.8,129.2,84.8,129,84.9,129
			C84.8,129,84.8,129,84.9,129L84.9,129"/>
		<path id="path30" class="st0" d="M82.5,129C82.5,129,82.5,128.9,82.5,129l0-0.2c0,0,0,0,0,0h-1.1c0,0,0,0,0,0v0.2c0,0,0,0,0,0l0,0
			c0,0,0,0,0,0c0,0,0,0.2,0.1,0.3c0,0,0,0,0,0c0,0,0,0,0,0c0,0,0,0,0,0c0,0,0,0.1,0,0.1c0,0,0,0.1,0,0.1c0,0,0,0,0,0c0,0,0,0,0,0
			c0,0,0,0,0,0c0,0,0,0,0,0v4c0,0-0.1,0.1-0.1,0.1c0,0,0,0,0,0v0.1c0,0,0,0,0,0c0,0,0,0,0,0h-0.1c0,0,0,0,0,0c0,0,0,0.1,0,0.1h1.1
			c0,0,0-0.1,0-0.1c0,0,0,0,0,0h-0.1c0,0,0,0,0,0c0,0,0,0,0,0v-0.1c0,0,0,0,0,0c0,0,0,0-0.1-0.1v-4c0,0,0,0,0,0c0,0,0,0,0,0
			c0,0,0,0,0,0c0,0,0,0,0,0c0,0,0-0.1,0-0.1c0,0,0-0.1,0-0.1c0,0,0,0,0,0c0,0,0,0,0,0c0,0,0,0,0,0C82.4,129.2,82.5,129,82.5,129
			C82.5,129,82.5,129,82.5,129L82.5,129"/>
		<path id="path32" class="st0" d="M80.2,129C80.2,129,80.2,128.9,80.2,129l0-0.2c0,0,0,0,0,0h-1.1c0,0,0,0,0,0v0.2c0,0,0,0,0,0l0,0
			c0,0,0,0,0,0c0,0,0,0.2,0.1,0.3c0,0,0,0,0,0c0,0,0,0,0,0c0,0,0,0,0,0c0,0,0,0.1,0,0.1c0,0,0,0.1,0,0.1c0,0,0,0,0,0c0,0,0,0,0,0
			c0,0,0,0,0,0c0,0,0,0,0,0v4c0,0-0.1,0.1-0.1,0.1c0,0,0,0,0,0v0.1c0,0,0,0,0,0c0,0,0,0,0,0h-0.1c0,0,0,0,0,0c0,0,0,0.1,0,0.1h1.1
			c0,0,0-0.1,0-0.1c0,0,0,0,0,0h-0.1c0,0,0,0,0,0c0,0,0,0,0,0v-0.1c0,0,0,0,0,0c0,0,0,0-0.1-0.1v-4c0,0,0,0,0,0c0,0,0,0,0,0
			c0,0,0,0,0,0c0,0,0,0,0,0c0,0,0-0.1,0-0.1c0,0,0-0.1,0-0.1c0,0,0,0,0,0c0,0,0,0,0,0c0,0,0,0,0,0C80.1,129.2,80.1,129,80.2,129
			C80.1,129,80.1,129,80.2,129L80.2,129"/>
		<path id="path34" class="st0" d="M77.8,129C77.8,129,77.8,128.9,77.8,129l0-0.2c0,0,0,0,0,0h-1.1c0,0,0,0,0,0v0.2c0,0,0,0,0,0l0,0
			c0,0,0,0,0,0c0,0,0,0.2,0.1,0.3c0,0,0,0,0,0c0,0,0,0,0,0c0,0,0,0,0,0c0,0,0,0.1,0,0.1c0,0,0,0.1,0,0.1c0,0,0,0,0,0c0,0,0,0,0,0
			c0,0,0,0,0,0c0,0,0,0,0,0v4c0,0-0.1,0.1-0.1,0.1c0,0,0,0,0,0v0.1c0,0,0,0,0,0c0,0,0,0,0,0h0c0,0,0,0,0,0c0,0,0,0.1,0,0.1h1.1
			c0,0,0-0.1,0-0.1c0,0,0,0,0,0h-0.1c0,0,0,0,0,0c0,0,0,0,0,0v-0.1c0,0,0,0,0,0c0,0,0,0-0.1-0.1v-4c0,0,0,0,0,0c0,0,0,0,0,0
			c0,0,0,0,0,0c0,0,0,0,0,0c0,0,0-0.1,0-0.1c0,0,0-0.1,0-0.1c0,0,0,0,0,0c0,0,0,0,0,0c0,0,0,0,0,0C77.7,129.2,77.8,129,77.8,129
			C77.8,129,77.8,129,77.8,129L77.8,129"/>
		<path id="path36" class="st0" d="M75.5,129C75.5,129,75.5,128.9,75.5,129l0-0.2c0,0,0,0,0,0h-1.1c0,0,0,0,0,0v0.2c0,0,0,0,0,0l0,0
			c0,0,0,0,0,0c0,0,0,0.2,0.1,0.3c0,0,0,0,0,0c0,0,0,0,0,0c0,0,0,0,0,0c0,0,0,0.1,0,0.1c0,0,0,0.1,0,0.1c0,0,0,0,0,0h0c0,0,0,0,0,0
			c0,0,0,0,0,0v4c0,0-0.1,0.1-0.1,0.1c0,0,0,0,0,0v0.1c0,0,0,0,0,0c0,0,0,0,0,0h-0.1c0,0,0,0,0,0c0,0,0,0.1,0,0.1h1.1
			c0,0,0-0.1,0-0.1c0,0,0,0,0,0h-0.1c0,0,0,0,0,0c0,0,0,0,0,0v-0.1c0,0,0,0,0,0c0,0,0,0-0.1-0.1v-4c0,0,0,0,0,0c0,0,0,0,0,0
			c0,0,0,0,0,0c0,0,0,0,0,0c0,0,0-0.1,0-0.1c0,0,0-0.1,0-0.1c0,0,0,0,0,0c0,0,0,0,0,0c0,0,0,0,0,0C75.4,129.2,75.4,129,75.5,129
			C75.4,129,75.4,129,75.5,129L75.5,129"/>
		<path id="path38" class="st0" d="M84.1,124.7c0,0-0.1,0-0.1,0c0,0,0,0,0,0s0-0.1,0-0.1c0,0,0,0,0,0s-0.1,0-0.1,0c0,0,0,0,0,0v-0.1
			c0,0,0,0,0,0c0,0,0,0-0.1,0c0,0,0,0,0-0.1c0-0.2,0-1.2-0.5-2c-0.4-0.7-1.1-1-1.4-1.2c0-0.1-0.2-0.2-0.3-0.2c0,0-0.1,0-0.1-0.1
			c0,0,0,0,0,0c0,0,0-0.1,0.1-0.1c0,0,0,0,0,0v-0.1c0,0,0,0,0,0c0,0-0.1,0-0.1,0c0,0,0,0,0,0c0,0,0,0,0-0.1c0,0,0-0.1-0.1-0.1v-0.8
			c0,0,0,0,0,0c0,0,0,0,0,0h0c0,0,0,0,0,0v-0.1c0,0,0,0,0,0h0c0,0,0,0,0-0.1c0,0,0-0.1,0-0.1h0c0,0,0,0,0,0v-0.1c0,0,0,0,0,0h0
			c0,0,0,0,0,0c-0.1-0.1-0.3-0.3-0.3-0.3c0,0,0,0,0,0c0,0,0,0-0.1,0c0,0,0,0,0,0c0,0,0,0,0,0c0,0,0,0,0-0.1c0,0-0.1-0.1-0.1-0.1h0
			c0,0-0.1,0.1-0.1,0.1c0,0,0,0,0,0.1c0,0,0,0,0,0c0,0,0,0,0,0c0,0-0.1,0-0.1,0c0,0,0,0,0,0c0,0-0.1,0.2-0.3,0.3c0,0,0,0,0,0h0
			c0,0,0,0,0,0v0.1c0,0,0,0,0,0h0c0,0,0,0,0,0.1c0,0,0,0.1,0,0.1h0c0,0,0,0,0,0v0.1c0,0,0,0,0,0h0c0,0,0,0,0,0c0,0,0,0,0,0v0.8
			c0,0-0.1,0-0.1,0.1c0,0.1,0,0,0,0.1c0,0,0,0,0,0c0,0-0.1,0-0.1,0c0,0,0,0,0,0v0.1c0,0,0,0,0,0c0.1,0,0.1,0,0.1,0.1c0,0,0,0,0,0
			c0,0,0,0.1-0.1,0.1c-0.1,0-0.3,0.1-0.3,0.2c-0.3,0.2-1,0.5-1.4,1.2c-0.6,0.8-0.5,1.9-0.5,2c0,0,0,0.1,0,0.1c0,0-0.1,0-0.1,0
			c0,0,0,0,0,0v0.1c0,0,0,0,0,0c0,0-0.1,0-0.1,0s0,0,0,0c0,0,0,0.1,0,0.1s0,0,0,0c0,0-0.1,0-0.1,0s0,0,0,0c0,0,0,0.1,0,0.1
			c0,0,0,0,0,0c0,0,0.1,0,0.1,0.1c0,0.1,0.1,0.1,0.1,0.1v0.5c0,0.1-0.1,0.2-0.1,0.2c0,0,0,0,0,0c0,0,0,0.5,0,0.5l3.3-0.7h0l3.3,0.7
			c0,0,0-0.5,0-0.5c0,0,0,0,0,0c0,0-0.1-0.1-0.1-0.2v-0.5c0,0,0.1,0,0.1-0.1c0-0.1,0.1-0.1,0.1-0.1c0,0,0,0,0,0
			C84.2,124.8,84.2,124.8,84.1,124.7C84.2,124.7,84.1,124.7,84.1,124.7"/>
		<path id="path40" class="st0" d="M87.8,135.2v-1h-0.6v-0.4H74.4v0.4h-0.6v1h-0.6v1l15.1,0v-1L87.8,135.2"/>
	</g>
</g>
</svg>
